# https://github.com/mikedh/trimesh
v 0.04288216 0.02849840 0.09935518
v 0.04263807 -0.03979519 0.09697672
v 0.04045806 0.03050000 0.10694094
v 0.04263176 0.02849840 0.10741450
v 0.04279799 -0.03979519 0.10607751
v 0.03988570 -0.04255113 0.09939790
v 0.04033180 0.03050000 0.09526765
v 0.03297113 0.00017717 0.00400343
v 0.04212673 -0.03979519 0.11103380
v 0.03264076 -0.00453930 0.00400343
v 0.03112464 0.00290884 0.00001561
v 0.03296692 0.01912520 0.01002789
v 0.03128825 0.02448118 0.01002789
v 0.02756687 0.02839710 0.01002789
v 0.04060956 -0.03979519 0.11661676
v 0.03435888 -0.04580000 0.10851648
v 0.03555094 -0.04534348 0.09966939
v 0.03153181 -0.00956572 0.00400343
v 0.03049231 -0.00742594 0.00001561
v 0.01963015 -0.02460016 0.00000136
v 0.02257611 0.02192969 0.00001561
v 0.02763368 0.01475510 0.00001561
v 0.01430955 0.02790277 0.00000136
v 0.02238462 0.03031982 0.01002789
v 0.04117351 0.02849840 0.11487921
v 0.04108723 -0.03979519 0.08995174
v 0.02716759 -0.01575725 0.00001561
v 0.02603129 -0.02020858 0.00400343
v 0.02223312 -0.02429395 0.00400343
v 0.00786737 0.03050000 0.00000136
v 0.03517638 0.03050000 0.12295811
v 0.03071536 -0.04580000 0.08613126
v 0.03443148 -0.04365089 0.08530521
v 0.02944229 -0.01473777 0.00400343
v 0.03808867 -0.03979519 0.12234213
v 0.03144817 -0.04487249 0.12066378
v -0.03148218 -0.00034937 0.00000136
v -0.02365435 0.02069176 0.00001561
v -0.01624528 0.02675072 0.00001561
v -0.00787245 0.03050000 0.00001561
v 0.03873257 0.02849840 0.12114578
v -0.03075937 0.00635750 0.00001561
v -0.02839524 0.01353864 0.00001561
v -0.02956310 0.02684595 0.01002789
v -0.02696856 0.02884102 0.01002789
v -0.02099458 0.03050000 0.01002789
v 0.01652112 -0.02846053 0.00400343
v -0.03298041 0.00102860 0.00400343
v -0.03297199 0.01912520 0.01002789
v -0.03226917 0.02248611 0.01002789
v -0.04262631 0.02849840 0.09704793
v -0.04035372 0.03050000 0.09526765
v -0.03219131 -0.00707865 0.00400343
v -0.04287041 -0.03979519 0.09917002
v 0.03556146 0.02849840 0.12662904
v 0.03436835 -0.03979519 0.12826157
v 0.00558636 -0.03099708 0.00000136
v -0.04287041 -0.03979519 0.10580690
v -0.04295668 0.02849840 0.10313649
v 0.03076586 -0.03979519 0.13248260
v 0.02253928 -0.04580000 0.12881880
v 0.01130152 -0.03099708 0.00400343
v -0.02863723 -0.01306106 0.00000136
v -0.04108389 -0.03979519 0.08995174
v -0.03815556 -0.04375172 0.10063118
v 0.02308008 -0.04580000 0.07636999
v -0.03017334 -0.01318429 0.00400343
v -0.03765186 -0.04159327 0.08606361
v -0.03763055 -0.04314372 0.11259422
v 0.02643952 0.03050000 0.13359350
v 0.03030714 0.02849840 0.13295972
v 0.01435163 -0.04580000 0.07075677
v 0.00267512 -0.04580000 0.06788518
v -0.02610897 -0.01999012 0.00400343
v -0.04231067 0.02849840 0.10991935
v -0.00558302 -0.03098962 0.00000136
v -0.03441604 -0.04580000 0.09927150
v -0.04192980 -0.03979519 0.11180288
v -0.03920374 0.03050000 0.11399797
v 0.02770628 -0.03979519 0.13532393
v 0.01907121 -0.04305573 0.13669385
v -0.00800712 -0.04580000 0.06850649
v -0.01676713 -0.04580000 0.07196024
v -0.01130659 -0.03098962 0.00400343
v -0.02128286 -0.02516778 0.00400343
v -0.02286316 -0.02146518 0.00000136
v -0.03341389 -0.04410088 0.08469991
v -0.02969777 -0.04580000 0.08412667
v 0.02286439 0.02849840 0.13880794
v -0.02372800 -0.04580000 0.07685245
v -0.01633365 -0.02857163 0.00400343
v -0.01459028 -0.02772767 0.00000136
v -0.03043847 -0.04580000 0.11971445
v -0.04021904 -0.03979519 0.11764220
v -0.04068409 0.02849840 0.11627138
v 0.02329366 -0.03979519 0.13855691
v 0.01633068 0.03050000 0.13998114
v 0.00713930 -0.04580000 0.13669831
v -0.03844726 -0.03979519 0.12169411
v -0.03805587 0.02849840 0.12240978
v -0.03387051 0.03050000 0.12527959
v 0.01632647 -0.03979519 0.14218512
v -0.02963044 -0.04372324 0.12656540
v 0.01669472 0.02849840 0.14209966
v -0.03501312 -0.03979519 0.12740526
v -0.03402412 0.02849840 0.12876539
v 0.00655221 -0.04300298 0.14133058
v 0.00610401 0.03050000 0.14292572
v 0.00875221 0.02849840 0.14451195
v 0.00776005 -0.03979519 0.14470243
v -0.02096722 -0.04580000 0.13042817
v -0.02998395 -0.03979519 0.13330865
v -0.03074569 0.02849840 0.13251109
v -0.02730313 0.03050000 0.13296685
v 0.00099803 0.02849840 0.14543414
v -0.00108413 -0.03979519 0.14540388
v -0.02530830 -0.03979519 0.13718966
v -0.02633097 0.02849840 0.13639922
v -0.00743476 0.03050000 0.14275125
v -0.01725742 0.03050000 0.13944705
v -0.00551779 -0.04324945 0.14115612
v -0.02158377 0.02849840 0.13965356
v -0.00447197 0.02849840 0.14523652
v -0.01271960 -0.04580000 0.13497677
v -0.02016550 -0.03979519 0.14043689
v -0.00927388 -0.03979519 0.14442472
v -0.01638205 0.02849840 0.14223853
v -0.01064691 0.02849840 0.14410426
v -0.01408000 -0.03979519 0.14309306
f 1 3 4
f 1 4 5
f 1 5 2
f 3 7 24
f 3 24 30
f 3 30 40
f 3 40 46
f 3 46 52
f 3 52 79
f 3 79 101
f 3 101 114
f 3 114 120
f 3 120 119
f 3 119 108
f 3 108 97
f 3 97 70
f 3 70 31
f 3 1 7
f 5 6 2
f 1 2 8
f 4 9 5
f 2 10 8
f 8 10 11
f 8 12 1
f 1 12 13
f 1 13 14
f 1 14 7
f 9 15 5
f 5 16 6
f 5 15 16
f 2 18 10
f 10 19 11
f 11 20 21
f 12 8 11
f 12 11 13
f 13 11 22
f 13 22 21
f 13 21 14
f 14 21 23
f 7 14 24
f 3 25 4
f 4 25 9
f 6 16 17
f 6 26 2
f 2 26 18
f 18 19 10
f 19 20 11
f 20 57 76
f 20 76 92
f 20 92 86
f 20 86 63
f 20 63 37
f 20 37 30
f 20 30 23
f 20 23 21
f 20 19 27
f 20 28 29
f 21 22 11
f 14 23 24
f 24 23 30
f 25 15 9
f 3 31 25
f 17 32 6
f 6 33 26
f 26 34 18
f 19 18 34
f 19 34 27
f 27 34 28
f 27 28 20
f 28 26 29
f 15 36 16
f 16 36 61
f 16 61 98
f 16 98 124
f 16 124 111
f 16 111 93
f 16 93 77
f 16 77 88
f 16 88 90
f 16 90 83
f 16 83 82
f 16 82 73
f 16 73 72
f 16 72 66
f 16 66 32
f 16 32 17
f 32 33 6
f 34 26 28
f 30 37 38
f 30 38 39
f 30 39 40
f 31 41 25
f 25 41 15
f 15 35 36
f 37 42 43
f 37 43 38
f 38 44 39
f 39 44 45
f 39 45 40
f 40 45 46
f 41 35 15
f 33 47 29
f 33 29 26
f 29 47 20
f 37 48 42
f 42 48 49
f 42 49 50
f 42 50 43
f 43 50 44
f 43 44 38
f 44 51 52
f 44 52 45
f 45 52 46
f 37 53 48
f 48 53 54
f 48 54 51
f 48 51 49
f 49 51 50
f 50 51 44
f 41 31 55
f 41 55 35
f 32 47 33
f 47 57 20
f 54 58 59
f 54 59 51
f 51 59 52
f 35 55 56
f 35 56 60
f 35 60 36
f 32 62 47
f 37 63 53
f 54 53 64
f 58 54 65
f 62 57 47
f 62 32 66
f 62 66 57
f 64 53 67
f 53 63 67
f 64 68 54
f 58 65 69
f 31 70 71
f 31 71 55
f 55 71 56
f 60 61 36
f 57 66 72
f 57 72 73
f 64 67 74
f 54 68 65
f 58 75 59
f 59 75 52
f 71 60 56
f 57 73 76
f 67 63 74
f 68 77 65
f 69 78 58
f 58 78 75
f 75 79 52
f 71 80 60
f 60 81 61
f 60 80 81
f 76 73 82
f 76 82 83
f 76 83 84
f 64 74 85
f 64 85 68
f 74 63 86
f 68 88 77
f 68 87 88
f 70 89 71
f 71 89 80
f 83 90 84
f 84 91 92
f 84 92 76
f 84 90 88
f 84 88 91
f 74 86 85
f 68 85 91
f 68 91 87
f 69 65 77
f 69 94 78
f 79 75 95
f 86 92 85
f 85 92 91
f 93 69 77
f 75 78 95
f 78 94 95
f 89 96 80
f 80 96 81
f 91 88 87
f 70 97 89
f 61 81 98
f 69 99 94
f 94 99 100
f 94 100 95
f 79 95 100
f 79 100 101
f 96 89 102
f 96 102 81
f 93 103 69
f 69 103 99
f 97 104 89
f 89 104 102
f 99 103 105
f 99 105 100
f 100 105 106
f 100 106 101
f 81 102 107
f 81 107 98
f 97 108 109
f 97 109 104
f 104 109 102
f 102 109 110
f 102 110 107
f 93 111 103
f 105 112 106
f 103 112 105
f 112 113 106
f 101 106 113
f 101 113 114
f 108 115 109
f 110 116 107
f 112 103 117
f 112 118 113
f 114 113 118
f 115 116 110
f 115 110 109
f 103 111 117
f 112 117 118
f 108 119 115
f 114 118 120
f 107 116 121
f 120 118 122
f 119 123 115
f 115 123 116
f 107 121 98
f 117 111 125
f 117 125 122
f 117 122 118
f 116 123 126
f 116 126 121
f 120 122 127
f 119 128 123
f 123 128 126
f 98 121 124
f 111 124 125
f 122 125 127
f 119 120 128
f 124 121 125
f 125 121 129
f 125 129 127
f 128 129 126
f 126 129 121
f 120 127 128
f 128 127 129

