# https://github.com/mikedh/trimesh

o geometry_0
v -0.02808597 0.06099439 -0.02986866
v -0.02798162 0.06306710 -0.02657638
v -0.01878267 0.06537473 -0.03087481
v -0.01840540 0.06914859 -0.02494617
v -0.02552536 0.06598288 -0.02371714
v -0.03474036 0.06099439 -0.02178125
v -0.03447547 0.05298017 -0.02215059
v -0.02823046 0.05298017 -0.02973493
v -0.02286039 0.05298017 -0.03393147
v -0.01985829 0.06099439 -0.03586736
v -0.01981013 0.05298017 -0.03589283
v -0.01038843 0.05298017 -0.03964201
v -0.01041050 0.06099439 -0.03965634
v -0.00974426 0.06561965 -0.03482937
v -0.01220454 0.06961761 -0.02843744
v -0.00753683 0.06985337 -0.03004378
v -0.00325809 0.06995192 0.04500182
v -0.01557989 0.06939018 0.01886596
v -0.02505631 0.06840529 0.04248348
v -0.02240686 0.06873538 -0.02139917
v -0.03403399 0.06290381 -0.01817057
v -0.02512802 0.06840964 -0.01812918
v -0.03099175 0.06558467 -0.01590036
v -0.03929168 0.06099439 -0.01171974
v -0.03915522 0.05298017 -0.01210820
v -0.04100143 0.05298017 0.00001019
v -0.04056797 0.05298017 -0.00594393
v -0.04055994 0.06099439 -0.00603945
v -0.04100946 0.06099439 -0.00000255
v -0.04000290 0.05299999 0.09373174
v -0.04001072 0.06099406 0.09367344
v -0.03987368 0.06106877 0.09619765
v -0.03859333 0.06277885 0.00120101
v -0.03535844 0.06450833 -0.00734490
v -0.02914554 0.06785981 -0.01051619
v -0.03478050 0.06529392 0.00267521
v -0.03981103 0.05299999 0.09674671
v -0.03098372 0.06758073 0.00127743
v -0.03265895 0.06459668 0.09895088
v -0.03640050 0.06290665 0.09575792
v -0.03886279 0.06155333 0.10082054
v -0.03912662 0.05300000 0.10003179
v -0.03734578 0.06216098 0.10371342
v -0.03798207 0.05300000 0.10276324
v -0.03646894 0.05300000 0.10490052
v -0.03474824 0.06315023 0.10648076
v -0.03377246 0.05300000 0.10712895
v -0.03094019 0.05300000 0.10849559
v -0.03231365 0.06404819 0.10794316
v -0.03027674 0.06477846 0.10873374
v -0.02792169 0.05300000 0.10928003
v -0.02872481 0.06608544 0.10080949
v -0.02500596 0.06779025 0.08615179
v -0.02440074 0.06738713 0.10251833
v -0.02671894 0.06598593 0.10948198
v -0.02202823 0.06741122 0.10983860
v -0.02510105 0.05300000 0.10963973
v 0.04098643 0.05298017 0.00001019
v 0.02875867 0.05300156 0.10913272
v 0.02508836 0.05300156 0.10964095
v -0.00001411 0.05300156 0.11050519
v -0.01102505 0.06830762 0.11033701
v -0.01557996 0.06800830 0.11017128
v -0.01558491 0.06918403 0.06451493
v -0.02500596 0.06821652 0.06391606
v -0.00000846 0.06971863 0.06940302
v -0.00325764 0.06900655 0.09800193
v 0.00323719 0.06900812 0.09800193
v -0.00001411 0.06860694 0.11050396
v 0.01100459 0.06830918 0.11033823
v 0.01555951 0.06801143 0.11017251
v 0.01556800 0.06918734 0.06451493
v 0.00324184 0.06995192 0.04500218
v 0.01556490 0.06939185 0.01886596
v 0.02508341 0.06841605 0.03878740
v 0.03086036 0.06760239 0.00253512
v 0.02498905 0.06827421 0.06065450
v 0.03089648 0.06759655 -0.00212629
v 0.02824958 0.06799018 -0.01250620
v 0.03534345 0.06451333 -0.00735127
v 0.03606587 0.06449334 0.00232178
v 0.03346512 0.06610618 0.00301590
v 0.03998598 0.06100069 0.09367830
v 0.03911004 0.06144833 0.10009870
v 0.03638359 0.06291329 0.09559757
v 0.03794610 0.06192631 0.10282400
v 0.03263850 0.06460295 0.09892756
v 0.02871211 0.06609014 0.10078984
v 0.02498905 0.06795213 0.07962137
v 0.02200778 0.06741436 0.10983983
v 0.02438223 0.06739183 0.10251864
v 0.02759472 0.06569052 0.10932607
v 0.03167630 0.06427855 0.10822920
v 0.03162974 0.05300156 0.10824393
v 0.03602170 0.05300156 0.10538849
v 0.03558717 0.06283367 0.10579974
v 0.03886950 0.05300156 0.10080581
v 0.03968057 0.05300165 0.09768692
v 0.03998598 0.05300165 0.09376089
v 0.04099446 0.06100106 -0.00000255
v 0.03858636 0.06278385 0.00114370
v 0.01838238 0.06915192 -0.02494617
v 0.02449093 0.06849378 -0.01899205
v 0.03097675 0.06558967 -0.01590355
v 0.03927668 0.06100106 -0.01171974
v 0.04054495 0.06100106 -0.00603945
v 0.04055297 0.05298017 -0.00594393
v 0.03914022 0.05298017 -0.01210820
v 0.03472536 0.06100106 -0.02178125
v 0.03400293 0.06290881 -0.01820878
v 0.02551036 0.06598788 -0.02372032
v 0.01218954 0.06961969 -0.02843744
v 0.01876767 0.06537806 -0.03087481
v 0.02795057 0.06307210 -0.02659549
v 0.02807098 0.06099939 -0.02986866
v 0.00972926 0.06562132 -0.03482937
v 0.01984329 0.06099773 -0.03586736
v 0.00268958 0.06997333 -0.03082387
v -0.00000750 0.06570963 -0.03618576
v 0.01039550 0.06099606 -0.03965634
v -0.00000750 0.06099939 -0.04100000
v 0.01032727 0.05298017 -0.03965952
v -0.00000750 0.05298017 -0.04100000
v 0.02821546 0.05298017 -0.02973493
v 0.03446047 0.05298017 -0.02215059
v 0.02718800 0.05298017 -0.03075382
v 0.01963660 0.05298017 -0.03596288
v -0.00324640 0.06996917 -0.03080476
v 0.00752183 0.06985503 -0.03004378
f 2 3 1
f 2 4 3
f 2 5 4
f 2 6 5
f 2 1 6
f 7 6 1
f 7 1 8
f 8 1 9
f 10 9 1
f 11 9 10
f 10 12 11
f 10 13 12
f 10 14 13
f 10 3 14
f 10 1 3
f 15 14 3
f 16 14 15
f 16 15 17
f 15 18 17
f 4 15 3
f 4 18 15
f 4 19 18
f 4 20 19
f 4 5 20
f 5 6 21
f 22 5 21
f 22 20 5
f 22 19 20
f 22 21 23
f 21 24 23
f 21 6 24
f 25 24 6
f 25 6 7
f 7 8 25
f 25 8 26
f 27 25 26
f 27 28 25
f 27 29 28
f 26 29 27
f 29 26 30
f 29 30 31
f 32 29 31
f 33 29 32
f 33 28 29
f 34 28 33
f 34 24 28
f 34 23 24
f 34 35 23
f 33 36 34
f 33 32 36
f 32 30 37
f 32 31 30
f 37 30 26
f 38 36 32
f 38 40 39
f 38 41 40
f 38 32 41
f 32 42 41
f 32 37 42
f 42 37 26
f 41 39 40
f 43 39 41
f 45 43 44
f 45 46 43
f 45 47 46
f 45 26 47
f 45 44 26
f 44 42 26
f 44 41 42
f 44 43 41
f 48 47 26
f 48 49 47
f 48 50 49
f 48 26 51
f 48 51 50
f 52 49 50
f 52 46 49
f 52 39 46
f 54 53 52
f 52 55 54
f 52 50 55
f 50 51 55
f 56 54 55
f 56 55 57
f 55 51 57
f 51 26 57
f 57 26 58
f 57 58 59
f 57 59 60
f 57 60 61
f 57 61 62
f 63 57 62
f 63 56 57
f 53 56 63
f 54 56 53
f 53 63 64
f 52 53 38
f 52 38 39
f 38 53 65
f 19 38 65
f 19 64 18
f 19 65 64
f 65 53 64
f 64 17 18
f 64 66 17
f 67 66 64
f 67 68 66
f 67 64 62
f 64 63 62
f 67 62 69
f 68 67 69
f 68 69 70
f 70 69 61
f 70 61 60
f 70 60 71
f 72 70 71
f 68 70 72
f 68 72 66
f 72 73 66
f 72 74 73
f 72 75 74
f 75 77 76
f 75 72 77
f 78 79 76
f 78 80 79
f 78 81 80
f 78 76 82
f 78 82 81
f 82 83 81
f 82 84 83
f 82 76 84
f 85 84 76
f 85 86 84
f 85 87 86
f 85 76 87
f 88 87 76
f 88 76 89
f 76 77 89
f 72 89 77
f 72 71 89
f 90 89 71
f 91 89 90
f 90 92 91
f 90 60 92
f 90 71 60
f 91 92 88
f 93 92 59
f 93 88 92
f 93 59 94
f 94 59 58
f 94 58 95
f 96 94 95
f 96 93 94
f 87 93 96
f 87 88 93
f 87 96 86
f 96 95 86
f 86 95 97
f 86 97 84
f 98 84 97
f 83 84 98
f 83 98 99
f 83 99 100
f 101 83 100
f 101 81 83
f 80 81 101
f 79 75 76
f 75 102 74
f 75 103 102
f 105 80 106
f 105 104 80
f 104 79 80
f 104 103 79
f 103 75 79
f 106 80 101
f 106 101 100
f 106 100 107
f 106 107 105
f 105 107 108
f 105 108 109
f 110 105 109
f 110 104 105
f 110 103 104
f 110 111 103
f 110 109 111
f 102 112 74
f 102 113 112
f 113 102 114
f 113 114 115
f 113 116 112
f 113 115 117
f 116 113 117
f 116 119 118
f 116 120 119
f 116 117 120
f 121 119 120
f 121 13 119
f 121 120 122
f 121 122 123
f 123 12 121
f 12 13 121
f 12 123 8
f 11 12 8
f 9 11 8
f 8 123 26
f 26 123 58
f 124 58 123
f 108 58 124
f 107 58 108
f 58 107 100
f 99 58 100
f 98 58 99
f 98 97 58
f 95 58 97
f 125 108 124
f 125 109 108
f 115 109 125
f 115 114 109
f 111 109 114
f 102 111 114
f 115 125 124
f 126 115 124
f 126 117 115
f 127 117 126
f 126 124 127
f 127 124 122
f 117 127 120
f 127 122 120
f 122 124 123
f 119 13 14
f 119 14 128
f 118 73 129
f 118 129 116
f 129 112 116
f 129 73 112
f 73 74 112
f 73 17 66
f 17 73 118
f 17 118 128
f 118 119 128
f 128 16 17
f 14 16 128
f 103 111 102
f 92 60 59
f 91 88 89
f 62 61 69
f 22 35 19
f 22 23 35
f 25 28 24
f 35 38 19
f 35 34 38
f 38 34 36
f 46 39 43
f 49 46 47

o geometry_1
v -0.02873771 0.00183080 -0.03113456
v -0.02998178 0.01375933 -0.02783004
v -0.02929955 0.01375933 -0.02865617
v -0.02823205 0.00565436 -0.03113456
v -0.02872968 -0.00189535 -0.03113456
v -0.03317623 0.01375933 -0.02394652
v -0.02926744 0.01375933 -0.02869147
v -0.02700404 0.01375933 -0.03113456
v -0.03173150 -0.02999973 -0.02594477
v -0.03345715 0.01375933 -0.02348756
v -0.02610510 -0.02999973 -0.03113456
v 0.02698860 0.01375933 -0.03113456
v -0.02827219 -0.03599565 -0.01632070
v -0.03770304 -0.02999973 -0.01608769
v -0.02258157 -0.03179705 -0.03113456
v -0.02098434 -0.03599565 -0.02501272
v -0.02500550 -0.03599565 -0.02098799
v -0.03627437 0.01375933 -0.01882734
v 0.02890688 0.01375933 -0.02905864
v 0.02821662 0.00573229 -0.03113456
v -0.03264650 -0.03600052 0.00000419
v -0.03068006 -0.03599565 -0.01116622
v -0.04068881 -0.02999973 -0.00495965
v -0.03846554 0.01375933 -0.01399059
v -0.01994093 -0.03286861 -0.03113456
v -0.01632109 -0.03599565 -0.02827488
v 0.03057634 0.01375933 -0.02709570
v 0.02873030 0.00183567 -0.03113456
v -0.00000371 -0.03599565 0.03265397
v -0.00566222 -0.03599565 0.03215970
v -0.01116021 -0.03599565 0.03068396
v -0.01632109 -0.03599565 0.02827619
v -0.02098434 -0.03599565 0.02501403
v -0.02500550 -0.03599565 0.02098224
v -0.02827219 -0.03599565 0.01632202
v -0.03068006 -0.03599565 0.01116047
v -0.03214887 -0.03599565 0.00566706
v -0.04046407 -0.02999973 0.00655674
v -0.03214887 -0.03599565 -0.00566575
v -0.01116021 -0.03599565 -0.03068266
v -0.00949074 -0.03599565 -0.03113456
v 0.00949136 -0.03599565 -0.03113456
v 0.01116082 -0.03599565 -0.03068266
v 0.01632170 -0.03599565 -0.02827488
v 0.02098496 -0.03599565 -0.02501272
v 0.02500611 -0.03599565 -0.02098799
v 0.02827280 -0.03599565 -0.01632070
v 0.03068068 -0.03599565 -0.01115916
v 0.03214948 -0.03599565 -0.00566575
v 0.03264711 -0.03599565 0.00000419
v 0.03214948 -0.03599565 0.00566706
v 0.03068068 -0.03599565 0.01116047
v 0.02827280 -0.03599565 0.01632202
v 0.02500611 -0.03599565 0.02098224
v 0.02098496 -0.03599565 0.02501403
v 0.01632170 -0.03599565 0.02827619
v 0.01116082 -0.03599565 0.03068396
v 0.00566283 -0.03599565 0.03215970
v -0.04099381 0.00799233 0.00007480
v -0.04100183 0.01375933 0.00006773
v -0.04085736 0.01375933 -0.00234005
v -0.04084130 0.01375933 -0.00257306
v -0.04062460 0.01375933 -0.00547510
v -0.04001461 0.01375933 -0.00821475
v -0.01495662 -0.03472925 -0.03113456
v -0.01128060 -0.03571315 -0.03113456
v 0.03316882 0.01375933 -0.02394652
v 0.02872227 -0.00189048 -0.03113456
v -0.00000371 -0.03336057 0.03708118
v -0.01140099 -0.02999973 0.03937598
v -0.02191539 -0.02999973 0.03464515
v -0.03068809 -0.02999973 0.02717468
v -0.03703686 -0.02999973 0.01755768
v -0.04049617 0.00894700 0.01147821
v -0.04075301 0.00799233 0.00744642
v -0.04088144 0.00799233 0.00375354
v -0.04024736 0.01375933 0.01558768
v -0.04029552 0.01161619 0.01466270
v 0.01128121 -0.03571315 -0.03113456
v 0.01994155 -0.03286861 -0.03113456
v 0.02258218 -0.03179705 -0.03113456
v 0.03173212 -0.02999486 -0.02594477
v 0.03770366 -0.02999486 -0.01608769
v 0.04068942 -0.02999486 -0.00495965
v 0.04046469 -0.02999486 0.00655674
v 0.03703747 -0.02999486 0.01755768
v 0.03068870 -0.02999486 0.02717468
v 0.02190798 -0.02999486 0.03464515
v 0.01140161 -0.02999486 0.03937598
v -0.04088144 0.01375933 0.00395831
v 0.03599406 0.01375933 -0.01928630
v 0.02610571 -0.02999486 -0.03113456
v -0.00000371 -0.02999486 0.04100000
v -0.01051008 0.01375933 0.03961605
v -0.01534188 0.01375933 0.03780845
v -0.02031014 0.01375933 0.03557014
v -0.02457208 0.01375933 0.03266809
v -0.02872166 0.01375933 0.02913762
v -0.03217295 0.01375933 0.02531059
v -0.04076104 0.01375933 0.00724871
v 0.03626695 0.01375933 -0.01882734
v 0.03845812 0.01375933 -0.01399059
v 0.04061718 0.01375933 -0.00547510
v 0.04083390 0.01375933 -0.00257306
v 0.04084995 0.01375933 -0.00233298
v 0.04099442 0.01375933 0.00006773
v 0.04098639 0.00799720 0.00007480
v 0.04074560 0.00799720 0.00744642
v 0.04048877 0.00895187 0.01147821
v 0.04028811 0.01162593 0.01466270
v 0.04023995 0.01375933 0.01558768
v 0.03222172 0.01375933 0.02523292
v 0.02871425 0.01375933 0.02913762
v 0.02456467 0.01375933 0.03266809
v 0.02030273 0.01375933 0.03557014
v 0.01533447 0.01375933 0.03780845
v 0.01050267 0.01375933 0.03961605
v -0.00000371 0.01375933 0.04099294
v -0.00512446 0.01375933 0.04037863
v 0.04075363 0.01375933 0.00724871
f 130 131 132
f 130 132 133
f 130 133 137
f 130 137 141
f 130 141 149
f 130 149 157
f 130 157 197
f 130 197 221
f 130 221 210
f 130 210 209
f 130 209 208
f 130 208 171
f 130 171 170
f 130 170 195
f 130 195 194
f 130 194 154
f 130 154 144
f 130 144 140
f 130 140 134
f 130 134 135
f 130 135 131
f 131 135 139
f 131 139 147
f 131 147 153
f 131 153 193
f 131 193 192
f 131 192 191
f 131 191 190
f 131 190 189
f 131 189 219
f 131 219 229
f 131 229 206
f 131 206 228
f 131 228 227
f 131 227 226
f 131 226 225
f 131 225 224
f 131 224 223
f 131 223 248
f 131 248 247
f 131 247 246
f 131 246 245
f 131 245 244
f 131 244 243
f 131 243 242
f 131 242 241
f 131 241 240
f 131 240 249
f 131 249 235
f 131 235 234
f 131 234 233
f 131 233 232
f 131 232 231
f 131 231 230
f 131 230 220
f 131 220 196
f 131 196 156
f 131 156 148
f 131 148 141
f 131 141 137
f 131 137 136
f 131 136 132
f 132 136 133
f 133 136 137
f 134 138 139
f 134 139 135
f 134 140 138
f 138 142 143
f 138 143 139
f 138 140 144
f 138 144 145
f 138 145 146
f 138 146 142
f 139 143 147
f 141 148 149
f 142 150 151
f 142 151 143
f 142 146 150
f 143 152 153
f 143 153 147
f 143 151 152
f 144 154 145
f 145 154 155
f 145 155 150
f 145 150 146
f 148 156 149
f 149 156 157
f 150 158 159
f 150 159 160
f 150 160 161
f 150 161 162
f 150 162 163
f 150 163 164
f 150 164 165
f 150 165 166
f 150 166 167
f 150 167 152
f 150 152 168
f 150 168 151
f 150 155 169
f 150 169 170
f 150 170 171
f 150 171 172
f 150 172 173
f 150 173 174
f 150 174 175
f 150 175 176
f 150 176 177
f 150 177 178
f 150 178 179
f 150 179 180
f 150 180 181
f 150 181 182
f 150 182 183
f 150 183 184
f 150 184 185
f 150 185 186
f 150 186 187
f 150 187 158
f 151 168 152
f 152 167 188
f 152 188 189
f 152 189 190
f 152 190 191
f 152 191 192
f 152 192 193
f 152 193 153
f 154 194 155
f 155 194 195
f 155 195 169
f 156 196 157
f 157 196 197
f 158 187 198
f 158 198 159
f 159 198 199
f 159 199 160
f 160 199 200
f 160 200 161
f 161 200 162
f 162 200 201
f 162 201 163
f 163 201 164
f 164 201 202
f 164 202 165
f 165 202 167
f 165 167 166
f 167 203 204
f 167 204 205
f 167 205 188
f 167 202 206
f 167 206 207
f 167 207 203
f 169 195 170
f 171 208 172
f 172 208 173
f 173 209 174
f 173 208 209
f 174 209 210
f 174 210 211
f 174 211 175
f 175 211 176
f 176 211 212
f 176 212 177
f 177 212 213
f 177 213 178
f 178 213 179
f 179 213 214
f 179 214 180
f 180 214 181
f 181 214 215
f 181 215 182
f 182 215 216
f 182 216 183
f 183 216 184
f 184 217 185
f 184 216 217
f 185 217 186
f 186 218 187
f 186 217 218
f 187 218 198
f 188 205 189
f 189 205 219
f 196 211 197
f 196 220 211
f 197 211 221
f 198 218 222
f 198 222 199
f 199 223 224
f 199 224 200
f 199 222 223
f 200 224 225
f 200 225 226
f 200 226 227
f 200 227 201
f 201 206 202
f 201 227 228
f 201 228 206
f 203 207 206
f 203 206 204
f 204 229 219
f 204 219 205
f 204 206 229
f 210 221 211
f 211 220 212
f 212 220 230
f 212 230 231
f 212 231 213
f 213 232 233
f 213 233 234
f 213 234 235
f 213 235 236
f 213 236 214
f 213 231 232
f 214 236 237
f 214 237 238
f 214 238 239
f 214 239 240
f 214 240 215
f 215 240 216
f 216 241 242
f 216 242 243
f 216 243 217
f 216 240 241
f 217 243 244
f 217 244 245
f 217 245 218
f 218 246 222
f 218 245 246
f 222 247 248
f 222 248 223
f 222 246 247
f 235 249 237
f 235 237 236
f 237 240 238
f 237 249 240
f 238 240 239

o geometry_2
v -0.00000390 0.03613790 -0.04100000
v -0.00178723 0.03613790 -0.04085858
v -0.00071149 0.04400875 -0.04094415
v -0.00000390 0.04400875 -0.04100000
v 0.00929527 0.03613790 -0.03988848
v -0.00719461 0.03613790 -0.04016141
v -0.00853331 0.04400875 -0.03996054
v -0.00121829 0.04400875 -0.04090362
v -0.00115135 0.04400875 -0.04090902
v 0.00964429 0.04400875 -0.03981553
v 0.01061484 0.03613790 -0.03957052
v -0.00930306 0.03613790 -0.03988848
v -0.00965686 0.04400875 -0.03981553
v 0.01058616 0.04400875 -0.03958854
v 0.01105948 0.03613790 -0.03946243
v -0.01106727 0.03613790 -0.03946333
v -0.01086169 0.04400875 -0.03952459
v 0.01084912 0.04400875 -0.03952369
v 0.01833626 0.03613790 -0.03657467
v -0.01089037 0.04400875 -0.03951558
v -0.01125852 0.03613790 -0.03940029
v 0.01878568 0.04400875 -0.03636479
v 0.01881437 0.04400875 -0.03635309
v 0.01936419 0.04400875 -0.03610267
v 0.01970364 0.03613790 -0.03595045
v -0.01099078 0.04400875 -0.03948135
v -0.01143542 0.03613790 -0.03933813
v 0.01975146 0.04400875 -0.03592523
v 0.02025825 0.03613790 -0.03563159
v -0.01111030 0.04400875 -0.03943902
v -0.01147844 0.03613790 -0.03932282
v 0.02011003 0.04400875 -0.03571716
v 0.02038255 0.03613790 -0.03555953
v -0.01116768 0.04400875 -0.03941830
v -0.01166013 0.03613790 -0.03925436
v 0.02021044 0.04400875 -0.03565861
v 0.02252925 0.04400875 -0.03411655
v 0.02367193 0.03825760 -0.03336623
v 0.02367193 0.03613790 -0.03336984
v -0.01126330 0.04400875 -0.03938227
v -0.01971143 0.03613790 -0.03595045
v -0.01975925 0.04400875 -0.03592613
v 0.02367193 0.04400875 -0.03335542
v 0.02367193 0.03613790 -0.03179804
v -0.01984052 0.03613790 -0.03587930
v -0.01986443 0.04400875 -0.03586759
v 0.02367193 0.04400875 -0.03179804
v -0.02517140 0.03613790 -0.03179804
v -0.02039034 0.03613790 -0.03556043
v -0.02022301 0.04400875 -0.03565951
v -0.02517140 0.04400875 -0.03179804
v -0.02517140 0.03613790 -0.03236641
v -0.02054812 0.03613790 -0.03545865
v -0.02038078 0.04400875 -0.03555593
v -0.02517140 0.04400875 -0.03236551
v -0.02517140 0.04284449 -0.03236731
v -0.02497060 0.03613790 -0.03251503
v -0.02102144 0.03613790 -0.03514699
v -0.02065330 0.04400875 -0.03537668
v -0.02165733 0.04400875 -0.03470833
f 250 251 252
f 250 252 253
f 250 253 254
f 250 254 260
f 250 260 264
f 250 264 268
f 250 268 274
f 250 274 278
f 250 278 282
f 250 282 288
f 250 288 293
f 250 293 297
f 250 297 301
f 250 301 306
f 250 306 307
f 250 307 302
f 250 302 298
f 250 298 294
f 250 294 290
f 250 290 284
f 250 284 280
f 250 280 276
f 250 276 270
f 250 270 265
f 250 265 261
f 250 261 255
f 250 255 251
f 251 255 256
f 251 256 257
f 251 257 258
f 251 258 252
f 252 258 257
f 252 257 256
f 252 256 262
f 252 262 266
f 252 266 269
f 252 269 275
f 252 275 279
f 252 279 283
f 252 283 289
f 252 289 291
f 252 291 295
f 252 295 299
f 252 299 303
f 252 303 308
f 252 308 309
f 252 309 304
f 252 304 300
f 252 300 296
f 252 296 292
f 252 292 286
f 252 286 285
f 252 285 281
f 252 281 277
f 252 277 273
f 252 273 272
f 252 272 271
f 252 271 267
f 252 267 263
f 252 263 259
f 252 259 253
f 253 259 254
f 254 259 260
f 255 261 262
f 255 262 256
f 259 263 260
f 260 263 264
f 261 265 262
f 262 265 266
f 263 267 264
f 264 267 268
f 265 269 266
f 265 270 269
f 267 271 268
f 268 271 272
f 268 272 273
f 268 273 274
f 269 270 275
f 270 276 275
f 273 277 274
f 274 277 278
f 275 276 279
f 276 280 279
f 277 281 282
f 277 282 278
f 279 280 283
f 280 284 289
f 280 289 283
f 281 285 282
f 282 285 286
f 282 286 287
f 282 287 288
f 284 290 291
f 284 291 289
f 286 292 287
f 287 292 296
f 287 296 293
f 287 293 288
f 290 294 291
f 291 294 295
f 293 296 300
f 293 300 297
f 294 298 295
f 295 298 299
f 297 300 304
f 297 304 305
f 297 305 301
f 298 302 299
f 299 302 303
f 301 305 306
f 302 307 308
f 302 308 303
f 304 306 305
f 304 309 306
f 306 309 307
f 307 309 308

o geometry_3
v 0.02052778 -0.02278673 -0.03547292
v 0.02052778 -0.01902203 -0.03547292
v 0.02052778 -0.01971849 -0.04199881
v 0.02256992 -0.01788369 -0.04199881
v 0.02722289 -0.00938714 -0.04199881
v 0.02629353 -0.01165796 -0.03547292
v 0.02052778 -0.01873671 -0.03631118
v 0.02684923 -0.00784058 -0.03547292
v 0.02052778 -0.01865917 -0.04199881
v 0.02747747 -0.00784058 -0.04199881
v 0.02751853 -0.00784058 -0.03547292
v 0.02730296 -0.00914864 -0.03547292
v 0.02667814 -0.00784058 -0.04199881
f 310 311 316
f 310 316 318
f 310 318 312
f 310 312 313
f 310 313 314
f 310 314 315
f 310 315 321
f 310 321 320
f 310 320 317
f 310 317 311
f 311 317 316
f 312 318 322
f 312 322 319
f 312 319 314
f 312 314 313
f 314 319 320
f 314 320 321
f 314 321 315
f 316 317 322
f 316 322 318
f 317 320 319
f 317 319 322

o geometry_4
v 0.01250108 -0.02849906 -0.03894218
v 0.01269672 -0.02828634 -0.04161587
v 0.01269672 -0.03037439 -0.03858183
v 0.01250108 -0.02849906 -0.03858183
v 0.01250108 -0.02559349 -0.03902984
v 0.01269986 -0.02761255 -0.04198759
v 0.01349736 -0.02828634 -0.04161587
v 0.01350050 -0.02761140 -0.04198826
v 0.01285386 -0.03031575 -0.03858183
v 0.01250108 -0.01862910 -0.03858183
v 0.01250108 -0.02526809 -0.03903051
v 0.01250108 -0.01968922 -0.03903820
v 0.01250108 -0.01862910 -0.03903954
v 0.01335357 -0.02531753 -0.04199930
v 0.01405364 -0.02570502 -0.04199930
v 0.01351307 -0.03002600 -0.03858183
v 0.02052710 -0.01971912 -0.04199930
v 0.01372600 -0.01862910 -0.03858183
v 0.01251444 -0.01862910 -0.03903620
v 0.02052710 -0.01866014 -0.04199930
v 0.01493599 -0.02368136 -0.04199930
v 0.01466414 -0.02849906 -0.03858183
v 0.02052710 -0.02004336 -0.04001085
v 0.02052710 -0.01870614 -0.03858183
v 0.02052710 -0.02008131 -0.03858183
f 323 324 325
f 323 325 326
f 323 326 332
f 323 332 335
f 323 335 334
f 323 334 333
f 323 333 327
f 323 327 328
f 323 328 324
f 324 329 325
f 324 328 330
f 324 330 329
f 325 331 338
f 325 338 344
f 325 344 347
f 325 347 346
f 325 346 340
f 325 340 332
f 325 332 326
f 325 329 331
f 327 333 328
f 328 333 334
f 328 334 335
f 328 335 336
f 328 336 337
f 328 337 330
f 329 338 331
f 329 330 339
f 329 339 338
f 330 337 339
f 332 340 341
f 332 341 335
f 335 341 342
f 335 342 343
f 335 343 336
f 336 343 342
f 336 342 339
f 336 339 337
f 338 339 344
f 339 342 346
f 339 346 347
f 339 347 345
f 339 345 344
f 340 346 342
f 340 342 341
f 344 345 347

o geometry_5
v -0.02275659 -0.01763161 -0.04115277
v -0.02257047 -0.01788798 -0.04199971
v -0.02211945 -0.01843401 -0.03900093
v -0.02266501 -0.01771788 -0.03900093
v -0.02275659 -0.01759709 -0.03900093
v -0.02275659 -0.01755026 -0.04199971
v -0.01405419 -0.02570739 -0.04199971
v -0.01349976 -0.02762280 -0.04198738
v -0.01349681 -0.02828838 -0.04161631
v -0.01414676 -0.02850039 -0.03900093
v -0.02275659 -0.01614390 -0.03900093
v -0.02275659 -0.01590971 -0.04199971
v -0.01269915 -0.02762156 -0.04198738
v -0.01335303 -0.02532036 -0.04199971
v -0.01269718 -0.02828838 -0.04161631
v -0.01269619 -0.02849915 -0.04099982
v -0.01349681 -0.02849915 -0.04087946
v -0.01272180 -0.02849915 -0.03900093
v -0.01269718 -0.02550155 -0.03900093
v -0.01269718 -0.02550155 -0.03962476
v -0.01493654 -0.02368351 -0.04199971
v -0.01269718 -0.02774236 -0.03962476
v -0.01271884 -0.02835617 -0.03900093
f 348 349 350
f 348 350 351
f 348 351 352
f 348 352 358
f 348 358 359
f 348 359 353
f 348 353 349
f 349 353 359
f 349 359 368
f 349 368 361
f 349 361 354
f 349 354 355
f 349 355 356
f 349 356 357
f 349 357 350
f 350 357 365
f 350 365 370
f 350 370 366
f 350 366 358
f 350 358 352
f 350 352 351
f 354 360 355
f 354 361 360
f 355 360 362
f 355 362 356
f 356 362 363
f 356 363 364
f 356 364 357
f 357 364 363
f 357 363 365
f 358 366 359
f 359 366 367
f 359 367 368
f 360 361 367
f 360 367 362
f 361 368 367
f 362 367 363
f 363 367 366
f 363 366 369
f 363 369 365
f 365 369 370
f 366 370 369

o geometry_6
v 0.04004769 0.03613790 0.01995653
v 0.04019834 0.01543729 0.01631163
v 0.04023957 0.01375933 0.01558650
v 0.03222791 0.01375933 0.02523137
v 0.02871527 0.01375933 0.02913937
v 0.02456366 0.01375933 0.03266816
v 0.02029961 0.01375933 0.03556576
v 0.02479349 0.03613790 0.03242736
v 0.02592419 0.03613790 0.03165486
v 0.01004534 0.03613790 0.03973960
v 0.01947810 0.03613790 0.03603933
v 0.01734607 0.03613790 0.03700253
v 0.01533629 0.01375933 0.03780518
v 0.01050500 0.01375933 0.03961118
v -0.00000843 0.01375933 0.04099977
v -0.00000843 0.03613790 0.04099175
v -0.00774437 0.03613790 0.04006869
v -0.01949008 0.03613790 0.03603933
v -0.01005732 0.03613790 0.03973960
v -0.00512334 0.01375933 0.04038173
v -0.01051209 0.01375933 0.03961118
v -0.01534338 0.01375933 0.03780518
v -0.01735805 0.03613790 0.03700253
v -0.02031159 0.01375933 0.03556576
v -0.02457076 0.01375933 0.03266816
v -0.02516244 0.01375933 0.03216248
v -0.02516244 0.02342400 0.03222670
v -0.02516244 0.03613790 0.03217854
v -0.02516244 0.03613790 -0.03237140
v -0.02516244 0.01375933 -0.03236337
v -0.00000354 0.01375933 -0.04100000
v -0.01235561 0.01375933 -0.03904953
v -0.00830671 0.01375933 -0.04009299
v -0.00339229 0.01375933 -0.04072709
v -0.00000354 0.03613790 -0.04100000
v -0.00178349 0.03613790 -0.04085552
v -0.00930427 0.03613790 -0.03988430
v -0.01167590 0.01375933 -0.03928230
v -0.01106955 0.03613790 -0.03945889
v -0.01147541 0.03613790 -0.03932244
v -0.01971501 0.03613790 -0.03594324
v -0.01278104 0.01375933 -0.03888900
v -0.01958298 0.01375933 -0.03601548
v -0.02038983 0.03613790 -0.03555796
v -0.02224802 0.03613790 -0.03432989
v -0.02429691 0.01375933 -0.03299748
v -0.02206709 0.01375933 -0.03449042
v -0.02086904 0.01375933 -0.03527703
v 0.02600031 0.03613790 -0.03305494
v 0.01105757 0.03613790 -0.03945889
v 0.00929718 0.03613790 -0.03988430
v 0.00829962 0.01375933 -0.04009299
v 0.01165414 0.01375933 -0.03928230
v 0.01694509 0.01375933 -0.03721947
v 0.02619537 0.01375933 -0.03305494
v 0.01828494 0.03613790 -0.03659339
v 0.03391049 0.03613790 -0.02292237
v 0.03317466 0.01375933 -0.02394269
v 0.03627180 0.01375933 -0.01882828
v 0.03553914 0.03613790 -0.02022720
v 0.04099444 0.03613790 0.00003151
v 0.03885038 0.03613790 -0.01291174
v 0.03846344 0.01375933 -0.01398980
v 0.04062176 0.01375933 -0.00547434
v 0.04058688 0.03613790 -0.00573744
v 0.04083744 0.01375933 -0.00257382
v 0.04091197 0.03613790 -0.00135458
v 0.04099285 0.01375933 0.00006359
v 0.04075815 0.01375933 0.00725072
v 0.04079779 0.03613790 0.00648067
v 0.04091356 0.03613790 0.00302187
f 372 373 371
f 374 373 372
f 374 375 373
f 374 371 375
f 374 372 371
f 376 375 371
f 376 377 375
f 376 378 377
f 376 379 378
f 376 371 379
f 379 371 378
f 378 371 380
f 381 378 380
f 381 377 378
f 382 377 381
f 382 383 377
f 382 380 383
f 382 381 380
f 384 383 380
f 384 385 383
f 384 380 385
f 386 385 380
f 386 387 385
f 386 380 387
f 387 380 388
f 389 387 388
f 390 387 389
f 390 385 387
f 390 391 385
f 390 389 391
f 389 392 391
f 393 392 389
f 393 394 392
f 393 388 394
f 393 389 388
f 395 394 388
f 395 396 394
f 397 396 395
f 397 398 396
f 397 395 398
f 395 388 398
f 398 388 399
f 398 399 396
f 396 399 400
f 396 400 385
f 391 396 385
f 394 396 391
f 392 394 391
f 400 401 385
f 402 401 400
f 403 401 402
f 404 401 403
f 404 405 401
f 406 405 404
f 406 407 405
f 406 403 407
f 406 404 403
f 408 407 403
f 408 409 407
f 410 409 408
f 410 411 409
f 410 412 411
f 410 402 412
f 410 408 402
f 408 403 402
f 412 402 413
f 412 413 411
f 414 411 413
f 414 399 411
f 415 399 414
f 415 416 399
f 417 416 415
f 417 418 416
f 417 414 418
f 417 415 414
f 414 413 418
f 418 413 400
f 416 418 400
f 416 400 399
f 413 402 400
f 411 399 405
f 409 411 405
f 407 409 405
f 405 399 419
f 420 405 419
f 421 405 420
f 422 405 421
f 422 401 405
f 422 423 401
f 422 420 423
f 422 421 420
f 424 423 420
f 424 425 423
f 424 426 425
f 424 420 426
f 426 420 419
f 426 419 425
f 427 425 419
f 428 425 427
f 428 429 425
f 428 427 429
f 427 430 429
f 427 419 430
f 430 419 431
f 432 430 431
f 433 430 432
f 433 429 430
f 433 434 429
f 433 432 434
f 435 434 432
f 435 436 434
f 437 436 435
f 437 431 436
f 437 435 431
f 435 432 431
f 436 431 438
f 436 438 434
f 434 438 429
f 429 438 401
f 425 429 401
f 423 425 401
f 438 385 401
f 375 385 438
f 383 385 375
f 377 383 375
f 373 375 438
f 439 373 438
f 439 371 373
f 439 440 371
f 439 441 440
f 439 438 441
f 441 438 431
f 441 431 440
f 440 431 371
f 371 431 388
f 380 371 388
f 388 431 399
f 419 399 431

o geometry_7
v 0.02599471 0.03800102 -0.04199833
v 0.02599471 0.04100064 -0.04119449
v 0.02879518 0.00017482 -0.04199868
v 0.02599445 0.04319585 -0.03899965
v 0.02519466 0.04100064 -0.04119449
v 0.02519466 0.04319662 -0.03899866
v 0.02599445 0.04400027 -0.03599998
v 0.02519441 0.04400027 -0.03599998
v 0.02367193 0.04400875 -0.03335579
v 0.02519466 0.03800102 -0.04199933
v 0.02519549 0.01612073 -0.04199933
v 0.02367193 0.03613790 -0.03336978
v 0.02367193 0.03613790 -0.03179804
v 0.02367193 0.04400875 -0.03179804
v 0.02610835 0.04400875 -0.03179804
v 0.02619167 0.04400027 -0.03179804
v 0.02621231 0.03613790 -0.03179804
v 0.02875828 0.00117277 -0.03547291
v 0.02875562 -0.00106418 -0.03547291
v 0.02619412 0.01375933 -0.03305494
v 0.02539970 0.01375933 -0.03305494
v 0.02684979 -0.00784058 -0.03547291
v 0.02667859 -0.00784058 -0.04199868
v 0.02747742 -0.00784058 -0.04199868
v 0.02751831 -0.00784058 -0.03547291
v 0.02845843 -0.00331382 -0.03547291
f 443 444 442
f 443 445 444
f 446 445 443
f 447 445 446
f 447 448 445
f 447 449 448
f 447 450 449
f 447 446 450
f 446 451 450
f 446 443 451
f 443 442 451
f 451 442 444
f 451 444 452
f 451 452 453
f 451 453 450
f 454 450 453
f 455 450 454
f 456 450 455
f 456 448 450
f 456 457 448
f 456 455 457
f 455 454 457
f 458 457 454
f 458 459 457
f 458 460 459
f 458 461 460
f 458 454 461
f 462 461 454
f 462 463 461
f 462 454 463
f 454 464 463
f 454 453 464
f 453 452 464
f 465 464 452
f 465 463 464
f 466 463 465
f 461 463 466
f 461 466 467
f 460 461 467
f 460 467 444
f 460 444 459
f 457 459 444
f 445 457 444
f 448 457 445
f 467 465 444
f 467 466 465
f 465 452 444
f 449 450 448

o geometry_8
v -0.02622949 0.03613790 -0.03179805
v -0.02851711 0.03613790 -0.02944652
v -0.02843684 0.04400875 -0.02952490
v -0.02621344 0.04367742 -0.03179805
v 0.02620919 0.03613790 -0.03179805
v -0.02870975 0.03613790 -0.02924699
v -0.02850908 0.04400875 -0.02944652
v -0.02838065 0.04400875 -0.02958190
v -0.02620541 0.04399642 -0.03179805
v 0.02618511 0.04400027 -0.03179805
v 0.02829615 0.04400875 -0.02965316
v 0.02851287 0.03613790 -0.02944652
v -0.02878199 0.03613790 -0.02916861
v -0.02861343 0.04400875 -0.02932537
v -0.02621344 0.04400875 -0.03175529
v -0.02614922 0.04400798 -0.03179805
v 0.02610485 0.04400875 -0.03179805
v 0.02619314 0.04400875 -0.03174103
v 0.02836839 0.04400875 -0.02957478
v 0.02857708 0.04400875 -0.02932537
v 0.03254229 0.03613790 -0.02457956
v -0.02908701 0.03613790 -0.02879806
v -0.02876594 0.04400875 -0.02914010
v -0.02586026 0.04400875 -0.03179805
v 0.03323259 0.04400875 -0.02369595
v 0.03396302 0.04400875 -0.02281235
v 0.03365801 0.03613790 -0.02322564
v -0.03391910 0.03613790 -0.02291923
v -0.03417596 0.04400875 -0.02256294
v 0.03416369 0.04400875 -0.02256294
v 0.03390684 0.03613790 -0.02291923
v -0.03554853 0.03613790 -0.02022566
v -0.03458532 0.04400875 -0.02189311
v -0.03442479 0.04400875 -0.02215677
v 0.03481386 0.04400875 -0.02149406
v 0.03523928 0.03613790 -0.02072447
v -0.03791642 0.03613790 -0.01499529
v -0.03900003 0.04400875 -0.01253686
v -0.03529168 0.04400875 -0.02072447
v 0.03527941 0.04400875 -0.02071734
v 0.03553626 0.03613790 -0.02022566
v -0.03885555 0.03613790 -0.01291454
v -0.03900806 0.03613790 -0.01235160
v -0.03967427 0.03613790 -0.00987180
v -0.03955388 0.04400875 -0.01045612
v 0.03704529 0.04400875 -0.01682663
v 0.03885131 0.03613790 -0.01291454
v -0.04059735 0.03613790 -0.00573880
v -0.04044484 0.04400875 -0.00645851
v 0.03898776 0.04400875 -0.01253686
v 0.04058509 0.03613790 -0.00573880
v -0.04083012 0.03613790 -0.00259630
v -0.04077394 0.04400875 -0.00325901
v -0.04058129 0.04400875 -0.00583144
v 0.04056903 0.04400875 -0.00583144
v 0.04074562 0.04400875 -0.00349416
v 0.04093826 0.04400875 -0.00087185
v 0.04091418 0.03613790 -0.00124952
v -0.04091842 0.03613790 -0.00134928
v -0.04095855 0.04400875 -0.00071508
v 0.04099445 0.04400875 0.00002601
v 0.04093023 0.03613790 -0.00099299
v -0.04094249 0.03613790 -0.00099299
v -0.04100672 0.04400875 0.00002601
v 0.04091418 0.03613790 0.00302599
v 0.04098642 0.03613790 0.00029679
v 0.04098642 0.03613790 0.00004026
v 0.04089010 0.04400875 0.00385259
v -0.04099869 0.03613790 0.00003314
v -0.04099066 0.03613790 0.00038230
v -0.04087828 0.03613790 0.00448679
v -0.04087026 0.04400875 0.00488584
v 0.04086602 0.04400875 0.00458656
v 0.04080983 0.03613790 0.00613287
v -0.04087026 0.03613790 0.00474333
v -0.04082210 0.04400875 0.00621125
v 0.04082589 0.04400875 0.00577657
v 0.04080983 0.04400875 0.00621125
v 0.04079377 0.03613790 0.00648203
v -0.04080604 0.03613790 0.00648203
v -0.04001942 0.04400875 0.02134656
v 0.04000716 0.04400875 0.02134656
v 0.04004729 0.03613790 0.01995702
v -0.04005956 0.03613790 0.01995702
v -0.02593250 0.03613790 0.03165767
v -0.02640608 0.04400875 0.03130138
v 0.02592023 0.03613790 0.03165767
v 0.02639381 0.04400875 0.03130138
v -0.01948703 0.03613790 0.03604007
v -0.01919807 0.04400875 0.03621109
v -0.02263351 0.04400875 0.03387381
v 0.02542257 0.04400875 0.03196408
v 0.02296639 0.04400875 0.03363866
v 0.02409013 0.03613790 0.03290469
v -0.01735191 0.03613790 0.03700206
v -0.01806629 0.04400875 0.03671702
v 0.01918580 0.04400875 0.03621109
v 0.01947476 0.03613790 0.03604007
v -0.01005561 0.03613790 0.03973839
v -0.01378002 0.04400875 0.03832747
v 0.01804600 0.04400875 0.03671702
v 0.01733965 0.03613790 0.03700206
v -0.00989508 0.04400875 0.03978114
v -0.00774391 0.03613790 0.04006618
v -0.00865896 0.04400875 0.03995929
v 0.01694634 0.04400875 0.03713745
v 0.01526875 0.03613790 0.03777878
v -0.00000613 0.03613790 0.04099966
v -0.00117001 0.04400875 0.04085714
v 0.00988281 0.04400875 0.03978114
v 0.01004334 0.03613790 0.03973839
v -0.00000613 0.04400875 0.04099254
f 468 469 470
f 468 470 471
f 468 471 476
f 468 476 483
f 468 483 491
f 468 491 484
f 468 484 477
f 468 477 472
f 468 472 479
f 468 479 488
f 468 488 494
f 468 494 498
f 468 498 503
f 468 503 508
f 468 508 514
f 468 514 518
f 468 518 525
f 468 525 529
f 468 529 534
f 468 534 533
f 468 533 532
f 468 532 541
f 468 541 546
f 468 546 550
f 468 550 554
f 468 554 561
f 468 561 565
f 468 565 569
f 468 569 574
f 468 574 578
f 468 578 575
f 468 575 571
f 468 571 566
f 468 566 562
f 468 562 556
f 468 556 552
f 468 552 551
f 468 551 547
f 468 547 542
f 468 542 538
f 468 538 537
f 468 537 536
f 468 536 530
f 468 530 526
f 468 526 519
f 468 519 515
f 468 515 511
f 468 511 510
f 468 510 509
f 468 509 504
f 468 504 499
f 468 499 495
f 468 495 489
f 468 489 480
f 468 480 473
f 468 473 469
f 469 473 470
f 470 474 481
f 470 481 490
f 470 490 496
f 470 496 501
f 470 501 500
f 470 500 506
f 470 506 505
f 470 505 512
f 470 512 516
f 470 516 521
f 470 521 520
f 470 520 527
f 470 527 531
f 470 531 539
f 470 539 543
f 470 543 548
f 470 548 553
f 470 553 558
f 470 558 557
f 470 557 563
f 470 563 567
f 470 567 570
f 470 570 572
f 470 572 576
f 470 576 579
f 470 579 577
f 470 577 573
f 470 573 568
f 470 568 564
f 470 564 560
f 470 560 559
f 470 559 555
f 470 555 549
f 470 549 545
f 470 545 544
f 470 544 540
f 470 540 535
f 470 535 528
f 470 528 524
f 470 524 523
f 470 523 522
f 470 522 517
f 470 517 513
f 470 513 507
f 470 507 502
f 470 502 497
f 470 497 493
f 470 493 492
f 470 492 487
f 470 487 486
f 470 486 478
f 470 478 485
f 470 485 484
f 470 484 491
f 470 491 482
f 470 482 475
f 470 475 476
f 470 476 471
f 470 473 480
f 470 480 474
f 472 477 478
f 472 478 479
f 474 480 481
f 475 482 476
f 476 482 483
f 477 484 485
f 477 485 478
f 478 486 479
f 479 486 487
f 479 487 488
f 480 489 490
f 480 490 481
f 482 491 483
f 487 492 488
f 488 492 493
f 488 493 494
f 489 495 496
f 489 496 490
f 493 497 498
f 493 498 494
f 495 499 500
f 495 500 501
f 495 501 496
f 497 502 498
f 498 502 503
f 499 504 505
f 499 505 506
f 499 506 500
f 502 507 503
f 503 507 508
f 504 509 505
f 505 509 510
f 505 510 511
f 505 511 512
f 507 513 508
f 508 513 514
f 511 515 512
f 512 515 516
f 513 517 514
f 514 517 518
f 515 519 520
f 515 520 521
f 515 521 516
f 517 522 518
f 518 522 523
f 518 523 524
f 518 524 525
f 519 526 527
f 519 527 520
f 524 528 529
f 524 529 525
f 526 530 527
f 527 530 531
f 528 532 533
f 528 533 534
f 528 534 529
f 528 535 532
f 530 536 531
f 531 536 537
f 531 537 538
f 531 538 539
f 532 535 540
f 532 540 541
f 538 542 539
f 539 542 543
f 540 544 541
f 541 544 545
f 541 545 546
f 542 547 543
f 543 547 548
f 545 549 546
f 546 549 550
f 547 551 548
f 548 551 552
f 548 552 553
f 549 554 550
f 549 555 554
f 552 556 557
f 552 557 558
f 552 558 553
f 554 555 559
f 554 559 560
f 554 560 561
f 556 562 557
f 557 562 563
f 560 564 561
f 561 564 565
f 562 566 567
f 562 567 563
f 564 568 569
f 564 569 565
f 566 570 567
f 566 571 572
f 566 572 570
f 568 573 569
f 569 573 574
f 571 575 572
f 572 575 576
f 573 577 578
f 573 578 574
f 575 579 576
f 575 578 577
f 575 577 579

o geometry_9
v 0.01250108 -0.03527594 -0.03113528
v 0.01250108 -0.03273369 -0.03580347
v 0.01994489 -0.03286895 -0.03113528
v 0.01250108 -0.01862910 -0.03113528
v 0.01269672 -0.03143649 -0.03739039
v 0.01266529 -0.03260006 -0.03592739
v 0.01250108 -0.02849824 -0.03858149
v 0.01269672 -0.03037396 -0.03858149
v 0.02052710 -0.03236702 -0.03159379
v 0.02052710 -0.03263266 -0.03113528
v 0.02052710 -0.01862910 -0.03113528
v 0.01250108 -0.01862910 -0.03858149
v 0.01285386 -0.03031529 -0.03858149
v 0.02052710 -0.03037070 -0.03469765
v 0.02052710 -0.03067056 -0.03431641
v 0.02052710 -0.01862910 -0.03546597
v 0.01372600 -0.01862910 -0.03858149
v 0.01351307 -0.03002522 -0.03858149
v 0.02052710 -0.03000566 -0.03511024
v 0.01939018 -0.01862910 -0.03612129
v 0.02052710 -0.01870732 -0.03858149
v 0.01383364 -0.01862910 -0.03854504
v 0.01466414 -0.02849824 -0.03858149
v 0.02052710 -0.02008111 -0.03858149
v 0.01937996 -0.01862910 -0.03612639
v 0.01430978 -0.01862910 -0.03838176
v 0.01435614 -0.01862910 -0.03836572
v 0.01495485 -0.01862910 -0.03814631
v 0.01501063 -0.01862910 -0.03812517
v 0.01926368 -0.01862910 -0.03617961
f 580 581 582
f 580 582 589
f 580 589 590
f 580 590 583
f 580 583 591
f 580 591 586
f 580 586 581
f 581 584 585
f 581 585 582
f 581 586 587
f 581 587 584
f 582 585 588
f 582 588 589
f 583 590 595
f 583 595 599
f 583 599 604
f 583 604 609
f 583 609 608
f 583 608 607
f 583 607 606
f 583 606 605
f 583 605 601
f 583 601 596
f 583 596 591
f 584 587 592
f 584 592 593
f 584 593 585
f 585 593 594
f 585 594 588
f 586 591 596
f 586 596 600
f 586 600 603
f 586 603 602
f 586 602 597
f 586 597 592
f 586 592 587
f 588 594 593
f 588 593 598
f 588 598 603
f 588 603 600
f 588 600 595
f 588 595 590
f 588 590 589
f 592 597 593
f 593 597 598
f 595 600 599
f 596 601 600
f 597 602 598
f 598 602 603
f 599 600 604
f 600 601 605
f 600 605 606
f 600 606 607
f 600 607 608
f 600 608 609
f 600 609 604

o geometry_10
v -0.03344088 0.04400952 -0.02346395
v -0.03418161 0.04400952 -0.02256234
v -0.03447716 0.05297763 -0.02215108
v -0.03344088 0.05134906 -0.02342177
v -0.03344088 0.04400952 0.02369422
v -0.03458679 0.04400952 -0.02189272
v -0.03344088 0.05297763 -0.02341123
v -0.03529493 0.04400952 -0.02072220
v -0.03500308 0.05297763 -0.02128110
v -0.03344088 0.04703839 0.02371531
v -0.03350903 0.05297763 0.03038516
v -0.03363940 0.05297763 0.03039570
v -0.04000818 0.05297763 0.03039570
v -0.04002448 0.04400952 0.02134791
v -0.03344088 0.05297763 0.02371004
v -0.03900005 0.04400952 -0.01253912
v -0.03915709 0.05297763 -0.01210676
v -0.03344088 0.04792950 0.02372058
v -0.03344088 0.05100491 0.02372058
v -0.04086298 0.05297763 0.00534556
v -0.04086743 0.04400952 0.00502393
v -0.04082520 0.04400952 0.00621026
v -0.03955782 0.04400952 -0.01046171
v -0.03942004 0.05297763 -0.01112606
v -0.04100816 0.05297763 0.00001496
v -0.04100668 0.04400952 0.00002550
v -0.04009707 0.04400952 -0.00803631
v -0.04057335 0.05297763 -0.00593782
v -0.04098150 0.05297763 -0.00043322
v -0.04095038 0.04400952 -0.00092357
v -0.04044743 0.04400952 -0.00645981
v -0.04058669 0.04400952 -0.00583236
f 610 611 612
f 610 612 613
f 610 613 616
f 610 616 624
f 610 624 628
f 610 628 627
f 610 627 619
f 610 619 614
f 610 614 623
f 610 623 631
f 610 631 630
f 610 630 635
f 610 635 639
f 610 639 641
f 610 641 640
f 610 640 636
f 610 636 632
f 610 632 625
f 610 625 617
f 610 617 615
f 610 615 611
f 611 615 612
f 612 616 613
f 612 615 617
f 612 617 618
f 612 618 626
f 612 626 633
f 612 633 637
f 612 637 638
f 612 638 634
f 612 634 629
f 612 629 622
f 612 622 621
f 612 621 620
f 612 620 624
f 612 624 616
f 614 619 620
f 614 620 621
f 614 621 622
f 614 622 623
f 617 625 626
f 617 626 618
f 619 627 620
f 620 627 628
f 620 628 624
f 622 629 630
f 622 630 631
f 622 631 623
f 625 632 626
f 626 632 633
f 629 634 635
f 629 635 630
f 632 636 633
f 633 636 637
f 634 638 639
f 634 639 635
f 636 640 637
f 637 640 641
f 637 641 638
f 638 641 639

o geometry_11
v 0.03344052 0.04400952 -0.02344820
v 0.03344052 0.04634395 -0.02343239
v 0.03402318 0.05297763 -0.02268390
v 0.03446388 0.05297763 -0.02215151
v 0.03416959 0.04400952 -0.02256266
v 0.03344052 0.04400952 0.02366492
v 0.03344052 0.05297763 -0.02338495
v 0.03498961 0.05297763 -0.02128178
v 0.03528316 0.04400952 -0.02072304
v 0.03503767 0.04400952 -0.02112892
v 0.03481437 0.04400952 -0.02149789
v 0.04001176 0.04400952 0.02134563
v 0.03999401 0.05297763 0.03040139
v 0.03349450 0.05297763 0.03038557
v 0.03344052 0.04830965 0.02370181
v 0.03344052 0.05297763 0.02369654
v 0.03914294 0.05297763 -0.01210479
v 0.03704668 0.04400952 -0.01682770
v 0.03578449 0.04400952 -0.01961611
v 0.04081256 0.04400952 0.00621229
v 0.04082882 0.05297763 0.00590130
v 0.03898766 0.04400952 -0.01253702
v 0.04056041 0.05297763 -0.00593760
v 0.04057446 0.04400952 -0.00583218
v 0.04089167 0.04400952 0.00384557
v 0.04086653 0.05297763 0.00478910
v 0.04096783 0.05297763 -0.00043457
v 0.04074748 0.04400952 -0.00349708
v 0.04095156 0.04400952 0.00161589
v 0.04099445 0.05297763 0.00001348
v 0.04094934 0.04400952 -0.00073502
v 0.04094121 0.04400952 -0.00086680
v 0.04093751 0.04400952 -0.00092478
v 0.04099001 0.04400952 0.00016634
v 0.04099371 0.04400952 0.00002402
f 642 643 644
f 642 644 645
f 642 645 646
f 642 646 652
f 642 652 651
f 642 651 650
f 642 650 660
f 642 660 659
f 642 659 663
f 642 663 665
f 642 665 669
f 642 669 674
f 642 674 673
f 642 673 672
f 642 672 676
f 642 676 675
f 642 675 670
f 642 670 666
f 642 666 661
f 642 661 653
f 642 653 647
f 642 647 656
f 642 656 657
f 642 657 648
f 642 648 643
f 643 648 644
f 644 648 657
f 644 657 655
f 644 655 654
f 644 654 662
f 644 662 667
f 644 667 671
f 644 671 668
f 644 668 664
f 644 664 658
f 644 658 649
f 644 649 645
f 645 649 650
f 645 650 651
f 645 651 652
f 645 652 646
f 647 653 654
f 647 654 655
f 647 655 656
f 649 658 659
f 649 659 660
f 649 660 650
f 653 661 654
f 654 661 662
f 655 657 656
f 658 663 659
f 658 664 665
f 658 665 663
f 661 666 667
f 661 667 662
f 664 668 669
f 664 669 665
f 666 670 667
f 667 670 671
f 668 671 672
f 668 672 673
f 668 673 674
f 668 674 669
f 670 675 671
f 671 675 676
f 671 676 672

o geometry_12
v -0.02275659 0.01375643 -0.03113532
v -0.01958287 0.01375643 -0.03602053
v -0.02207030 0.01375643 -0.03449352
v -0.02087053 0.01375643 -0.03527777
v -0.02150350 -0.01590358 -0.03490523
v -0.02275659 -0.01590358 -0.03408565
v -0.01266861 -0.01862910 -0.03898558
v -0.01940710 -0.01590358 -0.03611347
v -0.01426930 -0.01590358 -0.03841244
v -0.01302311 -0.01590358 -0.03886332
v -0.01266960 0.00615778 -0.03895319
v -0.01278315 0.01375643 -0.03889251
v 0.02052710 0.01375616 -0.03113552
v 0.02052710 0.01375616 -0.03547241
v 0.01957503 0.01375616 -0.03602092
v 0.01697552 0.01375616 -0.03720871
v 0.01500964 -0.01862910 -0.03812515
v 0.01165303 0.01375616 -0.03928784
v 0.01251412 -0.01862910 -0.03903579
v 0.01938006 -0.01862910 -0.03612619
v 0.02052710 -0.01862910 -0.03546662
v 0.02052710 -0.01862910 -0.03113552
v 0.00000074 -0.01862910 -0.04099903
v 0.00686344 -0.01862910 -0.04040030
v 0.00830291 0.01375616 -0.04009708
v 0.00000074 0.01375616 -0.04099903
v -0.00339162 0.01375616 -0.04073154
v -0.00830793 0.01375616 -0.04009805
v -0.01166130 0.01375616 -0.03928880
v -0.01251264 -0.01862910 -0.03903579
v -0.00686196 -0.01862910 -0.04040030
v -0.00571493 -0.01862910 -0.04054806
v -0.01266861 -0.01862910 -0.03113552
v -0.02275659 -0.01590358 -0.03113532
v -0.02275659 0.01375643 -0.03403572
f 678 679 677
f 680 679 678
f 681 679 680
f 681 682 679
f 681 683 682
f 684 683 681
f 685 683 684
f 685 686 683
f 685 687 686
f 685 688 687
f 685 678 688
f 685 684 678
f 684 681 678
f 681 680 678
f 688 678 677
f 688 677 689
f 688 689 690
f 691 688 690
f 691 692 688
f 693 692 691
f 693 694 692
f 693 695 694
f 693 696 695
f 693 691 696
f 691 697 696
f 691 690 697
f 697 690 698
f 697 698 696
f 696 698 699
f 695 696 699
f 700 695 699
f 700 701 695
f 700 702 701
f 700 699 702
f 703 702 699
f 688 702 703
f 688 701 702
f 688 694 701
f 688 692 694
f 701 694 695
f 688 703 704
f 688 704 705
f 687 688 705
f 686 687 705
f 686 705 683
f 706 683 705
f 706 707 683
f 706 705 707
f 707 705 704
f 707 704 703
f 708 707 703
f 708 699 707
f 708 703 699
f 707 699 683
f 683 699 709
f 683 709 710
f 682 683 710
f 682 710 711
f 682 711 679
f 711 677 679
f 711 710 677
f 677 710 689
f 710 698 689
f 709 698 710
f 709 699 698
f 689 698 690

o geometry_13
v 0.02052710 -0.03263355 -0.03113456
v 0.02052710 -0.03236562 -0.03159397
v 0.02326821 -0.02999511 -0.03375435
v 0.02258494 -0.03179343 -0.03113456
v 0.02052710 0.01375933 -0.03113456
v 0.02052710 -0.03066721 -0.03431609
v 0.02611003 -0.02999511 -0.03113456
v 0.02052710 -0.03036750 -0.03469696
v 0.02052710 -0.03000419 -0.03511010
v 0.02052710 -0.02947742 -0.03523026
v 0.02730333 -0.00915102 -0.03547186
v 0.02699473 0.01375933 -0.03113456
v 0.02052710 0.01375933 -0.03547186
v 0.02845795 -0.00331557 -0.03547186
v 0.02875526 -0.00106768 -0.03547186
v 0.02872867 -0.00188964 -0.03113456
v 0.02052710 -0.02278369 -0.03547186
v 0.02629374 -0.01165322 -0.03547186
v 0.02821703 0.00573049 -0.03113456
v 0.02875849 0.00117113 -0.03547186
v 0.02777388 0.00731991 -0.03547186
v 0.02619383 0.01375933 -0.03547186
v 0.02873351 0.00183414 -0.03113456
f 712 713 714
f 712 714 715
f 712 715 718
f 712 718 727
f 712 727 734
f 712 734 730
f 712 730 723
f 712 723 716
f 712 716 724
f 712 724 728
f 712 728 721
f 712 721 720
f 712 720 719
f 712 719 717
f 712 717 713
f 713 717 714
f 714 718 715
f 714 717 719
f 714 719 720
f 714 720 721
f 714 721 722
f 714 722 718
f 716 723 733
f 716 733 724
f 718 722 725
f 718 725 726
f 718 726 727
f 721 728 729
f 721 729 722
f 722 729 728
f 722 728 724
f 722 724 733
f 722 733 732
f 722 732 731
f 722 731 726
f 722 726 725
f 723 730 731
f 723 731 732
f 723 732 733
f 726 731 727
f 727 731 734
f 730 734 731

o geometry_14
v 0.01249783 -0.01863080 -0.03113552
v 0.01249783 -0.03527704 -0.03113552
v 0.01249783 -0.01863080 -0.03903869
v -0.01266615 -0.01863080 -0.03113552
v 0.01128078 -0.03571232 -0.03113552
v 0.01249783 -0.03273334 -0.03580461
v 0.01249783 -0.01969010 -0.03903773
v 0.01246334 -0.01863080 -0.03904738
v -0.01266615 -0.01863080 -0.03898558
v -0.01266615 -0.03534165 -0.03113552
v 0.00949461 -0.03599798 -0.03113552
v 0.00629676 -0.03387087 -0.03580075
v 0.01249290 -0.03273674 -0.03580075
v 0.00642487 -0.02849952 -0.04049205
v 0.01249783 -0.02849952 -0.03894116
v 0.01249783 -0.02526889 -0.03903000
v 0.00686341 -0.01863080 -0.04040030
v -0.01266615 -0.02421979 -0.03899041
v -0.01251340 -0.01863080 -0.03903579
v -0.01127910 -0.03571403 -0.03113552
v -0.01266615 -0.03259222 -0.03593981
v -0.01249369 -0.03274015 -0.03580075
v 0.00566852 -0.03599798 -0.03216108
v -0.00949293 -0.03599969 -0.03113552
v -0.00001025 -0.03516312 -0.03425469
v -0.00000039 -0.03423474 -0.03580075
v -0.00000039 -0.02849952 -0.04099903
v 0.01249783 -0.02559365 -0.03902903
v -0.00000039 -0.01863080 -0.04099903
v -0.01266615 -0.02444083 -0.03899041
v -0.00686419 -0.01863080 -0.04040030
v -0.00629755 -0.03387257 -0.03580075
v -0.01266615 -0.02849952 -0.03886776
v -0.00642319 -0.02849952 -0.04049205
v -0.00000039 -0.03599798 -0.03265744
v -0.00566685 -0.03599798 -0.03216108
v -0.00564467 -0.01863080 -0.04055385
v -0.00571612 -0.01863080 -0.04054806
f 735 736 740
f 735 740 749
f 735 749 762
f 735 762 750
f 735 750 741
f 735 741 737
f 735 737 742
f 735 742 751
f 735 751 763
f 735 763 771
f 735 771 772
f 735 772 765
f 735 765 753
f 735 753 743
f 735 743 738
f 735 738 744
f 735 744 754
f 735 754 758
f 735 758 745
f 735 745 739
f 735 739 736
f 736 739 740
f 737 741 742
f 738 743 752
f 738 752 764
f 738 764 767
f 738 767 755
f 738 755 744
f 739 745 746
f 739 746 747
f 739 747 740
f 740 747 746
f 740 746 748
f 740 748 749
f 741 750 751
f 741 751 742
f 743 753 752
f 744 755 756
f 744 756 754
f 745 757 746
f 745 758 757
f 746 757 759
f 746 759 760
f 746 760 761
f 746 761 748
f 748 751 750
f 748 750 762
f 748 762 749
f 748 761 763
f 748 763 751
f 752 753 764
f 753 765 764
f 754 756 766
f 754 766 758
f 755 767 768
f 755 768 766
f 755 766 756
f 757 758 769
f 757 769 759
f 758 766 770
f 758 770 769
f 759 769 770
f 759 770 766
f 759 766 760
f 760 766 761
f 761 771 763
f 761 766 768
f 761 768 771
f 764 765 768
f 764 768 767
f 765 772 768
f 768 772 771

o geometry_15
v -0.02875531 0.00137376 -0.03410712
v -0.02875120 -0.00133210 -0.03410712
v -0.02873299 -0.00189286 -0.03113456
v -0.02873828 0.00183216 -0.03113456
v -0.02838890 0.00415529 -0.03410712
v -0.02795203 -0.00672158 -0.03410712
v -0.02611061 -0.03000182 -0.03113456
v -0.02823447 0.00565508 -0.03113456
v -0.02700490 0.01375933 -0.03113456
v -0.02620104 0.01375933 -0.03410712
v -0.02732257 -0.00910257 -0.03410712
v -0.02275659 -0.02912508 -0.03406929
v -0.02275659 -0.02990391 -0.03403001
v -0.02326745 -0.03000182 -0.03375504
v -0.02275659 -0.03134140 -0.03179884
v -0.02275659 -0.03170634 -0.03113456
v -0.02275659 0.01375933 -0.03113456
v -0.02540422 0.01375933 -0.03410712
v -0.02610122 -0.01213331 -0.03410712
v -0.02275659 -0.02442542 -0.03409810
v -0.02275659 -0.03000182 -0.03400731
v -0.02275659 -0.03028665 -0.03358511
v -0.02275659 -0.03044241 -0.03335263
v -0.02275659 0.01375933 -0.03403554
v -0.02275659 -0.01624997 -0.03410712
v -0.02275659 -0.02013520 -0.03410712
f 773 774 775
f 773 775 776
f 773 776 777
f 773 777 782
f 773 782 790
f 773 790 797
f 773 797 798
f 773 798 791
f 773 791 783
f 773 783 778
f 773 778 774
f 774 778 779
f 774 779 775
f 775 779 788
f 775 788 789
f 775 789 781
f 775 781 780
f 775 780 776
f 776 780 777
f 777 780 781
f 777 781 782
f 778 783 784
f 778 784 785
f 778 785 786
f 778 786 779
f 779 786 787
f 779 787 788
f 781 789 796
f 781 796 790
f 781 790 782
f 783 791 792
f 783 792 784
f 784 792 798
f 784 798 797
f 784 797 796
f 784 796 789
f 784 789 788
f 784 788 787
f 784 787 795
f 784 795 794
f 784 794 793
f 784 793 785
f 785 793 786
f 786 793 794
f 786 794 795
f 786 795 787
f 790 796 797
f 791 798 792

o geometry_16
v -0.02275659 -0.03170610 -0.03113456
v -0.02275659 -0.03134457 -0.03179907
v -0.02258280 -0.03179934 -0.03113456
v -0.02275659 -0.01590358 -0.03113456
v -0.02275659 -0.03044266 -0.03335294
v -0.01994329 -0.03287250 -0.03113456
v -0.01266960 -0.01590358 -0.03113456
v -0.02275659 -0.01590358 -0.03408599
v -0.02275659 -0.03028663 -0.03358548
v -0.01266960 -0.03259089 -0.03593939
v -0.01496250 -0.03472960 -0.03113456
v -0.01266960 -0.01590358 -0.03753792
v -0.01266960 -0.03534230 -0.03113456
v -0.02275659 -0.01614333 -0.03900093
v -0.02157953 -0.01590358 -0.03485599
v -0.02275659 -0.03000312 -0.03400744
v -0.01269626 -0.03143971 -0.03739085
v -0.01269626 -0.03026570 -0.03870678
v -0.01266960 -0.02849993 -0.03886849
v -0.01266960 -0.02422059 -0.03899092
v -0.01267453 -0.01590358 -0.03898091
v -0.02275659 -0.01759704 -0.03900093
v -0.02150350 -0.01590358 -0.03490527
v -0.01957299 -0.01590358 -0.03601793
v -0.01940710 -0.01590358 -0.03611341
v -0.01426930 -0.01590358 -0.03841265
v -0.01364719 -0.01590358 -0.03864365
v -0.01358399 -0.01590358 -0.03866675
v -0.01310606 -0.01590358 -0.03883461
v -0.01302311 -0.01590358 -0.03886310
v -0.01277723 -0.01590358 -0.03894703
v -0.01273378 -0.01590358 -0.03896166
v -0.01269724 -0.02550306 -0.03900093
v -0.01414685 -0.02849993 -0.03900093
v -0.01288486 -0.03003356 -0.03888620
v -0.02211967 -0.01843427 -0.03900093
v -0.01272193 -0.02849993 -0.03900093
v -0.01271897 -0.02835532 -0.03900093
v -0.01266960 -0.02444132 -0.03899092
f 799 800 801
f 799 801 804
f 799 804 809
f 799 809 811
f 799 811 805
f 799 805 802
f 799 802 806
f 799 806 812
f 799 812 820
f 799 820 814
f 799 814 807
f 799 807 803
f 799 803 800
f 800 803 804
f 800 804 801
f 802 805 810
f 802 810 819
f 802 819 830
f 802 830 829
f 802 829 828
f 802 828 827
f 802 827 826
f 802 826 825
f 802 825 824
f 802 824 823
f 802 823 822
f 802 822 821
f 802 821 813
f 802 813 806
f 803 807 808
f 803 808 809
f 803 809 804
f 805 811 808
f 805 808 817
f 805 817 837
f 805 837 818
f 805 818 810
f 806 813 812
f 807 814 808
f 808 811 809
f 808 814 815
f 808 815 816
f 808 816 817
f 810 818 819
f 812 813 821
f 812 821 822
f 812 822 823
f 812 823 824
f 812 824 825
f 812 825 826
f 812 826 827
f 812 827 828
f 812 828 829
f 812 829 830
f 812 830 819
f 812 819 831
f 812 831 836
f 812 836 835
f 812 835 832
f 812 832 834
f 812 834 820
f 814 832 833
f 814 833 815
f 814 820 834
f 814 834 832
f 815 833 816
f 816 833 835
f 816 835 817
f 817 835 836
f 817 836 837
f 818 837 831
f 818 831 819
f 831 837 836
f 832 835 833

o geometry_17
v -0.02620501 0.01375933 -0.04199274
v -0.02600499 0.03613790 -0.04199274
v -0.02540510 0.01375933 -0.04199274
v -0.02691193 0.01375933 -0.03134020
v -0.02691193 0.03613790 -0.03096235
v -0.02520491 0.03613790 -0.04199274
v -0.02520217 0.01611635 -0.04199274
v -0.02516244 0.01375933 -0.03235750
v -0.02691193 0.01375933 0.03067848
v -0.02691193 0.03613790 0.03082380
v -0.02516244 0.03613790 -0.03237203
v -0.02516244 0.03437451 -0.03237203
v -0.02516244 0.01541319 -0.03236477
v -0.02516244 0.01375933 0.03216809
v -0.02691193 0.02829357 0.03077294
v -0.02593495 0.03613790 0.03165217
v -0.02516244 0.03613790 0.03218262
v -0.02516244 0.02342400 0.03222622
f 838 839 843
f 838 843 844
f 838 844 840
f 838 840 845
f 838 845 851
f 838 851 846
f 838 846 841
f 838 841 842
f 838 842 839
f 839 842 847
f 839 847 853
f 839 853 854
f 839 854 848
f 839 848 843
f 840 844 845
f 841 846 852
f 841 852 847
f 841 847 842
f 843 848 844
f 844 848 849
f 844 849 850
f 844 850 845
f 845 850 849
f 845 849 848
f 845 848 854
f 845 854 855
f 845 855 851
f 846 851 852
f 847 852 851
f 847 851 853
f 851 855 853
f 853 855 854

o geometry_18
v -0.02540411 0.01375933 -0.03410712
v -0.02540530 0.01375933 -0.04199923
v -0.02620085 0.01375933 -0.03410712
v -0.02275659 -0.01625101 -0.03410712
v -0.02275659 -0.01590594 -0.04199923
v -0.02620499 0.01375933 -0.04199923
v -0.02620499 0.01375933 -0.03954777
v -0.02838879 0.00415403 -0.03410712
v -0.02275659 -0.02013626 -0.03410712
v -0.02275659 -0.01754830 -0.04199923
v -0.02711412 0.00970818 -0.04199923
v -0.02879928 0.00016593 -0.04199923
v -0.02875492 0.00137696 -0.03410712
v -0.02610148 -0.01213350 -0.03410712
v -0.02722532 -0.00938961 -0.04199923
v -0.02875137 -0.00133044 -0.03410712
v -0.02795226 -0.00671538 -0.03410712
v -0.02732291 -0.00910095 -0.03410712
f 856 857 861
f 856 861 862
f 856 862 858
f 856 858 863
f 856 863 868
f 856 868 871
f 856 871 872
f 856 872 873
f 856 873 869
f 856 869 864
f 856 864 859
f 856 859 860
f 856 860 857
f 857 860 865
f 857 865 870
f 857 870 867
f 857 867 866
f 857 866 861
f 858 862 863
f 859 864 865
f 859 865 860
f 861 866 863
f 861 863 862
f 863 866 867
f 863 867 868
f 864 869 870
f 864 870 865
f 867 871 868
f 867 870 872
f 867 872 871
f 869 873 870
f 870 873 872

o geometry_19
v -0.02691193 0.01375933 -0.03134599
v -0.02930270 0.01375933 -0.02866211
v -0.02871501 0.03613790 -0.02925244
v -0.02852601 0.03613790 -0.02944719
v -0.02799626 0.03613790 -0.02995840
v -0.02691193 0.03613790 -0.03096258
v -0.02691193 0.01375933 0.03068141
v -0.02998558 0.01375933 -0.02783443
v -0.03392144 0.03613790 -0.02292312
v -0.02691193 0.03613790 0.03082138
v -0.02691193 0.02829357 0.03077269
v -0.04005907 0.03613790 0.01995807
v -0.02872329 0.01375933 0.02913559
v -0.03318338 0.01375933 -0.02394555
v -0.03346067 0.01375933 -0.02348910
v -0.03627910 0.01375933 -0.01882731
v -0.03555069 0.03613790 -0.02022707
v -0.04080955 0.03613790 0.00647782
v -0.04076540 0.01375933 0.00724464
v -0.04049915 0.01375933 0.01154128
v -0.04024669 0.01375933 0.01558840
v -0.04020668 0.01543071 0.01630653
v -0.03217769 0.01375933 0.02530757
v -0.03846982 0.01375933 -0.01398903
v -0.03792077 0.03613790 -0.01499320
v -0.04085921 0.03613790 0.00506589
v -0.04088267 0.01375933 0.00395217
v -0.03860916 0.01375933 -0.01347173
v -0.03901199 0.03613790 -0.01235801
v -0.03886162 0.03613790 -0.01291183
v -0.04087025 0.03613790 0.00474334
v -0.04087852 0.03613790 0.00448165
v -0.04100130 0.01375933 0.00005721
v -0.04002182 0.01375933 -0.00821352
v -0.03967832 0.03613790 -0.00987497
v -0.04100544 0.03613790 0.00003286
v -0.04085921 0.01375933 -0.00233455
v -0.04033636 0.03613790 -0.00691722
v -0.04063020 0.01375933 -0.00547487
v -0.04092267 0.03613790 -0.00135472
v -0.04084404 0.01375933 -0.00257190
v -0.04059710 0.03613790 -0.00574265
v -0.04083024 0.03613790 -0.00260233
f 874 875 876
f 874 876 877
f 874 877 878
f 874 878 879
f 874 879 883
f 874 883 884
f 874 884 880
f 874 880 886
f 874 886 896
f 874 896 894
f 874 894 893
f 874 893 892
f 874 892 900
f 874 900 906
f 874 906 910
f 874 910 914
f 874 914 912
f 874 912 907
f 874 907 901
f 874 901 897
f 874 897 889
f 874 889 888
f 874 888 887
f 874 887 881
f 874 881 875
f 875 881 876
f 876 881 882
f 876 882 890
f 876 890 898
f 876 898 903
f 876 903 902
f 876 902 908
f 876 908 911
f 876 911 915
f 876 915 916
f 876 916 913
f 876 913 909
f 876 909 905
f 876 905 904
f 876 904 899
f 876 899 891
f 876 891 885
f 876 885 883
f 876 883 879
f 876 879 878
f 876 878 877
f 880 884 885
f 880 885 886
f 881 887 882
f 882 887 888
f 882 888 889
f 882 889 890
f 883 885 884
f 885 891 892
f 885 892 893
f 885 893 894
f 885 894 895
f 885 895 896
f 885 896 886
f 889 897 898
f 889 898 890
f 891 899 900
f 891 900 892
f 894 896 895
f 897 901 902
f 897 902 903
f 897 903 898
f 899 904 900
f 900 904 905
f 900 905 906
f 901 907 902
f 902 907 908
f 905 909 906
f 906 909 910
f 907 911 908
f 907 912 911
f 909 913 910
f 910 913 914
f 911 912 915
f 912 914 913
f 912 913 916
f 912 916 915

o geometry_20
v 0.03343398 0.04830965 0.02370233
v 0.03343398 0.04400952 0.02366219
v 0.03343398 0.05297763 0.02369430
v 0.03328340 0.04400952 0.02389497
v 0.03343398 0.04400952 -0.02344585
v 0.02698545 0.05297763 0.03084599
v 0.02734552 0.04400952 0.03049282
v 0.02818350 0.04400952 0.02956174
v 0.03343398 0.05297763 -0.02338164
v 0.03323103 0.04400952 -0.02369467
v 0.03343398 0.04634395 -0.02342980
v 0.02693962 0.05297763 0.03089415
v 0.02639624 0.04400952 0.03130351
v 0.02821623 0.05297763 -0.02973066
v 0.02858285 0.04400952 -0.02932934
v 0.01885441 0.05297763 0.03640039
v 0.02296575 0.04400952 0.03363924
v 0.02837335 0.04400952 -0.02957816
v 0.02829479 0.04400952 -0.02965843
v 0.02619984 0.04400952 -0.03173731
v 0.02718839 0.05297763 -0.03075004
v 0.01918829 0.04400952 0.03620775
v 0.00970207 0.05297763 0.03982774
v 0.00988538 0.04400952 0.03977958
v 0.01804916 0.04400952 0.03672145
v 0.02020958 0.04400952 -0.03565429
v 0.02001972 0.05297763 -0.03576666
v 0.02237000 0.05297763 -0.03420148
v -0.00000018 0.05297763 0.04099160
v -0.00000018 0.04400952 0.04099962
v 0.02001972 0.04400952 -0.03576666
v 0.01979714 0.05297763 -0.03589508
v -0.00970898 0.05297763 0.03982774
v -0.00866151 0.04400952 0.03995617
v 0.01975131 0.04400952 -0.03591916
v 0.01941088 0.04400952 -0.03607970
v 0.01935850 0.05297763 -0.03609575
v -0.01099869 0.04400952 0.03937023
v -0.00989229 0.04400952 0.03977958
v -0.01886786 0.05297763 0.03640039
v 0.01878239 0.04400952 -0.03636063
v 0.01061207 0.05297763 -0.03958731
v -0.01806261 0.04400952 0.03672145
v -0.02695308 0.05297763 0.03089415
v -0.02263223 0.04400952 0.03387202
v -0.01920174 0.04400952 0.03620775
v 0.01084775 0.04400952 -0.03952310
v 0.01004250 0.05297763 -0.03973180
v -0.02735897 0.04400952 0.03049282
v -0.02640970 0.04400952 0.03129548
v -0.03343434 0.05297763 0.02371035
v -0.02815113 0.04400952 0.02961792
v 0.01058588 0.04400952 -0.03958731
v 0.00964315 0.04400952 -0.03981206
v -0.00000018 0.05297763 -0.04099999
v -0.03343434 0.05100491 0.02371838
v -0.03319866 0.04400952 0.02401537
v -0.03014133 0.04400952 0.02741061
v -0.03343434 0.05297763 -0.02340572
v -0.00000018 0.04400952 -0.04099999
v -0.00121787 0.04400952 -0.04090367
v -0.00057629 0.05297763 -0.04095183
v -0.03324448 0.04400952 0.02395918
v -0.03343434 0.04792950 0.02371838
v -0.02828861 0.05297763 -0.02966645
v -0.03343434 0.05134906 -0.02342177
v -0.00965661 0.04400952 -0.03981206
v -0.01005596 0.05297763 -0.03973180
v -0.03336233 0.04400952 0.02379864
v -0.03343434 0.04400952 0.02369430
v -0.02851120 0.04400952 -0.02944973
v -0.02861594 0.04400952 -0.02932934
v -0.02822969 0.05297763 -0.02973066
v -0.03343434 0.04400952 -0.02346190
v -0.01086121 0.04400952 -0.03952310
v -0.01062553 0.05297763 -0.03958731
v -0.02838681 0.04400952 -0.02957816
v -0.02805947 0.05297763 -0.02989923
v -0.02621329 0.04400952 -0.03175336
v -0.01088740 0.04400952 -0.03951507
v -0.01068445 0.05297763 -0.03957126
v -0.02758811 0.05297763 -0.03032463
v -0.02285482 0.05297763 -0.03392857
v -0.02039980 0.04400952 -0.03554192
v -0.01126711 0.04400952 -0.03937862
v -0.01081538 0.05297763 -0.03952310
v -0.02003318 0.05297763 -0.03576666
v -0.02022304 0.04400952 -0.03565429
v -0.01975822 0.04400952 -0.03591916
v -0.01981059 0.05297763 -0.03589508
v -0.01994807 0.04400952 -0.03581482
v -0.01986296 0.04400952 -0.03586298
f 917 918 921
f 917 921 927
f 917 927 925
f 917 925 919
f 917 919 920
f 917 920 918
f 918 920 924
f 918 924 923
f 918 923 929
f 918 929 933
f 918 933 938
f 918 938 941
f 918 941 940
f 918 940 946
f 918 946 950
f 918 950 955
f 918 955 954
f 918 954 959
f 918 959 962
f 918 962 961
f 918 961 966
f 918 966 965
f 918 965 968
f 918 968 974
f 918 974 973
f 918 973 979
f 918 979 985
f 918 985 986
f 918 986 990
f 918 990 988
f 918 988 987
f 918 987 993
f 918 993 995
f 918 995 1000
f 918 1000 1004
f 918 1004 1007
f 918 1007 1008
f 918 1008 1005
f 918 1005 1001
f 918 1001 996
f 918 996 991
f 918 991 983
f 918 983 977
f 918 977 976
f 918 976 970
f 918 970 969
f 918 969 963
f 918 963 957
f 918 957 952
f 918 952 951
f 918 951 947
f 918 947 942
f 918 942 936
f 918 936 935
f 918 935 934
f 918 934 931
f 918 931 926
f 918 926 921
f 919 922 923
f 919 923 924
f 919 924 920
f 919 925 930
f 919 930 937
f 919 937 944
f 919 944 943
f 919 943 948
f 919 948 953
f 919 953 958
f 919 958 964
f 919 964 971
f 919 971 978
f 919 978 984
f 919 984 992
f 919 992 997
f 919 997 1002
f 919 1002 1006
f 919 1006 1003
f 919 1003 999
f 919 999 998
f 919 998 994
f 919 994 989
f 919 989 981
f 919 981 975
f 919 975 967
f 919 967 960
f 919 960 956
f 919 956 949
f 919 949 945
f 919 945 939
f 919 939 932
f 919 932 928
f 919 928 922
f 921 926 927
f 922 928 923
f 923 928 929
f 925 927 926
f 925 926 930
f 926 931 930
f 928 932 929
f 929 932 933
f 930 931 934
f 930 934 935
f 930 935 936
f 930 936 937
f 932 938 933
f 932 939 940
f 932 940 941
f 932 941 938
f 936 942 943
f 936 943 944
f 936 944 937
f 939 945 946
f 939 946 940
f 942 947 943
f 943 947 948
f 945 949 946
f 946 949 950
f 947 951 948
f 948 951 952
f 948 952 953
f 949 954 955
f 949 955 950
f 949 956 954
f 952 957 953
f 953 957 958
f 954 956 959
f 956 960 961
f 956 961 962
f 956 962 959
f 957 963 958
f 958 963 964
f 960 965 966
f 960 966 961
f 960 967 968
f 960 968 965
f 963 969 964
f 964 969 970
f 964 970 971
f 967 972 973
f 967 973 974
f 967 974 968
f 967 975 982
f 967 982 990
f 967 990 986
f 967 986 980
f 967 980 972
f 970 976 971
f 971 976 977
f 971 977 978
f 972 979 973
f 972 980 979
f 975 981 982
f 977 983 984
f 977 984 978
f 979 980 985
f 980 986 985
f 981 987 988
f 981 988 982
f 981 989 987
f 982 988 990
f 983 991 984
f 984 991 992
f 987 989 993
f 989 994 995
f 989 995 993
f 991 996 997
f 991 997 992
f 994 998 995
f 995 998 999
f 995 999 1000
f 996 1001 997
f 997 1001 1002
f 999 1003 1000
f 1000 1003 1004
f 1001 1005 1006
f 1001 1006 1002
f 1003 1006 1007
f 1003 1007 1004
f 1005 1008 1006
f 1006 1008 1007

o geometry_21
v -0.02600479 0.03613790 -0.04200000
v -0.02600499 0.03799716 -0.04200000
v -0.02520492 0.03613790 -0.04200000
v -0.02623126 0.03613790 -0.03179904
v -0.02600541 0.04099679 -0.04119511
v -0.02520554 0.04099602 -0.04119611
v -0.02520512 0.03799716 -0.04200000
v -0.02621269 0.04399642 -0.03179904
v -0.02517141 0.04400875 -0.03236526
v -0.02517141 0.04284449 -0.03236726
v -0.02517141 0.03613790 -0.03236726
v -0.02517141 0.03613790 -0.03179904
v -0.02600572 0.04319200 -0.03900013
v -0.02520585 0.04319277 -0.03899913
v -0.02615044 0.04400798 -0.03179904
v -0.02600582 0.04399642 -0.03600026
v -0.02520595 0.04399642 -0.03600026
v -0.02520191 0.04400875 -0.03234529
v -0.02517141 0.04400875 -0.03179904
v -0.02586297 0.04400875 -0.03179904
f 1009 1010 1015
f 1009 1015 1011
f 1009 1011 1019
f 1009 1019 1020
f 1009 1020 1012
f 1009 1012 1010
f 1010 1013 1014
f 1010 1014 1015
f 1010 1012 1016
f 1010 1016 1013
f 1011 1015 1017
f 1011 1017 1018
f 1011 1018 1019
f 1012 1020 1027
f 1012 1027 1028
f 1012 1028 1023
f 1012 1023 1016
f 1013 1021 1014
f 1013 1016 1021
f 1014 1021 1022
f 1014 1022 1017
f 1014 1017 1015
f 1016 1023 1024
f 1016 1024 1021
f 1017 1022 1025
f 1017 1025 1024
f 1017 1024 1026
f 1017 1026 1028
f 1017 1028 1027
f 1017 1027 1020
f 1017 1020 1019
f 1017 1019 1018
f 1021 1024 1022
f 1022 1024 1025
f 1023 1028 1024
f 1024 1028 1026

