# https://github.com/mikedh/trimesh
v -0.00208628 -0.05375179 -0.13378622
v 0.00838772 -0.05274706 -0.13656183
v 0.00708730 -0.05336099 -0.13378622
v 0.00409963 -0.04670556 -0.05582530
v -0.00572284 -0.04666331 -0.05580689
v -0.01081891 -0.05251998 -0.13637771
v 0.00232657 -0.04150901 -0.14088865
v -0.00046043 -0.03032111 -0.14406930
v 0.02984929 -0.02585599 0.02992848
v 0.01864586 -0.02593785 0.03738993
v 0.00000165 -0.02594577 0.04205276
v -0.01492217 -0.02595105 0.03925414
v -0.01212329 -0.04538529 -0.05497836
v -0.03077543 -0.02585599 0.02899867
v -0.03033183 0.00000000 -0.14407392
v 0.03031401 -0.00046737 -0.14406011
v 0.01546412 -0.02646859 -0.14390820
v 0.03121969 -0.02844106 -0.14086102
v 0.02770789 -0.04583418 -0.13635239
v 0.01153249 -0.04553844 -0.05869757
v 0.02831387 -0.02393897 0.03351421
v 0.01679227 -0.02332109 0.04058441
v 0.00934884 -0.02427168 0.04299177
v -0.00934554 -0.02427168 0.04299177
v -0.02810329 -0.02450404 0.03376737
v -0.01767880 -0.03825060 -0.14086102
v -0.01546082 -0.02646859 -0.14390820
v -0.04101509 -0.00699210 -0.14090705
v 0.00000165 0.03034488 -0.14407392
v 0.04101839 0.00699210 -0.14090705
v 0.04011536 -0.01398420 -0.14083341
v 0.01577041 -0.05152451 -0.13416366
v 0.03707092 -0.02366436 0.02338992
v 0.00116609 -0.02332109 0.04388935
v -0.02085790 -0.04965238 -0.13433397
v -0.03487340 -0.02395217 0.02647047
v -0.02982751 -0.04417065 -0.13636389
v -0.04011206 0.01398420 -0.14083341
v -0.02096352 0.02099215 -0.14390820
v -0.05274396 0.00000000 -0.13656183
v -0.00510762 0.04150901 -0.14090705
v 0.01582058 0.03871533 -0.14086102
v 0.02096682 0.02099215 -0.14390820
v 0.05274727 0.00000000 -0.13656183
v 0.05009890 -0.01915435 -0.13632707
v 0.02305805 -0.04882853 -0.13518092
v 0.04103952 -0.02580846 0.01033813
v 0.00232789 0.04197374 0.04382262
v -0.02019251 -0.02332109 0.03908844
v -0.01883003 -0.04299826 -0.05389205
v -0.03264486 -0.02703894 -0.14083341
v -0.05010352 -0.01915435 -0.13632707
v -0.05333807 -0.00745947 -0.13425112
v -0.05394801 0.00092946 -0.13518092
v -0.01324284 0.05229289 -0.13619359
v -0.02141767 0.03638639 -0.14088863
v 0.01324615 0.05229289 -0.13619359
v 0.05395131 -0.00092946 -0.13518092
v 0.04014573 -0.03502784 -0.13640071
v 0.04788356 -0.02485787 -0.13518092
v 0.02992322 -0.04485719 -0.13385525
v 0.01772435 -0.04354749 -0.06055718
v 0.03391822 0.04197374 0.02792157
v 0.02630581 0.04197374 0.03511375
v 0.01796727 0.04197374 0.04011490
v 0.00748997 0.04478325 0.04299177
v -0.00561458 0.04491000 0.04310225
v -0.01483767 0.04465651 0.04109534
v -0.02242104 0.04480438 0.03741295
v -0.04333340 -0.02506383 0.00475010
v -0.02604374 0.04197374 0.03546127
v -0.03369576 0.04197374 0.02817934
v -0.04788025 -0.02485787 -0.13518092
v -0.04871992 0.02282467 -0.13634089
v 0.00000165 0.05394586 -0.13518092
v -0.02991992 0.04484662 -0.13619359
v 0.01023603 0.05301112 -0.13518092
v 0.02992322 0.04484662 -0.13619359
v 0.03121969 0.02844106 -0.14086102
v 0.04872322 0.02282467 -0.13634089
v 0.05341266 0.00746212 -0.13518092
v 0.04389648 -0.02332109 0.00287208
v 0.05165412 -0.01549458 -0.13454571
v 0.04335783 -0.02507968 0.00381109
v 0.03723199 -0.03910085 -0.13518092
v 0.04206929 -0.02383335 0.01246472
v 0.03903805 0.04197374 0.02032663
v 0.03734817 0.04481494 0.02251765
v 0.03172929 0.04479381 0.02995609
v 0.01961491 0.04477797 0.03880765
v -0.04114843 -0.02332109 0.01515517
v -0.02897992 0.04668443 0.02999292
v -0.02997273 -0.04485719 -0.13383685
v -0.04324627 -0.03215627 -0.13543409
v -0.05165082 -0.01548930 -0.13455492
v -0.04390374 -0.02332109 0.00287208
v -0.04380868 0.04290848 0.00241178
v -0.05156633 0.01568734 -0.13543409
v -0.04407801 0.03110007 -0.13568725
v -0.03451430 0.05187833 -0.00318547
v -0.01398745 0.05201828 0.02991927
v 0.00838772 0.05201828 0.03271789
v 0.03101505 0.05201696 0.01243249
v 0.03451760 0.05187833 -0.00318547
v 0.04483648 0.02995408 -0.13619359
v 0.05156963 0.01569130 -0.13543409
v 0.04390704 0.04197374 0.00287208
v 0.04409716 -0.03113175 -0.13518092
v 0.04193066 0.04294017 0.01276161
v -0.03983481 0.04197374 0.01852456
v -0.03734487 0.04481494 0.02251765
v -0.03722868 -0.03909029 -0.13518092
v -0.04320666 0.04513180 -0.00272516
v -0.03638374 0.05116275 -0.00272516
v -0.02634343 0.05165389 0.02316208
v -0.02038790 0.04991643 -0.13518092
v 0.02973773 0.05121689 0.02046357
v 0.03637648 0.05116275 -0.00272516
v 0.02485356 0.04789378 -0.13518092
v 0.04320997 0.04513180 -0.00272516
v 0.04335783 0.04432380 0.00435424
v -0.04153790 0.04479646 0.01230821
v -0.03722868 0.03909029 -0.13518092
v -0.03506418 0.05086569 0.01059935
v -0.01429968 0.05114955 0.03317128
v -0.00163015 0.05099244 0.03652687
v 0.03622862 0.05093039 0.00660971
v 0.03723199 0.03910085 -0.13518092
v -0.04260464 0.04225099 0.01087668
v -0.04133596 0.02590525 -0.10053537
v -0.04036992 0.02590525 -0.09010111
v -0.03835867 0.02718349 -0.05497860
v -0.03428074 0.04376487 -0.02732349
v -0.03380564 0.04497664 -0.02732349
v -0.04112217 0.02624782 -0.10053537
v 0.03806897 0.02590525 -0.10053537
v -0.04036201 0.02590525 -0.09005094
v -0.03452620 0.02710168 -0.02732349
v -0.03447870 0.04198300 -0.02732349
v -0.03436784 0.04304905 -0.02732349
v -0.03353641 0.03541794 -0.10053537
v -0.03447870 0.03448737 -0.10053537
v -0.03540514 0.03354403 -0.10053537
v -0.03626824 0.03259558 -0.10053537
v -0.03718676 0.03157042 -0.10053537
v -0.03789149 0.03071400 -0.10053537
v -0.03834283 0.03014646 -0.10053537
v -0.03888128 0.02946388 -0.10053537
v -0.03957018 0.02852820 -0.10053537
v -0.03996609 0.02796578 -0.10053537
v -0.04056788 0.02709146 -0.10053537
v -0.04095588 0.02651113 -0.10053537
v -0.03264957 0.04591743 -0.02732349
v -0.03156475 0.03719214 -0.10053537
v -0.03258622 0.03627947 -0.10053537
v 0.03862325 0.02618646 -0.10053537
v 0.03448197 0.02710168 -0.02732349
v 0.03783934 0.02590525 -0.10014123
v 0.03018232 0.02590525 -0.09005094
v -0.03222989 0.04625744 -0.02732349
v -0.03070165 0.03789006 -0.10053537
v 0.03890039 0.02637053 -0.10053537
v 0.03915378 0.02664919 -0.10053537
v 0.03955761 0.02726785 -0.10053537
v 0.03448989 0.03079325 -0.02732349
v -0.03172312 0.04665370 -0.02732349
v -0.02949807 0.03884363 -0.10053537
v 0.03951010 0.02851287 -0.10053537
v 0.03448197 0.04198300 -0.02732349
v 0.03448989 0.03560712 -0.02732349
v -0.03113716 0.04707552 -0.02732349
v -0.02851620 0.03956456 -0.10053537
v 0.03916170 0.02904973 -0.10053537
v 0.03418107 0.04420714 -0.02732349
v 0.03427609 0.04377254 -0.02732349
v 0.03444238 0.04244061 -0.02732349
v -0.03065415 0.04742064 -0.02732349
v -0.02971978 0.04806999 -0.02732349
v -0.02706715 0.04056415 -0.10053537
v 0.03887664 0.02944343 -0.10053537
v 0.03296165 0.04566945 -0.02732349
v 0.03787893 0.03072167 -0.10053537
v 0.03719003 0.03158321 -0.10053537
v -0.02945056 0.04825406 -0.02732349
v -0.02622780 0.04111635 -0.10053537
v 0.03259741 0.03628458 -0.10053537
v 0.03156802 0.03719725 -0.10053537
v 0.03252614 0.04601713 -0.02732349
v 0.03627943 0.03260325 -0.10053537
v 0.03541633 0.03355682 -0.10053537
v 0.03498082 0.03399653 -0.10053537
v 0.03399103 0.03499100 -0.10053537
v 0.03354761 0.03542049 -0.10053537
v 0.03314377 0.03579118 -0.10053537
v -0.02857954 0.04880115 -0.02732349
v -0.02527760 0.04169922 -0.10053537
v 0.03069701 0.03789261 -0.10053537
v 0.03114044 0.04707552 -0.02732349
v 0.02950135 0.03884363 -0.10053537
v -0.02703547 0.04970103 -0.02732349
v -0.02371770 0.04261700 -0.10053537
v 0.02905792 0.03916831 -0.10053537
v 0.02851155 0.03956712 -0.10053537
v 0.03064950 0.04742320 -0.02732349
v -0.02640993 0.05005894 -0.02732349
v -0.02317925 0.04291356 -0.10053537
v -0.02596650 0.05030436 -0.02732349
v 0.02707042 0.04056415 -0.10053537
v 0.02971514 0.04806999 -0.02732349
v -0.02278333 0.04313086 -0.10053537
v -0.02551515 0.05052933 -0.02732349
v -0.02145306 0.04380322 -0.10053537
v -0.02218154 0.04343764 -0.10053537
v 0.02664283 0.04085047 -0.10053537
v 0.02928755 0.04835632 -0.02732349
v -0.02501630 0.05077476 -0.02732349
v -0.01992482 0.04451903 -0.10053537
v 0.02623108 0.04111890 -0.10053537
v 0.02858282 0.04880115 -0.02732349
v -0.02483418 0.05085145 -0.02732349
v -0.01899838 0.04492296 -0.10053537
v 0.02528088 0.04169922 -0.10053537
v 0.02739507 0.04950162 -0.02732349
v -0.02330594 0.05144456 -0.02732349
v -0.01771561 0.04543425 -0.10053537
v -0.01840450 0.04516327 -0.10053537
v 0.02371305 0.04261700 -0.10053537
v 0.02704667 0.04970103 -0.02732349
v -0.02296546 0.05156727 -0.02732349
v -0.01578354 0.04613984 -0.10053537
v 0.02277869 0.04312063 -0.10053537
v 0.02640528 0.05005894 -0.02732349
v -0.02110465 0.05192517 -0.02732349
v -0.00838783 0.04803931 -0.10053537
v -0.01025655 0.04767629 -0.10053537
v -0.01212527 0.04724169 -0.10053537
v -0.01293294 0.04702439 -0.10053537
v -0.01372477 0.04680197 -0.10053537
v -0.01457995 0.04654121 -0.10053537
v 0.02551051 0.05052933 -0.02732349
v 0.02145633 0.04378788 -0.10053537
v -0.01923593 0.05202232 -0.02732349
v -0.01771561 0.05201465 -0.02884993
v -0.00284500 0.04868866 -0.10053537
v -0.00381103 0.04861708 -0.10053537
v -0.00435740 0.04857618 -0.10053537
v -0.00527592 0.04848670 -0.10053537
v -0.00571935 0.04843301 -0.10053537
v -0.00654286 0.04833075 -0.10053537
v 0.02501957 0.05077476 -0.02732349
v 0.01992809 0.04451391 -0.10053537
v -0.01397816 0.05202232 -0.03071319
v 0.01771888 0.05201720 -0.02732349
v 0.01585016 0.05202232 -0.02884993
v -0.00092085 0.04875769 -0.10053537
v 0.02330130 0.05144456 -0.02732349
v 0.01899373 0.04492551 -0.10053537
v 0.01771888 0.04543937 -0.10053537
v -0.00838783 0.05202232 -0.03257645
v -0.01024863 0.05199931 -0.03257645
v 0.01958761 0.05199165 -0.02732349
v 0.01771888 0.05201465 -0.02884993
v 0.01398143 0.05201720 -0.03071319
v 0.00839110 0.05202232 -0.03257645
v 0.00093204 0.04876791 -0.10053537
v 0.02144841 0.05184848 -0.02732349
v 0.01578681 0.04614751 -0.10053537
v 0.01492372 0.04642873 -0.10053537
v 0.01457531 0.04654121 -0.10053537
v 0.01371221 0.04679942 -0.10053537
v 0.01212063 0.04723658 -0.10053537
v 0.01025982 0.04768140 -0.10053537
v -0.00092877 0.05196607 -0.03444688
v 0.00284827 0.04869377 -0.10053537
v 0.01025190 0.05199931 -0.03257645
v 0.00092412 0.05196607 -0.03444688
v 0.00839110 0.04804187 -0.10053537
v 0.00731421 0.04821059 -0.10053537
v 0.00653821 0.04832564 -0.10053537
v 0.00522377 0.04848158 -0.10053537
v 0.00473283 0.04853527 -0.10053537
v 0.00432108 0.04857618 -0.10053537
f 1 2 3
f 1 3 4
f 1 4 5
f 1 6 2
f 2 6 7
f 4 9 10
f 4 10 11
f 4 11 5
f 5 11 12
f 5 13 1
f 5 12 14
f 5 14 13
f 8 16 17
f 7 17 18
f 7 18 19
f 7 19 2
f 8 17 7
f 4 20 9
f 4 3 20
f 11 23 24
f 13 6 1
f 12 25 14
f 6 26 7
f 7 26 8
f 8 27 15
f 8 15 29
f 8 29 16
f 16 30 31
f 3 2 32
f 3 32 20
f 9 33 21
f 9 21 10
f 10 21 22
f 22 23 10
f 10 23 11
f 23 34 24
f 11 24 12
f 12 24 25
f 13 35 6
f 14 25 36
f 26 6 37
f 26 27 8
f 15 28 38
f 15 39 29
f 29 41 42
f 29 43 16
f 30 44 31
f 16 31 18
f 16 18 17
f 31 44 45
f 31 45 18
f 19 46 2
f 2 46 32
f 20 47 9
f 9 47 33
f 34 48 67
f 34 67 24
f 25 24 49
f 13 50 35
f 13 14 50
f 27 26 51
f 15 27 51
f 15 51 28
f 28 51 52
f 28 52 40
f 28 40 38
f 15 38 39
f 40 53 54
f 29 39 41
f 39 56 41
f 41 57 42
f 29 42 43
f 43 30 16
f 18 45 59
f 44 58 45
f 18 59 19
f 19 61 46
f 32 46 62
f 32 62 20
f 33 63 21
f 21 63 64
f 21 64 22
f 22 64 65
f 22 65 66
f 22 66 23
f 34 23 48
f 48 66 67
f 49 68 69
f 24 68 49
f 14 36 70
f 14 70 50
f 6 35 37
f 49 69 71
f 49 71 25
f 36 25 72
f 25 71 72
f 26 37 51
f 40 52 53
f 38 40 74
f 55 57 41
f 55 75 57
f 56 76 41
f 41 76 55
f 57 75 77
f 42 57 78
f 43 79 30
f 30 79 80
f 30 80 44
f 44 81 58
f 45 58 83
f 45 83 60
f 45 60 59
f 59 85 19
f 19 85 61
f 46 47 62
f 62 47 20
f 47 86 33
f 33 87 63
f 64 63 89
f 64 90 65
f 65 90 66
f 23 66 48
f 68 24 67
f 72 71 92
f 37 35 93
f 51 37 94
f 52 51 94
f 52 94 73
f 52 73 95
f 52 95 53
f 40 98 74
f 40 54 98
f 39 38 56
f 38 74 99
f 53 96 54
f 54 96 97
f 55 100 75
f 75 100 101
f 56 99 76
f 75 101 102
f 75 102 103
f 75 103 104
f 75 104 77
f 42 105 79
f 42 79 43
f 42 78 105
f 79 105 80
f 80 106 44
f 44 106 81
f 58 107 82
f 59 60 108
f 59 108 85
f 58 82 83
f 83 84 60
f 84 85 108
f 84 108 60
f 84 83 82
f 85 84 61
f 47 84 86
f 47 46 61
f 47 61 84
f 86 87 33
f 86 109 87
f 63 87 88
f 63 88 89
f 89 90 64
f 36 91 70
f 70 93 35
f 70 35 50
f 36 72 110
f 36 110 91
f 92 71 69
f 37 93 112
f 37 112 94
f 70 96 95
f 70 95 73
f 70 73 94
f 70 94 112
f 95 96 53
f 38 99 56
f 100 115 101
f 76 116 55
f 103 102 117
f 57 119 78
f 81 121 107
f 81 107 58
f 82 86 84
f 87 109 88
f 91 96 70
f 70 112 93
f 72 111 110
f 110 111 122
f 92 111 72
f 97 98 54
f 98 97 113
f 98 113 74
f 113 99 74
f 114 124 100
f 115 100 124
f 99 123 76
f 76 114 116
f 116 114 100
f 116 100 55
f 101 125 102
f 117 127 103
f 103 127 104
f 118 104 127
f 77 104 57
f 57 104 119
f 119 104 118
f 78 128 105
f 120 80 105
f 80 120 106
f 120 121 106
f 106 121 81
f 107 109 86
f 107 86 82
f 67 126 68
f 91 110 129
f 91 129 96
f 96 129 97
f 97 122 113
f 99 113 123
f 101 115 125
f 123 113 114
f 123 114 76
f 125 126 102
f 117 102 90
f 118 78 119
f 78 118 128
f 128 118 120
f 128 120 105
f 120 127 121
f 107 121 109
f 89 88 117
f 66 102 126
f 126 125 68
f 110 122 129
f 97 129 122
f 115 124 92
f 127 117 88
f 120 118 127
f 109 121 88
f 89 117 90
f 90 102 66
f 66 126 67
f 69 68 125
f 69 125 92
f 113 122 114
f 114 122 124
f 115 92 125
f 124 122 111
f 124 111 92
f 88 121 127
f 130 131 132
f 130 132 133
f 130 133 134
f 130 134 135
f 130 135 152
f 130 152 151
f 130 151 150
f 130 150 149
f 130 149 148
f 130 148 147
f 130 147 146
f 130 146 145
f 130 145 144
f 130 144 143
f 130 143 142
f 130 142 141
f 130 141 155
f 130 155 154
f 130 154 161
f 130 161 167
f 130 167 172
f 130 172 179
f 130 179 185
f 130 185 196
f 130 196 201
f 130 201 206
f 130 206 210
f 130 210 213
f 130 213 212
f 130 212 217
f 130 217 221
f 130 221 226
f 130 226 225
f 130 225 230
f 130 230 239
f 130 239 238
f 130 238 237
f 130 237 236
f 130 236 235
f 130 235 234
f 130 234 249
f 130 249 248
f 130 248 247
f 130 247 246
f 130 246 245
f 130 245 244
f 130 244 255
f 130 255 265
f 130 265 274
f 130 274 282
f 130 282 281
f 130 281 280
f 130 280 279
f 130 279 278
f 130 278 277
f 130 277 272
f 130 272 271
f 130 271 270
f 130 270 269
f 130 269 268
f 130 268 267
f 130 267 258
f 130 258 257
f 130 257 251
f 130 251 241
f 130 241 231
f 130 231 227
f 130 227 222
f 130 222 218
f 130 218 214
f 130 214 208
f 130 208 203
f 130 203 202
f 130 202 199
f 130 199 197
f 130 197 187
f 130 187 186
f 130 186 194
f 130 194 193
f 130 193 192
f 130 192 191
f 130 191 190
f 130 190 189
f 130 189 183
f 130 183 182
f 130 182 180
f 130 180 173
f 130 173 168
f 130 168 164
f 130 164 163
f 130 163 162
f 130 162 156
f 130 156 136
f 130 136 158
f 130 158 159
f 130 159 137
f 130 137 131
f 131 137 138
f 131 138 132
f 132 138 139
f 132 139 140
f 132 140 133
f 133 140 139
f 133 139 138
f 133 138 157
f 133 157 165
f 133 165 170
f 133 170 169
f 133 169 176
f 133 176 175
f 133 175 174
f 133 174 181
f 133 181 188
f 133 188 198
f 133 198 204
f 133 204 209
f 133 209 215
f 133 215 219
f 133 219 223
f 133 223 228
f 133 228 232
f 133 232 240
f 133 240 250
f 133 250 256
f 133 256 266
f 133 266 261
f 133 261 253
f 133 253 242
f 133 242 233
f 133 233 229
f 133 229 224
f 133 224 220
f 133 220 216
f 133 216 211
f 133 211 207
f 133 207 205
f 133 205 200
f 133 200 195
f 133 195 184
f 133 184 178
f 133 178 177
f 133 177 171
f 133 171 166
f 133 166 160
f 133 160 153
f 133 153 134
f 134 141 142
f 134 142 143
f 134 143 144
f 134 144 145
f 134 145 146
f 134 146 147
f 134 147 148
f 134 148 149
f 134 149 150
f 134 150 151
f 134 151 152
f 134 152 135
f 134 153 154
f 134 154 155
f 134 155 141
f 136 156 157
f 136 157 158
f 137 159 157
f 137 157 138
f 153 160 154
f 154 160 161
f 156 162 157
f 157 159 158
f 157 162 163
f 157 163 164
f 157 164 165
f 160 166 167
f 160 167 161
f 164 168 169
f 164 169 170
f 164 170 165
f 166 171 172
f 166 172 167
f 168 173 174
f 168 174 175
f 168 175 176
f 168 176 169
f 171 177 172
f 172 177 178
f 172 178 179
f 173 180 174
f 174 180 182
f 174 182 183
f 174 183 181
f 178 184 179
f 179 184 185
f 181 186 187
f 181 187 197
f 181 197 188
f 181 183 189
f 181 189 190
f 181 190 191
f 181 191 192
f 181 192 193
f 181 193 194
f 181 194 186
f 184 195 185
f 185 195 196
f 188 197 199
f 188 199 198
f 195 200 201
f 195 201 196
f 198 199 202
f 198 202 203
f 198 203 204
f 200 205 201
f 201 205 207
f 201 207 206
f 203 208 209
f 203 209 204
f 206 207 210
f 207 211 212
f 207 212 213
f 207 213 210
f 208 214 215
f 208 215 209
f 211 216 212
f 212 216 217
f 214 218 215
f 215 218 219
f 216 220 221
f 216 221 217
f 218 222 219
f 219 222 223
f 220 224 225
f 220 225 226
f 220 226 221
f 222 227 223
f 223 227 228
f 224 229 230
f 224 230 225
f 227 231 232
f 227 232 228
f 229 233 234
f 229 234 235
f 229 235 236
f 229 236 237
f 229 237 238
f 229 238 239
f 229 239 230
f 231 240 232
f 231 241 240
f 233 242 243
f 233 243 244
f 233 244 245
f 233 245 246
f 233 246 247
f 233 247 248
f 233 248 249
f 233 249 234
f 240 241 250
f 241 251 250
f 242 252 243
f 242 253 254
f 242 254 264
f 242 264 259
f 242 259 252
f 243 252 255
f 243 255 244
f 250 251 257
f 250 257 258
f 250 258 256
f 252 259 260
f 252 260 255
f 253 261 262
f 253 262 254
f 254 262 263
f 254 263 264
f 255 260 259
f 255 259 265
f 256 258 267
f 256 267 268
f 256 268 269
f 256 269 270
f 256 270 271
f 256 271 272
f 256 272 266
f 259 273 265
f 259 264 276
f 259 276 273
f 261 266 274
f 261 274 262
f 262 274 265
f 262 265 263
f 263 275 264
f 263 265 275
f 264 275 265
f 264 265 276
f 265 273 276
f 266 272 277
f 266 277 278
f 266 278 279
f 266 279 280
f 266 280 281
f 266 281 282
f 266 282 274

