# https://github.com/mikedh/trimesh

o geometry_0
v -0.07486744 -0.02059983 -0.00148572
v -0.06706730 -0.02059983 -0.00148572
v -0.06316812 -0.02060386 0.03807954
v -0.07263316 -0.02059175 0.03752181
v -0.07013402 -0.02030524 -0.00533206
v -0.06608349 -0.02029717 -0.00260119
v -0.06316812 -0.02040814 0.04671935
v -0.06316812 -0.01959703 0.03522625
v -0.06539518 -0.01894935 -0.00650534
v -0.07586070 -0.02032340 0.02916257
v -0.07615080 -0.02016400 -0.00232232
v -0.07563795 -0.01918996 -0.00719996
v -0.06629791 -0.01847317 -0.00888932
v -0.06539699 -0.01662899 -0.01087881
v -0.06658620 -0.02010347 0.04592866
v -0.07543502 -0.02007119 0.03476714
v -0.07799003 -0.01921568 -0.00037025
v -0.07180432 -0.01900383 -0.00885872
v -0.06539339 -0.00892542 -0.01764647
v -0.06644116 -0.01619317 -0.01266425
v -0.07275569 -0.02015391 0.03992280
v -0.07632513 -0.01950220 0.03083578
v -0.07778282 -0.01861592 -0.00523513
v -0.06649251 -0.01284177 -0.01599706
v -0.07846390 -0.01839045 0.00019089
v -0.06539518 -0.00113307 -0.01987741
v -0.06645287 -0.00451473 -0.01989101
v -0.07082953 -0.01428191 -0.01522677
v -0.06316812 -0.01895338 0.04781272
v -0.06985293 -0.01939274 0.04365011
v -0.07430167 -0.01884039 0.03806594
v -0.08157568 -0.00277951 0.00744486
v -0.08156307 -0.00724266 0.00298297
v -0.08145136 -0.00835845 0.00019089
v -0.07854679 -0.01727466 -0.00538987
v -0.07773416 -0.01678234 -0.00994018
v -0.07532736 -0.01734729 -0.01107606
v -0.07041330 -0.01110857 -0.01762606
v -0.07109080 -0.01838843 0.04266386
v -0.07322777 -0.01392931 0.04036490
v -0.07618188 -0.01838843 0.03250558
v -0.08153064 -0.00724266 -0.00371666
v -0.07698099 -0.01442970 -0.01366749
v -0.06316992 0.01950396 0.03499159
v -0.06762496 0.00282768 -0.02033992
v -0.07112413 -0.00807193 -0.01908161
v -0.06640602 -0.01830570 0.04637757
v -0.07534628 0.00076937 0.03677448
v -0.08157388 0.00278531 0.00745167
v -0.08154821 0.00641010 0.00437561
v -0.08153604 0.00390311 -0.00706308
v -0.08147748 -0.00501310 -0.00650534
v -0.07847562 -0.01448822 -0.01096043
v -0.07543007 -0.01514397 -0.01384604
v -0.06539699 0.00893122 -0.01765327
v -0.06539699 0.01444357 -0.01315057
v -0.06985474 -0.00320121 -0.02034672
v -0.07486564 0.00055373 -0.02053717
v -0.06316812 -0.00500705 0.04879216
v -0.06686909 -0.00746561 0.04704583
v -0.06983159 -0.00759803 0.04487759
v -0.07261278 -0.00126623 0.04217563
v -0.07604495 0.00000290 0.03418900
v -0.07608549 0.01839019 0.03306672
v -0.08144955 0.00835819 0.00019769
v -0.08147477 0.00668754 -0.00483213
v -0.07839904 0.00947600 -0.01597326
v -0.07843598 0.00501688 -0.01764647
v -0.08152613 -0.00000114 -0.00817855
v -0.07843688 -0.00501310 -0.01764647
v -0.07840084 -0.00947827 -0.01597326
v -0.07584944 -0.01274492 -0.01592564
v -0.06316992 0.02059352 0.03752181
v -0.06539699 0.01887847 -0.00645093
v -0.06623799 0.00562421 -0.01943020
v -0.06645557 0.01120113 -0.01711934
v -0.06647989 0.01617879 -0.01265064
v -0.06818533 -0.00194519 0.04645239
v -0.07632513 0.01950396 0.03083578
v -0.07846031 0.01839019 0.00019769
v -0.07848598 0.01643605 -0.00762082
v -0.07803778 0.01385440 -0.01311316
v -0.07774678 0.01014587 -0.01661261
v -0.07761884 0.00551727 -0.01874153
v -0.07805759 -0.00000114 -0.01911562
v -0.07771840 -0.00492533 -0.01881125
v -0.07580484 -0.00793977 -0.01871433
v -0.06628890 0.01847090 -0.00890293
v -0.06608529 0.02028683 -0.00260119
v -0.06874029 0.00724846 -0.01933668
v -0.07543322 0.02007295 0.03476714
v -0.07798822 0.01921341 -0.00035664
v -0.07802065 0.01818438 -0.00594761
v -0.06706909 0.02059352 -0.00147892
v -0.06316992 0.02026665 0.04728219
v -0.06316992 0.01839019 0.04790794
v -0.06316992 0.00503706 0.04879216
v -0.06867543 0.02013575 -0.00553738
v -0.07152684 0.01111033 -0.01762606
v -0.07027254 0.01426147 -0.01520807
v -0.07410526 -0.00383930 -0.02011632
v -0.06991937 0.00216663 0.04511672
v -0.07445302 0.00503706 0.03893996
v -0.07430167 0.01882601 0.03806594
v -0.07486564 0.02057334 0.03195125
v -0.07589088 0.02032314 0.02748936
v -0.07614495 0.02015769 -0.00231722
v -0.07773236 0.01678007 -0.00994018
v -0.07584224 0.01274870 -0.01593245
v -0.07560169 0.00812010 -0.01867351
v -0.07623324 0.00157973 -0.02008316
v -0.06595375 0.02057334 0.04476558
v -0.06658620 0.02010524 0.04592866
v -0.06482851 0.00723433 0.04806183
v -0.07486564 0.02059755 -0.00147892
v -0.06985586 0.01844265 -0.00987132
v -0.07324759 0.02011734 0.03929024
v -0.07639000 0.01889865 -0.00743717
v -0.07518006 0.00532761 -0.01972097
v -0.06744748 0.01839019 0.04576542
v -0.07263857 0.02021621 -0.00557352
v -0.06778070 0.00750849 0.04645196
v -0.07218451 0.00503706 0.04266386
v -0.07037006 0.01993373 0.04304816
v -0.07152684 0.01690920 -0.01234797
v -0.07208361 0.01894304 0.04142596
v -0.07399468 0.01844265 -0.00953463
v -0.07551881 0.01619292 -0.01266765
v -0.07042096 0.00986037 0.04421294
f 1 2 3
f 1 3 4
f 1 5 2
f 3 2 6
f 3 8 59
f 3 59 29
f 3 29 7
f 3 7 4
f 3 6 9
f 3 9 8
f 4 10 1
f 1 10 11
f 1 12 5
f 2 5 6
f 9 6 13
f 9 13 14
f 9 14 8
f 7 15 4
f 11 10 17
f 1 11 12
f 5 12 18
f 5 13 6
f 5 18 13
f 8 14 19
f 13 20 14
f 4 15 21
f 4 21 16
f 4 16 10
f 10 22 17
f 16 22 10
f 17 22 25
f 11 17 23
f 11 23 12
f 8 19 26
f 19 24 27
f 14 20 19
f 19 20 24
f 13 18 20
f 7 29 15
f 15 30 21
f 21 31 16
f 22 32 33
f 22 34 25
f 25 34 35
f 25 23 17
f 25 35 23
f 12 37 18
f 24 38 27
f 24 20 28
f 20 18 28
f 21 30 39
f 21 40 31
f 21 39 40
f 16 41 22
f 22 41 32
f 22 33 34
f 34 33 42
f 35 34 42
f 23 36 12
f 36 43 37
f 36 37 12
f 8 26 44
f 19 27 26
f 26 27 45
f 27 38 46
f 24 28 38
f 15 29 47
f 15 47 30
f 32 49 50
f 32 50 33
f 32 41 49
f 33 50 51
f 33 51 52
f 33 52 42
f 42 52 53
f 42 53 35
f 35 53 23
f 23 53 36
f 36 53 43
f 37 43 54
f 37 54 18
f 44 26 55
f 44 55 56
f 27 57 45
f 45 57 58
f 46 57 27
f 18 54 28
f 29 59 47
f 40 39 62
f 31 48 16
f 48 41 16
f 41 48 63
f 41 63 49
f 49 63 64
f 49 64 50
f 50 65 66
f 50 66 51
f 51 66 67
f 51 67 68
f 51 68 69
f 51 69 52
f 52 69 70
f 52 70 71
f 52 71 53
f 43 71 72
f 44 73 59
f 44 59 8
f 44 56 74
f 44 74 73
f 26 75 55
f 55 75 76
f 55 76 56
f 56 76 77
f 26 45 75
f 47 59 60
f 47 61 30
f 61 39 30
f 39 61 62
f 40 62 31
f 50 64 79
f 50 79 65
f 65 80 81
f 66 65 81
f 66 81 67
f 67 82 83
f 68 67 84
f 69 68 85
f 69 85 70
f 70 86 71
f 43 53 71
f 43 72 54
f 56 77 88
f 56 88 74
f 74 88 89
f 47 60 61
f 79 64 91
f 65 79 80
f 63 48 64
f 80 79 92
f 81 80 93
f 81 82 67
f 83 84 67
f 68 84 85
f 70 85 86
f 71 86 87
f 87 72 71
f 54 72 28
f 74 89 73
f 73 89 94
f 59 73 95
f 59 95 96
f 59 96 97
f 88 98 89
f 89 98 94
f 75 90 76
f 76 90 99
f 76 100 77
f 58 57 101
f 57 46 101
f 28 72 38
f 61 78 102
f 62 103 31
f 48 31 103
f 91 105 106
f 91 106 79
f 48 104 64
f 64 104 91
f 79 106 92
f 80 92 93
f 93 108 81
f 81 108 82
f 83 82 109
f 84 111 85
f 73 112 95
f 96 95 113
f 96 114 97
f 94 98 115
f 94 115 73
f 73 115 105
f 90 75 45
f 76 99 100
f 46 38 87
f 38 72 87
f 60 78 61
f 60 97 78
f 60 59 97
f 102 62 61
f 91 104 117
f 91 117 105
f 48 103 104
f 92 106 107
f 92 107 93
f 84 83 110
f 110 119 84
f 84 119 111
f 85 111 86
f 73 105 112
f 95 112 113
f 113 120 96
f 96 120 114
f 98 121 115
f 88 77 116
f 58 119 45
f 45 119 90
f 46 87 101
f 102 123 62
f 104 103 123
f 105 117 112
f 105 115 107
f 105 107 106
f 93 118 108
f 93 107 118
f 83 109 110
f 86 101 87
f 113 124 120
f 114 120 122
f 100 125 77
f 77 125 116
f 88 116 98
f 58 101 86
f 58 86 111
f 58 111 119
f 97 114 78
f 78 114 122
f 102 78 122
f 62 123 103
f 123 126 104
f 104 126 117
f 117 126 124
f 117 124 113
f 108 118 127
f 109 82 128
f 82 108 128
f 110 109 99
f 117 113 112
f 98 116 127
f 98 127 121
f 102 129 123
f 115 121 118
f 115 118 107
f 127 128 108
f 128 100 109
f 110 99 119
f 119 99 90
f 120 129 122
f 125 127 116
f 102 122 129
f 126 129 124
f 118 121 127
f 128 125 100
f 100 99 109
f 120 124 129
f 125 128 127
f 129 126 123

o geometry_1
v -0.01626744 0.00576728 0.04442508
v -0.01629623 0.00576728 0.04486033
v -0.00434940 -0.01676513 0.04421595
v -0.01633653 0.00576728 0.04087729
v -0.00434940 -0.01677229 0.04084626
v -0.01645744 0.00576728 0.04500812
v -0.00434940 -0.01722666 0.04517365
v -0.00434940 -0.01722666 0.03987969
v -0.01684895 0.00576728 0.03983239
v -0.00434940 -0.01838226 0.04560964
v -0.01688350 0.00576728 0.04527710
v -0.01801773 0.00576728 0.03939197
v -0.00434940 -0.01838226 0.03939345
v -0.01726349 0.00576728 0.04544263
v -0.00487909 -0.02780595 0.04703585
v -0.00434940 -0.02844993 0.04697230
v -0.02321676 0.00576728 0.03934615
v -0.00434940 -0.02507615 0.03889390
v -0.06316812 -0.00836825 0.03486506
v -0.06316812 -0.00725200 0.03517542
v -0.01801773 0.00576728 0.04560964
v -0.02294040 -0.01655763 0.04927640
v -0.02274464 -0.01727675 0.04927935
v -0.02136284 -0.01950208 0.04907244
v -0.00575423 -0.02823885 0.04707575
v -0.00575423 -0.02879697 0.04695752
v -0.00434940 -0.02960911 0.04639738
v -0.00434940 -0.02870753 0.03889390
v -0.06316812 -0.00948450 0.03486210
v -0.06315660 0.00501954 0.04021222
v -0.04141625 0.00501238 0.04986166
v -0.02357372 -0.01618197 0.04932813
v -0.02470220 -0.01616766 0.04940645
v -0.02359099 -0.01869352 0.04921432
v -0.04587256 -0.01866847 0.04921432
v -0.05145159 -0.01950208 0.04904141
v -0.00687119 -0.02819592 0.04709940
v -0.00687119 -0.02875046 0.04689692
v -0.05590214 -0.01950208 0.04902072
v -0.05701334 -0.01950208 0.04898672
v -0.05924726 -0.02028560 0.04837486
v -0.00434940 -0.03013146 0.04592740
v -0.02466765 0.00576728 0.03974372
v -0.00434940 -0.02953398 0.03890277
v -0.06316812 -0.01838941 0.03486506
v -0.06315660 0.00501954 0.04879459
v -0.02499007 0.00576728 0.04087729
v -0.02359099 0.00576728 0.04556235
v -0.05591366 0.00501238 0.04989270
v -0.04141625 0.00055456 0.04995477
v -0.04141625 -0.00055811 0.04995477
v -0.04141625 -0.00948450 0.04976412
v -0.04141625 -0.01059358 0.04972273
v -0.04029353 -0.01449150 0.04950843
v -0.05478518 -0.01845381 0.04920546
v -0.00575423 -0.02945885 0.04639886
v -0.05703061 -0.01838941 0.04915964
v -0.05814181 -0.01950566 0.04890248
v -0.06036421 -0.02021762 0.04828027
v -0.00509212 -0.03007779 0.04586828
v -0.00434940 -0.03043198 0.04540273
v -0.06316812 -0.01950566 0.03501285
v -0.06316812 -0.00487641 0.04879903
v -0.02479432 0.00576728 0.04467781
v -0.05704213 0.00501954 0.04983949
v -0.05591366 0.00389972 0.04991930
v -0.05478518 -0.00501951 0.04989713
v -0.05478518 -0.01059358 0.04969761
v -0.05590214 -0.00948450 0.04974490
v -0.05703061 -0.00948450 0.04971091
v -0.05814181 -0.01838941 0.04907688
v -0.05980573 -0.01950566 0.04865862
v -0.06120481 -0.02013176 0.04818864
v -0.06316812 -0.02026413 0.04729449
v -0.00469485 -0.03037474 0.04543081
v -0.00575423 -0.03031034 0.04520617
v -0.00434940 -0.03078260 0.04421595
v -0.00434940 -0.03028530 0.03905943
v -0.06316812 -0.01973821 0.03513847
v -0.06259812 -0.00502309 0.04897342
v -0.06315660 -0.00000178 0.04888770
v -0.06155314 0.00501954 0.04925054
v -0.06036421 0.00501954 0.04948922
v -0.05925877 0.00501954 0.04963702
v -0.05591366 -0.00291224 0.04992817
v -0.05591366 -0.00000178 0.04995477
v -0.05590214 -0.00585670 0.04986868
v -0.05814181 -0.01004083 0.04959859
v -0.05878665 -0.01470080 0.04924832
v -0.05924726 -0.01838941 0.04892908
v -0.06195328 -0.01993856 0.04808518
v -0.00687119 -0.03018870 0.04498595
v -0.06316812 -0.02039651 0.04692057
v -0.00464303 -0.03071820 0.04310602
v -0.06316812 -0.02052888 0.04644615
v -0.06316812 -0.02024624 0.03552865
v -0.06260388 -0.00000178 0.04905914
v -0.06178056 -0.00557943 0.04917738
v -0.06199934 -0.00000178 0.04922319
v -0.06316812 -0.00948450 0.04858177
v -0.06259812 -0.01004083 0.04873252
v -0.06144087 -0.00000178 0.04935030
v -0.05925877 0.00055456 0.04973603
v -0.05814181 0.00111268 0.04984245
v -0.05701910 -0.00000178 0.04992817
v -0.05703637 -0.00438984 0.04985649
v -0.05924726 -0.01059716 0.04944488
v -0.05985755 -0.01238960 0.04924240
v -0.06036421 -0.01838941 0.04872365
v -0.06216631 -0.01919798 0.04816056
v -0.06316812 -0.01951997 0.04772604
v -0.06316812 -0.02058255 0.04588454
v -0.06316812 -0.02059149 0.04505098
v -0.06316812 -0.02060402 0.04199313
v -0.06316812 -0.02060402 0.03808548
v -0.00434940 -0.03071820 0.04088025
v -0.00434940 -0.03059656 0.03976441
v -0.00646816 -0.03011714 0.03917471
v -0.06316812 -0.02034284 0.03580502
v -0.06121920 -0.00487283 0.04932739
v -0.06147541 -0.01059716 0.04901332
v -0.06053694 -0.00976266 0.04926753
v -0.06036421 -0.00000178 0.04956608
v -0.05814181 -0.00167436 0.04983358
v -0.05925877 -0.00390327 0.04966657
v -0.06147541 -0.01838941 0.04844580
v -0.06316812 -0.01838941 0.04791375
v -0.06316812 -0.02057539 0.03697259
v -0.06036421 -0.00502309 0.04948626
f 130 133 138
f 130 138 141
f 130 141 146
f 130 146 172
f 130 172 176
f 130 176 193
f 130 193 177
f 130 177 150
f 130 150 143
f 130 143 140
f 130 140 135
f 130 135 131
f 130 131 132
f 130 132 134
f 130 134 133
f 131 135 136
f 131 136 132
f 132 136 139
f 132 139 145
f 132 145 156
f 132 156 171
f 132 171 190
f 132 190 206
f 132 206 245
f 132 245 246
f 132 246 207
f 132 207 173
f 132 173 157
f 132 157 147
f 132 147 142
f 132 142 137
f 132 137 134
f 133 134 137
f 133 137 138
f 135 139 136
f 135 140 139
f 138 137 142
f 138 142 141
f 139 140 143
f 139 143 144
f 139 144 145
f 141 142 147
f 141 147 148
f 141 148 149
f 141 149 146
f 143 150 144
f 144 150 151
f 144 151 152
f 144 152 145
f 145 152 153
f 145 153 154
f 145 154 155
f 145 155 156
f 147 157 158
f 147 158 148
f 148 158 174
f 148 174 191
f 148 191 208
f 148 208 225
f 148 225 248
f 148 248 257
f 148 257 244
f 148 244 243
f 148 243 242
f 148 242 241
f 148 241 224
f 148 224 222
f 148 222 203
f 148 203 240
f 148 240 256
f 148 256 229
f 148 229 192
f 148 192 149
f 149 159 146
f 150 160 151
f 151 160 161
f 151 161 152
f 152 161 162
f 152 162 153
f 153 163 164
f 153 164 165
f 153 165 166
f 153 166 154
f 154 166 155
f 155 167 156
f 155 166 168
f 155 168 169
f 155 169 170
f 155 170 167
f 146 159 172
f 157 173 174
f 157 174 158
f 159 149 192
f 159 192 175
f 159 175 176
f 159 176 172
f 150 177 178
f 150 178 160
f 160 179 162
f 160 162 161
f 162 179 180
f 162 180 181
f 162 181 182
f 162 182 183
f 162 163 153
f 162 164 163
f 165 164 168
f 165 168 166
f 167 185 156
f 167 170 185
f 156 185 171
f 168 164 184
f 168 184 186
f 168 186 169
f 169 186 187
f 169 187 170
f 170 187 188
f 170 188 171
f 170 171 185
f 171 188 189
f 171 189 190
f 173 191 174
f 175 177 193
f 175 193 176
f 177 194 178
f 178 195 160
f 160 195 179
f 180 196 181
f 183 182 197
f 183 197 184
f 183 184 164
f 162 183 164
f 186 184 198
f 186 199 200
f 186 200 187
f 187 200 201
f 187 201 188
f 188 202 203
f 188 203 204
f 188 204 189
f 188 201 202
f 189 204 190
f 190 204 205
f 190 205 206
f 173 207 191
f 191 207 208
f 192 210 175
f 175 211 177
f 177 211 212
f 177 212 213
f 177 213 194
f 178 194 195
f 180 214 196
f 180 179 215
f 180 215 214
f 181 196 216
f 196 214 216
f 182 181 198
f 182 198 197
f 197 198 184
f 198 199 186
f 199 217 200
f 200 218 219
f 200 219 201
f 202 201 220
f 202 220 203
f 203 205 204
f 205 221 206
f 205 203 222
f 205 222 221
f 206 221 224
f 208 207 225
f 209 226 210
f 209 210 192
f 209 227 228
f 209 228 226
f 210 226 175
f 192 229 230
f 192 230 209
f 209 230 227
f 211 228 231
f 211 175 226
f 211 226 228
f 212 232 213
f 213 232 233
f 213 233 194
f 195 194 234
f 194 233 234
f 179 195 215
f 216 198 181
f 214 234 216
f 216 234 235
f 216 235 199
f 198 216 199
f 217 236 218
f 217 218 200
f 219 218 237
f 219 237 238
f 219 238 201
f 201 238 239
f 201 239 220
f 220 239 240
f 220 240 203
f 221 222 224
f 206 224 241
f 206 241 242
f 206 242 243
f 206 243 244
f 206 244 223
f 223 245 206
f 223 244 245
f 207 246 247
f 207 247 225
f 225 247 248
f 227 249 228
f 228 249 231
f 230 250 227
f 227 250 251
f 227 251 249
f 231 252 211
f 211 252 212
f 234 215 195
f 215 234 214
f 234 253 235
f 235 253 217
f 235 217 199
f 217 253 254
f 217 254 236
f 236 251 237
f 236 237 218
f 237 251 238
f 238 250 255
f 238 255 239
f 239 255 256
f 239 256 240
f 244 257 245
f 245 257 246
f 246 257 248
f 246 248 247
f 249 258 252
f 249 252 231
f 251 258 249
f 252 232 212
f 233 232 253
f 233 253 234
f 253 232 254
f 254 258 236
f 236 258 251
f 251 250 238
f 250 230 255
f 255 230 256
f 258 254 232
f 258 232 252
f 229 256 230

o geometry_2
v -0.00046204 0.03106531 0.04421744
v 0.00065380 0.03073595 0.04533313
v -0.00241476 0.03098108 0.04087920
v -0.00464644 0.03073519 0.04421744
v -0.00269372 0.03064260 0.04533313
v -0.00018308 0.03026466 0.04610587
v 0.00371314 0.03086572 0.04421744
v 0.00399441 0.03078300 0.04087920
v -0.00353060 0.03073519 0.03976498
v 0.00371314 0.03070787 0.03976498
v -0.00353060 0.03087179 0.04087920
v -0.00430062 0.03012806 0.04593071
v -0.00027068 0.02898363 0.04700593
v 0.00427106 0.03031931 0.03904965
v -0.00325164 0.03034815 0.03905038
v -0.00648158 0.03012807 0.03917181
v -0.06316812 0.02046263 0.03641055
v -0.06316812 0.02059012 0.03753360
v -0.00575306 0.03031627 0.04519330
v 0.00727738 0.02791206 0.04701844
v 0.00507682 0.02974633 0.04611065
v 0.00539613 0.03035573 0.04521979
v -0.06316812 0.01950337 0.03500785
v -0.06316812 0.02025317 0.03552448
v -0.06316812 0.02059923 0.04533019
v -0.06316812 0.02053548 0.04644440
v -0.06316812 0.02027138 0.04729957
v -0.06078888 0.02017272 0.04823201
v -0.05924884 0.02028352 0.04837994
v -0.00575306 0.02879239 0.04695662
v -0.05703561 0.01950337 0.04898488
v -0.02134716 0.01950337 0.04908203
v 0.00727738 0.03014931 0.04487537
v 0.00621687 0.03015235 0.03914826
v -0.06316812 0.01838929 0.03485771
v 0.00985948 0.02842811 0.03891423
v 0.01057879 0.02905345 0.03913649
v -0.06316812 0.01952765 0.04772494
v -0.05758430 0.01838929 0.04911882
v -0.05478548 0.01846518 0.04920125
v -0.02357884 0.01870500 0.04921302
v -0.02316386 0.01766074 0.04928882
v 0.01496837 0.02457894 0.04701844
v 0.01056034 0.02681316 0.04702138
v 0.00989752 0.02858748 0.04604828
v 0.01063412 0.02921282 0.04421891
v 0.01070789 0.02909292 0.04496516
v 0.01071712 0.02911720 0.03976204
v 0.01431363 0.02619693 0.03890393
v 0.01821907 0.02340870 0.03889363
v 0.02323113 0.01839233 0.03888921
v 0.02546281 0.01505010 0.03888627
v 0.02825241 0.00892269 0.03888700
v 0.02991695 0.00167513 0.03889068
v 0.01612571 0.02626978 0.03914237
v -0.06036468 0.01838929 0.04872141
v -0.05534340 0.01115387 0.04966379
v 0.01377876 0.02692092 0.04606466
v 0.01410613 0.02749010 0.04505347
v -0.06316812 0.00836869 0.03488568
v 0.02828469 0.01233322 0.03917328
v 0.03056709 0.00431309 0.03911956
v 0.03061780 0.00095872 0.03909969
v 0.02876422 0.00006928 0.03903198
v 0.02657865 0.00006928 0.03889878
v -0.06316812 0.01003221 0.04854920
v -0.06148052 0.00948276 0.04907761
v -0.05924884 0.00948276 0.04950151
v -0.04029800 0.01505010 0.04947649
v 0.02158042 0.01897517 0.04701108
v 0.01967150 0.02153344 0.04683224
v 0.01757123 0.02415091 0.04635572
v 0.01483005 0.02729127 0.04421891
v 0.01589056 0.02670691 0.04087773
v 0.02154353 0.02227793 0.03925718
v 0.02605300 0.01676827 0.03917034
v 0.02942819 0.00920045 0.03914237
v 0.03099590 0.00167513 0.04031989
v 0.03075613 0.00080390 0.04031989
v -0.06316812 0.00724854 0.03519036
v -0.05590132 0.00502039 0.04989303
v -0.04141384 0.01059684 0.04972377
v -0.02470390 0.01616418 0.04940289
v 0.02715040 0.00898492 0.04700961
v 0.02379366 0.01561169 0.04700666
v 0.02546281 0.01505010 0.04657246
v 0.01726461 0.02575372 0.04495191
v 0.02163575 0.02126707 0.04596898
v 0.01726922 0.02576890 0.04031989
v 0.03066853 0.00462348 0.04016533
v -0.06316812 0.00662320 0.03567755
v -0.06036468 0.00502646 0.04948827
v -0.04141384 0.00502039 0.04986065
v 0.02825702 0.00431309 0.04700813
v 0.02875500 0.00555162 0.04673068
v 0.02811177 0.00916402 0.04653676
v 0.01733838 0.02580837 0.04421891
v 0.02044613 0.02341629 0.04478559
v 0.02159886 0.02232954 0.03999901
v 0.02609911 0.01683202 0.03976204
v 0.03089446 0.00167513 0.04472377
v 0.03072386 0.00083729 0.04465900
v 0.03082991 0.00390631 0.04421891
v 0.02896710 0.00006928 0.04478338
v 0.01877699 0.00006928 0.03938965
v -0.06316812 0.00502646 0.04879501
v 0.01877699 0.00006928 0.04561132
v 0.02762071 0.00006928 0.04570257
v 0.02881033 0.00074016 0.04636639
v 0.02881033 0.00167513 0.04684917
v 0.02965873 0.00502039 0.04622068
v 0.02707201 0.01226795 0.04645912
v 0.02442074 0.01794457 0.04596898
v 0.02215678 0.02177250 0.04482680
v 0.02794809 0.01355050 0.04421891
v 0.02937286 0.01007774 0.04016386
v 0.03006450 0.00780558 0.04421891
v 0.03050714 0.00572162 0.04482974
v 0.01753665 0.00006928 0.04036698
v -0.06316812 0.00502646 0.04021096
v 0.02969562 0.00087372 0.04619271
v 0.02984317 0.00167513 0.04633548
v 0.02936364 0.00779799 0.04588803
v 0.02718729 0.01348068 0.04595426
v 0.02608989 0.01682291 0.04488715
v 0.02496944 0.01849402 0.04421891
v 0.01751821 0.00006928 0.04470611
v 0.02938208 0.01008685 0.04480914
v 0.02780054 0.01360514 0.04494970
f 259 261 262
f 259 262 263
f 259 263 260
f 260 263 264
f 259 260 265
f 259 265 266
f 261 268 267
f 259 266 261
f 261 267 269
f 261 269 262
f 263 270 264
f 267 268 272
f 261 266 268
f 267 272 273
f 267 273 274
f 267 274 275
f 269 267 275
f 269 275 276
f 269 276 262
f 262 277 263
f 263 277 270
f 264 271 279
f 264 279 260
f 260 279 280
f 260 280 265
f 272 281 273
f 273 281 282
f 273 282 274
f 274 282 275
f 275 282 281
f 275 281 293
f 275 293 318
f 275 318 338
f 275 338 349
f 275 349 378
f 275 378 364
f 275 364 324
f 275 324 296
f 275 296 285
f 275 285 284
f 275 284 283
f 275 283 276
f 262 276 283
f 262 283 284
f 262 284 277
f 270 277 286
f 270 286 287
f 264 270 288
f 264 288 271
f 271 288 289
f 271 289 290
f 271 290 278
f 271 278 279
f 265 280 291
f 268 292 272
f 281 272 294
f 281 294 293
f 272 292 295
f 284 285 277
f 277 285 286
f 285 296 286
f 286 289 287
f 287 288 270
f 288 287 289
f 289 297 298
f 289 298 290
f 290 298 299
f 290 299 300
f 290 300 301
f 290 301 302
f 290 302 278
f 278 302 303
f 278 303 279
f 291 305 304
f 265 291 266
f 266 291 306
f 266 306 292
f 266 292 268
f 272 295 294
f 293 294 307
f 293 307 308
f 293 308 309
f 293 309 310
f 293 310 311
f 293 311 312
f 294 295 313
f 294 313 307
f 286 296 314
f 286 314 297
f 286 297 289
f 279 303 280
f 302 316 303
f 280 303 291
f 291 303 305
f 304 306 291
f 305 317 304
f 292 306 295
f 295 306 313
f 293 312 318
f 307 313 308
f 311 310 319
f 311 320 312
f 312 321 322
f 312 322 323
f 312 323 318
f 314 296 324
f 314 326 297
f 297 326 315
f 315 298 297
f 315 327 298
f 298 327 299
f 299 327 300
f 300 328 301
f 301 328 329
f 301 330 316
f 301 316 302
f 301 329 330
f 316 305 303
f 317 331 304
f 306 332 313
f 308 313 309
f 309 313 333
f 309 333 334
f 310 334 319
f 310 309 334
f 311 335 320
f 311 319 335
f 312 320 321
f 321 320 336
f 321 336 337
f 321 337 322
f 322 362 366
f 322 366 365
f 322 365 385
f 322 385 377
f 322 377 363
f 322 363 323
f 318 323 338
f 314 324 325
f 315 326 339
f 315 340 327
f 327 340 341
f 327 341 300
f 300 341 342
f 300 342 343
f 300 343 328
f 328 343 344
f 330 345 316
f 330 329 346
f 305 316 317
f 304 331 306
f 317 316 345
f 317 345 331
f 331 332 306
f 332 347 313
f 320 348 336
f 338 323 349
f 313 347 333
f 314 325 326
f 326 325 350
f 339 326 350
f 339 340 315
f 341 340 351
f 341 351 352
f 341 352 342
f 342 352 353
f 342 353 354
f 342 354 343
f 330 346 345
f 345 355 331
f 345 356 355
f 331 355 332
f 332 355 347
f 347 357 333
f 334 333 358
f 334 358 319
f 320 335 348
f 336 359 360
f 336 360 337
f 336 361 359
f 337 360 362
f 337 362 322
f 323 363 349
f 324 364 325
f 339 365 366
f 339 366 367
f 350 365 339
f 351 340 339
f 351 339 367
f 351 367 368
f 351 368 352
f 352 368 353
f 354 370 343
f 343 370 344
f 344 371 328
f 328 371 346
f 328 346 329
f 346 356 345
f 356 346 372
f 347 355 356
f 347 356 357
f 333 357 358
f 358 373 319
f 319 373 374
f 319 374 335
f 335 374 348
f 348 361 336
f 359 361 376
f 363 377 378
f 363 378 349
f 325 364 350
f 365 350 364
f 366 362 367
f 367 362 379
f 367 379 368
f 368 379 380
f 368 380 353
f 353 380 369
f 353 369 354
f 354 369 381
f 354 382 370
f 354 381 382
f 371 344 382
f 371 382 383
f 344 370 382
f 356 372 357
f 357 384 358
f 358 383 373
f 374 375 348
f 348 375 361
f 376 369 359
f 359 369 380
f 359 380 360
f 360 380 379
f 378 377 385
f 378 385 364
f 365 364 385
f 362 360 379
f 382 381 386
f 381 369 376
f 371 383 372
f 371 372 346
f 372 383 384
f 372 384 357
f 383 358 384
f 383 387 373
f 373 386 374
f 361 375 376
f 376 375 386
f 376 386 381
f 382 386 387
f 382 387 383
f 387 386 373
f 374 386 375

o geometry_3
v 0.02912685 0.00006348 0.04421940
v 0.02907142 0.00006348 0.03976179
v 0.03078291 -0.00078069 0.04421940
v 0.03075866 -0.00080354 0.04031929
v 0.02881504 0.00006348 0.04534876
v 0.03068244 -0.00089345 0.04510151
v 0.03104622 -0.00167666 0.04421940
v 0.03099598 -0.00167666 0.04031929
v 0.02880811 -0.00078983 0.04633695
v 0.02968118 -0.00090564 0.04616786
v 0.03076212 -0.00167666 0.04523710
v 0.03039488 -0.00167666 0.04579460
v 0.03077945 -0.00390441 0.03976179
v 0.03061661 -0.00096049 0.03909821
v 0.02877000 0.00006348 0.03903201
v 0.02762670 0.00006348 0.04570368
v 0.01877822 0.00006348 0.04561196
v 0.02880811 -0.00167666 0.04682107
v 0.02983708 -0.00167666 0.04631701
v 0.03051268 -0.00574817 0.04483194
v 0.02959457 -0.00557598 0.04616347
v 0.03056984 -0.00431278 0.03911934
v 0.02992370 -0.00167666 0.03889004
v -0.00434770 -0.01723432 0.04517808
v -0.00434770 -0.01839543 0.04561355
v -0.00434770 -0.02845534 0.04697580
v 0.02824686 -0.00428230 0.04701009
v 0.02880811 -0.00613216 0.04664002
v 0.03026496 -0.00695270 0.04421940
v 0.02940575 -0.00738622 0.04593777
v 0.02939016 -0.01010614 0.04482316
v 0.03049189 -0.00561408 0.04021800
v 0.02942827 -0.00919798 0.03914287
v 0.02880811 -0.00836295 0.03892115
v 0.02657867 -0.01282149 0.03888765
v 0.02546481 0.00006348 0.03888685
v 0.01773885 0.00006348 0.04519403
v -0.00434770 -0.01676500 0.04421940
v -0.00434770 -0.02961340 0.04640314
v -0.00020582 -0.02898866 0.04700890
v 0.00874573 -0.02738566 0.04702704
v 0.02715205 -0.00899379 0.04701089
v 0.02836119 -0.01250150 0.04495795
v 0.02827804 -0.01288702 0.04421940
v 0.02854827 -0.00947835 0.04621492
v 0.02937977 -0.01007567 0.04017253
v 0.02828150 -0.01233084 0.03917238
v 0.01730232 0.00006348 0.04421940
v -0.00434770 -0.03043624 0.04540538
v -0.00128849 -0.03025948 0.04609767
v 0.02159837 -0.01898665 0.04701328
v 0.02629891 -0.01282378 0.04673613
v 0.02734261 -0.01282454 0.04611283
v 0.02609190 -0.01682595 0.04488776
v 0.02833000 -0.01242531 0.03976179
v 0.02546481 -0.01616159 0.03894109
v 0.01877822 -0.02285093 0.03888845
v 0.00428598 -0.02954026 0.03889244
v 0.01877822 0.00006348 0.03939012
v -0.00434770 -0.02508172 0.03889004
v -0.00434770 -0.01839543 0.03938932
v -0.00434770 -0.01677110 0.04084329
v 0.01732311 0.00006348 0.04087679
v -0.00184456 -0.03071051 0.04533440
v 0.00066378 -0.03072956 0.04533440
v 0.00261433 -0.02954026 0.04656625
v 0.01497760 -0.02458497 0.04702047
v 0.01861192 -0.02214085 0.04697022
v 0.02490702 -0.01560541 0.04667990
v 0.02506293 -0.01694785 0.04605221
v 0.02701347 -0.01537837 0.04421940
v 0.02605726 -0.01677110 0.03916999
v 0.02121727 -0.02193438 0.03905673
v 0.01775618 0.00006348 0.03985590
v -0.00434770 -0.01723432 0.03987345
v -0.00434770 -0.03029605 0.03905673
v -0.00434770 -0.03078061 0.04421940
v -0.00295841 -0.03095279 0.04421940
v -0.00073070 -0.03106708 0.04421940
v 0.00357055 -0.03015739 0.04596927
v 0.00651715 -0.02853762 0.04684500
v 0.01095871 -0.02723937 0.04676923
v 0.02152821 -0.02002891 0.04665617
v 0.02697883 -0.01529304 0.04087679
v 0.02519112 -0.01821258 0.04421940
v 0.02612308 -0.01686862 0.04087679
v 0.00986045 -0.02842486 0.03891796
v -0.00240062 -0.03097869 0.04087599
v 0.00317039 -0.03089946 0.04087599
v 0.00372818 -0.03085527 0.04421940
v 0.00651715 -0.02934522 0.04628750
v 0.01041824 -0.02822068 0.04624722
v 0.01320721 -0.02706871 0.04621093
v 0.01739240 -0.02473125 0.04609847
v 0.01936026 -0.02342996 0.04591503
v 0.02165034 -0.02126316 0.04597246
v 0.02378451 -0.01894094 0.04588393
v 0.02270703 -0.02121135 0.04482236
v 0.02154640 -0.02227799 0.03925852
v 0.01508154 -0.02684624 0.03912453
v 0.00400708 -0.03031510 0.03905733
v -0.00240062 -0.03081413 0.03976179
v 0.00372818 -0.03070594 0.03976179
v 0.00428598 -0.03047281 0.04527977
v 0.00595936 -0.02996235 0.04569371
v 0.00929573 -0.02897952 0.04588951
v 0.01212107 -0.02788088 0.04590706
v 0.01520280 -0.02693157 0.04506004
v 0.02045853 -0.02341777 0.04478887
v 0.02267585 -0.02117478 0.04035837
v 0.01717067 -0.02568818 0.03916122
v 0.02160530 -0.02232980 0.04000185
v 0.01058108 -0.02905265 0.03913809
v -0.00434770 -0.03060080 0.03976179
v 0.00622613 -0.03015586 0.03914686
v 0.00684629 -0.03015586 0.03998232
v 0.00651715 -0.03038748 0.04421940
v 0.00728628 -0.03015281 0.04488457
v 0.01069541 -0.02909228 0.04496592
v 0.01730925 -0.02579484 0.04087679
v 0.01588185 -0.02669996 0.04087679
v 0.01525130 -0.02692853 0.03976179
v 0.01057372 -0.02922522 0.04421940
v 0.01922168 -0.02443260 0.04421940
v 0.01726767 -0.02574608 0.04494678
v 0.01317257 -0.02813230 0.04421940
v 0.01592343 -0.02671520 0.04421940
v 0.01107478 -0.02902371 0.04087599
v 0.00986045 -0.02946712 0.04087599
f 388 389 402
f 388 402 423
f 388 423 446
f 388 446 461
f 388 461 450
f 388 450 435
f 388 435 424
f 388 424 404
f 388 404 403
f 388 403 392
f 388 390 391
f 388 391 389
f 388 392 390
f 390 393 394
f 390 392 393
f 390 394 391
f 391 394 395
f 392 396 397
f 392 397 393
f 393 398 394
f 393 397 399
f 393 399 398
f 391 395 401
f 391 401 402
f 391 402 389
f 396 392 403
f 396 403 404
f 396 404 405
f 396 405 397
f 397 406 399
f 397 405 406
f 394 398 407
f 394 407 400
f 394 400 395
f 398 399 408
f 400 409 395
f 395 409 401
f 401 410 402
f 404 411 412
f 404 412 413
f 404 413 405
f 405 413 414
f 399 406 408
f 406 405 415
f 398 408 407
f 407 417 418
f 407 418 416
f 400 419 409
f 409 410 401
f 410 421 422
f 410 423 402
f 404 424 411
f 411 425 449
f 411 449 462
f 411 462 448
f 411 448 447
f 411 447 463
f 411 463 501
f 411 501 464
f 411 464 436
f 411 436 426
f 411 426 413
f 411 413 412
f 411 424 425
f 413 426 427
f 413 427 414
f 414 427 428
f 406 415 408
f 405 414 415
f 415 414 429
f 408 417 407
f 418 430 431
f 407 416 400
f 400 416 419
f 408 415 432
f 408 432 417
f 419 433 420
f 419 420 409
f 420 434 421
f 420 421 409
f 409 421 410
f 422 423 410
f 425 424 435
f 426 436 437
f 426 437 427
f 414 428 429
f 415 429 432
f 429 438 439
f 429 428 438
f 429 439 432
f 416 433 419
f 417 432 418
f 418 432 430
f 430 440 441
f 430 441 431
f 431 433 418
f 420 433 442
f 420 442 434
f 421 434 422
f 422 434 443
f 422 444 445
f 422 445 423
f 423 445 447
f 423 447 448
f 423 448 446
f 425 435 449
f 435 450 449
f 436 451 437
f 437 451 452
f 427 437 453
f 428 454 438
f 438 454 455
f 438 456 439
f 432 439 440
f 439 456 440
f 416 418 433
f 432 440 430
f 440 457 441
f 441 458 431
f 434 459 443
f 422 443 444
f 444 443 460
f 446 448 462
f 446 462 461
f 447 445 463
f 450 461 449
f 436 464 465
f 436 465 451
f 451 465 466
f 451 466 452
f 437 467 453
f 437 452 467
f 427 453 468
f 427 468 428
f 428 468 469
f 428 469 454
f 455 470 438
f 438 470 456
f 456 470 457
f 456 457 440
f 431 471 442
f 431 458 471
f 431 442 433
f 441 472 458
f 442 471 459
f 442 459 434
f 443 459 460
f 444 474 445
f 461 462 449
f 466 465 475
f 466 476 477
f 466 477 452
f 466 475 476
f 453 467 478
f 453 478 468
f 468 478 479
f 468 479 469
f 469 479 480
f 469 480 454
f 455 454 481
f 455 481 470
f 470 481 482
f 470 482 483
f 454 480 481
f 470 483 457
f 471 458 473
f 471 473 459
f 441 457 484
f 441 484 485
f 441 485 472
f 472 473 458
f 459 486 460
f 474 444 487
f 445 488 463
f 463 488 489
f 476 475 490
f 452 477 491
f 452 491 467
f 478 467 492
f 478 493 479
f 478 492 493
f 479 494 480
f 479 493 494
f 483 484 457
f 480 495 481
f 473 472 497
f 473 497 459
f 459 497 486
f 486 498 460
f 486 497 499
f 486 499 498
f 460 498 444
f 444 498 487
f 474 500 445
f 474 487 500
f 488 490 489
f 464 475 465
f 475 464 501
f 475 501 489
f 475 489 490
f 489 501 463
f 490 488 502
f 476 490 503
f 476 503 504
f 476 504 477
f 467 491 492
f 492 491 505
f 492 505 493
f 494 493 506
f 480 494 495
f 482 481 496
f 482 496 483
f 483 496 485
f 484 483 485
f 472 485 497
f 499 507 498
f 498 507 508
f 498 508 509
f 498 509 487
f 487 509 500
f 500 502 488
f 500 488 445
f 477 505 491
f 502 503 490
f 477 504 505
f 505 504 510
f 505 510 506
f 505 506 493
f 494 506 495
f 496 512 511
f 481 512 496
f 481 495 512
f 495 510 513
f 495 506 510
f 495 513 514
f 495 514 512
f 485 499 497
f 485 496 499
f 499 496 511
f 499 511 507
f 509 508 515
f 503 502 500
f 504 503 516
f 503 500 516
f 504 516 510
f 510 516 515
f 511 512 514
f 511 514 507
f 510 515 513
f 513 515 508
f 513 508 514
f 507 514 508
f 509 515 500
f 500 515 516

