# https://github.com/mikedh/trimesh
v 0.00255800 0.17144699 -0.13766800
v 0.00280400 0.17128800 -0.13764000
v 0.00279500 0.17181000 -0.13766500
v 0.00304300 0.17165101 -0.13764501
v 0.00328800 0.17149401 -0.13761701
v 0.00303100 0.17217200 -0.13765000
v 0.00328000 0.17201400 -0.13763800
v 0.00352600 0.17185700 -0.13761701
v 0.00377100 0.17169900 -0.13758799
v 0.00351500 0.17237701 -0.13761900
v 0.00376200 0.17222001 -0.13760500
v 0.00400800 0.17206199 -0.13758200
v 0.00425400 0.17190300 -0.13755099
v 0.00399600 0.17258200 -0.13758300
v 0.00424300 0.17242500 -0.13756700
v 0.00449100 0.17226601 -0.13754199
v 0.00474700 0.17209999 -0.13750599
v 0.00448000 0.17279200 -0.13754199
v 0.00472900 0.17263401 -0.13752300
v 0.00498600 0.17246801 -0.13749300
v 0.00522400 0.17231300 -0.13745600
v 0.00496900 0.17300600 -0.13749500
v 0.00522700 0.17284100 -0.13747101
v 0.00546600 0.17268600 -0.13743900
v 0.00571300 0.17252401 -0.13739599
v 0.00520700 0.17337801 -0.13745999
v 0.00546600 0.17321301 -0.13744199
v 0.00570600 0.17305900 -0.13741501
v 0.00595400 0.17289700 -0.13737600
v 0.00570400 0.17358500 -0.13740499
v 0.00594500 0.17343099 -0.13738300
v 0.00619400 0.17326900 -0.13734899
v 0.00644000 0.17310700 -0.13730399
v 0.00594100 0.17395701 -0.13736300
v 0.00618300 0.17380300 -0.13734500
v 0.00643200 0.17364199 -0.13731501
v 0.00668000 0.17348000 -0.13727500
v 0.00641900 0.17417400 -0.13730100
v 0.00666900 0.17401300 -0.13727500
v 0.00691800 0.17385200 -0.13723800
v 0.00665400 0.17454600 -0.13725300
v 0.00690500 0.17438500 -0.13722999
v 0.00715400 0.17422301 -0.13719600
v 0.00740000 0.17406100 -0.13715000
v 0.00688900 0.17491700 -0.13720100
v 0.00714000 0.17475601 -0.13718100
v 0.00739000 0.17459500 -0.13714901
v 0.00763600 0.17443299 -0.13710500
v 0.00712300 0.17528699 -0.13714600
v 0.00737500 0.17512700 -0.13712700
v 0.00762400 0.17496599 -0.13709700
v 0.00787100 0.17480400 -0.13705499
v 0.00760800 0.17549799 -0.13707000
v 0.00785800 0.17533600 -0.13704100
v 0.00810500 0.17517400 -0.13699999
v 0.00784100 0.17586800 -0.13700899
v 0.00809000 0.17570700 -0.13698000
v 0.00833800 0.17554501 -0.13694000
v 0.00807200 0.17623800 -0.13694499
v 0.00832200 0.17607699 -0.13691500
v 0.00856900 0.17591500 -0.13687500
v 0.00830400 0.17660999 -0.13687600
v 0.00855400 0.17644800 -0.13684601
v 0.00880100 0.17628600 -0.13680400
v 0.00828400 0.17714199 -0.13682500
v 0.00853600 0.17698200 -0.13680400
v 0.00878500 0.17682000 -0.13677301
v 0.00903200 0.17665800 -0.13672900
v 0.00850600 0.17749800 -0.13675401
v 0.00875700 0.17733701 -0.13673100
v 0.00900600 0.17717600 -0.13669799
v 0.00925200 0.17701399 -0.13665199
v 0.00874500 0.17788400 -0.13667400
v 0.00899600 0.17772301 -0.13664800
v 0.00924400 0.17756100 -0.13661100
v 0.00948900 0.17739899 -0.13656300
v 0.00873200 0.17840800 -0.13661000
v 0.00897400 0.17825399 -0.13659200
v 0.00922400 0.17809300 -0.13656300
v 0.00947100 0.17793100 -0.13652299
v 0.00896000 0.17877799 -0.13652700
v 0.00920100 0.17862301 -0.13650499
v 0.00945000 0.17846200 -0.13647200
v 0.00969700 0.17829999 -0.13642800
v 0.00892800 0.17931201 -0.13645600
v 0.00918700 0.17914701 -0.13643800
v 0.00942800 0.17899300 -0.13641199
v 0.00967500 0.17883100 -0.13637400
v 0.00840500 0.18015200 -0.13638800
v 0.00915500 0.17968200 -0.13636599
v 0.00941300 0.17951600 -0.13634300
v 0.00965200 0.17936100 -0.13631199
v 0.00989900 0.17919900 -0.13626900
v 0.00863300 0.18052199 -0.13630199
v 0.00888200 0.18036599 -0.13629700
v 0.00913100 0.18020900 -0.13628700
v 0.00938000 0.18005000 -0.13626900
v 0.00963700 0.17988500 -0.13624001
v 0.00987500 0.17972900 -0.13620301
v 0.00860600 0.18104400 -0.13621600
v 0.00885700 0.18088700 -0.13621300
v 0.00910600 0.18073100 -0.13620400
v 0.00935300 0.18057400 -0.13618800
v 0.00960100 0.18041500 -0.13616399
v 0.00985700 0.18024901 -0.13612901
v 0.01009400 0.18009301 -0.13608600
v 0.00882900 0.18140800 -0.13612500
v 0.00907900 0.18125100 -0.13611700
v 0.00932700 0.18109401 -0.13610300
v 0.00957300 0.18093701 -0.13608100
v 0.00981900 0.18077700 -0.13605100
v 0.01007400 0.18061100 -0.13600799
v 0.01030900 0.18045500 -0.13595900
v 0.00904700 0.18176700 -0.13602801
v 0.00929700 0.18160900 -0.13601500
v 0.00954300 0.18145201 -0.13599500
v 0.00978700 0.18129399 -0.13596600
v 0.00902200 0.18227801 -0.13593400
v 0.00926400 0.18212500 -0.13592200
v 0.00951200 0.18196701 -0.13590200
v 0.01006200 0.17975400 -0.13614599
v 0.01003800 0.17954101 -0.13618299
v 0.01001000 0.17933400 -0.13621800
v 0.00997900 0.17913200 -0.13625300
v 0.00994500 0.17893501 -0.13628700
v 0.00990800 0.17874400 -0.13631999
v 0.00986900 0.17855901 -0.13635200
v 0.00982700 0.17838000 -0.13638200
v 0.00978300 0.17820600 -0.13641199
v 0.00973800 0.17803900 -0.13644101
v 0.00969200 0.17787801 -0.13646799
v 0.00959800 0.17757501 -0.13652000
v 0.00951200 0.17732599 -0.13656200
v 0.00947100 0.17721200 -0.13658100
v 0.00937100 0.17720599 -0.13660800
v 0.00939700 0.17701299 -0.13661399
v 0.00928300 0.17672899 -0.13666201
v 0.00920800 0.17655700 -0.13669100
v 0.00911900 0.17636500 -0.13672300
v 0.00901500 0.17615300 -0.13675800
v 0.00889400 0.17592300 -0.13679700
v 0.00875600 0.17567401 -0.13683800
v 0.00859800 0.17540801 -0.13688301
v 0.00851000 0.17526700 -0.13690600
v 0.00841800 0.17512700 -0.13693000
v 0.00825000 0.17488100 -0.13697100
v 0.00810800 0.17468500 -0.13700400
v 0.00797200 0.17450801 -0.13703300
v 0.00784400 0.17434800 -0.13706000
v 0.00772400 0.17420401 -0.13708401
v 0.00751400 0.17396700 -0.13712500
v 0.00734800 0.17379101 -0.13715500
v 0.00723100 0.17367400 -0.13717499
v 0.00706300 0.17351200 -0.13720401
v 0.00688600 0.17334799 -0.13723201
v 0.00670600 0.17318900 -0.13725901
v 0.00652200 0.17303400 -0.13728601
v 0.00633600 0.17288201 -0.13731200
v 0.00614600 0.17273501 -0.13733700
v 0.00595300 0.17259200 -0.13736100
v 0.00576500 0.17245901 -0.13738300
v 0.00558900 0.17233901 -0.13740300
v 0.00542100 0.17223001 -0.13742100
v 0.00526100 0.17213000 -0.13743800
v 0.00510200 0.17203601 -0.13745400
v 0.00494300 0.17194501 -0.13746899
v 0.00478200 0.17185700 -0.13748300
v 0.00462000 0.17177200 -0.13749699
v 0.00445700 0.17169000 -0.13751100
v 0.00429200 0.17161100 -0.13752399
v 0.00412700 0.17153600 -0.13753700
v 0.00396100 0.17146400 -0.13754900
v 0.00379400 0.17139500 -0.13756000
v 0.00362700 0.17132901 -0.13757101
v 0.00345900 0.17126700 -0.13758200
v 0.00329100 0.17120799 -0.13759200
v 0.00312200 0.17115200 -0.13760100
v 0.00295300 0.17109901 -0.13761000
v 0.00278300 0.17104900 -0.13761801
v 0.00261400 0.17100300 -0.13762601
v 0.00254100 0.17128600 -0.13765900
v 0.00246700 0.17156900 -0.13767900
v 0.00239300 0.17185099 -0.13768600
v 0.00231900 0.17213100 -0.13768101
v 0.00244500 0.17216501 -0.13767600
v 0.00259600 0.17220899 -0.13766800
v 0.00270800 0.17224500 -0.13766199
v 0.00293600 0.17232700 -0.13764900
v 0.00316600 0.17241500 -0.13763499
v 0.00339500 0.17251000 -0.13762000
v 0.00362600 0.17261200 -0.13760300
v 0.00384700 0.17271701 -0.13758600
v 0.00405000 0.17282000 -0.13756900
v 0.00423500 0.17291901 -0.13755301
v 0.00440000 0.17301200 -0.13753700
v 0.00466600 0.17317200 -0.13751100
v 0.00484400 0.17328499 -0.13749200
v 0.00498600 0.17337701 -0.13747600
v 0.00512600 0.17347300 -0.13745999
v 0.00526400 0.17357101 -0.13744400
v 0.00540000 0.17367201 -0.13742700
v 0.00553500 0.17377600 -0.13740900
v 0.00566800 0.17388199 -0.13739100
v 0.00579800 0.17399099 -0.13737300
v 0.00592700 0.17410199 -0.13735400
v 0.00605300 0.17421600 -0.13733500
v 0.00617700 0.17433199 -0.13731501
v 0.00629800 0.17445000 -0.13729601
v 0.00641800 0.17457099 -0.13727500
v 0.00653400 0.17469400 -0.13725500
v 0.00664900 0.17481799 -0.13723300
v 0.00676000 0.17494500 -0.13721199
v 0.00686900 0.17507400 -0.13719000
v 0.00700200 0.17523800 -0.13716300
v 0.00714200 0.17541900 -0.13713200
v 0.00728700 0.17561799 -0.13709900
v 0.00743600 0.17583500 -0.13706200
v 0.00758800 0.17607200 -0.13702200
v 0.00774000 0.17632701 -0.13697900
v 0.00789200 0.17660201 -0.13693200
v 0.00796600 0.17674699 -0.13690799
v 0.00804000 0.17689700 -0.13688301
v 0.00811300 0.17705201 -0.13685700
v 0.00818300 0.17721200 -0.13683000
v 0.00825200 0.17737600 -0.13680200
v 0.00831900 0.17754599 -0.13677301
v 0.00838400 0.17772000 -0.13674399
v 0.00844600 0.17789900 -0.13671300
v 0.00850500 0.17808200 -0.13668200
v 0.00856100 0.17826900 -0.13665099
v 0.00861400 0.17846000 -0.13661800
v 0.00866300 0.17865500 -0.13658500
v 0.00870800 0.17885400 -0.13655201
v 0.00874900 0.17905600 -0.13651800
v 0.00878500 0.17926200 -0.13648300
v 0.00881700 0.17947100 -0.13644700
v 0.00884400 0.17968400 -0.13641199
v 0.00886600 0.17989901 -0.13637500
v 0.00866700 0.17992000 -0.13639601
v 0.00846800 0.17994100 -0.13641500
v 0.00826900 0.17996100 -0.13643201
v 0.00806900 0.17998201 -0.13644600
v 0.00813700 0.18015300 -0.13641199
v 0.00820000 0.18032600 -0.13637900
v 0.00826000 0.18050000 -0.13634400
v 0.00831600 0.18067400 -0.13631000
v 0.00838300 0.18086199 -0.13627100
v 0.00845100 0.18105200 -0.13623101
v 0.00852000 0.18124400 -0.13619000
v 0.00858900 0.18143900 -0.13614801
v 0.00865900 0.18163501 -0.13610500
v 0.00873000 0.18183200 -0.13606000
v 0.00880200 0.18203200 -0.13601300
v 0.00887400 0.18223301 -0.13596500
v 0.00895200 0.18245099 -0.13591000
v 0.00902900 0.18266299 -0.13585500
v 0.00910300 0.18287000 -0.13579801
v 0.00917600 0.18307200 -0.13574000
v 0.00926200 0.18289900 -0.13575999
v 0.00934600 0.18272901 -0.13578001
v 0.00942900 0.18256199 -0.13579801
v 0.00951100 0.18239699 -0.13581400
v 0.00959100 0.18223400 -0.13583000
v 0.00967000 0.18207400 -0.13584299
v 0.00974800 0.18191600 -0.13585600
v 0.00982400 0.18176100 -0.13586700
v 0.00990000 0.18160801 -0.13587600
v 0.00997400 0.18145800 -0.13588500
v 0.01011700 0.18116400 -0.13589700
v 0.01025600 0.18088000 -0.13590400
v 0.01039000 0.18060599 -0.13590600
v 0.01051500 0.18037499 -0.13589799
v 0.01063600 0.18013600 -0.13588800
v 0.01075000 0.17989001 -0.13587700
v 0.01085900 0.17963600 -0.13586400
v 0.01066200 0.17966700 -0.13594399
v 0.01046400 0.17969701 -0.13601799
v 0.01026300 0.17972600 -0.13608500
v 0.00758800 0.17602800 -0.13702700
v 0.00782000 0.17639901 -0.13696299
v 0.00805200 0.17677000 -0.13689500
v 0.01057900 0.17976700 -0.13596401
v -0.00282800 0.17179000 -0.13766401
v -0.00369900 0.17179900 -0.13760000
v -0.00347900 0.17192100 -0.13762300
v -0.00325800 0.17204399 -0.13763900
v -0.00303800 0.17216399 -0.13765000
v -0.00457700 0.17180701 -0.13750599
v -0.00435500 0.17193200 -0.13754100
v -0.00413400 0.17205700 -0.13756999
v -0.00391300 0.17217900 -0.13759200
v -0.00369200 0.17230199 -0.13760900
v -0.00347000 0.17242301 -0.13762000
v -0.00523500 0.17193601 -0.13742299
v -0.00501500 0.17206199 -0.13746800
v -0.00479300 0.17218700 -0.13750400
v -0.00457000 0.17231300 -0.13753401
v -0.00434700 0.17243700 -0.13755600
v -0.00412500 0.17255899 -0.13757300
v -0.00390300 0.17268100 -0.13758400
v -0.00368000 0.17280300 -0.13759001
v -0.00567100 0.17219099 -0.13737600
v -0.00545100 0.17231700 -0.13742299
v -0.00522900 0.17244200 -0.13746201
v -0.00500600 0.17256799 -0.13749200
v -0.00478200 0.17269300 -0.13751601
v -0.00455800 0.17281599 -0.13753299
v -0.00433500 0.17293900 -0.13754401
v -0.00411200 0.17306000 -0.13755199
v -0.00588600 0.17257300 -0.13737100
v -0.00566500 0.17269801 -0.13741300
v -0.00544300 0.17282400 -0.13744600
v -0.00521800 0.17294900 -0.13747101
v -0.00499300 0.17307401 -0.13748901
v -0.00476800 0.17319700 -0.13750200
v -0.00454500 0.17331900 -0.13750900
v -0.00432100 0.17344099 -0.13751400
v -0.00610200 0.17295800 -0.13735600
v -0.00588000 0.17308401 -0.13739200
v -0.00565600 0.17320900 -0.13742000
v -0.00543100 0.17333400 -0.13744099
v -0.00520500 0.17345800 -0.13745500
v -0.00475600 0.17370400 -0.13746899
v -0.00453200 0.17382500 -0.13747101
v -0.00653800 0.17321800 -0.13729300
v -0.00631600 0.17334400 -0.13733201
v -0.00609300 0.17346901 -0.13736400
v -0.00586900 0.17359400 -0.13738699
v -0.00564300 0.17371900 -0.13740399
v -0.00675200 0.17360500 -0.13726500
v -0.00653000 0.17373000 -0.13730100
v -0.00630600 0.17385501 -0.13732800
v -0.00608100 0.17398000 -0.13734800
v -0.00718800 0.17386600 -0.13719000
v -0.00696600 0.17399199 -0.13722999
v -0.00674300 0.17411800 -0.13726200
v -0.00651800 0.17424300 -0.13728601
v -0.00629300 0.17436700 -0.13730200
v -0.00740100 0.17425300 -0.13715200
v -0.00717800 0.17437901 -0.13718900
v -0.00695500 0.17450500 -0.13721800
v -0.00673000 0.17463000 -0.13723899
v -0.00783500 0.17451400 -0.13706400
v -0.00761300 0.17464000 -0.13710800
v -0.00738900 0.17476600 -0.13714300
v -0.00716500 0.17489199 -0.13716900
v -0.00694000 0.17501600 -0.13718800
v -0.00804600 0.17490099 -0.13701700
v -0.00782300 0.17502700 -0.13705900
v -0.00760000 0.17515300 -0.13709199
v -0.00737500 0.17527799 -0.13711600
v -0.00825600 0.17528699 -0.13696501
v -0.00803300 0.17541400 -0.13700500
v -0.00780900 0.17554000 -0.13703699
v -0.00758500 0.17566501 -0.13706000
v -0.00846500 0.17567401 -0.13690700
v -0.00824200 0.17580099 -0.13694701
v -0.00801800 0.17592700 -0.13697800
v -0.00779400 0.17605200 -0.13699999
v -0.00867400 0.17606100 -0.13684499
v -0.00845100 0.17618699 -0.13688400
v -0.00822700 0.17631300 -0.13691400
v -0.00800200 0.17643800 -0.13693599
v -0.00888100 0.17644700 -0.13677700
v -0.00865800 0.17657401 -0.13681699
v -0.00843400 0.17670000 -0.13684700
v -0.00820900 0.17682400 -0.13686900
v -0.00908800 0.17683300 -0.13670500
v -0.00886500 0.17696001 -0.13674501
v -0.00864100 0.17708600 -0.13677700
v -0.00841600 0.17721100 -0.13679899
v -0.00929300 0.17721900 -0.13662700
v -0.00907000 0.17734601 -0.13666900
v -0.00884700 0.17747200 -0.13670200
v -0.00862200 0.17759700 -0.13672601
v -0.00949700 0.17760301 -0.13654500
v -0.00927400 0.17772999 -0.13658901
v -0.00905100 0.17785600 -0.13662300
v -0.00882700 0.17798100 -0.13664900
v -0.00860200 0.17810600 -0.13666700
v -0.00947400 0.17810801 -0.13650399
v -0.00925100 0.17823400 -0.13654099
v -0.00902800 0.17835900 -0.13657001
v -0.00880200 0.17848399 -0.13659000
v -0.00967200 0.17848501 -0.13641401
v -0.00945000 0.17861100 -0.13645400
v -0.00922700 0.17873600 -0.13648599
v -0.00900300 0.17886101 -0.13650900
v -0.00986900 0.17886201 -0.13631700
v -0.00964800 0.17898799 -0.13636100
v -0.00942600 0.17911400 -0.13639601
v -0.00920200 0.17923900 -0.13642301
v -0.00897600 0.17936400 -0.13644201
v -0.00984400 0.17936499 -0.13626100
v -0.00962300 0.17949100 -0.13630000
v -0.00940000 0.17961600 -0.13633101
v -0.00917500 0.17974100 -0.13635400
v -0.00894900 0.17986600 -0.13637000
v -0.00981900 0.17986800 -0.13619700
v -0.00959700 0.17999300 -0.13623300
v -0.00937300 0.18011799 -0.13626000
v -0.00914800 0.18024300 -0.13628000
v -0.01001300 0.18024400 -0.13608600
v -0.00979200 0.18037000 -0.13612600
v -0.00956900 0.18049499 -0.13615900
v -0.00934500 0.18062000 -0.13618401
v -0.00911900 0.18074501 -0.13620099
v -0.00998500 0.18074600 -0.13601100
v -0.00976400 0.18087199 -0.13604900
v -0.00954100 0.18099700 -0.13607900
v -0.00931600 0.18112200 -0.13610201
v -0.00909200 0.18124600 -0.13611799
v -0.00995600 0.18124799 -0.13592900
v -0.00973400 0.18137300 -0.13596500
v -0.00951100 0.18149801 -0.13599300
v -0.00928800 0.18162200 -0.13601500
v -0.00906600 0.18174499 -0.13603000
v -0.00992600 0.18174900 -0.13584000
v -0.00970400 0.18187501 -0.13587500
v -0.00948200 0.18199900 -0.13590200
v -0.00926100 0.18212201 -0.13592300
v -0.00903900 0.18224400 -0.13593800
v -0.00989400 0.18224999 -0.13574401
v -0.00967400 0.18237500 -0.13577799
v -0.00945400 0.18249799 -0.13580500
v -0.00923300 0.18262000 -0.13582601
v -0.00901200 0.18274200 -0.13584100
v -0.00964400 0.18287300 -0.13567400
v -0.00942500 0.18299600 -0.13570100
v -0.01010000 0.18062200 -0.13599899
v -0.01009500 0.18094900 -0.13594300
v -0.01007800 0.18127400 -0.13588800
v -0.01005200 0.18159901 -0.13583300
v -0.01001400 0.18192200 -0.13577899
v -0.00996500 0.18224300 -0.13572399
v -0.00990600 0.18256301 -0.13567001
v -0.00983600 0.18288200 -0.13561600
v -0.00975600 0.18319900 -0.13556300
v -0.00948900 0.18314201 -0.13565101
v -0.00921800 0.18308100 -0.13572800
v -0.00894400 0.18301800 -0.13579400
v -0.00866700 0.18295200 -0.13584900
v -0.00871700 0.18267301 -0.13589901
v -0.00876500 0.18237700 -0.13595100
v -0.00880800 0.18206801 -0.13600500
v -0.00884500 0.18174601 -0.13606100
v -0.00886500 0.18153600 -0.13609700
v -0.00888300 0.18128300 -0.13614000
v -0.00889600 0.18099099 -0.13619000
v -0.00890000 0.18066400 -0.13624600
v -0.00889600 0.18041600 -0.13628800
v -0.00888600 0.18016601 -0.13632999
v -0.00886800 0.17991500 -0.13637300
v -0.00884200 0.17966200 -0.13641500
v -0.00880900 0.17940900 -0.13645799
v -0.00876700 0.17915501 -0.13650100
v -0.00871900 0.17890000 -0.13654400
v -0.00866200 0.17864600 -0.13658699
v -0.00859700 0.17839301 -0.13663000
v -0.00852400 0.17814000 -0.13667300
v -0.00844300 0.17788801 -0.13671499
v -0.00835400 0.17763799 -0.13675800
v -0.00825700 0.17738900 -0.13680001
v -0.00815300 0.17714299 -0.13684100
v -0.00804000 0.17690000 -0.13688201
v -0.00792000 0.17666000 -0.13692300
v -0.00779200 0.17642200 -0.13696299
v -0.00765600 0.17618901 -0.13700300
v -0.00751300 0.17596000 -0.13704100
v -0.00736400 0.17573500 -0.13707900
v -0.00720700 0.17551400 -0.13711700
v -0.00704300 0.17529900 -0.13715300
v -0.00687400 0.17508900 -0.13718900
v -0.00669800 0.17488500 -0.13722301
v -0.00651600 0.17468600 -0.13725699
v -0.00632800 0.17449300 -0.13728900
v -0.00613600 0.17430700 -0.13732100
v -0.00593800 0.17412700 -0.13735101
v -0.00573600 0.17395400 -0.13738100
v -0.00552900 0.17378700 -0.13740900
v -0.00531900 0.17362800 -0.13743600
v -0.00510500 0.17347500 -0.13746201
v -0.00499000 0.17364100 -0.13745800
v -0.00487600 0.17380600 -0.13745300
v -0.00476100 0.17397100 -0.13744500
v -0.00464600 0.17413500 -0.13743500
v -0.00445100 0.17391101 -0.13746600
v -0.00425500 0.17368600 -0.13749599
v -0.00405900 0.17345899 -0.13752501
v -0.00386200 0.17323101 -0.13755301
v -0.00366300 0.17300101 -0.13757800
v -0.00346300 0.17276999 -0.13760300
v -0.00326100 0.17253500 -0.13762499
v -0.00305600 0.17229800 -0.13764501
v -0.00290100 0.17211799 -0.13765800
v -0.00275000 0.17194100 -0.13766800
v -0.00260300 0.17176799 -0.13767600
v -0.00245900 0.17160000 -0.13767999
v -0.00273600 0.17161500 -0.13766500
v -0.00300800 0.17163000 -0.13764800
v -0.00327400 0.17164500 -0.13762900
v -0.00353500 0.17165899 -0.13760699
v -0.00379100 0.17167100 -0.13758400
v -0.00404100 0.17168400 -0.13755900
v -0.00428600 0.17169499 -0.13753100
v -0.00452600 0.17170601 -0.13750200
v -0.00476100 0.17171600 -0.13747101
v -0.00499000 0.17172600 -0.13743700
v -0.00521300 0.17173500 -0.13740200
v -0.00543200 0.17174301 -0.13736400
v -0.00564500 0.17174999 -0.13732500
v -0.00585300 0.17175700 -0.13728400
v -0.00605500 0.17176300 -0.13723999
v -0.00625200 0.17176899 -0.13719501
v -0.00613900 0.17194299 -0.13725100
v -0.00602500 0.17211699 -0.13730000
v -0.00591000 0.17229100 -0.13734300
v -0.00579300 0.17246400 -0.13737901
v -0.00604000 0.17264000 -0.13734899
v -0.00628000 0.17282400 -0.13731800
v -0.00651500 0.17301400 -0.13728601
v -0.00674300 0.17321099 -0.13725300
v -0.00696400 0.17341501 -0.13721900
v -0.00717900 0.17362501 -0.13718300
v -0.00738800 0.17384100 -0.13714699
v -0.00758900 0.17406300 -0.13710900
v -0.00778400 0.17429100 -0.13707100
v -0.00797200 0.17452399 -0.13703100
v -0.00815200 0.17476299 -0.13699099
v -0.00832600 0.17500700 -0.13695000
v -0.00849200 0.17525500 -0.13690799
v -0.00865100 0.17550901 -0.13686500
v -0.00880200 0.17576700 -0.13682100
v -0.00894500 0.17602900 -0.13677700
v -0.00908100 0.17629500 -0.13673200
v -0.00920800 0.17656501 -0.13668600
v -0.00932800 0.17683800 -0.13664000
v -0.00943900 0.17711499 -0.13659300
v -0.00954300 0.17739500 -0.13654500
v -0.00963700 0.17767800 -0.13649701
v -0.00972400 0.17796300 -0.13644899
v -0.00980100 0.17825200 -0.13640000
v -0.00987000 0.17854200 -0.13635100
v -0.00993100 0.17883500 -0.13630100
v -0.00998200 0.17912900 -0.13625100
v -0.01002400 0.17942500 -0.13620099
v -0.01005700 0.17972299 -0.13615100
v -0.01008100 0.18002100 -0.13609999
v -0.01009500 0.18032099 -0.13605000
v -0.00588900 0.17206500 -0.13732100
v 0.00208400 0.19027300 -0.13439500
v 0.00164200 0.19029599 -0.13440900
v 0.00120100 0.19031601 -0.13441800
v 0.00075900 0.19033501 -0.13442200
v 0.00031800 0.19035099 -0.13442101
v -0.00012400 0.19036600 -0.13441500
v -0.00056600 0.19037800 -0.13440500
v -0.00100900 0.19038901 -0.13439000
v -0.00145300 0.19039799 -0.13437000
v 0.00295800 0.19000100 -0.13445500
v 0.00251700 0.19002800 -0.13447700
v 0.00207500 0.19005200 -0.13449501
v 0.00163400 0.19007400 -0.13450700
v 0.00119200 0.19009399 -0.13451400
v 0.00075100 0.19011199 -0.13451800
v 0.00030900 0.19012800 -0.13451700
v -0.00013200 0.19014300 -0.13451201
v -0.00057500 0.19015600 -0.13450199
v -0.00101800 0.19016699 -0.13448900
v -0.00146100 0.19017600 -0.13447000
v -0.00190300 0.19018300 -0.13444699
v -0.00234400 0.19018801 -0.13441800
v 0.00383300 0.18972100 -0.13449299
v 0.00339200 0.18975100 -0.13452600
v 0.00295000 0.18977900 -0.13455200
v 0.00250800 0.18980400 -0.13457200
v 0.00206700 0.18982700 -0.13458700
v 0.00162500 0.18984900 -0.13459700
v 0.00118400 0.18986800 -0.13460401
v 0.00074200 0.18988600 -0.13460600
v 0.00030100 0.18990199 -0.13460501
v -0.00014100 0.18991700 -0.13460000
v -0.00058300 0.18993101 -0.13459200
v -0.00102600 0.18994200 -0.13457900
v -0.00147000 0.18995200 -0.13456200
v -0.00191100 0.18996000 -0.13454100
v -0.00235300 0.18996599 -0.13451500
v -0.00279400 0.18997000 -0.13448299
v -0.00323500 0.18997000 -0.13444400
v 0.00426700 0.18946800 -0.13455300
v 0.00382500 0.18950000 -0.13458900
v 0.00338300 0.18952900 -0.13461800
v 0.00294100 0.18955500 -0.13464101
v 0.00250000 0.18957999 -0.13465799
v 0.00205800 0.18960200 -0.13467100
v 0.00161700 0.18962200 -0.13468000
v 0.00117500 0.18964100 -0.13468499
v 0.00073400 0.18965900 -0.13468701
v 0.00029200 0.18967500 -0.13468499
v -0.00014900 0.18968999 -0.13468100
v -0.00059100 0.18970400 -0.13467300
v -0.00103500 0.18971600 -0.13466200
v -0.00147800 0.18972600 -0.13464700
v -0.00192000 0.18973500 -0.13462800
v -0.00236100 0.18974300 -0.13460501
v -0.00280200 0.18974701 -0.13457599
v -0.00324300 0.18974900 -0.13454100
v -0.00368400 0.18974800 -0.13449800
v 0.00470000 0.18921199 -0.13460600
v 0.00425800 0.18924600 -0.13464600
v 0.00381600 0.18927599 -0.13467801
v 0.00337500 0.18930399 -0.13470399
v 0.00293300 0.18932900 -0.13472299
v 0.00249100 0.18935201 -0.13473800
v 0.00205000 0.18937300 -0.13474900
v 0.00160800 0.18939300 -0.13475600
v -0.00104300 0.18948700 -0.13473800
v -0.00148600 0.18949801 -0.13472500
v -0.00192800 0.18950801 -0.13470800
v -0.00236900 0.18951599 -0.13468701
v -0.00281100 0.18952200 -0.13466200
v -0.00325200 0.18952601 -0.13462999
v -0.00369300 0.18952700 -0.13459200
v -0.00413300 0.18952399 -0.13454500
v -0.00457100 0.18951701 -0.13449000
v -0.00500600 0.18950699 -0.13442500
v 0.00512700 0.18895499 -0.13465300
v 0.00469200 0.18898900 -0.13469701
v 0.00425000 0.18902101 -0.13473301
v 0.00380800 0.18905000 -0.13476101
v 0.00336600 0.18907601 -0.13478300
v 0.00292500 0.18909900 -0.13479900
v -0.00193600 0.18927801 -0.13478200
v -0.00237800 0.18928701 -0.13476400
v -0.00281900 0.18929400 -0.13474099
v -0.00326000 0.18929900 -0.13471299
v -0.00370100 0.18930200 -0.13467900
v -0.00414200 0.18930100 -0.13463700
v -0.00458000 0.18929701 -0.13458601
v -0.00501500 0.18928801 -0.13452600
v 0.00554800 0.18869500 -0.13469601
v 0.00511800 0.18873100 -0.13474301
v 0.00468300 0.18876401 -0.13478200
v 0.00424200 0.18879400 -0.13481300
v 0.00380000 0.18882100 -0.13483700
v -0.00326800 0.18907000 -0.13479000
v -0.00370900 0.18907499 -0.13475899
v -0.00415000 0.18907601 -0.13472199
v -0.00458800 0.18907300 -0.13467599
v -0.00502300 0.18906701 -0.13462099
v 0.00597000 0.18843199 -0.13473199
v 0.00554000 0.18847100 -0.13478400
v 0.00511000 0.18850499 -0.13482600
v 0.00467500 0.18853500 -0.13485999
v 0.00423300 0.18856400 -0.13488699
v -0.00371800 0.18884499 -0.13483401
v -0.00415900 0.18884701 -0.13480000
v -0.00459600 0.18884701 -0.13476001
v -0.00503200 0.18884300 -0.13471000
v -0.00546000 0.18883500 -0.13465200
v 0.00639100 0.18817100 -0.13476001
v 0.00596200 0.18821201 -0.13481800
v 0.00553200 0.18824799 -0.13486500
v 0.00510200 0.18828000 -0.13490300
v 0.00466700 0.18830800 -0.13493200
v -0.00416700 0.18862100 -0.13487300
v -0.00460400 0.18862200 -0.13483600
v -0.00504000 0.18862000 -0.13479200
v -0.00546800 0.18861400 -0.13473900
v 0.00638300 0.18794601 -0.13484800
v 0.00595300 0.18798400 -0.13490100
v 0.00552300 0.18801799 -0.13494200
v 0.00509400 0.18804801 -0.13497500
v -0.00373400 0.18838200 -0.13496900
v -0.00417500 0.18838800 -0.13494200
v -0.00461300 0.18839100 -0.13490900
v -0.00504800 0.18839100 -0.13486999
v -0.00547700 0.18838800 -0.13482200
v 0.00680400 0.18768300 -0.13487101
v 0.00637500 0.18772399 -0.13492900
v 0.00594500 0.18776000 -0.13497600
v 0.00551500 0.18779200 -0.13501300
v -0.00374200 0.18815200 -0.13503100
v -0.00418300 0.18815900 -0.13500600
v -0.00462100 0.18816300 -0.13497700
v -0.00505600 0.18816499 -0.13494100
v -0.00548500 0.18816300 -0.13489901
v -0.00591300 0.18815801 -0.13484600
v 0.00679600 0.18746100 -0.13495199
v 0.00636700 0.18750000 -0.13500500
v 0.00593700 0.18753400 -0.13504700
v -0.00375000 0.18792100 -0.13508999
v -0.00419100 0.18792900 -0.13506800
v -0.00462900 0.18793400 -0.13504000
v -0.00506400 0.18793701 -0.13500901
v -0.00549300 0.18793800 -0.13496999
v -0.00592100 0.18793400 -0.13492300
v -0.00507200 0.18770801 -0.13507199
v -0.00550100 0.18771000 -0.13503800
v -0.00592900 0.18770900 -0.13499500
v -0.00460700 0.19031300 -0.13405800
v -0.00452300 0.19015101 -0.13417099
v -0.00443900 0.18998501 -0.13427800
v -0.00435400 0.18981799 -0.13437800
v -0.00426800 0.18964700 -0.13447200
v -0.00398400 0.18976501 -0.13445300
v -0.00369800 0.18988000 -0.13443400
v -0.00341000 0.18998900 -0.13441600
v -0.00311900 0.19009000 -0.13439900
v -0.00292200 0.19015101 -0.13438900
v -0.00272300 0.19020900 -0.13437900
v -0.00252300 0.19026101 -0.13437100
v -0.00232100 0.19030900 -0.13436300
v -0.00211800 0.19035199 -0.13435601
v -0.00191500 0.19039200 -0.13435000
v -0.00171000 0.19042701 -0.13434400
v -0.00150500 0.19045900 -0.13433900
v -0.00119000 0.19050001 -0.13433200
v -0.00087400 0.19053200 -0.13432600
v -0.00055800 0.19055501 -0.13432200
v -0.00024100 0.19056900 -0.13431901
v 0.00007600 0.19057401 -0.13431799
v 0.00039200 0.19056900 -0.13431799
v 0.00070900 0.19055299 -0.13432001
v 0.00102500 0.19052801 -0.13432400
v 0.00125000 0.19050400 -0.13432799
v 0.00147500 0.19047400 -0.13433300
v 0.00169900 0.19043900 -0.13433900
v 0.00192200 0.19039901 -0.13434500
v 0.00214400 0.19035400 -0.13435300
v 0.00236500 0.19030400 -0.13436200
v 0.00258500 0.19024800 -0.13437100
v 0.00280300 0.19018801 -0.13438199
v 0.00301400 0.19012401 -0.13439301
v 0.00322300 0.19005600 -0.13440400
v 0.00343100 0.18998300 -0.13441700
v 0.00363800 0.18990600 -0.13443001
v 0.00384200 0.18982500 -0.13444400
v 0.00404500 0.18973900 -0.13445900
v 0.00424700 0.18965000 -0.13447399
v 0.00444600 0.18955600 -0.13449000
v 0.00463700 0.18946201 -0.13450600
v 0.00482700 0.18936500 -0.13452201
v 0.00501400 0.18926400 -0.13453899
v 0.00519900 0.18915799 -0.13455699
v 0.00538100 0.18904901 -0.13457499
v 0.00556000 0.18893600 -0.13459399
v 0.00573700 0.18881799 -0.13461401
v 0.00591000 0.18869600 -0.13463400
v 0.00607100 0.18857600 -0.13465400
v 0.00622900 0.18845201 -0.13467500
v 0.00638500 0.18832500 -0.13469601
v 0.00653900 0.18819600 -0.13471800
v 0.00669100 0.18806501 -0.13474000
v 0.00684200 0.18793200 -0.13476300
v 0.00699200 0.18779799 -0.13478500
v 0.00714200 0.18766400 -0.13480800
v 0.00694400 0.18748200 -0.13491800
v 0.00674500 0.18729600 -0.13501699
v 0.00654500 0.18710800 -0.13510400
v 0.00634400 0.18691801 -0.13517800
v 0.00624700 0.18700901 -0.13516299
v 0.00605300 0.18718401 -0.13513400
v 0.00588000 0.18732800 -0.13511100
v 0.00570000 0.18747100 -0.13508700
v 0.00551300 0.18761300 -0.13506401
v 0.00531900 0.18775301 -0.13504100
v 0.00512600 0.18788500 -0.13501900
v 0.00494300 0.18800300 -0.13500001
v 0.00477200 0.18810900 -0.13498200
v 0.00461600 0.18820100 -0.13496700
v 0.00435600 0.18834500 -0.13494299
v 0.00418100 0.18843700 -0.13492800
v 0.00390000 0.18857700 -0.13490400
v 0.00361000 0.18870801 -0.13488200
v 0.00331100 0.18883100 -0.13486201
v 0.00300400 0.18894400 -0.13484301
v 0.00269000 0.18904699 -0.13482501
v 0.00253000 0.18909401 -0.13481800
v 0.00236800 0.18913899 -0.13481000
v 0.00220400 0.18918100 -0.13480300
v 0.00203900 0.18922000 -0.13479701
v 0.00187300 0.18925600 -0.13479100
v 0.00170500 0.18928900 -0.13478500
v 0.00145800 0.18933199 -0.13477799
v 0.00119600 0.18937001 -0.13477200
v 0.00092000 0.18940100 -0.13476700
v 0.00062800 0.18942501 -0.13476300
v 0.00032200 0.18944000 -0.13476001
v 0.00000200 0.18944500 -0.13476001
v -0.00016400 0.18944301 -0.13476001
v -0.00033200 0.18943800 -0.13476101
v -0.00050400 0.18943000 -0.13476200
v -0.00067800 0.18941800 -0.13476400
v -0.00085600 0.18940200 -0.13476700
v -0.00103700 0.18938300 -0.13477001
v -0.00122100 0.18935899 -0.13477500
v -0.00140700 0.18933100 -0.13477901
v -0.00159500 0.18929900 -0.13478500
v -0.00178600 0.18926200 -0.13479100
v -0.00197900 0.18922000 -0.13479801
v -0.00217300 0.18917400 -0.13480601
v -0.00236900 0.18912300 -0.13481501
v -0.00256500 0.18906701 -0.13482399
v -0.00276300 0.18900500 -0.13483500
v -0.00296200 0.18893901 -0.13484600
v -0.00316200 0.18886700 -0.13485800
v -0.00336100 0.18878900 -0.13487101
v -0.00356100 0.18870600 -0.13488500
v -0.00376100 0.18861701 -0.13490100
v -0.00367700 0.18844201 -0.13495500
v -0.00359200 0.18826699 -0.13500699
v -0.00350800 0.18809199 -0.13505600
v -0.00342300 0.18791600 -0.13510400
v -0.00371800 0.18786000 -0.13510700
v -0.00401300 0.18780300 -0.13510799
v -0.00430900 0.18774700 -0.13510799
v -0.00460600 0.18768901 -0.13510700
v -0.00490500 0.18763100 -0.13510400
v -0.00520600 0.18757300 -0.13509899
v -0.00551000 0.18751299 -0.13509201
v -0.00581800 0.18745200 -0.13508201
v -0.00604200 0.18741700 -0.13507000
v -0.00626700 0.18737499 -0.13505800
v -0.00649200 0.18732700 -0.13504399
v -0.00671800 0.18727100 -0.13502900
v -0.00659000 0.18745700 -0.13498800
v -0.00646200 0.18764500 -0.13494501
v -0.00633400 0.18783200 -0.13490000
v -0.00620500 0.18802001 -0.13485400
v -0.00607500 0.18820900 -0.13480499
v -0.00594500 0.18839800 -0.13475400
v -0.00581400 0.18858700 -0.13470000
v -0.00568300 0.18877700 -0.13464300
v -0.00555100 0.18896700 -0.13458399
v -0.00541800 0.18915799 -0.13452099
v -0.00528500 0.18934900 -0.13445400
v -0.00515100 0.18954100 -0.13438401
v -0.00501600 0.18973300 -0.13430899
v -0.00488000 0.18992600 -0.13423000
v -0.00474400 0.19011900 -0.13414700
v 0.00072600 0.18942900 -0.13476101
v 0.00028400 0.18944500 -0.13475899
v -0.00015700 0.18945999 -0.13475500
v -0.00455400 0.18995000 -0.13427700
v -0.00060000 0.18947400 -0.13474800
v 0.00635100 0.18704900 -0.13514200
f 2 3 4
f 4 6 7
f 5 7 8
f 5 8 9
f 8 10 11
f 9 11 12
f 9 12 13
f 12 14 15
f 13 15 16
f 16 18 19
f 17 19 20
f 22 19 18
f 20 22 23
f 21 23 24
f 23 26 27
f 24 27 28
f 29 24 28
f 28 30 31
f 29 31 32
f 31 34 35
f 32 35 36
f 37 32 36
f 36 38 39
f 37 39 40
f 39 41 42
f 40 42 43
f 40 43 44
f 42 45 46
f 43 46 47
f 48 43 47
f 46 49 50
f 47 50 51
f 52 47 51
f 51 53 54
f 52 54 55
f 57 53 56
f 58 54 57
f 57 59 60
f 61 57 60
f 60 62 63
f 61 63 64
f 65 66 62
f 67 62 66
f 68 63 67
f 66 69 70
f 71 66 70
f 68 71 72
f 74 69 73
f 75 70 74
f 135 72 71
f 75 76 135
f 71 75 135
f 79 73 78
f 80 74 79
f 82 77 81
f 83 78 82
f 84 79 83
f 87 81 86
f 88 82 87
f 91 85 90
f 92 86 91
f 93 87 92
f 89 94 95
f 96 97 90
f 98 90 97
f 99 91 98
f 100 101 94
f 102 94 101
f 103 95 102
f 104 96 103
f 105 97 104
f 106 98 105
f 108 100 107
f 109 101 108
f 110 102 109
f 111 103 110
f 105 111 112
f 106 112 113
f 115 107 114
f 116 108 115
f 117 109 116
f 111 110 117
f 118 119 114
f 120 114 119
f 182 3 1
f 181 182 1
f 183 3 182
f 2 180 181
f 1 2 181
f 179 180 2
f 3 183 187
f 185 186 183
f 187 6 3
f 186 187 183
f 6 188 189
f 6 187 188
f 189 7 6
f 184 185 183
f 5 2 4
f 179 2 178
f 178 2 5
f 177 178 5
f 176 177 5
f 5 175 176
f 175 9 174
f 9 175 5
f 173 174 9
f 13 172 9
f 190 10 7
f 172 173 9
f 13 171 172
f 171 13 170
f 170 13 169
f 190 7 189
f 11 191 192
f 10 191 11
f 14 11 192
f 193 194 14
f 15 14 194
f 14 192 193
f 190 191 10
f 15 194 18
f 195 18 194
f 18 195 196
f 196 22 18
f 197 22 196
f 199 26 198
f 198 22 197
f 199 200 26
f 17 13 16
f 198 26 22
f 166 17 20
f 30 27 201
f 26 201 27
f 201 26 200
f 169 13 17
f 30 202 203
f 34 204 205
f 34 203 204
f 34 30 203
f 35 34 206
f 34 205 206
f 207 38 206
f 201 202 30
f 168 169 17
f 167 17 166
f 17 167 168
f 21 164 165
f 164 21 163
f 24 163 21
f 21 165 166
f 21 166 20
f 35 206 38
f 209 38 208
f 161 162 25
f 25 162 24
f 209 41 38
f 41 209 210
f 163 24 162
f 208 38 207
f 160 161 25
f 159 160 29
f 160 25 29
f 32 158 29
f 158 159 29
f 156 157 33
f 158 33 157
f 158 32 33
f 155 156 37
f 33 37 156
f 40 154 37
f 155 37 154
f 153 154 40
f 153 44 152
f 152 44 151
f 153 40 44
f 45 211 212
f 41 211 45
f 214 45 213
f 212 213 45
f 45 214 49
f 215 49 214
f 50 49 53
f 217 49 216
f 56 53 279
f 49 217 279
f 218 219 279
f 279 219 280
f 279 217 218
f 56 280 59
f 220 280 219
f 215 216 49
f 151 44 150
f 48 150 44
f 149 150 48
f 52 148 48
f 148 149 48
f 147 148 52
f 147 52 146
f 146 52 55
f 49 279 53
f 145 55 58
f 144 145 58
f 143 144 58
f 143 58 142
f 142 58 61
f 146 55 145
f 211 41 210
f 241 242 243
f 89 241 243
f 240 95 239
f 238 239 95
f 240 89 95
f 89 240 241
f 89 243 244
f 246 94 245
f 247 94 246
f 248 100 247
f 89 245 94
f 94 247 100
f 245 89 244
f 100 248 249
f 96 238 95
f 81 232 233
f 77 231 232
f 77 229 230
f 231 77 230
f 77 232 81
f 78 229 77
f 81 233 234
f 236 85 235
f 90 236 237
f 96 90 238
f 238 90 237
f 86 234 85
f 85 234 235
f 85 236 90
f 81 234 86
f 114 251 252
f 114 252 253
f 107 249 250
f 251 114 107
f 250 251 107
f 118 253 254
f 256 260 255
f 259 256 257
f 257 258 259
f 253 118 114
f 260 261 118
f 255 260 118
f 260 256 259
f 254 255 118
f 261 119 118
f 115 120 116
f 267 268 117
f 267 117 116
f 111 270 112
f 117 269 111
f 269 117 268
f 269 270 111
f 265 116 120
f 263 120 119
f 119 262 263
f 262 119 261
f 264 120 263
f 266 267 116
f 120 264 265
f 266 116 265
f 107 100 249
f 65 281 222
f 281 221 222
f 59 281 62
f 281 280 220
f 281 65 62
f 281 220 221
f 223 65 222
f 69 225 226
f 73 227 228
f 69 226 227
f 65 224 225
f 223 224 65
f 69 65 225
f 69 227 73
f 228 229 73
f 64 141 61
f 139 64 68
f 72 137 68
f 68 137 138
f 140 141 64
f 64 139 140
f 68 138 139
f 142 61 141
f 136 72 135
f 132 76 75
f 133 135 76
f 134 136 135
f 133 134 135
f 133 76 132
f 80 132 75
f 137 72 136
f 73 229 78
f 99 122 92
f 122 123 92
f 88 127 83
f 125 88 93
f 92 123 93
f 124 93 123
f 121 99 106
f 113 112 271
f 278 121 106
f 273 106 272
f 271 272 113
f 272 106 113
f 273 282 106
f 99 121 122
f 84 130 80
f 127 88 126
f 83 127 84
f 127 128 84
f 130 131 80
f 129 130 84
f 129 84 128
f 132 80 131
f 125 126 88
f 278 282 277
f 106 282 278
f 274 276 282
f 277 282 276
f 276 274 275
f 274 282 273
f 93 124 125
f 112 270 271
f 286 287 283
f 292 284 291
f 293 285 292
f 297 288 296
f 298 289 297
f 299 290 298
f 300 291 299
f 301 292 300
f 302 303 294
f 295 303 304
f 305 295 304
f 306 296 305
f 307 297 306
f 308 298 307
f 309 299 308
f 301 300 309
f 312 303 311
f 313 304 312
f 314 305 313
f 315 306 314
f 316 307 315
f 317 308 316
f 319 310 318
f 320 311 319
f 321 312 320
f 322 313 321
f 324 316 323
f 327 318 326
f 328 319 327
f 329 320 328
f 331 325 330
f 332 326 331
f 333 327 332
f 334 335 330
f 336 330 335
f 337 331 336
f 338 332 337
f 340 334 339
f 336 340 341
f 342 336 341
f 345 339 344
f 341 345 346
f 347 341 346
f 349 343 348
f 345 349 350
f 351 345 350
f 353 348 352
f 350 353 354
f 351 354 355
f 353 356 357
f 354 357 358
f 355 358 359
f 361 356 360
f 362 357 361
f 359 362 363
f 361 364 365
f 362 365 366
f 363 366 367
f 369 364 368
f 366 369 370
f 367 370 371
f 369 372 373
f 370 373 374
f 371 374 375
f 377 372 376
f 374 377 378
f 375 378 379
f 381 377 376
f 378 381 382
f 379 382 383
f 380 383 384
f 386 381 385
f 383 386 387
f 384 387 388
f 390 385 389
f 387 390 391
f 388 391 392
f 388 392 393
f 391 394 395
f 392 395 396
f 393 396 397
f 396 399 400
f 397 400 401
f 398 401 402
f 400 403 404
f 401 404 405
f 402 405 406
f 405 408 409
f 406 409 410
f 407 410 411
f 410 413 414
f 411 414 415
f 412 415 416
f 415 418 419
f 416 419 420
f 417 420 421
f 420 423 424
f 421 424 425
f 422 425 426
f 422 426 427
f 426 428 429
f 515 513 514
f 512 513 515
f 550 511 512
f 512 516 550
f 550 302 511
f 516 512 515
f 330 325 522
f 520 521 325
f 522 325 521
f 325 326 520
f 550 516 517
f 517 302 550
f 510 294 509
f 302 510 511
f 302 294 510
f 295 508 294
f 509 294 508
f 507 508 295
f 303 302 518
f 318 310 519
f 318 519 520
f 303 518 311
f 311 518 310
f 318 520 326
f 517 518 302
f 310 518 519
f 522 523 330
f 526 339 525
f 527 339 526
f 524 525 334
f 339 334 525
f 523 334 330
f 339 527 343
f 529 348 528
f 530 348 529
f 339 343 344
f 530 352 348
f 348 343 528
f 352 530 531
f 527 528 343
f 475 337 342
f 477 333 338
f 338 337 476
f 342 474 475
f 475 476 337
f 474 342 347
f 351 472 346
f 351 355 470
f 470 471 351
f 474 347 473
f 472 473 347
f 346 472 347
f 472 351 471
f 524 334 523
f 479 328 333
f 504 290 503
f 291 284 503
f 285 502 284
f 503 284 502
f 501 502 285
f 505 289 504
f 288 506 507
f 296 288 507
f 505 288 289
f 289 290 504
f 290 291 503
f 507 295 296
f 505 506 288
f 286 283 500
f 283 499 500
f 497 498 499
f 497 283 496
f 283 495 496
f 497 499 283
f 501 286 500
f 293 493 286
f 285 286 501
f 293 301 492
f 492 493 293
f 494 495 287
f 287 495 283
f 287 493 494
f 493 287 286
f 322 481 482
f 482 314 322
f 483 315 482
f 314 482 315
f 323 315 483
f 481 322 321
f 478 479 333
f 481 321 480
f 329 480 321
f 329 479 480
f 329 328 479
f 333 477 478
f 489 309 317
f 492 301 491
f 490 491 301
f 309 490 301
f 490 309 489
f 489 317 488
f 485 323 484
f 315 323 316
f 324 323 485
f 487 488 324
f 324 488 317
f 324 486 487
f 486 324 485
f 323 483 484
f 338 476 477
f 533 356 532
f 534 360 533
f 531 532 356
f 360 356 533
f 360 534 364
f 536 364 535
f 537 368 536
f 368 364 536
f 537 372 368
f 539 372 538
f 537 538 372
f 534 535 364
f 469 355 359
f 467 359 363
f 359 468 469
f 363 466 467
f 467 468 359
f 466 363 367
f 470 355 469
f 464 367 371
f 463 371 375
f 367 464 465
f 375 462 463
f 463 464 371
f 461 462 375
f 466 367 465
f 531 356 352
f 540 376 539
f 541 376 540
f 376 541 381
f 542 381 541
f 385 381 542
f 543 389 385
f 542 543 385
f 544 389 543
f 545 390 389
f 544 545 389
f 546 394 545
f 546 547 394
f 545 394 390
f 459 380 384
f 458 384 388
f 395 394 399
f 375 379 461
f 548 403 399
f 547 399 394
f 549 403 548
f 430 404 403
f 408 404 430
f 430 403 549
f 431 408 430
f 399 547 548
f 376 372 539
f 379 380 461
f 460 461 380
f 459 460 380
f 457 458 388
f 456 457 388
f 459 384 458
f 388 393 456
f 454 393 397
f 454 455 393
f 431 409 408
f 398 454 397
f 431 413 409
f 456 393 455
f 453 398 402
f 407 451 402
f 402 452 453
f 451 407 450
f 451 452 402
f 406 407 402
f 454 398 453
f 412 407 411
f 449 407 412
f 412 448 449
f 447 417 446
f 417 447 448
f 412 417 448
f 450 407 449
f 414 413 433
f 432 433 413
f 418 414 433
f 412 416 417
f 434 419 418
f 418 433 434
f 419 435 423
f 436 423 435
f 424 436 437
f 436 424 423
f 437 428 424
f 435 419 434
f 422 417 421
f 422 445 446
f 444 445 422
f 441 443 427
f 444 427 443
f 444 422 427
f 427 426 440
f 439 429 428
f 437 438 428
f 438 439 428
f 429 440 426
f 442 443 441
f 440 441 427
f 429 439 440
f 428 425 424
f 417 422 446
f 413 431 432
f 552 562 563
f 553 563 564
f 554 564 565
f 555 565 566
f 567 555 566
f 557 567 568
f 558 568 569
f 570 558 569
f 574 575 560
f 576 560 575
f 562 576 577
f 578 562 577
f 579 563 578
f 580 564 579
f 566 580 581
f 582 566 581
f 583 567 582
f 584 568 583
f 570 584 585
f 571 585 586
f 587 571 586
f 574 591 592
f 575 592 593
f 594 575 593
f 595 576 594
f 596 577 595
f 597 578 596
f 598 579 597
f 581 598 599
f 600 581 599
f 601 582 600
f 584 601 602
f 585 602 603
f 586 603 604
f 587 604 605
f 606 587 605
f 607 588 606
f 591 610 611
f 612 591 611
f 613 592 612
f 614 593 613
f 615 594 614
f 616 595 615
f 597 596 616
f 617 602 601
f 603 617 618
f 619 603 618
f 620 604 619
f 606 620 621
f 607 621 622
f 608 622 623
f 627 628 609
f 629 609 628
f 630 610 629
f 631 611 630
f 632 612 631
f 620 633 634
f 621 634 635
f 622 635 636
f 623 636 637
f 624 637 638
f 625 638 639
f 640 625 639
f 641 642 627
f 628 642 643
f 644 628 643
f 645 629 644
f 631 630 645
f 646 636 635
f 637 646 647
f 638 647 648
f 639 648 649
f 650 639 649
f 653 641 652
f 654 642 653
f 655 643 654
f 648 656 657
f 649 657 658
f 650 658 659
f 663 651 662
f 664 652 663
f 665 653 664
f 658 666 667
f 659 667 668
f 660 668 669
f 671 661 670
f 672 662 671
f 673 663 672
f 667 675 676
f 668 676 677
f 669 677 678
f 679 680 670
f 681 670 680
f 682 671 681
f 675 683 684
f 676 684 685
f 677 685 686
f 678 686 687
f 690 679 689
f 691 680 690
f 684 692 693
f 685 693 694
f 686 694 695
f 687 695 696
f 688 696 697
f 696 698 699
f 697 699 700
f 735 560 734
f 736 560 735
f 732 561 731
f 561 732 733
f 734 560 733
f 733 560 561
f 560 736 574
f 739 573 738
f 740 573 739
f 737 574 736
f 737 573 574
f 573 737 738
f 591 573 740
f 551 731 561
f 725 726 553
f 726 727 553
f 724 555 723
f 555 722 723
f 554 724 725
f 728 552 727
f 551 729 730
f 552 729 551
f 731 551 730
f 551 561 562
f 552 553 727
f 554 555 724
f 553 554 725
f 728 729 552
f 555 556 722
f 609 743 744
f 745 609 744
f 742 743 609
f 590 741 742
f 590 591 740
f 610 590 742
f 609 610 742
f 746 627 745
f 609 745 627
f 779 780 614
f 614 780 781
f 613 632 614
f 615 614 781
f 746 747 627
f 784 616 615
f 842 597 616
f 598 843 599
f 788 789 842
f 598 597 842
f 787 616 786
f 616 784 785
f 615 782 783
f 783 784 615
f 789 843 842
f 842 616 787
f 787 788 842
f 616 785 786
f 782 615 781
f 790 843 789
f 741 590 740
f 844 843 790
f 557 720 721
f 722 556 721
f 557 719 720
f 558 718 719
f 559 717 718
f 716 717 559
f 556 557 721
f 719 557 558
f 570 571 716
f 718 558 559
f 571 714 715
f 571 572 714
f 713 714 572
f 715 716 571
f 559 570 716
f 711 712 572
f 713 572 712
f 588 710 711
f 841 701 702
f 841 702 845
f 587 711 572
f 709 710 588
f 587 588 711
f 709 588 589
f 708 589 607
f 708 709 589
f 704 845 703
f 845 840 841
f 840 845 839
f 703 845 702
f 844 599 843
f 846 844 792
f 600 846 601
f 617 601 846
f 617 797 618
f 795 617 846
f 844 790 791
f 844 791 792
f 846 793 794
f 846 792 793
f 617 795 796
f 618 797 798
f 617 796 797
f 846 794 795
f 799 618 798
f 608 707 607
f 707 708 607
f 608 623 706
f 706 707 608
f 705 625 704
f 845 625 839
f 624 705 706
f 704 625 845
f 623 624 706
f 799 619 618
f 624 625 705
f 838 839 626
f 626 839 625
f 838 626 837
f 626 640 837
f 799 800 619
f 750 641 749
f 750 651 641
f 627 747 641
f 748 641 747
f 641 748 749
f 751 651 750
f 752 662 651
f 751 752 651
f 752 753 661
f 754 661 753
f 661 662 752
f 665 772 654
f 641 651 652
f 772 655 654
f 778 632 777
f 631 777 632
f 779 632 778
f 801 633 800
f 800 633 619
f 801 634 633
f 632 779 614
f 645 644 774
f 655 774 644
f 655 773 774
f 773 655 772
f 775 645 774
f 645 775 776
f 777 631 776
f 645 776 631
f 802 634 801
f 757 679 756
f 758 679 757
f 670 754 755
f 755 679 670
f 679 755 756
f 689 679 758
f 759 690 689
f 690 759 760
f 759 689 758
f 690 760 847
f 762 763 847
f 847 763 690
f 847 761 762
f 761 847 760
f 763 764 690
f 768 769 673
f 770 664 673
f 772 665 771
f 770 771 665
f 664 770 665
f 770 673 769
f 768 673 672
f 691 766 681
f 691 764 765
f 764 691 690
f 765 766 691
f 767 768 682
f 682 768 672
f 682 766 767
f 766 682 681
f 670 661 754
f 804 634 803
f 802 803 634
f 635 634 804
f 805 646 635
f 805 806 646
f 647 646 656
f 805 635 804
f 807 808 646
f 656 808 809
f 646 808 656
f 809 810 656
f 811 812 674
f 674 675 811
f 806 807 646
f 836 640 650
f 835 836 650
f 650 660 835
f 650 659 660
f 834 835 660
f 837 640 836
f 675 666 810
f 675 810 811
f 834 660 669
f 833 834 669
f 678 688 832
f 833 678 832
f 833 669 678
f 810 666 657
f 810 657 656
f 674 812 683
f 813 692 683
f 812 813 683
f 814 692 813
f 817 694 693
f 693 692 816
f 692 814 815
f 687 688 678
f 693 816 817
f 817 818 694
f 698 694 818
f 695 694 698
f 698 819 820
f 698 818 819
f 815 816 692
f 820 699 698
f 830 688 697
f 830 831 688
f 828 829 700
f 697 829 830
f 697 700 829
f 700 699 821
f 688 831 832
f 700 822 823
f 828 700 823
f 824 828 823
f 827 828 824
f 827 825 826
f 827 824 825
f 821 822 700
f 821 699 820
f 2 1 3
f 4 3 6
f 5 4 7
f 8 7 10
f 9 8 11
f 12 11 14
f 13 12 15
f 16 15 18
f 17 16 19
f 20 19 22
f 21 20 23
f 23 22 26
f 24 23 27
f 29 25 24
f 28 27 30
f 29 28 31
f 31 30 34
f 32 31 35
f 37 33 32
f 36 35 38
f 37 36 39
f 39 38 41
f 40 39 42
f 42 41 45
f 43 42 46
f 48 44 43
f 46 45 49
f 47 46 50
f 52 48 47
f 51 50 53
f 52 51 54
f 57 54 53
f 58 55 54
f 57 56 59
f 61 58 57
f 60 59 62
f 61 60 63
f 67 63 62
f 68 64 63
f 66 65 69
f 71 67 66
f 68 67 71
f 74 70 69
f 75 71 70
f 79 74 73
f 80 75 74
f 82 78 77
f 83 79 78
f 84 80 79
f 87 82 81
f 88 83 82
f 91 86 85
f 92 87 86
f 93 88 87
f 98 91 90
f 99 92 91
f 102 95 94
f 103 96 95
f 104 97 96
f 105 98 97
f 106 99 98
f 108 101 100
f 109 102 101
f 110 103 102
f 111 104 103
f 105 104 111
f 106 105 112
f 115 108 107
f 116 109 108
f 117 110 109
f 120 115 114
f 56 279 280
f 59 280 281
f 292 285 284
f 293 286 285
f 297 289 288
f 298 290 289
f 299 291 290
f 300 292 291
f 301 293 292
f 295 294 303
f 305 296 295
f 306 297 296
f 307 298 297
f 308 299 298
f 309 300 299
f 312 304 303
f 313 305 304
f 314 306 305
f 315 307 306
f 316 308 307
f 317 309 308
f 319 311 310
f 320 312 311
f 321 313 312
f 322 314 313
f 324 317 316
f 327 319 318
f 328 320 319
f 329 321 320
f 331 326 325
f 332 327 326
f 333 328 327
f 336 331 330
f 337 332 331
f 338 333 332
f 340 335 334
f 336 335 340
f 342 337 336
f 345 340 339
f 341 340 345
f 347 342 341
f 349 344 343
f 345 344 349
f 351 346 345
f 353 349 348
f 350 349 353
f 351 350 354
f 353 352 356
f 354 353 357
f 355 354 358
f 361 357 356
f 362 358 357
f 359 358 362
f 361 360 364
f 362 361 365
f 363 362 366
f 369 365 364
f 366 365 369
f 367 366 370
f 369 368 372
f 370 369 373
f 371 370 374
f 377 373 372
f 374 373 377
f 375 374 378
f 378 377 381
f 379 378 382
f 380 379 383
f 386 382 381
f 383 382 386
f 384 383 387
f 390 386 385
f 387 386 390
f 388 387 391
f 391 390 394
f 392 391 395
f 393 392 396
f 396 395 399
f 397 396 400
f 398 397 401
f 400 399 403
f 401 400 404
f 402 401 405
f 405 404 408
f 406 405 409
f 407 406 410
f 410 409 413
f 411 410 414
f 412 411 415
f 415 414 418
f 416 415 419
f 417 416 420
f 420 419 423
f 421 420 424
f 422 421 425
f 426 425 428
f 552 551 562
f 553 552 563
f 554 553 564
f 555 554 565
f 567 556 555
f 557 556 567
f 558 557 568
f 570 559 558
f 576 561 560
f 562 561 576
f 578 563 562
f 579 564 563
f 580 565 564
f 566 565 580
f 582 567 566
f 583 568 567
f 584 569 568
f 570 569 584
f 571 570 585
f 587 572 571
f 574 573 591
f 575 574 592
f 594 576 575
f 595 577 576
f 596 578 577
f 597 579 578
f 598 580 579
f 581 580 598
f 600 582 581
f 601 583 582
f 584 583 601
f 585 584 602
f 586 585 603
f 587 586 604
f 606 588 587
f 607 589 588
f 591 590 610
f 612 592 591
f 613 593 592
f 614 594 593
f 615 595 594
f 616 596 595
f 603 602 617
f 619 604 603
f 620 605 604
f 606 605 620
f 607 606 621
f 608 607 622
f 629 610 609
f 630 611 610
f 631 612 611
f 632 613 612
f 620 619 633
f 621 620 634
f 622 621 635
f 623 622 636
f 624 623 637
f 625 624 638
f 640 626 625
f 628 627 642
f 644 629 628
f 645 630 629
f 637 636 646
f 638 637 647
f 639 638 648
f 650 640 639
f 653 642 641
f 654 643 642
f 655 644 643
f 648 647 656
f 649 648 657
f 650 649 658
f 663 652 651
f 664 653 652
f 665 654 653
f 658 657 666
f 659 658 667
f 660 659 668
f 671 662 661
f 672 663 662
f 673 664 663
f 667 666 675
f 668 667 676
f 669 668 677
f 681 671 670
f 682 672 671
f 675 674 683
f 676 675 684
f 677 676 685
f 678 677 686
f 690 680 679
f 691 681 680
f 684 683 692
f 685 684 693
f 686 685 694
f 687 686 695
f 688 687 696
f 696 695 698
f 697 696 699
f 598 842 843
f 844 600 599
f 600 844 846

