# https://github.com/mikedh/trimesh
v 0.04288216 0.02849840 0.09935518
v 0.04296002 -0.03979519 0.10234604
v 0.04045806 0.03050000 0.10694094
v 0.04263176 0.02849840 0.10741450
v 0.03915342 -0.04266409 0.09638032
v 0.04263807 -0.03979519 0.09697672
v 0.04033180 0.03050000 0.09526765
v 0.04238240 -0.03979519 0.10951701
v 0.03805316 -0.04369243 0.10706378
v 0.03297954 0.00016597 0.00400343
v 0.03255448 -0.00497248 0.00400343
v 0.03101101 -0.00503876 0.00000136
v 0.03090580 0.00535017 0.00000136
v 0.03296692 0.01912520 0.01002789
v 0.03224200 0.02256080 0.01002789
v 0.03077007 0.02540076 0.01002789
v 0.02793670 0.02818658 0.01002789
v 0.04060956 -0.03979519 0.11661676
v 0.02888466 0.01241647 0.00000136
v 0.02474454 0.01920269 0.00000136
v 0.01768582 0.02596838 0.00000136
v 0.00787579 0.03050000 0.00000136
v 0.02249720 0.03028248 0.01002789
v 0.04117351 0.02849840 0.11487921
v 0.03391593 -0.04580000 0.09402145
v 0.04060956 -0.03979519 0.08836017
v 0.03127509 -0.01039474 0.00400343
v 0.03400379 0.03050000 0.12440993
v 0.03443148 -0.04365089 0.08530521
v 0.02893937 -0.01568910 0.00400343
v 0.02825023 -0.01356332 0.00000136
v 0.03460955 -0.04352159 0.11939088
v 0.03315945 -0.04580000 0.11330543
v -0.00787245 0.03050000 0.00000136
v -0.02498845 0.02976807 0.01002789
v -0.02099458 0.03050000 0.01002789
v 0.03873257 0.02849840 0.12114578
v 0.02223312 -0.02429395 0.00400343
v 0.02578720 -0.02055961 0.00400343
v 0.03808867 -0.03979519 0.12234213
v -0.04035372 0.03050000 0.09526765
v 0.01652112 -0.02846707 0.00400343
v 0.02083010 -0.02334542 0.00000136
v -0.01616321 0.02700839 0.00000136
v 0.02902775 -0.04580000 0.08294812
v 0.02677673 -0.04580000 0.12467163
v -0.02833527 0.02793358 0.01002789
v -0.04262631 0.02849840 0.09704793
v 0.03473449 0.02849840 0.12772571
v 0.00558636 -0.03099708 0.00000136
v 0.03341302 -0.03979519 0.12954870
v -0.03094560 0.02514496 0.01002789
v -0.03233020 0.02234047 0.01002789
v -0.04019484 0.03050000 0.10931940
v 0.01130993 -0.03099708 0.00400343
v -0.03294674 0.01943142 0.01002789
v -0.03297199 0.00102113 0.00400343
v -0.02737836 0.01519902 0.00000136
v -0.03072675 0.00656102 0.00000136
v -0.04287041 -0.03979519 0.09917002
v -0.04295668 0.02849840 0.10313649
v 0.02308008 -0.04580000 0.07636999
v -0.03136013 -0.00157797 0.00000136
v -0.04229805 -0.03979519 0.09478342
v -0.04287041 -0.03979519 0.10580690
v 0.03030714 0.02849840 0.13295972
v 0.01435163 -0.04580000 0.07075677
v 0.00267512 -0.04580000 0.06788518
v 0.02999571 -0.03979519 0.13328017
v -0.03260164 -0.00497621 0.00400343
v -0.00558302 -0.03098962 0.00000136
v -0.03087405 -0.01139087 0.00400343
v -0.03845989 -0.04369383 0.10249558
v -0.03714473 -0.04410088 0.10974132
v -0.04231067 0.02849840 0.10991935
v 0.02015411 0.03050000 0.13781276
v -0.00800712 -0.04580000 0.06850649
v -0.02024757 -0.04580000 0.07440634
v -0.01131501 -0.03098962 0.00400343
v 0.02509280 -0.03979519 0.13739617
v 0.01907121 -0.04305573 0.13669385
v 0.01912934 -0.04580000 0.13174556
v -0.02960098 -0.01036486 0.00000136
v -0.03493526 -0.04321584 0.08506665
v -0.04192980 -0.03979519 0.11180288
v 0.02286439 0.02849840 0.13880794
v -0.01519315 -0.02754469 0.00000136
v -0.02969777 -0.04580000 0.08412667
v -0.04021904 -0.03979519 0.08732761
v -0.02774923 -0.01773271 0.00400343
v -0.03441604 -0.04580000 0.09927150
v -0.01688076 -0.02824581 0.00400343
v -0.02347128 -0.02309896 0.00400343
v -0.02402996 -0.02004520 0.00000136
v -0.04021904 -0.03979519 0.11764220
v -0.04068409 0.02849840 0.11626782
v 0.01992475 -0.03979519 0.14053659
v -0.03239332 -0.04580000 0.11541329
v -0.03398914 -0.04341236 0.12089299
v -0.03844726 -0.03979519 0.12169411
v -0.03805587 0.02849840 0.12240978
v -0.03064837 0.03050000 0.12900482
v 0.01669472 0.02849840 0.14209966
v 0.01429797 -0.03979519 0.14301473
v -0.02568286 -0.04580000 0.12624450
v 0.00655221 -0.04300298 0.14133058
v -0.03501312 -0.03979519 0.12740526
v -0.03402412 0.02849840 0.12876539
v 0.00610401 0.03050000 0.14292572
v 0.00875221 0.02849840 0.14451195
v 0.00776005 -0.03979519 0.14470243
v 0.00713930 -0.04580000 0.13669831
v -0.02752171 -0.04291242 0.13062355
v -0.02998395 -0.03979519 0.13330865
v 0.00099803 0.02849840 0.14543414
v -0.00108413 -0.03979519 0.14540388
v -0.02530830 -0.03979519 0.13718966
v -0.02633097 0.02849840 0.13639922
v -0.00743476 0.03050000 0.14275125
v -0.00551779 -0.04324945 0.14115612
v -0.02016550 -0.03979519 0.14043689
v -0.01725742 0.03050000 0.13944705
v -0.00447197 0.02849840 0.14523652
v -0.01271960 -0.04580000 0.13497677
v -0.02158377 0.02849840 0.13965356
v -0.00927388 -0.03979519 0.14442472
v -0.01064691 0.02849840 0.14410426
v -0.01638205 0.02849840 0.14223853
v -0.01408000 -0.03979519 0.14309306
f 1 3 4
f 1 4 2
f 3 7 23
f 3 23 22
f 3 22 34
f 3 34 36
f 3 36 41
f 3 41 54
f 3 54 102
f 3 102 122
f 3 122 119
f 3 119 109
f 3 109 76
f 3 76 28
f 2 5 6
f 2 6 1
f 3 1 7
f 2 4 8
f 5 2 9
f 2 8 9
f 1 6 10
f 6 11 10
f 10 11 12
f 10 12 13
f 10 14 1
f 1 14 15
f 1 15 16
f 1 16 17
f 1 17 7
f 8 18 9
f 12 31 43
f 12 43 50
f 12 50 71
f 12 71 87
f 12 87 94
f 12 94 83
f 12 83 63
f 12 63 59
f 12 59 58
f 12 58 44
f 12 44 34
f 12 34 22
f 12 22 21
f 12 21 20
f 12 20 19
f 12 19 13
f 14 10 13
f 14 13 15
f 15 13 19
f 15 19 16
f 16 19 20
f 16 20 17
f 17 20 21
f 17 21 22
f 17 22 23
f 17 23 7
f 3 24 4
f 4 24 8
f 5 26 6
f 6 27 11
f 11 27 12
f 5 9 25
f 3 28 24
f 24 18 8
f 5 29 26
f 26 30 27
f 26 27 6
f 27 31 12
f 18 32 9
f 9 32 33
f 9 33 25
f 25 33 46
f 25 46 82
f 25 82 112
f 25 112 124
f 25 124 105
f 25 105 98
f 25 98 91
f 25 91 88
f 25 88 78
f 25 78 77
f 25 77 68
f 25 68 67
f 25 67 62
f 25 62 45
f 25 29 5
f 30 31 27
f 34 35 36
f 28 37 24
f 24 37 18
f 26 39 30
f 26 38 39
f 18 40 32
f 35 41 36
f 37 40 18
f 29 42 38
f 29 38 26
f 38 42 43
f 39 38 43
f 39 43 31
f 39 31 30
f 34 44 35
f 25 45 29
f 41 35 47
f 41 47 48
f 28 49 37
f 37 49 40
f 45 42 29
f 42 50 43
f 40 51 32
f 32 51 46
f 32 46 33
f 44 47 35
f 48 47 52
f 48 52 53
f 41 48 54
f 49 51 40
f 45 55 42
f 42 55 50
f 48 53 56
f 48 56 57
f 47 44 52
f 52 44 58
f 52 58 53
f 53 58 59
f 48 60 61
f 48 61 54
f 48 57 60
f 55 45 62
f 55 62 50
f 53 59 56
f 56 59 57
f 60 57 64
f 61 60 65
f 28 66 49
f 49 66 51
f 50 62 67
f 50 67 68
f 59 63 57
f 64 57 70
f 50 68 71
f 69 46 51
f 57 63 70
f 64 70 72
f 64 73 60
f 60 73 65
f 65 75 61
f 61 75 54
f 28 76 66
f 66 69 51
f 71 68 77
f 71 77 78
f 71 78 79
f 69 80 81
f 69 81 46
f 70 63 83
f 70 83 72
f 64 84 73
f 65 73 74
f 65 85 75
f 76 86 66
f 66 86 80
f 66 80 69
f 79 87 71
f 79 78 88
f 81 82 46
f 64 72 90
f 64 90 89
f 64 89 84
f 72 83 90
f 73 84 91
f 74 85 65
f 79 92 87
f 79 88 92
f 89 90 93
f 90 83 94
f 74 95 85
f 54 75 96
f 92 88 84
f 80 97 81
f 90 94 93
f 84 88 91
f 73 91 74
f 74 99 95
f 75 85 96
f 85 95 96
f 93 94 92
f 93 92 84
f 93 84 89
f 74 91 98
f 86 97 80
f 94 87 92
f 74 98 99
f 99 100 95
f 95 100 101
f 95 101 96
f 96 101 54
f 54 101 102
f 76 103 86
f 86 103 97
f 97 103 104
f 97 104 81
f 81 104 106
f 81 106 82
f 98 105 99
f 100 99 107
f 100 107 101
f 101 107 108
f 101 108 102
f 76 109 110
f 76 110 103
f 103 110 104
f 104 110 111
f 104 111 106
f 82 106 112
f 107 99 113
f 105 113 99
f 107 113 114
f 107 114 108
f 109 115 110
f 111 116 106
f 115 116 111
f 115 111 110
f 113 117 114
f 114 118 108
f 102 108 118
f 109 119 115
f 114 117 118
f 106 116 120
f 113 121 117
f 102 118 122
f 119 123 115
f 115 123 116
f 106 120 112
f 113 105 124
f 113 124 121
f 122 118 125
f 116 123 126
f 116 126 120
f 117 125 118
f 117 121 125
f 119 127 123
f 123 127 126
f 112 120 124
f 122 125 128
f 119 122 127
f 121 128 125
f 127 129 126
f 126 129 120
f 124 120 121
f 121 120 129
f 121 129 128
f 122 128 127
f 127 128 129

