# https://github.com/mikedh/trimesh
v 0.05394036 -0.00092890 -0.13518140
v 0.05232469 -0.01320574 -0.13617577
v 0.04200770 -0.00419076 -0.14089444
v 0.04107315 0.00908891 -0.14088294
v 0.05209832 0.01217990 -0.13638523
v 0.05335560 0.00722443 -0.13425148
v 0.04389792 0.02332921 0.00290768
v 0.04388736 -0.04198190 0.00290768
v 0.03039185 0.00092899 -0.14411233
v 0.04342273 0.02509209 0.00290768
v 0.05076712 0.01835196 -0.13518140
v 0.04296865 -0.04482151 0.00773224
v 0.04320097 -0.04508542 -0.00269028
v 0.00002167 -0.03034899 -0.14408472
v 0.02057381 -0.02152666 -0.14390518
v 0.00002167 0.03034907 -0.14407551
v 0.02648470 0.01547541 -0.14390978
v 0.04883994 0.02300197 -0.13518140
v 0.04490111 0.02997960 -0.13518140
v 0.03925158 0.03693349 -0.13518140
v 0.02994834 0.04484271 -0.13617577
v 0.04200770 0.02578880 0.00664579
v 0.04210274 0.02380951 0.01233582
v 0.03291170 -0.02588504 -0.14086913
v 0.05054008 -0.01897998 -0.13518140
v 0.00095622 -0.04198190 -0.14093587
v -0.03035907 -0.00092890 -0.14407551
v 0.00468517 0.04151751 -0.14091976
v 0.03641098 0.02146076 -0.14088984
v 0.04424508 0.02985952 -0.13637602
v 0.03920406 0.02587589 0.01550308
v 0.02161660 0.04936339 -0.13435735
v 0.01774113 0.04350207 -0.06054811
v 0.04485887 -0.02993729 -0.13617577
v 0.01324263 -0.05230584 -0.13617577
v 0.01680922 -0.03871740 -0.14086221
v -0.04149709 -0.00605657 -0.14090826
v -0.02515305 -0.01633961 -0.14391439
v 0.00935131 0.05267540 -0.13651644
v 0.02473968 0.03405165 -0.14086682
v -0.01770307 -0.03825029 -0.14085302
v -0.01318872 -0.05228474 -0.13617577
v 0.01026474 0.04588777 -0.05868826
v 0.03808207 0.02397313 0.02182841
v 0.03454188 -0.05184138 -0.00455012
v 0.04089892 -0.03526817 -0.13518140
v 0.00095094 -0.05392094 -0.13518140
v 0.02994834 -0.04484263 -0.13617577
v -0.05285950 0.00512507 -0.13654406
v -0.04102981 0.01025537 -0.14082539
v -0.02097134 0.02098573 -0.14392820
v -0.03379498 -0.02448635 -0.14089213
v -0.05229191 -0.01325852 -0.13619418
v -0.01723579 0.03825565 -0.14089444
v -0.01511524 0.05079706 -0.13648306
v 0.00165053 0.05374025 -0.13378651
v -0.00650697 -0.05345911 -0.13518140
v 0.03677529 -0.05063269 0.00593684
v 0.03735080 -0.04478984 0.02251895
v 0.03521771 -0.04083655 -0.13518140
v 0.02987442 -0.05201028 0.01410360
v 0.01307367 -0.05200500 0.03089746
v -0.01257097 -0.05201028 0.03089286
v -0.05314198 0.00932115 -0.13518140
v -0.05353798 -0.00652368 -0.13518140
v -0.03402598 0.02472262 -0.14087602
v -0.04634935 -0.02739853 -0.13568778
v -0.02993667 -0.04486374 -0.13619418
v -0.02890181 -0.05201028 0.01784171
v -0.03449854 -0.05192583 -0.00269027
v 0.02894515 0.02584158 0.03089747
v 0.03941262 -0.04198190 0.01931485
v 0.00747694 -0.05079103 0.03615015
v -0.01206971 -0.05110739 0.03410386
v 0.02484264 -0.04787753 -0.13518140
v -0.05384421 0.00092899 -0.13332155
v -0.04482609 0.02994793 -0.13619418
v -0.04372786 -0.04198190 0.00478595
v -0.01324152 0.05231648 -0.13391080
v 0.00403442 0.04669004 -0.05583404
v -0.02066775 -0.04978292 -0.13531260
v -0.03635707 -0.05116578 -0.00269027
v 0.03191511 0.02361158 0.03014708
v 0.03044465 -0.05081479 0.02082943
v 0.02562407 -0.04983438 0.02826882
v -0.04387570 0.02332921 0.00290768
v -0.05152896 0.01586862 -0.13518140
v -0.03327095 0.04229735 -0.13577986
v -0.04334771 -0.04433065 0.00437162
v -0.00573346 0.04667948 -0.05574197
v -0.03629041 -0.05044400 0.00855800
v 0.03344629 -0.04198190 0.02839082
v 0.00735022 -0.04469484 0.04301410
v -0.04335298 0.02507625 0.00384681
v -0.04787261 0.02484930 -0.13518140
v -0.03814697 -0.03816584 -0.13518140
v -0.04315763 -0.04508542 -0.00362020
v -0.02827877 0.04590360 -0.13454610
v -0.02114558 0.04952701 -0.13395225
v -0.01332600 0.04501688 -0.05495015
v -0.02516361 0.02588908 0.03323148
v -0.01210106 0.02597881 0.04023353
v 0.00934340 0.02592867 0.04069389
v -0.02906086 -0.04915912 0.02550437
v -0.02279556 -0.04537439 0.03640105
v -0.04293587 0.02437427 0.00957367
v -0.03989727 0.03624734 -0.13518140
v -0.03093458 0.02460123 0.03107240
v -0.02434522 0.02332921 0.03662432
v -0.00685544 0.02402328 0.04335015
v 0.00481717 0.02403647 0.04354351
v 0.02351738 0.02397841 0.03707547
v 0.02244027 -0.04481096 0.03745297
v -0.00740191 -0.04476873 0.04303251
v -0.03917656 -0.04478456 0.01878084
v -0.04143637 -0.04198190 0.01478493
v -0.03923992 0.02332921 0.01983966
v -0.03775889 0.02585741 0.01876703
v -0.02009488 0.04241478 -0.05443455
v 0.02439385 -0.04198190 0.03656908
v 0.01521732 0.02332921 0.04128315
v -0.03852184 -0.04198190 0.02114708
v -0.01303560 0.02332921 0.04197369
v -0.00370068 -0.04105031 0.04378750
v 0.00374666 -0.04198190 0.04376908
v -0.02810454 -0.04266805 0.03380693
v -0.01519510 -0.04198190 0.04128315
v 0.01170748 -0.04214684 0.04231205
v -0.03311783 -0.04338587 0.02858647
v -0.04152908 -0.02542483 -0.09982330
v -0.04106914 -0.02618258 -0.09982330
v -0.03391619 -0.04510021 -0.02697471
v -0.03448715 -0.04390761 -0.02697471
v -0.03453473 -0.04373574 -0.02697471
v -0.03474092 -0.04200933 -0.02697471
v -0.03925315 -0.02610967 -0.06715695
v -0.04059333 -0.02543265 -0.08868493
v -0.04116430 -0.02542483 -0.09599404
v 0.03342621 -0.02542483 -0.09982330
v -0.04072814 -0.02670337 -0.09982330
v -0.04047438 -0.02708615 -0.09982330
v -0.03952277 -0.02848967 -0.09982330
v -0.03882492 -0.02942188 -0.09982330
v -0.03788917 -0.03061969 -0.09982330
v -0.03716753 -0.03150764 -0.09982330
v -0.03620799 -0.03255703 -0.09982330
v -0.03533567 -0.03349184 -0.09982330
v -0.03439992 -0.03445790 -0.09982330
v -0.03348003 -0.03538751 -0.09982330
v -0.03256014 -0.03620254 -0.09982330
v -0.03144200 -0.03716860 -0.09982330
v -0.03268702 -0.04611574 -0.02697471
v -0.03476471 -0.03739775 -0.02697471
v -0.03480436 -0.02706532 -0.02697471
v -0.03480436 -0.02703667 -0.02697471
v -0.04115637 -0.02542483 -0.09592273
v 0.03050000 -0.02543265 -0.08868493
v 0.03342621 -0.02542483 -0.09973059
v 0.03776397 -0.02593521 -0.09982330
v -0.03053796 -0.03791333 -0.09982330
v -0.02936431 -0.03884815 -0.09982330
v -0.03259186 -0.04618866 -0.02697471
v 0.03475054 -0.02703667 -0.02697471
v 0.03299798 -0.02542483 -0.09592273
v 0.03340242 -0.02542483 -0.09786232
v 0.03869972 -0.02657838 -0.09982330
v -0.03074415 -0.04756354 -0.02697471
v -0.03152923 -0.04698025 -0.02697471
v -0.02842856 -0.03951475 -0.09982330
v 0.03475847 -0.03739775 -0.02697471
v 0.03948481 -0.02750799 -0.09982330
v 0.03335484 -0.02542483 -0.09761273
v -0.03063313 -0.04763905 -0.02697471
v -0.02682668 -0.04064487 -0.09982330
v -0.02616848 -0.04110056 -0.09982330
v 0.03475054 -0.04200412 -0.02697471
v 0.03948481 -0.02834646 -0.09982330
v -0.02895194 -0.04875093 -0.02697471
v -0.02578784 -0.04132710 -0.09982330
v -0.02873783 -0.04888113 -0.02697471
v 0.03469503 -0.04246762 -0.02697471
v 0.03452849 -0.04383209 -0.02697471
v 0.03452056 -0.04387636 -0.02697471
v 0.03946895 -0.02841155 -0.09973059
v 0.03946895 -0.02841937 -0.09982330
v -0.02533582 -0.04159009 -0.09982330
v -0.02700114 -0.04989927 -0.02697471
v 0.03451263 -0.04390239 -0.02697471
v 0.03394959 -0.04506375 -0.02697471
v 0.03884247 -0.02935158 -0.09982330
v -0.02267924 -0.04309517 -0.09982330
v -0.02516136 -0.05086794 -0.02697471
v 0.03325175 -0.04564704 -0.02697471
v 0.03149920 -0.03712434 -0.09982330
v 0.03251425 -0.03624160 -0.09982330
v 0.03348965 -0.03534845 -0.09982330
v 0.03436196 -0.03448134 -0.09982330
v 0.03536116 -0.03347361 -0.09982330
v 0.03620967 -0.03254661 -0.09982330
v 0.03713750 -0.03149462 -0.09982330
v 0.03794637 -0.03050773 -0.09982330
v -0.02144214 -0.04371751 -0.09982330
v -0.01978475 -0.04448047 -0.09982330
v -0.01884900 -0.04488148 -0.09982330
v -0.01777051 -0.04533456 -0.09982330
v -0.01770706 -0.04536060 -0.09982330
v -0.02329778 -0.05158923 -0.02697471
v 0.03290283 -0.04593086 -0.02697471
v 0.03061103 -0.03785344 -0.09982330
v -0.01583556 -0.04604283 -0.09982330
v -0.02143421 -0.05193034 -0.02697471
v -0.01436056 -0.04651155 -0.09982330
v -0.01346446 -0.04678756 -0.09982330
v -0.01210842 -0.04716513 -0.09982330
v -0.01023691 -0.04759478 -0.09982330
v -0.00837334 -0.04796975 -0.09982330
v 0.03187984 -0.04675892 -0.02697471
v 0.03051586 -0.03792896 -0.09982330
v -0.01956271 -0.05201887 -0.02697471
v -0.00650977 -0.04826139 -0.09982330
v -0.00465412 -0.04845408 -0.09982330
v -0.00380560 -0.04853220 -0.09982330
v -0.00279848 -0.04861813 -0.09982330
v -0.01769913 -0.05201107 -0.02882159
v 0.03084100 -0.04748021 -0.02697471
v 0.02850955 -0.03948091 -0.09982330
v 0.02938186 -0.03881430 -0.09982330
v -0.01396406 -0.05201367 -0.03068274
v -0.00836541 -0.05202148 -0.03255102
v -0.00649391 -0.05202409 -0.03255102
v -0.00277469 -0.05202669 -0.03255102
v 0.01958819 -0.05202409 -0.02697471
v -0.00092698 -0.04869104 -0.09982330
v 0.03056345 -0.04767030 -0.02697471
v 0.02682837 -0.04061883 -0.09982330
v -0.01023691 -0.05200065 -0.03255102
v 0.00094453 -0.05196680 -0.03441930
v 0.00467960 -0.05202409 -0.03255102
v 0.00840675 -0.05202148 -0.03255102
v 0.01774840 -0.05201887 -0.02882159
v 0.02145176 -0.05192774 -0.02697471
v 0.00094453 -0.04867281 -0.09982330
v 0.02958011 -0.04833430 -0.02697471
v 0.02536923 -0.04155364 -0.09982330
v 0.02876331 -0.04886030 -0.02697471
v 0.01027825 -0.05199284 -0.03255102
v 0.01400540 -0.05201627 -0.03068274
v 0.00281603 -0.04861292 -0.09982330
v 0.00318874 -0.04858688 -0.09982330
v 0.00451307 -0.04847491 -0.09982330
v 0.00477476 -0.04844888 -0.09982330
v 0.00653525 -0.04824577 -0.09982330
v 0.00840675 -0.04796975 -0.09982330
v 0.02330741 -0.05157881 -0.02697471
v 0.02707420 -0.04987063 -0.02697471
v 0.02362461 -0.04257439 -0.09982330
v 0.01027825 -0.04759999 -0.09982330
v 0.01214183 -0.04715211 -0.09982330
v 0.02333912 -0.05157100 -0.02697471
v 0.02613052 -0.05039142 -0.02697471
v 0.02269679 -0.04306914 -0.09982330
v 0.01352166 -0.04678496 -0.09982330
v 0.02517891 -0.05086533 -0.02697471
v 0.01444155 -0.04651155 -0.09982330
v 0.01587690 -0.04602981 -0.09982330
v 0.01774048 -0.04532675 -0.09982330
v 0.02147555 -0.04369408 -0.09982330
v 0.01889034 -0.04487887 -0.09982330
v 0.01981816 -0.04448047 -0.09982330
f 2 3 4
f 2 4 5
f 2 5 1
f 1 5 6
f 1 6 7
f 1 7 8
f 1 8 2
f 4 3 9
f 7 6 11
f 7 11 10
f 8 12 13
f 9 15 14
f 9 16 17
f 10 11 18
f 10 18 19
f 10 19 20
f 10 20 21
f 10 21 22
f 7 10 23
f 7 23 8
f 6 5 11
f 3 2 24
f 3 24 9
f 13 25 8
f 8 25 2
f 9 24 15
f 9 14 27
f 9 27 16
f 17 29 4
f 17 4 9
f 4 29 30
f 4 30 5
f 11 5 18
f 18 5 30
f 18 30 19
f 19 30 20
f 20 30 21
f 22 31 23
f 22 23 10
f 22 21 32
f 22 32 33
f 22 33 31
f 8 23 12
f 2 34 24
f 13 34 25
f 25 34 2
f 15 36 14
f 14 36 26
f 26 36 35
f 15 24 36
f 27 14 38
f 16 28 40
f 17 40 29
f 14 26 41
f 26 35 42
f 30 40 21
f 31 33 43
f 31 44 23
f 13 12 45
f 13 46 34
f 36 48 35
f 24 34 48
f 24 48 36
f 27 37 50
f 27 51 16
f 38 52 37
f 38 37 27
f 37 53 49
f 16 54 28
f 28 54 55
f 28 55 39
f 40 28 39
f 40 39 21
f 16 40 17
f 40 30 29
f 26 42 41
f 35 47 42
f 42 47 57
f 33 32 43
f 32 21 39
f 32 39 43
f 13 60 46
f 46 60 34
f 47 45 61
f 47 61 62
f 47 62 63
f 35 45 47
f 37 49 50
f 49 65 64
f 27 50 51
f 51 50 66
f 52 67 53
f 52 53 37
f 53 65 49
f 51 54 16
f 55 56 39
f 39 56 43
f 41 42 68
f 14 41 52
f 14 52 38
f 47 63 69
f 47 69 57
f 57 69 70
f 31 71 44
f 44 72 23
f 12 72 59
f 12 59 58
f 23 72 12
f 13 45 60
f 60 48 34
f 62 73 63
f 48 75 35
f 64 65 76
f 66 50 77
f 66 54 51
f 55 79 56
f 56 80 43
f 42 81 68
f 41 68 52
f 70 42 57
f 43 80 71
f 43 71 31
f 12 58 45
f 45 48 60
f 45 58 61
f 61 85 62
f 63 73 74
f 48 45 75
f 75 45 35
f 76 78 86
f 76 86 64
f 49 64 87
f 49 87 50
f 76 65 78
f 50 87 77
f 66 77 88
f 66 88 54
f 54 88 55
f 52 68 67
f 65 89 78
f 79 90 56
f 56 90 80
f 69 91 82
f 69 82 70
f 82 68 81
f 82 81 70
f 70 81 42
f 83 44 71
f 59 72 92
f 58 59 84
f 61 58 84
f 61 84 85
f 87 95 77
f 68 96 67
f 65 53 89
f 55 88 98
f 55 98 99
f 55 99 79
f 90 79 100
f 90 100 101
f 90 101 102
f 90 102 80
f 80 102 103
f 80 103 71
f 63 104 69
f 69 104 91
f 82 91 89
f 44 83 92
f 92 72 44
f 63 74 105
f 63 105 104
f 78 106 86
f 86 106 94
f 94 98 88
f 94 88 107
f 86 94 87
f 86 87 64
f 77 107 88
f 87 94 95
f 96 82 97
f 96 97 67
f 67 97 53
f 53 97 89
f 101 109 102
f 102 110 111
f 102 111 103
f 103 112 71
f 68 82 96
f 71 112 83
f 92 113 59
f 59 113 84
f 73 93 114
f 73 114 74
f 78 115 116
f 94 107 77
f 94 77 95
f 94 118 119
f 94 119 99
f 94 99 98
f 99 119 100
f 99 100 79
f 100 118 101
f 108 109 101
f 109 110 102
f 103 111 112
f 91 104 115
f 83 120 92
f 112 120 83
f 113 85 84
f 62 113 73
f 73 113 93
f 89 115 78
f 115 122 116
f 116 106 78
f 106 116 117
f 106 117 118
f 106 118 94
f 118 100 119
f 97 82 89
f 109 123 110
f 111 110 124
f 111 121 112
f 91 115 89
f 121 120 112
f 92 120 113
f 62 85 113
f 114 105 74
f 122 117 116
f 101 118 108
f 108 126 109
f 123 109 127
f 124 125 111
f 111 125 128
f 121 111 128
f 105 129 104
f 93 125 114
f 118 117 108
f 108 129 126
f 124 114 125
f 125 93 128
f 120 121 128
f 120 128 113
f 114 124 127
f 105 114 127
f 117 122 108
f 108 122 129
f 109 126 127
f 123 127 110
f 113 128 93
f 105 126 129
f 105 127 126
f 104 129 115
f 124 110 127
f 115 129 122
f 130 131 132
f 130 132 133
f 130 133 134
f 130 134 135
f 130 135 136
f 130 136 137
f 130 137 138
f 130 138 156
f 130 156 164
f 130 164 172
f 130 172 165
f 130 165 158
f 130 158 139
f 130 139 159
f 130 159 166
f 130 166 171
f 130 171 177
f 130 177 185
f 130 185 190
f 130 190 201
f 130 201 200
f 130 200 199
f 130 199 198
f 130 198 197
f 130 197 196
f 130 196 195
f 130 195 194
f 130 194 209
f 130 209 218
f 130 218 227
f 130 227 226
f 130 226 235
f 130 235 244
f 130 244 256
f 130 256 261
f 130 261 267
f 130 267 269
f 130 269 268
f 130 268 266
f 130 266 265
f 130 265 264
f 130 264 262
f 130 262 258
f 130 258 257
f 130 257 253
f 130 253 252
f 130 252 251
f 130 251 250
f 130 250 249
f 130 249 248
f 130 248 242
f 130 242 233
f 130 233 223
f 130 223 222
f 130 222 221
f 130 221 220
f 130 220 216
f 130 216 215
f 130 215 214
f 130 214 213
f 130 213 212
f 130 212 210
f 130 210 206
f 130 206 205
f 130 205 204
f 130 204 203
f 130 203 202
f 130 202 191
f 130 191 186
f 130 186 179
f 130 179 175
f 130 175 174
f 130 174 169
f 130 169 161
f 130 161 160
f 130 160 151
f 130 151 150
f 130 150 149
f 130 149 148
f 130 148 147
f 130 147 146
f 130 146 145
f 130 145 144
f 130 144 143
f 130 143 142
f 130 142 141
f 130 141 140
f 130 140 131
f 131 140 132
f 132 140 141
f 132 141 142
f 132 142 143
f 132 143 144
f 132 144 145
f 132 145 146
f 132 146 147
f 132 147 148
f 132 148 149
f 132 149 150
f 132 150 151
f 132 151 152
f 132 152 162
f 132 162 168
f 132 168 167
f 132 167 173
f 132 173 178
f 132 178 180
f 132 180 187
f 132 187 192
f 132 192 207
f 132 207 211
f 132 211 219
f 132 219 232
f 132 232 241
f 132 241 254
f 132 254 259
f 132 259 263
f 132 263 260
f 132 260 255
f 132 255 245
f 132 245 243
f 132 243 234
f 132 234 225
f 132 225 217
f 132 217 208
f 132 208 193
f 132 193 189
f 132 189 188
f 132 188 183
f 132 183 182
f 132 182 181
f 132 181 176
f 132 176 170
f 132 170 163
f 132 163 155
f 132 155 154
f 132 154 153
f 132 153 135
f 132 135 134
f 132 134 133
f 135 153 136
f 136 153 154
f 136 154 155
f 136 155 137
f 137 156 138
f 137 155 163
f 137 163 157
f 137 157 164
f 137 164 156
f 139 158 159
f 151 160 152
f 152 160 161
f 152 161 162
f 157 163 164
f 158 165 159
f 159 165 163
f 159 163 166
f 161 167 168
f 161 168 162
f 161 169 167
f 163 170 171
f 163 171 166
f 163 165 172
f 163 172 164
f 167 169 174
f 167 174 175
f 167 175 173
f 170 176 177
f 170 177 171
f 173 175 178
f 175 179 180
f 175 180 178
f 176 181 177
f 177 181 182
f 177 182 183
f 177 183 184
f 177 184 185
f 179 186 187
f 179 187 180
f 183 188 185
f 183 185 184
f 185 188 189
f 185 189 190
f 186 191 187
f 187 191 192
f 189 193 194
f 189 194 195
f 189 195 196
f 189 196 197
f 189 197 198
f 189 198 199
f 189 199 200
f 189 200 201
f 189 201 190
f 191 202 192
f 192 202 203
f 192 203 204
f 192 204 205
f 192 205 206
f 192 206 207
f 193 208 209
f 193 209 194
f 206 210 207
f 207 210 212
f 207 212 213
f 207 213 214
f 207 214 215
f 207 215 216
f 207 216 211
f 208 217 209
f 209 217 218
f 211 216 220
f 211 220 221
f 211 221 222
f 211 222 223
f 211 223 224
f 211 224 219
f 217 225 226
f 217 226 227
f 217 227 218
f 219 224 228
f 219 228 229
f 219 229 230
f 219 230 231
f 219 231 232
f 223 233 224
f 224 233 228
f 225 234 226
f 226 234 235
f 228 236 229
f 228 233 236
f 229 236 233
f 229 233 237
f 229 237 230
f 230 237 231
f 231 237 238
f 231 238 232
f 232 238 239
f 232 239 240
f 232 240 241
f 233 242 239
f 233 239 237
f 234 243 235
f 235 243 245
f 235 245 244
f 237 239 238
f 239 246 247
f 239 247 240
f 239 242 246
f 240 247 242
f 240 242 248
f 240 248 241
f 241 248 249
f 241 249 250
f 241 250 251
f 241 251 252
f 241 252 253
f 241 253 254
f 242 247 246
f 244 245 255
f 244 255 256
f 253 257 254
f 254 257 258
f 254 258 259
f 255 260 256
f 256 260 261
f 258 262 259
f 259 262 264
f 259 264 265
f 259 265 266
f 259 266 263
f 260 263 267
f 260 267 261
f 263 266 268
f 263 268 269
f 263 269 267

