# https://github.com/mikedh/trimesh
v -0.04387092 0.00047088 -0.02710367
v -0.04083031 0.12016825 0.00076158
v -0.04331906 0.00497820 -0.03097852
v -0.04031925 0.04801878 0.00650373
v -0.04067570 0.11852923 0.00404739
v -0.03986401 0.12065509 -0.00843768
v -0.04263406 -0.01022334 -0.03122295
v -0.03414353 0.12188842 -0.01836422
v -0.04218742 0.00170015 -0.03255931
v -0.03873451 0.12122308 0.01190929
v 0.00000327 0.12190465 0.03848426
v -0.03608042 0.12099589 -0.01974666
v -0.02769725 0.11361216 -0.03769038
v -0.04264265 -0.01025579 -0.02624615
v -0.03870767 0.04801878 0.01301324
v -0.02766182 0.12184177 0.02679460
v -0.00818663 0.12136912 0.03966234
v 0.00184031 0.12080115 0.04036959
v -0.02953536 0.12102834 -0.03452478
v -0.03114586 0.00784649 -0.03886846
v -0.03341344 0.00047088 -0.03814719
v -0.03763293 0.11934874 0.01586227
v -0.00654607 0.11934874 0.04029346
v 0.01512046 0.12117440 0.03781107
v 0.02428257 0.12179714 0.03058780
v 0.03566394 0.12186813 0.01347005
v 0.03607408 0.12188842 -0.01315501
v -0.01638298 0.12179308 -0.03571088
v -0.01559491 0.11882539 -0.03904177
v -0.04028059 -0.01700662 -0.02609789
v -0.03445704 0.04553590 0.02129387
v -0.03509372 0.11975850 0.02086912
v -0.03127040 0.12016825 0.02631876
v -0.02632296 0.12109324 0.03118335
v -0.02012577 0.12067132 0.03545090
v -0.00081271 0.04801878 0.04088049
v 0.01118387 0.12021086 0.03919251
v 0.04082827 0.12016825 -0.00085728
v 0.02745256 0.12180322 -0.03325053
v 0.01511617 0.12132856 -0.03734176
v -0.03736452 -0.02262149 -0.03128506
v -0.03635957 0.04801878 0.01866322
v 0.00696276 0.04801878 0.04022133
v 0.02443128 0.12063075 0.03264193
v 0.03126837 0.12016825 0.02631876
v 0.03934876 0.12066321 0.01038459
v 0.03607838 0.12099589 -0.01973865
v -0.00080412 0.12076869 -0.03920506
v -0.01269817 0.11278453 -0.04021684
v -0.03190172 -0.01019088 -0.03812715
v -0.03696512 -0.02344100 -0.02616601
v -0.02988108 0.04567384 0.02736260
v -0.03204022 0.04801878 0.02523083
v -0.01356139 0.11975850 0.03850630
v -0.00857100 0.04801878 0.03994885
v 0.04075741 0.11852923 0.00281521
v 0.04387747 0.00047088 -0.02710367
v 0.04332561 0.00497820 -0.03097451
v 0.04027211 0.12016825 -0.00659342
v 0.03872604 0.12041167 -0.01284046
v 0.02953332 0.12101211 -0.03452478
v -0.02641315 -0.00362668 -0.03947754
v -0.02638309 0.04801878 0.03123144
v -0.02075709 0.04801878 0.03515838
v -0.01392859 0.04801878 0.03842816
v 0.03716493 0.12016825 0.01691413
v 0.02768662 0.11361216 -0.03769038
v -0.03379996 -0.02764404 -0.03139124
v -0.03224100 -0.02933986 -0.02598770
v -0.01234386 0.04553590 0.03850029
v -0.00490552 0.04504501 0.03974248
v 0.00122510 0.04487056 0.03989475
v 0.00987239 0.04555213 0.03930972
v 0.01483272 0.04801878 0.03807954
v 0.02142179 0.04801878 0.03473062
v 0.02849187 0.04801878 0.02925595
v 0.03396863 0.04801878 0.02260820
v 0.03880119 0.04801878 0.01281088
v 0.04031720 0.04801878 0.00650373
v 0.04214243 0.00374893 -0.03252124
v 0.00061848 0.11195692 -0.04086098
v -0.01638942 0.02341721 -0.04041920
v -0.02452135 -0.02083287 -0.03854314
v -0.02615117 0.04576310 0.03103109
v -0.01979079 0.04549534 0.03526257
v -0.00573438 -0.04324722 -0.02588552
v 0.00574093 -0.04324722 -0.02588552
v 0.02742035 0.04567384 0.02983096
v 0.03527098 0.04595783 0.02006170
v 0.04184610 -0.01274678 -0.03125100
v 0.03115241 0.00405625 -0.03888900
v 0.03340281 -0.00198765 -0.03813918
v 0.01307996 0.11759815 -0.03970544
v -0.01369171 -0.01153400 -0.04007121
v -0.02637450 -0.03490605 -0.03132713
v -0.01228803 -0.04172179 -0.02580537
v 0.01229458 -0.04172179 -0.02580537
v 0.01483701 0.04551968 0.03769086
v 0.02136489 0.04553590 0.03441306
v 0.03108799 0.04576310 0.02609436
v 0.04264920 -0.01025579 -0.02624615
v 0.01825556 0.11361216 -0.03949757
v -0.02462443 -0.03587567 -0.02597367
v -0.00834554 -0.04302003 -0.03124699
v 0.01985317 -0.03875613 -0.02595364
v 0.03224755 -0.02933986 -0.02598770
v 0.04106018 -0.01528646 -0.02615800
v -0.01269978 -0.02812581 -0.03890052
v 0.00835209 -0.04302003 -0.03124699
v 0.02728293 -0.03415956 -0.02604179
v 0.03697167 -0.02344100 -0.02616601
v 0.01121796 0.11247418 -0.04035033
v -0.01979750 -0.02877138 -0.03719601
v 0.02862017 -0.03297696 -0.03085830
v 0.03695878 -0.02342477 -0.03127905
v 0.02982805 -0.01495074 -0.03801345
v 0.02293043 -0.00878704 -0.03956494
v -0.00491411 0.01645136 -0.04094413
v -0.01983374 -0.03897115 -0.03130710
v 0.01984029 -0.03897115 -0.03130710
v 0.00894072 0.00881966 -0.04073025
v -0.00265914 -0.03591497 -0.03652113
v 0.01496049 0.02244404 -0.04049484
v 0.00662349 -0.03549026 -0.03651430
v 0.02295821 -0.02331118 -0.03851183
v -0.00137799 -0.01669018 -0.04013495
v -0.01288069 -0.03471132 -0.03607953
v 0.01659782 -0.03139676 -0.03680031
v 0.00410038 -0.03068679 -0.03901272
f 1 4 5
f 1 5 2
f 2 3 1
f 2 6 3
f 3 9 7
f 3 7 1
f 5 10 2
f 2 10 6
f 3 6 12
f 3 13 9
f 1 7 14
f 1 14 15
f 1 15 4
f 4 15 5
f 10 8 6
f 11 16 17
f 11 17 18
f 11 27 8
f 11 8 16
f 6 8 12
f 3 12 19
f 3 19 13
f 13 20 21
f 13 21 9
f 9 21 7
f 10 5 22
f 8 10 16
f 17 23 18
f 11 18 24
f 11 24 25
f 11 25 26
f 11 26 27
f 8 28 19
f 8 27 39
f 8 39 28
f 13 19 29
f 14 30 31
f 14 31 15
f 10 22 32
f 5 15 22
f 10 33 16
f 16 34 35
f 16 35 17
f 23 36 18
f 24 18 37
f 26 38 27
f 28 39 40
f 16 33 34
f 8 19 12
f 7 30 14
f 31 42 15
f 10 32 33
f 32 22 42
f 18 36 43
f 25 24 44
f 25 44 45
f 25 45 26
f 26 45 46
f 40 48 28
f 13 29 49
f 13 49 20
f 20 50 21
f 21 50 7
f 30 51 52
f 30 52 31
f 31 53 42
f 42 22 15
f 17 35 54
f 17 54 23
f 23 55 36
f 18 43 37
f 26 46 38
f 38 46 56
f 38 57 58
f 27 38 47
f 38 58 59
f 47 38 60
f 27 47 39
f 39 47 61
f 39 61 40
f 20 62 50
f 52 53 31
f 53 32 42
f 32 53 33
f 33 63 34
f 35 63 64
f 23 54 55
f 36 55 70
f 45 66 46
f 56 57 38
f 38 59 60
f 61 47 58
f 61 58 67
f 28 48 19
f 7 50 41
f 41 51 30
f 41 30 7
f 51 69 52
f 33 53 63
f 35 34 63
f 35 65 54
f 36 70 71
f 36 71 72
f 36 73 43
f 37 74 24
f 24 75 44
f 44 75 76
f 45 44 76
f 45 77 66
f 66 77 78
f 66 78 46
f 56 46 79
f 57 56 79
f 58 80 67
f 58 60 59
f 60 58 47
f 48 29 19
f 62 20 82
f 20 49 82
f 62 83 50
f 68 69 51
f 68 51 41
f 69 84 52
f 52 63 53
f 63 52 84
f 63 84 85
f 63 85 64
f 64 65 35
f 54 65 55
f 71 86 72
f 72 86 87
f 36 72 73
f 43 74 37
f 24 74 75
f 76 75 88
f 76 77 45
f 77 89 78
f 46 78 79
f 58 90 80
f 67 80 92
f 67 92 91
f 61 67 40
f 40 67 93
f 40 93 48
f 81 29 48
f 62 94 83
f 68 95 69
f 65 64 70
f 70 64 85
f 65 70 55
f 70 96 71
f 71 96 86
f 72 87 73
f 73 87 97
f 43 73 74
f 75 98 99
f 75 99 88
f 76 88 77
f 77 100 89
f 79 78 57
f 57 101 58
f 81 49 29
f 50 83 41
f 69 85 84
f 85 69 103
f 85 103 70
f 70 103 96
f 86 104 87
f 73 97 105
f 73 105 98
f 74 73 98
f 74 98 75
f 88 99 106
f 77 88 100
f 89 107 101
f 101 78 89
f 78 101 57
f 90 92 80
f 91 102 67
f 67 102 93
f 48 93 81
f 83 94 108
f 87 104 109
f 98 105 110
f 98 110 99
f 99 110 106
f 88 106 111
f 88 111 100
f 100 111 107
f 89 100 107
f 107 90 101
f 101 90 58
f 91 112 102
f 49 81 82
f 82 94 62
f 41 83 68
f 92 116 91
f 93 102 112
f 93 112 81
f 81 118 82
f 83 108 113
f 68 83 113
f 68 113 95
f 95 103 69
f 103 119 104
f 103 104 96
f 96 104 86
f 87 109 97
f 97 109 120
f 97 120 105
f 114 115 106
f 106 115 111
f 90 107 115
f 90 115 116
f 90 116 92
f 91 116 117
f 91 117 112
f 81 121 118
f 94 82 118
f 103 95 119
f 104 122 109
f 105 120 114
f 105 114 110
f 110 114 106
f 111 115 107
f 112 123 81
f 81 123 121
f 122 124 109
f 117 116 125
f 117 123 112
f 108 122 127
f 108 127 113
f 119 95 113
f 119 127 104
f 109 128 120
f 114 125 115
f 94 118 126
f 108 94 126
f 109 124 128
f 125 114 120
f 117 121 123
f 108 129 122
f 119 113 127
f 125 120 128
f 125 116 115
f 108 126 129
f 104 127 122
f 121 126 118
f 122 129 124
f 124 129 128
f 129 117 125
f 125 128 129
f 121 117 126
f 129 126 117

