# https://github.com/mikedh/trimesh
v 0.18092149 0.28298759 0.04880944
v -0.18086571 0.28298759 0.04884506
v 0.08415896 0.27384454 0.19630986
v 0.18092149 0.28138062 0.03896065
v 0.23989093 0.27672601 0.04150744
v -0.17411090 0.28049403 0.03716186
v -0.08528526 0.27650434 0.18863386
v 0.06473890 0.27439865 0.19988963
v 0.22536810 0.27982908 0.05587991
v -0.25449306 0.27356750 0.04102657
v -0.07055979 0.27387226 0.19951563
v 0.20528945 0.26948774 0.02782064
v -0.17500591 0.27353978 0.02787407
v -0.00007343 0.12556109 0.35807592
v -0.00334951 0.23306106 0.00042032
v -0.01939216 0.12400953 0.35674018
v 0.02164326 0.12356623 0.35640177
v -0.26791823 0.19745861 -0.00144970
v 0.25806135 0.27262548 0.05908567
v 0.28690434 0.25949275 0.04170334
v -0.24550073 0.26333699 0.02795866
v -0.22537985 0.27982908 0.05577305
v 0.24043131 0.25965899 0.16516060
v 0.27359739 0.24602756 0.16512498
v 0.21921279 0.19263774 -0.00155656
v -0.00003965 0.22175694 -0.00307038
v -0.24044307 0.25960356 0.16516060
v -0.26695567 0.24940769 0.16514279
v -0.00003965 -0.11771303 0.35999936
v 0.01931285 -0.12404389 0.35672235
v 0.03555816 0.12159909 0.35006154
v 0.19145900 0.17138709 0.24697863
v -0.26280147 0.18762292 -0.00335534
v -0.28056657 0.19280398 0.00070527
v -0.28872302 0.24256428 0.02820355
v 0.27920386 0.24962935 0.02810559
v 0.29082212 0.25647280 0.05801709
v -0.03563746 0.11988131 0.35006151
v 0.30048150 0.21876468 0.16501811
v 0.21503325 -0.18762957 -0.00317725
v -0.26280147 -0.18768498 -0.00339097
v 0.31742761 0.19698761 0.02785626
v -0.28124207 -0.18768498 0.00034908
v -0.31682301 0.22072142 0.03652070
v -0.28691611 0.25949275 0.04173897
v 0.31446394 0.23272859 0.04124029
v -0.26832351 0.26846263 0.05905005
v -0.29741982 0.22250500 0.16523184
v -0.27874279 0.17399149 0.19148342
v -0.30792353 0.03579306 0.19949780
v -0.03560369 -0.12166116 0.35002589
v -0.02172257 -0.12362830 0.35636616
v -0.00003965 -0.12556773 0.35805809
v 0.03589590 -0.11941696 0.35020399
v 0.30816507 0.03159557 0.19972934
v -0.00174524 -0.22741565 -0.00127161
v -0.27955338 -0.19760379 0.00113272
v 0.33222908 0.09896315 0.02772268
v 0.32898676 -0.15349555 0.02756240
v 0.30008465 -0.22801133 0.02809669
v -0.33460501 -0.07159609 0.02823917
v -0.32771513 0.17122087 0.02827479
v -0.31064233 0.19819283 0.16338852
v -0.32229438 0.13286166 0.16297890
v -0.30815995 -0.03147754 0.19969372
v -0.29704830 0.25086921 0.05907231
v -0.19180848 -0.17233576 0.24729921
v -0.27354160 -0.24603420 0.16508935
v -0.24496879 -0.25916693 0.16409200
v -0.07623383 -0.27340791 0.19914162
v 0.07044671 -0.27390662 0.19951563
v 0.24043131 -0.25961021 0.16516060
v 0.26697767 -0.24941434 0.16516060
v 0.30811444 -0.03327845 0.19967590
v 0.32513654 0.05801342 0.16142054
v 0.32081348 0.15105076 0.16491126
v 0.31426129 0.18579431 0.16516060
v 0.32000288 0.22386260 0.05908567
v 0.24333587 -0.26353064 0.02782064
v 0.34128052 -0.09570047 0.03518497
v -0.32771933 -0.17128552 0.02964391
v -0.34139359 0.01889229 0.03497125
v -0.33804998 0.16850565 0.04140058
v -0.32523271 -0.02890087 0.16142054
v -0.32065636 -0.15321849 0.16455506
v -0.31709319 0.22811551 0.05992273
v -0.30393821 -0.21209413 0.16505374
v -0.21247819 -0.26625970 0.15885594
v 0.08865090 -0.27617851 0.18863386
v 0.28465837 -0.21638858 0.17490253
v 0.27873105 -0.17394271 0.19148342
v 0.28913343 -0.23448072 0.16142054
v 0.32061082 -0.15554582 0.16419886
v 0.32473123 -0.08187509 0.16142054
v 0.34323940 0.09941337 0.05915246
v 0.32135385 -0.21954708 0.04097315
v -0.17596847 -0.27351871 0.02793640
v -0.26918474 -0.25474778 0.02805216
v 0.33810574 0.16850565 0.04145401
v 0.34128052 -0.15072493 0.04184582
v -0.34122473 -0.15078035 0.04181020
v -0.33929959 0.15842061 0.06061731
v -0.34439948 -0.02388605 0.05905005
v -0.34110650 -0.14752488 0.05991382
v -0.29053837 -0.25567594 0.05851576
v -0.25348827 -0.27361569 0.05905005
v -0.22544742 -0.27989113 0.05584430
v -0.02050670 -0.27836731 0.18863386
v 0.22351053 -0.27989116 0.05646763
v 0.26417443 -0.27002776 0.04116905
v 0.28984269 -0.25733832 0.05021641
v 0.34453127 -0.04118163 0.05222891
v 0.33666191 0.17672054 0.05953092
v 0.20048510 -0.28011972 0.03982887
v 0.16045445 -0.27390662 0.02752678
v -0.23986891 -0.27670494 0.04148963
v -0.28036395 -0.26307350 0.04150744
v -0.31440815 -0.23273523 0.04120468
v -0.33156535 -0.19630159 0.04086629
v -0.34369022 0.09885232 0.05905005
v -0.31396908 -0.18798976 0.16455506
v -0.18086571 -0.28304964 0.04884506
v 0.18092149 -0.28296652 0.04882725
v 0.30423042 -0.21267596 0.16321933
v 0.31719965 -0.22824682 0.05905005
v 0.34085834 -0.14760800 0.05915691
v -0.31881565 -0.22471428 0.05992273
v 0.32996622 -0.20065841 0.05994944
v -0.33520451 -0.18348750 0.05905005
v 0.05117233 0.06066242 0.23995602
v -0.00339581 0.05069248 0.34572974
v 0.01363671 0.05053168 0.34572974
v 0.03070928 0.05047807 0.33890823
v 0.04452484 0.04991228 0.32881400
v 0.05118568 0.05014455 0.31842068
v 0.05859403 0.05838732 0.23995602
v -0.04512282 0.06060286 0.23995602
v 0.00000135 0.04922141 0.35206810
v 0.01705389 0.04894149 0.35088325
v 0.03555473 0.04841738 0.34326801
v 0.05503001 0.04813150 0.32259640
v 0.05663181 0.04889980 0.31500992
v 0.06161743 0.04792901 0.30584747
v 0.06533495 0.05168113 0.23995602
v -0.05119633 0.06045992 0.23995602
v -0.01364069 0.05052572 0.34572974
v -0.00339581 0.04691653 0.35549611
v 0.00680902 0.04629713 0.35525456
v -0.01364069 0.04907252 0.35129163
v 0.02741223 0.04782180 0.34920377
v 0.06214469 0.04317632 0.31040281
v 0.06406686 0.04435556 0.29796764
v -0.05801735 0.05798233 0.23995602
v -0.05733658 0.04915590 0.31159917
v -0.05118298 0.05015646 0.31842068
v -0.03070658 0.05041851 0.33890823
v -0.01376750 0.04106798 0.35600227
v 0.00339851 0.04348601 0.35671547
v 0.01387698 0.04119901 0.35603678
v 0.04132123 0.04187796 0.34263530
v 0.04768841 0.04447467 0.33541694
v 0.05478974 0.04435556 0.32569656
v 0.06194447 0.03751834 0.31322688
v 0.06422704 0.03751834 0.30477765
v 0.06522816 0.03751834 0.29796764
v 0.06795791 0.04423644 0.23995602
v 0.05986212 0.03751834 0.31842068
v -0.06535896 0.05162158 0.23995602
v -0.06161473 0.04793496 0.30584747
v -0.05502731 0.04813150 0.32259640
v -0.04119840 0.04925119 0.33577356
v -0.02740953 0.04782180 0.34920377
v -0.00339581 0.03751834 0.35746321
v 0.00339851 0.03751834 0.35747468
v 0.02387491 0.03751834 0.35289636
v 0.03308529 0.03751834 0.34858257
v 0.05445603 0.03751834 0.32842863
v 0.06143722 -0.04096662 0.31501567
v 0.06420034 -0.03754802 0.30477765
v 0.06516142 -0.03754802 0.29796764
v 0.06813811 -0.04437331 0.23995602
v 0.05452277 -0.03754802 0.32854366
v -0.06816211 0.04435556 0.23995602
v -0.06405081 0.04435556 0.29796764
v -0.06212865 0.04317632 0.31041431
v -0.03556539 0.04840547 0.34326801
v -0.02388556 0.03751834 0.35295385
v -0.04070451 0.04412924 0.34211192
v -0.03028611 0.04435556 0.34882990
v -0.00339581 -0.03754802 0.35741720
v 0.00339851 -0.03754802 0.35741720
v 0.01395707 -0.04127632 0.35605979
v 0.02387491 -0.03754802 0.35295385
v 0.04149476 0.03751834 0.34278485
v 0.04846261 0.03751834 0.33622792
v 0.03305859 -0.03754802 0.34854805
v 0.06404015 -0.04437331 0.29796764
v -0.06521212 0.03751834 0.29796764
v -0.06418429 0.03751834 0.30477765
v -0.05478704 0.04435556 0.32568508
v -0.04717847 0.04671403 0.33484751
v -0.06139449 0.03751834 0.31493515
v -0.02388556 -0.03754802 0.35296538
v -0.03308259 0.03751834 0.34857106
v -0.01384759 -0.04115720 0.35601375
v 0.04832245 -0.03987076 0.33608413
v 0.02738553 -0.04783956 0.34919226
v 0.04128119 -0.04182425 0.34258932
v 0.04145471 -0.03754802 0.34273884
v 0.05377526 -0.04437331 0.32747385
v 0.06143722 -0.04779192 0.30821717
v 0.06534830 -0.05165124 0.23995602
v -0.06806867 -0.04437331 0.23995602
v -0.06522547 -0.03754802 0.29796764
v -0.05545446 0.03751834 0.32668012
v -0.04829306 0.03984109 0.33605537
v -0.06422434 -0.03754802 0.30477765
v -0.06062696 -0.03754802 0.31666639
v -0.05446668 -0.03754802 0.32846314
v -0.03309594 -0.03754802 0.34857106
v -0.04146537 0.03751834 0.34275034
v -0.01023018 -0.04564784 0.35503596
v -0.02735614 -0.04781574 0.34916925
v -0.00339581 -0.04693429 0.35548460
v 0.00000135 -0.04352164 0.35669822
v 0.00680902 -0.04635658 0.35527754
v 0.03554139 -0.04844705 0.34326801
v 0.04714112 -0.04674370 0.33482450
v 0.05501666 -0.04813735 0.32259640
v 0.05593770 -0.04868528 0.31842068
v 0.05803339 -0.05804773 0.23995602
v -0.04844657 -0.03754802 0.33621642
v -0.01705120 -0.04897116 0.35087174
v 0.00000135 -0.04923917 0.35207960
v 0.01705389 -0.04897116 0.35088325
v 0.05118568 -0.05007892 0.31842068
v 0.05117233 -0.06059679 0.23995602
v -0.06405081 -0.04437331 0.29796764
v -0.06212865 -0.04315833 0.31039131
v -0.05479372 -0.04437331 0.32571381
v -0.04821964 -0.04219351 0.33598638
v -0.04126514 -0.04180042 0.34257782
v -0.03555204 -0.04843514 0.34326801
v -0.01705120 -0.05042436 0.34572974
v 0.00680902 -0.05067450 0.34572974
v 0.01705389 -0.05041245 0.34572974
v 0.03070928 -0.05044818 0.33890823
v 0.04118775 -0.04925108 0.33575630
v -0.05119633 -0.06102561 0.23995602
v -0.06539232 -0.05177036 0.23995602
v -0.06158804 -0.04792294 0.30572668
v -0.05500062 -0.04812544 0.32258490
v -0.04712508 -0.04674370 0.33481300
v -0.03070658 -0.05044818 0.33890823
v -0.04450212 -0.04988239 0.32880250
v -0.05118298 -0.05010275 0.31842068
v -0.05660242 -0.04890564 0.31500992
v -0.05868477 -0.05854801 0.23995602
f 1 5 4
f 1 4 2
f 2 4 6
f 2 7 1
f 1 7 8
f 1 8 3
f 1 3 9
f 7 11 8
f 1 9 5
f 4 13 6
f 6 13 10
f 6 10 2
f 11 14 8
f 8 14 3
f 4 12 13
f 4 5 12
f 11 16 14
f 14 17 3
f 12 15 13
f 15 18 13
f 5 9 19
f 13 18 21
f 13 21 10
f 7 2 22
f 3 17 23
f 17 24 23
f 3 23 9
f 9 23 19
f 12 25 15
f 15 25 26
f 15 26 18
f 5 19 20
f 10 22 2
f 22 27 7
f 7 27 11
f 11 27 16
f 16 27 28
f 16 29 14
f 14 29 17
f 17 29 30
f 17 31 32
f 17 32 24
f 26 33 18
f 18 33 34
f 18 34 35
f 18 35 21
f 5 20 36
f 16 28 38
f 32 39 24
f 12 36 25
f 26 25 40
f 26 40 41
f 26 41 33
f 25 36 42
f 33 41 43
f 33 43 34
f 34 44 35
f 23 24 19
f 19 37 20
f 20 37 46
f 20 46 36
f 5 36 12
f 10 47 22
f 22 47 27
f 38 49 50
f 38 28 48
f 16 38 51
f 16 51 29
f 29 51 52
f 29 52 53
f 29 53 30
f 30 31 17
f 31 30 54
f 31 54 55
f 31 55 32
f 24 37 19
f 40 56 41
f 41 56 57
f 41 57 43
f 25 42 58
f 25 58 40
f 36 46 42
f 40 58 59
f 40 59 60
f 43 61 34
f 44 34 62
f 21 35 10
f 35 45 10
f 45 47 10
f 27 47 28
f 38 48 63
f 38 63 49
f 50 63 64
f 50 49 63
f 38 50 65
f 38 65 51
f 28 47 66
f 28 66 48
f 52 51 67
f 52 67 68
f 52 68 69
f 52 70 53
f 52 69 70
f 53 70 71
f 53 71 30
f 30 71 72
f 30 72 73
f 30 73 54
f 54 74 55
f 55 75 76
f 55 76 77
f 55 77 32
f 32 77 39
f 24 78 37
f 40 60 79
f 34 61 62
f 43 57 81
f 43 81 61
f 62 83 44
f 35 44 45
f 47 45 66
f 65 84 85
f 48 66 86
f 67 87 68
f 69 88 70
f 54 73 90
f 54 90 91
f 54 91 74
f 74 94 75
f 74 75 55
f 75 112 95
f 39 78 24
f 40 79 56
f 57 97 98
f 57 56 97
f 42 99 58
f 58 80 59
f 59 100 96
f 59 96 60
f 61 81 101
f 61 101 82
f 61 82 62
f 37 78 46
f 45 44 66
f 50 64 84
f 50 84 65
f 84 103 104
f 84 104 85
f 51 65 67
f 68 105 69
f 69 105 106
f 88 106 107
f 70 108 71
f 71 108 89
f 71 89 72
f 73 72 110
f 73 110 111
f 73 111 92
f 93 94 74
f 94 112 75
f 75 95 76
f 77 76 113
f 39 77 78
f 79 110 114
f 79 115 56
f 56 115 97
f 97 116 98
f 58 99 80
f 80 112 100
f 59 80 100
f 62 82 83
f 57 118 119
f 81 57 119
f 48 86 63
f 63 102 64
f 102 120 64
f 64 120 103
f 64 103 84
f 85 121 65
f 65 121 67
f 87 67 121
f 106 105 116
f 69 106 88
f 70 107 108
f 108 107 122
f 108 122 123
f 108 123 89
f 89 123 109
f 89 109 72
f 72 109 110
f 73 92 124
f 73 124 90
f 90 124 91
f 92 111 125
f 93 126 94
f 94 126 112
f 112 99 95
f 95 113 76
f 113 78 77
f 78 99 46
f 60 111 110
f 79 60 110
f 79 114 115
f 98 116 117
f 80 99 112
f 46 99 42
f 82 120 83
f 117 118 98
f 98 118 57
f 119 101 81
f 101 103 82
f 82 103 120
f 44 86 66
f 63 86 102
f 120 102 83
f 87 127 68
f 68 127 105
f 105 117 116
f 88 107 70
f 106 116 107
f 109 114 110
f 92 125 124
f 91 93 74
f 93 91 124
f 93 128 126
f 113 95 99
f 113 99 78
f 60 96 111
f 115 114 97
f 44 83 86
f 86 83 102
f 85 104 129
f 85 129 121
f 87 121 127
f 105 118 117
f 107 116 122
f 122 116 97
f 122 97 114
f 122 114 123
f 123 114 109
f 124 125 128
f 124 128 93
f 126 100 112
f 96 125 111
f 118 127 119
f 101 119 104
f 101 104 103
f 121 129 127
f 127 118 105
f 100 126 128
f 100 128 96
f 119 129 104
f 129 119 127
f 125 96 128
f 130 131 132
f 130 132 133
f 130 133 134
f 130 134 135
f 130 135 136
f 130 136 144
f 130 144 166
f 130 166 181
f 130 181 212
f 130 212 231
f 130 231 237
f 130 237 249
f 130 249 258
f 130 258 250
f 130 250 213
f 130 213 183
f 130 183 168
f 130 168 153
f 130 153 145
f 130 145 137
f 130 137 131
f 131 138 132
f 132 138 139
f 132 139 133
f 133 139 140
f 133 140 134
f 135 141 142
f 135 142 136
f 135 134 141
f 136 142 143
f 136 143 144
f 137 145 146
f 137 146 131
f 131 146 138
f 138 147 148
f 138 148 139
f 138 146 149
f 138 149 147
f 139 148 150
f 139 150 140
f 134 140 141
f 142 141 143
f 143 151 152
f 143 141 151
f 143 152 144
f 145 153 154
f 145 154 155
f 145 155 156
f 145 156 146
f 147 157 158
f 147 158 148
f 148 158 159
f 148 159 150
f 150 160 140
f 140 161 141
f 141 162 151
f 141 161 162
f 151 163 164
f 151 164 152
f 152 164 165
f 152 165 166
f 152 166 144
f 151 162 167
f 151 167 163
f 153 168 169
f 153 169 154
f 154 170 155
f 154 169 170
f 155 170 171
f 155 171 156
f 146 156 149
f 149 156 172
f 149 172 147
f 147 172 157
f 157 173 158
f 158 173 174
f 158 174 159
f 159 175 150
f 140 160 161
f 150 175 176
f 150 176 160
f 162 161 177
f 162 177 167
f 163 167 178
f 163 178 164
f 164 178 179
f 164 179 165
f 165 180 181
f 165 181 166
f 165 179 180
f 167 177 182
f 168 183 184
f 168 184 169
f 169 184 185
f 169 185 170
f 171 170 186
f 171 186 156
f 156 186 172
f 157 172 187
f 172 186 188
f 172 188 189
f 173 157 190
f 174 173 190
f 174 190 191
f 174 191 159
f 159 191 192
f 175 159 193
f 160 176 194
f 160 194 195
f 160 195 161
f 176 175 193
f 161 195 177
f 179 197 180
f 179 178 197
f 180 197 181
f 167 182 178
f 183 198 184
f 184 198 199
f 170 185 200
f 170 200 201
f 184 199 185
f 185 199 202
f 185 202 200
f 170 201 186
f 186 201 188
f 172 189 187
f 187 203 157
f 187 189 204
f 187 204 203
f 157 205 190
f 189 188 204
f 192 193 159
f 193 207 196
f 193 196 176
f 193 192 207
f 196 208 209
f 196 209 176
f 196 207 208
f 176 209 194
f 195 182 177
f 182 206 210
f 178 182 210
f 197 178 211
f 181 197 212
f 197 211 212
f 183 213 214
f 183 214 198
f 200 202 215
f 200 215 216
f 201 200 216
f 201 216 188
f 202 199 217
f 202 218 219
f 202 219 215
f 203 205 157
f 204 220 203
f 188 216 221
f 188 221 204
f 205 203 223
f 205 223 222
f 205 222 224
f 205 224 225
f 205 225 190
f 190 225 191
f 191 225 192
f 192 225 226
f 194 209 195
f 195 209 206
f 206 182 195
f 208 207 227
f 208 227 206
f 208 206 209
f 206 228 210
f 210 228 229
f 210 229 178
f 211 178 229
f 211 229 230
f 211 230 231
f 212 211 231
f 214 217 198
f 198 217 199
f 215 219 216
f 203 220 223
f 221 216 232
f 221 220 204
f 222 223 233
f 222 233 224
f 224 233 234
f 224 234 226
f 224 226 225
f 226 234 235
f 226 235 207
f 226 207 192
f 227 228 206
f 228 227 229
f 230 229 236
f 230 236 237
f 230 237 231
f 214 238 217
f 214 213 238
f 217 238 239
f 216 219 232
f 219 240 241
f 202 217 218
f 218 239 240
f 218 240 219
f 223 220 242
f 232 219 241
f 221 242 220
f 221 232 242
f 232 241 242
f 223 242 243
f 223 243 244
f 223 244 233
f 233 244 234
f 234 244 245
f 234 245 235
f 235 245 246
f 235 246 207
f 207 246 227
f 227 246 247
f 227 247 248
f 227 248 229
f 229 248 236
f 237 236 247
f 237 247 246
f 237 246 245
f 237 245 249
f 213 250 238
f 238 250 251
f 238 251 239
f 239 218 217
f 240 239 252
f 240 252 253
f 241 240 253
f 239 251 252
f 242 241 243
f 243 241 253
f 243 254 244
f 244 254 249
f 244 249 245
f 248 247 236
f 249 254 255
f 249 255 256
f 249 256 257
f 249 257 258
f 251 250 258
f 251 258 257
f 251 257 252
f 253 252 243
f 243 252 255
f 243 255 254
f 256 252 257
f 256 255 252

