# https://github.com/mikedh/trimesh
v 0.04626321 -0.00316628 0.00483011
v 0.04601372 -0.00153256 -0.01258017
v 0.04591105 0.01075662 0.01350377
v 0.04562263 0.02127915 -0.00341004
v 0.04591523 -0.01416866 -0.00946453
v 0.04562054 0.01197342 -0.01722698
v 0.04570832 -0.00694749 0.01912838
v 0.04571459 -0.01766800 0.00847733
v 0.04478664 0.02449003 0.01746582
v 0.04475320 -0.00046541 0.03010759
v 0.04481799 0.00728178 -0.02887399
v 0.04476992 -0.02836211 -0.01000701
v 0.04477410 -0.02544348 0.01596915
v 0.04487024 -0.00338405 -0.02969135
v 0.04478246 0.02447871 -0.01734020
v 0.04483053 0.01608859 0.02483171
v 0.04466856 -0.01690818 0.02485592
v 0.04476992 -0.01858809 -0.02366593
v 0.04477828 0.01714065 -0.02464918
v 0.04476678 0.02849466 0.00923172
v 0.04462466 0.02960895 -0.00376362
v 0.04479500 -0.02888626 0.00807410
v 0.04479709 -0.01007729 -0.02810144
v 0.03414444 -0.00156273 -0.05221403
v 0.03354252 0.00450456 -0.05210748
v 0.03179111 0.00562261 -0.05252887
v 0.03886781 0.02836646 -0.02364655
v 0.03936104 -0.03638623 0.00099217
v 0.03892632 -0.02936516 0.02233847
v -0.01921182 -0.00012132 -0.06038154
v 0.03921160 0.03625954 -0.00407361
v 0.03896603 0.03063462 0.02020729
v 0.04458234 0.00857283 0.02898569
v 0.03984591 0.00023596 0.03598770
v 0.03939448 -0.00977563 0.03504320
v 0.03892632 -0.03278909 -0.01685100
v 0.03303257 -0.00588035 -0.05207841
v 0.03890751 0.03377384 -0.01463264
v 0.02951721 0.00968570 -0.05217529
v 0.03895140 0.03623997 0.00685836
v 0.03894304 0.02255181 0.02920668
v 0.03915361 -0.03447936 0.01198833
v 0.03797486 -0.02053808 0.03075360
v 0.03891796 -0.03622055 -0.00712023
v 0.03885108 -0.02835457 -0.02364655
v -0.02598441 -0.00072937 -0.06013330
v -0.02129031 0.00413501 -0.06011876
v 0.03966095 0.01592833 0.03239739
v 0.03772667 -0.00155707 0.03704603
v 0.02951721 -0.00968701 -0.05217529
v -0.02226842 -0.00410428 -0.06009455
v 0.02532261 0.01188410 -0.05220919
v 0.03742154 0.03692815 -0.00285666
v 0.03770159 0.03582235 -0.00951781
v 0.03742154 0.03296123 0.01696088
v 0.03799837 0.03524447 0.01159539
v 0.03741944 -0.03702468 0.00100731
v 0.03755320 -0.00963422 0.03574189
v 0.03757619 0.00311123 0.03691525
v 0.03742154 -0.02533036 0.02710456
v 0.02532261 -0.01188541 -0.05220919
v -0.00365920 0.01686538 -0.05228185
v 0.00366411 0.01686538 -0.05227216
v 0.03742154 0.03688102 0.00383596
v -0.02983834 0.03402649 0.01795623
v 0.03755320 0.02971076 0.02213746
v 0.03742154 0.02533470 0.02710456
v 0.03782699 0.01098475 0.03534411
v 0.03768069 0.01765349 0.03262141
v 0.03783744 -0.01566945 0.03359255
v -0.03010168 -0.00110080 0.03846883
v -0.03370586 -0.02397709 0.03004523
v 0.03742154 -0.03287958 0.01714130
v 0.00414898 -0.01682333 -0.05225278
v -0.00365920 -0.01686858 -0.05228185
v -0.03477906 0.01194443 -0.05218497
v -0.03748978 0.03307247 -0.01957794
v 0.00024489 0.01748380 -0.05157468
v 0.03742154 0.03377384 -0.01529136
v 0.03824081 0.03091932 -0.02037229
v -0.03181547 0.03845959 0.00012517
v -0.03010168 0.03799342 0.00627713
v -0.02984670 0.03802358 -0.00605706
v -0.03749187 0.03720531 -0.00998763
v -0.03359927 0.03611177 0.01320710
v -0.03786702 0.03187876 0.02130134
v -0.03010168 0.02997472 0.02411607
v -0.03352926 0.02735493 0.02705734
v -0.03010168 0.02258952 0.03120224
v -0.03383021 -0.03814038 0.00520246
v -0.03010168 -0.03852076 0.00000953
v 0.03799001 -0.03524013 0.01159539
v -0.03185622 -0.00758995 0.03771777
v -0.03010168 -0.01820912 0.03388559
v -0.03181547 -0.02924260 0.02498428
v -0.02958336 -0.03327929 0.01938388
v 0.03741317 -0.03395050 -0.01494747
v 0.00024489 -0.01747946 -0.05157468
v -0.03449901 -0.01201174 -0.05222857
v -0.03805616 -0.03209713 -0.02103102
v -0.03779700 0.01173515 -0.05011676
v -0.03010168 0.03502953 -0.01601790
v -0.03846998 0.03723548 0.00879580
v -0.03838220 0.03816311 -0.00347785
v -0.03844490 0.02352469 0.03018508
v -0.03365204 0.01766056 0.03416228
v -0.03793285 -0.03817055 -0.00249097
v -0.02971294 -0.03780525 -0.00705121
v -0.03010168 0.00457432 0.03822302
v -0.03010168 -0.01277910 0.03632191
v -0.03842818 -0.00734720 0.03749890
v -0.03852014 -0.02851295 0.02540931
v -0.03791613 -0.03327741 0.01913202
v -0.03010168 -0.03661272 0.01185210
v -0.03841146 -0.03621301 0.01251568
v -0.03011004 -0.03488567 -0.01632305
v -0.03382185 -0.03645340 -0.01232709
v -0.03785866 -0.01173269 -0.05006712
v -0.03892141 0.03082504 -0.02122476
v -0.03352926 0.01232906 0.03645027
v -0.03801436 0.00546612 0.03799779
v -0.03844490 -0.03525521 -0.01491841
v -0.03895381 0.02482846 0.02611647
v -0.03903845 -0.00219246 0.03652050
v -0.03867009 -0.01896894 0.03254694
v -0.03903009 0.03670756 -0.00017937
v -0.03901337 -0.03645623 0.00140206
v -0.03903009 -0.01026961 -0.04668266
v -0.03903009 0.01027395 -0.04668266
v 0.01572096 0.00048360 -0.05280827
v 0.01572096 0.00048860 -0.05280827
v 0.01634874 -0.00048923 -0.05506707
v 0.01572217 -0.00049298 -0.05280827
v 0.01637777 0.00105076 -0.05502972
v 0.01634874 0.00048860 -0.05506707
v 0.01584797 0.00160541 -0.05280827
v 0.01756560 -0.00048923 -0.05940989
v 0.01637777 -0.00105139 -0.05502972
v 0.01584676 -0.00152089 -0.05280827
v 0.01756560 0.00048860 -0.05940989
v 0.01778575 0.00146769 -0.05940989
v 0.01612013 0.00221514 -0.05280827
v 0.01823209 0.00216131 -0.06002090
v 0.01798170 -0.00048923 -0.06016880
v 0.01809057 -0.00146831 -0.06012473
v 0.01778817 -0.00146831 -0.05940989
v 0.01823451 -0.00216068 -0.06002090
v 0.01629794 -0.00244739 -0.05280827
v 0.01808936 0.00146769 -0.06012548
v 0.01798170 0.00048860 -0.06016880
v 0.01637656 0.00272096 -0.05280827
v 0.01727893 0.00307779 -0.05510293
v 0.01847764 0.00277730 -0.05940989
v 0.01910421 0.00314540 -0.06005526
v 0.01880302 0.00247181 -0.06017403
v 0.01884294 -0.00048923 -0.06043845
v 0.01884294 -0.00146831 -0.06039438
v 0.01880302 -0.00247118 -0.06017328
v 0.01910301 -0.00314727 -0.06005601
v 0.01847764 -0.00277667 -0.05940989
v 0.01727893 -0.00307841 -0.05510293
v 0.01690758 -0.00342773 -0.05280827
v 0.01884294 0.00146769 -0.06039438
v 0.01884294 0.00048860 -0.06043845
v 0.01725352 0.00401931 -0.05280827
v 0.01896753 0.00327311 -0.05940989
v 0.01956991 0.00376265 -0.05940989
v 0.02016020 0.00399177 -0.05998729
v 0.01982876 0.00345340 -0.06015386
v 0.01982151 0.00244677 -0.06042053
v 0.01982151 -0.00146831 -0.06043845
v 0.01982151 -0.00244739 -0.06042053
v 0.01982756 -0.00345402 -0.06015386
v 0.01896753 -0.00327498 -0.05940989
v 0.02015778 -0.00399239 -0.05998804
v 0.01956628 -0.00376452 -0.05940989
v 0.01818492 -0.00407377 -0.05513430
v 0.01758737 -0.00366186 -0.05451582
v 0.01777970 -0.00442183 -0.05280827
v 0.01982151 0.00146769 -0.06043845
v 0.01828532 0.00499088 -0.05280827
v 0.01818492 0.00407315 -0.05513430
v 0.01923122 0.00495457 -0.05507379
v 0.02080129 0.00430352 -0.05940989
v 0.02080129 0.00409193 -0.06008140
v 0.02089080 0.00624541 -0.05280827
v 0.02080129 0.00342585 -0.06035031
v 0.02080129 0.00244677 -0.06043845
v 0.02177985 0.00342585 -0.06040633
v 0.02080129 -0.00244739 -0.06043845
v 0.02177985 -0.00342648 -0.06040633
v 0.02080129 -0.00342648 -0.06035031
v 0.02080129 -0.00409130 -0.06008140
v 0.01923122 -0.00495395 -0.05507379
v 0.02080129 -0.00430414 -0.05940989
v 0.02092829 -0.00623226 -0.05280827
v 0.01866876 -0.00466473 -0.05451582
v 0.01807726 -0.00417519 -0.05451582
v 0.01784260 -0.00448193 -0.05280827
v 0.01886109 0.00534521 -0.05280827
v 0.01888286 0.00535522 -0.05280827
v 0.02177985 0.00639440 -0.05280827
v 0.02177985 0.00445752 -0.05940989
v 0.02177985 0.00416455 -0.06013743
v 0.02373699 0.00244677 -0.06043845
v 0.02275721 0.00342585 -0.06038691
v 0.02373699 -0.00244739 -0.06043845
v 0.02275721 -0.00342648 -0.06038691
v 0.02177985 -0.00416392 -0.06013668
v 0.02177985 -0.00445564 -0.05940989
v 0.01886109 -0.00534583 -0.05280827
v 0.02177985 -0.00639502 -0.05280827
v 0.02179437 0.00639565 -0.05280827
v 0.02275721 0.00439868 -0.05940989
v 0.02275721 0.00413700 -0.06011801
v 0.02471556 0.00244677 -0.06034882
v 0.02471556 0.00146769 -0.06043845
v 0.02382892 0.00352101 -0.06019195
v 0.02471556 -0.00146831 -0.06043845
v 0.02471556 -0.00244739 -0.06034807
v 0.02382771 -0.00352038 -0.06019195
v 0.02275721 -0.00413512 -0.06011726
v 0.02275721 -0.00439679 -0.05940989
v 0.02272334 -0.00629361 -0.05280827
v 0.02272334 0.00629424 -0.05280827
v 0.02356523 0.00403684 -0.06002763
v 0.02471556 0.00322553 -0.06007991
v 0.02526471 0.00300016 -0.05996040
v 0.02545099 0.00244677 -0.06007991
v 0.02575823 0.00148897 -0.06016207
v 0.02569412 0.00048860 -0.06030998
v 0.02569412 -0.00048923 -0.06030923
v 0.02544978 -0.00244739 -0.06007916
v 0.02526471 -0.00299954 -0.05995965
v 0.02471556 -0.00322365 -0.06007916
v 0.02575702 -0.00148584 -0.06016133
v 0.02356281 -0.00403621 -0.06002763
v 0.02337653 -0.00608077 -0.05280827
v 0.02421599 -0.00390976 -0.05980876
v 0.02555623 0.00524379 -0.05280827
v 0.02421720 0.00391039 -0.05982445
v 0.02611748 0.00179697 -0.05940989
v 0.02624691 0.00117597 -0.05997832
v 0.02619006 0.00392165 -0.05501180
v 0.02721822 0.00342585 -0.05280827
v 0.02630255 0.00048860 -0.06004107
v 0.02630134 -0.00048923 -0.06004032
v 0.02624691 -0.00117158 -0.05997683
v 0.02611506 -0.00179008 -0.05940989
v 0.02743232 -0.00319485 -0.05280827
v 0.02713597 -0.00369065 -0.05280827
v 0.02619006 -0.00392228 -0.05501180
v 0.02560945 -0.00524066 -0.05280827
v 0.02554655 -0.00528323 -0.05280827
v 0.02658923 0.00432105 -0.05280827
v 0.02772867 0.00250436 -0.05280827
v 0.02723636 0.00212625 -0.05509098
v 0.02753635 0.00146769 -0.05451582
v 0.02770085 0.00048860 -0.05451582
v 0.02770085 -0.00048923 -0.05451582
v 0.02753635 -0.00146831 -0.05451582
v 0.02772625 -0.00259388 -0.05280827
v 0.02658923 -0.00432167 -0.05280827
v 0.02793914 0.00146769 -0.05280827
v 0.02807825 0.00048860 -0.05280827
v 0.02807825 -0.00048923 -0.05280827
v 0.02806373 -0.00064698 -0.05280827
v 0.02793672 -0.00152215 -0.05280827
f 2 4 1
f 1 4 3
f 1 5 2
f 2 6 4
f 7 8 1
f 1 8 5
f 1 3 7
f 3 4 9
f 7 3 10
f 6 14 11
f 6 11 15
f 3 9 16
f 8 12 5
f 7 10 17
f 7 17 8
f 8 17 13
f 12 18 5
f 2 14 6
f 11 19 15
f 6 15 4
f 3 16 10
f 8 22 12
f 8 13 22
f 5 18 23
f 5 23 2
f 2 23 14
f 4 15 21
f 4 21 20
f 4 20 9
f 11 24 25
f 14 24 11
f 24 26 25
f 19 27 15
f 11 25 19
f 14 23 24
f 24 30 26
f 19 25 27
f 9 20 32
f 16 33 10
f 22 28 12
f 10 34 35
f 10 35 17
f 17 29 13
f 18 12 36
f 23 18 24
f 24 37 30
f 25 39 27
f 21 15 38
f 20 21 40
f 20 40 32
f 9 32 16
f 13 42 22
f 12 44 36
f 18 37 24
f 30 46 47
f 30 47 39
f 30 39 26
f 26 39 25
f 21 31 40
f 31 21 38
f 32 41 16
f 16 41 48
f 16 48 33
f 22 42 28
f 12 28 44
f 10 33 34
f 17 35 43
f 13 29 42
f 36 45 18
f 30 51 46
f 30 37 50
f 30 50 51
f 47 52 39
f 15 27 38
f 40 31 53
f 28 42 57
f 34 49 35
f 34 59 49
f 17 43 29
f 29 43 60
f 18 45 37
f 51 50 61
f 47 62 63
f 47 63 52
f 27 39 52
f 38 54 31
f 53 64 40
f 40 64 56
f 31 54 53
f 32 40 55
f 55 40 56
f 55 56 65
f 32 55 66
f 55 65 66
f 32 66 67
f 48 68 33
f 49 58 35
f 35 58 70
f 35 70 43
f 43 72 60
f 29 73 42
f 37 45 50
f 51 61 74
f 51 74 75
f 46 76 47
f 47 76 62
f 62 76 77
f 62 77 78
f 62 78 63
f 63 78 79
f 63 79 80
f 52 63 80
f 52 80 27
f 27 80 38
f 38 79 54
f 64 53 81
f 64 82 56
f 53 83 81
f 53 54 83
f 65 56 85
f 65 85 86
f 66 65 87
f 66 87 67
f 67 87 88
f 32 67 41
f 33 68 34
f 41 67 88
f 41 88 89
f 41 69 68
f 41 68 48
f 57 90 91
f 57 44 28
f 58 49 93
f 49 71 93
f 59 71 49
f 43 70 94
f 43 94 72
f 72 95 60
f 60 95 29
f 29 95 96
f 29 96 73
f 42 73 92
f 45 61 50
f 74 45 36
f 74 36 98
f 74 98 75
f 61 45 74
f 51 75 99
f 46 51 99
f 75 98 100
f 75 100 99
f 46 118 101
f 46 101 76
f 78 77 102
f 78 102 79
f 79 38 80
f 79 102 54
f 54 102 84
f 81 103 82
f 81 82 64
f 56 82 85
f 83 104 81
f 54 84 83
f 83 84 104
f 65 86 87
f 87 86 88
f 85 82 103
f 68 59 34
f 89 105 106
f 69 89 106
f 69 41 89
f 88 105 89
f 57 42 92
f 57 92 90
f 91 90 107
f 91 107 108
f 91 108 57
f 57 108 44
f 44 108 97
f 44 97 36
f 59 109 71
f 58 93 110
f 58 110 70
f 70 110 94
f 71 111 93
f 96 95 113
f 73 96 92
f 92 96 114
f 96 113 115
f 96 115 114
f 97 116 98
f 97 117 116
f 97 98 36
f 99 118 46
f 98 116 100
f 101 77 76
f 77 119 84
f 102 77 84
f 81 104 103
f 85 103 86
f 68 69 106
f 68 106 120
f 92 114 90
f 108 107 117
f 108 117 97
f 109 121 71
f 93 111 110
f 71 121 111
f 72 112 95
f 116 122 100
f 99 100 118
f 77 101 119
f 86 103 123
f 88 86 105
f 68 120 109
f 68 109 59
f 90 114 115
f 110 111 94
f 94 125 72
f 72 125 112
f 116 117 122
f 104 126 103
f 109 120 121
f 106 105 121
f 107 90 115
f 107 122 117
f 111 125 94
f 121 124 111
f 112 113 95
f 113 112 115
f 118 100 128
f 122 128 100
f 101 129 119
f 104 84 126
f 86 123 105
f 106 121 120
f 107 115 127
f 107 127 122
f 101 118 128
f 101 128 129
f 126 119 124
f 84 119 126
f 123 103 126
f 105 123 121
f 127 124 128
f 124 125 111
f 124 121 123
f 124 123 126
f 112 125 124
f 112 127 115
f 122 127 128
f 129 128 124
f 119 129 124
f 124 127 112
f 130 131 135
f 130 135 132
f 130 132 133
f 130 133 139
f 130 139 148
f 130 148 162
f 130 162 179
f 130 179 199
f 130 199 211
f 130 211 196
f 130 196 212
f 130 212 224
f 130 224 238
f 130 238 254
f 130 254 253
f 130 253 263
f 130 263 251
f 130 251 250
f 130 250 262
f 130 262 268
f 130 268 267
f 130 267 266
f 130 266 265
f 130 265 264
f 130 264 256
f 130 256 245
f 130 245 255
f 130 255 240
f 130 240 225
f 130 225 213
f 130 213 202
f 130 202 186
f 130 186 201
f 130 201 200
f 130 200 181
f 130 181 165
f 130 165 151
f 130 151 142
f 130 142 136
f 130 136 131
f 131 134 135
f 131 136 134
f 132 137 138
f 132 138 133
f 132 135 140
f 132 140 137
f 133 138 139
f 134 140 135
f 134 136 141
f 134 141 140
f 136 142 143
f 136 143 141
f 137 144 145
f 137 145 146
f 137 146 138
f 137 140 150
f 137 150 144
f 138 146 139
f 139 146 147
f 139 147 148
f 140 141 149
f 140 149 150
f 141 143 149
f 142 151 143
f 143 151 152
f 143 152 153
f 143 153 154
f 143 154 155
f 143 155 149
f 144 156 157
f 144 157 145
f 144 150 164
f 144 164 156
f 145 157 158
f 145 158 147
f 145 147 146
f 147 158 159
f 147 159 160
f 147 160 161
f 147 161 148
f 148 161 162
f 149 163 150
f 149 155 163
f 150 163 164
f 151 165 152
f 152 165 153
f 153 165 166
f 153 166 154
f 154 166 167
f 154 167 168
f 154 168 169
f 154 169 155
f 155 169 170
f 155 170 163
f 156 171 172
f 156 172 157
f 156 164 180
f 156 180 188
f 156 188 205
f 156 205 217
f 156 217 219
f 156 219 207
f 156 207 190
f 156 190 171
f 157 172 158
f 158 172 173
f 158 173 159
f 159 174 160
f 159 173 175
f 159 175 176
f 159 176 174
f 160 174 177
f 160 177 178
f 160 178 161
f 161 178 162
f 162 178 179
f 163 170 164
f 164 170 180
f 165 181 182
f 165 182 166
f 166 182 181
f 166 181 167
f 167 181 183
f 167 183 168
f 168 184 185
f 168 185 169
f 168 183 186
f 168 186 184
f 169 185 187
f 169 187 170
f 170 188 180
f 170 187 189
f 170 189 188
f 171 190 172
f 172 190 191
f 172 191 192
f 172 192 173
f 173 192 193
f 173 193 175
f 174 176 194
f 174 194 177
f 175 193 195
f 175 195 196
f 175 196 194
f 175 194 176
f 177 194 197
f 177 197 198
f 177 198 178
f 178 198 179
f 179 198 199
f 181 200 183
f 183 200 201
f 183 201 186
f 184 186 202
f 184 202 203
f 184 203 185
f 185 203 204
f 185 204 187
f 187 204 189
f 188 189 205
f 189 206 205
f 189 204 206
f 190 207 191
f 191 207 208
f 191 208 209
f 191 209 192
f 192 209 193
f 193 209 210
f 193 210 195
f 194 196 211
f 194 211 197
f 195 210 212
f 195 212 196
f 197 211 198
f 198 211 199
f 202 213 203
f 203 213 214
f 203 214 215
f 203 215 204
f 204 215 206
f 205 216 217
f 205 206 216
f 206 215 218
f 206 218 216
f 207 219 220
f 207 220 208
f 208 221 222
f 208 222 209
f 208 220 221
f 209 222 210
f 210 222 223
f 210 223 212
f 212 223 224
f 213 225 214
f 214 226 215
f 214 225 226
f 215 226 218
f 216 218 227
f 216 227 228
f 216 228 229
f 216 229 230
f 216 230 231
f 216 231 217
f 217 231 219
f 218 226 227
f 219 232 220
f 219 231 232
f 220 233 234
f 220 234 235
f 220 235 221
f 220 232 236
f 220 236 233
f 221 237 222
f 221 235 237
f 222 237 223
f 223 237 224
f 224 237 239
f 224 239 238
f 225 240 241
f 225 241 226
f 226 241 227
f 227 241 228
f 228 242 243
f 228 243 229
f 228 241 240
f 228 240 244
f 228 244 245
f 228 245 242
f 229 243 230
f 230 243 246
f 230 246 231
f 231 246 232
f 232 247 236
f 232 246 247
f 233 236 248
f 233 248 234
f 234 248 249
f 234 249 250
f 234 250 251
f 234 251 252
f 234 252 253
f 234 253 239
f 234 239 235
f 235 239 237
f 236 247 248
f 238 239 254
f 239 253 254
f 240 255 244
f 242 245 256
f 242 256 257
f 242 257 243
f 243 258 259
f 243 259 246
f 243 257 256
f 243 256 258
f 244 255 245
f 246 259 260
f 246 260 247
f 247 260 248
f 248 260 261
f 248 261 262
f 248 262 250
f 248 250 249
f 251 263 252
f 252 263 253
f 256 264 258
f 258 264 259
f 259 264 265
f 259 265 266
f 259 266 260
f 260 266 267
f 260 267 268
f 260 268 261
f 261 268 262

