# https://github.com/mikedh/trimesh
v -0.04387747 0.00045466 0.02710367
v -0.04066508 0.11852923 -0.00403938
v -0.04057489 0.04801878 -0.00486083
v -0.03941103 0.04801878 -0.01083138
v -0.04335353 0.00456033 0.03097451
v -0.04081968 0.12016825 0.00085728
v -0.03974387 0.12065509 -0.00917245
v -0.04216820 0.00291319 0.03254128
v -0.04264062 -0.01022334 0.03122295
v -0.04264921 -0.01025579 0.02624615
v -0.04026352 0.12016825 0.00659542
v -0.03566395 0.12186813 -0.01347205
v -0.03724653 0.04719927 -0.01651343
v -0.02768663 0.11361216 0.03768237
v -0.02953333 0.12102834 0.03453280
v -0.03871745 0.12041167 0.01284246
v -0.03607409 0.12188842 0.01315902
v -0.00000328 0.12190465 -0.03848426
v -0.03843615 0.11893899 -0.01376557
v -0.03548572 0.12067132 -0.02005569
v -0.04028714 -0.01700662 0.02609789
v -0.03401051 0.04677735 -0.02228362
v -0.03033213 0.01358307 0.03897265
v -0.03339852 0.00209368 0.03813917
v -0.03607838 0.12099589 0.01973865
v -0.02626939 0.11991267 0.03676474
v 0.00924097 0.12125552 -0.03954413
v -0.01030401 0.12128595 -0.03916747
v -0.03122542 0.12107702 -0.02627067
v -0.03949693 -0.01871056 0.03137522
v -0.02213793 0.11361216 0.03886045
v 0.03687922 0.12188842 0.01234158
v 0.02868502 0.12182148 -0.02577179
v 0.00275657 0.11934874 -0.04071019
v -0.00886530 0.11934874 -0.03980359
v -0.00000328 0.12182351 0.03694506
v -0.03697167 -0.02344912 0.02616601
v -0.02987905 0.04568196 -0.02736661
v -0.03051358 -0.01277721 0.03827842
v 0.02869361 0.12187219 0.03202437
v 0.03961062 0.12127176 -0.00876773
v -0.00266060 0.04801878 -0.04072021
v -0.01917033 0.12042588 -0.03589869
v -0.02721421 0.12062263 -0.03043002
v -0.02887410 0.04801878 -0.02882519
v -0.02848651 -0.01081363 0.03900971
v -0.01308480 0.12022708 0.03868614
v 0.03886979 0.12065509 0.01226143
v 0.04082171 0.12016825 0.00085728
v 0.03413923 0.12016825 -0.02246394
v 0.03007004 0.12062263 -0.02756897
v 0.02469314 0.12064698 -0.03241353
v 0.01521268 0.12067132 -0.03785114
v 0.00757303 0.12096140 0.03863304
v -0.03224755 -0.02933986 0.02598770
v -0.00655263 0.11197314 0.04068768
v 0.02743957 0.12086605 0.03600741
v 0.02953536 0.12102834 0.03453280
v 0.04026556 0.12016825 0.00659542
v 0.04331906 0.00497008 0.03097451
v 0.04387092 0.00045466 0.02710367
v 0.04066711 0.11852923 -0.00403938
v 0.00654607 0.04801878 -0.04034355
v -0.00978006 0.04801878 -0.03965833
v -0.03222393 -0.02931958 0.03142330
v -0.02470614 0.04556025 -0.03200080
v -0.01557570 0.02464647 0.04044525
v 0.03607183 0.12099589 0.01974666
v 0.02769725 0.11361216 0.03769038
v 0.03862393 0.11873208 -0.01315649
v 0.02023743 0.11996338 -0.03544990
v -0.00800744 0.04534725 -0.03948503
v -0.01740415 0.04801878 -0.03690447
v -0.02352940 0.04801878 -0.03340729
v -0.00614249 0.11689021 0.04045527
v 0.04218742 0.00168392 0.03255931
v 0.04012491 0.04801878 -0.00728111
v 0.03742035 0.04801878 -0.01632609
v 0.03320085 0.04801878 -0.02373619
v 0.02912307 0.04801878 -0.02867091
v 0.02211419 0.04801878 -0.03437299
v 0.01683606 0.04801878 -0.03722603
v 0.00800089 0.04534725 -0.03948503
v -0.00000113 0.04487867 -0.03989475
v -0.01978446 0.04548722 -0.03526257
v -0.02485215 -0.02211335 0.03813291
v -0.02172672 -0.02167216 0.03898868
v 0.01017076 0.11891870 0.03972197
v 0.01978112 0.11361216 0.03923811
v 0.03032558 0.01358307 0.03898066
v 0.03298504 -0.00097949 0.03825738
v 0.04263406 -0.01022334 0.03122295
v 0.02741165 0.04567384 -0.02983497
v 0.00491410 -0.04329590 0.02584144
v -0.00492066 -0.04329590 0.02584144
v -0.01034481 -0.04237903 0.02600172
v -0.01482843 0.04551968 -0.03769086
v -0.01959764 -0.03881293 0.02589553
v -0.02728293 -0.03415956 0.02604179
v 0.03444844 0.04553590 -0.02130189
v 0.01482187 0.04551968 -0.03769086
v 0.02147859 -0.03816787 0.02612594
v 0.01228802 -0.04172179 0.02580537
v -0.02638105 -0.03490605 0.03132713
v -0.00194876 0.01634892 0.04094062
v 0.01064747 0.11279265 0.04040718
v 0.04264265 -0.01025579 0.02624615
v 0.04105362 -0.01528646 0.02615800
v 0.03539327 -0.02555469 0.02609388
v 0.02135834 0.04551968 -0.03441306
v 0.00834553 -0.04302003 0.03125501
v -0.00835209 -0.04302003 0.03125501
v 0.00163084 0.11197314 0.04086399
v -0.00517552 -0.01071043 0.04041958
v 0.02622847 -0.00702237 0.03936033
v 0.03816547 -0.02097030 0.03126703
v 0.02727637 -0.03415956 0.02604179
v 0.01672226 -0.04024099 0.03134917
v -0.01984029 -0.03897115 0.03130710
v -0.01055310 -0.03027703 0.03865559
v 0.01085361 0.02259769 0.04074177
v 0.03039483 -0.01250336 0.03837259
v 0.02637449 -0.03490605 0.03132713
v 0.00409382 -0.00118437 0.04079987
v 0.01439912 -0.02980541 0.03828994
v 0.02719209 -0.01906656 0.03820980
v 0.02768866 -0.02893974 0.03401413
v 0.00568204 -0.03371761 0.03761875
v 0.01167523 -0.02454045 0.03929897
f 1 6 2
f 1 2 3
f 1 3 4
f 2 6 7
f 3 2 4
f 1 9 5
f 1 5 6
f 5 9 8
f 2 7 4
f 1 4 10
f 5 11 6
f 6 17 12
f 6 12 7
f 4 13 10
f 5 8 14
f 5 14 15
f 5 16 11
f 11 16 6
f 12 17 18
f 7 12 20
f 10 13 22
f 10 22 21
f 1 10 9
f 4 7 19
f 14 8 24
f 14 24 23
f 5 15 25
f 5 25 16
f 15 14 26
f 16 25 6
f 6 25 17
f 18 27 28
f 18 29 12
f 18 17 32
f 7 20 19
f 10 21 9
f 4 19 13
f 14 23 31
f 18 32 33
f 27 34 28
f 28 34 35
f 18 28 29
f 17 15 36
f 17 36 40
f 17 40 32
f 12 29 20
f 20 13 19
f 21 22 38
f 21 38 37
f 9 21 30
f 14 31 26
f 17 25 15
f 9 30 39
f 32 41 33
f 18 33 27
f 34 42 35
f 28 43 29
f 29 22 20
f 38 22 45
f 13 20 22
f 24 46 23
f 15 26 47
f 32 40 48
f 32 48 41
f 41 48 49
f 41 50 33
f 33 51 52
f 33 52 53
f 33 53 27
f 43 44 29
f 36 47 54
f 22 29 45
f 37 38 55
f 21 37 30
f 23 56 31
f 8 9 24
f 15 47 36
f 31 47 26
f 9 39 24
f 40 57 58
f 48 59 49
f 49 59 60
f 49 60 61
f 41 49 62
f 33 50 51
f 42 64 35
f 28 35 43
f 29 44 45
f 55 65 37
f 55 38 66
f 46 67 23
f 36 54 40
f 40 54 57
f 58 57 69
f 58 69 60
f 58 60 68
f 40 58 68
f 40 68 48
f 49 61 62
f 41 62 70
f 41 70 50
f 52 71 53
f 34 27 63
f 34 63 42
f 42 72 64
f 43 73 74
f 43 74 44
f 66 38 45
f 37 65 30
f 56 23 67
f 24 39 46
f 31 56 75
f 60 48 68
f 48 60 59
f 60 69 76
f 61 77 62
f 62 77 70
f 50 70 78
f 51 80 52
f 71 52 81
f 63 83 84
f 63 84 42
f 42 84 72
f 35 64 73
f 35 73 43
f 44 74 45
f 47 75 54
f 55 66 85
f 45 74 66
f 30 86 39
f 39 86 46
f 46 86 87
f 47 31 75
f 54 75 88
f 57 54 88
f 57 88 89
f 69 90 91
f 69 91 76
f 60 76 92
f 60 92 61
f 78 79 50
f 79 51 50
f 51 79 80
f 52 80 81
f 82 53 71
f 27 53 82
f 83 94 84
f 84 94 95
f 84 95 72
f 72 95 96
f 72 97 64
f 72 96 98
f 72 98 97
f 73 85 74
f 74 85 66
f 55 99 65
f 55 85 99
f 89 69 57
f 70 77 78
f 78 100 79
f 79 100 80
f 93 81 80
f 71 81 82
f 27 82 63
f 83 101 102
f 83 102 103
f 83 103 94
f 97 98 85
f 73 64 97
f 73 97 85
f 85 98 99
f 65 86 30
f 46 114 105
f 46 105 67
f 75 106 88
f 88 106 89
f 69 89 90
f 61 92 107
f 61 107 77
f 77 107 78
f 78 107 100
f 100 107 108
f 100 93 80
f 93 109 110
f 81 93 110
f 81 110 101
f 81 101 82
f 101 83 82
f 82 83 63
f 94 111 95
f 95 112 96
f 75 56 113
f 56 67 105
f 86 120 87
f 75 113 106
f 90 115 91
f 100 108 109
f 100 109 93
f 110 109 117
f 110 117 101
f 101 117 102
f 103 102 118
f 95 111 112
f 96 112 98
f 98 112 119
f 99 104 65
f 98 104 99
f 98 119 104
f 56 105 113
f 76 91 92
f 116 108 107
f 116 107 92
f 103 111 94
f 103 118 111
f 86 65 104
f 113 105 121
f 113 121 106
f 106 90 89
f 92 122 116
f 108 116 109
f 109 116 123
f 86 104 120
f 46 87 114
f 90 106 115
f 115 122 91
f 92 91 122
f 109 123 117
f 117 123 102
f 102 123 118
f 105 124 121
f 115 106 121
f 115 125 126
f 115 126 122
f 122 126 116
f 116 126 127
f 118 128 111
f 115 121 124
f 116 127 123
f 118 123 125
f 118 125 128
f 104 119 120
f 115 129 125
f 112 120 119
f 105 114 124
f 120 112 128
f 87 120 114
f 126 125 127
f 120 128 129
f 112 111 128
f 115 124 129
f 123 127 125
f 114 129 124
f 125 129 128
f 114 120 129

