# https://github.com/mikedh/trimesh
v 0.00967079 0.33926186 0.11920593
v -0.03776407 0.32006094 0.11755273
v -0.02949601 0.37083104 0.11745912
v -0.04249455 0.35312870 0.11690915
v -0.02122795 0.30353874 0.11761123
v 0.02125725 0.38145244 0.11623047
v -0.04684111 0.33188587 0.11559859
v -0.03892955 -0.04478269 0.06937208
v 0.00001122 0.29648119 0.11749422
v -0.01884900 -0.05541578 0.06945984
v 0.02125040 0.30353874 0.11761123
v 0.04015176 0.32003757 0.11709637
v 0.00001465 0.38145244 0.11762878
v -0.06614010 -0.00386280 0.06614833
v -0.05666543 -0.02473171 0.06874605
v -0.01380315 -0.06485704 0.06591431
v 0.01181000 -0.05775272 0.06947155
v 0.03602115 -0.04657045 0.06936038
v 0.04488224 0.32952556 0.11648790
v 0.04488224 0.35312870 0.11613685
v 0.05378446 0.37728101 0.10368068
v -0.02123481 0.38145244 0.11625387
v -0.05410822 0.37649813 0.10388545
v -0.06656516 0.33424619 0.10248128
v -0.04884985 -0.04532019 0.06256185
v 0.05670159 -0.02473171 0.06873436
v 0.06617626 -0.00376933 0.06614833
v 0.01118099 0.40431944 0.10347591
v 0.03806760 0.39823169 0.09949742
v -0.04422563 0.39265808 0.09981336
v -0.06993134 0.33896682 0.09448920
v -0.00231288 -0.06747441 0.05903387
v 0.02098302 -0.06247335 0.06586751
v 0.04255128 -0.05074189 0.06614833
v 0.06658075 0.33424619 0.10245788
v 0.06632709 0.36079386 0.09952082
v 0.05949188 0.37516606 0.09982505
v -0.01703222 0.40521914 0.10177919
v -0.06630464 0.36079386 0.09952082
v -0.06560535 -0.01551247 0.06033273
v -0.06752497 -0.00110521 0.05903387
v -0.05900839 -0.03232386 0.06047168
v -0.04075319 -0.05361634 0.06050825
v -0.01869817 -0.06485704 0.05903387
v 0.06346995 -0.02200333 0.06004312
v 0.06982353 0.33896682 0.09685290
v 0.01525160 0.40771967 0.09963784
v -0.02900240 0.40363005 0.09212551
v -0.06676226 0.36026806 0.09271643
v -0.06751126 -0.00110521 -0.05903357
v -0.06991078 0.33896682 -0.09446551
v -0.03176527 -0.05957555 0.05903387
v -0.01867075 -0.06485704 -0.05903357
v 0.00001808 -0.06747441 -0.05903357
v 0.02148350 -0.06354835 0.05903387
v 0.05671529 -0.03658001 0.06149117
v 0.03807446 -0.05567285 0.06048485
v 0.06750628 -0.00110521 0.05903387
v -0.00941546 0.40930882 0.09212551
v 0.04633566 0.39248282 0.09212551
v 0.05592688 0.38201332 0.09212551
v 0.03529102 0.40038168 0.09212551
v -0.04962198 0.38917604 0.09330736
v -0.04013959 0.39725602 0.00178169
v -0.06343550 -0.02206760 -0.06041434
v -0.06614010 -0.00386280 -0.06614804
v -0.05669285 -0.03658001 -0.06151427
v -0.04316642 -0.05138456 -0.05976491
v -0.02094687 -0.06247335 -0.06589061
v 0.01383931 -0.06485704 -0.06591401
v 0.01525846 -0.06565160 -0.05903357
v 0.06750628 -0.00110521 -0.05903357
v 0.06887401 0.35194853 0.08976182
v 0.02301919 0.40603709 0.09212551
v 0.06327284 0.36952820 0.09212551
v -0.05929804 0.37710574 0.09212551
v -0.03350664 0.40061536 -0.09957903
v -0.06677598 0.36026806 -0.09210181
v -0.06657202 0.33424619 -0.10248099
v 0.06287863 -0.02404816 -0.05976491
v 0.04261983 -0.05200385 -0.05903357
v 0.03061538 -0.06008967 -0.05903357
v 0.05469970 -0.03936098 -0.06026222
v 0.06994008 0.33896682 -0.09446551
v 0.06617626 -0.00381607 -0.06614804
v 0.06634080 0.36079386 -0.09952053
v 0.06483939 0.36614546 -0.09210181
v 0.00708638 0.40951914 -0.09210181
v 0.02598774 0.40500885 -0.09210181
v 0.05225905 0.38657033 -0.09210181
v 0.03852008 0.39851213 -0.09210181
v -0.01232573 0.40852594 -0.09585798
v -0.01884900 0.40748599 -0.09210181
v -0.05267537 0.38586926 -0.09210181
v -0.05911294 0.37682530 -0.09589308
v -0.06631836 0.36079386 -0.09954393
v -0.06284934 -0.01526709 -0.06738840
v -0.04972739 -0.04266775 -0.06624750
v -0.01176013 -0.05775272 -0.06947125
v 0.04256499 -0.05074189 -0.06614804
v 0.05137808 0.38563558 -0.09988327
v 0.03352908 0.40061536 -0.09957903
v -0.04684111 0.33188587 -0.11557489
v -0.03538512 -0.04831148 -0.06933083
v 0.01181000 -0.05775272 -0.06947125
v 0.03543498 -0.04831148 -0.06930743
v 0.05944389 -0.02790996 -0.06649908
v 0.06658760 0.33424619 -0.10245758
v 0.06311859 -0.01290677 -0.06749371
v 0.01705467 0.40521914 -0.10176720
v -0.01029300 0.40495041 -0.10288469
v -0.03783948 0.39332411 -0.10394366
v -0.04012931 0.32480493 -0.11758754
v -0.04956285 -0.03414960 -0.06928403
v -0.04485979 0.35312870 -0.11615996
v -0.02122795 0.30351537 -0.11759923
v 0.00001808 0.29643443 -0.11749392
v 0.02126411 0.30351537 -0.11759923
v 0.06096587 0.36411232 -0.10377984
v 0.04488224 0.32952556 -0.11648760
v -0.05208577 0.37930244 -0.10399047
v 0.01358736 0.33306602 -0.11911164
v 0.04959901 -0.03414960 -0.06928403
v 0.03780023 0.32006094 -0.11755243
v -0.00470212 0.38617307 -0.11613070
v -0.02770837 0.37500831 -0.11647005
v 0.00001465 0.38149917 -0.11761094
v 0.03639994 0.36380851 -0.11686643
v 0.02125725 0.38149917 -0.11625357
f 2 1 3
f 2 3 4
f 5 2 8
f 5 9 1
f 5 1 2
f 5 10 9
f 1 9 11
f 1 6 13
f 1 12 6
f 1 13 3
f 4 7 2
f 7 14 15
f 7 15 2
f 2 15 8
f 5 8 10
f 9 10 17
f 10 16 17
f 9 17 11
f 11 17 18
f 11 12 1
f 11 18 12
f 12 19 20
f 12 20 6
f 13 22 3
f 13 6 22
f 3 22 23
f 7 24 14
f 10 8 16
f 12 18 26
f 19 12 26
f 19 26 27
f 6 20 21
f 6 21 29
f 6 28 22
f 3 23 4
f 22 30 23
f 7 4 24
f 14 24 31
f 8 15 25
f 8 25 16
f 17 16 33
f 19 35 20
f 19 27 35
f 20 35 36
f 28 38 22
f 22 38 30
f 4 23 24
f 24 39 31
f 15 14 40
f 14 31 41
f 14 41 40
f 15 42 25
f 25 43 16
f 16 44 32
f 32 33 16
f 18 17 33
f 18 33 34
f 18 34 26
f 27 46 35
f 20 36 21
f 21 36 37
f 6 29 28
f 28 47 38
f 23 30 39
f 30 38 48
f 24 23 39
f 39 49 31
f 40 42 15
f 41 31 51
f 41 51 50
f 41 50 40
f 43 52 16
f 44 16 52
f 44 53 32
f 26 34 56
f 26 45 27
f 35 46 36
f 45 58 27
f 27 58 46
f 29 47 28
f 21 37 29
f 29 37 60
f 37 61 60
f 29 62 47
f 47 59 38
f 30 63 39
f 48 64 30
f 30 64 63
f 40 65 42
f 50 51 66
f 42 67 25
f 25 67 68
f 43 68 52
f 44 52 53
f 53 54 32
f 53 69 54
f 32 71 55
f 55 33 32
f 33 57 34
f 56 45 26
f 34 57 56
f 46 73 36
f 61 37 75
f 29 60 62
f 38 59 48
f 63 76 39
f 48 77 64
f 63 64 94
f 31 49 78
f 40 50 65
f 66 65 50
f 31 78 51
f 25 68 43
f 42 65 67
f 52 68 53
f 54 69 70
f 70 71 54
f 54 71 32
f 33 55 57
f 55 71 82
f 57 81 56
f 57 55 82
f 57 82 81
f 56 83 80
f 56 80 45
f 46 84 73
f 45 80 72
f 45 72 58
f 58 72 84
f 58 84 46
f 73 84 86
f 73 86 87
f 73 87 75
f 73 75 36
f 37 36 75
f 62 74 47
f 47 88 59
f 74 62 89
f 60 61 90
f 60 90 91
f 60 91 62
f 62 91 89
f 59 93 48
f 48 93 77
f 39 76 49
f 63 94 76
f 76 94 95
f 64 77 94
f 78 96 51
f 66 51 79
f 66 79 97
f 51 96 79
f 67 98 68
f 68 69 53
f 69 99 70
f 71 70 82
f 81 100 83
f 81 83 56
f 85 84 72
f 47 74 89
f 47 89 88
f 61 75 87
f 61 87 90
f 91 101 102
f 59 88 92
f 92 93 59
f 65 66 97
f 65 97 67
f 79 103 97
f 68 98 69
f 69 104 99
f 99 105 70
f 70 105 106
f 70 81 82
f 72 80 107
f 81 70 100
f 83 107 80
f 83 100 107
f 84 108 86
f 85 72 107
f 85 107 109
f 85 108 84
f 85 109 108
f 88 89 110
f 89 91 102
f 90 101 91
f 90 87 101
f 92 88 111
f 93 92 77
f 76 95 78
f 76 78 49
f 94 77 95
f 96 78 95
f 77 112 95
f 97 98 67
f 103 113 97
f 97 113 114
f 79 115 103
f 79 96 115
f 69 98 104
f 99 104 116
f 99 116 117
f 99 117 105
f 105 117 118
f 105 118 106
f 70 106 100
f 109 120 108
f 88 110 111
f 89 102 110
f 92 111 77
f 77 111 112
f 97 114 98
f 103 115 113
f 114 104 98
f 117 116 118
f 118 116 122
f 107 123 109
f 100 106 107
f 108 120 86
f 86 120 119
f 109 123 124
f 109 124 120
f 101 87 86
f 112 121 95
f 95 121 96
f 112 126 121
f 113 115 126
f 113 126 127
f 113 116 114
f 96 121 115
f 104 114 116
f 118 122 124
f 118 124 123
f 118 123 106
f 107 106 123
f 120 124 128
f 110 129 125
f 110 125 111
f 101 86 119
f 102 101 129
f 101 128 129
f 125 126 111
f 111 126 112
f 113 127 116
f 115 121 126
f 120 128 119
f 119 128 101
f 124 122 128
f 110 102 129
f 125 127 126
f 129 127 125
f 128 127 129
f 127 122 116
f 122 127 128

