# https://github.com/mikedh/trimesh
v 0.01342261 0.06130654 0.07466410
v -0.00965238 0.06291801 0.07465313
v 0.00160008 0.14890611 0.06604156
v 0.01352626 0.15018253 0.06462336
v -0.01762044 0.15013999 0.06351949
v -0.00857701 0.14890611 0.06557370
v 0.03733326 0.05135047 0.07460745
v -0.00504159 0.15114450 0.06245493
v -0.03814629 0.05054473 0.07461476
v 0.03061710 0.15110794 0.05506875
v 0.02171457 0.15009744 0.06241564
v 0.05480469 0.03283707 0.07458003
v 0.03160986 0.15025167 0.05773702
v -0.02849716 0.15027827 0.05937453
v -0.05480472 0.03283707 0.07458003
v 0.06340761 -0.00046683 0.07468238
v 0.06086819 0.02422125 0.07380514
v -0.06340763 -0.00046683 0.07468238
v -0.05366214 0.15113321 0.03176478
v -0.04101933 0.15016125 0.05172793
v -0.06178811 0.02208324 0.07369548
v 0.04101930 0.15016125 0.05172793
v 0.05173407 0.15016125 0.04102559
v 0.05722426 0.15112655 0.02712682
v -0.05173410 0.15016125 0.04102559
v 0.06454127 0.01406308 0.07322762
v 0.05773279 0.15025167 0.03160989
v 0.06597293 0.00490477 0.07200679
v 0.06240998 0.15009744 0.02169707
v -0.06456722 0.01406308 0.07322762
v -0.06605070 -0.00368978 0.07200679
v 0.06614136 0.14675747 0.00000000
v 0.06462549 0.15018253 0.01350950
v -0.05773282 0.15025167 0.03160989
v -0.06351776 0.15013999 0.01760329
v -0.06614139 0.00060749 0.07200679
v 0.06585633 -0.00583842 0.07200679
v 0.06615756 0.00114465 0.03546243
v 0.05910615 0.15118240 -0.02255969
v -0.06125690 0.15118240 -0.01127985
v -0.06572679 0.14890611 0.00696309
v -0.06614139 0.00060749 -0.07200679
v -0.06614139 0.14675747 0.00000000
v 0.05519986 -0.03096393 0.07450876
v 0.06609602 -0.00154115 -0.07093217
v -0.06462552 0.15018253 -0.01350950
v -0.06579157 0.14890611 -0.00642578
v -0.05615378 -0.02948674 0.07456724
v 0.06235815 -0.02202767 0.07313258
v 0.06340761 -0.00046683 -0.07468238
v 0.06597293 0.00490477 -0.07200679
v 0.03973664 -0.04883247 0.07468238
v 0.06462549 0.15018253 -0.01350950
v -0.06235818 -0.02202767 0.07313258
v -0.03976258 -0.04883247 0.07468238
v 0.06475181 -0.01326824 0.07200679
v 0.06487328 -0.01246250 -0.07200679
v 0.06235815 -0.02202767 -0.07313258
v -0.06340763 -0.00046683 -0.07468238
v 0.05255679 -0.04011027 0.07256969
v 0.06086819 0.02422125 -0.07380514
v -0.06460932 -0.01415642 -0.07093217
v -0.06484901 -0.01290659 0.07146949
v -0.05311070 -0.03930453 0.07256969
v 0.05777166 -0.03221775 0.07200679
v 0.06454127 0.01406308 -0.07322762
v 0.06240998 0.15009744 -0.02169707
v 0.05773279 0.15025167 -0.03160989
v -0.02255675 0.15118240 -0.05909674
v -0.05773282 0.15025167 -0.03160989
v -0.06241000 0.15009744 -0.02169707
v -0.06456722 0.01406308 -0.07322762
v -0.05615378 -0.02948674 -0.07456724
v -0.06235818 -0.02202767 -0.07313258
v -0.05889078 -0.02999997 0.07200679
v 0.05691655 -0.03366436 -0.07200679
v 0.04148087 -0.05139329 0.07200679
v 0.04135616 -0.04829531 -0.07456907
v 0.02338268 -0.06143977 0.07342683
v 0.03511127 -0.05594319 0.07267203
v 0.04101930 0.15016125 -0.05172793
v -0.06178811 0.02208324 -0.07369548
v -0.05882114 -0.03019143 -0.07200679
v -0.04082498 -0.05204479 0.07200679
v -0.01477170 -0.06269757 0.07431503
v 0.04834279 -0.04508299 0.07200679
v 0.05160451 -0.04134414 -0.07313258
v 0.00535090 -0.06542592 0.07373203
v 0.05173407 0.15016125 -0.04102559
v -0.05173410 0.15016125 -0.04102559
v -0.05480472 0.03283707 -0.07458003
v -0.05256329 -0.04011027 -0.07256969
v -0.04652571 -0.04700293 0.07200679
v -0.03409424 -0.05652821 0.07267203
v 0.04678157 -0.04672106 -0.07200679
v 0.05480469 0.03283707 -0.07458003
v 0.03953582 -0.05298083 -0.07200679
v 0.03160986 0.15025167 -0.05773702
v 0.01127512 0.15118240 -0.06124598
v -0.04101933 0.15016125 -0.05172793
v -0.02849716 0.15027827 -0.05937453
v -0.03976258 -0.04883247 -0.07468238
v -0.04706339 -0.04640727 -0.07200679
v -0.02237536 -0.06219232 0.07200679
v 0.01352626 0.15018253 -0.06462336
v 0.02171457 0.15009744 -0.06241564
v 0.02735214 -0.06013144 0.07200679
v 0.03572022 -0.05545921 -0.07333727
v -0.01762044 0.15013999 -0.06351949
v -0.00965238 0.06291801 -0.07465313
v -0.03761185 0.05107923 -0.07461658
v -0.04082498 -0.05204479 -0.07200679
v -0.01212701 -0.06501108 0.07200679
v 0.01556686 0.06130654 -0.07464948
v 0.03733326 0.05135047 -0.07460745
v 0.01633127 -0.06397931 0.07200679
v -0.00267547 -0.06606945 0.07200679
v 0.00535090 -0.06589394 0.07200679
v 0.02290978 -0.06191045 -0.07234307
v -0.00857701 0.14890611 -0.06557370
v 0.00106078 -0.06279862 -0.07463668
v 0.00160008 0.14890611 -0.06604156
v -0.00428851 -0.06593648 -0.07200679
v 0.00750162 -0.06572375 -0.07200679
v -0.02368718 -0.06137994 -0.07336743
v -0.03451532 -0.05642716 -0.07200679
v -0.02640474 -0.06060212 -0.07200679
v -0.00161630 -0.06534614 -0.07365893
v -0.01720908 -0.06378253 -0.07200679
f 1 2 9
f 1 9 18
f 1 18 55
f 1 55 52
f 1 52 16
f 1 16 7
f 1 3 2
f 3 4 5
f 3 5 6
f 3 6 2
f 3 1 7
f 4 8 5
f 6 9 2
f 3 7 4
f 8 10 24
f 8 24 39
f 8 39 99
f 8 99 69
f 8 69 40
f 8 40 19
f 4 11 8
f 7 12 4
f 4 12 11
f 11 10 8
f 5 8 14
f 5 15 6
f 6 15 9
f 11 12 13
f 12 7 17
f 12 17 13
f 13 10 11
f 8 19 20
f 8 20 14
f 5 14 15
f 16 17 7
f 9 15 18
f 14 21 15
f 15 21 18
f 17 22 13
f 13 22 10
f 10 22 23
f 19 25 20
f 14 20 21
f 17 16 26
f 17 26 23
f 17 23 22
f 23 27 10
f 10 27 24
f 26 16 28
f 26 28 29
f 26 29 27
f 26 27 23
f 25 21 20
f 21 25 30
f 21 30 18
f 18 30 31
f 28 32 33
f 28 33 29
f 19 34 25
f 30 25 34
f 30 34 35
f 30 35 36
f 30 36 31
f 16 37 28
f 28 38 32
f 29 33 27
f 27 33 24
f 24 33 39
f 19 40 35
f 36 35 41
f 36 42 31
f 36 41 43
f 36 43 42
f 37 45 38
f 37 38 28
f 40 46 35
f 35 34 19
f 41 47 43
f 44 49 16
f 37 57 45
f 45 50 51
f 16 52 44
f 32 38 45
f 32 45 51
f 39 33 53
f 46 47 35
f 35 47 41
f 43 47 42
f 31 54 18
f 48 18 54
f 48 55 18
f 37 16 49
f 37 49 56
f 37 56 57
f 45 57 50
f 50 57 58
f 32 53 33
f 31 42 62
f 44 60 49
f 50 78 121
f 50 121 102
f 50 102 59
f 50 59 110
f 50 110 114
f 50 114 96
f 50 96 61
f 59 62 42
f 31 62 63
f 31 63 54
f 54 64 48
f 49 60 65
f 44 52 60
f 56 49 58
f 56 58 57
f 32 51 53
f 50 61 66
f 50 66 51
f 53 67 68
f 53 68 39
f 40 69 70
f 40 70 46
f 46 70 71
f 42 72 59
f 42 47 46
f 62 59 74
f 54 63 62
f 54 75 64
f 48 64 55
f 65 76 58
f 65 58 49
f 52 77 60
f 58 78 50
f 52 55 79
f 68 81 39
f 72 82 59
f 59 73 74
f 54 62 74
f 54 74 75
f 75 74 83
f 64 84 55
f 60 86 87
f 60 87 76
f 60 76 65
f 76 87 58
f 60 77 86
f 55 88 79
f 52 79 80
f 80 77 52
f 53 51 67
f 67 51 66
f 67 66 68
f 68 89 81
f 69 90 70
f 71 70 72
f 71 72 42
f 71 42 46
f 83 74 92
f 75 83 64
f 64 83 92
f 64 93 84
f 84 94 55
f 86 95 87
f 86 77 95
f 58 87 78
f 55 85 88
f 77 97 95
f 61 98 81
f 61 81 89
f 61 89 66
f 68 66 89
f 39 81 99
f 90 69 100
f 70 90 72
f 72 90 82
f 82 90 100
f 82 100 101
f 59 82 91
f 91 82 101
f 59 102 73
f 64 92 103
f 64 103 93
f 93 103 84
f 55 94 85
f 85 94 104
f 61 96 98
f 96 105 106
f 96 106 98
f 79 107 80
f 97 108 95
f 101 109 91
f 91 110 59
f 91 111 110
f 73 92 74
f 103 92 112
f 84 103 112
f 85 113 88
f 87 95 78
f 95 108 78
f 96 114 115
f 96 115 105
f 79 88 116
f 88 117 118
f 88 118 116
f 79 116 107
f 107 119 108
f 107 108 80
f 80 108 97
f 80 97 77
f 98 99 81
f 69 101 100
f 101 69 109
f 109 120 91
f 91 120 111
f 102 92 73
f 84 112 94
f 85 104 113
f 113 117 88
f 78 108 121
f 106 105 98
f 98 105 99
f 105 115 122
f 117 123 118
f 118 123 124
f 116 124 119
f 107 116 119
f 69 99 109
f 102 112 92
f 112 125 126
f 94 112 126
f 94 126 127
f 94 127 104
f 117 113 123
f 121 108 128
f 118 124 116
f 123 128 124
f 99 105 109
f 102 121 125
f 112 102 125
f 125 127 126
f 104 127 129
f 104 129 113
f 113 129 123
f 108 119 128
f 115 114 122
f 124 128 119
f 105 122 109
f 109 122 120
f 120 122 110
f 120 110 111
f 121 128 125
f 127 125 129
f 129 125 128
f 129 128 123
f 122 114 110

