# https://github.com/mikedh/trimesh
v -0.06739583 0.34151295 -0.09633610
v -0.06738260 0.34151295 -0.07286353
v -0.06738260 -0.00155260 -0.09634318
v -0.06739583 -0.00155260 -0.05405575
v -0.06587575 0.35355440 -0.09884900
v -0.06653666 0.34151295 -0.10002404
v -0.06555191 -0.00155260 -0.10119908
v -0.06619298 0.34751043 -0.06993300
v -0.06651022 0.00314311 -0.05060141
v -0.06469936 0.34151295 -0.10236705
v -0.06314623 -0.02232297 -0.09828271
v -0.06506946 -0.01698800 -0.05280284
v -0.06344364 0.00551421 -0.04860171
v -0.06344364 0.34616217 -0.06758999
v -0.05950468 -0.02327025 -0.04899103
v -0.06123624 0.36764154 -0.09895518
v -0.06118336 0.35825014 -0.10345715
v -0.04725819 0.34032741 -0.11578096
v -0.06167243 -0.01109512 -0.10368367
v -0.05641166 -0.03679365 -0.05166319
v -0.05873803 0.35794792 -0.06669102
v -0.06122302 0.36764154 -0.07030817
v -0.05873803 -0.01329187 -0.04749391
v -0.05639844 0.37675402 -0.09870034
v -0.05393989 0.37417367 -0.10331204
v -0.04237414 0.35364741 -0.11752228
v -0.04251954 0.32856488 -0.11756122
v -0.05186467 -0.03702611 -0.10349254
v -0.05639844 -0.03679365 -0.09871450
v -0.04911532 0.04991420 -0.04723908
v -0.05638522 0.37670749 -0.07062671
v -0.04815702 -0.03324862 -0.10443930
v -0.01174801 0.32737935 -0.11909372
v -0.05024876 -0.04483679 -0.09516814
v -0.05243304 -0.04237271 -0.05405575
v 0.04913413 0.04991420 -0.04723200
v -0.01644041 0.39790791 -0.06648573
v -0.04757873 0.37852651 -0.06680869
v 0.02114169 -0.04968360 -0.04745144
v -0.04698722 -0.04146611 -0.04806374
v 0.00000279 0.34502310 -0.11947420
v 0.05756722 -0.01974846 -0.04774166
v 0.06344923 0.00551421 -0.04860171
v 0.06109642 0.35088110 -0.06706264
v 0.04699281 0.37909022 -0.06682551
v 0.03289581 0.39081788 -0.06657775
v 0.01409319 0.39790791 -0.06646804
v -0.01644041 -0.06024893 -0.04815576
v 0.00586829 -0.06259678 -0.04832564
v -0.04324653 0.39163148 -0.07286353
v -0.03980323 0.38952771 -0.10327134
v -0.03444168 0.37240118 -0.11562523
v -0.03773462 0.39562979 -0.09885608
v -0.01800013 0.38103127 -0.11742318
v -0.03772140 -0.05566945 -0.09885608
v -0.03773462 -0.05566945 -0.05154286
v 0.02875196 0.40051147 -0.07010997
v 0.02760034 -0.05496627 -0.04786377
v 0.00762298 0.40562561 -0.06957199
v -0.01518470 0.40520719 -0.07007457
v -0.04028569 0.39346793 -0.07016306
v -0.01530366 -0.06529333 -0.05122432
v 0.00234238 0.32737935 -0.11929192
v -0.02583180 -0.05085753 -0.10457203
v -0.02816478 -0.05668067 -0.10337044
v 0.04699281 -0.04146611 -0.04806374
v 0.06125504 -0.02772769 -0.05145084
v 0.06586812 -0.01364056 -0.05154993
v 0.06650259 0.00314311 -0.05060141
v 0.06651581 0.34151295 -0.06945166
v 0.06122860 0.36764154 -0.07028694
v 0.05640403 0.37675402 -0.07049929
v -0.00351980 0.40713662 -0.07286353
v -0.00469951 -0.06703679 -0.05405575
v -0.02955928 0.40032551 -0.09776597
v 0.05641725 -0.03679365 -0.05166319
v 0.06738819 -0.00155260 -0.05405575
v 0.06738819 0.34151295 -0.07286353
v 0.04355613 0.39093411 -0.07151153
v 0.01836261 0.40483525 -0.07286353
v 0.01529603 -0.06529333 -0.05122432
v 0.03774020 -0.05566945 -0.05154286
v -0.01114659 0.40611377 -0.09778367
v -0.02749397 0.40127859 -0.07286353
v -0.02117906 0.40023252 -0.10336866
v 0.04236651 0.35364741 -0.11752228
v 0.02583739 -0.05085753 -0.10457203
v 0.00175583 -0.05790108 -0.10455256
v -0.00938695 -0.06563040 -0.09983291
v -0.01787787 -0.06504925 -0.09399309
v -0.02088744 -0.06401771 -0.05581832
v -0.00704240 -0.06699030 -0.09399309
v -0.00823863 0.38836542 -0.11454044
v 0.00823761 0.38836542 -0.11454044
v -0.00117774 -0.06281472 -0.10335451
v 0.04767354 -0.04745197 -0.05640584
v 0.06737498 -0.00155260 -0.09634318
v 0.06738158 0.34267524 -0.09399309
v 0.06586812 0.35360089 -0.09884900
v 0.05640403 0.37675402 -0.09871450
v 0.03772699 0.39562979 -0.09885608
v 0.01232528 0.40593943 -0.09778367
v 0.00938758 -0.06668810 -0.09634318
v 0.03036456 -0.06017920 -0.05405575
v 0.02089055 -0.06401771 -0.05581832
v 0.01800572 0.38103127 -0.11742318
v 0.03489833 0.31375715 -0.11762139
v 0.04816261 -0.03324862 -0.10443930
v 0.02817037 -0.05666904 -0.10337044
v 0.00000279 0.40432385 -0.10288025
v 0.04284896 0.33444613 -0.11764617
v 0.05187026 -0.03702611 -0.10349961
v 0.01680949 -0.06506087 -0.09779075
v 0.04627904 -0.04898622 -0.09399309
v 0.05640403 -0.03679365 -0.09871450
v 0.06124182 -0.02768118 -0.09896933
v 0.06505522 -0.01696475 -0.09759609
v 0.06555089 -0.00155260 -0.10119908
v 0.06652902 0.34151295 -0.10002404
v 0.02731120 0.40137160 -0.09776597
v 0.02117143 0.40023252 -0.10336866
v 0.06218030 -0.00390046 -0.10391726
v 0.03772699 -0.05566945 -0.09886315
v 0.06469172 0.34151295 -0.10236705
v 0.06089155 0.35983086 -0.10323063
v 0.03516930 0.39316574 -0.10337575
v 0.04920022 0.34151295 -0.11461299
v 0.04442191 0.38588971 -0.10316693
v 0.05393226 0.37417367 -0.10330850
v 0.01056392 0.34970748 0.11919458
v -0.01144590 0.34400779 0.11920199
v 0.00821449 0.32742599 0.11917178
v -0.00821502 0.32742599 0.11917178
v -0.01956896 0.37938127 0.11753058
v -0.00000027 -0.05785651 0.10453770
v 0.02700995 -0.05081291 0.10453314
v 0.04256378 0.32916945 0.11756250
v 0.04237543 0.35364771 0.11752146
v 0.01801535 0.38103172 0.11741205
v -0.04238257 0.32621720 0.11751235
v -0.04026115 0.35696030 0.11756705
v -0.02701048 -0.05081291 0.10453314
v 0.00351893 -0.06272950 0.10328855
v 0.04933451 -0.03202999 0.10441916
v 0.02955764 -0.05561326 0.10343900
v 0.04726926 0.34033927 0.11576629
v 0.06164012 -0.01220099 0.10367151
v -0.00557315 0.38738376 0.11521921
v -0.04529706 0.33681747 0.11691969
v -0.06164065 -0.01220099 0.10367151
v -0.04933504 -0.03202999 0.10441916
v -0.03793484 -0.05106862 0.10351650
v -0.03491131 0.37200639 0.11554404
v 0.05067610 -0.03806238 0.10345268
v 0.06458104 -0.00146124 0.10236766
v 0.03544444 0.37162864 0.11551327
v -0.04920948 0.34151319 0.11460376
v -0.06458157 -0.00146124 0.10236766
v -0.05067002 -0.03806238 0.10345268
v -0.03517897 0.39318949 0.10336150
v -0.00938478 -0.06666683 0.09633167
v 0.06653725 -0.00146124 0.10001526
v 0.06561201 0.34151319 0.10119146
v 0.02118097 0.40023309 0.10336150
v 0.03517844 0.39316624 0.10336150
v -0.00352276 0.40420818 0.10275972
v -0.06561916 0.34151319 0.10119146
v -0.06118464 0.35829696 0.10344356
v -0.06653778 -0.00146124 0.10001526
v -0.01524018 -0.06520232 0.09923113
v -0.02118151 0.40023309 0.10335238
v 0.01534209 -0.06538247 0.09705653
v 0.06738317 -0.00146124 0.09633167
v 0.06739639 0.34151319 0.09633167
v 0.06118411 0.35829696 0.10344356
v 0.05394085 0.37415087 0.10330679
v 0.04031348 0.39349169 0.09913083
v 0.02956425 0.40032607 0.09776316
v 0.00997243 0.40620738 0.09777228
v -0.05394138 0.37415087 0.10329767
v -0.06738371 -0.00146124 0.09633167
v -0.06739692 0.34151319 0.09633167
v -0.01055949 0.40612602 0.09777228
v -0.02613481 0.40179059 0.09776316
v -0.04159282 0.39245144 0.09836493
v -0.00000027 -0.06729446 0.05404325
v 0.02872824 -0.06068093 0.09776316
v 0.03772283 -0.05562488 0.09884819
v 0.05639933 -0.03674897 0.09870230
v 0.06505688 -0.01691996 0.09758081
v 0.06587636 0.35360122 0.09882995
v 0.06042410 0.36932728 0.09640916
v -0.06587690 0.35360122 0.09882995
v -0.05639986 0.37675443 0.09870230
v -0.06123751 0.36764193 0.09895759
v -0.06586368 -0.01354927 0.09882995
v -0.05441061 -0.03953851 0.09751698
v -0.03772336 -0.05562488 0.09884819
v -0.02877503 -0.06050659 0.09919465
v 0.01387824 -0.06576023 0.05463135
v 0.04566001 -0.04944140 0.09633167
v 0.06122376 -0.02763646 0.09895759
v 0.06739639 -0.00146124 0.05404325
v 0.06738317 0.34151319 0.07284418
v 0.04778144 0.38694790 0.09788625
v 0.01521322 0.40520778 0.07007236
v -0.06122430 -0.02763646 0.09895759
v -0.06739692 -0.00146124 0.05404325
v -0.06738371 0.34151319 0.07284418
v -0.01350207 -0.06541154 0.05097054
v -0.00000027 0.40716046 0.07284418
v -0.05639986 0.37675443 0.07049178
v -0.02210674 -0.06352859 0.05521945
v -0.01524018 0.40520778 0.07007236
v -0.03120046 0.39940786 0.07153577
v -0.00117663 -0.06603919 0.05020009
v 0.01232517 -0.06548128 0.05087025
v 0.04805901 -0.04725626 0.05404325
v 0.05639933 -0.03674897 0.05167262
v 0.06586315 -0.01359576 0.05154497
v 0.05785327 0.04991287 -0.06676778
v 0.06586315 0.35350823 0.07038236
v 0.05638611 0.37675443 0.07056472
v 0.04607636 0.38761041 0.06937941
v 0.02876128 0.40051204 0.07009060
v -0.06586368 0.35360122 0.07038236
v -0.06123751 0.36764193 0.07027295
v -0.06586368 -0.01359576 0.05154497
v -0.05784058 0.04991287 -0.06676778
v -0.05745727 0.10658710 -0.06676778
v -0.05639986 -0.03674897 0.05167262
v -0.04527723 -0.04906945 0.05101613
v -0.04607690 0.38761041 0.06937941
v 0.02731395 -0.06083203 0.05088849
v 0.03773605 -0.05562488 0.05154497
v 0.06123698 -0.02763646 0.05145379
v 0.05745674 0.10658710 -0.06676778
v 0.04990287 -0.04439697 0.05104349
v 0.06122376 0.36764193 0.07029119
v -0.00000027 0.40609115 0.06906940
v -0.06123751 -0.02763646 0.05145379
v -0.02731448 -0.06083203 0.05088849
v -0.03773658 -0.05562488 0.05154497
v -0.05687570 0.11081791 -0.06676778
v 0.05688838 0.11081791 -0.06676778
v 0.01173698 0.40260422 0.06757408
v 0.02113471 0.17325720 -0.06676778
v -0.02112203 0.17325720 -0.06676778
v -0.01173752 0.40260422 0.06757408
v -0.02463792 0.40001225 0.06841748
v -0.03375807 0.16214551 -0.06676778
v -0.03739292 0.39309651 0.06845851
v 0.03342710 0.16288939 -0.06676778
v 0.03739239 0.39309651 0.06846763
v 0.03018218 0.16809654 -0.06676778
v 0.02605167 0.17169970 -0.06676778
v -0.02569533 0.17190892 -0.06676778
v -0.03044045 0.16777110 -0.06676778
f 1 3 4
f 1 4 2
f 2 5 1
f 1 6 3
f 3 6 7
f 2 4 9
f 2 9 8
f 5 2 8
f 1 5 6
f 6 5 10
f 6 10 7
f 7 11 3
f 3 12 4
f 4 12 9
f 8 9 13
f 8 13 14
f 9 15 13
f 9 12 15
f 5 16 17
f 5 17 10
f 10 18 7
f 7 18 19
f 7 19 11
f 3 11 12
f 12 20 15
f 14 13 21
f 14 21 8
f 15 23 13
f 8 22 5
f 5 22 16
f 16 24 25
f 16 25 17
f 17 26 18
f 17 18 10
f 19 18 27
f 12 11 20
f 13 30 21
f 8 21 22
f 23 30 13
f 17 25 26
f 18 26 27
f 19 27 32
f 27 26 33
f 19 32 28
f 19 28 11
f 11 28 29
f 30 36 37
f 30 37 38
f 30 38 21
f 30 23 39
f 30 39 36
f 21 38 22
f 22 38 31
f 15 20 40
f 16 22 24
f 26 41 33
f 29 20 11
f 34 20 29
f 36 39 42
f 36 42 43
f 36 44 45
f 36 45 46
f 36 46 47
f 36 47 37
f 23 40 48
f 23 48 39
f 39 48 49
f 22 31 24
f 15 40 23
f 25 24 51
f 25 51 52
f 25 52 26
f 24 31 50
f 24 53 51
f 26 52 54
f 26 54 41
f 27 33 32
f 29 28 55
f 29 55 34
f 34 35 20
f 20 35 56
f 20 56 40
f 43 44 36
f 47 46 57
f 39 49 58
f 47 59 37
f 37 59 60
f 37 61 38
f 38 61 31
f 49 48 62
f 31 61 50
f 24 50 53
f 33 63 64
f 33 64 32
f 28 65 55
f 35 55 56
f 39 66 42
f 42 66 67
f 42 68 43
f 43 68 69
f 43 69 70
f 43 70 44
f 44 71 45
f 45 71 72
f 45 57 46
f 58 66 39
f 59 73 60
f 37 60 61
f 40 56 48
f 48 56 62
f 32 64 65
f 32 65 28
f 41 63 33
f 55 35 34
f 67 66 76
f 42 67 68
f 69 77 78
f 69 78 70
f 70 78 71
f 70 71 44
f 45 72 79
f 45 79 57
f 47 57 59
f 59 80 73
f 49 62 81
f 62 74 81
f 58 82 66
f 58 49 81
f 58 81 82
f 73 83 60
f 61 60 84
f 61 84 53
f 51 54 52
f 75 85 51
f 75 51 53
f 41 86 63
f 63 87 88
f 63 88 64
f 55 65 89
f 55 89 90
f 56 91 62
f 66 82 76
f 69 68 77
f 62 91 74
f 74 92 103
f 61 53 50
f 51 85 54
f 75 53 84
f 83 85 75
f 54 93 94
f 88 95 64
f 64 95 65
f 65 95 89
f 89 92 90
f 90 56 55
f 56 90 91
f 76 82 96
f 77 97 98
f 77 98 78
f 71 78 99
f 72 71 100
f 57 80 59
f 80 102 73
f 74 103 81
f 82 81 105
f 82 105 104
f 73 102 83
f 60 83 84
f 85 93 54
f 75 84 83
f 41 54 106
f 63 107 108
f 63 108 87
f 87 108 109
f 88 87 95
f 77 68 97
f 78 98 99
f 72 100 79
f 79 101 57
f 83 102 110
f 91 90 92
f 91 92 74
f 92 89 103
f 83 110 85
f 85 110 93
f 93 110 94
f 94 106 54
f 41 106 86
f 86 111 63
f 63 111 107
f 108 112 109
f 87 109 95
f 95 113 89
f 96 115 76
f 96 82 114
f 76 116 67
f 67 117 68
f 97 68 117
f 97 117 118
f 97 118 119
f 97 119 98
f 98 119 99
f 99 100 71
f 79 100 101
f 101 120 57
f 57 120 80
f 80 120 102
f 81 103 105
f 103 89 113
f 105 103 113
f 102 120 121
f 102 121 110
f 110 121 94
f 107 111 108
f 109 113 95
f 96 114 115
f 114 82 123
f 76 115 116
f 67 116 117
f 117 116 118
f 118 124 119
f 119 124 99
f 99 124 125
f 99 125 100
f 82 104 123
f 105 113 104
f 104 113 123
f 120 101 126
f 120 126 121
f 121 126 94
f 111 86 127
f 111 127 122
f 106 128 86
f 111 122 108
f 108 122 112
f 114 123 115
f 118 116 122
f 118 122 127
f 118 127 124
f 125 127 86
f 100 125 129
f 100 128 101
f 101 128 126
f 126 106 94
f 106 126 128
f 122 116 112
f 112 116 115
f 112 115 123
f 112 123 109
f 113 109 123
f 127 125 124
f 125 86 129
f 129 128 100
f 128 129 86
f 130 131 132
f 132 131 133
f 130 134 131
f 132 133 135
f 132 135 136
f 132 137 130
f 130 137 138
f 130 138 139
f 130 139 134
f 131 141 140
f 131 134 141
f 133 142 135
f 135 143 136
f 132 136 144
f 132 144 137
f 136 145 144
f 137 147 146
f 137 146 138
f 139 148 134
f 140 141 149
f 140 149 150
f 131 140 133
f 133 140 151
f 133 151 142
f 142 151 152
f 136 143 145
f 144 145 154
f 138 156 139
f 141 157 149
f 149 157 150
f 151 159 152
f 134 153 141
f 142 152 135
f 143 161 172
f 144 147 137
f 147 155 146
f 155 162 163
f 155 163 146
f 139 165 164
f 139 164 148
f 148 164 166
f 157 167 158
f 157 158 150
f 157 168 167
f 150 151 140
f 158 167 169
f 135 152 170
f 135 170 143
f 143 170 161
f 134 148 160
f 145 143 172
f 144 154 147
f 162 173 174
f 162 174 163
f 146 163 175
f 146 175 138
f 138 175 176
f 165 177 178
f 165 178 164
f 164 179 166
f 141 180 168
f 157 141 168
f 169 167 182
f 169 182 181
f 151 150 159
f 166 179 183
f 148 166 171
f 134 160 153
f 148 171 160
f 160 171 184
f 160 184 185
f 161 186 172
f 145 187 188
f 145 172 187
f 154 145 188
f 154 188 189
f 147 190 155
f 155 190 162
f 162 190 173
f 163 174 191
f 175 163 191
f 156 138 176
f 156 176 165
f 156 165 139
f 178 179 164
f 167 193 182
f 180 194 195
f 180 195 168
f 168 193 167
f 169 181 196
f 169 196 158
f 158 196 150
f 159 197 198
f 159 198 152
f 152 198 199
f 152 199 170
f 153 180 141
f 153 160 180
f 171 166 183
f 183 184 171
f 186 200 172
f 189 188 201
f 154 202 147
f 154 189 202
f 147 202 190
f 173 203 204
f 173 204 174
f 175 191 192
f 175 192 176
f 176 205 165
f 165 205 177
f 178 206 179
f 195 193 168
f 196 207 150
f 181 182 208
f 182 209 208
f 159 150 207
f 159 207 197
f 160 185 180
f 180 185 194
f 186 161 210
f 190 203 173
f 192 205 176
f 179 206 211
f 179 211 183
f 195 194 212
f 181 208 196
f 170 199 213
f 170 213 210
f 170 210 161
f 183 211 214
f 184 183 214
f 184 215 185
f 172 200 234
f 172 234 187
f 186 216 217
f 186 217 200
f 201 218 189
f 189 218 219
f 201 188 218
f 190 202 220
f 190 220 203
f 203 220 221
f 203 221 204
f 174 204 191
f 191 222 192
f 192 223 205
f 205 224 177
f 178 225 206
f 182 193 209
f 209 193 226
f 195 227 193
f 196 208 228
f 196 228 207
f 208 209 229
f 209 226 230
f 209 230 229
f 197 232 198
f 210 216 186
f 214 215 184
f 216 221 217
f 216 229 221
f 217 234 200
f 217 221 234
f 187 234 188
f 188 234 235
f 189 219 202
f 220 202 236
f 220 236 221
f 221 229 230
f 221 230 244
f 221 244 251
f 221 251 258
f 221 258 257
f 221 257 248
f 221 248 247
f 221 247 256
f 221 256 255
f 221 255 253
f 221 253 245
f 221 245 237
f 221 237 204
f 221 236 219
f 221 219 238
f 221 238 235
f 221 235 234
f 204 237 222
f 204 222 191
f 222 239 192
f 205 223 224
f 177 224 225
f 177 225 178
f 211 206 240
f 211 240 214
f 212 227 195
f 228 241 207
f 229 231 241
f 229 241 228
f 229 228 208
f 229 216 210
f 229 210 242
f 229 242 243
f 229 243 232
f 229 232 231
f 226 227 244
f 226 244 230
f 231 232 197
f 198 243 199
f 199 243 213
f 194 185 212
f 210 213 242
f 185 215 233
f 185 233 212
f 218 235 238
f 188 235 218
f 219 218 238
f 219 236 202
f 237 245 222
f 222 245 239
f 223 192 239
f 206 225 246
f 206 246 240
f 240 246 247
f 240 247 248
f 240 249 214
f 240 248 249
f 214 249 250
f 214 250 215
f 193 227 226
f 207 241 231
f 207 231 197
f 242 213 243
f 227 212 251
f 227 251 244
f 198 232 243
f 215 250 252
f 215 252 233
f 239 245 253
f 239 253 223
f 225 224 254
f 225 254 256
f 246 225 256
f 246 256 247
f 248 257 250
f 248 250 249
f 212 258 251
f 250 257 252
f 252 257 233
f 212 233 258
f 223 253 255
f 223 255 224
f 254 224 256
f 224 255 256
f 257 258 233

