# https://github.com/mikedh/trimesh
v 0.27498001 -0.10430300 0.14900000
v 0.27494299 -0.10439500 0.15032201
v 0.27483001 -0.10466700 0.15161400
v 0.27464399 -0.10511500 0.15284701
v 0.27439100 -0.10572700 0.15399501
v 0.27407500 -0.10649000 0.15503100
v 0.27370301 -0.10738800 0.15593199
v 0.27328399 -0.10839900 0.15667900
v 0.27282700 -0.10950200 0.15725400
v 0.27234200 -0.11067200 0.15764400
v 0.27184099 -0.11188300 0.15784200
v 0.27133399 -0.11310700 0.15784200
v 0.27083200 -0.11431800 0.15764400
v 0.27034801 -0.11548800 0.15725400
v 0.26989099 -0.11659100 0.15667900
v 0.26947200 -0.11760300 0.15593199
v 0.26910001 -0.11850000 0.15503100
v 0.26878399 -0.11926400 0.15399501
v 0.26853001 -0.11987600 0.15284701
v 0.26834500 -0.12032300 0.15161400
v 0.26823199 -0.12059500 0.15032201
v 0.26819399 -0.12068700 0.14900000
v 0.26823199 -0.12059500 0.14767900
v 0.26834500 -0.12032300 0.14638600
v 0.26853001 -0.11987600 0.14515300
v 0.26878399 -0.11926400 0.14400500
v 0.26910001 -0.11850000 0.14296900
v 0.26947200 -0.11760300 0.14206800
v 0.26989099 -0.11659100 0.14132100
v 0.27034801 -0.11548800 0.14074600
v 0.27083200 -0.11431800 0.14035600
v 0.27133399 -0.11310700 0.14015800
v 0.27184099 -0.11188300 0.14015800
v 0.27234200 -0.11067200 0.14035600
v 0.27282700 -0.10950200 0.14074600
v 0.27328399 -0.10839900 0.14132100
v 0.27370301 -0.10738800 0.14206800
v 0.27407500 -0.10649000 0.14296900
v 0.27439100 -0.10572700 0.14400500
v 0.27464399 -0.10511500 0.14515300
v 0.27483001 -0.10466700 0.14638600
v 0.27494299 -0.10439500 0.14767900
v 0.27158701 -0.11249500 0.14900000
v 0.27328399 -0.10839900 0.14900000
v 0.27328399 -0.10839900 0.14456700
v 0.27413201 -0.10635100 0.14900000
v 0.27413201 -0.10635100 0.14456700
v 0.27328399 -0.10839900 0.15343300
v 0.27413201 -0.10635100 0.15343300
v 0.27158701 -0.11249500 0.15343300
v 0.27243599 -0.11044700 0.14900000
v 0.27243599 -0.11044700 0.15343300
v 0.26989099 -0.11659100 0.14900000
v 0.26989099 -0.11659100 0.15343300
v 0.27073899 -0.11454300 0.14900000
v 0.27073899 -0.11454300 0.15343300
v 0.26904199 -0.11863900 0.14900000
v 0.26904199 -0.11863900 0.15343300
v 0.26989099 -0.11659100 0.14456700
v 0.26904199 -0.11863900 0.14456700
v 0.27158701 -0.11249500 0.14456700
v 0.27073899 -0.11454300 0.14456700
v 0.27243599 -0.11044700 0.14456700
v 0.10430300 -0.27498001 0.14900000
v 0.10439500 -0.27494299 0.14767900
v 0.10466700 -0.27483001 0.14638600
v 0.10511500 -0.27464399 0.14515300
v 0.10572700 -0.27439100 0.14400500
v 0.10649000 -0.27407500 0.14296900
v 0.10738800 -0.27370301 0.14206800
v 0.10839900 -0.27328399 0.14132100
v 0.10950200 -0.27282700 0.14074600
v 0.11067200 -0.27234200 0.14035600
v 0.11188300 -0.27184099 0.14015800
v 0.11310700 -0.27133399 0.14015800
v 0.11431800 -0.27083200 0.14035600
v 0.11548800 -0.27034801 0.14074600
v 0.11659100 -0.26989099 0.14132100
v 0.11760300 -0.26947200 0.14206800
v 0.11850000 -0.26910001 0.14296900
v 0.11926400 -0.26878399 0.14400500
v 0.11987600 -0.26853001 0.14515300
v 0.12032300 -0.26834500 0.14638600
v 0.12059500 -0.26823199 0.14767900
v 0.12068700 -0.26819399 0.14900000
v 0.12059500 -0.26823199 0.15032201
v 0.12032300 -0.26834500 0.15161400
v 0.11987600 -0.26853001 0.15284701
v 0.11926400 -0.26878399 0.15399501
v 0.11850000 -0.26910001 0.15503100
v 0.11760300 -0.26947200 0.15593199
v 0.11659100 -0.26989099 0.15667900
v 0.11548800 -0.27034801 0.15725400
v 0.11431800 -0.27083200 0.15764400
v 0.11310700 -0.27133399 0.15784200
v 0.11188300 -0.27184099 0.15784200
v 0.11067200 -0.27234200 0.15764400
v 0.10950200 -0.27282700 0.15725400
v 0.10839900 -0.27328399 0.15667900
v 0.10738800 -0.27370301 0.15593199
v 0.10649000 -0.27407500 0.15503100
v 0.10572700 -0.27439100 0.15399501
v 0.10511500 -0.27464399 0.15284701
v 0.10466700 -0.27483001 0.15161400
v 0.10439500 -0.27494299 0.15032201
v 0.11249500 -0.27158701 0.14900000
v 0.10839900 -0.27328399 0.14900000
v 0.10839900 -0.27328399 0.14456700
v 0.10635100 -0.27413201 0.14900000
v 0.10635100 -0.27413201 0.14456700
v 0.11249500 -0.27158701 0.14456700
v 0.11044700 -0.27243599 0.14900000
v 0.11044700 -0.27243599 0.14456700
v 0.11659100 -0.26989099 0.14900000
v 0.11659100 -0.26989099 0.14456700
v 0.11454300 -0.27073899 0.14900000
v 0.11454300 -0.27073899 0.14456700
v 0.11863900 -0.26904199 0.14900000
v 0.11863900 -0.26904199 0.14456700
v 0.11659100 -0.26989099 0.15343300
v 0.11863900 -0.26904199 0.15343300
v 0.11249500 -0.27158701 0.15343300
v 0.11454300 -0.27073899 0.15343300
v 0.10839900 -0.27328399 0.15343300
v 0.11044700 -0.27243599 0.15343300
v 0.10635100 -0.27413201 0.15343300
v -0.10430300 -0.27498001 0.14900000
v -0.10439500 -0.27494299 0.15032201
v -0.10466700 -0.27483001 0.15161400
v -0.10511500 -0.27464399 0.15284701
v -0.10572700 -0.27439100 0.15399501
v -0.10649000 -0.27407500 0.15503100
v -0.10738800 -0.27370301 0.15593199
v -0.10839900 -0.27328399 0.15667900
v -0.10950200 -0.27282700 0.15725400
v -0.11067200 -0.27234200 0.15764400
v -0.11188300 -0.27184099 0.15784200
v -0.11310700 -0.27133399 0.15784200
v -0.11431800 -0.27083200 0.15764400
v -0.11548800 -0.27034801 0.15725400
v -0.11659100 -0.26989099 0.15667900
v -0.11760300 -0.26947200 0.15593199
v -0.11850000 -0.26910001 0.15503100
v -0.11926400 -0.26878399 0.15399501
v -0.11987600 -0.26853001 0.15284701
v -0.12032300 -0.26834500 0.15161400
v -0.12059500 -0.26823199 0.15032201
v -0.12068700 -0.26819399 0.14900000
v -0.12059500 -0.26823199 0.14767900
v -0.12032300 -0.26834500 0.14638600
v -0.11987600 -0.26853001 0.14515300
v -0.11926400 -0.26878399 0.14400500
v -0.11850000 -0.26910001 0.14296900
v -0.11760300 -0.26947200 0.14206800
v -0.11659100 -0.26989099 0.14132100
v -0.11548800 -0.27034801 0.14074600
v -0.11431800 -0.27083200 0.14035600
v -0.11310700 -0.27133399 0.14015800
v -0.11188300 -0.27184099 0.14015800
v -0.11067200 -0.27234200 0.14035600
v -0.10950200 -0.27282700 0.14074600
v -0.10839900 -0.27328399 0.14132100
v -0.10738800 -0.27370301 0.14206800
v -0.10649000 -0.27407500 0.14296900
v -0.10572700 -0.27439100 0.14400500
v -0.10511500 -0.27464399 0.14515300
v -0.10466700 -0.27483001 0.14638600
v -0.10439500 -0.27494299 0.14767900
v -0.11249500 -0.27158701 0.14900000
v -0.11249500 -0.27158701 0.14456700
v -0.10839900 -0.27328399 0.14900000
v -0.10839900 -0.27328399 0.14456700
v -0.10839900 -0.27328399 0.14678299
v -0.10635100 -0.27413201 0.14456700
v -0.10635100 -0.27413201 0.14900000
v -0.10635100 -0.27413201 0.14678299
v -0.11249500 -0.27158701 0.15343300
v -0.10839900 -0.27328399 0.15343300
v -0.10839900 -0.27328399 0.15121700
v -0.10635100 -0.27413201 0.15343300
v -0.10635100 -0.27413201 0.15121700
v -0.10839900 -0.27328399 0.15565000
v -0.11249500 -0.27158701 0.15565000
v -0.11044700 -0.27243599 0.15343300
v -0.11044700 -0.27243599 0.15565000
v -0.11659100 -0.26989099 0.14900000
v -0.11659100 -0.26989099 0.15343300
v -0.11659100 -0.26989099 0.15565000
v -0.11454300 -0.27073899 0.15343300
v -0.11454300 -0.27073899 0.15565000
v -0.11863900 -0.26904199 0.15343300
v -0.11863900 -0.26904199 0.14900000
v -0.11659100 -0.26989099 0.15121700
v -0.11863900 -0.26904199 0.15121700
v -0.11659100 -0.26989099 0.14456700
v -0.11863900 -0.26904199 0.14456700
v -0.11659100 -0.26989099 0.14678299
v -0.11863900 -0.26904199 0.14678299
v -0.11659100 -0.26989099 0.14235000
v -0.11249500 -0.27158701 0.14235000
v -0.11454300 -0.27073899 0.14456700
v -0.11454300 -0.27073899 0.14235000
v -0.10839900 -0.27328399 0.14235000
v -0.11044700 -0.27243599 0.14456700
v -0.11044700 -0.27243599 0.14235000
v -0.27498001 -0.10430300 0.14900000
v -0.27494299 -0.10439500 0.14767900
v -0.27483001 -0.10466700 0.14638600
v -0.27464399 -0.10511500 0.14515300
v -0.27439100 -0.10572700 0.14400500
v -0.27407500 -0.10649000 0.14296900
v -0.27370301 -0.10738800 0.14206800
v -0.27328399 -0.10839900 0.14132100
v -0.27282700 -0.10950200 0.14074600
v -0.27234200 -0.11067200 0.14035600
v -0.27184099 -0.11188300 0.14015800
v -0.27133399 -0.11310700 0.14015800
v -0.27083200 -0.11431800 0.14035600
v -0.27034801 -0.11548800 0.14074600
v -0.26989099 -0.11659100 0.14132100
v -0.26947200 -0.11760300 0.14206800
v -0.26910001 -0.11850000 0.14296900
v -0.26878399 -0.11926400 0.14400500
v -0.26853001 -0.11987600 0.14515300
v -0.26834500 -0.12032300 0.14638600
v -0.26823199 -0.12059500 0.14767900
v -0.26819399 -0.12068700 0.14900000
v -0.26823199 -0.12059500 0.15032201
v -0.26834500 -0.12032300 0.15161400
v -0.26853001 -0.11987600 0.15284701
v -0.26878399 -0.11926400 0.15399501
v -0.26910001 -0.11850000 0.15503100
v -0.26947200 -0.11760300 0.15593199
v -0.26989099 -0.11659100 0.15667900
v -0.27034801 -0.11548800 0.15725400
v -0.27083200 -0.11431800 0.15764400
v -0.27133399 -0.11310700 0.15784200
v -0.27184099 -0.11188300 0.15784200
v -0.27234200 -0.11067200 0.15764400
v -0.27282700 -0.10950200 0.15725400
v -0.27328399 -0.10839900 0.15667900
v -0.27370301 -0.10738800 0.15593199
v -0.27407500 -0.10649000 0.15503100
v -0.27439100 -0.10572700 0.15399501
v -0.27464399 -0.10511500 0.15284701
v -0.27483001 -0.10466700 0.15161400
v -0.27494299 -0.10439500 0.15032201
v -0.27158701 -0.11249500 0.14900000
v -0.27328399 -0.10839900 0.14900000
v -0.27328399 -0.10839900 0.14456700
v -0.27413201 -0.10635100 0.14900000
v -0.27413201 -0.10635100 0.14456700
v -0.27158701 -0.11249500 0.14456700
v -0.27243599 -0.11044700 0.14900000
v -0.27243599 -0.11044700 0.14456700
v -0.26989099 -0.11659100 0.14900000
v -0.26989099 -0.11659100 0.14456700
v -0.27073899 -0.11454300 0.14900000
v -0.27073899 -0.11454300 0.14456700
v -0.26904199 -0.11863900 0.14900000
v -0.26904199 -0.11863900 0.14456700
v -0.26989099 -0.11659100 0.15343300
v -0.26904199 -0.11863900 0.15343300
v -0.27158701 -0.11249500 0.15343300
v -0.27073899 -0.11454300 0.15343300
v -0.27328399 -0.10839900 0.15343300
v -0.27243599 -0.11044700 0.15343300
v -0.27413201 -0.10635100 0.15343300
v -0.27498001 0.10430300 0.14900000
v -0.27494299 0.10439500 0.14767800
v -0.27483001 0.10466700 0.14638600
v -0.27464399 0.10511500 0.14515300
v -0.27439100 0.10572700 0.14400500
v -0.27407500 0.10649000 0.14296900
v -0.27370301 0.10738800 0.14206800
v -0.27328399 0.10839900 0.14132100
v -0.27282700 0.10950200 0.14074600
v -0.27234200 0.11067200 0.14035600
v -0.27184099 0.11188300 0.14015800
v -0.27133399 0.11310700 0.14015800
v -0.27083200 0.11431800 0.14035600
v -0.27034801 0.11548800 0.14074600
v -0.26989099 0.11659100 0.14132100
v -0.26947200 0.11760300 0.14206800
v -0.26910001 0.11850000 0.14296900
v -0.26878399 0.11926400 0.14400500
v -0.26853001 0.11987600 0.14515300
v -0.26834500 0.12032300 0.14638600
v -0.26823199 0.12059500 0.14767800
v -0.26819399 0.12068700 0.14900000
v -0.26823199 0.12059500 0.15032201
v -0.26834500 0.12032300 0.15161400
v -0.26853001 0.11987600 0.15284701
v -0.26878399 0.11926400 0.15399501
v -0.26910001 0.11850000 0.15503100
v -0.26947200 0.11760300 0.15593199
v -0.26989099 0.11659100 0.15667900
v -0.27034801 0.11548800 0.15725400
v -0.27083200 0.11431800 0.15764400
v -0.27133399 0.11310700 0.15784200
v -0.27184099 0.11188300 0.15784200
v -0.27234200 0.11067200 0.15764400
v -0.27282700 0.10950200 0.15725400
v -0.27328399 0.10839900 0.15667900
v -0.27370301 0.10738800 0.15593199
v -0.27407500 0.10649000 0.15503100
v -0.27439100 0.10572700 0.15399501
v -0.27464399 0.10511500 0.15284701
v -0.27483001 0.10466700 0.15161400
v -0.27494299 0.10439500 0.15032201
v -0.27158701 0.11249500 0.14900000
v -0.27158701 0.11249500 0.14456700
v -0.27328399 0.10839900 0.14900000
v -0.27328399 0.10839900 0.14456700
v -0.27328399 0.10839900 0.14678299
v -0.27413201 0.10635100 0.14900000
v -0.27413201 0.10635100 0.14456700
v -0.27413201 0.10635100 0.14678299
v -0.27158701 0.11249500 0.15343300
v -0.27328399 0.10839900 0.15343300
v -0.27328399 0.10839900 0.14235000
v -0.27158701 0.11249500 0.14235000
v -0.27243599 0.11044700 0.14456700
v -0.27243599 0.11044700 0.14235000
v -0.26989099 0.11659100 0.14900000
v -0.26989099 0.11659100 0.14456700
v -0.26989099 0.11659100 0.14235000
v -0.27073899 0.11454300 0.14456700
v -0.27073899 0.11454300 0.14235000
v -0.26904199 0.11863900 0.14456700
v -0.26904199 0.11863900 0.14900000
v -0.26989099 0.11659100 0.14678299
v -0.26904199 0.11863900 0.14678299
v -0.26989099 0.11659100 0.15343300
v -0.26904199 0.11863900 0.15343300
v -0.26989099 0.11659100 0.15121700
v -0.26904199 0.11863900 0.15121700
v -0.26989099 0.11659100 0.15565000
v -0.27158701 0.11249500 0.15565000
v -0.27073899 0.11454300 0.15343300
v -0.27073899 0.11454300 0.15565000
v -0.27328399 0.10839900 0.15565000
v -0.27243599 0.11044700 0.15343300
v -0.27243599 0.11044700 0.15565000
v -0.27413201 0.10635100 0.15343300
v -0.27328399 0.10839900 0.15121700
v -0.27413201 0.10635100 0.15121700
v -0.10430300 0.27498001 0.14900000
v -0.10439500 0.27494299 0.14767800
v -0.10466700 0.27483001 0.14638600
v -0.10511500 0.27464399 0.14515300
v -0.10572700 0.27439100 0.14400500
v -0.10649000 0.27407500 0.14296900
v -0.10738800 0.27370301 0.14206800
v -0.10839900 0.27328399 0.14132100
v -0.10950200 0.27282700 0.14074600
v -0.11067200 0.27234200 0.14035600
v -0.11188300 0.27184099 0.14015800
v -0.11310700 0.27133399 0.14015800
v -0.11431800 0.27083200 0.14035600
v -0.11548800 0.27034801 0.14074600
v -0.11659100 0.26989099 0.14132100
v -0.11760300 0.26947200 0.14206800
v -0.11850000 0.26910001 0.14296900
v -0.11926400 0.26878399 0.14400500
v -0.11987600 0.26853001 0.14515300
v -0.12032300 0.26834500 0.14638600
v -0.12059500 0.26823199 0.14767800
v -0.12068700 0.26819399 0.14900000
v -0.12059500 0.26823199 0.15032201
v -0.12032300 0.26834500 0.15161400
v -0.11987600 0.26853001 0.15284701
v -0.11926400 0.26878399 0.15399501
v -0.11850000 0.26910001 0.15503100
v -0.11760300 0.26947200 0.15593199
v -0.11659100 0.26989099 0.15667900
v -0.11548800 0.27034801 0.15725400
v -0.11431800 0.27083200 0.15764400
v -0.11310700 0.27133399 0.15784200
v -0.11188300 0.27184099 0.15784200
v -0.11067200 0.27234200 0.15764400
v -0.10950200 0.27282700 0.15725400
v -0.10839900 0.27328399 0.15667900
v -0.10738800 0.27370301 0.15593199
v -0.10649000 0.27407500 0.15503100
v -0.10572700 0.27439100 0.15399501
v -0.10511500 0.27464399 0.15284701
v -0.10466700 0.27483001 0.15161400
v -0.10439500 0.27494299 0.15032201
v -0.11249500 0.27158701 0.14900000
v -0.10839900 0.27328399 0.14900000
v -0.10839900 0.27328399 0.14456700
v -0.10635100 0.27413201 0.14900000
v -0.10635100 0.27413201 0.14456700
v -0.11249500 0.27158701 0.14456700
v -0.11044700 0.27243599 0.14900000
v -0.11044700 0.27243599 0.14456700
v -0.11659100 0.26989099 0.14900000
v -0.11659100 0.26989099 0.14456700
v -0.11454300 0.27073899 0.14900000
v -0.11454300 0.27073899 0.14456700
v -0.11863900 0.26904199 0.14900000
v -0.11863900 0.26904199 0.14456700
v -0.11659100 0.26989099 0.15343300
v -0.11863900 0.26904199 0.15343300
v -0.11249500 0.27158701 0.15343300
v -0.11454300 0.27073899 0.15343300
v -0.10839900 0.27328399 0.15343300
v -0.11044700 0.27243599 0.15343300
v -0.10635100 0.27413201 0.15343300
v 0.27498001 0.10430300 0.14900000
v 0.27494299 0.10439500 0.14767800
v 0.27483001 0.10466700 0.14638600
v 0.27464399 0.10511500 0.14515300
v 0.27439100 0.10572700 0.14400500
v 0.27407500 0.10649000 0.14296900
v 0.27370301 0.10738800 0.14206800
v 0.27328399 0.10839900 0.14132100
v 0.27282700 0.10950200 0.14074600
v 0.27234200 0.11067200 0.14035600
v 0.27184099 0.11188300 0.14015800
v 0.27133399 0.11310700 0.14015800
v 0.27083200 0.11431800 0.14035600
v 0.27034801 0.11548800 0.14074600
v 0.26989099 0.11659100 0.14132100
v 0.26947200 0.11760300 0.14206800
v 0.26910001 0.11850000 0.14296900
v 0.26878399 0.11926400 0.14400500
v 0.26853001 0.11987600 0.14515300
v 0.26834500 0.12032300 0.14638600
v 0.26823199 0.12059500 0.14767800
v 0.26819399 0.12068700 0.14900000
v 0.26823199 0.12059500 0.15032201
v 0.26834500 0.12032300 0.15161400
v 0.26853001 0.11987600 0.15284701
v 0.26878399 0.11926400 0.15399501
v 0.26910001 0.11850000 0.15503100
v 0.26947200 0.11760300 0.15593199
v 0.26989099 0.11659100 0.15667900
v 0.27034801 0.11548800 0.15725400
v 0.27083200 0.11431800 0.15764400
v 0.27133399 0.11310700 0.15784200
v 0.27184099 0.11188300 0.15784200
v 0.27234200 0.11067200 0.15764400
v 0.27282700 0.10950200 0.15725400
v 0.27328399 0.10839900 0.15667900
v 0.27370301 0.10738800 0.15593199
v 0.27407500 0.10649000 0.15503100
v 0.27439100 0.10572700 0.15399501
v 0.27464399 0.10511500 0.15284701
v 0.27483001 0.10466700 0.15161400
v 0.27494299 0.10439500 0.15032201
v 0.27158701 0.11249500 0.14900000
v 0.27328399 0.10839900 0.14900000
v 0.27328399 0.10839900 0.14456700
v 0.27413201 0.10635100 0.14900000
v 0.27413201 0.10635100 0.14456700
v 0.27158701 0.11249500 0.14456700
v 0.27243599 0.11044700 0.14900000
v 0.27243599 0.11044700 0.14456700
v 0.26989099 0.11659100 0.14900000
v 0.26989099 0.11659100 0.14456700
v 0.27073899 0.11454300 0.14900000
v 0.27073899 0.11454300 0.14456700
v 0.26904199 0.11863900 0.14900000
v 0.26904199 0.11863900 0.14456700
v 0.26989099 0.11659100 0.15343300
v 0.26904199 0.11863900 0.15343300
v 0.27158701 0.11249500 0.15343300
v 0.27073899 0.11454300 0.15343300
v 0.27328399 0.10839900 0.15343300
v 0.27243599 0.11044700 0.15343300
v 0.27413201 0.10635100 0.15343300
v 0.10430300 0.27498001 0.14900000
v 0.10439500 0.27494299 0.15032201
v 0.10466700 0.27483001 0.15161400
v 0.10511500 0.27464399 0.15284701
v 0.10572700 0.27439100 0.15399501
v 0.10649000 0.27407500 0.15503100
v 0.10738800 0.27370301 0.15593199
v 0.10839900 0.27328399 0.15667900
v 0.10950200 0.27282700 0.15725400
v 0.11067200 0.27234200 0.15764400
v 0.11188300 0.27184099 0.15784200
v 0.11310700 0.27133399 0.15784200
v 0.11431800 0.27083200 0.15764400
v 0.11548800 0.27034801 0.15725400
v 0.11659100 0.26989099 0.15667900
v 0.11760300 0.26947200 0.15593199
v 0.11850000 0.26910001 0.15503100
v 0.11926400 0.26878399 0.15399501
v 0.11987600 0.26853001 0.15284701
v 0.12032300 0.26834500 0.15161400
v 0.12059500 0.26823199 0.15032201
v 0.12068700 0.26819399 0.14900000
v 0.12059500 0.26823199 0.14767800
v 0.12032300 0.26834500 0.14638600
v 0.11987600 0.26853001 0.14515300
v 0.11926400 0.26878399 0.14400500
v 0.11850000 0.26910001 0.14296900
v 0.11760300 0.26947200 0.14206800
v 0.11659100 0.26989099 0.14132100
v 0.11548800 0.27034801 0.14074600
v 0.11431800 0.27083200 0.14035600
v 0.11310700 0.27133399 0.14015800
v 0.11188300 0.27184099 0.14015800
v 0.11067200 0.27234200 0.14035600
v 0.10950200 0.27282700 0.14074600
v 0.10839900 0.27328399 0.14132100
v 0.10738800 0.27370301 0.14206800
v 0.10649000 0.27407500 0.14296900
v 0.10572700 0.27439100 0.14400500
v 0.10511500 0.27464399 0.14515300
v 0.10466700 0.27483001 0.14638600
v 0.10439500 0.27494299 0.14767800
v 0.11249500 0.27158701 0.14900000
v 0.11249500 0.27158701 0.14456700
v 0.10839900 0.27328399 0.14900000
v 0.10839900 0.27328399 0.14456700
v 0.10839900 0.27328399 0.14678299
v 0.10635100 0.27413201 0.14456700
v 0.10635100 0.27413201 0.14900000
v 0.10635100 0.27413201 0.14678299
v 0.11249500 0.27158701 0.15343300
v 0.10839900 0.27328399 0.15343300
v 0.10839900 0.27328399 0.15121700
v 0.10635100 0.27413201 0.15343300
v 0.10635100 0.27413201 0.15121700
v 0.10839900 0.27328399 0.15565000
v 0.11249500 0.27158701 0.15565000
v 0.11044700 0.27243599 0.15343300
v 0.11044700 0.27243599 0.15565000
v 0.11659100 0.26989099 0.14900000
v 0.11659100 0.26989099 0.15343300
v 0.11659100 0.26989099 0.15565000
v 0.11454300 0.27073899 0.15343300
v 0.11454300 0.27073899 0.15565000
v 0.11863900 0.26904199 0.15343300
v 0.11863900 0.26904199 0.14900000
v 0.11659100 0.26989099 0.15121700
v 0.11863900 0.26904199 0.15121700
v 0.11659100 0.26989099 0.14456700
v 0.11863900 0.26904199 0.14456700
v 0.11659100 0.26989099 0.14678299
v 0.11863900 0.26904199 0.14678299
v 0.11659100 0.26989099 0.14235000
v 0.11249500 0.27158701 0.14235000
v 0.11454300 0.27073899 0.14456700
v 0.11454300 0.27073899 0.14235000
v 0.10839900 0.27328399 0.14235000
v 0.11044700 0.27243599 0.14456700
v 0.11044700 0.27243599 0.14235000
f 45 51 63
f 63 43 61
f 47 44 45
f 46 48 44
f 51 50 43
f 44 52 51
f 59 57 60
f 61 55 62
f 62 53 59
f 55 54 53
f 43 56 55
f 53 58 57
f 6 49 5
f 7 49 6
f 3 46 2
f 46 3 4
f 5 49 4
f 46 4 49
f 49 7 48
f 10 52 9
f 11 52 10
f 7 8 48
f 48 8 9
f 52 48 9
f 52 11 50
f 50 11 12
f 42 1 46
f 2 46 1
f 41 42 46
f 40 41 46
f 38 39 47
f 40 47 39
f 40 46 47
f 37 38 47
f 36 37 45
f 37 47 45
f 63 35 45
f 35 36 45
f 34 35 63
f 34 63 33
f 61 33 63
f 13 56 12
f 14 56 13
f 56 14 54
f 15 54 14
f 58 54 16
f 15 16 54
f 58 17 18
f 19 58 18
f 20 57 19
f 58 19 57
f 57 20 21
f 22 57 21
f 17 58 16
f 32 61 62
f 30 62 59
f 31 32 62
f 62 30 31
f 59 29 30
f 29 59 28
f 33 61 32
f 57 24 25
f 57 23 24
f 57 25 60
f 60 27 28
f 27 60 26
f 25 26 60
f 60 28 59
f 23 57 22
f 12 56 50
f 124 112 125
f 125 106 122
f 126 107 124
f 109 108 107
f 112 111 106
f 107 113 112
f 120 118 121
f 122 116 123
f 123 114 120
f 116 115 114
f 106 117 116
f 114 119 118
f 69 110 68
f 70 110 69
f 66 109 65
f 109 66 67
f 68 110 67
f 109 67 110
f 110 70 108
f 73 113 72
f 74 113 73
f 108 71 72
f 70 71 108
f 113 108 72
f 113 74 111
f 111 74 75
f 105 64 109
f 65 109 64
f 104 105 109
f 103 104 109
f 101 102 126
f 103 126 102
f 103 109 126
f 100 101 126
f 99 100 124
f 100 126 124
f 125 98 124
f 98 99 124
f 97 98 125
f 97 125 96
f 122 96 125
f 76 117 75
f 77 117 76
f 115 117 77
f 115 78 79
f 115 77 78
f 119 115 79
f 119 80 81
f 82 119 81
f 83 118 82
f 119 82 118
f 118 83 84
f 85 118 84
f 80 119 79
f 95 122 123
f 93 123 120
f 94 95 123
f 123 93 94
f 120 92 93
f 92 120 91
f 96 122 95
f 118 87 88
f 118 86 87
f 118 88 121
f 121 90 91
f 90 121 89
f 88 89 121
f 121 91 120
f 86 118 85
f 75 117 111
f 200 201 202
f 202 195 199
f 197 195 201
f 201 170 169
f 169 186 197
f 197 201 169
f 195 198 196
f 197 192 198
f 203 204 205
f 205 170 200
f 174 173 172
f 176 171 173
f 204 172 173
f 173 171 169
f 169 170 204
f 204 173 169
f 179 178 184
f 184 177 169
f 169 171 179
f 179 184 169
f 175 179 171
f 181 178 179
f 184 183 177
f 178 185 184
f 186 194 192
f 193 191 194
f 189 187 193
f 193 186 169
f 169 177 189
f 189 193 169
f 189 188 187
f 177 190 189
f 130 131 180
f 132 180 131
f 178 180 132
f 181 128 129
f 129 130 181
f 180 181 130
f 175 128 181
f 133 182 132
f 135 182 134
f 185 135 136
f 136 137 185
f 132 182 178
f 137 183 185
f 185 182 135
f 183 137 138
f 133 134 182
f 175 168 127
f 168 175 176
f 175 127 128
f 167 168 176
f 166 167 176
f 164 165 174
f 166 174 165
f 166 176 174
f 203 164 172
f 174 172 164
f 161 203 205
f 163 164 203
f 162 163 203
f 161 205 160
f 203 161 162
f 159 160 205
f 159 205 200
f 139 190 138
f 140 190 139
f 141 188 140
f 188 190 140
f 142 143 188
f 187 188 143
f 188 141 142
f 144 191 143
f 191 144 145
f 194 191 145
f 147 192 194
f 194 146 147
f 146 194 145
f 148 192 147
f 191 187 143
f 158 200 202
f 153 199 195
f 156 202 199
f 157 158 202
f 202 156 157
f 199 155 156
f 155 199 154
f 159 200 158
f 151 198 150
f 149 150 198
f 192 149 198
f 153 154 199
f 152 196 151
f 198 151 196
f 153 196 152
f 195 196 153
f 192 148 149
f 138 190 183
f 266 254 267
f 267 248 264
f 268 249 266
f 251 250 249
f 254 253 248
f 249 255 254
f 262 260 263
f 264 258 265
f 265 256 262
f 258 257 256
f 248 259 258
f 256 261 260
f 211 252 210
f 212 252 211
f 208 251 207
f 251 208 209
f 210 252 209
f 251 209 252
f 252 212 250
f 215 255 214
f 216 255 215
f 250 213 214
f 212 213 250
f 255 250 214
f 255 216 253
f 253 216 217
f 247 206 251
f 207 251 206
f 246 247 251
f 245 246 251
f 243 244 268
f 245 268 244
f 245 251 268
f 242 243 268
f 241 242 266
f 242 268 266
f 267 240 266
f 240 241 266
f 239 240 267
f 239 267 238
f 264 238 267
f 218 259 217
f 219 259 218
f 259 219 257
f 220 257 219
f 261 257 221
f 220 221 257
f 261 222 223
f 224 261 223
f 225 260 224
f 261 224 260
f 260 225 226
f 227 260 226
f 222 261 221
f 237 264 265
f 235 265 262
f 236 237 265
f 265 235 236
f 262 234 235
f 234 262 233
f 238 264 237
f 260 229 230
f 260 228 229
f 260 230 263
f 263 232 233
f 232 263 231
f 230 231 263
f 263 233 262
f 228 260 227
f 217 259 253
f 340 339 341
f 334 341 338
f 336 340 334
f 340 311 319
f 311 336 325
f 336 311 340
f 337 334 335
f 331 336 337
f 343 342 344
f 319 344 339
f 346 345 320
f 313 347 346
f 343 346 320
f 346 311 313
f 311 343 319
f 343 311 346
f 315 323 314
f 323 311 312
f 311 315 313
f 315 311 323
f 315 316 313
f 314 318 315
f 322 323 312
f 324 314 323
f 333 325 331
f 330 332 333
f 328 332 326
f 332 311 325
f 311 328 312
f 328 311 332
f 327 328 326
f 329 312 328
f 272 317 273
f 274 273 317
f 314 274 317
f 318 271 270
f 271 318 272
f 317 272 318
f 316 318 270
f 275 274 321
f 277 276 321
f 278 277 324
f 279 278 324
f 321 274 314
f 279 324 322
f 324 277 321
f 322 280 279
f 276 275 321
f 316 269 310
f 310 347 316
f 316 270 269
f 309 347 310
f 308 347 309
f 306 345 307
f 308 307 345
f 308 345 347
f 342 320 306
f 345 306 320
f 303 344 342
f 305 342 306
f 304 342 305
f 304 303 342
f 344 303 302
f 302 301 344
f 301 339 344
f 281 280 329
f 329 282 281
f 282 327 283
f 327 282 329
f 284 327 285
f 326 285 327
f 327 284 283
f 286 285 330
f 330 287 286
f 333 287 330
f 289 333 331
f 333 289 288
f 288 287 333
f 290 289 331
f 330 285 326
f 300 341 339
f 295 334 338
f 298 338 341
f 299 341 300
f 341 299 298
f 338 298 297
f 297 296 338
f 301 300 339
f 293 292 337
f 291 337 292
f 331 337 291
f 295 338 296
f 294 293 335
f 337 335 293
f 295 294 335
f 334 295 335
f 331 291 290
f 280 322 329
f 408 396 409
f 409 390 406
f 410 391 408
f 393 392 391
f 396 395 390
f 391 397 396
f 404 402 405
f 406 400 407
f 407 398 404
f 400 399 398
f 390 401 400
f 398 403 402
f 353 394 352
f 354 394 353
f 350 393 349
f 393 350 351
f 352 394 351
f 393 351 394
f 394 354 392
f 357 397 356
f 358 397 357
f 392 355 356
f 354 355 392
f 397 392 356
f 397 358 395
f 395 358 359
f 389 348 393
f 349 393 348
f 388 389 393
f 387 388 393
f 385 386 410
f 387 410 386
f 387 393 410
f 384 385 410
f 383 384 408
f 384 410 408
f 409 382 408
f 382 383 408
f 381 382 409
f 381 409 380
f 406 380 409
f 360 401 359
f 361 401 360
f 401 361 399
f 362 399 361
f 403 399 363
f 362 363 399
f 403 364 365
f 366 403 365
f 367 402 366
f 403 366 402
f 402 367 368
f 369 402 368
f 364 403 363
f 379 406 407
f 377 407 404
f 378 379 407
f 407 377 378
f 404 376 377
f 376 404 375
f 380 406 379
f 402 371 372
f 402 370 371
f 402 372 405
f 405 374 375
f 374 405 373
f 372 373 405
f 405 375 404
f 370 402 369
f 359 401 395
f 471 459 472
f 472 453 469
f 473 454 471
f 456 455 454
f 459 458 453
f 454 460 459
f 467 465 468
f 469 463 470
f 470 461 467
f 463 462 461
f 453 464 463
f 461 466 465
f 416 457 415
f 417 457 416
f 413 456 412
f 456 413 414
f 415 457 414
f 456 414 457
f 457 417 455
f 420 460 419
f 421 460 420
f 455 418 419
f 417 418 455
f 460 455 419
f 460 421 458
f 458 421 422
f 452 411 456
f 412 456 411
f 451 452 456
f 450 451 456
f 448 449 473
f 450 473 449
f 450 456 473
f 447 448 473
f 446 447 471
f 447 473 471
f 472 445 471
f 445 446 471
f 444 445 472
f 444 472 443
f 469 443 472
f 423 464 422
f 424 464 423
f 464 424 462
f 425 462 424
f 466 462 426
f 425 426 462
f 466 427 428
f 429 466 428
f 430 465 429
f 466 429 465
f 465 430 431
f 432 465 431
f 427 466 426
f 442 469 470
f 440 470 467
f 441 442 470
f 470 440 441
f 467 439 440
f 439 467 438
f 443 469 442
f 465 434 435
f 465 433 434
f 465 435 468
f 468 437 438
f 437 468 436
f 435 436 468
f 468 438 467
f 433 465 432
f 422 464 458
f 547 548 549
f 549 542 546
f 544 542 548
f 548 517 516
f 516 533 544
f 544 548 516
f 542 545 543
f 544 539 545
f 550 551 552
f 552 517 547
f 521 520 519
f 523 518 520
f 551 519 520
f 520 518 516
f 516 517 551
f 551 520 516
f 526 525 531
f 531 524 516
f 516 518 526
f 526 531 516
f 522 526 518
f 528 525 526
f 531 530 524
f 525 532 531
f 533 541 539
f 540 538 541
f 536 534 540
f 540 533 516
f 516 524 536
f 536 540 516
f 536 535 534
f 524 537 536
f 477 478 527
f 479 527 478
f 525 527 479
f 528 475 476
f 476 477 528
f 527 528 477
f 522 475 528
f 480 529 479
f 482 529 481
f 532 482 483
f 483 484 532
f 529 525 479
f 484 530 532
f 532 529 482
f 530 484 485
f 481 529 480
f 522 515 474
f 515 522 523
f 522 474 475
f 514 515 523
f 513 514 523
f 511 512 521
f 513 521 512
f 513 523 521
f 550 511 519
f 521 519 511
f 508 550 552
f 510 511 550
f 509 510 550
f 508 552 507
f 508 509 550
f 552 506 507
f 506 552 547
f 486 537 485
f 487 537 486
f 488 535 487
f 535 537 487
f 489 490 535
f 534 535 490
f 535 488 489
f 491 538 490
f 538 491 492
f 541 538 492
f 494 539 541
f 541 493 494
f 493 541 492
f 495 539 494
f 538 534 490
f 505 547 549
f 501 502 546
f 503 549 546
f 504 505 549
f 549 503 504
f 546 502 503
f 500 546 542
f 506 547 505
f 498 545 497
f 496 497 545
f 539 496 545
f 500 501 546
f 499 543 498
f 545 498 543
f 500 543 499
f 542 543 500
f 539 495 496
f 485 537 530
f 45 44 51
f 63 51 43
f 47 46 44
f 46 49 48
f 51 52 50
f 44 48 52
f 59 53 57
f 61 43 55
f 62 55 53
f 55 56 54
f 43 50 56
f 53 54 58
f 124 107 112
f 125 112 106
f 126 109 107
f 109 110 108
f 112 113 111
f 107 108 113
f 120 114 118
f 122 106 116
f 123 116 114
f 116 117 115
f 106 111 117
f 114 115 119
f 200 170 201
f 202 201 195
f 195 197 198
f 197 186 192
f 203 172 204
f 205 204 170
f 174 176 173
f 176 175 171
f 175 181 179
f 181 180 178
f 184 185 183
f 178 182 185
f 186 193 194
f 193 187 191
f 189 190 188
f 177 183 190
f 266 249 254
f 267 254 248
f 268 251 249
f 251 252 250
f 254 255 253
f 249 250 255
f 262 256 260
f 264 248 258
f 265 258 256
f 258 259 257
f 248 253 259
f 256 257 261
f 340 319 339
f 334 340 341
f 337 336 334
f 331 325 336
f 343 320 342
f 319 343 344
f 346 347 345
f 313 316 347
f 315 318 316
f 314 317 318
f 322 324 323
f 324 321 314
f 333 332 325
f 330 326 332
f 327 329 328
f 329 322 312
f 408 391 396
f 409 396 390
f 410 393 391
f 393 394 392
f 396 397 395
f 391 392 397
f 404 398 402
f 406 390 400
f 407 400 398
f 400 401 399
f 390 395 401
f 398 399 403
f 471 454 459
f 472 459 453
f 473 456 454
f 456 457 455
f 459 460 458
f 454 455 460
f 467 461 465
f 469 453 463
f 470 463 461
f 463 464 462
f 453 458 464
f 461 462 466
f 547 517 548
f 549 548 542
f 542 544 545
f 544 533 539
f 550 519 551
f 552 551 517
f 521 523 520
f 523 522 518
f 522 528 526
f 528 527 525
f 531 532 530
f 525 529 532
f 533 540 541
f 540 534 538
f 536 537 535
f 524 530 537

