# https://github.com/mikedh/trimesh
v 0.28499699 -0.04435300 0.16625100
v 0.28499699 -0.04426000 0.16748799
v 0.28499699 -0.04398400 0.16869700
v 0.28499699 -0.04353100 0.16985200
v 0.28499699 -0.04291100 0.17092600
v 0.28499699 -0.04213700 0.17189600
v 0.28499699 -0.04122800 0.17274000
v 0.28499699 -0.04020300 0.17343900
v 0.28499699 -0.03908500 0.17397700
v 0.28499699 -0.03790000 0.17434300
v 0.28499699 -0.03667300 0.17452700
v 0.28499699 -0.03543300 0.17452700
v 0.28499699 -0.03420600 0.17434300
v 0.28499699 -0.03302100 0.17397700
v 0.28499699 -0.03190300 0.17343900
v 0.28499699 -0.03087800 0.17274000
v 0.28499699 -0.02996900 0.17189600
v 0.28499699 -0.02919500 0.17092600
v 0.28499699 -0.02857500 0.16985200
v 0.28499699 -0.02812200 0.16869700
v 0.28499699 -0.02784600 0.16748799
v 0.28499699 -0.02775300 0.16625100
v 0.28499699 -0.02784600 0.16501400
v 0.28499699 -0.02812200 0.16380399
v 0.28499699 -0.02857500 0.16264901
v 0.28499699 -0.02919500 0.16157500
v 0.28499699 -0.02996900 0.16060500
v 0.28499699 -0.03087800 0.15976100
v 0.28499699 -0.03190300 0.15906300
v 0.28499699 -0.03302100 0.15852401
v 0.28499699 -0.03420600 0.15815900
v 0.28499699 -0.03543300 0.15797400
v 0.28499699 -0.03667300 0.15797400
v 0.28499699 -0.03790000 0.15815900
v 0.28499699 -0.03908500 0.15852401
v 0.28499699 -0.04020300 0.15906300
v 0.28499699 -0.04122800 0.15976100
v 0.28499699 -0.04213700 0.16060500
v 0.28499699 -0.04291100 0.16157500
v 0.28499699 -0.04353100 0.16264901
v 0.28499699 -0.04398400 0.16380399
v 0.28499699 -0.04426000 0.16501400
v 0.28499699 -0.04335300 0.16625100
v 0.28499699 -0.04326300 0.16510899
v 0.28499699 -0.04299600 0.16399500
v 0.28499699 -0.04255700 0.16293700
v 0.28499699 -0.04195900 0.16196001
v 0.28499699 -0.04121500 0.16108900
v 0.28499699 -0.04034400 0.16034500
v 0.28499699 -0.03936700 0.15974601
v 0.28499699 -0.03830900 0.15930800
v 0.28499699 -0.03719500 0.15904100
v 0.28499699 -0.03605300 0.15895100
v 0.28499699 -0.03491100 0.15904100
v 0.28499699 -0.03379700 0.15930800
v 0.28499699 -0.03273900 0.15974601
v 0.28499699 -0.03176200 0.16034500
v 0.28499699 -0.03089100 0.16108900
v 0.28499699 -0.03014700 0.16196001
v 0.28499699 -0.02954900 0.16293700
v 0.28499699 -0.02911000 0.16399500
v 0.28499699 -0.02884300 0.16510899
v 0.28499699 -0.02875300 0.16625100
v 0.28499699 -0.02884300 0.16739300
v 0.28499699 -0.02911000 0.16850600
v 0.28499699 -0.02954900 0.16956501
v 0.28499699 -0.03014700 0.17054100
v 0.28499699 -0.03089100 0.17141300
v 0.28499699 -0.03176200 0.17215601
v 0.28499699 -0.03273900 0.17275500
v 0.28499699 -0.03379700 0.17319299
v 0.28499699 -0.03491100 0.17346101
v 0.28499699 -0.03605300 0.17355099
v 0.28499699 -0.03719500 0.17346101
v 0.28499699 -0.03830900 0.17319299
v 0.28499699 -0.03936700 0.17275500
v 0.28499699 -0.04034400 0.17215601
v 0.28499699 -0.04121500 0.17141300
v 0.28499699 -0.04195900 0.17054100
v 0.28499699 -0.04255700 0.16956501
v 0.28499699 -0.04299600 0.16850600
v 0.28499699 -0.04326300 0.16739300
v 0.29074201 -0.01072200 0.16822700
v 0.29095200 -0.00713200 0.16794901
v 0.29107299 -0.00352800 0.16779400
v 0.29101500 -0.01095200 0.16641600
v 0.29122701 -0.00728700 0.16612101
v 0.29135001 -0.00360400 0.16595700
v 0.29128399 -0.01118100 0.16460600
v 0.29149801 -0.00744000 0.16429400
v 0.29162201 -0.00368100 0.16411901
v 0.29083800 0.00000000 0.16954000
v 0.29082701 -0.00206700 0.16953900
v 0.29079500 -0.00413400 0.16953599
v 0.29073900 -0.00620000 0.16953500
v 0.29065901 -0.00826500 0.16953801
v 0.29055101 -0.01033000 0.16955900
v 0.29049399 -0.01136600 0.16953000
v 0.29046300 -0.01236900 0.16931701
v 0.29048100 -0.01327400 0.16882300
v 0.29054999 -0.01398700 0.16808200
v 0.29066801 -0.01442400 0.16715600
v 0.29082301 -0.01456400 0.16614200
v 0.29099599 -0.01440000 0.16513699
v 0.29117200 -0.01394000 0.16423400
v 0.29133299 -0.01321600 0.16351600
v 0.29146200 -0.01230800 0.16303900
v 0.29154700 -0.01130500 0.16284600
v 0.29160100 -0.01027200 0.16283099
v 0.29168901 -0.00821900 0.16283700
v 0.29175600 -0.00616400 0.16283900
v 0.29180300 -0.00411000 0.16283999
v 0.29183099 -0.00205500 0.16283999
v 0.29183999 0.00000000 0.16283900
v 0.29145199 0.00000000 0.16547400
v 0.29114801 0.00000000 0.16750699
v 0.28903401 0.02912800 0.16686399
v 0.29083800 0.00000000 0.16954000
v 0.29114801 0.00000000 0.16750699
v 0.29145199 0.00000000 0.16547400
v 0.29183999 0.00000000 0.16283900
v 0.29180899 0.00359700 0.16283700
v 0.29171699 0.00719200 0.16283600
v 0.29156300 0.01078200 0.16283600
v 0.29134801 0.01436900 0.16283600
v 0.29107299 0.01795200 0.16283700
v 0.29073700 0.02153000 0.16283800
v 0.29034099 0.02510300 0.16283900
v 0.28988501 0.02867000 0.16283999
v 0.28937599 0.03223100 0.16283201
v 0.28881499 0.03578500 0.16283400
v 0.28865099 0.03667500 0.16291200
v 0.28844601 0.03752900 0.16318600
v 0.28820601 0.03827800 0.16368200
v 0.28794801 0.03886900 0.16435701
v 0.28769001 0.03925200 0.16517000
v 0.28745100 0.03940600 0.16605800
v 0.28725001 0.03932400 0.16696200
v 0.28710499 0.03899700 0.16782200
v 0.28703600 0.03843000 0.16855700
v 0.28704700 0.03768200 0.16911200
v 0.28713700 0.03682000 0.16943701
v 0.28728801 0.03590500 0.16954200
v 0.28796399 0.03221800 0.16954300
v 0.28857899 0.02852100 0.16954400
v 0.28912899 0.02481300 0.16954400
v 0.28953099 0.02172700 0.16954100
v 0.28987801 0.01863500 0.16954000
v 0.29017201 0.01553800 0.16953900
v 0.29041201 0.01243600 0.16953900
v 0.29059899 0.00933100 0.16953900
v 0.29073200 0.00622200 0.16953900
v 0.29081100 0.00311200 0.16954000
v 0.28950399 0.03019500 0.16370399
v 0.28840500 0.03487500 0.16544899
v 0.28851101 0.03142000 0.16764501
v 0.28897601 0.03255900 0.16455100
v 0.28920200 0.03312400 0.16301200
v 0.28862900 0.03547300 0.16394500
v 0.28869599 0.03372300 0.16499400
v 0.28892100 0.03430500 0.16347300
v 0.28777900 0.03719200 0.16641600
v 0.28800100 0.03782300 0.16495000
v 0.28809801 0.03604000 0.16592699
v 0.28832099 0.03665500 0.16444200
v 0.28745100 0.03833100 0.16691700
v 0.28755400 0.03655800 0.16789000
v 0.28722700 0.03768100 0.16837101
v 0.29068401 0.01962500 0.16432700
v 0.29123399 0.01478200 0.16346800
f 26 25 60
f 58 27 59
f 28 27 58
f 26 59 27
f 59 26 60
f 62 24 23
f 24 62 61
f 25 24 61
f 61 60 25
f 63 62 23
f 31 30 55
f 53 32 54
f 31 54 32
f 33 32 53
f 54 31 55
f 57 28 58
f 29 56 30
f 55 30 56
f 57 56 29
f 57 29 28
f 63 22 21
f 20 64 21
f 21 64 63
f 63 23 22
f 65 64 20
f 19 65 20
f 67 18 17
f 19 18 66
f 66 18 67
f 19 66 65
f 67 17 68
f 16 68 17
f 15 69 16
f 16 69 68
f 70 69 15
f 15 14 70
f 71 70 14
f 13 71 14
f 12 72 13
f 71 13 72
f 72 12 73
f 34 33 52
f 35 34 51
f 52 51 34
f 36 35 50
f 50 35 51
f 48 37 49
f 36 50 49
f 38 37 48
f 36 49 37
f 39 38 47
f 48 47 38
f 40 39 46
f 47 46 39
f 45 40 46
f 41 45 44
f 43 42 44
f 41 44 42
f 1 42 43
f 41 40 45
f 76 75 9
f 77 8 7
f 76 8 77
f 78 77 7
f 8 76 9
f 12 11 73
f 74 73 11
f 74 10 75
f 9 75 10
f 11 10 74
f 3 82 81
f 3 2 82
f 2 43 82
f 4 3 81
f 7 6 78
f 79 78 6
f 5 79 6
f 5 4 80
f 81 80 4
f 79 5 80
f 43 2 1
f 33 53 52
f 87 83 86
f 88 84 87
f 90 86 89
f 91 87 90
f 99 83 98
f 98 83 97
f 83 99 100
f 86 101 102
f 96 97 83
f 101 86 83
f 86 102 103
f 100 101 83
f 85 93 94
f 93 116 92
f 95 85 94
f 95 84 85
f 83 84 96
f 85 116 93
f 116 85 88
f 84 95 96
f 89 103 104
f 106 89 105
f 104 105 89
f 89 107 108
f 108 109 89
f 107 89 106
f 110 89 109
f 114 115 91
f 88 91 115
f 91 90 111
f 116 88 115
f 90 110 111
f 91 113 114
f 91 112 113
f 91 111 112
f 110 90 89
f 103 89 86
f 163 164 165
f 165 155 159
f 166 162 163
f 166 167 162
f 159 160 161
f 161 157 158
f 156 157 160
f 160 155 156
f 157 117 154
f 168 141 142
f 140 141 168
f 166 139 140
f 168 166 140
f 138 139 166
f 167 168 142
f 144 155 143
f 145 156 144
f 156 155 144
f 164 162 167
f 167 155 164
f 155 167 143
f 143 167 142
f 138 166 137
f 166 163 136
f 137 166 136
f 136 163 135
f 134 135 163
f 134 163 133
f 132 165 159
f 132 133 165
f 158 131 161
f 159 131 132
f 159 161 131
f 163 165 133
f 169 147 148
f 169 148 149
f 145 146 117
f 117 146 169
f 150 170 149
f 152 153 122
f 118 119 153
f 124 150 151
f 152 123 151
f 153 120 122
f 120 153 119
f 122 120 121
f 169 128 117
f 169 146 147
f 129 117 128
f 131 158 130
f 158 157 130
f 130 154 129
f 117 129 154
f 157 154 130
f 169 170 126
f 169 127 128
f 151 123 124
f 125 126 170
f 170 169 149
f 150 125 170
f 150 124 125
f 127 169 126
f 122 123 152
f 145 117 156
f 87 84 83
f 88 85 84
f 90 87 86
f 91 88 87
f 163 162 164
f 165 164 155
f 166 168 167
f 159 155 160
f 161 160 157
f 157 156 117

