# https://github.com/mikedh/trimesh
v -0.03018295 -0.00186950 0.02811309
v -0.03016217 0.00213184 0.03376024
v -0.03000189 -0.00426200 0.03391953
v -0.02759177 -0.00299154 0.04469046
v -0.02758583 0.00298672 0.04469046
v -0.02710648 0.00044804 0.00497835
v -0.02698627 -0.00419669 0.00510603
v -0.02654847 -0.00385682 0.04529980
v -0.02998408 0.00422156 0.02788174
v -0.02670726 0.00547717 0.00509845
v -0.02520242 -0.01127919 0.04469931
v -0.02896156 -0.00864032 0.02794495
v 0.00853042 -0.01920172 0.05130345
v -0.02823289 -0.01090517 0.03398527
v -0.02157239 -0.00479630 -0.00028954
v -0.02524101 -0.01030557 0.00509592
v -0.02322861 -0.01378745 0.04529474
v -0.02292215 0.01348431 0.04529348
v -0.02520242 0.01127585 0.04469931
v -0.02834567 0.01047106 0.03375740
v -0.02896453 0.00865777 0.02798035
v -0.01728492 -0.02073043 0.04528968
v -0.01229401 -0.02474810 0.04467781
v 0.01203875 -0.02160906 0.05130472
v -0.02157239 0.00479742 -0.00028954
v -0.02477965 0.01088663 0.00490961
v -0.02280714 -0.01500150 0.00509592
v -0.01996366 -0.01906518 0.04471448
v -0.00633103 -0.02699959 0.04466517
v 0.00137573 -0.02762591 0.04472965
v 0.01198978 -0.01662816 0.05130345
v -0.02408863 -0.01824888 0.03394544
v -0.02622717 -0.01498295 0.02803597
v -0.02002785 0.01901213 0.04466833
v -0.01801063 -0.02431026 0.03392964
v -0.01094351 -0.02824927 0.03379311
v -0.00427411 -0.03000357 0.03391953
v 0.00425037 -0.03000357 0.03391953
v -0.01065708 0.02458595 0.04529474
v -0.02389292 0.01846910 0.03389883
v -0.01768710 -0.01318487 -0.00028954
v -0.00574037 -0.02969783 0.02787921
v 0.01376917 -0.01952528 0.05128955
v 0.00355879 0.02653988 0.04529790
v -0.01214115 0.02473586 0.04464747
v -0.02622791 0.01498778 0.02803597
v -0.01771382 0.01336409 -0.00015933
v 0.00479651 0.02158643 -0.00028954
v -0.01221313 -0.02760662 0.02808907
v 0.00781955 -0.02655137 0.04468540
v 0.01457057 -0.02355482 0.04468793
v -0.02339483 -0.01920469 0.02787668
v 0.02112866 0.01738176 0.04499133
v 0.01425743 0.02294445 0.04529601
v 0.00295626 0.02758845 0.04467023
v -0.00296813 0.02758845 0.04467023
v -0.01597746 0.02557813 0.03388034
v -0.02279526 0.01501450 0.00509592
v -0.00929768 -0.01978204 -0.00029207
v -0.02003193 -0.02273110 0.02819020
v -0.00419694 -0.02698772 0.00510603
v 0.01234744 -0.02761107 0.03389677
v 0.02257933 -0.01597587 0.04469235
v 0.00422069 -0.02999169 0.02788174
v 0.02759177 -0.00298561 0.04469046
v 0.02609880 0.00721960 0.04529221
v 0.01618227 0.02248584 0.04464494
v 0.00931104 0.02609536 0.04470563
v -0.00578192 0.02970488 0.03392711
v -0.01299671 0.02730423 0.02807263
v -0.02339483 0.01921175 0.02787668
v -0.01199126 0.01858246 -0.00028954
v 0.00228769 -0.02199309 -0.00011161
v -0.00952975 -0.02543286 0.00508991
v 0.01922164 -0.02340788 0.03392459
v 0.02610474 -0.00931414 0.04470310
v 0.02553263 -0.01624228 0.03377541
v 0.02520836 0.01127511 0.04469678
v 0.01559458 0.02593804 0.03382219
v 0.00907952 0.02882328 0.03395746
v 0.00424443 0.02999875 0.03391953
v 0.02759177 0.00298079 0.04469046
v -0.00264535 0.03013381 0.02803597
v -0.01889996 0.01957092 0.00513448
v 0.02157833 -0.00479630 -0.00028954
v -0.01501579 -0.02278453 0.00508833
v 0.01274814 -0.02741071 0.02817630
v 0.02815720 -0.01109070 0.03373495
v 0.02833974 0.01070445 0.03378300
v 0.02015956 0.02255115 0.03396757
v 0.00422069 0.02999875 0.02788174
v 0.02999225 0.00339933 0.03374760
v -0.01877938 0.02372810 0.02813711
v -0.00343413 0.02199607 -0.00002280
v 0.01198533 -0.01856947 -0.00028954
v 0.01768117 -0.01317597 -0.00028954
v 0.00419101 -0.02698772 0.00510603
v 0.01905393 -0.02354146 0.02811182
v 0.03000190 -0.00426793 0.03390941
v 0.02519945 -0.01678845 0.02788174
v 0.02812232 -0.01117084 0.02818515
v 0.02410867 0.01826188 0.03383483
v 0.01681151 0.02519595 0.02788680
v 0.03019742 0.00150180 0.02810930
v -0.00726005 0.02940805 0.02792725
v -0.01029942 0.02523751 0.00501501
v -0.01501282 0.02279752 0.00508075
v 0.01318148 0.01768008 -0.00028954
v 0.01857458 0.01198677 -0.00028954
v 0.02169409 0.00523080 -0.00009486
v 0.00944757 -0.02554807 0.00501501
v 0.01620898 -0.02189996 0.00507822
v 0.02999596 -0.00422638 0.02788174
v 0.02868998 0.00941692 0.02798667
v 0.02595781 0.01554880 0.02803850
v 0.02228252 0.02043731 0.02803344
v 0.00823064 0.02913496 0.02803850
v 0.00073758 0.02729458 0.00540438
v -0.00419100 0.02698884 0.00510603
v 0.02279527 -0.01500744 0.00508581
v 0.02524101 -0.01029369 0.00502007
v 0.01500095 0.02279752 0.00507569
v 0.01071200 0.02506089 0.00530704
v 0.00546730 0.02670684 0.00506558
v 0.02671023 0.00546530 0.00507064
v 0.02279527 0.01501450 0.00507569
v 0.02671023 -0.00547309 0.00507064
v 0.02713913 -0.00023023 0.00497456
v 0.02522914 0.01030669 0.00502007
v -0.00472538 0.02287444 0.04540705
v -0.00416131 0.02283886 0.04540705
v -0.00509896 0.02287444 0.04540705
v -0.00509896 0.02205984 0.05039889
v -0.00500557 0.02205392 0.05039889
v -0.00450079 0.02201982 0.05039889
v -0.00390040 0.02185082 0.05039889
v -0.00352608 0.02164476 0.05085401
v -0.00285379 0.02234151 0.04540705
v -0.00569861 0.02279439 0.04540705
v -0.00569936 0.02197757 0.05039889
v -0.00569936 0.02181599 0.05099895
v -0.00509896 0.02186491 0.05099895
v -0.00500483 0.02186120 0.05099895
v -0.00450079 0.02184119 0.05099895
v -0.00390485 0.02171073 0.05103200
v -0.00370842 0.02149059 0.05125405
v -0.00298869 0.02101176 0.05130507
v -0.00290864 0.02109033 0.05099895
v -0.00222967 0.02177003 0.04540705
v -0.00688606 0.02232742 0.04540705
v -0.00661403 0.02160919 0.05074153
v -0.00626565 0.02167590 0.05096417
v -0.00604328 0.02161437 0.05130797
v -0.00509896 0.02163439 0.05131435
v -0.00450079 0.02163068 0.05131435
v -0.00569936 0.02162697 0.05131319
v -0.00410868 0.02161734 0.05130913
v -0.00330075 0.02107773 0.05131087
v -0.00330075 0.02069897 0.05132594
v -0.00291976 0.02069897 0.05131087
v -0.00238237 0.01989401 0.05130913
v -0.00250615 0.02029427 0.05125753
v -0.00235494 0.02047512 0.05085748
v -0.00165745 0.02114592 0.04540705
v -0.00749387 0.02180338 0.04540705
v -0.00684603 0.02124673 0.05098967
v -0.00644355 0.02144686 0.05114157
v -0.00724407 0.02104809 0.05083835
v -0.00569936 0.02129862 0.05132884
v -0.00707804 0.02087835 0.05123840
v -0.00667852 0.02104660 0.05130913
v -0.00626565 0.02126823 0.05131667
v -0.00509896 0.02129862 0.05133000
v -0.00500483 0.02129936 0.05133000
v -0.00450079 0.02129936 0.05133000
v -0.00390485 0.02129417 0.05131724
v -0.00270109 0.01949968 0.05133000
v -0.00270406 0.02009636 0.05131724
v -0.00236902 0.01949968 0.05131435
v -0.00215926 0.01949968 0.05099895
v -0.00228823 0.02009636 0.05103432
v -0.00214591 0.02009933 0.05039889
v -0.00116157 0.01983768 0.04540705
v -0.00798678 0.02129343 0.04540705
v -0.00841521 0.02069897 0.04540705
v -0.00776738 0.02032392 0.05039889
v -0.00785633 0.01994960 0.05088473
v -0.00735229 0.02068711 0.05102272
v -0.00688680 0.02068711 0.05131724
v -0.00629901 0.02069897 0.05133000
v -0.00774069 0.01972946 0.05128478
v -0.00723073 0.02047883 0.05130913
v -0.00270109 0.01890078 0.05133000
v -0.00236532 0.01890078 0.05131435
v -0.00213554 0.01890078 0.05099895
v -0.00194059 0.01890078 0.05039889
v -0.00198210 0.01949968 0.05039889
v -0.00112525 0.01927435 0.04540705
v -0.00859533 0.02010452 0.04540705
v -0.00801865 0.01949894 0.05039889
v -0.00789339 0.01951821 0.05105055
v -0.00689866 0.02009933 0.05133000
v -0.00732931 0.02009933 0.05131435
v -0.00781037 0.01932994 0.05130739
v -0.00270109 0.01830114 0.05132884
v -0.00330075 0.01770075 0.05133000
v -0.00237273 0.01830114 0.05131319
v -0.00238607 0.01795795 0.05130797
v -0.00218298 0.01830114 0.05099895
v -0.00202139 0.01830114 0.05039889
v -0.00120307 0.01830114 0.04540705
v -0.00112450 0.01890078 0.04540705
v -0.00867167 0.01949894 0.04540705
v -0.00805942 0.01890078 0.05039889
v -0.00794453 0.01890078 0.05099895
v -0.00689866 0.01770075 0.05133000
v -0.00749905 0.01890078 0.05132536
v -0.00752426 0.01951821 0.05131551
v -0.00781407 0.01890078 0.05130971
v -0.00273297 0.01773559 0.05131667
v -0.00331409 0.01711445 0.05131724
v -0.00390040 0.01710111 0.05133000
v -0.00255433 0.01755770 0.05113462
v -0.00239274 0.01738870 0.05073458
v -0.00232529 0.01773559 0.05096010
v -0.00295459 0.01732273 0.05130913
v -0.00312285 0.01692322 0.05123550
v -0.00167375 0.01711445 0.04540705
v -0.00869688 0.01890078 0.04540705
v -0.00865759 0.01835450 0.04540705
v -0.00854567 0.01724787 0.04540705
v -0.00797937 0.01830114 0.05039889
v -0.00787634 0.01832560 0.05102156
v -0.00780815 0.01854129 0.05130565
v -0.00686012 0.01713965 0.05131724
v -0.00629901 0.01710037 0.05133000
v -0.00727520 0.01770075 0.05131435
v -0.00722258 0.01736572 0.05130913
v -0.00390040 0.01667194 0.05131435
v -0.00352311 0.01676904 0.05130913
v -0.00500557 0.01710037 0.05133000
v -0.00509896 0.01650072 0.05132536
v -0.00275446 0.01715596 0.05098503
v -0.00295385 0.01675718 0.05083545
v -0.00427027 0.01626131 0.05128420
v -0.00331409 0.01664822 0.05102098
v -0.00219928 0.01650591 0.04540705
v -0.00780147 0.01619831 0.04540705
v -0.00741233 0.01712705 0.05039889
v -0.00771253 0.01757697 0.05039889
v -0.00783557 0.01791793 0.05083662
v -0.00767769 0.01814178 0.05123666
v -0.00663404 0.01677868 0.05130913
v -0.00629901 0.01672531 0.05131435
v -0.00732338 0.01723823 0.05099895
v -0.00706173 0.01693878 0.05099895
v -0.00448226 0.01647700 0.05131551
v -0.00467053 0.01618941 0.05130739
v -0.00545697 0.01619312 0.05130507
v -0.00509896 0.01618570 0.05130971
v -0.00405013 0.01614494 0.05088473
v -0.00367507 0.01623166 0.05039889
v -0.00330000 0.01558680 0.04540705
v -0.00270628 0.01601671 0.04540705
v -0.00448226 0.01610491 0.05104997
v -0.00675116 0.01545413 0.04540705
v -0.00687272 0.01658967 0.05039889
v -0.00717217 0.01682686 0.05039889
v -0.00676153 0.01667861 0.05099895
v -0.00608109 0.01616495 0.05083719
v -0.00585650 0.01632209 0.05123724
v -0.00500483 0.01618645 0.05130913
v -0.00500557 0.01608416 0.05106620
v -0.00567341 0.01612418 0.05102214
v -0.00509896 0.01605525 0.05099895
v -0.00450079 0.01598039 0.05039889
v -0.00389521 0.01540521 0.04540705
v -0.00500483 0.01606266 0.05100707
v -0.00500557 0.01594629 0.05039889
v -0.00564450 0.01534368 0.04540705
v -0.00509896 0.01594036 0.05039889
v -0.00569936 0.01602190 0.05039889
v -0.00642131 0.01629022 0.05039889
v -0.00450079 0.01532738 0.04540705
v -0.00509896 0.01530366 0.04540705
v 0.00712381 0.01890108 0.04540705
v 0.00712529 0.01852598 0.04540705
v 0.00793992 0.01890108 0.05039889
v 0.00715939 0.01949856 0.04540705
v 0.00802071 0.01830137 0.05039889
v 0.00720386 0.01800485 0.04540705
v 0.00813486 0.01890108 0.05099895
v 0.00815932 0.01949930 0.05099895
v 0.00798068 0.01949930 0.05039889
v 0.00818230 0.01830137 0.05099895
v 0.00814598 0.02009901 0.05039889
v 0.00835427 0.02047485 0.05085748
v 0.00762192 0.02069724 0.04540705
v 0.00839281 0.01738809 0.05073515
v 0.00832536 0.01773502 0.05096069
v 0.00768937 0.01668979 0.04540705
v 0.00838614 0.01795741 0.05130797
v 0.00837280 0.01830137 0.05131377
v 0.00836539 0.01890108 0.05131435
v 0.00836909 0.01949930 0.05131435
v 0.00838244 0.01989367 0.05130913
v 0.00828756 0.02009679 0.05103432
v 0.00850548 0.02029397 0.05125753
v 0.00898803 0.02101229 0.05130565
v 0.00890872 0.02109087 0.05099895
v 0.00853588 0.02081362 0.05039889
v 0.00809187 0.02129917 0.04540705
v 0.00875380 0.01715607 0.05098562
v 0.00855441 0.01755711 0.05113520
v 0.00895319 0.01675725 0.05083603
v 0.00827125 0.01607155 0.04540705
v 0.00912294 0.01692330 0.05123607
v 0.00895468 0.01732286 0.05130913
v 0.00873305 0.01773502 0.05131667
v 0.00870043 0.01830137 0.05132884
v 0.00870043 0.01890108 0.05133000
v 0.00870043 0.01949930 0.05133000
v 0.00870414 0.02009679 0.05131724
v 0.00891984 0.02069946 0.05131087
v 0.00930084 0.02069946 0.05132594
v 0.00930084 0.02107752 0.05131087
v 0.00990495 0.02129472 0.05131724
v 0.01010805 0.02161718 0.05130913
v 0.00970852 0.02149042 0.05125405
v 0.00952618 0.02164461 0.05085401
v 0.00918817 0.02146374 0.05039889
v 0.00883608 0.02116351 0.05039889
v 0.00870043 0.02190555 0.04540705
v 0.00898877 0.01558897 0.04540705
v 0.00967442 0.01623167 0.05039889
v 0.01004949 0.01614420 0.05088416
v 0.00931344 0.01664754 0.05102156
v 0.01027038 0.01626207 0.05128420
v 0.00952247 0.01676911 0.05130913
v 0.00931344 0.01711381 0.05131724
v 0.00930084 0.01770092 0.05133000
v 0.00990050 0.02069946 0.05133000
v 0.01050091 0.02129917 0.05133000
v 0.01050091 0.02163127 0.05131435
v 0.01050091 0.02184180 0.05099895
v 0.00990495 0.02171059 0.05103200
v 0.00990050 0.02185217 0.05039889
v 0.01050017 0.02284106 0.04540705
v 0.00930306 0.02237775 0.04540705
v 0.00942462 0.01543626 0.04540705
v 0.01050091 0.01598037 0.05039889
v 0.01048238 0.01610565 0.05104997
v 0.01067065 0.01618868 0.05130739
v 0.00990050 0.01667274 0.05131435
v 0.00990050 0.01710047 0.05133000
v 0.01100273 0.02129917 0.05133000
v 0.01100273 0.02163423 0.05131435
v 0.01109983 0.02186478 0.05099895
v 0.01109983 0.02205974 0.05039889
v 0.01100273 0.02205381 0.05039889
v 0.01050091 0.02201971 0.05039889
v 0.01109983 0.02287590 0.04540705
v 0.01050017 0.01532655 0.04540705
v 0.01053130 0.01532433 0.04540705
v 0.01100273 0.01594627 0.05039889
v 0.01109983 0.01605524 0.05099895
v 0.01109983 0.01650076 0.05132536
v 0.01048238 0.01647778 0.05131551
v 0.01109983 0.01618497 0.05130971
v 0.01100273 0.01710047 0.05133000
v 0.01109983 0.02129843 0.05133000
v 0.01109983 0.02163423 0.05131435
v 0.01169950 0.02181659 0.05099895
v 0.01169950 0.02162682 0.05131319
v 0.01204344 0.02161348 0.05130797
v 0.01147416 0.02287442 0.04540705
v 0.01169950 0.02197745 0.05039889
v 0.01109983 0.01530283 0.04540705
v 0.01109983 0.01594034 0.05039889
v 0.01167356 0.01612418 0.05102156
v 0.01145637 0.01619238 0.05130507
v 0.01229916 0.01672537 0.05131435
v 0.01229916 0.01710121 0.05133000
v 0.01169950 0.02129843 0.05132884
v 0.01229916 0.02069946 0.05133000
v 0.01226581 0.02167575 0.05096300
v 0.01244297 0.02144668 0.05113925
v 0.01261345 0.02160829 0.05073921
v 0.01226581 0.02126729 0.05131667
v 0.01267868 0.02104564 0.05130913
v 0.01307895 0.02087811 0.05123840
v 0.01199229 0.02279288 0.04540705
v 0.01169876 0.01535175 0.04540705
v 0.01169950 0.01602189 0.05039889
v 0.01208124 0.01616570 0.05083662
v 0.01185664 0.01632211 0.05123607
v 0.01263421 0.01677875 0.05130913
v 0.01286028 0.01714050 0.05131724
v 0.01289883 0.01770092 0.05133000
v 0.01288697 0.02068612 0.05131724
v 0.01289883 0.02009975 0.05133000
v 0.01284546 0.02124654 0.05098910
v 0.01331244 0.02231178 0.04540705
v 0.01324351 0.02104787 0.05083835
v 0.01323091 0.02047855 0.05130913
v 0.01373940 0.01972836 0.05128478
v 0.01335247 0.02068612 0.05102272
v 0.01229768 0.01543330 0.04540705
v 0.01289883 0.01572981 0.04540705
v 0.01242147 0.01628949 0.05039889
v 0.01287215 0.01658972 0.05039889
v 0.01276244 0.01667867 0.05099895
v 0.01306190 0.01693813 0.05099895
v 0.01322201 0.01736585 0.05130913
v 0.01327538 0.01770092 0.05131435
v 0.01349924 0.01890108 0.05132536
v 0.01332875 0.02009975 0.05131435
v 0.01392916 0.02172912 0.04540705
v 0.01385577 0.01994927 0.05088473
v 0.01376757 0.02032288 0.05039889
v 0.01441171 0.02101080 0.04540705
v 0.01381056 0.01932880 0.05130681
v 0.01389358 0.01951635 0.05104997
v 0.01349924 0.01617682 0.04540705
v 0.01317235 0.01682693 0.05039889
v 0.01332282 0.01723835 0.05099895
v 0.01383502 0.01791886 0.05083603
v 0.01367713 0.01814199 0.05123607
v 0.01380833 0.01854303 0.05130565
v 0.01381426 0.01890108 0.05130971
v 0.01352370 0.01951635 0.05131551
v 0.01401811 0.01949930 0.05039889
v 0.01456366 0.02057566 0.04540705
v 0.01394472 0.01890108 0.05099895
v 0.01405887 0.01890108 0.05039889
v 0.01382316 0.01650002 0.04540705
v 0.01341251 0.01712716 0.05039889
v 0.01456737 0.01770314 0.04540705
v 0.01397882 0.01830063 0.05039889
v 0.01387653 0.01832583 0.05102098
v 0.01371197 0.01757786 0.05039889
v 0.01427384 0.01710121 0.04540705
v 0.01467411 0.01946595 0.04540705
v 0.01467114 0.01949856 0.04540705
v 0.01465039 0.01830137 0.04540705
v 0.01469634 0.01890108 0.04540705
v -0.00869686 -0.01890034 0.04540705
v -0.00865016 -0.01830137 0.04540705
v -0.00867388 -0.01946595 0.04540705
v -0.00805946 -0.01890108 0.05039889
v -0.00797868 -0.01830063 0.05039889
v -0.00856716 -0.01770240 0.04540705
v -0.00867092 -0.01949931 0.04540705
v -0.00801870 -0.01949931 0.05039889
v -0.00805353 -0.01899745 0.05039889
v -0.00793643 -0.01899745 0.05100707
v -0.00794384 -0.01890108 0.05099895
v -0.00787714 -0.01832509 0.05102156
v -0.00783489 -0.01791812 0.05083603
v -0.00827514 -0.01710046 0.04540705
v -0.00856345 -0.02057493 0.04540705
v -0.00785565 -0.01995002 0.05088473
v -0.00789344 -0.01951784 0.05105055
v -0.00781044 -0.01933029 0.05130739
v -0.00781414 -0.01890108 0.05130971
v -0.00780821 -0.01854155 0.05130565
v -0.00781414 -0.01899745 0.05130913
v -0.00767703 -0.01814125 0.05123607
v -0.00722196 -0.01736585 0.05130913
v -0.00732350 -0.01723761 0.05099895
v -0.00741244 -0.01712715 0.05039889
v -0.00771186 -0.01757712 0.05039889
v -0.00782378 -0.01650001 0.04540705
v -0.00841151 -0.02101156 0.04540705
v -0.00735240 -0.02068687 0.05102330
v -0.00774003 -0.01972985 0.05128478
v -0.00776745 -0.02032511 0.05039889
v -0.00724419 -0.02104788 0.05083893
v -0.00723159 -0.02047930 0.05130913
v -0.00732868 -0.02009976 0.05131435
v -0.00752435 -0.01951784 0.05131551
v -0.00749989 -0.01890108 0.05132536
v -0.00727458 -0.01770017 0.05131435
v -0.00689956 -0.01770017 0.05133000
v -0.00685953 -0.01713975 0.05131724
v -0.00663422 -0.01677874 0.05130913
v -0.00706261 -0.01693812 0.05099895
v -0.00717304 -0.01682692 0.05039889
v -0.00749915 -0.01617532 0.04540705
v -0.00792902 -0.02172987 0.04540705
v -0.00707891 -0.02087886 0.05123898
v -0.00731164 -0.02231179 0.04540705
v -0.00661347 -0.02160904 0.05073979
v -0.00684619 -0.02124655 0.05098967
v -0.00667869 -0.02104640 0.05130913
v -0.00688696 -0.02068687 0.05131724
v -0.00689956 -0.02009976 0.05133000
v -0.00629848 -0.01710046 0.05133000
v -0.00629848 -0.01672537 0.05131435
v -0.00545653 -0.01619237 0.05130507
v -0.00585601 -0.01632210 0.05123666
v -0.00608132 -0.01616495 0.05083662
v -0.00676170 -0.01667793 0.05099895
v -0.00687213 -0.01659045 0.05039889
v -0.00689881 -0.01572980 0.04540705
v -0.00644226 -0.02144670 0.05113984
v -0.00604278 -0.02161423 0.05130797
v -0.00599312 -0.02279290 0.04540705
v -0.00569888 -0.02197747 0.05039889
v -0.00626513 -0.02167502 0.05096358
v -0.00626513 -0.02126730 0.05131667
v -0.00629848 -0.02069873 0.05133000
v -0.00569888 -0.02129918 0.05132884
v -0.00390084 -0.01710046 0.05133000
v -0.00509855 -0.01650075 0.05132536
v -0.00509855 -0.01618496 0.05130971
v -0.00509855 -0.01605523 0.05099895
v -0.00567294 -0.01612417 0.05102156
v -0.00569888 -0.01602187 0.05039889
v -0.00629700 -0.01543328 0.04540705
v -0.00642151 -0.01628948 0.05039889
v -0.00569888 -0.02181586 0.05099895
v -0.00509929 -0.02186479 0.05099895
v -0.00569888 -0.02162683 0.05131319
v -0.00547431 -0.02287444 0.04540705
v -0.00509929 -0.02205975 0.05039889
v -0.00509929 -0.02129918 0.05133000
v -0.00509929 -0.02163425 0.05131435
v -0.00330050 -0.01770017 0.05133000
v -0.00331384 -0.01711381 0.05131724
v -0.00390084 -0.01667274 0.05131435
v -0.00448265 -0.01647703 0.05131551
v -0.00467090 -0.01618867 0.05130739
v -0.00509855 -0.01593959 0.05039889
v -0.00448265 -0.01610564 0.05104997
v -0.00569888 -0.01535174 0.04540705
v -0.00450043 -0.02184107 0.05099895
v -0.00450043 -0.02163128 0.05131435
v -0.00509929 -0.02287592 0.04540705
v -0.00450043 -0.02201972 0.05039889
v -0.00450043 -0.02284034 0.04540705
v -0.00450043 -0.02129918 0.05133000
v -0.00270091 -0.01890108 0.05133000
v -0.00270091 -0.01830063 0.05132884
v -0.00273352 -0.01773502 0.05131667
v -0.00295438 -0.01732285 0.05130913
v -0.00352285 -0.01676910 0.05130913
v -0.00427142 -0.01626205 0.05128420
v -0.00450118 -0.01598036 0.05039889
v -0.00450043 -0.01532654 0.04540705
v -0.00453230 -0.01532505 0.04540705
v -0.00509929 -0.01530281 0.04540705
v -0.00405055 -0.01614419 0.05088416
v -0.00390603 -0.02171134 0.05103200
v -0.00410985 -0.02161720 0.05130913
v -0.00390084 -0.02185145 0.05039889
v -0.00330421 -0.02237629 0.04540705
v -0.00352656 -0.02164462 0.05085401
v -0.00390603 -0.02129399 0.05131724
v -0.00330124 -0.02069873 0.05132594
v -0.00330124 -0.02009976 0.05133000
v -0.00236516 -0.01890108 0.05131435
v -0.00270091 -0.01899745 0.05133000
v -0.00237258 -0.01830063 0.05131319
v -0.00238592 -0.01795740 0.05130797
v -0.00312337 -0.01692329 0.05123607
v -0.00331384 -0.01664753 0.05102098
v -0.00342502 -0.01543551 0.04540705
v -0.00367479 -0.01623166 0.05039889
v -0.00298996 -0.01558970 0.04540705
v -0.00295438 -0.01675724 0.05083603
v -0.00370888 -0.02149118 0.05125405
v -0.00298848 -0.02101156 0.05130507
v -0.00330124 -0.02107753 0.05131087
v -0.00270091 -0.02190482 0.04540705
v -0.00318933 -0.02146375 0.05039889
v -0.00290917 -0.02109087 0.05099895
v -0.00292029 -0.02069873 0.05131087
v -0.00270461 -0.02009605 0.05131724
v -0.00270165 -0.01949931 0.05133000
v -0.00236887 -0.01949931 0.05131435
v -0.00213541 -0.01890108 0.05099895
v -0.00232514 -0.01773502 0.05096010
v -0.00239259 -0.01738883 0.05073458
v -0.00255416 -0.01755711 0.05113462
v -0.00218284 -0.01830063 0.05099895
v -0.00227178 -0.01607154 0.04540705
v -0.00168997 -0.01668904 0.04540705
v -0.00235479 -0.02047560 0.05085691
v -0.00250598 -0.02029398 0.05125695
v -0.00238295 -0.01989368 0.05130913
v -0.00209390 -0.02129992 0.04540705
v -0.00283654 -0.02116352 0.05039889
v -0.00253563 -0.02081363 0.05039889
v -0.00215986 -0.01949931 0.05099895
v -0.00213911 -0.01899745 0.05099895
v -0.00197606 -0.01899745 0.05049571
v -0.00194122 -0.01890108 0.05039889
v -0.00202053 -0.01830063 0.05039889
v -0.00120600 -0.01800559 0.04540705
v -0.00214652 -0.02009976 0.05039889
v -0.00228808 -0.02009605 0.05103374
v -0.00162327 -0.02069725 0.04540705
v -0.00116079 -0.01949931 0.04540705
v -0.00198125 -0.01949931 0.05039889
v -0.00194715 -0.01899745 0.05039889
v -0.00112521 -0.01890034 0.04540705
v -0.00112595 -0.01852598 0.04540705
v 0.00329894 0.00376063 0.04540705
v 0.00329894 0.00302293 0.05080415
v 0.00374532 0.00375253 0.04540705
v 0.00270008 0.00376063 0.04540705
v 0.00329894 0.00278145 0.05110389
v 0.00426241 0.00242070 0.05130913
v 0.00362157 0.00300600 0.05073110
v 0.00433681 0.00373486 0.04540705
v 0.00270082 0.00302293 0.05080299
v 0.00211153 0.00373707 0.04540705
v 0.00329894 0.00248107 0.05131435
v 0.00389853 0.00244942 0.05131435
v 0.00270082 0.00278072 0.05110331
v 0.00270082 0.00248107 0.05131435
v 0.00447676 0.00207762 0.05131724
v 0.00486422 0.00186338 0.05130913
v 0.00466312 0.00226315 0.05120651
v 0.00447676 0.00251568 0.05100359
v 0.00389853 0.00209897 0.05133000
v 0.00483696 0.00242954 0.05080647
v 0.00552421 0.00312232 0.04540705
v 0.00237892 0.00300600 0.05073052
v 0.00173660 0.00242070 0.05130913
v 0.00150015 0.00349559 0.04540705
v 0.00210048 0.00244942 0.05131435
v 0.00210048 0.00209897 0.05133000
v 0.00507783 0.00147834 0.05131724
v 0.00542109 0.00126483 0.05130913
v 0.00526419 0.00166460 0.05120999
v 0.00505058 0.00205038 0.05100822
v 0.00509919 0.00089967 0.05133000
v 0.00542993 0.00183835 0.05080995
v 0.00612233 0.00252377 0.04540705
v 0.00150089 0.00265924 0.05039889
v 0.00116205 0.00242954 0.05080763
v 0.00152225 0.00251641 0.05100417
v 0.00133663 0.00226315 0.05120767
v 0.00113480 0.00186338 0.05130913
v 0.00152225 0.00207762 0.05131724
v 0.00090866 0.00315840 0.04540705
v 0.00092118 0.00147907 0.05131724
v 0.00090056 0.00089967 0.05133000
v 0.00544908 0.00089967 0.05131435
v 0.00578202 0.00029965 0.05110273
v 0.00602363 0.00029965 0.05080241
v 0.00600448 0.00061769 0.05072414
v 0.00551685 0.00147834 0.05100533
v 0.00509919 -0.00089966 0.05133000
v 0.00548223 0.00000221 0.05131435
v 0.00548149 0.00029965 0.05131435
v 0.00673519 0.00133772 0.04540705
v 0.00039451 0.00269311 0.04540705
v 0.00030612 0.00260549 0.04540705
v 0.00056909 0.00183909 0.05081110
v 0.00094844 0.00205112 0.05100939
v 0.00073482 0.00166460 0.05121114
v 0.00057793 0.00126483 0.05130913
v 0.00054994 0.00089967 0.05131435
v 0.00051753 0.00029965 0.05131435
v 0.00090056 -0.00089966 0.05133000
v 0.00578202 -0.00029964 0.05110273
v 0.00602363 0.00000221 0.05080241
v 0.00676244 0.00015535 0.04540705
v 0.00676170 0.00029965 0.04540705
v 0.00675286 0.00074580 0.04540705
v 0.00449886 -0.00149968 0.05133000
v 0.00507783 -0.00147907 0.05131724
v 0.00542109 -0.00126483 0.05130913
v 0.00544908 -0.00089966 0.05131435
v 0.00548223 -0.00029964 0.05131435
v -0.00015941 0.00209161 0.04540705
v -0.00050267 0.00149969 0.04540705
v 0.00033706 0.00149895 0.05039889
v -0.00000399 0.00061769 0.05072472
v 0.00048143 0.00147907 0.05100649
v -0.00002314 0.00029965 0.05080415
v 0.00021773 0.00029965 0.05110389
v 0.00051753 -0.00029964 0.05131435
v 0.00021773 0.00000221 0.05110447
v 0.00054994 -0.00089966 0.05131435
v 0.00057793 -0.00126483 0.05130913
v 0.00092118 -0.00147907 0.05131724
v 0.00210048 -0.00209896 0.05133000
v 0.00602289 -0.00029964 0.05080241
v 0.00676244 -0.00029964 0.04540705
v 0.00389853 -0.00209896 0.05133000
v 0.00447676 -0.00207761 0.05131724
v 0.00486422 -0.00186337 0.05130913
v 0.00526419 -0.00166459 0.05121057
v 0.00551685 -0.00147907 0.05100591
v 0.00600374 -0.00061769 0.05072414
v -0.00073838 0.00088715 0.04540705
v -0.00076269 0.00029965 0.04540705
v -0.00002314 -0.00029964 0.05080415
v 0.00021773 -0.00029964 0.05110447
v 0.00048217 -0.00147907 0.05100591
v 0.00073556 -0.00166459 0.05121057
v 0.00113480 -0.00186337 0.05130913
v -0.00000472 -0.00061769 0.05072472
v 0.00152225 -0.00207761 0.05131724
v 0.00173660 -0.00242143 0.05130913
v 0.00210048 -0.00245014 0.05131435
v 0.00270082 -0.00248106 0.05131435
v 0.00673887 -0.00088714 0.04540705
v 0.00329894 -0.00248106 0.05131435
v 0.00389853 -0.00244941 0.05131435
v 0.00426315 -0.00242143 0.05130913
v 0.00466312 -0.00226314 0.05120709
v 0.00542993 -0.00183834 0.05081052
v 0.00505058 -0.00205111 0.05100881
v 0.00650168 -0.00149968 0.04540705
v 0.00566196 -0.00149968 0.05039889
v -0.00076269 -0.00015534 0.04540705
v -0.00076195 -0.00029964 0.04540705
v -0.00075311 -0.00074579 0.04540705
v -0.00073617 -0.00133771 0.04540705
v 0.00056909 -0.00183834 0.05081052
v 0.00094844 -0.00205111 0.05100881
v 0.00133663 -0.00226314 0.05120709
v 0.00152225 -0.00251640 0.05100417
v 0.00237818 -0.00300599 0.05073168
v 0.00270082 -0.00302292 0.05080415
v 0.00270082 -0.00278144 0.05110447
v 0.00329894 -0.00278144 0.05110273
v 0.00447676 -0.00251640 0.05100417
v 0.00329894 -0.00302292 0.05080299
v 0.00362009 -0.00300525 0.05072994
v 0.00483696 -0.00242953 0.05080705
v 0.00560450 -0.00269310 0.04540705
v 0.00569289 -0.00260475 0.04540705
v 0.00615843 -0.00209160 0.04540705
v -0.00012332 -0.00252377 0.04540705
v 0.00047628 -0.00312231 0.04540705
v 0.00116279 -0.00242953 0.05080705
v 0.00166221 -0.00373485 0.04540705
v 0.00225443 -0.00375252 0.04540705
v 0.00270008 -0.00376062 0.04540705
v 0.00329894 -0.00376062 0.04540705
v 0.00388748 -0.00373706 0.04540705
v 0.00449886 -0.00349484 0.04540705
v 0.00449886 -0.00265849 0.05039889
v 0.00509183 -0.00315839 0.04540705
f 2 3 4
f 2 4 5
f 1 6 7
f 2 1 3
f 2 9 1
f 4 11 8
f 1 9 6
f 7 12 1
f 3 14 11
f 3 11 4
f 5 4 8
f 9 10 6
f 12 3 1
f 13 8 17
f 3 12 14
f 8 11 17
f 8 13 18
f 8 18 5
f 2 5 20
f 9 21 10
f 6 10 15
f 6 15 7
f 7 16 12
f 13 22 23
f 13 23 24
f 13 17 22
f 13 24 31
f 5 18 19
f 19 20 5
f 20 9 2
f 10 25 15
f 7 15 27
f 7 27 16
f 22 28 23
f 24 23 29
f 24 29 30
f 17 11 28
f 11 14 32
f 18 34 19
f 20 21 9
f 21 26 10
f 16 33 12
f 23 35 36
f 29 37 38
f 29 38 30
f 17 28 22
f 11 32 28
f 14 12 33
f 14 33 32
f 13 31 39
f 13 39 18
f 19 40 20
f 10 26 25
f 15 41 27
f 23 28 35
f 38 37 42
f 24 43 31
f 31 44 39
f 39 34 18
f 34 40 19
f 25 26 47
f 21 20 46
f 21 46 26
f 15 25 48
f 27 33 16
f 36 35 49
f 23 36 29
f 29 36 37
f 24 30 50
f 24 50 51
f 31 53 54
f 31 54 44
f 44 56 39
f 39 56 45
f 39 45 34
f 48 59 15
f 35 52 60
f 28 32 35
f 50 38 62
f 50 62 51
f 24 63 43
f 33 52 32
f 31 43 66
f 31 66 53
f 54 53 67
f 54 67 68
f 54 68 44
f 44 55 56
f 34 45 57
f 34 57 40
f 40 46 20
f 26 46 58
f 48 25 72
f 15 59 41
f 27 52 33
f 35 32 52
f 60 49 35
f 36 49 42
f 36 42 37
f 38 42 64
f 38 50 30
f 24 51 63
f 51 62 75
f 43 63 76
f 63 75 77
f 43 76 65
f 43 65 66
f 66 78 53
f 68 79 80
f 68 55 44
f 66 82 78
f 45 56 69
f 45 69 57
f 57 69 70
f 40 71 46
f 40 57 71
f 26 58 47
f 25 47 72
f 59 48 85
f 59 85 73
f 60 86 49
f 49 86 74
f 42 61 64
f 42 49 74
f 42 74 61
f 38 64 62
f 62 64 87
f 51 75 63
f 63 77 88
f 63 88 76
f 52 27 60
f 67 53 90
f 67 90 79
f 67 79 68
f 68 80 55
f 65 82 66
f 78 82 92
f 78 92 89
f 55 69 56
f 57 93 71
f 71 84 58
f 71 58 46
f 72 94 48
f 85 96 95
f 85 95 73
f 41 86 27
f 60 27 86
f 61 97 64
f 62 87 75
f 76 88 99
f 76 99 65
f 75 98 100
f 75 100 77
f 77 100 101
f 77 101 88
f 78 89 102
f 53 78 102
f 79 103 80
f 80 103 117
f 55 80 81
f 81 91 83
f 81 83 69
f 81 69 55
f 69 105 70
f 70 106 107
f 70 93 57
f 93 84 71
f 48 108 109
f 48 109 110
f 48 110 85
f 59 74 86
f 59 86 41
f 74 59 61
f 87 64 97
f 87 97 111
f 75 87 98
f 99 113 104
f 99 104 92
f 99 92 65
f 65 92 82
f 89 114 115
f 102 90 53
f 102 116 90
f 90 103 79
f 80 117 81
f 89 92 114
f 92 104 114
f 83 118 119
f 107 93 70
f 84 47 58
f 47 84 72
f 95 111 73
f 73 61 59
f 73 97 61
f 87 111 112
f 112 98 87
f 88 101 99
f 99 101 113
f 98 120 100
f 100 120 121
f 100 121 101
f 89 115 102
f 102 115 116
f 90 116 103
f 103 122 123
f 103 123 117
f 81 117 91
f 91 117 124
f 91 124 118
f 91 118 83
f 83 119 105
f 69 83 105
f 70 105 106
f 84 93 107
f 72 84 107
f 72 107 106
f 72 106 94
f 94 119 118
f 48 122 108
f 96 85 121
f 96 121 120
f 96 112 95
f 95 112 111
f 98 112 120
f 113 127 128
f 113 128 104
f 114 129 115
f 115 129 126
f 117 123 124
f 104 128 125
f 114 104 125
f 105 119 106
f 106 119 94
f 48 94 118
f 122 48 123
f 109 126 110
f 85 127 121
f 111 97 73
f 112 96 120
f 101 121 127
f 101 127 113
f 114 125 129
f 129 125 126
f 116 115 126
f 116 126 122
f 122 103 116
f 48 118 124
f 108 122 126
f 108 126 109
f 110 126 125
f 110 125 128
f 48 124 123
f 110 128 85
f 128 127 85
f 130 131 138
f 130 138 149
f 130 149 164
f 130 164 183
f 130 183 198
f 130 198 212
f 130 212 211
f 130 211 228
f 130 228 247
f 130 247 264
f 130 264 263
f 130 263 277
f 130 277 284
f 130 284 285
f 130 285 280
f 130 280 266
f 130 266 248
f 130 248 231
f 130 231 230
f 130 230 229
f 130 229 213
f 130 213 199
f 130 199 185
f 130 185 184
f 130 184 165
f 130 165 150
f 130 150 139
f 130 139 132
f 130 132 133
f 130 133 131
f 131 133 134
f 131 134 135
f 131 135 136
f 131 136 137
f 131 137 138
f 132 139 133
f 133 139 140
f 133 140 141
f 133 141 142
f 133 142 143
f 133 143 144
f 133 144 134
f 134 144 135
f 135 144 145
f 135 145 137
f 135 137 136
f 137 145 146
f 137 146 147
f 137 147 148
f 137 148 138
f 138 148 149
f 139 150 151
f 139 151 140
f 140 151 152
f 140 152 141
f 141 152 153
f 141 153 142
f 142 154 155
f 142 155 143
f 142 153 156
f 142 156 154
f 143 155 144
f 144 155 157
f 144 157 145
f 145 157 146
f 146 157 147
f 147 157 158
f 147 158 159
f 147 159 160
f 147 160 161
f 147 161 162
f 147 162 163
f 147 163 148
f 148 163 164
f 148 164 149
f 150 165 151
f 151 166 167
f 151 167 153
f 151 153 152
f 151 165 168
f 151 168 166
f 153 169 156
f 153 167 170
f 153 170 171
f 153 171 172
f 153 172 169
f 154 173 174
f 154 174 175
f 154 175 155
f 154 156 169
f 154 169 173
f 155 175 157
f 157 176 158
f 157 175 176
f 158 176 159
f 159 176 175
f 159 175 177
f 159 177 178
f 159 178 160
f 160 178 161
f 161 178 177
f 161 177 179
f 161 179 180
f 161 180 181
f 161 181 162
f 162 181 163
f 163 181 182
f 163 182 183
f 163 183 164
f 165 184 168
f 166 168 170
f 166 170 167
f 168 184 185
f 168 185 186
f 168 186 187
f 168 187 188
f 168 188 170
f 169 172 189
f 169 189 190
f 169 190 173
f 170 188 191
f 170 191 192
f 170 192 171
f 171 189 172
f 171 192 189
f 173 190 202
f 173 202 216
f 173 216 236
f 173 236 241
f 173 241 222
f 173 222 206
f 173 206 193
f 173 193 177
f 173 177 175
f 173 175 174
f 177 193 194
f 177 194 179
f 179 194 195
f 179 195 180
f 180 195 196
f 180 196 197
f 180 197 181
f 181 197 182
f 182 197 183
f 183 197 196
f 183 196 198
f 185 199 187
f 185 187 186
f 187 199 200
f 187 200 201
f 187 201 191
f 187 191 188
f 189 202 190
f 189 192 203
f 189 203 202
f 191 201 204
f 191 204 192
f 192 204 203
f 193 205 194
f 193 206 205
f 194 205 207
f 194 207 195
f 195 207 208
f 195 208 209
f 195 209 196
f 196 209 210
f 196 210 211
f 196 211 212
f 196 212 198
f 199 213 200
f 200 213 214
f 200 214 201
f 201 214 215
f 201 215 204
f 202 203 217
f 202 217 216
f 203 218 217
f 203 204 218
f 204 215 219
f 204 219 217
f 204 217 218
f 205 220 208
f 205 208 207
f 205 206 221
f 205 221 220
f 206 222 221
f 208 223 224
f 208 224 225
f 208 225 209
f 208 220 226
f 208 226 227
f 208 227 223
f 209 225 210
f 210 225 224
f 210 224 211
f 211 224 228
f 213 229 214
f 214 229 230
f 214 230 231
f 214 231 232
f 214 232 233
f 214 233 215
f 215 233 234
f 215 234 219
f 216 235 236
f 216 217 237
f 216 237 238
f 216 238 235
f 217 219 234
f 217 234 237
f 220 221 226
f 221 222 239
f 221 239 240
f 221 240 226
f 222 241 242
f 222 242 239
f 223 227 243
f 223 243 224
f 224 243 244
f 224 244 228
f 226 240 227
f 227 244 243
f 227 240 245
f 227 245 246
f 227 246 244
f 228 244 247
f 231 248 249
f 231 249 250
f 231 250 251
f 231 251 232
f 232 251 233
f 233 251 234
f 234 251 252
f 234 252 238
f 234 238 237
f 235 253 236
f 235 238 253
f 236 253 254
f 236 254 242
f 236 242 241
f 238 252 251
f 238 251 255
f 238 255 256
f 238 256 253
f 239 242 257
f 239 257 258
f 239 258 240
f 240 258 245
f 242 254 259
f 242 259 260
f 242 260 258
f 242 258 257
f 244 246 261
f 244 261 262
f 244 262 263
f 244 263 264
f 244 264 247
f 245 258 265
f 245 265 261
f 245 261 246
f 248 266 267
f 248 267 268
f 248 268 249
f 249 268 255
f 249 255 251
f 249 251 250
f 253 256 269
f 253 269 270
f 253 270 271
f 253 271 259
f 253 259 254
f 255 268 256
f 256 268 269
f 258 272 273
f 258 273 265
f 258 260 272
f 259 271 270
f 259 270 274
f 259 274 275
f 259 275 260
f 260 275 273
f 260 273 272
f 261 265 276
f 261 276 277
f 261 277 263
f 261 263 262
f 265 273 278
f 265 278 279
f 265 279 276
f 266 280 281
f 266 281 282
f 266 282 270
f 266 270 283
f 266 283 267
f 267 283 270
f 267 270 269
f 267 269 268
f 270 282 274
f 273 275 278
f 274 282 281
f 274 281 275
f 275 281 278
f 276 279 284
f 276 284 277
f 278 281 279
f 279 281 284
f 280 285 281
f 281 285 284
f 286 287 288
f 286 288 289
f 286 289 298
f 286 298 312
f 286 312 333
f 286 333 349
f 286 349 348
f 286 348 362
f 286 362 376
f 286 376 392
f 286 392 403
f 286 403 418
f 286 418 421
f 286 421 433
f 286 433 444
f 286 444 443
f 286 443 446
f 286 446 445
f 286 445 438
f 286 438 442
f 286 442 436
f 286 436 424
f 286 424 409
f 286 409 408
f 286 408 393
f 286 393 378
f 286 378 364
f 286 364 363
f 286 363 350
f 286 350 334
f 286 334 316
f 286 316 301
f 286 301 291
f 286 291 287
f 287 290 288
f 287 291 290
f 288 292 293
f 288 293 294
f 288 294 289
f 288 290 295
f 288 295 292
f 289 294 296
f 289 296 297
f 289 297 298
f 290 291 299
f 290 299 300
f 290 300 295
f 291 301 299
f 292 295 302
f 292 302 303
f 292 303 304
f 292 304 305
f 292 305 293
f 293 305 306
f 293 306 307
f 293 307 294
f 294 307 296
f 295 300 302
f 296 307 297
f 297 307 308
f 297 308 309
f 297 309 310
f 297 310 311
f 297 311 298
f 298 311 312
f 299 313 314
f 299 314 302
f 299 302 300
f 299 301 315
f 299 315 313
f 301 316 315
f 302 314 317
f 302 317 318
f 302 318 319
f 302 319 320
f 302 320 303
f 303 320 321
f 303 321 304
f 304 321 322
f 304 322 305
f 305 322 306
f 306 323 324
f 306 324 309
f 306 309 308
f 306 308 307
f 306 322 323
f 309 324 325
f 309 325 326
f 309 326 327
f 309 327 328
f 309 328 329
f 309 329 330
f 309 330 310
f 310 330 331
f 310 331 332
f 310 332 311
f 311 332 312
f 312 332 333
f 313 317 314
f 313 315 317
f 315 316 334
f 315 334 335
f 315 335 336
f 315 336 337
f 315 337 317
f 317 337 338
f 317 338 339
f 317 339 318
f 318 339 340
f 318 340 319
f 319 340 320
f 320 340 341
f 320 341 321
f 321 341 355
f 321 355 370
f 321 370 383
f 321 383 399
f 321 399 401
f 321 401 385
f 321 385 371
f 321 371 356
f 321 356 343
f 321 343 342
f 321 342 322
f 322 342 325
f 322 325 323
f 323 325 324
f 325 342 343
f 325 343 327
f 325 327 326
f 327 343 328
f 328 343 344
f 328 344 345
f 328 345 346
f 328 346 329
f 329 346 330
f 330 346 347
f 330 347 348
f 330 348 349
f 330 349 331
f 331 349 333
f 331 333 332
f 334 350 336
f 334 336 335
f 336 350 351
f 336 351 352
f 336 352 338
f 336 338 337
f 338 353 339
f 338 352 353
f 339 353 354
f 339 354 340
f 340 355 341
f 340 354 355
f 343 356 372
f 343 372 357
f 343 357 344
f 344 357 358
f 344 358 345
f 345 358 359
f 345 359 360
f 345 360 361
f 345 361 346
f 346 361 347
f 347 361 348
f 348 361 360
f 348 360 359
f 348 359 362
f 350 363 351
f 351 363 364
f 351 364 365
f 351 365 352
f 352 365 366
f 352 366 353
f 353 367 368
f 353 368 354
f 353 366 369
f 353 369 367
f 354 367 355
f 354 368 367
f 355 367 370
f 356 371 372
f 357 372 358
f 358 373 359
f 358 372 374
f 358 374 375
f 358 375 373
f 359 376 362
f 359 373 377
f 359 377 376
f 364 378 379
f 364 379 365
f 365 379 366
f 366 379 380
f 366 380 381
f 366 381 369
f 367 369 381
f 367 381 382
f 367 382 383
f 367 383 370
f 371 384 372
f 371 385 384
f 372 384 374
f 373 386 377
f 373 375 386
f 374 384 375
f 375 387 388
f 375 388 386
f 375 384 389
f 375 389 390
f 375 390 391
f 375 391 387
f 376 377 392
f 377 386 388
f 377 388 392
f 378 393 379
f 379 393 394
f 379 394 380
f 380 394 395
f 380 395 381
f 381 396 397
f 381 397 382
f 381 395 396
f 382 397 383
f 383 397 398
f 383 398 399
f 384 385 400
f 384 400 389
f 385 401 400
f 387 391 402
f 387 402 388
f 388 403 392
f 388 402 404
f 388 404 403
f 389 400 390
f 390 400 405
f 390 405 391
f 391 404 402
f 391 405 406
f 391 406 407
f 391 407 404
f 393 408 394
f 394 408 395
f 395 408 409
f 395 409 410
f 395 410 411
f 395 411 412
f 395 412 397
f 395 397 396
f 397 413 414
f 397 414 398
f 397 412 413
f 398 414 399
f 399 414 415
f 399 415 416
f 399 416 401
f 400 401 417
f 400 417 405
f 401 416 417
f 403 404 418
f 404 407 419
f 404 419 420
f 404 420 421
f 404 421 418
f 405 417 422
f 405 422 406
f 406 422 423
f 406 423 419
f 406 419 407
f 409 424 411
f 409 411 410
f 411 424 425
f 411 425 412
f 412 425 413
f 413 425 426
f 413 426 414
f 414 426 427
f 414 427 428
f 414 428 429
f 414 429 415
f 415 429 416
f 416 430 422
f 416 422 431
f 416 431 417
f 416 429 430
f 417 431 422
f 419 423 432
f 419 432 433
f 419 433 421
f 419 421 420
f 422 430 434
f 422 434 423
f 423 434 435
f 423 435 432
f 424 436 425
f 425 437 426
f 425 436 437
f 426 437 427
f 427 438 439
f 427 439 440
f 427 440 429
f 427 429 428
f 427 437 441
f 427 441 442
f 427 442 438
f 429 440 434
f 429 434 430
f 432 435 443
f 432 443 444
f 432 444 433
f 434 440 435
f 435 440 439
f 435 439 445
f 435 445 446
f 435 446 443
f 436 442 437
f 437 442 441
f 438 445 439
f 447 448 452
f 447 452 460
f 447 460 473
f 447 473 489
f 447 489 505
f 447 505 520
f 447 520 536
f 447 536 552
f 447 552 551
f 447 551 550
f 447 550 568
f 447 568 570
f 447 570 587
f 447 587 588
f 447 588 600
f 447 600 608
f 447 608 607
f 447 607 604
f 447 604 603
f 447 603 592
f 447 592 575
f 447 575 557
f 447 557 541
f 447 541 539
f 447 539 525
f 447 525 508
f 447 508 492
f 447 492 490
f 447 490 474
f 447 474 461
f 447 461 453
f 447 453 449
f 447 449 450
f 447 450 448
f 448 450 451
f 448 451 452
f 449 453 454
f 449 454 455
f 449 455 450
f 450 455 456
f 450 456 457
f 450 457 458
f 450 458 451
f 451 458 459
f 451 459 452
f 452 459 460
f 453 461 454
f 454 461 462
f 454 462 463
f 454 463 455
f 455 463 456
f 456 463 464
f 456 464 457
f 457 465 466
f 457 466 458
f 457 464 467
f 457 467 465
f 458 466 459
f 459 466 468
f 459 468 469
f 459 469 470
f 459 470 471
f 459 471 472
f 459 472 460
f 460 472 471
f 460 471 473
f 461 474 462
f 462 475 476
f 462 476 463
f 462 474 477
f 462 477 478
f 462 478 475
f 463 476 464
f 464 476 479
f 464 479 480
f 464 480 481
f 464 481 482
f 464 482 465
f 464 465 467
f 465 482 466
f 466 482 483
f 466 483 469
f 466 469 468
f 469 483 484
f 469 484 485
f 469 485 486
f 469 486 487
f 469 487 470
f 470 487 488
f 470 488 471
f 471 488 473
f 473 488 489
f 474 490 478
f 474 478 477
f 475 491 476
f 475 478 491
f 476 491 479
f 478 490 492
f 478 492 493
f 478 493 494
f 478 494 491
f 479 491 495
f 479 495 496
f 479 496 480
f 480 496 497
f 480 497 482
f 480 482 481
f 482 484 483
f 482 497 484
f 484 498 485
f 484 497 512
f 484 512 527
f 484 527 542
f 484 542 561
f 484 561 580
f 484 580 563
f 484 563 543
f 484 543 529
f 484 529 514
f 484 514 498
f 485 498 486
f 486 499 500
f 486 500 501
f 486 501 502
f 486 502 503
f 486 503 487
f 486 498 499
f 487 503 488
f 488 503 504
f 488 504 489
f 489 504 505
f 491 494 506
f 491 506 507
f 491 507 495
f 492 508 493
f 493 507 506
f 493 506 494
f 493 508 509
f 493 509 510
f 493 510 507
f 495 507 511
f 495 511 496
f 496 512 497
f 496 511 513
f 496 513 512
f 498 514 515
f 498 515 499
f 499 515 500
f 500 516 517
f 500 517 518
f 500 518 502
f 500 502 501
f 500 515 516
f 502 518 519
f 502 519 520
f 502 520 505
f 502 505 521
f 502 521 504
f 502 504 503
f 504 521 505
f 507 510 522
f 507 522 523
f 507 523 524
f 507 524 513
f 507 513 511
f 508 525 509
f 509 525 526
f 509 526 522
f 509 522 510
f 512 513 527
f 513 524 528
f 513 528 527
f 514 529 530
f 514 530 531
f 514 531 515
f 515 531 532
f 515 532 533
f 515 533 516
f 516 533 517
f 517 534 518
f 517 533 535
f 517 535 534
f 518 534 519
f 519 534 520
f 520 534 536
f 522 526 523
f 523 526 537
f 523 537 538
f 523 538 528
f 523 528 524
f 525 539 526
f 526 540 537
f 526 539 541
f 526 541 540
f 527 528 542
f 528 538 542
f 529 543 544
f 529 544 530
f 530 544 545
f 530 545 546
f 530 546 547
f 530 547 531
f 531 547 533
f 531 533 532
f 533 547 548
f 533 548 535
f 534 535 549
f 534 549 550
f 534 550 551
f 534 551 552
f 534 552 536
f 535 548 553
f 535 553 549
f 537 554 555
f 537 555 538
f 537 540 554
f 538 555 542
f 540 541 556
f 540 556 554
f 541 557 558
f 541 558 556
f 542 555 559
f 542 559 560
f 542 560 561
f 543 562 544
f 543 563 562
f 544 562 564
f 544 564 565
f 544 565 545
f 545 565 546
f 546 566 547
f 546 565 566
f 547 566 548
f 548 566 567
f 548 567 553
f 549 568 550
f 549 553 568
f 553 569 570
f 553 570 568
f 553 567 571
f 553 571 569
f 554 556 558
f 554 558 572
f 554 572 555
f 555 572 573
f 555 573 574
f 555 574 559
f 557 575 576
f 557 576 558
f 558 576 577
f 558 577 573
f 558 573 572
f 559 574 560
f 560 573 578
f 560 578 579
f 560 579 580
f 560 580 561
f 560 574 573
f 562 563 580
f 562 580 581
f 562 581 582
f 562 582 564
f 564 582 565
f 565 583 584
f 565 584 585
f 565 585 566
f 565 582 586
f 565 586 583
f 566 585 571
f 566 571 567
f 569 571 570
f 570 571 587
f 571 588 587
f 571 585 584
f 571 584 588
f 573 589 590
f 573 590 591
f 573 591 578
f 573 577 589
f 575 592 593
f 575 593 576
f 576 593 577
f 577 593 594
f 577 594 589
f 578 591 579
f 579 591 580
f 580 591 581
f 581 591 595
f 581 595 596
f 581 596 582
f 582 596 597
f 582 597 598
f 582 598 586
f 583 586 599
f 583 599 584
f 584 599 600
f 584 600 588
f 586 598 599
f 589 601 602
f 589 602 590
f 589 594 603
f 589 603 604
f 589 604 601
f 590 602 591
f 591 602 595
f 592 603 594
f 592 594 593
f 595 605 606
f 595 606 597
f 595 597 596
f 595 602 605
f 597 606 598
f 598 607 608
f 598 608 599
f 598 606 604
f 598 604 607
f 599 608 600
f 601 604 605
f 601 605 602
f 604 606 605
f 609 610 611
f 609 611 616
f 609 616 629
f 609 629 641
f 609 641 659
f 609 659 673
f 609 673 672
f 609 672 671
f 609 671 693
f 609 693 712
f 609 712 719
f 609 719 739
f 609 739 738
f 609 738 737
f 609 737 750
f 609 750 748
f 609 748 747
f 609 747 746
f 609 746 745
f 609 745 744
f 609 744 743
f 609 743 741
f 609 741 740
f 609 740 724
f 609 724 723
f 609 723 722
f 609 722 721
f 609 721 701
f 609 701 700
f 609 700 680
f 609 680 679
f 609 679 661
f 609 661 660
f 609 660 648
f 609 648 632
f 609 632 618
f 609 618 612
f 609 612 610
f 610 613 614
f 610 614 615
f 610 615 616
f 610 616 611
f 610 612 617
f 610 617 613
f 612 618 617
f 613 619 620
f 613 620 614
f 613 617 621
f 613 621 622
f 613 622 619
f 614 623 624
f 614 624 625
f 614 625 626
f 614 626 615
f 614 620 627
f 614 627 623
f 615 626 628
f 615 628 616
f 616 628 629
f 617 618 630
f 617 630 631
f 617 631 621
f 618 632 630
f 619 627 620
f 619 622 634
f 619 634 627
f 621 631 633
f 621 633 622
f 622 633 634
f 623 635 624
f 623 627 635
f 624 635 636
f 624 636 637
f 624 637 625
f 625 637 638
f 625 638 628
f 625 628 626
f 627 639 635
f 627 634 650
f 627 650 668
f 627 668 691
f 627 691 694
f 627 694 674
f 627 674 656
f 627 656 639
f 628 638 640
f 628 640 629
f 629 640 641
f 630 632 642
f 630 642 643
f 630 643 644
f 630 644 631
f 631 644 645
f 631 645 646
f 631 646 647
f 631 647 634
f 631 634 633
f 632 648 643
f 632 643 642
f 634 647 649
f 634 649 650
f 635 639 636
f 636 651 652
f 636 652 653
f 636 653 654
f 636 654 655
f 636 655 637
f 636 639 651
f 637 655 640
f 637 640 638
f 639 656 678
f 639 678 657
f 639 657 658
f 639 658 651
f 640 655 654
f 640 654 659
f 640 659 641
f 643 645 644
f 643 648 660
f 643 660 661
f 643 661 662
f 643 662 663
f 643 663 645
f 645 663 664
f 645 664 646
f 646 649 647
f 646 664 665
f 646 665 649
f 649 665 650
f 650 665 666
f 650 666 667
f 650 667 686
f 650 686 668
f 651 658 652
f 652 658 657
f 652 657 678
f 652 678 669
f 652 669 670
f 652 670 653
f 653 670 693
f 653 693 671
f 653 671 672
f 653 672 673
f 653 673 659
f 653 659 654
f 656 674 675
f 656 675 676
f 656 676 677
f 656 677 678
f 661 679 662
f 662 679 680
f 662 680 681
f 662 681 682
f 662 682 683
f 662 683 664
f 662 664 663
f 664 683 665
f 665 683 682
f 665 682 684
f 665 684 685
f 665 685 666
f 666 685 667
f 667 685 687
f 667 687 703
f 667 703 686
f 668 686 688
f 668 688 689
f 668 689 690
f 668 690 691
f 669 678 677
f 669 677 676
f 669 676 692
f 669 692 670
f 670 692 693
f 674 694 675
f 675 694 695
f 675 695 696
f 675 696 676
f 676 697 698
f 676 698 699
f 676 699 692
f 676 696 697
f 680 700 682
f 680 682 681
f 682 700 684
f 684 687 685
f 684 700 701
f 684 701 721
f 684 721 702
f 684 702 703
f 684 703 687
f 686 703 688
f 688 703 689
f 689 704 705
f 689 705 706
f 689 706 690
f 689 703 702
f 689 702 707
f 689 707 704
f 690 706 708
f 690 708 691
f 691 708 709
f 691 709 710
f 691 710 711
f 691 711 713
f 691 713 694
f 692 699 712
f 692 712 693
f 694 713 714
f 694 714 715
f 694 715 695
f 695 715 696
f 696 715 716
f 696 716 697
f 697 717 698
f 697 716 718
f 697 718 717
f 698 717 699
f 699 719 712
f 699 717 720
f 699 720 719
f 702 721 722
f 702 722 723
f 702 723 724
f 702 724 707
f 704 725 705
f 704 707 725
f 705 725 726
f 705 726 727
f 705 727 706
f 706 727 709
f 706 709 708
f 707 724 725
f 709 727 728
f 709 728 729
f 709 729 730
f 709 730 731
f 709 731 710
f 710 731 711
f 711 731 713
f 713 732 714
f 713 731 732
f 714 732 715
f 715 733 716
f 715 732 734
f 715 734 735
f 715 735 733
f 716 733 736
f 716 736 718
f 717 737 738
f 717 738 739
f 717 739 719
f 717 719 720
f 717 718 736
f 717 736 737
f 724 740 725
f 725 740 741
f 725 741 742
f 725 742 726
f 726 742 727
f 727 742 728
f 728 742 729
f 729 742 743
f 729 743 730
f 730 743 744
f 730 744 745
f 730 745 746
f 730 746 734
f 730 734 731
f 731 734 732
f 733 735 736
f 734 746 747
f 734 747 735
f 735 747 748
f 735 748 749
f 735 749 736
f 736 750 737
f 736 749 748
f 736 748 750
f 741 743 742

