# https://github.com/mikedh/trimesh
v 0.00397208 -0.05333209 0.07703007
v 0.02054243 -0.05274420 0.07806416
v -0.01094068 -0.05272692 0.08324737
v -0.00712825 -0.05235390 0.05797455
v 0.01782665 -0.05254041 0.06030100
v 0.01507240 -0.05261214 0.10081903
v -0.00778375 -0.05279213 0.09616219
v 0.01967938 -0.05198479 0.10435536
v -0.01115424 -0.05164699 0.05628936
v 0.02406357 -0.05105745 0.06669900
v -0.01429875 -0.05087486 0.09923597
v -0.01190751 -0.04926279 0.13813658
v -0.00633491 -0.05048097 0.13174939
v -0.01542505 -0.04989177 0.06346956
v 0.02379752 -0.05083834 0.09679659
v 0.01665588 -0.05002448 0.13731952
v -0.01654253 -0.04790896 0.11152720
v 0.01666790 -0.05117353 0.05013786
v 0.02377028 -0.04923931 0.05131238
v 0.02060173 -0.04945060 0.13513154
v -0.00173515 -0.04927322 0.14289752
v -0.01499913 -0.04640776 0.14328051
v -0.02042428 -0.04251191 0.05002002
v -0.01557290 -0.04735465 0.04736654
v 0.01438004 -0.04780201 0.14134197
v 0.00994375 -0.04788549 0.14299180
v -0.02048198 -0.04416051 0.06987295
v -0.01109975 -0.04928887 0.04515695
v -0.00789114 -0.04980015 0.04525908
v 0.01905352 -0.04925235 0.04445773
v 0.02760034 -0.04524565 0.06013970
v 0.02699011 -0.04610125 0.10328592
v 0.02316766 -0.04608038 0.13517475
v -0.01586619 -0.02860324 0.00002235
v -0.00675642 -0.03186911 -0.00008764
v 0.02313721 -0.04737682 0.04468557
v 0.02381035 0.00948129 0.14129482
v -0.01030801 -0.03806176 0.14996035
v -0.01743043 -0.04284580 0.14421737
v -0.02057734 -0.04124417 0.10994415
v -0.02183306 -0.02422873 0.00012448
v 0.00675758 -0.03186911 -0.00008764
v 0.02698370 -0.04449439 0.04921867
v 0.02841531 -0.04220737 0.07864553
v 0.02571756 -0.03955384 0.13152941
v -0.00942011 -0.00211101 0.15885371
v -0.00945537 -0.01452761 0.15721175
v -0.01589183 -0.02702768 0.15400636
v -0.01860361 -0.03574017 0.14684139
v -0.03173937 -0.00795412 0.00002235
v -0.02855960 -0.01589448 0.00003806
v 0.01445376 -0.02908581 0.00001056
v 0.03171488 -0.00791238 0.00025804
v 0.02741002 -0.03814002 0.11191216
v 0.02857999 -0.01591535 0.00000663
v -0.00968616 0.01183941 0.15942723
v -0.02225457 -0.03945732 0.06868272
v 0.00872570 -0.02940666 -0.00082613
v 0.02227175 -0.02388701 -0.00002479
v 0.03269574 0.00151485 0.00239496
v 0.02569833 0.03645349 0.13630606
v 0.02304746 0.04684587 0.14050134
v 0.01437683 0.04774842 0.14688852
v 0.00820642 0.04773277 0.14927685
v -0.01585978 -0.00479258 0.15875158
v -0.02141155 -0.03733659 0.11353057
v -0.03249464 -0.00184103 0.00507495
v -0.03094443 -0.00007114 -0.00079471
v 0.03173411 0.00784314 0.00022661
v 0.02489217 0.04433907 0.13691099
v 0.02178453 0.04867445 0.13991605
v 0.02680580 0.03764298 0.12184649
v -0.01026955 0.03729865 0.15480770
v -0.01612262 0.02580025 0.15725888
v -0.01754422 -0.01709114 0.15587813
v 0.02936852 -0.00877841 -0.00084185
v 0.02675772 0.04476165 0.10295988
v 0.01665588 0.05005958 0.14204903
v -0.01744966 0.00881351 0.15875944
v -0.02315689 -0.01648531 0.11469723
v -0.02155058 -0.01109348 0.13406897
v -0.02540548 0.02058320 0.00002235
v 0.02301540 0.01976934 -0.00084185
v 0.02762158 0.04200444 0.08931344
v 0.02386444 0.04978666 0.09984533
v 0.02022510 0.05262311 0.08186171
v -0.03174578 0.00789531 0.00002235
v -0.03015590 0.01262196 0.00002235
v -0.00799371 0.03171640 0.00000663
v 0.01586414 0.05195076 0.11229713
v -0.00917009 0.04817622 0.14992107
v -0.01561296 0.03943764 0.15360570
v -0.01863406 0.01214134 0.15577257
v 0.00636972 0.03183118 -0.00013871
v 0.02857999 0.01581480 0.00000663
v -0.01119912 0.04920398 0.14778416
v -0.02335082 0.00431119 0.11826007
v -0.01432439 0.02934786 0.00000664
v 0.01591863 0.02853399 -0.00000908
v 0.02537459 0.02054146 0.00011662
v 0.02763760 0.04360086 0.06750820
v -0.02275782 0.01975890 0.11826007
v -0.02089227 0.00786922 0.14128697
v -0.02054288 0.04262527 0.05240048
v -0.01543346 0.04713542 0.04776918
v 0.00000378 0.03266069 0.00080798
v 0.01546827 0.05023304 0.04819538
v 0.02699652 0.04601114 0.06502560
v 0.02386003 0.05079779 0.07148743
v 0.01546827 0.05320807 0.07899415
v -0.01743684 0.04277657 0.14908831
v -0.01501515 0.04672848 0.14832231
v -0.01859079 0.03564484 0.15081669
v -0.02135385 0.03727257 0.11592674
v -0.02210872 0.03998283 0.06577588
v -0.00901944 0.04961091 0.04689319
v 0.02029241 0.04839794 0.04559690
v 0.02549479 0.04555726 0.05134774
v -0.00791678 0.05289244 0.09208279
v -0.02251340 0.03770558 0.08229381
v -0.01549356 0.04957831 0.06080479
v -0.00928949 0.05157383 0.05525037
v 0.02342890 0.04876836 0.05222568
v -0.02046114 0.04212443 0.10570468
v -0.01409520 0.05036999 0.10634104
v -0.01669218 0.04839566 0.09496164
v 0.01910481 0.05235508 0.06024895
v -0.00712825 0.05299157 0.06588980
v -0.01208381 0.05240725 0.07939482
v -0.01508099 0.00200986 0.11455958
v -0.01667745 0.00200986 0.11460335
v -0.01031970 0.00513055 0.09924364
v -0.00872972 0.00515262 0.09924364
v -0.00872972 0.00272272 0.11194199
v 0.00238284 0.00287941 0.11532559
v -0.01363575 0.00200986 0.11523367
v -0.01763014 0.00200986 0.11469965
v -0.01031970 0.00563816 0.09765471
v -0.00872972 0.00565140 0.09765471
v 0.00352564 0.00296107 0.11552256
v 0.00289483 0.00291473 0.11541314
v 0.00289483 0.00287941 0.11585961
v 0.00370063 0.00287941 0.11670442
v 0.00238284 0.00262782 0.12146247
v -0.01335059 0.00200986 0.11670442
v -0.01763014 0.00200986 0.12559895
v -0.01763014 0.00232766 0.11466900
v -0.01186863 0.00709699 0.09765471
v -0.01148194 0.00597142 0.09765471
v -0.01119246 0.00625171 0.09682741
v -0.01031970 0.00622522 0.09680990
v -0.00872972 0.00622522 0.09680990
v -0.00763877 0.00598245 0.09765471
v -0.00787640 0.00625171 0.09682741
v 0.00378488 0.00392112 0.11525118
v 0.00438976 0.00392112 0.11670442
v 0.00439840 0.00392112 0.11987791
v 0.00370063 0.00287941 0.12622489
v -0.01332683 0.00200986 0.11829335
v 0.00238284 0.00262782 0.12304702
v -0.01762798 0.00200986 0.14144453
v -0.01763014 0.00216435 0.12991489
v -0.01763014 0.00392112 0.11461648
v -0.01187511 0.00868382 0.09765471
v -0.01125510 0.00868382 0.09679677
v -0.01124646 0.00709699 0.09680115
v -0.01031970 0.00709699 0.09674424
v -0.00872972 0.00709699 0.09674424
v -0.00783536 0.00709699 0.09680115
v 0.00380432 0.00550795 0.11522929
v 0.00443081 0.00550795 0.11670442
v 0.00443729 0.00550795 0.11987791
v 0.00443945 0.00550795 0.12146247
v 0.00439840 0.00392112 0.12304702
v 0.00439192 0.00392112 0.12622489
v 0.00360989 0.00290148 0.12780945
v -0.01332683 0.00200986 0.11835026
v -0.01350397 0.00200986 0.12160254
v -0.01333331 0.00200986 0.11987791
v 0.00238284 0.00274258 0.12780945
v -0.01714839 0.00200986 0.14144453
v -0.01762798 0.01869035 0.14144892
v -0.01763014 0.00921350 0.12991489
v -0.01762798 0.01945618 0.11453769
v -0.01762798 0.01733084 0.11454644
v -0.01763014 0.00779881 0.11461648
v -0.01187727 0.01502894 0.09765471
v -0.01031970 0.00868382 0.09673548
v -0.01125726 0.01502894 0.09679677
v -0.00872972 0.00868382 0.09673548
v -0.00782239 0.00868382 0.09679677
v -0.00782239 0.01502894 0.09679677
v -0.00787208 0.01661577 0.09682303
v -0.00737089 0.01661577 0.09765471
v -0.00792609 0.01741912 0.09685367
v -0.00767981 0.01765748 0.09765471
v 0.00355373 0.00649227 0.11549193
v 0.00373951 0.00658717 0.11670442
v 0.00443945 0.00550795 0.12304702
v 0.00443297 0.00550795 0.12622489
v 0.00417589 0.00392112 0.12780945
v 0.00340466 0.00298976 0.12874180
v 0.00289483 0.00286617 0.12827782
v -0.00872756 0.00515262 0.14144453
v -0.01632964 0.01869035 0.14144892
v -0.01762798 0.02455655 0.14144892
v -0.01763014 0.01070764 0.12199211
v -0.01762798 0.02455655 0.11454644
v -0.01763014 0.00964166 0.11468214
v -0.01180598 0.01661577 0.09765471
v -0.01031970 0.01502894 0.09673548
v -0.01119678 0.01661577 0.09682303
v -0.00872972 0.01502894 0.09673548
v -0.00872972 0.01661577 0.09678801
v -0.00872972 0.01742574 0.09684929
v -0.00872972 0.01790245 0.09765471
v -0.00744218 0.01789142 0.09924364
v -0.01412182 0.02455655 0.11568890
v -0.01276947 0.02455655 0.12622489
v 0.00373951 0.00658717 0.12622489
v 0.00364662 0.00656289 0.12780945
v 0.00421262 0.00550795 0.12780945
v 0.00356453 0.00392112 0.12885123
v -0.00692371 0.00709699 0.14144453
v -0.00742922 0.00573748 0.14144453
v -0.00693883 0.01661798 0.14144453
v -0.01638365 0.02455655 0.14144892
v -0.01763014 0.01070764 0.11476530
v -0.01031970 0.01790245 0.09765471
v -0.01112765 0.01741912 0.09685367
v -0.01666665 0.02455655 0.11473028
v -0.01031970 0.01661577 0.09678801
v -0.01031970 0.01742574 0.09684929
v -0.01507883 0.02455655 0.11509798
v -0.01391875 0.02455655 0.11670879
v -0.01277811 0.02455655 0.12598853
v -0.00744434 0.01788921 0.14144453
v 0.00342627 0.00645916 0.12875931
v 0.00358181 0.00550795 0.12886436
v -0.00714622 0.01714325 0.14144453
f 1 3 4
f 1 4 5
f 1 6 7
f 1 7 3
f 1 5 2
f 2 8 6
f 2 6 1
f 3 9 4
f 2 5 10
f 3 7 12
f 7 13 12
f 3 12 11
f 3 14 9
f 3 11 14
f 2 15 8
f 6 8 16
f 6 16 13
f 6 13 7
f 2 10 15
f 4 18 5
f 5 19 10
f 15 20 8
f 16 8 20
f 13 21 12
f 11 17 14
f 11 12 22
f 11 22 17
f 5 18 19
f 16 20 25
f 16 25 26
f 16 21 13
f 21 22 12
f 14 17 27
f 24 9 14
f 9 24 28
f 9 28 29
f 9 29 4
f 18 30 19
f 15 10 31
f 20 15 33
f 20 33 25
f 16 26 21
f 23 14 27
f 24 14 23
f 28 34 35
f 4 29 18
f 15 31 32
f 10 19 31
f 32 33 15
f 25 33 37
f 22 21 38
f 17 22 39
f 28 24 34
f 28 35 29
f 29 30 18
f 19 43 31
f 19 36 43
f 32 45 33
f 37 33 45
f 37 46 25
f 25 46 47
f 25 47 26
f 26 47 38
f 17 40 27
f 38 48 22
f 22 48 39
f 17 39 40
f 23 50 51
f 23 51 24
f 24 51 41
f 24 41 34
f 29 35 42
f 29 42 30
f 30 42 52
f 30 52 36
f 19 30 36
f 43 53 31
f 44 54 32
f 43 55 53
f 32 54 45
f 46 37 56
f 26 38 21
f 23 57 50
f 27 57 23
f 34 41 58
f 34 58 35
f 52 42 58
f 36 52 59
f 31 44 32
f 53 60 31
f 37 45 61
f 37 61 62
f 37 62 63
f 37 63 56
f 45 54 61
f 56 65 46
f 47 46 65
f 27 40 57
f 39 49 66
f 39 66 40
f 39 48 49
f 40 66 57
f 58 41 68
f 35 58 42
f 52 58 59
f 36 59 55
f 44 31 60
f 53 69 60
f 60 54 44
f 36 55 43
f 62 61 70
f 62 71 63
f 54 72 61
f 56 63 64
f 56 73 74
f 56 64 73
f 47 48 38
f 48 75 49
f 41 51 68
f 55 76 53
f 53 76 69
f 70 71 62
f 63 71 78
f 56 74 79
f 56 79 65
f 47 65 48
f 49 80 66
f 57 66 50
f 50 66 67
f 50 68 51
f 68 83 76
f 68 76 58
f 58 76 59
f 60 84 72
f 60 72 54
f 55 59 76
f 61 72 70
f 70 72 77
f 70 77 85
f 70 85 71
f 71 86 78
f 65 79 75
f 65 75 48
f 66 80 67
f 68 50 87
f 82 68 88
f 68 82 89
f 68 89 83
f 72 84 77
f 78 86 90
f 73 64 91
f 74 73 92
f 79 74 93
f 50 67 87
f 68 87 88
f 83 89 94
f 83 69 76
f 78 96 63
f 63 96 64
f 73 91 92
f 79 93 75
f 64 96 91
f 49 81 80
f 67 80 97
f 49 75 93
f 81 97 80
f 82 98 89
f 83 94 99
f 83 99 100
f 83 100 95
f 60 69 101
f 60 101 84
f 95 69 83
f 85 86 71
f 78 90 96
f 67 102 87
f 49 93 103
f 49 103 81
f 88 104 82
f 82 104 105
f 82 105 98
f 94 89 106
f 101 77 84
f 69 108 101
f 77 109 85
f 92 91 111
f 91 112 111
f 74 92 111
f 74 111 113
f 74 113 93
f 67 97 102
f 102 114 87
f 87 115 88
f 88 115 104
f 105 116 98
f 106 116 107
f 89 98 116
f 89 116 106
f 106 107 94
f 94 107 117
f 94 117 99
f 99 117 100
f 95 100 118
f 95 118 69
f 69 118 108
f 90 86 110
f 110 119 90
f 90 119 96
f 91 96 112
f 113 103 93
f 114 102 113
f 87 114 120
f 87 120 115
f 104 121 105
f 108 77 101
f 113 102 103
f 81 103 97
f 114 113 111
f 105 121 122
f 105 122 116
f 116 122 107
f 117 123 100
f 123 118 100
f 108 118 123
f 85 109 86
f 112 124 111
f 111 124 114
f 112 125 126
f 97 103 102
f 115 120 124
f 115 124 104
f 109 77 108
f 110 86 127
f 119 110 128
f 112 126 124
f 96 125 112
f 114 124 120
f 104 124 126
f 104 126 121
f 117 107 127
f 117 127 123
f 109 108 123
f 127 128 110
f 119 128 129
f 119 125 96
f 122 127 107
f 86 109 127
f 119 129 125
f 121 129 122
f 127 109 123
f 128 122 129
f 122 128 127
f 125 129 126
f 126 129 121
f 130 131 132
f 130 132 133
f 130 133 134
f 130 134 135
f 130 135 136
f 130 136 145
f 130 145 159
f 130 159 177
f 130 177 179
f 130 179 178
f 130 178 181
f 130 181 161
f 130 161 146
f 130 146 137
f 130 137 131
f 131 137 132
f 132 138 139
f 132 139 133
f 132 137 138
f 133 139 140
f 133 140 141
f 133 141 135
f 133 135 134
f 135 141 142
f 135 142 136
f 136 142 143
f 136 143 144
f 136 144 145
f 137 146 162
f 137 162 183
f 137 183 207
f 137 207 228
f 137 228 209
f 137 209 186
f 137 186 163
f 137 163 147
f 137 147 148
f 137 148 149
f 137 149 138
f 138 149 150
f 138 150 151
f 138 151 152
f 138 152 139
f 139 153 140
f 139 152 154
f 139 154 153
f 140 155 156
f 140 156 143
f 140 143 141
f 140 153 154
f 140 154 155
f 141 143 142
f 143 156 157
f 143 157 174
f 143 174 158
f 143 158 160
f 143 160 144
f 144 159 145
f 144 160 177
f 144 177 159
f 146 161 162
f 147 163 148
f 148 164 165
f 148 165 166
f 148 166 150
f 148 150 149
f 148 163 164
f 150 166 167
f 150 167 151
f 151 167 168
f 151 168 152
f 152 168 154
f 154 168 169
f 154 169 155
f 155 170 171
f 155 171 156
f 155 169 170
f 156 171 157
f 157 171 172
f 157 172 173
f 157 173 199
f 157 199 174
f 158 174 175
f 158 175 176
f 158 176 160
f 160 178 179
f 160 179 177
f 160 176 180
f 160 180 181
f 160 181 178
f 161 181 205
f 161 205 182
f 161 182 162
f 162 182 206
f 162 206 183
f 163 184 185
f 163 185 164
f 163 186 184
f 164 187 189
f 164 189 165
f 164 185 184
f 164 184 187
f 165 188 166
f 165 189 188
f 166 188 167
f 167 188 190
f 167 190 168
f 168 190 169
f 169 190 191
f 169 191 170
f 170 191 192
f 170 192 193
f 170 193 194
f 170 194 195
f 170 195 171
f 171 195 196
f 171 196 197
f 171 197 198
f 171 198 172
f 172 198 173
f 173 198 220
f 173 220 199
f 174 199 200
f 174 200 175
f 175 200 201
f 175 201 176
f 176 201 202
f 176 202 203
f 176 203 180
f 180 203 181
f 181 203 202
f 181 202 204
f 181 204 205
f 182 205 227
f 182 227 206
f 183 206 207
f 184 208 187
f 184 186 208
f 186 209 208
f 187 210 189
f 187 208 210
f 188 189 211
f 188 211 213
f 188 213 190
f 189 212 211
f 189 210 212
f 190 213 192
f 190 192 191
f 192 213 193
f 193 213 214
f 193 214 195
f 193 195 194
f 195 215 216
f 195 216 196
f 195 214 215
f 196 217 197
f 196 216 218
f 196 218 217
f 197 217 198
f 198 219 220
f 198 217 219
f 199 220 200
f 200 220 221
f 200 221 222
f 200 222 201
f 201 222 223
f 201 223 202
f 202 223 224
f 202 224 225
f 202 225 204
f 204 225 205
f 205 226 227
f 205 225 224
f 205 224 226
f 206 208 228
f 206 228 207
f 206 227 219
f 206 219 236
f 206 236 235
f 206 235 218
f 206 218 234
f 206 234 231
f 206 231 208
f 208 216 229
f 208 229 230
f 208 230 210
f 208 209 228
f 208 231 216
f 210 230 212
f 211 232 214
f 211 214 213
f 211 212 232
f 212 230 232
f 214 232 233
f 214 233 215
f 215 233 229
f 215 229 216
f 216 231 234
f 216 234 218
f 217 218 235
f 217 235 236
f 217 236 219
f 219 227 237
f 219 237 220
f 220 237 221
f 221 238 222
f 221 237 238
f 222 238 239
f 222 239 223
f 223 239 224
f 224 239 226
f 226 240 227
f 226 239 238
f 226 238 240
f 227 240 237
f 229 233 230
f 230 233 232
f 237 240 238

