# https://github.com/mikedh/trimesh
v 0.00300420 0.00077299 0.00455052
v 0.00200816 -0.00345869 -0.01142971
v 0.00201031 0.00343505 -0.01142971
v 0.00269506 0.00001211 0.00575574
v 0.00291470 -0.00250299 0.00437908
v 0.00200816 -0.00449005 -0.01074732
v 0.00177345 -0.00489071 -0.01035689
v 0.00179498 0.00489254 -0.01022449
v 0.00235053 0.00514265 -0.00013796
v 0.00222780 -0.00539288 0.00357531
v 0.00119636 -0.00675271 0.00310765
v 0.00034365 -0.00725063 0.00297525
v -0.00263436 -0.00786049 0.00008950
v -0.00263221 0.00783530 0.00008271
v -0.00045953 0.00744777 0.00290735
v 0.00119313 0.00672598 0.00314330
v 0.00248296 0.00469105 0.00386388
v 0.00234623 0.00342733 0.00609185
v 0.00051753 0.00208380 0.01024191
v 0.00235053 -0.00362853 0.00592889
v -0.00005794 -0.00486677 -0.01078297
v -0.00023128 -0.00361926 -0.01153496
v -0.00182903 0.00344277 -0.01143650
v -0.00082613 -0.00663074 0.00832491
v -0.00302209 -0.00697919 0.01087964
v -0.00367010 -0.00767985 0.00763997
v -0.00469723 -0.00786667 -0.00059968
v -0.00059034 0.00488675 -0.01066669
v -0.00757727 0.00756666 -0.00149257
v -0.00634296 0.00770759 0.00713623
v -0.00359238 0.00757780 0.00841986
v -0.00225040 0.00695207 0.00963898
v 0.00005269 0.00612958 0.00767689
v 0.00038511 -0.00286813 0.01038270
v -0.00676009 -0.00775859 0.00695078
v -0.00771185 -0.00758413 -0.00148238
v -0.00409525 -0.00487324 -0.00985719
v -0.00106245 0.00484004 0.01196858
v -0.00068212 0.00152228 0.01232548
v 0.00017173 -0.00498633 0.00944833
v -0.00509290 -0.00718328 0.01233185
v -0.00325667 -0.00351427 -0.01111058
v -0.00419336 0.00484892 -0.00985104
v -0.00852150 0.00760024 0.00421102
v -0.00641341 0.00741226 0.01176149
v -0.00101131 -0.00427293 0.01225164
v -0.00651139 -0.00751928 0.01098404
v -0.00908351 -0.00726299 -0.00184904
v -0.00494917 0.00337560 -0.01043668
v -0.00908351 0.00723780 -0.00185244
v -0.00215633 -0.00293220 0.01428397
v -0.01190434 -0.00717498 0.01038312
v -0.01040994 -0.00657438 -0.00218854
v -0.00647370 -0.00337300 -0.00957265
v -0.01194229 0.00704811 0.01289377
v -0.00543258 0.00636045 0.01522778
v -0.00203063 0.00604355 0.01180308
v -0.00269587 -0.00555374 0.01356168
v -0.00537552 -0.00585876 0.01622930
v -0.00796594 -0.00483281 -0.00731837
v -0.00797402 0.00345280 -0.00835045
v -0.00729788 0.00481727 -0.00792438
v -0.01012019 0.00670250 0.01620262
v -0.00291234 0.00469891 0.01455207
v -0.00840172 -0.00656560 0.01652551
v -0.01167447 -0.00520722 -0.00252125
v -0.01071033 0.00634539 -0.00211385
v -0.00413952 0.00358018 0.01643979
v -0.00444314 -0.00327496 0.01681663
v -0.01245128 -0.00672530 0.01591102
v -0.01414593 -0.00654351 0.01223000
v -0.00899522 -0.00347104 -0.00731837
v -0.01282514 -0.00573467 0.00258440
v -0.01305393 0.00636739 0.00640504
v -0.00962399 0.00617865 0.01812710
v -0.00454677 0.00546341 0.01581256
v -0.01158672 0.00534182 -0.00251446
v -0.01328723 0.00678286 0.01168733
v -0.01130356 -0.00603130 0.01873226
v -0.00774738 0.00567686 0.01813729
v -0.00793580 -0.00416582 0.01949868
v -0.00916910 -0.00550520 0.01913966
v -0.01527345 -0.00578557 0.01229535
v -0.01482206 -0.00482354 0.00746682
v -0.01266661 -0.00299859 -0.00232094
v -0.01270214 0.00256271 -0.00233113
v -0.01112740 0.00509827 0.02024070
v -0.00691352 0.00481264 0.01838003
v -0.01424067 -0.00593171 0.01859306
v -0.01530575 0.00574972 0.01234691
v -0.01594286 0.00406782 0.01065472
v -0.01410878 0.00606719 0.01804774
v -0.00665458 -0.00001337 0.01890965
v -0.01513106 -0.00500534 0.02053840
v -0.01690269 -0.00450279 0.01520995
v -0.01756322 -0.00287045 0.01523287
v -0.01791528 0.00185018 0.01589489
v -0.01546173 0.00595154 0.01601881
v -0.01447753 0.00511969 0.02038817
v -0.00725455 0.00343003 0.01916915
v -0.00893015 -0.00163037 0.02049776
v -0.01009112 -0.00309644 0.02098993
v -0.01323777 -0.00428625 0.02152888
v -0.01714359 -0.00464715 0.01832062
v -0.01894995 -0.00073053 0.02016070
v -0.01716318 0.00425040 0.01589622
v -0.01847299 0.00258047 0.01973293
v -0.00970258 0.00370292 0.02067504
v -0.01158659 -0.00396434 0.02130991
v -0.01592321 -0.00548204 0.01855911
v -0.01819380 -0.00315241 0.01867412
v -0.01799603 -0.00070197 0.01589150
v -0.01240686 0.00373988 0.02167444
v -0.01453433 0.00383599 0.02193331
v -0.00936774 0.00153136 0.02083631
v -0.01611216 0.00518328 0.01932829
v -0.01690888 0.00382760 0.02119151
v -0.01716890 -0.00398634 0.02081763
v -0.01593317 0.00291512 0.02241328
v -0.01230492 0.00019574 0.02230782
v -0.01563763 -0.00320105 0.02228766
v -0.01834406 -0.00265622 0.02088808
v -0.01860004 -0.00082954 0.02171518
v -0.01408886 -0.00191281 0.02271968
v -0.01778555 -0.00217895 0.02213998
v -0.01851256 0.00209760 0.02109984
v -0.01430150 0.00119989 0.02283638
v -0.01785553 0.00134473 0.02243153
v -0.01642089 -0.00027680 0.02300486
v -0.00390477 0.00358131 0.01121711
v -0.00390477 0.00358131 0.01115250
v -0.00396073 0.00358131 0.01121711
v -0.00390477 0.00291560 0.01121711
v -0.00391040 0.00358131 0.01115900
v -0.00390477 0.00291560 0.01115250
v -0.00396073 0.00291560 0.01121711
v -0.00391040 0.00291560 0.01115900
f 1 2 3
f 2 1 5
f 2 5 6
f 3 8 9
f 3 9 1
f 1 4 5
f 7 6 10
f 7 10 11
f 7 11 12
f 7 12 13
f 5 10 6
f 8 14 15
f 8 15 16
f 8 16 9
f 9 16 17
f 9 17 1
f 7 21 6
f 6 22 2
f 17 18 1
f 1 18 4
f 5 4 20
f 20 10 5
f 13 12 26
f 13 27 7
f 6 21 22
f 2 22 23
f 2 23 3
f 3 28 8
f 8 29 14
f 14 30 31
f 14 31 15
f 4 18 19
f 4 19 34
f 20 4 34
f 12 11 24
f 12 24 25
f 12 25 26
f 13 26 35
f 27 21 7
f 3 23 28
f 8 28 29
f 31 32 15
f 15 32 16
f 16 33 17
f 13 35 27
f 27 36 21
f 21 36 37
f 19 39 34
f 20 34 40
f 25 41 26
f 36 27 35
f 22 21 42
f 22 42 23
f 29 44 30
f 29 30 14
f 29 28 43
f 31 30 45
f 32 33 16
f 33 38 17
f 34 46 40
f 11 10 24
f 10 40 24
f 36 48 37
f 23 42 49
f 23 43 28
f 29 43 50
f 17 38 18
f 38 19 18
f 34 51 46
f 40 10 20
f 26 41 47
f 26 47 35
f 35 52 36
f 48 53 37
f 21 37 42
f 49 42 54
f 23 49 43
f 45 56 32
f 45 32 31
f 32 57 33
f 33 57 38
f 34 39 51
f 24 58 25
f 53 60 37
f 42 37 54
f 50 43 62
f 29 50 44
f 38 64 39
f 38 39 19
f 46 58 40
f 25 58 59
f 47 41 65
f 53 66 60
f 60 54 37
f 43 49 61
f 50 62 67
f 45 63 56
f 56 57 32
f 39 68 51
f 51 68 69
f 40 58 24
f 25 65 41
f 48 52 71
f 60 72 54
f 49 54 61
f 61 62 43
f 30 44 45
f 50 67 74
f 44 50 55
f 55 45 44
f 63 75 56
f 57 56 76
f 57 64 38
f 39 64 68
f 46 51 58
f 25 59 65
f 65 70 47
f 35 47 52
f 36 52 48
f 48 71 53
f 60 66 72
f 67 62 77
f 62 61 77
f 50 78 55
f 57 76 64
f 54 72 61
f 55 63 45
f 56 75 80
f 64 76 68
f 51 69 59
f 51 59 58
f 65 59 82
f 65 79 70
f 73 53 83
f 71 83 53
f 66 53 73
f 61 86 77
f 50 74 78
f 75 87 80
f 56 80 76
f 76 80 88
f 79 89 70
f 65 82 79
f 47 70 52
f 66 73 84
f 66 84 85
f 85 72 66
f 72 85 86
f 77 74 67
f 74 77 90
f 77 86 91
f 61 72 86
f 78 74 90
f 63 55 92
f 75 63 92
f 76 88 68
f 59 69 81
f 79 94 89
f 83 84 73
f 86 97 91
f 77 91 90
f 75 99 87
f 80 87 88
f 68 100 93
f 68 93 69
f 69 101 81
f 79 82 103
f 71 52 70
f 83 104 95
f 83 95 84
f 84 95 96
f 84 96 85
f 97 107 91
f 90 98 78
f 98 55 78
f 75 92 99
f 87 108 88
f 68 88 100
f 69 93 101
f 59 81 82
f 82 81 109
f 82 109 103
f 103 94 79
f 70 110 71
f 71 110 83
f 83 110 104
f 85 96 112
f 105 112 96
f 85 112 86
f 91 106 90
f 86 112 97
f 55 98 92
f 87 113 108
f 87 99 114
f 88 108 100
f 93 115 101
f 81 101 102
f 81 102 109
f 95 104 111
f 95 111 96
f 96 111 105
f 90 116 98
f 99 117 114
f 87 114 113
f 93 100 115
f 89 94 110
f 89 110 70
f 112 105 97
f 107 106 91
f 106 116 90
f 92 98 116
f 92 116 99
f 99 116 117
f 100 108 115
f 94 118 110
f 106 107 116
f 117 119 114
f 101 120 102
f 94 121 118
f 109 121 103
f 103 121 94
f 105 111 122
f 105 122 123
f 97 105 107
f 113 114 119
f 115 108 113
f 101 115 120
f 118 121 125
f 110 118 104
f 111 104 122
f 113 119 127
f 117 128 119
f 115 113 120
f 102 120 124
f 102 124 109
f 109 124 121
f 118 125 122
f 104 118 122
f 105 126 107
f 107 117 116
f 126 128 117
f 119 129 127
f 122 125 123
f 121 124 129
f 105 123 126
f 107 126 117
f 113 127 120
f 128 129 119
f 129 125 121
f 120 127 124
f 125 129 128
f 123 125 128
f 123 128 126
f 127 129 124
f 130 131 134
f 130 134 132
f 130 132 136
f 130 136 133
f 130 133 135
f 130 135 131
f 131 135 137
f 131 137 134
f 132 134 137
f 132 137 136
f 133 136 137
f 133 137 135

