# https://github.com/mikedh/trimesh
v -0.00893215 0.00849912 0.00299962
v -0.00782117 0.00849080 0.00261692
v -0.00724162 0.00849080 0.00189641
v -0.00700094 0.00849412 0.00100018
v -0.00899761 0.00849912 -0.00299871
v -0.01003157 0.00836101 0.00300092
v -0.00445359 0.00660885 0.00888210
v -0.00249542 0.00668123 0.00896379
v -0.00041451 0.00670536 0.00875161
v 0.00086831 0.00676359 0.00816876
v 0.00086831 0.00679854 0.00777304
v -0.00700094 0.00849246 -0.00299871
v 0.00086831 0.00679854 0.00000046
v -0.01003157 0.00836101 -0.00299871
v -0.00213344 0.00679854 -0.00300001
v -0.00296138 0.00631099 0.00958015
v -0.00164630 0.00654353 0.00927132
v 0.00086831 0.00652565 0.00884305
v 0.00086928 -0.00568373 0.00965728
v 0.00076626 0.00679854 -0.00077537
v 0.00048515 0.00679854 -0.00146528
v -0.00001161 0.00679854 -0.00212135
v -0.00066722 0.00679854 -0.00261666
v -0.00135556 0.00679854 -0.00289718
v 0.00086831 -0.00679776 0.00000046
v -0.00213344 -0.00679776 -0.00300001
v -0.01182800 -0.00732524 -0.00299871
v -0.01099814 0.00796165 0.00300092
v -0.00773453 0.00631765 0.00783161
v -0.00638576 0.00647906 0.00839266
v -0.00496046 0.00617663 0.00933657
v 0.00086831 0.00621282 0.00925765
v 0.00086831 0.00515287 0.00985058
v 0.00086831 -0.00515209 0.00985058
v -0.00001089 -0.00581539 0.00979909
v 0.00086831 -0.00628526 0.00915839
v 0.00086831 -0.00676947 0.00813622
v 0.00086831 -0.00679776 0.00777824
v 0.00080285 -0.00679776 -0.00062177
v 0.00050441 -0.00679776 -0.00143014
v -0.00070092 -0.00679776 -0.00263423
v -0.00033701 -0.00540169 -0.00240252
v -0.00109563 -0.00567624 -0.00281387
v -0.00151152 -0.00679776 -0.00293363
v -0.00700094 -0.00850000 -0.00299871
v -0.01182800 0.00732602 -0.00299741
v -0.01099814 0.00796165 -0.00299741
v -0.00899954 -0.00850000 -0.00299871
v -0.01003350 -0.00836189 -0.00299871
v -0.01100007 -0.00796087 -0.00299871
v -0.01293031 -0.00501648 -0.00299741
v -0.01293031 0.00501809 -0.00299741
v -0.01880000 0.00248886 -0.00020392
v -0.01879808 0.00242063 0.00061487
v -0.01182800 0.00732602 0.00300092
v -0.00851385 0.00617663 0.00739554
v -0.00343888 0.00602396 0.00980795
v -0.00108673 0.00617081 0.00970382
v -0.00004049 0.00580265 0.00982878
v 0.00001920 0.00515287 0.01007058
v -0.00054724 -0.00638697 0.00937920
v -0.00112644 -0.00669127 0.00891465
v -0.00839110 -0.00850000 0.00290460
v -0.00727435 -0.00850000 0.00196410
v -0.00700286 -0.00850000 0.00106852
v -0.00001161 -0.00679776 -0.00212005
v -0.01880000 -0.00000044 -0.00249885
v -0.01880000 0.00040889 -0.00246370
v -0.01879808 0.00118763 -0.00219685
v -0.01879808 0.00183658 -0.00169048
v -0.01879808 0.00228585 -0.00100317
v -0.00899954 -0.00850000 0.00300092
v -0.01003350 -0.00836189 0.00300092
v -0.01100007 -0.00796087 0.00299962
v -0.01880000 -0.00248974 -0.00020392
v -0.01879615 -0.00228674 -0.00100187
v -0.01879615 -0.00184079 -0.00169048
v -0.01879615 -0.00119018 -0.00219685
v -0.01880000 -0.00041144 -0.00246370
v -0.01880000 0.00153207 0.00197387
v -0.01879808 0.00209117 0.00136726
v -0.00887824 0.00591830 0.00736039
v -0.00734752 0.00597113 0.00845367
v -0.00575109 0.00586047 0.00933038
v -0.00415900 0.00565185 0.00990916
v -0.00191779 0.00602396 0.00989647
v -0.00068262 -0.00515209 0.01018838
v -0.00486226 -0.00662346 0.00869889
v -0.00268219 -0.00667463 0.00898169
v -0.00620670 -0.00646164 0.00848768
v -0.00712585 -0.00629961 0.00823612
v -0.01182800 -0.00732524 0.00299962
v -0.01879615 -0.00241985 0.00061487
v -0.00881855 -0.00599406 0.00734347
v -0.01879615 -0.00209039 0.00136856
v -0.01880000 -0.00153462 0.00197387
v -0.01880000 0.00080825 0.00236438
v -0.00850855 0.00568701 0.00785895
v -0.00254163 0.00556304 0.01015974
v -0.00128240 0.00556304 0.01013241
v -0.00673138 0.00556304 0.00906662
v -0.00156110 -0.00555228 0.01014608
v -0.00157603 -0.00604689 0.00985124
v -0.00248916 -0.00648785 0.00937139
v -0.00834297 -0.00576152 0.00791330
v -0.01880000 -0.00081080 0.00236438
v -0.00808111 0.00543907 0.00831455
v -0.01880000 -0.00000044 0.00250106
v -0.00758049 0.00506302 0.00875454
v -0.00604592 0.00515287 0.00952385
v -0.00097433 0.00516452 0.01023069
v -0.00191298 -0.00515209 0.01029187
v -0.00418692 -0.00621204 0.00951865
v -0.00573737 -0.00621204 0.00903668
v -0.00640887 -0.00582101 0.00907606
v -0.00798869 -0.00533014 0.00841999
v -0.00758242 -0.00506224 0.00875323
v -0.00674871 0.00516618 0.00919712
v -0.00520643 0.00516702 0.00982390
v -0.00409546 0.00516286 0.01010702
v -0.00306150 0.00515287 0.01025542
v -0.00202562 0.00515287 0.01029838
v -0.00274958 -0.00515209 0.01027755
v -0.00303214 -0.00601653 0.00984928
v -0.00447958 -0.00576152 0.00978794
v -0.00699516 -0.00515043 0.00907606
v -0.00490607 -0.00515209 0.00991567
v -0.00601608 -0.00515209 0.00953231
v -0.00353323 -0.00515209 0.01020075
f 1 2 3
f 1 3 4
f 1 4 5
f 1 5 6
f 1 6 7
f 1 7 8
f 1 8 9
f 1 9 10
f 1 10 2
f 2 10 3
f 3 10 11
f 4 3 11
f 4 11 13
f 4 12 5
f 4 13 12
f 5 14 6
f 5 12 15
f 5 15 14
f 7 16 8
f 8 17 9
f 9 17 18
f 10 19 11
f 11 19 13
f 12 13 20
f 12 20 21
f 12 21 22
f 12 22 23
f 12 23 24
f 12 24 15
f 13 19 25
f 13 25 20
f 15 24 26
f 15 27 14
f 6 14 47
f 6 47 28
f 6 28 29
f 6 29 30
f 6 30 7
f 7 31 16
f 7 30 31
f 8 16 17
f 18 10 9
f 10 18 19
f 19 18 32
f 19 32 33
f 19 33 34
f 19 35 36
f 19 36 37
f 19 37 38
f 19 38 25
f 20 39 21
f 21 40 22
f 23 22 42
f 23 42 41
f 24 23 43
f 24 43 44
f 25 38 65
f 25 65 45
f 25 45 39
f 25 39 20
f 14 46 47
f 24 44 26
f 26 44 45
f 26 45 48
f 26 48 49
f 26 49 50
f 26 50 27
f 26 27 15
f 27 51 52
f 27 52 14
f 14 52 46
f 28 47 53
f 28 53 54
f 28 54 55
f 28 55 56
f 28 56 29
f 16 31 57
f 17 16 58
f 17 58 18
f 18 58 32
f 32 59 33
f 33 59 60
f 33 60 34
f 34 35 19
f 36 35 61
f 36 61 62
f 36 62 37
f 37 63 64
f 37 64 38
f 38 64 65
f 39 45 40
f 39 40 21
f 40 66 22
f 22 66 42
f 41 43 23
f 41 42 66
f 41 66 45
f 44 43 41
f 44 41 45
f 45 65 64
f 45 64 63
f 45 63 72
f 45 72 48
f 45 66 40
f 46 52 67
f 46 67 68
f 46 68 69
f 46 69 70
f 46 70 71
f 46 71 53
f 46 53 47
f 48 72 73
f 48 73 49
f 49 73 74
f 49 74 50
f 50 74 75
f 50 75 27
f 27 75 76
f 27 76 77
f 27 77 78
f 27 78 79
f 27 79 67
f 27 67 51
f 51 67 52
f 53 71 70
f 53 70 68
f 53 68 67
f 53 67 79
f 53 79 75
f 53 75 96
f 53 96 106
f 53 106 108
f 53 108 97
f 53 97 80
f 53 80 81
f 53 81 54
f 54 81 55
f 55 81 80
f 55 80 82
f 55 82 56
f 56 82 29
f 29 83 30
f 31 84 85
f 31 85 57
f 16 57 86
f 30 83 84
f 30 84 31
f 58 16 86
f 32 58 59
f 35 34 87
f 63 37 62
f 63 62 72
f 68 70 69
f 72 88 73
f 72 62 89
f 72 89 88
f 73 88 90
f 73 90 91
f 73 91 74
f 74 92 93
f 74 93 75
f 74 91 94
f 74 94 92
f 75 93 95
f 75 95 96
f 75 79 77
f 75 77 76
f 77 79 78
f 80 97 98
f 80 98 82
f 82 98 83
f 82 83 29
f 57 85 99
f 57 99 86
f 86 99 100
f 83 101 84
f 59 58 100
f 59 100 60
f 60 87 34
f 87 102 35
f 35 102 103
f 35 103 61
f 62 61 104
f 62 104 89
f 89 104 88
f 92 96 95
f 92 95 93
f 92 94 96
f 94 91 105
f 96 94 105
f 96 105 106
f 97 107 98
f 97 108 109
f 97 109 107
f 98 107 83
f 83 107 101
f 84 110 85
f 84 101 110
f 100 58 86
f 100 111 60
f 60 111 87
f 102 87 112
f 88 113 90
f 104 113 88
f 90 113 114
f 90 114 91
f 91 115 105
f 91 114 115
f 105 115 116
f 106 105 116
f 106 116 117
f 106 117 108
f 108 117 109
f 109 118 107
f 107 118 101
f 110 119 85
f 85 119 120
f 85 120 121
f 85 121 99
f 99 121 122
f 99 122 100
f 100 122 111
f 101 118 110
f 111 122 112
f 111 112 87
f 102 112 123
f 102 123 124
f 102 124 103
f 103 104 61
f 103 124 104
f 104 124 113
f 114 125 115
f 114 113 125
f 115 126 116
f 117 116 126
f 117 126 109
f 109 126 118
f 119 110 128
f 119 128 127
f 119 127 120
f 110 118 128
f 120 129 121
f 120 127 129
f 121 129 123
f 121 123 122
f 122 123 112
f 118 126 128
f 124 125 113
f 125 128 115
f 115 128 126
f 123 129 125
f 123 125 124
f 125 127 128
f 125 129 127

