# https://github.com/mikedh/trimesh
v 0.01116733 -0.00448424 0.00817514
v 0.01113239 0.00479393 0.00817514
v 0.01113458 -0.00479340 0.00817514
v 0.01110400 -0.00475218 0.00737241
v 0.01110619 0.00475271 0.00738283
v 0.00879570 0.00422027 0.03085517
v 0.00879789 -0.00448253 0.03085517
v 0.00872473 -0.00527431 0.03085517
v 0.00840698 -0.00616915 0.03138164
v 0.00794729 -0.00686734 0.03197327
v 0.00746139 -0.00741781 0.02084697
v 0.00494017 -0.00860291 0.00052566
v 0.00745156 -0.00741867 0.03158493
v 0.00494781 0.00860344 0.00078368
v 0.00727686 0.00731271 0.02214752
v 0.00702899 0.00748532 0.03138164
v 0.00773109 0.00689277 0.03190811
v 0.00848779 0.00584850 0.03123047
v 0.00643936 -0.00797945 0.03270043
v 0.00450668 -0.00876780 0.00078889
v 0.00690233 -0.00748866 0.03372340
v 0.01058862 -0.00476420 0.00631425
v 0.00434726 -0.00854108 -0.00229176
v 0.01058644 0.00476645 0.00631425
v 0.00405791 0.00852615 -0.00276350
v 0.00483098 0.00852529 -0.00100164
v 0.00450450 0.00876832 0.00078368
v 0.00585628 0.00792415 0.03416517
v 0.00688268 0.00738398 0.03374816
v 0.00361459 -0.00862524 -0.00307104
v 0.00406992 -0.00817525 -0.00290684
v 0.00393670 0.00817749 -0.00309189
v 0.00371395 0.00876832 -0.00211713
v 0.00213723 0.00836470 0.03665679
v 0.00345189 0.00827711 0.03612510
v 0.00790907 0.00527398 0.03292978
v 0.00791017 -0.00553710 0.03293239
v 0.00682590 -0.00712239 0.03419644
v 0.00382314 -0.00845864 0.03611989
v 0.00187299 -0.00858230 0.03664637
v 0.00268101 -0.00845521 -0.00423084
v 0.00240148 0.00833550 0.03718326
v -0.00498420 0.00876832 0.00289478
v -0.00683608 0.00872796 0.00342647
v 0.00531251 0.00792158 0.03535364
v 0.00739588 0.00633113 0.03356441
v 0.00563790 -0.00796914 0.03515296
v 0.00273123 -0.00846551 0.03748559
v -0.00710033 -0.00871455 0.00342125
v -0.00472215 -0.00876952 0.00264718
v 0.00127763 -0.00874440 -0.00422563
v 0.00267882 0.00831661 -0.00423866
v 0.00187081 0.00876489 -0.00396500
v -0.00254488 0.00792501 0.04116048
v -0.00041565 0.00795077 0.04013881
v -0.00366627 0.00875544 -0.00238298
v 0.00322478 0.00794219 0.03747517
v 0.00624609 0.00732301 0.03472031
v -0.00214961 -0.00448424 0.04632616
v -0.00247936 -0.00490848 0.04652945
v -0.00250775 -0.00793307 0.04116048
v -0.00446227 -0.00777849 0.04139504
v -0.00393160 -0.00876608 -0.00184868
v 0.00176708 -0.00831608 -0.00470258
v 0.00163496 0.00831747 -0.00476513
v -0.00446227 0.00775154 0.04140026
v -0.00696711 0.00692197 0.04368338
v -0.00762663 0.00863436 0.00342647
v -0.00324588 0.00526711 0.04657897
v -0.00428101 0.00527656 0.04695167
v -0.00181985 0.00876489 -0.00396500
v -0.00843027 0.00844714 0.00314499
v -0.00247936 0.00490729 0.04653466
v -0.00215397 0.00448305 0.04633138
v -0.00411504 -0.00527431 0.04694646
v -0.00698786 -0.00693003 0.04368598
v -0.00842809 -0.00844662 0.00314499
v -0.00049973 -0.00857200 -0.00485896
v 0.00028972 -0.00817525 -0.00501794
v 0.00028754 0.00817749 -0.00501273
v 0.00002548 0.00857253 -0.00486287
v -0.00551924 0.00754543 0.04192673
v -0.00789524 0.00633457 0.04430889
v -0.00373943 0.00851585 -0.00324566
v -0.00925685 0.00793961 0.00342647
v -0.00408010 0.00289948 0.04809845
v -0.00408665 -0.00289895 0.04809845
v -0.00790834 -0.00634434 0.04432452
v -0.00551706 -0.00757067 0.04192673
v -0.00374379 -0.00851704 -0.00324045
v -0.00925903 -0.00794166 0.00342125
v -0.00995895 0.00734105 0.00342647
v -0.00840188 0.00577808 0.04403262
v -0.00898715 0.00482828 0.04435059
v -0.00538603 0.00486091 0.04702465
v -0.00419148 0.00369470 0.04800462
v -0.00988907 0.00728265 0.00303552
v -0.00323933 0.00817749 -0.00379298
v -0.01106178 0.00529545 0.00314499
v -0.01059007 0.00643934 0.00307201
v -0.00445790 -0.00237166 0.04820791
v -0.00419366 -0.00369246 0.04799941
v -0.00538603 -0.00485523 0.04701944
v -0.00842154 -0.00580675 0.04430367
v -0.00996550 -0.00734739 0.00342125
v -0.00605100 -0.00340047 0.04746772
v -0.00989343 -0.00728556 0.00303031
v -0.01059226 -0.00644568 0.00306158
v -0.01106178 -0.00529149 0.00314499
v -0.00629231 0.00308669 0.04744687
v -0.00264970 0.00832520 -0.00425169
v -0.01110109 0.00447962 0.00309286
v -0.01113330 0.00408415 0.00382132
v -0.00528448 0.00257229 0.04803720
v -0.00539504 -0.00257240 0.04800332
v -0.00899152 -0.00483634 0.04435059
v -0.01057533 -0.00649978 0.00342125
v -0.00294998 -0.00817525 -0.00401713
v -0.00157089 -0.00845349 -0.00476253
v -0.01113439 -0.00408534 0.00382002
v -0.00157089 0.00845401 -0.00475732
v -0.00927814 0.00412666 0.04403262
v -0.00949598 0.00330310 0.04433495
v -0.01109890 -0.00455810 0.00308765
v -0.00949598 -0.00330601 0.04432974
v -0.00928469 -0.00412528 0.04403262
v -0.00636875 0.00184319 0.04751464
v -0.00957678 -0.00236823 0.04403262
v -0.00649541 -0.00210373 0.04738432
v -0.00128830 0.00479880 0.02665780
v -0.00074978 0.00479880 0.02658751
v -0.00180974 0.00479880 0.02654384
v -0.00164162 -0.00342713 0.02535714
v -0.00129523 -0.00342713 0.02540354
v -0.00075347 -0.00342713 0.02535850
v 0.00025244 0.00479880 0.02619581
v -0.00074609 -0.00342713 0.02535714
v -0.00029393 -0.00342713 0.02519541
v -0.00286784 0.00479880 0.02607025
v -0.00190534 -0.00342713 0.02523908
v 0.00025244 0.00479880 0.01992042
v -0.00028423 -0.00342713 0.02519131
v -0.00027961 -0.00342713 0.02518859
v 0.00018363 -0.00342713 0.02490129
v 0.00025244 -0.00342713 0.02484056
v -0.00385298 0.00479880 0.02540081
v -0.00267156 -0.00342713 0.02484192
v -0.00235011 -0.00342713 0.02502958
v 0.00024783 0.00479880 0.01991224
v 0.00025244 -0.00342713 0.02142854
v -0.00446586 0.00479880 0.02455668
v -0.00292280 -0.00342713 0.02452392
v -0.00023666 0.00479880 0.01976074
v -0.00010734 -0.00342713 0.02117468
v -0.00037198 -0.00342713 0.02101705
v -0.00446586 0.00479880 0.02163531
v -0.00446586 0.00471184 0.02447820
v -0.00342022 -0.00342713 0.02346893
v -0.00341976 -0.00342713 0.02347097
v -0.00325996 -0.00342713 0.02397459
v -0.00312925 -0.00342713 0.02423800
v -0.00076779 0.00479880 0.01969660
v -0.00076733 -0.00342713 0.02091059
v -0.00077056 -0.00342713 0.02090991
v -0.00446586 0.00443082 0.02228564
v -0.00385714 0.00479880 0.02090650
v -0.00273899 -0.00342713 0.02149746
v -0.00300317 -0.00342713 0.02182774
v -0.00318560 -0.00342713 0.02209320
v -0.00331630 -0.00342713 0.02241393
v -0.00331723 -0.00342713 0.02241734
v -0.00343362 -0.00342713 0.02294211
v -0.00446586 0.00451295 0.02416020
v -0.00446586 0.00443082 0.02402577
v -0.00129523 0.00479880 0.01968636
v -0.00129523 -0.00342713 0.02088057
v -0.00446586 0.00440747 0.02238186
v -0.00332508 0.00479880 0.02038378
v -0.00238059 -0.00342713 0.02123337
v -0.00446586 0.00440103 0.02384971
v -0.00446586 0.00433903 0.02346824
v -0.00446586 0.00432534 0.02294211
v -0.00446586 0.00434950 0.02277287
v -0.00172014 0.00479880 0.01970547
v -0.00182451 -0.00342713 0.02096587
v -0.00182313 0.00479880 0.01971775
v -0.00325257 0.00479880 0.02034147
v -0.00211825 -0.00342713 0.02107300
v -0.00230900 0.00479880 0.01983444
v -0.00223926 0.00479880 0.01981670
v 0.00025244 -0.00484387 0.02620830
v 0.00025244 -0.00484387 0.01998398
v 0.00029126 -0.00484387 0.02619916
v 0.00025244 0.00359502 0.02492761
v 0.00025244 0.00359502 0.02136703
v 0.00030049 0.00359502 0.02139201
v 0.00079590 -0.00484387 0.02033309
v 0.00078478 -0.00484387 0.02602613
v 0.00059048 0.00359502 0.02461323
v 0.00044192 0.00359502 0.02150289
v 0.00134020 -0.00484387 0.02083209
v 0.00130243 -0.00484387 0.02553810
v 0.00071365 0.00359502 0.02445543
v 0.00239607 -0.00484387 0.02436526
v 0.00075751 0.00359502 0.02187699
v 0.00239607 -0.00484387 0.02204332
v 0.00180875 -0.00484387 0.02136154
v 0.00116562 0.00359502 0.02356102
v 0.00239607 -0.00464067 0.02351471
v 0.00122438 0.00359502 0.02318388
v 0.00120214 0.00359502 0.02340809
v 0.00091509 0.00359502 0.02219259
v 0.00239607 -0.00453906 0.02294139
v 0.00118388 0.00359502 0.02277384
v 0.00121850 0.00359502 0.02294992
f 1 3 4
f 2 1 5
f 1 2 6
f 1 6 7
f 1 7 8
f 1 8 3
f 3 8 9
f 3 9 10
f 3 11 12
f 3 12 4
f 3 10 13
f 3 13 11
f 1 4 5
f 5 14 2
f 2 14 15
f 2 15 16
f 2 16 17
f 2 17 18
f 2 18 6
f 8 7 9
f 11 13 19
f 13 21 19
f 4 12 23
f 4 23 22
f 12 20 23
f 5 24 25
f 5 25 26
f 5 26 14
f 14 27 28
f 14 28 16
f 14 16 15
f 17 29 18
f 10 21 13
f 12 11 19
f 12 19 20
f 22 23 31
f 22 24 5
f 22 5 4
f 23 30 31
f 20 30 23
f 24 32 25
f 26 25 14
f 14 25 33
f 14 33 27
f 27 34 35
f 27 35 28
f 18 29 36
f 6 18 36
f 9 7 37
f 9 37 38
f 9 38 21
f 9 21 10
f 20 19 39
f 20 39 40
f 20 50 63
f 20 63 51
f 20 51 30
f 22 31 32
f 22 32 24
f 30 41 31
f 33 53 71
f 33 71 56
f 33 56 43
f 33 43 27
f 34 42 35
f 34 27 43
f 34 43 44
f 35 45 28
f 16 28 29
f 16 29 17
f 29 46 36
f 6 36 37
f 6 37 7
f 21 38 47
f 21 47 19
f 39 48 40
f 40 49 50
f 40 50 20
f 19 47 39
f 31 41 32
f 32 41 52
f 32 52 25
f 25 53 33
f 34 54 42
f 34 44 54
f 42 54 55
f 43 56 44
f 42 55 57
f 42 57 45
f 42 45 35
f 28 45 29
f 29 58 46
f 37 36 59
f 37 59 38
f 38 59 60
f 38 60 47
f 39 47 48
f 40 48 61
f 40 62 49
f 49 63 50
f 30 51 41
f 25 52 53
f 52 65 53
f 54 66 67
f 44 56 68
f 44 68 66
f 44 66 54
f 55 54 69
f 54 67 70
f 54 70 69
f 56 72 68
f 55 69 57
f 45 58 29
f 58 73 74
f 58 74 46
f 46 74 36
f 36 74 59
f 40 61 62
f 48 60 75
f 48 75 61
f 61 75 76
f 61 76 62
f 63 49 77
f 51 78 41
f 41 78 64
f 64 78 79
f 64 52 41
f 52 64 65
f 65 80 81
f 65 81 53
f 66 68 82
f 66 82 67
f 67 83 70
f 68 72 82
f 69 70 73
f 69 73 57
f 72 56 84
f 57 73 45
f 45 73 58
f 60 48 47
f 74 86 87
f 74 87 59
f 76 75 88
f 76 89 62
f 62 89 49
f 49 89 77
f 63 77 90
f 51 63 78
f 64 79 65
f 65 79 80
f 67 82 72
f 83 67 85
f 83 85 92
f 83 92 93
f 83 93 94
f 83 95 70
f 72 85 67
f 70 96 73
f 56 71 84
f 72 97 85
f 72 84 97
f 84 98 99
f 84 99 100
f 84 100 97
f 74 73 86
f 86 101 87
f 87 101 102
f 87 102 60
f 87 60 59
f 60 102 75
f 88 75 103
f 88 104 105
f 88 105 91
f 88 91 76
f 88 103 106
f 88 106 104
f 76 77 89
f 77 76 91
f 63 90 78
f 77 91 107
f 77 107 90
f 90 107 108
f 90 108 109
f 53 81 71
f 85 97 92
f 94 110 95
f 94 95 83
f 95 96 70
f 73 96 86
f 84 71 111
f 84 111 98
f 99 112 113
f 99 98 112
f 100 92 97
f 86 96 114
f 86 114 101
f 102 103 75
f 104 116 117
f 104 117 105
f 105 117 107
f 105 107 91
f 90 109 118
f 90 118 119
f 90 119 78
f 107 117 108
f 108 117 109
f 79 78 119
f 79 119 80
f 81 121 71
f 93 92 94
f 92 100 94
f 94 122 123
f 95 110 114
f 71 121 111
f 98 124 112
f 113 112 120
f 113 123 99
f 99 123 122
f 99 122 100
f 100 122 94
f 114 115 101
f 101 115 102
f 106 103 115
f 104 106 116
f 116 125 126
f 118 109 124
f 118 124 98
f 118 98 111
f 117 116 126
f 117 126 109
f 109 126 125
f 109 125 120
f 120 124 109
f 119 121 80
f 80 121 81
f 123 127 110
f 123 110 94
f 95 114 96
f 111 121 119
f 112 124 120
f 113 120 128
f 103 102 115
f 106 125 116
f 125 106 129
f 125 128 120
f 111 119 118
f 128 125 123
f 128 123 113
f 114 127 115
f 106 115 129
f 127 123 129
f 110 127 114
f 125 129 123
f 115 127 129
f 130 131 136
f 130 136 141
f 130 141 149
f 130 149 153
f 130 153 162
f 130 162 175
f 130 175 184
f 130 184 186
f 130 186 190
f 130 190 189
f 130 189 187
f 130 187 178
f 130 178 166
f 130 166 156
f 130 156 151
f 130 151 146
f 130 146 139
f 130 139 132
f 130 132 133
f 130 133 134
f 130 134 135
f 130 135 131
f 131 135 137
f 131 137 138
f 131 138 136
f 132 139 133
f 133 140 148
f 133 148 147
f 133 147 152
f 133 152 161
f 133 161 160
f 133 160 159
f 133 159 158
f 133 158 172
f 133 172 171
f 133 171 170
f 133 170 169
f 133 169 168
f 133 168 167
f 133 167 179
f 133 179 188
f 133 188 185
f 133 185 176
f 133 176 164
f 133 164 163
f 133 163 155
f 133 155 154
f 133 154 150
f 133 150 145
f 133 145 144
f 133 144 143
f 133 143 142
f 133 142 138
f 133 138 137
f 133 137 135
f 133 135 134
f 133 139 140
f 136 138 142
f 136 142 143
f 136 143 144
f 136 144 145
f 136 145 150
f 136 150 141
f 139 146 147
f 139 147 148
f 139 148 140
f 141 150 149
f 146 151 152
f 146 152 147
f 149 150 154
f 149 154 155
f 149 155 153
f 151 156 165
f 151 165 177
f 151 177 183
f 151 183 182
f 151 182 181
f 151 181 180
f 151 180 174
f 151 174 173
f 151 173 157
f 151 157 158
f 151 158 159
f 151 159 160
f 151 160 161
f 151 161 152
f 153 155 163
f 153 163 164
f 153 164 162
f 156 166 167
f 156 167 168
f 156 168 169
f 156 169 170
f 156 170 171
f 156 171 172
f 156 172 165
f 157 173 158
f 158 173 174
f 158 174 172
f 162 164 176
f 162 176 175
f 165 172 177
f 166 178 167
f 167 178 179
f 172 174 180
f 172 180 181
f 172 181 182
f 172 182 183
f 172 183 177
f 175 176 184
f 176 185 186
f 176 186 184
f 178 187 188
f 178 188 179
f 185 188 189
f 185 189 190
f 185 190 186
f 187 189 188
f 191 192 197
f 191 197 201
f 191 201 207
f 191 207 206
f 191 206 204
f 191 204 202
f 191 202 198
f 191 198 193
f 191 193 194
f 191 194 195
f 191 195 192
f 192 195 196
f 192 196 197
f 193 198 194
f 194 199 203
f 194 203 208
f 194 208 211
f 194 211 210
f 194 210 215
f 194 215 214
f 194 214 212
f 194 212 205
f 194 205 200
f 194 200 196
f 194 196 195
f 194 198 199
f 196 200 197
f 197 200 201
f 198 202 199
f 199 202 204
f 199 204 203
f 200 205 206
f 200 206 207
f 200 207 201
f 203 204 208
f 204 206 213
f 204 213 209
f 204 209 210
f 204 210 211
f 204 211 208
f 205 212 206
f 206 212 214
f 206 214 215
f 206 215 213
f 209 213 210
f 210 213 215

