# https://github.com/mikedh/trimesh
v 0.00300420 0.00077299 0.00455052
v 0.00201031 -0.00345869 -0.01142971
v 0.00201031 0.00343505 -0.01142971
v 0.00269506 0.00001211 0.00575574
v 0.00292224 -0.00245049 0.00437908
v 0.00201031 -0.00449005 -0.01074732
v 0.00201247 0.00447104 -0.01075071
v 0.00234838 -0.00345097 0.00608845
v 0.00176053 -0.00487758 -0.01048930
v 0.00179498 0.00489254 -0.01022449
v 0.00235053 0.00514265 -0.00013796
v 0.00225148 -0.00529503 0.00360884
v 0.00119636 -0.00675271 0.00307540
v 0.00034365 -0.00725063 0.00297525
v -0.00263436 -0.00786049 0.00008950
v -0.00263436 0.00783530 0.00008271
v -0.00032172 0.00741882 0.00294724
v 0.00119098 0.00672520 0.00305757
v 0.00202108 0.00584978 0.00336227
v 0.00234623 0.00342733 0.00609185
v 0.00096731 0.00086765 0.00959145
v 0.00007288 -0.00490460 -0.01067433
v -0.00022697 -0.00361926 -0.01153496
v -0.00182903 0.00344431 -0.01143650
v 0.00102558 -0.00504105 0.00750183
v -0.00244487 -0.00723365 0.00920166
v -0.00367010 -0.00767985 0.00763997
v -0.00504068 -0.00785663 -0.00059968
v -0.00402647 0.00754350 0.00933237
v -0.00070447 0.00660150 0.00805967
v 0.00037892 -0.00205881 0.01055499
v -0.00130174 -0.00641497 0.00978348
v -0.00031526 0.00485123 -0.01078297
v -0.00757620 0.00756666 -0.00149257
v -0.00778507 0.00768554 0.00661128
v 0.00032589 0.00380424 0.01016627
v -0.00870345 -0.00760594 0.00559512
v -0.00839768 -0.00742356 -0.00166571
v -0.00083763 -0.00481028 0.01151705
v -0.00512224 -0.00714381 0.01251794
v -0.00281524 -0.00347259 -0.01119291
v -0.00419336 0.00484930 -0.00985104
v -0.00313312 0.00669606 0.01195628
v -0.00000733 0.00520750 0.00962604
v -0.00739372 -0.00742290 0.01164073
v -0.00528508 -0.00486214 -0.00940969
v -0.00494917 0.00337560 -0.01043668
v -0.01185454 0.00711978 0.01108939
v -0.00908566 0.00723780 -0.00185244
v -0.00692805 0.00685953 0.01502408
v -0.00108183 0.00090914 0.01297350
v -0.01040994 -0.00657438 -0.00218854
v -0.00913798 0.00729885 0.01232368
v -0.00251930 -0.00337928 0.01456337
v -0.00495886 -0.00618113 0.01516974
v -0.01099208 -0.00728677 0.01125967
v -0.01181235 -0.00678634 0.00437016
v -0.00728335 -0.00346950 -0.00903285
v -0.01018062 0.00669046 -0.00213252
v -0.00729788 0.00481765 -0.00792608
v -0.00327262 0.00540925 0.01435335
v -0.00171389 0.00368213 0.01349347
v -0.00302465 -0.00490711 0.01462898
v -0.00840199 -0.00656560 0.01652551
v -0.01248142 -0.00700457 0.01025326
v -0.01142630 -0.00555229 -0.00252125
v -0.00905767 0.00652449 0.01694055
v -0.00303649 0.00261337 0.01530650
v -0.00866254 0.00346129 -0.00766806
v -0.00605435 0.00575271 0.01687902
v -0.00490610 -0.00001337 0.01738360
v -0.01268725 -0.00666837 0.01603122
v -0.01454967 -0.00639876 0.01520656
v -0.01500402 -0.00568873 0.01047521
v -0.00899522 -0.00347104 -0.00731837
v -0.01184351 0.00492959 -0.00252464
v -0.01197809 0.00590189 0.00029999
v -0.01381311 0.00650239 0.01071286
v -0.00926385 0.00566895 0.01887039
v -0.00504068 -0.00423530 0.01707635
v -0.01161687 -0.00589630 0.01905712
v -0.01553965 -0.00587999 0.01402850
v -0.01226609 -0.00400679 -0.00260527
v -0.01335344 0.00664094 0.01536681
v -0.01292487 0.00615288 0.01816784
v -0.00887006 -0.00540214 0.01904412
v -0.01243513 0.00369057 -0.00253653
v -0.01495315 0.00531268 0.00930521
v -0.00919763 0.00417537 0.02017386
v -0.00589124 0.00481688 0.01761106
v -0.00793795 -0.00416582 0.01949868
v -0.01464939 -0.00592747 0.01822662
v -0.01482422 -0.00499492 0.00780972
v -0.01756322 -0.00287045 0.01523457
v -0.01263915 -0.00243351 -0.00249748
v -0.00584494 0.00291473 0.01814408
v -0.00741672 -0.00178273 0.01946780
v -0.01732908 -0.00395953 0.01581660
v -0.01770049 0.00283561 0.01576037
v -0.01272475 0.00221841 -0.00234131
v -0.01600611 0.00556275 0.01601531
v -0.01691507 -0.00484516 0.01922708
v -0.01844284 0.00258896 0.01891983
v -0.01823263 0.00129783 0.01691976
v -0.01252556 0.00446250 0.02118323
v -0.01584273 0.00548078 0.01878233
v -0.01448103 0.00520248 0.02023285
v -0.00998588 -0.00204424 0.02113167
v -0.01396289 -0.00442675 0.02149833
v -0.01595066 -0.00496221 0.02008771
v -0.01894995 -0.00073053 0.02016070
v -0.01799603 -0.00070197 0.01589150
v -0.01762782 0.00416842 0.01930516
v -0.00936774 0.00153136 0.02083631
v -0.01204753 -0.00402841 0.02145207
v -0.01656193 0.00411747 0.02121994
v -0.01499540 -0.00310822 0.02241158
v -0.01674846 -0.00349893 0.02173025
v -0.01838632 -0.00294514 0.01997652
v -0.01405434 0.00213574 0.02260860
v -0.01226448 0.00043361 0.02226857
v -0.01620771 0.00291165 0.02241158
v -0.01860327 -0.00155963 0.02154586
v -0.01825658 0.00307376 0.02050020
v -0.01782054 0.00193558 0.02217881
v -0.01408886 -0.00191281 0.02271968
v -0.01789375 -0.00110069 0.02245317
v -0.01860004 0.00071673 0.02171518
v -0.01642089 -0.00027680 0.02300486
f 1 2 3
f 2 1 5
f 2 5 6
f 3 7 1
f 5 1 8
f 7 10 11
f 7 11 1
f 1 4 8
f 5 8 12
f 9 6 12
f 9 12 13
f 9 13 14
f 9 14 15
f 6 5 12
f 10 16 17
f 10 17 18
f 10 18 19
f 10 19 11
f 11 19 1
f 9 15 22
f 9 22 6
f 6 23 2
f 19 20 1
f 12 25 13
f 15 28 22
f 6 22 23
f 24 7 3
f 2 23 24
f 2 24 3
f 16 29 17
f 17 30 18
f 1 20 4
f 4 20 21
f 4 21 31
f 13 32 14
f 14 32 26
f 14 27 15
f 14 26 27
f 7 33 10
f 10 33 16
f 16 33 34
f 17 29 30
f 20 36 21
f 4 31 8
f 28 15 37
f 28 38 22
f 12 8 25
f 7 24 33
f 16 35 29
f 8 39 25
f 13 25 32
f 26 40 27
f 23 41 24
f 23 22 41
f 34 35 16
f 34 33 42
f 29 43 30
f 19 30 44
f 19 18 30
f 8 31 39
f 38 46 22
f 24 41 47
f 34 42 49
f 19 44 20
f 20 44 36
f 21 51 31
f 32 25 39
f 27 40 45
f 27 45 15
f 15 45 37
f 28 37 38
f 38 52 46
f 22 46 41
f 24 42 33
f 24 47 42
f 34 48 35
f 29 35 53
f 50 29 53
f 29 50 43
f 31 51 54
f 31 54 39
f 26 32 55
f 26 55 40
f 41 46 58
f 41 58 47
f 49 42 60
f 49 60 59
f 34 49 48
f 43 61 30
f 36 44 62
f 44 61 62
f 36 62 21
f 21 62 51
f 54 63 39
f 45 40 64
f 37 56 65
f 38 57 52
f 52 66 46
f 46 66 58
f 61 44 30
f 62 68 51
f 51 68 54
f 32 39 63
f 40 55 64
f 45 56 37
f 38 37 57
f 47 58 69
f 47 69 42
f 42 69 60
f 35 48 53
f 50 53 67
f 50 70 43
f 43 70 61
f 68 71 54
f 32 63 55
f 64 72 45
f 56 73 65
f 37 65 57
f 52 57 74
f 52 74 66
f 58 66 75
f 59 60 76
f 59 76 77
f 60 69 76
f 50 79 70
f 62 61 68
f 63 54 80
f 63 80 55
f 65 82 57
f 66 83 75
f 75 69 58
f 48 84 53
f 49 78 48
f 49 59 78
f 50 67 79
f 55 80 86
f 55 86 64
f 64 81 72
f 56 45 72
f 56 72 73
f 66 74 83
f 69 87 76
f 59 77 78
f 53 84 67
f 70 90 61
f 61 90 68
f 71 80 54
f 80 91 86
f 64 86 81
f 81 92 72
f 82 74 57
f 83 74 93
f 83 93 94
f 75 83 95
f 69 95 87
f 69 75 95
f 77 88 78
f 67 84 85
f 85 79 67
f 70 79 89
f 89 90 70
f 68 90 96
f 80 71 97
f 65 73 82
f 74 82 98
f 83 94 95
f 77 76 88
f 87 100 99
f 68 96 71
f 71 96 97
f 82 73 102
f 82 102 98
f 74 98 93
f 93 98 94
f 87 99 88
f 87 88 76
f 95 100 87
f 100 104 99
f 78 101 48
f 79 105 89
f 85 107 79
f 90 89 96
f 80 97 91
f 86 109 81
f 81 110 92
f 81 109 110
f 73 72 92
f 94 111 112
f 95 94 112
f 95 112 100
f 100 112 104
f 104 103 99
f 48 101 84
f 88 101 78
f 88 113 101
f 85 106 107
f 79 107 105
f 86 91 115
f 109 86 115
f 94 98 111
f 88 99 113
f 101 106 84
f 96 114 97
f 91 97 108
f 91 108 115
f 73 92 102
f 103 113 99
f 84 106 85
f 107 116 105
f 89 114 96
f 97 114 108
f 115 117 109
f 109 118 110
f 102 119 98
f 98 119 111
f 105 120 89
f 106 116 107
f 89 120 121
f 104 112 111
f 104 111 103
f 101 113 106
f 105 116 122
f 105 122 120
f 89 121 114
f 108 114 121
f 117 118 109
f 110 118 102
f 110 102 92
f 111 119 123
f 113 116 106
f 116 113 125
f 116 125 122
f 108 126 115
f 115 126 117
f 118 117 127
f 119 102 123
f 111 128 103
f 103 128 124
f 113 124 125
f 108 121 126
f 117 126 129
f 117 129 127
f 118 123 102
f 123 118 127
f 111 123 128
f 103 124 113
f 120 122 129
f 125 124 128
f 125 129 122
f 121 120 126
f 127 128 123
f 128 127 125
f 129 125 127
f 126 120 129

