# https://github.com/mikedh/trimesh
v 0.01116647 0.00448464 0.00817514
v 0.01112935 -0.00479553 0.00817514
v 0.01110314 0.00475259 0.00738283
v 0.01113371 0.00479553 0.00817514
v 0.00879596 0.00422013 0.03085516
v 0.00879924 -0.00448292 0.03085516
v 0.01110314 -0.00475259 0.00737240
v 0.00492629 0.00859743 0.00025981
v 0.00727386 0.00731266 0.02214230
v 0.00703037 0.00748528 0.03138164
v 0.00786239 0.00676389 0.03190811
v 0.00848914 0.00584841 0.03123047
v 0.00872390 -0.00527388 0.03085516
v 0.00840616 -0.00616788 0.03138164
v 0.00794647 -0.00686695 0.03197327
v 0.00745621 -0.00741658 0.02083655
v 0.00493721 -0.00860344 0.00051783
v 0.00745075 -0.00741915 0.03158493
v 0.01058340 -0.00476633 0.00631424
v 0.00434212 -0.00854160 -0.00229176
v 0.01058776 0.00476633 0.00631424
v 0.00457470 0.00851927 -0.00174444
v 0.00450372 0.00876833 0.00078889
v 0.00588988 0.00793744 0.03330509
v 0.00688187 0.00738394 0.03374816
v 0.00646258 -0.00798768 0.03190811
v 0.00450372 -0.00876832 0.00078367
v 0.00690098 -0.00748871 0.03372079
v 0.00380491 -0.00817747 -0.00327173
v 0.00380273 0.00817747 -0.00327173
v 0.00360946 0.00862491 -0.00307104
v 0.00213868 0.00836383 0.03665679
v 0.00345114 0.00827709 0.03613032
v 0.00755448 0.00606655 0.03340413
v 0.00791153 -0.00553581 0.03293239
v 0.00187007 -0.00876489 -0.00396501
v 0.00267589 -0.00845572 -0.00424127
v 0.00240292 0.00833549 0.03718326
v -0.00498485 0.00876833 0.00289478
v -0.00683670 0.00872710 0.00342125
v 0.00493393 0.00793486 0.03576543
v 0.00636540 0.00730966 0.03458348
v 0.00782527 0.00501023 0.03306531
v 0.00682509 -0.00712287 0.03419644
v 0.00442620 -0.00837671 0.03533018
v 0.00187444 -0.00858110 0.03665157
v 0.00488152 -0.00801086 0.03597915
v 0.00267589 0.00845572 -0.00423606
v 0.00108172 0.00875802 -0.00422563
v -0.00254337 0.00792499 0.04116048
v -0.00017832 0.00793572 0.03998633
v -0.00366584 0.00875544 -0.00238037
v 0.00322184 0.00794388 0.03747516
v 0.00272393 -0.00846431 0.03749080
v -0.00710094 -0.00871164 0.00342125
v -0.00498485 -0.00876832 0.00289478
v 0.00162985 -0.00845744 -0.00477296
v 0.00162985 0.00845744 -0.00475732
v -0.00446074 0.00775323 0.04140547
v -0.00551551 0.00754712 0.04193194
v -0.00696664 0.00692191 0.04368598
v -0.00842869 0.00844714 0.00315019
v -0.00324655 0.00526701 0.04657897
v -0.00427948 0.00527817 0.04695167
v -0.00181835 0.00876489 -0.00395979
v -0.00248004 0.00490717 0.04653466
v -0.00215247 0.00448293 0.04633137
v -0.00215029 -0.00448464 0.04633137
v -0.00248004 -0.00490889 0.04653466
v -0.00250843 -0.00793357 0.04116569
v -0.00446074 -0.00778071 0.04140547
v -0.00366475 -0.00875458 -0.00238037
v -0.00129124 -0.00872903 -0.00423085
v 0.00028682 -0.00817747 -0.00501795
v 0.00028901 0.00817747 -0.00501274
v -0.00789803 0.00633621 0.04431410
v -0.00410915 -0.00527473 0.04695167
v -0.00698629 -0.00693136 0.04369119
v -0.00551551 -0.00757116 0.04193194
v -0.00842650 -0.00844542 0.00315541
v -0.00156940 -0.00845229 -0.00476774
v -0.00063037 -0.00817747 -0.00494367
v -0.00925634 0.00794045 0.00342125
v -0.00995953 0.00733929 0.00342125
v -0.00840248 0.00577971 0.04404304
v -0.00898992 0.00482988 0.04435580
v -0.00538667 0.00486080 0.04702465
v -0.00374227 0.00851412 -0.00324045
v -0.00419213 0.00369455 0.04800462
v -0.00408076 0.00289930 0.04809844
v -0.00408731 -0.00289758 0.04809844
v -0.00790676 -0.00634651 0.04432974
v -0.00374009 -0.00851755 -0.00324567
v -0.00925744 -0.00794130 0.00342125
v -0.00264164 0.00847118 -0.00424649
v -0.00988964 0.00728261 0.00304073
v -0.01044214 0.00672267 0.00342125
v -0.00629076 0.00308652 0.04745730
v -0.00308058 0.00817747 -0.00392852
v -0.01106234 0.00529363 0.00315541
v -0.01059064 0.00643927 0.00307201
v -0.00418995 -0.00369455 0.04800462
v -0.00538012 -0.00485736 0.04702465
v -0.00604945 -0.00340341 0.04747815
v -0.00842432 -0.00580547 0.04431410
v -0.00996389 -0.00734444 0.00342125
v -0.00989183 -0.00728518 0.00303812
v -0.00324000 -0.00817747 -0.00379820
v -0.01059282 -0.00644613 0.00307201
v -0.01106016 -0.00529191 0.00315541
v -0.00264164 -0.00847118 -0.00425170
v -0.00143073 0.00831574 -0.00479902
v -0.00927927 0.00412738 0.04404304
v -0.00949875 0.00330294 0.04434016
v -0.00544781 0.00263823 0.04798116
v -0.01078937 0.00606311 0.00342646
v -0.00498703 -0.00210835 0.04817403
v -0.00899211 -0.00483503 0.04435580
v -0.01044651 -0.00673126 0.00342125
v -0.01113113 -0.00369197 0.00421357
v -0.01110165 -0.00448292 0.00308764
v -0.01110165 0.00447949 0.00309286
v -0.01113113 0.00369197 0.00421617
v -0.00949875 -0.00330637 0.04433495
v -0.00928528 -0.00412566 0.04404304
v -0.00958391 0.00184470 0.04404304
v -0.00953041 0.00000000 0.04437665
v -0.00636937 -0.00184126 0.04751985
v -0.00957736 -0.00237028 0.04404304
v -0.00128830 0.00479880 0.02665780
v -0.00074978 0.00479880 0.02658751
v -0.00180974 0.00479880 0.02654384
v -0.00164162 -0.00342713 0.02535714
v -0.00129523 -0.00342713 0.02540354
v -0.00075347 -0.00342713 0.02535850
v 0.00025244 0.00479880 0.02619581
v -0.00074609 -0.00342713 0.02535714
v -0.00029393 -0.00342713 0.02519541
v -0.00286784 0.00479880 0.02607025
v -0.00190534 -0.00342713 0.02523908
v 0.00025244 0.00479880 0.01992042
v -0.00028423 -0.00342713 0.02519131
v -0.00027961 -0.00342713 0.02518859
v 0.00018363 -0.00342713 0.02490129
v 0.00025244 -0.00342713 0.02484056
v -0.00385298 0.00479880 0.02540081
v -0.00267156 -0.00342713 0.02484192
v -0.00235011 -0.00342713 0.02502958
v 0.00024783 0.00479880 0.01991224
v 0.00025244 -0.00342713 0.02142854
v -0.00446586 0.00479880 0.02455668
v -0.00292280 -0.00342713 0.02452392
v -0.00023666 0.00479880 0.01976074
v -0.00010734 -0.00342713 0.02117468
v -0.00037198 -0.00342713 0.02101705
v -0.00446586 0.00479880 0.02163531
v -0.00446586 0.00471184 0.02447820
v -0.00342022 -0.00342713 0.02346893
v -0.00341976 -0.00342713 0.02347097
v -0.00325996 -0.00342713 0.02397459
v -0.00312925 -0.00342713 0.02423800
v -0.00076779 0.00479880 0.01969660
v -0.00076733 -0.00342713 0.02091059
v -0.00077056 -0.00342713 0.02090991
v -0.00446586 0.00443082 0.02228564
v -0.00385714 0.00479880 0.02090650
v -0.00273899 -0.00342713 0.02149746
v -0.00300317 -0.00342713 0.02182774
v -0.00318560 -0.00342713 0.02209320
v -0.00331630 -0.00342713 0.02241393
v -0.00331723 -0.00342713 0.02241734
v -0.00343362 -0.00342713 0.02294211
v -0.00446586 0.00451295 0.02416020
v -0.00446586 0.00443082 0.02402577
v -0.00129523 0.00479880 0.01968636
v -0.00129523 -0.00342713 0.02088057
v -0.00446586 0.00440747 0.02238186
v -0.00332508 0.00479880 0.02038378
v -0.00238059 -0.00342713 0.02123337
v -0.00446586 0.00440103 0.02384971
v -0.00446586 0.00433903 0.02346824
v -0.00446586 0.00432534 0.02294211
v -0.00446586 0.00434950 0.02277287
v -0.00172014 0.00479880 0.01970547
v -0.00182451 -0.00342713 0.02096587
v -0.00182313 0.00479880 0.01971775
v -0.00325257 0.00479880 0.02034147
v -0.00211825 -0.00342713 0.02107300
v -0.00230900 0.00479880 0.01983444
v -0.00223926 0.00479880 0.01981670
v 0.00025244 -0.00484387 0.02620830
v 0.00025244 -0.00484387 0.01998398
v 0.00029126 -0.00484387 0.02619916
v 0.00025244 0.00359502 0.02492761
v 0.00025244 0.00359502 0.02136703
v 0.00030049 0.00359502 0.02139201
v 0.00079590 -0.00484387 0.02033309
v 0.00078478 -0.00484387 0.02602613
v 0.00059048 0.00359502 0.02461323
v 0.00044192 0.00359502 0.02150289
v 0.00134020 -0.00484387 0.02083209
v 0.00130243 -0.00484387 0.02553810
v 0.00071365 0.00359502 0.02445543
v 0.00239607 -0.00484387 0.02436526
v 0.00075751 0.00359502 0.02187699
v 0.00239607 -0.00484387 0.02204332
v 0.00180875 -0.00484387 0.02136154
v 0.00116562 0.00359502 0.02356102
v 0.00239607 -0.00464067 0.02351471
v 0.00122438 0.00359502 0.02318388
v 0.00120214 0.00359502 0.02340809
v 0.00091509 0.00359502 0.02219259
v 0.00239607 -0.00453906 0.02294139
v 0.00118388 0.00359502 0.02277384
v 0.00121850 0.00359502 0.02294992
f 1 2 3
f 1 3 4
f 1 4 5
f 1 5 6
f 1 6 2
f 3 2 7
f 3 8 4
f 4 8 9
f 4 9 10
f 4 10 11
f 4 11 12
f 4 12 5
f 6 13 2
f 2 13 14
f 2 14 15
f 2 16 17
f 2 17 7
f 2 15 18
f 2 18 16
f 7 17 20
f 7 20 19
f 3 21 22
f 3 22 8
f 8 23 24
f 8 24 10
f 8 10 9
f 10 25 11
f 11 25 12
f 6 14 13
f 16 18 26
f 18 28 26
f 19 20 29
f 7 21 3
f 7 19 21
f 21 30 22
f 22 30 31
f 8 22 31
f 8 31 23
f 23 32 33
f 23 33 24
f 10 24 25
f 12 25 34
f 12 34 5
f 6 35 14
f 15 28 18
f 16 26 17
f 17 26 27
f 27 36 20
f 27 20 17
f 19 29 21
f 20 37 29
f 21 29 30
f 23 31 49
f 23 49 65
f 23 65 52
f 23 52 39
f 32 38 33
f 32 39 40
f 33 41 24
f 5 34 43
f 5 43 35
f 5 35 6
f 14 35 44
f 14 44 28
f 14 28 15
f 27 26 45
f 27 45 46
f 36 27 56
f 36 56 72
f 28 47 45
f 26 28 45
f 20 36 37
f 30 29 37
f 30 37 48
f 30 48 31
f 32 23 39
f 32 50 38
f 32 40 50
f 38 50 51
f 39 52 40
f 38 53 41
f 38 51 53
f 38 41 33
f 24 41 25
f 25 42 34
f 25 41 42
f 28 44 47
f 45 54 46
f 46 55 56
f 46 56 27
f 37 36 57
f 31 48 49
f 50 60 61
f 40 52 62
f 40 62 59
f 40 59 50
f 51 50 63
f 50 61 64
f 50 64 63
f 51 63 53
f 42 66 67
f 42 67 34
f 42 41 66
f 34 67 43
f 35 43 68
f 35 68 44
f 45 47 54
f 46 54 70
f 46 71 55
f 55 72 56
f 44 69 47
f 48 37 57
f 48 57 58
f 48 58 49
f 59 60 50
f 59 62 60
f 61 76 64
f 63 64 66
f 63 66 53
f 53 66 41
f 67 68 43
f 68 69 44
f 46 70 71
f 54 69 77
f 54 77 70
f 70 77 78
f 70 78 79
f 70 79 71
f 72 55 80
f 69 54 47
f 36 72 73
f 73 81 36
f 36 81 57
f 57 81 74
f 74 81 82
f 57 75 58
f 75 57 74
f 61 60 62
f 76 61 83
f 76 83 84
f 76 84 85
f 76 85 86
f 76 87 64
f 52 88 62
f 62 83 61
f 64 89 66
f 67 90 68
f 68 90 91
f 78 77 92
f 55 71 79
f 55 79 80
f 80 93 72
f 74 82 75
f 49 58 65
f 65 95 52
f 83 62 96
f 83 96 84
f 84 96 97
f 84 97 85
f 86 98 87
f 86 87 76
f 87 89 64
f 88 52 95
f 62 88 96
f 88 99 100
f 88 100 101
f 88 101 96
f 66 89 90
f 67 66 90
f 68 91 69
f 69 102 77
f 92 77 103
f 92 103 104
f 92 104 105
f 92 105 106
f 92 106 94
f 92 94 78
f 78 80 79
f 80 78 94
f 93 73 72
f 80 94 107
f 80 107 93
f 93 107 109
f 93 109 110
f 93 110 108
f 69 91 102
f 73 93 111
f 73 111 81
f 65 58 112
f 65 112 95
f 96 101 97
f 85 97 86
f 86 113 114
f 87 98 115
f 88 95 99
f 100 116 101
f 101 116 97
f 90 89 115
f 90 117 91
f 91 117 102
f 77 102 103
f 105 119 106
f 106 119 107
f 106 107 94
f 93 108 111
f 107 119 109
f 109 119 110
f 82 112 75
f 75 112 58
f 97 116 86
f 86 116 113
f 113 116 100
f 114 113 100
f 114 98 86
f 87 115 89
f 99 111 108
f 99 95 111
f 99 108 121
f 99 121 122
f 99 122 100
f 100 122 120
f 100 120 123
f 90 115 117
f 104 103 102
f 105 104 118
f 118 124 125
f 105 118 119
f 108 110 121
f 110 120 121
f 119 118 110
f 110 118 125
f 110 125 124
f 110 124 120
f 82 81 112
f 114 100 123
f 114 123 126
f 114 126 127
f 114 127 98
f 95 81 111
f 121 120 122
f 123 120 126
f 117 115 128
f 117 128 104
f 117 104 102
f 124 118 104
f 124 104 128
f 124 129 120
f 81 95 112
f 98 127 128
f 120 129 126
f 126 129 127
f 128 127 124
f 124 127 129
f 98 128 115
f 130 131 136
f 130 136 141
f 130 141 149
f 130 149 153
f 130 153 162
f 130 162 175
f 130 175 184
f 130 184 186
f 130 186 190
f 130 190 189
f 130 189 187
f 130 187 178
f 130 178 166
f 130 166 156
f 130 156 151
f 130 151 146
f 130 146 139
f 130 139 132
f 130 132 133
f 130 133 134
f 130 134 135
f 130 135 131
f 131 135 137
f 131 137 138
f 131 138 136
f 132 139 133
f 133 140 148
f 133 148 147
f 133 147 152
f 133 152 161
f 133 161 160
f 133 160 159
f 133 159 158
f 133 158 172
f 133 172 171
f 133 171 170
f 133 170 169
f 133 169 168
f 133 168 167
f 133 167 179
f 133 179 188
f 133 188 185
f 133 185 176
f 133 176 164
f 133 164 163
f 133 163 155
f 133 155 154
f 133 154 150
f 133 150 145
f 133 145 144
f 133 144 143
f 133 143 142
f 133 142 138
f 133 138 137
f 133 137 135
f 133 135 134
f 133 139 140
f 136 138 142
f 136 142 143
f 136 143 144
f 136 144 145
f 136 145 150
f 136 150 141
f 139 146 147
f 139 147 148
f 139 148 140
f 141 150 149
f 146 151 152
f 146 152 147
f 149 150 154
f 149 154 155
f 149 155 153
f 151 156 165
f 151 165 177
f 151 177 183
f 151 183 182
f 151 182 181
f 151 181 180
f 151 180 174
f 151 174 173
f 151 173 157
f 151 157 158
f 151 158 159
f 151 159 160
f 151 160 161
f 151 161 152
f 153 155 163
f 153 163 164
f 153 164 162
f 156 166 167
f 156 167 168
f 156 168 169
f 156 169 170
f 156 170 171
f 156 171 172
f 156 172 165
f 157 173 158
f 158 173 174
f 158 174 172
f 162 164 176
f 162 176 175
f 165 172 177
f 166 178 167
f 167 178 179
f 172 174 180
f 172 180 181
f 172 181 182
f 172 182 183
f 172 183 177
f 175 176 184
f 176 185 186
f 176 186 184
f 178 187 188
f 178 188 179
f 185 188 189
f 185 189 190
f 185 190 186
f 187 189 188
f 191 192 197
f 191 197 201
f 191 201 207
f 191 207 206
f 191 206 204
f 191 204 202
f 191 202 198
f 191 198 193
f 191 193 194
f 191 194 195
f 191 195 192
f 192 195 196
f 192 196 197
f 193 198 194
f 194 199 203
f 194 203 208
f 194 208 211
f 194 211 210
f 194 210 215
f 194 215 214
f 194 214 212
f 194 212 205
f 194 205 200
f 194 200 196
f 194 196 195
f 194 198 199
f 196 200 197
f 197 200 201
f 198 202 199
f 199 202 204
f 199 204 203
f 200 205 206
f 200 206 207
f 200 207 201
f 203 204 208
f 204 206 213
f 204 213 209
f 204 209 210
f 204 210 211
f 204 211 208
f 205 212 206
f 206 212 214
f 206 214 215
f 206 215 213
f 209 213 210
f 210 213 215

