# https://github.com/mikedh/trimesh
v -0.00893215 0.00849912 0.00299962
v -0.00782117 0.00849080 0.00261692
v -0.00724162 0.00849080 0.00189641
v -0.00700094 0.00849246 0.00100018
v -0.00700094 0.00849246 -0.00299871
v -0.00899761 0.00849912 -0.00299871
v -0.01003350 0.00836101 0.00300092
v -0.00445359 0.00660885 0.00888210
v -0.00305283 0.00665710 0.00900382
v -0.00180226 0.00670536 0.00891269
v 0.00086639 0.00676359 0.00816876
v 0.00086639 0.00679854 0.00777304
v 0.00086639 0.00679854 0.00000046
v 0.00076626 0.00679854 -0.00077537
v 0.00048515 0.00679854 -0.00146528
v -0.00001161 0.00679854 -0.00212135
v -0.00066626 0.00679854 -0.00261666
v -0.00135556 0.00679854 -0.00289718
v -0.00213151 0.00679854 -0.00300001
v -0.01003350 0.00836101 -0.00299871
v -0.00296138 0.00631099 0.00958015
v -0.00164630 0.00654353 0.00927132
v 0.00086639 0.00652565 0.00884305
v 0.00086928 -0.00568373 0.00965728
v 0.00086831 -0.00679776 0.00000046
v 0.00080285 -0.00679776 -0.00062177
v 0.00050441 -0.00679776 -0.00143014
v -0.00070092 -0.00679776 -0.00263423
v -0.00033701 -0.00540169 -0.00240252
v -0.00109563 -0.00567624 -0.00281387
v -0.00151152 -0.00679776 -0.00293363
v -0.01099814 0.00796332 0.00300092
v -0.00743512 0.00639752 0.00790321
v -0.00638576 0.00647906 0.00839266
v -0.01292935 0.00501809 -0.00299871
v -0.01182608 0.00732602 -0.00299871
v -0.01099814 0.00796332 -0.00299871
v -0.00547407 0.00612962 0.00923031
v 0.00086831 -0.00515209 0.00985058
v -0.00001089 -0.00581539 0.00979909
v 0.00086831 -0.00628526 0.00915839
v 0.00086831 -0.00676947 0.00813622
v 0.00086831 -0.00679776 0.00777824
v 0.00086639 0.00621282 0.00925765
v 0.00086639 0.00515287 0.00985058
v -0.00700094 -0.00850000 -0.00299871
v -0.00001161 -0.00679776 -0.00212005
v -0.00213344 -0.00679776 -0.00300001
v -0.01880000 0.00248886 -0.00020392
v -0.01879808 0.00242063 0.00061487
v -0.01182608 0.00732602 0.00300092
v -0.00851385 0.00617663 0.00739554
v -0.01880000 -0.00000044 -0.00249885
v -0.01880000 0.00040889 -0.00246370
v -0.01879808 0.00118763 -0.00219685
v -0.01879808 0.00183658 -0.00169048
v -0.01879808 0.00228585 -0.00100317
v -0.00375321 0.00591331 0.00983204
v -0.00108673 0.00617081 0.00970382
v -0.00054724 -0.00638697 0.00937920
v -0.00112644 -0.00669127 0.00891465
v -0.00839110 -0.00850000 0.00290460
v -0.00727435 -0.00850000 0.00196410
v -0.00700479 -0.00850000 0.00113686
v -0.00004001 0.00580265 0.00982878
v 0.00001920 0.00515287 0.01007058
v -0.00899954 -0.00850000 -0.00299871
v -0.01003350 -0.00836189 -0.00299871
v -0.01100007 -0.00796087 -0.00299871
v -0.01182800 -0.00732524 -0.00299871
v -0.01880000 0.00153207 0.00197387
v -0.01879808 0.00209117 0.00136726
v -0.00887824 0.00591830 0.00736039
v -0.00769121 0.00591830 0.00828982
v -0.01293031 -0.00501648 -0.00299741
v -0.01880000 -0.00041144 -0.00246370
v -0.00559296 0.00556304 0.00955998
v -0.00191827 0.00602396 0.00989647
v -0.00068262 -0.00515209 0.01018838
v -0.00899954 -0.00850000 0.00300092
v -0.01003350 -0.00836189 0.00300092
v -0.01100007 -0.00796087 0.00299962
v -0.01880000 -0.00248974 -0.00020392
v -0.01879615 -0.00228674 -0.00100187
v -0.01879615 -0.00184079 -0.00169048
v -0.01879615 -0.00119018 -0.00219685
v -0.01880000 0.00080825 0.00236438
v -0.00850855 0.00568701 0.00785895
v -0.00254115 0.00556304 0.01015974
v -0.00128192 0.00556304 0.01013241
v -0.00673138 0.00556304 0.00906662
v -0.00156110 -0.00555228 0.01014608
v -0.00157603 -0.00604689 0.00985124
v -0.00486226 -0.00662346 0.00869889
v -0.00268219 -0.00667463 0.00898169
v -0.00620670 -0.00646164 0.00848768
v -0.00712585 -0.00629961 0.00823612
v -0.00857787 -0.00621204 0.00730572
v -0.01182800 -0.00732524 0.00299962
v -0.01879615 -0.00241985 0.00061487
v -0.01879615 -0.00209039 0.00136856
v -0.01880000 -0.00153462 0.00197387
v -0.00808111 0.00543907 0.00831455
v -0.01880000 -0.00000044 0.00250106
v -0.00758049 0.00506302 0.00875454
v -0.00409546 0.00516286 0.01010702
v -0.00306150 0.00515287 0.01025542
v -0.00097433 0.00516452 0.01023069
v -0.00191298 -0.00515209 0.01029187
v -0.00248916 -0.00648785 0.00937139
v -0.00786738 -0.00582101 0.00824686
v -0.00881855 -0.00599406 0.00734347
v -0.01880000 -0.00081080 0.00236438
v -0.00881855 -0.00570204 0.00757973
v -0.00758242 -0.00506224 0.00875323
v -0.00674967 0.00516618 0.00919712
v -0.00562618 0.00515994 0.00967388
v -0.00202562 0.00515287 0.01029838
v -0.00274958 -0.00515209 0.01027755
v -0.00303214 -0.00601653 0.00984928
v -0.00418692 -0.00621204 0.00951865
v -0.00573737 -0.00621204 0.00903668
v -0.00640887 -0.00582101 0.00907606
v -0.00798869 -0.00533014 0.00841999
v -0.00699516 -0.00515043 0.00907606
v -0.00490607 -0.00515209 0.00991567
v -0.00601608 -0.00515209 0.00953231
v -0.00353323 -0.00515209 0.01020075
v -0.00447958 -0.00576152 0.00978794
f 1 2 3
f 1 3 4
f 1 4 5
f 1 5 6
f 1 6 7
f 1 7 8
f 1 8 9
f 1 9 10
f 1 10 11
f 1 11 2
f 2 11 3
f 3 11 12
f 4 3 12
f 4 12 13
f 4 13 5
f 5 13 14
f 5 14 15
f 5 15 16
f 5 16 17
f 5 17 18
f 5 18 19
f 5 19 6
f 6 20 7
f 6 19 20
f 8 21 9
f 10 9 22
f 10 22 23
f 10 23 11
f 11 24 12
f 12 24 13
f 13 24 25
f 13 25 14
f 14 26 15
f 15 27 16
f 17 16 29
f 17 29 28
f 18 17 30
f 18 30 31
f 7 20 37
f 7 37 32
f 7 32 33
f 7 33 34
f 7 34 8
f 19 35 36
f 19 36 37
f 19 37 20
f 8 38 21
f 8 34 38
f 9 21 22
f 11 23 24
f 24 40 41
f 24 41 42
f 24 42 43
f 24 43 25
f 24 23 44
f 24 44 45
f 24 45 39
f 25 26 14
f 26 25 46
f 26 46 27
f 26 27 15
f 27 47 16
f 16 47 29
f 28 30 17
f 28 29 47
f 28 47 46
f 31 48 18
f 31 30 28
f 31 28 46
f 31 46 48
f 18 48 19
f 32 37 49
f 32 49 50
f 32 50 51
f 32 51 52
f 32 52 33
f 19 48 35
f 35 53 36
f 36 53 54
f 36 54 55
f 36 55 56
f 36 56 57
f 36 57 49
f 36 49 37
f 21 38 58
f 22 21 59
f 22 59 23
f 23 59 44
f 39 40 24
f 41 40 60
f 41 60 61
f 41 61 42
f 42 62 63
f 42 63 43
f 43 63 64
f 43 64 46
f 43 46 25
f 44 65 45
f 45 65 66
f 45 66 39
f 27 46 47
f 46 64 63
f 46 63 62
f 46 62 80
f 46 80 67
f 46 67 48
f 48 67 68
f 48 68 69
f 48 69 70
f 48 70 35
f 49 57 56
f 49 56 54
f 49 54 53
f 49 53 76
f 49 76 83
f 49 83 102
f 49 102 113
f 49 113 104
f 49 104 87
f 49 87 71
f 49 71 72
f 49 72 50
f 50 72 51
f 51 72 71
f 51 71 73
f 51 73 52
f 52 74 33
f 52 73 74
f 33 74 34
f 35 75 53
f 35 70 75
f 53 75 70
f 53 70 76
f 54 56 55
f 38 77 58
f 21 58 78
f 34 74 38
f 59 21 78
f 40 39 79
f 62 42 61
f 62 61 80
f 44 59 65
f 67 80 81
f 67 81 68
f 68 81 82
f 68 82 69
f 69 82 83
f 69 83 70
f 70 83 84
f 70 84 85
f 70 85 86
f 70 86 76
f 71 87 88
f 71 88 73
f 73 88 74
f 76 86 85
f 76 85 83
f 58 89 78
f 78 89 90
f 74 91 38
f 38 91 77
f 66 79 39
f 79 92 40
f 40 92 93
f 40 93 60
f 80 94 81
f 80 61 95
f 80 95 94
f 65 59 90
f 65 90 66
f 81 94 96
f 81 96 97
f 81 97 82
f 82 97 98
f 82 98 99
f 82 99 100
f 82 100 83
f 83 100 101
f 83 101 102
f 83 85 84
f 87 103 88
f 87 104 105
f 87 105 103
f 88 103 74
f 77 106 58
f 58 106 107
f 58 107 89
f 90 59 78
f 66 90 108
f 66 108 79
f 92 79 109
f 60 110 61
f 61 110 95
f 95 110 94
f 98 97 111
f 98 111 112
f 98 112 99
f 99 102 101
f 99 101 100
f 99 112 102
f 102 112 114
f 102 114 113
f 104 113 115
f 104 115 105
f 105 116 103
f 103 116 91
f 103 91 74
f 77 117 106
f 77 91 116
f 77 116 117
f 89 107 118
f 89 118 90
f 90 118 108
f 79 108 109
f 109 108 118
f 92 109 119
f 92 119 120
f 92 120 93
f 93 110 60
f 93 120 110
f 94 121 96
f 110 121 94
f 96 121 122
f 96 122 97
f 97 123 111
f 97 122 123
f 111 123 124
f 111 124 114
f 111 114 112
f 113 114 124
f 113 124 115
f 115 124 125
f 115 125 105
f 105 125 116
f 117 127 126
f 117 126 106
f 116 125 127
f 116 127 117
f 106 128 107
f 106 126 128
f 107 128 119
f 107 119 118
f 118 119 109
f 110 120 121
f 122 129 123
f 122 121 129
f 123 125 124
f 119 128 129
f 119 129 120
f 120 129 121
f 129 127 123
f 123 127 125
f 127 129 126
f 126 129 128

