# https://github.com/mikedh/trimesh
v 0.00954291 -0.00165986 0.01580034
v 0.00873876 0.00030867 0.02102310
v 0.00956974 0.00017144 0.01544165
v 0.00953860 0.00163681 0.01580034
v 0.00270729 -0.00733919 -0.00106177
v 0.00271016 0.00731860 -0.00106720
v 0.00932540 0.00365272 0.01503042
v 0.00806445 -0.00147689 0.02459370
v 0.00932900 -0.00353649 0.01502906
v 0.00273028 -0.00774286 -0.00093496
v 0.00273220 0.00772474 -0.00094220
v 0.00805965 0.00163681 0.02459370
v 0.00220424 -0.00762882 -0.00183350
v 0.00893543 -0.00513211 0.01452861
v 0.00857515 -0.00588531 0.01414818
v 0.00733623 -0.00722473 0.01239096
v 0.00600533 -0.00807433 0.01048881
v 0.00942410 -0.00349116 0.01544165
v 0.00238342 0.00750157 -0.00166321
v 0.00600533 0.00805293 0.01048881
v 0.00704567 0.00745193 0.01201053
v 0.00857515 0.00586554 0.01414456
v 0.00893543 0.00511235 0.01452499
v 0.00926767 0.00421290 0.01534156
v 0.00881470 -0.00349116 0.01946333
v 0.00233456 -0.00786265 -0.00104546
v 0.00490151 -0.00831884 0.00921346
v 0.00574374 -0.00816377 0.01122974
v 0.00163413 0.00770669 -0.00235161
v 0.00233935 0.00785930 -0.00104727
v 0.00490438 0.00829579 0.00921165
v 0.00799534 0.00664120 0.01413437
v 0.00916347 0.00337786 0.01731255
v 0.00361564 -0.00836642 0.01031490
v 0.00125373 -0.00771661 -0.00252008
v 0.00866091 -0.00532410 0.01652768
v 0.00839310 -0.00613822 0.01469347
v 0.00677474 -0.00772892 0.01232755
v 0.00747900 -0.00715704 0.01379493
v 0.00004356 0.00769520 -0.00272117
v 0.00700015 0.00753521 0.01291949
v 0.00866331 0.00553263 0.01554038
v 0.00767638 0.00346975 0.02569514
v 0.00782394 0.00017144 0.02583282
v 0.00361564 -0.00831391 0.01982565
v 0.00847694 -0.00477110 0.01927040
v 0.00089633 0.00769356 -0.00270305
v 0.00389542 0.00834769 0.00985385
v 0.00520908 0.00806278 0.01719615
v 0.00846796 0.00424192 0.02036357
v 0.00068554 -0.00836807 0.02715164
v 0.00010296 -0.00771004 -0.00270305
v -0.00004843 -0.00715704 -0.00287334
v 0.00050157 -0.00624139 -0.00282986
v 0.00502415 -0.00708484 0.03229650
v 0.00469909 -0.00806059 0.02050136
v 0.00068937 0.00834830 0.02678570
v 0.00252332 0.00828020 0.02623680
v 0.00502990 0.00707328 0.03229288
v 0.00764381 -0.00367413 0.02569151
v 0.00275903 -0.00817936 0.02770417
v -0.00097402 -0.00735068 -0.00270305
v -0.00077281 -0.00760010 -0.00214509
v -0.00170607 -0.00734575 -0.00200016
v 0.00498008 0.00687555 0.03276570
v 0.00746942 0.00458847 0.02525719
v 0.00503949 -0.00678947 0.03266244
v -0.00553302 -0.00749180 0.02972045
v 0.00745600 -0.00435758 0.02580746
v 0.00426169 -0.00711356 0.03334088
v -0.00097402 0.00733255 -0.00271030
v 0.00308433 0.00810995 0.02752120
v 0.00183487 0.00825928 0.02792926
v 0.00417234 0.00718323 0.03320772
v 0.00288742 -0.00718494 0.03376025
v -0.00391562 -0.00771004 0.03027841
v -0.00610793 -0.00734739 0.02991248
v -0.00683375 -0.00711315 0.02944328
v -0.00022569 0.00585488 -0.00288421
v 0.00453740 -0.00678947 0.03341062
v -0.00077281 0.00760167 -0.00214509
v -0.00553494 0.00749337 0.02972045
v 0.00463322 0.00676971 0.03331823
v -0.00049829 -0.00786470 0.03081826
v -0.00247549 -0.00701264 -0.00119220
v -0.00416235 -0.00569537 -0.00006359
v -0.00498878 -0.00404252 -0.00050018
v -0.00508651 -0.00220630 -0.00052917
v 0.00194266 -0.00699295 0.03395590
v -0.00779528 -0.00647441 0.02957009
v -0.00395395 0.00769356 0.03028204
v -0.00173769 0.00733912 -0.00190777
v -0.00499070 0.00402768 -0.00050380
v -0.00636280 0.00729481 0.02935814
v -0.00040966 0.00785766 0.03082188
v 0.00379769 0.00676971 0.03393779
v 0.00288742 0.00718158 0.03375663
v 0.00288742 -0.00678947 0.03411532
v -0.00781156 -0.00653841 0.02898495
v -0.00359943 -0.00631688 0.00005416
v -0.00879082 -0.00563834 0.02898495
v -0.00460359 -0.00512226 0.00005416
v -0.00535672 -0.00260833 -0.00015598
v -0.00976049 -0.00370612 0.02918060
v -0.00939447 -0.00479243 0.02918785
v 0.00379577 -0.00678947 0.03394141
v -0.00611943 0.00733091 0.02991972
v 0.00194458 0.00697482 0.03395228
v -0.00535480 0.00257708 -0.00014511
v -0.00251285 0.00701421 -0.00105452
v -0.00720408 0.00696334 0.02944147
v -0.00525324 -0.00349116 0.00005054
v -0.00976864 0.00331386 0.02918422
v -0.00999237 0.00200110 0.02862264
v -0.00780103 0.00645875 0.02957190
v -0.00417625 0.00568668 -0.00007627
v -0.00521683 0.00365190 0.00004691
v -0.00479331 0.00473411 -0.00003098
v -0.00361667 0.00630860 0.00005054
v -0.00782881 0.00652685 0.02898495
v 0.00288742 0.00676971 0.03411170
v -0.00977582 -0.00374879 0.02869510
v -0.00992913 -0.00293980 0.02862264
v -0.00998854 -0.00202415 0.02862264
v -0.00917696 0.00508773 0.02891068
v -0.00941459 0.00467339 0.02919872
v -0.00995596 0.00273625 0.02862264
v -0.00977966 0.00373559 0.02868423
v -0.00863176 0.00583272 0.02898495
f 1 3 4
f 1 4 2
f 3 5 6
f 3 6 7
f 3 7 4
f 1 2 8
f 3 9 5
f 5 9 10
f 6 11 7
f 4 12 2
f 10 13 5
f 10 9 14
f 10 14 15
f 10 15 16
f 10 16 17
f 9 3 18
f 9 18 14
f 5 13 19
f 5 19 6
f 6 19 11
f 11 20 21
f 11 21 22
f 11 22 23
f 11 23 7
f 7 23 24
f 1 18 3
f 10 17 27
f 10 27 26
f 10 26 13
f 17 28 27
f 11 19 29
f 11 29 30
f 11 30 31
f 11 31 20
f 22 21 32
f 7 24 4
f 4 24 33
f 4 33 12
f 2 12 8
f 1 8 25
f 1 25 18
f 26 27 34
f 14 18 36
f 14 36 15
f 16 38 17
f 16 39 38
f 17 38 28
f 19 13 29
f 29 40 30
f 20 41 21
f 22 32 42
f 22 42 23
f 23 42 24
f 33 43 12
f 12 44 8
f 27 28 45
f 13 26 35
f 13 35 29
f 15 36 37
f 37 39 15
f 15 39 16
f 40 48 30
f 30 48 31
f 21 41 32
f 33 50 43
f 27 51 34
f 26 52 35
f 26 34 52
f 35 53 54
f 18 25 46
f 18 46 36
f 37 55 39
f 28 38 56
f 29 47 40
f 31 48 57
f 49 20 31
f 49 31 58
f 20 49 41
f 24 50 33
f 12 43 44
f 25 8 60
f 27 45 51
f 52 53 35
f 52 64 62
f 37 36 55
f 55 38 39
f 55 36 46
f 29 35 47
f 57 58 31
f 41 59 32
f 59 65 66
f 59 42 32
f 59 41 49
f 42 50 24
f 44 65 67
f 44 60 8
f 61 45 56
f 61 51 45
f 62 53 52
f 52 34 51
f 52 51 63
f 63 51 68
f 52 63 64
f 54 47 35
f 46 25 60
f 46 60 69
f 55 67 70
f 55 70 61
f 55 61 56
f 55 56 38
f 40 57 48
f 58 72 49
f 59 49 72
f 59 72 73
f 59 73 74
f 59 74 65
f 65 43 66
f 66 50 59
f 59 50 42
f 66 43 50
f 43 65 44
f 67 55 60
f 67 60 44
f 56 45 28
f 61 70 75
f 61 75 51
f 68 76 77
f 63 68 78
f 51 76 68
f 53 79 54
f 46 69 55
f 67 80 70
f 55 69 60
f 47 54 79
f 47 71 40
f 47 79 71
f 40 81 57
f 57 81 82
f 71 81 40
f 57 73 58
f 58 73 72
f 65 80 67
f 51 75 84
f 62 71 79
f 62 79 53
f 64 78 85
f 64 86 87
f 64 87 62
f 62 87 88
f 62 88 71
f 76 75 89
f 76 89 77
f 77 90 78
f 77 89 90
f 63 78 64
f 68 77 78
f 51 84 76
f 71 93 92
f 71 92 81
f 81 92 94
f 81 94 82
f 57 82 91
f 65 96 83
f 74 97 96
f 74 96 65
f 74 73 97
f 83 80 65
f 70 98 75
f 78 99 85
f 85 99 100
f 85 100 86
f 85 86 64
f 86 101 102
f 86 102 87
f 87 103 88
f 71 88 93
f 75 98 89
f 89 104 105
f 89 105 90
f 90 99 78
f 80 83 96
f 70 80 106
f 70 106 98
f 82 94 107
f 82 107 91
f 91 107 108
f 91 108 97
f 92 111 94
f 57 91 73
f 73 91 95
f 95 97 73
f 97 108 96
f 75 76 84
f 100 99 101
f 102 101 105
f 87 112 103
f 93 88 109
f 88 103 109
f 89 98 108
f 89 108 113
f 89 113 104
f 105 101 90
f 90 101 99
f 80 96 106
f 107 111 115
f 107 115 108
f 91 97 95
f 92 93 116
f 109 117 93
f 93 117 118
f 93 118 116
f 92 116 110
f 110 116 119
f 110 119 120
f 110 120 111
f 92 110 111
f 94 111 107
f 108 121 96
f 100 101 86
f 105 87 102
f 87 105 122
f 87 122 112
f 112 122 123
f 103 112 123
f 103 123 124
f 103 124 114
f 103 114 109
f 98 121 108
f 113 114 104
f 114 124 104
f 104 124 123
f 104 123 122
f 104 122 105
f 108 115 126
f 108 126 113
f 109 114 127
f 117 109 127
f 117 127 128
f 117 128 118
f 118 128 125
f 118 125 116
f 111 120 129
f 111 129 115
f 121 98 96
f 96 98 106
f 113 126 128
f 115 129 125
f 115 125 126
f 116 125 129
f 116 129 119
f 127 114 113
f 127 113 128
f 128 126 125
f 119 129 120

