# https://github.com/mikedh/trimesh
v 0.00300083 0.00153136 0.00455392
v 0.00201031 -0.00345869 -0.01142971
v 0.00201031 0.00343505 -0.01142971
v 0.00292439 -0.00243351 0.00438162
v 0.00201031 -0.00449005 -0.01074732
v 0.00269291 0.00001211 0.00575914
v 0.00176053 -0.00487758 -0.01048930
v 0.00179498 0.00489254 -0.01022449
v 0.00235053 0.00514265 -0.00013796
v 0.00234838 -0.00345097 0.00608845
v 0.00218581 -0.00552373 0.00353627
v 0.00119636 -0.00675271 0.00307540
v 0.00034365 -0.00725063 0.00297525
v -0.00263436 -0.00786049 0.00008950
v -0.00263436 0.00783530 0.00008271
v -0.00032172 0.00741844 0.00296336
v 0.00119313 0.00672598 0.00311105
v 0.00202108 0.00584824 0.00336567
v 0.00007288 -0.00490460 -0.01067433
v -0.00022697 -0.00361926 -0.01153496
v -0.00182903 0.00344277 -0.01143650
v -0.00401033 0.00785460 -0.00042993
v 0.00234623 0.00342733 0.00609185
v 0.00125881 -0.00550288 0.00627009
v -0.00244487 -0.00723365 0.00920166
v -0.00367010 -0.00767985 0.00763997
v -0.00504068 -0.00785663 -0.00059968
v -0.00059034 0.00488675 -0.01066669
v -0.00617749 0.00762311 0.00903722
v -0.00359057 0.00752121 0.00879639
v -0.00125618 0.00691019 0.00803559
v 0.00047205 0.00033885 0.01048858
v -0.00006117 0.00445405 0.01055627
v -0.00870345 -0.00760594 0.00559512
v -0.00839768 -0.00742356 -0.00166571
v -0.00757727 0.00756666 -0.00149257
v -0.00005686 -0.00448233 0.01055627
v -0.00177735 -0.00619920 0.01124205
v -0.00512224 -0.00714381 0.01251794
v -0.00281524 -0.00347259 -0.01119291
v -0.00419336 0.00484892 -0.00985104
v -0.00948066 0.00749506 0.00594544
v -0.00111090 0.00222690 0.01293106
v -0.00739372 -0.00742290 0.01164073
v -0.00528508 -0.00486214 -0.00940969
v -0.00494917 0.00337560 -0.01043668
v -0.00908566 0.00723780 -0.00185244
v -0.00758804 0.00713483 0.01367987
v -0.00207518 0.00600196 0.01192996
v -0.00299289 0.00366355 0.01518025
v -0.00256546 -0.00317962 0.01473890
v -0.01040994 -0.00657438 -0.00218854
v -0.00497070 0.00660671 0.01423920
v -0.00533578 -0.00599841 0.01580455
v -0.01099208 -0.00728677 0.01125967
v -0.01181235 -0.00678634 0.00437016
v -0.00728335 -0.00346950 -0.00903285
v -0.00728550 0.00344431 -0.00903285
v -0.00729788 0.00481727 -0.00792438
v -0.01017954 0.00669046 -0.00213252
v -0.01190218 0.00698768 0.01416175
v -0.01265315 0.00694329 0.01029825
v -0.00923639 0.00652912 0.01678353
v -0.00302465 -0.00490711 0.01462898
v -0.00840199 -0.00656560 0.01652551
v -0.01248142 -0.00700457 0.01025326
v -0.01142630 -0.00555229 -0.00252125
v -0.01182466 0.00657158 0.00266630
v -0.00343371 0.00553897 0.01443600
v -0.00862916 0.00583126 0.01845981
v -0.01268725 -0.00666837 0.01603122
v -0.01454967 -0.00639876 0.01520656
v -0.01500402 -0.00568873 0.01047521
v -0.00899522 -0.00347104 -0.00731837
v -0.01158672 0.00534182 -0.00251446
v -0.00866254 0.00346129 -0.00766806
v -0.00572705 0.00488713 0.01743028
v -0.00506053 -0.00412365 0.01710096
v -0.01296565 -0.00611766 0.01836178
v -0.01553965 -0.00587999 0.01402850
v -0.01226717 -0.00417740 -0.00252295
v -0.01243513 0.00368980 -0.00253653
v -0.00458889 0.00234883 0.01697121
v -0.01206530 -0.00563730 0.01960923
v -0.01482099 0.00496587 0.00781311
v -0.01529929 0.00574518 0.01221302
v -0.00793795 -0.00416582 0.01949868
v -0.00923989 -0.00546071 0.01920395
v -0.01482422 -0.00499492 0.00780972
v -0.01791421 -0.00236249 0.01607653
v -0.01255356 -0.00291291 -0.00258236
v -0.01508776 0.00610953 0.01541095
v -0.01283752 0.00523568 0.02029056
v -0.01136386 0.00411902 0.02121315
v -0.00562423 -0.00044259 0.01803713
v -0.01733302 -0.00415711 0.01636489
v -0.01756968 0.00287228 0.01529568
v -0.01272905 0.00187411 -0.00235150
v -0.01701904 0.00465014 0.01659108
v -0.01424821 0.00599955 0.01828667
v -0.00778682 0.00320847 0.01960244
v -0.01691507 -0.00484516 0.01922708
v -0.01861403 0.00241141 0.01978046
v -0.00820442 -0.00150251 0.02006755
v -0.01323723 -0.00428625 0.02152888
v -0.01595066 -0.00496221 0.02008771
v -0.01799926 -0.00052905 0.01588131
v -0.00992814 0.00261945 0.02097974
v -0.01162172 -0.00342048 0.02156750
v -0.01592106 -0.00397273 0.02158193
v -0.01559671 0.00518801 0.01975458
v -0.01442101 0.00384294 0.02192122
v -0.01015155 -0.00157044 0.02128445
v -0.01861188 -0.00243505 0.01979065
v -0.01894995 0.00068373 0.02017089
v -0.01656193 0.00411747 0.02121994
v -0.01361581 0.00241512 0.02246834
v -0.01717482 0.00456609 0.01931980
v -0.01259689 0.00036437 0.02237975
v -0.01380786 -0.00241035 0.02257794
v -0.01562309 -0.00315202 0.02236830
v -0.01785715 -0.00279171 0.02166468
v -0.01860327 -0.00155963 0.02154586
v -0.01644081 0.00273872 0.02243471
v -0.01776724 0.00319033 0.02132434
v -0.01760413 -0.00143303 0.02259491
v -0.01858873 0.00094446 0.02160718
v -0.01566078 0.00063567 0.02304263
v -0.01785768 0.00134473 0.02243153
v -0.00712951 0.00358137 0.01121406
v -0.00703401 0.00358137 0.01111260
v -0.00712951 0.00358137 0.01103937
v -0.00712951 0.00313409 0.01103937
v -0.00697731 0.00358137 0.01103937
f 1 2 3
f 1 4 2
f 2 4 5
f 3 8 9
f 3 9 1
f 1 6 10
f 1 10 4
f 7 5 11
f 7 11 12
f 7 12 13
f 7 13 14
f 5 4 11
f 8 15 16
f 8 16 17
f 8 17 18
f 8 18 9
f 9 18 1
f 4 10 11
f 7 14 19
f 7 19 5
f 5 20 2
f 15 8 22
f 18 23 1
f 1 23 6
f 11 24 12
f 14 27 19
f 5 19 20
f 2 20 21
f 2 21 3
f 3 28 8
f 15 29 16
f 23 32 6
f 13 12 25
f 13 25 26
f 13 26 14
f 3 21 28
f 8 28 22
f 22 29 15
f 16 29 30
f 16 31 17
f 23 33 32
f 27 14 34
f 27 35 19
f 22 28 36
f 16 30 31
f 6 32 37
f 6 37 10
f 12 38 25
f 25 39 26
f 20 40 21
f 20 19 40
f 36 28 41
f 36 42 22
f 18 17 31
f 18 31 33
f 11 10 24
f 35 45 19
f 21 40 46
f 21 41 28
f 36 41 47
f 22 42 29
f 18 33 23
f 33 50 43
f 43 32 33
f 10 37 24
f 37 32 51
f 12 24 38
f 26 39 44
f 26 44 14
f 14 44 34
f 27 34 35
f 35 52 45
f 19 45 40
f 21 46 41
f 30 29 48
f 31 30 53
f 24 37 38
f 25 38 54
f 25 54 39
f 40 45 57
f 40 57 46
f 47 41 59
f 47 59 60
f 42 62 61
f 30 48 63
f 31 53 49
f 31 49 33
f 43 51 32
f 44 39 65
f 34 55 66
f 35 56 52
f 52 67 45
f 45 67 57
f 41 46 58
f 47 60 68
f 36 47 42
f 63 53 30
f 49 53 69
f 49 69 33
f 33 69 50
f 43 50 51
f 37 64 38
f 64 37 51
f 39 54 65
f 44 55 34
f 35 34 56
f 46 57 58
f 58 59 41
f 61 29 42
f 42 47 62
f 63 70 53
f 38 64 54
f 65 71 44
f 55 72 66
f 34 66 56
f 52 56 73
f 52 73 67
f 57 67 74
f 60 59 75
f 60 75 68
f 59 76 75
f 29 61 48
f 53 70 69
f 50 69 77
f 64 78 54
f 66 80 56
f 67 81 74
f 74 58 57
f 58 74 76
f 58 76 59
f 75 76 82
f 47 68 62
f 50 83 51
f 64 51 78
f 65 84 79
f 65 79 71
f 55 44 71
f 55 71 72
f 67 73 81
f 48 61 63
f 77 69 70
f 50 77 83
f 54 78 87
f 65 54 88
f 65 88 84
f 80 73 56
f 81 73 89
f 81 89 90
f 74 81 91
f 85 75 82
f 76 91 82
f 76 74 91
f 68 75 86
f 62 68 92
f 62 92 61
f 63 93 70
f 70 93 94
f 70 94 77
f 51 95 78
f 54 87 88
f 66 72 80
f 73 80 96
f 81 90 91
f 82 97 85
f 75 85 86
f 63 100 93
f 83 95 51
f 80 72 102
f 73 96 89
f 89 96 90
f 91 98 82
f 98 97 82
f 86 92 68
f 86 85 99
f 61 92 100
f 61 100 63
f 77 101 83
f 95 104 78
f 78 104 87
f 88 105 84
f 84 106 79
f 72 71 106
f 91 90 107
f 91 107 98
f 98 107 97
f 94 108 77
f 83 101 95
f 88 87 109
f 84 110 106
f 97 99 85
f 100 111 93
f 101 77 108
f 88 109 105
f 79 106 71
f 72 106 102
f 80 102 96
f 90 115 107
f 103 99 97
f 97 107 115
f 97 115 103
f 86 99 92
f 111 116 93
f 93 116 112
f 93 112 94
f 94 112 117
f 95 101 104
f 104 113 87
f 87 113 109
f 84 105 110
f 102 114 96
f 90 114 115
f 99 103 118
f 99 118 92
f 94 117 108
f 108 117 119
f 101 108 104
f 104 108 113
f 109 120 105
f 105 120 121
f 105 121 110
f 110 122 106
f 96 114 90
f 114 123 115
f 100 92 111
f 116 124 112
f 102 106 122
f 114 102 123
f 92 118 111
f 116 125 124
f 112 124 117
f 113 119 109
f 110 121 126
f 102 122 123
f 115 127 103
f 103 125 118
f 118 116 111
f 116 118 125
f 117 124 128
f 108 119 113
f 109 119 120
f 122 110 126
f 127 115 123
f 120 126 121
f 126 123 122
f 125 103 127
f 125 129 124
f 129 128 124
f 117 128 119
f 127 129 125
f 120 128 126
f 127 123 126
f 127 126 129
f 128 129 126
f 119 128 120
f 130 131 134
f 130 134 132
f 130 132 133
f 130 133 131
f 131 133 134
f 132 134 133

