# https://github.com/mikedh/trimesh
v 0.01116733 -0.00448424 0.00817514
v 0.01113458 -0.00479340 0.00817514
v 0.01110400 -0.00475218 0.00737241
v 0.01113239 0.00479393 0.00817514
v 0.00746139 -0.00741781 0.02084697
v 0.00494017 -0.00860291 0.00052566
v 0.00794729 -0.00686734 0.03197327
v 0.00745156 -0.00741867 0.03158493
v 0.01110619 0.00475271 0.00738283
v 0.00879570 0.00422027 0.03085517
v 0.00879789 -0.00448253 0.03085517
v 0.00872473 -0.00527431 0.03085517
v 0.00840698 -0.00616915 0.03138164
v 0.00643936 -0.00797945 0.03270043
v 0.00450668 -0.00876780 0.00078889
v 0.00690233 -0.00748866 0.03372340
v 0.01058862 -0.00476420 0.00631425
v 0.00434726 -0.00854108 -0.00229176
v 0.00494781 0.00860344 0.00078368
v 0.00727686 0.00731271 0.02214752
v 0.00702899 0.00748532 0.03138164
v 0.00773109 0.00689277 0.03190811
v 0.00848779 0.00584850 0.03123047
v 0.00361459 -0.00862524 -0.00307104
v 0.00406992 -0.00817525 -0.00290684
v 0.01058644 0.00476645 0.00631425
v 0.00405791 0.00852615 -0.00276350
v 0.00483098 0.00852529 -0.00100164
v 0.00450450 0.00876832 0.00078368
v 0.00585628 0.00792415 0.03416517
v 0.00688268 0.00738398 0.03374816
v 0.00382314 -0.00845864 0.03611989
v 0.00187299 -0.00858230 0.03664637
v 0.00393670 0.00817749 -0.00309189
v 0.00268101 -0.00845521 -0.00423084
v 0.00371395 0.00876832 -0.00211713
v 0.00213723 0.00836470 0.03665679
v 0.00345189 0.00827711 0.03612510
v 0.00790907 0.00527398 0.03292978
v 0.00791017 -0.00553710 0.03293239
v 0.00682590 -0.00712239 0.03419644
v 0.00273123 -0.00846551 0.03748559
v -0.00710033 -0.00871455 0.00342125
v -0.00472215 -0.00876952 0.00264718
v 0.00127763 -0.00874440 -0.00422563
v 0.00563790 -0.00796914 0.03515296
v 0.00267882 0.00831661 -0.00423866
v 0.00240148 0.00833550 0.03718326
v -0.00498420 0.00876832 0.00289478
v -0.00683608 0.00872711 0.00342647
v 0.00531251 0.00792158 0.03535364
v 0.00739588 0.00633113 0.03356441
v -0.00250775 -0.00793307 0.04116048
v -0.00446227 -0.00777849 0.04140026
v -0.00393160 -0.00876608 -0.00184868
v -0.00247936 -0.00490848 0.04652945
v 0.00176708 -0.00831608 -0.00470258
v 0.00187081 0.00876489 -0.00396500
v -0.00254488 0.00792501 0.04116048
v -0.00041565 0.00795077 0.04013881
v -0.00366627 0.00875544 -0.00238298
v 0.00322478 0.00794219 0.03747517
v 0.00624609 0.00732301 0.03472031
v -0.00214961 -0.00448424 0.04632616
v -0.00411504 -0.00527603 0.04695167
v -0.00698786 -0.00693089 0.04368598
v -0.00551706 -0.00757067 0.04192673
v -0.00842809 -0.00844662 0.00314499
v -0.00049973 -0.00857200 -0.00485896
v 0.00028972 -0.00817525 -0.00501794
v 0.00163496 0.00831747 -0.00476513
v -0.00446227 0.00775154 0.04140547
v -0.00696711 0.00692197 0.04368338
v -0.00843027 0.00844543 0.00315020
v -0.00324588 0.00526711 0.04657897
v -0.00428101 0.00527656 0.04695167
v -0.00181985 0.00876489 -0.00396500
v -0.00247936 0.00490729 0.04653466
v -0.00215397 0.00448305 0.04633138
v -0.00790834 -0.00634434 0.04432452
v -0.00374379 -0.00851704 -0.00324045
v -0.00925903 -0.00794166 0.00342125
v 0.00028754 0.00817749 -0.00501273
v 0.00002548 0.00857253 -0.00486287
v -0.00551706 0.00754543 0.04193194
v -0.00789524 0.00633457 0.04431410
v -0.00373943 0.00851585 -0.00324566
v -0.00925685 0.00793961 0.00342647
v -0.00408010 0.00289948 0.04809845
v -0.00408665 -0.00289895 0.04809845
v -0.00419366 -0.00369246 0.04799941
v -0.00538384 -0.00485523 0.04701944
v -0.00582061 -0.00374398 0.04749900
v -0.00842154 -0.00580675 0.04430367
v -0.00996550 -0.00734739 0.00342125
v -0.00989343 -0.00728556 0.00303031
v -0.01059226 -0.00644568 0.00306158
v -0.01106178 -0.00529149 0.00314499
v -0.00995895 0.00734105 0.00342647
v -0.00840188 0.00577808 0.04403262
v -0.00898715 0.00482828 0.04435059
v -0.00538603 0.00486091 0.04702465
v -0.00419148 0.00369470 0.04800462
v -0.00988797 0.00728179 0.00303552
v -0.00323933 0.00817749 -0.00379298
v -0.01106178 0.00529545 0.00315020
v -0.01059007 0.00643934 0.00307201
v -0.00472215 -0.00223984 0.04819097
v -0.00899152 -0.00483634 0.04435059
v -0.01044812 -0.00673251 0.00342125
v -0.00294998 -0.00817525 -0.00401713
v -0.00157089 -0.00845349 -0.00476253
v -0.01113439 -0.00408534 0.00382002
v -0.01052128 0.00658876 0.00342647
v -0.00629231 0.00308669 0.04745208
v -0.00264970 0.00832520 -0.00425169
v -0.00544936 0.00263841 0.04798116
v -0.00949598 -0.00330601 0.04433495
v -0.00640041 -0.00249533 0.04742341
v -0.01110109 -0.00448081 0.00308765
v -0.00157089 0.00845401 -0.00475732
v -0.00927814 0.00412666 0.04403262
v -0.00949598 0.00330310 0.04433495
v -0.01110109 0.00447962 0.00308765
v -0.01112838 0.00395061 0.00421618
v -0.00552852 -0.00197620 0.04800722
v -0.00957678 -0.00236995 0.04403262
v -0.00636875 0.00184319 0.04751464
v -0.00958333 0.00184319 0.04403262
v 0.00025244 -0.00484387 0.02620830
v 0.00025244 -0.00484387 0.01998398
v 0.00029126 -0.00484387 0.02619916
v 0.00025244 0.00359502 0.02492761
v 0.00025244 0.00359502 0.02136703
v 0.00030049 0.00359502 0.02139201
v 0.00079590 -0.00484387 0.02033309
v 0.00078478 -0.00484387 0.02602613
v 0.00059048 0.00359502 0.02461323
v 0.00044192 0.00359502 0.02150289
v 0.00134020 -0.00484387 0.02083209
v 0.00130243 -0.00484387 0.02553810
v 0.00071365 0.00359502 0.02445543
v 0.00239607 -0.00484387 0.02436526
v 0.00075751 0.00359502 0.02187699
v 0.00239607 -0.00484387 0.02204332
v 0.00180875 -0.00484387 0.02136154
v 0.00116562 0.00359502 0.02356102
v 0.00239607 -0.00464067 0.02351471
v 0.00122438 0.00359502 0.02318388
v 0.00120214 0.00359502 0.02340809
v 0.00091509 0.00359502 0.02219259
v 0.00239607 -0.00453906 0.02294139
v 0.00118388 0.00359502 0.02277384
v 0.00121850 0.00359502 0.02294992
v -0.00128830 0.00479880 0.02665780
v -0.00074978 0.00479880 0.02658751
v -0.00180974 0.00479880 0.02654384
v -0.00164162 -0.00342713 0.02535714
v -0.00129523 -0.00342713 0.02540354
v -0.00075347 -0.00342713 0.02535850
v 0.00025244 0.00479880 0.02619581
v -0.00074609 -0.00342713 0.02535714
v -0.00029393 -0.00342713 0.02519541
v -0.00286784 0.00479880 0.02607025
v -0.00190534 -0.00342713 0.02523908
v 0.00025244 0.00479880 0.01992042
v -0.00028423 -0.00342713 0.02519131
v -0.00027961 -0.00342713 0.02518859
v 0.00018363 -0.00342713 0.02490129
v 0.00025244 -0.00342713 0.02484056
v -0.00385298 0.00479880 0.02540081
v -0.00267156 -0.00342713 0.02484192
v -0.00235011 -0.00342713 0.02502958
v 0.00024783 0.00479880 0.01991224
v 0.00025244 -0.00342713 0.02142854
v -0.00446586 0.00479880 0.02455668
v -0.00292280 -0.00342713 0.02452392
v -0.00023666 0.00479880 0.01976074
v -0.00010734 -0.00342713 0.02117468
v -0.00037198 -0.00342713 0.02101705
v -0.00446586 0.00479880 0.02163531
v -0.00446586 0.00471184 0.02447820
v -0.00342022 -0.00342713 0.02346893
v -0.00341976 -0.00342713 0.02347097
v -0.00325996 -0.00342713 0.02397459
v -0.00312925 -0.00342713 0.02423800
v -0.00076779 0.00479880 0.01969660
v -0.00076733 -0.00342713 0.02091059
v -0.00077056 -0.00342713 0.02090991
v -0.00446586 0.00443082 0.02228564
v -0.00385714 0.00479880 0.02090650
v -0.00273899 -0.00342713 0.02149746
v -0.00300317 -0.00342713 0.02182774
v -0.00318560 -0.00342713 0.02209320
v -0.00331630 -0.00342713 0.02241393
v -0.00331723 -0.00342713 0.02241734
v -0.00343362 -0.00342713 0.02294211
v -0.00446586 0.00451295 0.02416020
v -0.00446586 0.00443082 0.02402577
v -0.00129523 0.00479880 0.01968636
v -0.00129523 -0.00342713 0.02088057
v -0.00446586 0.00440747 0.02238186
v -0.00332508 0.00479880 0.02038378
v -0.00238059 -0.00342713 0.02123337
v -0.00446586 0.00440103 0.02384971
v -0.00446586 0.00433903 0.02346824
v -0.00446586 0.00432534 0.02294211
v -0.00446586 0.00434950 0.02277287
v -0.00172014 0.00479880 0.01970547
v -0.00182451 -0.00342713 0.02096587
v -0.00182313 0.00479880 0.01971775
v -0.00325257 0.00479880 0.02034147
v -0.00211825 -0.00342713 0.02107300
v -0.00230900 0.00479880 0.01983444
v -0.00223926 0.00479880 0.01981670
f 1 2 3
f 2 5 6
f 2 6 3
f 2 7 8
f 2 8 5
f 1 9 4
f 1 3 9
f 1 4 10
f 1 10 11
f 1 11 12
f 1 12 2
f 2 12 13
f 2 13 7
f 5 8 14
f 8 16 14
f 3 6 18
f 3 18 17
f 6 15 18
f 9 19 4
f 4 19 20
f 4 20 21
f 4 21 22
f 4 22 23
f 4 23 10
f 12 11 13
f 6 5 14
f 6 14 15
f 7 16 8
f 17 18 25
f 17 26 9
f 17 9 3
f 18 24 25
f 15 24 18
f 9 26 27
f 9 27 28
f 9 28 19
f 19 29 30
f 19 30 21
f 19 21 20
f 22 31 23
f 15 14 32
f 15 32 33
f 15 44 55
f 15 55 45
f 15 45 24
f 7 13 16
f 17 25 34
f 17 34 26
f 24 35 25
f 26 34 27
f 28 27 19
f 19 27 36
f 19 36 29
f 29 37 38
f 29 38 30
f 23 31 39
f 10 23 39
f 13 11 40
f 13 40 41
f 13 41 16
f 32 42 33
f 33 43 44
f 33 44 15
f 16 41 46
f 16 46 14
f 14 46 32
f 25 35 34
f 36 58 77
f 36 77 61
f 36 61 49
f 36 49 29
f 37 48 38
f 37 29 49
f 37 49 50
f 38 51 30
f 21 30 31
f 21 31 22
f 31 52 39
f 10 39 40
f 10 40 11
f 32 46 42
f 33 42 53
f 33 54 43
f 43 55 44
f 24 45 35
f 46 41 56
f 34 35 47
f 34 47 27
f 27 58 36
f 37 59 48
f 37 50 59
f 48 59 60
f 49 61 50
f 48 60 62
f 48 62 51
f 48 51 38
f 30 51 31
f 31 63 52
f 40 39 64
f 40 64 41
f 41 64 56
f 33 53 54
f 42 56 65
f 42 65 53
f 53 65 66
f 53 66 67
f 53 67 54
f 55 43 68
f 45 69 35
f 35 69 57
f 57 69 70
f 57 47 35
f 27 47 58
f 47 71 58
f 59 72 73
f 50 61 74
f 50 74 72
f 50 72 59
f 60 59 75
f 59 73 76
f 59 76 75
f 60 75 62
f 51 63 31
f 63 78 79
f 63 79 52
f 52 79 39
f 39 79 64
f 56 42 46
f 66 65 80
f 43 54 67
f 43 67 68
f 55 68 81
f 45 55 69
f 57 70 71
f 57 71 47
f 71 83 84
f 71 84 58
f 72 74 85
f 72 85 73
f 73 86 76
f 75 76 78
f 75 78 62
f 74 61 87
f 62 78 51
f 51 78 63
f 79 89 90
f 79 90 64
f 56 91 65
f 80 65 92
f 80 92 93
f 80 93 94
f 80 94 95
f 80 95 82
f 80 82 66
f 66 68 67
f 68 66 82
f 55 81 69
f 68 82 96
f 68 96 81
f 81 96 97
f 81 97 98
f 70 83 71
f 73 85 74
f 86 73 88
f 86 88 99
f 86 99 100
f 86 100 101
f 86 102 76
f 74 88 73
f 76 103 78
f 61 77 87
f 74 104 88
f 74 87 104
f 87 105 106
f 87 106 107
f 87 107 104
f 79 78 89
f 89 108 90
f 90 56 64
f 56 90 91
f 91 92 65
f 94 109 110
f 94 110 95
f 95 110 96
f 95 96 82
f 81 98 111
f 81 111 112
f 81 112 69
f 96 110 97
f 97 110 98
f 70 69 112
f 70 112 83
f 58 84 77
f 88 104 99
f 100 99 114
f 101 115 102
f 101 102 86
f 102 103 76
f 78 103 89
f 87 77 116
f 87 116 105
f 106 114 107
f 107 114 99
f 107 99 104
f 89 103 117
f 90 108 91
f 94 93 109
f 109 93 119
f 111 98 120
f 111 120 105
f 111 105 116
f 110 109 98
f 98 109 118
f 98 118 113
f 113 120 98
f 112 121 83
f 84 121 77
f 100 114 101
f 101 122 123
f 102 115 117
f 77 121 116
f 105 120 124
f 105 124 106
f 106 113 125
f 106 124 113
f 106 123 122
f 106 122 114
f 114 122 101
f 89 117 108
f 108 117 126
f 108 93 91
f 92 91 93
f 118 109 119
f 120 113 124
f 118 127 113
f 83 121 84
f 123 128 115
f 123 115 101
f 102 117 103
f 116 121 112
f 125 113 129
f 106 125 123
f 123 125 129
f 108 126 93
f 93 126 119
f 116 112 111
f 113 127 129
f 128 117 115
f 129 127 118
f 129 118 123
f 117 128 126
f 119 128 118
f 119 126 128
f 128 123 118
f 130 131 136
f 130 136 140
f 130 140 146
f 130 146 145
f 130 145 143
f 130 143 141
f 130 141 137
f 130 137 132
f 130 132 133
f 130 133 134
f 130 134 131
f 131 134 135
f 131 135 136
f 132 137 133
f 133 138 142
f 133 142 147
f 133 147 150
f 133 150 149
f 133 149 154
f 133 154 153
f 133 153 151
f 133 151 144
f 133 144 139
f 133 139 135
f 133 135 134
f 133 137 138
f 135 139 136
f 136 139 140
f 137 141 138
f 138 141 143
f 138 143 142
f 139 144 145
f 139 145 146
f 139 146 140
f 142 143 147
f 143 145 152
f 143 152 148
f 143 148 149
f 143 149 150
f 143 150 147
f 144 151 145
f 145 151 153
f 145 153 154
f 145 154 152
f 148 152 149
f 149 152 154
f 155 156 161
f 155 161 166
f 155 166 174
f 155 174 178
f 155 178 187
f 155 187 200
f 155 200 209
f 155 209 211
f 155 211 215
f 155 215 214
f 155 214 212
f 155 212 203
f 155 203 191
f 155 191 181
f 155 181 176
f 155 176 171
f 155 171 164
f 155 164 157
f 155 157 158
f 155 158 159
f 155 159 160
f 155 160 156
f 156 160 162
f 156 162 163
f 156 163 161
f 157 164 158
f 158 165 173
f 158 173 172
f 158 172 177
f 158 177 186
f 158 186 185
f 158 185 184
f 158 184 183
f 158 183 197
f 158 197 196
f 158 196 195
f 158 195 194
f 158 194 193
f 158 193 192
f 158 192 204
f 158 204 213
f 158 213 210
f 158 210 201
f 158 201 189
f 158 189 188
f 158 188 180
f 158 180 179
f 158 179 175
f 158 175 170
f 158 170 169
f 158 169 168
f 158 168 167
f 158 167 163
f 158 163 162
f 158 162 160
f 158 160 159
f 158 164 165
f 161 163 167
f 161 167 168
f 161 168 169
f 161 169 170
f 161 170 175
f 161 175 166
f 164 171 172
f 164 172 173
f 164 173 165
f 166 175 174
f 171 176 177
f 171 177 172
f 174 175 179
f 174 179 180
f 174 180 178
f 176 181 190
f 176 190 202
f 176 202 208
f 176 208 207
f 176 207 206
f 176 206 205
f 176 205 199
f 176 199 198
f 176 198 182
f 176 182 183
f 176 183 184
f 176 184 185
f 176 185 186
f 176 186 177
f 178 180 188
f 178 188 189
f 178 189 187
f 181 191 192
f 181 192 193
f 181 193 194
f 181 194 195
f 181 195 196
f 181 196 197
f 181 197 190
f 182 198 183
f 183 198 199
f 183 199 197
f 187 189 201
f 187 201 200
f 190 197 202
f 191 203 192
f 192 203 204
f 197 199 205
f 197 205 206
f 197 206 207
f 197 207 208
f 197 208 202
f 200 201 209
f 201 210 211
f 201 211 209
f 203 212 213
f 203 213 204
f 210 213 214
f 210 214 215
f 210 215 211
f 212 214 213

