# https://github.com/mikedh/trimesh
v 0.00955058 -0.00147607 0.01580034
v 0.00956974 0.00016980 0.01544165
v 0.00950051 0.00236950 0.01562099
v 0.00873876 0.00030805 0.02102310
v 0.00932900 -0.00353608 0.01502906
v 0.00274561 -0.00752133 -0.00097119
v 0.00271016 0.00731860 -0.00106720
v 0.00928037 0.00383733 0.01495614
v 0.00273220 -0.00774286 -0.00093496
v 0.00228617 -0.00763169 -0.00173748
v 0.00273220 0.00772474 -0.00094220
v 0.00939176 -0.00354100 0.01558114
v 0.00899938 -0.00281837 0.01873123
v 0.00893543 -0.00513211 0.01452861
v 0.00857515 -0.00588531 0.01414818
v 0.00734581 -0.00723417 0.01244259
v 0.00600533 -0.00807433 0.01048881
v 0.00220903 0.00761069 -0.00184255
v 0.00600533 0.00805293 0.01048881
v 0.00704567 0.00745193 0.01201053
v 0.00875529 0.00548894 0.01433478
v 0.00924156 0.00430500 0.01531936
v 0.00805965 0.00163681 0.02459370
v 0.00805774 -0.00165986 0.02459370
v 0.00187607 -0.00784624 -0.00150470
v 0.00490151 -0.00831884 0.00921346
v 0.00545342 -0.00824171 0.01104677
v 0.00233935 0.00785930 -0.00104727
v 0.00490438 0.00829579 0.00921165
v 0.00799534 0.00664120 0.01413437
v 0.00361564 -0.00836642 0.01031309
v 0.00125373 -0.00771661 -0.00252189
v 0.00865875 -0.00532000 0.01655486
v 0.00826279 -0.00631359 0.01470615
v 0.00680301 -0.00768338 0.01274422
v 0.00753122 -0.00712915 0.01370344
v 0.00126523 0.00770012 -0.00252733
v 0.00700015 0.00753521 0.01291949
v 0.00866331 0.00553263 0.01554038
v 0.00866618 0.00328597 0.02042664
v 0.00849131 -0.00373935 0.02100226
v 0.00819955 -0.00476782 0.02090897
v 0.00767638 -0.00348952 0.02569151
v 0.00165713 -0.00642354 -0.00236972
v 0.00570554 -0.00802234 0.01495750
v 0.00389542 0.00834769 0.00985385
v 0.00520908 0.00806278 0.01719615
v 0.00842436 0.00424921 0.02060542
v 0.00767638 0.00346975 0.02569514
v 0.00782394 0.00016980 0.02583282
v 0.00105156 -0.00838283 0.02714802
v 0.00010296 -0.00771004 -0.00270305
v 0.00031951 -0.00605761 -0.00286609
v 0.00502415 -0.00708484 0.03229650
v 0.00081968 0.00640377 -0.00276827
v 0.00004356 0.00769520 -0.00272117
v 0.00068937 0.00834830 0.02678570
v 0.00252332 0.00828020 0.02623680
v 0.00502990 0.00707328 0.03229288
v 0.00268429 -0.00819782 0.02770055
v -0.00097211 -0.00735232 -0.00270305
v -0.00077089 -0.00760010 -0.00214871
v 0.00068554 -0.00836807 0.02714802
v -0.00022569 -0.00715704 -0.00285885
v 0.00381110 -0.00807598 0.02517341
v 0.00498008 0.00687555 0.03276570
v 0.00745600 0.00439484 0.02569967
v -0.00553302 -0.00749180 0.02972045
v 0.00745600 -0.00435758 0.02580746
v 0.00503949 -0.00678783 0.03266244
v 0.00429211 -0.00710823 0.03333091
v -0.00097402 0.00733255 -0.00271030
v 0.00308433 0.00810995 0.02752120
v 0.00183487 0.00825928 0.02792926
v 0.00417234 0.00718323 0.03320772
v 0.00288742 -0.00718494 0.03376025
v -0.00170607 -0.00734575 -0.00200016
v -0.00498686 -0.00404416 -0.00050380
v -0.00508651 -0.00220630 -0.00052917
v -0.00391562 -0.00771004 0.03027841
v -0.00610793 -0.00734739 0.02991248
v -0.00718492 -0.00697490 0.02952480
v -0.00022569 0.00585488 -0.00288421
v 0.00453740 -0.00678783 0.03341062
v -0.00077281 0.00760167 -0.00214509
v -0.00553494 0.00749337 0.02972045
v 0.00463322 0.00676971 0.03331823
v -0.00049829 -0.00786470 0.03081826
v 0.00367504 -0.00690106 0.03395590
v -0.00247740 -0.00701264 -0.00119401
v -0.00411684 -0.00574665 -0.00006178
v -0.00535672 -0.00260997 -0.00015598
v 0.00194266 -0.00699295 0.03395590
v -0.00779528 -0.00647441 0.02957009
v -0.00173769 0.00733912 -0.00190777
v -0.00499070 0.00402604 -0.00050380
v -0.00636280 0.00729481 0.02935814
v -0.00395395 0.00769356 0.03028204
v -0.00040966 0.00785766 0.03082188
v 0.00288742 0.00718158 0.03375663
v 0.00379769 0.00676971 0.03393779
v -0.00781156 -0.00653841 0.02898133
v -0.00343749 -0.00643872 -0.00001649
v -0.00460359 -0.00512391 0.00005416
v -0.00535456 0.00238406 -0.00012971
v -0.00525132 -0.00349280 0.00004691
v 0.00288742 -0.00678783 0.03411532
v -0.00976049 -0.00370776 0.02918060
v -0.00939064 -0.00479407 0.02918785
v -0.00251285 0.00701421 -0.00105452
v -0.00751645 0.00674509 0.02921321
v -0.00611943 0.00733091 0.02991972
v 0.00194458 0.00697482 0.03395228
v -0.00882340 -0.00559281 0.02898133
v -0.00977582 -0.00374879 0.02869510
v -0.00992913 -0.00293980 0.02862264
v -0.00998854 -0.00202251 0.02862264
v -0.00999237 0.00200274 0.02862264
v -0.00976864 0.00331304 0.02918422
v -0.00417625 0.00568668 -0.00007627
v -0.00479331 0.00473329 -0.00003098
v -0.00361667 0.00630860 0.00005054
v -0.00780103 0.00645875 0.02957190
v 0.00288742 0.00676971 0.03411170
v -0.00993201 0.00291921 0.02862264
v -0.00977966 0.00373559 0.02868423
v -0.00917696 0.00508773 0.02891068
v -0.00863176 0.00583272 0.02898495
v -0.00941459 0.00467257 0.02919872
f 1 2 3
f 1 3 4
f 2 6 7
f 2 7 8
f 2 8 3
f 5 6 2
f 6 5 9
f 6 10 7
f 7 11 8
f 2 1 12
f 2 12 5
f 9 10 6
f 9 5 14
f 9 14 15
f 9 15 16
f 9 16 17
f 5 12 14
f 10 18 7
f 7 18 11
f 11 19 20
f 11 20 21
f 11 21 8
f 8 21 22
f 3 23 4
f 1 13 12
f 1 4 24
f 9 17 26
f 9 26 25
f 9 25 10
f 17 27 26
f 18 28 11
f 11 28 29
f 11 29 19
f 21 20 30
f 8 22 3
f 1 24 13
f 25 26 31
f 14 12 33
f 14 33 15
f 16 35 17
f 16 36 35
f 17 35 27
f 19 38 20
f 21 30 39
f 21 39 22
f 3 40 23
f 4 23 24
f 12 13 41
f 10 25 32
f 32 44 10
f 10 44 18
f 15 33 34
f 34 36 15
f 15 36 16
f 35 45 27
f 18 37 28
f 28 46 29
f 20 38 30
f 3 48 40
f 23 40 49
f 23 50 24
f 24 50 43
f 12 41 42
f 26 27 51
f 26 51 31
f 25 31 52
f 25 52 32
f 12 42 33
f 36 34 54
f 44 37 18
f 28 37 56
f 28 56 46
f 29 46 57
f 47 19 29
f 47 29 58
f 19 47 38
f 22 48 3
f 23 49 50
f 13 24 41
f 24 43 41
f 27 60 51
f 51 63 31
f 52 64 32
f 32 64 53
f 44 32 55
f 44 55 37
f 34 33 54
f 54 35 36
f 54 33 42
f 37 55 56
f 57 58 29
f 38 59 30
f 59 66 67
f 59 39 30
f 59 38 47
f 39 48 22
f 40 48 49
f 27 65 60
f 61 64 52
f 52 31 63
f 52 63 62
f 62 63 68
f 52 62 61
f 32 53 55
f 54 42 69
f 54 70 71
f 54 69 70
f 54 71 60
f 54 60 65
f 54 65 45
f 54 45 35
f 56 57 46
f 58 73 47
f 59 47 73
f 59 73 74
f 59 74 75
f 59 75 66
f 66 49 67
f 67 48 59
f 59 48 39
f 50 66 70
f 41 43 69
f 43 50 70
f 45 65 27
f 60 71 76
f 60 76 51
f 61 62 77
f 61 77 78
f 61 78 79
f 68 80 81
f 62 68 82
f 62 82 77
f 63 80 68
f 64 83 53
f 70 84 71
f 69 43 70
f 55 53 56
f 56 53 83
f 56 83 72
f 72 85 56
f 56 85 57
f 57 85 86
f 57 74 58
f 58 74 73
f 66 50 49
f 49 48 67
f 41 69 42
f 51 76 88
f 71 89 76
f 77 82 90
f 77 91 78
f 61 79 72
f 78 92 79
f 64 61 72
f 64 72 83
f 80 76 93
f 80 93 81
f 81 94 82
f 81 93 94
f 68 81 82
f 63 51 80
f 51 88 80
f 72 96 95
f 72 95 85
f 85 95 97
f 85 97 86
f 57 86 98
f 75 100 101
f 75 101 66
f 75 74 100
f 66 101 87
f 87 84 66
f 66 84 70
f 90 82 102
f 90 102 103
f 90 103 91
f 90 91 77
f 91 104 78
f 79 92 105
f 78 106 92
f 93 108 109
f 93 109 94
f 94 102 82
f 84 87 101
f 71 84 89
f 72 79 96
f 96 79 105
f 95 111 97
f 97 112 86
f 86 112 98
f 98 112 113
f 98 113 100
f 57 98 74
f 74 98 99
f 99 100 74
f 100 113 101
f 76 89 93
f 76 80 88
f 103 102 114
f 103 114 91
f 91 114 104
f 104 114 109
f 78 104 109
f 78 109 115
f 78 115 106
f 106 115 116
f 92 106 116
f 92 116 117
f 92 117 118
f 92 118 105
f 93 89 107
f 93 107 113
f 93 113 119
f 93 119 108
f 109 114 94
f 94 114 102
f 84 101 89
f 95 96 120
f 96 121 120
f 95 120 110
f 110 120 122
f 110 122 111
f 95 110 111
f 97 111 112
f 112 111 123
f 112 123 113
f 98 100 99
f 113 124 101
f 115 109 108
f 115 108 116
f 116 108 117
f 117 108 118
f 107 124 113
f 119 118 108
f 105 118 125
f 96 105 125
f 96 125 126
f 96 126 121
f 121 126 127
f 121 127 120
f 111 128 123
f 113 123 129
f 113 129 119
f 124 107 101
f 101 107 89
f 119 129 126
f 120 127 128
f 120 128 122
f 125 118 119
f 125 119 126
f 126 129 127
f 122 128 111
f 123 128 127
f 123 127 129

