# https://github.com/mikedh/trimesh
v 0.00300083 0.00153136 0.00455392
v 0.00201031 -0.00345869 -0.01142971
v 0.00201031 0.00343505 -0.01142971
v 0.00292439 -0.00243351 0.00438162
v 0.00201031 -0.00449005 -0.01074732
v 0.00201247 0.00446949 -0.01075071
v 0.00262024 -0.00100690 0.00583892
v 0.00176053 -0.00487758 -0.01048930
v 0.00179498 0.00489254 -0.01022449
v 0.00235053 0.00514265 -0.00013796
v 0.00234623 0.00342733 0.00609185
v 0.00235053 -0.00362930 0.00592889
v 0.00225148 -0.00529503 0.00360884
v 0.00119636 -0.00675271 0.00307540
v 0.00034365 -0.00725063 0.00297525
v -0.00263436 -0.00786049 0.00008950
v -0.00263436 0.00783530 0.00008271
v -0.00032172 0.00741844 0.00296336
v 0.00119313 0.00672598 0.00311105
v 0.00202108 0.00584824 0.00336567
v 0.00007288 -0.00490460 -0.01067433
v -0.00022697 -0.00361926 -0.01153496
v -0.00182903 0.00344277 -0.01143650
v -0.00401033 0.00785460 -0.00042993
v 0.00079908 -0.00343476 0.00952249
v 0.00102558 -0.00504105 0.00750183
v -0.00244487 -0.00723365 0.00920166
v -0.00367010 -0.00767985 0.00763997
v -0.00504068 -0.00785663 -0.00059968
v -0.00059034 0.00488675 -0.01066669
v -0.00617749 0.00762311 0.00903722
v -0.00359057 0.00752121 0.00879639
v -0.00125618 0.00691019 0.00803559
v -0.00054674 0.00074819 0.01216295
v -0.00870345 -0.00760594 0.00559512
v -0.00839768 -0.00742356 -0.00166571
v -0.00757727 0.00756666 -0.00149257
v -0.00031902 0.00419814 0.01115803
v -0.00100674 -0.00343090 0.01260642
v -0.00177735 -0.00619920 0.01124205
v -0.00512224 -0.00714381 0.01251794
v -0.00281524 -0.00347259 -0.01119291
v -0.00419336 0.00484892 -0.00985104
v -0.00948066 0.00749506 0.00594544
v 0.00032993 0.00549371 0.00841827
v -0.00739372 -0.00742290 0.01164073
v -0.00366580 -0.00488067 -0.01011924
v -0.00494917 0.00337560 -0.01043668
v -0.00908566 0.00723780 -0.00185244
v -0.00758804 0.00713483 0.01367987
v -0.00197707 0.00612027 0.01156988
v -0.01040994 -0.00657438 -0.00218854
v -0.00528508 -0.00486214 -0.00940969
v -0.00561992 0.00601190 0.01615885
v -0.00206495 0.00512992 0.01314028
v -0.00465544 -0.00629071 0.01468999
v -0.01099208 -0.00728677 0.01125967
v -0.01181235 -0.00678634 0.00437016
v -0.00728335 -0.00346950 -0.00903285
v -0.00728550 0.00344431 -0.00903285
v -0.00729788 0.00481727 -0.00792438
v -0.01017954 0.00669046 -0.00213252
v -0.01190218 0.00698768 0.01416175
v -0.01265315 0.00694329 0.01029825
v -0.00923639 0.00652912 0.01678353
v -0.00278294 0.00290702 0.01504784
v -0.00257057 -0.00328886 0.01473296
v -0.00280663 -0.00448387 0.01467779
v -0.00840199 -0.00656560 0.01652551
v -0.01248142 -0.00700457 0.01025326
v -0.01142630 -0.00555229 -0.00252125
v -0.01182466 0.00657158 0.00266630
v -0.00891165 0.00566190 0.01872749
v -0.00548258 -0.00527959 0.01682968
v -0.01268725 -0.00666837 0.01603122
v -0.01454967 -0.00639876 0.01520656
v -0.01500402 -0.00568873 0.01047521
v -0.00899522 -0.00347104 -0.00731837
v -0.01158672 0.00534182 -0.00251446
v -0.00866254 0.00346129 -0.00766806
v -0.00502507 0.00490604 0.01675722
v -0.01296565 -0.00611766 0.01836178
v -0.01553965 -0.00587999 0.01402850
v -0.01226717 -0.00417740 -0.00252295
v -0.01245128 0.00359562 -0.00256878
v -0.00758589 0.00466326 0.01898943
v -0.00532142 -0.00329523 0.01761085
v -0.01206530 -0.00563730 0.01960923
v -0.01482206 0.00496587 0.00781311
v -0.01529929 0.00574518 0.01221302
v -0.00793795 -0.00416582 0.01949868
v -0.00923989 -0.00546071 0.01920395
v -0.01482422 -0.00499492 0.00780972
v -0.01255356 -0.00291291 -0.00258236
v -0.01578028 0.00578031 0.01656540
v -0.01283752 0.00523568 0.02029056
v -0.00644692 0.00352826 0.01851816
v -0.01695141 -0.00463055 0.01605064
v -0.01791205 0.00233730 0.01608332
v -0.01271586 0.00226106 -0.00233325
v -0.01698472 0.00449613 0.01570753
v -0.01424821 0.00599955 0.01828667
v -0.01082876 0.00414143 0.02091704
v -0.01691507 -0.00484516 0.01922708
v -0.01799657 -0.00081622 0.01597892
v -0.01839197 0.00277795 0.01926018
v -0.00818235 0.00075880 0.02007922
v -0.01269514 -0.00405195 0.02156580
v -0.01595066 -0.00496221 0.02008771
v -0.01861188 -0.00243505 0.01979065
v -0.00974659 0.00206503 0.02098208
v -0.01592106 -0.00397273 0.02158193
v -0.01593532 0.00530940 0.01922114
v -0.01442128 0.00384294 0.02192122
v -0.01055421 -0.00235863 0.02136932
v -0.01894995 0.00068373 0.02017089
v -0.01762782 0.00416688 0.01930516
v -0.01655978 0.00411747 0.02121994
v -0.01361581 0.00241512 0.02246834
v -0.01246662 0.00038545 0.02233328
v -0.01380786 -0.00241035 0.02257794
v -0.01562309 -0.00315202 0.02236830
v -0.01785715 -0.00279171 0.02166468
v -0.01860327 -0.00155963 0.02154586
v -0.01859896 0.00177376 0.02135235
v -0.01644081 0.00273872 0.02243471
v -0.01793359 0.00241449 0.02190912
v -0.01760413 -0.00143303 0.02259491
v -0.01566078 0.00063567 0.02304263
f 1 2 3
f 1 4 2
f 2 4 5
f 3 6 1
f 6 9 10
f 6 10 1
f 1 11 7
f 1 7 4
f 8 5 13
f 8 13 14
f 8 14 15
f 8 15 16
f 5 4 13
f 9 17 18
f 9 18 19
f 9 19 20
f 9 20 10
f 10 20 11
f 10 11 1
f 7 12 4
f 4 12 13
f 8 16 21
f 8 21 5
f 5 22 2
f 17 9 24
f 7 25 12
f 13 26 14
f 16 29 21
f 5 21 22
f 23 6 3
f 2 22 23
f 2 23 3
f 6 30 9
f 17 31 18
f 11 34 7
f 7 34 25
f 15 14 27
f 15 27 28
f 15 28 16
f 6 23 30
f 9 30 24
f 24 31 17
f 18 31 32
f 18 33 19
f 29 16 35
f 29 36 21
f 13 12 26
f 24 30 37
f 18 32 33
f 11 38 34
f 12 25 26
f 14 40 27
f 27 41 28
f 22 42 23
f 22 21 42
f 37 30 43
f 37 44 24
f 20 19 33
f 20 33 45
f 25 34 39
f 36 47 21
f 23 42 48
f 23 43 30
f 37 43 49
f 24 44 31
f 20 45 11
f 14 26 40
f 28 41 46
f 28 46 16
f 16 46 35
f 29 35 36
f 36 52 53
f 36 53 47
f 21 47 42
f 23 48 43
f 32 31 50
f 33 32 54
f 11 45 38
f 25 40 26
f 27 40 56
f 27 56 41
f 42 47 53
f 42 53 59
f 42 59 48
f 49 43 61
f 49 61 62
f 44 64 63
f 32 50 65
f 33 54 51
f 33 51 45
f 38 45 55
f 38 55 66
f 38 66 34
f 39 68 25
f 46 41 69
f 35 57 70
f 36 58 52
f 52 71 53
f 53 71 59
f 43 48 60
f 49 62 72
f 37 49 44
f 65 54 32
f 51 55 45
f 34 66 67
f 39 67 68
f 25 68 40
f 41 56 69
f 46 57 35
f 36 35 58
f 48 59 60
f 60 61 43
f 63 31 44
f 44 49 64
f 65 73 54
f 51 54 55
f 34 67 39
f 40 68 56
f 69 75 46
f 57 76 70
f 35 70 58
f 52 58 77
f 52 77 71
f 59 71 78
f 62 61 79
f 62 79 72
f 61 80 79
f 31 63 50
f 55 54 81
f 55 81 66
f 68 74 56
f 70 83 58
f 71 84 78
f 78 60 59
f 60 78 80
f 60 80 61
f 79 80 85
f 49 72 64
f 66 87 67
f 67 87 68
f 56 74 69
f 69 88 82
f 69 82 75
f 57 46 75
f 57 75 76
f 71 77 84
f 79 85 89
f 50 63 65
f 54 73 86
f 54 86 81
f 69 74 92
f 69 92 88
f 83 77 58
f 84 77 93
f 78 84 94
f 79 89 72
f 80 78 94
f 80 94 85
f 72 89 90
f 64 72 95
f 64 95 63
f 65 96 73
f 81 97 66
f 66 97 87
f 68 87 74
f 74 91 92
f 70 76 83
f 77 83 98
f 85 99 89
f 85 100 99
f 65 102 96
f 73 103 86
f 81 86 97
f 74 87 91
f 83 76 104
f 77 98 93
f 93 98 84
f 94 84 105
f 89 99 101
f 94 100 85
f 90 95 72
f 89 101 90
f 63 95 102
f 63 102 65
f 73 96 103
f 97 107 87
f 92 108 88
f 88 109 82
f 76 75 109
f 83 104 98
f 84 110 105
f 94 105 100
f 100 105 99
f 92 91 108
f 88 112 109
f 84 98 110
f 102 113 96
f 86 111 97
f 86 103 111
f 87 107 91
f 91 115 108
f 82 109 75
f 76 109 104
f 99 106 101
f 99 105 116
f 99 116 106
f 90 101 95
f 101 117 95
f 113 118 96
f 96 118 114
f 96 114 103
f 103 114 119
f 97 111 107
f 88 108 112
f 104 110 98
f 105 110 116
f 101 106 117
f 103 119 120
f 103 120 111
f 91 107 115
f 108 121 122
f 108 122 112
f 112 123 109
f 110 124 116
f 116 125 106
f 117 113 95
f 102 95 113
f 118 126 114
f 107 111 115
f 104 109 123
f 110 104 124
f 118 127 126
f 118 117 127
f 114 126 119
f 115 121 108
f 112 122 128
f 104 123 124
f 113 117 118
f 117 125 127
f 119 126 129
f 111 120 115
f 115 120 121
f 123 112 128
f 125 116 124
f 106 125 117
f 121 128 122
f 128 124 123
f 127 129 126
f 119 129 120
f 125 124 127
f 121 129 128
f 124 128 127
f 129 127 128
f 120 129 121

