# https://github.com/mikedh/trimesh
v 0.01116733 -0.00448425 0.00817514
v 0.01113239 0.00479393 0.00817514
v 0.01113458 -0.00479512 0.00817514
v 0.01110400 -0.00475218 0.00737762
v 0.01110618 0.00475271 0.00738283
v 0.00879674 0.00422027 0.03085517
v 0.00879783 -0.00448253 0.03085517
v 0.00872467 -0.00527432 0.03085517
v 0.00840691 -0.00616916 0.03138164
v 0.00794721 -0.00686734 0.03197327
v 0.00746130 -0.00741781 0.02084176
v 0.00494001 -0.00860292 0.00052305
v 0.00745147 -0.00741867 0.03158493
v 0.00494766 0.00860344 0.00078368
v 0.00727676 0.00731271 0.02214752
v 0.00702889 0.00748532 0.03138164
v 0.00773101 0.00689277 0.03190811
v 0.00848772 0.00584850 0.03123047
v 0.00643706 -0.00799834 0.03190811
v 0.00450651 -0.00876780 0.00078889
v 0.00644143 -0.00796056 0.03349274
v 0.01059079 -0.00462423 0.00631425
v 0.00434709 -0.00854109 -0.00229176
v 0.01058642 0.00476645 0.00631425
v 0.00405882 0.00852615 -0.00276350
v 0.00483191 0.00852529 -0.00100164
v 0.00450433 0.00876833 0.00078368
v 0.00585615 0.00792415 0.03416517
v 0.00688257 0.00738398 0.03374816
v 0.00701633 -0.00716318 0.03389281
v 0.00393761 -0.00817696 -0.00308407
v 0.00393652 0.00817749 -0.00309189
v 0.00344952 0.00873913 -0.00291205
v 0.00213919 0.00836470 0.03665679
v 0.00345388 0.00827711 0.03612510
v 0.00799416 0.00553762 0.03279425
v 0.00782382 -0.00553710 0.03306531
v 0.00530035 -0.00828517 0.03190290
v 0.00382514 -0.00845864 0.03612510
v 0.00187494 -0.00858231 0.03664637
v 0.00297889 -0.00831609 -0.00400670
v -0.00076755 0.00877090 0.00263155
v 0.00240344 0.00833550 0.03718326
v -0.00683654 0.00872711 0.00342125
v 0.00531236 0.00792158 0.03535364
v 0.00739578 0.00633113 0.03356441
v 0.00563776 -0.00796828 0.03515817
v 0.00273321 -0.00846551 0.03749080
v -0.00710079 -0.00871284 0.00342125
v -0.00472255 -0.00877038 0.00263936
v 0.00187057 -0.00876437 -0.00395979
v 0.00267861 0.00831661 -0.00423866
v 0.00160851 0.00876919 -0.00396500
v -0.00254522 0.00792501 0.04116048
v -0.00041594 0.00795078 0.04013881
v -0.00366555 0.00875544 -0.00238298
v 0.00322458 0.00794219 0.03747517
v 0.00624597 0.00732301 0.03472031
v -0.00215212 0.00448305 0.04633138
v -0.00215212 -0.00448425 0.04632616
v -0.00247971 -0.00490848 0.04652424
v -0.00250810 -0.00793307 0.04116569
v -0.00446048 -0.00778021 0.04140026
v -0.00393198 -0.00876608 -0.00184868
v 0.00162816 -0.00845693 -0.00476253
v 0.00163581 0.00831747 -0.00476513
v -0.00446048 0.00775326 0.04140026
v -0.00551748 0.00754715 0.04193194
v -0.00696757 0.00692197 0.04368859
v -0.00762710 0.00863436 0.00342125
v -0.00324625 0.00526625 0.04658158
v -0.00428359 0.00527656 0.04694646
v -0.00181799 0.00876489 -0.00396500
v -0.00842858 0.00844714 0.00315020
v -0.00247971 0.00490900 0.04653466
v -0.00411324 -0.00527603 0.04695167
v -0.00698722 -0.00693089 0.04369119
v -0.00551529 -0.00757067 0.04193194
v -0.00842640 -0.00844490 0.00315541
v 0.00028945 -0.00817696 -0.00501794
v 0.00028945 0.00817749 -0.00501273
v 0.00002684 0.00857253 -0.00486287
v -0.00789790 0.00633628 0.04431410
v -0.00373980 0.00851585 -0.00324566
v -0.00925736 0.00794047 0.00342125
v -0.00408049 0.00289948 0.04809845
v -0.00408704 -0.00289895 0.04809845
v -0.00790882 -0.00634606 0.04432974
v -0.00374199 -0.00851704 -0.00324045
v -0.00925736 -0.00794080 0.00342125
v -0.00995948 0.00733933 0.00342125
v -0.00840238 0.00577980 0.04403783
v -0.00898984 0.00483000 0.04435580
v -0.00538863 0.00485920 0.04701944
v -0.00419405 0.00369642 0.04799941
v -0.00988960 0.00728265 0.00304073
v -0.00323969 0.00817749 -0.00379298
v -0.01106234 0.00529373 0.00315541
v -0.01059062 0.00643934 0.00307201
v -0.00472255 -0.00224027 0.04819097
v -0.00419405 -0.00369418 0.04800462
v -0.00538426 -0.00485695 0.04702465
v -0.00605143 -0.00340391 0.04747815
v -0.00842421 -0.00580675 0.04431410
v -0.00996385 -0.00734567 0.00342125
v -0.00989178 -0.00728470 0.00303813
v -0.01059280 -0.00644568 0.00307201
v -0.01106015 -0.00529149 0.00315541
v -0.00157121 -0.00845177 -0.00476253
v -0.00629057 0.00308669 0.04745730
v -0.00264896 0.00832520 -0.00425169
v -0.00532202 0.00197716 0.04806717
v -0.00525978 -0.00317032 0.04800462
v -0.00899202 -0.00483462 0.04435580
v -0.01066105 -0.00633146 0.00342125
v -0.00295033 -0.00817696 -0.00402234
v -0.01113741 -0.00408749 0.00375095
v -0.00157121 0.00845401 -0.00475732
v -0.00927920 0.00412709 0.04403783
v -0.00949868 0.00330310 0.04434016
v -0.01110165 -0.00448253 0.00308765
v -0.01110165 0.00447962 0.00309286
v -0.01113113 0.00369126 0.00421618
v -0.00951233 -0.00297066 0.04435059
v -0.00928521 -0.00412571 0.04403783
v -0.00635608 0.00236876 0.04750942
v -0.00958385 0.00184490 0.04403783
v -0.00649476 -0.00210631 0.04738953
v -0.00957730 -0.00237167 0.04403783
v 0.00025244 -0.00484387 0.02620830
v 0.00025244 -0.00484387 0.01998398
v 0.00029126 -0.00484387 0.02619916
v 0.00025244 0.00359502 0.02492761
v 0.00025244 0.00359502 0.02136703
v 0.00030049 0.00359502 0.02139201
v 0.00079590 -0.00484387 0.02033309
v 0.00078478 -0.00484387 0.02602613
v 0.00059048 0.00359502 0.02461323
v 0.00044192 0.00359502 0.02150289
v 0.00134020 -0.00484387 0.02083209
v 0.00130243 -0.00484387 0.02553810
v 0.00071365 0.00359502 0.02445543
v 0.00239607 -0.00484387 0.02436526
v 0.00075751 0.00359502 0.02187699
v 0.00239607 -0.00484387 0.02204332
v 0.00180875 -0.00484387 0.02136154
v 0.00116562 0.00359502 0.02356102
v 0.00239607 -0.00464067 0.02351471
v 0.00122438 0.00359502 0.02318388
v 0.00120214 0.00359502 0.02340809
v 0.00091509 0.00359502 0.02219259
v 0.00239607 -0.00453906 0.02294139
v 0.00118388 0.00359502 0.02277384
v 0.00121850 0.00359502 0.02294992
v -0.00128830 0.00479880 0.02665780
v -0.00074978 0.00479880 0.02658751
v -0.00180974 0.00479880 0.02654384
v -0.00164162 -0.00342713 0.02535714
v -0.00129523 -0.00342713 0.02540354
v -0.00075347 -0.00342713 0.02535850
v 0.00025244 0.00479880 0.02619581
v -0.00074609 -0.00342713 0.02535714
v -0.00029393 -0.00342713 0.02519541
v -0.00286784 0.00479880 0.02607025
v -0.00190534 -0.00342713 0.02523908
v 0.00025244 0.00479880 0.01992042
v -0.00028423 -0.00342713 0.02519131
v -0.00027961 -0.00342713 0.02518859
v 0.00018363 -0.00342713 0.02490129
v 0.00025244 -0.00342713 0.02484056
v -0.00385298 0.00479880 0.02540081
v -0.00267156 -0.00342713 0.02484192
v -0.00235011 -0.00342713 0.02502958
v 0.00024783 0.00479880 0.01991224
v 0.00025244 -0.00342713 0.02142854
v -0.00446586 0.00479880 0.02455668
v -0.00292280 -0.00342713 0.02452392
v -0.00023666 0.00479880 0.01976074
v -0.00010734 -0.00342713 0.02117468
v -0.00037198 -0.00342713 0.02101705
v -0.00446586 0.00479880 0.02163531
v -0.00446586 0.00471184 0.02447820
v -0.00342022 -0.00342713 0.02346893
v -0.00341976 -0.00342713 0.02347097
v -0.00325996 -0.00342713 0.02397459
v -0.00312925 -0.00342713 0.02423800
v -0.00076779 0.00479880 0.01969660
v -0.00076733 -0.00342713 0.02091059
v -0.00077056 -0.00342713 0.02090991
v -0.00446586 0.00443082 0.02228564
v -0.00385714 0.00479880 0.02090650
v -0.00273899 -0.00342713 0.02149746
v -0.00300317 -0.00342713 0.02182774
v -0.00318560 -0.00342713 0.02209320
v -0.00331630 -0.00342713 0.02241393
v -0.00331723 -0.00342713 0.02241734
v -0.00343362 -0.00342713 0.02294211
v -0.00446586 0.00451295 0.02416020
v -0.00446586 0.00443082 0.02402577
v -0.00129523 0.00479880 0.01968636
v -0.00129523 -0.00342713 0.02088057
v -0.00446586 0.00440747 0.02238186
v -0.00332508 0.00479880 0.02038378
v -0.00238059 -0.00342713 0.02123337
v -0.00446586 0.00440103 0.02384971
v -0.00446586 0.00433903 0.02346824
v -0.00446586 0.00432534 0.02294211
v -0.00446586 0.00434950 0.02277287
v -0.00172014 0.00479880 0.01970547
v -0.00182451 -0.00342713 0.02096587
v -0.00182313 0.00479880 0.01971775
v -0.00325257 0.00479880 0.02034147
v -0.00211825 -0.00342713 0.02107300
v -0.00230900 0.00479880 0.01983444
v -0.00223926 0.00479880 0.01981670
f 1 3 4
f 1 4 2
f 1 2 6
f 1 6 7
f 1 7 8
f 1 8 3
f 3 8 9
f 3 9 10
f 3 11 12
f 3 12 4
f 3 10 13
f 3 13 11
f 4 5 2
f 5 14 2
f 2 14 15
f 2 15 16
f 2 16 17
f 2 17 18
f 2 18 6
f 8 7 9
f 11 13 19
f 13 21 19
f 4 12 23
f 4 23 22
f 5 24 25
f 5 25 26
f 5 26 14
f 14 27 28
f 14 28 16
f 14 16 15
f 17 29 18
f 10 30 13
f 13 30 21
f 12 11 19
f 12 19 20
f 20 23 12
f 22 23 31
f 22 24 5
f 22 5 4
f 24 32 25
f 26 25 14
f 14 25 33
f 14 33 27
f 27 34 35
f 27 35 28
f 18 29 36
f 6 18 36
f 9 7 37
f 9 37 30
f 9 30 10
f 20 19 38
f 20 38 39
f 20 39 40
f 20 50 64
f 20 64 51
f 22 31 32
f 22 32 24
f 23 41 31
f 27 33 53
f 27 53 42
f 27 42 34
f 34 43 35
f 34 42 44
f 35 45 28
f 16 28 29
f 16 29 17
f 29 46 36
f 6 36 37
f 6 37 7
f 30 47 21
f 39 48 40
f 40 49 50
f 40 50 20
f 19 21 38
f 20 51 23
f 31 41 32
f 23 51 41
f 25 32 52
f 25 53 33
f 34 54 43
f 34 44 54
f 43 54 55
f 42 56 44
f 43 55 57
f 43 57 45
f 43 45 35
f 28 45 29
f 29 45 58
f 29 58 46
f 37 36 59
f 37 59 60
f 37 60 30
f 30 60 61
f 30 61 47
f 47 39 21
f 38 21 39
f 39 47 48
f 40 48 62
f 40 63 49
f 49 64 50
f 41 51 65
f 25 52 53
f 32 41 52
f 52 66 53
f 54 67 68
f 54 68 69
f 44 56 70
f 44 70 67
f 44 67 54
f 55 54 71
f 54 69 72
f 54 72 71
f 42 53 56
f 56 53 73
f 56 74 70
f 55 71 57
f 58 45 75
f 58 75 59
f 58 59 46
f 46 59 36
f 40 62 63
f 48 61 76
f 48 76 62
f 62 76 77
f 62 77 78
f 62 78 63
f 64 49 79
f 65 52 41
f 52 65 66
f 66 81 82
f 66 82 53
f 67 70 68
f 69 83 72
f 70 74 68
f 71 72 75
f 71 75 57
f 56 84 74
f 57 75 45
f 59 86 87
f 59 87 60
f 61 48 47
f 77 76 88
f 49 63 78
f 49 78 79
f 64 79 89
f 51 64 89
f 80 66 65
f 66 80 81
f 83 69 85
f 83 85 91
f 83 91 92
f 83 92 93
f 83 94 72
f 69 68 74
f 74 85 69
f 84 56 73
f 74 96 85
f 74 84 96
f 84 97 98
f 84 98 99
f 84 99 96
f 59 75 86
f 86 100 87
f 87 100 101
f 87 101 61
f 87 61 60
f 61 101 76
f 76 101 102
f 76 102 88
f 88 102 103
f 88 103 104
f 88 104 105
f 88 105 90
f 88 90 77
f 77 79 78
f 79 77 90
f 79 90 106
f 79 106 89
f 89 106 107
f 89 107 108
f 89 109 51
f 51 109 65
f 65 109 80
f 53 82 73
f 85 96 91
f 93 110 94
f 93 94 83
f 94 95 72
f 95 75 72
f 75 95 86
f 84 73 111
f 84 111 97
f 99 91 96
f 86 112 100
f 101 113 102
f 102 113 103
f 104 115 105
f 105 106 90
f 89 116 109
f 106 105 107
f 107 105 115
f 107 115 108
f 80 109 81
f 82 118 73
f 92 91 93
f 91 99 93
f 93 119 120
f 73 118 111
f 97 116 121
f 97 121 122
f 97 122 98
f 98 122 117
f 98 117 123
f 98 123 120
f 98 120 119
f 98 119 99
f 99 119 93
f 86 95 110
f 86 110 112
f 113 101 100
f 104 103 114
f 114 124 125
f 104 114 115
f 89 108 116
f 116 108 121
f 116 97 111
f 115 114 125
f 115 125 108
f 108 125 124
f 108 124 117
f 117 122 121
f 117 121 108
f 81 109 118
f 81 118 82
f 120 126 110
f 120 110 93
f 94 110 95
f 111 118 109
f 123 117 127
f 123 127 120
f 100 112 128
f 100 128 113
f 114 103 124
f 124 103 128
f 116 111 109
f 117 124 129
f 110 126 112
f 117 129 127
f 127 129 124
f 127 124 120
f 103 113 128
f 120 124 126
f 126 124 128
f 112 126 128
f 130 131 136
f 130 136 140
f 130 140 146
f 130 146 145
f 130 145 143
f 130 143 141
f 130 141 137
f 130 137 132
f 130 132 133
f 130 133 134
f 130 134 131
f 131 134 135
f 131 135 136
f 132 137 133
f 133 138 142
f 133 142 147
f 133 147 150
f 133 150 149
f 133 149 154
f 133 154 153
f 133 153 151
f 133 151 144
f 133 144 139
f 133 139 135
f 133 135 134
f 133 137 138
f 135 139 136
f 136 139 140
f 137 141 138
f 138 141 143
f 138 143 142
f 139 144 145
f 139 145 146
f 139 146 140
f 142 143 147
f 143 145 152
f 143 152 148
f 143 148 149
f 143 149 150
f 143 150 147
f 144 151 145
f 145 151 153
f 145 153 154
f 145 154 152
f 148 152 149
f 149 152 154
f 155 156 161
f 155 161 166
f 155 166 174
f 155 174 178
f 155 178 187
f 155 187 200
f 155 200 209
f 155 209 211
f 155 211 215
f 155 215 214
f 155 214 212
f 155 212 203
f 155 203 191
f 155 191 181
f 155 181 176
f 155 176 171
f 155 171 164
f 155 164 157
f 155 157 158
f 155 158 159
f 155 159 160
f 155 160 156
f 156 160 162
f 156 162 163
f 156 163 161
f 157 164 158
f 158 165 173
f 158 173 172
f 158 172 177
f 158 177 186
f 158 186 185
f 158 185 184
f 158 184 183
f 158 183 197
f 158 197 196
f 158 196 195
f 158 195 194
f 158 194 193
f 158 193 192
f 158 192 204
f 158 204 213
f 158 213 210
f 158 210 201
f 158 201 189
f 158 189 188
f 158 188 180
f 158 180 179
f 158 179 175
f 158 175 170
f 158 170 169
f 158 169 168
f 158 168 167
f 158 167 163
f 158 163 162
f 158 162 160
f 158 160 159
f 158 164 165
f 161 163 167
f 161 167 168
f 161 168 169
f 161 169 170
f 161 170 175
f 161 175 166
f 164 171 172
f 164 172 173
f 164 173 165
f 166 175 174
f 171 176 177
f 171 177 172
f 174 175 179
f 174 179 180
f 174 180 178
f 176 181 190
f 176 190 202
f 176 202 208
f 176 208 207
f 176 207 206
f 176 206 205
f 176 205 199
f 176 199 198
f 176 198 182
f 176 182 183
f 176 183 184
f 176 184 185
f 176 185 186
f 176 186 177
f 178 180 188
f 178 188 189
f 178 189 187
f 181 191 192
f 181 192 193
f 181 193 194
f 181 194 195
f 181 195 196
f 181 196 197
f 181 197 190
f 182 198 183
f 183 198 199
f 183 199 197
f 187 189 201
f 187 201 200
f 190 197 202
f 191 203 192
f 192 203 204
f 197 199 205
f 197 205 206
f 197 206 207
f 197 207 208
f 197 208 202
f 200 201 209
f 201 210 211
f 201 211 209
f 203 212 213
f 203 213 204
f 210 213 214
f 210 214 215
f 210 215 211
f 212 214 213

