# https://github.com/mikedh/trimesh
v 0.00958507 0.00016999 0.01580034
v 0.00956974 0.00016999 0.01544165
v 0.00954291 -0.00165963 0.01580034
v 0.00937522 -0.00330793 0.01510288
v 0.00932444 0.00365283 0.01503042
v 0.00273195 -0.00774086 -0.00093858
v 0.00271087 0.00750159 -0.00106901
v 0.00887204 0.00101034 0.02014652
v 0.00893540 -0.00513181 0.01452861
v 0.00238124 -0.00752262 -0.00165596
v 0.00273387 0.00772475 -0.00094220
v 0.00946625 0.00282827 0.01562099
v 0.00857512 -0.00588663 0.01414818
v 0.00750935 -0.00711977 0.01281713
v 0.00600328 -0.00807396 0.01048519
v 0.00221835 0.00750159 -0.00185342
v 0.00600711 0.00805294 0.01048881
v 0.00715601 0.00738426 0.01223154
v 0.00857512 0.00586560 0.01414456
v 0.00893540 0.00511242 0.01452861
v 0.00782340 0.00003338 0.02583191
v 0.00805768 -0.00165963 0.02459370
v 0.00856697 -0.00310076 0.02113587
v 0.00910692 -0.00468978 0.01538956
v 0.00233333 -0.00786229 -0.00104909
v 0.00490134 -0.00831846 0.00921165
v 0.00087877 -0.00770804 -0.00270305
v 0.00165109 0.00750159 -0.00236972
v 0.00490326 0.00829579 0.00920984
v 0.00791156 0.00675538 0.01397608
v 0.00416543 -0.00836523 0.00921346
v 0.00858278 -0.00589811 0.01470615
v 0.00794462 -0.00672021 0.01415905
v 0.00573929 -0.00816175 0.01129768
v 0.00004513 0.00769522 -0.00272117
v 0.00677847 0.00770999 0.01232755
v 0.00841126 0.00607071 0.01486194
v 0.00915579 0.00457256 0.01543802
v 0.00881659 0.00346986 0.01946696
v 0.00818561 0.00225231 0.02364399
v 0.00851236 -0.00415854 0.02029349
v 0.00133105 -0.00651428 -0.00255088
v 0.00502399 -0.00708449 0.03229650
v 0.00718955 -0.00739791 0.01361196
v 0.00089602 0.00769358 -0.00270305
v 0.00389761 0.00834502 0.00976237
v 0.00409105 0.00825682 0.01799358
v 0.00502782 0.00707331 0.03228926
v 0.00764278 0.00365283 0.02569514
v 0.00762505 0.00282786 0.02606107
v 0.00471772 -0.00806545 0.02031205
v 0.00010070 -0.00770804 -0.00270667
v 0.00361542 -0.00836687 0.01031128
v 0.00013424 -0.00660535 -0.00287153
v 0.00820333 -0.00514329 0.02001043
v 0.00744683 -0.00442908 0.02571597
v 0.00069096 0.00834830 0.02678570
v 0.00522066 0.00800371 0.01813319
v 0.00824250 0.00506463 0.01981976
v 0.00767632 -0.00349089 0.02569151
v 0.00233429 -0.00824954 0.02788714
v 0.00068521 -0.00835948 0.02733642
v -0.00097441 -0.00735196 -0.00270667
v -0.00077127 -0.00759974 -0.00215233
v -0.00170840 -0.00734704 -0.00200378
v 0.00503740 -0.00678913 0.03266244
v 0.00426006 -0.00711218 0.03334088
v -0.00009669 0.00649448 -0.00287243
v 0.00183578 0.00825928 0.02792971
v 0.00497991 0.00687558 0.03276570
v 0.00744251 0.00441749 0.02572050
v -0.00391803 -0.00770968 0.03028204
v -0.00553357 -0.00749308 0.02972407
v -0.00643765 -0.00726499 0.02935814
v 0.00453530 -0.00678913 0.03341062
v -0.00097441 0.00733093 -0.00271030
v 0.00345037 0.00808206 0.02635093
v -0.00049962 -0.00786352 0.03082188
v -0.00611042 -0.00734704 0.02991610
v 0.00288526 -0.00718459 0.03376025
v 0.00194047 -0.00699260 0.03395590
v -0.00499123 -0.00404388 -0.00050018
v -0.00508561 -0.00229959 -0.00052917
v -0.00718936 -0.00697455 0.02952842
v -0.00247880 -0.00701229 -0.00119764
v -0.00077318 0.00760004 -0.00215596
v -0.00553741 0.00749338 0.02972407
v -0.00395444 0.00769358 0.03028928
v -0.00041002 0.00785685 0.03082188
v 0.00417214 0.00718325 0.03320772
v 0.00463304 0.00676974 0.03331461
v -0.00779783 -0.00647489 0.02957190
v 0.00270129 -0.00678913 0.03410264
v -0.00976120 -0.00370585 0.02918060
v -0.00939325 -0.00479378 0.02918785
v -0.00134907 0.00567033 -0.00255994
v -0.00427449 -0.00553711 -0.00017772
v -0.00536110 -0.00250142 -0.00016323
v -0.00798276 -0.00640926 0.02898495
v -0.00359991 -0.00631819 0.00005416
v 0.00379556 0.00676974 0.03393779
v 0.00379365 -0.00678913 0.03394141
v -0.00173906 0.00733832 -0.00191502
v -0.00636339 0.00729483 0.02935814
v -0.00612192 0.00733093 0.02991972
v 0.00194430 0.00697486 0.03395228
v 0.00288910 0.00718161 0.03375663
v -0.00992985 -0.00294119 0.02862626
v -0.00497973 -0.00438355 0.00005054
v -0.00498931 0.00402942 -0.00050743
v -0.00536397 0.00104090 -0.00018316
v -0.00879341 -0.00563885 0.02898495
v -0.00251521 0.00701424 -0.00105452
v -0.00720661 0.00696337 0.02944147
v -0.00780358 0.00645879 0.02957190
v 0.00288910 0.00676974 0.03411170
v -0.00976120 0.00369467 0.02917698
v -0.00998925 -0.00202392 0.02862626
v -0.00968358 -0.00398563 0.02866068
v -0.00461369 0.00510585 -0.00004004
v -0.00407230 0.00584427 0.00004329
v -0.00351175 0.00639807 0.00004329
v -0.00799618 0.00639643 0.02898857
v -0.00939708 0.00477603 0.02918422
v -0.00993272 0.00293657 0.02861901
v -0.00534912 0.00271463 -0.00008171
v -0.00509615 0.00400931 0.00000525
v -0.00880491 0.00563013 0.02898857
v -0.00978036 0.00373733 0.02868423
f 2 1 3
f 2 6 7
f 2 7 5
f 1 8 3
f 2 3 4
f 4 6 2
f 6 4 9
f 6 10 7
f 7 11 5
f 1 12 8
f 3 9 4
f 6 9 13
f 6 13 14
f 6 14 15
f 10 16 7
f 11 17 18
f 11 18 19
f 11 19 20
f 11 20 5
f 5 20 12
f 5 12 2
f 2 12 1
f 8 22 3
f 3 24 9
f 6 15 26
f 6 26 25
f 6 25 27
f 6 27 10
f 16 11 7
f 11 16 28
f 11 29 17
f 19 18 30
f 8 21 22
f 3 22 23
f 25 26 31
f 9 32 13
f 9 24 32
f 14 13 33
f 15 34 26
f 28 35 11
f 17 36 18
f 19 30 37
f 19 37 20
f 20 37 38
f 20 38 12
f 12 39 8
f 8 40 21
f 24 3 41
f 23 41 3
f 10 27 42
f 10 28 16
f 10 42 28
f 32 33 13
f 14 44 15
f 35 46 11
f 11 46 29
f 29 46 47
f 18 36 30
f 38 39 12
f 39 40 8
f 34 51 26
f 25 31 53
f 25 53 52
f 25 52 27
f 27 52 54
f 24 55 32
f 33 32 43
f 43 44 33
f 43 32 55
f 43 55 56
f 14 33 44
f 15 44 43
f 15 43 51
f 15 51 34
f 28 45 35
f 46 57 47
f 47 17 29
f 17 58 36
f 30 48 37
f 38 37 59
f 40 49 50
f 50 21 40
f 23 22 60
f 23 60 41
f 26 61 31
f 31 61 62
f 51 61 26
f 52 65 63
f 27 54 42
f 24 41 55
f 43 66 67
f 43 56 66
f 43 67 61
f 43 61 51
f 45 68 35
f 47 57 69
f 47 58 17
f 36 48 30
f 48 70 71
f 48 71 59
f 48 36 58
f 48 59 37
f 38 59 39
f 39 49 40
f 21 50 70
f 21 70 66
f 21 60 22
f 41 56 55
f 53 31 62
f 53 62 52
f 62 72 73
f 52 62 64
f 52 63 54
f 64 65 52
f 64 73 74
f 42 54 45
f 42 45 28
f 66 75 67
f 66 56 60
f 35 57 46
f 47 77 58
f 48 58 77
f 70 50 49
f 70 49 71
f 66 60 21
f 60 56 41
f 61 78 62
f 62 78 72
f 72 79 73
f 72 80 81
f 72 81 79
f 73 64 62
f 63 65 82
f 63 82 83
f 73 79 74
f 64 74 65
f 65 74 84
f 65 84 85
f 54 63 68
f 66 70 75
f 67 80 61
f 45 54 68
f 35 68 76
f 76 86 35
f 35 86 57
f 57 86 87
f 57 87 88
f 69 77 47
f 48 77 69
f 48 69 90
f 48 90 70
f 39 59 49
f 49 59 71
f 61 80 78
f 72 78 80
f 79 92 84
f 79 81 92
f 81 94 95
f 81 95 92
f 63 83 96
f 63 96 76
f 63 76 68
f 65 97 82
f 82 98 83
f 74 79 84
f 85 84 99
f 85 99 100
f 85 100 97
f 85 97 65
f 70 91 75
f 75 91 101
f 67 75 102
f 67 102 93
f 67 93 80
f 76 103 86
f 86 103 104
f 86 104 87
f 88 87 105
f 88 105 106
f 88 106 107
f 57 88 69
f 69 88 89
f 89 107 69
f 69 107 90
f 90 107 101
f 90 101 70
f 70 101 91
f 80 93 81
f 92 99 84
f 81 93 106
f 81 106 94
f 82 97 109
f 96 83 110
f 83 98 111
f 100 99 112
f 75 101 102
f 103 76 110
f 104 105 87
f 105 114 115
f 105 115 106
f 107 106 101
f 95 112 92
f 92 112 99
f 93 116 106
f 106 117 94
f 94 118 108
f 94 108 119
f 97 112 95
f 109 97 95
f 109 95 119
f 109 119 82
f 82 119 108
f 82 108 98
f 98 108 118
f 83 111 110
f 96 110 76
f 100 112 97
f 103 110 120
f 103 120 113
f 113 120 121
f 113 121 122
f 113 122 123
f 113 123 114
f 113 114 103
f 103 114 104
f 104 114 105
f 88 107 89
f 114 123 115
f 106 115 124
f 106 124 117
f 106 116 101
f 93 102 116
f 117 125 118
f 117 118 94
f 94 119 95
f 98 118 111
f 101 116 102
f 110 126 127
f 110 127 120
f 115 123 128
f 115 128 124
f 117 124 129
f 117 129 125
f 125 126 111
f 125 111 118
f 110 111 126
f 127 126 125
f 127 125 129
f 127 129 124
f 120 124 128
f 120 128 121
f 121 128 122
f 122 128 123
f 124 120 127

