# https://github.com/mikedh/trimesh
v 0.02669188 -0.00211911 0.03253420
v 0.02646407 0.00556084 0.03026071
v 0.02660708 0.00251266 0.01916841
v 0.02622918 -0.00614411 0.01867718
v 0.02618865 -0.00315971 0.04512052
v 0.02615952 0.00392987 0.04512052
v 0.02621791 -0.00778947 0.02968865
v 0.02608667 0.00038233 0.01431353
v 0.02528169 0.00393931 0.05234827
v 0.02528169 -0.00196933 0.05274662
v 0.02070683 0.01018840 0.06722510
v 0.02526257 -0.00425810 0.01291547
v 0.02576613 0.00967576 0.01868005
v 0.02527441 0.01045415 0.04423955
v 0.02424907 0.01004294 0.05272938
v 0.02069590 -0.01018797 0.06722510
v 0.02550536 -0.01108999 0.02935745
v 0.02414526 -0.01092075 0.01279290
v 0.02487192 0.00843192 0.01309741
v 0.02223914 0.01291549 0.05239663
v 0.01992371 0.01018840 0.06871124
v 0.02425089 -0.01003858 0.05272555
v 0.02526712 -0.01004959 0.04608958
v 0.01660365 0.00503219 -0.00083525
v 0.02281760 -0.01281796 0.05088893
v 0.02445851 -0.01233599 0.01790634
v 0.01521407 -0.01238002 0.00203363
v 0.01532335 0.00378835 -0.00190390
v 0.01589156 0.00690503 -0.00098463
v 0.02446215 0.01234271 0.01791400
v 0.01714364 -0.01108154 0.07045786
v 0.01462947 0.01147784 0.07150736
v 0.01677303 0.01011606 0.07170653
v 0.01676574 -0.01010934 0.07170653
v 0.02004846 -0.01397807 0.05177372
v 0.02255717 -0.01277000 0.01229880
v 0.01506838 0.00605588 -0.00204179
v 0.02330022 0.01190713 0.01215708
v 0.02397407 0.01300945 0.03772232
v 0.01625353 0.01431540 0.05555709
v 0.01636872 0.01524239 0.04730761
v 0.01522500 -0.01470731 0.01053687
v 0.00377691 -0.01371192 -0.00124509
v 0.00198849 -0.01143967 -0.00490685
v 0.00145305 0.01171057 -0.00499111
v 0.00318502 0.01315569 -0.00299553
v 0.02157736 0.01323589 0.01197705
v 0.01346663 0.01045257 0.07271964
v 0.02418442 -0.01284312 0.03370243
v 0.02216379 -0.01393050 0.01680321
v 0.00089941 -0.01044900 -0.00526689
v 0.00089212 0.01023242 -0.00527455
v 0.02189494 0.01424523 0.03712384
v 0.00833356 -0.01472618 0.06014673
v 0.00630838 -0.01214808 0.07202444
v 0.00089212 0.01271382 0.07162993
v 0.00834085 0.01472661 0.06013907
v 0.02214558 -0.01418289 0.03376563
v 0.01210892 -0.01595430 0.02255630
v 0.00039675 -0.01317570 -0.00343602
v 0.01522500 0.01471088 0.01053687
v 0.02216015 0.01392464 0.01684152
v 0.01172465 -0.01044900 0.07290158
v 0.01529831 -0.01553838 0.04226791
v -0.00297703 -0.01341158 0.00600947
v -0.00380090 -0.01193697 -0.00099900
v -0.00090040 0.01284866 -0.00330770
v 0.01525778 0.01548770 0.01826638
v 0.00399910 -0.01513189 0.01327169
v -0.00220393 -0.01181628 -0.00415803
v -0.00204503 -0.00000627 -0.00490876
v -0.00318009 0.01076039 -0.00397992
v 0.00360207 0.01421398 0.00164294
v 0.01365694 0.01595315 0.03454510
v -0.00109663 -0.01241147 0.07099409
v -0.00102014 -0.01315369 0.06623688
v -0.00130101 0.01368508 0.05974910
v 0.00099411 0.01072619 0.07271007
v 0.00127640 0.01518892 0.04459194
v -0.00652018 -0.01320401 0.01946143
v -0.00298522 0.01316198 0.00316740
v 0.00101778 -0.01072733 0.07270241
v -0.00317508 0.01103204 0.06968223
v -0.00528540 -0.01393207 0.02424929
v -0.00411983 -0.00967534 -0.00336707
v 0.00004367 0.01470794 0.01548751
v 0.01172465 0.01604750 0.02488512
v 0.00273541 -0.01552019 0.02696736
v -0.00612043 0.01318950 0.01676874
v 0.00545583 -0.01568737 0.04004323
v -0.00432973 -0.00944890 0.06849483
v -0.00491024 -0.01315683 0.05388804
v 0.00476400 0.01577625 0.03550841
v -0.00571521 0.01317770 0.04984709
v -0.00416354 0.00038233 0.07094047
v -0.00726323 -0.01087672 0.00962526
v -0.00599841 -0.00910177 0.00023675
v -0.00484331 0.01077729 -0.00140501
v -0.00231160 -0.00263646 0.07204982
v -0.00593125 0.01147745 0.05768817
v -0.00726323 -0.00348286 0.00198767
v -0.00403993 0.01433231 0.02912812
v -0.00010590 -0.01491665 0.04446673
v -0.00623744 0.00942849 0.06101046
v -0.00837599 -0.01197039 0.02814852
v -0.00831589 -0.00713576 0.01067188
v -0.00645098 -0.01081382 0.05770301
v -0.00516162 0.00612429 0.06803927
v -0.00539968 -0.01388745 0.04037910
v -0.00900203 -0.01004173 0.02197793
v -0.00726323 0.00348328 0.00197235
v -0.00756464 0.01015301 0.01005233
v -0.00709477 -0.00669074 0.05932513
v -0.00801357 -0.01238002 0.03842901
v -0.00763385 0.01277829 0.03637214
v -0.00566057 -0.00038819 0.06848909
v -0.00859681 0.01162801 0.02817581
v -0.00882241 0.01041149 0.04055266
v -0.00759219 0.00475465 0.05786819
v -0.00884609 0.00724528 0.04734926
v -0.00856357 0.00961758 0.01597013
v -0.00940030 -0.00737871 0.04117795
v -0.00981542 -0.00713360 0.03289616
v -0.00945232 -0.00039134 0.01481913
v -0.01018035 -0.00010672 0.02448006
v -0.00868400 -0.00250320 0.05244905
v -0.00947691 0.00927635 0.02720244
v -0.00973415 -0.00000608 0.04461013
v -0.01022223 0.00239748 0.03299958
f 1 3 2
f 1 2 5
f 1 4 3
f 2 6 5
f 1 7 4
f 4 8 3
f 6 9 10
f 6 10 5
f 1 5 7
f 3 13 2
f 8 13 3
f 11 9 15
f 4 18 8
f 8 18 12
f 13 8 19
f 14 6 2
f 6 14 15
f 6 15 9
f 15 20 11
f 11 21 16
f 11 10 9
f 10 11 16
f 16 22 10
f 12 24 8
f 8 24 19
f 15 14 20
f 11 20 21
f 16 25 22
f 10 22 23
f 10 23 5
f 7 17 4
f 5 23 7
f 4 17 26
f 4 26 18
f 24 27 28
f 24 12 18
f 24 18 27
f 2 13 30
f 2 30 14
f 16 21 34
f 16 35 25
f 16 31 35
f 25 23 22
f 23 17 7
f 27 18 36
f 24 28 37
f 24 37 29
f 29 38 24
f 24 38 19
f 20 14 39
f 21 20 40
f 32 21 40
f 32 33 21
f 21 33 34
f 18 26 36
f 27 36 42
f 27 43 44
f 27 44 28
f 27 42 43
f 37 45 29
f 29 46 47
f 29 47 38
f 19 38 13
f 40 20 41
f 16 34 31
f 39 14 30
f 25 49 23
f 36 50 42
f 36 26 50
f 28 44 37
f 37 44 51
f 37 51 52
f 37 52 45
f 45 46 29
f 13 38 30
f 39 53 20
f 20 53 41
f 31 54 35
f 32 56 33
f 32 40 57
f 32 57 56
f 33 48 34
f 35 58 25
f 25 58 49
f 49 17 23
f 26 17 49
f 42 50 59
f 43 42 60
f 43 60 44
f 47 46 61
f 47 62 30
f 47 30 38
f 31 55 54
f 54 64 35
f 41 57 40
f 56 48 33
f 48 63 34
f 26 49 50
f 60 65 66
f 45 67 46
f 47 61 68
f 47 68 62
f 34 63 55
f 34 55 31
f 50 49 58
f 60 42 69
f 60 66 70
f 60 70 51
f 60 51 44
f 52 72 45
f 67 73 46
f 30 62 39
f 39 62 53
f 53 62 74
f 53 74 41
f 54 55 76
f 57 77 56
f 35 64 58
f 42 59 69
f 51 71 52
f 51 70 71
f 52 71 72
f 45 72 67
f 67 81 73
f 61 46 68
f 63 48 78
f 55 63 82
f 55 82 75
f 75 76 55
f 41 74 57
f 56 78 48
f 57 79 77
f 59 50 58
f 65 60 69
f 65 84 80
f 65 80 66
f 70 85 71
f 81 86 73
f 46 73 68
f 68 74 62
f 63 78 82
f 78 56 83
f 65 69 84
f 70 66 85
f 68 73 87
f 68 87 74
f 64 54 90
f 82 91 75
f 57 74 93
f 56 77 94
f 78 83 95
f 64 59 58
f 59 90 88
f 59 88 69
f 66 97 85
f 71 85 72
f 81 67 98
f 82 99 91
f 57 93 79
f 93 74 87
f 94 83 56
f 83 94 100
f 59 64 90
f 84 69 88
f 66 80 96
f 66 96 97
f 85 97 101
f 67 72 98
f 81 89 102
f 86 87 73
f 76 75 92
f 76 103 54
f 54 103 90
f 76 92 103
f 78 99 82
f 97 96 106
f 91 99 95
f 91 107 75
f 83 100 104
f 83 104 108
f 83 108 95
f 78 95 99
f 77 79 94
f 90 103 88
f 80 105 96
f 85 101 72
f 81 98 89
f 102 86 81
f 86 102 93
f 86 93 87
f 75 107 92
f 92 109 103
f 80 84 105
f 84 109 105
f 98 72 111
f 98 112 89
f 92 114 109
f 79 93 102
f 108 116 95
f 84 88 109
f 88 103 109
f 96 110 106
f 111 72 101
f 95 116 91
f 91 113 107
f 94 115 100
f 108 104 119
f 100 118 120
f 105 110 96
f 97 106 101
f 101 106 111
f 98 111 112
f 89 112 117
f 117 115 89
f 89 115 102
f 107 122 114
f 92 107 114
f 115 118 100
f 104 100 120
f 104 120 119
f 79 102 94
f 105 109 114
f 105 123 110
f 111 106 124
f 94 102 115
f 108 119 116
f 110 125 106
f 112 121 117
f 116 113 91
f 113 126 107
f 107 126 122
f 115 117 118
f 123 125 110
f 122 123 105
f 122 105 114
f 106 125 124
f 121 111 124
f 121 112 111
f 117 121 127
f 116 126 113
f 119 126 116
f 117 127 118
f 120 128 126
f 120 126 119
f 123 129 125
f 127 121 125
f 123 122 128
f 123 128 129
f 124 125 121
f 129 118 127
f 126 128 122
f 129 120 118
f 127 125 129
f 120 129 128

