# https://github.com/mikedh/trimesh
v -0.00847428 -0.00246000 0.01480798
v 0.00051438 -0.00112008 0.01473389
v -0.00168241 -0.00092920 0.01473159
v 0.00739790 -0.00561706 0.01479707
v -0.00179006 0.01744994 0.00958772
v -0.00866585 -0.00188737 0.01473619
v -0.00949289 -0.00199698 0.01458915
v -0.00868959 -0.00415736 0.01476447
v -0.00127330 0.01747640 0.00959691
v -0.00980427 -0.00265088 0.01454780
v 0.00758892 -0.00494520 0.01472470
v 0.00706995 0.01438549 0.00961414
v 0.00763696 0.02683700 0.00290345
v -0.00107455 0.01940408 0.00812887
v -0.00178565 0.01783170 0.00920865
v -0.00990917 -0.00191383 0.01412508
v -0.00865426 -0.00531562 0.01454723
v -0.00675257 -0.00705054 0.01473044
v 0.00788264 0.01456975 0.00929825
v 0.00816973 -0.00512663 0.01455929
v 0.00525605 -0.00858843 0.01462505
v 0.00146730 -0.00915587 0.01480970
v 0.00784289 0.02587127 0.00346516
v 0.00735815 0.02722632 0.00236011
v -0.01028128 -0.00184579 0.01131077
v -0.01017749 -0.00214439 0.01359668
v -0.01020730 -0.00295043 0.01361333
v 0.01118637 0.02466552 0.00344678
v 0.00711854 -0.00753529 0.01437205
v 0.01134538 0.02548195 0.00290000
v 0.00801956 0.02760618 0.00178117
v -0.00091223 0.01999184 0.00684348
v -0.01036520 -0.00227291 0.00977151
v -0.00097959 0.02004664 0.00575451
v -0.00868904 -0.00593550 0.01420089
v -0.00635506 -0.00813344 0.01437952
v -0.00101492 -0.00953574 0.01478214
v 0.01163909 0.02508886 0.00292757
v 0.00856061 -0.00544035 0.01419400
v 0.00855840 -0.00630214 0.01381723
v 0.01163909 0.02624925 0.00194658
v 0.00739238 0.02777627 0.00081626
v -0.00978440 -0.00429886 0.01359668
v -0.00437276 -0.00906326 0.01462821
v 0.01201893 0.02540258 0.00200172
v 0.00110809 -0.00993049 0.01464486
v 0.00359396 -0.00954708 0.01456044
v 0.00811120 0.02785187 0.00077950
v -0.01028128 -0.00191761 0.00977151
v 0.00872182 -0.00571250 0.01359668
v 0.00895039 -0.00559533 0.01154166
v 0.01161259 0.02661967 0.00078180
v -0.00178123 0.01783170 0.00383504
v -0.01021061 -0.00288901 0.00956704
v -0.00102155 0.01974048 0.00459318
v 0.00734490 0.02744743 -0.00085280
v -0.00982636 -0.00401916 0.00956704
v -0.00796469 -0.00711857 0.01359668
v -0.00141850 -0.01010743 0.01455125
v 0.01213101 0.02566338 0.00049175
v 0.01199906 0.02624547 -0.00038528
v 0.00719776 -0.00785563 0.01359668
v 0.00855398 -0.00629080 0.00957394
v 0.00793674 0.02778194 -0.00040251
v -0.00140801 0.01860277 0.00382815
v -0.00369590 0.00137835 -0.00802871
v -0.00382950 -0.00016190 -0.00821251
v -0.00906226 -0.00553863 0.00956704
v -0.00485529 -0.00935242 0.01418251
v 0.00892058 -0.00565580 0.00979334
v 0.00732392 -0.00774223 0.00977151
v 0.00484391 -0.00936092 0.01409866
v 0.00460347 -0.00962078 0.01352804
v -0.00101051 -0.01049391 0.01417103
v 0.00201608 -0.01030681 0.01416873
v 0.01125262 0.02663100 -0.00038758
v -0.00370252 -0.00133174 -0.00804939
v 0.00701916 0.02661967 -0.00189926
v 0.00789810 0.02742853 -0.00120315
v -0.00828270 -0.00666122 0.00958313
v -0.00290750 -0.00243166 -0.00838252
v -0.00634650 -0.00856717 0.01365813
v 0.00625727 -0.00858512 0.00957394
v -0.00330722 0.00174877 -0.00839860
v 0.00431611 0.01748018 -0.00652622
v 0.00299549 0.01381380 -0.00784033
v 0.00703904 0.02622657 -0.00227144
v 0.01160596 0.02585615 -0.00151560
v -0.00218316 -0.00323675 -0.00806088
v -0.00675892 -0.00820337 0.00957623
v 0.01201010 0.02541392 -0.00116869
v 0.00356526 -0.00126371 -0.00838711
v 0.01164019 0.02439905 -0.00195325
v 0.00282987 -0.00247701 -0.00842157
v 0.00469815 -0.00952251 0.00963252
v -0.00043854 -0.01066967 0.01359668
v 0.00170967 -0.01052887 0.01354843
v 0.00279011 0.01249844 -0.00842157
v -0.00311730 0.00118180 -0.00863293
v 0.00759334 0.02650627 -0.00219792
v 0.00672545 0.02265846 -0.00441951
v -0.00183202 -0.00325565 -0.00843536
v -0.00535825 -0.00917477 0.00966698
v -0.00482659 -0.00953007 0.01359668
v -0.00185797 -0.01050903 0.01361161
v 0.00748623 0.01513672 -0.00699604
v 0.00321633 -0.01011593 0.00957164
v 0.00376843 0.01379868 -0.00818724
v 0.00262228 0.01074463 -0.00865591
v 0.00427194 0.01637270 -0.00729814
v -0.00005649 -0.00303264 -0.00865820
v 0.00596576 0.02014492 -0.00574051
v 0.01121067 0.02508508 -0.00227833
v -0.00329618 -0.01010459 0.00959461
v 0.00198847 -0.00330667 -0.00817230
v 0.00608557 0.01151286 -0.00824008
v 0.00683697 0.01408594 -0.00765194
v 0.00857607 0.01904122 -0.00575200
v 0.00147171 -0.00303264 -0.00862144
v 0.00012681 -0.01065266 0.00977151
v 0.00166605 -0.01049769 0.00957853
v 0.00950580 0.02260177 -0.00398989
v -0.00051307 -0.00373662 -0.00833427
v 0.00319314 -0.00073454 -0.00863063
v 0.00070982 -0.00377726 -0.00821251
v -0.00162002 -0.01049580 0.00959002
v 0.00558371 0.01179540 -0.00847556
v 0.00708541 0.01558651 -0.00727977
v 0.00491237 0.00997355 -0.00865591
f 1 22 4
f 1 4 2
f 1 2 3
f 3 2 5
f 1 6 7
f 2 4 11
f 2 9 5
f 5 6 3
f 1 3 6
f 7 10 8
f 7 8 1
f 2 12 9
f 6 5 7
f 2 11 12
f 9 13 14
f 9 14 5
f 5 14 15
f 5 15 16
f 5 16 7
f 10 7 16
f 10 17 8
f 8 18 1
f 12 11 19
f 4 20 11
f 4 22 21
f 11 20 19
f 9 23 13
f 13 24 14
f 15 25 26
f 15 26 16
f 10 16 27
f 8 17 18
f 12 19 28
f 4 29 20
f 21 29 4
f 12 23 9
f 23 28 30
f 23 30 13
f 23 12 28
f 13 31 24
f 14 24 32
f 26 25 33
f 26 33 27
f 26 27 16
f 15 14 32
f 15 32 34
f 15 34 25
f 18 17 36
f 1 18 37
f 28 38 30
f 28 19 38
f 20 39 38
f 20 38 19
f 20 29 40
f 20 40 39
f 13 41 31
f 24 31 42
f 32 24 42
f 27 43 10
f 10 43 17
f 17 43 35
f 37 18 44
f 1 37 22
f 38 45 30
f 30 45 41
f 39 45 38
f 22 37 46
f 21 22 47
f 30 41 13
f 32 42 34
f 25 34 49
f 39 40 50
f 39 50 45
f 22 46 47
f 31 52 48
f 31 41 52
f 48 42 31
f 49 33 25
f 49 34 53
f 34 42 56
f 34 56 55
f 33 54 57
f 33 57 27
f 27 57 43
f 35 43 58
f 17 35 36
f 18 36 44
f 44 59 37
f 45 50 51
f 45 51 60
f 45 61 41
f 50 40 51
f 40 29 62
f 40 63 51
f 48 64 42
f 34 55 53
f 33 49 66
f 33 66 67
f 33 67 54
f 42 64 56
f 57 68 43
f 43 68 58
f 36 69 44
f 37 59 46
f 60 61 45
f 41 61 52
f 51 70 60
f 62 71 63
f 62 63 40
f 29 21 72
f 29 72 62
f 62 72 73
f 46 59 74
f 46 74 75
f 46 75 47
f 48 52 76
f 64 48 76
f 49 53 66
f 53 65 66
f 53 55 65
f 67 77 54
f 54 77 57
f 55 56 78
f 64 79 56
f 57 77 68
f 68 77 81
f 68 81 80
f 68 80 58
f 58 82 35
f 35 82 36
f 44 69 59
f 51 63 70
f 21 47 72
f 73 83 62
f 62 83 71
f 75 72 47
f 52 61 76
f 66 65 84
f 65 55 78
f 65 78 85
f 65 85 86
f 65 86 84
f 67 81 77
f 56 79 78
f 81 89 90
f 81 90 80
f 58 80 90
f 82 69 36
f 59 69 74
f 60 70 91
f 70 63 92
f 70 92 93
f 70 93 91
f 63 71 94
f 83 73 95
f 74 96 75
f 75 73 72
f 75 97 73
f 64 76 79
f 61 88 76
f 84 86 98
f 66 84 67
f 78 87 85
f 86 85 98
f 67 84 99
f 67 99 81
f 78 79 100
f 78 100 87
f 79 88 100
f 88 79 76
f 81 102 89
f 90 89 103
f 69 82 104
f 74 104 105
f 74 105 96
f 60 91 61
f 63 94 92
f 93 92 106
f 73 107 95
f 96 97 75
f 98 108 109
f 85 87 110
f 85 110 98
f 84 98 99
f 87 100 101
f 101 112 87
f 87 112 110
f 88 113 100
f 89 102 103
f 90 103 82
f 58 90 82
f 82 103 104
f 104 103 114
f 69 104 74
f 91 88 61
f 91 93 88
f 71 83 94
f 92 116 106
f 93 106 118
f 93 118 113
f 94 115 119
f 97 107 73
f 83 95 115
f 83 115 94
f 95 107 115
f 96 120 97
f 97 120 121
f 97 121 107
f 98 109 99
f 98 110 108
f 99 109 111
f 111 109 129
f 99 102 81
f 99 111 102
f 88 93 113
f 102 114 103
f 96 105 120
f 116 117 106
f 117 118 106
f 94 119 124
f 94 124 92
f 107 121 125
f 107 125 115
f 115 125 119
f 120 105 126
f 108 127 109
f 110 112 128
f 100 122 101
f 113 118 122
f 122 100 113
f 114 102 123
f 114 123 126
f 104 114 105
f 114 126 105
f 124 116 92
f 117 128 118
f 117 116 127
f 119 111 124
f 120 126 123
f 120 125 121
f 108 128 127
f 108 110 128
f 118 128 112
f 111 129 124
f 111 119 123
f 111 123 102
f 122 118 101
f 101 118 112
f 123 119 125
f 124 129 116
f 125 120 123
f 127 116 129
f 127 129 109
f 117 127 128

