# https://github.com/mikedh/trimesh
v 0.01302082 -0.00006504 0.02628752
v 0.00559003 0.00156165 0.02628236
v 0.01484448 0.00150232 0.02587506
v 0.01288243 0.00443262 0.02594724
v 0.00478325 -0.00118293 0.02609933
v 0.00552336 -0.00319106 0.02613800
v 0.01342393 -0.00440890 0.02585251
v 0.01583909 -0.00086243 0.02531390
v 0.00480118 0.00938008 0.02451397
v 0.00480118 -0.00784059 0.02503469
v 0.00343190 -0.00494640 0.01589370
v 0.01400576 -0.00901039 0.02453395
v 0.01610732 0.00578621 0.02454941
v 0.01326275 0.00886813 0.02469571
v 0.00478998 0.01358465 0.02244139
v 0.00222172 -0.01797798 -0.01042080
v 0.00346215 -0.01276483 0.01368836
v 0.00559003 -0.01151765 0.02367360
v 0.01627736 -0.00672432 0.02418981
v 0.00480566 0.01980637 0.01720324
v 0.00341845 0.00911697 0.00181874
v 0.00224189 -0.01693587 -0.01277178
v 0.00478773 -0.01515086 0.02139995
v 0.01531174 0.01259928 0.02247233
v 0.01303118 0.01298201 0.02287028
v 0.00479894 0.02451136 0.00940788
v 0.01531174 -0.01051810 0.02351377
v 0.00543092 0.01697667 0.02011103
v 0.00479446 0.02243229 0.01358396
v 0.00480342 0.02606937 -0.00314101
v 0.00342517 0.00808518 -0.00495580
v 0.00479670 0.02503242 -0.00784813
v 0.00230464 -0.01902525 -0.01119931
v 0.00347560 -0.02398303 -0.00286776
v 0.00478773 -0.02139322 0.01516160
v 0.00559003 -0.01835974 0.01887367
v 0.01746680 -0.00176073 0.02372193
v 0.01782173 0.00458223 0.02290025
v 0.00512347 0.02576515 0.00468448
v 0.00476224 0.01903382 -0.01759813
v 0.00478325 0.01515813 -0.02140236
v 0.00479670 0.00784786 -0.02503710
v 0.00480118 0.00313772 -0.02607339
v 0.00478101 -0.00562997 -0.02557587
v 0.00480118 -0.00938312 -0.02450607
v 0.00480118 -0.01850678 -0.01851003
v 0.00479222 -0.02243534 -0.01358638
v 0.00479894 -0.02450925 -0.00939998
v 0.00479670 -0.02503546 0.00785087
v 0.00477653 -0.02349809 0.01155779
v 0.01321999 -0.01826366 0.01890042
v 0.01834053 -0.00768840 0.02080447
v 0.01716958 0.01172741 0.02111123
v 0.01335162 0.01670276 0.02021882
v 0.01321635 0.01932659 0.01778583
v 0.00478998 -0.01357737 -0.02243865
v 0.00550487 -0.02010735 -0.01698654
v 0.00478998 -0.02555652 -0.00579617
v 0.00902669 -0.01754334 -0.01963139
v 0.00480566 -0.02606210 0.00313344
v 0.01663340 -0.01424772 0.02029986
v 0.01647429 0.01504270 0.01954455
v 0.00803083 0.02472159 0.00867900
v 0.00519000 0.02143661 -0.01520526
v 0.00559003 -0.02632521 -0.00077971
v 0.01354803 -0.02188333 0.01457901
v 0.00900989 0.02610033 0.00274161
v 0.01002621 0.02607453 -0.00312554
v 0.01100387 0.02388583 -0.01102144
v 0.00558891 0.01861465 -0.01861830
v 0.00558779 0.01146173 -0.02371210
v 0.01289224 -0.00133738 -0.02628767
v 0.01073025 0.00594904 -0.02561099
v 0.01392677 -0.00442535 -0.02583623
v 0.01275469 -0.01343550 -0.02263585
v 0.01359285 -0.02031500 -0.01667977
v 0.01232273 -0.02412232 -0.01045367
v 0.01371835 -0.02607757 0.00319015
v 0.01289280 -0.02407976 0.01047027
v 0.01482179 -0.01540301 0.02087665
v 0.01835285 -0.00359475 0.02189489
v 0.02500431 0.00208270 0.00312055
v 0.01503049 0.01765895 0.01851278
v 0.01161512 0.02271346 -0.01310175
v 0.01054277 0.02554831 -0.00626534
v 0.01376989 -0.00788186 -0.02504742
v 0.01303146 -0.02612659 -0.00301985
v 0.01835454 -0.01353352 0.01733600
v 0.01184258 0.01878683 -0.01832637
v 0.01279615 0.01412795 -0.02215606
v 0.01296059 0.01048378 -0.02410071
v 0.01430670 0.00576815 -0.02540090
v 0.01523330 -0.01772003 -0.01876782
v 0.01628660 -0.01929352 0.01618757
v 0.02494605 -0.00338323 -0.00182116
v 0.02496622 -0.00182006 -0.00338332
v 0.02463230 0.00419015 0.00152229
v 0.01448143 -0.01323623 -0.02243027
v 0.01424948 -0.02347745 -0.01151380
v 0.01470049 -0.02317339 0.01172503
v 0.01834053 -0.01844616 0.01227443
v 0.01523554 0.01512460 -0.02086359
v 0.01500317 -0.00026253 -0.02581650
v 0.01575603 -0.02489617 0.00534393
v 0.01743038 -0.01805794 0.01557856
v 0.01834389 -0.02080897 0.00761371
v 0.01832708 -0.02207163 0.00232206
v 0.01833045 -0.02180594 -0.00442992
v 0.01809541 -0.02065098 -0.00943478
v 0.01834389 0.01192345 -0.01868533
v 0.01782173 0.01300684 -0.01902560
v 0.01810634 -0.01841263 -0.01333891
v 0.01837303 -0.01152410 -0.01882969
v 0.01832036 -0.00555258 -0.02140816
v 0.01834781 0.00375034 -0.02174393
v 0.01680204 0.01247289 -0.02126509
v 0.01510584 0.01118894 -0.02319976
v 0.01591753 -0.02433545 -0.00714696
v 0.01742464 -0.00819914 -0.02241642
v 0.01589974 -0.00758329 -0.02424958
v 0.01599078 0.00538961 -0.02474581
v 0.01659517 -0.01395382 -0.02050238
v 0.01663859 -0.02245662 0.01055630
v 0.01628212 -0.02503546 -0.00270277
v 0.01728905 0.00219846 -0.02395409
v 0.01747506 0.00802907 -0.02242898
v 0.01630173 -0.00210252 -0.02505257
v 0.01624290 -0.02187301 -0.01247791
v 0.01733317 -0.01828236 -0.01570020
f 1 3 4
f 1 4 2
f 2 5 6
f 2 6 1
f 1 6 7
f 1 8 3
f 2 9 5
f 8 1 7
f 2 4 9
f 5 10 6
f 5 9 11
f 5 11 10
f 3 13 14
f 3 14 4
f 11 16 17
f 11 17 10
f 7 19 8
f 6 10 7
f 7 10 12
f 4 14 9
f 11 9 15
f 11 15 20
f 11 20 21
f 17 23 10
f 12 19 7
f 3 8 13
f 13 24 14
f 11 21 16
f 21 20 26
f 21 22 16
f 15 9 25
f 25 9 14
f 20 15 28
f 20 29 26
f 21 26 30
f 21 30 32
f 21 32 31
f 21 31 22
f 16 22 33
f 16 33 34
f 16 34 17
f 17 34 35
f 17 35 23
f 10 23 18
f 10 18 12
f 19 12 27
f 8 19 37
f 8 37 38
f 8 38 13
f 26 39 30
f 31 32 40
f 31 40 22
f 22 40 41
f 22 41 42
f 22 42 43
f 22 43 44
f 22 44 45
f 33 46 47
f 33 47 48
f 33 48 34
f 34 49 50
f 34 50 35
f 36 51 23
f 13 53 24
f 14 24 25
f 25 54 15
f 15 54 28
f 20 28 55
f 22 45 56
f 22 56 46
f 22 46 33
f 46 57 47
f 48 58 34
f 46 56 59
f 34 58 60
f 34 60 49
f 23 35 36
f 19 27 52
f 27 61 52
f 37 19 52
f 13 38 53
f 24 53 62
f 28 54 55
f 29 20 55
f 29 63 26
f 40 32 64
f 46 59 57
f 58 65 60
f 23 51 18
f 36 66 51
f 18 51 27
f 18 27 12
f 24 54 25
f 29 55 63
f 26 63 39
f 39 67 30
f 32 69 64
f 42 41 71
f 42 73 43
f 43 72 44
f 56 45 75
f 47 76 77
f 47 57 76
f 48 47 77
f 48 77 58
f 49 60 78
f 50 49 79
f 50 79 66
f 50 66 35
f 35 66 36
f 51 80 27
f 27 80 61
f 37 52 81
f 38 82 53
f 55 54 83
f 55 83 67
f 55 67 63
f 30 67 68
f 69 84 64
f 64 70 40
f 30 85 32
f 40 70 41
f 42 71 73
f 43 73 72
f 44 72 74
f 44 74 45
f 57 59 76
f 60 65 78
f 52 61 88
f 37 81 38
f 82 38 81
f 54 24 83
f 39 63 67
f 64 89 70
f 70 89 41
f 59 56 75
f 41 90 71
f 73 71 91
f 74 86 45
f 59 93 76
f 58 77 87
f 58 87 65
f 49 78 79
f 80 94 61
f 82 81 52
f 82 52 88
f 82 97 62
f 82 62 53
f 62 83 24
f 32 85 69
f 84 89 64
f 30 68 85
f 41 89 90
f 71 90 91
f 73 91 92
f 86 75 45
f 59 75 98
f 79 100 66
f 51 94 80
f 51 66 94
f 82 88 95
f 95 88 101
f 82 95 96
f 82 96 97
f 83 68 67
f 68 83 85
f 89 102 90
f 73 92 72
f 72 103 74
f 59 98 93
f 99 77 76
f 99 87 77
f 87 78 65
f 61 105 88
f 95 101 106
f 95 106 107
f 95 107 108
f 95 108 109
f 97 96 110
f 97 110 111
f 97 85 83
f 97 83 62
f 85 97 111
f 69 85 84
f 84 111 102
f 84 102 89
f 85 111 84
f 86 98 75
f 92 103 72
f 78 104 79
f 79 104 100
f 94 105 61
f 95 109 112
f 95 112 96
f 88 105 101
f 96 112 113
f 96 113 114
f 96 114 115
f 111 116 102
f 102 117 90
f 87 99 118
f 114 113 119
f 96 115 110
f 110 116 111
f 117 91 90
f 91 117 92
f 92 121 103
f 86 74 120
f 93 98 122
f 66 100 94
f 101 105 106
f 115 114 125
f 110 115 126
f 102 116 117
f 86 120 98
f 103 127 74
f 74 127 120
f 78 87 124
f 78 124 104
f 100 104 123
f 100 123 94
f 112 129 113
f 113 129 122
f 107 124 108
f 126 116 110
f 98 120 122
f 92 117 121
f 76 93 129
f 76 128 99
f 118 99 128
f 94 123 105
f 106 123 107
f 113 122 119
f 108 118 109
f 127 125 114
f 121 117 126
f 103 121 127
f 121 125 127
f 93 122 129
f 76 129 128
f 118 124 87
f 105 123 106
f 107 123 104
f 107 104 124
f 108 124 118
f 119 127 114
f 116 126 117
f 120 127 119
f 109 118 128
f 112 128 129
f 119 122 120
f 115 125 126
f 121 126 125
f 109 128 112

