# https://github.com/mikedh/trimesh
v 0.01175053 0.00381119 0.00047951
v 0.01174002 -0.00384799 0.00029782
v 0.01152981 -0.00397932 0.00228385
v 0.01063059 0.00512086 -0.00338640
v 0.01093021 0.00544081 0.00103493
v 0.01154616 0.00371999 0.00239538
v 0.01007471 -0.00549146 -0.00427148
v 0.00934132 0.00546196 0.01071007
v 0.00976173 -0.00074437 0.01157895
v 0.00971502 -0.00375679 0.01109864
v 0.00934132 -0.00549875 0.01071007
v 0.00974071 0.00516646 -0.00541920
v 0.00971736 0.00372182 0.01110224
v 0.00718786 -0.00591464 0.01586942
v 0.00861727 -0.00695434 0.00997970
v 0.01052432 -0.00595385 0.00102099
v 0.00952350 -0.00676555 -0.00137519
v 0.00902834 -0.00552976 -0.00574661
v 0.00919184 0.00530691 -0.00581137
v 0.00863596 0.00619340 -0.00536883
v 0.00934599 0.00691573 -0.00066281
v 0.00861260 0.00691573 0.00998330
v 0.00590290 0.00614831 0.01782239
v 0.00753091 0.00465049 0.01605966
v 0.00737099 -0.00301418 0.01671526
v 0.00003847 -0.00348683 -0.00577899
v 0.00064983 -0.00918652 -0.00395037
v -0.00061550 0.00339075 -0.00575560
v 0.00065100 0.00915064 -0.00395217
v 0.00750084 0.00727324 -0.00424270
v 0.00656658 0.00746705 0.01409342
v 0.00739807 -0.00827176 0.00841462
v -0.00087476 -0.00913773 -0.00390090
v -0.00196733 -0.00365350 -0.00534691
v -0.00087476 0.00910094 -0.00390450
v 0.00749033 0.00814559 0.00859002
v 0.00368674 0.00927057 -0.00043615
v 0.00620339 0.00271790 0.01879134
v 0.00482507 -0.00569940 0.01999371
v 0.00484485 -0.00685391 0.01873940
v 0.00749617 -0.00730639 -0.00423190
v 0.00358036 0.00700197 0.02013700
v 0.00539577 -0.00787081 0.01540867
v 0.00580867 -0.00861377 0.01138152
v 0.00590676 -0.00897265 0.00658690
v -0.00199470 -0.00915415 0.00974764
v 0.00222835 -0.00922611 0.01072598
v -0.00135065 0.00918735 0.00959697
v 0.00533337 0.00910094 0.00594288
v 0.00482799 -0.00424506 0.02068180
v 0.00365521 -0.00927545 -0.00079953
v -0.00272692 -0.00879116 -0.00285032
v -0.00236081 0.00344821 -0.00525550
v -0.00272459 0.00875437 -0.00285032
v 0.00479354 0.00806431 0.01574889
v 0.00263147 0.00549434 0.02290079
v -0.00395382 -0.00389567 -0.00407838
v -0.00615972 -0.00613671 -0.00058186
v -0.00452303 -0.00877292 0.01509588
v -0.00385328 0.00377312 -0.00419682
v -0.00635650 0.00584683 -0.00064122
v -0.00451836 0.00873795 0.01509228
v 0.00044663 0.00919146 0.01147012
v 0.00508316 0.00883394 0.01144538
v 0.00306313 0.00387777 0.02292440
v 0.00470975 0.00087995 0.02112591
v 0.00314487 -0.00813678 0.01808706
v -0.00433734 -0.00804877 -0.00099562
v -0.00484184 0.00760545 -0.00079009
v -0.01053613 0.00490471 0.02472738
v 0.00246571 -0.00391935 0.02357573
v 0.00099908 -0.00602322 0.02411080
v -0.00586076 -0.00832489 0.01374757
v -0.00784547 -0.00699721 0.01506889
v -0.01055394 -0.00487025 0.02457200
v -0.01138922 -0.00308006 0.02541098
v -0.00706186 -0.00364734 -0.00060165
v 0.00007559 -0.00878492 0.01696834
v -0.00633315 0.00800651 0.01289038
v -0.00809714 0.00685143 0.01623730
v -0.00706420 0.00361237 -0.00059805
v -0.01168322 0.00201907 0.02585892
v 0.00001848 0.00613697 0.02484521
v 0.00091113 -0.00753701 0.02201864
v -0.00519511 -0.00824440 0.02066718
v 0.00267833 0.00887789 0.01462129
v 0.00090777 0.00791348 0.02083640
v -0.00085607 0.00691755 0.02455469
v -0.00720273 -0.00087730 -0.00059580
v -0.01184525 -0.00044705 0.02574558
v -0.00811816 -0.00728678 0.02154237
v -0.01137345 -0.00340338 0.02784584
v -0.00684991 -0.00779341 0.02190305
v -0.00732696 0.00763463 0.02090464
v -0.01109785 0.00365250 0.02859510
v -0.00560910 0.00800651 0.02199300
v -0.00051595 0.00435168 0.02631112
v -0.00964377 0.00585903 0.02638466
v 0.00075351 0.00044565 0.02557564
v -0.00068207 -0.00421736 0.02655690
v -0.01203736 -0.00054064 0.02785529
v -0.01176803 0.00145030 0.02880018
v -0.00131671 -0.00685747 0.02488243
v -0.00991222 -0.00541165 0.02745008
v -0.00883870 -0.00651520 0.02555130
v -0.00334933 0.00716910 0.02498177
v -0.00364614 -0.00542214 0.02761434
v -0.00185573 -0.00805060 0.02202538
v -0.01075192 -0.00265113 0.02989393
v -0.01155855 -0.00113129 0.02962949
v -0.00621436 -0.00710699 0.02537995
v -0.00361330 0.00526405 0.02782695
v -0.00314682 -0.00107412 0.02864345
v -0.00352469 -0.00389165 0.02844129
v -0.00991485 -0.00450009 0.02902684
v -0.00429446 0.00283684 0.02910229
v -0.00467411 -0.00656622 0.02660424
v -0.00851974 0.00616433 0.02685665
v -0.01058459 0.00252205 0.03009766
v -0.00644292 0.00682247 0.02619532
v -0.00641154 0.00419447 0.02945207
v -0.01072914 0.00049986 0.03056926
v -0.00872615 0.00450137 0.02934098
v -0.00634482 -0.00293779 0.03001986
v -0.00764431 -0.00515144 0.02887995
v -0.00884746 -0.00335732 0.03023213
v -0.00815494 0.00146912 0.03075742
v -0.00590339 -0.00010823 0.03016737
v -0.00875491 -0.00134904 0.03080509
f 1 3 2
f 2 4 1
f 1 5 6
f 1 6 3
f 2 7 4
f 1 4 5
f 3 9 10
f 3 10 11
f 4 7 12
f 6 5 8
f 6 13 9
f 6 9 3
f 8 13 6
f 10 14 11
f 11 15 16
f 11 16 3
f 2 16 7
f 2 3 16
f 12 7 18
f 12 18 19
f 12 19 20
f 12 20 4
f 8 5 22
f 4 20 21
f 8 22 23
f 8 24 13
f 10 9 25
f 10 25 14
f 14 15 11
f 7 16 17
f 7 17 18
f 18 26 19
f 19 26 28
f 4 21 5
f 22 31 23
f 23 24 8
f 15 32 16
f 18 27 33
f 18 33 26
f 28 26 34
f 19 28 35
f 19 35 29
f 29 20 19
f 20 29 30
f 5 36 22
f 20 30 21
f 21 30 37
f 13 24 9
f 9 24 25
f 17 41 18
f 18 41 27
f 30 29 37
f 23 31 42
f 25 24 38
f 14 25 39
f 39 40 14
f 14 40 15
f 32 17 16
f 33 27 46
f 34 53 28
f 5 21 36
f 21 37 49
f 21 49 36
f 31 22 36
f 24 23 38
f 25 50 39
f 15 43 32
f 32 44 45
f 32 45 17
f 17 51 41
f 33 34 26
f 27 51 47
f 47 46 27
f 35 28 53
f 29 35 37
f 31 55 42
f 42 56 23
f 40 43 15
f 32 43 44
f 45 51 17
f 41 51 27
f 52 57 34
f 52 58 57
f 52 34 33
f 35 53 54
f 54 53 60
f 54 60 61
f 35 62 48
f 48 63 35
f 35 63 37
f 31 36 55
f 23 56 65
f 23 65 38
f 38 65 66
f 25 38 50
f 46 59 52
f 33 46 52
f 54 61 69
f 63 49 37
f 36 49 64
f 64 55 36
f 38 66 50
f 50 71 39
f 39 72 40
f 40 67 43
f 52 68 58
f 58 74 75
f 58 75 76
f 58 76 77
f 46 78 59
f 34 60 53
f 34 57 60
f 69 79 54
f 54 62 35
f 61 70 80
f 61 80 69
f 61 81 82
f 61 82 70
f 48 62 63
f 42 83 56
f 39 71 72
f 40 72 84
f 45 47 51
f 57 58 77
f 52 73 68
f 58 68 74
f 46 47 78
f 52 59 73
f 60 81 61
f 63 86 49
f 42 55 87
f 84 67 40
f 57 89 60
f 57 77 89
f 77 76 90
f 73 74 68
f 74 91 75
f 76 75 92
f 78 85 59
f 59 93 73
f 85 93 59
f 79 69 80
f 79 94 54
f 54 94 62
f 60 89 81
f 62 96 63
f 87 88 42
f 42 88 83
f 56 97 65
f 50 66 71
f 67 44 43
f 45 44 47
f 77 90 89
f 73 91 74
f 81 90 82
f 95 98 70
f 62 94 96
f 63 96 86
f 49 86 64
f 64 86 55
f 65 99 66
f 71 100 72
f 44 67 78
f 76 92 101
f 93 91 73
f 79 80 94
f 89 90 81
f 82 90 101
f 82 102 95
f 82 95 70
f 55 86 87
f 83 97 56
f 65 97 99
f 66 99 71
f 84 72 103
f 78 47 44
f 76 101 90
f 80 70 94
f 71 99 100
f 67 84 78
f 94 70 98
f 88 87 106
f 72 107 103
f 91 105 75
f 75 104 92
f 92 109 110
f 101 92 110
f 82 101 102
f 88 112 83
f 83 112 97
f 97 113 99
f 100 107 72
f 84 103 108
f 84 108 78
f 105 104 75
f 92 115 109
f 92 104 115
f 101 110 102
f 93 105 91
f 111 85 108
f 85 111 93
f 96 87 86
f 97 112 116
f 100 114 107
f 103 117 108
f 78 108 85
f 102 119 95
f 95 118 98
f 96 106 87
f 97 116 113
f 99 113 100
f 114 100 113
f 107 117 103
f 98 118 94
f 102 110 122
f 102 122 119
f 95 119 123
f 94 118 96
f 106 96 120
f 88 106 112
f 112 121 116
f 108 117 111
f 105 111 104
f 111 105 93
f 95 123 118
f 96 118 120
f 106 120 112
f 121 112 123
f 107 114 124
f 109 122 110
f 115 126 109
f 114 113 124
f 107 124 125
f 107 125 117
f 104 111 125
f 104 125 115
f 115 125 126
f 118 123 120
f 120 123 112
f 116 121 127
f 116 127 128
f 113 116 128
f 113 128 124
f 125 111 117
f 109 126 129
f 109 129 122
f 119 122 127
f 123 119 127
f 121 123 127
f 124 129 126
f 126 125 124
f 127 129 128
f 128 129 124
f 122 129 127

