# https://github.com/mikedh/trimesh
v 0.00893991 -0.00067784 0.01398052
v 0.00889065 0.00264118 0.01413032
v 0.00845986 -0.00342089 0.00769655
v 0.00855839 0.00112447 0.00811566
v 0.00873712 0.00024640 0.01952083
v 0.00872509 -0.00269709 0.01779234
v 0.00808507 -0.00001934 0.00611679
v 0.00846903 0.00521297 0.01365862
v 0.00841117 -0.00146813 0.02414218
v 0.00846674 -0.00515072 0.01365862
v 0.00813906 0.00487523 0.00672979
v 0.00804053 -0.00389927 0.02577399
v 0.00824103 -0.00511723 0.01904489
v 0.00788128 -0.00554012 0.00616141
v 0.00781855 0.00503932 0.02555674
v 0.00810125 0.00386154 0.02544997
v 0.00760058 -0.00685376 0.01325492
v 0.00697674 -0.00606730 0.00304652
v 0.00717208 0.00664358 0.00450410
v 0.00745479 -0.00351393 0.02642045
v 0.00739206 -0.00600224 0.02578462
v 0.00672755 -0.00726135 0.00405047
v 0.00659035 0.00588845 0.00194589
v 0.00767620 0.00411460 0.02626269
v 0.00740237 0.00714660 0.01307644
v 0.00739951 0.00682369 0.01920106
v 0.00441206 -0.00819228 0.02814947
v 0.00646303 -0.00733705 0.02607996
v 0.00623031 -0.00805403 0.01874529
v 0.00718125 0.00650173 0.02566563
v 0.00075610 0.00908596 0.03051221
v 0.00080995 -0.00856542 0.03051858
v 0.00460111 -0.00857594 -0.00179687
v 0.00543404 -0.00878165 0.01185258
v 0.00458048 -0.00792152 -0.00216658
v 0.00631967 0.00735804 0.00207869
v 0.00441035 0.00825597 0.02815266
v -0.00001267 -0.00889168 0.03088404
v 0.00176533 -0.00923396 0.02954332
v 0.00540167 0.00825094 0.00154644
v 0.00620911 0.00832246 0.01232215
v 0.00632769 0.00758288 0.02596947
v -0.00013068 0.00906491 0.03092016
v 0.00510751 -0.00841138 0.02705416
v 0.00265340 -0.00964561 0.01135963
v 0.00370974 -0.00792152 -0.00344993
v 0.00460111 -0.00900266 0.02196643
v 0.00493651 0.00661583 -0.00130180
v 0.00454153 0.00818851 -0.00087473
v 0.00289858 0.00949928 0.02797524
v -0.00957363 -0.00732258 0.03351237
v -0.00164302 -0.00931074 0.03069918
v 0.00121668 -0.00858168 -0.00478428
v 0.00515391 0.00847435 0.02688843
v 0.00388389 0.00913954 0.02769478
v -0.00957134 0.00737526 0.03350811
v 0.00114793 0.00971169 0.02854893
v 0.00115137 -0.00964656 0.02855106
v 0.00290087 -0.00943512 0.02797950
v 0.00136562 -0.00973172 0.01222229
v 0.00260671 0.00809738 -0.00389666
v 0.00480046 0.00854252 0.00147526
v 0.00503762 0.00907161 0.01166135
v -0.00982798 0.00757044 0.03330414
v -0.00561691 0.00918068 0.02984503
v -0.00924137 -0.00796457 0.03293868
v -0.01028397 -0.00710539 0.03353786
v 0.00008013 -0.00972215 0.02639867
v -0.00873726 -0.00912991 -0.00153340
v 0.00203815 -0.00663179 -0.00462917
v 0.00307960 0.00710832 -0.00400768
v 0.00275651 0.00966672 0.01114503
v -0.00881517 0.00824018 0.03270071
v 0.00136333 0.00979588 0.01221379
v -0.01175506 0.00436910 0.03351237
v -0.01111232 -0.00600703 0.03351449
v -0.01036188 -0.00890651 0.00093876
v -0.01030559 -0.00590465 -0.00883088
v -0.01004681 -0.00450682 -0.00949912
v -0.01024272 -0.00340366 -0.00967972
v 0.00320993 0.00958659 0.01678308
v -0.00736813 0.00882668 0.03083942
v -0.01048103 0.00693706 0.03352086
v -0.01132657 0.00563969 0.03350811
v 0.00007326 0.00978440 0.02639867
v -0.00734751 -0.00882087 0.03082455
v -0.01175735 -0.00431451 0.03351237
v -0.01278047 -0.00744600 0.00104606
v -0.01197389 -0.00813774 0.00104606
v -0.00551094 -0.00919784 0.02984078
v -0.01005139 -0.00878643 -0.00327783
v -0.01049936 -0.00728622 -0.00736374
v 0.00157872 0.00862863 -0.00347543
v -0.01083047 0.00874344 0.00104181
v -0.01217325 0.00797802 0.00104181
v -0.01351258 0.00655053 0.00104181
v -0.00895036 0.00913954 -0.00154190
v -0.00938115 0.00912040 0.00017703
v -0.01407856 -0.00534016 0.00104606
v -0.01361799 -0.00633663 0.00104606
v -0.01120942 -0.00749480 -0.00611279
v -0.01109284 -0.00431785 -0.00905558
v -0.00993338 0.00368789 -0.00956499
v -0.01372926 0.00601952 -0.00129782
v -0.01400065 0.00555836 0.00104181
v -0.00563467 0.00864585 -0.00737224
v -0.00793182 0.00864298 -0.00715126
v -0.01202087 0.00024544 0.03328289
v -0.01193035 -0.00254449 0.03328289
v -0.01439478 -0.00340366 0.00104606
v -0.01332239 -0.00668059 -0.00160670
v -0.01211338 -0.00552721 -0.00702909
v -0.01046728 0.00520532 -0.00928239
v -0.01436213 0.00390746 0.00115867
v -0.01440394 -0.00340366 -0.00078230
v -0.01196415 -0.00791709 -0.00274982
v -0.01239294 -0.00668131 -0.00513646
v -0.01220547 0.00380629 -0.00762269
v -0.01086370 0.00652637 -0.00808562
v -0.01071361 0.00843727 -0.00419997
v -0.01259315 -0.00318935 -0.00699403
v -0.01211882 0.00781753 -0.00248901
v -0.01406281 0.00388988 -0.00294265
v -0.01090953 0.00757427 -0.00652446
v -0.01368487 -0.00502186 -0.00364700
v -0.01325365 0.00605301 -0.00390676
v -0.01227808 0.00538280 -0.00690585
v -0.01394695 -0.00337688 -0.00352695
v -0.01315226 0.00379600 -0.00585356
f 1 3 4
f 1 2 5
f 1 5 6
f 3 7 4
f 1 4 2
f 5 9 6
f 3 1 10
f 4 7 11
f 1 6 10
f 4 11 2
f 9 12 6
f 6 13 10
f 3 10 14
f 7 3 14
f 2 11 8
f 8 15 2
f 2 15 16
f 6 12 13
f 16 9 2
f 2 9 5
f 14 18 7
f 8 11 19
f 9 16 12
f 10 17 14
f 10 13 17
f 7 23 11
f 12 21 13
f 16 20 12
f 12 20 21
f 14 17 22
f 13 21 17
f 18 23 7
f 11 23 19
f 19 25 8
f 16 15 24
f 16 24 20
f 21 20 27
f 14 22 18
f 17 21 28
f 25 26 8
f 8 26 30
f 8 30 15
f 20 31 32
f 20 32 27
f 17 28 29
f 17 29 34
f 17 34 22
f 23 36 19
f 24 37 31
f 24 31 20
f 32 38 39
f 32 39 27
f 18 22 33
f 35 18 33
f 19 36 40
f 19 40 41
f 19 41 25
f 25 42 26
f 26 42 30
f 15 30 24
f 30 37 24
f 31 43 32
f 32 43 38
f 27 39 44
f 27 44 21
f 21 44 28
f 29 28 44
f 29 47 34
f 34 33 22
f 36 23 48
f 36 48 49
f 36 49 40
f 25 41 42
f 33 34 45
f 46 33 53
f 33 46 35
f 29 44 47
f 18 35 23
f 41 54 42
f 42 54 30
f 37 30 55
f 31 50 43
f 50 57 43
f 43 56 51
f 43 51 38
f 38 52 39
f 38 51 52
f 39 52 58
f 39 58 59
f 39 59 44
f 34 47 45
f 45 53 33
f 23 35 48
f 49 48 61
f 49 62 40
f 40 63 41
f 54 55 30
f 37 55 31
f 31 55 50
f 57 65 43
f 52 51 66
f 51 56 67
f 60 69 45
f 45 69 53
f 45 59 60
f 60 59 68
f 46 53 70
f 62 72 63
f 62 63 40
f 41 63 54
f 43 73 56
f 65 73 43
f 56 75 67
f 67 66 51
f 58 68 59
f 47 44 59
f 35 46 48
f 46 71 48
f 47 59 45
f 60 68 69
f 53 78 79
f 53 79 80
f 70 71 46
f 71 61 48
f 72 81 63
f 54 63 55
f 73 65 82
f 73 64 56
f 56 64 83
f 56 83 84
f 56 84 75
f 57 50 81
f 57 81 74
f 74 85 57
f 57 85 65
f 66 86 52
f 75 87 67
f 67 87 76
f 67 88 66
f 66 88 89
f 52 90 58
f 52 86 90
f 58 90 68
f 69 77 91
f 69 91 53
f 53 92 78
f 53 80 70
f 49 61 62
f 73 82 94
f 73 94 95
f 73 95 64
f 83 64 95
f 83 95 96
f 81 72 74
f 74 72 97
f 74 97 98
f 74 98 85
f 85 98 65
f 66 89 77
f 66 77 86
f 76 87 99
f 76 99 100
f 76 100 88
f 76 88 67
f 68 90 69
f 92 101 78
f 70 80 103
f 70 103 71
f 62 61 93
f 62 93 72
f 63 50 55
f 82 98 94
f 82 65 98
f 96 84 83
f 84 96 105
f 84 105 75
f 50 63 81
f 72 93 106
f 72 106 97
f 97 106 107
f 86 77 90
f 90 77 69
f 75 108 87
f 87 108 109
f 87 109 110
f 87 110 99
f 53 91 92
f 101 102 78
f 101 112 102
f 78 102 79
f 79 102 80
f 80 113 103
f 80 102 113
f 71 103 106
f 71 106 61
f 93 61 106
f 96 95 104
f 104 105 96
f 75 105 114
f 98 97 94
f 75 114 108
f 109 108 110
f 108 114 110
f 99 110 115
f 99 115 111
f 99 111 100
f 100 111 88
f 91 77 116
f 92 91 101
f 101 117 112
f 102 118 113
f 105 104 114
f 107 106 113
f 107 113 119
f 97 107 120
f 97 120 94
f 111 116 88
f 88 116 89
f 91 116 101
f 102 121 118
f 106 103 113
f 95 122 104
f 107 119 124
f 107 124 120
f 110 114 115
f 115 125 111
f 77 89 116
f 112 121 102
f 94 122 95
f 104 123 114
f 116 117 101
f 112 117 125
f 112 125 121
f 104 122 126
f 114 123 115
f 113 127 119
f 113 118 127
f 120 124 122
f 120 122 94
f 115 128 125
f 122 124 126
f 126 124 119
f 104 126 123
f 126 129 123
f 123 128 115
f 121 125 128
f 118 129 127
f 126 119 127
f 125 117 111
f 116 111 117
f 121 129 118
f 127 129 126
f 121 128 129
f 123 129 128

