# https://github.com/mikedh/trimesh
v 0.00532634 0.00062365 0.05611095
v -0.00442257 -0.00103712 0.05626240
v 0.00065570 0.03486691 0.05612438
v -0.00627516 -0.01223966 0.05515842
v 0.01099216 0.04289948 0.05503985
v -0.01108492 0.03738659 0.05496429
v 0.00307603 -0.01883793 0.05414375
v 0.01210904 -0.01018090 0.05438675
v 0.00181952 0.07732669 0.05529626
v -0.00656927 0.06979153 0.05515377
v -0.01692041 -0.00853529 0.05344282
v -0.01994314 0.04583950 0.05228600
v -0.01640969 0.12215637 0.05131437
v -0.01126689 -0.02205787 0.05219273
v 0.02270888 -0.00103712 0.05164754
v 0.01874322 0.09606285 0.05151399
v 0.01001986 0.12280999 0.05281502
v -0.00693525 0.12299498 0.05344282
v 0.01556653 -0.01916333 0.05184235
v 0.02550449 -0.01109621 0.04929055
v -0.02737935 -0.00229054 0.04900917
v -0.01023451 -0.03181905 0.04844247
v 0.02050756 0.12391581 0.04761642
v -0.02330589 -0.01677854 0.04947365
v 0.00578381 -0.02886593 0.05060568
v 0.02660763 0.07435559 0.04858427
v 0.02658168 0.12215637 0.04692253
v -0.01712730 0.12389936 0.04813614
v -0.02382482 0.09591100 0.04938915
v -0.02834764 0.12271134 0.04563941
v -0.02859890 0.02810048 0.04847000
v 0.03637293 0.12215637 0.03973316
v -0.03563440 0.12215637 0.04047936
v -0.02377019 -0.02664248 0.04580118
v 0.02630379 -0.02250827 0.04606173
v 0.03863298 0.12388292 0.03367409
v -0.04689229 0.12391581 0.01931048
v -0.03306642 -0.01467276 0.04388130
v -0.03444020 0.05434507 0.04398387
v 0.00002155 -0.03631541 0.04636478
v -0.04277368 0.12288810 0.03269247
v 0.03649703 -0.01181111 0.04145203
v 0.03345877 -0.00020673 0.04544667
v -0.04160406 0.08562955 0.03618046
v 0.01782930 -0.03429377 0.04351182
v 0.03446453 0.06311554 0.04374982
v -0.05174046 0.12298162 0.01355877
v -0.03888449 -0.00082952 0.04085934
v -0.02167163 -0.03288890 0.04290278
v 0.04468389 0.12301143 0.03013723
v 0.04295233 0.07961848 0.03469702
v -0.00767472 -0.03977197 0.04223472
v 0.04021672 0.03151452 0.03924614
v 0.05008341 0.12389423 -0.00513368
v -0.03693444 -0.02356450 0.03509352
v -0.03111158 -0.03105444 0.03509903
v 0.02927735 -0.02809463 0.04097499
v 0.03469872 -0.02688605 0.03510454
v -0.04496749 0.12389114 -0.02318491
v -0.04570423 0.04556330 0.03241988
v -0.01937847 -0.03931721 0.03648128
v 0.00507576 -0.04053710 0.04165716
v 0.04289770 -0.00020673 0.03656389
v 0.05307405 0.12309364 0.00891328
v -0.05374070 0.12260856 -0.00191484
v -0.05018608 0.07997921 0.02338015
v -0.04234216 -0.00103712 0.03730733
v 0.04139556 -0.01369849 0.03507149
v 0.04885985 0.07054073 0.02645580
v 0.05263706 0.07263315 0.01745463
v 0.05376503 0.12215637 0.00390467
v 0.05132610 0.12281410 -0.01645192
v -0.05290010 0.08788833 0.01524830
v -0.04109128 -0.01446311 0.03512932
v 0.01339559 -0.04196459 0.03500541
v -0.05235463 0.12232903 -0.01269065
v -0.05476540 0.08385418 0.00660172
v -0.02140773 -0.03824840 0.03499715
v -0.01064418 -0.04273743 0.03503845
v 0.02145801 -0.03856082 0.03507149
v 0.04300149 -0.00692384 0.03513758
v 0.05545973 0.07387873 -0.00129117
v 0.01719738 0.12391581 -0.04893216
v -0.04690868 0.12301143 -0.02648566
v -0.05304971 0.04556330 0.01814300
v 0.02856451 -0.03321879 0.03503432
v 0.03995350 0.06362631 -0.03843033
v 0.04469481 0.06636412 -0.03314912
v 0.05500499 0.07334432 0.00704366
v 0.03801983 0.12300321 -0.03812193
v 0.04506284 0.12239069 -0.02937890
v -0.02274873 0.12391581 -0.04644300
v -0.03480412 0.12266201 -0.04099933
v -0.05600348 0.04556330 0.00203367
v -0.04930665 0.04556330 0.02665681
v -0.05025163 0.04462603 -0.02485559
v -0.00214068 -0.04377953 0.03487875
v 0.00684078 -0.04360893 0.03501642
v 0.02476819 0.05467291 -0.04983531
v 0.03308187 0.05965524 -0.04484597
v 0.04970925 0.06965280 -0.02487762
v 0.05303035 0.07133001 -0.01657308
v -0.05529064 0.04450682 -0.00900371
v -0.05538828 0.07068770 -0.00365230
v -0.05357274 0.04464247 -0.01654003
v -0.04231894 0.04429511 -0.03648223
v -0.03544868 0.04431361 -0.04328198
v -0.03064182 0.04421495 -0.04670733
v -0.01941944 0.04406285 -0.05216752
v -0.04054232 0.10658865 -0.03631151
v -0.05105869 0.09195510 -0.02029718
v -0.04509518 0.07970789 -0.03210830
v 0.00977952 0.04636902 -0.05480261
v 0.01646952 0.05180766 -0.05346029
v 0.02978262 0.12307721 -0.04484597
v -0.02038354 0.12306076 -0.04982429
v -0.01949318 0.04556330 -0.05249243
v -0.00859580 0.04399296 -0.05509999
v 0.00249002 0.04438349 -0.05521288
v 0.02826409 0.08469023 -0.04741498
v 0.00841393 0.12307721 -0.05316152
v -0.01225011 0.12260035 -0.05235751
v -0.03368571 0.08677853 -0.04361516
v -0.02709130 0.10093214 -0.04740397
v 0.02264607 0.12174118 -0.04884405
v -0.00027666 0.12215637 -0.05388845
v -0.01078211 0.07939239 -0.05424503
v 0.01386535 0.12215637 -0.05210419
v 0.00354801 0.07489976 -0.05529962
v 0.00055335 -0.01090995 0.03266581
v 0.00221865 -0.01071502 0.03266581
v -0.00110772 -0.01086545 0.03266581
v -0.00002781 -0.01085062 -0.01231437
v 0.00055335 -0.01086545 -0.01231437
v 0.00225458 -0.01070866 0.03266581
v 0.00221865 -0.01064722 -0.01231437
v -0.00277302 -0.01059213 0.03266581
v -0.00110772 -0.01082096 -0.01230984
v -0.00002781 -0.01074256 -0.01273081
v -0.00110772 -0.01051162 -0.01351390
v -0.00002781 -0.01052433 -0.01352748
v 0.00055335 -0.01053069 -0.01353201
v 0.00221865 -0.01042263 -0.01342790
v 0.00347397 -0.01038661 0.03266581
v 0.00342536 -0.01033576 -0.01231437
v 0.00330067 -0.01029126 -0.01327400
v -0.00378319 -0.01030398 0.03266581
v -0.00372191 -0.01024677 -0.01230984
v -0.00277302 -0.01051585 -0.01230984
v -0.00368387 -0.01023194 -0.01319704
v -0.00277302 -0.01035695 -0.01335095
v -0.00577606 -0.00887168 -0.01344601
v -0.00892703 -0.00570624 -0.01344148
v -0.01054583 -0.00104282 -0.01349127
v -0.01056274 0.00062254 -0.01350485
v -0.00110772 0.00937308 -0.01357727
v 0.01016898 -0.00139877 -0.01355011
v 0.01009924 -0.00270817 -0.01353654
v 0.00554714 -0.00889075 -0.01343243
v 0.00428760 -0.00997345 0.03266581
v 0.00425801 -0.00993955 -0.01064861
v 0.00425801 -0.00993319 -0.01231437
v 0.00651293 -0.00863650 -0.01326947
v -0.00461162 -0.00988022 0.03266581
v -0.00455244 -0.00987175 -0.01230984
v -0.00602754 -0.00903907 -0.01230984
v -0.00742023 -0.00736312 -0.01340527
v -0.00686231 -0.00844581 -0.01230984
v -0.01028378 -0.00358534 -0.01317441
v -0.01039790 -0.00270817 -0.01332379
v -0.00850225 -0.00678469 -0.01230984
v -0.00908975 -0.00595625 -0.01230984
v -0.01054795 -0.00103434 -0.01349127
v -0.01045073 0.00228578 -0.01338716
v -0.00891857 0.00561437 -0.01341885
v -0.00775413 0.00565463 -0.01347317
v -0.00277302 0.01014007 -0.01353201
v -0.00110772 0.01024601 -0.01357727
v -0.01086072 0.00062254 -0.01231437
v 0.01013517 0.00228578 -0.01355464
v 0.01018589 -0.00104070 -0.01354559
v 0.01066350 -0.00104070 -0.01231437
v 0.00991116 -0.00400910 -0.01338263
v 0.00849311 -0.00603677 -0.01341885
v 0.01062757 -0.00139877 -0.01231437
v 0.01048809 -0.00270817 -0.01231437
v 0.00712579 -0.00763009 -0.01340074
v 0.00554714 -0.00926154 -0.01064861
v 0.00558095 -0.00928696 0.03266581
v 0.00554714 -0.00925518 -0.01231437
v 0.00818457 -0.00702835 -0.01329663
v 0.00740898 -0.00794154 -0.01231437
v 0.00657633 -0.00868735 -0.01231437
v -0.00605290 -0.00905178 0.03266581
v -0.00686231 -0.00845005 -0.01064408
v -0.00688133 -0.00847335 0.03266581
v -0.00850648 -0.00678469 -0.01064408
v -0.00992452 -0.00444133 -0.01230984
v -0.01029224 -0.00360865 -0.01230984
v -0.01053315 -0.00270817 -0.01230984
v -0.01082902 -0.00104282 -0.01230984
v -0.01082902 -0.00103434 -0.01231437
v -0.00852972 -0.00680588 0.03266581
v -0.00910455 -0.00597744 0.03266581
v -0.00993086 -0.00450701 0.03266581
v -0.01032816 0.00329008 -0.01324231
v -0.01063459 0.00228578 -0.01231437
v -0.00866497 0.00652968 -0.01323326
v -0.00766960 0.00716319 -0.01337811
v -0.00610362 0.00850014 -0.01341885
v -0.00400298 0.00994938 -0.01336000
v -0.00277302 0.01050238 -0.01231437
v -0.00110772 0.01071638 -0.01231437
v -0.00002781 0.01024813 -0.01356822
v 0.00055124 0.01024813 -0.01356370
v 0.00221654 0.01018669 -0.01355464
v 0.00055124 0.01072062 -0.01231437
v -0.01087974 -0.00103434 0.03265676
v -0.01090933 0.00062254 0.03265676
v -0.01071067 0.00228578 0.03265676
v 0.00829446 0.00674791 -0.01339169
v 0.00991961 0.00395113 -0.01337811
v 0.01055572 0.00228578 -0.01231437
v 0.01066773 0.00062254 -0.01231437
v 0.01018589 0.00062254 -0.01353654
v 0.01066773 -0.00104070 -0.01064861
v 0.01001471 -0.00424217 -0.01231437
v 0.00956880 -0.00507484 -0.01231437
v 0.01062969 -0.00139877 -0.01064861
v 0.01049021 -0.00270817 -0.01064861
v 0.00659535 -0.00871278 0.03266581
v 0.00825431 -0.00710886 -0.01231437
v 0.00827544 -0.00712793 0.03266581
v 0.00744491 -0.00794366 0.03266581
v 0.00741109 -0.00797544 0.03266581
v -0.00770130 -0.00764492 0.03266581
v -0.01034930 -0.00367857 0.03266581
v -0.01061346 -0.00270817 0.03266581
v -0.01035986 0.00337271 -0.01231437
v -0.00997946 0.00420539 -0.01231437
v -0.01070222 0.00232180 0.03265676
v -0.00705039 0.00821199 -0.01326494
v -0.00924403 0.00561437 -0.01231437
v -0.00869879 0.00657206 -0.01231437
v -0.00794010 0.00740474 -0.01231437
v -0.00503217 0.00957436 -0.01231437
v -0.00419952 0.01003625 -0.01231437
v -0.00423967 0.01006380 0.03265676
v -0.00281318 0.01052781 0.03265676
v -0.00277302 0.01053840 0.03265676
v -0.00114788 0.01073121 0.03265676
v -0.00110772 0.01073333 0.03265676
v -0.00002781 0.01072062 -0.01065313
v 0.00221654 0.01059561 -0.01231437
v 0.00388184 0.00996633 -0.01336453
v 0.00667565 0.00835394 -0.01338716
v -0.00002781 0.01073545 0.03265676
v 0.00055124 0.01073333 0.03266581
v 0.00221654 0.01062527 0.03266581
v 0.00221654 0.01059773 -0.01064861
v -0.01087763 -0.00104282 0.03266581
v -0.01087763 -0.00103646 0.03266581
v 0.00765835 0.00772891 -0.01231437
v 0.00841492 0.00689623 -0.01231437
v 0.00974209 0.00484102 -0.01319252
v 0.01012883 0.00395113 -0.01231437
v 0.01055995 0.00228578 -0.01064861
v 0.01058319 0.00228578 0.03266581
v 0.01067829 0.00062254 0.03266581
v 0.01068041 -0.00104070 0.03266581
v 0.01064659 -0.00139453 0.03266581
v 0.01051768 -0.00270817 0.03266581
v 0.01004007 -0.00428242 0.03266581
v 0.00963220 -0.00509603 0.03266581
v 0.00957302 -0.00507484 -0.01064861
v 0.00895171 -0.00603677 -0.01064861
v 0.01050711 -0.00275055 0.03266581
v 0.00899609 -0.00606855 0.03266581
v -0.01041692 0.00342144 0.03265676
v -0.00998580 0.00420539 -0.01065313
v -0.00710745 0.00826072 -0.01231437
v -0.00925037 0.00561437 -0.01065313
v -0.00872203 0.00659113 0.03265676
v -0.00797603 0.00740685 0.03265676
v -0.00712647 0.00828615 0.03265676
v -0.00503217 0.00958284 -0.01065313
v -0.00505330 0.00963157 0.03265676
v -0.00002781 0.01073333 0.03266581
v 0.00388184 0.01015702 -0.01231437
v 0.00475253 0.00979683 -0.01317894
v 0.00388184 0.01021847 0.03266581
v 0.00682570 0.00847472 -0.01231437
v -0.00926305 0.00564615 0.03265676
v -0.01000694 0.00423717 0.03265676
v 0.00683415 0.00849379 0.03266581
v 0.00766258 0.00773526 0.03266581
v 0.00843605 0.00690682 0.03266581
v 0.00925180 0.00570124 -0.01231437
v 0.00926237 0.00573938 0.03266581
v 0.00975900 0.00486856 -0.01231437
v 0.00980338 0.00491306 0.03266581
v 0.01019011 0.00395113 0.03266581
v -0.00613321 0.00893661 0.03265676
v 0.00477155 0.00980743 -0.01231437
v 0.00482015 0.00985404 0.03266581
v 0.00560209 0.00930739 -0.01231437
v 0.00564647 0.00932011 0.03266581
f 1 3 2
f 2 3 6
f 1 5 3
f 2 4 7
f 2 7 1
f 7 8 1
f 3 5 9
f 3 9 10
f 3 10 6
f 2 11 4
f 8 5 1
f 2 6 11
f 6 12 11
f 6 10 13
f 7 4 14
f 8 15 5
f 5 16 17
f 5 17 9
f 10 9 18
f 13 12 6
f 4 11 14
f 9 17 18
f 8 7 19
f 8 19 20
f 18 13 10
f 14 22 7
f 8 20 15
f 5 15 26
f 5 26 16
f 17 27 23
f 17 28 18
f 17 23 28
f 11 12 21
f 11 21 24
f 12 13 29
f 13 18 30
f 22 25 7
f 7 25 19
f 17 16 27
f 13 30 29
f 11 24 14
f 23 36 54
f 23 54 83
f 23 83 92
f 23 92 59
f 23 59 37
f 23 37 28
f 12 29 31
f 18 28 30
f 16 26 27
f 12 31 21
f 24 34 14
f 14 34 22
f 20 19 35
f 27 32 36
f 27 26 32
f 27 36 23
f 28 37 30
f 24 21 38
f 30 33 29
f 30 41 33
f 33 39 29
f 22 40 25
f 20 43 15
f 30 37 41
f 33 41 44
f 24 38 34
f 37 47 41
f 33 44 39
f 34 49 22
f 25 45 19
f 25 40 45
f 19 45 35
f 35 42 20
f 42 43 20
f 15 43 26
f 26 46 32
f 38 21 48
f 32 46 53
f 32 51 50
f 29 39 31
f 34 38 55
f 22 49 52
f 35 45 57
f 42 35 58
f 26 43 46
f 32 53 51
f 32 50 36
f 36 50 54
f 41 60 44
f 44 48 39
f 56 49 34
f 52 40 22
f 42 63 43
f 54 50 64
f 59 65 37
f 37 65 47
f 47 66 41
f 44 60 67
f 34 55 56
f 61 52 49
f 40 62 45
f 35 57 58
f 42 58 68
f 63 53 43
f 64 50 70
f 38 48 74
f 21 39 48
f 21 31 39
f 38 74 55
f 66 60 41
f 44 67 48
f 43 53 46
f 50 69 70
f 64 72 54
f 64 71 72
f 59 76 65
f 47 77 73
f 73 66 47
f 52 62 40
f 45 62 75
f 45 80 57
f 68 81 63
f 68 63 42
f 51 53 63
f 54 72 83
f 59 84 76
f 47 65 77
f 74 48 67
f 66 73 85
f 61 49 78
f 49 56 78
f 61 79 52
f 57 80 86
f 58 87 88
f 58 88 68
f 81 82 89
f 71 82 72
f 83 72 90
f 72 91 90
f 74 85 94
f 66 95 60
f 55 74 96
f 52 79 97
f 52 97 62
f 62 98 75
f 57 86 58
f 58 86 99
f 58 99 100
f 58 100 87
f 68 88 101
f 68 101 102
f 68 102 81
f 81 102 82
f 81 89 70
f 63 70 69
f 63 69 51
f 50 51 69
f 89 71 64
f 71 89 82
f 72 101 91
f 59 93 84
f 67 85 74
f 74 94 103
f 94 104 103
f 74 103 105
f 74 105 96
f 67 60 95
f 56 55 96
f 56 96 106
f 78 56 107
f 78 107 108
f 56 106 107
f 78 108 109
f 78 79 61
f 78 109 79
f 97 98 62
f 45 75 80
f 89 64 70
f 81 70 63
f 91 88 90
f 59 92 93
f 76 84 111
f 76 103 65
f 65 103 104
f 67 95 85
f 85 95 66
f 86 113 99
f 99 113 114
f 87 90 88
f 72 82 102
f 90 115 83
f 93 110 84
f 65 104 77
f 73 77 85
f 85 77 94
f 106 112 107
f 96 112 106
f 108 117 109
f 79 109 118
f 109 117 118
f 98 119 75
f 75 119 113
f 75 113 80
f 86 80 113
f 102 101 72
f 91 101 88
f 92 83 121
f 92 121 122
f 92 116 93
f 104 94 77
f 96 84 112
f 108 124 117
f 79 118 97
f 97 118 98
f 98 118 119
f 99 120 100
f 100 120 115
f 100 115 87
f 83 115 121
f 90 87 115
f 122 116 92
f 93 116 124
f 93 123 110
f 105 111 96
f 96 111 84
f 108 107 123
f 107 112 110
f 117 124 116
f 119 118 126
f 117 127 118
f 115 125 121
f 121 126 122
f 110 112 84
f 103 76 105
f 105 76 111
f 107 110 123
f 123 124 108
f 118 127 126
f 119 129 113
f 113 129 128
f 114 113 128
f 114 120 99
f 121 125 128
f 115 120 125
f 124 123 93
f 127 117 116
f 119 126 129
f 114 125 120
f 126 121 129
f 122 126 127
f 116 122 127
f 114 128 125
f 129 121 128
f 130 131 135
f 130 135 144
f 130 144 160
f 130 160 189
f 130 189 231
f 130 231 235
f 130 235 234
f 130 234 233
f 130 233 278
f 130 278 274
f 130 274 273
f 130 273 277
f 130 277 272
f 130 272 271
f 130 271 270
f 130 270 269
f 130 269 268
f 130 268 302
f 130 302 301
f 130 301 299
f 130 299 297
f 130 297 296
f 130 296 295
f 130 295 307
f 130 307 305
f 130 305 291
f 130 291 259
f 130 259 258
f 130 258 288
f 130 288 262
f 130 262 261
f 130 261 238
f 130 238 237
f 130 237 205
f 130 205 204
f 130 204 203
f 130 203 236
f 130 236 196
f 130 196 194
f 130 194 164
f 130 164 147
f 130 147 137
f 130 137 132
f 130 132 133
f 130 133 134
f 130 134 131
f 131 134 136
f 131 136 135
f 132 137 138
f 132 138 133
f 133 139 134
f 133 138 140
f 133 140 139
f 134 139 141
f 134 141 142
f 134 142 143
f 134 143 136
f 135 136 145
f 135 145 144
f 136 143 146
f 136 146 145
f 137 147 148
f 137 148 149
f 137 149 138
f 138 149 150
f 138 150 151
f 138 151 140
f 139 140 141
f 140 151 152
f 140 152 153
f 140 153 154
f 140 154 141
f 141 154 155
f 141 155 142
f 142 155 156
f 142 156 157
f 142 157 158
f 142 158 159
f 142 159 143
f 143 159 146
f 144 145 161
f 144 161 160
f 145 146 162
f 145 162 161
f 146 159 163
f 146 163 162
f 147 164 165
f 147 165 148
f 148 165 150
f 148 150 149
f 150 152 151
f 150 165 166
f 150 166 152
f 152 167 153
f 152 166 168
f 152 168 167
f 153 169 170
f 153 170 154
f 153 167 171
f 153 171 172
f 153 172 169
f 154 173 155
f 154 170 173
f 155 174 175
f 155 175 176
f 155 176 177
f 155 177 178
f 155 178 156
f 155 173 179
f 155 179 174
f 156 178 180
f 156 180 157
f 157 180 181
f 157 181 182
f 157 182 158
f 158 183 184
f 158 184 159
f 158 182 185
f 158 185 186
f 158 186 183
f 159 184 187
f 159 187 163
f 160 161 188
f 160 188 189
f 161 162 190
f 161 190 188
f 162 163 190
f 163 187 191
f 163 191 192
f 163 192 193
f 163 193 190
f 164 194 166
f 164 166 165
f 166 195 168
f 166 194 196
f 166 196 195
f 167 168 171
f 168 195 197
f 168 197 171
f 169 172 198
f 169 198 199
f 169 199 200
f 169 200 201
f 169 201 170
f 170 201 202
f 170 202 173
f 171 197 172
f 172 197 203
f 172 203 204
f 172 204 205
f 172 205 198
f 173 202 179
f 174 206 175
f 174 179 207
f 174 207 206
f 175 206 208
f 175 208 209
f 175 209 210
f 175 210 177
f 175 177 176
f 177 210 211
f 177 211 212
f 177 212 213
f 177 213 178
f 178 214 215
f 178 215 216
f 178 216 180
f 178 213 217
f 178 217 214
f 179 202 201
f 179 201 218
f 179 218 219
f 179 219 220
f 179 220 207
f 180 216 221
f 180 221 222
f 180 222 223
f 180 223 224
f 180 224 225
f 180 225 181
f 181 225 224
f 181 224 182
f 182 224 226
f 182 226 185
f 183 191 184
f 183 186 227
f 183 227 228
f 183 228 191
f 184 191 187
f 185 226 229
f 185 229 230
f 185 230 186
f 186 230 227
f 188 190 193
f 188 193 189
f 189 193 231
f 191 228 232
f 191 232 192
f 192 232 233
f 192 233 234
f 192 234 235
f 192 235 231
f 192 231 193
f 195 196 236
f 195 236 203
f 195 203 197
f 198 205 237
f 198 237 199
f 199 237 238
f 199 238 200
f 200 238 201
f 201 238 218
f 206 207 239
f 206 239 240
f 206 240 208
f 207 220 241
f 207 241 239
f 208 242 209
f 208 240 243
f 208 243 244
f 208 244 245
f 208 245 242
f 209 242 210
f 210 242 211
f 211 242 246
f 211 246 247
f 211 247 212
f 212 247 248
f 212 248 249
f 212 249 250
f 212 250 213
f 213 250 251
f 213 251 252
f 213 252 253
f 213 253 217
f 214 217 215
f 215 217 216
f 216 217 254
f 216 254 255
f 216 255 256
f 216 256 221
f 217 253 257
f 217 257 258
f 217 258 259
f 217 259 260
f 217 260 254
f 218 238 261
f 218 261 219
f 219 261 262
f 219 262 220
f 220 262 241
f 221 256 263
f 221 263 264
f 221 264 265
f 221 265 222
f 222 265 223
f 223 265 266
f 223 266 267
f 223 267 224
f 224 267 268
f 224 268 269
f 224 269 270
f 224 270 226
f 226 270 271
f 226 271 272
f 226 272 229
f 227 230 273
f 227 273 274
f 227 274 275
f 227 275 228
f 228 275 276
f 228 276 232
f 229 272 230
f 230 272 277
f 230 277 273
f 232 276 274
f 232 274 278
f 232 278 233
f 239 241 279
f 239 279 280
f 239 280 240
f 240 280 282
f 240 282 243
f 241 262 279
f 242 245 281
f 242 281 246
f 243 282 244
f 244 282 283
f 244 283 245
f 245 283 284
f 245 284 285
f 245 285 281
f 246 281 286
f 246 286 247
f 247 286 287
f 247 287 248
f 248 287 288
f 248 288 249
f 249 288 250
f 250 288 251
f 251 288 252
f 252 257 253
f 252 288 257
f 254 289 290
f 254 290 255
f 254 260 291
f 254 291 289
f 255 290 256
f 256 290 292
f 256 292 263
f 257 288 258
f 259 291 260
f 262 288 284
f 262 284 283
f 262 283 293
f 262 293 294
f 262 294 279
f 263 292 295
f 263 295 296
f 263 296 297
f 263 297 264
f 264 298 265
f 264 297 299
f 264 299 298
f 265 298 300
f 265 300 266
f 266 300 301
f 266 301 302
f 266 302 267
f 267 302 268
f 274 276 275
f 279 294 280
f 280 294 282
f 281 285 303
f 281 303 287
f 281 287 286
f 282 294 293
f 282 293 283
f 284 288 285
f 285 288 303
f 287 303 288
f 289 304 290
f 289 291 305
f 289 305 304
f 290 304 306
f 290 306 292
f 292 306 307
f 292 307 295
f 298 299 301
f 298 301 300
f 304 305 306
f 305 307 306

