# https://github.com/mikedh/trimesh

o geometry_0
v 0.00000750 -0.06099940 -0.04100000
v 0.00000750 -0.05297850 -0.04100000
v 0.00057741 -0.05297850 -0.04094905
v 0.01005731 -0.05297850 -0.03972639
v 0.01041050 -0.06099440 -0.03965634
v 0.00000750 -0.06339867 -0.03864382
v -0.01039551 -0.06099606 -0.03965634
v -0.01004232 -0.05297850 -0.03972639
v 0.01062723 -0.05297850 -0.03959266
v 0.01068342 -0.05297850 -0.03957356
v 0.01081185 -0.05297850 -0.03952261
v 0.01985829 -0.06099440 -0.03586736
v 0.01025798 -0.06335535 -0.03724285
v 0.00000750 -0.06570963 -0.03618576
v -0.01023497 -0.06335702 -0.03724285
v -0.01061224 -0.05297850 -0.03959266
v -0.01984330 -0.06099773 -0.03586736
v -0.01936167 -0.05297850 -0.03609661
v 0.01981013 -0.05297850 -0.03589283
v 0.02002685 -0.05297850 -0.03576547
v 0.02023556 -0.05297850 -0.03563811
v 0.02286039 -0.05297850 -0.03393147
v 0.02808597 -0.06099440 -0.02986866
v 0.01985026 -0.06323372 -0.03311637
v 0.00974426 -0.06561965 -0.03482937
v 0.00431800 -0.06995168 -0.03069014
v 0.00000750 -0.06791396 -0.03363217
v -0.00430301 -0.06995334 -0.03069014
v -0.00972927 -0.06562132 -0.03482937
v -0.01981119 -0.06323705 -0.03312910
v -0.02807098 -0.06099940 -0.02986866
v -0.02718801 -0.05297850 -0.03075382
v -0.02236378 -0.05297850 -0.03420530
v -0.02001989 -0.05297850 -0.03576547
v -0.01980316 -0.05297850 -0.03589283
v 0.02758829 -0.05297850 -0.03032079
v 0.02798162 -0.06306710 -0.02657638
v 0.01753848 -0.06741244 -0.02865237
v 0.01878267 -0.06537473 -0.03087481
v 0.02805386 -0.05297850 -0.02990050
v 0.02823046 -0.05297850 -0.02973493
v 0.02828664 -0.05297850 -0.02967125
v 0.03447547 -0.05297850 -0.02215059
v 0.03474036 -0.06099440 -0.02178125
v 0.00913420 -0.06777734 -0.03235219
v 0.00217479 -0.06998666 -0.03091939
v 0.00646924 -0.06989336 -0.03030806
v 0.00000750 -0.06999499 0.02405591
v 0.00000750 -0.06999833 -0.03099580
v -0.00215980 -0.06998666 -0.03091939
v -0.00645425 -0.06989502 -0.03030806
v -0.00911921 -0.06777900 -0.03235219
v -0.01876768 -0.06537807 -0.03087481
v -0.02821547 -0.05297850 -0.02973493
v -0.01752349 -0.06741577 -0.02865237
v -0.02795057 -0.06307210 -0.02659549
v -0.03472537 -0.06100106 -0.02178125
v -0.03446048 -0.05297850 -0.02215059
v 0.02641635 -0.06504317 -0.02462140
v 0.01840540 -0.06914859 -0.02494617
v 0.01659129 -0.06930687 -0.02618793
v 0.01558792 -0.06938851 -0.02679290
v 0.01470495 -0.06945516 -0.02728960
v 0.01273030 -0.06959178 -0.02826391
v 0.01069144 -0.06971174 -0.02909813
v 0.03499722 -0.05297850 -0.02128454
v 0.03915521 -0.05297850 -0.01210820
v 0.03929167 -0.06099440 -0.01171974
v 0.03403398 -0.06290382 -0.01817057
v 0.02463436 -0.06692260 -0.02281287
v 0.00860442 -0.06981339 -0.02977951
v 0.00000750 -0.06999833 0.00532113
v -0.01311666 -0.06950348 0.02405591
v -0.00858943 -0.06981505 -0.02977951
v 0.01269017 -0.06951681 0.02405591
v -0.01067645 -0.06971341 -0.02909813
v -0.01271531 -0.06959345 -0.02826391
v -0.01557293 -0.06939185 -0.02679290
v -0.01657630 -0.06931020 -0.02618793
v -0.01838238 -0.06915192 -0.02494617
v -0.01468996 -0.06945849 -0.02728960
v -0.02640136 -0.06504817 -0.02462140
v -0.03400294 -0.06290882 -0.01820878
v -0.03927668 -0.06100106 -0.01171974
v -0.03914022 -0.05297850 -0.01210820
v -0.03498223 -0.05297850 -0.02127817
v -0.02461937 -0.06692759 -0.02281924
v 0.02008304 -0.06898530 -0.02361525
v 0.01557989 -0.06939018 0.01886596
v 0.03942011 -0.05297850 -0.01112752
v 0.03760600 -0.06279385 -0.00864398
v 0.03207539 -0.06472160 -0.01656582
v 0.04055994 -0.06099440 -0.00603945
v 0.02450592 -0.06848878 -0.01899205
v 0.02314133 -0.06865207 -0.02062863
v 0.02167239 -0.06881868 -0.02216970
v -0.01556490 -0.06936852 0.02405591
v -0.01556490 -0.06939185 0.01886596
v 0.01557989 -0.06936685 0.02405591
v -0.02006805 -0.06898863 -0.02361525
v -0.02449093 -0.06849378 -0.01899205
v -0.03206040 -0.06472659 -0.01656582
v -0.03758298 -0.06280051 -0.00869493
v -0.04054495 -0.06100106 -0.00603945
v -0.04055297 -0.05297850 -0.00594393
v -0.02312634 -0.06865540 -0.02062863
v -0.02165740 -0.06882202 -0.02216970
v 0.01806024 -0.06913526 0.02405591
v 0.01765889 -0.06917524 0.02405591
v 0.01736991 -0.06920190 0.02405591
v 0.04056796 -0.05297850 -0.00594393
v 0.03535844 -0.06450833 -0.00734490
v 0.02990810 -0.06644774 -0.01523490
v 0.02575011 -0.06833050 -0.01726631
v 0.04100945 -0.06099440 -0.00000255
v 0.03859332 -0.06277886 0.00120101
v 0.02616752 -0.06827718 0.02405591
v 0.02128709 -0.06879702 0.02405591
v 0.01960142 -0.06897531 0.02405591
v -0.02615253 -0.06828052 0.02405591
v -0.02573512 -0.06833550 -0.01725994
v -0.02989311 -0.06645274 -0.01524127
v -0.03534345 -0.06451333 -0.00735127
v -0.04099446 -0.06100106 -0.00000255
v -0.03858636 -0.06278385 0.00114370
v -0.04096235 -0.05297850 -0.00044194
v 0.04097734 -0.05297850 -0.00044194
v 0.03295836 -0.06613284 -0.00642790
v 0.02952280 -0.06780399 -0.00947183
v 0.02876827 -0.06791563 -0.01156055
v 0.02788529 -0.06804226 -0.01354737
v 0.02688192 -0.06818055 -0.01544505
v 0.04085694 -0.06099440 0.00562680
v 0.04100143 -0.05297850 0.00001019
v 0.04000608 -0.06099440 0.02405591
v 0.03608087 -0.06448667 0.00232815
v 0.02657689 -0.06822220 0.02123487
v 0.02718695 -0.06813889 0.01798717
v 0.02790938 -0.06803893 0.01486046
v 0.02874418 -0.06791896 0.01191842
v 0.02961110 -0.06779066 0.00911649
v 0.03034156 -0.06768069 0.00639733
v 0.02979572 -0.06670099 0.02405591
v -0.02978073 -0.06670599 0.02405591
v -0.03032657 -0.06768569 0.00640370
v -0.02959611 -0.06779566 0.00911649
v -0.02872919 -0.06792396 0.01191842
v -0.02789439 -0.06804392 0.01486046
v -0.02717195 -0.06814389 0.01798717
v -0.02686693 -0.06818555 -0.01544505
v -0.02787030 -0.06804559 -0.01354737
v -0.02875328 -0.06792063 -0.01156055
v -0.02950781 -0.06780899 -0.00947183
v -0.03294337 -0.06613784 -0.00643427
v -0.04098644 -0.05297850 0.00001019
v -0.04084195 -0.06100106 0.00562680
v -0.04086603 -0.05297850 0.00478622
v -0.03606588 -0.06449334 0.00232178
v -0.03999108 -0.06100106 0.02405591
v 0.03083923 -0.06760405 -0.00324388
v 0.03054223 -0.06764904 -0.00534534
v 0.03011680 -0.06771569 -0.00739584
v 0.04085694 -0.05297850 0.00534024
v 0.04084088 -0.05297850 0.00590062
v 0.04000608 -0.05297850 0.02405591
v 0.03674711 -0.06304877 0.02405591
v 0.03348012 -0.06610118 0.00302227
v 0.03099175 -0.06757906 -0.00100870
v 0.03077502 -0.06761405 0.00379280
v 0.03331958 -0.06495652 0.02405591
v 0.03050210 -0.06636444 0.02405591
v -0.03049514 -0.06636610 0.02405591
v -0.03009379 -0.06772069 -0.00739584
v -0.03330459 -0.06496152 0.02405591
v -0.03076003 -0.06761906 0.00379280
v -0.03052724 -0.06765404 -0.00534534
v -0.03081622 -0.06760905 -0.00324388
v -0.04082589 -0.05297850 0.00590062
v -0.03999108 -0.05297850 0.02405591
v -0.03097676 -0.06758406 -0.00100870
v -0.03346513 -0.06610618 0.00301590
v -0.03672409 -0.06305544 0.02405591
v 0.03098372 -0.06758073 0.00127743
v 0.03449152 -0.06431672 0.02405591
v -0.03449259 -0.06431339 0.02405591
v -0.03096070 -0.06758573 0.00127743
f 1 2 3
f 1 3 4
f 1 4 5
f 1 5 6
f 1 6 7
f 1 7 8
f 1 8 2
f 2 8 16
f 2 16 18
f 2 18 35
f 2 35 34
f 2 34 33
f 2 33 32
f 2 32 54
f 2 54 58
f 2 58 86
f 2 86 85
f 2 85 105
f 2 105 126
f 2 126 155
f 2 155 157
f 2 157 178
f 2 178 179
f 2 179 165
f 2 165 164
f 2 164 163
f 2 163 134
f 2 134 127
f 2 127 111
f 2 111 90
f 2 90 67
f 2 67 66
f 2 66 43
f 2 43 42
f 2 42 41
f 2 41 40
f 2 40 36
f 2 36 22
f 2 22 21
f 2 21 20
f 2 20 19
f 2 19 11
f 2 11 10
f 2 10 9
f 2 9 4
f 2 4 3
f 4 9 5
f 5 9 10
f 5 10 11
f 5 11 12
f 5 12 13
f 5 13 6
f 6 13 14
f 6 14 15
f 6 15 7
f 7 16 8
f 7 15 17
f 7 17 18
f 7 18 16
f 11 19 12
f 12 19 20
f 12 20 21
f 12 21 22
f 12 22 23
f 12 23 24
f 12 24 25
f 12 25 13
f 13 25 14
f 14 25 26
f 14 26 27
f 14 27 28
f 14 28 29
f 14 29 15
f 15 29 17
f 17 30 31
f 17 31 32
f 17 32 33
f 17 33 34
f 17 34 35
f 17 35 18
f 17 29 30
f 22 36 23
f 23 37 38
f 23 38 39
f 23 39 24
f 23 36 40
f 23 40 41
f 23 41 42
f 23 42 43
f 23 43 44
f 23 44 37
f 24 39 45
f 24 45 25
f 25 45 26
f 26 46 27
f 26 45 47
f 26 47 48
f 26 48 46
f 27 46 49
f 27 49 50
f 27 50 28
f 28 51 52
f 28 52 29
f 28 50 48
f 28 48 51
f 29 52 30
f 30 52 53
f 30 53 31
f 31 54 32
f 31 53 55
f 31 55 56
f 31 56 57
f 31 57 58
f 31 58 54
f 37 59 60
f 37 60 38
f 37 44 59
f 38 61 62
f 38 62 63
f 38 63 64
f 38 64 39
f 38 60 61
f 39 64 65
f 39 65 45
f 43 66 44
f 44 66 67
f 44 67 68
f 44 68 69
f 44 69 70
f 44 70 59
f 45 65 71
f 45 71 47
f 46 48 72
f 46 72 49
f 47 71 48
f 48 73 74
f 48 74 51
f 48 50 72
f 48 71 75
f 48 75 99
f 48 99 110
f 48 110 109
f 48 109 108
f 48 108 119
f 48 119 118
f 48 118 117
f 48 117 143
f 48 143 171
f 48 171 170
f 48 170 184
f 48 184 166
f 48 166 135
f 48 135 165
f 48 165 179
f 48 179 159
f 48 159 182
f 48 182 185
f 48 185 174
f 48 174 172
f 48 172 144
f 48 144 120
f 48 120 97
f 48 97 73
f 49 72 50
f 51 74 52
f 52 74 76
f 52 76 53
f 53 76 77
f 53 77 55
f 55 78 79
f 55 79 80
f 55 80 56
f 55 77 81
f 55 81 78
f 56 80 82
f 56 82 57
f 57 83 84
f 57 84 85
f 57 85 86
f 57 86 58
f 57 82 87
f 57 87 83
f 59 70 88
f 59 88 60
f 60 88 89
f 60 89 61
f 61 89 62
f 62 89 63
f 63 89 64
f 64 89 65
f 65 89 71
f 67 90 68
f 68 91 92
f 68 92 69
f 68 90 93
f 68 93 91
f 69 92 94
f 69 94 70
f 70 94 95
f 70 95 96
f 70 96 88
f 71 89 75
f 73 97 98
f 73 98 76
f 73 76 74
f 75 89 99
f 76 98 77
f 77 98 81
f 78 98 79
f 78 81 98
f 79 98 80
f 80 98 100
f 80 100 82
f 82 100 87
f 83 87 101
f 83 101 102
f 83 102 84
f 84 103 104
f 84 104 105
f 84 105 85
f 84 102 103
f 87 106 101
f 87 100 107
f 87 107 106
f 88 96 108
f 88 108 89
f 89 108 109
f 89 109 110
f 89 110 99
f 90 111 93
f 91 93 112
f 91 112 113
f 91 113 92
f 92 113 114
f 92 114 94
f 93 111 115
f 93 115 116
f 93 116 112
f 94 114 117
f 94 117 95
f 95 117 96
f 96 117 118
f 96 118 119
f 96 119 108
f 97 120 98
f 98 120 107
f 98 107 100
f 101 106 120
f 101 120 121
f 101 121 102
f 102 122 103
f 102 121 122
f 103 122 123
f 103 123 104
f 104 124 105
f 104 123 125
f 104 125 124
f 105 124 126
f 106 107 120
f 111 127 115
f 112 128 129
f 112 129 130
f 112 130 113
f 112 116 128
f 113 130 131
f 113 131 132
f 113 132 114
f 114 132 117
f 115 133 116
f 115 127 134
f 115 134 133
f 116 133 135
f 116 135 136
f 116 136 128
f 117 132 137
f 117 137 138
f 117 138 139
f 117 139 140
f 117 140 141
f 117 141 142
f 117 142 143
f 120 144 145
f 120 145 146
f 120 146 147
f 120 147 148
f 120 148 149
f 120 149 150
f 120 150 121
f 121 150 122
f 122 150 151
f 122 151 152
f 122 152 123
f 123 152 153
f 123 153 154
f 123 154 125
f 124 155 126
f 124 125 156
f 124 156 157
f 124 157 155
f 125 154 158
f 125 158 159
f 125 159 156
f 128 160 161
f 128 161 162
f 128 162 129
f 128 136 160
f 129 162 141
f 129 141 140
f 129 140 130
f 130 140 139
f 130 139 131
f 131 139 138
f 131 138 132
f 132 138 137
f 133 134 163
f 133 163 164
f 133 164 165
f 133 165 135
f 135 166 167
f 135 167 136
f 136 167 168
f 136 168 160
f 141 162 142
f 142 169 170
f 142 170 171
f 142 171 143
f 142 162 169
f 144 172 145
f 145 173 153
f 145 153 146
f 145 172 174
f 145 174 175
f 145 175 173
f 146 153 147
f 147 152 148
f 147 153 152
f 148 151 150
f 148 150 149
f 148 152 151
f 153 173 154
f 154 173 176
f 154 176 177
f 154 177 158
f 156 178 157
f 156 159 179
f 156 179 178
f 158 177 180
f 158 180 181
f 158 181 159
f 159 181 182
f 160 168 183
f 160 183 169
f 160 169 162
f 160 162 161
f 166 184 169
f 166 169 167
f 167 169 183
f 167 183 168
f 169 184 170
f 173 175 176
f 174 185 175
f 175 186 180
f 175 180 177
f 175 177 176
f 175 185 182
f 175 182 181
f 175 181 186
f 180 186 181

o geometry_1
v -0.02873030 -0.00183567 -0.03113456
v -0.02872227 0.00189047 -0.03113456
v -0.02821662 -0.00573229 -0.03113456
v -0.03057634 -0.01375933 -0.02709570
v -0.03316882 -0.01375933 -0.02394652
v -0.03173212 0.02999485 -0.02594477
v -0.02610571 0.02999485 -0.03113456
v -0.02890687 -0.01375933 -0.02905864
v -0.02698860 -0.01375933 -0.03113456
v -0.03599406 -0.01375933 -0.01928630
v -0.03770365 0.02999485 -0.01608769
v -0.02827280 0.03599565 -0.01632070
v -0.02500611 0.03599565 -0.02098799
v -0.02098496 0.03599565 -0.02501272
v -0.02258218 0.03179704 -0.03113456
v 0.02700404 -0.01375933 -0.03113456
v -0.03626695 -0.01375933 -0.01882734
v -0.03845812 -0.01375933 -0.01399059
v -0.04068942 0.02999485 -0.00495965
v -0.03068068 0.03599565 -0.01115916
v 0.03264649 0.03600052 0.00000419
v -0.01632170 0.03599565 -0.02827488
v -0.01994154 0.03286861 -0.03113456
v 0.02823205 -0.00565436 -0.03113456
v 0.02926744 -0.01375933 -0.02869147
v -0.04061718 -0.01375933 -0.00547510
v -0.04083389 -0.01375933 -0.00257306
v -0.04084995 -0.01375933 -0.00233298
v -0.04099442 -0.01375933 0.00006773
v -0.04098639 -0.00799720 0.00007480
v -0.04046468 0.02999485 0.00655674
v -0.03264711 0.03599565 0.00000419
v -0.03214948 0.03599565 -0.00566575
v 0.00000370 0.03599565 0.03265397
v 0.00566222 0.03599565 0.03215970
v 0.01116020 0.03599565 0.03068396
v 0.01632109 0.03599565 0.02827619
v 0.02098434 0.03599565 0.02501403
v 0.02500550 0.03599565 0.02098224
v 0.02827218 0.03599565 0.01632202
v 0.03068006 0.03599565 0.01116047
v 0.03214886 0.03599565 0.00566706
v 0.04046407 0.02999972 0.00655674
v 0.04068880 0.02999972 -0.00495965
v 0.03214886 0.03599565 -0.00566575
v 0.03068006 0.03599565 -0.01116622
v 0.02827218 0.03599565 -0.01632070
v 0.02500550 0.03599565 -0.02098799
v 0.02098434 0.03599565 -0.02501272
v 0.01632109 0.03599565 -0.02827488
v 0.01116020 0.03599565 -0.03068266
v 0.00949074 0.03599565 -0.03113456
v -0.00949136 0.03599565 -0.03113456
v -0.01116082 0.03599565 -0.03068266
v -0.03214948 0.03599565 0.00566706
v -0.03068068 0.03599565 0.01116047
v -0.02827280 0.03599565 0.01632202
v -0.02500611 0.03599565 0.02098224
v -0.02098496 0.03599565 0.02501403
v -0.01632170 0.03599565 0.02827619
v -0.01116082 0.03599565 0.03068396
v -0.00566283 0.03599565 0.03215970
v -0.01128121 0.03571314 -0.03113456
v 0.02873771 -0.00183080 -0.03113456
v 0.02929954 -0.01375933 -0.02865617
v -0.04075363 -0.01375933 0.00724871
v -0.04074560 -0.00799720 0.00744642
v -0.04048876 -0.00895188 0.01147821
v -0.04028811 -0.01162593 0.01466270
v -0.04023995 -0.01375933 0.01558768
v -0.03703747 0.02999485 0.01755768
v 0.00000370 0.03336056 0.03708118
v 0.01140099 0.02999972 0.03937598
v 0.02191539 0.02999972 0.03464515
v 0.03068809 0.02999972 0.02717468
v 0.03703685 0.02999972 0.01755768
v 0.04029552 -0.01161619 0.01466270
v 0.04049617 -0.00894700 0.01147821
v 0.04075301 -0.00799233 0.00744642
v 0.04088143 -0.00799233 0.00375354
v 0.04099380 -0.00799233 0.00007480
v 0.04024736 -0.01375933 0.01558768
v 0.04100183 -0.01375933 0.00006773
v 0.04085736 -0.01375933 -0.00234005
v 0.04084130 -0.01375933 -0.00257306
v 0.04062459 -0.01375933 -0.00547510
v 0.04001459 -0.01375933 -0.00821475
v 0.03846553 -0.01375933 -0.01399059
v 0.03770304 0.02999972 -0.01608769
v 0.03173150 0.02999972 -0.02594477
v 0.02258157 0.03179704 -0.03113456
v 0.01994093 0.03286861 -0.03113456
v 0.01495662 0.03472925 -0.03113456
v 0.01128060 0.03571314 -0.03113456
v -0.03068870 0.02999485 0.02717468
v -0.02190798 0.02999485 0.03464515
v -0.01140161 0.02999485 0.03937598
v 0.02998178 -0.01375933 -0.02783004
v 0.02872968 0.00189534 -0.03113456
v 0.03317622 -0.01375933 -0.02394652
v -0.03222172 -0.01375933 0.02523292
v 0.00000370 0.02999485 0.04100000
v 0.01051008 -0.01375933 0.03961605
v 0.01534188 -0.01375933 0.03780845
v 0.02031014 -0.01375933 0.03557014
v 0.02457208 -0.01375933 0.03266809
v 0.02872165 -0.01375933 0.02913762
v 0.03217294 -0.01375933 0.02531059
v 0.04076104 -0.01375933 0.00724871
v 0.04088143 -0.01375933 0.00395831
v 0.03627436 -0.01375933 -0.01882734
v 0.03345715 -0.01375933 -0.02348756
v 0.02610509 0.02999972 -0.03113456
v -0.02871424 -0.01375933 0.02913762
v -0.02456467 -0.01375933 0.03266809
v -0.02030273 -0.01375933 0.03557014
v -0.01533447 -0.01375933 0.03780845
v -0.01050267 -0.01375933 0.03961605
v 0.00000370 -0.01375933 0.04099294
v 0.00512446 -0.01375933 0.04037863
f 187 188 193
f 187 193 201
f 187 201 209
f 187 209 249
f 187 249 239
f 187 239 238
f 187 238 280
f 187 280 279
f 187 279 278
f 187 278 277
f 187 277 299
f 187 299 285
f 187 285 250
f 187 250 210
f 187 210 202
f 187 202 195
f 187 195 189
f 187 189 190
f 187 190 191
f 187 191 188
f 188 191 192
f 188 192 193
f 189 194 190
f 189 195 194
f 190 194 195
f 190 195 202
f 190 202 211
f 190 211 251
f 190 251 284
f 190 284 286
f 190 286 298
f 190 298 297
f 190 297 274
f 190 274 273
f 190 273 272
f 190 272 271
f 190 271 270
f 190 270 269
f 190 269 296
f 190 296 295
f 190 295 268
f 190 268 294
f 190 294 293
f 190 293 292
f 190 292 291
f 190 291 290
f 190 290 289
f 190 289 306
f 190 306 305
f 190 305 304
f 190 304 303
f 190 303 302
f 190 302 301
f 190 301 300
f 190 300 287
f 190 287 256
f 190 256 252
f 190 252 215
f 190 215 214
f 190 214 213
f 190 213 212
f 190 212 204
f 190 204 203
f 190 203 196
f 190 196 191
f 191 196 192
f 192 196 197
f 192 197 198
f 192 198 199
f 192 199 200
f 192 200 201
f 192 201 193
f 196 203 197
f 197 203 204
f 197 204 205
f 197 205 206
f 197 206 198
f 198 206 207
f 198 207 199
f 199 207 200
f 200 207 208
f 200 208 209
f 200 209 201
f 202 210 211
f 204 212 205
f 205 212 213
f 205 213 214
f 205 214 215
f 205 215 216
f 205 216 217
f 205 217 218
f 205 218 219
f 205 219 206
f 206 219 207
f 207 220 221
f 207 221 222
f 207 222 223
f 207 223 224
f 207 224 225
f 207 225 226
f 207 226 227
f 207 227 228
f 207 228 229
f 207 229 230
f 207 230 231
f 207 231 232
f 207 232 233
f 207 233 234
f 207 234 235
f 207 235 236
f 207 236 237
f 207 237 238
f 207 238 239
f 207 239 240
f 207 240 208
f 207 219 218
f 207 218 241
f 207 241 242
f 207 242 243
f 207 243 244
f 207 244 245
f 207 245 246
f 207 246 247
f 207 247 248
f 207 248 220
f 208 240 249
f 208 249 209
f 210 250 251
f 210 251 211
f 215 252 253
f 215 253 216
f 216 253 217
f 217 253 254
f 217 254 255
f 217 255 256
f 217 256 257
f 217 257 242
f 217 242 241
f 217 241 218
f 220 258 221
f 220 248 258
f 221 258 259
f 221 259 222
f 222 259 260
f 222 260 223
f 223 260 224
f 224 260 261
f 224 261 225
f 225 261 226
f 226 261 262
f 226 262 227
f 227 262 229
f 227 229 228
f 229 263 264
f 229 264 265
f 229 265 266
f 229 266 267
f 229 267 230
f 229 262 268
f 229 268 263
f 230 267 269
f 230 269 270
f 230 270 271
f 230 271 272
f 230 272 273
f 230 273 274
f 230 274 275
f 230 275 232
f 230 232 231
f 232 275 233
f 233 275 276
f 233 276 234
f 234 276 235
f 235 277 278
f 235 278 236
f 235 276 277
f 236 278 279
f 236 279 280
f 236 280 237
f 237 280 238
f 239 249 240
f 242 257 243
f 243 257 281
f 243 281 244
f 244 281 245
f 245 282 246
f 245 281 282
f 246 282 247
f 247 283 248
f 247 282 283
f 248 283 258
f 250 284 251
f 250 285 286
f 250 286 284
f 252 256 253
f 253 256 254
f 254 256 255
f 256 287 281
f 256 281 257
f 258 283 288
f 258 288 259
f 259 289 290
f 259 290 260
f 259 288 289
f 260 290 291
f 260 291 292
f 260 292 293
f 260 293 261
f 261 293 294
f 261 294 268
f 261 268 262
f 263 268 264
f 264 268 265
f 265 268 295
f 265 295 296
f 265 296 266
f 266 296 269
f 266 269 267
f 274 297 275
f 275 297 298
f 275 298 276
f 276 298 285
f 276 285 299
f 276 299 277
f 281 287 300
f 281 300 301
f 281 301 282
f 282 301 302
f 282 302 303
f 282 303 283
f 283 303 304
f 283 304 288
f 285 298 286
f 288 304 305
f 288 305 306
f 288 306 289

o geometry_2
v 0.04000228 -0.05300165 0.04821749
v 0.04001011 -0.06099434 0.04821749
v 0.04000228 -0.05300165 0.04454002
v -0.03998604 -0.05300165 0.04821749
v 0.04001011 -0.06099434 0.04813469
v 0.03647038 -0.06313613 0.04821749
v 0.04000228 -0.06099434 0.04454002
v -0.03999387 -0.05300165 0.04454002
v -0.03998604 -0.06100098 0.04821749
v 0.03796615 -0.06222795 0.04454002
v 0.03643123 -0.06315937 0.04821749
v 0.03643123 -0.06315937 0.04812857
v 0.03643123 -0.06315605 0.04454002
v -0.03999387 -0.05937057 0.04454002
v -0.03792642 -0.06224953 0.04454002
v -0.03640716 -0.06316601 0.04821749
v -0.03998604 -0.06100098 0.04454002
v 0.03629027 -0.06323408 0.04821749
v 0.03463004 -0.06411570 0.04454002
v -0.03641499 -0.06316103 0.04454002
v -0.03640716 -0.06316601 0.04802525
v -0.03611740 -0.06332042 0.04821749
v 0.03453607 -0.06416551 0.04454002
v 0.03271922 -0.06512019 0.04821749
v -0.03464513 -0.06410408 0.04454002
v -0.03270298 -0.06512517 0.04821749
v 0.03272705 -0.06512019 0.04454002
v 0.03168550 -0.06559835 0.04821749
v -0.03271081 -0.06512517 0.04454002
v -0.03167709 -0.06560002 0.04821749
v 0.03040900 -0.06619108 0.04454002
v 0.02890541 -0.06686350 0.04821749
v 0.03000178 -0.06637704 0.04454002
v -0.02999337 -0.06638035 0.04454002
v -0.02888917 -0.06686848 0.04821749
v 0.02731566 -0.06749110 0.04821749
v 0.02585905 -0.06808050 0.04454002
v 0.02891324 -0.06687180 0.04454002
v -0.02889700 -0.06687678 0.04454002
v -0.02500487 -0.06840924 0.04454002
v -0.02499704 -0.06840260 0.04618237
v -0.02498921 -0.06839097 0.04821749
v 0.02632893 -0.06787629 0.04821749
v 0.02501328 -0.06839928 0.04618165
v 0.02502111 -0.06840426 0.04454002
v -0.01556822 -0.06927592 0.04454002
v -0.02394765 -0.06849059 0.04821749
v 0.02500545 -0.06838766 0.04821749
v 0.02442593 -0.06846071 0.04454002
v 0.01558446 -0.06925765 0.04821749
v 0.01558446 -0.06927425 0.04454002
v -0.00345329 -0.06994170 0.04454002
v -0.00324185 -0.06995166 0.04500191
v -0.01556822 -0.06925932 0.04821749
v 0.00528638 -0.06982548 0.04821749
v 0.00325809 -0.06995166 0.04500191
v 0.00306231 -0.06995498 0.04454002
v -0.00304606 -0.06995664 0.04454002
v -0.00228643 -0.06995331 0.04729911
v -0.00299125 -0.06991182 0.04821749
v -0.01458932 -0.06931078 0.04821749
v 0.00301532 -0.06991182 0.04821749
v 0.00230267 -0.06995331 0.04729911
v -0.00007019 -0.06996162 0.04821749
v 0.00007860 -0.06995996 0.04821749
f 307 308 311
f 307 311 309
f 307 309 314
f 307 314 310
f 307 310 315
f 307 315 322
f 307 322 328
f 307 328 332
f 307 332 336
f 307 336 341
f 307 341 348
f 307 348 353
f 307 353 360
f 307 360 367
f 307 367 366
f 307 366 370
f 307 370 371
f 307 371 368
f 307 368 361
f 307 361 356
f 307 356 354
f 307 354 349
f 307 349 342
f 307 342 338
f 307 338 334
f 307 334 330
f 307 330 324
f 307 324 317
f 307 317 312
f 307 312 308
f 308 312 311
f 309 311 313
f 309 313 316
f 309 316 319
f 309 319 325
f 309 325 329
f 309 329 333
f 309 333 337
f 309 337 339
f 309 339 344
f 309 344 343
f 309 343 351
f 309 351 355
f 309 355 357
f 309 357 363
f 309 363 364
f 309 364 358
f 309 358 352
f 309 352 346
f 309 346 345
f 309 345 340
f 309 340 335
f 309 335 331
f 309 331 326
f 309 326 321
f 309 321 323
f 309 323 320
f 309 320 314
f 310 314 320
f 310 320 315
f 311 312 316
f 311 316 313
f 312 317 318
f 312 318 319
f 312 319 316
f 315 321 322
f 315 320 323
f 315 323 321
f 317 324 329
f 317 329 325
f 317 325 318
f 318 325 319
f 321 326 327
f 321 327 322
f 322 327 328
f 324 330 329
f 326 331 327
f 327 331 328
f 328 331 332
f 329 330 333
f 330 334 333
f 331 335 332
f 332 335 336
f 333 334 337
f 334 338 339
f 334 339 337
f 335 340 336
f 336 340 341
f 338 342 343
f 338 343 344
f 338 344 339
f 340 345 341
f 341 345 346
f 341 346 347
f 341 347 348
f 342 349 343
f 343 349 350
f 343 350 351
f 346 352 353
f 346 353 347
f 347 353 348
f 349 354 350
f 350 355 351
f 350 354 356
f 350 356 357
f 350 357 355
f 352 358 359
f 352 359 360
f 352 360 353
f 356 361 357
f 357 361 362
f 357 362 363
f 358 364 359
f 359 364 365
f 359 365 366
f 359 366 367
f 359 367 360
f 361 368 369
f 361 369 362
f 362 369 363
f 363 369 370
f 363 370 364
f 364 370 365
f 365 370 366
f 368 371 369
f 369 371 370

o geometry_3
v 0.03965705 -0.05300156 0.09788967
v 0.03936207 -0.05300156 0.09926917
v 0.03966481 -0.05492161 0.09788967
v -0.03963228 -0.05300156 0.09788967
v 0.03888853 -0.05300156 0.10079315
v 0.03912918 -0.06144351 0.10011267
v 0.03952508 -0.06125699 0.09860349
v 0.03964929 -0.06119116 0.09788967
v -0.03964004 -0.05369905 0.09788967
v -0.03887153 -0.05300156 0.10080551
v 0.03860131 -0.06166451 0.10152921
v 0.03830632 -0.05300156 0.10217388
v 0.03721177 -0.06244820 0.09788967
v 0.03773187 -0.06219115 0.09788967
v 0.03874104 -0.06167078 0.09788967
v -0.03941492 -0.06129304 0.09788967
v -0.03911217 -0.06144821 0.10009908
v -0.03794775 -0.06192626 0.10282349
v -0.03602257 -0.05300156 0.10538859
v 0.03795699 -0.06192312 0.10283832
v 0.03265500 -0.06459709 0.09895053
v 0.03390481 -0.06403439 0.09788967
v 0.03765425 -0.05300156 0.10335207
v -0.03776921 -0.06216764 0.09788967
v -0.03627098 -0.06257359 0.10512677
v -0.03381017 -0.06407515 0.09788967
v -0.03263799 -0.06460336 0.09892707
v -0.03558785 -0.06283378 0.10579984
v -0.03162882 -0.05300156 0.10824391
v 0.03718848 -0.06222563 0.10404120
v 0.02877359 -0.06614567 0.09788967
v 0.03211160 -0.06483847 0.09788967
v 0.03266276 -0.06461276 0.09788967
v 0.03628023 -0.06257202 0.10513665
v 0.03552724 -0.06285886 0.10587394
v 0.03523225 -0.06296857 0.10612588
v 0.03411441 -0.06338706 0.10696074
v 0.02872702 -0.06608453 0.10081045
v 0.03689349 -0.05300156 0.10441911
v -0.03264575 -0.06461746 0.09788967
v -0.03211012 -0.06483847 0.09788967
v -0.02871001 -0.06609081 0.10079068
v -0.03167540 -0.06427891 0.10822909
v -0.03094570 -0.06454066 0.10850820
v -0.02875658 -0.05300156 0.10913310
v 0.02705801 -0.06675381 0.09788967
v 0.03603958 -0.05300156 0.10538241
v 0.03510028 -0.05300156 0.10623827
v 0.03406783 -0.05300156 0.10699038
v 0.03295775 -0.05300156 0.10764369
v 0.03293446 -0.06382123 0.10765358
v 0.02870373 -0.06532279 0.10914299
v 0.02420906 -0.06735568 0.10426844
v 0.02464378 -0.06736980 0.10224057
v 0.02490771 -0.06740271 0.10024975
v 0.02500863 -0.06744973 0.09832563
v 0.02500863 -0.06746384 0.09788967
v 0.02628949 -0.06702027 0.09788967
v 0.03168464 -0.06427577 0.10823156
v 0.03091613 -0.06455164 0.10852302
v 0.03027182 -0.06477890 0.10873421
v -0.02875658 -0.06615037 0.09788967
v -0.02868672 -0.06532592 0.10914299
v -0.02499162 -0.06746854 0.09788967
v -0.02499162 -0.06745443 0.09832686
v -0.02489071 -0.06740584 0.10024975
v -0.02462677 -0.06737293 0.10224057
v -0.02419205 -0.06735882 0.10426968
v -0.02649761 -0.06605633 0.10950854
v -0.02508477 -0.05300156 0.10964070
v 0.03165359 -0.05300156 0.10824144
v 0.02698038 -0.06590115 0.10944803
v 0.02877359 -0.05300156 0.10913187
v 0.02361132 -0.06735882 0.10623333
v 0.02288162 -0.06737763 0.10808212
v 0.02202771 -0.06741054 0.10983829
v 0.01557682 -0.06800929 0.11017174
v 0.01557682 -0.06832433 0.09788967
v 0.03022524 -0.05300156 0.10875025
v -0.02394364 -0.06757042 0.09788967
v -0.02286461 -0.06738234 0.10808336
v -0.02359432 -0.06736195 0.10623457
v -0.02508477 -0.06650616 0.10964070
v -0.02351669 -0.06698265 0.10974567
v -0.02201070 -0.06741368 0.10983953
v -0.01555981 -0.06801085 0.11017174
v -0.01100304 -0.06830866 0.11033846
v 0.00001239 -0.05300156 0.11050519
v 0.02707354 -0.05300156 0.10942827
v 0.02645251 -0.06607043 0.10951596
v 0.02510955 -0.06650303 0.10963946
v 0.02353370 -0.06697951 0.10974443
v 0.02510178 -0.05300156 0.10964070
v 0.01102005 -0.06830709 0.11033724
v 0.00325724 -0.06900771 0.09800205
v 0.00321066 -0.06901085 0.09788967
v -0.02286461 -0.06767386 0.09788967
v -0.02200294 -0.06775537 0.09788967
v -0.02068326 -0.06787606 0.09788967
v -0.01555981 -0.06832746 0.09788967
v -0.00324023 -0.06900771 0.09800205
v -0.00228541 -0.06894816 0.10030039
v 0.00001239 -0.06860646 0.11050396
v 0.00230241 -0.06894816 0.10030039
v 0.00001239 -0.06893091 0.10125010
v -0.00319365 -0.06901242 0.09788967
v -0.00327905 -0.06900771 0.09788967
v 0.00001239 -0.06877731 0.10577638
f 372 373 374
f 372 374 379
f 372 379 386
f 372 386 385
f 372 385 384
f 372 384 393
f 372 393 404
f 372 404 403
f 372 403 402
f 372 402 417
f 372 417 429
f 372 429 428
f 372 428 449
f 372 449 467
f 372 467 477
f 372 477 478
f 372 478 471
f 372 471 470
f 372 470 469
f 372 469 468
f 372 468 451
f 372 451 435
f 372 435 433
f 372 433 412
f 372 412 411
f 372 411 397
f 372 397 395
f 372 395 387
f 372 387 380
f 372 380 375
f 372 375 381
f 372 381 390
f 372 390 400
f 372 400 416
f 372 416 441
f 372 441 459
f 372 459 464
f 372 464 460
f 372 460 444
f 372 444 450
f 372 450 442
f 372 442 421
f 372 421 420
f 372 420 419
f 372 419 418
f 372 418 410
f 372 410 394
f 372 394 383
f 372 383 376
f 372 376 373
f 373 376 377
f 373 377 378
f 373 378 374
f 374 378 379
f 375 380 381
f 376 382 377
f 376 383 382
f 377 382 384
f 377 384 385
f 377 385 386
f 377 386 378
f 378 386 379
f 380 387 388
f 380 388 381
f 381 388 389
f 381 389 390
f 382 383 391
f 382 391 392
f 382 392 393
f 382 393 384
f 383 394 391
f 387 395 388
f 388 395 389
f 389 396 390
f 389 395 397
f 389 397 398
f 389 398 396
f 390 399 400
f 390 396 399
f 391 394 401
f 391 401 392
f 392 402 403
f 392 403 404
f 392 404 393
f 392 401 405
f 392 405 406
f 392 406 407
f 392 407 408
f 392 408 409
f 392 409 402
f 394 410 401
f 396 398 399
f 397 411 398
f 398 411 412
f 398 412 413
f 398 413 414
f 398 414 399
f 399 414 400
f 400 414 415
f 400 415 416
f 401 410 405
f 402 409 417
f 405 418 406
f 405 410 418
f 406 418 419
f 406 419 407
f 407 419 408
f 408 419 420
f 408 420 421
f 408 421 422
f 408 422 409
f 409 423 424
f 409 424 425
f 409 425 426
f 409 426 427
f 409 427 428
f 409 428 429
f 409 429 417
f 409 422 430
f 409 430 431
f 409 431 432
f 409 432 423
f 412 433 413
f 413 434 415
f 413 415 414
f 413 433 435
f 413 435 436
f 413 436 437
f 413 437 438
f 413 438 439
f 413 439 434
f 415 434 416
f 416 434 440
f 416 440 441
f 421 442 430
f 421 430 422
f 423 443 424
f 423 432 444
f 423 444 443
f 424 445 428
f 424 428 426
f 424 426 425
f 424 443 445
f 426 428 427
f 428 445 446
f 428 446 447
f 428 447 448
f 428 448 449
f 430 442 431
f 431 442 450
f 431 450 432
f 432 450 444
f 434 439 440
f 435 451 452
f 435 452 453
f 435 453 439
f 435 439 437
f 435 437 436
f 437 439 438
f 439 453 440
f 440 453 454
f 440 454 441
f 441 454 455
f 441 455 456
f 441 456 457
f 441 457 458
f 441 458 459
f 443 444 460
f 443 460 461
f 443 461 445
f 445 461 462
f 445 462 446
f 446 462 463
f 446 463 447
f 447 463 464
f 447 464 448
f 448 465 449
f 448 464 465
f 449 465 466
f 449 466 467
f 451 468 452
f 452 455 454
f 452 454 453
f 452 468 456
f 452 456 455
f 456 469 457
f 456 468 469
f 457 469 470
f 457 470 471
f 457 471 458
f 458 471 472
f 458 472 473
f 458 473 474
f 458 474 459
f 459 474 465
f 459 465 464
f 460 464 461
f 461 464 462
f 462 464 463
f 465 475 466
f 465 474 475
f 466 475 476
f 466 476 467
f 467 476 477
f 471 478 472
f 472 478 477
f 472 477 473
f 473 477 476
f 473 476 479
f 473 479 474
f 474 479 475
f 475 479 476

o geometry_4
v -0.03999414 -0.06100043 0.02405591
v -0.03998631 -0.06100043 0.04454002
v -0.03999414 -0.05298017 0.02405591
v -0.03672851 -0.06305421 0.02405591
v -0.03792669 -0.06224969 0.04454002
v -0.03998631 -0.05300016 0.04454002
v -0.03998631 -0.05298017 0.03040206
v 0.04000222 -0.05298017 0.02405591
v -0.03641525 -0.06316081 0.04454002
v -0.03448876 -0.06431347 0.02405591
v 0.00000796 -0.05298017 0.04099901
v -0.00970281 -0.05298017 0.03983204
v 0.04000222 -0.05300016 0.04454002
v 0.04000222 -0.05298017 0.03040206
v 0.04001006 -0.06099376 0.04454002
v 0.04000222 -0.06099376 0.02405591
v -0.03330624 -0.06496142 0.02405591
v -0.03444177 -0.06421020 0.04454002
v 0.00971089 -0.05298017 0.03983405
v 0.03643117 -0.06315582 0.04454002
v 0.03674442 -0.06304922 0.02405591
v -0.03049482 -0.06636725 0.02405591
v -0.03271107 -0.06512466 0.04454002
v 0.03462998 -0.06411526 0.04454002
v 0.03332216 -0.06495642 0.02405591
v 0.03448901 -0.06431680 0.02405591
v -0.02978217 -0.06670539 0.02405591
v -0.02999362 -0.06637891 0.04454002
v 0.03453600 -0.06416523 0.04454002
v 0.03272698 -0.06511966 0.04454002
v 0.03050290 -0.06636392 0.02405591
v -0.02889724 -0.06687696 0.04454002
v -0.02614847 -0.06828113 0.02405591
v 0.03040892 -0.06619070 0.04454002
v 0.02979809 -0.06670206 0.02405591
v -0.02500510 -0.06840938 0.04454002
v -0.01556843 -0.06936882 0.02405591
v -0.02607015 -0.06829112 0.02462135
v -0.02568642 -0.06834109 0.02807213
v -0.02540450 -0.06837773 0.03157303
v -0.02520872 -0.06840272 0.03514813
v -0.02508341 -0.06841604 0.03878739
v -0.02502076 -0.06841438 0.04247076
v 0.03000170 -0.06637725 0.04454002
v 0.02891315 -0.06687196 0.04454002
v 0.02616438 -0.06827613 0.02405591
v -0.01556843 -0.06927720 0.04454002
v -0.01311724 -0.06950373 0.02405591
v 0.02585896 -0.06807958 0.04454002
v 0.02502101 -0.06840439 0.04454002
v 0.02503668 -0.06841105 0.04246875
v 0.02608607 -0.06828779 0.02461934
v 0.02505234 -0.06839605 0.02405591
v -0.00345346 -0.06994181 0.04454002
v 0.00000796 -0.06999511 0.02405591
v 0.02442584 -0.06846102 0.04454002
v 0.01736987 -0.06920224 0.02405591
v 0.01805902 -0.06913562 0.02405591
v 0.02509933 -0.06841105 0.03878538
v 0.02522463 -0.06839939 0.03514612
v 0.02542041 -0.06837440 0.03157303
v 0.02570233 -0.06833776 0.02807012
v 0.01960178 -0.06897572 0.02405591
v -0.00304624 -0.06995680 0.04454002
v 0.00230252 -0.06997346 0.04270134
v 0.00000796 -0.06999011 0.04174892
v -0.00228660 -0.06997346 0.04270134
v 0.01269460 -0.06951706 0.02405591
v 0.00306215 -0.06995513 0.04454002
v 0.01558434 -0.06927387 0.04454002
v 0.01558434 -0.06936549 0.02405591
v 0.01865420 -0.06907399 0.02405591
f 480 481 485
f 480 485 482
f 480 482 487
f 480 487 495
f 480 495 500
f 480 500 505
f 480 505 504
f 480 504 510
f 480 510 514
f 480 514 525
f 480 525 532
f 480 532 542
f 480 542 551
f 480 551 537
f 480 537 536
f 480 536 550
f 480 550 547
f 480 547 534
f 480 534 527
f 480 527 516
f 480 516 512
f 480 512 506
f 480 506 501
f 480 501 496
f 480 496 489
f 480 489 483
f 480 483 481
f 481 483 484
f 481 484 488
f 481 488 497
f 481 497 502
f 481 502 507
f 481 507 511
f 481 511 515
f 481 515 526
f 481 526 533
f 481 533 543
f 481 543 548
f 481 548 549
f 481 549 535
f 481 535 529
f 481 529 528
f 481 528 524
f 481 524 523
f 481 523 513
f 481 513 509
f 481 509 508
f 481 508 503
f 481 503 499
f 481 499 494
f 481 494 492
f 481 492 485
f 482 485 486
f 482 486 491
f 482 491 490
f 482 490 498
f 482 498 493
f 482 493 487
f 483 488 484
f 483 489 488
f 485 490 491
f 485 491 486
f 485 492 490
f 487 493 494
f 487 494 495
f 488 489 496
f 488 496 497
f 490 492 498
f 492 494 493
f 492 493 498
f 494 499 500
f 494 500 495
f 496 501 502
f 496 502 497
f 499 503 504
f 499 504 505
f 499 505 500
f 501 506 502
f 502 506 507
f 503 508 504
f 504 508 509
f 504 509 510
f 506 511 507
f 506 512 511
f 509 513 514
f 509 514 510
f 511 512 515
f 512 516 517
f 512 517 518
f 512 518 519
f 512 519 520
f 512 520 521
f 512 521 522
f 512 522 515
f 513 523 514
f 514 523 524
f 514 524 525
f 515 522 516
f 515 516 526
f 516 522 521
f 516 521 520
f 516 520 519
f 516 519 518
f 516 518 517
f 516 527 526
f 524 528 525
f 525 528 529
f 525 529 530
f 525 530 531
f 525 531 532
f 526 527 533
f 527 534 533
f 529 535 530
f 530 535 536
f 530 536 537
f 530 537 538
f 530 538 531
f 531 538 539
f 531 539 540
f 531 540 541
f 531 541 542
f 531 542 532
f 533 534 543
f 534 544 545
f 534 545 546
f 534 546 543
f 534 547 548
f 534 548 544
f 535 549 536
f 536 549 550
f 537 551 539
f 537 539 538
f 539 551 542
f 539 542 540
f 540 542 541
f 543 546 545
f 543 545 548
f 544 548 545
f 547 550 548
f 548 550 549

o geometry_5
v -0.03999382 -0.06100110 0.04821785
v -0.03998598 -0.06100110 0.09367791
v -0.03998598 -0.05300166 0.09376056
v -0.03999382 -0.05300166 0.04821785
v -0.03640708 -0.06316617 0.04821785
v -0.03641491 -0.06314956 0.05735848
v -0.03641491 -0.06310806 0.06673250
v -0.03941431 -0.06129498 0.09788843
v -0.03968057 -0.05300166 0.09768909
v 0.02366680 -0.05300000 0.04821785
v -0.03611733 -0.06332058 0.04821785
v -0.03270288 -0.06512535 0.05046411
v -0.03640708 -0.06305161 0.07618916
v -0.03270288 -0.06507721 0.06017846
v -0.03776973 -0.06216832 0.09788843
v -0.03963358 -0.05369899 0.09788843
v -0.03963358 -0.05300166 0.09788843
v 0.03009630 -0.05300000 0.09788843
v 0.04000289 -0.05300000 0.04821785
v -0.03270288 -0.06512535 0.04821785
v -0.03167698 -0.06560021 0.04821785
v -0.02888121 -0.06685874 0.05219014
v -0.03639925 -0.06298354 0.08579654
v -0.02888904 -0.06677406 0.06221566
v -0.03270288 -0.06498921 0.06989282
v -0.03638359 -0.06291380 0.09559841
v -0.03380709 -0.06407603 0.09788843
v 0.03965832 -0.05300000 0.09788843
v 0.04000289 -0.05300000 0.09373140
v 0.04001072 -0.06099446 0.09367791
v 0.04000289 -0.06099446 0.04821785
v -0.02888904 -0.06686869 0.04821785
v -0.02498905 -0.06839121 0.04821785
v -0.02498905 -0.06838126 0.04987580
v -0.02498905 -0.06835303 0.05354178
v -0.03268722 -0.06487299 0.07959259
v -0.02498905 -0.06831650 0.05714941
v -0.02498905 -0.06827665 0.06069384
v -0.02498905 -0.06823017 0.06415561
v -0.02888121 -0.06664290 0.07217311
v -0.03267155 -0.06474016 0.08927777
v -0.03264023 -0.06461730 0.09788843
v 0.03965832 -0.05492266 0.09788843
v 0.03970530 -0.05300000 0.09766965
v 0.03991675 -0.05300000 0.09582693
v 0.03995591 -0.06102435 0.09537476
v 0.03647098 -0.06313628 0.04821785
v -0.02394749 -0.06849083 0.04821785
v -0.01556800 -0.06918651 0.06451540
v -0.02498905 -0.06818035 0.06751528
v -0.02498905 -0.06812556 0.07074854
v -0.02887338 -0.06647520 0.08197012
v -0.03210770 -0.06483812 0.09788843
v 0.03964265 -0.06119205 0.09788843
v 0.03979145 -0.06111401 0.09702299
v 0.03643182 -0.06314293 0.05747517
v 0.03271978 -0.06512038 0.05047870
v 0.03271978 -0.06512038 0.04821785
v -0.01556800 -0.06925956 0.04821785
v -0.01458909 -0.06931104 0.04821785
v -0.00299094 -0.06991208 0.04821785
v 0.00000845 -0.06971782 0.06940175
v -0.00328069 -0.06900886 0.09788843
v -0.01556017 -0.06832812 0.09788843
v -0.02068184 -0.06787651 0.09788843
v -0.02498905 -0.06776195 0.08755174
v -0.02498905 -0.06782504 0.08503320
v -0.02498905 -0.06788979 0.08237367
v -0.02498905 -0.06795122 0.07962175
v -0.02498905 -0.06801100 0.07678232
v -0.02498905 -0.06806912 0.07385538
v -0.02886554 -0.06628260 0.09153861
v -0.02875591 -0.06614977 0.09788843
v 0.03873422 -0.06167188 0.09788843
v 0.03642399 -0.06304497 0.07632530
v 0.03643182 -0.06310142 0.06685404
v 0.03271978 -0.06507222 0.06019305
v 0.02889811 -0.06685375 0.05220472
v 0.03168605 -0.06559855 0.04821785
v -0.00006986 -0.06996022 0.04821785
v 0.00000845 -0.06996022 0.04825189
v 0.00007893 -0.06996022 0.04821785
v 0.00301567 -0.06991208 0.04821785
v 0.00528675 -0.06982408 0.04821785
v 0.01558490 -0.06918485 0.06451540
v 0.00321145 -0.06901052 0.09788843
v 0.00230302 -0.06909021 0.09570052
v 0.00000845 -0.06913172 0.09474756
v -0.00228612 -0.06909021 0.09570052
v -0.00319455 -0.06901217 0.09788843
v -0.02128485 -0.06782173 0.09788843
v -0.02498905 -0.06769886 0.08993414
v -0.02498905 -0.06763577 0.09219985
v -0.02498905 -0.06757600 0.09430997
v -0.02498905 -0.06751456 0.09635203
v -0.02498905 -0.06746807 0.09788843
v 0.03773182 -0.06219156 0.09788843
v 0.03640049 -0.06290716 0.09575886
v 0.03641615 -0.06297690 0.08594240
v 0.03271978 -0.06498422 0.06991226
v 0.02890594 -0.06677073 0.06223511
v 0.02890594 -0.06686372 0.04821785
v 0.02500596 -0.06837793 0.04987580
v 0.02632944 -0.06787651 0.04821785
v 0.02731619 -0.06749132 0.04821785
v 0.01558490 -0.06925791 0.04821785
v 0.02500596 -0.06838790 0.04821785
v 0.02500596 -0.06834804 0.05353692
v 0.02500596 -0.06831318 0.05714941
v 0.02500596 -0.06827167 0.06069384
v 0.02500596 -0.06822684 0.06415561
v 0.02500596 -0.06817538 0.06751042
v 0.02500596 -0.06812225 0.07074854
v 0.02500596 -0.06806579 0.07385538
v 0.02500596 -0.06800768 0.07677747
v 0.02500596 -0.06794791 0.07962175
v 0.02500596 -0.06788482 0.08237367
v 0.02500596 -0.06782173 0.08503320
v 0.02500596 -0.06775863 0.08755174
v 0.01557707 -0.06832480 0.09788843
v -0.02200533 -0.06775531 0.09788843
v -0.02286677 -0.06767396 0.09788843
v 0.03721495 -0.06244891 0.09788843
v 0.03390231 -0.06403452 0.09788843
v 0.03269629 -0.06473517 0.08929721
v 0.03271195 -0.06486800 0.07961203
v 0.02889811 -0.06663957 0.07219256
v 0.02889028 -0.06647022 0.08198957
v 0.02888245 -0.06627762 0.09155806
v 0.02500596 -0.06769554 0.08992928
v 0.02500596 -0.06763244 0.09219985
v 0.02500596 -0.06757101 0.09430997
v 0.02500596 -0.06751124 0.09635203
v 0.02500596 -0.06746309 0.09788843
v 0.03265714 -0.06461231 0.09788843
v 0.03211677 -0.06483812 0.09788843
v 0.02877281 -0.06614646 0.09788843
v 0.02705776 -0.06675413 0.09788843
v 0.02629029 -0.06701979 0.09788843
f 552 553 554
f 552 554 555
f 552 555 561
f 552 561 570
f 552 570 582
f 552 582 598
f 552 598 609
f 552 609 630
f 552 630 653
f 552 653 656
f 552 656 655
f 552 655 658
f 552 658 657
f 552 657 635
f 552 635 634
f 552 634 633
f 552 633 631
f 552 631 612
f 552 612 611
f 552 611 610
f 552 610 599
f 552 599 584
f 552 584 583
f 552 583 572
f 552 572 571
f 552 571 562
f 552 562 556
f 552 556 553
f 553 556 557
f 553 557 558
f 553 558 559
f 553 559 560
f 553 560 554
f 554 560 561
f 554 561 555
f 556 562 557
f 557 562 563
f 557 563 558
f 558 564 559
f 558 563 565
f 558 565 564
f 559 564 566
f 559 566 578
f 559 578 593
f 559 593 604
f 559 604 624
f 559 624 647
f 559 647 673
f 559 673 672
f 559 672 642
f 559 642 616
f 559 616 615
f 559 615 614
f 559 614 641
f 559 641 637
f 559 637 671
f 559 671 685
f 559 685 690
f 559 690 689
f 559 689 688
f 559 688 687
f 559 687 686
f 559 686 675
f 559 675 674
f 559 674 648
f 559 648 625
f 559 625 605
f 559 605 594
f 559 594 579
f 559 579 569
f 559 569 568
f 559 568 567
f 559 567 560
f 560 567 568
f 560 568 569
f 560 569 561
f 561 569 579
f 561 579 595
f 561 595 596
f 561 596 580
f 561 580 570
f 562 571 563
f 563 571 572
f 563 572 573
f 563 573 565
f 564 574 566
f 564 565 574
f 565 573 575
f 565 575 576
f 565 576 577
f 565 577 574
f 566 574 577
f 566 577 578
f 570 580 581
f 570 581 582
f 572 583 573
f 573 584 585
f 573 585 586
f 573 586 575
f 573 583 584
f 575 587 576
f 575 586 588
f 575 588 589
f 575 589 590
f 575 590 591
f 575 591 587
f 576 587 577
f 577 587 592
f 577 592 578
f 578 592 593
f 579 594 595
f 580 596 597
f 580 597 581
f 581 597 598
f 581 598 582
f 584 599 585
f 585 599 600
f 585 600 586
f 586 600 588
f 587 591 592
f 588 600 589
f 589 600 590
f 590 600 601
f 590 601 591
f 591 601 602
f 591 602 603
f 591 603 593
f 591 593 592
f 593 603 604
f 594 605 595
f 595 605 606
f 595 606 596
f 596 606 597
f 597 606 607
f 597 607 598
f 598 607 608
f 598 608 609
f 599 610 600
f 600 610 611
f 600 611 612
f 600 612 613
f 600 613 614
f 600 614 615
f 600 615 616
f 600 616 617
f 600 617 618
f 600 618 619
f 600 619 620
f 600 620 621
f 600 621 622
f 600 622 602
f 600 602 601
f 602 622 603
f 603 623 604
f 603 622 621
f 603 621 623
f 604 623 624
f 605 625 626
f 605 626 627
f 605 627 606
f 606 627 607
f 607 627 608
f 608 628 629
f 608 629 630
f 608 630 609
f 608 627 628
f 612 631 613
f 613 632 633
f 613 633 634
f 613 634 635
f 613 635 636
f 613 636 637
f 613 637 638
f 613 638 639
f 613 639 640
f 613 640 641
f 613 641 614
f 613 631 632
f 616 642 643
f 616 643 617
f 617 643 623
f 617 623 618
f 618 623 619
f 619 623 620
f 620 623 621
f 623 643 624
f 624 643 644
f 624 644 645
f 624 645 646
f 624 646 647
f 625 648 649
f 625 649 650
f 625 650 626
f 626 650 628
f 626 628 627
f 628 651 652
f 628 652 629
f 628 650 649
f 628 649 651
f 629 653 630
f 629 652 654
f 629 654 655
f 629 655 656
f 629 656 653
f 631 633 632
f 635 657 636
f 636 657 658
f 636 658 654
f 636 654 659
f 636 659 660
f 636 660 661
f 636 661 662
f 636 662 663
f 636 663 664
f 636 664 665
f 636 665 666
f 636 666 667
f 636 667 668
f 636 668 669
f 636 669 670
f 636 670 671
f 636 671 637
f 637 641 639
f 637 639 638
f 639 641 640
f 642 672 643
f 643 672 644
f 644 672 645
f 645 672 673
f 645 673 646
f 646 673 647
f 648 674 649
f 649 674 675
f 649 675 676
f 649 676 677
f 649 677 651
f 651 677 652
f 652 677 678
f 652 678 662
f 652 662 661
f 652 661 660
f 652 660 659
f 652 659 654
f 654 658 655
f 662 678 663
f 663 678 664
f 664 678 679
f 664 679 665
f 665 679 666
f 666 679 680
f 666 680 667
f 667 680 668
f 668 680 669
f 669 680 670
f 670 680 681
f 670 681 671
f 671 681 682
f 671 682 683
f 671 683 684
f 671 684 685
f 675 686 676
f 676 686 678
f 676 678 677
f 678 686 679
f 679 686 687
f 679 687 680
f 680 687 688
f 680 688 681
f 681 688 689
f 681 689 682
f 682 689 683
f 683 689 684
f 684 689 690
f 684 690 685

o geometry_6
v 0.00000670 -0.05114268 -0.04100000
v 0.00000670 -0.04547635 -0.04100000
v 0.00111441 -0.04547635 -0.04091171
v 0.00070504 -0.05114268 -0.04094382
v -0.00996265 -0.05114268 -0.03974785
v -0.00970579 -0.04547635 -0.03979601
v 0.00786499 -0.05114268 -0.04002075
v 0.00971919 -0.04547635 -0.03979601
v 0.00997605 -0.05114268 -0.03974785
v -0.01066098 -0.05114268 -0.03957929
v -0.01029175 -0.04547635 -0.03965956
v 0.01081887 -0.04547635 -0.03953114
v 0.01067439 -0.05114268 -0.03957929
v -0.01081349 -0.04547635 -0.03953114
v -0.01919352 -0.05114268 -0.03616799
v -0.01890456 -0.04547635 -0.03630444
v 0.01088309 -0.04547635 -0.03951508
v 0.01090717 -0.04547635 -0.03950706
v 0.01078677 -0.05114268 -0.03953916
v -0.01936209 -0.05114268 -0.03609575
v -0.01940222 -0.04547635 -0.03607970
v 0.01087506 -0.05114268 -0.03950706
v 0.01118811 -0.04547635 -0.03940271
v -0.01978751 -0.05114268 -0.03589509
v -0.01975540 -0.04547635 -0.03591917
v 0.01980092 -0.05114268 -0.03590312
v 0.01976881 -0.04547635 -0.03591917
v -0.01989186 -0.05114268 -0.03583890
v -0.02006042 -0.05114268 -0.03574258
v -0.02000424 -0.04547635 -0.03577469
v 0.01996948 -0.05114268 -0.03580680
v 0.01996146 -0.04547635 -0.03580680
v -0.02294206 -0.05114268 -0.03382423
v -0.02636150 -0.04547635 -0.03157679
v -0.02018083 -0.04547635 -0.03567035
v 0.02019424 -0.04547635 -0.03567035
v 0.02022634 -0.05114268 -0.03564626
v -0.02698760 -0.05114268 -0.03095071
v -0.02811938 -0.05114268 -0.02982699
v -0.02834413 -0.04547635 -0.02960225
v 0.02035477 -0.04547635 -0.03556600
v 0.02566052 -0.04547635 -0.03211457
v 0.02354143 -0.05114268 -0.03348711
v -0.02824781 -0.05114268 -0.02969856
v -0.02852073 -0.04547635 -0.02939356
v 0.02801239 -0.04547635 -0.02993936
v 0.02782777 -0.05114268 -0.03010792
v 0.02747459 -0.05114268 -0.03042898
v -0.02828795 -0.05114268 -0.02965041
v -0.03385858 -0.04547635 -0.02292413
v 0.02835754 -0.04547635 -0.02960225
v 0.02818095 -0.05114268 -0.02977883
v 0.02805252 -0.05114268 -0.02989923
v -0.03385858 -0.05114268 -0.02289202
v -0.03397096 -0.05114268 -0.02275557
v -0.03439638 -0.05114268 -0.02223384
v -0.03421177 -0.04547635 -0.02249069
v 0.02847795 -0.04547635 -0.02948185
v 0.02833346 -0.05114268 -0.02962632
v -0.03453284 -0.05114268 -0.02201712
v -0.03523117 -0.04547635 -0.02081313
v 0.02858230 -0.04547635 -0.02936145
v 0.02845387 -0.05114268 -0.02948185
v -0.03504656 -0.05114268 -0.02116630
v -0.03515091 -0.05114268 -0.02094156
v -0.03901182 -0.04547635 -0.01246548
v 0.03361513 -0.04547635 -0.02323716
v 0.03426531 -0.05114268 -0.02241845
v -0.03910814 -0.05114268 -0.01219258
v -0.04056903 -0.04547635 -0.00585157
v 0.03422517 -0.04547635 -0.02249069
v 0.03440979 -0.05114268 -0.02223384
v -0.04056101 -0.05114268 -0.00591579
v -0.04096235 -0.05114268 -0.00052192
v -0.04093827 -0.04547635 -0.00084298
v 0.03470679 -0.04547635 -0.02170408
v 0.03491548 -0.05114268 -0.02140710
v -0.04099445 -0.05114268 0.00000784
v -0.04096235 -0.04547635 -0.00043363
v 0.03524458 -0.04547635 -0.02081313
v 0.03505997 -0.05114268 -0.02116630
v -0.04098643 -0.04547635 0.00013626
v -0.04098643 -0.04547635 0.00001586
v -0.04086602 -0.05114268 0.00474352
v -0.04086602 -0.04547635 0.00461510
v 0.03902523 -0.04547635 -0.01246548
v 0.03819846 -0.05114268 -0.01423936
v -0.04082589 -0.05114268 0.00596356
v -0.04080984 -0.04547635 0.00615620
v 0.03932222 -0.05114268 -0.01145413
v 0.03912155 -0.05114268 -0.01219258
v 0.03953092 -0.04547635 -0.01057121
v -0.03999110 -0.05114268 0.02536383
v -0.03999912 -0.04547635 0.02160738
v 0.03937841 -0.05114268 -0.01123741
v 0.03944262 -0.05114268 -0.01098859
v 0.04058244 -0.04547635 -0.00585157
v 0.04031755 -0.05114268 -0.00707161
v -0.01892061 -0.05114268 0.03636025
v -0.01912931 -0.04547635 0.03623985
v -0.02567120 -0.04547635 0.03178510
v -0.02648191 -0.04547635 0.03123126
v 0.04091154 -0.04547635 -0.00139682
v 0.04057441 -0.05114268 -0.00591579
v -0.01868783 -0.05114268 0.03646460
v -0.01818214 -0.04547635 0.03666526
v 0.04095167 -0.04547635 -0.00084298
v 0.04095970 -0.05114268 -0.00066640
v -0.01846308 -0.05114268 0.03655289
v -0.00985027 -0.04547635 0.03978761
v 0.04097576 -0.04547635 -0.00048179
v 0.04100786 -0.05114268 0.00000784
v -0.00973789 -0.05114268 0.03981971
v -0.00949709 -0.05114268 0.03985182
v 0.00000670 -0.04547635 0.04099962
v 0.04099984 -0.04547635 0.00001586
v 0.04086338 -0.05114268 0.00527328
v 0.04099181 -0.04547635 0.00048141
v 0.00000670 -0.05114268 0.04099159
v 0.00023948 -0.05114268 0.04096751
v 0.00949444 -0.05114268 0.03985984
v 0.00883624 -0.04547635 0.03993208
v 0.04086338 -0.04547635 0.00507261
v 0.04084732 -0.04547635 0.00553816
v 0.04083930 -0.05114268 0.00596356
v 0.00975130 -0.05114268 0.03981971
v 0.00986368 -0.04547635 0.03978761
v 0.04082324 -0.04547635 0.00615620
v 0.04000451 -0.05114268 0.02537185
v 0.01179012 -0.05114268 0.03905718
v 0.01078677 -0.04547635 0.03944246
v 0.04001253 -0.04547635 0.02160738
v 0.01893402 -0.05114268 0.03636025
v 0.02649532 -0.04547635 0.03123126
v 0.01996146 -0.04547635 0.03568602
v 0.01914272 -0.04547635 0.03623985
v 0.01870124 -0.05114268 0.03646460
v 0.01819555 -0.04547635 0.03666526
f 691 692 693
f 691 693 694
f 691 694 697
f 691 697 699
f 691 699 703
f 691 703 709
f 691 709 712
f 691 712 716
f 691 716 721
f 691 721 727
f 691 727 733
f 691 733 738
f 691 738 737
f 691 737 743
f 691 743 742
f 691 742 749
f 691 749 753
f 691 753 758
f 691 758 762
f 691 762 767
f 691 767 771
f 691 771 777
f 691 777 781
f 691 781 780
f 691 780 785
f 691 785 786
f 691 786 788
f 691 788 794
f 691 794 798
f 691 798 802
f 691 802 807
f 691 807 815
f 691 815 819
f 691 819 823
f 691 823 827
f 691 827 820
f 691 820 816
f 691 816 811
f 691 811 810
f 691 810 809
f 691 809 804
f 691 804 803
f 691 803 799
f 691 799 795
f 691 795 789
f 691 789 783
f 691 783 778
f 691 778 774
f 691 774 768
f 691 768 764
f 691 764 763
f 691 763 759
f 691 759 755
f 691 755 754
f 691 754 750
f 691 750 746
f 691 746 745
f 691 745 744
f 691 744 739
f 691 739 734
f 691 734 729
f 691 729 728
f 691 728 723
f 691 723 719
f 691 719 718
f 691 718 714
f 691 714 710
f 691 710 705
f 691 705 700
f 691 700 695
f 691 695 696
f 691 696 692
f 692 696 701
f 692 701 704
f 692 704 706
f 692 706 711
f 692 711 715
f 692 715 720
f 692 720 725
f 692 725 724
f 692 724 730
f 692 730 735
f 692 735 740
f 692 740 747
f 692 747 751
f 692 751 756
f 692 756 760
f 692 760 765
f 692 765 769
f 692 769 773
f 692 773 772
f 692 772 775
f 692 775 779
f 692 779 784
f 692 784 792
f 692 792 791
f 692 791 790
f 692 790 796
f 692 796 800
f 692 800 805
f 692 805 812
f 692 812 817
f 692 817 821
f 692 821 828
f 692 828 826
f 692 826 825
f 692 825 824
f 692 824 822
f 692 822 818
f 692 818 814
f 692 814 813
f 692 813 808
f 692 808 806
f 692 806 801
f 692 801 797
f 692 797 793
f 692 793 787
f 692 787 782
f 692 782 776
f 692 776 770
f 692 770 766
f 692 766 761
f 692 761 757
f 692 757 752
f 692 752 748
f 692 748 741
f 692 741 736
f 692 736 732
f 692 732 731
f 692 731 726
f 692 726 722
f 692 722 717
f 692 717 713
f 692 713 708
f 692 708 707
f 692 707 702
f 692 702 698
f 692 698 693
f 693 697 694
f 693 698 699
f 693 699 697
f 695 700 701
f 695 701 696
f 698 702 699
f 699 702 703
f 700 704 701
f 700 705 706
f 700 706 704
f 702 707 703
f 703 707 708
f 703 708 709
f 705 710 706
f 706 710 711
f 708 712 709
f 708 713 712
f 710 714 715
f 710 715 711
f 712 713 716
f 713 717 716
f 714 718 715
f 715 718 719
f 715 719 720
f 716 717 721
f 717 722 721
f 719 723 724
f 719 724 725
f 719 725 720
f 721 722 726
f 721 726 727
f 723 728 724
f 724 728 729
f 724 729 730
f 726 731 727
f 727 731 732
f 727 732 733
f 729 734 730
f 730 734 735
f 732 736 737
f 732 737 738
f 732 738 733
f 734 739 735
f 735 739 740
f 736 741 742
f 736 742 743
f 736 743 737
f 739 744 740
f 740 744 745
f 740 745 746
f 740 746 747
f 741 748 749
f 741 749 742
f 746 750 747
f 747 750 751
f 748 752 749
f 749 752 753
f 750 754 751
f 751 754 755
f 751 755 756
f 752 757 758
f 752 758 753
f 755 759 756
f 756 759 760
f 757 761 758
f 758 761 762
f 759 763 760
f 760 763 764
f 760 764 765
f 761 766 762
f 762 766 767
f 764 768 765
f 765 768 769
f 766 770 767
f 767 770 771
f 768 772 773
f 768 773 769
f 768 774 775
f 768 775 772
f 770 776 777
f 770 777 771
f 774 778 775
f 775 778 779
f 776 780 781
f 776 781 777
f 776 782 780
f 778 783 779
f 779 783 784
f 780 782 785
f 782 786 785
f 782 787 788
f 782 788 786
f 783 789 790
f 783 790 791
f 783 791 792
f 783 792 784
f 787 793 794
f 787 794 788
f 789 795 796
f 789 796 790
f 793 797 798
f 793 798 794
f 795 799 796
f 796 799 800
f 797 801 802
f 797 802 798
f 799 803 800
f 800 803 804
f 800 804 805
f 801 806 802
f 802 806 808
f 802 808 807
f 804 809 805
f 805 809 810
f 805 810 811
f 805 811 812
f 807 813 814
f 807 814 815
f 807 808 813
f 811 816 817
f 811 817 812
f 814 818 815
f 815 818 819
f 816 820 821
f 816 821 817
f 818 822 819
f 819 822 824
f 819 824 825
f 819 825 826
f 819 826 823
f 820 827 828
f 820 828 821
f 823 826 828
f 823 828 827

o geometry_7
v -0.02515506 -0.04547270 -0.03233526
v -0.02636269 -0.04547270 -0.03157957
v -0.02599476 -0.04319393 -0.03899838
v -0.02519479 -0.04319393 -0.03899838
v -0.02519498 -0.04099898 -0.04119277
v -0.02519498 -0.03799995 -0.04199933
v -0.02515506 -0.04412530 -0.03236432
v -0.02515506 -0.04547270 0.03214514
v -0.02711564 -0.04547270 -0.03074396
v -0.02599495 -0.04099898 -0.04119277
v -0.02599495 -0.03799995 -0.04199206
v -0.02619898 -0.01375933 -0.04199206
v -0.02519556 -0.01612192 -0.04199933
v -0.02515506 -0.01375933 -0.03236432
v -0.02515506 -0.02346738 0.03223233
v -0.02648860 -0.04547270 0.03123686
v -0.02711564 -0.01375933 -0.03078756
v -0.02711564 -0.04547270 0.03069916
v -0.02539920 -0.01375933 -0.04199206
v -0.02515506 -0.01375933 0.03216694
v -0.02711564 -0.01375933 0.03049571
v -0.02711564 -0.04375276 0.03069190
f 829 830 831
f 829 831 832
f 829 832 833
f 829 833 834
f 829 834 835
f 829 835 842
f 829 842 848
f 829 848 843
f 829 843 836
f 829 836 844
f 829 844 846
f 829 846 837
f 829 837 830
f 830 837 831
f 831 838 833
f 831 833 832
f 831 837 838
f 833 838 834
f 834 838 839
f 834 839 840
f 834 840 841
f 834 841 842
f 834 842 835
f 836 843 844
f 837 845 840
f 837 840 839
f 837 839 838
f 837 846 850
f 837 850 849
f 837 849 845
f 840 847 841
f 840 845 849
f 840 849 848
f 840 848 842
f 840 842 847
f 841 847 842
f 843 848 849
f 843 849 850
f 843 850 844
f 844 850 846

o geometry_8
v -0.02711583 -0.04547270 -0.03073999
v -0.02771222 -0.04547270 -0.03020428
v -0.02711583 -0.01375933 -0.03078814
v -0.02711583 -0.04547270 0.03070425
v -0.02802061 -0.04547270 -0.02992137
v -0.02789562 -0.01375933 -0.03004176
v -0.02711583 -0.01375933 0.03049960
v -0.04000409 -0.04547270 0.02160319
v -0.02820808 -0.04547270 -0.02974080
v -0.02890907 -0.01375933 -0.02906063
v -0.02871617 -0.01375933 0.02913925
v -0.03222793 -0.01375933 0.02523278
v -0.04019836 -0.01543891 0.01630627
v -0.04023911 -0.01375933 0.01558396
v -0.04072003 -0.01375933 0.00788537
v -0.04075807 -0.01375933 0.00724734
v -0.04081513 -0.04547270 0.00615786
v -0.02835073 -0.04547270 -0.02960235
v -0.03058141 -0.01375933 -0.02709836
v -0.04097679 -0.01375933 0.00067434
v -0.04088713 -0.04547270 0.00399695
v -0.03381740 -0.04547270 -0.02298121
v -0.03294387 -0.01375933 -0.02422719
v -0.04099309 -0.01375933 0.00006038
v -0.04099445 -0.04547270 0.00001825
v -0.03421681 -0.04547270 -0.02249365
v -0.03317618 -0.01375933 -0.02394428
v -0.04085181 -0.01375933 -0.00233527
v -0.04094554 -0.04547270 -0.00080037
v -0.03523434 -0.04547270 -0.02081429
v -0.03627224 -0.01375933 -0.01882794
v -0.04083686 -0.01375933 -0.00257002
v -0.04094283 -0.04547270 -0.00084250
v -0.03901237 -0.04547270 -0.01246563
v -0.03846217 -0.01375933 -0.01398849
v -0.04062221 -0.01375933 -0.00547731
v -0.04057195 -0.04547270 -0.00585050
f 851 852 853
f 851 853 857
f 851 857 854
f 851 854 858
f 851 858 867
f 851 867 871
f 851 871 875
f 851 875 879
f 851 879 883
f 851 883 887
f 851 887 884
f 851 884 880
f 851 880 876
f 851 876 872
f 851 872 868
f 851 868 859
f 851 859 855
f 851 855 852
f 852 855 853
f 853 855 856
f 853 856 860
f 853 860 869
f 853 869 873
f 853 873 877
f 853 877 881
f 853 881 885
f 853 885 886
f 853 886 882
f 853 882 878
f 853 878 874
f 853 874 870
f 853 870 866
f 853 866 865
f 853 865 864
f 853 864 862
f 853 862 861
f 853 861 857
f 854 857 858
f 855 859 856
f 856 859 860
f 857 861 858
f 858 861 862
f 858 862 863
f 858 863 864
f 858 864 865
f 858 865 866
f 858 866 867
f 859 868 860
f 860 868 869
f 862 864 863
f 866 870 871
f 866 871 867
f 868 872 869
f 869 872 873
f 870 874 875
f 870 875 871
f 872 876 877
f 872 877 873
f 874 878 875
f 875 878 879
f 876 880 877
f 877 880 881
f 878 882 879
f 879 882 883
f 880 884 881
f 881 884 885
f 882 886 883
f 883 886 887
f 884 887 886
f 884 886 885

o geometry_9
v 0.02204426 -0.01375933 0.03438586
v 0.02031154 -0.01375933 0.03556576
v 0.02204426 -0.03113571 0.03432164
v 0.02204426 -0.01375933 -0.03450647
v 0.01534441 -0.01375933 0.03780518
v 0.01914715 -0.04547270 0.03624000
v 0.02204426 -0.04547270 0.03426545
v 0.01996038 -0.04547270 0.03568617
v 0.02204426 -0.01423123 -0.03450647
v 0.02087063 -0.01375933 -0.03527703
v 0.01078851 -0.04547270 0.03944261
v 0.01819531 -0.04547270 0.03666541
v 0.01051127 -0.01375933 0.03961118
v 0.02204426 -0.04547270 -0.03444226
v 0.02037623 -0.04547270 -0.03555796
v 0.02019140 -0.04547270 -0.03567033
v 0.01996500 -0.04547270 -0.03580678
v 0.01977093 -0.04547270 -0.03591915
v 0.01968314 -0.01375933 -0.03595929
v 0.00986439 -0.04547270 0.03978776
v 0.00512366 -0.01375933 0.04038173
v 0.01277998 -0.01375933 -0.03888900
v 0.01958149 -0.01375933 -0.03601548
v 0.01119050 -0.04547270 -0.03940270
v 0.00883400 -0.04547270 0.03993224
v 0.00000405 -0.01375933 0.04099977
v 0.01235489 -0.01375933 -0.03904953
v 0.01090864 -0.04547270 -0.03950705
v 0.00098362 -0.04547270 0.04087938
v -0.00985629 -0.04547270 0.03978776
v -0.00887672 -0.04547270 0.03990816
v 0.00000405 -0.04547270 0.04099175
v -0.01050779 -0.01375933 0.03961118
v 0.01167566 -0.01375933 -0.03928230
v 0.01082547 -0.04547270 -0.03953113
v -0.01533631 -0.01375933 0.03780518
v -0.01818259 -0.04547270 0.03666541
v 0.00830725 -0.01375933 -0.04009299
v 0.00972115 -0.04547270 -0.03979601
v -0.02029882 -0.01375933 0.03556576
v -0.01913443 -0.04547270 0.03624000
v 0.00111299 -0.04547270 -0.04091170
v 0.00339094 -0.01375933 -0.04072709
v -0.02456362 -0.01375933 0.03266816
v -0.02515044 -0.03863639 0.03217051
v -0.02515044 -0.04241468 0.03215446
v -0.02515044 -0.04547270 0.03213840
v -0.00000057 -0.04547270 -0.04100000
v -0.00000057 -0.01375933 -0.04100000
v -0.02515044 -0.01375933 0.03216248
v -0.02515044 -0.02062979 0.03221064
v -0.02515044 -0.02346738 0.03222670
v -0.02515044 -0.04547270 -0.03233127
v -0.00829915 -0.01375933 -0.04009299
v -0.00970843 -0.04547270 -0.03979601
v -0.02515044 -0.01375933 -0.03236337
v -0.02515044 -0.04412530 -0.03236337
v -0.02472996 -0.04547270 -0.03264430
v -0.01029524 -0.04547270 -0.03965956
v -0.01136722 -0.01375933 -0.03935454
v -0.02505803 -0.01375933 -0.03243561
v -0.02429101 -0.01375933 -0.03299748
v -0.02066847 -0.04547270 -0.03534927
v -0.01081275 -0.04547270 -0.03953113
v -0.01165370 -0.01375933 -0.03928230
v -0.02086253 -0.01375933 -0.03527703
v -0.02017868 -0.04547270 -0.03567033
v -0.01884333 -0.04547270 -0.03632851
v -0.01694427 -0.01375933 -0.03721947
v -0.02076550 -0.01375933 -0.03533322
v -0.01975821 -0.04547270 -0.03591915
v -0.02000310 -0.04547270 -0.03577468
v -0.01890340 -0.04547270 -0.03630443
v -0.01940243 -0.04547270 -0.03607969
v -0.01937008 -0.01375933 -0.03611180
v -0.01957339 -0.01375933 -0.03601548
f 888 889 890
f 888 890 894
f 888 894 901
f 888 901 896
f 888 896 891
f 888 891 897
f 888 897 906
f 888 906 910
f 888 910 909
f 888 909 914
f 888 914 921
f 888 921 925
f 888 925 930
f 888 930 936
f 888 936 941
f 888 941 947
f 888 947 952
f 888 952 956
f 888 956 962
f 888 962 963
f 888 963 957
f 888 957 953
f 888 953 949
f 888 949 948
f 888 948 943
f 888 943 937
f 888 937 931
f 888 931 927
f 888 927 923
f 888 923 920
f 888 920 913
f 888 913 908
f 888 908 900
f 888 900 892
f 888 892 889
f 889 892 893
f 889 893 890
f 890 893 895
f 890 895 894
f 891 896 897
f 892 898 899
f 892 899 893
f 892 900 898
f 893 899 898
f 893 898 907
f 893 907 912
f 893 912 916
f 893 916 919
f 893 919 918
f 893 918 917
f 893 917 924
f 893 924 928
f 893 928 934
f 893 934 940
f 893 940 945
f 893 945 950
f 893 950 954
f 893 954 959
f 893 959 958
f 893 958 961
f 893 961 960
f 893 960 955
f 893 955 951
f 893 951 946
f 893 946 942
f 893 942 935
f 893 935 929
f 893 929 926
f 893 926 922
f 893 922 915
f 893 915 911
f 893 911 905
f 893 905 904
f 893 904 903
f 893 903 902
f 893 902 901
f 893 901 894
f 893 894 895
f 896 902 897
f 896 901 902
f 897 902 903
f 897 903 904
f 897 904 905
f 897 905 906
f 898 900 907
f 900 908 907
f 905 909 910
f 905 910 906
f 905 911 909
f 907 908 912
f 908 913 912
f 909 911 914
f 911 915 914
f 912 913 916
f 913 917 918
f 913 918 919
f 913 919 916
f 913 920 917
f 914 915 921
f 915 922 921
f 917 920 923
f 917 923 924
f 921 922 925
f 922 926 925
f 923 927 928
f 923 928 924
f 925 926 929
f 925 929 930
f 927 931 928
f 928 931 932
f 928 932 933
f 928 933 934
f 929 935 936
f 929 936 930
f 931 937 938
f 931 938 939
f 931 939 932
f 932 939 938
f 932 938 937
f 932 937 943
f 932 943 944
f 932 944 940
f 932 940 934
f 932 934 933
f 935 941 936
f 935 942 941
f 940 944 945
f 941 942 946
f 941 946 947
f 943 948 944
f 944 948 949
f 944 949 945
f 945 949 950
f 946 951 947
f 947 951 952
f 949 953 950
f 950 953 954
f 951 955 956
f 951 956 952
f 953 957 958
f 953 958 959
f 953 959 954
f 955 960 956
f 956 960 961
f 956 961 958
f 956 958 962
f 957 963 958
f 958 963 962

o geometry_10
v -0.03342792 -0.05114268 0.02370665
v -0.03349458 -0.05114268 0.02535532
v -0.03349458 -0.05297850 0.03038560
v -0.03342792 -0.05297850 0.02370665
v -0.03342792 -0.05114268 -0.02340421
v -0.03897449 -0.05114268 0.02536585
v -0.03999373 -0.05297850 0.03040140
v -0.03342792 -0.05297850 -0.02339894
v -0.03342792 -0.05123487 -0.02340421
v -0.03386198 -0.05114268 -0.02289328
v -0.03999373 -0.05114268 0.02536585
v -0.04082556 -0.05114268 0.00596634
v -0.04082927 -0.05297850 0.00590313
v -0.03402346 -0.05297850 -0.02268785
v -0.03407087 -0.05114268 -0.02264045
v -0.04087149 -0.05114268 0.00459684
v -0.04086631 -0.05297850 0.00478646
v -0.03446420 -0.05297850 -0.02215059
v -0.03440346 -0.05114268 -0.02223486
v -0.04099445 -0.05114268 0.00001427
v -0.04099445 -0.05297850 0.00001427
v -0.03499011 -0.05297850 -0.02128148
v -0.03453605 -0.05114268 -0.02201890
v -0.04098779 -0.05114268 -0.00009634
v -0.04096779 -0.05297850 -0.00043345
v -0.03505011 -0.05114268 -0.02116559
v -0.03914338 -0.05297850 -0.01210582
v -0.03597454 -0.05114268 -0.01912715
v -0.04096186 -0.05114268 -0.00052299
v -0.04096112 -0.05114268 -0.00053353
v -0.04065372 -0.05114268 -0.00469471
v -0.04056335 -0.05114268 -0.00591672
v -0.04056039 -0.05297850 -0.00593779
v -0.03911152 -0.05114268 -0.01219536
f 964 965 966
f 964 966 967
f 964 967 971
f 964 971 972
f 964 972 968
f 964 968 973
f 964 973 978
f 964 978 982
f 964 982 986
f 964 986 989
f 964 989 991
f 964 991 997
f 964 997 995
f 964 995 994
f 964 994 993
f 964 993 992
f 964 992 987
f 964 987 983
f 964 983 979
f 964 979 975
f 964 975 974
f 964 974 969
f 964 969 965
f 965 969 970
f 965 970 966
f 966 970 976
f 966 976 980
f 966 980 984
f 966 984 988
f 966 988 996
f 966 996 990
f 966 990 985
f 966 985 981
f 966 981 977
f 966 977 971
f 966 971 967
f 968 972 973
f 969 974 970
f 970 974 975
f 970 975 976
f 971 977 973
f 971 973 972
f 973 977 978
f 975 979 976
f 976 979 980
f 977 981 978
f 978 981 982
f 979 983 984
f 979 984 980
f 981 985 986
f 981 986 982
f 983 987 988
f 983 988 984
f 985 989 986
f 985 990 991
f 985 991 989
f 987 992 988
f 988 992 993
f 988 993 994
f 988 994 995
f 988 995 996
f 990 996 995
f 990 995 997
f 990 997 991

o geometry_11
v 0.02053119 -0.01375933 -0.03547377
v 0.02540516 -0.01375933 -0.03592537
v 0.02053119 -0.01375933 -0.03113502
v 0.02053119 0.01898336 -0.03592537
v 0.02620231 -0.01375933 -0.03592537
v 0.02700510 -0.01375933 -0.03113502
v 0.02053119 0.03263448 -0.03113502
v 0.02053119 0.02109961 -0.03592537
v 0.02711392 -0.00970850 -0.03592537
v 0.02848333 -0.00323716 -0.03592537
v 0.02823428 -0.00565767 -0.03113502
v 0.02258411 0.03179888 -0.03113502
v 0.02326761 0.03000053 -0.03375506
v 0.02053119 0.03236200 -0.03159834
v 0.02244709 0.01824768 -0.03592537
v 0.02053119 0.02947829 -0.03522851
v 0.02876463 -0.00109822 -0.03592537
v 0.02873803 -0.00182936 -0.03113502
v 0.02611043 0.03000053 -0.03113502
v 0.02053119 0.03000961 -0.03510705
v 0.02730010 0.00916964 -0.03592537
v 0.02390195 0.01604061 -0.03592537
v 0.02636029 0.01150386 -0.03592537
v 0.02876222 0.00098623 -0.03592537
v 0.02873320 0.00189449 -0.03113502
v 0.02778452 0.00733496 -0.03592537
v 0.02774422 0.00748936 -0.03592537
f 998 999 1002
f 998 1002 1003
f 998 1003 1000
f 998 1000 1004
f 998 1004 1011
f 998 1011 1017
f 998 1017 1013
f 998 1013 1005
f 998 1005 1001
f 998 1001 999
f 999 1001 1005
f 999 1005 1012
f 999 1012 1019
f 999 1019 1020
f 999 1020 1018
f 999 1018 1024
f 999 1024 1023
f 999 1023 1021
f 999 1021 1014
f 999 1014 1007
f 999 1007 1006
f 999 1006 1002
f 1000 1003 1008
f 1000 1008 1015
f 1000 1015 1022
f 1000 1022 1016
f 1000 1016 1009
f 1000 1009 1004
f 1002 1006 1003
f 1003 1006 1007
f 1003 1007 1008
f 1004 1009 1010
f 1004 1010 1011
f 1005 1013 1012
f 1007 1014 1015
f 1007 1015 1008
f 1009 1016 1010
f 1010 1013 1017
f 1010 1017 1011
f 1010 1016 1018
f 1010 1018 1013
f 1012 1013 1019
f 1013 1018 1020
f 1013 1020 1019
f 1014 1021 1015
f 1015 1021 1022
f 1016 1023 1024
f 1016 1024 1018
f 1016 1022 1021
f 1016 1021 1023

o geometry_12
v -0.02875189 -0.00134845 -0.03429896
v -0.02821691 -0.00573164 -0.03113486
v -0.02873374 -0.00183349 -0.03113486
v -0.02872906 0.00189111 -0.03113486
v -0.02874838 0.00129037 -0.03429896
v -0.02789381 -0.00688862 -0.03429896
v -0.02699476 -0.01375933 -0.03113486
v -0.02611034 0.02999693 -0.03113486
v -0.02839777 0.00394253 -0.03429896
v -0.02619404 -0.01375933 -0.03429896
v -0.02277226 -0.01375933 -0.03113486
v -0.02277226 0.03170125 -0.03113486
v -0.02326802 0.02999693 -0.03375442
v -0.02731785 0.00910446 -0.03429896
v -0.02539976 -0.01375933 -0.03429896
v -0.02277226 -0.01375933 -0.03400687
v -0.02277226 0.03130076 -0.03185565
v -0.02277226 0.03042412 -0.03336383
v -0.02277226 0.03011707 -0.03385571
v -0.02277226 0.03006368 -0.03392478
v -0.02277226 0.02999693 -0.03399944
v -0.02277226 0.02990348 -0.03402112
v -0.02612673 0.01206367 -0.03429896
v -0.02277226 0.01621991 -0.03429896
v -0.02277226 0.01871188 -0.03429896
v -0.02422678 0.01605526 -0.03429896
f 1025 1026 1027
f 1025 1027 1028
f 1025 1028 1029
f 1025 1029 1033
f 1025 1033 1038
f 1025 1038 1047
f 1025 1047 1050
f 1025 1050 1049
f 1025 1049 1048
f 1025 1048 1039
f 1025 1039 1034
f 1025 1034 1030
f 1025 1030 1031
f 1025 1031 1026
f 1026 1031 1035
f 1026 1035 1036
f 1026 1036 1032
f 1026 1032 1028
f 1026 1028 1027
f 1028 1032 1029
f 1029 1032 1033
f 1030 1034 1031
f 1031 1034 1039
f 1031 1039 1040
f 1031 1040 1035
f 1032 1036 1037
f 1032 1037 1038
f 1032 1038 1033
f 1035 1040 1048
f 1035 1048 1049
f 1035 1049 1046
f 1035 1046 1045
f 1035 1045 1044
f 1035 1044 1043
f 1035 1043 1042
f 1035 1042 1041
f 1035 1041 1036
f 1036 1041 1037
f 1037 1041 1042
f 1037 1042 1043
f 1037 1043 1044
f 1037 1044 1045
f 1037 1045 1046
f 1037 1046 1038
f 1038 1046 1047
f 1039 1048 1040
f 1046 1049 1050
f 1046 1050 1047

o geometry_13
v 0.02053119 0.01862910 -0.03113552
v 0.02053119 -0.01375933 -0.03113552
v 0.02053119 -0.01375933 -0.03547434
v 0.00000483 -0.01375933 -0.04099903
v 0.01166037 -0.01375933 -0.03928880
v 0.01958237 -0.01375933 -0.03602092
v 0.02053119 0.01862910 -0.03546565
v 0.01939066 0.01862910 -0.03612232
v 0.01440285 0.01862910 -0.03836850
v 0.01284640 0.01862910 -0.03892667
v 0.01368474 0.01862910 -0.03863503
v 0.01278141 -0.01375933 -0.03889287
v 0.01251496 0.01862910 -0.03903579
v 0.00686428 0.01862910 -0.04040030
v 0.00830701 -0.01375933 -0.04009805
v 0.00339394 -0.01375933 -0.04073154
v 0.00571400 0.01862910 -0.04054806
v 0.00000159 0.01862910 -0.04099903
v -0.00686111 0.01862910 -0.04040030
v -0.01266451 0.01862910 -0.03897496
v -0.01251179 0.01862910 -0.03903579
v -0.01517958 0.01585171 -0.03804713
v -0.01940532 0.01585171 -0.03611253
v -0.01957648 -0.01375644 -0.03601975
v -0.01697930 -0.01375644 -0.03720827
v -0.01165396 -0.01375933 -0.03928784
v -0.00830059 -0.01375933 -0.04009708
v -0.01266451 -0.01375933 -0.03888418
v -0.02086370 -0.01375644 -0.03527750
v -0.02150087 0.01585171 -0.03490561
v -0.02277127 0.01585171 -0.03407288
v -0.02277127 -0.01375644 -0.03400770
v -0.02277127 -0.01375644 -0.03113456
v -0.02276929 0.01585171 -0.03113456
v -0.01266451 0.01862910 -0.03113552
f 1052 1053 1051
f 1054 1053 1052
f 1055 1053 1054
f 1056 1053 1055
f 1056 1057 1053
f 1056 1058 1057
f 1059 1058 1056
f 1059 1060 1058
f 1061 1060 1059
f 1061 1055 1060
f 1061 1062 1055
f 1061 1059 1062
f 1062 1059 1056
f 1062 1056 1055
f 1063 1060 1055
f 1063 1064 1060
f 1063 1055 1064
f 1065 1064 1055
f 1066 1064 1065
f 1066 1067 1064
f 1066 1068 1067
f 1066 1054 1068
f 1066 1065 1054
f 1065 1055 1054
f 1069 1068 1054
f 1069 1070 1068
f 1071 1070 1069
f 1072 1070 1071
f 1072 1073 1070
f 1072 1074 1073
f 1072 1075 1074
f 1072 1076 1075
f 1072 1071 1076
f 1071 1069 1076
f 1076 1069 1077
f 1076 1077 1078
f 1075 1076 1078
f 1075 1078 1074
f 1079 1074 1078
f 1080 1074 1079
f 1080 1073 1074
f 1080 1070 1073
f 1080 1081 1070
f 1080 1079 1081
f 1079 1082 1081
f 1079 1078 1082
f 1078 1083 1082
f 1078 1052 1083
f 1078 1054 1052
f 1077 1054 1078
f 1077 1069 1054
f 1083 1052 1084
f 1081 1083 1084
f 1081 1082 1083
f 1081 1084 1085
f 1081 1085 1070
f 1085 1051 1070
f 1085 1084 1051
f 1084 1052 1051
f 1070 1051 1068
f 1058 1068 1051
f 1064 1068 1058
f 1067 1068 1064
f 1060 1064 1058
f 1057 1058 1051
f 1057 1051 1053

o geometry_14
v 0.04100816 -0.05297850 0.00001506
v 0.04098154 -0.05297850 -0.00043264
v 0.04097489 -0.05114268 -0.00053272
v 0.04100742 -0.05114268 0.00001506
v 0.04086471 -0.05114268 0.00525056
v 0.04086249 -0.05297850 0.00534537
v 0.04057338 -0.05297850 -0.00594203
v 0.04057634 -0.05114268 -0.00592096
v 0.04086397 -0.05114268 0.00527689
v 0.04000846 -0.05297850 0.03039569
v 0.04031976 -0.05114268 -0.00707446
v 0.03941988 -0.05297850 -0.01112486
v 0.04083957 -0.05114268 0.00596688
v 0.04000772 -0.05114268 0.02537088
v 0.03363908 -0.05297850 0.03040096
v 0.03944798 -0.05114268 -0.01098792
v 0.03915665 -0.05297850 -0.01210454
v 0.03932375 -0.05114268 -0.01145668
v 0.03937551 -0.05114268 -0.01126180
v 0.03350894 -0.05114268 0.02536034
v 0.03350894 -0.05297850 0.03038516
v 0.03912485 -0.05114268 -0.01219408
v 0.03500258 -0.05297850 -0.02128509
v 0.03345497 -0.05114268 0.02370121
v 0.03345497 -0.05139840 0.02370121
v 0.03345497 -0.05297850 0.02369594
v 0.03506247 -0.05114268 -0.02116922
v 0.03447759 -0.05297850 -0.02214890
v 0.03441695 -0.05114268 -0.02223317
v 0.03481328 -0.05114268 -0.02158005
v 0.03345497 -0.05114268 -0.02340773
v 0.03345497 -0.05297850 -0.02339720
v 0.03426685 -0.05114268 -0.02241752
f 1086 1087 1088
f 1086 1088 1089
f 1086 1089 1090
f 1086 1090 1091
f 1086 1091 1095
f 1086 1095 1100
f 1086 1100 1106
f 1086 1106 1111
f 1086 1111 1117
f 1086 1117 1113
f 1086 1113 1108
f 1086 1108 1102
f 1086 1102 1097
f 1086 1097 1092
f 1086 1092 1087
f 1087 1092 1093
f 1087 1093 1088
f 1088 1093 1096
f 1088 1096 1101
f 1088 1101 1104
f 1088 1104 1103
f 1088 1103 1107
f 1088 1107 1112
f 1088 1112 1115
f 1088 1115 1114
f 1088 1114 1118
f 1088 1118 1116
f 1088 1116 1109
f 1088 1109 1105
f 1088 1105 1099
f 1088 1099 1098
f 1088 1098 1094
f 1088 1094 1090
f 1088 1090 1089
f 1090 1094 1091
f 1091 1094 1095
f 1092 1096 1093
f 1092 1097 1096
f 1094 1098 1095
f 1095 1099 1100
f 1095 1098 1099
f 1096 1097 1101
f 1097 1102 1103
f 1097 1103 1104
f 1097 1104 1101
f 1099 1105 1100
f 1100 1105 1106
f 1102 1107 1103
f 1102 1108 1107
f 1105 1109 1106
f 1106 1109 1110
f 1106 1110 1111
f 1107 1108 1112
f 1108 1113 1114
f 1108 1114 1115
f 1108 1115 1112
f 1109 1116 1117
f 1109 1117 1111
f 1109 1111 1110
f 1113 1117 1118
f 1113 1118 1114
f 1116 1118 1117

o geometry_15
v 0.02626043 -0.04547270 -0.03143563
v 0.02626043 -0.04432400 -0.03164891
v 0.02712218 -0.04547270 -0.03074563
v 0.02626043 -0.04547270 0.03139811
v 0.02626043 -0.04399491 -0.03170536
v 0.02719869 -0.04547270 -0.03067663
v 0.02650293 -0.04547270 0.03123502
v 0.02626043 -0.04149572 0.03141693
v 0.02626043 -0.01375933 -0.03266509
v 0.02836356 -0.04547270 -0.02960400
v 0.02803157 -0.04547270 -0.02992391
v 0.04001673 -0.04547270 0.02160641
v 0.02626043 -0.01375933 0.03123502
v 0.03318333 -0.01375933 -0.02394602
v 0.03422840 -0.04547270 -0.02249702
v 0.02871433 -0.04547270 -0.02920255
v 0.02848049 -0.04547270 -0.02948482
v 0.02841409 -0.04547270 -0.02955382
v 0.03217867 -0.01375933 0.02530731
v 0.02872299 -0.01375933 0.02913994
v 0.04082796 -0.04547270 0.00615672
v 0.04076445 -0.01375933 0.00724817
v 0.04076011 -0.01375933 0.00732972
v 0.04049885 -0.01375933 0.01153871
v 0.04024768 -0.01375933 0.01558461
v 0.04020582 -0.01543271 0.01630597
v 0.03346047 -0.01375933 -0.02348811
v 0.03465422 -0.04547270 -0.02179447
v 0.04084961 -0.04547270 0.00554200
v 0.04087992 -0.01375933 0.00402400
v 0.03627813 -0.01375933 -0.01882748
v 0.03524605 -0.04547270 -0.02081593
v 0.04086982 -0.04547270 0.00495863
v 0.04100118 -0.01375933 0.00005965
v 0.03846933 -0.01375933 -0.01399123
v 0.03902506 -0.04547270 -0.01246696
v 0.04100695 -0.04547270 0.00001574
v 0.04084528 -0.01375933 -0.00257489
v 0.03860934 -0.01375933 -0.01347059
v 0.03926468 -0.04547270 -0.01157623
v 0.04097952 -0.04547270 -0.00044217
v 0.04095498 -0.04547270 -0.00084362
v 0.04063020 -0.01375933 -0.00547916
v 0.04002105 -0.01375933 -0.00821406
v 0.03953461 -0.04547270 -0.01056632
v 0.04058401 -0.04547270 -0.00584925
v 0.04046709 -0.04547270 -0.00637615
f 1119 1120 1121
f 1119 1121 1124
f 1119 1124 1129
f 1119 1129 1128
f 1119 1128 1136
f 1119 1136 1135
f 1119 1135 1134
f 1119 1134 1133
f 1119 1133 1146
f 1119 1146 1150
f 1119 1150 1154
f 1119 1154 1158
f 1119 1158 1163
f 1119 1163 1165
f 1119 1165 1164
f 1119 1164 1160
f 1119 1160 1159
f 1119 1159 1155
f 1119 1155 1151
f 1119 1151 1147
f 1119 1147 1139
f 1119 1139 1130
f 1119 1130 1125
f 1119 1125 1122
f 1119 1122 1126
f 1119 1126 1131
f 1119 1131 1127
f 1119 1127 1123
f 1119 1123 1120
f 1120 1123 1121
f 1121 1123 1124
f 1122 1125 1126
f 1123 1127 1128
f 1123 1128 1129
f 1123 1129 1124
f 1125 1130 1126
f 1126 1130 1131
f 1127 1132 1133
f 1127 1133 1134
f 1127 1134 1135
f 1127 1135 1136
f 1127 1136 1128
f 1127 1131 1138
f 1127 1138 1137
f 1127 1137 1143
f 1127 1143 1142
f 1127 1142 1141
f 1127 1141 1140
f 1127 1140 1148
f 1127 1148 1152
f 1127 1152 1156
f 1127 1156 1161
f 1127 1161 1162
f 1127 1162 1157
f 1127 1157 1153
f 1127 1153 1149
f 1127 1149 1145
f 1127 1145 1132
f 1130 1137 1138
f 1130 1138 1131
f 1130 1139 1140
f 1130 1140 1141
f 1130 1141 1142
f 1130 1142 1143
f 1130 1143 1144
f 1130 1144 1137
f 1132 1145 1146
f 1132 1146 1133
f 1137 1144 1143
f 1139 1147 1148
f 1139 1148 1140
f 1145 1149 1150
f 1145 1150 1146
f 1147 1151 1148
f 1148 1151 1152
f 1149 1153 1150
f 1150 1153 1154
f 1151 1155 1152
f 1152 1155 1156
f 1153 1157 1158
f 1153 1158 1154
f 1155 1159 1156
f 1156 1160 1161
f 1156 1159 1160
f 1157 1162 1158
f 1158 1162 1163
f 1160 1164 1161
f 1161 1164 1165
f 1161 1165 1163
f 1161 1163 1162

o geometry_16
v 0.02204889 -0.04547270 -0.03444026
v 0.02204889 -0.01423123 -0.03450008
v 0.02520507 -0.03799374 -0.04200000
v 0.02520507 -0.04099588 -0.04119243
v 0.02520548 -0.04319082 -0.03899405
v 0.02600566 -0.04319082 -0.03899405
v 0.02566555 -0.04547270 -0.03211477
v 0.02204889 -0.04547270 0.03426285
v 0.02204889 -0.01375933 -0.03450008
v 0.02520177 -0.01611882 -0.04200000
v 0.02600483 -0.03799374 -0.04200000
v 0.02600524 -0.04099588 -0.04119243
v 0.02626001 -0.04547270 -0.03143432
v 0.02626001 -0.04547270 0.03139897
v 0.02204889 -0.03113571 0.03432267
v 0.02540501 -0.01375933 -0.04200000
v 0.02204889 -0.01375933 0.03438997
v 0.02620477 -0.01375933 -0.04200000
v 0.02626001 -0.04399491 -0.03171099
v 0.02626001 -0.04149572 0.03141393
v 0.02457515 -0.01375933 0.03266267
v 0.02626001 -0.01375933 -0.03266063
v 0.02626001 -0.01375933 0.03123447
f 1166 1167 1168
f 1166 1168 1169
f 1166 1169 1170
f 1166 1170 1171
f 1166 1171 1172
f 1166 1172 1178
f 1166 1178 1179
f 1166 1179 1173
f 1166 1173 1180
f 1166 1180 1182
f 1166 1182 1174
f 1166 1174 1167
f 1167 1174 1175
f 1167 1175 1168
f 1168 1176 1177
f 1168 1177 1169
f 1168 1175 1181
f 1168 1181 1183
f 1168 1183 1176
f 1169 1177 1171
f 1169 1171 1170
f 1171 1177 1178
f 1171 1178 1172
f 1173 1179 1180
f 1174 1181 1175
f 1174 1182 1186
f 1174 1186 1188
f 1174 1188 1187
f 1174 1187 1183
f 1174 1183 1181
f 1176 1183 1177
f 1177 1183 1178
f 1178 1183 1184
f 1178 1184 1187
f 1178 1187 1188
f 1178 1188 1185
f 1178 1185 1179
f 1179 1185 1182
f 1179 1182 1180
f 1182 1185 1186
f 1183 1187 1184
f 1185 1188 1186

o geometry_17
v -0.02277226 0.01871310 -0.03429897
v -0.02277226 0.01622109 -0.03429897
v -0.02277226 0.01751160 -0.04199864
v -0.02722283 0.00938395 -0.04199864
v -0.02422670 0.01605581 -0.03429897
v -0.02277226 0.01587145 -0.04199864
v -0.02539992 -0.01375933 -0.03429897
v -0.02731775 0.00910424 -0.03429897
v -0.02612684 0.01206350 -0.03429897
v -0.02879518 -0.00017088 -0.04199864
v -0.02839782 0.00393903 -0.03429897
v -0.02539933 -0.01375933 -0.03906952
v -0.02539933 -0.01375933 -0.04199864
v -0.02619405 -0.01375933 -0.03429897
v -0.02710846 -0.00970981 -0.04199864
v -0.02789375 -0.00689041 -0.03429897
v -0.02875156 -0.00135013 -0.03429897
v -0.02874802 0.00128809 -0.03429897
v -0.02619877 -0.01375933 -0.04199864
f 1189 1190 1194
f 1189 1194 1191
f 1189 1191 1192
f 1189 1192 1193
f 1189 1193 1197
f 1189 1197 1196
f 1189 1196 1199
f 1189 1199 1206
f 1189 1206 1205
f 1189 1205 1204
f 1189 1204 1202
f 1189 1202 1195
f 1189 1195 1190
f 1190 1195 1194
f 1191 1194 1201
f 1191 1201 1207
f 1191 1207 1203
f 1191 1203 1198
f 1191 1198 1192
f 1192 1196 1197
f 1192 1197 1193
f 1192 1198 1199
f 1192 1199 1196
f 1194 1195 1200
f 1194 1200 1201
f 1195 1202 1207
f 1195 1207 1201
f 1195 1201 1200
f 1198 1203 1204
f 1198 1204 1205
f 1198 1205 1206
f 1198 1206 1199
f 1202 1204 1207
f 1203 1207 1204

o geometry_18
v 0.03344768 -0.05114268 0.02370230
v 0.03344114 -0.05114268 0.02371032
v 0.03344768 -0.05139840 0.02370230
v 0.03344768 -0.05114268 -0.02340572
v 0.02703843 -0.05114268 0.03081385
v 0.03344768 -0.05297850 0.02369427
v 0.03344768 -0.05266511 -0.02339770
v 0.02832159 -0.05114268 -0.02964238
v 0.02684203 -0.05114268 0.03097438
v 0.02695332 -0.05297850 0.03089412
v 0.03344768 -0.05297850 -0.02338967
v 0.02828886 -0.05297850 -0.02966646
v 0.02822994 -0.05297850 -0.02973067
v 0.02805972 -0.05297850 -0.02989923
v 0.02805318 -0.05114268 -0.02989923
v 0.01894012 -0.05114268 0.03636022
v 0.01886811 -0.05297850 0.03640035
v 0.02758836 -0.05297850 -0.03032464
v 0.02783059 -0.05114268 -0.03010792
v 0.01870444 -0.05114268 0.03646456
v 0.01178455 -0.05114268 0.03905715
v 0.00974851 -0.05114268 0.03981968
v 0.00970923 -0.05297850 0.03982770
v 0.02285507 -0.05297850 -0.03392858
v 0.02354248 -0.05114268 -0.03348711
v 0.02747052 -0.05114268 -0.03042898
v 0.00949974 -0.05114268 0.03985981
v 0.00000698 -0.05114268 0.04099959
v 0.00000698 -0.05297850 0.04099156
v 0.02003343 -0.05297850 -0.03576666
v 0.02022328 -0.05114268 -0.03564626
v -0.00949888 -0.05114268 0.03985178
v -0.00970183 -0.05297850 0.03982770
v 0.01981084 -0.05297850 -0.03589508
v 0.01980429 -0.05114268 -0.03590311
v 0.01996796 -0.05114268 -0.03580679
v 0.02007271 -0.05114268 -0.03574258
v -0.00973456 -0.05114268 0.03981968
v -0.01846135 -0.05114268 0.03655286
v -0.01885416 -0.05297850 0.03640035
v 0.01081563 -0.05297850 -0.03952310
v 0.01087455 -0.05114268 -0.03950705
v -0.01869049 -0.05114268 0.03646456
v -0.01892617 -0.05114268 0.03636022
v -0.02693937 -0.05297850 0.03089412
v 0.01068470 -0.05297850 -0.03957126
v 0.01078944 -0.05114268 -0.03953915
v -0.02663167 -0.05114268 0.03111083
v -0.02682807 -0.05114268 0.03097438
v -0.02702448 -0.05114268 0.03081385
v -0.02698520 -0.05297850 0.03084596
v 0.01067160 -0.05114268 -0.03957929
v 0.01062578 -0.05297850 -0.03958731
v -0.02707030 -0.05114268 0.03076569
v -0.03342063 -0.05297850 0.02371032
v 0.01005621 -0.05297850 -0.03973179
v 0.00997110 -0.05114268 -0.03974784
v -0.03342063 -0.05114268 0.02371032
v -0.03342063 -0.05297850 -0.02339770
v 0.00057654 -0.05297850 -0.04095183
v 0.00070748 -0.05114268 -0.04094381
v 0.00786960 -0.05114268 -0.04002075
v -0.03342063 -0.05114268 -0.02340572
v -0.03342063 -0.05123487 -0.02340572
v -0.02941403 -0.05114268 -0.02828588
v -0.02821598 -0.05297850 -0.02973067
v 0.00000698 -0.05297850 -0.04099999
v 0.00000698 -0.05114268 -0.04099999
v -0.02824872 -0.05114268 -0.02969856
v -0.02718815 -0.05297850 -0.03075005
v -0.01004226 -0.05297850 -0.03973179
v -0.00996369 -0.05114268 -0.03974784
v -0.02698520 -0.05114268 -0.03095071
v -0.02236975 -0.05297850 -0.03420148
v -0.01061182 -0.05297850 -0.03958731
v -0.01065765 -0.05114268 -0.03957929
v -0.01023211 -0.05114268 -0.03968363
v -0.02294586 -0.05114268 -0.03382423
v -0.02001947 -0.05297850 -0.03576666
v -0.01086060 -0.05114268 -0.03949902
v -0.01935825 -0.05297850 -0.03609575
v -0.02117170 -0.05114268 -0.03500414
v -0.02005875 -0.05114268 -0.03574258
v -0.01989509 -0.05114268 -0.03583890
v -0.01979689 -0.05297850 -0.03589508
v -0.01919459 -0.05114268 -0.03616799
v -0.01935825 -0.05114268 -0.03609575
v -0.01979034 -0.05114268 -0.03589508
f 1208 1209 1210
f 1208 1210 1213
f 1208 1213 1218
f 1208 1218 1214
f 1208 1214 1211
f 1208 1211 1215
f 1208 1215 1222
f 1208 1222 1226
f 1208 1226 1233
f 1208 1233 1232
f 1208 1232 1238
f 1208 1238 1244
f 1208 1244 1243
f 1208 1243 1242
f 1208 1242 1249
f 1208 1249 1254
f 1208 1254 1259
f 1208 1259 1264
f 1208 1264 1269
f 1208 1269 1268
f 1208 1268 1275
f 1208 1275 1279
f 1208 1279 1284
f 1208 1284 1283
f 1208 1283 1287
f 1208 1287 1293
f 1208 1293 1294
f 1208 1294 1295
f 1208 1295 1291
f 1208 1291 1290
f 1208 1290 1289
f 1208 1289 1285
f 1208 1285 1280
f 1208 1280 1276
f 1208 1276 1272
f 1208 1272 1270
f 1208 1270 1265
f 1208 1265 1261
f 1208 1261 1257
f 1208 1257 1256
f 1208 1256 1255
f 1208 1255 1251
f 1208 1251 1250
f 1208 1250 1246
f 1208 1246 1245
f 1208 1245 1239
f 1208 1239 1235
f 1208 1235 1234
f 1208 1234 1229
f 1208 1229 1228
f 1208 1228 1227
f 1208 1227 1223
f 1208 1223 1216
f 1208 1216 1212
f 1208 1212 1209
f 1209 1212 1210
f 1210 1212 1213
f 1211 1214 1215
f 1212 1216 1217
f 1212 1217 1213
f 1213 1217 1224
f 1213 1224 1230
f 1213 1230 1236
f 1213 1236 1240
f 1213 1240 1247
f 1213 1247 1252
f 1213 1252 1258
f 1213 1258 1262
f 1213 1262 1266
f 1213 1266 1273
f 1213 1273 1277
f 1213 1277 1281
f 1213 1281 1286
f 1213 1286 1292
f 1213 1292 1288
f 1213 1288 1282
f 1213 1282 1278
f 1213 1278 1274
f 1213 1274 1267
f 1213 1267 1263
f 1213 1263 1260
f 1213 1260 1253
f 1213 1253 1248
f 1213 1248 1241
f 1213 1241 1237
f 1213 1237 1231
f 1213 1231 1225
f 1213 1225 1221
f 1213 1221 1220
f 1213 1220 1219
f 1213 1219 1218
f 1214 1218 1219
f 1214 1219 1215
f 1215 1219 1220
f 1215 1220 1221
f 1215 1221 1222
f 1216 1223 1217
f 1217 1223 1224
f 1221 1225 1226
f 1221 1226 1222
f 1223 1227 1224
f 1224 1227 1228
f 1224 1228 1229
f 1224 1229 1230
f 1225 1231 1232
f 1225 1232 1233
f 1225 1233 1226
f 1229 1234 1230
f 1230 1234 1235
f 1230 1235 1236
f 1231 1237 1232
f 1232 1237 1238
f 1235 1239 1240
f 1235 1240 1236
f 1237 1241 1242
f 1237 1242 1243
f 1237 1243 1244
f 1237 1244 1238
f 1239 1245 1240
f 1240 1245 1246
f 1240 1246 1247
f 1241 1248 1249
f 1241 1249 1242
f 1246 1250 1247
f 1247 1250 1251
f 1247 1251 1252
f 1248 1253 1254
f 1248 1254 1249
f 1251 1255 1252
f 1252 1256 1257
f 1252 1257 1261
f 1252 1261 1258
f 1252 1255 1256
f 1253 1259 1254
f 1253 1260 1259
f 1258 1261 1262
f 1259 1260 1263
f 1259 1263 1264
f 1261 1265 1262
f 1262 1265 1270
f 1262 1270 1271
f 1262 1271 1266
f 1263 1267 1268
f 1263 1268 1269
f 1263 1269 1264
f 1266 1271 1272
f 1266 1272 1273
f 1267 1274 1268
f 1268 1274 1275
f 1270 1272 1271
f 1272 1276 1273
f 1273 1276 1277
f 1274 1278 1279
f 1274 1279 1275
f 1276 1280 1277
f 1277 1280 1281
f 1278 1282 1283
f 1278 1283 1284
f 1278 1284 1279
f 1280 1285 1281
f 1281 1285 1286
f 1282 1287 1283
f 1282 1288 1287
f 1285 1289 1286
f 1286 1290 1291
f 1286 1291 1292
f 1286 1289 1290
f 1287 1288 1293
f 1288 1292 1294
f 1288 1294 1293
f 1291 1295 1292
f 1292 1295 1294

o geometry_19
v -0.02277226 0.01587345 -0.04199934
v -0.02277226 0.01610828 -0.03900056
v -0.02277226 0.01751476 -0.04199934
v -0.01335339 0.02531839 -0.04199964
v -0.01493635 0.02368079 -0.04199934
v -0.01269752 0.02549883 -0.03962439
v -0.01269654 0.02549883 -0.03900056
v -0.02277226 0.01757161 -0.03900056
v -0.02277226 0.01760375 -0.04107490
v -0.02256908 0.01788430 -0.04199934
v -0.01405364 0.02570523 -0.04199934
v -0.01270048 0.02761226 -0.04198761
v -0.01269752 0.02828584 -0.04161595
v -0.01269752 0.02849842 -0.04099946
v -0.01269752 0.02774080 -0.03962439
v -0.01269752 0.02556186 -0.03900056
v -0.02211836 0.01843058 -0.03900056
v -0.01414734 0.02849842 -0.03900056
v -0.01349739 0.02828584 -0.04161595
v -0.01350035 0.02761103 -0.04198848
v -0.01349739 0.02849842 -0.04087909
v -0.01277248 0.02849842 -0.03900056
v -0.01276360 0.02836865 -0.03900056
f 1296 1297 1303
f 1296 1303 1304
f 1296 1304 1298
f 1296 1298 1299
f 1296 1299 1300
f 1296 1300 1301
f 1296 1301 1302
f 1296 1302 1297
f 1297 1302 1311
f 1297 1311 1318
f 1297 1318 1317
f 1297 1317 1313
f 1297 1313 1312
f 1297 1312 1303
f 1298 1304 1305
f 1298 1305 1299
f 1299 1305 1306
f 1299 1306 1307
f 1299 1307 1301
f 1299 1301 1300
f 1301 1307 1308
f 1301 1308 1302
f 1302 1308 1309
f 1302 1309 1310
f 1302 1310 1311
f 1303 1312 1304
f 1304 1312 1305
f 1305 1312 1313
f 1305 1313 1314
f 1305 1314 1315
f 1305 1315 1306
f 1306 1315 1307
f 1307 1315 1308
f 1308 1315 1314
f 1308 1314 1309
f 1309 1314 1316
f 1309 1316 1313
f 1309 1313 1317
f 1309 1317 1318
f 1309 1318 1310
f 1310 1318 1311
f 1313 1316 1314

o geometry_20
v 0.02763011 0.00791981 -0.03592537
v 0.02683073 0.00791981 -0.03592537
v 0.02774473 0.00748478 -0.03592537
v 0.02762645 0.00791981 -0.03730845
v 0.02680979 0.00791981 -0.03670789
v 0.02540606 -0.01375933 -0.03592537
v 0.02778494 0.00733199 -0.03592537
v 0.02762546 0.00791981 -0.03765512
v 0.02666892 0.00791981 -0.04200000
v 0.02540506 -0.01375933 -0.04200000
v 0.02620245 -0.01375933 -0.03592537
v 0.02876240 0.00098274 -0.03592537
v 0.02879928 -0.00016955 -0.04200000
v 0.02746797 0.00791981 -0.04200000
v 0.02620511 -0.01375933 -0.04200000
v 0.02620511 -0.01375933 -0.03954779
v 0.02711413 -0.00970829 -0.03592537
v 0.02876539 -0.00109902 -0.03592537
v 0.02848365 -0.00323595 -0.03592537
v 0.02711413 -0.00970829 -0.04200000
f 1319 1320 1324
f 1319 1324 1329
f 1319 1329 1335
f 1319 1335 1337
f 1319 1337 1336
f 1319 1336 1330
f 1319 1330 1325
f 1319 1325 1321
f 1319 1321 1322
f 1319 1322 1326
f 1319 1326 1332
f 1319 1332 1327
f 1319 1327 1323
f 1319 1323 1320
f 1320 1323 1324
f 1321 1325 1322
f 1322 1325 1326
f 1323 1327 1324
f 1324 1328 1333
f 1324 1333 1334
f 1324 1334 1329
f 1324 1327 1328
f 1325 1330 1331
f 1325 1331 1332
f 1325 1332 1326
f 1327 1332 1331
f 1327 1331 1338
f 1327 1338 1333
f 1327 1333 1328
f 1329 1334 1335
f 1330 1336 1331
f 1331 1336 1337
f 1331 1337 1338
f 1333 1338 1335
f 1333 1335 1334
f 1335 1338 1337

o geometry_21
v 0.01247869 0.03539134 -0.03113456
v 0.01496239 0.03473004 -0.03113456
v 0.01247869 0.03277732 -0.03574195
v 0.01247869 0.01862910 -0.03113456
v 0.01994318 0.03287249 -0.03113456
v 0.02053119 0.03236544 -0.03159827
v 0.01267023 0.03259189 -0.03594084
v 0.01249446 0.03273958 -0.03580045
v 0.01247869 0.03275599 -0.03577705
v 0.01247869 0.01862910 -0.03896245
v 0.02053119 0.01862910 -0.03113456
v 0.02053119 0.03263292 -0.03113456
v 0.02053119 0.03001069 -0.03510806
v 0.01349629 0.02828770 -0.04161606
v 0.01247869 0.03274614 -0.03579300
v 0.01251574 0.01862910 -0.03903583
v 0.01247869 0.02849938 -0.03891777
v 0.01269939 0.02762147 -0.04198724
v 0.02053119 0.01862910 -0.03546542
v 0.02053119 0.01972033 -0.04199894
v 0.01349944 0.02762147 -0.04198724
v 0.01269624 0.02828770 -0.04161606
v 0.01247869 0.03273630 -0.03580045
v 0.02053119 0.01866028 -0.04199894
v 0.01281605 0.01862910 -0.03893692
v 0.01335283 0.02532087 -0.04199894
v 0.01493638 0.02368485 -0.04199894
v 0.01405356 0.02570813 -0.04199894
v 0.01939142 0.01862910 -0.03612271
v 0.01443979 0.01862910 -0.03835302
v 0.01440590 0.01862910 -0.03836791
v 0.01368704 0.01862910 -0.03863487
v 0.01317469 0.01862910 -0.03881461
f 1339 1340 1341
f 1339 1341 1347
f 1339 1347 1353
f 1339 1353 1361
f 1339 1361 1355
f 1339 1355 1348
f 1339 1348 1342
f 1339 1342 1349
f 1339 1349 1350
f 1339 1350 1343
f 1339 1343 1340
f 1340 1343 1344
f 1340 1344 1345
f 1340 1345 1346
f 1340 1346 1341
f 1341 1346 1347
f 1342 1348 1354
f 1342 1354 1363
f 1342 1363 1371
f 1342 1371 1370
f 1342 1370 1369
f 1342 1369 1368
f 1342 1368 1367
f 1342 1367 1357
f 1342 1357 1349
f 1343 1350 1344
f 1344 1350 1349
f 1344 1349 1357
f 1344 1357 1362
f 1344 1362 1358
f 1344 1358 1351
f 1344 1351 1345
f 1345 1351 1352
f 1345 1352 1346
f 1346 1353 1347
f 1346 1352 1353
f 1348 1355 1356
f 1348 1356 1354
f 1351 1358 1352
f 1352 1358 1359
f 1352 1359 1356
f 1352 1356 1360
f 1352 1360 1353
f 1353 1360 1361
f 1354 1362 1363
f 1354 1356 1364
f 1354 1364 1365
f 1354 1365 1362
f 1355 1361 1360
f 1355 1360 1356
f 1356 1359 1366
f 1356 1366 1364
f 1357 1367 1362
f 1358 1366 1359
f 1358 1362 1365
f 1358 1365 1364
f 1358 1364 1366
f 1362 1367 1368
f 1362 1368 1369
f 1362 1369 1370
f 1362 1370 1371
f 1362 1371 1363

o geometry_22
v 0.00949330 0.03599968 -0.03113552
v 0.01128011 0.03571402 -0.03113552
v 0.00629626 0.03387257 -0.03580075
v 0.00566620 0.03599798 -0.03216108
v -0.00000185 0.03599798 -0.03265744
v -0.00566744 0.03599798 -0.03216108
v -0.00949454 0.03599798 -0.03113552
v 0.01247869 0.03539266 -0.03113552
v 0.01247869 0.03277755 -0.03574184
v 0.01247869 0.03274694 -0.03579206
v 0.00642424 0.02849952 -0.04049205
v -0.00000185 0.02849952 -0.04099903
v -0.00000185 0.03423474 -0.03580075
v 0.00000800 0.03516312 -0.03425469
v -0.00629749 0.03387087 -0.03580075
v -0.01128134 0.03571232 -0.03113552
v 0.01247869 0.01863080 -0.03113552
v 0.01247869 0.03273674 -0.03580075
v 0.01247869 0.02849952 -0.03891702
v 0.01247869 0.01863080 -0.03896240
v 0.00686479 0.01863080 -0.04040030
v 0.00571542 0.01863080 -0.04054806
v 0.00564651 0.01863080 -0.04055385
v 0.00072173 0.01863080 -0.04094206
v -0.00000185 0.01863080 -0.04099903
v -0.00642301 0.02849952 -0.04049205
v -0.01266451 0.03260072 -0.03592532
v -0.01249469 0.03273674 -0.03580075
v -0.01266451 0.03521753 -0.03113552
v -0.01266451 0.01863080 -0.03113552
v -0.00686356 0.01863080 -0.04040030
v -0.01266451 0.02521448 -0.03899041
v -0.01266451 0.02551544 -0.03898944
v -0.01266451 0.02849952 -0.03889963
v -0.01266451 0.01863080 -0.03897496
v -0.01199016 0.01863080 -0.03916230
v -0.01266451 0.02455305 -0.03899137
v -0.01266451 0.02429290 -0.03899137
v -0.01251192 0.01863080 -0.03903579
f 1372 1373 1374
f 1372 1374 1375
f 1372 1375 1376
f 1372 1376 1377
f 1372 1377 1378
f 1372 1378 1387
f 1372 1387 1400
f 1372 1400 1401
f 1372 1401 1388
f 1372 1388 1379
f 1372 1379 1373
f 1373 1379 1380
f 1373 1380 1374
f 1374 1380 1381
f 1374 1381 1382
f 1374 1382 1383
f 1374 1383 1384
f 1374 1384 1385
f 1374 1385 1375
f 1375 1385 1376
f 1376 1385 1377
f 1377 1385 1386
f 1377 1386 1378
f 1378 1386 1387
f 1379 1388 1391
f 1379 1391 1390
f 1379 1390 1389
f 1379 1389 1381
f 1379 1381 1380
f 1381 1389 1382
f 1382 1389 1390
f 1382 1390 1391
f 1382 1391 1392
f 1382 1392 1393
f 1382 1393 1394
f 1382 1394 1383
f 1383 1394 1395
f 1383 1395 1396
f 1383 1396 1397
f 1383 1397 1386
f 1383 1386 1384
f 1384 1386 1385
f 1386 1397 1398
f 1386 1398 1399
f 1386 1399 1387
f 1387 1399 1400
f 1388 1401 1406
f 1388 1406 1410
f 1388 1410 1407
f 1388 1407 1402
f 1388 1402 1396
f 1388 1396 1395
f 1388 1395 1394
f 1388 1394 1393
f 1388 1393 1392
f 1388 1392 1391
f 1396 1402 1397
f 1397 1402 1403
f 1397 1403 1404
f 1397 1404 1405
f 1397 1405 1398
f 1398 1400 1399
f 1398 1405 1404
f 1398 1404 1403
f 1398 1403 1408
f 1398 1408 1409
f 1398 1409 1406
f 1398 1406 1401
f 1398 1401 1400
f 1402 1407 1408
f 1402 1408 1403
f 1406 1409 1410
f 1407 1410 1408
f 1408 1410 1409

o geometry_23
v -0.02277127 0.01585461 -0.03407352
v -0.02277127 0.01585461 -0.03395726
v -0.02277127 0.01610861 -0.03900056
v -0.02150087 0.01585461 -0.03490586
v -0.02276929 0.01585461 -0.03113532
v -0.02277127 0.01586220 -0.03113532
v -0.01266451 0.01585461 -0.03896745
v -0.01454735 0.01585461 -0.03827909
v -0.01509449 0.01585461 -0.03807813
v -0.01517958 0.01585461 -0.03804657
v -0.01906793 0.01585461 -0.03626794
v -0.01940532 0.01585461 -0.03611318
v -0.02277127 0.01757192 -0.03900056
v -0.01269716 0.02550073 -0.03900056
v -0.01266451 0.01585461 -0.03113532
v -0.02277127 0.03170086 -0.03113532
v -0.01266451 0.02429331 -0.03899132
v -0.02211826 0.01843058 -0.03900056
v -0.02277127 0.02999872 -0.03399961
v -0.01269716 0.02556139 -0.03900056
v -0.01266451 0.03521699 -0.03113532
v -0.02258328 0.03179564 -0.03113532
v -0.02277127 0.03130092 -0.03185602
v -0.01266451 0.02455299 -0.03899132
v -0.01414664 0.02849939 -0.03900056
v -0.02277127 0.03006506 -0.03392492
v -0.01289406 0.03002715 -0.03888737
v -0.01266451 0.02551590 -0.03898978
v -0.01266451 0.02521452 -0.03899055
v -0.01276444 0.02836860 -0.03900056
v -0.01266451 0.03260122 -0.03592530
v -0.01994454 0.03286849 -0.03113532
v -0.02277127 0.03042521 -0.03336438
v -0.01277335 0.02849939 -0.03900056
v -0.02277127 0.03012003 -0.03385639
v -0.01269716 0.03143739 -0.03738978
v -0.01269716 0.03026219 -0.03870643
v -0.01266451 0.02849939 -0.03889969
v -0.01266550 0.03259933 -0.03592761
f 1411 1412 1416
f 1411 1416 1426
f 1411 1426 1433
f 1411 1433 1443
f 1411 1443 1445
f 1411 1445 1436
f 1411 1436 1429
f 1411 1429 1423
f 1411 1423 1413
f 1411 1413 1414
f 1411 1414 1422
f 1411 1422 1421
f 1411 1421 1420
f 1411 1420 1419
f 1411 1419 1418
f 1411 1418 1417
f 1411 1417 1425
f 1411 1425 1415
f 1411 1415 1412
f 1412 1415 1416
f 1413 1417 1418
f 1413 1418 1419
f 1413 1419 1420
f 1413 1420 1421
f 1413 1421 1422
f 1413 1422 1414
f 1413 1423 1428
f 1413 1428 1435
f 1413 1435 1444
f 1413 1444 1440
f 1413 1440 1430
f 1413 1430 1424
f 1413 1424 1417
f 1415 1425 1431
f 1415 1431 1442
f 1415 1442 1432
f 1415 1432 1426
f 1415 1426 1416
f 1417 1427 1434
f 1417 1434 1439
f 1417 1439 1438
f 1417 1438 1448
f 1417 1448 1441
f 1417 1441 1431
f 1417 1431 1425
f 1417 1424 1427
f 1423 1429 1428
f 1424 1430 1434
f 1424 1434 1427
f 1426 1432 1433
f 1428 1429 1435
f 1429 1436 1437
f 1429 1437 1435
f 1430 1438 1439
f 1430 1439 1434
f 1430 1440 1438
f 1431 1441 1442
f 1432 1442 1433
f 1433 1442 1443
f 1435 1437 1444
f 1436 1445 1446
f 1436 1446 1437
f 1437 1446 1447
f 1437 1447 1444
f 1438 1440 1448
f 1440 1444 1448
f 1441 1448 1447
f 1441 1447 1446
f 1441 1446 1449
f 1441 1449 1445
f 1441 1445 1442
f 1442 1445 1443
f 1444 1447 1448
f 1445 1449 1446

o geometry_24
v 0.02053119 0.01865912 -0.04200000
v 0.02053119 0.01865912 -0.04148863
v 0.02053119 0.01971834 -0.04200000
v 0.02666864 0.00792110 -0.04200000
v 0.02053119 0.01897779 -0.03600505
v 0.02670408 0.00792110 -0.04065973
v 0.02683055 0.00792110 -0.03592537
v 0.02053119 0.02109882 -0.03592537
v 0.02257145 0.01788761 -0.04200000
v 0.02746779 0.00792110 -0.04200000
v 0.02053119 0.01898682 -0.03592537
v 0.02762970 0.00792110 -0.03592537
v 0.02244706 0.01825014 -0.03592537
v 0.02390151 0.01604396 -0.03592537
v 0.02722526 0.00939189 -0.04200000
v 0.02762553 0.00792110 -0.03765512
v 0.02730031 0.00916998 -0.03592537
v 0.02636010 0.01150517 -0.03592537
f 1450 1451 1454
f 1450 1454 1460
f 1450 1460 1457
f 1450 1457 1452
f 1450 1452 1458
f 1450 1458 1464
f 1450 1464 1459
f 1450 1459 1453
f 1450 1453 1451
f 1451 1453 1455
f 1451 1455 1456
f 1451 1456 1454
f 1452 1457 1458
f 1453 1459 1465
f 1453 1465 1461
f 1453 1461 1456
f 1453 1456 1455
f 1454 1456 1460
f 1456 1461 1466
f 1456 1466 1467
f 1456 1467 1463
f 1456 1463 1462
f 1456 1462 1457
f 1456 1457 1460
f 1457 1462 1458
f 1458 1462 1463
f 1458 1463 1464
f 1459 1464 1465
f 1461 1465 1466
f 1463 1467 1464
f 1464 1467 1466
f 1464 1466 1465

