# https://github.com/mikedh/trimesh
v 0.04611621 0.01113239 -0.00063980
v 0.04629802 -0.00560567 -0.00042002
v 0.04583304 -0.00340149 0.01827986
v 0.04599500 0.00751949 -0.01260891
v 0.04574109 0.01734215 0.00812649
v 0.04557756 -0.00247240 -0.02176451
v 0.04478395 0.02593355 -0.01500043
v 0.04477141 0.01857622 0.02367561
v 0.04479650 0.01181849 0.02760861
v 0.04526670 -0.02592224 0.00141206
v 0.04559715 -0.01635083 -0.01442163
v 0.04477142 0.00733848 -0.02916793
v 0.04477977 0.02933882 -0.00666462
v 0.04478395 0.02447038 0.01734504
v 0.04483620 0.00161731 0.02964292
v 0.04477977 -0.01858377 0.02367561
v 0.04477559 -0.02593355 -0.01500043
v 0.04478395 0.02887875 0.00814223
v 0.04479649 -0.01013094 0.02809781
v 0.04478814 -0.01544248 -0.02564301
v 0.04475470 0.00044498 -0.03010759
v 0.04478814 0.01467695 -0.02625209
v 0.04479650 -0.02938407 0.00626776
v 0.03958790 0.03613238 -0.00251124
v 0.03405486 0.00312243 0.05213654
v 0.03354494 -0.00450641 0.05210748
v 0.04451019 -0.02998862 -0.00412325
v 0.03896487 0.02147617 -0.02984603
v 0.03927508 0.02952737 -0.02128605
v 0.02626821 0.00058451 0.06000253
v 0.04337542 -0.02634743 0.01750367
v 0.03894502 0.03427890 -0.01360064
v 0.03955629 -0.00092014 -0.03604462
v 0.03885307 0.02835080 0.02364655
v 0.03303503 0.00588285 0.05207841
v 0.03937134 0.02439496 0.02705160
v 0.02355563 0.00402749 0.06002190
v 0.02526092 -0.00299422 0.05995410
v 0.03937552 -0.02464385 0.02680942
v 0.03948419 -0.03627756 0.00262538
v 0.03749678 0.02772763 -0.02451687
v 0.03890322 0.03522921 0.01098541
v 0.03888232 0.00979343 -0.03553241
v 0.03939015 0.03204267 0.01728571
v 0.03863050 -0.02962919 0.02199610
v 0.03844346 -0.03573076 0.00951781
v 0.03773606 -0.03684322 -0.00337098
v 0.03743199 0.03238583 -0.01810033
v 0.03742990 0.03702800 -0.00063920
v 0.03773293 0.03625588 -0.00750801
v 0.03897741 -0.02370015 -0.02816046
v 0.03944292 -0.01167095 -0.03434815
v 0.03772875 0.00424621 -0.03678690
v 0.03781234 0.01711871 -0.03284906
v 0.02951787 0.00968596 0.05217529
v 0.02241877 -0.00391247 0.06012846
v 0.02951787 -0.00968973 0.05217529
v 0.03742363 -0.03694127 0.00311943
v 0.03894502 -0.03428644 -0.01360064
v 0.03935149 -0.03014582 -0.02041799
v -0.03010241 0.03032495 -0.02358570
v 0.03746177 -0.00286223 -0.03695400
v 0.03743199 0.02266782 -0.02932293
v 0.01884101 0.00000000 0.06043845
v 0.03742363 -0.03599096 -0.00898470
v -0.03847525 0.03125640 -0.02195341
v -0.03370420 0.03427230 -0.01746461
v -0.03352970 0.03852511 -0.00030983
v 0.03769949 0.03644349 0.00680055
v -0.03010241 0.01679629 -0.03464118
v -0.03757558 0.01960949 -0.03312030
v 0.02595892 0.01180341 0.05213654
v 0.00452997 0.01676234 0.05220919
v -0.00367045 0.01685662 0.05228185
v -0.03477941 0.01193916 0.05218497
v -0.00367045 -0.01685662 0.05228185
v 0.00452997 -0.01676234 0.05220919
v -0.03477941 -0.01193916 0.05218497
v 0.02568724 -0.01184866 0.05218497
v -0.02984745 -0.03831299 0.00361832
v -0.03755886 -0.03819326 -0.00484343
v 0.03742363 -0.03292887 -0.01702748
v -0.03010241 0.03636807 -0.01268520
v -0.03010241 0.02454769 -0.02961233
v -0.03845330 0.02352385 -0.03018508
v -0.02996448 0.03786235 0.00654990
v -0.03010241 0.03766720 -0.00781982
v 0.03768277 -0.02049192 -0.03083655
v 0.03795027 -0.01467695 -0.03406964
v 0.03795862 -0.00881673 -0.03602645
v -0.03010241 -0.00390681 -0.03831263
v -0.03361120 0.00548406 -0.03808558
v -0.03010241 0.01073997 -0.03696369
v 0.03742363 0.03338893 0.01612930
v 0.00023332 0.01746753 0.05157468
v -0.03805624 0.03208415 0.02103102
v 0.03742363 -0.03381129 0.01517512
v 0.00023332 -0.01746753 0.05157468
v -0.03801862 -0.03231418 0.02076462
v -0.03185890 -0.03647201 -0.01212380
v 0.03755529 -0.02969141 -0.02217379
v -0.03837807 0.03816309 -0.00356472
v -0.03842822 0.03719016 0.00905767
v 0.03742363 -0.02579780 -0.02660809
v -0.03010241 0.03516887 0.01569338
v -0.03748363 -0.03719770 0.00998763
v -0.03010241 -0.03488227 0.01633274
v -0.03843449 -0.03819514 0.00208048
v -0.03364673 -0.03414880 -0.01771648
v -0.03368017 -0.03155620 -0.02205754
v -0.03841151 0.03620968 -0.01252536
v -0.03193570 -0.02195415 -0.03154492
v -0.03695700 -0.02780400 -0.02663958
v -0.03010241 -0.01680383 -0.03464118
v -0.03010241 -0.01183829 -0.03659678
v -0.03843240 -0.00736110 -0.03750859
v -0.03847420 0.00688406 -0.03729789
v -0.03782636 0.01191088 0.05002715
v -0.03847838 -0.01184866 0.04924007
v -0.03843658 -0.03427513 -0.01648257
v -0.03765500 -0.01476934 -0.03540405
v -0.03903845 0.02982906 0.02121507
v -0.03901755 -0.03645669 0.00165182
v -0.03903009 0.01515210 -0.03358528
v -0.03903845 0.03668483 0.00360379
v -0.03845330 -0.02353139 -0.03018508
v -0.03892560 0.01075505 0.04741646
v -0.03897158 -0.01075882 0.04717186
v -0.03903009 -0.01515965 -0.03358528
v -0.02831291 -0.00048947 0.05280912
v -0.02812423 -0.00149610 0.05280912
v -0.02766034 -0.00098146 0.05500621
v -0.02768077 -0.00048947 0.05503384
v -0.02831291 0.00048947 0.05280912
v -0.02621461 -0.00146841 0.05941010
v -0.02787546 -0.00213404 0.05280912
v -0.02580481 -0.00213530 0.06000829
v -0.02643454 -0.00048947 0.05941010
v -0.02768077 0.00048947 0.05503384
v -0.02766034 0.00098146 0.05500621
v -0.02812423 0.00148226 0.05280912
v -0.02593820 -0.00146841 0.06011285
v -0.02761347 -0.00266378 0.05280912
v -0.02675901 -0.00305511 0.05508985
v -0.02554883 -0.00273802 0.05941010
v -0.02493232 -0.00313186 0.06004862
v -0.02523998 -0.00245491 0.06016213
v -0.02604516 -0.00048947 0.06016587
v -0.02643454 0.00048947 0.05941010
v -0.02621701 0.00146842 0.05941010
v -0.02580601 0.00213405 0.06000904
v -0.02675901 0.00305511 0.05508985
v -0.02766515 0.00244736 0.05280912
v -0.02521233 -0.00146841 0.06038244
v -0.02713637 -0.00341120 0.05280912
v -0.02676983 -0.00398372 0.05280912
v -0.02505971 -0.00325266 0.05941010
v -0.02446123 -0.00374213 0.05941010
v -0.02387957 -0.00398498 0.05998066
v -0.02421727 -0.00344517 0.06014571
v -0.02423289 -0.00244736 0.06041531
v -0.02521233 -0.00048947 0.06043547
v -0.02604516 0.00048947 0.06016587
v -0.02593940 0.00146842 0.06011360
v -0.02523998 0.00245491 0.06016288
v -0.02493112 0.00313186 0.06004862
v -0.02554763 0.00273676 0.05941010
v -0.02585288 0.00405922 0.05512570
v -0.02644055 0.00362511 0.05451556
v -0.02713637 0.00341120 0.05280912
v -0.02574111 -0.00496266 0.05280912
v -0.02585288 -0.00405921 0.05512570
v -0.02480734 -0.00494504 0.05506446
v -0.02325465 -0.00428822 0.05941010
v -0.02325465 -0.00408438 0.06007402
v -0.02364643 -0.00601458 0.05280912
v -0.02310683 -0.00621591 0.05280912
v -0.02248191 -0.00642604 0.05280912
v -0.02325465 -0.00342630 0.06034361
v -0.02325465 -0.00244736 0.06043845
v -0.02423289 -0.00146841 0.06043845
v -0.02227521 -0.00342630 0.06040485
v -0.02521233 0.00048947 0.06043547
v -0.02521233 0.00146842 0.06038319
v -0.02423289 0.00244736 0.06041531
v -0.02421607 0.00344517 0.06014571
v -0.02505851 0.00325140 0.05941010
v -0.02387837 0.00398498 0.05998066
v -0.02445883 0.00374087 0.05941010
v -0.02480734 0.00494505 0.05506446
v -0.02518349 0.00533763 0.05280912
v -0.02595142 0.00415359 0.05451556
v -0.02620500 0.00441405 0.05280912
v -0.02518349 -0.00533763 0.05280912
v -0.02227521 -0.00445432 0.05941010
v -0.02227521 -0.00416239 0.06013525
v -0.02236053 -0.00642730 0.05280912
v -0.02031872 -0.00244736 0.06043845
v -0.02423289 0.00146842 0.06043845
v -0.02129696 -0.00342630 0.06038991
v -0.02325465 0.00244736 0.06043845
v -0.02227521 0.00342630 0.06040485
v -0.02325465 0.00342630 0.06034286
v -0.02325465 0.00408438 0.06007402
v -0.02325465 0.00428822 0.05941010
v -0.02236053 0.00642730 0.05280912
v -0.02325465 0.00612783 0.05280912
v -0.02129696 -0.00440776 0.05941010
v -0.02129696 -0.00414100 0.06012031
v -0.02132100 -0.00630399 0.05280912
v -0.01933928 -0.00244736 0.06036004
v -0.01933928 -0.00146841 0.06043845
v -0.02031872 -0.00342630 0.06027415
v -0.02031872 0.00244736 0.06043845
v -0.02129696 0.00342630 0.06038991
v -0.02227521 0.00416240 0.06013525
v -0.02227521 0.00445180 0.05941010
v -0.02223795 0.00642604 0.05280912
v -0.02031872 -0.00401517 0.06000530
v -0.01848001 -0.00526339 0.05280912
v -0.01981759 -0.00392206 0.05990822
v -0.01943062 -0.00337597 0.06005758
v -0.01877325 -0.00301736 0.05997469
v -0.01857495 -0.00244736 0.06009044
v -0.01828413 -0.00152000 0.06017184
v -0.01835984 -0.00048947 0.06033241
v -0.01933928 0.00146842 0.06043845
v -0.01933928 0.00244736 0.06035929
v -0.02031872 0.00342630 0.06027266
v -0.02129696 0.00413975 0.06012031
v -0.02129696 0.00440650 0.05941010
v -0.02131379 0.00630399 0.05280912
v -0.01745851 -0.00432849 0.05280912
v -0.01784788 -0.00393968 0.05502936
v -0.01790797 -0.00187484 0.05941010
v -0.01779140 -0.00122808 0.05999485
v -0.01677109 -0.00342630 0.05280912
v -0.01772891 -0.00048947 0.06006356
v -0.01835984 0.00048947 0.06033166
v -0.01857736 0.00244736 0.06008970
v -0.01877445 0.00301610 0.05997394
v -0.01943182 0.00337597 0.06005609
v -0.01828533 0.00151749 0.06017110
v -0.02031872 0.00401392 0.06000306
v -0.02065762 0.00609637 0.05280912
v -0.01981999 0.00392081 0.05990673
v -0.01628077 -0.00252789 0.05280912
v -0.01646945 -0.00146841 0.05451556
v -0.01630240 -0.00048947 0.05451556
v -0.01755345 -0.00048947 0.05941010
v -0.01772891 0.00048947 0.06006281
v -0.01779140 0.00122305 0.05999336
v -0.01658362 0.00324259 0.05280912
v -0.01687565 0.00372200 0.05280912
v -0.01784788 0.00393968 0.05502936
v -0.01843555 0.00525333 0.05280912
v -0.01791037 0.00186729 0.05941010
v -0.01849564 0.00529233 0.05280912
v -0.01607887 -0.00146841 0.05280912
v -0.01603681 -0.00119788 0.05280912
v -0.01603681 -0.00048947 0.05285766
v -0.01630240 0.00048947 0.05451556
v -0.01755465 0.00048947 0.05941010
v -0.01646945 0.00146842 0.05451556
v -0.01628438 0.00265749 0.05280912
v -0.01745851 0.00432849 0.05280912
v -0.01603681 0.00124444 0.05280912
v -0.01603681 0.00048947 0.05285766
v -0.01603681 0.00055364 0.05285467
v -0.01608609 0.00155020 0.05280912
f 1 3 2
f 1 2 4
f 1 5 3
f 4 2 6
f 5 8 3
f 3 10 2
f 1 4 7
f 2 11 6
f 4 6 12
f 3 8 9
f 4 12 7
f 10 11 2
f 7 13 1
f 5 14 8
f 3 9 15
f 3 16 10
f 15 19 3
f 10 17 11
f 5 13 18
f 13 5 1
f 11 20 6
f 6 20 21
f 6 21 12
f 12 22 7
f 5 18 14
f 10 16 23
f 3 19 16
f 11 17 20
f 15 25 26
f 10 23 27
f 17 10 27
f 22 28 7
f 13 24 18
f 15 9 25
f 23 16 31
f 25 30 26
f 15 26 19
f 14 34 8
f 8 34 36
f 8 35 25
f 8 25 9
f 25 35 30
f 30 35 37
f 30 38 26
f 19 26 16
f 16 26 39
f 27 23 40
f 7 32 13
f 7 28 29
f 7 29 32
f 24 42 18
f 24 13 32
f 33 12 21
f 22 12 43
f 22 43 28
f 18 44 14
f 8 36 35
f 29 48 32
f 42 24 49
f 32 50 24
f 12 33 43
f 42 44 18
f 14 44 34
f 35 55 37
f 35 36 55
f 16 39 31
f 31 39 45
f 23 31 46
f 30 56 38
f 38 56 57
f 38 57 26
f 26 57 39
f 40 47 27
f 40 58 47
f 17 27 59
f 47 59 27
f 29 41 48
f 29 28 41
f 24 50 49
f 51 20 17
f 52 21 20
f 52 33 21
f 33 53 43
f 28 43 54
f 28 54 63
f 55 36 34
f 30 37 64
f 57 45 39
f 59 60 17
f 47 65 59
f 60 51 17
f 41 61 48
f 48 67 32
f 49 69 42
f 51 52 20
f 52 62 33
f 33 62 53
f 54 70 71
f 54 71 63
f 28 63 41
f 34 72 55
f 37 55 72
f 37 72 73
f 37 74 75
f 37 73 74
f 31 45 46
f 23 46 40
f 30 64 56
f 56 76 77
f 56 78 76
f 56 77 79
f 56 79 57
f 57 79 45
f 47 58 80
f 47 80 81
f 47 81 65
f 59 82 60
f 32 67 83
f 61 66 67
f 48 61 67
f 41 63 84
f 41 84 61
f 61 85 66
f 61 84 85
f 49 86 69
f 49 68 86
f 50 87 68
f 50 68 49
f 51 88 52
f 52 90 62
f 62 91 53
f 53 91 92
f 43 53 93
f 54 43 70
f 63 71 84
f 44 42 94
f 44 94 34
f 34 73 72
f 73 34 94
f 73 94 95
f 73 95 74
f 64 37 75
f 74 95 96
f 74 96 75
f 64 75 78
f 64 78 56
f 76 99 98
f 77 76 98
f 78 99 76
f 77 98 97
f 77 97 45
f 79 77 45
f 40 46 58
f 80 108 81
f 65 81 100
f 60 82 101
f 60 101 51
f 32 83 50
f 50 83 87
f 68 102 103
f 86 68 103
f 87 102 68
f 51 104 88
f 52 88 89
f 52 89 90
f 90 91 62
f 53 92 93
f 43 93 70
f 71 85 84
f 94 105 95
f 95 105 96
f 46 45 97
f 97 106 46
f 97 107 106
f 98 99 107
f 98 107 97
f 65 100 59
f 59 100 82
f 82 100 109
f 82 109 101
f 83 67 111
f 83 102 87
f 67 66 111
f 88 104 112
f 104 113 112
f 88 112 114
f 88 114 89
f 90 89 115
f 91 116 117
f 91 117 92
f 93 92 117
f 42 69 86
f 42 86 105
f 42 105 94
f 96 118 75
f 46 106 80
f 46 80 58
f 78 119 99
f 101 109 110
f 101 113 104
f 110 113 101
f 101 104 51
f 111 102 83
f 112 121 114
f 114 121 115
f 114 115 89
f 90 115 91
f 115 116 91
f 93 117 70
f 70 117 71
f 86 103 105
f 75 118 78
f 118 119 78
f 106 108 80
f 107 99 106
f 108 120 81
f 120 108 123
f 120 100 81
f 100 120 109
f 109 120 110
f 102 125 103
f 113 126 112
f 115 121 116
f 117 124 71
f 71 124 85
f 118 96 122
f 66 85 124
f 124 111 66
f 102 111 125
f 125 124 129
f 112 126 121
f 117 116 129
f 96 105 103
f 96 103 122
f 118 122 127
f 99 119 123
f 119 118 127
f 119 127 128
f 106 123 108
f 110 120 113
f 113 120 126
f 124 125 111
f 124 117 129
f 125 129 122
f 103 125 122
f 106 99 123
f 122 129 123
f 129 126 120
f 116 121 129
f 128 123 119
f 123 129 120
f 122 123 128
f 126 129 121
f 127 122 128
f 130 131 132
f 130 132 133
f 130 133 139
f 130 139 134
f 130 134 141
f 130 141 153
f 130 153 170
f 130 170 193
f 130 193 191
f 130 191 207
f 130 207 206
f 130 206 218
f 130 218 232
f 130 232 245
f 130 245 258
f 130 258 256
f 130 256 266
f 130 266 254
f 130 254 253
f 130 253 265
f 130 265 270
f 130 270 267
f 130 267 260
f 130 260 259
f 130 259 247
f 130 247 237
f 130 237 233
f 130 233 220
f 130 220 210
f 130 210 197
f 130 197 178
f 130 178 177
f 130 177 176
f 130 176 194
f 130 194 171
f 130 171 156
f 130 156 155
f 130 155 143
f 130 143 136
f 130 136 131
f 131 135 132
f 131 136 137
f 131 137 135
f 132 138 133
f 132 135 138
f 133 138 149
f 133 149 139
f 134 139 140
f 134 140 141
f 135 142 138
f 135 137 142
f 136 143 137
f 137 143 144
f 137 144 145
f 137 145 146
f 137 146 147
f 137 147 142
f 138 142 148
f 138 148 163
f 138 163 149
f 139 149 140
f 140 150 141
f 140 149 150
f 141 150 151
f 141 151 152
f 141 152 153
f 142 154 148
f 142 147 154
f 143 155 144
f 144 155 156
f 144 156 145
f 145 156 157
f 145 157 146
f 146 157 158
f 146 158 159
f 146 159 160
f 146 160 147
f 147 160 161
f 147 161 154
f 148 154 162
f 148 162 183
f 148 183 163
f 149 163 164
f 149 164 150
f 150 164 151
f 151 165 166
f 151 166 167
f 151 167 152
f 151 164 165
f 152 167 168
f 152 168 169
f 152 169 170
f 152 170 153
f 154 161 162
f 156 171 172
f 156 172 157
f 157 172 171
f 157 171 158
f 158 171 173
f 158 173 159
f 159 174 175
f 159 175 160
f 159 173 176
f 159 176 177
f 159 177 178
f 159 178 174
f 160 175 179
f 160 179 161
f 161 180 181
f 161 181 162
f 161 179 182
f 161 182 180
f 162 181 199
f 162 199 183
f 163 183 184
f 163 184 164
f 164 184 165
f 165 184 185
f 165 185 186
f 165 186 166
f 166 187 167
f 166 186 188
f 166 188 189
f 166 189 187
f 167 187 168
f 168 190 191
f 168 191 192
f 168 192 169
f 168 187 190
f 169 192 170
f 170 192 193
f 171 194 173
f 173 194 176
f 174 195 175
f 174 178 195
f 175 195 196
f 175 196 179
f 178 197 195
f 179 196 182
f 180 198 212
f 180 212 227
f 180 227 214
f 180 214 201
f 180 201 199
f 180 199 181
f 180 182 198
f 182 196 200
f 182 200 198
f 183 199 185
f 183 185 184
f 185 199 201
f 185 201 202
f 185 202 203
f 185 203 186
f 186 203 204
f 186 204 188
f 187 189 190
f 188 204 205
f 188 205 206
f 188 206 207
f 188 207 190
f 188 190 189
f 190 207 191
f 191 193 192
f 195 208 209
f 195 209 196
f 195 197 208
f 196 209 200
f 197 210 208
f 198 211 212
f 198 200 211
f 200 209 213
f 200 213 211
f 201 214 202
f 202 215 216
f 202 216 203
f 202 214 215
f 203 216 204
f 204 216 217
f 204 217 205
f 205 217 206
f 206 217 218
f 208 219 209
f 208 210 219
f 209 219 213
f 210 220 221
f 210 221 219
f 211 213 222
f 211 222 223
f 211 223 224
f 211 224 225
f 211 225 226
f 211 226 212
f 212 226 227
f 213 219 222
f 214 227 228
f 214 228 215
f 215 229 230
f 215 230 216
f 215 228 229
f 216 230 217
f 217 230 231
f 217 231 218
f 218 231 232
f 219 221 222
f 220 233 234
f 220 234 223
f 220 223 221
f 221 223 222
f 223 235 236
f 223 236 224
f 223 234 237
f 223 237 235
f 224 236 225
f 225 236 238
f 225 238 226
f 226 238 251
f 226 251 239
f 226 239 227
f 227 239 228
f 228 240 241
f 228 241 242
f 228 242 229
f 228 239 243
f 228 243 240
f 229 244 230
f 229 242 244
f 230 244 231
f 231 244 232
f 232 244 246
f 232 246 245
f 233 237 234
f 235 247 236
f 235 237 247
f 236 248 249
f 236 249 250
f 236 250 238
f 236 247 248
f 238 250 251
f 239 251 243
f 240 243 252
f 240 252 241
f 241 253 254
f 241 254 255
f 241 255 256
f 241 256 246
f 241 246 242
f 241 252 257
f 241 257 253
f 242 246 244
f 243 251 252
f 245 246 258
f 246 256 258
f 247 259 248
f 248 259 249
f 249 259 260
f 249 260 261
f 249 261 268
f 249 268 262
f 249 262 250
f 250 262 263
f 250 263 251
f 251 263 252
f 252 263 262
f 252 262 264
f 252 264 265
f 252 265 257
f 253 257 265
f 254 266 255
f 255 266 256
f 260 267 269
f 260 269 268
f 260 268 261
f 262 268 269
f 262 269 267
f 262 267 270
f 262 270 264
f 264 270 265

