# https://github.com/mikedh/trimesh
v -0.10638612 -0.00175039 0.24144144
v -0.11800894 -0.00723728 0.23559229
v -0.05326505 -0.13177642 0.20621766
v -0.04874638 -0.13249494 0.20621766
v 0.05042716 -0.11109611 0.20621766
v 0.05638090 -0.10691562 0.20621766
v 0.11698563 -0.05040075 0.20621766
v 0.12088758 -0.04375117 0.20621766
v 0.12354571 0.00853098 0.20621766
v -0.10638612 0.00175076 0.24141568
v -0.10797536 -0.07872350 0.20621766
v -0.04793693 -0.13132897 0.17265588
v -0.03386501 -0.13289012 0.14898950
v -0.00329876 -0.13150208 0.13360567
v 0.02058734 -0.12429074 0.13561551
v 0.06851964 -0.09592226 0.07144227
v 0.08415116 -0.08371885 0.07877626
v 0.12253910 -0.02659813 0.14761014
v 0.12014040 0.04669093 0.20621766
v 0.11651124 0.05084528 0.20621766
v 0.05635718 0.10691598 0.20621766
v 0.05042716 0.11109646 0.20621766
v -0.04874638 0.13246916 0.20621766
v -0.11800894 0.00723764 0.23556653
v -0.11129617 -0.07379837 0.20621766
v -0.07260135 -0.10496255 0.12301213
v -0.06649788 -0.10956761 0.11590520
v -0.02566677 -0.13233162 0.13519679
v -0.00852903 -0.13195932 0.12975347
v 0.03924316 -0.11410082 0.09713218
v 0.11987948 -0.04633784 0.14214750
v 0.12322994 0.00787124 0.14672762
v 0.08537867 0.08273452 0.08122092
v 0.07565344 0.09086032 0.07233123
v 0.05145009 0.10668736 0.08208413
v 0.02058734 0.12426499 0.13561551
v 0.00163205 0.13029075 0.13234952
v -0.05233997 0.13131954 0.19256105
v -0.10797536 0.07872386 0.20621766
v -0.10965949 -0.06918678 0.18398057
v -0.05854573 -0.11452867 0.11031211
v 0.01030469 -0.09681714 0.00309474
v 0.04806702 -0.09519721 0.00575521
v 0.04510794 -0.10817630 0.06625662
v 0.11620288 -0.04956465 0.12907064
v 0.08074139 -0.08515099 0.06163784
v 0.11888324 0.04682157 0.13762535
v 0.08076511 0.08515135 0.06153477
v 0.06617209 0.09480810 0.04807382
v -0.00763953 0.13191396 0.12975347
v -0.02389963 0.13282190 0.13610509
v -0.03984988 0.13223238 0.15659325
v -0.06916787 0.10868125 0.12511699
v -0.11130803 0.07377261 0.20621766
v -0.11820463 -0.00132581 0.20991527
v -0.11838994 0.00992066 0.21819620
v -0.10757212 -0.07480430 0.18470205
v -0.07174297 -0.08332203 0.02798586
v -0.03872466 -0.09632071 0.00755247
v -0.02746949 -0.09685633 0.00309474
v 0.12218626 -0.00708051 0.13788302
v 0.12112479 0.04075987 0.14317819
v 0.04331263 0.10938671 0.07008788
v 0.04548153 0.09581158 0.00645736
v 0.00356227 0.09687956 0.00309474
v -0.05845196 0.11418610 0.10930155
v -0.07242493 0.10383288 0.11627077
v -0.07532470 -0.07624134 0.02283242
v -0.04371773 -0.12073734 0.10729735
v 0.02592731 -0.09241131 -0.00426824
v 0.05866766 -0.09565853 0.02503471
v 0.06768054 -0.08408954 0.00529140
v 0.07731385 -0.07304066 0.00978133
v 0.12066002 0.03129827 0.13643362
v -0.02876520 0.09558623 0.00095928
v -0.07017152 0.08494886 0.02798586
v -0.10853279 0.07392938 0.18751067
v -0.10990854 0.06916101 0.18574563
v -0.07916735 -0.05852655 0.01872255
v -0.05679934 -0.09406717 0.02327047
v 0.05765585 -0.08780951 -0.00489309
v 0.07765779 -0.05652123 -0.00057064
v 0.07731385 0.07301489 0.00978133
v 0.06928461 0.08341384 0.00659908
v -0.04753666 0.09602061 0.01476729
v -0.04371773 0.12071157 0.10729735
v 0.01904553 0.09228430 -0.00582071
v -0.07532470 0.07624170 0.02283242
v -0.07858621 0.06573498 0.02033623
v -0.07965361 0.05850079 0.02092565
v -0.07368802 -0.06773668 0.00823530
v -0.06745113 -0.07904847 0.00817733
v -0.05930033 -0.08505791 0.00553940
v -0.03966160 -0.09217942 -0.00208447
v -0.02950942 -0.08873053 -0.00935083
v 0.07763407 0.05206677 -0.00136943
v 0.07782086 -0.00213578 -0.00229061
v 0.05865802 0.09136329 0.00395150
v -0.06106895 0.09217979 0.02464902
v -0.06870681 -0.00723728 -0.02045649
v 0.07177225 -0.06705735 -0.00569510
v 0.07768150 0.06274006 0.00173552
v 0.06473036 -0.01596403 -0.02156448
v 0.06767461 0.00834808 -0.02073348
v -0.03992252 0.08961271 -0.00488665
v 0.05139672 0.08606257 -0.00928962
v -0.06836212 0.07049762 0.00217195
v -0.06381455 0.01328627 -0.02170620
v -0.04259251 -0.07986170 -0.01081472
v 0.05381320 -0.07872514 -0.01288898
v -0.01067569 0.08881581 -0.00942168
v -0.06339648 0.08296313 0.00731090
v -0.06833915 0.01447510 -0.02006999
v -0.01150590 0.06563374 -0.02164179
v -0.01150590 -0.06563337 -0.02165467
v -0.06218379 -0.02777389 -0.02096539
v 0.06395946 -0.07637198 -0.00935726
v 0.07168626 0.06242652 -0.00739252
v 0.02040944 0.06296868 -0.02153872
v 0.05939335 0.03015190 -0.02147429
v 0.04524434 -0.04966916 -0.02140987
v 0.02040944 -0.06296831 -0.02153227
v 0.06492605 0.07781918 -0.00769850
v -0.04362137 -0.05145566 -0.02108617
v -0.04415655 0.05083875 -0.02110710
v -0.06315928 -0.07133907 -0.00327942
v -0.03734890 0.08025235 -0.01228345
v -0.05328285 0.07553951 -0.00851339
v 0.05859872 0.07198284 -0.01335763
v -0.04168820 0.04434210 0.33638731
v -0.03984965 0.04919908 0.33545101
v -0.04612860 0.04367330 0.33530134
v -0.04878616 0.03371910 0.33618349
v -0.03901115 -0.04521971 0.33629176
v -0.03056771 0.05143277 0.33610705
v -0.00019249 -0.05495313 0.33573765
v -0.05234070 0.09044439 0.31539431
v -0.05840238 0.08930158 0.31386569
v -0.05097014 0.03642030 0.33518988
v -0.05053557 -0.03013582 0.33596057
v -0.05079743 -0.03779789 0.33504340
v -0.04598096 -0.04423273 0.33524719
v -0.04149878 -0.04783650 0.33548287
v -0.02749230 -0.05412200 0.33544466
v -0.00019249 -0.05744656 0.33534274
v -0.00932957 0.08871069 0.32001197
v -0.01559181 0.12787166 0.31010783
v -0.02636688 0.12813139 0.30670667
v -0.06518833 0.08906782 0.31027344
v -0.06838631 0.08530172 0.31005687
v -0.05445783 0.02583626 0.33511344
v -0.05763910 -0.00001999 0.33483958
v -0.05439655 -0.02778525 0.33512619
v -0.05956680 -0.08871819 0.31359816
v -0.05234070 -0.09045839 0.31539431
v -0.01559181 -0.12785970 0.31010783
v -0.00932957 0.12813139 0.31043902
v -0.00932957 -0.12702854 0.31097403
v -0.00019249 -0.07648485 0.32195461
v -0.00019249 -0.04152503 0.32880792
v -0.03347597 0.12828724 0.30326727
v -0.07274592 0.08866523 0.30467167
v -0.04182192 0.12785867 0.29769418
v -0.08247078 0.08166548 0.29935655
v -0.08954646 0.08148367 0.29224849
v -0.05733267 -0.00885085 0.33461666
v -0.08427034 -0.08170545 0.29761139
v -0.06836402 -0.08526377 0.31004414
v -0.02636688 -0.12814540 0.30670667
v -0.00019249 -0.04046014 0.32195461
v -0.00932957 -0.12988558 0.30465576
v -0.00780301 -0.10479556 0.20626381
v -0.03155385 0.13107935 0.30068773
v -0.04168821 0.13126116 0.29403189
v -0.08164622 0.08683088 0.29762572
v -0.09461363 0.05143277 0.28838873
v -0.09375842 -0.05144677 0.28952247
v -0.08954646 -0.08147169 0.29224849
v -0.06516604 -0.08905584 0.31027344
v -0.03347597 -0.12830123 0.30326727
v -0.01756408 -0.13131411 0.30311441
v -0.00780301 0.10475559 0.20626381
v -0.04878616 -0.13248290 0.20626381
v -0.01776466 -0.12032748 0.20626381
v -0.01347468 -0.11811977 0.20626381
v -0.00994242 -0.11528870 0.20626381
v -0.00932957 0.12984562 0.30465576
v -0.01756408 0.13130012 0.30288512
v -0.04711474 0.12784569 0.29237589
v -0.09483370 0.07982139 0.28601620
v -0.09169143 0.08552249 0.28740788
v -0.09451056 -0.07980941 0.28644612
v -0.09329042 -0.08534169 0.28540793
v -0.07786603 -0.08851041 0.30006993
v -0.04182192 -0.12787268 0.29770055
v -0.03637310 -0.13235304 0.29225487
v -0.00995356 0.11524872 0.20626381
v -0.04701445 -0.13256732 0.27807695
v -0.05234070 -0.13259979 0.25615084
v -0.05427955 -0.13136606 0.20626381
v -0.04878616 0.13246891 0.20626381
v -0.01347468 0.11810576 0.20626381
v -0.01776466 0.12031348 0.20626381
v -0.03637310 0.13233905 0.29226759
v -0.05056901 0.13127415 0.28162462
v -0.10023238 0.08166548 0.27813429
v -0.09838268 -0.05144677 0.28330609
v -0.04168263 -0.13127515 0.29403824
v -0.05234070 0.13262475 0.25505215
v -0.04879730 0.13267669 0.27275863
v -0.10009866 0.08504198 0.27431273
v -0.10046080 0.05143277 0.28026161
v -0.04711474 -0.12783372 0.29237589
v -0.10009866 -0.08503001 0.27431273
v -0.05056901 -0.13128814 0.28163734
v -0.05412355 -0.13128814 0.27105168
v -0.05917680 -0.12912588 0.24638364
v -0.05893723 -0.12895057 0.22665811
v -0.05426840 0.13135207 0.20626381
v -0.05412355 0.13127415 0.27103895
v -0.10557813 0.08434071 0.26209337
v -0.10256400 -0.07627707 0.27501971
v -0.10563106 -0.08175740 0.26766962
v -0.10372563 -0.08510793 0.26559961
v -0.10692919 -0.08479625 0.25503942
v -0.05706524 0.13093649 0.24437733
v -0.05879794 0.12882617 0.25770813
v -0.10699883 0.08485368 0.25349170
v -0.11097402 0.07841884 0.25719222
v -0.10819947 0.07626307 0.26456141
v -0.10388721 -0.05144677 0.27473310
v -0.11071773 -0.08136781 0.25147265
v -0.11077345 -0.08151065 0.24615434
v -0.05887176 0.12886189 0.22620431
v -0.11073445 0.08144471 0.24526902
v -0.10763676 0.05143277 0.26770782
v -0.10933603 -0.07627707 0.26213473
v -0.11170387 -0.07732898 0.25432608
v -0.10782339 0.08208755 0.22663262
v -0.11286272 0.07449690 0.24792498
v -0.10786240 -0.05144677 0.26725879
v -0.11089601 -0.07812116 0.22084936
v -0.10798775 -0.07871854 0.20626381
v -0.10798775 0.07870454 0.20626381
v -0.11194065 0.05143277 0.25731006
v -0.11092944 -0.05144677 0.26054245
v -0.11311065 -0.05144677 0.25237072
v -0.11402714 -0.05144677 0.24437733
v -0.11299644 -0.07449791 0.23639667
v -0.11102974 -0.07484855 0.20626381
v -0.11150330 0.07200348 0.20626381
v -0.11304657 0.07273073 0.23018666
v -0.11359815 0.05143277 0.24970201
v -0.11401599 0.05143277 0.24437733
v -0.11260086 -0.04788845 0.20626381
v -0.11349229 -0.04966761 0.22310407
v -0.11352293 0.05054968 0.22398303
v -0.11257858 0.04966660 0.20626381
v -0.03055772 0.02647415 0.32197985
v -0.03055772 0.02756768 0.32841796
v -0.00777054 -0.10477526 0.20624687
v -0.00931185 -0.12990110 0.30467981
v -0.00931185 -0.12814635 0.31044227
v -0.03055772 0.07011376 0.32196710
v 0.01216068 -0.11146361 0.20624687
v -0.00777054 0.10477621 0.20624687
v 0.00347194 -0.12791747 0.30640090
v 0.01791037 -0.11222654 0.20624687
v 0.04708188 -0.11176878 0.20624687
v -0.03055772 0.05391420 0.33535329
v -0.00931185 0.12814730 0.31044227
v -0.00931185 0.12990205 0.30467981
v 0.01196424 0.11136284 0.20624687
v 0.05058760 -0.11108214 0.20624687
v 0.01787259 -0.12445885 0.30244881
v 0.01336955 -0.12417911 0.30998328
v -0.03055772 0.04812865 0.33591422
v -0.00931185 -0.12595929 0.31150040
v -0.03055772 0.05144740 0.33611822
v -0.00931185 0.12593481 0.31150040
v 0.00345683 0.12789300 0.30693635
v 0.04708188 0.11179517 0.20624687
v 0.01876413 0.11217663 0.20624687
v 0.05422932 -0.10997908 0.24306680
v 0.04590324 -0.11465520 0.28250021
v 0.03376921 -0.11924550 0.29580033
v 0.02467248 -0.12094937 0.30682161
v -0.00016978 -0.05498135 0.33574849
v 0.00803542 -0.12239894 0.31209961
v -0.00705655 0.05732832 0.33527040
v 0.00269373 0.12239990 0.31272429
v 0.01336955 0.12418006 0.30998328
v 0.01787259 0.12443438 0.30244881
v 0.05058760 0.11108310 0.20624687
v 0.05268046 -0.11025564 0.27894652
v 0.03800026 -0.11690585 0.29880267
v 0.03458520 -0.11700757 0.30280575
v 0.01881702 -0.12061878 0.31001517
v 0.00269373 -0.12239894 0.31271791
v 0.01157136 -0.05737187 0.33531502
v 0.03994955 -0.04435119 0.33648792
v 0.01157136 0.05724567 0.33522579
v 0.02663311 0.05287154 0.33579949
v 0.00803542 0.12239990 0.31209961
v 0.02467248 0.12095033 0.30682161
v 0.02932662 0.12079775 0.29935724
v 0.05367399 0.11053634 0.25636214
v 0.04293395 0.11587685 0.28514877
v 0.05703238 -0.10738193 0.22488551
v 0.05525685 -0.10940370 0.26566869
v 0.07419832 -0.07331711 0.30165839
v 0.06711888 -0.07517357 0.30688536
v 0.05256713 -0.08178563 0.31366768
v 0.04652278 -0.08258671 0.31652340
v 0.04425615 -0.04512684 0.33531502
v 0.03789070 -0.04990151 0.33546165
v 0.02929640 -0.05404041 0.33542976
v 0.03993445 0.04435215 0.33638594
v 0.04861375 -0.03326010 0.33603853
v 0.03812870 0.04924762 0.33549351
v 0.01881702 0.12060701 0.31001517
v 0.03458520 0.11698309 0.30280575
v 0.03800026 0.11690681 0.29880267
v 0.04535924 0.11362620 0.29241556
v 0.05911013 -0.10609767 0.24794796
v 0.11696961 -0.05037834 0.20624687
v 0.04535924 -0.11362525 0.29241556
v 0.08250929 -0.06740440 0.29758516
v 0.04906141 -0.03949387 0.33508554
v 0.04421082 0.04507693 0.33527040
v 0.04498903 0.08312172 0.31697598
v 0.05256713 0.08176116 0.31366768
v 0.05995633 0.07858228 0.31036577
v 0.07399432 0.07143617 0.30317548
v 0.05950490 0.10562180 0.24405961
v 0.05645062 0.10688698 0.20624687
v 0.05273712 0.11030110 0.27850670
v 0.05525685 0.10940465 0.26566869
v 0.11684872 -0.05030205 0.25503626
v 0.11448387 -0.05148459 0.26221380
v 0.10570446 -0.05692682 0.27404463
v 0.09225202 -0.06472778 0.28776225
v 0.09181003 -0.06030915 0.29086021
v 0.05261246 -0.03112707 0.33508554
v 0.04909163 0.03952026 0.33511105
v 0.05622395 0.01065607 0.33516204
v 0.05255201 0.03250130 0.33506006
v 0.08429993 0.06741807 0.29583222
v 0.11698472 0.05040473 0.20624687
v 0.11448387 0.05149826 0.26223928
v 0.11684872 0.05027758 0.25503626
v 0.05627306 -0.00265706 0.33518437
v 0.09226713 0.06471603 0.28777501
v 0.10569692 0.05686420 0.27473307
v 0.09180247 0.06028467 0.29085383
v 0.12014288 -0.04669084 0.20624687
v 0.12008244 -0.04663998 0.24794796
v 0.11970468 -0.04585162 0.25655335
v 0.11621406 -0.04605507 0.26387113
v 0.09841348 -0.05612575 0.28508502
v 0.05586129 -0.01757235 0.33480507
v 0.10516047 -0.00706934 0.28117117
v 0.05593685 0.01810735 0.33489433
v 0.12014288 0.04669180 0.20624687
v 0.11616873 0.04600517 0.26387113
v 0.11971978 0.04590344 0.25664261
v 0.12040732 0.04545840 0.24882126
v 0.10348506 -0.03169927 0.28190660
v 0.10343406 0.02878837 0.28217354
v 0.09841348 0.05612670 0.28508502
v 0.12198453 -0.03456661 0.25059652
v 0.11984256 -0.02814688 0.26049191
v 0.10562135 -0.04676714 0.27813697
v 0.11606296 -0.01594476 0.26723680
v 0.11360839 0.00728169 0.27071163
v 0.10741954 0.04960365 0.27552029
v 0.12239441 0.03013622 0.25147936
v 0.12163886 -0.04076542 0.20624687
v 0.12333127 -0.01108744 0.25332794
v 0.12159353 0.04076638 0.20624687
v 0.11582118 0.02657588 0.26686707
v 0.11991622 0.02657588 0.26064569
v 0.12327839 -0.01901555 0.20624687
v 0.12333127 0.01119012 0.25332794
v 0.12337661 0.01766231 0.20624687
v 0.12101176 0.00288054 0.25993815
v 0.12369394 -0.00172883 0.24794796
f 1 3 4
f 1 4 5
f 1 5 6
f 1 6 7
f 1 7 8
f 1 8 9
f 1 9 10
f 1 10 2
f 2 11 3
f 2 3 1
f 3 12 4
f 4 13 14
f 4 14 5
f 5 14 15
f 5 16 17
f 5 17 6
f 6 17 7
f 8 18 9
f 10 9 19
f 10 19 20
f 10 20 21
f 10 21 22
f 10 22 23
f 10 24 2
f 2 25 11
f 11 26 3
f 4 12 13
f 3 26 27
f 3 27 12
f 13 28 14
f 15 14 30
f 5 30 16
f 5 15 30
f 7 17 31
f 7 31 8
f 18 32 9
f 20 33 21
f 21 34 22
f 21 33 34
f 22 34 35
f 22 36 37
f 22 37 23
f 10 23 24
f 24 23 39
f 12 27 41
f 14 28 29
f 29 42 43
f 14 29 44
f 14 44 30
f 17 46 45
f 17 45 31
f 8 31 18
f 33 48 34
f 22 35 36
f 35 34 49
f 37 51 23
f 23 51 52
f 23 52 38
f 38 53 39
f 38 39 23
f 24 39 54
f 2 24 56
f 2 56 55
f 25 57 11
f 25 2 55
f 25 55 40
f 11 57 26
f 26 57 58
f 28 59 60
f 28 60 29
f 29 60 42
f 29 43 44
f 30 44 16
f 17 16 46
f 18 31 61
f 18 61 32
f 32 62 9
f 9 62 19
f 19 62 47
f 20 19 33
f 48 49 34
f 36 63 37
f 37 63 50
f 37 50 51
f 50 64 65
f 38 52 66
f 38 66 53
f 39 53 67
f 54 56 24
f 40 57 25
f 57 68 58
f 57 40 68
f 41 69 12
f 28 13 69
f 28 69 59
f 42 70 43
f 46 16 71
f 46 72 73
f 45 46 73
f 32 74 62
f 19 47 33
f 35 63 36
f 35 49 63
f 50 63 64
f 50 65 75
f 50 75 51
f 67 76 77
f 67 77 39
f 39 77 54
f 54 77 78
f 40 79 68
f 40 55 79
f 26 58 27
f 12 69 13
f 60 70 42
f 43 70 81
f 44 71 16
f 71 72 46
f 45 73 82
f 31 45 61
f 45 82 61
f 32 61 74
f 47 83 33
f 33 83 48
f 48 84 49
f 51 75 85
f 51 86 52
f 64 87 65
f 53 66 67
f 76 88 77
f 77 88 89
f 77 89 78
f 78 56 54
f 55 90 79
f 79 91 68
f 58 80 27
f 80 58 93
f 69 41 80
f 27 80 41
f 69 80 59
f 60 59 94
f 60 94 95
f 60 95 70
f 43 81 71
f 44 43 71
f 74 61 96
f 61 82 97
f 48 83 84
f 49 84 98
f 63 98 64
f 65 87 75
f 51 85 86
f 64 98 87
f 78 89 90
f 78 55 56
f 55 78 90
f 79 90 100
f 58 68 92
f 68 91 92
f 71 81 72
f 82 73 101
f 61 97 96
f 96 102 74
f 82 103 104
f 82 104 97
f 62 74 47
f 47 102 83
f 85 75 105
f 98 106 87
f 52 86 66
f 66 99 76
f 66 76 67
f 89 88 107
f 79 100 91
f 92 93 58
f 59 80 94
f 95 94 109
f 103 82 101
f 74 102 47
f 63 49 98
f 86 85 99
f 86 99 66
f 89 113 100
f 89 100 90
f 100 113 108
f 108 114 103
f 108 103 115
f 108 115 116
f 108 116 100
f 110 81 70
f 110 70 95
f 73 72 101
f 97 104 96
f 104 118 96
f 103 114 119
f 103 119 120
f 103 120 104
f 103 121 122
f 103 122 115
f 102 118 83
f 83 123 84
f 87 111 75
f 75 111 105
f 87 106 111
f 76 112 88
f 107 88 112
f 115 124 116
f 108 113 125
f 108 125 114
f 92 91 126
f 93 94 80
f 95 115 110
f 81 110 117
f 117 72 81
f 72 117 101
f 118 102 96
f 83 118 123
f 84 123 98
f 98 123 106
f 106 123 129
f 99 85 112
f 99 112 76
f 89 107 113
f 100 116 126
f 100 126 91
f 92 126 93
f 93 109 94
f 95 109 115
f 110 115 122
f 120 129 104
f 104 129 118
f 101 117 103
f 103 110 121
f 110 103 117
f 114 111 106
f 114 106 119
f 119 106 129
f 119 129 120
f 121 110 122
f 111 127 105
f 125 127 114
f 114 127 111
f 115 109 124
f 116 124 126
f 113 107 128
f 113 128 125
f 125 128 127
f 118 129 123
f 105 127 128
f 105 128 112
f 105 112 85
f 124 109 126
f 93 126 109
f 107 112 128
f 130 131 132
f 130 133 134
f 130 134 136
f 130 136 135
f 130 135 131
f 131 137 138
f 131 138 132
f 130 132 139
f 130 139 133
f 133 140 134
f 134 140 141
f 134 141 142
f 134 142 143
f 134 143 144
f 134 144 145
f 134 145 136
f 135 136 146
f 136 145 159
f 136 159 170
f 136 170 160
f 135 147 131
f 131 147 137
f 137 147 148
f 137 148 138
f 138 150 132
f 132 150 139
f 133 139 151
f 133 151 152
f 133 152 140
f 140 152 153
f 140 153 141
f 142 141 154
f 143 142 155
f 143 155 156
f 135 146 157
f 145 158 159
f 136 160 157
f 136 157 146
f 135 157 147
f 138 148 161
f 138 161 149
f 149 150 138
f 149 161 163
f 149 163 162
f 139 150 151
f 151 150 164
f 151 164 165
f 151 165 152
f 152 166 153
f 153 166 167
f 153 167 168
f 153 168 141
f 141 168 154
f 142 154 155
f 143 156 144
f 155 169 156
f 144 156 158
f 158 145 144
f 159 158 171
f 159 171 172
f 159 172 182
f 159 182 170
f 160 170 157
f 147 157 148
f 148 157 173
f 148 173 161
f 161 173 163
f 162 150 149
f 164 150 175
f 164 175 165
f 152 165 176
f 152 176 177
f 152 177 166
f 167 166 178
f 154 168 179
f 154 169 155
f 154 180 169
f 169 180 181
f 156 169 181
f 156 181 158
f 158 181 171
f 171 181 183
f 171 183 184
f 171 184 185
f 171 185 186
f 171 186 172
f 172 186 185
f 172 185 184
f 172 184 183
f 172 183 200
f 172 200 243
f 172 243 250
f 172 250 255
f 172 255 258
f 172 258 251
f 172 251 244
f 172 244 219
f 172 219 201
f 172 201 203
f 172 203 202
f 172 202 197
f 172 197 182
f 170 182 187
f 170 187 157
f 157 187 188
f 157 188 173
f 163 173 174
f 162 175 150
f 162 163 175
f 163 174 189
f 163 189 175
f 165 190 176
f 175 191 165
f 178 193 194
f 178 194 167
f 167 194 168
f 166 192 178
f 168 194 179
f 179 195 180
f 179 180 154
f 181 180 196
f 182 197 187
f 181 196 183
f 183 196 198
f 183 198 199
f 183 199 200
f 187 201 188
f 187 197 202
f 187 202 203
f 187 203 201
f 188 204 173
f 174 205 189
f 189 191 175
f 174 173 204
f 165 206 190
f 176 207 177
f 166 177 192
f 192 193 178
f 179 194 195
f 180 195 208
f 180 208 196
f 201 209 210
f 201 210 204
f 201 204 188
f 189 205 191
f 191 211 206
f 191 206 165
f 176 212 207
f 177 207 192
f 193 213 194
f 194 213 195
f 192 214 193
f 193 215 213
f 195 213 208
f 208 198 196
f 198 215 216
f 198 216 199
f 199 217 218
f 199 218 200
f 201 219 209
f 210 174 204
f 205 221 211
f 205 174 210
f 205 211 191
f 176 190 212
f 192 207 222
f 192 223 214
f 193 214 215
f 208 213 215
f 208 215 198
f 216 217 199
f 215 214 224
f 216 215 224
f 216 224 225
f 209 219 226
f 209 226 220
f 209 220 210
f 210 220 205
f 220 227 228
f 220 228 221
f 220 221 205
f 221 229 211
f 190 206 212
f 207 212 231
f 207 231 222
f 192 222 223
f 224 214 223
f 225 232 216
f 217 232 218
f 218 232 233
f 218 233 200
f 219 234 226
f 226 227 220
f 229 206 211
f 229 230 206
f 230 236 212
f 230 212 206
f 223 222 237
f 217 216 232
f 223 225 224
f 223 238 232
f 223 232 225
f 219 239 235
f 219 235 234
f 226 228 227
f 228 235 221
f 221 235 229
f 222 231 241
f 222 241 237
f 223 237 238
f 233 242 200
f 200 242 243
f 219 244 239
f 234 235 226
f 226 235 228
f 229 235 240
f 229 240 245
f 229 245 230
f 230 245 236
f 236 241 231
f 236 231 212
f 241 246 237
f 232 238 233
f 233 238 249
f 236 245 246
f 236 246 241
f 246 238 237
f 238 247 248
f 238 248 249
f 233 249 250
f 233 250 242
f 242 250 243
f 244 235 239
f 235 251 252
f 235 252 240
f 240 253 245
f 238 246 247
f 244 251 235
f 240 252 254
f 240 254 253
f 253 247 245
f 245 247 246
f 249 255 250
f 248 256 249
f 249 256 255
f 254 252 257
f 254 248 253
f 248 247 253
f 248 254 257
f 251 257 252
f 248 257 256
f 256 257 255
f 255 257 258
f 251 258 257
f 259 260 277
f 259 277 279
f 259 279 270
f 259 270 264
f 259 261 262
f 259 262 260
f 260 262 263
f 259 264 266
f 259 266 261
f 261 265 262
f 261 266 273
f 261 273 283
f 261 283 282
f 261 282 294
f 261 294 336
f 261 336 349
f 261 349 364
f 261 364 380
f 261 380 385
f 261 385 383
f 261 383 378
f 261 378 356
f 261 356 326
f 261 326 274
f 261 274 269
f 261 269 268
f 261 268 265
f 262 265 268
f 262 268 269
f 262 269 267
f 262 267 263
f 264 270 271
f 264 271 272
f 264 272 266
f 266 272 273
f 267 269 274
f 267 274 275
f 260 263 278
f 260 278 277
f 267 276 263
f 270 280 271
f 272 271 281
f 272 281 282
f 272 282 283
f 272 283 273
f 274 284 285
f 274 285 286
f 274 286 275
f 275 287 276
f 267 275 276
f 263 289 278
f 263 276 289
f 280 270 290
f 280 291 292
f 280 292 271
f 281 271 292
f 281 293 294
f 281 294 282
f 285 284 295
f 286 285 296
f 275 286 287
f 287 298 276
f 276 298 289
f 277 278 288
f 278 289 299
f 278 299 300
f 278 300 288
f 279 290 270
f 279 277 288
f 279 288 301
f 280 290 302
f 280 302 291
f 291 302 303
f 291 304 292
f 291 303 304
f 293 292 305
f 293 306 294
f 294 306 308
f 294 308 307
f 284 274 309
f 287 286 296
f 287 296 297
f 297 311 312
f 297 312 313
f 297 313 287
f 287 313 314
f 287 314 298
f 298 314 315
f 298 315 316
f 298 316 289
f 289 316 317
f 289 317 299
f 299 317 300
f 288 300 301
f 279 318 303
f 279 303 290
f 279 301 318
f 301 316 315
f 301 315 319
f 301 319 318
f 290 303 302
f 304 303 320
f 292 293 281
f 292 304 321
f 292 321 305
f 305 306 293
f 306 323 308
f 284 309 325
f 309 326 325
f 284 325 310
f 284 310 295
f 295 327 285
f 285 327 296
f 297 296 328
f 297 328 311
f 311 328 312
f 313 312 329
f 313 315 314
f 317 316 301
f 317 301 300
f 318 330 320
f 304 320 321
f 303 318 320
f 321 320 330
f 321 331 305
f 321 330 331
f 305 331 332
f 305 332 322
f 322 323 305
f 322 332 333
f 322 333 334
f 305 323 306
f 307 335 294
f 294 335 336
f 308 323 324
f 324 337 307
f 324 307 308
f 307 337 338
f 274 326 309
f 310 325 339
f 295 310 339
f 295 339 340
f 295 341 327
f 327 341 342
f 327 342 296
f 296 342 328
f 312 328 329
f 328 343 344
f 328 344 329
f 329 344 315
f 329 315 313
f 330 318 345
f 315 344 319
f 319 346 318
f 318 346 347
f 318 347 345
f 331 330 332
f 332 330 345
f 332 345 333
f 322 334 348
f 322 348 323
f 335 349 336
f 337 350 351
f 337 351 338
f 338 335 307
f 325 326 339
f 340 341 295
f 342 343 328
f 319 352 346
f 345 347 334
f 345 334 333
f 348 353 323
f 323 353 324
f 324 353 354
f 334 347 348
f 348 347 355
f 350 337 354
f 338 351 335
f 326 356 339
f 339 356 357
f 339 357 358
f 339 358 340
f 340 358 359
f 340 359 341
f 342 341 360
f 342 360 343
f 343 361 344
f 344 361 319
f 319 361 352
f 352 362 346
f 346 363 347
f 347 363 355
f 324 354 337
f 348 355 353
f 335 351 349
f 354 365 350
f 350 365 366
f 350 366 351
f 351 366 367
f 343 360 361
f 361 360 368
f 361 368 362
f 361 362 352
f 346 362 369
f 346 369 363
f 363 369 370
f 363 370 355
f 353 370 354
f 355 370 353
f 349 351 364
f 351 367 364
f 357 371 358
f 341 359 360
f 360 359 373
f 360 373 368
f 362 374 375
f 362 368 374
f 369 376 370
f 354 370 365
f 365 370 376
f 366 377 367
f 356 378 357
f 357 378 371
f 371 379 358
f 359 358 372
f 362 375 369
f 376 381 365
f 365 382 366
f 377 366 384
f 367 380 364
f 365 381 382
f 371 378 383
f 358 379 372
f 369 375 376
f 380 367 377
f 377 384 385
f 359 372 374
f 359 374 373
f 373 374 368
f 375 381 376
f 366 382 384
f 385 380 377
f 375 374 386
f 374 372 386
f 383 379 371
f 382 381 375
f 385 384 387
f 372 379 386
f 375 386 382
f 384 382 386
f 384 379 387
f 385 387 383
f 379 383 387
f 386 379 384

