# https://github.com/mikedh/trimesh
v -0.00047978 -0.00438452 -0.00239798
v -0.00139800 -0.00403078 -0.00239798
v -0.00224605 -0.00353171 -0.00239798
v -0.00300112 -0.00290074 -0.00239798
v -0.00300112 -0.00290074 -0.00439798
v -0.00224605 -0.00353170 -0.00439798
v -0.00139800 -0.00403078 -0.00439798
v -0.00047978 -0.00438452 -0.00439798
v 0.00182945 0.00261450 -0.00949798
v 0.00182945 0.00261449 -0.00749798
v -0.00132952 -0.00059033 -0.00749798
v -0.00090014 -0.00092177 -0.00749798
v -0.00040392 -0.00114081 -0.00749798
v 0.00013030 -0.00123473 -0.00749798
v 0.00067147 -0.00119808 -0.00749798
v 0.00118815 -0.00103299 -0.00749798
v 0.00165031 -0.00074904 -0.00749798
v 0.00203108 -0.00036274 -0.00749798
v 0.00230834 0.00010346 -0.00749798
v 0.00246597 0.00062247 -0.00749798
v 0.00249482 0.00116411 -0.00749798
v 0.00239321 0.00169692 -0.00749798
v 0.00216703 0.00218994 -0.00749798
v -0.00132952 -0.00059033 -0.00949798
v -0.00090014 -0.00092176 -0.00949798
v -0.00040392 -0.00114081 -0.00949798
v 0.00013030 -0.00123473 -0.00949798
v 0.00067147 -0.00119808 -0.00949798
v 0.00118815 -0.00103298 -0.00949798
v 0.00165031 -0.00074904 -0.00949798
v 0.00203108 -0.00036274 -0.00949798
v 0.00230834 0.00010346 -0.00949798
v 0.00246597 0.00062247 -0.00949798
v 0.00249482 0.00116411 -0.00949798
v 0.00239321 0.00169693 -0.00949798
v 0.00216703 0.00218994 -0.00949798
v -0.00132952 -0.00059034 -0.00239798
v -0.00132952 -0.00059034 -0.00439798
v -0.00090014 -0.00092177 -0.00439798
v -0.00040392 -0.00114081 -0.00439798
v 0.00013030 -0.00123473 -0.00439798
v 0.00067147 -0.00119809 -0.00439798
v 0.00118815 -0.00103299 -0.00439798
v 0.00165031 -0.00074904 -0.00439798
v 0.00203108 -0.00036274 -0.00439798
v 0.00230834 0.00010346 -0.00439798
v 0.00246597 0.00062247 -0.00439798
v 0.00249482 0.00116411 -0.00439798
v 0.00239321 0.00169692 -0.00439798
v 0.00216703 0.00218994 -0.00439798
v 0.00182945 0.00261449 -0.00439798
v 0.00182945 0.00261449 -0.00239798
v -0.00090014 -0.00092177 -0.00239798
v -0.00040392 -0.00114081 -0.00239798
v 0.00013030 -0.00123473 -0.00239798
v 0.00067148 -0.00119809 -0.00239798
v 0.00118815 -0.00103299 -0.00239798
v 0.00165031 -0.00074904 -0.00239798
v 0.00203108 -0.00036274 -0.00239798
v 0.00230834 0.00010346 -0.00239798
v 0.00246597 0.00062246 -0.00239798
v 0.00249482 0.00116411 -0.00239798
v 0.00239321 0.00169692 -0.00239798
v 0.00216703 0.00218993 -0.00239798
v -0.00047978 -0.00438452 -0.00749798
v -0.00184395 -0.00379176 -0.00749798
v -0.00302040 -0.00288164 -0.00749798
v -0.00393682 -0.00171010 -0.00749798
v -0.00453690 -0.00034913 -0.00749798
v -0.00478375 0.00111763 -0.00749798
v -0.00466222 0.00260005 -0.00749798
v -0.00417976 0.00400702 -0.00749798
v -0.00336604 0.00525208 -0.00749798
v 0.00025930 -0.00438967 -0.00749798
v 0.00589870 0.00226310 -0.00749798
v 0.00568541 0.00371264 -0.00749798
v 0.00557816 0.00443000 -0.00749798
v 0.00567934 0.00596559 -0.00749798
v 0.00632036 0.00818810 -0.00749798
v 0.00574021 0.00817853 -0.00749798
v 0.00593359 0.00816292 -0.00749798
v 0.00612759 0.00816612 -0.00749798
v 0.00250203 0.00806954 -0.00749798
v 0.00357535 0.00822312 -0.00749798
v 0.00465899 0.00825960 -0.00749798
v -0.00163540 0.00661934 -0.00749798
v 0.00035286 0.00757398 -0.00749798
v 0.00182945 0.00261449 -0.00749798
v 0.00140007 0.00294593 -0.00749798
v 0.00090385 0.00316497 -0.00749798
v 0.00036963 0.00325890 -0.00749798
v -0.00017155 0.00322224 -0.00749798
v -0.00068823 0.00305715 -0.00749798
v -0.00115038 0.00277320 -0.00749798
v -0.00153115 0.00238690 -0.00749798
v -0.00180841 0.00192070 -0.00749798
v -0.00196605 0.00140170 -0.00749798
v -0.00199489 0.00086005 -0.00749798
v -0.00189328 0.00032724 -0.00749798
v -0.00166710 -0.00016578 -0.00749798
v -0.00132952 -0.00059033 -0.00749798
v -0.00090014 -0.00092177 -0.00749798
v -0.00040392 -0.00114081 -0.00749798
v 0.00013030 -0.00123473 -0.00749798
v 0.00067147 -0.00119808 -0.00749798
v 0.00118815 -0.00103299 -0.00749798
v 0.00165031 -0.00074904 -0.00749798
v 0.00203108 -0.00036274 -0.00749798
v 0.00230834 0.00010346 -0.00749798
v 0.00246597 0.00062247 -0.00749798
v 0.00249482 0.00116411 -0.00749798
v 0.00239321 0.00169692 -0.00749798
v 0.00216703 0.00218994 -0.00749798
v 0.00574021 0.00817853 -0.00439798
v 0.00465899 0.00825960 -0.00439798
v 0.00357535 0.00822312 -0.00439798
v 0.00250203 0.00806954 -0.00439798
v 0.00632036 0.00818810 -0.00439798
v 0.00612759 0.00816612 -0.00439798
v 0.00593359 0.00816292 -0.00439798
v 0.00567934 0.00596559 -0.00439798
v 0.00557816 0.00442999 -0.00439798
v 0.00568541 0.00371264 -0.00439798
v 0.00589870 0.00226309 -0.00439798
v 0.00025930 -0.00438967 -0.00439798
v -0.00047978 -0.00438452 -0.00439798
v -0.00300112 -0.00290074 -0.00439798
v -0.00224605 -0.00353170 -0.00439798
v -0.00139800 -0.00403078 -0.00439798
v -0.00336604 0.00525208 -0.00439798
v -0.00408466 0.00419329 -0.00439798
v -0.00456243 0.00300620 -0.00439798
v -0.00477759 0.00174478 -0.00439798
v -0.00472037 0.00046643 -0.00439798
v -0.00439337 -0.00077072 -0.00439798
v -0.00381147 -0.00191038 -0.00439798
v 0.00035286 0.00757398 -0.00439798
v -0.00163540 0.00661934 -0.00439798
v -0.00132952 -0.00059034 -0.00439798
v -0.00090014 -0.00092177 -0.00439798
v -0.00040392 -0.00114081 -0.00439798
v 0.00013030 -0.00123473 -0.00439798
v 0.00067147 -0.00119809 -0.00439798
v 0.00118815 -0.00103299 -0.00439798
v 0.00165031 -0.00074904 -0.00439798
v 0.00203108 -0.00036274 -0.00439798
v 0.00230834 0.00010346 -0.00439798
v 0.00246597 0.00062247 -0.00439798
v 0.00249482 0.00116411 -0.00439798
v 0.00239321 0.00169692 -0.00439798
v 0.00216703 0.00218994 -0.00439798
v 0.00182945 0.00261449 -0.00439798
v 0.00140007 0.00294592 -0.00439798
v 0.00090385 0.00316497 -0.00439798
v 0.00036963 0.00325890 -0.00439798
v -0.00017155 0.00322224 -0.00439798
v -0.00068823 0.00305715 -0.00439798
v -0.00115038 0.00277320 -0.00439798
v -0.00153115 0.00238690 -0.00439798
v -0.00180841 0.00192070 -0.00439798
v -0.00196605 0.00140170 -0.00439798
v -0.00199489 0.00086005 -0.00439798
v -0.00189328 0.00032723 -0.00439798
v -0.00166710 -0.00016578 -0.00439798
v 0.00182945 0.00261449 -0.00439798
v 0.00140007 0.00294592 -0.00439798
v 0.00090385 0.00316497 -0.00439798
v 0.00036963 0.00325890 -0.00439798
v -0.00017155 0.00322224 -0.00439798
v -0.00068823 0.00305715 -0.00439798
v -0.00115038 0.00277320 -0.00439798
v -0.00153115 0.00238690 -0.00439798
v -0.00180841 0.00192070 -0.00439798
v -0.00196605 0.00140170 -0.00439798
v -0.00199489 0.00086005 -0.00439798
v -0.00189328 0.00032723 -0.00439798
v -0.00166710 -0.00016578 -0.00439798
v -0.00132952 -0.00059034 -0.00439798
v -0.00132952 -0.00059034 -0.00239798
v 0.00182945 0.00261449 -0.00239798
v 0.00140007 0.00294592 -0.00239798
v 0.00090385 0.00316497 -0.00239798
v 0.00036963 0.00325890 -0.00239798
v -0.00017155 0.00322224 -0.00239798
v -0.00068823 0.00305715 -0.00239798
v -0.00115038 0.00277320 -0.00239798
v -0.00153115 0.00238690 -0.00239798
v -0.00180841 0.00192070 -0.00239798
v -0.00196605 0.00140170 -0.00239798
v -0.00199489 0.00086005 -0.00239798
v -0.00189328 0.00032723 -0.00239798
v -0.00166710 -0.00016578 -0.00239798
v 0.00182945 0.00261449 -0.00749798
v 0.00140007 0.00294593 -0.00749798
v 0.00090385 0.00316497 -0.00749798
v 0.00036963 0.00325890 -0.00749798
v -0.00017155 0.00322224 -0.00749798
v -0.00068823 0.00305715 -0.00749798
v -0.00115038 0.00277320 -0.00749798
v -0.00153115 0.00238690 -0.00749798
v -0.00180841 0.00192070 -0.00749798
v -0.00196605 0.00140170 -0.00749798
v -0.00199489 0.00086005 -0.00749798
v -0.00189328 0.00032724 -0.00749798
v -0.00166710 -0.00016578 -0.00749798
v -0.00132952 -0.00059033 -0.00749798
v 0.00182945 0.00261450 -0.00949798
v 0.00140007 0.00294593 -0.00949798
v 0.00090385 0.00316497 -0.00949798
v 0.00036963 0.00325890 -0.00949798
v -0.00017155 0.00322225 -0.00949798
v -0.00068823 0.00305715 -0.00949798
v -0.00115038 0.00277320 -0.00949798
v -0.00153115 0.00238690 -0.00949798
v -0.00180841 0.00192070 -0.00949798
v -0.00196605 0.00140170 -0.00949798
v -0.00199489 0.00086005 -0.00949798
v -0.00189328 0.00032724 -0.00949798
v -0.00166710 -0.00016578 -0.00949798
v -0.00132952 -0.00059033 -0.00949798
v 0.00250203 0.00806954 -0.00949798
v 0.00035286 0.00757398 -0.00949798
v -0.00163540 0.00661934 -0.00949798
v -0.00336604 0.00525208 -0.00949798
v -0.00417976 0.00400702 -0.00949798
v -0.00466222 0.00260005 -0.00949798
v -0.00478375 0.00111763 -0.00949798
v -0.00453690 -0.00034913 -0.00949798
v -0.00393682 -0.00171010 -0.00949798
v -0.00302040 -0.00288164 -0.00949798
v -0.00184395 -0.00379176 -0.00949798
v -0.00047978 -0.00438452 -0.00949798
v 0.00109679 -0.00431843 -0.00949798
v 0.00256386 -0.00394400 -0.00949798
v 0.00322446 -0.00362707 -0.00949798
v 0.00381006 -0.00321608 -0.00949798
v 0.00454874 -0.00240278 -0.00949798
v 0.00511949 -0.00145375 -0.00949798
v 0.00552122 -0.00047909 -0.00949798
v 0.00582140 0.00075358 -0.00949798
v 0.00590776 0.00198885 -0.00949798
v 0.00584129 0.00288647 -0.00949798
v 0.00568541 0.00371264 -0.00949798
v 0.00557816 0.00443000 -0.00949798
v 0.00567934 0.00596559 -0.00949798
v 0.00632036 0.00818811 -0.00949798
v 0.00612759 0.00816612 -0.00949798
v 0.00593359 0.00816292 -0.00949798
v 0.00574021 0.00817853 -0.00949798
v 0.00465899 0.00825960 -0.00949798
v 0.00357535 0.00822312 -0.00949798
v -0.00132952 -0.00059033 -0.00949798
v -0.00090014 -0.00092176 -0.00949798
v -0.00040392 -0.00114081 -0.00949798
v 0.00013030 -0.00123473 -0.00949798
v 0.00067147 -0.00119808 -0.00949798
v 0.00118815 -0.00103298 -0.00949798
v 0.00165031 -0.00074904 -0.00949798
v 0.00203108 -0.00036274 -0.00949798
v 0.00230834 0.00010346 -0.00949798
v 0.00246597 0.00062247 -0.00949798
v 0.00249482 0.00116411 -0.00949798
v 0.00239321 0.00169693 -0.00949798
v 0.00216703 0.00218994 -0.00949798
v 0.00182945 0.00261450 -0.00949798
v 0.00140007 0.00294593 -0.00949798
v 0.00090385 0.00316497 -0.00949798
v 0.00036963 0.00325890 -0.00949798
v -0.00017155 0.00322225 -0.00949798
v -0.00068823 0.00305715 -0.00949798
v -0.00115038 0.00277320 -0.00949798
v -0.00153115 0.00238690 -0.00949798
v -0.00180841 0.00192070 -0.00949798
v -0.00196605 0.00140170 -0.00949798
v -0.00199489 0.00086005 -0.00949798
v -0.00189328 0.00032724 -0.00949798
v -0.00166710 -0.00016578 -0.00949798
v -0.00300112 -0.00290074 -0.00239798
v -0.00381147 -0.00191038 -0.00239798
v -0.00439337 -0.00077072 -0.00239798
v -0.00472037 0.00046643 -0.00239798
v -0.00477759 0.00174478 -0.00239798
v -0.00456243 0.00300620 -0.00239798
v -0.00408466 0.00419329 -0.00239798
v -0.00336604 0.00525208 -0.00239798
v -0.00163540 0.00661934 -0.00239798
v 0.00035286 0.00757397 -0.00239798
v 0.00250203 0.00806954 -0.00239798
v 0.00357536 0.00822312 -0.00239798
v 0.00465899 0.00825959 -0.00239798
v 0.00574021 0.00817853 -0.00239798
v 0.00593359 0.00816292 -0.00239798
v 0.00612759 0.00816612 -0.00239798
v 0.00632036 0.00818810 -0.00239798
v 0.00567934 0.00596559 -0.00239798
v 0.00557816 0.00442999 -0.00239798
v 0.00568541 0.00371263 -0.00239798
v 0.00590812 0.00196069 -0.00239798
v 0.00572742 0.00026004 -0.00239798
v 0.00517066 -0.00134866 -0.00239798
v 0.00458380 -0.00235399 -0.00239798
v 0.00381006 -0.00321609 -0.00239798
v 0.00302520 -0.00373586 -0.00239798
v 0.00212281 -0.00409667 -0.00239798
v 0.00114536 -0.00431152 -0.00239798
v 0.00034332 -0.00438640 -0.00239798
v -0.00047978 -0.00438452 -0.00239798
v -0.00139800 -0.00403078 -0.00239798
v -0.00224605 -0.00353171 -0.00239798
v 0.00182945 0.00261449 -0.00239798
v 0.00140007 0.00294592 -0.00239798
v 0.00090385 0.00316497 -0.00239798
v 0.00036963 0.00325890 -0.00239798
v -0.00017155 0.00322224 -0.00239798
v -0.00068823 0.00305715 -0.00239798
v -0.00115038 0.00277320 -0.00239798
v -0.00153115 0.00238690 -0.00239798
v -0.00180841 0.00192070 -0.00239798
v -0.00196605 0.00140170 -0.00239798
v -0.00199489 0.00086005 -0.00239798
v -0.00189328 0.00032723 -0.00239798
v -0.00166710 -0.00016578 -0.00239798
v -0.00132952 -0.00059034 -0.00239798
v -0.00090014 -0.00092177 -0.00239798
v -0.00040392 -0.00114081 -0.00239798
v 0.00013030 -0.00123473 -0.00239798
v 0.00067148 -0.00119809 -0.00239798
v 0.00118815 -0.00103299 -0.00239798
v 0.00165031 -0.00074904 -0.00239798
v 0.00203108 -0.00036274 -0.00239798
v 0.00230834 0.00010346 -0.00239798
v 0.00246597 0.00062246 -0.00239798
v 0.00249482 0.00116411 -0.00239798
v 0.00239321 0.00169692 -0.00239798
v 0.00216703 0.00218993 -0.00239798
v 0.00574021 0.00817853 -0.00239798
v 0.00574021 0.00817853 -0.00439798
v 0.00632036 0.00818810 -0.00439798
v 0.00612759 0.00816612 -0.00439798
v 0.00593359 0.00816292 -0.00439798
v 0.00632036 0.00818810 -0.00239798
v 0.00593359 0.00816292 -0.00239798
v 0.00612759 0.00816612 -0.00239798
v 0.00574021 0.00817853 -0.00749798
v 0.00574021 0.00817853 -0.00949798
v 0.00632036 0.00818811 -0.00949798
v 0.00612759 0.00816612 -0.00949798
v 0.00593359 0.00816292 -0.00949798
v 0.00632036 0.00818810 -0.00749798
v 0.00593359 0.00816292 -0.00749798
v 0.00612759 0.00816612 -0.00749798
v -0.00047978 -0.00438452 -0.00949798
v -0.00047978 -0.00438452 -0.00749798
v -0.00184395 -0.00379176 -0.00749798
v -0.00302040 -0.00288164 -0.00749798
v -0.00393682 -0.00171010 -0.00749798
v -0.00453690 -0.00034913 -0.00749798
v -0.00478375 0.00111763 -0.00749798
v -0.00466222 0.00260005 -0.00749798
v -0.00417976 0.00400702 -0.00749798
v -0.00336604 0.00525208 -0.00749798
v -0.00336604 0.00525208 -0.00949798
v -0.00417976 0.00400702 -0.00949798
v -0.00466222 0.00260005 -0.00949798
v -0.00478375 0.00111763 -0.00949798
v -0.00453690 -0.00034913 -0.00949798
v -0.00393682 -0.00171010 -0.00949798
v -0.00302040 -0.00288164 -0.00949798
v -0.00184395 -0.00379176 -0.00949798
v -0.00300112 -0.00290074 -0.00239798
v -0.00300112 -0.00290074 -0.00439798
v -0.00381147 -0.00191038 -0.00239798
v -0.00439337 -0.00077072 -0.00239798
v -0.00472037 0.00046643 -0.00239798
v -0.00477759 0.00174478 -0.00239798
v -0.00456243 0.00300620 -0.00239798
v -0.00408466 0.00419329 -0.00239798
v -0.00336604 0.00525208 -0.00239798
v -0.00336604 0.00525208 -0.00439798
v -0.00408466 0.00419329 -0.00439798
v -0.00456243 0.00300620 -0.00439798
v -0.00477759 0.00174478 -0.00439798
v -0.00472037 0.00046643 -0.00439798
v -0.00439337 -0.00077072 -0.00439798
v -0.00381147 -0.00191038 -0.00439798
v 0.00250203 0.00806954 -0.00949798
v 0.00035286 0.00757398 -0.00949798
v -0.00163540 0.00661934 -0.00949798
v -0.00336604 0.00525208 -0.00949798
v -0.00336604 0.00525208 -0.00749798
v -0.00163540 0.00661934 -0.00749798
v 0.00035286 0.00757398 -0.00749798
v 0.00250203 0.00806954 -0.00749798
v 0.00250203 0.00806954 -0.00439798
v 0.00035286 0.00757398 -0.00439798
v -0.00163540 0.00661934 -0.00439798
v -0.00336604 0.00525208 -0.00439798
v -0.00336604 0.00525208 -0.00239798
v -0.00163540 0.00661934 -0.00239798
v 0.00035286 0.00757397 -0.00239798
v 0.00250203 0.00806954 -0.00239798
v 0.00250203 0.00806954 -0.00749798
v 0.00357535 0.00822312 -0.00749798
v 0.00465899 0.00825960 -0.00749798
v 0.00574021 0.00817853 -0.00749798
v 0.00574021 0.00817853 -0.00949798
v 0.00465899 0.00825960 -0.00949798
v 0.00357535 0.00822312 -0.00949798
v 0.00250203 0.00806954 -0.00949798
v 0.00250203 0.00806954 -0.00239798
v 0.00357536 0.00822312 -0.00239798
v 0.00465899 0.00825959 -0.00239798
v 0.00574021 0.00817853 -0.00239798
v 0.00574021 0.00817853 -0.00439798
v 0.00465899 0.00825960 -0.00439798
v 0.00357535 0.00822312 -0.00439798
v 0.00250203 0.00806954 -0.00439798
f 7 1 2
f 7 2 3
f 7 8 1
f 6 3 4
f 6 7 3
f 5 6 4
f 12 24 11
f 12 25 24
f 13 26 25
f 13 25 12
f 14 27 26
f 14 26 13
f 15 28 27
f 15 27 14
f 16 29 28
f 16 28 15
f 17 30 29
f 17 29 16
f 18 31 30
f 18 30 17
f 19 32 31
f 19 31 18
f 20 33 32
f 20 32 19
f 21 34 33
f 21 33 20
f 22 35 34
f 22 34 21
f 23 36 35
f 23 35 22
f 10 9 36
f 10 36 23
f 50 52 51
f 50 64 52
f 49 63 64
f 49 64 50
f 48 62 63
f 48 63 49
f 47 61 62
f 47 62 48
f 46 60 61
f 46 61 47
f 45 58 59
f 45 59 60
f 45 60 46
f 44 58 45
f 43 57 58
f 43 58 44
f 42 56 57
f 42 57 43
f 41 55 56
f 41 56 42
f 40 54 55
f 40 55 41
f 39 37 53
f 39 53 54
f 39 54 40
f 38 37 39
f 104 65 74
f 105 104 74
f 103 66 65
f 103 65 104
f 106 105 74
f 102 67 66
f 102 66 103
f 107 106 74
f 101 68 67
f 101 67 102
f 108 107 74
f 100 69 68
f 100 68 101
f 99 69 100
f 98 69 99
f 70 69 98
f 97 70 98
f 75 109 108
f 75 110 109
f 75 111 110
f 75 112 111
f 75 108 74
f 71 97 96
f 71 70 97
f 76 113 112
f 76 88 113
f 76 112 75
f 72 71 96
f 72 95 94
f 72 96 95
f 77 88 76
f 77 89 88
f 73 72 94
f 73 94 93
f 86 92 91
f 86 93 92
f 86 73 93
f 87 86 91
f 87 91 90
f 83 87 90
f 83 77 78
f 83 90 89
f 83 89 77
f 82 81 78
f 80 78 81
f 79 82 78
f 84 83 78
f 85 78 80
f 85 84 78
f 121 119 118
f 121 120 119
f 121 114 120
f 115 114 121
f 116 115 121
f 117 121 122
f 117 116 121
f 148 149 124
f 150 123 124
f 150 124 149
f 147 148 124
f 151 123 150
f 146 147 124
f 152 122 123
f 152 123 151
f 153 117 122
f 153 122 152
f 154 117 153
f 137 117 154
f 155 137 154
f 125 143 144
f 125 144 145
f 125 145 146
f 125 146 124
f 142 143 125
f 126 142 125
f 129 142 126
f 129 141 142
f 138 155 156
f 138 156 157
f 138 137 155
f 128 141 129
f 128 140 141
f 127 140 128
f 127 139 140
f 130 138 157
f 130 157 158
f 136 139 127
f 136 164 139
f 131 130 158
f 131 158 159
f 135 164 136
f 135 163 164
f 132 131 159
f 132 159 160
f 134 162 163
f 134 163 135
f 133 162 134
f 133 160 161
f 133 132 160
f 133 161 162
f 177 179 178
f 177 192 179
f 176 191 192
f 176 192 177
f 175 190 191
f 175 191 176
f 174 189 190
f 174 190 175
f 173 188 189
f 173 189 174
f 172 186 187
f 172 187 188
f 172 188 173
f 171 186 172
f 170 185 186
f 170 186 171
f 169 184 185
f 169 185 170
f 168 183 184
f 168 184 169
f 167 181 182
f 167 182 183
f 167 183 168
f 166 181 167
f 165 180 181
f 165 181 166
f 194 207 193
f 194 208 207
f 195 209 208
f 195 208 194
f 196 210 209
f 196 209 195
f 197 211 210
f 197 210 196
f 198 212 211
f 198 211 197
f 199 213 212
f 199 212 198
f 200 214 213
f 200 213 199
f 201 215 214
f 201 214 200
f 202 216 215
f 202 215 201
f 203 217 216
f 203 216 202
f 204 218 217
f 204 217 203
f 205 219 218
f 205 218 204
f 206 220 219
f 206 219 205
f 255 233 232
f 256 233 255
f 254 232 231
f 254 255 232
f 257 234 233
f 257 235 234
f 257 233 256
f 253 231 230
f 253 254 231
f 258 236 235
f 258 237 236
f 258 235 257
f 252 230 229
f 252 253 230
f 259 238 237
f 259 237 258
f 277 229 228
f 277 252 229
f 260 239 238
f 260 238 259
f 276 277 228
f 261 239 260
f 240 239 261
f 275 276 228
f 262 240 261
f 227 275 228
f 274 275 227
f 241 240 262
f 241 262 263
f 226 274 227
f 226 273 274
f 242 241 263
f 242 263 264
f 243 242 264
f 243 264 265
f 225 273 226
f 225 271 272
f 225 272 273
f 244 243 265
f 244 265 266
f 224 271 225
f 224 270 271
f 223 268 269
f 223 269 270
f 223 270 224
f 222 268 223
f 222 267 268
f 221 245 244
f 221 266 267
f 221 244 266
f 221 267 222
f 247 245 248
f 249 248 245
f 246 245 247
f 251 245 221
f 250 249 245
f 250 245 251
f 295 292 291
f 295 293 292
f 295 294 293
f 290 295 291
f 289 295 290
f 288 296 295
f 288 295 289
f 333 299 298
f 332 300 299
f 332 299 333
f 334 298 297
f 334 333 298
f 331 300 332
f 335 334 297
f 330 301 300
f 330 300 331
f 310 297 296
f 310 335 297
f 329 301 330
f 329 302 301
f 329 303 302
f 311 310 296
f 311 296 288
f 328 303 329
f 328 304 303
f 312 311 288
f 327 304 328
f 327 305 304
f 287 312 288
f 313 312 287
f 306 305 327
f 326 306 327
f 307 306 326
f 308 307 326
f 308 326 325
f 286 313 287
f 286 314 313
f 286 315 314
f 309 308 325
f 309 325 324
f 278 324 323
f 278 309 324
f 285 316 315
f 285 315 286
f 279 323 322
f 279 278 323
f 284 317 316
f 284 316 285
f 280 322 321
f 280 279 322
f 283 318 317
f 283 317 284
f 281 321 320
f 281 280 321
f 282 319 318
f 282 320 319
f 282 281 320
f 282 318 283
f 336 340 337
f 342 339 340
f 342 340 336
f 343 339 342
f 341 338 339
f 341 339 343
f 344 348 345
f 350 347 348
f 350 348 344
f 351 346 347
f 351 347 350
f 349 346 351
f 360 361 362
f 360 362 363
f 359 363 364
f 359 360 363
f 358 364 365
f 358 359 364
f 357 365 366
f 357 358 365
f 356 366 367
f 356 357 366
f 355 367 368
f 355 356 367
f 354 368 369
f 354 355 368
f 353 369 352
f 353 354 369
f 371 370 372
f 385 372 373
f 385 371 372
f 384 373 374
f 384 385 373
f 383 374 375
f 383 384 374
f 382 375 376
f 382 383 375
f 381 376 377
f 381 382 376
f 380 377 378
f 380 381 377
f 379 380 378
f 393 386 387
f 392 387 388
f 392 393 387
f 391 388 389
f 391 392 388
f 390 391 389
f 396 397 398
f 396 398 399
f 395 399 400
f 395 396 399
f 394 400 401
f 394 395 400
f 404 405 406
f 404 406 407
f 403 407 408
f 403 404 407
f 402 408 409
f 402 403 408
f 412 413 414
f 412 414 415
f 411 415 416
f 411 412 415
f 410 416 417
f 410 411 416

