# https://github.com/mikedh/trimesh
v 0.00748544 -0.02227266 -0.00341089
v 0.00752830 -0.02241886 -0.00495498
v 0.00752826 -0.02241882 -0.00496545
v 0.00747923 -0.02227240 -0.00643460
v 0.00718183 -0.02226009 -0.00752997
v 0.00635093 -0.02382418 -0.00745444
v 0.00586981 -0.02525757 -0.00739042
v 0.00621769 -0.02517750 -0.00573435
v 0.00621769 -0.02517750 -0.00407827
v 0.00586981 -0.02525757 -0.00242219
v 0.00626745 -0.02402208 -0.00236751
v 0.00673922 -0.02302049 -0.00231958
v 0.00718183 -0.02226009 -0.00228264
v 0.00747923 -0.02227240 -0.00643460
v 0.00731513 -0.02204942 -0.00753970
v 0.00718183 -0.02226009 -0.00752997
v 0.00731814 -0.02204451 -0.00227271
v 0.00748544 -0.02227266 -0.00341089
v 0.00718183 -0.02226009 -0.00228264
v 0.00525903 -0.02005819 0.00000769
v 0.00467834 -0.01950425 0.00014403
v 0.00425412 -0.01899090 0.00022490
v 0.00415371 -0.01920382 0.00023643
v 0.00278438 -0.02183038 0.00036498
v 0.00481751 -0.02206168 -0.00007479
v 0.00568138 -0.02214846 -0.00046259
v 0.00621502 -0.02219667 -0.00083037
v 0.00671240 -0.02223502 -0.00135656
v 0.00697803 -0.02225087 -0.00179547
v 0.00718183 -0.02226009 -0.00228264
v 0.00731814 -0.02204451 -0.00227271
v 0.00716038 -0.02186266 -0.00167440
v 0.00691494 -0.02160707 -0.00113393
v 0.00657508 -0.02127510 -0.00069861
v 0.00616836 -0.02089176 -0.00037668
v 0.00572436 -0.02048204 -0.00015042
v 0.00415931 -0.02137605 0.00017772
v 0.00731513 -0.02204942 -0.00753970
v 0.00718183 -0.02226009 -0.00752997
v 0.00685629 -0.02224414 -0.00823955
v 0.00642582 -0.02221395 -0.00878998
v 0.00590056 -0.02216890 -0.00921525
v 0.00525131 -0.02210634 -0.00956692
v 0.00407545 -0.02198119 -0.00995120
v 0.00278438 -0.02183038 -0.01017760
v 0.00415371 -0.01920382 -0.01004905
v 0.00425108 -0.01899635 -0.01003788
v 0.00472411 -0.01956001 -0.00994716
v 0.00525530 -0.02006238 -0.00982101
v 0.00616530 -0.02089656 -0.00943646
v 0.00657180 -0.02127970 -0.00911470
v 0.00690712 -0.02160711 -0.00868702
v 0.00715644 -0.02186651 -0.00814107
v 0.00724407 -0.02196497 -0.00784522
v 0.00375135 -0.01568310 0.00031080
v 0.00360375 -0.01681853 0.00032026
v 0.00367284 -0.01765500 0.00031297
v 0.00389247 -0.01835089 0.00028514
v 0.00425412 -0.01899090 0.00022490
v 0.00415371 -0.01920382 0.00023643
v 0.00192858 -0.01881117 0.00040816
v 0.00228734 -0.01594216 0.00030832
v 0.00236955 -0.01336246 0.00026764
v 0.00317182 -0.01314835 0.00034632
v 0.00426725 -0.01295473 0.00032726
v 0.00242174 -0.00553075 0.00065702
v 0.00102880 -0.00497186 0.00032103
v -0.00025586 -0.00447883 -0.00038399
v -0.00135983 -0.00407764 -0.00138625
v -0.00186704 -0.00390606 -0.00207132
v -0.00223161 -0.00379897 -0.00284990
v -0.00081283 -0.01496174 -0.00284944
v -0.00149527 -0.01265423 -0.00285693
v -0.00207727 -0.00839822 -0.00285844
v -0.00223041 -0.00598131 -0.00285322
v -0.00046240 -0.01469131 -0.00197698
v 0.00010017 -0.01433925 -0.00117318
v 0.00086628 -0.01394712 -0.00045416
v 0.00162102 -0.01362673 0.00001005
v 0.00236955 -0.01336246 0.00026764
v 0.00231316 -0.00931954 0.00038205
v -0.00073519 -0.00581891 -0.00083504
v -0.00147354 -0.00519645 -0.00154002
v 0.00012304 -0.00757692 -0.00033556
v -0.00093942 -0.00653191 -0.00106306
v -0.00145211 -0.00631455 -0.00157478
v -0.00177201 -0.00621618 -0.00197666
v -0.00007951 -0.01097796 -0.00077782
v -0.00022933 -0.00899922 -0.00069100
v -0.00087415 -0.01027070 -0.00136578
v 0.00101780 -0.01198241 -0.00021010
v 0.00095404 -0.01266906 -0.00029313
v -0.00006409 -0.01221766 -0.00090925
v -0.00080931 -0.01355205 -0.00193137
v 0.00123626 -0.00646054 0.00029006
v 0.00105383 -0.00915012 0.00001432
v -0.00165631 -0.00744808 -0.00192701
v -0.00122820 -0.00801474 -0.00147332
v 0.00109269 -0.01010232 -0.00004044
v -0.00133377 -0.00877442 -0.00167533
v -0.00096599 -0.01135085 -0.00161783
v -0.00070899 -0.01199138 -0.00144527
v -0.00099407 -0.01186431 -0.00174263
v -0.00094284 -0.01247065 -0.00180603
v -0.00223161 -0.00379897 -0.00284990
v -0.00241052 -0.00376374 -0.00353737
v -0.00250426 -0.00376492 -0.00424366
v -0.00253153 -0.00379397 -0.00495498
v -0.00253146 -0.00379400 -0.00496545
v -0.00245949 -0.00376651 -0.00597613
v -0.00223182 -0.00380500 -0.00696271
v -0.00081283 -0.01496174 -0.00696316
v -0.00149527 -0.01265420 -0.00695568
v -0.00207696 -0.00840157 -0.00695417
v -0.00223025 -0.00598607 -0.00695938
v -0.00101497 -0.01513630 -0.00576925
v -0.00104242 -0.01516000 -0.00447175
v -0.00096845 -0.01509612 -0.00362695
v -0.00081283 -0.01496174 -0.00284944
v -0.00149527 -0.01265423 -0.00285693
v -0.00207727 -0.00839822 -0.00285844
v -0.00223041 -0.00598131 -0.00285322
v -0.00254845 -0.00539995 -0.00492260
v -0.00252639 -0.00624685 -0.00490631
v -0.00239883 -0.00787446 -0.00564611
v -0.00246014 -0.00749522 -0.00490631
v -0.00245538 -0.00703721 -0.00417158
v -0.00235688 -0.00875502 -0.00490631
v -0.00214813 -0.01030414 -0.00415081
v -0.00207094 -0.01110788 -0.00490631
v -0.00171986 -0.01305467 -0.00490630
v -0.00193319 -0.01176153 -0.00566674
v -0.00129954 -0.01410979 -0.00640396
v -0.00136591 -0.01422210 -0.00578894
v -0.00150474 -0.01391522 -0.00475518
v -0.00132636 -0.01415309 -0.00360746
v -0.00216051 -0.00985649 -0.00601543
v 0.00425108 -0.01899635 -0.01003788
v 0.00384976 -0.01826394 -0.01010360
v 0.00363245 -0.01745267 -0.01012979
v 0.00361234 -0.01656445 -0.01013222
v 0.00374582 -0.01568206 -0.01012378
v 0.00426135 -0.01295557 -0.01014018
v 0.00316937 -0.01314890 -0.01015886
v 0.00236955 -0.01336246 -0.01008026
v 0.00225468 -0.01632678 -0.01013223
v 0.00192858 -0.01881116 -0.01022078
v 0.00415371 -0.01920382 -0.01004905
v -0.00223182 -0.00380500 -0.00696271
v -0.00187185 -0.00391062 -0.00773364
v -0.00137161 -0.00407964 -0.00841284
v -0.00057771 -0.00436546 -0.00918098
v 0.00044411 -0.00475063 -0.00986494
v 0.00140321 -0.00512606 -0.01026162
v 0.00242141 -0.00553677 -0.01046907
v 0.00236955 -0.01336246 -0.01008026
v 0.00231314 -0.00932268 -0.01019450
v 0.00160863 -0.01363154 -0.00981671
v 0.00084311 -0.01395790 -0.00934077
v 0.00017221 -0.01429881 -0.00872080
v -0.00034840 -0.01461370 -0.00803158
v -0.00061899 -0.01480517 -0.00751602
v -0.00081283 -0.01496174 -0.00696316
v -0.00149527 -0.01265420 -0.00695568
v -0.00207696 -0.00840157 -0.00695417
v -0.00223025 -0.00598607 -0.00695938
v -0.00040885 -0.00594681 -0.00923319
v -0.00100041 -0.00571900 -0.00874436
v -0.00159784 -0.00514298 -0.00812344
v -0.00078251 -0.00660263 -0.00888504
v 0.00024027 -0.00761333 -0.00954455
v -0.00117642 -0.00643668 -0.00852707
v -0.00157630 -0.00626676 -0.00809268
v -0.00184230 -0.00618298 -0.00773406
v -0.00007937 -0.01097954 -0.00903473
v -0.00087394 -0.01027281 -0.00844677
v -0.00022914 -0.00900240 -0.00912146
v 0.00106944 -0.01195718 -0.00963031
v 0.00097867 -0.01265761 -0.00953404
v -0.00003340 -0.01219897 -0.00892902
v -0.00078183 -0.01352836 -0.00792694
v 0.00105394 -0.00915323 -0.00982675
v -0.00159589 -0.00748681 -0.00796188
v -0.00118149 -0.00803764 -0.00838640
v 0.00109280 -0.01010471 -0.00977204
v -0.00133350 -0.00877770 -0.00813720
v -0.00096584 -0.01135204 -0.00819475
v -0.00070036 -0.01198562 -0.00837716
v -0.00099397 -0.01186507 -0.00806996
v -0.00093227 -0.01246188 -0.00802205
v 0.00426725 -0.01295473 0.00032726
v 0.00471776 -0.01059204 0.00041213
v 0.00485274 -0.00973643 0.00045365
v 0.00487624 -0.00900709 0.00049879
v 0.00471561 -0.00796853 0.00057970
v 0.00434339 -0.00706931 0.00066100
v 0.00386076 -0.00641770 0.00071645
v 0.00329840 -0.00595168 0.00073371
v 0.00296374 -0.00576286 0.00071986
v 0.00260938 -0.00560707 0.00068417
v 0.00242174 -0.00553075 0.00065702
v 0.00231316 -0.00931954 0.00038205
v 0.00236955 -0.01336246 0.00026764
v 0.00317182 -0.01314835 0.00034632
v 0.00330717 -0.01193391 0.00038773
v 0.00242141 -0.00553677 -0.01046907
v 0.00260719 -0.00561233 -0.01049600
v 0.00330226 -0.00596096 -0.01054583
v 0.00384507 -0.00640951 -0.01052956
v 0.00423580 -0.00690355 -0.01048886
v 0.00453199 -0.00746150 -0.01043774
v 0.00473351 -0.00805761 -0.01038499
v 0.00484618 -0.00867954 -0.01033526
v 0.00485607 -0.00963789 -0.01027215
v 0.00471222 -0.01059099 -0.01022515
v 0.00426135 -0.01295557 -0.01014018
v 0.00316937 -0.01314890 -0.01015886
v 0.00236955 -0.01336246 -0.01008026
v 0.00231314 -0.00932268 -0.01019450
v 0.00330488 -0.01193358 -0.01020031
v 0.00354444 -0.03347970 -0.00276234
v 0.00339925 -0.03350861 -0.00234563
v 0.00316524 -0.03355337 -0.00195355
v 0.00280053 -0.03362195 -0.00158164
v 0.00229463 -0.03371672 -0.00124404
v 0.00166405 -0.03383504 -0.00096570
v 0.00094794 -0.03396973 -0.00077479
v 0.00101760 -0.03461817 -0.00099359
v 0.00109750 -0.03522660 -0.00134018
v 0.00117230 -0.03574543 -0.00181025
v 0.00122967 -0.03612541 -0.00232788
v 0.00126383 -0.03634552 -0.00280953
v 0.00127908 -0.03644088 -0.00322807
v 0.00353569 -0.03383885 -0.00322807
v 0.00307504 -0.03494023 -0.00322707
v 0.00253705 -0.03567785 -0.00322727
v 0.00202681 -0.03611868 -0.00322773
v 0.00162702 -0.03633469 -0.00322800
v 0.00354274 -0.03348513 -0.00276257
v 0.00351964 -0.03356468 -0.00277268
v 0.00350608 -0.03362606 -0.00279697
v 0.00349824 -0.03367744 -0.00283133
v 0.00349434 -0.03372412 -0.00287615
v 0.00349424 -0.03376849 -0.00293489
v 0.00349824 -0.03380362 -0.00300050
v 0.00350632 -0.03382734 -0.00307048
v 0.00351532 -0.03383730 -0.00312691
v 0.00352358 -0.03383974 -0.00317001
v 0.00267200 -0.03434454 -0.00178338
v 0.00257128 -0.03504122 -0.00222394
v 0.00279708 -0.03520040 -0.00282695
v -0.00104033 -0.03434368 -0.00066022
v -0.00155086 -0.03446535 -0.00073511
v -0.00183668 -0.03456078 -0.00085009
v -0.00209049 -0.03466737 -0.00103590
v -0.00228280 -0.03476637 -0.00125990
v -0.00243944 -0.03486398 -0.00152843
v -0.00259151 -0.03498488 -0.00192930
v -0.00268765 -0.03509851 -0.00238254
v -0.00271546 -0.03516448 -0.00268221
v -0.00271681 -0.03521032 -0.00289458
v -0.00270509 -0.03522507 -0.00289487
v -0.00228977 -0.03571077 -0.00319031
v -0.00229693 -0.03569497 -0.00313575
v -0.00231257 -0.03567220 -0.00308676
v -0.00233674 -0.03564235 -0.00304318
v -0.00236951 -0.03560513 -0.00300487
v -0.00241102 -0.03555982 -0.00297172
v -0.00247631 -0.03548924 -0.00293704
v -0.00255013 -0.03540817 -0.00291355
v -0.00228932 -0.03571406 -0.00320742
v -0.00188660 -0.03602437 -0.00321237
v -0.00130926 -0.03632517 -0.00321879
v -0.00069013 -0.03649960 -0.00322484
v -0.00074245 -0.03620582 -0.00236876
v -0.00082886 -0.03572094 -0.00157473
v -0.00088798 -0.03537082 -0.00120080
v -0.00095839 -0.03492452 -0.00088912
v -0.00100029 -0.03463824 -0.00075978
v -0.00151102 -0.03496373 -0.00094691
v -0.00146119 -0.03515349 -0.00106331
v -0.00157703 -0.03517051 -0.00110386
v -0.00144707 -0.03579976 -0.00184123
v -0.00190658 -0.03550607 -0.00168351
v -0.00167603 -0.03581148 -0.00203835
v -0.00175685 -0.03579743 -0.00209442
v -0.00202588 -0.03573685 -0.00235222
v -0.00176740 -0.03596147 -0.00259601
v -0.00237232 -0.03537972 -0.00218985
v -0.00104033 -0.03434368 -0.00915239
v -0.00095594 -0.03494069 -0.00891480
v -0.00088647 -0.03537995 -0.00860369
v -0.00082754 -0.03572855 -0.00822821
v -0.00076387 -0.03608757 -0.00767744
v -0.00071448 -0.03636071 -0.00707009
v -0.00069013 -0.03649960 -0.00658776
v -0.00130926 -0.03632517 -0.00659383
v -0.00188660 -0.03602437 -0.00660025
v -0.00228932 -0.03571406 -0.00660525
v -0.00271679 -0.03521034 -0.00691802
v -0.00251173 -0.03545049 -0.00688888
v -0.00241260 -0.03555816 -0.00684168
v -0.00235233 -0.03562439 -0.00678951
v -0.00232013 -0.03566227 -0.00674284
v -0.00230115 -0.03568771 -0.00669630
v -0.00229206 -0.03570385 -0.00665074
v -0.00265463 -0.03505208 -0.00762492
v -0.00244135 -0.03486530 -0.00828022
v -0.00226563 -0.03475673 -0.00857666
v -0.00202334 -0.03463684 -0.00883593
v -0.00175437 -0.03453091 -0.00900389
v -0.00147671 -0.03444414 -0.00909619
v -0.00126687 -0.03439098 -0.00913212
v -0.00146830 -0.03584147 -0.00787827
v -0.00174304 -0.03506618 -0.00872842
v -0.00160981 -0.03528497 -0.00859865
v -0.00172369 -0.03529922 -0.00853490
v -0.00183799 -0.03531395 -0.00844974
v -0.00193546 -0.03532654 -0.00835723
v -0.00214779 -0.03562090 -0.00753470
v 0.00127908 -0.03644088 -0.00322807
v 0.00129986 -0.03656884 -0.00471984
v 0.00129606 -0.03654541 -0.00565219
v 0.00127907 -0.03644088 -0.00658455
v 0.00040101 -0.03655193 -0.00322841
v -0.00019707 -0.03656081 -0.00322764
v -0.00069013 -0.03649960 -0.00322484
v -0.00066324 -0.03665063 -0.00432694
v -0.00066324 -0.03665063 -0.00548567
v -0.00069013 -0.03649960 -0.00658776
v -0.00019652 -0.03656083 -0.00658495
v 0.00040102 -0.03655193 -0.00658419
v 0.00350921 -0.03360995 -0.00702371
v 0.00351766 -0.03357318 -0.00703698
v 0.00352940 -0.03352978 -0.00704584
v 0.00354442 -0.03347973 -0.00705027
v 0.00353568 -0.03383884 -0.00658458
v 0.00350946 -0.03383191 -0.00672099
v 0.00349862 -0.03380481 -0.00680879
v 0.00349379 -0.03374864 -0.00690630
v 0.00349798 -0.03368058 -0.00697829
v 0.00350270 -0.03364589 -0.00700386
v 0.00127907 -0.03644088 -0.00658455
v 0.00167059 -0.03631628 -0.00658463
v 0.00212284 -0.03605058 -0.00658496
v 0.00258784 -0.03562231 -0.00658537
v 0.00300284 -0.03506251 -0.00658556
v 0.00331992 -0.03443868 -0.00658529
v 0.00126383 -0.03634551 -0.00700308
v 0.00122967 -0.03612541 -0.00748473
v 0.00117229 -0.03574543 -0.00800236
v 0.00109749 -0.03522660 -0.00847244
v 0.00101760 -0.03461816 -0.00881903
v 0.00094794 -0.03396972 -0.00903783
v 0.00206804 -0.03375920 -0.00868286
v 0.00277064 -0.03362755 -0.00825518
v 0.00317277 -0.03355195 -0.00784922
v 0.00340102 -0.03350827 -0.00746302
v 0.00347968 -0.03349278 -0.00726087
v 0.00257128 -0.03504122 -0.00758868
v 0.00287379 -0.03421807 -0.00787761
v 0.00275603 -0.03525297 -0.00699576
v 0.00165301 -0.03622474 -0.00698628
v 0.00353568 -0.03383884 -0.00658458
v 0.00368990 -0.03381070 -0.00546573
v 0.00368990 -0.03381070 -0.00434690
v 0.00353569 -0.03383885 -0.00322807
v 0.00127907 -0.03644088 -0.00658455
v 0.00167059 -0.03631628 -0.00658463
v 0.00212284 -0.03605058 -0.00658496
v 0.00258784 -0.03562231 -0.00658537
v 0.00300284 -0.03506251 -0.00658556
v 0.00331992 -0.03443868 -0.00658529
v 0.00127908 -0.03644088 -0.00322807
v 0.00129986 -0.03656884 -0.00471984
v 0.00129606 -0.03654541 -0.00565219
v 0.00307504 -0.03494023 -0.00322707
v 0.00253705 -0.03567785 -0.00322727
v 0.00202681 -0.03611868 -0.00322773
v 0.00162702 -0.03633469 -0.00322800
v 0.00190375 -0.03629675 -0.00397394
v 0.00217938 -0.03616224 -0.00484414
v 0.00193665 -0.03629356 -0.00565217
v 0.00313471 -0.03510310 -0.00471984
v 0.00331786 -0.03475104 -0.00546575
v 0.00268721 -0.03567291 -0.00555897
v 0.00094794 -0.03396973 -0.00077479
v -0.00104033 -0.03434368 -0.00066022
v -0.00069013 -0.03649960 -0.00322484
v -0.00074245 -0.03620582 -0.00236876
v -0.00082886 -0.03572094 -0.00157473
v -0.00088798 -0.03537082 -0.00120080
v -0.00095839 -0.03492452 -0.00088912
v -0.00100029 -0.03463824 -0.00075978
v 0.00127908 -0.03644088 -0.00322807
v 0.00040101 -0.03655193 -0.00322841
v -0.00019707 -0.03656081 -0.00322764
v 0.00101760 -0.03461817 -0.00099359
v 0.00109750 -0.03522660 -0.00134018
v 0.00117230 -0.03574543 -0.00181025
v 0.00122967 -0.03612541 -0.00232788
v 0.00126383 -0.03634552 -0.00280953
v 0.00586981 -0.02525757 -0.00242219
v 0.00565233 -0.02530595 -0.00191365
v 0.00524306 -0.02539033 -0.00136794
v 0.00458343 -0.02552035 -0.00080790
v 0.00368596 -0.02569299 -0.00029249
v 0.00260304 -0.02589838 0.00011040
v 0.00139570 -0.02612573 0.00035118
v 0.00101272 -0.02964656 0.00008543
v 0.00088228 -0.03182658 -0.00026321
v 0.00094794 -0.03396973 -0.00077479
v 0.00354444 -0.03347970 -0.00276234
v 0.00339925 -0.03350861 -0.00234563
v 0.00316524 -0.03355337 -0.00195355
v 0.00280053 -0.03362195 -0.00158164
v 0.00229463 -0.03371672 -0.00124404
v 0.00166405 -0.03383504 -0.00096570
v 0.00431410 -0.02672308 -0.00085078
v 0.00376282 -0.02682853 -0.00050270
v 0.00378173 -0.02740029 -0.00062015
v 0.00333615 -0.02748465 -0.00037827
v 0.00284740 -0.02757683 -0.00016315
v 0.00390529 -0.02939199 -0.00120172
v 0.00242677 -0.03261532 -0.00101657
v 0.00309631 -0.03213239 -0.00134389
v 0.00294329 -0.03144202 -0.00102606
v 0.00259057 -0.03150716 -0.00082364
v 0.00258345 -0.03294532 -0.00120528
v 0.00207824 -0.03268004 -0.00084974
v 0.00206600 -0.03160446 -0.00058567
v 0.00532825 -0.02594760 -0.00166182
v 0.00288212 -0.02881636 -0.00038583
v 0.00393321 -0.03139793 -0.00203177
v 0.00266479 -0.02948014 -0.00040828
v 0.00244937 -0.03019134 -0.00045076
v 0.00350602 -0.03277208 -0.00207180
v -0.00228932 -0.03571406 -0.00320742
v -0.00188660 -0.03602437 -0.00321237
v -0.00130926 -0.03632517 -0.00321879
v -0.00069013 -0.03649960 -0.00322484
v -0.00228822 -0.03572314 -0.00325670
v -0.00228716 -0.03573179 -0.00330572
v -0.00227179 -0.03585611 -0.00477107
v -0.00227540 -0.03582728 -0.00571490
v -0.00228932 -0.03571406 -0.00660525
v -0.00069013 -0.03649960 -0.00658776
v -0.00130926 -0.03632517 -0.00659383
v -0.00188660 -0.03602437 -0.00660025
v -0.00066324 -0.03665063 -0.00432694
v -0.00066324 -0.03665063 -0.00548567
v -0.00143266 -0.03643789 -0.00454486
v -0.00143258 -0.03644219 -0.00513296
v -0.00143297 -0.03641826 -0.00560360
v -0.00401380 -0.03110375 -0.00284944
v -0.00330669 -0.03086258 -0.00115202
v -0.00281412 -0.03074411 -0.00046856
v -0.00251247 -0.03068175 -0.00020388
v -0.00210787 -0.03060707 0.00001788
v -0.00166112 -0.03053560 0.00013478
v -0.00121239 -0.03047779 0.00016736
v -0.00376662 -0.03277372 -0.00286254
v -0.00333538 -0.03413076 -0.00287746
v -0.00304438 -0.03472201 -0.00288606
v -0.00271681 -0.03521032 -0.00289458
v -0.00104033 -0.03434368 -0.00066022
v -0.00155086 -0.03446535 -0.00073511
v -0.00183668 -0.03456078 -0.00085009
v -0.00209049 -0.03466737 -0.00103590
v -0.00228280 -0.03476637 -0.00125990
v -0.00243944 -0.03486398 -0.00152843
v -0.00259151 -0.03498488 -0.00192930
v -0.00268765 -0.03509851 -0.00238254
v -0.00271546 -0.03516448 -0.00268221
v -0.00120217 -0.03247024 -0.00017565
v -0.00205862 -0.03156217 -0.00010602
v -0.00252963 -0.03129709 -0.00030186
v -0.00237558 -0.03160683 -0.00025449
v -0.00313473 -0.03200408 -0.00108907
v -0.00180202 -0.03356006 -0.00049482
v -0.00371692 -0.03173236 -0.00221161
v -0.00300879 -0.03268837 -0.00108698
v -0.00203600 -0.03397120 -0.00070245
v -0.00195998 -0.03360571 -0.00055248
v -0.00211108 -0.03365334 -0.00062634
v -0.00289728 -0.03347454 -0.00122429
v -0.00221573 -0.03403931 -0.00082131
v -0.00322709 -0.03401119 -0.00223393
v -0.00226985 -0.03224286 -0.00032255
v -0.00220741 -0.03256633 -0.00036621
v -0.00218690 -0.03293180 -0.00044810
v -0.00121240 -0.03047779 -0.00997998
v -0.00120217 -0.03247015 -0.00963698
v -0.00104033 -0.03434368 -0.00915239
v -0.00271679 -0.03521034 -0.00691802
v -0.00265463 -0.03505208 -0.00762492
v -0.00244135 -0.03486530 -0.00828022
v -0.00226563 -0.03475673 -0.00857666
v -0.00202334 -0.03463684 -0.00883593
v -0.00175437 -0.03453091 -0.00900389
v -0.00147671 -0.03444414 -0.00909619
v -0.00126687 -0.03439098 -0.00913212
v -0.00326605 -0.03428839 -0.00693301
v -0.00368050 -0.03311758 -0.00694685
v -0.00392665 -0.03191728 -0.00695671
v -0.00401380 -0.03110375 -0.00696316
v -0.00185794 -0.03056562 -0.00990927
v -0.00226983 -0.03063582 -0.00975742
v -0.00265914 -0.03071128 -0.00949229
v -0.00297082 -0.03077921 -0.00916444
v -0.00333600 -0.03087049 -0.00860795
v -0.00368004 -0.03097407 -0.00787294
v -0.00233018 -0.03126699 -0.00963927
v -0.00196907 -0.03155062 -0.00973545
v -0.00215338 -0.03157483 -0.00967024
v -0.00302147 -0.03207958 -0.00886911
v -0.00175137 -0.03354624 -0.00933264
v -0.00360624 -0.03184913 -0.00784222
v -0.00298648 -0.03284387 -0.00870739
v -0.00370994 -0.03187425 -0.00757578
v -0.00199750 -0.03395754 -0.00913106
v -0.00194492 -0.03360113 -0.00926646
v -0.00211313 -0.03365396 -0.00918515
v -0.00220852 -0.03403639 -0.00899683
v -0.00287456 -0.03357665 -0.00857266
v -0.00316995 -0.03416530 -0.00756841
v -0.00219460 -0.03227763 -0.00951715
v -0.00220030 -0.03263842 -0.00943240
v -0.00218156 -0.03297994 -0.00935414
v 0.00127907 -0.03644088 -0.00658455
v 0.00126383 -0.03634551 -0.00700308
v 0.00122967 -0.03612541 -0.00748473
v 0.00117229 -0.03574543 -0.00800236
v 0.00109749 -0.03522660 -0.00847244
v 0.00101760 -0.03461816 -0.00881903
v 0.00094794 -0.03396972 -0.00903783
v -0.00069013 -0.03649960 -0.00658776
v -0.00019652 -0.03656083 -0.00658495
v 0.00040102 -0.03655193 -0.00658419
v -0.00104033 -0.03434368 -0.00915239
v -0.00095594 -0.03494069 -0.00891480
v -0.00088647 -0.03537995 -0.00860369
v -0.00082754 -0.03572855 -0.00822821
v -0.00076387 -0.03608757 -0.00767744
v -0.00071448 -0.03636071 -0.00707009
v 0.00586981 -0.02525757 -0.00739042
v 0.00354442 -0.03347973 -0.00705027
v 0.00094794 -0.03396972 -0.00903783
v 0.00206804 -0.03375920 -0.00868286
v 0.00277064 -0.03362755 -0.00825518
v 0.00317277 -0.03355195 -0.00784922
v 0.00340102 -0.03350827 -0.00746302
v 0.00347968 -0.03349278 -0.00726087
v 0.00089567 -0.03139296 -0.00963187
v 0.00109810 -0.02876830 -0.00999516
v 0.00139570 -0.02612573 -0.01016379
v 0.00310064 -0.02580427 -0.00976268
v 0.00449098 -0.02553831 -0.00906796
v 0.00527057 -0.02538479 -0.00841531
v 0.00565993 -0.02530433 -0.00788536
v 0.00578048 -0.02527792 -0.00763422
v 0.00440175 -0.02641846 -0.00896056
v 0.00380554 -0.02653278 -0.00933500
v 0.00388868 -0.02694839 -0.00921150
v 0.00344910 -0.02703189 -0.00944991
v 0.00286670 -0.02714197 -0.00970173
v 0.00398512 -0.02908892 -0.00862880
v 0.00297993 -0.03272828 -0.00837497
v 0.00246590 -0.03239258 -0.00883268
v 0.00240178 -0.03111080 -0.00918377
v 0.00303305 -0.03099399 -0.00884618
v 0.00278325 -0.03233393 -0.00864712
v 0.00259754 -0.03279913 -0.00863989
v 0.00207484 -0.03246513 -0.00901827
v 0.00299569 -0.02826778 -0.00947107
v 0.00277563 -0.02888423 -0.00946547
v 0.00397752 -0.03124569 -0.00778917
v 0.00264356 -0.02962791 -0.00938512
v 0.00376609 -0.03114444 -0.00814600
v 0.00359861 -0.03218114 -0.00790643
v 0.00359178 -0.03261193 -0.00768179
v 0.00351372 -0.03219760 -0.00801584
v 0.00354274 -0.03348513 -0.00276257
v 0.00351964 -0.03356468 -0.00277268
v 0.00350608 -0.03362606 -0.00279697
v 0.00349824 -0.03367744 -0.00283133
v 0.00349434 -0.03372412 -0.00287615
v 0.00349424 -0.03376849 -0.00293489
v 0.00349824 -0.03380362 -0.00300050
v 0.00350632 -0.03382734 -0.00307048
v 0.00351532 -0.03383730 -0.00312691
v 0.00352358 -0.03383974 -0.00317001
v 0.00353569 -0.03383885 -0.00322807
v 0.00354444 -0.03347970 -0.00276234
v 0.00586981 -0.02525757 -0.00242219
v 0.00586981 -0.02525757 -0.00739042
v 0.00621769 -0.02517750 -0.00573435
v 0.00621769 -0.02517750 -0.00407827
v 0.00354442 -0.03347973 -0.00705027
v 0.00350921 -0.03360995 -0.00702371
v 0.00351766 -0.03357318 -0.00703698
v 0.00352940 -0.03352978 -0.00704584
v 0.00353568 -0.03383884 -0.00658458
v 0.00350946 -0.03383191 -0.00672099
v 0.00349862 -0.03380481 -0.00680879
v 0.00349379 -0.03374864 -0.00690630
v 0.00349798 -0.03368058 -0.00697829
v 0.00350270 -0.03364589 -0.00700386
v 0.00368990 -0.03381070 -0.00546573
v 0.00368990 -0.03381070 -0.00434690
v -0.00073641 -0.02652674 0.00046958
v 0.00139570 -0.02612573 0.00035118
v -0.00121239 -0.03047779 0.00016736
v -0.00106470 -0.02854355 0.00036429
v -0.00104033 -0.03434368 -0.00066022
v -0.00120217 -0.03247024 -0.00017565
v 0.00094794 -0.03396973 -0.00077479
v 0.00101272 -0.02964656 0.00008543
v 0.00088228 -0.03182658 -0.00026321
v 0.00278438 -0.02183038 0.00036498
v 0.00481751 -0.02206168 -0.00007479
v 0.00568138 -0.02214846 -0.00046259
v 0.00621502 -0.02219667 -0.00083037
v 0.00671240 -0.02223502 -0.00135656
v 0.00697803 -0.02225087 -0.00179547
v 0.00718183 -0.02226009 -0.00228264
v 0.00139570 -0.02612573 0.00035118
v 0.00171951 -0.02431617 0.00038098
v 0.00217806 -0.02301802 0.00037807
v 0.00586981 -0.02525757 -0.00242219
v 0.00565233 -0.02530595 -0.00191365
v 0.00524306 -0.02539033 -0.00136794
v 0.00458343 -0.02552035 -0.00080790
v 0.00368596 -0.02569299 -0.00029249
v 0.00260304 -0.02589838 0.00011040
v 0.00626745 -0.02402208 -0.00236751
v 0.00673922 -0.02302049 -0.00231958
v 0.00638792 -0.02302672 -0.00157682
v 0.00554583 -0.02387708 -0.00109161
v 0.00521246 -0.02389469 -0.00081887
v 0.00492409 -0.02390923 -0.00062466
v 0.00449256 -0.02393030 -0.00038371
v 0.00401388 -0.02395311 -0.00016805
v 0.00270269 -0.02515545 0.00013859
v -0.00073641 -0.02652674 -0.01028219
v -0.00157968 -0.02668641 -0.01017672
v -0.00198273 -0.02676306 -0.01002927
v -0.00242797 -0.02684767 -0.00974701
v -0.00278787 -0.02691579 -0.00938823
v -0.00318956 -0.02699121 -0.00879031
v -0.00355785 -0.02705940 -0.00799605
v -0.00390831 -0.02712331 -0.00700273
v -0.00408234 -0.02915478 -0.00699746
v -0.00401380 -0.03110375 -0.00696316
v -0.00121240 -0.03047779 -0.00997998
v -0.00185794 -0.03056562 -0.00990927
v -0.00226983 -0.03063582 -0.00975742
v -0.00265914 -0.03071128 -0.00949229
v -0.00297082 -0.03077921 -0.00916444
v -0.00333600 -0.03087049 -0.00860795
v -0.00368004 -0.03097407 -0.00787294
v -0.00106470 -0.02854355 -0.01017690
v -0.00194512 -0.02969180 -0.00998303
v -0.00233031 -0.03008320 -0.00979116
v -0.00214430 -0.02974156 -0.00991065
v -0.00242369 -0.02888082 -0.00982055
v -0.00178683 -0.02774075 -0.01012119
v -0.00201017 -0.02779478 -0.01004404
v -0.00216365 -0.02749226 -0.00996756
v -0.00384551 -0.03014966 -0.00763794
v -0.00395629 -0.03021252 -0.00732710
v -0.00379813 -0.02808493 -0.00767892
v -0.00330236 -0.02954741 -0.00884973
v -0.00351853 -0.02911518 -0.00847071
v -0.00327578 -0.02855140 -0.00889855
v -0.00326692 -0.02805227 -0.00886735
v -0.00228716 -0.03573179 -0.00330572
v -0.00228822 -0.03572314 -0.00325670
v -0.00227179 -0.03585611 -0.00477107
v -0.00227540 -0.03582728 -0.00571490
v -0.00228932 -0.03571406 -0.00660525
v -0.00271679 -0.03521034 -0.00691802
v -0.00251173 -0.03545049 -0.00688888
v -0.00241260 -0.03555816 -0.00684168
v -0.00235233 -0.03562439 -0.00678951
v -0.00232013 -0.03566227 -0.00674284
v -0.00230115 -0.03568771 -0.00669630
v -0.00229206 -0.03570385 -0.00665074
v -0.00326605 -0.03428839 -0.00693301
v -0.00368050 -0.03311758 -0.00694685
v -0.00392665 -0.03191728 -0.00695671
v -0.00401380 -0.03110375 -0.00696316
v -0.00426132 -0.03122722 -0.00576925
v -0.00429492 -0.03124398 -0.00447174
v -0.00420435 -0.03119880 -0.00362695
v -0.00401380 -0.03110375 -0.00284944
v -0.00376662 -0.03277372 -0.00286254
v -0.00333538 -0.03413076 -0.00287746
v -0.00304438 -0.03472201 -0.00288606
v -0.00271681 -0.03521032 -0.00289458
v -0.00270509 -0.03522507 -0.00289487
v -0.00228977 -0.03571077 -0.00319031
v -0.00229693 -0.03569497 -0.00313575
v -0.00231257 -0.03567220 -0.00308676
v -0.00233674 -0.03564235 -0.00304318
v -0.00236951 -0.03560513 -0.00300487
v -0.00241102 -0.03555982 -0.00297172
v -0.00247631 -0.03548924 -0.00293704
v -0.00255013 -0.03540817 -0.00291355
v -0.00228932 -0.03571406 -0.00320742
v -0.00279472 -0.03523461 -0.00588759
v -0.00300270 -0.03497289 -0.00486096
v -0.00353087 -0.03399059 -0.00561823
v -0.00336592 -0.03435785 -0.00490631
v -0.00283890 -0.03516458 -0.00379428
v -0.00364265 -0.03378282 -0.00490631
v -0.00390897 -0.03309945 -0.00490631
v -0.00414977 -0.03205275 -0.00577057
v -0.00374550 -0.03348251 -0.00419071
v -0.00412943 -0.03234501 -0.00476097
v -0.00390831 -0.02712331 -0.00280987
v -0.00318963 -0.02405426 -0.00283223
v -0.00241990 -0.02217211 -0.00284544
v -0.00137587 -0.02036426 -0.00284944
v 0.00114867 -0.02126188 0.00047807
v 0.00098110 -0.02114843 0.00045453
v 0.00080469 -0.02104764 0.00038131
v 0.00061514 -0.02095593 0.00025877
v 0.00033854 -0.02083975 0.00002056
v -0.00008880 -0.02068268 -0.00045968
v -0.00067068 -0.02050250 -0.00133538
v -0.00112096 -0.02039747 -0.00222822
v 0.00002848 -0.02384179 0.00050391
v -0.00073641 -0.02652674 0.00046958
v -0.00157967 -0.02668641 0.00036411
v -0.00198272 -0.02676307 0.00021666
v -0.00242796 -0.02684767 -0.00006560
v -0.00278785 -0.02691579 -0.00042437
v -0.00318954 -0.02699121 -0.00102227
v -0.00355783 -0.02705940 -0.00181653
v -0.00151571 -0.02567538 0.00034519
v -0.00182190 -0.02571875 0.00020836
v -0.00124411 -0.02515445 0.00039160
v -0.00146539 -0.02517288 0.00030803
v -0.00238086 -0.02488011 -0.00059543
v -0.00324656 -0.02556073 -0.00181740
v -0.00337247 -0.02557361 -0.00213003
v -0.00205129 -0.02386044 -0.00071544
v -0.00349596 -0.02558653 -0.00245880
v -0.00011309 -0.02228754 0.00027789
v 0.00002487 -0.02181134 0.00020156
v -0.00233792 -0.02330392 -0.00156437
v -0.00165720 -0.02297597 -0.00074619
v -0.00116072 -0.02218228 -0.00065153
v -0.00146640 -0.02131181 -0.00180931
v -0.00167039 -0.02128204 -0.00222616
v -0.00118912 -0.02422415 0.00025628
v -0.00102453 -0.02375922 0.00022226
v -0.00083387 -0.02335547 0.00021090
v -0.00126147 -0.02351273 -0.00003578
v -0.00059505 -0.02298949 0.00023344
v -0.00401380 -0.03110375 -0.00284944
v -0.00408237 -0.02915558 -0.00281514
v -0.00390831 -0.02712331 -0.00280987
v -0.00073641 -0.02652674 0.00046958
v -0.00157967 -0.02668641 0.00036411
v -0.00198272 -0.02676307 0.00021666
v -0.00242796 -0.02684767 -0.00006560
v -0.00278785 -0.02691579 -0.00042437
v -0.00318954 -0.02699121 -0.00102227
v -0.00355783 -0.02705940 -0.00181653
v -0.00121239 -0.03047779 0.00016736
v -0.00106470 -0.02854355 0.00036429
v -0.00330669 -0.03086258 -0.00115202
v -0.00281412 -0.03074411 -0.00046856
v -0.00251247 -0.03068175 -0.00020388
v -0.00210787 -0.03060707 0.00001788
v -0.00166112 -0.03053560 0.00013478
v -0.00204179 -0.02971569 0.00013827
v -0.00235690 -0.02886187 0.00004883
v -0.00178682 -0.02774076 0.00030858
v -0.00201016 -0.02779478 0.00023143
v -0.00216364 -0.02749227 0.00015495
v -0.00383624 -0.03014515 -0.00214984
v -0.00379816 -0.02808536 -0.00213367
v -0.00329085 -0.03002088 -0.00098977
v -0.00327120 -0.02953624 -0.00091203
v -0.00350052 -0.02910845 -0.00130567
v -0.00325218 -0.02854394 -0.00087581
v -0.00325140 -0.02804791 -0.00091926
v -0.00273338 -0.02987144 -0.00028508
v 0.00718183 -0.02226009 -0.00752997
v 0.00635093 -0.02382418 -0.00745444
v 0.00586981 -0.02525757 -0.00739042
v 0.00139570 -0.02612573 -0.01016379
v 0.00310064 -0.02580427 -0.00976268
v 0.00449098 -0.02553831 -0.00906796
v 0.00527057 -0.02538479 -0.00841531
v 0.00565993 -0.02530433 -0.00788536
v 0.00578048 -0.02527792 -0.00763422
v 0.00278438 -0.02183038 -0.01017760
v 0.00206997 -0.02327498 -0.01019218
v 0.00159694 -0.02482290 -0.01019051
v 0.00685629 -0.02224414 -0.00823955
v 0.00642582 -0.02221395 -0.00878998
v 0.00590056 -0.02216890 -0.00921525
v 0.00525131 -0.02210634 -0.00956692
v 0.00407545 -0.02198119 -0.00995120
v 0.00566298 -0.02387060 -0.00860775
v 0.00541719 -0.02388400 -0.00883381
v 0.00499392 -0.02390575 -0.00914375
v 0.00465564 -0.02392242 -0.00934379
v 0.00397487 -0.02395495 -0.00966016
v 0.00345905 -0.02327033 -0.00993241
v 0.00094794 -0.03396972 -0.00903783
v 0.00089567 -0.03139296 -0.00963187
v 0.00109810 -0.02876830 -0.00999516
v 0.00139570 -0.02612573 -0.01016379
v -0.00104033 -0.03434368 -0.00915239
v -0.00121240 -0.03047779 -0.00997998
v -0.00120217 -0.03247015 -0.00963698
v -0.00073641 -0.02652674 -0.01028219
v -0.00106470 -0.02854355 -0.01017690
v -0.00137586 -0.02036427 -0.00696316
v -0.00082233 -0.02046296 -0.00820060
v -0.00000421 -0.02071211 -0.00945839
v 0.00042331 -0.02087377 -0.00991269
v 0.00072514 -0.02100750 -0.01014725
v 0.00092159 -0.02111233 -0.01024768
v 0.00104705 -0.02119126 -0.01028174
v 0.00114867 -0.02126188 -0.01029069
v -0.00259478 -0.02254150 -0.00696910
v -0.00342650 -0.02482657 -0.00698713
v -0.00390831 -0.02712331 -0.00700273
v -0.00073641 -0.02652674 -0.01028219
v -0.00157968 -0.02668641 -0.01017672
v -0.00198273 -0.02676306 -0.01002927
v -0.00242797 -0.02684767 -0.00974701
v -0.00278787 -0.02691579 -0.00938823
v -0.00318956 -0.02699121 -0.00879031
v -0.00355785 -0.02705940 -0.00799605
v 0.00002848 -0.02384179 -0.01031653
v -0.00151572 -0.02567538 -0.01015780
v -0.00182191 -0.02571875 -0.01002097
v -0.00124412 -0.02515444 -0.01020421
v -0.00146540 -0.02517289 -0.01012064
v -0.00246391 -0.02512273 -0.00922395
v -0.00334061 -0.02593918 -0.00799779
v -0.00346375 -0.02595465 -0.00768393
v -0.00219672 -0.02421977 -0.00910948
v -0.00358438 -0.02597002 -0.00735428
v -0.00006495 -0.02229740 -0.01011722
v -0.00248978 -0.02367302 -0.00825524
v -0.00173939 -0.02315122 -0.00907242
v 0.00008730 -0.02182705 -0.01005583
v -0.00119030 -0.02229967 -0.00920244
v -0.00153607 -0.02149320 -0.00806442
v -0.00182559 -0.02145482 -0.00747037
v -0.00123515 -0.02433495 -0.01007117
v -0.00109835 -0.02392280 -0.01003921
v -0.00087266 -0.02343564 -0.01002580
v -0.00133899 -0.02368029 -0.00978254
v -0.00060424 -0.02304323 -0.01005760
v 0.00114867 -0.02126188 0.00047807
v 0.00002848 -0.02384179 0.00050391
v -0.00073641 -0.02652674 0.00046958
v 0.00169150 -0.02156746 0.00047468
v 0.00223565 -0.02174264 0.00043303
v 0.00278438 -0.02183038 0.00036498
v 0.00139570 -0.02612573 0.00035118
v 0.00171951 -0.02431617 0.00038098
v 0.00217806 -0.02301802 0.00037807
v 0.00192858 -0.01881117 0.00040816
v 0.00174546 -0.01877627 0.00036797
v 0.00153893 -0.01873742 0.00027693
v 0.00132161 -0.01869679 0.00013810
v 0.00103136 -0.01864269 -0.00011480
v 0.00072178 -0.01858500 -0.00047906
v 0.00000142 -0.01845043 -0.00182625
v -0.00038856 -0.01837983 -0.00284973
v -0.00065347 -0.01912603 -0.00284966
v -0.00100715 -0.01979584 -0.00284958
v -0.00137587 -0.02036426 -0.00284944
v 0.00114867 -0.02126188 0.00047807
v 0.00098110 -0.02114843 0.00045453
v 0.00080469 -0.02104764 0.00038131
v 0.00061514 -0.02095593 0.00025877
v 0.00033854 -0.02083975 0.00002056
v -0.00008880 -0.02068268 -0.00045968
v -0.00067068 -0.02050250 -0.00133538
v -0.00112096 -0.02039747 -0.00222822
v 0.00003755 -0.01981841 -0.00086058
v -0.00401380 -0.03110375 -0.00284944
v -0.00408237 -0.02915558 -0.00281514
v -0.00390831 -0.02712331 -0.00280987
v -0.00401380 -0.03110375 -0.00696316
v -0.00426132 -0.03122722 -0.00576925
v -0.00429492 -0.03124398 -0.00447174
v -0.00420435 -0.03119880 -0.00362695
v -0.00390831 -0.02712331 -0.00700273
v -0.00408234 -0.02915478 -0.00699746
v -0.00137586 -0.02036427 -0.00696316
v -0.00259478 -0.02254150 -0.00696910
v -0.00342650 -0.02482657 -0.00698713
v -0.00137587 -0.02036426 -0.00284944
v -0.00165093 -0.02035567 -0.00404335
v -0.00168827 -0.02035450 -0.00534086
v -0.00158761 -0.02035765 -0.00618566
v -0.00318963 -0.02405426 -0.00283223
v -0.00241990 -0.02217211 -0.00284544
v -0.00220968 -0.02126318 -0.00404267
v -0.00249199 -0.02169066 -0.00505165
v -0.00304419 -0.02293196 -0.00418213
v -0.00282970 -0.02237001 -0.00490630
v -0.00322743 -0.02331554 -0.00490630
v -0.00361641 -0.02447691 -0.00490630
v -0.00382677 -0.02538531 -0.00417682
v -0.00338062 -0.02382486 -0.00563235
v -0.00399546 -0.02604258 -0.00490630
v -0.00418416 -0.02719281 -0.00490630
v -0.00403870 -0.02642340 -0.00563759
v -0.00429617 -0.02860259 -0.00417465
v -0.00429954 -0.02827192 -0.00490630
v -0.00424072 -0.02791224 -0.00563852
v -0.00435435 -0.02925535 -0.00490630
v -0.00425548 -0.03038465 -0.00361841
v -0.00436085 -0.03007195 -0.00475992
v -0.00431061 -0.03040844 -0.00577469
v 0.00278438 -0.02183038 -0.01017760
v 0.00205299 -0.02169615 -0.01026310
v 0.00160191 -0.02152698 -0.01029084
v 0.00114867 -0.02126188 -0.01029069
v -0.00073641 -0.02652674 -0.01028219
v 0.00002848 -0.02384179 -0.01031653
v 0.00139570 -0.02612573 -0.01016379
v 0.00206997 -0.02327498 -0.01019218
v 0.00159694 -0.02482290 -0.01019051
v 0.00114867 -0.02126188 -0.01029069
v 0.00192858 -0.01881116 -0.01022078
v -0.00137586 -0.02036427 -0.00696316
v -0.00082233 -0.02046296 -0.00820060
v -0.00000421 -0.02071211 -0.00945839
v 0.00042331 -0.02087377 -0.00991269
v 0.00072514 -0.02100750 -0.01014725
v 0.00092159 -0.02111233 -0.01024768
v 0.00104705 -0.02119126 -0.01028174
v -0.00082296 -0.01947252 -0.00696299
v -0.00038856 -0.01837983 -0.00696287
v 0.00030452 -0.01850703 -0.00865028
v 0.00091264 -0.01862057 -0.00957056
v 0.00134087 -0.01870038 -0.00996473
v 0.00165334 -0.01875890 -0.01014519
v 0.00179818 -0.01878626 -0.01019666
v -0.00092621 -0.02001208 -0.00746355
v 0.00415371 -0.01920382 0.00023643
v 0.00192858 -0.01881117 0.00040816
v 0.00114867 -0.02126188 0.00047807
v 0.00169150 -0.02156746 0.00047468
v 0.00223565 -0.02174264 0.00043303
v 0.00278438 -0.02183038 0.00036498
v 0.00273942 -0.02077188 0.00040014
v 0.00182440 -0.02121798 0.00047222
v -0.00081283 -0.01496174 -0.00284944
v -0.00046240 -0.01469131 -0.00197698
v 0.00010017 -0.01433925 -0.00117318
v 0.00086628 -0.01394712 -0.00045416
v 0.00162102 -0.01362673 0.00001005
v 0.00236955 -0.01336246 0.00026764
v -0.00035394 -0.01618738 -0.00284977
v -0.00023884 -0.01702189 -0.00284983
v -0.00026128 -0.01769778 -0.00284981
v -0.00038856 -0.01837983 -0.00284973
v 0.00192858 -0.01881117 0.00040816
v 0.00174546 -0.01877627 0.00036797
v 0.00153893 -0.01873742 0.00027693
v 0.00132161 -0.01869679 0.00013810
v 0.00103136 -0.01864269 -0.00011480
v 0.00072178 -0.01858500 -0.00047906
v 0.00000142 -0.01845043 -0.00182625
v 0.00228734 -0.01594216 0.00030832
v 0.00203875 -0.01448866 0.00018342
v 0.00168099 -0.01458125 0.00003129
v 0.00126066 -0.01470297 -0.00022309
v 0.00046208 -0.01531970 -0.00101829
v 0.00179970 -0.01773937 0.00027496
v 0.00165604 -0.01770849 0.00020066
v 0.00149030 -0.01767437 0.00009589
v 0.00059454 -0.01605262 -0.00092327
v 0.00069684 -0.01704991 -0.00077990
v 0.00182688 -0.01520783 0.00012001
v 0.00141608 -0.01597529 -0.00008832
v -0.00038856 -0.01837983 -0.00284973
v -0.00065347 -0.01912603 -0.00284966
v -0.00100715 -0.01979584 -0.00284958
v -0.00137587 -0.02036426 -0.00284944
v -0.00081283 -0.01496174 -0.00284944
v -0.00035394 -0.01618738 -0.00284977
v -0.00023884 -0.01702189 -0.00284983
v -0.00026128 -0.01769778 -0.00284981
v -0.00081283 -0.01496174 -0.00696316
v -0.00101497 -0.01513630 -0.00576925
v -0.00104242 -0.01516000 -0.00447175
v -0.00096845 -0.01509612 -0.00362695
v -0.00035394 -0.01618738 -0.00696284
v -0.00023884 -0.01702189 -0.00696278
v -0.00026129 -0.01769778 -0.00696281
v -0.00038856 -0.01837983 -0.00696287
v -0.00137586 -0.02036427 -0.00696316
v -0.00082296 -0.01947252 -0.00696299
v -0.00165093 -0.02035567 -0.00404335
v -0.00168827 -0.02035450 -0.00534086
v -0.00158761 -0.02035765 -0.00618566
v -0.00064050 -0.01821641 -0.00418494
v -0.00073303 -0.01843871 -0.00490630
v -0.00053680 -0.01756246 -0.00418492
v -0.00065290 -0.01811552 -0.00490630
v -0.00059635 -0.01778983 -0.00490630
v -0.00056390 -0.01746560 -0.00490630
v -0.00059515 -0.01799857 -0.00562767
v -0.00055520 -0.01714683 -0.00490630
v -0.00052380 -0.01734656 -0.00562769
v 0.00415371 -0.01920382 -0.01004905
v 0.00278438 -0.02183038 -0.01017760
v 0.00205299 -0.02169615 -0.01026310
v 0.00160191 -0.02152698 -0.01029084
v 0.00114867 -0.02126188 -0.01029069
v 0.00192858 -0.01881116 -0.01022078
v 0.00236955 -0.01336246 -0.01008026
v 0.00225468 -0.01632678 -0.01013223
v 0.00192858 -0.01881116 -0.01022078
v -0.00038856 -0.01837983 -0.00696287
v 0.00030452 -0.01850703 -0.00865028
v 0.00091264 -0.01862057 -0.00957056
v 0.00134087 -0.01870038 -0.00996473
v 0.00165334 -0.01875890 -0.01014519
v 0.00179818 -0.01878626 -0.01019666
v -0.00081283 -0.01496174 -0.00696316
v -0.00035394 -0.01618738 -0.00696284
v -0.00023884 -0.01702189 -0.00696278
v -0.00026129 -0.01769778 -0.00696281
v 0.00160863 -0.01363154 -0.00981671
v 0.00084311 -0.01395790 -0.00934077
v 0.00017221 -0.01429881 -0.00872080
v -0.00034840 -0.01461370 -0.00803158
v -0.00061899 -0.01480517 -0.00751602
v 0.00203233 -0.01463836 -0.00999760
v 0.00167231 -0.01472485 -0.00984160
v 0.00131087 -0.01482172 -0.00962295
v 0.00049361 -0.01539357 -0.00882230
v 0.00179362 -0.01787455 -0.01009751
v 0.00158053 -0.01782650 -0.00998229
v 0.00060007 -0.01619206 -0.00888979
v 0.00122146 -0.01775011 -0.00970882
v 0.00055591 -0.01712023 -0.00881753
v 0.00140870 -0.01622579 -0.00973203
f 9 11 10
f 1 12 11
f 1 13 12
f 2 9 8
f 2 11 9
f 2 1 11
f 3 2 8
f 6 8 7
f 6 3 8
f 4 3 6
f 5 4 6
f 15 14 16
f 18 17 19
f 29 30 31
f 29 31 32
f 28 32 33
f 28 29 32
f 27 33 34
f 27 28 33
f 23 21 22
f 26 27 34
f 25 34 35
f 25 26 34
f 37 20 21
f 37 23 24
f 37 24 25
f 37 35 36
f 37 36 20
f 37 21 23
f 37 25 35
f 39 54 38
f 40 53 54
f 40 54 39
f 41 52 53
f 41 53 40
f 46 47 48
f 42 51 52
f 42 52 41
f 43 50 51
f 43 51 42
f 44 49 50
f 44 50 43
f 45 48 49
f 45 46 48
f 45 49 44
f 58 60 59
f 61 58 57
f 61 60 58
f 56 61 57
f 62 56 55
f 62 61 56
f 64 55 65
f 64 62 55
f 63 62 64
f 75 70 71
f 82 67 68
f 83 68 69
f 83 69 70
f 83 82 68
f 83 70 75
f 84 82 85
f 86 82 83
f 86 85 82
f 87 75 74
f 87 86 83
f 87 83 75
f 88 89 90
f 91 80 81
f 92 77 78
f 92 78 79
f 92 79 80
f 92 80 91
f 93 77 92
f 93 91 88
f 93 92 91
f 94 73 72
f 94 72 76
f 94 76 77
f 94 77 93
f 95 66 67
f 95 81 66
f 95 67 82
f 95 82 84
f 96 84 89
f 96 89 88
f 96 81 95
f 96 95 84
f 97 85 86
f 97 86 87
f 97 87 74
f 98 85 97
f 98 84 85
f 98 89 84
f 99 96 88
f 99 91 81
f 99 88 91
f 99 81 96
f 100 74 73
f 100 73 90
f 100 97 74
f 100 90 89
f 100 98 97
f 100 89 98
f 101 90 73
f 101 88 90
f 102 93 88
f 102 88 101
f 103 101 73
f 103 102 101
f 104 73 94
f 104 94 93
f 104 103 73
f 104 93 102
f 104 102 103
f 115 110 111
f 122 105 106
f 123 106 107
f 123 107 108
f 123 108 109
f 123 109 110
f 123 110 115
f 123 122 106
f 124 123 115
f 125 115 114
f 125 124 115
f 126 124 125
f 127 121 122
f 127 122 123
f 127 123 124
f 127 124 126
f 128 121 127
f 128 127 126
f 128 126 125
f 129 120 121
f 129 130 120
f 129 121 128
f 131 120 130
f 131 130 132
f 131 132 113
f 133 113 112
f 133 112 116
f 134 116 117
f 134 113 133
f 134 131 113
f 134 133 116
f 135 120 131
f 135 134 117
f 135 131 134
f 136 117 118
f 136 118 119
f 136 119 120
f 136 135 117
f 136 120 135
f 137 114 113
f 137 132 130
f 137 125 114
f 137 113 132
f 137 128 125
f 137 130 129
f 137 129 128
f 139 138 148
f 147 139 148
f 140 139 147
f 146 141 140
f 146 142 141
f 146 140 147
f 144 143 142
f 145 144 142
f 145 142 146
f 166 149 150
f 167 152 153
f 167 153 154
f 168 152 167
f 169 150 151
f 169 151 152
f 169 166 150
f 169 152 168
f 170 168 167
f 171 154 155
f 171 167 154
f 171 170 167
f 172 168 170
f 173 169 168
f 173 168 172
f 174 165 166
f 174 166 169
f 174 169 173
f 175 176 177
f 178 157 156
f 179 156 158
f 179 158 159
f 179 159 160
f 179 178 156
f 180 175 178
f 180 179 160
f 180 178 179
f 181 160 161
f 181 161 162
f 181 162 163
f 181 163 164
f 181 180 160
f 182 155 157
f 182 171 155
f 182 177 171
f 182 175 177
f 183 172 170
f 183 174 173
f 183 165 174
f 183 173 172
f 184 170 171
f 184 183 170
f 184 171 177
f 185 182 157
f 185 157 178
f 185 178 175
f 185 175 182
f 186 164 165
f 186 176 164
f 186 183 184
f 186 177 176
f 186 165 183
f 186 184 177
f 187 164 176
f 187 176 175
f 188 175 180
f 188 187 175
f 189 164 187
f 189 187 188
f 190 189 188
f 190 181 164
f 190 180 181
f 190 164 189
f 190 188 180
f 202 192 193
f 202 193 194
f 202 194 195
f 202 195 196
f 202 196 197
f 202 197 198
f 202 198 199
f 202 199 200
f 202 200 201
f 205 191 192
f 205 202 203
f 205 203 204
f 205 204 191
f 205 192 202
f 219 206 207
f 219 207 208
f 219 208 209
f 219 209 210
f 219 210 211
f 219 211 212
f 219 212 213
f 219 213 214
f 219 214 215
f 220 215 216
f 220 216 217
f 220 217 218
f 220 218 219
f 220 219 215
f 222 240 239
f 222 239 221
f 241 240 222
f 242 241 222
f 223 242 222
f 235 247 246
f 235 248 247
f 235 234 248
f 228 226 227
f 229 225 226
f 229 226 228
f 238 237 231
f 232 238 231
f 233 238 232
f 249 223 224
f 249 224 225
f 249 242 223
f 249 225 229
f 250 229 230
f 250 230 231
f 250 237 236
f 250 243 242
f 250 249 229
f 250 242 249
f 250 231 237
f 251 236 235
f 251 244 243
f 251 245 244
f 251 246 245
f 251 250 236
f 251 243 250
f 251 235 246
f 253 279 252
f 262 260 261
f 270 260 262
f 273 274 275
f 264 272 265
f 263 272 264
f 271 272 263
f 280 253 254
f 280 278 279
f 280 279 253
f 281 276 277
f 281 277 278
f 281 278 280
f 282 254 255
f 282 280 254
f 282 281 280
f 283 275 276
f 283 281 282
f 283 273 275
f 283 276 281
f 284 255 256
f 284 256 257
f 284 282 255
f 284 283 282
f 285 283 284
f 286 285 284
f 287 267 266
f 287 268 267
f 287 269 268
f 287 286 284
f 288 266 265
f 288 272 273
f 288 286 287
f 288 273 283
f 288 283 285
f 288 285 286
f 288 287 266
f 288 265 272
f 289 257 258
f 289 258 259
f 289 259 260
f 289 270 269
f 289 260 270
f 289 284 257
f 289 269 287
f 289 287 284
f 291 312 313
f 291 313 290
f 297 295 296
f 301 300 307
f 305 304 298
f 306 305 298
f 299 306 298
f 314 293 294
f 314 294 295
f 314 297 298
f 314 295 297
f 315 309 310
f 315 310 311
f 315 311 312
f 315 312 291
f 316 291 292
f 316 292 293
f 316 293 314
f 316 315 291
f 317 316 314
f 317 315 316
f 318 317 314
f 318 315 317
f 319 308 309
f 319 309 315
f 319 315 318
f 319 318 314
f 320 302 301
f 320 303 302
f 320 304 303
f 320 307 308
f 320 308 319
f 320 319 314
f 320 301 307
f 320 314 298
f 320 298 304
f 332 324 323
f 329 323 322
f 329 330 331
f 329 331 332
f 329 332 323
f 328 329 322
f 325 322 321
f 325 328 322
f 326 328 325
f 327 328 326
f 359 336 335
f 334 359 335
f 358 359 334
f 333 358 334
f 342 358 333
f 348 338 337
f 348 339 338
f 353 354 355
f 352 353 355
f 343 349 344
f 360 351 352
f 360 355 356
f 360 352 355
f 361 341 340
f 361 342 341
f 361 356 357
f 361 357 358
f 361 358 342
f 361 360 356
f 362 340 339
f 362 346 345
f 362 347 346
f 362 348 347
f 362 345 360
f 362 360 361
f 362 339 348
f 362 361 340
f 363 345 344
f 363 349 350
f 363 350 351
f 363 360 345
f 363 351 360
f 363 344 349
f 369 376 368
f 366 367 377
f 364 365 373
f 381 374 375
f 381 378 379
f 381 379 380
f 381 380 374
f 382 381 375
f 383 369 370
f 383 375 376
f 383 382 375
f 383 376 369
f 384 377 378
f 384 378 381
f 384 381 382
f 384 366 377
f 385 365 366
f 385 372 373
f 385 366 384
f 385 373 365
f 386 370 371
f 386 371 372
f 386 372 385
f 386 385 384
f 386 382 383
f 386 384 382
f 386 383 370
f 394 387 388
f 394 398 387
f 393 398 394
f 392 399 398
f 392 398 393
f 391 400 399
f 391 399 392
f 390 401 400
f 390 400 391
f 396 402 401
f 396 395 402
f 396 401 390
f 397 396 390
f 389 397 390
f 419 405 406
f 420 406 407
f 420 407 408
f 420 419 406
f 421 419 420
f 422 421 420
f 423 408 409
f 423 409 410
f 423 420 408
f 423 422 420
f 424 419 421
f 425 426 427
f 425 427 428
f 429 417 416
f 429 416 426
f 429 426 425
f 430 411 412
f 430 418 417
f 430 412 418
f 430 431 411
f 430 417 429
f 430 428 431
f 430 425 428
f 430 429 425
f 432 403 404
f 432 404 405
f 432 424 403
f 432 405 419
f 432 419 424
f 433 423 410
f 433 421 422
f 433 422 423
f 433 424 421
f 434 413 403
f 434 403 424
f 434 424 427
f 434 427 426
f 435 433 410
f 435 424 433
f 436 410 411
f 436 435 410
f 436 427 424
f 436 411 431
f 436 428 427
f 436 431 428
f 436 424 435
f 437 414 413
f 437 415 414
f 437 416 415
f 437 426 416
f 437 413 434
f 437 434 426
f 450 441 440
f 442 439 438
f 443 439 442
f 448 447 451
f 446 449 445
f 452 440 439
f 452 443 444
f 452 450 440
f 452 439 443
f 453 444 445
f 453 451 450
f 453 452 444
f 453 450 452
f 454 449 448
f 454 453 445
f 454 451 453
f 454 448 451
f 454 445 449
f 474 473 464
f 465 474 464
f 476 460 459
f 476 461 460
f 476 475 461
f 477 457 456
f 477 458 457
f 477 459 458
f 477 476 459
f 478 476 477
f 479 478 477
f 479 477 456
f 480 467 466
f 480 466 475
f 481 456 455
f 481 455 462
f 481 462 482
f 481 479 456
f 481 482 479
f 483 468 467
f 483 467 480
f 483 480 484
f 483 484 485
f 486 472 471
f 487 469 468
f 487 470 469
f 487 471 470
f 487 468 483
f 487 486 471
f 487 483 485
f 487 485 486
f 488 462 463
f 488 463 464
f 488 473 472
f 488 472 486
f 488 482 462
f 488 464 473
f 488 486 482
f 489 478 479
f 489 476 478
f 489 475 476
f 489 479 482
f 490 489 482
f 490 475 489
f 491 480 475
f 491 484 480
f 491 485 484
f 491 486 485
f 491 482 486
f 491 490 482
f 491 475 490
f 513 508 507
f 513 509 508
f 513 510 509
f 514 492 493
f 514 507 492
f 514 513 507
f 515 513 514
f 516 511 510
f 516 513 515
f 516 510 513
f 517 493 494
f 517 502 501
f 517 494 502
f 518 512 511
f 518 511 516
f 519 518 516
f 519 504 518
f 520 504 505
f 520 505 506
f 520 506 512
f 520 512 518
f 520 518 504
f 521 500 499
f 521 501 500
f 521 517 501
f 521 522 517
f 521 523 522
f 524 498 497
f 524 499 498
f 524 521 499
f 524 523 521
f 525 524 497
f 525 523 524
f 526 496 495
f 526 497 496
f 526 495 503
f 526 503 504
f 526 504 519
f 526 525 497
f 526 519 525
f 527 515 514
f 527 514 493
f 527 519 516
f 527 516 515
f 528 527 493
f 528 519 527
f 529 517 522
f 529 528 493
f 529 493 517
f 529 522 523
f 529 525 519
f 529 523 525
f 529 519 528
f 541 536 535
f 541 540 536
f 542 535 534
f 542 541 535
f 543 534 533
f 543 542 534
f 544 533 532
f 544 543 533
f 539 531 530
f 539 532 531
f 545 544 532
f 545 532 539
f 538 545 539
f 537 545 538
f 562 558 559
f 562 559 560
f 562 560 561
f 563 557 558
f 563 558 562
f 564 563 562
f 565 563 564
f 566 555 556
f 566 556 557
f 566 557 563
f 566 563 565
f 567 561 546
f 567 562 561
f 567 564 562
f 568 551 550
f 569 570 571
f 569 571 572
f 573 550 549
f 573 568 550
f 573 572 568
f 573 569 572
f 574 549 548
f 574 548 554
f 574 573 549
f 574 554 570
f 574 570 569
f 574 569 573
f 575 564 567
f 575 566 565
f 575 565 564
f 575 555 566
f 576 575 567
f 576 555 575
f 577 546 547
f 577 567 546
f 578 554 555
f 578 555 576
f 578 567 571
f 578 570 554
f 578 571 570
f 578 576 567
f 579 571 567
f 579 572 571
f 579 567 577
f 580 579 577
f 581 552 551
f 581 553 552
f 581 547 553
f 581 551 568
f 581 577 547
f 581 580 577
f 582 568 572
f 582 572 579
f 582 579 580
f 582 581 568
f 582 580 581
f 583 584 585
f 583 585 586
f 583 586 587
f 594 587 588
f 594 588 589
f 594 589 590
f 594 590 591
f 594 583 587
f 592 594 591
f 593 594 592
f 610 594 593
f 601 608 600
f 602 607 608
f 602 608 601
f 599 603 604
f 599 604 605
f 599 605 606
f 599 606 607
f 599 609 603
f 599 607 602
f 598 595 594
f 598 594 610
f 597 610 609
f 597 609 599
f 597 598 610
f 596 597 599
f 614 612 611
f 614 618 612
f 613 619 618
f 613 618 614
f 616 617 619
f 616 619 613
f 615 617 616
f 637 626 625
f 631 630 636
f 629 621 620
f 638 624 623
f 638 625 624
f 638 636 637
f 638 637 625
f 639 632 631
f 639 638 623
f 639 631 636
f 639 636 638
f 640 623 622
f 640 633 632
f 640 639 623
f 640 632 639
f 641 640 622
f 641 633 640
f 642 622 621
f 642 634 633
f 642 633 641
f 642 641 622
f 643 629 628
f 643 634 642
f 643 642 621
f 643 621 629
f 644 628 627
f 644 635 634
f 644 627 635
f 644 634 643
f 644 643 628
f 663 655 656
f 663 662 655
f 664 656 657
f 664 657 658
f 664 658 659
f 664 663 656
f 665 663 664
f 666 662 663
f 666 663 665
f 667 646 645
f 667 645 662
f 667 662 666
f 668 667 666
f 669 647 646
f 669 648 647
f 669 649 648
f 669 667 668
f 669 646 667
f 670 660 661
f 671 654 653
f 671 661 654
f 671 653 670
f 671 670 661
f 672 652 651
f 672 653 652
f 673 659 660
f 673 664 659
f 673 666 665
f 673 660 670
f 673 665 664
f 674 670 653
f 674 653 672
f 674 673 670
f 675 666 673
f 675 669 668
f 675 668 666
f 675 673 674
f 675 674 672
f 676 650 649
f 676 651 650
f 676 672 651
f 676 649 669
f 676 669 675
f 676 675 672
f 688 686 687
f 681 684 685
f 681 685 686
f 681 686 688
f 683 684 681
f 704 702 703
f 704 710 702
f 705 710 704
f 706 678 710
f 706 710 705
f 707 677 678
f 707 678 706
f 708 677 707
f 709 677 708
f 693 692 691
f 696 695 697
f 711 680 679
f 711 681 680
f 711 682 683
f 711 689 682
f 711 683 681
f 712 711 679
f 713 690 689
f 713 689 711
f 713 711 712
f 714 713 712
f 715 679 677
f 715 699 698
f 715 700 699
f 715 701 700
f 715 709 701
f 715 714 712
f 715 677 709
f 715 712 679
f 716 713 714
f 717 713 716
f 718 691 690
f 718 694 693
f 718 713 717
f 718 690 713
f 718 693 691
f 719 698 697
f 719 716 714
f 719 717 716
f 719 714 715
f 719 715 698
f 720 694 718
f 720 719 697
f 720 695 694
f 720 717 719
f 720 718 717
f 720 697 695
f 741 735 734
f 741 736 735
f 742 737 736
f 742 738 737
f 742 736 741
f 743 734 733
f 743 741 734
f 744 741 743
f 744 742 741
f 745 739 738
f 745 738 742
f 745 742 744
f 746 740 739
f 746 739 745
f 747 740 746
f 748 746 745
f 749 722 721
f 749 721 740
f 749 747 722
f 749 740 747
f 750 733 725
f 751 725 726
f 751 726 727
f 751 727 728
f 751 728 729
f 751 729 730
f 751 750 725
f 752 723 722
f 752 722 747
f 752 746 748
f 752 747 746
f 752 748 753
f 754 730 731
f 754 751 730
f 754 750 751
f 754 752 753
f 755 731 732
f 755 754 731
f 755 752 754
f 756 724 723
f 756 732 724
f 756 723 752
f 756 755 732
f 756 752 755
f 757 744 743
f 757 743 733
f 757 748 745
f 757 745 744
f 758 757 733
f 759 758 733
f 760 753 748
f 760 748 757
f 760 757 758
f 760 758 759
f 761 733 750
f 761 750 754
f 761 754 753
f 761 759 733
f 761 753 760
f 761 760 759
f 779 772 773
f 779 776 777
f 779 777 778
f 779 778 772
f 780 779 773
f 781 765 766
f 781 773 765
f 781 780 773
f 782 780 781
f 783 766 767
f 783 767 768
f 783 768 769
f 783 781 766
f 783 782 781
f 784 763 762
f 784 762 774
f 785 764 763
f 785 771 764
f 786 774 775
f 786 784 774
f 787 784 786
f 788 785 763
f 788 784 787
f 788 763 784
f 789 782 783
f 789 788 787
f 789 780 782
f 789 787 780
f 790 769 770
f 790 770 771
f 790 771 785
f 790 783 769
f 790 789 783
f 790 785 788
f 790 788 789
f 791 775 776
f 791 787 786
f 791 779 780
f 791 776 779
f 791 786 775
f 791 780 787
f 793 804 792
f 800 793 794
f 799 793 800
f 802 801 808
f 795 803 796
f 809 799 798
f 809 805 804
f 809 804 793
f 809 793 799
f 810 798 797
f 810 806 805
f 810 809 798
f 810 805 809
f 811 807 806
f 811 806 810
f 811 810 797
f 812 807 811
f 812 811 797
f 813 797 796
f 813 807 812
f 813 812 797
f 813 796 803
f 814 803 802
f 814 808 807
f 814 813 803
f 814 807 813
f 814 802 808
f 823 818 817
f 823 822 818
f 820 817 816
f 820 823 817
f 821 816 815
f 821 820 816
f 819 821 815
f 843 835 836
f 843 836 837
f 844 837 838
f 844 838 839
f 844 843 837
f 845 842 835
f 845 835 843
f 846 843 844
f 846 845 843
f 847 839 840
f 847 844 839
f 847 846 844
f 848 840 841
f 848 847 840
f 849 848 841
f 850 847 848
f 851 834 833
f 851 841 834
f 851 849 841
f 851 833 849
f 852 831 842
f 853 833 832
f 853 850 848
f 853 849 833
f 853 848 849
f 853 854 850
f 855 826 827
f 855 827 828
f 855 828 829
f 855 829 830
f 855 830 831
f 855 831 852
f 856 826 855
f 856 855 852
f 857 825 826
f 857 853 832
f 857 826 856
f 857 854 853
f 857 856 854
f 858 824 825
f 858 832 824
f 858 857 832
f 858 825 857
f 859 842 845
f 859 847 850
f 859 846 847
f 859 845 846
f 860 842 859
f 861 842 860
f 862 859 850
f 862 850 854
f 862 860 859
f 862 861 860
f 863 852 842
f 863 854 856
f 863 856 852
f 863 842 861
f 863 861 862
f 863 862 854
f 871 866 870
f 865 871 872
f 865 866 871
f 868 872 869
f 867 865 872
f 867 872 868
f 864 865 867
f 884 873 874
f 885 874 875
f 885 884 874
f 886 875 876
f 886 885 875
f 887 886 876
f 881 879 880
f 883 891 882
f 892 876 877
f 892 877 878
f 892 878 879
f 892 881 882
f 892 888 887
f 892 889 888
f 892 890 889
f 892 891 890
f 892 887 876
f 892 879 881
f 892 882 891
f 903 908 902
f 911 905 906
f 911 906 907
f 911 910 905
f 912 907 908
f 912 908 903
f 912 911 907
f 913 909 910
f 913 910 911
f 914 913 911
f 914 911 912
f 914 912 903
f 915 913 914
f 916 909 913
f 916 913 915
f 917 895 909
f 917 909 916
f 918 903 904
f 918 916 915
f 918 915 914
f 918 904 916
f 918 914 903
f 919 917 916
f 920 895 917
f 920 917 919
f 921 904 900
f 921 916 904
f 921 919 916
f 921 920 919
f 922 894 895
f 922 895 920
f 923 922 920
f 924 900 901
f 924 921 900
f 924 920 921
f 924 923 920
f 925 924 901
f 925 922 923
f 925 923 924
f 926 893 894
f 926 898 899
f 926 899 893
f 927 894 922
f 927 898 926
f 927 922 925
f 927 926 894
f 928 896 897
f 928 897 898
f 928 901 896
f 928 925 901
f 928 898 927
f 928 927 925
f 933 937 935
f 934 936 937
f 934 937 933
f 930 929 936
f 931 936 934
f 931 930 936
f 932 931 934
f 938 953 939
f 946 952 953
f 946 953 938
f 945 952 946
f 944 951 952
f 944 952 945
f 943 950 951
f 943 951 944
f 942 949 950
f 942 950 943
f 941 949 942
f 947 948 949
f 954 941 940
f 954 940 947
f 954 947 949
f 954 949 941
f 961 955 956
f 961 959 960
f 961 960 955
f 962 956 957
f 962 957 958
f 962 958 959
f 962 959 961
f 962 961 956
f 969 964 963
f 971 979 970
f 972 979 971
f 981 968 967
f 981 980 968
f 982 981 967
f 983 967 966
f 983 982 967
f 984 965 964
f 984 966 965
f 984 983 966
f 984 964 969
f 985 974 973
f 985 975 974
f 985 973 980
f 986 976 975
f 986 985 980
f 986 975 985
f 987 977 976
f 987 978 977
f 987 976 986
f 988 969 970
f 988 983 984
f 988 984 969
f 989 979 978
f 989 978 987
f 989 988 970
f 989 970 979
f 990 982 983
f 990 980 981
f 990 981 982
f 991 980 990
f 991 986 980
f 991 990 983
f 991 983 988
f 991 987 986
f 991 989 987
f 991 988 989
f 1010 995 994
f 993 1010 994
f 1009 1008 1012
f 1003 997 996
f 1002 997 1003
f 1000 1004 1001
f 1013 993 992
f 1013 992 999
f 1013 1010 993
f 1014 1011 1010
f 1014 1012 1011
f 1014 1009 1012
f 1014 1010 1013
f 1015 998 997
f 1015 999 998
f 1015 1013 999
f 1016 1014 1013
f 1017 1016 1013
f 1017 1013 1015
f 1018 1017 1015
f 1019 1006 1007
f 1019 1007 1009
f 1019 1009 1014
f 1019 1014 1016
f 1019 1016 1017
f 1020 1002 1001
f 1020 1018 1015
f 1020 997 1002
f 1020 1015 997
f 1021 1004 1005
f 1021 1005 1006
f 1021 1006 1019
f 1021 1018 1020
f 1021 1020 1001
f 1021 1017 1018
f 1021 1019 1017
f 1021 1001 1004
f 1024 1022 1023
f 1024 1027 1022
f 1025 1027 1024
f 1026 1027 1025
f 1038 1045 1044
f 1038 1037 1045
f 1031 1040 1032
f 1046 1028 1029
f 1046 1041 1028
f 1047 1041 1046
f 1048 1042 1041
f 1048 1041 1047
f 1049 1043 1042
f 1049 1044 1043
f 1049 1042 1048
f 1049 1038 1044
f 1050 1029 1030
f 1050 1036 1035
f 1050 1030 1036
f 1051 1035 1034
f 1051 1050 1035
f 1052 1049 1048
f 1052 1038 1049
f 1053 1033 1032
f 1053 1034 1033
f 1053 1051 1034
f 1054 1039 1038
f 1054 1040 1039
f 1054 1038 1052
f 1054 1053 1032
f 1054 1032 1040
f 1055 1051 1053
f 1055 1052 1048
f 1055 1046 1029
f 1055 1047 1046
f 1055 1029 1050
f 1055 1050 1051
f 1055 1048 1047
f 1055 1054 1052
f 1055 1053 1054

