# https://github.com/mikedh/trimesh
v -0.00921578 -0.00705889 -0.00820745
v -0.00921845 -0.00695735 -0.00820562
v -0.00920071 -0.00685736 -0.00820237
v -0.00916331 -0.00676302 -0.00819782
v -0.00910740 -0.00667838 -0.00819216
v -0.00903565 -0.00660674 -0.00818561
v -0.00895101 -0.00655103 -0.00817846
v -0.00928396 -0.00705291 -0.00599735
v -0.00906330 -0.00657199 -0.00599735
v -0.00915621 -0.00665126 -0.00599735
v -0.00922689 -0.00674991 -0.00599735
v -0.00926342 -0.00683470 -0.00599735
v -0.00928355 -0.00692354 -0.00599735
v -0.00928795 -0.00698807 -0.00599735
v -0.00906302 -0.00657206 -0.00600781
v -0.00917039 -0.00676248 -0.00807022
v -0.00928396 -0.00705291 -0.00599735
v -0.00921578 -0.00705889 -0.00378724
v -0.00921845 -0.00695735 -0.00378908
v -0.00920071 -0.00685736 -0.00379234
v -0.00916331 -0.00676302 -0.00379688
v -0.00910741 -0.00667838 -0.00380256
v -0.00903566 -0.00660674 -0.00380910
v -0.00895101 -0.00655103 -0.00381623
v -0.00906302 -0.00657206 -0.00598688
v -0.00906330 -0.00657199 -0.00599735
v -0.00915621 -0.00665126 -0.00599735
v -0.00922689 -0.00674991 -0.00599735
v -0.00926342 -0.00683470 -0.00599735
v -0.00928355 -0.00692354 -0.00599735
v -0.00928795 -0.00698807 -0.00599735
v -0.00917039 -0.00676248 -0.00392449
v -0.00921578 -0.00705889 -0.00820745
v -0.00928396 -0.00705291 -0.00599735
v -0.00921578 -0.00705889 -0.00378724
v -0.00824866 -0.01356940 -0.00379064
v -0.00834264 -0.01358539 -0.00599735
v -0.00824866 -0.01356940 -0.00820405
v -0.00880000 -0.01043815 -0.00472177
v -0.00904975 -0.00878240 -0.00665701
v -0.00580477 -0.02400218 -0.00379563
v -0.00580479 -0.02400212 -0.00379563
v -0.00704500 -0.01942545 -0.00379435
v -0.00824866 -0.01356940 -0.00379064
v -0.00834264 -0.01358539 -0.00599735
v -0.00824866 -0.01356940 -0.00820405
v -0.00580478 -0.02400212 -0.00819906
v -0.00704500 -0.01942545 -0.00820034
v -0.00580477 -0.02400218 -0.00819906
v -0.00609895 -0.02386480 -0.00488789
v -0.00618486 -0.02382259 -0.00601889
v -0.00609559 -0.02386644 -0.00712764
v -0.00779282 -0.01656791 -0.00475300
v -0.00763509 -0.01757269 -0.00599734
v -0.00779282 -0.01656791 -0.00724169
v -0.00722476 -0.01953497 -0.00599734
v -0.00660776 -0.02189876 -0.00481670
v -0.00660559 -0.02189733 -0.00719856
v -0.00462522 -0.02454216 -0.00193314
v -0.00527600 -0.02425071 -0.00282071
v -0.00580479 -0.02400212 -0.00379563
v -0.00704500 -0.01942545 -0.00379435
v -0.00824866 -0.01356940 -0.00379064
v -0.00279000 -0.01345941 0.00082447
v -0.00486764 -0.01344209 0.00031418
v -0.00593079 -0.01344908 -0.00020214
v -0.00691822 -0.01347585 -0.00097774
v -0.00759479 -0.01351063 -0.00185001
v -0.00798884 -0.01354084 -0.00268600
v -0.00816260 -0.01355847 -0.00328886
v -0.00094670 -0.02213820 0.00090067
v -0.00234888 -0.02300052 0.00037594
v -0.00338628 -0.02368081 -0.00035789
v -0.00405410 -0.02413720 -0.00108344
v -0.00709453 -0.01506445 -0.00162387
v -0.00662809 -0.01491720 -0.00103548
v -0.00682321 -0.01585112 -0.00152007
v -0.00710075 -0.01598743 -0.00196256
v -0.00734170 -0.01613233 -0.00245870
v -0.00750878 -0.01626106 -0.00291107
v -0.00528225 -0.02324524 -0.00229898
v -0.00442431 -0.02408105 -0.00149403
v -0.00586773 -0.01404754 -0.00025850
v -0.00465144 -0.01473823 0.00025194
v -0.00546153 -0.01585417 -0.00030626
v -0.00551826 -0.01931102 -0.00111193
v -0.00449904 -0.01554522 0.00022231
v -0.00681274 -0.01832989 -0.00249199
v -0.00652446 -0.01943764 -0.00250679
v -0.00610631 -0.02061058 -0.00235036
v -0.00530460 -0.02261038 -0.00203666
v -0.00431462 -0.02220256 -0.00078207
v -0.00626879 -0.02122778 -0.00298374
v -0.00384574 -0.02315530 -0.00062077
v -0.00372073 -0.02197070 -0.00027030
v -0.00303908 -0.02156087 0.00018674
v -0.00429763 -0.02345563 -0.00113357
v -0.00370479 -0.01392040 0.00062159
v -0.00366182 -0.01420333 0.00060900
v -0.00307682 -0.01525446 0.00066784
v -0.00310136 -0.01839562 0.00045675
v -0.00440094 -0.01886531 -0.00016411
v -0.00182798 -0.02100319 0.00069131
v -0.00192071 -0.02212326 0.00061040
v -0.00462524 -0.02454220 -0.00193319
v -0.00462522 -0.02454216 -0.00193314
v -0.00094670 -0.02213820 0.00090067
v -0.00234888 -0.02300052 0.00037594
v -0.00338628 -0.02368081 -0.00035789
v -0.00405410 -0.02413720 -0.00108344
v -0.00066988 -0.02413772 0.00093038
v -0.00048355 -0.02661532 0.00089236
v -0.00138975 -0.02612581 0.00062699
v -0.00142742 -0.02610595 0.00061287
v -0.00143385 -0.02610255 0.00061044
v -0.00151221 -0.02606085 0.00058015
v -0.00254714 -0.02552771 0.00005702
v -0.00348341 -0.02506848 -0.00066348
v -0.00431740 -0.02467995 -0.00154974
v -0.00149855 -0.02343137 0.00070876
v 0.00487648 -0.02984538 0.00046347
v 0.00423584 -0.02942720 0.00065001
v 0.00225680 -0.02819836 0.00097228
v 0.00099397 -0.02744711 0.00103142
v -0.00028318 -0.02672471 0.00093155
v -0.00048355 -0.02661532 0.00089236
v -0.00094670 -0.02213820 0.00090067
v -0.00066988 -0.02413772 0.00093038
v 0.00459056 -0.01989396 0.00081007
v 0.00325400 -0.02025814 0.00099217
v 0.00098971 -0.02114283 0.00111225
v 0.00475087 -0.02397660 0.00087896
v 0.00484804 -0.02759520 0.00070156
v 0.00238787 -0.02681305 0.00105003
v 0.00420284 -0.02201893 0.00097636
v 0.00387896 -0.02533326 0.00099507
v 0.00277539 -0.02139777 0.00109456
v 0.00257975 -0.02307780 0.00114079
v 0.00137257 -0.02341785 0.00116214
v 0.00152847 -0.02465332 0.00114616
v 0.00510118 -0.02999166 0.00039191
v 0.00498874 -0.02991903 0.00042817
v 0.00487648 -0.02984538 0.00046347
v 0.00459056 -0.01989396 0.00081007
v 0.00475087 -0.02397660 0.00087896
v 0.00484804 -0.02759520 0.00070156
v 0.00545912 -0.01974850 0.00060471
v 0.00658568 -0.02322514 0.00021702
v 0.00741804 -0.02674689 -0.00044122
v 0.00759668 -0.02738459 -0.00063541
v 0.00782421 -0.02783020 -0.00088722
v 0.00807203 -0.02816796 -0.00118808
v 0.00832911 -0.02844599 -0.00154306
v 0.00865067 -0.02873622 -0.00207686
v 0.00888873 -0.02892663 -0.00257666
v 0.00908691 -0.02907620 -0.00310687
v 0.00904641 -0.02949242 -0.00311205
v 0.00640676 -0.02980496 -0.00006179
v 0.00740144 -0.02968205 -0.00071034
v 0.00812637 -0.02960101 -0.00144348
v 0.00864751 -0.02954167 -0.00221535
v 0.00886103 -0.02951521 -0.00264494
v 0.00665204 -0.02723754 0.00004513
v 0.00612645 -0.02717097 0.00031264
v 0.00624432 -0.02748403 0.00024012
v 0.00575553 -0.02842486 0.00037181
v 0.00623331 -0.02877988 0.00014307
v 0.00437061 -0.01711368 0.00066676
v 0.00493239 -0.01842420 0.00064630
v 0.00545912 -0.01974850 0.00060471
v 0.00459056 -0.01989396 0.00081007
v 0.00437060 -0.01711372 0.00066677
v 0.00875078 -0.03242338 -0.00885842
v 0.00897173 -0.03262912 -0.00797817
v 0.00904870 -0.03268637 -0.00754397
v 0.00916873 -0.03273867 -0.00599734
v 0.00904870 -0.03268637 -0.00445072
v 0.00897174 -0.03262912 -0.00401651
v 0.00875078 -0.03242338 -0.00313625
v 0.00904641 -0.02949242 -0.00311205
v 0.00908691 -0.02907620 -0.00310687
v 0.00944713 -0.02933447 -0.00472662
v 0.00951892 -0.02938440 -0.00640846
v 0.00938776 -0.02929292 -0.00766584
v 0.00908691 -0.02907620 -0.00888780
v 0.00904641 -0.02949242 -0.00888263
v 0.00908691 -0.02907620 -0.00888780
v 0.00862176 -0.02871192 -0.00997123
v 0.00813840 -0.02824506 -0.01071974
v 0.00780973 -0.02780697 -0.01112404
v 0.00758389 -0.02735200 -0.01137304
v 0.00748950 -0.02705623 -0.01147510
v 0.00741804 -0.02674689 -0.01155346
v 0.00904641 -0.02949242 -0.00888263
v 0.00510118 -0.02999166 -0.01238659
v 0.00640613 -0.02980504 -0.01193318
v 0.00739868 -0.02968237 -0.01128677
v 0.00812202 -0.02960151 -0.01055653
v 0.00864381 -0.02954209 -0.00978572
v 0.00885889 -0.02951545 -0.00935437
v 0.00498874 -0.02991904 -0.01242286
v 0.00487649 -0.02984538 -0.01245816
v 0.00459056 -0.01989396 -0.01280476
v 0.00475087 -0.02397660 -0.01287365
v 0.00484804 -0.02759520 -0.01269625
v 0.00545913 -0.01974850 -0.01259940
v 0.00658568 -0.02322514 -0.01221170
v 0.00660665 -0.02712750 -0.01207172
v 0.00667578 -0.02732597 -0.01202090
v 0.00612645 -0.02717097 -0.01230732
v 0.00617334 -0.02732262 -0.01227741
v 0.00623579 -0.02746804 -0.01223980
v 0.00574995 -0.02841587 -0.01236929
v 0.00622514 -0.02876726 -0.01214277
v 0.00545913 -0.01974850 -0.01259940
v 0.00493239 -0.01842420 -0.01264099
v 0.00437061 -0.01711368 -0.01266145
v 0.00459056 -0.01989396 -0.01280476
v 0.00437060 -0.01711372 -0.01266145
v -0.00094670 -0.02213820 -0.01289536
v -0.00066988 -0.02413772 -0.01292507
v -0.00048354 -0.02661533 -0.01288705
v 0.00459056 -0.01989396 -0.01280476
v 0.00325400 -0.02025814 -0.01298686
v 0.00098971 -0.02114283 -0.01310693
v 0.00475087 -0.02397660 -0.01287365
v 0.00484804 -0.02759520 -0.01269625
v 0.00487649 -0.02984538 -0.01245816
v 0.00423602 -0.02942731 -0.01264465
v -0.00028317 -0.02672471 -0.01292623
v 0.00073880 -0.02729938 -0.01302256
v 0.00200559 -0.02804652 -0.01298734
v 0.00238787 -0.02681305 -0.01304472
v 0.00420284 -0.02201894 -0.01297105
v 0.00387896 -0.02533326 -0.01298976
v 0.00277540 -0.02139777 -0.01308925
v 0.00257975 -0.02307780 -0.01313548
v 0.00137257 -0.02341785 -0.01315683
v 0.00152847 -0.02465332 -0.01314085
v 0.00510118 -0.02999166 -0.01238659
v 0.00640613 -0.02980504 -0.01193318
v 0.00739868 -0.02968237 -0.01128677
v 0.00812202 -0.02960151 -0.01055653
v 0.00864381 -0.02954209 -0.00978572
v 0.00885889 -0.02951545 -0.00935437
v 0.00904641 -0.02949242 -0.00888263
v 0.00875078 -0.03242338 -0.00885842
v 0.00661438 -0.03095961 -0.01166557
v 0.00768269 -0.03167254 -0.01074653
v 0.00832679 -0.03211838 -0.00986114
v 0.00856328 -0.03228633 -0.00937785
v 0.00875078 -0.03242338 -0.00313625
v 0.00840312 -0.03217218 -0.00227433
v 0.00791050 -0.03182883 -0.00151662
v 0.00731103 -0.03142076 -0.00087462
v 0.00664140 -0.03097725 -0.00034705
v 0.00589478 -0.03049593 0.00007838
v 0.00510118 -0.02999166 0.00039191
v 0.00640676 -0.02980496 -0.00006179
v 0.00740144 -0.02968205 -0.00071034
v 0.00812637 -0.02960101 -0.00144348
v 0.00864751 -0.02954167 -0.00221535
v 0.00886103 -0.02951521 -0.00264494
v 0.00904641 -0.02949242 -0.00311205
v 0.00321880 -0.01469586 0.00073754
v 0.00381192 -0.01589647 0.00069269
v 0.00437060 -0.01711372 0.00066677
v 0.00459056 -0.01989396 0.00081007
v 0.00325400 -0.02025814 0.00099217
v 0.00098971 -0.02114283 0.00111225
v -0.00094670 -0.02213820 0.00090067
v -0.00279000 -0.01345941 0.00082447
v 0.00264757 -0.01323340 0.00080739
v -0.00030721 -0.01340261 0.00095131
v 0.00264758 -0.01323340 0.00080739
v 0.00266060 -0.01329704 0.00080481
v 0.00289062 -0.01401605 0.00077151
v 0.00155032 -0.01393914 0.00088133
v 0.00364934 -0.01855381 0.00083881
v 0.00396935 -0.01899914 0.00083143
v 0.00226783 -0.01825099 0.00093548
v 0.00263840 -0.01882039 0.00094098
v 0.00092611 -0.01541579 0.00091509
v 0.00168121 -0.02001087 0.00104979
v 0.00185273 -0.02018493 0.00105617
v 0.00053821 -0.02045968 0.00106211
v 0.00321881 -0.01469586 -0.01273223
v 0.00289062 -0.01401605 -0.01276620
v 0.00266060 -0.01329704 -0.01279950
v 0.00437060 -0.01711372 -0.01266145
v 0.00381192 -0.01589647 -0.01268738
v 0.00459056 -0.01989396 -0.01280476
v 0.00325400 -0.02025814 -0.01298686
v 0.00098971 -0.02114283 -0.01310693
v -0.00094670 -0.02213820 -0.01289536
v -0.00279000 -0.01345941 -0.01281916
v 0.00264757 -0.01323340 -0.01280208
v -0.00030721 -0.01340261 -0.01294600
v 0.00264758 -0.01323340 -0.01280208
v 0.00155032 -0.01393915 -0.01287602
v 0.00364935 -0.01855381 -0.01283350
v 0.00396935 -0.01899914 -0.01282611
v 0.00226783 -0.01825099 -0.01293017
v 0.00263840 -0.01882039 -0.01293567
v 0.00092611 -0.01541579 -0.01290978
v 0.00168121 -0.02001087 -0.01304448
v 0.00185273 -0.02018493 -0.01305085
v 0.00053821 -0.02045968 -0.01305680
v -0.00142742 -0.02610595 -0.01260756
v -0.00138975 -0.02612581 -0.01262168
v -0.00143385 -0.02610255 -0.01260513
v -0.00151221 -0.02606085 -0.01257484
v -0.00431740 -0.02467995 -0.01044494
v -0.00348341 -0.02506848 -0.01133121
v -0.00254714 -0.02552771 -0.01205171
v -0.00462524 -0.02454220 -0.01006150
v -0.00462522 -0.02454216 -0.01006155
v -0.00094670 -0.02213820 -0.01289536
v -0.00234888 -0.02300052 -0.01237063
v -0.00338628 -0.02368081 -0.01163680
v -0.00405410 -0.02413720 -0.01091125
v -0.00066988 -0.02413772 -0.01292507
v -0.00048354 -0.02661533 -0.01288705
v -0.00149855 -0.02343137 -0.01270345
v -0.00884472 -0.00697072 -0.00230962
v -0.00824000 -0.00685062 -0.00125391
v -0.00739907 -0.00667541 -0.00038294
v -0.00639177 -0.00645380 0.00026607
v -0.00528348 -0.00619737 0.00070998
v -0.00458492 -0.00602927 0.00088609
v -0.00387311 -0.00585277 0.00099942
v -0.00279000 -0.01345941 0.00082447
v -0.00331253 -0.01042681 0.00090810
v -0.00486764 -0.01344209 0.00031418
v -0.00593079 -0.01344908 -0.00020214
v -0.00691822 -0.01347585 -0.00097774
v -0.00759479 -0.01351063 -0.00185001
v -0.00798884 -0.01354084 -0.00268600
v -0.00816260 -0.01355847 -0.00328886
v -0.00824866 -0.01356940 -0.00379064
v -0.00921578 -0.00705889 -0.00378724
v -0.00921258 -0.00705804 -0.00374384
v -0.00916601 -0.00704542 -0.00337468
v -0.00908597 -0.00702439 -0.00301282
v -0.00571486 -0.00793882 0.00045916
v -0.00537199 -0.00863459 0.00053979
v -0.00645585 -0.00804662 0.00010606
v -0.00595089 -0.00869956 0.00030313
v -0.00403984 -0.01210256 0.00069063
v -0.00593359 -0.01060657 0.00014373
v -0.00460027 -0.01200728 0.00054600
v -0.00794925 -0.01070882 -0.00159835
v -0.00712539 -0.01075017 -0.00066370
v -0.00838753 -0.01066346 -0.00242465
v -0.00593084 -0.01141429 0.00006177
v -0.00809020 -0.00900882 -0.00143370
v -0.00693330 -0.00859600 -0.00024097
v -0.00715527 -0.00885799 -0.00043481
v -0.00676372 -0.00947496 -0.00022054
v -0.00712749 -0.00984163 -0.00053650
v -0.00875124 -0.00810190 -0.00242640
v 0.00340835 -0.01009109 0.00075889
v 0.00288147 -0.01106556 0.00082217
v 0.00261904 -0.01202222 0.00083492
v 0.00258196 -0.01262933 0.00082635
v 0.00264757 -0.01323340 0.00080739
v -0.00030721 -0.01340261 0.00095131
v -0.00279000 -0.01345941 0.00082447
v -0.00331253 -0.01042681 0.00090810
v -0.00387311 -0.00585277 0.00099942
v -0.00386066 -0.00584946 0.00100097
v -0.00097690 -0.00507051 0.00114355
v 0.00081205 -0.00452623 0.00109908
v 0.00258045 -0.00395110 0.00091953
v 0.00139213 -0.00804717 0.00101243
v 0.00108360 -0.00871408 0.00101708
v -0.00026447 -0.01086445 0.00101263
v -0.00044350 -0.01139873 0.00100095
v -0.00187726 -0.01219578 0.00095545
v 0.00340847 -0.01009131 0.00075887
v 0.00340835 -0.01009109 0.00075889
v 0.00258045 -0.00395110 0.00091953
v 0.00256436 -0.00395668 0.00092208
v 0.00258043 -0.00395102 0.00091953
v 0.00464585 -0.00319286 0.00059279
v 0.00667535 -0.00238631 0.00017177
v 0.00799751 -0.00183040 -0.00020482
v 0.00927532 -0.00128033 -0.00070822
v 0.01018425 -0.00089649 -0.00123816
v 0.01070880 -0.00068481 -0.00170123
v 0.01113911 -0.00050258 -0.00227620
v 0.01087354 -0.00541618 -0.00245984
v 0.01031094 -0.00569100 -0.00170131
v 0.00960958 -0.00602973 -0.00109998
v 0.00789905 -0.00690362 -0.00023782
v 0.00609174 -0.00786946 0.00029390
v 0.00477168 -0.00868334 0.00055612
v 0.00403213 -0.00932789 0.00067189
v 0.00365184 -0.00661241 0.00074677
v 0.01113911 -0.00050258 -0.00227620
v 0.01170902 -0.00016288 -0.00339561
v 0.01183728 -0.00007397 -0.00374347
v 0.01190776 -0.00004595 -0.00396923
v 0.01196978 -0.00003934 -0.00419906
v 0.01219258 -0.00000268 -0.00599735
v 0.01196978 -0.00003934 -0.00779563
v 0.01186647 -0.00006000 -0.00816145
v 0.01179124 -0.00010156 -0.00838378
v 0.01170901 -0.00016288 -0.00859908
v 0.01113911 -0.00050258 -0.00971848
v 0.01087354 -0.00541618 -0.00953484
v 0.01148801 -0.00510123 -0.00818395
v 0.01179643 -0.00494256 -0.00670254
v 0.01178472 -0.00494859 -0.00518186
v 0.01147348 -0.00510869 -0.00376682
v 0.01087354 -0.00541618 -0.00245984
v 0.00340847 -0.01009132 -0.01275356
v 0.00417246 -0.00918916 -0.01264595
v 0.00508921 -0.00845903 -0.01249496
v 0.00609174 -0.00786946 -0.01228859
v 0.00340835 -0.01009109 -0.01275358
v 0.00258044 -0.00395099 -0.01291423
v 0.01113911 -0.00050258 -0.00971848
v 0.01058007 -0.00073635 -0.01042513
v 0.00988094 -0.00102260 -0.01095978
v 0.00839746 -0.00165881 -0.01165140
v 0.00633578 -0.00252548 -0.01224789
v 0.00447248 -0.00325882 -0.01261746
v 0.01087354 -0.00541618 -0.00953484
v 0.00843175 -0.00662569 -0.01154141
v 0.00953135 -0.00606831 -0.01094841
v 0.01027707 -0.00570716 -0.01032906
v 0.00379161 -0.00647897 -0.01272052
v 0.00264757 -0.01323340 -0.01280208
v -0.00030721 -0.01340261 -0.01294600
v -0.00279000 -0.01345941 -0.01281916
v -0.00387311 -0.00585274 -0.01299411
v -0.00331268 -0.01042577 -0.01290282
v -0.00378233 -0.00582987 -0.01300516
v 0.00247947 -0.00398665 -0.01293031
v -0.00063121 -0.00496919 -0.01313509
v 0.00258044 -0.00395099 -0.01291423
v 0.00340835 -0.01009109 -0.01275358
v 0.00258280 -0.01243159 -0.01282501
v 0.00269566 -0.01163253 -0.01282893
v 0.00296365 -0.01087556 -0.01280913
v 0.00317008 -0.01047466 -0.01278528
v 0.00155236 -0.00799765 -0.01299775
v 0.00141546 -0.00825512 -0.01300198
v 0.00129674 -0.00853046 -0.01300391
v -0.00020842 -0.01075988 -0.01300911
v -0.00039069 -0.01117893 -0.01300084
v 0.00130440 -0.01261212 -0.01291618
v -0.00187731 -0.01219545 -0.01295015
v -0.00206474 -0.00874806 -0.01304646
v -0.00580478 -0.02400212 -0.00819906
v -0.00527641 -0.02425052 -0.00917335
v -0.00462522 -0.02454216 -0.01006155
v -0.00704500 -0.01942545 -0.00820034
v -0.00824866 -0.01356940 -0.00820405
v -0.00279000 -0.01345941 -0.01281916
v -0.00486764 -0.01344209 -0.01230887
v -0.00593079 -0.01344908 -0.01179255
v -0.00691821 -0.01347585 -0.01101695
v -0.00759479 -0.01351063 -0.01014468
v -0.00798884 -0.01354084 -0.00930869
v -0.00816260 -0.01355848 -0.00870583
v -0.00094670 -0.02213820 -0.01289536
v -0.00234888 -0.02300052 -0.01237063
v -0.00338628 -0.02368081 -0.01163680
v -0.00405410 -0.02413720 -0.01091125
v -0.00709453 -0.01506445 -0.01037082
v -0.00662809 -0.01491720 -0.01095921
v -0.00682321 -0.01585112 -0.01047462
v -0.00710075 -0.01598743 -0.01003213
v -0.00734170 -0.01613233 -0.00953599
v -0.00750878 -0.01626106 -0.00908362
v -0.00528242 -0.02324513 -0.00969549
v -0.00442455 -0.02408103 -0.01050036
v -0.00586773 -0.01404754 -0.01173620
v -0.00465144 -0.01473823 -0.01224663
v -0.00546153 -0.01585417 -0.01168843
v -0.00551826 -0.01931102 -0.01088275
v -0.00449904 -0.01554522 -0.01221700
v -0.00681274 -0.01832989 -0.00950270
v -0.00652446 -0.01943764 -0.00948790
v -0.00610631 -0.02061058 -0.00964433
v -0.00530460 -0.02261038 -0.00995803
v -0.00431462 -0.02220256 -0.01121261
v -0.00626879 -0.02122778 -0.00901095
v -0.00384574 -0.02315530 -0.01137392
v -0.00372073 -0.02197070 -0.01172439
v -0.00303908 -0.02156088 -0.01218143
v -0.00429763 -0.02345563 -0.01086112
v -0.00370479 -0.01392040 -0.01261628
v -0.00366182 -0.01420333 -0.01260369
v -0.00307682 -0.01525446 -0.01266253
v -0.00310136 -0.01839562 -0.01245144
v -0.00440094 -0.01886531 -0.01183058
v -0.00182797 -0.02100319 -0.01268600
v -0.00192071 -0.02212326 -0.01260509
v -0.00387311 -0.00585274 -0.01299411
v -0.00331268 -0.01042577 -0.01290282
v -0.00279000 -0.01345941 -0.01281916
v -0.00486764 -0.01344209 -0.01230887
v -0.00593079 -0.01344908 -0.01179255
v -0.00691821 -0.01347585 -0.01101695
v -0.00759479 -0.01351063 -0.01014468
v -0.00798884 -0.01354084 -0.00930869
v -0.00816260 -0.01355848 -0.00870583
v -0.00824866 -0.01356940 -0.00820405
v -0.00921578 -0.00705889 -0.00820745
v -0.00921258 -0.00705804 -0.00825085
v -0.00884472 -0.00697073 -0.00968507
v -0.00908548 -0.00702427 -0.00898371
v -0.00916670 -0.00704597 -0.00862061
v -0.00568118 -0.00629083 -0.01257065
v -0.00702810 -0.00659517 -0.01188671
v -0.00790243 -0.00678145 -0.01114339
v -0.00843731 -0.00689031 -0.01045715
v -0.00532769 -0.00787884 -0.01259765
v -0.00515295 -0.00860768 -0.01260944
v -0.00615588 -0.00800350 -0.01225743
v -0.00570012 -0.00867145 -0.01240767
v -0.00576934 -0.01059332 -0.01221871
v -0.00403991 -0.01210220 -0.01268533
v -0.00460034 -0.01200691 -0.01254070
v -0.00746914 -0.00957334 -0.01118952
v -0.00692217 -0.01072279 -0.01150414
v -0.00725455 -0.01076904 -0.01121028
v -0.00794925 -0.01070882 -0.01039634
v -0.00838717 -0.01066325 -0.00957102
v -0.00858574 -0.00794162 -0.00997825
v -0.00844773 -0.00840722 -0.01012339
v 0.00908691 -0.02907620 -0.00310687
v 0.00909346 -0.02896574 -0.00313298
v 0.00907558 -0.02885853 -0.00316634
v 0.00904590 -0.02878249 -0.00319558
v 0.00900407 -0.02871488 -0.00322662
v 0.00896768 -0.02867244 -0.00324940
v 0.00892617 -0.02863518 -0.00327249
v 0.00849647 -0.02826860 -0.00220558
v 0.00810907 -0.02784765 -0.00153978
v 0.00791339 -0.02756060 -0.00125205
v 0.00774850 -0.02721443 -0.00102468
v 0.00766226 -0.02693165 -0.00091021
v 0.00759952 -0.02662982 -0.00083279
v 0.00759070 -0.02665531 -0.00072034
v 0.00755607 -0.02668437 -0.00061390
v 0.00749746 -0.02671545 -0.00051918
v 0.00741804 -0.02674689 -0.00044122
v 0.00759668 -0.02738459 -0.00063541
v 0.00782421 -0.02783020 -0.00088722
v 0.00807203 -0.02816796 -0.00118808
v 0.00832911 -0.02844599 -0.00154306
v 0.00865067 -0.02873622 -0.00207686
v 0.00888873 -0.02892663 -0.00257666
v 0.00848163 -0.02834642 -0.00185797
v 0.00862711 -0.02847744 -0.00211904
v 0.00897785 -0.02876237 -0.00291831
v 0.00759952 -0.02662982 -0.01116189
v 0.00772174 -0.02713938 -0.01100586
v 0.00787535 -0.02749304 -0.01079611
v 0.00804846 -0.02776695 -0.01054659
v 0.00829165 -0.02806211 -0.01016118
v 0.00855359 -0.02832150 -0.00967440
v 0.00875557 -0.02849752 -0.00921221
v 0.00892624 -0.02863524 -0.00872197
v 0.00926058 -0.02888664 -0.00710207
v 0.00930678 -0.02892016 -0.00543851
v 0.00918088 -0.02882838 -0.00433740
v 0.00892617 -0.02863518 -0.00327249
v 0.00849647 -0.02826860 -0.00220558
v 0.00810907 -0.02784765 -0.00153978
v 0.00791339 -0.02756060 -0.00125205
v 0.00774850 -0.02721443 -0.00102468
v 0.00766226 -0.02693165 -0.00091021
v 0.00759952 -0.02662982 -0.00083279
v 0.00759952 -0.02662982 -0.00105206
v 0.00898996 -0.02868475 -0.00395550
v 0.00840891 -0.02818381 -0.00235181
v 0.00806512 -0.02778976 -0.00173126
v 0.00783853 -0.02742202 -0.00139166
v 0.00769407 -0.02705096 -0.00118850
v 0.00905232 -0.02873240 -0.00419528
v 0.00907701 -0.02875103 -0.00434930
v 0.00909047 -0.02876112 -0.00450655
v 0.00916293 -0.02881506 -0.00598688
v 0.00916293 -0.02881506 -0.00600781
v 0.00909047 -0.02876112 -0.00748814
v 0.00906353 -0.02874088 -0.00773818
v 0.00903220 -0.02871711 -0.00789028
v 0.00898996 -0.02868475 -0.00803919
v 0.00759952 -0.02662982 -0.01094263
v 0.00773735 -0.02718424 -0.01074542
v 0.00789632 -0.02753092 -0.01051982
v 0.00808757 -0.02782052 -0.01022673
v 0.00828373 -0.02805348 -0.00988853
v 0.00852411 -0.02829458 -0.00938874
v 0.00876874 -0.02850837 -0.00872377
v 0.00360887 -0.01447699 -0.01223550
v 0.00475759 -0.01694067 -0.01216732
v 0.00579697 -0.01960911 -0.01211841
v 0.00684163 -0.02309870 -0.01176720
v 0.00759952 -0.02662982 -0.01116189
v 0.00759952 -0.02662982 -0.01094263
v 0.00697572 -0.02364611 -0.01161946
v 0.00643324 -0.02159451 -0.01163960
v 0.00580615 -0.01963538 -0.01177575
v 0.00445011 -0.01624216 -0.01186788
v 0.00361081 -0.01448085 -0.01192695
v 0.00360887 -0.01447699 -0.01192712
v 0.00759952 -0.02662982 -0.00083279
v 0.00684160 -0.02309858 -0.00022747
v 0.00579697 -0.01960911 0.00012372
v 0.00475759 -0.01694067 0.00017263
v 0.00360887 -0.01447699 0.00024081
v 0.00360887 -0.01447699 -0.00006757
v 0.00361081 -0.01448085 -0.00006774
v 0.00445011 -0.01624216 -0.00012681
v 0.00580615 -0.01963538 -0.00021895
v 0.00643323 -0.02159451 -0.00035509
v 0.00697572 -0.02364610 -0.00037523
v 0.00759952 -0.02662982 -0.00105206
v 0.01068461 -0.00581930 -0.00270899
v 0.01068461 -0.00581930 -0.00270899
v 0.01122649 -0.00551757 -0.00387369
v 0.01122649 -0.00551757 -0.00387369
v 0.01152048 -0.00535388 -0.00513813
v 0.01152048 -0.00535388 -0.00513813
v 0.01156030 -0.00533170 -0.00645122
v 0.01156030 -0.00533170 -0.00645122
v 0.01134382 -0.00545225 -0.00774023
v 0.01134382 -0.00545225 -0.00774023
v 0.01106558 -0.00560717 -0.00854024
v 0.01106558 -0.00560717 -0.00854024
v 0.01068459 -0.00581931 -0.00928569
v 0.01068459 -0.00581931 -0.00928569
v 0.00913427 -0.00668254 -0.00123917
v 0.00990663 -0.00625249 -0.00177182
v 0.00990663 -0.00625249 -0.00177182
v 0.01033114 -0.00601612 -0.00220264
v 0.01033114 -0.00601612 -0.00220264
v 0.00985103 -0.00628344 -0.00187214
v 0.00985103 -0.00628344 -0.00187214
v 0.01041370 -0.00597015 -0.00267025
v 0.01041370 -0.00597015 -0.00267025
v 0.01091538 -0.00569080 -0.00352232
v 0.01091538 -0.00569080 -0.00352232
v 0.01117904 -0.00554400 -0.00439282
v 0.01113736 -0.00556720 -0.00408699
v 0.01113736 -0.00556720 -0.00408699
v 0.01104814 -0.00561688 -0.00379466
v 0.01104814 -0.00561688 -0.00379466
v 0.01126638 -0.00549536 -0.00598688
v 0.01126638 -0.00549536 -0.00598688
v 0.01126638 -0.00549536 -0.00600781
v 0.01117904 -0.00554400 -0.00760187
v 0.01117904 -0.00554400 -0.00760187
v 0.01091538 -0.00569081 -0.00847237
v 0.01091538 -0.00569081 -0.00847237
v 0.01104737 -0.00561731 -0.00820216
v 0.01104737 -0.00561731 -0.00820216
v 0.01113671 -0.00556756 -0.00791022
v 0.01015214 -0.00611578 -0.00974052
v 0.01015214 -0.00611578 -0.00974052
v 0.01015214 -0.00611578 -0.00974052
v 0.00970031 -0.00636737 -0.01028178
v 0.00970031 -0.00636737 -0.01028178
v 0.00913427 -0.00668254 -0.01075552
v 0.01025157 -0.00606042 -0.00988486
v 0.01025157 -0.00606042 -0.00988486
v 0.00972093 -0.00635588 -0.01037295
v 0.00972093 -0.00635588 -0.01037295
v 0.00623756 -0.00830641 -0.01199806
v 0.00507570 -0.00903871 -0.01226369
v 0.00406575 -0.00999561 -0.01243737
v 0.00366321 -0.01056225 -0.01249478
v 0.00334747 -0.01118835 -0.01253588
v 0.00314238 -0.01186037 -0.01255829
v 0.00307314 -0.01256177 -0.01255807
v 0.00315726 -0.01326088 -0.01253638
v 0.00336452 -0.01388624 -0.01250207
v 0.00364694 -0.01448129 -0.01246510
v 0.00362258 -0.01447854 -0.01199719
v 0.00310684 -0.01313818 -0.01206654
v 0.00331645 -0.01382695 -0.01203229
v 0.00361372 -0.01060214 -0.01203562
v 0.00324373 -0.01139852 -0.01208140
v 0.00306026 -0.01225636 -0.01208987
v 0.00305277 -0.01269823 -0.01208179
v 0.00561992 -0.00865100 -0.01169879
v 0.00462355 -0.00938680 -0.01188523
v 0.00407610 -0.00995165 -0.01197013
v 0.00622126 -0.00830453 -0.01168416
v 0.00759952 -0.02662982 -0.00083279
v 0.00759070 -0.02665531 -0.00072034
v 0.00755607 -0.02668437 -0.00061390
v 0.00749746 -0.02671545 -0.00051918
v 0.00741804 -0.02674689 -0.00044122
v 0.00684160 -0.02309858 -0.00022747
v 0.00579697 -0.01960911 0.00012372
v 0.00578746 -0.01961718 0.00023089
v 0.00575642 -0.01963256 0.00033307
v 0.00570528 -0.01965452 0.00042550
v 0.00563644 -0.01968206 0.00050388
v 0.00555309 -0.01971387 0.00056456
v 0.00545912 -0.01974850 0.00060471
v 0.00658568 -0.02322514 0.00021702
v 0.00677711 -0.02315151 0.00003426
v 0.00908691 -0.02907620 -0.00310687
v 0.00909346 -0.02896574 -0.00313298
v 0.00907558 -0.02885853 -0.00316634
v 0.00904590 -0.02878249 -0.00319558
v 0.00900407 -0.02871488 -0.00322662
v 0.00896768 -0.02867244 -0.00324940
v 0.00892617 -0.02863518 -0.00327249
v 0.00944713 -0.02933447 -0.00472662
v 0.00951892 -0.02938440 -0.00640846
v 0.00938776 -0.02929292 -0.00766584
v 0.00908691 -0.02907620 -0.00888780
v 0.00909350 -0.02896576 -0.00886158
v 0.00907563 -0.02885856 -0.00882820
v 0.00904594 -0.02878252 -0.00879895
v 0.00900411 -0.02871491 -0.00876791
v 0.00896772 -0.02867248 -0.00874511
v 0.00892624 -0.02863524 -0.00872197
v 0.00926058 -0.02888664 -0.00710207
v 0.00930678 -0.02892016 -0.00543851
v 0.00918088 -0.02882838 -0.00433740
v 0.00922042 -0.02894342 -0.00372490
v 0.00937670 -0.02905546 -0.00451799
v 0.00944540 -0.02910421 -0.00508685
v 0.00948620 -0.02913303 -0.00591095
v 0.00945720 -0.02911255 -0.00676917
v 0.00939040 -0.02906519 -0.00738303
v 0.00922992 -0.02895014 -0.00823033
v 0.00579697 -0.01960911 0.00012372
v 0.00578746 -0.01961718 0.00023089
v 0.00575642 -0.01963256 0.00033307
v 0.00570528 -0.01965452 0.00042550
v 0.00563644 -0.01968206 0.00050388
v 0.00555309 -0.01971387 0.00056456
v 0.00545912 -0.01974850 0.00060471
v 0.00475759 -0.01694067 0.00017263
v 0.00474518 -0.01694760 0.00028960
v 0.00470814 -0.01696502 0.00040014
v 0.00464851 -0.01699197 0.00049813
v 0.00456907 -0.01702719 0.00057771
v 0.00447470 -0.01706852 0.00063498
v 0.00437061 -0.01711368 0.00066676
v 0.00493239 -0.01842420 0.00064630
v 0.00545747 -0.01898220 0.00045472
v 0.00542031 -0.01899693 0.00049953
v 0.00492894 -0.01765185 0.00048626
v 0.00488854 -0.01766893 0.00053218
v 0.00908691 -0.02907620 -0.00888780
v 0.00909350 -0.02896576 -0.00886158
v 0.00907563 -0.02885856 -0.00882820
v 0.00904594 -0.02878252 -0.00879895
v 0.00900411 -0.02871491 -0.00876791
v 0.00896772 -0.02867248 -0.00874511
v 0.00892624 -0.02863524 -0.00872197
v 0.00862176 -0.02871192 -0.00997123
v 0.00813840 -0.02824506 -0.01071974
v 0.00780973 -0.02780697 -0.01112404
v 0.00758389 -0.02735200 -0.01137304
v 0.00748950 -0.02705623 -0.01147510
v 0.00741804 -0.02674689 -0.01155346
v 0.00749746 -0.02671545 -0.01147551
v 0.00755607 -0.02668437 -0.01138078
v 0.00759070 -0.02665531 -0.01127435
v 0.00759952 -0.02662982 -0.01116189
v 0.00772174 -0.02713938 -0.01100586
v 0.00787535 -0.02749304 -0.01079611
v 0.00804846 -0.02776695 -0.01054659
v 0.00829165 -0.02806211 -0.01016118
v 0.00855359 -0.02832150 -0.00967440
v 0.00875557 -0.02849752 -0.00921221
v 0.00897753 -0.02876215 -0.00907750
v 0.00876220 -0.02859148 -0.00960250
v 0.00864549 -0.02849326 -0.00984044
v 0.00827833 -0.02814286 -0.01045968
v 0.00798996 -0.02778906 -0.01085759
v 0.00437060 -0.01711372 0.00066677
v 0.00437061 -0.01711368 0.00066676
v 0.00475759 -0.01694067 0.00017263
v 0.00474518 -0.01694760 0.00028960
v 0.00470814 -0.01696502 0.00040014
v 0.00464851 -0.01699197 0.00049813
v 0.00456907 -0.01702719 0.00057771
v 0.00447470 -0.01706852 0.00063498
v 0.00360887 -0.01447699 0.00024081
v 0.00359788 -0.01448812 0.00036152
v 0.00356107 -0.01451188 0.00047507
v 0.00350059 -0.01454686 0.00057474
v 0.00342006 -0.01459099 0.00065462
v 0.00332424 -0.01464166 0.00070998
v 0.00321880 -0.01469586 0.00073754
v 0.00381192 -0.01589647 0.00069269
v 0.00375910 -0.01517348 0.00059420
v 0.00380097 -0.01515149 0.00054761
v 0.00433346 -0.01639344 0.00055674
v 0.00437495 -0.01637394 0.00051047
v 0.00741804 -0.02674689 -0.01155346
v 0.00749746 -0.02671545 -0.01147551
v 0.00755607 -0.02668437 -0.01138078
v 0.00759070 -0.02665531 -0.01127435
v 0.00759952 -0.02662982 -0.01116189
v 0.00658568 -0.02322514 -0.01221170
v 0.00545913 -0.01974850 -0.01259940
v 0.00555309 -0.01971388 -0.01255925
v 0.00563644 -0.01968206 -0.01249857
v 0.00570528 -0.01965453 -0.01242019
v 0.00575642 -0.01963256 -0.01232776
v 0.00578746 -0.01961718 -0.01222558
v 0.00579697 -0.01960911 -0.01211841
v 0.00684163 -0.02309870 -0.01176720
v 0.00677712 -0.02315157 -0.01202894
v 0.00360887 -0.01447699 0.00024081
v 0.00359788 -0.01448812 0.00036152
v 0.00356107 -0.01451188 0.00047507
v 0.00350059 -0.01454686 0.00057474
v 0.00342006 -0.01459099 0.00065462
v 0.00332424 -0.01464166 0.00070998
v 0.00321880 -0.01469586 0.00073754
v 0.00331060 -0.01384748 0.00027302
v 0.00310007 -0.01318356 0.00030739
v 0.00308632 -0.01319147 0.00042918
v 0.00304390 -0.01320516 0.00054362
v 0.00297535 -0.01322379 0.00064380
v 0.00288480 -0.01324624 0.00072369
v 0.00277774 -0.01327116 0.00077846
v 0.00266060 -0.01329704 0.00080481
v 0.00289062 -0.01401605 0.00077151
v 0.00319131 -0.01389923 0.00060962
v 0.00545913 -0.01974850 -0.01259940
v 0.00555309 -0.01971388 -0.01255925
v 0.00563644 -0.01968206 -0.01249857
v 0.00570528 -0.01965453 -0.01242019
v 0.00575642 -0.01963256 -0.01232776
v 0.00578746 -0.01961718 -0.01222558
v 0.00579697 -0.01960911 -0.01211841
v 0.00493239 -0.01842420 -0.01264099
v 0.00437061 -0.01711368 -0.01266145
v 0.00447470 -0.01706852 -0.01262966
v 0.00456907 -0.01702719 -0.01257240
v 0.00464851 -0.01699197 -0.01249282
v 0.00470814 -0.01696502 -0.01239483
v 0.00474518 -0.01694760 -0.01228429
v 0.00475759 -0.01694067 -0.01216732
v 0.00570528 -0.01965453 -0.01242019
v 0.00542031 -0.01899694 -0.01249422
v 0.00545747 -0.01898221 -0.01244941
v 0.00488855 -0.01766894 -0.01252687
v 0.00492894 -0.01765185 -0.01248094
v 0.00310007 -0.01318356 0.00030739
v 0.00308632 -0.01319147 0.00042918
v 0.00304390 -0.01320516 0.00054362
v 0.00297535 -0.01322379 0.00064380
v 0.00288480 -0.01324624 0.00072369
v 0.00277774 -0.01327116 0.00077846
v 0.00266060 -0.01329704 0.00080481
v 0.00308887 -0.01312830 0.00030995
v 0.00307495 -0.01313582 0.00043205
v 0.00303214 -0.01314863 0.00054641
v 0.00296318 -0.01316594 0.00064661
v 0.00287242 -0.01318665 0.00072608
v 0.00276533 -0.01320955 0.00078073
v 0.00264758 -0.01323340 0.00080739
v 0.00437061 -0.01711368 -0.01266145
v 0.00447470 -0.01706852 -0.01262966
v 0.00456907 -0.01702719 -0.01257240
v 0.00464851 -0.01699197 -0.01249282
v 0.00470814 -0.01696502 -0.01239483
v 0.00474518 -0.01694760 -0.01228429
v 0.00475759 -0.01694067 -0.01216732
v 0.00437060 -0.01711372 -0.01266145
v 0.00381192 -0.01589647 -0.01268738
v 0.00321881 -0.01469586 -0.01273223
v 0.00332424 -0.01464166 -0.01270467
v 0.00342006 -0.01459100 -0.01264931
v 0.00350059 -0.01454686 -0.01256943
v 0.00356107 -0.01451188 -0.01246976
v 0.00359788 -0.01448812 -0.01235621
v 0.00360887 -0.01447699 -0.01223550
v 0.00380097 -0.01515150 -0.01254230
v 0.00375910 -0.01517348 -0.01258889
v 0.00437495 -0.01637394 -0.01250516
v 0.00433346 -0.01639344 -0.01255143
v 0.00340835 -0.01009109 0.00075889
v 0.00288147 -0.01106556 0.00082217
v 0.00261904 -0.01202222 0.00083492
v 0.00258196 -0.01262933 0.00082635
v 0.00264757 -0.01323340 0.00080739
v 0.00264758 -0.01323340 0.00080739
v 0.00308887 -0.01312830 0.00030995
v 0.00307495 -0.01313582 0.00043205
v 0.00303214 -0.01314863 0.00054641
v 0.00296318 -0.01316594 0.00064661
v 0.00287242 -0.01318665 0.00072608
v 0.00276533 -0.01320955 0.00078073
v 0.00303278 -0.01242471 0.00033317
v 0.00313054 -0.01172331 0.00033725
v 0.00336081 -0.01105706 0.00031819
v 0.00353891 -0.01070356 0.00029525
v 0.00374717 -0.01036726 0.00026455
v 0.00374021 -0.01035150 0.00038303
v 0.00371012 -0.01032065 0.00049479
v 0.00365862 -0.01027649 0.00059343
v 0.00358811 -0.01022124 0.00067286
v 0.00350310 -0.01015831 0.00072908
v 0.00340847 -0.01009131 0.00075887
v 0.00290360 -0.01242779 0.00066833
v 0.00296644 -0.01187666 0.00067194
v 0.00308073 -0.01143541 0.00066545
v 0.00321069 -0.01108877 0.00065298
v 0.00329629 -0.01090059 0.00064300
v 0.00321881 -0.01469586 -0.01273223
v 0.00332424 -0.01464166 -0.01270467
v 0.00342006 -0.01459100 -0.01264931
v 0.00350059 -0.01454686 -0.01256943
v 0.00356107 -0.01451188 -0.01246976
v 0.00359788 -0.01448812 -0.01235621
v 0.00360887 -0.01447699 -0.01223550
v 0.00289062 -0.01401605 -0.01276620
v 0.00266060 -0.01329704 -0.01279950
v 0.00277774 -0.01327116 -0.01277315
v 0.00288480 -0.01324624 -0.01271838
v 0.00297535 -0.01322379 -0.01263849
v 0.00304390 -0.01320516 -0.01253831
v 0.00308632 -0.01319147 -0.01242387
v 0.00310007 -0.01318356 -0.01230208
v 0.00331060 -0.01384748 -0.01226771
v 0.00319131 -0.01389923 -0.01260431
v 0.00374717 -0.01036726 0.00026455
v 0.00374021 -0.01035150 0.00038303
v 0.00371012 -0.01032065 0.00049479
v 0.00365862 -0.01027649 0.00059343
v 0.00358811 -0.01022124 0.00067286
v 0.00350310 -0.01015831 0.00072908
v 0.00340847 -0.01009131 0.00075887
v 0.00445455 -0.00953416 0.00015532
v 0.00529930 -0.00885695 0.00000476
v 0.00622126 -0.00830453 -0.00019299
v 0.00623495 -0.00828012 -0.00007517
v 0.00623357 -0.00823152 0.00003575
v 0.00621719 -0.00816157 0.00013324
v 0.00618679 -0.00807438 0.00021160
v 0.00614414 -0.00797507 0.00026622
v 0.00609174 -0.00786946 0.00029390
v 0.00477168 -0.00868334 0.00055612
v 0.00403213 -0.00932789 0.00067189
v 0.00573197 -0.00843477 0.00024205
v 0.00574514 -0.00847501 0.00019014
v 0.00510618 -0.00883437 0.00036582
v 0.00466295 -0.00917557 0.00044315
v 0.00431919 -0.00948830 0.00049793
v 0.00266060 -0.01329704 -0.01279950
v 0.00277774 -0.01327116 -0.01277315
v 0.00288480 -0.01324624 -0.01271838
v 0.00297535 -0.01322379 -0.01263849
v 0.00304390 -0.01320516 -0.01253831
v 0.00308632 -0.01319147 -0.01242387
v 0.00310007 -0.01318356 -0.01230208
v 0.00264758 -0.01323340 -0.01280208
v 0.00276535 -0.01320955 -0.01277542
v 0.00287244 -0.01318665 -0.01272076
v 0.00296320 -0.01316594 -0.01264128
v 0.00303216 -0.01314862 -0.01254106
v 0.00307495 -0.01313582 -0.01242672
v 0.00308887 -0.01312830 -0.01230464
v 0.00622126 -0.00830453 -0.00019299
v 0.00623495 -0.00828012 -0.00007517
v 0.00623357 -0.00823152 0.00003575
v 0.00621719 -0.00816157 0.00013324
v 0.00618679 -0.00807438 0.00021160
v 0.00614414 -0.00797507 0.00026622
v 0.00609174 -0.00786946 0.00029390
v 0.00674774 -0.00801138 -0.00032337
v 0.00816368 -0.00721177 -0.00067946
v 0.00913427 -0.00668254 -0.00123917
v 0.00990663 -0.00625249 -0.00177182
v 0.01033114 -0.00601612 -0.00220264
v 0.01068461 -0.00581930 -0.00270899
v 0.01076134 -0.00576085 -0.00264315
v 0.01082072 -0.00568187 -0.00258086
v 0.01085214 -0.00561039 -0.00253795
v 0.01087030 -0.00553295 -0.00250101
v 0.01087526 -0.00547528 -0.00247866
v 0.01087354 -0.00541618 -0.00245984
v 0.01031094 -0.00569100 -0.00170131
v 0.00960958 -0.00602973 -0.00109998
v 0.00789905 -0.00690362 -0.00023782
v 0.01040969 -0.00588362 -0.00195557
v 0.01016168 -0.00601539 -0.00168741
v 0.00983121 -0.00619142 -0.00139558
v 0.00942652 -0.00640838 -0.00110579
v 0.00860514 -0.00685253 -0.00065876
v 0.00807836 -0.00709756 -0.00039860
v 0.00737601 -0.00752397 -0.00018550
v 0.00648509 -0.00801387 0.00006783
v 0.00649512 -0.00805466 0.00001662
v 0.00264758 -0.01323340 -0.01280208
v 0.00276535 -0.01320955 -0.01277542
v 0.00287244 -0.01318665 -0.01272076
v 0.00296320 -0.01316594 -0.01264128
v 0.00303216 -0.01314862 -0.01254106
v 0.00307495 -0.01313582 -0.01242672
v 0.00308887 -0.01312830 -0.01230464
v 0.00264757 -0.01323340 -0.01280208
v 0.00258280 -0.01243159 -0.01282501
v 0.00269566 -0.01163253 -0.01282893
v 0.00296365 -0.01087556 -0.01280913
v 0.00317008 -0.01047466 -0.01278528
v 0.00340835 -0.01009109 -0.01275358
v 0.00340847 -0.01009132 -0.01275356
v 0.00350311 -0.01015831 -0.01272377
v 0.00358811 -0.01022124 -0.01266755
v 0.00365862 -0.01027649 -0.01258812
v 0.00371013 -0.01032065 -0.01248948
v 0.00374021 -0.01035150 -0.01237772
v 0.00374717 -0.01036726 -0.01225925
v 0.00329022 -0.01122446 -0.01232032
v 0.00306436 -0.01206535 -0.01233253
v 0.00303193 -0.01259800 -0.01232384
v 0.00290360 -0.01242770 -0.01266302
v 0.00296626 -0.01187758 -0.01266664
v 0.00308058 -0.01143588 -0.01266015
v 0.00321098 -0.01108809 -0.01264763
v 0.00329783 -0.01089782 -0.01263732
v 0.01068461 -0.00581930 -0.00270899
v 0.01076134 -0.00576085 -0.00264315
v 0.01082072 -0.00568187 -0.00258086
v 0.01085214 -0.00561039 -0.00253795
v 0.01087030 -0.00553295 -0.00250101
v 0.01087526 -0.00547528 -0.00247866
v 0.01087354 -0.00541618 -0.00245984
v 0.01122649 -0.00551757 -0.00387369
v 0.01152048 -0.00535388 -0.00513813
v 0.01156030 -0.00533170 -0.00645122
v 0.01134382 -0.00545225 -0.00774023
v 0.01106558 -0.00560717 -0.00854024
v 0.01068459 -0.00581931 -0.00928569
v 0.01076134 -0.00576084 -0.00935153
v 0.01082073 -0.00568186 -0.00941380
v 0.01085215 -0.00561039 -0.00945671
v 0.01087031 -0.00553295 -0.00949365
v 0.01087527 -0.00547528 -0.00951601
v 0.01087354 -0.00541618 -0.00953484
v 0.01148801 -0.00510123 -0.00818395
v 0.01179643 -0.00494256 -0.00670254
v 0.01178472 -0.00494859 -0.00518186
v 0.01147348 -0.00510869 -0.00376682
v 0.01092419 -0.00560705 -0.00927324
v 0.01133115 -0.00538581 -0.00838725
v 0.01147097 -0.00530981 -0.00796720
v 0.01158356 -0.00524854 -0.00445993
v 0.01140180 -0.00534743 -0.00380821
v 0.00340847 -0.01009132 -0.01275356
v 0.00350311 -0.01015831 -0.01272377
v 0.00358811 -0.01022124 -0.01266755
v 0.00365862 -0.01027649 -0.01258812
v 0.00371013 -0.01032065 -0.01248948
v 0.00374021 -0.01035150 -0.01237772
v 0.00374717 -0.01036726 -0.01225925
v 0.00417246 -0.00918916 -0.01264595
v 0.00508921 -0.00845903 -0.01249496
v 0.00609174 -0.00786946 -0.01228859
v 0.00614414 -0.00797507 -0.01226091
v 0.00618679 -0.00807438 -0.01220629
v 0.00621719 -0.00816157 -0.01212793
v 0.00623357 -0.00823152 -0.01203044
v 0.00623495 -0.00828012 -0.01191952
v 0.00622126 -0.00830453 -0.01180170
v 0.00500685 -0.00906545 -0.01205480
v 0.00432504 -0.00966251 -0.01217079
v 0.00570361 -0.00839567 -0.01228504
v 0.00510582 -0.00883462 -0.01236058
v 0.00466560 -0.00917334 -0.01243741
v 0.00431835 -0.00948913 -0.01249275
v 0.01068459 -0.00581931 -0.00928569
v 0.01076134 -0.00576084 -0.00935153
v 0.01082073 -0.00568186 -0.00941380
v 0.01085215 -0.00561039 -0.00945671
v 0.01087031 -0.00553295 -0.00949365
v 0.01087527 -0.00547528 -0.00951601
v 0.01087354 -0.00541618 -0.00953484
v 0.01025157 -0.00606042 -0.00988486
v 0.00972093 -0.00635588 -0.01037295
v 0.00913427 -0.00668254 -0.01075552
v 0.00816368 -0.00721178 -0.01131523
v 0.00674774 -0.00801138 -0.01167133
v 0.00622126 -0.00830453 -0.01180170
v 0.00609174 -0.00786946 -0.01228859
v 0.00614414 -0.00797507 -0.01226091
v 0.00618679 -0.00807438 -0.01220629
v 0.00621719 -0.00816157 -0.01212793
v 0.00623357 -0.00823152 -0.01203044
v 0.00623495 -0.00828012 -0.01191952
v 0.00843175 -0.00662569 -0.01154141
v 0.00953135 -0.00606831 -0.01094841
v 0.01027707 -0.00570716 -0.01032906
v 0.00648505 -0.00801389 -0.01206253
v 0.00649509 -0.00805468 -0.01201132
v 0.00763902 -0.00737978 -0.01172203
v 0.00833948 -0.00695605 -0.01148915
v 0.00886099 -0.00671367 -0.01121151
v 0.00938852 -0.00642882 -0.01091323
v 0.00969464 -0.00626442 -0.01070389
v 0.01005039 -0.00607453 -0.01041271
v 0.01032655 -0.00592782 -0.01013486
v -0.00385935 -0.00543955 -0.01281015
v -0.00384896 -0.00551666 -0.01288954
v -0.00383256 -0.00560854 -0.01295008
v -0.00381109 -0.00571039 -0.01298935
v -0.00379726 -0.00576974 -0.01300114
v -0.00378233 -0.00582987 -0.01300516
v -0.00387311 -0.00585274 -0.01299411
v -0.00389904 -0.00574530 -0.01298126
v -0.00392079 -0.00564249 -0.01294446
v -0.00393744 -0.00554911 -0.01288613
v -0.00394417 -0.00550292 -0.01284513
v -0.00394885 -0.00546198 -0.01279860
v -0.00387311 -0.00585274 -0.01299411
v -0.00389904 -0.00574530 -0.01298126
v -0.00392079 -0.00564249 -0.01294446
v -0.00393744 -0.00554911 -0.01288613
v -0.00394417 -0.00550292 -0.01284513
v -0.00394885 -0.00546198 -0.01279860
v -0.00568118 -0.00629083 -0.01257065
v -0.00702810 -0.00659517 -0.01188671
v -0.00790243 -0.00678145 -0.01114339
v -0.00843731 -0.00689031 -0.01045715
v -0.00884472 -0.00697073 -0.00968507
v -0.00884800 -0.00685913 -0.00967704
v -0.00882826 -0.00675035 -0.00965951
v -0.00878648 -0.00664985 -0.00963338
v -0.00872476 -0.00656265 -0.00959995
v -0.00864620 -0.00649314 -0.00956089
v -0.00566213 -0.00587025 -0.01237454
v -0.00694535 -0.00615109 -0.01169466
v -0.00776705 -0.00632046 -0.01096639
v -0.00826660 -0.00641965 -0.01030170
v -0.00841006 -0.00662283 -0.01041291
v -0.00816467 -0.00657570 -0.01076246
v -0.00788363 -0.00652086 -0.01109535
v -0.00747488 -0.00643931 -0.01148908
v -0.00702274 -0.00634646 -0.01183612
v -0.00637580 -0.00620872 -0.01221954
v -0.00385935 -0.00543955 -0.01281015
v -0.00384896 -0.00551666 -0.01288954
v -0.00383256 -0.00560854 -0.01295008
v -0.00381109 -0.00571039 -0.01298935
v -0.00379726 -0.00576974 -0.01300114
v -0.00378233 -0.00582987 -0.01300516
v 0.00231166 -0.00359572 -0.01273576
v -0.00075043 -0.00458710 -0.01294835
v 0.00235067 -0.00366900 -0.01281963
v 0.00239244 -0.00375987 -0.01288227
v 0.00242149 -0.00382987 -0.01291094
v 0.00245118 -0.00390715 -0.01292760
v 0.00247947 -0.00398665 -0.01293031
v -0.00063121 -0.00496919 -0.01313509
v -0.00884472 -0.00697073 -0.00968507
v -0.00884800 -0.00685913 -0.00967704
v -0.00882826 -0.00675035 -0.00965951
v -0.00878648 -0.00664985 -0.00963338
v -0.00872476 -0.00656265 -0.00959995
v -0.00864620 -0.00649314 -0.00956089
v -0.00908548 -0.00702427 -0.00898371
v -0.00916670 -0.00704597 -0.00862061
v -0.00921258 -0.00705804 -0.00825085
v -0.00921354 -0.00693642 -0.00824818
v -0.00918517 -0.00681821 -0.00824334
v -0.00912915 -0.00671042 -0.00823663
v -0.00904881 -0.00661943 -0.00822844
v -0.00894890 -0.00655063 -0.00821926
v -0.00887132 -0.00653601 -0.00882886
v -0.00877656 -0.00651803 -0.00919904
v -0.00909156 -0.00675123 -0.00874552
v -0.00905145 -0.00674407 -0.00892173
v -0.00899940 -0.00673447 -0.00911411
v 0.00231166 -0.00359572 -0.01273576
v 0.00235067 -0.00366900 -0.01281963
v 0.00239244 -0.00375987 -0.01288227
v 0.00242149 -0.00382987 -0.01291094
v 0.00245118 -0.00390715 -0.01292760
v 0.00247947 -0.00398665 -0.01293031
v 0.00241194 -0.00356051 -0.01271983
v 0.00245095 -0.00363376 -0.01280367
v 0.00249288 -0.00372453 -0.01286625
v 0.00252209 -0.00379444 -0.01289490
v 0.00255197 -0.00387160 -0.01291153
v 0.00258044 -0.00395099 -0.01291423
v -0.00921258 -0.00705804 -0.00825085
v -0.00921354 -0.00693642 -0.00824818
v -0.00918517 -0.00681821 -0.00824334
v -0.00912915 -0.00671042 -0.00823663
v -0.00904881 -0.00661943 -0.00822844
v -0.00894890 -0.00655063 -0.00821926
v -0.00921578 -0.00705889 -0.00820745
v -0.00921845 -0.00695735 -0.00820562
v -0.00920071 -0.00685736 -0.00820237
v -0.00916331 -0.00676302 -0.00819782
v -0.00910740 -0.00667838 -0.00819216
v -0.00903565 -0.00660674 -0.00818561
v -0.00895101 -0.00655103 -0.00817846
v 0.00241194 -0.00356051 -0.01271983
v 0.00245095 -0.00363376 -0.01280367
v 0.00249288 -0.00372453 -0.01286625
v 0.00252209 -0.00379444 -0.01289490
v 0.00255197 -0.00387160 -0.01291153
v 0.00258044 -0.00395099 -0.01291423
v 0.01068651 0.00000909 -0.00959838
v 0.01020887 -0.00023429 -0.01023503
v 0.00960444 -0.00053555 -0.01073261
v 0.00816697 -0.00122200 -0.01143779
v 0.00613138 -0.00212263 -0.01204514
v 0.00429034 -0.00286699 -0.01242011
v 0.01078469 -0.00001523 -0.00965235
v 0.01087909 -0.00006333 -0.00969628
v 0.01096483 -0.00013253 -0.00972797
v 0.01103708 -0.00021984 -0.00974532
v 0.01109213 -0.00032041 -0.00974758
v 0.01112311 -0.00041039 -0.00973811
v 0.01113911 -0.00050258 -0.00971848
v 0.01058007 -0.00073635 -0.01042513
v 0.00988094 -0.00102260 -0.01095978
v 0.00839746 -0.00165881 -0.01165140
v 0.00633578 -0.00252548 -0.01224789
v 0.00447248 -0.00325882 -0.01261746
v 0.00530868 -0.00267231 -0.01240241
v 0.00623465 -0.00229419 -0.01220485
v 0.00726225 -0.00185733 -0.01194167
v 0.00829039 -0.00140313 -0.01161280
v 0.00902835 -0.00106824 -0.01131478
v 0.00976947 -0.00072758 -0.01092702
v 0.01012105 -0.00056571 -0.01068925
v 0.01044533 -0.00041647 -0.01041549
v 0.01068651 0.00000909 -0.00959838
v 0.01078469 -0.00001523 -0.00965235
v 0.01087909 -0.00006333 -0.00969628
v 0.01096483 -0.00013253 -0.00972797
v 0.01103708 -0.00021984 -0.00974532
v 0.01109213 -0.00032041 -0.00974758
v 0.01112311 -0.00041039 -0.00973811
v 0.01113911 -0.00050258 -0.00971848
v 0.01130259 0.00032992 -0.00860938
v 0.01140704 0.00029031 -0.00863767
v 0.01150279 0.00022839 -0.00865448
v 0.01158470 0.00014745 -0.00865893
v 0.01164844 0.00005178 -0.00865079
v 0.01169062 -0.00005353 -0.00863048
v 0.01170901 -0.00016288 -0.00859908
v 0.01130259 0.00032992 -0.00860938
v 0.01140704 0.00029031 -0.00863767
v 0.01150279 0.00022839 -0.00865448
v 0.01158470 0.00014745 -0.00865893
v 0.01164844 0.00005178 -0.00865079
v 0.01169062 -0.00005353 -0.00863048
v 0.01170901 -0.00016288 -0.00859908
v 0.01144766 0.00040661 -0.00832680
v 0.01154565 0.00045864 -0.00801937
v 0.01159137 0.00048300 -0.00769444
v 0.01169966 0.00044415 -0.00772195
v 0.01179598 0.00038015 -0.00774680
v 0.01187495 0.00029457 -0.00776761
v 0.01193214 0.00019220 -0.00778321
v 0.01196434 0.00007879 -0.00779273
v 0.01196978 -0.00003934 -0.00779563
v 0.01186647 -0.00006000 -0.00816145
v 0.01179124 -0.00010156 -0.00838378
v 0.01169617 0.00020993 -0.00839883
v 0.01174086 0.00023384 -0.00827601
v 0.01178843 0.00025768 -0.00812697
v 0.01159137 0.00048300 -0.00769444
v 0.01169966 0.00044415 -0.00772195
v 0.01179598 0.00038015 -0.00774680
v 0.01187495 0.00029457 -0.00776761
v 0.01193214 0.00019220 -0.00778321
v 0.01196434 0.00007879 -0.00779273
v 0.01196978 -0.00003934 -0.00779563
v 0.01168312 0.00053199 -0.00600781
v 0.01178692 0.00052321 -0.00600781
v 0.01189889 0.00048808 -0.00600728
v 0.01199901 0.00042815 -0.00600620
v 0.01208166 0.00034758 -0.00600463
v 0.01212493 0.00028534 -0.00600337
v 0.01215954 0.00021398 -0.00600189
v 0.01218154 0.00014185 -0.00600039
v 0.01219223 0.00007117 -0.00599890
v 0.01219258 -0.00000268 -0.00599735
v -0.00921578 -0.00705889 -0.00378724
v -0.00921845 -0.00695735 -0.00378908
v -0.00920071 -0.00685736 -0.00379234
v -0.00916331 -0.00676302 -0.00379688
v -0.00910741 -0.00667838 -0.00380256
v -0.00903566 -0.00660674 -0.00380910
v -0.00895101 -0.00655103 -0.00381623
v -0.00921258 -0.00705804 -0.00374384
v -0.00921354 -0.00693642 -0.00374651
v -0.00918517 -0.00681821 -0.00375135
v -0.00912915 -0.00671042 -0.00375806
v -0.00904881 -0.00661943 -0.00376625
v -0.00894890 -0.00655063 -0.00377543
v 0.01168312 0.00053199 -0.00600781
v 0.01178692 0.00052321 -0.00600781
v 0.01189889 0.00048808 -0.00600728
v 0.01199901 0.00042815 -0.00600620
v 0.01208166 0.00034758 -0.00600463
v 0.01212493 0.00028534 -0.00600337
v 0.01215954 0.00021398 -0.00600189
v 0.01218154 0.00014185 -0.00600039
v 0.01219223 0.00007117 -0.00599890
v 0.01219258 -0.00000268 -0.00599735
v 0.01219258 -0.00000268 -0.00599735
v 0.01168312 0.00053199 -0.00598688
v 0.01180700 0.00051904 -0.00598697
v 0.01187323 0.00049878 -0.00598730
v 0.01193584 0.00046957 -0.00598782
v 0.01199462 0.00043142 -0.00598853
v 0.01204742 0.00038558 -0.00598942
v 0.01209267 0.00033354 -0.00599044
v 0.01214072 0.00025621 -0.00599199
v 0.01216741 0.00019240 -0.00599329
v 0.01218633 0.00011786 -0.00599483
v 0.01219310 0.00005772 -0.00599608
v 0.01216420 0.00020168 -0.00599735
v 0.01205595 0.00037701 -0.00599735
v 0.01188625 0.00049378 -0.00599735
v -0.00921258 -0.00705804 -0.00374384
v -0.00921354 -0.00693642 -0.00374651
v -0.00918517 -0.00681821 -0.00375135
v -0.00912915 -0.00671042 -0.00375806
v -0.00904881 -0.00661943 -0.00376625
v -0.00894890 -0.00655063 -0.00377543
v -0.00916601 -0.00704542 -0.00337468
v -0.00908597 -0.00702439 -0.00301282
v -0.00884472 -0.00697072 -0.00230962
v -0.00884800 -0.00685913 -0.00231765
v -0.00882826 -0.00675035 -0.00233518
v -0.00878648 -0.00664984 -0.00236131
v -0.00872476 -0.00656265 -0.00239474
v -0.00864620 -0.00649314 -0.00243380
v -0.00883769 -0.00652964 -0.00301676
v -0.00891109 -0.00654352 -0.00339193
v -0.00911430 -0.00675491 -0.00336983
v -0.00907927 -0.00674899 -0.00319165
v -0.00903176 -0.00674048 -0.00299644
v 0.01168312 0.00053199 -0.00598688
v 0.01180700 0.00051904 -0.00598697
v 0.01187323 0.00049878 -0.00598730
v 0.01193584 0.00046957 -0.00598782
v 0.01199462 0.00043142 -0.00598853
v 0.01204742 0.00038558 -0.00598942
v 0.01209267 0.00033354 -0.00599044
v 0.01214072 0.00025621 -0.00599199
v 0.01216741 0.00019240 -0.00599329
v 0.01218633 0.00011786 -0.00599483
v 0.01219310 0.00005772 -0.00599608
v 0.01219258 -0.00000268 -0.00599735
v 0.01159137 0.00048300 -0.00430025
v 0.01169966 0.00044415 -0.00427275
v 0.01179598 0.00038015 -0.00424789
v 0.01187495 0.00029457 -0.00422708
v 0.01193214 0.00019220 -0.00421148
v 0.01196436 0.00007879 -0.00420196
v 0.01196978 -0.00003934 -0.00419906
v 0.01200262 0.00034970 -0.00510670
v -0.00884472 -0.00697072 -0.00230962
v -0.00884800 -0.00685913 -0.00231765
v -0.00882826 -0.00675035 -0.00233518
v -0.00878648 -0.00664984 -0.00236131
v -0.00872476 -0.00656265 -0.00239474
v -0.00864620 -0.00649314 -0.00243380
v -0.00824000 -0.00685062 -0.00125391
v -0.00739907 -0.00667541 -0.00038294
v -0.00639177 -0.00645380 0.00026607
v -0.00528348 -0.00619737 0.00070998
v -0.00458492 -0.00602927 0.00088609
v -0.00387311 -0.00585277 0.00099942
v -0.00386066 -0.00584946 0.00100097
v -0.00385796 -0.00582945 0.00100151
v -0.00385949 -0.00580251 0.00100041
v -0.00387152 -0.00569968 0.00098154
v -0.00388317 -0.00559470 0.00093682
v -0.00388713 -0.00551295 0.00087997
v -0.00388468 -0.00547585 0.00084623
v -0.00387865 -0.00545276 0.00082313
v -0.00386880 -0.00544193 0.00081426
v -0.00810935 -0.00638871 -0.00145666
v -0.00736814 -0.00623922 -0.00063368
v -0.00646655 -0.00604869 0.00000234
v -0.00547182 -0.00582683 0.00045013
v -0.00467995 -0.00564104 0.00067646
v -0.00823022 -0.00658835 -0.00131943
v -0.00785877 -0.00651621 -0.00087259
v -0.00742636 -0.00642968 -0.00046507
v -0.00646031 -0.00622708 0.00018094
v 0.01159137 0.00048300 -0.00430025
v 0.01169966 0.00044415 -0.00427275
v 0.01179598 0.00038015 -0.00424789
v 0.01187495 0.00029457 -0.00422708
v 0.01193214 0.00019220 -0.00421148
v 0.01196436 0.00007879 -0.00420196
v 0.01196978 -0.00003934 -0.00419906
v 0.01154626 0.00045897 -0.00397766
v 0.01144853 0.00040707 -0.00367019
v 0.01130259 0.00032993 -0.00338531
v 0.01140704 0.00029031 -0.00335702
v 0.01150279 0.00022839 -0.00334021
v 0.01158470 0.00014745 -0.00333576
v 0.01164844 0.00005178 -0.00334390
v 0.01169062 -0.00005353 -0.00336421
v 0.01170902 -0.00016288 -0.00339561
v 0.01183728 -0.00007397 -0.00374347
v 0.01190776 -0.00004595 -0.00396923
v 0.01172384 0.00022491 -0.00367033
v 0.01177348 0.00025039 -0.00381834
v 0.01181041 0.00026787 -0.00394518
v -0.00385935 -0.00543955 0.00081545
v -0.00109450 -0.00468874 0.00095689
v 0.00062041 -0.00416296 0.00091433
v 0.00231166 -0.00359572 0.00074107
v -0.00386880 -0.00544193 0.00081426
v -0.00386066 -0.00584946 0.00100097
v -0.00385796 -0.00582945 0.00100151
v -0.00385949 -0.00580251 0.00100041
v -0.00387152 -0.00569968 0.00098154
v -0.00388317 -0.00559470 0.00093682
v -0.00388713 -0.00551295 0.00087997
v -0.00388468 -0.00547585 0.00084623
v -0.00387865 -0.00545276 0.00082313
v -0.00097690 -0.00507051 0.00114355
v 0.00081205 -0.00452623 0.00109908
v 0.00258045 -0.00395110 0.00091953
v 0.00256436 -0.00395668 0.00092208
v 0.00255401 -0.00394654 0.00092354
v 0.00254450 -0.00393300 0.00092437
v 0.00251561 -0.00387920 0.00092179
v 0.00246636 -0.00378429 0.00089835
v 0.00242537 -0.00371021 0.00086108
v 0.00238369 -0.00364537 0.00080947
v 0.00235790 -0.00361369 0.00077409
v 0.00233841 -0.00359657 0.00074970
v 0.00232421 -0.00359132 0.00073905
v 0.00181158 -0.00420736 0.00102850
v 0.01130259 0.00032993 -0.00338531
v 0.01140704 0.00029031 -0.00335702
v 0.01150279 0.00022839 -0.00334021
v 0.01158470 0.00014745 -0.00333576
v 0.01164844 0.00005178 -0.00334390
v 0.01169062 -0.00005353 -0.00336421
v 0.01170902 -0.00016288 -0.00339561
v 0.01068651 0.00000909 -0.00239630
v 0.01078476 -0.00001518 -0.00234246
v 0.01087918 -0.00006327 -0.00229858
v 0.01096493 -0.00013245 -0.00226688
v 0.01103714 -0.00021977 -0.00224950
v 0.01109217 -0.00032035 -0.00224720
v 0.01112313 -0.00041035 -0.00225663
v 0.01113911 -0.00050258 -0.00227620
v 0.00256436 -0.00395668 0.00092208
v 0.00255401 -0.00394654 0.00092354
v 0.00254450 -0.00393300 0.00092437
v 0.00251561 -0.00387920 0.00092179
v 0.00246636 -0.00378429 0.00089835
v 0.00242537 -0.00371021 0.00086108
v 0.00238369 -0.00364537 0.00080947
v 0.00235790 -0.00361369 0.00077409
v 0.00233841 -0.00359657 0.00074970
v 0.00232421 -0.00359132 0.00073905
v 0.00258043 -0.00395102 0.00091953
v 0.00464585 -0.00319286 0.00059279
v 0.00667535 -0.00238631 0.00017177
v 0.00799751 -0.00183040 -0.00020482
v 0.00927532 -0.00128033 -0.00070822
v 0.01018425 -0.00089649 -0.00123816
v 0.01070880 -0.00068481 -0.00170123
v 0.01113911 -0.00050258 -0.00227620
v 0.01068651 0.00000909 -0.00239630
v 0.01078476 -0.00001518 -0.00234246
v 0.01087918 -0.00006327 -0.00229858
v 0.01096493 -0.00013245 -0.00226688
v 0.01103714 -0.00021977 -0.00224950
v 0.01109217 -0.00032035 -0.00224720
v 0.01112313 -0.00041035 -0.00225663
v 0.00435856 -0.00284056 0.00041340
v 0.00635185 -0.00202907 -0.00000332
v 0.00764514 -0.00146081 -0.00037279
v 0.00889281 -0.00088066 -0.00086479
v 0.00979114 -0.00044330 -0.00139380
v 0.01028361 -0.00019652 -0.00184016
v 0.00551087 -0.00259103 0.00036725
v 0.00651467 -0.00217692 0.00014351
v 0.00717317 -0.00189587 -0.00002802
v 0.00782611 -0.00161021 -0.00022345
v 0.00846902 -0.00132264 -0.00044812
v 0.00909765 -0.00103649 -0.00071166
v 0.00957478 -0.00081707 -0.00095393
v 0.01001950 -0.00061215 -0.00123189
v 0.01029578 -0.00048516 -0.00144486
v 0.01055132 -0.00036764 -0.00168530
f 9 15 10
f 16 2 1
f 16 3 2
f 16 4 3
f 16 5 4
f 16 6 5
f 16 7 6
f 16 1 8
f 16 11 10
f 16 12 11
f 16 13 12
f 16 14 13
f 16 8 14
f 16 15 7
f 16 10 15
f 27 25 26
f 32 17 18
f 32 18 19
f 32 19 20
f 32 20 21
f 32 21 22
f 32 22 23
f 32 23 24
f 32 24 25
f 32 27 28
f 32 28 29
f 32 29 30
f 32 30 31
f 32 31 17
f 32 25 27
f 39 36 35
f 39 37 36
f 39 38 37
f 40 34 33
f 40 35 34
f 40 33 38
f 40 38 39
f 40 39 35
f 50 41 42
f 49 52 47
f 53 43 44
f 53 44 45
f 54 43 53
f 55 45 46
f 55 46 48
f 55 53 45
f 55 48 54
f 55 54 53
f 56 43 54
f 56 54 48
f 57 42 43
f 57 51 50
f 57 43 56
f 57 50 42
f 58 48 47
f 58 52 51
f 58 56 48
f 58 57 56
f 58 51 57
f 58 47 52
f 75 67 68
f 75 68 69
f 75 76 67
f 77 76 75
f 78 77 75
f 79 75 69
f 79 78 75
f 80 63 62
f 80 69 70
f 80 70 63
f 80 79 69
f 81 61 60
f 82 60 59
f 82 59 74
f 83 65 66
f 83 66 67
f 83 67 76
f 83 84 65
f 85 77 86
f 85 76 77
f 85 83 76
f 85 84 83
f 85 87 84
f 88 78 79
f 88 86 77
f 88 77 78
f 88 80 62
f 88 79 80
f 89 86 88
f 89 88 62
f 90 91 86
f 90 86 89
f 92 86 91
f 93 62 61
f 93 89 62
f 93 61 81
f 93 81 91
f 93 91 90
f 93 90 89
f 94 73 72
f 94 74 73
f 94 82 74
f 94 96 95
f 94 95 92
f 97 60 82
f 97 81 60
f 97 82 94
f 97 91 81
f 97 92 91
f 97 94 92
f 98 64 65
f 98 65 84
f 99 98 84
f 99 64 98
f 100 99 84
f 100 64 99
f 100 84 87
f 100 87 101
f 102 87 85
f 102 85 86
f 102 101 87
f 102 95 96
f 102 96 101
f 102 92 95
f 102 86 92
f 103 100 101
f 103 71 64
f 103 64 100
f 103 101 96
f 104 72 71
f 104 71 103
f 104 103 96
f 104 94 72
f 104 96 94
f 113 112 111
f 114 113 111
f 115 114 111
f 116 115 111
f 117 108 109
f 118 109 110
f 118 117 109
f 119 106 105
f 119 110 106
f 119 118 110
f 120 107 108
f 120 111 107
f 120 117 116
f 120 108 117
f 120 116 111
f 128 131 127
f 122 133 123
f 121 133 122
f 134 124 123
f 134 123 133
f 135 129 130
f 135 132 129
f 136 133 132
f 136 132 135
f 136 134 133
f 137 130 131
f 137 135 130
f 138 136 135
f 138 135 137
f 139 131 128
f 139 137 131
f 139 138 137
f 140 125 124
f 140 126 125
f 140 128 126
f 140 136 138
f 140 134 136
f 140 124 134
f 140 138 139
f 140 139 128
f 145 147 144
f 145 148 147
f 162 156 155
f 162 157 156
f 161 155 154
f 161 162 155
f 160 154 153
f 160 161 154
f 159 153 152
f 159 160 153
f 141 158 142
f 163 150 149
f 164 145 146
f 164 149 148
f 164 163 149
f 164 148 145
f 165 164 146
f 165 163 164
f 166 146 143
f 166 165 146
f 167 143 142
f 167 151 150
f 167 152 151
f 167 158 159
f 167 163 165
f 167 166 143
f 167 165 166
f 167 159 152
f 167 150 163
f 167 142 158
f 169 168 172
f 171 170 169
f 171 169 172
f 182 177 176
f 182 178 177
f 182 179 178
f 182 180 179
f 182 181 180
f 183 176 175
f 183 182 176
f 184 174 173
f 184 175 174
f 184 183 175
f 186 184 173
f 185 184 186
f 204 203 206
f 204 206 207
f 200 188 187
f 200 187 194
f 199 188 200
f 198 189 188
f 198 188 199
f 197 189 198
f 195 201 196
f 208 207 193
f 209 192 191
f 209 193 192
f 209 208 193
f 210 205 204
f 210 204 207
f 210 207 208
f 211 205 210
f 211 210 208
f 212 208 209
f 212 205 211
f 212 211 208
f 213 202 205
f 213 205 212
f 213 212 209
f 214 190 189
f 214 191 190
f 214 197 196
f 214 201 202
f 214 209 191
f 214 213 209
f 214 202 213
f 214 189 197
f 214 196 201
f 216 219 217
f 218 216 215
f 218 219 216
f 221 220 225
f 229 232 227
f 228 229 227
f 233 232 231
f 233 227 232
f 234 224 223
f 234 223 226
f 235 226 227
f 235 234 226
f 235 227 233
f 236 225 224
f 236 224 234
f 237 234 235
f 237 236 234
f 238 236 237
f 238 221 225
f 238 225 236
f 239 222 221
f 239 231 230
f 239 230 222
f 239 238 237
f 239 235 233
f 239 237 235
f 239 233 231
f 239 221 238
f 251 245 246
f 251 246 247
f 250 244 245
f 250 245 251
f 249 242 243
f 249 243 244
f 249 244 250
f 248 241 242
f 248 242 249
f 240 241 248
f 253 263 262
f 253 264 263
f 253 252 264
f 254 262 261
f 254 253 262
f 255 261 260
f 255 254 261
f 256 260 259
f 256 255 260
f 257 256 259
f 258 257 259
f 276 275 273
f 278 273 274
f 278 277 276
f 278 265 277
f 278 276 273
f 279 267 266
f 280 268 267
f 280 269 268
f 280 267 279
f 281 279 266
f 282 269 280
f 282 279 281
f 282 280 279
f 283 266 265
f 283 274 272
f 283 281 266
f 283 265 278
f 283 278 274
f 284 282 281
f 285 270 269
f 285 269 282
f 285 282 284
f 286 271 270
f 286 272 271
f 286 283 272
f 286 281 283
f 286 284 281
f 286 270 285
f 286 285 284
f 289 297 299
f 300 288 287
f 300 289 288
f 300 298 297
f 300 297 289
f 301 291 290
f 302 290 292
f 302 292 293
f 302 301 290
f 303 291 301
f 304 302 293
f 304 303 301
f 304 301 302
f 305 287 291
f 305 296 298
f 305 291 303
f 305 300 287
f 305 298 300
f 306 303 304
f 307 293 294
f 307 304 293
f 307 306 304
f 308 294 295
f 308 295 296
f 308 296 305
f 308 305 303
f 308 303 306
f 308 307 294
f 308 306 307
f 310 322 323
f 309 322 310
f 311 322 309
f 312 322 311
f 315 320 319
f 314 321 320
f 314 320 315
f 313 316 317
f 313 317 321
f 313 321 314
f 324 312 315
f 324 319 318
f 324 318 322
f 324 315 319
f 324 322 312
f 333 331 330
f 345 329 328
f 346 330 329
f 346 333 330
f 346 329 345
f 347 328 327
f 347 345 328
f 348 345 347
f 348 346 345
f 349 332 333
f 349 334 332
f 350 346 348
f 350 349 333
f 350 333 346
f 351 335 334
f 351 349 350
f 351 334 349
f 352 337 336
f 352 336 353
f 354 338 337
f 354 339 338
f 354 340 339
f 354 341 340
f 354 342 341
f 354 337 352
f 355 336 335
f 355 351 350
f 355 350 353
f 355 335 351
f 355 353 336
f 356 326 325
f 356 352 353
f 356 354 352
f 357 327 326
f 357 347 327
f 357 348 347
f 358 357 326
f 358 326 356
f 359 348 357
f 359 350 348
f 359 357 358
f 360 353 350
f 360 356 353
f 360 350 359
f 360 358 356
f 360 359 358
f 361 343 342
f 361 344 343
f 361 325 344
f 361 342 354
f 361 356 325
f 361 354 356
f 369 371 370
f 369 372 371
f 367 366 365
f 375 373 372
f 375 374 373
f 375 362 374
f 376 363 362
f 376 362 375
f 376 375 372
f 376 372 369
f 377 376 369
f 377 363 376
f 378 364 363
f 378 365 364
f 378 363 377
f 378 367 365
f 378 377 369
f 379 368 367
f 379 369 368
f 379 367 378
f 379 378 369
f 393 391 390
f 393 392 391
f 394 388 387
f 394 389 388
f 394 390 389
f 394 393 390
f 395 387 386
f 395 394 387
f 382 385 384
f 383 382 384
f 380 398 381
f 399 382 381
f 399 386 385
f 399 396 395
f 399 397 396
f 399 398 397
f 399 395 386
f 399 385 382
f 399 381 398
f 400 416 415
f 401 400 415
f 402 401 415
f 403 402 415
f 404 415 414
f 404 403 415
f 405 414 413
f 405 404 414
f 406 413 412
f 406 405 413
f 407 406 412
f 408 407 412
f 409 408 412
f 410 412 411
f 410 409 412
f 432 424 423
f 432 423 429
f 431 425 424
f 431 426 425
f 431 424 432
f 430 427 426
f 430 426 431
f 420 427 430
f 417 421 418
f 433 419 418
f 433 420 419
f 433 421 422
f 433 428 427
f 433 422 428
f 433 427 420
f 433 418 421
f 448 441 440
f 448 440 442
f 448 442 443
f 449 448 443
f 449 441 448
f 450 447 446
f 450 443 447
f 450 449 443
f 450 441 449
f 451 446 445
f 451 450 446
f 452 438 451
f 452 451 445
f 453 434 435
f 453 444 434
f 453 445 444
f 453 452 445
f 454 435 436
f 454 436 438
f 454 452 453
f 454 438 452
f 454 453 435
f 455 438 437
f 455 437 439
f 455 439 441
f 455 450 451
f 455 441 450
f 455 451 438
f 472 465 464
f 472 466 465
f 472 464 473
f 474 472 473
f 475 472 474
f 476 466 472
f 476 472 475
f 477 459 460
f 477 467 466
f 477 460 467
f 477 466 476
f 478 457 456
f 479 458 457
f 479 471 458
f 480 463 462
f 480 464 463
f 480 473 464
f 480 462 481
f 482 483 474
f 482 474 473
f 482 473 480
f 482 480 481
f 482 481 484
f 485 476 475
f 485 474 483
f 485 475 474
f 485 459 477
f 485 477 476
f 486 485 483
f 486 459 485
f 487 483 488
f 487 486 483
f 489 488 483
f 490 456 459
f 490 478 456
f 490 459 486
f 490 488 478
f 490 487 488
f 490 486 487
f 491 469 470
f 491 470 471
f 491 471 479
f 491 489 492
f 491 492 493
f 494 457 478
f 494 491 479
f 494 479 457
f 494 478 488
f 494 488 489
f 494 489 491
f 495 462 461
f 495 481 462
f 496 481 495
f 496 495 461
f 497 481 496
f 497 496 461
f 497 484 481
f 497 498 484
f 499 492 489
f 499 482 484
f 499 483 482
f 499 484 498
f 499 493 492
f 499 498 493
f 499 489 483
f 500 498 497
f 500 461 468
f 500 497 461
f 500 493 498
f 501 468 469
f 501 500 468
f 501 493 500
f 501 469 491
f 501 491 493
f 521 502 503
f 521 517 502
f 522 521 503
f 523 518 517
f 523 519 518
f 523 517 521
f 524 523 521
f 524 521 522
f 525 522 503
f 525 524 522
f 526 503 504
f 526 504 505
f 526 525 503
f 527 505 506
f 527 526 505
f 527 525 526
f 528 520 519
f 528 519 523
f 528 523 524
f 528 524 525
f 529 528 525
f 529 527 506
f 529 525 527
f 530 506 507
f 530 528 529
f 530 529 506
f 531 507 508
f 531 530 507
f 531 528 530
f 532 508 509
f 532 509 510
f 532 510 511
f 532 511 512
f 532 512 513
f 532 513 516
f 532 531 508
f 533 515 514
f 533 514 520
f 534 516 515
f 534 515 533
f 534 520 528
f 534 533 520
f 534 528 531
f 534 532 516
f 534 531 532
f 552 550 551
f 546 547 548
f 546 548 549
f 546 549 550
f 546 550 552
f 545 546 552
f 553 545 552
f 544 553 554
f 544 545 553
f 543 554 555
f 543 544 554
f 558 542 543
f 558 555 556
f 558 543 555
f 559 556 557
f 559 542 558
f 559 558 556
f 560 535 536
f 560 536 537
f 560 537 538
f 560 538 539
f 560 539 540
f 560 540 541
f 560 541 542
f 560 557 535
f 560 542 559
f 560 559 557
f 582 574 573
f 583 575 574
f 583 576 575
f 583 574 582
f 581 582 573
f 584 577 576
f 584 576 583
f 572 581 573
f 579 578 577
f 579 577 584
f 580 581 572
f 571 585 580
f 571 580 572
f 586 585 571
f 587 586 571
f 570 587 571
f 588 587 570
f 589 588 570
f 569 589 570
f 590 589 569
f 591 590 569
f 592 591 569
f 568 593 592
f 568 592 569
f 600 593 568
f 567 600 568
f 599 600 567
f 566 599 567
f 598 599 566
f 565 598 566
f 597 598 565
f 564 597 565
f 596 597 564
f 563 596 564
f 595 596 563
f 562 595 563
f 594 595 562
f 561 594 562
f 607 606 605
f 608 607 604
f 603 609 608
f 603 608 604
f 602 609 603
f 610 609 602
f 601 611 610
f 601 612 611
f 601 610 602
f 604 607 605
f 623 613 624
f 614 613 623
f 622 614 623
f 615 614 622
f 621 615 622
f 616 615 621
f 620 616 621
f 617 616 620
f 619 617 620
f 618 617 619
f 669 670 674
f 671 668 673
f 665 668 671
f 638 667 672
f 661 666 637
f 636 661 637
f 662 660 635
f 634 664 663
f 634 659 664
f 634 663 636
f 631 658 633
f 657 659 632
f 656 657 632
f 629 655 631
f 650 656 630
f 628 652 650
f 627 653 651
f 628 649 654
f 628 650 630
f 626 647 649
f 625 648 627
f 641 639 645
f 643 644 647
f 643 640 644
f 642 646 625
f 683 684 685
f 683 685 687
f 682 687 686
f 682 683 687
f 691 682 686
f 681 691 690
f 681 682 691
f 680 690 689
f 680 681 690
f 679 680 689
f 688 679 689
f 678 679 688
f 677 688 694
f 677 678 688
f 693 677 694
f 676 677 693
f 692 676 693
f 675 692 695
f 675 676 692
f 701 697 696
f 709 700 699
f 703 701 702
f 707 709 706
f 708 709 707
f 710 698 697
f 710 699 698
f 710 703 704
f 710 704 705
f 710 705 706
f 710 697 701
f 710 709 699
f 710 701 703
f 710 706 709
f 731 712 711
f 731 713 712
f 731 714 713
f 731 715 714
f 731 716 715
f 731 717 716
f 731 711 718
f 731 730 717
f 732 731 718
f 732 730 731
f 733 729 730
f 733 730 732
f 733 732 718
f 734 718 719
f 734 728 729
f 734 729 733
f 734 733 718
f 735 719 720
f 735 734 719
f 735 728 734
f 736 728 735
f 736 735 720
f 737 720 721
f 737 721 722
f 737 722 723
f 737 723 724
f 737 724 725
f 737 725 726
f 737 726 727
f 737 727 728
f 737 736 720
f 737 728 736
f 753 739 738
f 753 740 739
f 753 741 740
f 754 742 741
f 754 743 742
f 754 744 743
f 754 752 744
f 754 741 753
f 754 753 752
f 755 738 745
f 755 745 746
f 755 746 747
f 755 747 748
f 755 753 738
f 755 752 753
f 756 748 749
f 756 749 750
f 756 750 751
f 756 751 752
f 756 752 755
f 756 755 748
f 775 766 767
f 774 767 768
f 774 775 767
f 770 768 769
f 771 768 770
f 772 774 768
f 772 768 771
f 773 774 772
f 780 758 757
f 780 759 758
f 780 760 759
f 780 761 760
f 780 762 761
f 780 763 762
f 780 779 763
f 781 757 764
f 781 778 779
f 781 780 757
f 781 779 780
f 782 777 778
f 782 764 777
f 782 781 764
f 782 778 781
f 783 764 765
f 783 776 777
f 783 777 764
f 783 765 776
f 784 765 766
f 784 775 776
f 784 776 765
f 784 766 775
f 785 786 800
f 801 796 797
f 801 797 798
f 801 798 799
f 801 799 800
f 802 787 793
f 802 793 794
f 802 794 795
f 802 795 796
f 802 801 800
f 802 796 801
f 803 791 790
f 803 792 791
f 803 786 792
f 803 800 786
f 804 788 787
f 804 789 788
f 804 790 789
f 804 787 802
f 804 802 800
f 804 800 803
f 804 803 790
f 810 806 805
f 818 809 808
f 812 810 811
f 813 810 812
f 817 818 816
f 819 807 806
f 819 808 807
f 819 813 814
f 819 814 815
f 819 815 816
f 819 806 810
f 819 818 808
f 819 810 813
f 819 816 818
f 827 821 820
f 827 822 821
f 835 826 825
f 829 827 828
f 833 835 832
f 834 835 833
f 836 823 822
f 836 824 823
f 836 825 824
f 836 829 830
f 836 830 831
f 836 831 832
f 836 835 825
f 836 822 827
f 836 827 829
f 836 832 835
f 852 840 839
f 852 841 840
f 853 838 837
f 853 839 838
f 853 837 844
f 853 852 839
f 854 842 841
f 854 843 842
f 854 853 844
f 854 852 853
f 854 841 852
f 855 844 845
f 855 845 846
f 855 846 847
f 855 847 848
f 856 848 849
f 856 849 850
f 856 850 851
f 856 851 843
f 856 844 855
f 856 854 844
f 856 855 848
f 856 843 854
f 858 857 864
f 865 858 864
f 859 858 865
f 866 859 865
f 860 859 866
f 867 860 866
f 861 860 867
f 868 861 867
f 869 862 861
f 869 861 868
f 870 863 862
f 870 862 869
f 878 879 871
f 887 883 884
f 887 884 885
f 887 885 886
f 887 886 877
f 888 879 880
f 888 880 881
f 888 881 882
f 888 882 883
f 888 883 887
f 888 887 879
f 889 875 874
f 889 876 875
f 889 877 876
f 889 887 877
f 889 879 887
f 890 872 871
f 890 873 872
f 890 874 873
f 890 879 889
f 890 889 874
f 890 871 879
f 903 898 897
f 894 895 896
f 894 901 900
f 894 902 901
f 894 896 902
f 908 906 907
f 909 906 908
f 910 906 909
f 891 892 913
f 914 893 894
f 914 899 898
f 914 900 899
f 914 894 900
f 914 898 903
f 915 903 904
f 915 893 914
f 915 914 903
f 916 892 893
f 916 904 905
f 916 893 915
f 916 915 904
f 917 892 916
f 917 916 905
f 918 905 906
f 918 910 911
f 918 911 912
f 918 912 913
f 918 917 905
f 918 892 917
f 918 906 910
f 918 913 892
f 926 920 919
f 934 924 923
f 934 925 924
f 928 926 927
f 929 926 928
f 933 934 932
f 935 921 920
f 935 922 921
f 935 923 922
f 935 929 930
f 935 930 931
f 935 931 932
f 935 920 926
f 935 934 923
f 935 926 929
f 935 932 934
f 941 953 942
f 940 953 941
f 939 953 940
f 954 948 949
f 954 949 950
f 954 950 951
f 954 951 952
f 955 944 945
f 955 945 946
f 955 946 947
f 955 947 948
f 955 948 954
f 955 954 944
f 956 954 952
f 956 944 954
f 957 943 944
f 957 952 953
f 957 944 956
f 957 956 952
f 958 937 936
f 958 938 937
f 958 939 938
f 958 936 943
f 958 943 957
f 958 953 939
f 958 957 953
f 960 959 966
f 967 960 966
f 961 960 967
f 968 961 967
f 969 962 961
f 969 961 968
f 970 963 962
f 970 962 969
f 971 964 963
f 971 963 970
f 972 965 964
f 972 964 971
f 984 985 986
f 984 986 987
f 995 987 988
f 995 988 989
f 995 989 990
f 995 990 991
f 995 991 992
f 995 984 987
f 996 983 984
f 996 995 992
f 996 984 995
f 997 992 993
f 997 983 996
f 997 996 992
f 998 982 983
f 998 983 997
f 998 997 993
f 999 981 982
f 999 993 994
f 999 998 993
f 999 982 998
f 1000 981 999
f 1000 999 994
f 1001 980 981
f 1001 994 979
f 1001 981 1000
f 1001 1000 994
f 1002 977 976
f 1002 978 977
f 1002 979 978
f 1002 1001 979
f 1002 980 1001
f 1003 974 973
f 1003 975 974
f 1003 976 975
f 1003 973 980
f 1003 1002 976
f 1003 980 1002
f 1012 1005 1004
f 1012 1006 1005
f 1012 1004 1011
f 1026 1008 1007
f 1026 1009 1008
f 1026 1010 1009
f 1017 1015 1016
f 1018 1015 1017
f 1019 1015 1018
f 1020 1015 1019
f 1027 1007 1006
f 1027 1025 1026
f 1027 1026 1007
f 1027 1006 1012
f 1028 1012 1013
f 1028 1027 1012
f 1028 1025 1027
f 1029 1013 1014
f 1029 1024 1025
f 1029 1025 1028
f 1029 1028 1013
f 1030 1029 1014
f 1030 1024 1029
f 1031 1014 1015
f 1031 1020 1021
f 1031 1021 1022
f 1031 1022 1023
f 1031 1023 1024
f 1031 1030 1014
f 1031 1015 1020
f 1031 1024 1030
f 1041 1042 1052
f 1053 1041 1052
f 1040 1041 1053
f 1037 1054 1038
f 1033 1039 1034
f 1032 1039 1033
f 1055 1043 1044
f 1055 1044 1045
f 1055 1045 1046
f 1055 1046 1047
f 1055 1047 1048
f 1055 1048 1049
f 1055 1049 1050
f 1056 1042 1043
f 1056 1050 1051
f 1056 1055 1050
f 1056 1043 1055
f 1057 1051 1052
f 1057 1056 1051
f 1057 1052 1042
f 1057 1042 1056
f 1058 1039 1040
f 1058 1053 1054
f 1058 1040 1053
f 1059 1035 1034
f 1059 1036 1035
f 1059 1037 1036
f 1059 1058 1054
f 1059 1054 1037
f 1059 1034 1039
f 1059 1039 1058
f 1065 1077 1066
f 1064 1077 1065
f 1078 1068 1069
f 1078 1069 1070
f 1078 1070 1071
f 1078 1071 1072
f 1078 1072 1073
f 1078 1073 1074
f 1078 1074 1075
f 1078 1075 1076
f 1079 1078 1076
f 1079 1068 1078
f 1080 1067 1068
f 1080 1076 1077
f 1080 1079 1076
f 1080 1068 1079
f 1081 1061 1060
f 1081 1062 1061
f 1081 1063 1062
f 1081 1064 1063
f 1081 1060 1067
f 1081 1080 1077
f 1081 1067 1080
f 1081 1077 1064
f 1087 1103 1088
f 1083 1089 1084
f 1082 1089 1083
f 1104 1096 1095
f 1104 1097 1096
f 1104 1098 1097
f 1105 1093 1094
f 1105 1099 1098
f 1105 1100 1099
f 1105 1094 1100
f 1105 1098 1104
f 1105 1104 1093
f 1106 1092 1093
f 1106 1095 1101
f 1106 1104 1095
f 1106 1093 1104
f 1107 1106 1101
f 1107 1092 1106
f 1108 1091 1092
f 1108 1101 1102
f 1108 1092 1107
f 1108 1107 1101
f 1109 1090 1091
f 1109 1091 1108
f 1109 1108 1102
f 1110 1109 1102
f 1110 1090 1109
f 1111 1089 1090
f 1111 1102 1103
f 1111 1110 1102
f 1111 1090 1110
f 1112 1085 1084
f 1112 1086 1085
f 1112 1087 1086
f 1112 1111 1103
f 1112 1089 1111
f 1112 1103 1087
f 1112 1084 1089
f 1119 1117 1118
f 1120 1116 1117
f 1120 1117 1119
f 1121 1115 1116
f 1121 1116 1120
f 1122 1114 1115
f 1122 1115 1121
f 1123 1113 1114
f 1123 1114 1122
f 1124 1113 1123
f 1144 1139 1140
f 1134 1135 1136
f 1129 1141 1130
f 1128 1141 1129
f 1127 1141 1128
f 1126 1131 1141
f 1126 1141 1127
f 1125 1131 1126
f 1145 1136 1137
f 1145 1137 1138
f 1145 1138 1139
f 1145 1139 1144
f 1145 1134 1136
f 1146 1133 1134
f 1146 1144 1143
f 1146 1145 1144
f 1146 1134 1145
f 1147 1146 1143
f 1147 1133 1146
f 1148 1132 1133
f 1148 1143 1142
f 1148 1147 1143
f 1148 1133 1147
f 1149 1132 1148
f 1149 1148 1142
f 1150 1131 1132
f 1150 1142 1141
f 1150 1149 1142
f 1150 1141 1131
f 1150 1132 1149
f 1164 1160 1161
f 1164 1161 1162
f 1164 1162 1163
f 1158 1157 1159
f 1158 1159 1160
f 1158 1160 1164
f 1155 1164 1156
f 1154 1164 1155
f 1153 1158 1164
f 1153 1164 1154
f 1152 1158 1153
f 1151 1158 1152
f 1172 1173 1174
f 1172 1174 1175
f 1169 1180 1170
f 1168 1180 1169
f 1181 1171 1172
f 1181 1175 1176
f 1181 1176 1177
f 1181 1177 1178
f 1181 1178 1179
f 1181 1172 1175
f 1182 1181 1179
f 1182 1171 1181
f 1183 1166 1165
f 1183 1167 1166
f 1183 1168 1167
f 1183 1165 1171
f 1183 1179 1180
f 1183 1171 1182
f 1183 1182 1179
f 1183 1180 1168
f 1189 1194 1195
f 1188 1193 1194
f 1188 1194 1189
f 1187 1192 1193
f 1187 1193 1188
f 1186 1192 1187
f 1191 1192 1186
f 1185 1191 1186
f 1184 1190 1191
f 1184 1191 1185
f 1207 1208 1201
f 1200 1207 1201
f 1206 1207 1200
f 1199 1206 1200
f 1205 1206 1199
f 1198 1204 1205
f 1198 1205 1199
f 1197 1203 1204
f 1197 1204 1198
f 1196 1202 1203
f 1196 1203 1197
f 1220 1210 1209
f 1220 1211 1210
f 1232 1212 1211
f 1232 1213 1212
f 1232 1214 1213
f 1232 1211 1220
f 1221 1216 1215
f 1222 1216 1221
f 1226 1228 1225
f 1227 1228 1226
f 1233 1220 1219
f 1233 1231 1232
f 1233 1232 1220
f 1234 1233 1219
f 1234 1231 1233
f 1235 1219 1218
f 1235 1230 1231
f 1235 1231 1234
f 1235 1234 1219
f 1236 1235 1218
f 1236 1230 1235
f 1237 1218 1217
f 1237 1229 1230
f 1237 1236 1218
f 1237 1230 1236
f 1238 1229 1237
f 1238 1237 1217
f 1239 1217 1216
f 1239 1228 1229
f 1239 1238 1217
f 1239 1229 1238
f 1240 1222 1223
f 1240 1223 1224
f 1240 1224 1225
f 1240 1228 1239
f 1240 1216 1222
f 1240 1225 1228
f 1240 1239 1216
f 1249 1242 1241
f 1250 1243 1242
f 1250 1242 1249
f 1251 1244 1243
f 1251 1243 1250
f 1252 1245 1244
f 1252 1244 1251
f 1253 1246 1245
f 1253 1245 1252
f 1254 1247 1246
f 1254 1246 1253
f 1255 1248 1247
f 1255 1247 1254
f 1263 1257 1256
f 1273 1261 1260
f 1273 1262 1261
f 1266 1264 1265
f 1267 1264 1266
f 1271 1272 1270
f 1274 1258 1257
f 1274 1259 1258
f 1274 1260 1259
f 1274 1257 1263
f 1274 1273 1260
f 1275 1263 1264
f 1275 1272 1273
f 1275 1274 1263
f 1275 1273 1274
f 1276 1267 1268
f 1276 1268 1269
f 1276 1269 1270
f 1276 1272 1275
f 1276 1275 1264
f 1276 1264 1267
f 1276 1270 1272
f 1285 1278 1277
f 1285 1277 1284
f 1286 1279 1278
f 1286 1278 1285
f 1287 1280 1279
f 1287 1279 1286
f 1288 1281 1280
f 1288 1280 1287
f 1289 1281 1288
f 1290 1282 1281
f 1290 1281 1289
f 1291 1282 1290
f 1292 1283 1282
f 1292 1282 1291
f 1293 1283 1292
f 1295 1294 1301
f 1302 1295 1301
f 1296 1295 1302
f 1303 1296 1302
f 1297 1296 1303
f 1304 1298 1297
f 1304 1297 1303
f 1305 1299 1298
f 1305 1298 1304
f 1306 1300 1299
f 1306 1299 1305
f 1328 1317 1316
f 1315 1328 1316
f 1327 1328 1315
f 1314 1327 1315
f 1326 1327 1314
f 1312 1325 1313
f 1324 1325 1312
f 1311 1324 1312
f 1310 1322 1323
f 1321 1322 1310
f 1309 1321 1310
f 1308 1319 1320
f 1318 1319 1308
f 1307 1318 1308
f 1329 1314 1313
f 1329 1325 1326
f 1329 1326 1314
f 1329 1313 1325
f 1330 1311 1310
f 1330 1323 1324
f 1330 1324 1311
f 1330 1310 1323
f 1331 1309 1308
f 1331 1320 1321
f 1331 1321 1309
f 1331 1308 1320
f 1338 1333 1332
f 1347 1337 1336
f 1341 1339 1340
f 1344 1346 1343
f 1345 1346 1344
f 1348 1334 1333
f 1348 1335 1334
f 1348 1336 1335
f 1348 1333 1338
f 1348 1347 1336
f 1349 1338 1339
f 1349 1346 1347
f 1349 1348 1338
f 1349 1347 1348
f 1350 1341 1342
f 1350 1342 1343
f 1350 1339 1341
f 1350 1349 1339
f 1350 1346 1349
f 1350 1343 1346
f 1370 1352 1351
f 1370 1353 1352
f 1370 1354 1353
f 1370 1355 1354
f 1370 1356 1355
f 1370 1357 1356
f 1370 1358 1357
f 1370 1359 1358
f 1370 1360 1359
f 1370 1361 1360
f 1370 1362 1361
f 1370 1351 1363
f 1370 1363 1364
f 1370 1364 1365
f 1370 1365 1366
f 1370 1366 1367
f 1370 1367 1368
f 1370 1368 1369
f 1370 1369 1362
f 1377 1372 1371
f 1392 1375 1374
f 1392 1376 1375
f 1395 1379 1380
f 1396 1380 1381
f 1396 1395 1380
f 1384 1382 1383
f 1385 1382 1384
f 1386 1381 1382
f 1386 1382 1385
f 1387 1396 1381
f 1387 1381 1386
f 1388 1396 1387
f 1389 1396 1388
f 1390 1396 1389
f 1391 1396 1390
f 1397 1373 1372
f 1397 1374 1373
f 1397 1372 1377
f 1397 1392 1374
f 1398 1377 1378
f 1398 1393 1392
f 1398 1392 1397
f 1398 1397 1377
f 1399 1394 1393
f 1399 1398 1378
f 1399 1393 1398
f 1400 1378 1379
f 1400 1395 1394
f 1400 1379 1395
f 1400 1394 1399
f 1400 1399 1378
f 1417 1415 1416
f 1409 1410 1411
f 1409 1411 1412
f 1406 1418 1407
f 1405 1418 1406
f 1401 1408 1402
f 1419 1412 1413
f 1419 1413 1414
f 1419 1414 1415
f 1419 1415 1417
f 1419 1409 1412
f 1420 1408 1409
f 1420 1417 1418
f 1420 1419 1417
f 1420 1409 1419
f 1421 1403 1402
f 1421 1404 1403
f 1421 1405 1404
f 1421 1420 1418
f 1421 1408 1420
f 1421 1418 1405
f 1421 1402 1408
f 1425 1446 1447
f 1445 1446 1425
f 1444 1445 1425
f 1443 1444 1425
f 1435 1424 1423
f 1435 1436 1424
f 1422 1435 1423
f 1434 1422 1426
f 1433 1422 1434
f 1432 1422 1433
f 1431 1422 1432
f 1430 1435 1422
f 1430 1422 1431
f 1429 1435 1430
f 1428 1435 1429
f 1427 1435 1428
f 1448 1436 1437
f 1448 1425 1424
f 1448 1437 1438
f 1448 1438 1439
f 1448 1439 1440
f 1448 1440 1441
f 1448 1441 1442
f 1448 1442 1443
f 1448 1424 1436
f 1448 1443 1425
f 1457 1450 1449
f 1457 1449 1456
f 1458 1451 1450
f 1458 1450 1457
f 1459 1452 1451
f 1459 1451 1458
f 1460 1453 1452
f 1460 1452 1459
f 1461 1454 1453
f 1461 1453 1460
f 1462 1455 1454
f 1462 1454 1461
f 1463 1455 1462
f 1474 1465 1464
f 1466 1465 1474
f 1467 1466 1474
f 1468 1467 1474
f 1489 1469 1468
f 1489 1470 1469
f 1489 1471 1470
f 1489 1472 1471
f 1489 1473 1472
f 1489 1474 1475
f 1489 1468 1474
f 1488 1480 1481
f 1487 1480 1488
f 1482 1494 1483
f 1495 1475 1476
f 1495 1490 1489
f 1495 1489 1475
f 1496 1495 1476
f 1496 1490 1495
f 1497 1476 1477
f 1497 1491 1490
f 1497 1496 1476
f 1497 1490 1496
f 1498 1497 1477
f 1498 1491 1497
f 1499 1477 1478
f 1499 1492 1491
f 1499 1498 1477
f 1499 1491 1498
f 1500 1499 1478
f 1500 1492 1499
f 1501 1478 1479
f 1501 1493 1492
f 1501 1500 1478
f 1501 1492 1500
f 1502 1501 1479
f 1502 1493 1501
f 1503 1479 1480
f 1503 1494 1493
f 1503 1502 1479
f 1503 1493 1502
f 1504 1484 1483
f 1504 1485 1484
f 1504 1486 1485
f 1504 1487 1486
f 1504 1503 1480
f 1504 1494 1503
f 1504 1480 1487
f 1504 1483 1494

