# https://github.com/mikedh/trimesh
v 0.00025930 -0.00438967 -0.00439798
v 0.00025930 -0.00438967 -0.00749798
v -0.00047978 -0.00438452 -0.00749798
v -0.00047978 -0.00438452 -0.00949798
v 0.00109679 -0.00431843 -0.00949798
v 0.00256386 -0.00394400 -0.00949798
v 0.00322446 -0.00362707 -0.00949798
v 0.00381006 -0.00321608 -0.00949798
v 0.00381006 -0.00321608 -0.01320129
v 0.00325055 -0.00361196 -0.01307999
v 0.00265111 -0.00390879 -0.01288252
v 0.00204715 -0.00411899 -0.01261023
v 0.00145895 -0.00425886 -0.01226583
v 0.00090497 -0.00434264 -0.01185169
v 0.00040745 -0.00438331 -0.01136872
v -0.00001130 -0.00439473 -0.01081084
v -0.00031718 -0.00439074 -0.01018729
v -0.00058706 -0.00437895 -0.00912553
v -0.00076134 -0.00436739 -0.00804332
v -0.00091707 -0.00435452 -0.00594859
v -0.00076134 -0.00436739 -0.00385264
v -0.00051197 -0.00438303 -0.00238444
v -0.00026573 -0.00439209 -0.00157887
v 0.00015047 -0.00439268 -0.00084486
v 0.00085146 -0.00434851 -0.00009020
v 0.00180459 -0.00418365 0.00058257
v 0.00272012 -0.00387964 0.00101289
v 0.00328356 -0.00359237 0.00119287
v 0.00381007 -0.00321609 0.00130533
v 0.00381006 -0.00321609 -0.00239798
v 0.00302520 -0.00373586 -0.00239798
v 0.00212281 -0.00409667 -0.00239798
v 0.00114536 -0.00431152 -0.00239798
v 0.00034332 -0.00438640 -0.00239798
v -0.00047978 -0.00438452 -0.00239798
v -0.00047978 -0.00438452 -0.00439798
v 0.00381006 -0.00321609 -0.00239798
v 0.00381007 -0.00321609 0.00130533
v 0.00385163 -0.00318016 0.00131189
v 0.00449681 -0.00247315 0.00136324
v 0.00500870 -0.00166778 0.00133525
v 0.00542530 -0.00075055 0.00126402
v 0.00571721 0.00021540 0.00115721
v 0.00589133 0.00137760 0.00099077
v 0.00587871 0.00254836 0.00080366
v 0.00568541 0.00371263 0.00061552
v 0.00568541 0.00371263 -0.00239798
v 0.00590812 0.00196069 -0.00239798
v 0.00572742 0.00026004 -0.00239798
v 0.00517066 -0.00134866 -0.00239798
v 0.00458380 -0.00235399 -0.00239798
v 0.00875619 0.00651259 -0.00336837
v 0.00980927 0.00532986 -0.00336839
v 0.00659852 0.00882250 -0.00336833
v 0.00664952 0.00893053 -0.00594798
v 0.00659852 0.00882250 -0.00852762
v 0.00875619 0.00651259 -0.00852759
v 0.00980927 0.00532986 -0.00852757
v 0.01112124 0.00378467 -0.00852755
v 0.01348802 0.00068610 -0.00852764
v 0.01356415 0.00077429 -0.00594798
v 0.01348802 0.00068609 -0.00336832
v 0.01114486 0.00380318 -0.00336841
v 0.01270839 0.00190601 -0.00465948
v 0.01270819 0.00190618 -0.00723780
v 0.00875619 0.00651259 -0.00336837
v 0.00980927 0.00532986 -0.00336839
v 0.00659852 0.00882250 -0.00336833
v 0.00568541 0.00371263 0.00061552
v 0.00560419 0.00413943 0.00053995
v 0.00557088 0.00461999 0.00043339
v 0.00561608 0.00551691 0.00017549
v 0.00581899 0.00664396 -0.00028984
v 0.00612321 0.00766637 -0.00095996
v 0.00635296 0.00826776 -0.00161683
v 0.00649022 0.00858689 -0.00221295
v 0.00656391 0.00874858 -0.00277771
v 0.00571721 0.00021540 0.00115721
v 0.00589133 0.00137760 0.00099077
v 0.00587871 0.00254836 0.00080366
v 0.00641405 -0.00052629 0.00110540
v 0.00850295 0.00152497 0.00031057
v 0.00950100 0.00243584 -0.00030643
v 0.01013504 0.00299485 -0.00085711
v 0.01051456 0.00331853 -0.00131437
v 0.01081930 0.00356333 -0.00185207
v 0.01099720 0.00368990 -0.00237914
v 0.01108317 0.00374688 -0.00286789
v 0.01114486 0.00380318 -0.00336841
v 0.00766023 0.00750089 -0.00249862
v 0.00881381 0.00603742 -0.00207440
v 0.00988258 0.00511109 -0.00266359
v 0.00988247 0.00497598 -0.00230938
v 0.01035142 0.00443004 -0.00230431
v 0.00740662 0.00657992 -0.00113194
v 0.00683750 0.00636150 -0.00064947
v 0.00734002 0.00618001 -0.00083945
v 0.00820636 0.00482392 -0.00063386
v 0.00941809 0.00429902 -0.00109649
v 0.00690526 0.00462382 0.00001371
v 0.00694782 0.00442035 0.00006261
v 0.00706163 0.00384526 0.00019326
v 0.00568541 0.00371264 -0.00949798
v 0.00557816 0.00443000 -0.00949798
v 0.00567934 0.00596559 -0.00949798
v 0.00632036 0.00818811 -0.00949798
v 0.00632036 0.00818810 -0.00749798
v 0.00568541 0.00371264 -0.00749798
v 0.00557816 0.00443000 -0.00749798
v 0.00567934 0.00596559 -0.00749798
v 0.00568541 0.00371264 -0.00439798
v 0.00632036 0.00818810 -0.00439798
v 0.00567934 0.00596559 -0.00439798
v 0.00557816 0.00442999 -0.00439798
v 0.00632036 0.00818810 -0.00239798
v 0.00567934 0.00596559 -0.00239798
v 0.00557816 0.00442999 -0.00239798
v 0.00568541 0.00371263 -0.00239798
v 0.00568541 0.00371263 0.00061552
v 0.00560419 0.00413943 0.00053995
v 0.00557088 0.00461999 0.00043339
v 0.00561608 0.00551691 0.00017549
v 0.00581899 0.00664396 -0.00028984
v 0.00612321 0.00766637 -0.00095996
v 0.00635296 0.00826776 -0.00161683
v 0.00649022 0.00858689 -0.00221295
v 0.00656391 0.00874858 -0.00277771
v 0.00659852 0.00882250 -0.00336833
v 0.00664952 0.00893053 -0.00594798
v 0.00659852 0.00882250 -0.00852762
v 0.00568541 0.00371264 -0.01251148
v 0.00560413 0.00413989 -0.01243582
v 0.00557088 0.00461998 -0.01232935
v 0.00561607 0.00551688 -0.01207145
v 0.00581898 0.00664391 -0.01160614
v 0.00612318 0.00766631 -0.01093605
v 0.00635293 0.00826771 -0.01027921
v 0.00649020 0.00858684 -0.00968312
v 0.00656390 0.00874858 -0.00911826
v 0.00875619 0.00651259 -0.00852759
v 0.00980927 0.00532986 -0.00852757
v 0.01112124 0.00378467 -0.00852755
v 0.01098070 0.00367899 -0.00958190
v 0.01080217 0.00355029 -0.01008194
v 0.01046215 0.00327465 -0.01065432
v 0.01003093 0.00290431 -0.01114303
v 0.00931310 0.00226714 -0.01172341
v 0.00786795 0.00092511 -0.01250750
v 0.00641405 -0.00052628 -0.01300136
v 0.00571721 0.00021540 -0.01305317
v 0.00568541 0.00371264 -0.01251148
v 0.00587802 0.00255639 -0.01269831
v 0.00589163 0.00138639 -0.01288534
v 0.00560413 0.00413989 -0.01243582
v 0.00557088 0.00461998 -0.01232935
v 0.00561607 0.00551688 -0.01207145
v 0.00581898 0.00664391 -0.01160614
v 0.00612318 0.00766631 -0.01093605
v 0.00635293 0.00826771 -0.01027921
v 0.00649020 0.00858684 -0.00968312
v 0.00656390 0.00874858 -0.00911826
v 0.00659852 0.00882250 -0.00852762
v 0.00766023 0.00750088 -0.00939738
v 0.00880479 0.00602906 -0.00984913
v 0.00987151 0.00496788 -0.00962802
v 0.00739905 0.00656940 -0.01077677
v 0.00683161 0.00635217 -0.01125430
v 0.00733142 0.00616765 -0.01106860
v 0.00959093 0.00446933 -0.01054843
v 0.00815227 0.00475693 -0.01132129
v 0.00934478 0.00422507 -0.01089432
v 0.00691783 0.00437492 -0.01198310
v 0.00702953 0.00380354 -0.01211140
v 0.00381006 -0.00321608 -0.00949798
v 0.00454874 -0.00240278 -0.00949798
v 0.00511949 -0.00145375 -0.00949798
v 0.00552122 -0.00047909 -0.00949798
v 0.00582140 0.00075358 -0.00949798
v 0.00590776 0.00198885 -0.00949798
v 0.00584129 0.00288647 -0.00949798
v 0.00568541 0.00371264 -0.00949798
v 0.00568541 0.00371264 -0.01251148
v 0.00587802 0.00255639 -0.01269831
v 0.00589163 0.00138639 -0.01288534
v 0.00571721 0.00021540 -0.01305317
v 0.00531500 -0.00102686 -0.01318417
v 0.00469889 -0.00218624 -0.01325535
v 0.00430772 -0.00271153 -0.01325425
v 0.00385163 -0.00318016 -0.01320785
v 0.00381006 -0.00321608 -0.01320129
v 0.02084424 -0.00762268 -0.00383402
v 0.02081513 -0.00761114 -0.00371299
v 0.02076153 -0.00763135 -0.00350569
v 0.02066491 -0.00770486 -0.00321702
v 0.02051135 -0.00784925 -0.00286109
v 0.02020289 -0.00817339 -0.00231907
v 0.01970665 -0.00873312 -0.00168956
v 0.01922401 -0.00930041 -0.00124872
v 0.01867200 -0.00996605 -0.00089249
v 0.01968247 -0.01064245 -0.00138040
v 0.02042564 -0.01115231 -0.00200298
v 0.02096041 -0.01152756 -0.00272888
v 0.02130413 -0.01177147 -0.00343172
v 0.02147156 -0.01188845 -0.00397864
v 0.02151392 -0.01191388 -0.00431883
v 0.02191690 -0.01118717 -0.00431883
v 0.02211207 -0.01052845 -0.00431880
v 0.02214355 -0.00995482 -0.00431877
v 0.02204707 -0.00941386 -0.00431875
v 0.02184221 -0.00891290 -0.00431877
v 0.02152683 -0.00841066 -0.00431880
v 0.02115626 -0.00794256 -0.00431880
v 0.02092834 -0.00771860 -0.00385398
v 0.02099223 -0.00778934 -0.00389311
v 0.02104785 -0.00784876 -0.00395158
v 0.02109697 -0.00789873 -0.00403216
v 0.02112896 -0.00792859 -0.00411523
v 0.02114462 -0.00794077 -0.00418380
v 0.02115201 -0.00794395 -0.00424537
v 0.02108148 -0.00794670 -0.00370533
v 0.02137057 -0.00862081 -0.00340253
v 0.02158393 -0.00867470 -0.00378559
v 0.02165211 -0.00887966 -0.00370390
v 0.02135648 -0.00901451 -0.00310890
v 0.02169166 -0.00905942 -0.00362726
v 0.02171723 -0.00929181 -0.00352437
v 0.02041825 -0.00949214 -0.00197269
v 0.02171432 -0.00956529 -0.00340155
v 0.02194795 -0.00946198 -0.00388833
v 0.02071586 -0.00983521 -0.00216133
v 0.02168144 -0.00983112 -0.00328386
v 0.02013219 -0.00995901 -0.00168214
v 0.02049679 -0.01023653 -0.00194111
v 0.02197400 -0.01001357 -0.00375755
v 0.02154267 -0.01035649 -0.00306657
v 0.02048266 -0.01054103 -0.00193811
v 0.02179989 -0.01114210 -0.00379204
v 0.02186052 -0.01119580 -0.00401104
v 0.02166875 -0.00864973 -0.00413507
v 0.01867200 -0.00996604 -0.01100348
v 0.01968247 -0.01064245 -0.01051557
v 0.02042564 -0.01115231 -0.00989299
v 0.02096041 -0.01152756 -0.00916709
v 0.02130412 -0.01177147 -0.00846425
v 0.02147156 -0.01188845 -0.00791733
v 0.02151392 -0.01191388 -0.00757713
v 0.02056914 -0.01305003 -0.00757705
v 0.01988313 -0.01365626 -0.00757711
v 0.01909063 -0.01418026 -0.00757713
v 0.01651924 -0.01271349 -0.01127147
v 0.01716190 -0.01308607 -0.01097532
v 0.01775873 -0.01342584 -0.01047601
v 0.01825131 -0.01370242 -0.00984584
v 0.01864991 -0.01392482 -0.00913513
v 0.01891982 -0.01407636 -0.00846189
v 0.01905474 -0.01415504 -0.00793098
v 0.01908158 -0.01417264 -0.00772744
v 0.01772472 -0.01112984 -0.01126595
v 0.01832047 -0.01039474 -0.01114501
v 0.01928107 -0.01112058 -0.01066752
v 0.01888914 -0.01184116 -0.01066003
v 0.01960080 -0.01234620 -0.00992472
v 0.02001197 -0.01273103 -0.00919137
v 0.02017532 -0.01289811 -0.00878906
v 0.02027462 -0.01300509 -0.00848531
v 0.01504173 -0.01493809 -0.00804349
v 0.01506790 -0.01484826 -0.00877059
v 0.01520897 -0.01460637 -0.00957131
v 0.01548155 -0.01419842 -0.01032378
v 0.01579861 -0.01374174 -0.01084607
v 0.01606701 -0.01335823 -0.01111286
v 0.01630491 -0.01301819 -0.01123488
v 0.01651924 -0.01271349 -0.01127147
v 0.01547162 -0.01502095 -0.00757717
v 0.01546328 -0.01501466 -0.00767297
v 0.01543285 -0.01500619 -0.00776402
v 0.01538152 -0.01499531 -0.00785143
v 0.01531232 -0.01498223 -0.00793105
v 0.01523345 -0.01496835 -0.00799257
v 0.01515394 -0.01495524 -0.00802948
v 0.01509513 -0.01494610 -0.00804150
v 0.01909063 -0.01418026 -0.00757713
v 0.01825767 -0.01461410 -0.00757717
v 0.01705504 -0.01496617 -0.00757716
v 0.01630760 -0.01504504 -0.00757715
v 0.01716190 -0.01308607 -0.01097532
v 0.01775873 -0.01342584 -0.01047601
v 0.01825131 -0.01370242 -0.00984584
v 0.01864991 -0.01392482 -0.00913513
v 0.01891982 -0.01407636 -0.00846189
v 0.01905474 -0.01415504 -0.00793098
v 0.01908158 -0.01417264 -0.00772744
v 0.01858531 -0.01437039 -0.00816242
v 0.01849663 -0.01433372 -0.00844333
v 0.01775886 -0.01417604 -0.00959766
v 0.01745807 -0.01441014 -0.00938146
v 0.01731004 -0.01478111 -0.00847516
v 0.01688445 -0.01333045 -0.01096519
v 0.01700014 -0.01361433 -0.01072853
v 0.01721599 -0.01454454 -0.00925551
v 0.01674561 -0.01348421 -0.01091187
v 0.01678481 -0.01431203 -0.00995280
v 0.01666349 -0.01480138 -0.00889667
v 0.01612877 -0.01502902 -0.00791434
v 0.01638939 -0.01489536 -0.00869191
v 0.01615992 -0.01473179 -0.00929205
v 0.01542259 -0.01491697 -0.00863539
v 0.01547154 -0.01502044 -0.00430991
v 0.01547162 -0.01502095 -0.00431883
v 0.01547118 -0.01501946 -0.00429298
v 0.01504164 -0.01493807 -0.00385248
v 0.01512973 -0.01495142 -0.00386003
v 0.01520179 -0.01496302 -0.00388579
v 0.01527811 -0.01497610 -0.00393499
v 0.01534937 -0.01498910 -0.00400383
v 0.01540779 -0.01500066 -0.00408454
v 0.01544758 -0.01500984 -0.00416772
v 0.01546536 -0.01501550 -0.00423392
v 0.01651924 -0.01271350 -0.00062449
v 0.01619847 -0.01317034 -0.00070310
v 0.01593594 -0.01354546 -0.00089552
v 0.01566042 -0.01393982 -0.00124611
v 0.01540944 -0.01430395 -0.00173275
v 0.01521343 -0.01459938 -0.00230786
v 0.01509245 -0.01480023 -0.00291151
v 0.01504892 -0.01489438 -0.00340343
v 0.01909063 -0.01418026 -0.00431883
v 0.01904016 -0.01414614 -0.00388657
v 0.01882659 -0.01402371 -0.00317183
v 0.01840708 -0.01378939 -0.00230127
v 0.01782302 -0.01346211 -0.00148987
v 0.01722864 -0.01312436 -0.00096405
v 0.01686537 -0.01291500 -0.00076035
v 0.01691289 -0.01498891 -0.00431882
v 0.01804987 -0.01469690 -0.00431880
v 0.01862665 -0.01444155 -0.00431881
v 0.01853292 -0.01443195 -0.00388028
v 0.01843756 -0.01439874 -0.00356104
v 0.01767749 -0.01427930 -0.00242147
v 0.01716729 -0.01358846 -0.00121522
v 0.01701184 -0.01373677 -0.00128262
v 0.01684876 -0.01342148 -0.00097336
v 0.01724895 -0.01452692 -0.00262202
v 0.01714326 -0.01483530 -0.00347912
v 0.01704324 -0.01463308 -0.00274314
v 0.01663573 -0.01365498 -0.00108571
v 0.01662039 -0.01443326 -0.00209350
v 0.01654531 -0.01484507 -0.00308596
v 0.01634092 -0.01490917 -0.00324150
v 0.01609801 -0.01476563 -0.00268212
v 0.01547834 -0.01492608 -0.00328458
v 0.01537987 -0.01490712 -0.00322960
v 0.01599698 -0.01501809 -0.00383630
v 0.02151392 -0.01191388 -0.00431883
v 0.02056914 -0.01305003 -0.00431892
v 0.01988313 -0.01365626 -0.00431886
v 0.01909063 -0.01418026 -0.00431883
v 0.01909063 -0.01418026 -0.00757713
v 0.02151392 -0.01191388 -0.00757713
v 0.02056914 -0.01305003 -0.00757705
v 0.01988313 -0.01365626 -0.00757711
v 0.01867200 -0.00996605 -0.00089249
v 0.01822221 -0.01051489 -0.00072364
v 0.01743006 -0.01150152 -0.00060210
v 0.01651924 -0.01271350 -0.00062449
v 0.01909063 -0.01418026 -0.00431883
v 0.01904016 -0.01414614 -0.00388657
v 0.01882659 -0.01402371 -0.00317183
v 0.01840708 -0.01378939 -0.00230127
v 0.01782302 -0.01346211 -0.00148987
v 0.01722864 -0.01312436 -0.00096405
v 0.01686537 -0.01291500 -0.00076035
v 0.02151392 -0.01191388 -0.00431883
v 0.02056914 -0.01305003 -0.00431892
v 0.01988313 -0.01365626 -0.00431886
v 0.01968247 -0.01064245 -0.00138040
v 0.02042564 -0.01115231 -0.00200298
v 0.02096041 -0.01152756 -0.00272888
v 0.02130413 -0.01177147 -0.00343172
v 0.02147156 -0.01188845 -0.00397864
v 0.01916111 -0.01123423 -0.00119297
v 0.01879940 -0.01195282 -0.00123113
v 0.02009609 -0.01281581 -0.00290022
v 0.02023764 -0.01296472 -0.00329015
v 0.01983591 -0.01361540 -0.00389782
v 0.02043518 -0.01197072 -0.00244081
v 0.01947603 -0.01205811 -0.00169197
v 0.01978122 -0.01210759 -0.00194950
v 0.02151392 -0.01191388 -0.00431883
v 0.02191690 -0.01118717 -0.00431883
v 0.02211207 -0.01052845 -0.00431880
v 0.02214355 -0.00995482 -0.00431877
v 0.02204707 -0.00941386 -0.00431875
v 0.02184221 -0.00891290 -0.00431877
v 0.02152683 -0.00841066 -0.00431880
v 0.02115626 -0.00794256 -0.00431880
v 0.02151392 -0.01191388 -0.00757713
v 0.02191693 -0.01118710 -0.00757714
v 0.02211210 -0.01052834 -0.00757717
v 0.02214354 -0.00995465 -0.00757720
v 0.02204700 -0.00941365 -0.00757721
v 0.02184208 -0.00891267 -0.00757719
v 0.02152674 -0.00841055 -0.00757715
v 0.02115626 -0.00794256 -0.00757713
v 0.01723672 -0.00375254 -0.00336832
v 0.01719923 -0.00381072 -0.00298859
v 0.01709404 -0.00397294 -0.00254986
v 0.01690427 -0.00426518 -0.00206315
v 0.01661197 -0.00471517 -0.00153959
v 0.01621652 -0.00532398 -0.00102439
v 0.01557210 -0.00631622 -0.00043356
v 0.01482893 -0.00746070 0.00003597
v 0.01695740 -0.00884009 -0.00036988
v 0.01867200 -0.00996605 -0.00089249
v 0.02084424 -0.00762268 -0.00383402
v 0.02081513 -0.00761114 -0.00371299
v 0.02076153 -0.00763135 -0.00350569
v 0.02066491 -0.00770486 -0.00321702
v 0.02051135 -0.00784925 -0.00286109
v 0.02020289 -0.00817339 -0.00231907
v 0.01970665 -0.00873312 -0.00168956
v 0.01922401 -0.00930041 -0.00124872
v 0.01687150 -0.00670525 -0.00084371
v 0.01806378 -0.00712277 -0.00130038
v 0.01873753 -0.00828283 -0.00125775
v 0.01907197 -0.00843275 -0.00139786
v 0.01759149 -0.00478227 -0.00231583
v 0.01783048 -0.00521085 -0.00219635
v 0.01889114 -0.00596452 -0.00267507
v 0.02001363 -0.00727790 -0.00276890
v 0.01953114 -0.00721806 -0.00230984
v 0.01964734 -0.00708477 -0.00252267
v 0.01997345 -0.00672757 -0.00341604
v 0.02151392 -0.01191388 -0.00757713
v 0.02191693 -0.01118710 -0.00757714
v 0.02211210 -0.01052834 -0.00757717
v 0.02214354 -0.00995465 -0.00757720
v 0.02204700 -0.00941365 -0.00757721
v 0.02184208 -0.00891267 -0.00757719
v 0.02152674 -0.00841055 -0.00757715
v 0.02115626 -0.00794256 -0.00757713
v 0.01867200 -0.00996604 -0.01100348
v 0.01968247 -0.01064245 -0.01051557
v 0.02042564 -0.01115231 -0.00989299
v 0.02096041 -0.01152756 -0.00916709
v 0.02130412 -0.01177147 -0.00846425
v 0.02147156 -0.01188845 -0.00791733
v 0.01956485 -0.00889798 -0.01035049
v 0.02022790 -0.00814614 -0.00953854
v 0.02059805 -0.00776529 -0.00884475
v 0.02076817 -0.00762746 -0.00836708
v 0.02081689 -0.00761115 -0.00817533
v 0.02084424 -0.00762268 -0.00806195
v 0.02114592 -0.00794149 -0.00770319
v 0.02112646 -0.00792642 -0.00778897
v 0.02109244 -0.00789425 -0.00787282
v 0.02106298 -0.00786446 -0.00792310
v 0.02102531 -0.00782498 -0.00797141
v 0.02098371 -0.00778005 -0.00800962
v 0.02094378 -0.00773588 -0.00803459
v 0.02089922 -0.00768554 -0.00805100
v 0.02106268 -0.00794575 -0.00824510
v 0.02112298 -0.00801401 -0.00821708
v 0.02161369 -0.00875496 -0.00814146
v 0.02137499 -0.00880274 -0.00863023
v 0.02167331 -0.00896569 -0.00822829
v 0.02171750 -0.00929725 -0.00837404
v 0.02039172 -0.00953693 -0.00995427
v 0.02171561 -0.00954594 -0.00848574
v 0.02072782 -0.00981200 -0.00972053
v 0.02168494 -0.00981059 -0.00860315
v 0.02197071 -0.00963868 -0.00804879
v 0.02006750 -0.01006050 -0.01026777
v 0.02197493 -0.00999958 -0.00813506
v 0.02043813 -0.01033791 -0.01000334
v 0.02154786 -0.01034145 -0.00882358
v 0.02044165 -0.01061057 -0.00998590
v 0.02179992 -0.01114203 -0.00810392
v 0.02186055 -0.01119573 -0.00788492
v 0.02169537 -0.00869434 -0.00776422
v 0.01482893 -0.00746069 -0.01193194
v 0.01695739 -0.00884008 -0.01152609
v 0.01867200 -0.00996604 -0.01100348
v 0.01651924 -0.01271349 -0.01127147
v 0.01772472 -0.01112984 -0.01126595
v 0.01832047 -0.01039474 -0.01114501
v 0.01479638 -0.01169213 -0.01176842
v 0.01285252 -0.01050451 -0.01216064
v 0.01404496 -0.00866806 -0.01215244
v 0.01752576 -0.00982359 -0.01141647
v 0.01285252 -0.01050452 0.00026467
v 0.01215180 -0.01158366 -0.00002179
v 0.01175577 -0.01219015 -0.00038946
v 0.01144454 -0.01266019 -0.00086977
v 0.01121072 -0.01300597 -0.00141317
v 0.01103535 -0.01326233 -0.00201686
v 0.01092181 -0.01343425 -0.00264232
v 0.01086501 -0.01353687 -0.00326596
v 0.01084848 -0.01359087 -0.00385243
v 0.01504164 -0.01493807 -0.00385248
v 0.01305782 -0.01445670 -0.00385244
v 0.01651924 -0.01271350 -0.00062449
v 0.01619847 -0.01317034 -0.00070310
v 0.01593594 -0.01354546 -0.00089552
v 0.01566042 -0.01393982 -0.00124611
v 0.01540944 -0.01430395 -0.00173275
v 0.01521343 -0.01459938 -0.00230786
v 0.01509245 -0.01480023 -0.00291151
v 0.01504892 -0.01489438 -0.00340343
v 0.01479639 -0.01169214 -0.00012755
v 0.01333239 -0.01191004 -0.00009579
v 0.01270506 -0.01219558 -0.00025348
v 0.01316911 -0.01219291 -0.00021588
v 0.01404560 -0.01288773 -0.00052126
v 0.01523909 -0.01296457 -0.00052800
v 0.01206417 -0.01391607 -0.00268590
v 0.01328280 -0.01419211 -0.00230698
v 0.01419390 -0.01458901 -0.00274418
v 0.01241114 -0.01313364 -0.00104344
v 0.01326638 -0.01321262 -0.00088770
v 0.01288505 -0.01335198 -0.00113603
v 0.01358287 -0.01364949 -0.00127153
v 0.01424426 -0.01391475 -0.00141511
v 0.01651924 -0.01271349 -0.01127147
v 0.01479638 -0.01169213 -0.01176842
v 0.01285252 -0.01050451 -0.01216064
v 0.01504173 -0.01493809 -0.00804349
v 0.01506790 -0.01484826 -0.00877059
v 0.01520897 -0.01460637 -0.00957131
v 0.01548155 -0.01419842 -0.01032378
v 0.01579861 -0.01374174 -0.01084607
v 0.01606701 -0.01335823 -0.01111286
v 0.01630491 -0.01301819 -0.01123488
v 0.01084848 -0.01359087 -0.00804354
v 0.01305785 -0.01445671 -0.00804353
v 0.01087844 -0.01350895 -0.00883823
v 0.01096085 -0.01337342 -0.00950983
v 0.01113920 -0.01311048 -0.01026595
v 0.01140254 -0.01272281 -0.01094299
v 0.01171570 -0.01225113 -0.01145604
v 0.01205754 -0.01172840 -0.01180520
v 0.01243781 -0.01114424 -0.01203198
v 0.01331255 -0.01194432 -0.01178752
v 0.01267583 -0.01224509 -0.01161296
v 0.01314505 -0.01223477 -0.01165903
v 0.01407999 -0.01282547 -0.01141404
v 0.01530839 -0.01284737 -0.01141410
v 0.01205411 -0.01394259 -0.00909851
v 0.01324610 -0.01429361 -0.00928728
v 0.01235854 -0.01323137 -0.01072001
v 0.01323247 -0.01327766 -0.01093731
v 0.01282807 -0.01346535 -0.01060286
v 0.01354964 -0.01371748 -0.01052922
v 0.01424255 -0.01391805 -0.01047613
v 0.00807982 -0.00697344 -0.01283702
v 0.01065659 -0.00906115 -0.01248156
v 0.01285252 -0.01050451 -0.01216064
v 0.01084848 -0.01359087 -0.00804354
v 0.01087844 -0.01350895 -0.00883823
v 0.01096085 -0.01337342 -0.00950983
v 0.01113920 -0.01311048 -0.01026595
v 0.01140254 -0.01272281 -0.01094299
v 0.01171570 -0.01225113 -0.01145604
v 0.01205754 -0.01172840 -0.01180520
v 0.01243781 -0.01114424 -0.01203198
v 0.00591900 -0.01062727 -0.00804350
v 0.00828732 -0.01223644 -0.00804352
v 0.00606728 -0.01038536 -0.00971794
v 0.00625399 -0.01007098 -0.01058192
v 0.00656735 -0.00953994 -0.01144945
v 0.00695544 -0.00888117 -0.01210411
v 0.00737141 -0.00817522 -0.01252472
v 0.00771873 -0.00758601 -0.01272794
v 0.00867453 -0.00898835 -0.01244980
v 0.00792647 -0.00921690 -0.01223258
v 0.00843729 -0.00939045 -0.01227096
v 0.00952935 -0.01081621 -0.01182681
v 0.00809610 -0.01101374 -0.01100971
v 0.01135285 -0.01098107 -0.01203567
v 0.01112575 -0.01130049 -0.01188769
v 0.00910184 -0.01145961 -0.01116711
v 0.00893343 -0.01170377 -0.01077912
v 0.00717031 -0.01133574 -0.00924779
v 0.01138420 -0.01167828 -0.01174304
v 0.00880553 -0.01188423 -0.01040379
v 0.00977672 -0.01229635 -0.01058597
v 0.00855581 -0.01210683 -0.00960382
v 0.00973460 -0.01288806 -0.00915490
v 0.01039531 -0.01189708 -0.01135163
v 0.01547162 -0.01502095 -0.00431883
v 0.01691289 -0.01498891 -0.00431882
v 0.01804987 -0.01469690 -0.00431880
v 0.01862665 -0.01444155 -0.00431881
v 0.01909063 -0.01418026 -0.00431883
v 0.01547162 -0.01502095 -0.00757717
v 0.01909063 -0.01418026 -0.00757713
v 0.01825767 -0.01461410 -0.00757717
v 0.01705504 -0.01496617 -0.00757716
v 0.01630760 -0.01504504 -0.00757715
v 0.01482893 -0.00746070 0.00003597
v 0.01404496 -0.00866806 0.00025648
v 0.01285252 -0.01050452 0.00026467
v 0.01651924 -0.01271350 -0.00062449
v 0.01479639 -0.01169214 -0.00012755
v 0.01867200 -0.00996605 -0.00089249
v 0.01822221 -0.01051489 -0.00072364
v 0.01743006 -0.01150152 -0.00060210
v 0.01695740 -0.00884009 -0.00036988
v 0.01558156 -0.00857978 -0.00001226
v 0.01743298 -0.00994250 -0.00045353
v 0.00807982 -0.00697344 0.00094106
v 0.00756191 -0.00785204 0.00075404
v 0.00708327 -0.00866419 0.00036230
v 0.00667366 -0.00935951 -0.00023341
v 0.00635280 -0.00990376 -0.00098994
v 0.00612860 -0.01028251 -0.00184056
v 0.00597898 -0.01053173 -0.00287581
v 0.00591900 -0.01062728 -0.00385247
v 0.01084848 -0.01359087 -0.00385243
v 0.00828732 -0.01223644 -0.00385245
v 0.01285252 -0.01050452 0.00026467
v 0.01215180 -0.01158366 -0.00002179
v 0.01175577 -0.01219015 -0.00038946
v 0.01144454 -0.01266019 -0.00086977
v 0.01121072 -0.01300597 -0.00141317
v 0.01103535 -0.01326233 -0.00201686
v 0.01092181 -0.01343425 -0.00264232
v 0.01086501 -0.01353687 -0.00326596
v 0.01065659 -0.00906116 0.00058559
v 0.00801544 -0.00906475 0.00042264
v 0.00850642 -0.00927326 0.00043360
v 0.00959200 -0.01071990 0.00000013
v 0.00817924 -0.01087819 -0.00068634
v 0.01137997 -0.01094271 0.00015457
v 0.00917637 -0.01134959 -0.00058522
v 0.00682271 -0.01097644 -0.00227148
v 0.01115819 -0.01125511 0.00001567
v 0.00901083 -0.01159238 -0.00092621
v 0.00718929 -0.01130147 -0.00248347
v 0.00889302 -0.01176131 -0.00122631
v 0.00859142 -0.01205893 -0.00210458
v 0.00975485 -0.01286948 -0.00262417
v 0.00970371 -0.01291502 -0.00294064
v 0.01348802 0.00068609 -0.00336832
v 0.01337689 0.00055183 -0.00237103
v 0.01324871 0.00039150 -0.00187892
v 0.01300620 0.00008381 -0.00131886
v 0.01269554 -0.00031459 -0.00085293
v 0.01231103 -0.00081253 -0.00044664
v 0.01116566 -0.00232847 0.00028916
v 0.01001422 -0.00393875 0.00070723
v 0.01230018 -0.00571874 0.00039788
v 0.01482893 -0.00746070 0.00003597
v 0.01723672 -0.00375254 -0.00336832
v 0.01719923 -0.00381072 -0.00298859
v 0.01709404 -0.00397294 -0.00254986
v 0.01690427 -0.00426518 -0.00206315
v 0.01661197 -0.00471517 -0.00153959
v 0.01621652 -0.00532398 -0.00102439
v 0.01557210 -0.00631622 -0.00043356
v 0.01513949 -0.00145908 -0.00336831
v 0.01424596 -0.00060615 -0.00244675
v 0.01418603 -0.00067777 -0.00219566
v 0.01522039 -0.00208850 -0.00210547
v 0.01402056 -0.00390142 -0.00043034
v 0.01483502 -0.00522513 -0.00042965
v 0.01456937 -0.00564988 -0.00023624
v 0.01421213 -0.00622372 -0.00001453
v 0.01476370 -0.00278673 -0.00120228
v 0.01723672 -0.00375254 -0.00336832
v 0.02084424 -0.00762268 -0.00383402
v 0.02092834 -0.00771860 -0.00385398
v 0.02099223 -0.00778934 -0.00389311
v 0.02104785 -0.00784876 -0.00395158
v 0.02109697 -0.00789873 -0.00403216
v 0.02112896 -0.00792859 -0.00411523
v 0.02114462 -0.00794077 -0.00418380
v 0.02115201 -0.00794395 -0.00424537
v 0.02115626 -0.00794256 -0.00431880
v 0.02115626 -0.00794256 -0.00757713
v 0.02114592 -0.00794149 -0.00770319
v 0.02112646 -0.00792642 -0.00778897
v 0.02109244 -0.00789425 -0.00787282
v 0.02106298 -0.00786446 -0.00792310
v 0.02102531 -0.00782498 -0.00797141
v 0.02098371 -0.00778005 -0.00800962
v 0.02094378 -0.00773588 -0.00803459
v 0.02089922 -0.00768554 -0.00805100
v 0.02084424 -0.00762268 -0.00806195
v 0.01723672 -0.00375254 -0.00852764
v 0.01729931 -0.00365426 -0.00594798
v 0.02084424 -0.00762268 -0.00806195
v 0.01723672 -0.00375254 -0.00852764
v 0.01867200 -0.00996604 -0.01100348
v 0.01956485 -0.00889798 -0.01035049
v 0.02022790 -0.00814614 -0.00953854
v 0.02059805 -0.00776529 -0.00884475
v 0.02076817 -0.00762746 -0.00836708
v 0.02081689 -0.00761115 -0.00817533
v 0.01482893 -0.00746069 -0.01193194
v 0.01695739 -0.00884008 -0.01152609
v 0.01601879 -0.00562840 -0.01107859
v 0.01666185 -0.00463838 -0.01027834
v 0.01700383 -0.00411187 -0.00960161
v 0.01717026 -0.00385543 -0.00905893
v 0.01722013 -0.00377838 -0.00875438
v 0.01690806 -0.00665228 -0.01101814
v 0.01809703 -0.00707806 -0.01055826
v 0.01875664 -0.00825895 -0.01062009
v 0.01903495 -0.00847777 -0.01053401
v 0.01887608 -0.00598310 -0.00925851
v 0.01999467 -0.00729777 -0.00916731
v 0.01947967 -0.00727816 -0.00967281
v 0.01966648 -0.00706322 -0.00933558
v 0.01997046 -0.00672949 -0.00849202
v 0.01801937 -0.00610439 -0.01013818
v 0.01001421 -0.00393875 -0.01260319
v 0.01229380 -0.00571395 -0.01229470
v 0.01482893 -0.00746069 -0.01193194
v 0.01285252 -0.01050451 -0.01216064
v 0.01404496 -0.00866806 -0.01215244
v 0.00807982 -0.00697344 -0.01283702
v 0.01065659 -0.00906115 -0.01248156
v 0.00911505 -0.00529320 -0.01280773
v 0.01071161 -0.00534398 -0.01256850
v 0.01354981 -0.00733146 -0.01219408
v 0.01260300 -0.00912424 -0.01231491
v 0.00476373 -0.00396825 -0.01316135
v 0.00807982 -0.00697344 -0.01283702
v 0.00591900 -0.01062727 -0.00804350
v 0.00606728 -0.01038536 -0.00971794
v 0.00625399 -0.01007098 -0.01058192
v 0.00656735 -0.00953994 -0.01144945
v 0.00695544 -0.00888117 -0.01210411
v 0.00737141 -0.00817522 -0.01252472
v 0.00771873 -0.00758601 -0.01272794
v 0.00341025 -0.00826361 -0.00804349
v 0.00451020 -0.00943327 -0.00804349
v 0.00439652 -0.00559736 -0.01278488
v 0.00414751 -0.00648430 -0.01232552
v 0.00394284 -0.00710658 -0.01178153
v 0.00378553 -0.00752342 -0.01121203
v 0.00365649 -0.00782398 -0.01058385
v 0.00352907 -0.00807837 -0.00968309
v 0.00345632 -0.00819897 -0.00886969
v 0.01547118 -0.01501946 -0.00429298
v 0.01547154 -0.01502044 -0.00430991
v 0.01504164 -0.01493807 -0.00385248
v 0.01512973 -0.01495142 -0.00386003
v 0.01520179 -0.01496302 -0.00388579
v 0.01527811 -0.01497610 -0.00393499
v 0.01534937 -0.01498910 -0.00400383
v 0.01540779 -0.01500066 -0.00408454
v 0.01544758 -0.01500984 -0.00416772
v 0.01546536 -0.01501550 -0.00423392
v 0.01305782 -0.01445670 -0.00385244
v 0.01084848 -0.01359087 -0.00385243
v 0.00828732 -0.01223644 -0.00385245
v 0.00591900 -0.01062728 -0.00385247
v 0.00450899 -0.00943214 -0.00385248
v 0.00341025 -0.00826361 -0.00385248
v 0.00341025 -0.00826361 -0.00804349
v 0.00336423 -0.00832504 -0.00594798
v 0.00451020 -0.00943327 -0.00804349
v 0.00591900 -0.01062727 -0.00804350
v 0.00828732 -0.01223644 -0.00804352
v 0.01084848 -0.01359087 -0.00804354
v 0.01305785 -0.01445671 -0.00804353
v 0.01504173 -0.01493809 -0.00804349
v 0.01547162 -0.01502095 -0.00757717
v 0.01546328 -0.01501466 -0.00767297
v 0.01543285 -0.01500619 -0.00776402
v 0.01538152 -0.01499531 -0.00785143
v 0.01531232 -0.01498223 -0.00793105
v 0.01523345 -0.01496835 -0.00799257
v 0.01515394 -0.01495524 -0.00802948
v 0.01509513 -0.01494610 -0.00804150
v 0.01547162 -0.01502095 -0.00431883
v 0.01414898 -0.01483936 -0.00594798
v 0.01001422 -0.00393875 0.00070723
v 0.00911505 -0.00529320 0.00091176
v 0.00807982 -0.00697344 0.00094106
v 0.01285252 -0.01050452 0.00026467
v 0.01065659 -0.00906116 0.00058559
v 0.01482893 -0.00746070 0.00003597
v 0.01404496 -0.00866806 0.00025648
v 0.01230018 -0.00571874 0.00039788
v 0.01071446 -0.00534627 0.00067218
v 0.01355262 -0.00733336 0.00029774
v 0.01260300 -0.00912425 0.00041894
v 0.00341025 -0.00826361 -0.00385248
v 0.00357761 -0.00798714 -0.00181983
v 0.00374083 -0.00763194 -0.00088056
v 0.00390227 -0.00721919 -0.00024604
v 0.00411391 -0.00659279 0.00035209
v 0.00436252 -0.00572758 0.00083697
v 0.00456067 -0.00492320 0.00109751
v 0.00476374 -0.00396825 0.00126539
v 0.00591900 -0.01062728 -0.00385247
v 0.00450899 -0.00943214 -0.00385248
v 0.00807982 -0.00697344 0.00094106
v 0.00756191 -0.00785204 0.00075404
v 0.00708327 -0.00866419 0.00036230
v 0.00667366 -0.00935951 -0.00023341
v 0.00635280 -0.00990376 -0.00098994
v 0.00612860 -0.01028251 -0.00184056
v 0.00597898 -0.01053173 -0.00287581
v 0.00641405 -0.00052629 0.00110540
v 0.00850295 0.00152497 0.00031057
v 0.00950100 0.00243584 -0.00030643
v 0.01013504 0.00299485 -0.00085711
v 0.01051456 0.00331853 -0.00131437
v 0.01081930 0.00356333 -0.00185207
v 0.01099720 0.00368990 -0.00237914
v 0.01108317 0.00374688 -0.00286789
v 0.01114486 0.00380318 -0.00336841
v 0.00821334 -0.00233968 0.00092584
v 0.01001422 -0.00393875 0.00070723
v 0.01348802 0.00068609 -0.00336832
v 0.01337689 0.00055183 -0.00237103
v 0.01324871 0.00039150 -0.00187892
v 0.01300620 0.00008381 -0.00131886
v 0.01269554 -0.00031459 -0.00085293
v 0.01231103 -0.00081253 -0.00044664
v 0.01116566 -0.00232847 0.00028916
v 0.01086677 -0.00010060 -0.00008230
v 0.00991812 -0.00254799 0.00061089
v 0.01216690 -0.00006413 -0.00064796
v 0.01169523 0.00164562 -0.00120739
v 0.01153565 0.00279646 -0.00199437
v 0.01276535 0.00095777 -0.00176830
v 0.01280110 0.00149513 -0.00268974
v 0.01348802 0.00068610 -0.00852764
v 0.01356415 0.00077429 -0.00594798
v 0.01348802 0.00068609 -0.00336832
v 0.01723672 -0.00375254 -0.00852764
v 0.01513892 -0.00145841 -0.00852765
v 0.01723672 -0.00375254 -0.00336832
v 0.01729931 -0.00365426 -0.00594798
v 0.01513949 -0.00145908 -0.00336831
v 0.01723672 -0.00375254 -0.00852764
v 0.01513892 -0.00145841 -0.00852765
v 0.01348802 0.00068610 -0.00852764
v 0.01482893 -0.00746069 -0.01193194
v 0.01601879 -0.00562840 -0.01107859
v 0.01666185 -0.00463838 -0.01027834
v 0.01700383 -0.00411187 -0.00960161
v 0.01717026 -0.00385543 -0.00905893
v 0.01722013 -0.00377838 -0.00875438
v 0.01001421 -0.00393875 -0.01260319
v 0.01229380 -0.00571395 -0.01229470
v 0.01169777 -0.00161735 -0.01190251
v 0.01247800 -0.00059568 -0.01128893
v 0.01293512 -0.00000698 -0.01070040
v 0.01318433 0.00031021 -0.01019525
v 0.01336203 0.00053340 -0.00959733
v 0.01344656 0.00063716 -0.00905785
v 0.01423208 -0.00062188 -0.00951303
v 0.01409921 -0.00378191 -0.01140132
v 0.01445019 -0.00583494 -0.01173683
v 0.01487068 -0.00516234 -0.01143662
v 0.01349351 -0.00045329 -0.01043447
v 0.01475284 -0.00158469 -0.00989347
v 0.01373462 -0.00152370 -0.01082935
v 0.01499348 -0.00206521 -0.01004948
v 0.01432674 -0.00194940 -0.01059467
v 0.01576270 -0.00286437 -0.00987881
v 0.01584173 -0.00389634 -0.01047852
v 0.01506049 -0.00318390 -0.01067643
v 0.00641405 -0.00052628 -0.01300136
v 0.00821334 -0.00233967 -0.01282180
v 0.01001421 -0.00393875 -0.01260319
v 0.00807982 -0.00697344 -0.01283702
v 0.00911505 -0.00529320 -0.01280773
v 0.00476373 -0.00396825 -0.01316135
v 0.00560555 -0.00151299 -0.01316623
v 0.00513650 -0.00247183 -0.01322577
v 0.00491739 -0.00322241 -0.01321914
v 0.00886584 -0.00392403 -0.01280057
v 0.00735874 -0.00465987 -0.01302053
v 0.00341025 -0.00826361 -0.00385248
v 0.00357761 -0.00798714 -0.00181983
v 0.00374083 -0.00763194 -0.00088056
v 0.00390227 -0.00721919 -0.00024604
v 0.00411391 -0.00659279 0.00035209
v 0.00436252 -0.00572758 0.00083697
v 0.00456067 -0.00492320 0.00109751
v 0.00476374 -0.00396825 0.00126539
v 0.00385163 -0.00318016 0.00131189
v 0.00381007 -0.00321609 0.00130533
v -0.00076134 -0.00436739 -0.00385264
v -0.00051197 -0.00438303 -0.00238444
v -0.00026573 -0.00439209 -0.00157887
v 0.00015047 -0.00439268 -0.00084486
v 0.00085146 -0.00434851 -0.00009020
v 0.00180459 -0.00418365 0.00058257
v 0.00272012 -0.00387964 0.00101289
v 0.00328356 -0.00359237 0.00119287
v 0.00194509 -0.00660360 -0.00385272
v 0.00066531 -0.00543774 -0.00385273
v -0.00076134 -0.00436739 -0.00804332
v 0.00066531 -0.00543774 -0.00804323
v 0.00194509 -0.00660360 -0.00804324
v 0.00341025 -0.00826361 -0.00804349
v 0.00381006 -0.00321608 -0.01320129
v 0.00325055 -0.00361196 -0.01307999
v 0.00265111 -0.00390879 -0.01288252
v 0.00204715 -0.00411899 -0.01261023
v 0.00145895 -0.00425886 -0.01226583
v 0.00090497 -0.00434264 -0.01185169
v 0.00040745 -0.00438331 -0.01136872
v -0.00001130 -0.00439473 -0.01081084
v -0.00031718 -0.00439074 -0.01018729
v -0.00058706 -0.00437895 -0.00912553
v 0.00385163 -0.00318016 -0.01320785
v 0.00476373 -0.00396825 -0.01316135
v 0.00439652 -0.00559736 -0.01278488
v 0.00414751 -0.00648430 -0.01232552
v 0.00394284 -0.00710658 -0.01178153
v 0.00378553 -0.00752342 -0.01121203
v 0.00365649 -0.00782398 -0.01058385
v 0.00352907 -0.00807837 -0.00968309
v 0.00345632 -0.00819897 -0.00886969
v 0.00341025 -0.00826361 -0.00385248
v 0.00194509 -0.00660360 -0.00385272
v 0.00066531 -0.00543774 -0.00385273
v -0.00076134 -0.00436739 -0.00385264
v -0.00076134 -0.00436739 -0.00804332
v -0.00091707 -0.00435452 -0.00594859
v 0.00066531 -0.00543774 -0.00804323
v 0.00194509 -0.00660360 -0.00804324
v 0.00341025 -0.00826361 -0.00804349
v 0.00336423 -0.00832504 -0.00594798
v 0.00282773 -0.00764605 -0.00490025
v 0.00282773 -0.00764605 -0.00699572
v 0.00476374 -0.00396825 0.00126539
v 0.00505614 -0.00271008 0.00133278
v 0.00547722 -0.00172639 0.00129056
v 0.00591139 -0.00108760 0.00121518
v 0.00641405 -0.00052629 0.00110540
v 0.00807982 -0.00697344 0.00094106
v 0.01001422 -0.00393875 0.00070723
v 0.00911505 -0.00529320 0.00091176
v 0.00821334 -0.00233968 0.00092584
v 0.00886584 -0.00392403 0.00090461
v 0.01348802 0.00068610 -0.00852764
v 0.01112124 0.00378467 -0.00852755
v 0.01001421 -0.00393875 -0.01260319
v 0.01169777 -0.00161735 -0.01190251
v 0.01247800 -0.00059568 -0.01128893
v 0.01293512 -0.00000698 -0.01070040
v 0.01318433 0.00031021 -0.01019525
v 0.01336203 0.00053340 -0.00959733
v 0.01344656 0.00063716 -0.00905785
v 0.00641405 -0.00052628 -0.01300136
v 0.00821334 -0.00233967 -0.01282180
v 0.01098070 0.00367899 -0.00958190
v 0.01080217 0.00355029 -0.01008194
v 0.01046215 0.00327465 -0.01065432
v 0.01003093 0.00290431 -0.01114303
v 0.00931310 0.00226714 -0.01172341
v 0.00786795 0.00092511 -0.01250750
v 0.01022680 -0.00082597 -0.01218062
v 0.01020209 -0.00218646 -0.01240281
v 0.01154777 -0.00081705 -0.01176654
v 0.00476373 -0.00396825 -0.01316135
v 0.00385163 -0.00318016 -0.01320785
v 0.00571721 0.00021540 -0.01305317
v 0.00531500 -0.00102686 -0.01318417
v 0.00469889 -0.00218624 -0.01325535
v 0.00430772 -0.00271153 -0.01325425
v 0.00641405 -0.00052628 -0.01300136
v 0.00560555 -0.00151299 -0.01316623
v 0.00513650 -0.00247183 -0.01322577
v 0.00491739 -0.00322241 -0.01321914
v 0.00476374 -0.00396825 0.00126539
v 0.00385163 -0.00318016 0.00131189
v 0.00505614 -0.00271008 0.00133278
v 0.00547722 -0.00172639 0.00129056
v 0.00591139 -0.00108760 0.00121518
v 0.00641405 -0.00052629 0.00110540
v 0.00571721 0.00021540 0.00115721
v 0.00449681 -0.00247315 0.00136324
v 0.00500870 -0.00166778 0.00133525
v 0.00542530 -0.00075055 0.00126402
v 0.00568541 0.00371264 -0.00439798
v 0.00568541 0.00371264 -0.00749798
v 0.00589870 0.00226310 -0.00749798
v 0.00589870 0.00226309 -0.00439798
v 0.00589870 0.00226309 -0.00439798
v 0.00589870 0.00226310 -0.00749798
v 0.00025930 -0.00438967 -0.00749798
v 0.00025930 -0.00438967 -0.00439798
f 8 9 10
f 7 10 11
f 7 11 12
f 7 8 10
f 6 12 13
f 6 13 14
f 6 7 12
f 5 14 15
f 5 15 16
f 5 6 14
f 17 5 16
f 4 5 17
f 20 2 3
f 20 3 19
f 1 2 20
f 36 1 20
f 21 36 20
f 28 29 30
f 28 30 31
f 22 35 21
f 27 28 31
f 23 34 35
f 23 35 22
f 26 31 32
f 26 27 31
f 24 34 23
f 24 33 34
f 25 26 32
f 25 33 24
f 25 32 33
f 3 4 18
f 3 18 19
f 17 18 4
f 35 36 21
f 45 46 47
f 45 47 48
f 44 48 49
f 44 45 48
f 43 44 49
f 42 49 50
f 42 43 49
f 41 50 51
f 41 42 50
f 40 41 51
f 39 51 37
f 39 40 51
f 38 39 37
f 58 53 63
f 58 63 59
f 55 54 52
f 57 52 53
f 57 53 58
f 57 55 52
f 56 55 57
f 64 62 61
f 64 63 62
f 65 60 59
f 65 61 60
f 65 64 61
f 65 59 63
f 65 63 64
f 78 82 79
f 81 82 78
f 90 66 68
f 90 76 75
f 90 77 76
f 90 68 77
f 91 66 90
f 92 67 66
f 92 88 89
f 92 89 67
f 92 66 91
f 93 92 91
f 94 86 87
f 94 87 88
f 94 92 93
f 94 88 92
f 95 75 74
f 95 91 90
f 95 90 75
f 96 73 72
f 96 74 73
f 96 95 74
f 97 95 96
f 98 95 97
f 98 91 95
f 99 83 84
f 99 84 85
f 99 85 86
f 99 98 83
f 99 86 94
f 99 94 93
f 99 93 91
f 99 91 98
f 100 71 70
f 100 72 71
f 100 97 96
f 100 96 72
f 100 98 97
f 101 70 69
f 101 100 70
f 101 98 100
f 102 80 79
f 102 69 80
f 102 82 83
f 102 83 98
f 102 101 69
f 102 79 82
f 102 98 101
f 106 138 137
f 139 138 106
f 130 139 106
f 105 135 134
f 105 136 135
f 105 137 136
f 105 106 137
f 129 130 107
f 104 133 132
f 104 134 133
f 104 105 134
f 110 129 107
f 103 132 131
f 103 104 132
f 128 129 112
f 113 129 110
f 113 112 129
f 115 126 127
f 115 127 128
f 125 126 115
f 114 110 109
f 114 113 110
f 116 125 115
f 124 125 116
f 111 109 108
f 111 114 109
f 123 124 116
f 122 123 116
f 122 116 117
f 121 122 117
f 120 121 117
f 120 117 118
f 119 120 118
f 106 107 130
f 112 115 128
f 150 153 148
f 149 150 148
f 163 159 160
f 163 160 161
f 163 161 162
f 163 162 140
f 164 140 141
f 164 163 140
f 165 141 142
f 165 142 143
f 165 143 144
f 165 164 141
f 166 158 159
f 166 163 164
f 166 159 163
f 167 156 157
f 167 157 158
f 167 158 166
f 168 167 166
f 169 144 145
f 169 165 144
f 169 164 165
f 170 166 164
f 170 164 169
f 170 168 166
f 171 145 146
f 171 146 147
f 171 170 169
f 171 147 170
f 171 169 145
f 172 151 154
f 172 154 155
f 172 155 156
f 172 168 170
f 172 167 168
f 172 156 167
f 173 147 148
f 173 152 151
f 173 153 152
f 173 170 147
f 173 172 170
f 173 148 153
f 173 151 172
f 180 181 182
f 180 182 183
f 179 183 184
f 179 180 183
f 178 184 185
f 178 179 184
f 177 185 186
f 177 178 185
f 176 186 187
f 176 177 186
f 175 187 188
f 175 188 189
f 175 176 187
f 174 189 190
f 174 175 189
f 213 191 192
f 211 219 218
f 211 212 219
f 220 192 193
f 220 193 194
f 220 214 213
f 220 215 214
f 220 213 192
f 221 194 195
f 221 220 194
f 222 216 215
f 222 220 221
f 222 215 220
f 223 222 221
f 224 195 196
f 224 221 195
f 225 223 221
f 225 221 224
f 226 225 224
f 227 196 197
f 227 197 198
f 227 224 196
f 228 226 224
f 229 208 209
f 229 223 225
f 229 226 228
f 229 225 226
f 230 224 227
f 231 228 224
f 231 224 230
f 232 198 199
f 232 199 200
f 232 227 198
f 232 230 227
f 233 230 232
f 234 207 208
f 234 229 228
f 234 228 231
f 234 208 229
f 235 231 230
f 235 230 233
f 235 234 231
f 236 235 233
f 236 200 201
f 236 201 202
f 236 232 200
f 236 202 235
f 236 233 232
f 237 202 203
f 237 203 204
f 237 234 235
f 237 235 202
f 238 234 237
f 238 204 205
f 238 205 206
f 238 206 207
f 238 207 234
f 238 237 204
f 239 209 210
f 239 210 211
f 239 217 216
f 239 218 217
f 239 211 218
f 239 216 222
f 239 229 209
f 239 223 229
f 239 222 223
f 259 240 241
f 251 250 258
f 247 245 246
f 257 256 248
f 249 257 248
f 260 241 242
f 260 258 259
f 260 259 241
f 261 252 251
f 261 258 260
f 261 251 258
f 262 242 243
f 262 253 252
f 262 260 242
f 262 252 261
f 262 261 260
f 263 243 244
f 263 254 253
f 263 253 262
f 263 262 243
f 264 255 254
f 264 263 244
f 264 254 263
f 265 244 245
f 265 247 248
f 265 256 255
f 265 255 264
f 265 264 244
f 265 245 247
f 265 248 256
f 275 285 274
f 266 267 281
f 293 282 283
f 293 290 291
f 293 291 292
f 293 292 282
f 294 289 290
f 294 290 293
f 295 287 288
f 295 288 289
f 295 289 294
f 296 295 294
f 297 283 284
f 297 296 294
f 297 294 293
f 297 293 283
f 298 272 273
f 298 273 286
f 298 286 287
f 299 287 295
f 299 298 287
f 300 296 297
f 301 270 271
f 301 271 272
f 301 298 299
f 301 272 298
f 302 269 270
f 302 295 296
f 302 301 299
f 302 270 301
f 302 296 300
f 302 299 295
f 303 302 300
f 303 300 297
f 304 275 276
f 304 276 277
f 304 277 278
f 304 284 285
f 304 297 284
f 304 285 275
f 305 303 297
f 305 304 278
f 305 297 304
f 306 268 269
f 306 269 302
f 306 302 303
f 306 303 305
f 307 267 268
f 307 278 279
f 307 279 280
f 307 280 281
f 307 305 278
f 307 281 267
f 307 268 306
f 307 306 305
f 336 327 328
f 320 333 319
f 308 309 334
f 310 308 334
f 318 310 334
f 311 312 326
f 337 335 336
f 337 336 328
f 338 328 329
f 338 329 330
f 338 335 337
f 338 337 328
f 339 338 330
f 340 330 331
f 340 331 332
f 340 339 330
f 341 339 340
f 342 332 333
f 342 341 340
f 342 333 320
f 342 340 332
f 343 338 339
f 344 334 335
f 344 338 343
f 344 335 338
f 345 344 343
f 346 320 321
f 346 321 322
f 346 341 342
f 346 342 320
f 347 322 323
f 347 343 339
f 347 346 322
f 347 339 341
f 347 341 346
f 347 345 343
f 348 344 345
f 349 344 348
f 350 323 324
f 350 347 323
f 350 345 347
f 350 348 345
f 350 349 348
f 351 313 314
f 351 349 350
f 352 312 313
f 352 324 325
f 352 325 326
f 352 313 351
f 352 350 324
f 352 326 312
f 352 351 350
f 353 314 315
f 353 315 316
f 353 316 317
f 353 317 318
f 353 351 314
f 353 318 334
f 353 334 344
f 353 344 349
f 353 349 351
f 359 354 355
f 360 359 355
f 361 355 356
f 361 360 355
f 358 356 357
f 358 361 356
f 363 376 362
f 372 364 365
f 371 364 372
f 374 373 380
f 366 375 367
f 381 363 364
f 381 377 376
f 381 376 363
f 382 371 370
f 382 364 371
f 382 381 364
f 383 369 368
f 384 380 379
f 384 374 380
f 384 383 368
f 385 368 367
f 385 375 374
f 385 374 384
f 385 384 368
f 385 367 375
f 386 378 377
f 386 379 378
f 386 383 384
f 386 384 379
f 387 370 369
f 387 369 383
f 387 381 382
f 387 382 370
f 388 383 386
f 388 377 381
f 388 387 383
f 388 381 387
f 388 386 377
f 403 396 395
f 403 404 396
f 402 395 394
f 402 403 395
f 401 394 393
f 401 402 394
f 400 393 392
f 400 401 393
f 399 392 391
f 399 400 392
f 398 391 390
f 398 399 391
f 397 390 389
f 397 398 390
f 423 409 410
f 423 410 411
f 423 411 412
f 423 412 413
f 424 423 413
f 425 413 414
f 425 424 413
f 426 421 420
f 426 422 421
f 426 414 422
f 426 425 414
f 427 406 407
f 427 407 408
f 427 408 409
f 428 409 423
f 428 423 424
f 428 427 409
f 429 405 406
f 429 428 424
f 429 427 428
f 429 406 427
f 430 419 418
f 430 420 419
f 431 426 420
f 431 425 426
f 431 424 425
f 431 429 424
f 431 432 429
f 431 420 430
f 431 430 432
f 433 416 415
f 433 417 416
f 433 418 417
f 433 415 405
f 433 430 418
f 433 405 429
f 433 429 432
f 433 432 430
f 452 453 461
f 440 454 441
f 462 450 451
f 462 451 452
f 462 461 460
f 462 452 461
f 463 458 457
f 463 459 458
f 463 460 459
f 463 462 460
f 464 463 457
f 465 449 450
f 465 462 463
f 465 450 462
f 465 463 464
f 466 465 464
f 467 465 466
f 468 448 449
f 469 465 467
f 470 449 465
f 470 468 449
f 471 470 465
f 471 465 469
f 472 438 437
f 472 469 467
f 472 467 466
f 473 443 442
f 473 442 448
f 473 448 468
f 473 468 470
f 474 437 436
f 474 471 469
f 474 472 437
f 474 469 472
f 475 473 470
f 476 470 471
f 476 471 474
f 476 475 470
f 477 444 443
f 477 445 444
f 477 443 473
f 477 476 445
f 477 473 475
f 477 475 476
f 478 446 445
f 478 447 446
f 478 445 476
f 478 476 474
f 479 435 434
f 479 447 478
f 479 478 474
f 479 436 435
f 479 434 447
f 479 474 436
f 480 439 438
f 480 440 439
f 480 455 454
f 480 456 455
f 480 457 456
f 480 438 472
f 480 454 440
f 480 466 464
f 480 472 466
f 480 464 457
f 482 489 481
f 487 488 489
f 484 487 485
f 490 482 483
f 490 486 485
f 490 483 486
f 490 489 482
f 490 487 489
f 490 485 487
f 511 491 492
f 511 510 491
f 512 492 493
f 512 511 492
f 513 511 512
f 514 511 513
f 514 510 511
f 515 503 502
f 515 504 503
f 515 505 504
f 515 502 510
f 515 510 514
f 516 496 497
f 516 497 498
f 516 498 499
f 516 499 501
f 517 516 501
f 518 501 500
f 518 508 507
f 518 509 508
f 518 500 509
f 518 517 501
f 519 493 494
f 519 494 495
f 519 495 496
f 519 496 516
f 519 512 493
f 520 513 512
f 520 512 519
f 520 514 513
f 521 519 516
f 521 516 517
f 521 520 519
f 522 514 520
f 522 521 517
f 522 520 521
f 523 506 505
f 523 507 506
f 523 515 514
f 523 518 507
f 523 505 515
f 523 514 522
f 523 517 518
f 523 522 517
f 527 535 528
f 543 526 525
f 543 542 526
f 544 540 541
f 544 541 542
f 544 542 543
f 545 544 543
f 546 545 543
f 546 543 525
f 547 525 524
f 547 532 531
f 547 533 532
f 547 524 533
f 547 546 525
f 548 535 534
f 548 534 536
f 548 536 537
f 548 537 538
f 549 529 528
f 549 535 548
f 549 528 535
f 550 538 539
f 550 539 540
f 550 540 544
f 550 548 538
f 551 544 545
f 551 545 546
f 551 550 544
f 552 548 550
f 552 549 548
f 552 550 551
f 553 552 551
f 553 551 546
f 553 549 552
f 554 530 529
f 554 531 530
f 554 529 549
f 554 547 531
f 554 546 547
f 554 549 553
f 554 553 546
f 574 555 556
f 574 572 573
f 574 573 555
f 575 570 571
f 575 571 572
f 575 572 574
f 576 575 574
f 577 574 556
f 577 576 574
f 578 569 570
f 578 570 575
f 578 576 577
f 578 575 576
f 579 556 557
f 579 557 565
f 579 577 556
f 580 577 579
f 581 578 577
f 582 578 581
f 583 567 566
f 583 566 568
f 583 568 569
f 583 569 578
f 584 563 562
f 584 564 563
f 584 565 564
f 584 580 579
f 584 579 565
f 585 578 582
f 586 562 561
f 586 582 581
f 586 585 582
f 587 567 583
f 587 583 578
f 587 578 585
f 587 585 586
f 588 559 558
f 588 560 559
f 588 561 560
f 588 558 567
f 588 567 587
f 588 586 561
f 588 587 586
f 589 577 580
f 589 581 577
f 589 584 562
f 589 586 581
f 589 562 586
f 589 580 584
f 596 594 593
f 597 593 592
f 597 596 593
f 598 592 591
f 598 597 592
f 599 591 590
f 599 598 591
f 595 599 590
f 604 601 602
f 603 607 604
f 609 600 601
f 609 608 600
f 609 601 604
f 610 606 605
f 610 607 606
f 610 605 608
f 610 608 609
f 610 609 604
f 610 604 607
f 630 612 613
f 630 613 614
f 631 611 612
f 631 629 611
f 631 612 630
f 632 629 631
f 633 614 615
f 633 631 630
f 633 630 614
f 633 632 631
f 634 622 621
f 634 621 629
f 634 629 632
f 635 632 633
f 636 615 616
f 636 616 617
f 636 633 615
f 637 623 622
f 637 624 623
f 637 622 634
f 637 635 624
f 637 632 635
f 637 634 632
f 638 625 624
f 638 624 635
f 638 635 633
f 639 617 618
f 639 618 620
f 639 636 617
f 639 633 636
f 640 625 638
f 640 638 633
f 641 639 620
f 641 633 639
f 641 640 633
f 642 626 625
f 642 627 626
f 642 625 640
f 642 640 641
f 643 620 619
f 643 628 627
f 643 619 628
f 643 627 642
f 643 641 620
f 643 642 641
f 655 654 661
f 652 650 651
f 662 644 645
f 662 661 644
f 663 645 646
f 663 646 647
f 663 647 648
f 663 662 645
f 664 656 655
f 664 657 656
f 664 662 663
f 664 655 661
f 664 661 662
f 665 649 650
f 665 650 652
f 666 659 658
f 666 660 659
f 667 665 652
f 667 666 665
f 667 660 666
f 668 652 653
f 668 653 660
f 668 660 667
f 668 667 652
f 669 648 649
f 669 658 657
f 669 666 658
f 669 663 648
f 669 649 665
f 669 665 666
f 669 657 664
f 669 664 663
f 671 691 670
f 677 675 676
f 678 673 674
f 678 674 675
f 678 675 677
f 679 671 672
f 679 672 673
f 679 673 678
f 689 690 691
f 689 691 671
f 680 671 679
f 680 689 671
f 688 689 680
f 687 688 680
f 686 687 680
f 685 686 680
f 684 680 681
f 684 685 680
f 683 681 682
f 683 684 681
f 707 701 700
f 707 700 702
f 707 702 703
f 708 701 707
f 709 694 701
f 709 701 708
f 710 695 694
f 710 696 695
f 710 694 709
f 711 704 705
f 711 705 706
f 711 706 693
f 712 697 696
f 712 698 697
f 713 708 711
f 713 711 714
f 713 714 712
f 713 712 696
f 713 710 709
f 713 696 710
f 713 709 708
f 715 693 692
f 715 699 698
f 715 692 699
f 715 714 711
f 715 712 714
f 715 698 712
f 715 711 693
f 716 703 704
f 716 711 708
f 716 708 707
f 716 707 703
f 716 704 711
f 723 722 724
f 725 717 718
f 725 724 717
f 725 723 724
f 726 718 719
f 726 719 721
f 726 723 725
f 726 725 718
f 727 721 720
f 727 720 723
f 727 726 721
f 727 723 726
f 736 728 729
f 736 739 728
f 735 740 739
f 735 739 736
f 734 741 740
f 734 740 735
f 733 742 741
f 733 741 734
f 732 743 742
f 732 742 733
f 738 745 744
f 738 737 745
f 731 744 743
f 731 738 744
f 731 743 732
f 730 738 731
f 746 755 754
f 747 746 754
f 778 753 752
f 778 754 753
f 778 747 754
f 751 778 752
f 750 778 751
f 749 778 750
f 748 778 749
f 772 771 770
f 773 772 770
f 774 773 770
f 775 774 770
f 776 775 770
f 777 776 770
f 769 777 770
f 767 756 757
f 767 768 756
f 766 757 758
f 766 767 757
f 765 758 759
f 765 766 758
f 763 759 760
f 763 760 761
f 763 765 759
f 764 765 763
f 762 764 763
f 779 748 756
f 779 768 769
f 779 770 778
f 779 778 748
f 779 756 768
f 779 769 770
f 784 781 782
f 788 780 781
f 788 787 780
f 788 781 784
f 789 786 785
f 789 785 787
f 789 788 784
f 789 787 788
f 790 784 783
f 790 783 786
f 790 789 784
f 790 786 789
f 801 798 797
f 802 797 796
f 802 801 797
f 803 796 795
f 803 802 796
f 804 795 794
f 804 803 795
f 805 794 793
f 805 804 794
f 806 793 792
f 806 805 793
f 800 792 791
f 800 806 792
f 807 806 800
f 799 807 800
f 817 809 808
f 826 810 809
f 826 825 824
f 826 809 817
f 827 817 818
f 827 818 825
f 827 825 826
f 827 826 817
f 828 823 822
f 828 824 823
f 828 826 824
f 829 811 810
f 829 812 811
f 829 810 826
f 829 826 828
f 830 813 812
f 830 814 813
f 830 815 814
f 830 812 829
f 831 821 820
f 831 822 821
f 831 828 822
f 831 830 829
f 831 829 828
f 832 816 815
f 832 820 819
f 832 819 816
f 832 815 830
f 832 831 820
f 832 830 831
f 840 838 839
f 834 835 840
f 837 839 836
f 837 840 839
f 837 834 840
f 833 834 837
f 849 842 841
f 851 850 852
f 858 843 842
f 858 855 856
f 858 856 857
f 858 857 843
f 859 851 852
f 860 845 844
f 860 844 851
f 860 851 859
f 860 861 845
f 860 859 861
f 862 853 854
f 862 854 855
f 862 855 858
f 863 858 842
f 863 862 858
f 864 852 853
f 864 859 852
f 864 853 862
f 864 862 863
f 865 863 842
f 866 859 864
f 866 864 863
f 866 863 865
f 867 848 847
f 867 849 848
f 867 842 849
f 867 865 842
f 868 846 845
f 868 847 846
f 868 845 861
f 868 867 847
f 869 859 866
f 869 861 859
f 869 866 865
f 869 865 867
f 869 868 861
f 869 867 868
f 871 876 870
f 879 871 872
f 879 872 874
f 880 874 873
f 880 873 875
f 880 877 876
f 880 878 877
f 880 875 878
f 880 879 874
f 880 876 871
f 880 871 879
f 887 888 889
f 887 889 890
f 887 890 898
f 886 898 897
f 886 887 898
f 885 897 896
f 885 886 897
f 884 885 896
f 900 892 891
f 900 893 892
f 883 896 895
f 883 884 896
f 899 894 893
f 899 893 900
f 882 895 894
f 882 894 899
f 882 883 895
f 881 882 899
f 917 906 905
f 917 905 915
f 917 915 916
f 918 907 906
f 918 908 907
f 918 906 917
f 919 909 908
f 919 908 918
f 902 914 913
f 902 901 914
f 920 910 909
f 920 909 919
f 921 911 910
f 921 910 920
f 903 912 911
f 903 913 912
f 903 902 913
f 903 911 921
f 922 903 921
f 923 903 922
f 904 903 923
f 931 925 926
f 929 926 927
f 930 931 926
f 930 926 929
f 928 930 929
f 934 924 925
f 934 933 924
f 935 931 932
f 935 932 933
f 935 933 934
f 935 934 925
f 935 925 931
f 944 939 938
f 944 940 939
f 945 937 936
f 945 938 937
f 945 936 941
f 945 943 942
f 945 941 943
f 945 942 944
f 945 944 938
f 954 947 946
f 954 957 947
f 953 958 957
f 953 957 954
f 952 959 958
f 952 958 953
f 951 959 952
f 956 955 962
f 963 962 961
f 963 956 962
f 964 949 948
f 964 948 956
f 964 956 963
f 965 950 949
f 965 951 950
f 965 960 959
f 965 961 960
f 965 949 964
f 965 964 963
f 965 959 951
f 965 963 961
f 969 968 972
f 973 969 972
f 970 969 973
f 974 970 973
f 975 971 970
f 975 970 974
f 966 967 971
f 966 971 975
f 985 981 982
f 980 981 985
f 979 985 984
f 979 980 985
f 978 984 983
f 978 979 984
f 976 983 977
f 976 978 983
f 986 987 988
f 989 986 988
f 993 990 991
f 993 991 992

