# https://github.com/mikedh/trimesh
v -0.00417967 -0.00145975 -0.00498953
v -0.00307509 -0.00071669 -0.00498953
v -0.00418083 -0.00146087 -0.00500000
v -0.00307505 -0.00071699 -0.00500000
v -0.00303680 -0.00092815 -0.00195000
v -0.00303680 -0.00092815 -0.00805000
v -0.00285197 -0.00143810 -0.00805000
v -0.00255047 -0.00188899 -0.00805000
v -0.00214982 -0.00225464 -0.00805000
v -0.00167331 -0.00251378 -0.00805000
v -0.00114863 -0.00265135 -0.00805000
v -0.00060628 -0.00265936 -0.00805000
v -0.00007776 -0.00253735 -0.00805000
v 0.00040619 -0.00229239 -0.00805000
v 0.00081746 -0.00193874 -0.00805000
v 0.00113215 -0.00149694 -0.00805000
v 0.00133196 -0.00099266 -0.00805000
v 0.00140529 -0.00045523 -0.00805000
v 0.00134786 0.00008413 -0.00805000
v 0.00134786 0.00008413 -0.00633970
v 0.00087696 -0.00187086 -0.00628749
v 0.00117907 -0.00140578 -0.00630044
v 0.00134927 -0.00092203 -0.00631351
v 0.00140514 -0.00046393 -0.00632559
v 0.00139304 -0.00018523 -0.00633282
v 0.00087696 -0.00187086 -0.00371251
v 0.00134786 0.00008413 -0.00366030
v 0.00140507 -0.00046750 -0.00367450
v 0.00133634 -0.00097569 -0.00368793
v 0.00117751 -0.00140898 -0.00369965
v 0.00103983 -0.00165161 -0.00370635
v 0.00134786 0.00008413 -0.00195000
v 0.00140529 -0.00045523 -0.00195000
v 0.00133196 -0.00099266 -0.00195000
v 0.00113215 -0.00149694 -0.00195000
v 0.00081746 -0.00193874 -0.00195000
v 0.00040619 -0.00229239 -0.00195000
v -0.00007776 -0.00253735 -0.00195000
v -0.00060628 -0.00265936 -0.00195000
v -0.00114863 -0.00265135 -0.00195000
v -0.00167331 -0.00251378 -0.00195000
v -0.00214982 -0.00225464 -0.00195000
v -0.00255047 -0.00188899 -0.00195000
v -0.00285197 -0.00143810 -0.00195000
v 0.00740836 -0.00144919 -0.00368344
v 0.00751313 -0.00144242 -0.00498953
v 0.00751313 -0.00144242 -0.00498953
v 0.00751313 -0.00144242 -0.00501047
v 0.00751313 -0.00144242 -0.00501047
v 0.00740836 -0.00144919 -0.00631656
v 0.00087696 -0.00187086 -0.00628749
v 0.00087696 -0.00187086 -0.00371251
v 0.00087696 -0.00187086 -0.00371251
v 0.00134786 0.00008413 -0.00366030
v 0.00140507 -0.00046750 -0.00367450
v 0.00133634 -0.00097569 -0.00368793
v 0.00117751 -0.00140898 -0.00369965
v 0.00103983 -0.00165161 -0.00370635
v 0.00087696 -0.00187086 -0.00371251
v 0.00740836 -0.00144919 -0.00368344
v 0.00746832 -0.00149430 -0.00368445
v 0.00713520 -0.00117754 -0.00367712
v 0.00688257 -0.00079184 -0.00366778
v 0.00674233 -0.00042569 -0.00365864
v 0.00667601 -0.00003713 -0.00364870
v 0.00654691 0.00180614 -0.00360106
v 0.00095577 0.00092768 -0.00363942
v 0.00112496 0.00066605 -0.00364576
v 0.00125692 0.00038214 -0.00365279
v 0.00740836 -0.00144919 -0.00631656
v 0.00740836 -0.00144919 -0.00631656
v 0.00087696 -0.00187086 -0.00628749
v 0.00117907 -0.00140578 -0.00630044
v 0.00134927 -0.00092203 -0.00631351
v 0.00140514 -0.00046393 -0.00632559
v 0.00139304 -0.00018523 -0.00633282
v 0.00134786 0.00008413 -0.00633970
v 0.00125692 0.00038214 -0.00634721
v 0.00112496 0.00066605 -0.00635424
v 0.00095577 0.00092768 -0.00636058
v 0.00654691 0.00180614 -0.00639894
v 0.00667601 -0.00003713 -0.00635130
v 0.00676069 -0.00048885 -0.00633977
v 0.00694711 -0.00091052 -0.00632931
v 0.00717824 -0.00122729 -0.00632170
v 0.00717824 -0.00122729 -0.00632170
v 0.00746832 -0.00149430 -0.00631555
v 0.00095577 0.00092768 -0.00363942
v 0.00112496 0.00066605 -0.00364576
v 0.00125692 0.00038214 -0.00365279
v 0.00134786 0.00008413 -0.00366030
v 0.00095577 0.00092768 -0.00345000
v -0.00297186 0.00031059 -0.00345000
v -0.00273585 0.00079667 -0.00345000
v -0.00239076 0.00121247 -0.00345000
v -0.00195648 0.00153400 -0.00345000
v -0.00145808 0.00174271 -0.00345000
v -0.00092427 0.00182658 -0.00345000
v -0.00038587 0.00178076 -0.00345000
v 0.00012609 0.00160791 -0.00345000
v 0.00058206 0.00131797 -0.00345000
v -0.00297186 0.00031059 -0.00368744
v -0.00303859 0.00007629 -0.00374052
v -0.00307813 -0.00015197 -0.00383153
v -0.00309365 -0.00036120 -0.00396877
v -0.00309249 -0.00051622 -0.00413230
v -0.00308585 -0.00061897 -0.00430727
v -0.00308070 -0.00067116 -0.00446011
v -0.00307782 -0.00069524 -0.00462082
v -0.00307509 -0.00071669 -0.00498953
v -0.00307505 -0.00071699 -0.00500000
v -0.00307509 -0.00071669 -0.00501047
v -0.00307782 -0.00069524 -0.00537918
v -0.00308185 -0.00066062 -0.00557917
v -0.00308598 -0.00061740 -0.00569625
v -0.00309033 -0.00055831 -0.00580638
v -0.00309400 -0.00046716 -0.00592803
v -0.00309309 -0.00034352 -0.00604570
v -0.00308362 -0.00020214 -0.00614135
v -0.00306336 -0.00004915 -0.00621540
v -0.00302579 0.00012945 -0.00627447
v -0.00297186 0.00031059 -0.00631256
v -0.00297186 0.00031059 -0.00655000
v -0.00273585 0.00079667 -0.00655000
v -0.00239076 0.00121247 -0.00655000
v -0.00195648 0.00153400 -0.00655000
v -0.00145808 0.00174271 -0.00655000
v -0.00092427 0.00182658 -0.00655000
v -0.00038587 0.00178076 -0.00655000
v 0.00012609 0.00160791 -0.00655000
v 0.00058206 0.00131797 -0.00655000
v 0.00095577 0.00092768 -0.00655000
v 0.00095577 0.00092768 -0.00636058
v 0.00134786 0.00008413 -0.00633970
v 0.00125692 0.00038214 -0.00634721
v 0.00112496 0.00066605 -0.00635424
v 0.00134786 0.00008413 -0.00805000
v 0.00116303 0.00059409 -0.00805000
v 0.00086153 0.00104499 -0.00805000
v 0.00046088 0.00141064 -0.00805000
v -0.00001563 0.00166977 -0.00805000
v -0.00054031 0.00180734 -0.00805000
v -0.00108266 0.00181535 -0.00805000
v -0.00161118 0.00169333 -0.00805000
v -0.00209513 0.00144838 -0.00805000
v -0.00250640 0.00109473 -0.00805000
v -0.00282109 0.00065293 -0.00805000
v -0.00302090 0.00014866 -0.00805000
v -0.00309423 -0.00038878 -0.00805000
v -0.00303680 -0.00092815 -0.00805000
v -0.00303680 -0.00092815 -0.00195000
v -0.00309423 -0.00038878 -0.00195000
v -0.00302090 0.00014866 -0.00195000
v -0.00282109 0.00065293 -0.00195000
v -0.00250640 0.00109473 -0.00195000
v -0.00209513 0.00144838 -0.00195000
v -0.00161118 0.00169333 -0.00195000
v -0.00108266 0.00181535 -0.00195000
v -0.00054031 0.00180734 -0.00195000
v -0.00001563 0.00166977 -0.00195000
v 0.00046088 0.00141064 -0.00195000
v 0.00086153 0.00104499 -0.00195000
v 0.00116303 0.00059409 -0.00195000
v 0.00134786 0.00008413 -0.00195000
v -0.00395711 -0.00010777 -0.00632002
v -0.00392306 0.00016113 -0.00632711
v -0.00344722 0.00023590 -0.00633038
v -0.00408819 -0.00194127 -0.00795524
v -0.00408456 -0.00012332 -0.00795524
v -0.00370515 0.00165461 -0.00795524
v -0.00296632 0.00331566 -0.00795524
v -0.00190004 0.00478808 -0.00795524
v -0.00055236 0.00600821 -0.00795524
v 0.00101847 0.00692334 -0.00795524
v -0.00410070 -0.00194255 -0.00771519
v -0.00411173 -0.00184770 -0.00768050
v -0.00415901 -0.00163981 -0.00709511
v -0.00414201 -0.00166731 -0.00738253
v -0.00413174 -0.00170774 -0.00752199
v -0.00412354 -0.00175516 -0.00760746
v -0.00411786 -0.00179622 -0.00765082
v -0.00411484 -0.00182061 -0.00766776
v -0.00424853 -0.00159684 -0.00544325
v -0.00415621 -0.00009127 -0.00653041
v -0.00419913 -0.00057160 -0.00646055
v -0.00421910 -0.00093853 -0.00631328
v -0.00422827 -0.00120865 -0.00612419
v -0.00423411 -0.00140718 -0.00590266
v -0.00423990 -0.00152805 -0.00568401
v -0.00412906 0.00012877 -0.00653609
v -0.00412831 0.00012889 -0.00655000
v 0.00136540 0.00715003 -0.00655000
v -0.00028700 0.00628363 -0.00655000
v -0.00172015 0.00508899 -0.00655000
v -0.00286989 0.00361958 -0.00655000
v -0.00368477 0.00194117 -0.00655000
v 0.00146625 0.00711851 -0.00781012
v 0.00117513 0.00699293 -0.00794074
v 0.00132732 0.00705884 -0.00789484
v 0.00139954 0.00708980 -0.00785803
v 0.00649515 -0.00008801 -0.00805000
v 0.00637967 0.00159338 -0.00805000
v 0.00667971 -0.00081549 -0.00805000
v 0.00656502 -0.00050046 -0.00805000
v 0.00651988 -0.00029683 -0.00805000
v 0.00404953 -0.00081647 -0.00805000
v 0.00481442 -0.00047897 -0.00805000
v 0.00522595 -0.00039535 -0.00805000
v 0.00563875 -0.00040048 -0.00805000
v 0.00609550 -0.00051749 -0.00805000
v 0.00639434 -0.00065217 -0.00805000
v 0.00251842 -0.00233728 -0.00805000
v 0.00293387 -0.00174039 -0.00805000
v 0.00344985 -0.00122789 -0.00805000
v -0.00331853 -0.00339797 -0.00805000
v -0.00261520 -0.00386320 -0.00805000
v -0.00182780 -0.00416504 -0.00805000
v -0.00099371 -0.00428918 -0.00805000
v -0.00015254 -0.00422970 -0.00805000
v 0.00065578 -0.00398943 -0.00805000
v 0.00139287 -0.00357979 -0.00805000
v 0.00202373 -0.00302022 -0.00805000
v -0.00340722 -0.00333373 -0.00805000
v -0.00393505 -0.00335163 -0.00805000
v -0.00386508 -0.00330314 -0.00805000
v -0.00378631 -0.00327166 -0.00805000
v -0.00370290 -0.00325698 -0.00805000
v -0.00361873 -0.00325871 -0.00805000
v -0.00353613 -0.00327553 -0.00805000
v -0.00346988 -0.00330018 -0.00805000
v -0.00392807 -0.00301286 -0.00805000
v -0.00391778 -0.00262447 -0.00805000
v -0.00398884 -0.00193109 -0.00805000
v 0.00105950 0.00683230 -0.00805000
v -0.00049339 0.00592762 -0.00805000
v -0.00182569 0.00472141 -0.00805000
v -0.00287980 0.00326582 -0.00805000
v -0.00361017 0.00162373 -0.00805000
v -0.00398526 -0.00013389 -0.00805000
v 0.00580635 0.00304450 -0.00805000
v 0.00494519 0.00434558 -0.00805000
v 0.00383345 0.00544033 -0.00805000
v 0.00251927 0.00628138 -0.00805000
v -0.00303680 -0.00092815 -0.00805000
v -0.00285197 -0.00143810 -0.00805000
v -0.00255047 -0.00188899 -0.00805000
v -0.00214982 -0.00225464 -0.00805000
v -0.00167331 -0.00251378 -0.00805000
v -0.00114863 -0.00265135 -0.00805000
v -0.00060628 -0.00265936 -0.00805000
v -0.00007776 -0.00253735 -0.00805000
v 0.00040619 -0.00229239 -0.00805000
v 0.00081746 -0.00193874 -0.00805000
v 0.00113215 -0.00149694 -0.00805000
v 0.00133196 -0.00099266 -0.00805000
v 0.00140529 -0.00045523 -0.00805000
v 0.00134786 0.00008413 -0.00805000
v 0.00116303 0.00059409 -0.00805000
v 0.00086153 0.00104499 -0.00805000
v 0.00046088 0.00141064 -0.00805000
v -0.00001563 0.00166977 -0.00805000
v -0.00054031 0.00180734 -0.00805000
v -0.00108266 0.00181535 -0.00805000
v -0.00161118 0.00169333 -0.00805000
v -0.00209513 0.00144838 -0.00805000
v -0.00250640 0.00109473 -0.00805000
v -0.00282109 0.00065293 -0.00805000
v -0.00302090 0.00014866 -0.00805000
v -0.00309423 -0.00038878 -0.00805000
v 0.00653906 0.00180491 -0.00655000
v 0.00647562 0.00272845 -0.00655000
v 0.00647562 0.00272845 -0.00655000
v 0.00654691 0.00180614 -0.00639894
v 0.00667601 -0.00003713 -0.00635130
v 0.00665634 -0.00004779 -0.00673966
v 0.00659478 -0.00008118 -0.00795524
v 0.00647930 0.00160023 -0.00795524
v 0.00640475 0.00287915 -0.00770213
v 0.00640475 0.00287915 -0.00770213
v 0.00640674 0.00280522 -0.00776095
v 0.00641148 0.00269301 -0.00781736
v 0.00641148 0.00269301 -0.00781736
v 0.00641148 0.00269301 -0.00781736
v 0.00642403 0.00245658 -0.00788766
v 0.00644248 0.00215353 -0.00793274
v -0.00410070 -0.00194255 -0.00771519
v -0.00404354 -0.00242241 -0.00786674
v -0.00404354 -0.00242241 -0.00786674
v -0.00408819 -0.00194127 -0.00795524
v -0.00408819 -0.00194127 -0.00795524
v -0.00400555 -0.00274759 -0.00795524
v -0.00417967 -0.00145975 -0.00501047
v -0.00416357 -0.00142703 -0.00535712
v -0.00307782 -0.00069524 -0.00537918
v -0.00307509 -0.00071669 -0.00501047
v 0.00136540 0.00715003 -0.00345000
v 0.00146625 0.00711851 -0.00218988
v -0.00028700 0.00628363 -0.00345000
v -0.00172015 0.00508899 -0.00345000
v -0.00286989 0.00361958 -0.00345000
v -0.00368477 0.00194117 -0.00345000
v -0.00412831 0.00012889 -0.00345000
v -0.00412906 0.00012877 -0.00346392
v -0.00415621 -0.00009127 -0.00346959
v -0.00424853 -0.00159684 -0.00455675
v -0.00424009 -0.00153026 -0.00432195
v -0.00423435 -0.00141417 -0.00410741
v -0.00422963 -0.00125688 -0.00392088
v -0.00422394 -0.00106752 -0.00376574
v -0.00421544 -0.00085551 -0.00364438
v -0.00420287 -0.00062771 -0.00355588
v -0.00418291 -0.00036249 -0.00349428
v -0.00415901 -0.00163981 -0.00290490
v -0.00411173 -0.00184770 -0.00231950
v -0.00411584 -0.00181235 -0.00233734
v -0.00411976 -0.00178170 -0.00236211
v -0.00412349 -0.00175551 -0.00239207
v -0.00412810 -0.00172707 -0.00243705
v -0.00413430 -0.00169570 -0.00250969
v -0.00414761 -0.00165322 -0.00270523
v -0.00410070 -0.00194255 -0.00228481
v -0.00408819 -0.00194127 -0.00204477
v 0.00101847 0.00692334 -0.00204477
v -0.00055236 0.00600821 -0.00204477
v -0.00190004 0.00478808 -0.00204477
v -0.00296632 0.00331566 -0.00204477
v -0.00370515 0.00165461 -0.00204477
v -0.00408456 -0.00012332 -0.00204477
v 0.00135554 0.00707094 -0.00211801
v 0.00123393 0.00701857 -0.00207287
v 0.00112711 0.00697180 -0.00205160
v -0.00398884 -0.00193109 -0.00195000
v -0.00398526 -0.00013389 -0.00195000
v -0.00361017 0.00162373 -0.00195000
v -0.00287980 0.00326582 -0.00195000
v -0.00182569 0.00472141 -0.00195000
v -0.00049339 0.00592762 -0.00195000
v 0.00105950 0.00683230 -0.00195000
v -0.00391778 -0.00262447 -0.00195000
v -0.00392807 -0.00301286 -0.00195000
v -0.00393505 -0.00335163 -0.00195000
v -0.00340722 -0.00333373 -0.00195000
v -0.00351927 -0.00328083 -0.00195000
v -0.00362741 -0.00325781 -0.00195000
v -0.00372099 -0.00325872 -0.00195000
v -0.00380740 -0.00327822 -0.00195000
v -0.00387476 -0.00330847 -0.00195000
v -0.00331853 -0.00339797 -0.00195000
v 0.00251842 -0.00233728 -0.00195000
v 0.00202373 -0.00302022 -0.00195000
v 0.00139287 -0.00357979 -0.00195000
v 0.00065578 -0.00398943 -0.00195000
v -0.00015254 -0.00422969 -0.00195000
v -0.00099371 -0.00428918 -0.00195000
v -0.00182780 -0.00416504 -0.00195000
v -0.00261520 -0.00386320 -0.00195000
v 0.00404953 -0.00081647 -0.00195000
v 0.00344985 -0.00122789 -0.00195000
v 0.00293387 -0.00174039 -0.00195000
v 0.00667971 -0.00081549 -0.00195000
v 0.00599958 -0.00048347 -0.00195000
v 0.00563142 -0.00039956 -0.00195000
v 0.00521867 -0.00039611 -0.00195000
v 0.00480235 -0.00048260 -0.00195000
v 0.00441749 -0.00062912 -0.00195000
v 0.00649515 -0.00008801 -0.00195000
v 0.00654451 -0.00041963 -0.00195000
v 0.00660190 -0.00062015 -0.00195000
v 0.00637967 0.00159338 -0.00195000
v 0.00251927 0.00628138 -0.00195000
v 0.00383345 0.00544033 -0.00195000
v 0.00494519 0.00434558 -0.00195000
v 0.00580635 0.00304450 -0.00195000
v -0.00303680 -0.00092815 -0.00195000
v -0.00309423 -0.00038878 -0.00195000
v -0.00302090 0.00014866 -0.00195000
v -0.00282109 0.00065293 -0.00195000
v -0.00250640 0.00109473 -0.00195000
v -0.00209513 0.00144838 -0.00195000
v -0.00161118 0.00169333 -0.00195000
v -0.00108266 0.00181535 -0.00195000
v -0.00054031 0.00180734 -0.00195000
v -0.00001563 0.00166977 -0.00195000
v 0.00046088 0.00141064 -0.00195000
v 0.00086153 0.00104499 -0.00195000
v 0.00116303 0.00059409 -0.00195000
v 0.00134786 0.00008413 -0.00195000
v 0.00140529 -0.00045523 -0.00195000
v 0.00133196 -0.00099266 -0.00195000
v 0.00113215 -0.00149694 -0.00195000
v 0.00081746 -0.00193874 -0.00195000
v 0.00040619 -0.00229239 -0.00195000
v -0.00007776 -0.00253735 -0.00195000
v -0.00060628 -0.00265936 -0.00195000
v -0.00114863 -0.00265135 -0.00195000
v -0.00167331 -0.00251378 -0.00195000
v -0.00214982 -0.00225464 -0.00195000
v -0.00255047 -0.00188899 -0.00195000
v -0.00285197 -0.00143810 -0.00195000
v 0.00647930 0.00160023 -0.00204477
v 0.00643847 0.00221707 -0.00207410
v 0.00641335 0.00265434 -0.00216772
v 0.00641335 0.00265434 -0.00216772
v 0.00641335 0.00265434 -0.00216772
v 0.00640797 0.00277316 -0.00222043
v 0.00640797 0.00277316 -0.00222043
v 0.00640595 0.00282903 -0.00225514
v 0.00640476 0.00287915 -0.00229787
v 0.00640476 0.00287915 -0.00229787
v 0.00640476 0.00287915 -0.00229787
v 0.00659478 -0.00008118 -0.00204477
v 0.00665634 -0.00004779 -0.00326034
v 0.00667601 -0.00003713 -0.00364870
v 0.00654691 0.00180614 -0.00360106
v 0.00653906 0.00180491 -0.00345000
v 0.00647562 0.00272845 -0.00345000
v 0.00647562 0.00272845 -0.00345000
v -0.00408819 -0.00194127 -0.00204477
v -0.00408819 -0.00194127 -0.00204477
v -0.00400555 -0.00274759 -0.00204477
v -0.00410070 -0.00194255 -0.00228481
v -0.00404354 -0.00242241 -0.00213326
v -0.00404354 -0.00242241 -0.00213326
v -0.00416357 -0.00142703 -0.00464289
v -0.00417967 -0.00145975 -0.00498953
v -0.00307509 -0.00071669 -0.00498953
v -0.00307782 -0.00069524 -0.00462082
v 0.00677052 -0.00077402 -0.00795574
v 0.00688674 -0.00099495 -0.00798454
v 0.00702377 -0.00119575 -0.00805111
v 0.00718792 -0.00138370 -0.00814110
v 0.00737164 -0.00154771 -0.00823953
v 0.00744707 -0.00150612 -0.00673966
v 0.00665634 -0.00004779 -0.00673966
v 0.00673132 -0.00046791 -0.00673192
v 0.00689364 -0.00086266 -0.00672930
v 0.00713590 -0.00121407 -0.00673192
v 0.00659478 -0.00008118 -0.00795524
v 0.00664195 -0.00039682 -0.00795555
v 0.00669669 -0.00058834 -0.00795567
v 0.00665634 -0.00004779 -0.00673966
v 0.00667601 -0.00003713 -0.00635130
v 0.00673132 -0.00046791 -0.00673192
v 0.00689364 -0.00086266 -0.00672930
v 0.00713590 -0.00121407 -0.00673192
v 0.00744707 -0.00150612 -0.00673966
v 0.00746832 -0.00149430 -0.00631555
v 0.00676069 -0.00048885 -0.00633977
v 0.00694711 -0.00091052 -0.00632931
v 0.00717824 -0.00122729 -0.00632170
v 0.00737164 -0.00154771 -0.00176047
v 0.00713720 -0.00133045 -0.00188691
v 0.00693539 -0.00107205 -0.00199389
v 0.00684799 -0.00092780 -0.00202984
v 0.00677052 -0.00077402 -0.00204426
v 0.00666154 -0.00047405 -0.00204440
v 0.00661838 -0.00027959 -0.00204456
v 0.00659478 -0.00008118 -0.00204477
v 0.00665634 -0.00004779 -0.00326034
v 0.00744707 -0.00150612 -0.00326034
v 0.00713590 -0.00121407 -0.00326808
v 0.00689364 -0.00086266 -0.00327070
v 0.00673132 -0.00046791 -0.00326808
v 0.00744707 -0.00150612 -0.00326034
v 0.00746832 -0.00149430 -0.00368445
v 0.00713590 -0.00121407 -0.00326808
v 0.00689364 -0.00086266 -0.00327070
v 0.00673132 -0.00046791 -0.00326808
v 0.00665634 -0.00004779 -0.00326034
v 0.00667601 -0.00003713 -0.00364870
v 0.00713520 -0.00117754 -0.00367712
v 0.00688257 -0.00079184 -0.00366778
v 0.00674233 -0.00042569 -0.00365864
v -0.00418083 -0.00146087 -0.00500000
v -0.00417967 -0.00145975 -0.00501047
v -0.00307509 -0.00071669 -0.00501047
v -0.00307505 -0.00071699 -0.00500000
v 0.00653906 0.00180491 -0.00345000
v 0.00647562 0.00272845 -0.00345000
v 0.00095577 0.00092768 -0.00345000
v -0.00297186 0.00031059 -0.00345000
v -0.00273585 0.00079667 -0.00345000
v -0.00239076 0.00121247 -0.00345000
v -0.00195648 0.00153400 -0.00345000
v -0.00145808 0.00174271 -0.00345000
v -0.00092427 0.00182658 -0.00345000
v -0.00038587 0.00178076 -0.00345000
v 0.00012609 0.00160791 -0.00345000
v 0.00058206 0.00131797 -0.00345000
v -0.00412831 0.00012889 -0.00345000
v 0.00136540 0.00715003 -0.00345000
v -0.00028700 0.00628363 -0.00345000
v -0.00172015 0.00508899 -0.00345000
v -0.00286989 0.00361958 -0.00345000
v -0.00368477 0.00194117 -0.00345000
v 0.00171091 0.00715889 -0.00345000
v 0.00159584 0.00718319 -0.00345000
v 0.00147906 0.00718020 -0.00345000
v 0.00319487 0.00648333 -0.00345000
v 0.00451104 0.00552093 -0.00345000
v 0.00560475 0.00431166 -0.00345000
v 0.00643056 0.00290576 -0.00345000
v 0.00646357 0.00280928 -0.00345000
v 0.00644956 0.00285815 -0.00345000
v -0.00412906 0.00012877 -0.00346392
v -0.00412906 0.00012877 -0.00346392
v -0.00412906 0.00012877 -0.00346392
v -0.00412615 0.00012923 -0.00350856
v -0.00411323 0.00013125 -0.00355112
v -0.00411323 0.00013125 -0.00355112
v -0.00411323 0.00013125 -0.00355112
v -0.00409135 0.00013469 -0.00358964
v -0.00406151 0.00013939 -0.00362216
v -0.00406151 0.00013939 -0.00362216
v -0.00406151 0.00013939 -0.00362216
v -0.00402533 0.00014507 -0.00364720
v -0.00402533 0.00014507 -0.00364720
v -0.00398461 0.00015147 -0.00366409
v -0.00395421 0.00015625 -0.00367076
v -0.00392306 0.00016113 -0.00367289
v -0.00344722 0.00023590 -0.00366963
v -0.00297186 0.00031059 -0.00368744
v -0.00297186 0.00031059 -0.00345000
v -0.00412831 0.00012889 -0.00345000
v 0.00095577 0.00092768 -0.00363942
v 0.00095577 0.00092768 -0.00345000
v 0.00654691 0.00180614 -0.00360106
v 0.00653906 0.00180491 -0.00345000
v 0.00095577 0.00092768 -0.00655000
v 0.00095577 0.00092768 -0.00636058
v 0.00653906 0.00180491 -0.00655000
v 0.00654691 0.00180614 -0.00639894
v -0.00392306 0.00016113 -0.00632711
v -0.00392306 0.00016113 -0.00632711
v -0.00397192 0.00015346 -0.00633254
v -0.00397192 0.00015346 -0.00633254
v -0.00397192 0.00015346 -0.00633254
v -0.00401801 0.00014622 -0.00634898
v -0.00401801 0.00014622 -0.00634898
v -0.00405894 0.00013979 -0.00637564
v -0.00405894 0.00013979 -0.00637564
v -0.00405894 0.00013979 -0.00637564
v -0.00408934 0.00013501 -0.00640766
v -0.00411001 0.00013176 -0.00644178
v -0.00411001 0.00013176 -0.00644178
v -0.00412356 0.00012964 -0.00647946
v -0.00412841 0.00012887 -0.00650750
v -0.00412906 0.00012877 -0.00653609
v -0.00412906 0.00012877 -0.00653609
v -0.00412906 0.00012877 -0.00653609
v -0.00412906 0.00012877 -0.00653609
v -0.00412831 0.00012889 -0.00655000
v -0.00412831 0.00012889 -0.00655000
v -0.00412831 0.00012889 -0.00655000
v -0.00297186 0.00031059 -0.00655000
v -0.00297186 0.00031059 -0.00631256
v -0.00344722 0.00023590 -0.00633038
v 0.00643056 0.00290576 -0.00655000
v 0.00645856 0.00282898 -0.00655000
v 0.00646959 0.00277935 -0.00655000
v 0.00647562 0.00272845 -0.00655000
v 0.00653906 0.00180491 -0.00655000
v 0.00095577 0.00092768 -0.00655000
v -0.00297186 0.00031059 -0.00655000
v -0.00273585 0.00079667 -0.00655000
v -0.00239076 0.00121247 -0.00655000
v -0.00195648 0.00153400 -0.00655000
v -0.00145808 0.00174271 -0.00655000
v -0.00092427 0.00182658 -0.00655000
v -0.00038587 0.00178076 -0.00655000
v 0.00012609 0.00160791 -0.00655000
v 0.00058206 0.00131797 -0.00655000
v -0.00412831 0.00012889 -0.00655000
v 0.00136540 0.00715003 -0.00655000
v -0.00028700 0.00628363 -0.00655000
v -0.00172015 0.00508899 -0.00655000
v -0.00286989 0.00361958 -0.00655000
v -0.00368477 0.00194117 -0.00655000
v 0.00147907 0.00718021 -0.00655000
v 0.00159584 0.00718319 -0.00655000
v 0.00171091 0.00715889 -0.00655000
v 0.00319487 0.00648333 -0.00655000
v 0.00451104 0.00552093 -0.00655000
v 0.00560475 0.00431166 -0.00655000
v -0.00416357 -0.00142703 -0.00535712
v -0.00415070 -0.00138395 -0.00554821
v -0.00413704 -0.00130030 -0.00572457
v -0.00412566 -0.00121301 -0.00584635
v -0.00410891 -0.00107499 -0.00598458
v -0.00408656 -0.00089546 -0.00611031
v -0.00405956 -0.00069830 -0.00620499
v -0.00401343 -0.00040716 -0.00628822
v -0.00395711 -0.00010777 -0.00632002
v -0.00344722 0.00023590 -0.00633038
v -0.00297186 0.00031059 -0.00631256
v -0.00307782 -0.00069524 -0.00537918
v -0.00308185 -0.00066062 -0.00557917
v -0.00308598 -0.00061740 -0.00569625
v -0.00309033 -0.00055831 -0.00580638
v -0.00309400 -0.00046716 -0.00592803
v -0.00309309 -0.00034352 -0.00604570
v -0.00308362 -0.00020214 -0.00614135
v -0.00306336 -0.00004915 -0.00621540
v -0.00302579 0.00012945 -0.00627447
v -0.00395711 -0.00010777 -0.00367999
v -0.00403424 -0.00053215 -0.00374049
v -0.00408154 -0.00085707 -0.00386824
v -0.00411157 -0.00109705 -0.00403462
v -0.00413315 -0.00127167 -0.00423113
v -0.00414837 -0.00137211 -0.00441996
v -0.00415606 -0.00140697 -0.00452920
v -0.00416357 -0.00142703 -0.00464289
v -0.00307782 -0.00069524 -0.00462082
v -0.00297186 0.00031059 -0.00368744
v -0.00303859 0.00007629 -0.00374052
v -0.00307813 -0.00015197 -0.00383153
v -0.00309365 -0.00036120 -0.00396877
v -0.00309249 -0.00051622 -0.00413230
v -0.00308585 -0.00061897 -0.00430727
v -0.00308070 -0.00067116 -0.00446011
v -0.00344722 0.00023590 -0.00366963
v -0.00412906 0.00012877 -0.00346392
v -0.00412615 0.00012923 -0.00350856
v -0.00411323 0.00013125 -0.00355112
v -0.00409135 0.00013469 -0.00358964
v -0.00406151 0.00013939 -0.00362216
v -0.00402533 0.00014507 -0.00364720
v -0.00398461 0.00015147 -0.00366409
v -0.00395421 0.00015625 -0.00367076
v -0.00392306 0.00016113 -0.00367289
v -0.00395711 -0.00010777 -0.00367999
v -0.00400281 -0.00010285 -0.00367463
v -0.00404609 -0.00009847 -0.00365886
v -0.00408464 -0.00009487 -0.00363352
v -0.00411638 -0.00009224 -0.00359997
v -0.00413964 -0.00009072 -0.00356000
v -0.00415316 -0.00009039 -0.00351575
v -0.00415621 -0.00009127 -0.00346959
v -0.00424853 -0.00159684 -0.00455675
v -0.00424009 -0.00153026 -0.00432195
v -0.00423435 -0.00141417 -0.00410741
v -0.00422963 -0.00125688 -0.00392088
v -0.00422394 -0.00106752 -0.00376574
v -0.00421544 -0.00085551 -0.00364438
v -0.00420287 -0.00062771 -0.00355588
v -0.00418291 -0.00036249 -0.00349428
v -0.00415621 -0.00009127 -0.00346959
v -0.00395711 -0.00010777 -0.00367999
v -0.00400281 -0.00010285 -0.00367463
v -0.00404609 -0.00009847 -0.00365886
v -0.00408464 -0.00009487 -0.00363352
v -0.00411638 -0.00009224 -0.00359997
v -0.00413964 -0.00009072 -0.00356000
v -0.00415316 -0.00009039 -0.00351575
v -0.00403424 -0.00053215 -0.00374049
v -0.00408154 -0.00085707 -0.00386824
v -0.00411157 -0.00109705 -0.00403462
v -0.00413315 -0.00127167 -0.00423113
v -0.00414837 -0.00137211 -0.00441996
v -0.00415606 -0.00140697 -0.00452920
v -0.00416357 -0.00142703 -0.00464289
v -0.00419484 -0.00145282 -0.00463899
v -0.00422019 -0.00148441 -0.00463483
v -0.00423858 -0.00152050 -0.00463056
v -0.00424923 -0.00155957 -0.00462637
v -0.00425171 -0.00160003 -0.00462243
v -0.00422697 -0.00149002 -0.00454127
v -0.00422201 -0.00146092 -0.00443450
v -0.00421940 -0.00143927 -0.00437624
v -0.00421480 -0.00138951 -0.00427204
v -0.00421059 -0.00133075 -0.00417776
v -0.00420639 -0.00126240 -0.00409025
v -0.00420070 -0.00116321 -0.00398890
v -0.00419571 -0.00107682 -0.00391742
v -0.00418760 -0.00094660 -0.00383098
v -0.00418073 -0.00084738 -0.00377840
v -0.00416711 -0.00067520 -0.00370834
v -0.00415734 -0.00056726 -0.00367593
v -0.00414493 -0.00044475 -0.00364852
v -0.00414644 -0.00021984 -0.00358144
v -0.00413415 -0.00021921 -0.00360133
v -0.00416357 -0.00142703 -0.00464289
v -0.00419484 -0.00145282 -0.00463899
v -0.00422019 -0.00148441 -0.00463483
v -0.00423858 -0.00152050 -0.00463056
v -0.00424923 -0.00155957 -0.00462637
v -0.00425171 -0.00160003 -0.00462243
v -0.00417967 -0.00145975 -0.00498953
v -0.00421411 -0.00148884 -0.00498520
v -0.00424108 -0.00152494 -0.00498055
v -0.00425917 -0.00156619 -0.00497582
v -0.00426747 -0.00161049 -0.00497126
v -0.00417967 -0.00145975 -0.00498953
v -0.00421411 -0.00148884 -0.00498520
v -0.00424108 -0.00152494 -0.00498055
v -0.00425917 -0.00156619 -0.00497582
v -0.00426747 -0.00161049 -0.00497126
v -0.00418083 -0.00146087 -0.00500000
v -0.00421496 -0.00148989 -0.00499730
v -0.00424174 -0.00152581 -0.00499474
v -0.00425984 -0.00156682 -0.00499245
v -0.00426833 -0.00161085 -0.00499053
v -0.00426823 -0.00161083 -0.00498834
v -0.00418083 -0.00146087 -0.00500000
v -0.00421496 -0.00148989 -0.00499730
v -0.00424174 -0.00152581 -0.00499474
v -0.00425984 -0.00156682 -0.00499245
v -0.00426833 -0.00161085 -0.00499053
v -0.00421496 -0.00148989 -0.00500270
v -0.00424174 -0.00152581 -0.00500526
v -0.00425984 -0.00156682 -0.00500756
v -0.00426833 -0.00161085 -0.00500947
v -0.00425498 -0.00155275 -0.00500000
v -0.00418083 -0.00146087 -0.00500000
v -0.00421496 -0.00148989 -0.00500270
v -0.00424174 -0.00152581 -0.00500526
v -0.00425984 -0.00156682 -0.00500756
v -0.00426833 -0.00161085 -0.00500947
v -0.00417967 -0.00145975 -0.00501047
v -0.00421411 -0.00148884 -0.00501481
v -0.00424108 -0.00152494 -0.00501946
v -0.00425917 -0.00156619 -0.00502418
v -0.00426747 -0.00161049 -0.00502874
v -0.00426823 -0.00161083 -0.00501166
v -0.00417967 -0.00145975 -0.00501047
v -0.00421411 -0.00148884 -0.00501481
v -0.00424108 -0.00152494 -0.00501946
v -0.00425917 -0.00156619 -0.00502418
v -0.00426747 -0.00161049 -0.00502874
v -0.00416357 -0.00142703 -0.00535712
v -0.00419484 -0.00145282 -0.00536101
v -0.00422019 -0.00148441 -0.00536518
v -0.00423858 -0.00152050 -0.00536944
v -0.00424923 -0.00155957 -0.00537363
v -0.00425171 -0.00160003 -0.00537757
v -0.00416357 -0.00142703 -0.00535712
v -0.00419484 -0.00145282 -0.00536101
v -0.00422019 -0.00148441 -0.00536518
v -0.00423858 -0.00152050 -0.00536944
v -0.00424923 -0.00155957 -0.00537363
v -0.00425171 -0.00160003 -0.00537757
v -0.00415070 -0.00138395 -0.00554821
v -0.00413704 -0.00130030 -0.00572457
v -0.00412566 -0.00121301 -0.00584635
v -0.00410891 -0.00107499 -0.00598458
v -0.00408656 -0.00089546 -0.00611031
v -0.00405956 -0.00069830 -0.00620499
v -0.00401343 -0.00040716 -0.00628822
v -0.00395711 -0.00010777 -0.00632002
v -0.00400281 -0.00010285 -0.00632537
v -0.00404609 -0.00009847 -0.00634114
v -0.00408464 -0.00009488 -0.00636648
v -0.00411638 -0.00009224 -0.00640003
v -0.00413964 -0.00009072 -0.00644000
v -0.00415316 -0.00009039 -0.00648425
v -0.00415621 -0.00009127 -0.00653041
v -0.00419913 -0.00057160 -0.00646055
v -0.00421910 -0.00093853 -0.00631328
v -0.00422827 -0.00120865 -0.00612419
v -0.00423411 -0.00140718 -0.00590266
v -0.00423990 -0.00152805 -0.00568401
v -0.00424853 -0.00159684 -0.00544325
v -0.00410484 -0.00025223 -0.00635914
v -0.00408654 -0.00025239 -0.00634496
v -0.00414779 -0.00047511 -0.00634540
v -0.00416286 -0.00063111 -0.00630576
v -0.00417719 -0.00080190 -0.00624259
v -0.00418483 -0.00090646 -0.00619152
v -0.00419324 -0.00103571 -0.00611235
v -0.00419871 -0.00112872 -0.00604133
v -0.00420312 -0.00120611 -0.00597041
v -0.00420841 -0.00129627 -0.00586876
v -0.00421145 -0.00134366 -0.00580339
v -0.00421573 -0.00140174 -0.00570533
v -0.00421996 -0.00144533 -0.00560951
v -0.00422490 -0.00148023 -0.00550161
v -0.00392306 0.00016113 -0.00632711
v -0.00397192 0.00015346 -0.00633254
v -0.00401801 0.00014622 -0.00634898
v -0.00405894 0.00013979 -0.00637564
v -0.00408934 0.00013501 -0.00640766
v -0.00411001 0.00013176 -0.00644178
v -0.00412356 0.00012964 -0.00647946
v -0.00412841 0.00012887 -0.00650750
v -0.00412906 0.00012877 -0.00653609
v -0.00415621 -0.00009127 -0.00653041
v -0.00395711 -0.00010777 -0.00632002
v -0.00400281 -0.00010285 -0.00632537
v -0.00404609 -0.00009847 -0.00634114
v -0.00408464 -0.00009488 -0.00636648
v -0.00411638 -0.00009224 -0.00640003
v -0.00413964 -0.00009072 -0.00644000
v -0.00415316 -0.00009039 -0.00648425
v -0.00400555 -0.00274759 -0.00795524
v -0.00408819 -0.00194127 -0.00795524
v -0.00408474 -0.00194092 -0.00797661
v -0.00407680 -0.00194010 -0.00799673
v -0.00406473 -0.00193887 -0.00801466
v -0.00404911 -0.00193726 -0.00802956
v -0.00403066 -0.00193537 -0.00804074
v -0.00401026 -0.00193329 -0.00804766
v -0.00398884 -0.00193109 -0.00805000
v -0.00391778 -0.00262447 -0.00805000
v -0.00395298 -0.00299405 -0.00801867
v -0.00398649 -0.00291168 -0.00797163
v -0.00397005 -0.00301968 -0.00798851
v -0.00396669 -0.00303500 -0.00799255
v -0.00395967 -0.00305056 -0.00800249
v -0.00395504 -0.00303402 -0.00801156
v 0.00105950 0.00683230 -0.00805000
v -0.00049339 0.00592762 -0.00805000
v -0.00182569 0.00472141 -0.00805000
v -0.00287980 0.00326582 -0.00805000
v -0.00361017 0.00162373 -0.00805000
v -0.00398526 -0.00013389 -0.00805000
v -0.00398884 -0.00193109 -0.00805000
v -0.00408819 -0.00194127 -0.00795524
v -0.00408474 -0.00194092 -0.00797661
v -0.00407680 -0.00194010 -0.00799673
v -0.00406473 -0.00193887 -0.00801466
v -0.00404911 -0.00193726 -0.00802956
v -0.00403066 -0.00193537 -0.00804074
v -0.00401026 -0.00193329 -0.00804766
v -0.00408456 -0.00012332 -0.00795524
v -0.00370515 0.00165461 -0.00795524
v -0.00296632 0.00331566 -0.00795524
v -0.00190004 0.00478808 -0.00795524
v -0.00055236 0.00600821 -0.00795524
v 0.00101847 0.00692334 -0.00795524
v 0.00105066 0.00685192 -0.00804766
v 0.00104223 0.00687062 -0.00804074
v 0.00103461 0.00688752 -0.00802956
v 0.00102816 0.00690184 -0.00801466
v 0.00102318 0.00691290 -0.00799673
v 0.00101990 0.00692018 -0.00797661
v -0.00408111 -0.00012368 -0.00797661
v -0.00407318 -0.00012453 -0.00799673
v -0.00406112 -0.00012581 -0.00801466
v -0.00404550 -0.00012748 -0.00802956
v -0.00402706 -0.00012944 -0.00804074
v -0.00400666 -0.00013162 -0.00804766
v -0.00370185 0.00165354 -0.00797661
v -0.00369426 0.00165107 -0.00799673
v -0.00368272 0.00164732 -0.00801466
v -0.00366779 0.00164246 -0.00802956
v -0.00365015 0.00163673 -0.00804074
v -0.00363064 0.00163038 -0.00804766
v -0.00296332 0.00331393 -0.00797661
v -0.00295640 0.00330995 -0.00799673
v -0.00294590 0.00330389 -0.00801466
v -0.00293229 0.00329606 -0.00802956
v -0.00291622 0.00328680 -0.00804074
v -0.00289845 0.00327656 -0.00804766
v -0.00189746 0.00478577 -0.00797661
v -0.00189151 0.00478043 -0.00799673
v -0.00188248 0.00477234 -0.00801466
v -0.00187079 0.00476186 -0.00802956
v -0.00185698 0.00474948 -0.00804074
v -0.00184170 0.00473578 -0.00804766
v -0.00055031 0.00600541 -0.00797661
v -0.00054559 0.00599897 -0.00799673
v -0.00053843 0.00598918 -0.00801466
v -0.00052916 0.00597651 -0.00802956
v -0.00051821 0.00596155 -0.00804074
v -0.00050610 0.00594499 -0.00804766
v 0.00647930 0.00160023 -0.00795524
v 0.00659478 -0.00008118 -0.00795524
v 0.00659133 -0.00008141 -0.00797661
v 0.00658335 -0.00008196 -0.00799673
v 0.00657126 -0.00008279 -0.00801466
v 0.00655559 -0.00008386 -0.00802956
v 0.00653709 -0.00008514 -0.00804074
v 0.00651663 -0.00008654 -0.00804766
v 0.00649515 -0.00008801 -0.00805000
v 0.00637967 0.00159338 -0.00805000
v 0.00647584 0.00159999 -0.00797661
v 0.00646787 0.00159945 -0.00799673
v 0.00645578 0.00159861 -0.00801466
v 0.00644010 0.00159754 -0.00802956
v 0.00642161 0.00159627 -0.00804074
v 0.00640114 0.00159486 -0.00804766
v 0.00659478 -0.00008118 -0.00795524
v 0.00659133 -0.00008141 -0.00797661
v 0.00658335 -0.00008196 -0.00799673
v 0.00657126 -0.00008279 -0.00801466
v 0.00655559 -0.00008386 -0.00802956
v 0.00653709 -0.00008514 -0.00804074
v 0.00651663 -0.00008654 -0.00804766
v 0.00649515 -0.00008801 -0.00805000
v 0.00664195 -0.00039682 -0.00795555
v 0.00669669 -0.00058834 -0.00795567
v 0.00677052 -0.00077402 -0.00795574
v 0.00676729 -0.00077550 -0.00797702
v 0.00675998 -0.00077884 -0.00799705
v 0.00674893 -0.00078388 -0.00801488
v 0.00673465 -0.00079040 -0.00802970
v 0.00671782 -0.00079808 -0.00804080
v 0.00669922 -0.00080658 -0.00804767
v 0.00667971 -0.00081549 -0.00805000
v 0.00656502 -0.00050046 -0.00805000
v 0.00651988 -0.00029683 -0.00805000
v 0.00657328 -0.00018487 -0.00802258
v 0.00656410 -0.00018597 -0.00803034
v 0.00655475 -0.00018708 -0.00803653
v 0.00659869 -0.00034481 -0.00802263
v 0.00662100 -0.00044317 -0.00802266
v 0.00664831 -0.00054056 -0.00802268
v 0.00671605 -0.00068785 -0.00800489
v 0.00670982 -0.00069032 -0.00801393
v 0.00670217 -0.00069336 -0.00802270
v 0.00677052 -0.00077402 -0.00795574
v 0.00676729 -0.00077550 -0.00797702
v 0.00675998 -0.00077884 -0.00799705
v 0.00674893 -0.00078388 -0.00801488
v 0.00673465 -0.00079040 -0.00802970
v 0.00671782 -0.00079808 -0.00804080
v 0.00669922 -0.00080658 -0.00804767
v 0.00667971 -0.00081549 -0.00805000
v 0.00688674 -0.00099495 -0.00798454
v 0.00702377 -0.00119575 -0.00805111
v 0.00718792 -0.00138370 -0.00814110
v 0.00737164 -0.00154771 -0.00823953
v 0.00737164 -0.00154771 -0.00823953
v 0.00700096 -0.00121201 -0.00811756
v 0.00682017 -0.00100523 -0.00806727
v 0.00686366 -0.00099202 -0.00803508
v 0.00693339 -0.00109265 -0.00805602
v -0.00391778 -0.00262447 -0.00195000
v -0.00398884 -0.00193109 -0.00195000
v -0.00401026 -0.00193329 -0.00195235
v -0.00403066 -0.00193537 -0.00195927
v -0.00404911 -0.00193726 -0.00197044
v -0.00406473 -0.00193887 -0.00198534
v -0.00407680 -0.00194010 -0.00200327
v -0.00408474 -0.00194092 -0.00202340
v -0.00408819 -0.00194127 -0.00204477
v -0.00400555 -0.00274759 -0.00204477
v -0.00395298 -0.00299405 -0.00198133
v -0.00395517 -0.00303515 -0.00198877
v -0.00395976 -0.00305054 -0.00199766
v -0.00396649 -0.00303579 -0.00200720
v -0.00398648 -0.00291179 -0.00202836
v 0.00101847 0.00692334 -0.00204477
v -0.00055236 0.00600821 -0.00204477
v -0.00190004 0.00478808 -0.00204477
v -0.00296632 0.00331566 -0.00204477
v -0.00370515 0.00165461 -0.00204477
v -0.00408456 -0.00012332 -0.00204477
v -0.00408819 -0.00194127 -0.00204477
v -0.00398884 -0.00193109 -0.00195000
v -0.00401026 -0.00193329 -0.00195235
v -0.00403066 -0.00193537 -0.00195927
v -0.00404911 -0.00193726 -0.00197044
v -0.00406473 -0.00193887 -0.00198534
v -0.00407680 -0.00194010 -0.00200327
v -0.00408474 -0.00194092 -0.00202340
v -0.00398526 -0.00013389 -0.00195000
v -0.00361017 0.00162373 -0.00195000
v -0.00287980 0.00326582 -0.00195000
v -0.00182569 0.00472141 -0.00195000
v -0.00049339 0.00592762 -0.00195000
v 0.00105950 0.00683230 -0.00195000
v 0.00101990 0.00692018 -0.00202340
v 0.00102318 0.00691290 -0.00200328
v 0.00102816 0.00690184 -0.00198534
v 0.00103461 0.00688752 -0.00197044
v 0.00104223 0.00687062 -0.00195927
v 0.00105066 0.00685192 -0.00195235
v -0.00055031 0.00600541 -0.00202340
v -0.00054559 0.00599897 -0.00200328
v -0.00053843 0.00598918 -0.00198534
v -0.00052916 0.00597651 -0.00197044
v -0.00051821 0.00596155 -0.00195927
v -0.00050610 0.00594499 -0.00195235
v -0.00189746 0.00478577 -0.00202340
v -0.00189151 0.00478043 -0.00200327
v -0.00188248 0.00477234 -0.00198534
v -0.00187079 0.00476186 -0.00197044
v -0.00185698 0.00474948 -0.00195927
v -0.00184170 0.00473578 -0.00195235
v -0.00296332 0.00331393 -0.00202340
v -0.00295640 0.00330995 -0.00200327
v -0.00294590 0.00330389 -0.00198534
v -0.00293229 0.00329606 -0.00197044
v -0.00291622 0.00328680 -0.00195927
v -0.00289845 0.00327656 -0.00195235
v -0.00370185 0.00165354 -0.00202340
v -0.00369426 0.00165107 -0.00200327
v -0.00368272 0.00164732 -0.00198534
v -0.00366779 0.00164246 -0.00197044
v -0.00365015 0.00163673 -0.00195927
v -0.00363064 0.00163038 -0.00195235
v -0.00408111 -0.00012368 -0.00202340
v -0.00407318 -0.00012453 -0.00200327
v -0.00406112 -0.00012581 -0.00198534
v -0.00404550 -0.00012747 -0.00197044
v -0.00402706 -0.00012944 -0.00195927
v -0.00400666 -0.00013161 -0.00195235
v 0.00637967 0.00159338 -0.00195000
v 0.00649515 -0.00008801 -0.00195000
v 0.00651663 -0.00008654 -0.00195235
v 0.00653709 -0.00008514 -0.00195927
v 0.00655559 -0.00008386 -0.00197044
v 0.00657126 -0.00008279 -0.00198534
v 0.00658336 -0.00008196 -0.00200328
v 0.00659133 -0.00008141 -0.00202340
v 0.00659478 -0.00008118 -0.00204477
v 0.00647930 0.00160023 -0.00204477
v 0.00640114 0.00159486 -0.00195235
v 0.00642161 0.00159627 -0.00195927
v 0.00644010 0.00159754 -0.00197044
v 0.00645578 0.00159861 -0.00198534
v 0.00646787 0.00159945 -0.00200328
v 0.00647584 0.00159999 -0.00202340
v 0.00649515 -0.00008801 -0.00195000
v 0.00651663 -0.00008654 -0.00195235
v 0.00653709 -0.00008514 -0.00195927
v 0.00655559 -0.00008386 -0.00197044
v 0.00657126 -0.00008279 -0.00198534
v 0.00658336 -0.00008196 -0.00200328
v 0.00659133 -0.00008141 -0.00202340
v 0.00659478 -0.00008118 -0.00204477
v 0.00654451 -0.00041963 -0.00195000
v 0.00660190 -0.00062015 -0.00195000
v 0.00667971 -0.00081549 -0.00195000
v 0.00669922 -0.00080658 -0.00195233
v 0.00671782 -0.00079808 -0.00195921
v 0.00673466 -0.00079040 -0.00197031
v 0.00674893 -0.00078388 -0.00198512
v 0.00675998 -0.00077884 -0.00200296
v 0.00676729 -0.00077550 -0.00202298
v 0.00677052 -0.00077402 -0.00204426
v 0.00666154 -0.00047405 -0.00204440
v 0.00661838 -0.00027959 -0.00204456
v 0.00670209 -0.00069316 -0.00197730
v 0.00669352 -0.00069656 -0.00196958
v 0.00668477 -0.00070004 -0.00196341
v 0.00664827 -0.00054042 -0.00197732
v 0.00662103 -0.00044330 -0.00197735
v 0.00659867 -0.00034466 -0.00197737
v 0.00658808 -0.00018288 -0.00199532
v 0.00658144 -0.00018367 -0.00198624
v 0.00657326 -0.00018465 -0.00197743
v 0.00737164 -0.00154771 -0.00176047
v 0.00737164 -0.00154771 -0.00176047
v 0.00713720 -0.00133045 -0.00188691
v 0.00693539 -0.00107205 -0.00199389
v 0.00684799 -0.00092780 -0.00202984
v 0.00677052 -0.00077402 -0.00204426
v 0.00667971 -0.00081549 -0.00195000
v 0.00669922 -0.00080658 -0.00195233
v 0.00671782 -0.00079808 -0.00195921
v 0.00673466 -0.00079040 -0.00197031
v 0.00674893 -0.00078388 -0.00198512
v 0.00675998 -0.00077884 -0.00200296
v 0.00676729 -0.00077550 -0.00202298
v 0.00688790 -0.00108685 -0.00191599
v 0.00711924 -0.00133055 -0.00184428
v 0.00678209 -0.00085939 -0.00197836
v 0.00678857 -0.00085689 -0.00198667
v 0.00679391 -0.00085497 -0.00199509
v 0.00687152 -0.00100378 -0.00196300
v -0.00391778 -0.00262447 -0.00805000
v -0.00391778 -0.00262447 -0.00805000
v -0.00395298 -0.00299405 -0.00801867
v -0.00394382 -0.00300029 -0.00802844
v -0.00393550 -0.00300657 -0.00803890
v -0.00392807 -0.00301286 -0.00805000
v 0.00171091 0.00715889 -0.00345000
v 0.00319487 0.00648333 -0.00345000
v 0.00451104 0.00552093 -0.00345000
v 0.00560475 0.00431166 -0.00345000
v 0.00643056 0.00290576 -0.00345000
v 0.00179265 0.00713085 -0.00245000
v 0.00636491 0.00304568 -0.00245000
v 0.00554850 0.00438736 -0.00245000
v 0.00448568 0.00554368 -0.00245000
v 0.00321744 0.00647008 -0.00245000
v 0.00179265 0.00713085 -0.00755000
v 0.00321744 0.00647008 -0.00755000
v 0.00448568 0.00554368 -0.00755000
v 0.00554850 0.00438736 -0.00755000
v 0.00636491 0.00304568 -0.00755000
v 0.00171091 0.00715889 -0.00655000
v 0.00319487 0.00648333 -0.00655000
v 0.00451104 0.00552093 -0.00655000
v 0.00560475 0.00431166 -0.00655000
v 0.00643056 0.00290576 -0.00655000
v 0.00171091 0.00715889 -0.00345000
v 0.00159584 0.00718319 -0.00345000
v 0.00147906 0.00718020 -0.00345000
v 0.00136540 0.00715003 -0.00345000
v 0.00146625 0.00711851 -0.00218988
v 0.00157670 0.00715018 -0.00227068
v 0.00168701 0.00715367 -0.00235868
v 0.00179265 0.00713085 -0.00245000
v 0.00146625 0.00711851 -0.00218988
v 0.00148014 0.00712031 -0.00217289
v 0.00149510 0.00711749 -0.00215698
v 0.00151040 0.00711022 -0.00214292
v 0.00152529 0.00709882 -0.00213139
v 0.00161727 0.00713649 -0.00223044
v 0.00170762 0.00714661 -0.00233822
v 0.00179265 0.00713085 -0.00245000
v 0.00179265 0.00713085 -0.00245000
v 0.00157670 0.00715018 -0.00227068
v 0.00168701 0.00715367 -0.00235868
v 0.00146625 0.00711851 -0.00218988
v 0.00135554 0.00707094 -0.00211801
v 0.00123393 0.00701857 -0.00207287
v 0.00112711 0.00697180 -0.00205160
v 0.00101847 0.00692334 -0.00204477
v 0.00101990 0.00692018 -0.00202340
v 0.00102318 0.00691290 -0.00200328
v 0.00102816 0.00690184 -0.00198534
v 0.00103461 0.00688752 -0.00197044
v 0.00104223 0.00687062 -0.00195927
v 0.00105066 0.00685192 -0.00195235
v 0.00105950 0.00683230 -0.00195000
v 0.00122485 0.00692871 -0.00196890
v 0.00138422 0.00701936 -0.00202775
v 0.00145806 0.00706090 -0.00207348
v 0.00152529 0.00709882 -0.00213139
v 0.00148014 0.00712031 -0.00217289
v 0.00149510 0.00711749 -0.00215698
v 0.00151040 0.00711022 -0.00214292
v 0.00108159 0.00693539 -0.00199918
v 0.00117096 0.00696395 -0.00199513
v 0.00122637 0.00699071 -0.00200907
v 0.00130597 0.00702863 -0.00203687
v 0.00136851 0.00705805 -0.00206623
v 0.00106907 0.00688962 -0.00196293
v 0.00637967 0.00159338 -0.00195000
v 0.00637411 0.00220762 -0.00198448
v 0.00637665 0.00251009 -0.00204527
v 0.00638141 0.00272526 -0.00212680
v 0.00638499 0.00282502 -0.00218680
v 0.00638716 0.00287066 -0.00222379
v 0.00638960 0.00291123 -0.00226638
v 0.00638706 0.00297412 -0.00234699
v 0.00637854 0.00301099 -0.00239835
v 0.00636491 0.00304568 -0.00245000
v 0.00554850 0.00438736 -0.00245000
v 0.00448568 0.00554368 -0.00245000
v 0.00321744 0.00647008 -0.00245000
v 0.00179265 0.00713085 -0.00245000
v 0.00152529 0.00709882 -0.00213139
v 0.00161727 0.00713649 -0.00223044
v 0.00170762 0.00714661 -0.00233822
v 0.00105950 0.00683230 -0.00195000
v 0.00122485 0.00692871 -0.00196890
v 0.00138422 0.00701936 -0.00202775
v 0.00145806 0.00706090 -0.00207348
v 0.00251927 0.00628138 -0.00195000
v 0.00383345 0.00544033 -0.00195000
v 0.00494519 0.00434558 -0.00195000
v 0.00580635 0.00304450 -0.00195000
v 0.00630085 0.00269016 -0.00204533
v 0.00619903 0.00264581 -0.00198454
v 0.00620470 0.00325213 -0.00223046
v 0.00614805 0.00322261 -0.00213139
v 0.00606676 0.00318023 -0.00204533
v 0.00596828 0.00312890 -0.00198454
v 0.00553992 0.00438091 -0.00234699
v 0.00550792 0.00435683 -0.00223046
v 0.00545687 0.00431843 -0.00213139
v 0.00538361 0.00426331 -0.00204533
v 0.00529486 0.00419655 -0.00198454
v 0.00447854 0.00553569 -0.00234699
v 0.00445186 0.00550582 -0.00223046
v 0.00440929 0.00545818 -0.00213139
v 0.00434821 0.00538982 -0.00204533
v 0.00413862 0.00582278 -0.00234699
v 0.00427422 0.00530700 -0.00198454
v 0.00411365 0.00579147 -0.00223046
v 0.00407380 0.00574154 -0.00213139
v 0.00401661 0.00566988 -0.00204533
v 0.00394735 0.00558307 -0.00198454
v 0.00321199 0.00646084 -0.00234699
v 0.00319166 0.00642634 -0.00223046
v 0.00315922 0.00637131 -0.00213139
v 0.00311267 0.00629232 -0.00204533
v 0.00305629 0.00619664 -0.00198454
v 0.00273871 0.00671868 -0.00234699
v 0.00272074 0.00668288 -0.00223046
v 0.00269209 0.00662579 -0.00213139
v 0.00265097 0.00654384 -0.00204533
v 0.00260116 0.00644458 -0.00198454
v 0.00178911 0.00712072 -0.00234699
v 0.00177591 0.00708291 -0.00223046
v 0.00175485 0.00702260 -0.00213139
v 0.00172463 0.00693604 -0.00204533
v 0.00168802 0.00683120 -0.00198454
v 0.00637967 0.00159338 -0.00195000
v 0.00640114 0.00159486 -0.00195235
v 0.00642161 0.00159627 -0.00195927
v 0.00644010 0.00159754 -0.00197044
v 0.00645578 0.00159861 -0.00198534
v 0.00646787 0.00159945 -0.00200328
v 0.00647584 0.00159999 -0.00202340
v 0.00647930 0.00160023 -0.00204477
v 0.00643847 0.00221707 -0.00207410
v 0.00641335 0.00265434 -0.00216772
v 0.00640797 0.00277316 -0.00222043
v 0.00640595 0.00282903 -0.00225514
v 0.00640476 0.00287915 -0.00229787
v 0.00640213 0.00289039 -0.00228687
v 0.00639703 0.00290118 -0.00227629
v 0.00638960 0.00291123 -0.00226638
v 0.00637411 0.00220762 -0.00198448
v 0.00637665 0.00251009 -0.00204527
v 0.00638141 0.00272526 -0.00212680
v 0.00638499 0.00282502 -0.00218680
v 0.00638716 0.00287066 -0.00222379
v 0.00643342 0.00190256 -0.00198866
v 0.00641954 0.00221435 -0.00201990
v 0.00640476 0.00287915 -0.00229787
v 0.00640213 0.00289039 -0.00228687
v 0.00639703 0.00290118 -0.00227629
v 0.00638960 0.00291123 -0.00226638
v 0.00639560 0.00295615 -0.00236463
v 0.00638284 0.00300199 -0.00240719
v 0.00636491 0.00304568 -0.00245000
v 0.00636491 0.00304568 -0.00245000
v 0.00638706 0.00297412 -0.00234699
v 0.00637854 0.00301099 -0.00239835
v 0.00640476 0.00287915 -0.00229787
v 0.00639560 0.00295615 -0.00236463
v 0.00638284 0.00300199 -0.00240719
v 0.00636491 0.00304568 -0.00245000
v 0.00647562 0.00272845 -0.00345000
v 0.00646357 0.00280928 -0.00345000
v 0.00644956 0.00285815 -0.00345000
v 0.00643056 0.00290576 -0.00345000
v 0.00136540 0.00715003 -0.00655000
v 0.00147907 0.00718021 -0.00655000
v 0.00159584 0.00718319 -0.00655000
v 0.00171091 0.00715889 -0.00655000
v 0.00179265 0.00713085 -0.00755000
v 0.00168713 0.00715391 -0.00764130
v 0.00157722 0.00715044 -0.00772899
v 0.00146625 0.00711851 -0.00781012
v 0.00146625 0.00711851 -0.00781012
v 0.00148014 0.00712031 -0.00782711
v 0.00149510 0.00711749 -0.00784302
v 0.00151040 0.00711022 -0.00785708
v 0.00152529 0.00709882 -0.00786861
v 0.00141243 0.00703523 -0.00795649
v 0.00128624 0.00696386 -0.00801370
v 0.00117404 0.00689937 -0.00804106
v 0.00105950 0.00683230 -0.00805000
v 0.00105066 0.00685192 -0.00804766
v 0.00104223 0.00687062 -0.00804074
v 0.00103461 0.00688752 -0.00802956
v 0.00102816 0.00690184 -0.00801466
v 0.00102318 0.00691290 -0.00799673
v 0.00101990 0.00692018 -0.00797661
v 0.00101847 0.00692334 -0.00795524
v 0.00117513 0.00699293 -0.00794074
v 0.00132732 0.00705884 -0.00789484
v 0.00139954 0.00708980 -0.00785803
v 0.00117044 0.00696371 -0.00800499
v 0.00122654 0.00699078 -0.00799089
v 0.00130556 0.00702842 -0.00796332
v 0.00136792 0.00705780 -0.00793405
v 0.00140534 0.00707534 -0.00791245
v 0.00179265 0.00713085 -0.00755000
v 0.00168713 0.00715391 -0.00764130
v 0.00157722 0.00715044 -0.00772899
v 0.00146625 0.00711851 -0.00781012
v 0.00179265 0.00713085 -0.00755000
v 0.00170773 0.00714686 -0.00766176
v 0.00161770 0.00713679 -0.00776917
v 0.00152529 0.00709882 -0.00786861
v 0.00148014 0.00712031 -0.00782711
v 0.00149510 0.00711749 -0.00784302
v 0.00151040 0.00711022 -0.00785708
v 0.00637967 0.00159338 -0.00805000
v 0.00637411 0.00220775 -0.00801550
v 0.00637666 0.00251029 -0.00795468
v 0.00638142 0.00272549 -0.00787308
v 0.00638500 0.00282518 -0.00781310
v 0.00638716 0.00287069 -0.00777622
v 0.00638960 0.00291123 -0.00773362
v 0.00639703 0.00290118 -0.00772372
v 0.00640213 0.00289039 -0.00771313
v 0.00640475 0.00287915 -0.00770213
v 0.00640674 0.00280522 -0.00776095
v 0.00641148 0.00269301 -0.00781736
v 0.00642403 0.00245658 -0.00788766
v 0.00644248 0.00215353 -0.00793274
v 0.00647930 0.00160023 -0.00795524
v 0.00647584 0.00159999 -0.00797661
v 0.00646787 0.00159945 -0.00799673
v 0.00645578 0.00159861 -0.00801466
v 0.00644010 0.00159754 -0.00802956
v 0.00642161 0.00159627 -0.00804074
v 0.00640114 0.00159486 -0.00804766
v 0.00643459 0.00187797 -0.00801282
v 0.00644140 0.00187811 -0.00800445
v 0.00644693 0.00187815 -0.00799599
v 0.00642089 0.00218220 -0.00798455
v 0.00641457 0.00233635 -0.00796016
v 0.00637967 0.00159338 -0.00805000
v 0.00580635 0.00304450 -0.00805000
v 0.00494519 0.00434558 -0.00805000
v 0.00383345 0.00544033 -0.00805000
v 0.00251927 0.00628138 -0.00805000
v 0.00105950 0.00683230 -0.00805000
v 0.00152529 0.00709882 -0.00786861
v 0.00141243 0.00703523 -0.00795649
v 0.00128624 0.00696386 -0.00801370
v 0.00117404 0.00689937 -0.00804106
v 0.00179265 0.00713085 -0.00755000
v 0.00170773 0.00714686 -0.00766176
v 0.00161770 0.00713679 -0.00776917
v 0.00321744 0.00647008 -0.00755000
v 0.00448568 0.00554368 -0.00755000
v 0.00554850 0.00438736 -0.00755000
v 0.00636491 0.00304568 -0.00755000
v 0.00638433 0.00298900 -0.00763270
v 0.00638966 0.00295100 -0.00768360
v 0.00638960 0.00291123 -0.00773362
v 0.00637411 0.00220775 -0.00801550
v 0.00637666 0.00251029 -0.00795468
v 0.00638142 0.00272549 -0.00787308
v 0.00638500 0.00282518 -0.00781310
v 0.00638716 0.00287069 -0.00777622
v 0.00159777 0.00707560 -0.00786861
v 0.00156940 0.00698850 -0.00795462
v 0.00153636 0.00688707 -0.00801369
v 0.00150770 0.00679907 -0.00804099
v 0.00269209 0.00662579 -0.00786861
v 0.00265100 0.00654392 -0.00795462
v 0.00260316 0.00644857 -0.00801369
v 0.00321102 0.00645920 -0.00766171
v 0.00256165 0.00636585 -0.00804099
v 0.00319178 0.00642655 -0.00776906
v 0.00315922 0.00637131 -0.00786861
v 0.00311271 0.00629239 -0.00795462
v 0.00305855 0.00620049 -0.00801369
v 0.00301156 0.00612076 -0.00804099
v 0.00413743 0.00582128 -0.00766171
v 0.00411379 0.00579166 -0.00776906
v 0.00407380 0.00574154 -0.00786861
v 0.00401667 0.00566994 -0.00795462
v 0.00447726 0.00553426 -0.00766171
v 0.00395012 0.00558655 -0.00801369
v 0.00445202 0.00550600 -0.00776906
v 0.00389240 0.00551421 -0.00804099
v 0.00440929 0.00545818 -0.00786861
v 0.00434826 0.00538988 -0.00795462
v 0.00427718 0.00531032 -0.00801369
v 0.00421553 0.00524132 -0.00804099
v 0.00532140 0.00465539 -0.00766171
v 0.00529214 0.00463130 -0.00776906
v 0.00524265 0.00459054 -0.00786861
v 0.00517194 0.00453231 -0.00795462
v 0.00508958 0.00446449 -0.00801369
v 0.00501815 0.00440567 -0.00804099
v 0.00620492 0.00325224 -0.00776906
v 0.00614805 0.00322261 -0.00786861
v 0.00606683 0.00318026 -0.00795462
v 0.00597223 0.00313096 -0.00801369
v 0.00589016 0.00308818 -0.00804099
v 0.00633199 0.00284557 -0.00786861
v 0.00624863 0.00280762 -0.00795462
v 0.00615154 0.00276341 -0.00801369
v 0.00606731 0.00272505 -0.00804099
v 0.00629127 0.00217758 -0.00804099
v 0.00636491 0.00304568 -0.00755000
v 0.00638433 0.00298900 -0.00763270
v 0.00638966 0.00295100 -0.00768360
v 0.00638960 0.00291123 -0.00773362
v 0.00636491 0.00304568 -0.00755000
v 0.00639119 0.00297460 -0.00761853
v 0.00640072 0.00292770 -0.00766071
v 0.00640475 0.00287915 -0.00770213
v 0.00639703 0.00290118 -0.00772372
v 0.00640213 0.00289039 -0.00771313
v 0.00643056 0.00290576 -0.00655000
v 0.00645856 0.00282898 -0.00655000
v 0.00646959 0.00277935 -0.00655000
v 0.00647562 0.00272845 -0.00655000
v 0.00640475 0.00287915 -0.00770213
v 0.00636491 0.00304568 -0.00755000
v 0.00639119 0.00297460 -0.00761853
v 0.00640072 0.00292770 -0.00766071
f 1 4 3
f 1 2 4
f 33 32 27
f 28 33 27
f 19 25 20
f 29 34 33
f 29 33 28
f 18 24 25
f 18 25 19
f 23 24 18
f 30 35 34
f 30 34 29
f 31 35 30
f 36 35 31
f 17 23 18
f 22 23 17
f 26 36 31
f 37 36 26
f 16 22 17
f 21 22 16
f 15 21 16
f 14 26 21
f 14 38 37
f 14 37 26
f 14 21 15
f 13 38 14
f 12 39 38
f 12 40 39
f 12 38 13
f 11 40 12
f 10 40 11
f 10 41 40
f 9 41 10
f 9 42 41
f 9 43 42
f 8 43 9
f 7 43 8
f 7 44 43
f 6 44 7
f 6 5 44
f 51 48 50
f 52 45 46
f 53 47 49
f 52 48 51
f 61 60 62
f 68 67 66
f 69 68 66
f 54 66 65
f 54 69 66
f 55 65 64
f 55 54 65
f 56 64 63
f 56 55 64
f 57 63 62
f 57 56 63
f 58 57 62
f 59 62 60
f 59 58 62
f 85 70 87
f 73 86 84
f 72 71 86
f 72 86 73
f 74 84 83
f 74 73 84
f 75 83 82
f 75 74 83
f 76 75 82
f 77 82 81
f 77 76 82
f 78 77 81
f 79 78 81
f 80 79 81
f 109 108 151
f 107 152 151
f 107 151 108
f 110 109 151
f 111 110 151
f 106 152 107
f 105 152 106
f 150 112 111
f 150 113 112
f 150 114 113
f 150 115 114
f 150 116 115
f 150 111 151
f 104 152 105
f 104 153 152
f 103 153 104
f 93 153 103
f 102 93 103
f 154 153 93
f 149 116 150
f 149 117 116
f 149 118 117
f 149 119 118
f 120 119 149
f 94 154 93
f 123 122 121
f 155 154 94
f 148 120 149
f 148 121 120
f 148 123 121
f 95 155 94
f 156 155 95
f 147 124 123
f 147 123 148
f 96 156 95
f 157 156 96
f 146 125 124
f 146 124 147
f 97 157 96
f 158 157 97
f 145 126 125
f 145 125 146
f 98 158 97
f 159 158 98
f 144 127 126
f 144 126 145
f 99 159 98
f 160 159 99
f 143 128 127
f 143 127 144
f 100 160 99
f 161 160 100
f 142 129 128
f 142 128 143
f 101 161 100
f 162 161 101
f 141 130 129
f 141 129 142
f 92 162 101
f 163 162 92
f 140 131 130
f 140 130 141
f 89 92 88
f 89 163 92
f 90 163 89
f 90 164 163
f 139 131 140
f 139 132 131
f 136 133 132
f 91 164 90
f 138 136 132
f 138 132 139
f 138 135 136
f 137 135 138
f 137 134 135
f 166 165 167
f 199 197 200
f 198 197 199
f 192 198 174
f 192 197 198
f 193 174 173
f 193 192 174
f 194 173 172
f 194 193 173
f 195 172 171
f 195 194 172
f 196 171 170
f 196 195 171
f 191 170 169
f 191 196 170
f 184 190 191
f 184 191 169
f 185 184 169
f 180 169 168
f 180 168 181
f 182 181 168
f 176 182 168
f 179 169 180
f 175 176 168
f 178 185 169
f 178 169 179
f 177 185 178
f 186 185 177
f 187 186 177
f 188 187 177
f 189 188 177
f 183 189 177
f 211 204 203
f 205 204 211
f 210 201 205
f 210 205 211
f 209 201 210
f 202 209 208
f 202 201 209
f 207 202 208
f 240 202 207
f 253 222 221
f 253 212 222
f 253 254 212
f 255 213 212
f 255 212 254
f 252 253 221
f 252 221 220
f 256 213 255
f 256 214 213
f 251 252 220
f 251 220 219
f 257 214 256
f 257 206 214
f 250 219 218
f 250 251 219
f 258 207 206
f 258 206 257
f 258 241 240
f 258 240 207
f 249 250 218
f 249 218 217
f 259 241 258
f 259 242 241
f 248 249 217
f 216 248 217
f 260 242 259
f 247 248 216
f 215 247 216
f 223 247 215
f 246 247 223
f 243 242 260
f 243 260 261
f 230 246 223
f 231 225 224
f 231 226 225
f 231 227 226
f 231 228 227
f 232 229 228
f 232 230 229
f 232 228 231
f 232 246 230
f 233 246 232
f 233 244 245
f 233 245 246
f 239 244 233
f 239 267 268
f 239 268 269
f 239 269 244
f 235 234 243
f 235 243 261
f 235 261 262
f 238 265 266
f 238 266 267
f 238 267 239
f 236 262 263
f 236 235 262
f 237 265 238
f 237 236 263
f 237 263 264
f 237 264 265
f 277 275 276
f 278 281 280
f 270 274 275
f 270 285 284
f 270 277 285
f 270 275 277
f 273 274 270
f 272 284 283
f 271 282 279
f 272 270 284
f 287 286 289
f 291 288 290
f 295 293 292
f 295 294 293
f 314 321 322
f 315 314 322
f 316 315 322
f 317 316 322
f 328 318 317
f 328 319 318
f 328 320 319
f 328 317 322
f 307 313 308
f 309 308 313
f 310 309 313
f 306 313 307
f 311 313 320
f 311 320 328
f 311 310 313
f 305 313 306
f 312 311 328
f 304 312 328
f 302 304 328
f 303 304 302
f 327 302 328
f 301 302 327
f 326 301 327
f 300 301 326
f 325 300 326
f 299 300 325
f 324 299 325
f 298 299 324
f 323 298 324
f 297 330 329
f 296 298 323
f 296 330 297
f 296 331 330
f 296 323 331
f 337 370 338
f 361 367 366
f 361 368 367
f 361 360 368
f 362 366 369
f 362 361 366
f 363 362 369
f 364 369 373
f 364 363 369
f 365 364 373
f 384 371 370
f 383 384 370
f 383 370 337
f 385 372 371
f 385 371 384
f 382 337 336
f 382 383 337
f 386 372 385
f 386 357 365
f 386 373 372
f 386 365 373
f 381 336 335
f 381 382 336
f 387 357 386
f 387 358 357
f 380 381 335
f 388 358 387
f 379 380 335
f 359 358 388
f 389 359 388
f 334 379 335
f 334 378 379
f 349 359 389
f 390 349 389
f 377 378 334
f 391 349 390
f 350 349 391
f 333 377 334
f 333 375 376
f 333 376 377
f 351 350 391
f 351 391 392
f 374 375 333
f 352 392 393
f 352 351 392
f 353 352 393
f 353 393 394
f 332 374 333
f 332 398 399
f 332 399 374
f 354 394 395
f 354 353 394
f 339 398 332
f 355 395 396
f 355 354 395
f 342 397 398
f 342 398 339
f 348 397 342
f 343 342 339
f 356 396 397
f 356 355 396
f 356 397 348
f 344 339 340
f 344 343 339
f 345 344 340
f 346 345 340
f 347 346 340
f 341 347 340
f 415 412 413
f 415 413 414
f 400 411 412
f 400 412 415
f 401 415 417
f 401 400 415
f 404 401 417
f 408 405 402
f 410 407 406
f 409 403 416
f 422 418 421
f 420 419 423
f 426 425 424
f 427 426 424
f 439 434 435
f 439 438 434
f 440 439 435
f 428 435 436
f 428 440 435
f 429 436 437
f 429 428 436
f 430 437 433
f 430 429 437
f 431 430 433
f 432 431 433
f 450 446 445
f 450 447 446
f 449 445 444
f 449 450 445
f 448 444 443
f 448 449 444
f 442 443 441
f 442 448 443
f 452 460 461
f 452 451 460
f 453 452 461
f 454 461 462
f 454 453 461
f 455 462 463
f 455 454 462
f 456 455 463
f 457 463 459
f 457 456 463
f 458 457 459
f 473 469 468
f 473 470 469
f 472 468 467
f 472 473 468
f 471 467 466
f 471 472 467
f 465 466 464
f 465 471 466
f 475 477 476
f 474 477 475
f 504 503 479
f 502 504 479
f 480 479 478
f 480 500 501
f 480 501 502
f 480 502 479
f 489 500 480
f 499 500 489
f 488 499 489
f 491 497 496
f 491 498 497
f 491 496 499
f 490 482 481
f 492 488 487
f 492 499 488
f 492 491 499
f 495 483 482
f 495 484 483
f 495 482 490
f 493 487 486
f 493 492 487
f 494 485 484
f 494 486 485
f 494 484 495
f 494 493 486
f 510 513 512
f 505 509 508
f 507 517 515
f 505 518 516
f 506 514 511
f 524 519 518
f 524 520 519
f 524 518 505
f 521 520 524
f 523 522 521
f 523 521 524
f 528 525 526
f 528 527 525
f 531 529 530
f 532 531 530
f 546 548 547
f 544 548 546
f 540 544 543
f 542 550 545
f 538 549 541
f 535 553 549
f 537 551 539
f 534 554 536
f 557 552 533
f 555 552 557
f 556 555 557
f 558 560 559
f 558 561 560
f 563 562 561
f 563 584 583
f 563 558 584
f 563 561 558
f 572 563 583
f 582 572 583
f 571 572 582
f 574 580 579
f 574 581 580
f 574 582 581
f 573 564 565
f 575 570 571
f 575 571 582
f 575 582 574
f 578 565 566
f 578 566 567
f 578 573 565
f 576 569 570
f 576 570 575
f 577 567 568
f 577 568 569
f 577 578 567
f 577 569 576
f 592 594 593
f 592 595 594
f 592 604 595
f 603 604 592
f 591 602 603
f 591 603 592
f 590 601 602
f 590 602 591
f 589 600 601
f 589 601 590
f 588 599 600
f 588 600 589
f 587 598 599
f 587 599 588
f 586 596 597
f 586 597 598
f 586 598 587
f 585 596 586
f 611 613 612
f 611 620 613
f 610 619 620
f 610 620 611
f 609 618 619
f 609 619 610
f 608 617 618
f 608 618 609
f 607 616 617
f 607 617 608
f 606 614 615
f 606 615 616
f 606 616 607
f 605 621 614
f 605 614 606
f 623 636 637
f 623 637 638
f 623 638 622
f 624 635 636
f 624 636 623
f 625 634 635
f 625 635 624
f 626 633 634
f 626 634 625
f 627 632 633
f 627 633 626
f 628 631 632
f 628 632 627
f 629 631 628
f 630 631 629
f 639 665 666
f 660 661 662
f 667 662 663
f 667 663 664
f 667 664 665
f 667 665 639
f 667 660 662
f 668 639 640
f 668 659 660
f 668 667 639
f 668 660 667
f 669 659 668
f 669 668 640
f 670 640 641
f 670 658 659
f 670 659 669
f 670 669 640
f 671 658 670
f 671 670 641
f 672 641 642
f 672 657 658
f 672 658 671
f 672 671 641
f 673 672 642
f 673 657 672
f 674 642 643
f 674 656 657
f 674 657 673
f 674 673 642
f 675 643 644
f 675 656 674
f 675 674 643
f 676 675 644
f 676 656 675
f 677 644 645
f 677 655 656
f 677 676 644
f 677 656 676
f 678 655 677
f 678 677 645
f 679 645 646
f 679 648 655
f 679 678 645
f 679 655 678
f 680 646 647
f 680 653 652
f 680 654 653
f 680 647 654
f 681 649 648
f 681 650 649
f 681 651 650
f 681 652 651
f 681 679 646
f 681 680 652
f 681 648 679
f 681 646 680
f 688 683 682
f 689 684 683
f 689 683 688
f 690 685 684
f 690 684 689
f 691 686 685
f 691 685 690
f 692 687 686
f 692 686 691
f 699 694 693
f 699 693 698
f 700 695 694
f 700 694 699
f 701 696 695
f 701 695 700
f 703 697 696
f 703 696 701
f 702 703 701
f 711 712 708
f 707 711 708
f 709 710 706
f 705 709 706
f 704 709 705
f 713 707 706
f 713 710 711
f 713 711 707
f 713 706 710
f 715 714 719
f 720 715 719
f 716 715 720
f 721 716 720
f 717 716 721
f 722 717 721
f 724 718 717
f 724 717 722
f 723 724 722
f 729 734 735
f 728 733 734
f 728 734 729
f 727 732 733
f 727 733 728
f 726 731 732
f 726 732 727
f 725 730 731
f 725 731 726
f 740 762 741
f 763 752 753
f 763 753 754
f 763 754 755
f 763 755 756
f 763 756 757
f 764 748 749
f 764 749 750
f 764 750 751
f 764 751 752
f 764 752 763
f 764 763 748
f 765 763 757
f 765 748 763
f 766 747 748
f 766 757 758
f 766 748 765
f 766 765 757
f 767 746 747
f 767 747 766
f 767 766 758
f 768 746 767
f 768 767 758
f 769 745 746
f 769 758 759
f 769 746 768
f 769 768 758
f 770 769 759
f 770 745 769
f 771 744 745
f 771 759 760
f 771 745 770
f 771 770 759
f 772 744 771
f 772 771 760
f 773 743 744
f 773 744 772
f 773 772 760
f 774 742 743
f 774 760 761
f 774 743 773
f 774 773 760
f 775 742 774
f 775 774 761
f 776 737 736
f 776 738 737
f 776 739 738
f 776 740 739
f 776 736 742
f 776 761 762
f 776 762 740
f 776 775 761
f 776 742 775
f 786 784 785
f 793 783 784
f 793 784 786
f 792 782 783
f 792 783 793
f 791 781 782
f 791 782 792
f 790 780 781
f 790 781 791
f 789 779 780
f 789 780 790
f 788 778 779
f 788 779 789
f 787 777 778
f 787 778 788
f 794 795 796
f 805 794 796
f 806 796 797
f 806 805 796
f 807 806 797
f 808 807 797
f 809 797 798
f 809 808 797
f 804 798 799
f 804 799 800
f 804 809 798
f 803 800 801
f 803 801 802
f 803 804 800
f 835 828 829
f 810 811 830
f 836 818 817
f 836 819 818
f 836 817 824
f 837 820 819
f 837 819 836
f 838 821 820
f 838 820 837
f 839 822 821
f 839 821 838
f 840 823 822
f 840 822 839
f 841 815 816
f 841 816 823
f 841 823 840
f 842 824 825
f 842 836 824
f 843 837 836
f 843 836 842
f 844 838 837
f 844 837 843
f 845 839 838
f 845 838 844
f 846 840 839
f 846 839 845
f 847 814 815
f 847 815 841
f 847 840 846
f 847 841 840
f 848 825 826
f 848 842 825
f 848 843 842
f 849 843 848
f 850 844 843
f 850 843 849
f 851 845 844
f 851 844 850
f 852 846 845
f 852 845 851
f 853 812 813
f 853 813 814
f 853 846 852
f 853 814 847
f 853 847 846
f 854 826 827
f 854 848 826
f 855 848 854
f 855 849 848
f 856 849 855
f 856 850 849
f 856 851 850
f 857 851 856
f 857 852 851
f 858 852 857
f 859 853 852
f 859 852 858
f 859 812 853
f 860 827 828
f 860 835 834
f 860 854 827
f 860 828 835
f 861 860 834
f 861 854 860
f 861 834 833
f 861 855 854
f 862 856 855
f 862 861 833
f 862 855 861
f 863 857 856
f 863 833 832
f 863 856 862
f 863 862 833
f 864 858 857
f 864 831 830
f 864 832 831
f 864 857 863
f 864 863 832
f 865 811 812
f 865 812 859
f 865 859 858
f 865 864 830
f 865 858 864
f 865 830 811
f 866 867 868
f 876 868 869
f 876 866 868
f 877 869 870
f 877 876 869
f 878 870 871
f 878 877 870
f 879 871 872
f 879 878 871
f 880 872 873
f 880 879 872
f 881 873 874
f 881 880 873
f 875 881 874
f 902 883 882
f 902 884 883
f 902 885 884
f 902 886 885
f 902 882 890
f 903 886 902
f 903 902 901
f 904 887 886
f 904 888 887
f 904 889 888
f 904 901 889
f 904 886 903
f 904 903 901
f 905 900 901
f 905 902 890
f 905 901 902
f 906 900 905
f 906 905 890
f 907 890 891
f 907 900 906
f 907 906 890
f 908 891 892
f 908 892 893
f 908 893 894
f 908 894 895
f 909 908 895
f 909 891 908
f 910 895 896
f 910 896 897
f 910 897 898
f 910 898 899
f 910 899 900
f 910 900 907
f 910 909 895
f 910 907 891
f 910 891 909
f 925 916 915
f 925 917 916
f 925 918 917
f 921 924 920
f 923 921 922
f 923 924 921
f 926 912 911
f 926 913 912
f 926 914 913
f 926 915 914
f 926 911 919
f 926 925 915
f 927 919 920
f 927 924 925
f 927 926 919
f 927 925 926
f 927 920 924
f 928 929 930
f 931 928 930
f 938 931 932
f 938 932 933
f 938 928 931
f 939 933 934
f 939 938 933
f 940 939 934
f 941 940 934
f 942 934 935
f 942 941 934
f 937 935 936
f 937 942 935
f 950 957 951
f 969 943 944
f 969 963 943
f 970 964 963
f 970 965 964
f 970 963 969
f 971 965 970
f 972 966 965
f 972 965 971
f 973 967 966
f 973 966 972
f 974 961 962
f 974 968 967
f 974 962 968
f 974 967 973
f 975 944 945
f 975 969 944
f 976 970 969
f 976 969 975
f 977 971 970
f 977 970 976
f 978 971 977
f 978 972 971
f 979 972 978
f 979 973 972
f 980 960 961
f 980 973 979
f 980 974 973
f 980 961 974
f 981 945 946
f 981 976 975
f 981 975 945
f 982 976 981
f 983 977 976
f 983 976 982
f 984 978 977
f 984 979 978
f 984 977 983
f 985 979 984
f 986 959 960
f 986 960 980
f 986 980 979
f 986 979 985
f 987 946 947
f 987 981 946
f 988 982 981
f 988 981 987
f 989 982 988
f 989 983 982
f 990 983 989
f 990 984 983
f 991 986 985
f 991 984 990
f 991 985 984
f 992 986 991
f 992 958 959
f 992 959 986
f 993 947 948
f 993 948 949
f 993 949 956
f 993 987 947
f 994 955 954
f 994 956 955
f 994 993 956
f 994 987 993
f 994 988 987
f 995 989 988
f 995 994 954
f 995 988 994
f 996 990 989
f 996 954 953
f 996 989 995
f 996 995 954
f 997 953 952
f 997 991 990
f 997 996 953
f 997 990 996
f 998 952 951
f 998 957 958
f 998 958 992
f 998 991 997
f 998 997 952
f 998 951 957
f 998 992 991
f 1009 999 1000
f 1009 1000 1001
f 1010 1001 1002
f 1010 1009 1001
f 1011 1002 1003
f 1011 1010 1002
f 1012 1003 1004
f 1012 1011 1003
f 1013 1004 1005
f 1013 1012 1004
f 1014 1005 1006
f 1014 1013 1005
f 1008 1006 1007
f 1008 1014 1006
f 1035 1028 1029
f 1035 1029 1030
f 1035 1030 1031
f 1035 1031 1032
f 1035 1032 1033
f 1036 1028 1035
f 1036 1035 1024
f 1037 1024 1025
f 1037 1025 1026
f 1037 1026 1027
f 1037 1027 1028
f 1037 1028 1036
f 1037 1036 1024
f 1038 1023 1024
f 1038 1035 1033
f 1038 1024 1035
f 1039 1023 1038
f 1039 1038 1033
f 1040 1033 1034
f 1040 1039 1033
f 1040 1023 1039
f 1041 1020 1019
f 1041 1021 1020
f 1041 1022 1021
f 1041 1034 1022
f 1042 1041 1019
f 1042 1034 1041
f 1043 1016 1015
f 1043 1017 1016
f 1043 1018 1017
f 1043 1019 1018
f 1043 1015 1023
f 1043 1034 1042
f 1043 1023 1040
f 1043 1042 1019
f 1043 1040 1034
f 1046 1057 1058
f 1046 1047 1057
f 1045 1058 1044
f 1045 1046 1058
f 1059 1051 1050
f 1059 1052 1051
f 1059 1053 1052
f 1059 1054 1053
f 1060 1054 1059
f 1060 1059 1048
f 1061 1048 1049
f 1061 1055 1054
f 1061 1056 1055
f 1061 1049 1056
f 1061 1054 1060
f 1061 1060 1048
f 1062 1047 1048
f 1062 1050 1057
f 1062 1059 1050
f 1062 1057 1047
f 1062 1048 1059
f 1063 1068 1067
f 1064 1066 1065
f 1064 1067 1066
f 1064 1063 1067
f 1070 1069 1074
f 1070 1078 1077
f 1070 1074 1078
f 1071 1077 1076
f 1071 1070 1077
f 1072 1076 1075
f 1072 1071 1076
f 1073 1072 1075
f 1079 1084 1085
f 1080 1079 1085
f 1081 1085 1086
f 1081 1080 1085
f 1082 1086 1087
f 1082 1081 1086
f 1083 1087 1088
f 1083 1082 1087
f 1094 1092 1093
f 1095 1092 1094
f 1096 1089 1090
f 1096 1090 1091
f 1096 1091 1092
f 1096 1092 1095
f 1102 1099 1100
f 1102 1100 1101
f 1106 1097 1098
f 1106 1098 1099
f 1106 1099 1102
f 1107 1102 1103
f 1107 1106 1102
f 1105 1103 1104
f 1105 1107 1103
f 1126 1122 1123
f 1125 1122 1126
f 1124 1109 1122
f 1124 1122 1125
f 1108 1109 1124
f 1127 1111 1112
f 1127 1112 1113
f 1127 1113 1114
f 1127 1114 1115
f 1128 1111 1127
f 1129 1110 1111
f 1129 1111 1128
f 1129 1128 1120
f 1130 1109 1110
f 1130 1120 1121
f 1130 1129 1120
f 1130 1110 1129
f 1131 1121 1122
f 1131 1109 1130
f 1131 1130 1121
f 1131 1122 1109
f 1132 1115 1116
f 1132 1116 1117
f 1132 1117 1118
f 1132 1118 1119
f 1132 1119 1120
f 1132 1127 1115
f 1132 1120 1128
f 1132 1128 1127
f 1157 1133 1134
f 1158 1135 1136
f 1158 1136 1137
f 1159 1134 1135
f 1159 1157 1134
f 1159 1135 1158
f 1160 1139 1140
f 1160 1140 1141
f 1160 1141 1142
f 1160 1142 1143
f 1161 1138 1139
f 1161 1139 1160
f 1162 1137 1138
f 1162 1138 1161
f 1162 1158 1137
f 1163 1159 1158
f 1163 1157 1159
f 1163 1158 1162
f 1164 1160 1143
f 1165 1160 1164
f 1165 1164 1156
f 1166 1165 1156
f 1166 1161 1160
f 1166 1160 1165
f 1167 1162 1161
f 1167 1161 1166
f 1167 1166 1156
f 1168 1156 1157
f 1168 1157 1163
f 1168 1163 1162
f 1168 1167 1156
f 1168 1162 1167
f 1169 1143 1144
f 1169 1164 1143
f 1169 1156 1164
f 1170 1156 1169
f 1171 1156 1170
f 1172 1156 1171
f 1173 1144 1145
f 1173 1169 1144
f 1173 1170 1169
f 1174 1155 1156
f 1174 1156 1172
f 1175 1170 1173
f 1176 1171 1170
f 1176 1170 1175
f 1177 1172 1171
f 1177 1171 1176
f 1178 1172 1177
f 1178 1155 1174
f 1178 1174 1172
f 1179 1173 1145
f 1180 1176 1175
f 1180 1173 1179
f 1180 1175 1173
f 1181 1176 1180
f 1182 1177 1176
f 1182 1176 1181
f 1183 1178 1177
f 1183 1155 1178
f 1183 1177 1182
f 1183 1154 1155
f 1184 1145 1146
f 1184 1180 1179
f 1184 1179 1145
f 1185 1180 1184
f 1186 1181 1180
f 1186 1180 1185
f 1187 1182 1181
f 1187 1181 1186
f 1188 1183 1182
f 1188 1154 1183
f 1188 1182 1187
f 1189 1184 1146
f 1189 1146 1149
f 1190 1149 1148
f 1190 1185 1184
f 1190 1184 1189
f 1190 1189 1149
f 1191 1148 1147
f 1191 1185 1190
f 1191 1186 1185
f 1191 1190 1148
f 1192 1147 1153
f 1192 1187 1186
f 1192 1191 1147
f 1192 1186 1191
f 1193 1151 1150
f 1193 1152 1151
f 1193 1153 1152
f 1193 1150 1154
f 1193 1154 1188
f 1193 1188 1187
f 1193 1192 1153
f 1193 1187 1192
f 1203 1211 1202
f 1212 1203 1204
f 1212 1211 1203
f 1213 1204 1205
f 1213 1212 1204
f 1207 1205 1206
f 1214 1213 1205
f 1214 1205 1207
f 1208 1214 1207
f 1209 1214 1208
f 1215 1194 1195
f 1215 1195 1196
f 1215 1196 1197
f 1215 1197 1198
f 1215 1198 1199
f 1215 1199 1200
f 1215 1200 1201
f 1215 1201 1202
f 1215 1210 1194
f 1216 1211 1210
f 1216 1202 1211
f 1216 1215 1202
f 1216 1210 1215
f 1221 1218 1217
f 1221 1219 1218
f 1225 1220 1219
f 1225 1219 1221
f 1222 1225 1221
f 1226 1225 1222
f 1223 1226 1222
f 1224 1226 1223
f 1231 1228 1227
f 1231 1229 1228
f 1231 1230 1229
f 1232 1230 1231
f 1233 1230 1232
f 1234 1230 1233
f 1235 1239 1240
f 1235 1240 1241
f 1235 1241 1242
f 1236 1239 1235
f 1237 1239 1236
f 1238 1239 1237
f 1250 1251 1252
f 1250 1252 1253
f 1250 1253 1254
f 1244 1261 1243
f 1245 1261 1244
f 1262 1254 1255
f 1262 1255 1256
f 1262 1256 1257
f 1262 1257 1258
f 1262 1258 1259
f 1262 1250 1254
f 1263 1249 1250
f 1263 1262 1259
f 1263 1250 1262
f 1264 1248 1249
f 1264 1259 1260
f 1264 1263 1259
f 1264 1249 1263
f 1265 1264 1260
f 1265 1248 1264
f 1266 1245 1246
f 1266 1246 1247
f 1266 1247 1248
f 1266 1260 1261
f 1266 1265 1260
f 1266 1248 1265
f 1266 1261 1245
f 1269 1275 1270
f 1269 1276 1275
f 1273 1277 1276
f 1273 1274 1277
f 1273 1276 1269
f 1268 1273 1269
f 1272 1273 1268
f 1267 1272 1268
f 1271 1272 1267
f 1289 1280 1281
f 1289 1290 1280
f 1288 1281 1282
f 1288 1282 1283
f 1288 1289 1281
f 1285 1283 1284
f 1286 1288 1283
f 1286 1283 1285
f 1287 1288 1286
f 1299 1278 1279
f 1299 1295 1296
f 1299 1296 1297
f 1299 1297 1298
f 1299 1298 1278
f 1300 1299 1291
f 1300 1295 1299
f 1301 1291 1292
f 1301 1292 1293
f 1301 1293 1294
f 1301 1294 1295
f 1301 1295 1300
f 1301 1300 1291
f 1302 1299 1279
f 1302 1291 1299
f 1303 1279 1280
f 1303 1290 1291
f 1303 1291 1302
f 1303 1302 1279
f 1303 1280 1290
f 1329 1316 1315
f 1329 1310 1316
f 1330 1311 1310
f 1330 1329 1315
f 1330 1310 1329
f 1331 1312 1311
f 1331 1311 1330
f 1332 1308 1309
f 1332 1313 1312
f 1332 1309 1313
f 1332 1312 1331
f 1333 1315 1314
f 1333 1314 1317
f 1334 1315 1333
f 1334 1330 1315
f 1335 1330 1334
f 1335 1331 1330
f 1336 1333 1317
f 1337 1308 1332
f 1337 1331 1335
f 1337 1332 1331
f 1338 1333 1336
f 1339 1333 1338
f 1340 1334 1333
f 1340 1333 1339
f 1341 1335 1334
f 1341 1334 1340
f 1342 1307 1308
f 1342 1337 1335
f 1342 1308 1337
f 1342 1335 1341
f 1343 1317 1318
f 1343 1336 1317
f 1344 1338 1336
f 1344 1336 1343
f 1345 1339 1338
f 1345 1338 1344
f 1346 1339 1345
f 1346 1340 1339
f 1347 1343 1318
f 1348 1340 1346
f 1348 1341 1340
f 1348 1342 1341
f 1349 1343 1347
f 1349 1344 1343
f 1349 1345 1344
f 1350 1342 1348
f 1350 1307 1342
f 1351 1345 1349
f 1352 1345 1351
f 1352 1346 1345
f 1353 1346 1352
f 1353 1348 1346
f 1354 1306 1307
f 1354 1350 1348
f 1354 1307 1350
f 1354 1348 1353
f 1355 1318 1319
f 1355 1347 1318
f 1356 1349 1347
f 1356 1351 1349
f 1356 1355 1319
f 1356 1347 1355
f 1357 1351 1356
f 1357 1356 1319
f 1358 1352 1351
f 1358 1351 1357
f 1358 1357 1319
f 1359 1352 1358
f 1359 1353 1352
f 1359 1358 1319
f 1360 1306 1354
f 1360 1354 1353
f 1360 1353 1359
f 1360 1359 1319
f 1361 1319 1320
f 1361 1320 1321
f 1361 1321 1322
f 1361 1322 1323
f 1362 1361 1323
f 1362 1319 1361
f 1363 1319 1362
f 1364 1319 1363
f 1365 1305 1306
f 1365 1360 1319
f 1365 1306 1360
f 1365 1319 1364
f 1366 1327 1326
f 1366 1328 1327
f 1366 1323 1328
f 1366 1362 1323
f 1367 1326 1325
f 1367 1362 1366
f 1367 1363 1362
f 1367 1366 1326
f 1368 1364 1363
f 1368 1363 1367
f 1368 1367 1325
f 1369 1305 1365
f 1369 1365 1364
f 1369 1368 1325
f 1369 1364 1368
f 1370 1304 1305
f 1370 1324 1304
f 1370 1325 1324
f 1370 1305 1369
f 1370 1369 1325
f 1373 1379 1374
f 1377 1380 1379
f 1377 1378 1380
f 1377 1379 1373
f 1376 1373 1372
f 1376 1377 1373
f 1375 1372 1371
f 1375 1376 1372
f 1388 1384 1385
f 1387 1384 1388
f 1386 1381 1382
f 1386 1382 1383
f 1386 1383 1384
f 1386 1384 1387

