# https://github.com/mikedh/trimesh
v 0.00073817 -0.01776386 -0.01017396
v 0.00059304 -0.01229999 -0.01028732
v 0.00061899 -0.00720335 -0.01055947
v -0.00001623 -0.01802136 -0.00991646
v -0.00077572 -0.01835413 -0.00945245
v -0.00144418 -0.01871985 -0.00884648
v -0.00196691 -0.01907314 -0.00817072
v -0.00225569 -0.01930875 -0.00763347
v -0.00245959 -0.01950430 -0.00705686
v -0.00319674 -0.01632168 -0.00704949
v -0.00388377 -0.01047068 -0.00704782
v -0.00409414 -0.00716186 -0.00705305
v -0.00414446 -0.00419402 -0.00705640
v -0.00089715 -0.00619592 -0.01018907
v -0.00231372 -0.00528546 -0.00938064
v -0.00342623 -0.00459902 -0.00831622
v -0.00383488 -0.00435991 -0.00772974
v -0.00341716 -0.00615133 -0.00828016
v -0.00266431 -0.00710795 -0.00899874
v -0.00175884 -0.00769051 -0.00964206
v -0.00280720 -0.00807590 -0.00880919
v -0.00214416 -0.00852562 -0.00932660
v -0.00336983 -0.00768119 -0.00824760
v -0.00121438 -0.00988622 -0.00980827
v -0.00366505 -0.00751603 -0.00787074
v -0.00195034 -0.01779685 -0.00855425
v -0.00219202 -0.01733195 -0.00839735
v -0.00145732 -0.01569285 -0.00923220
v -0.00244519 -0.01756960 -0.00803835
v -0.00058404 -0.00739622 -0.01024188
v -0.00323468 -0.00945717 -0.00826104
v -0.00349160 -0.00923111 -0.00796051
v -0.00284788 -0.01019171 -0.00860739
v -0.00199488 -0.01152761 -0.00921418
v -0.00068893 -0.01190222 -0.00991930
v -0.00262086 -0.01317001 -0.00853975
v -0.00179860 -0.01423487 -0.00912743
v -0.00312084 -0.01107751 -0.00823032
v -0.00062835 -0.01320145 -0.00986461
v -0.00268974 -0.01462392 -0.00828786
v -0.00233307 -0.01544763 -0.00855300
v -0.00031803 -0.01661990 -0.00982027
v -0.00270660 -0.01531660 -0.00816313
v -0.00253904 -0.01603200 -0.00824528
v -0.00242556 -0.01648336 -0.00829799
v 0.00594844 -0.03022066 -0.00763320
v 0.00582048 -0.03048240 -0.00762368
v 0.00548945 -0.03041689 -0.00833326
v 0.00510259 -0.03032998 -0.00883224
v 0.00462601 -0.03021357 -0.00923551
v 0.00403844 -0.03006192 -0.00957695
v 0.00311344 -0.02981194 -0.00992685
v 0.00224729 -0.02956869 -0.01013040
v 0.00134422 -0.02930667 -0.01027130
v 0.00267789 -0.02592830 -0.01014275
v 0.00277065 -0.02566533 -0.01013177
v 0.00384271 -0.02729973 -0.00990661
v 0.00576077 -0.02992023 -0.00829437
v 0.00551234 -0.02955514 -0.00879695
v 0.00522969 -0.02915852 -0.00915388
v 0.00456235 -0.02825366 -0.00963626
v 0.00334521 -0.02916587 -0.00993340
v 0.00246273 -0.02863049 -0.01013887
v 0.00264491 -0.01746730 -0.01023420
v 0.00218742 -0.02104379 -0.01021747
v 0.00154344 -0.01758239 -0.01025250
v 0.00073817 -0.01776386 -0.01017396
v 0.00068613 -0.02176953 -0.01022594
v 0.00040906 -0.02509569 -0.01031448
v 0.00267789 -0.02592830 -0.01014275
v 0.00277065 -0.02566533 -0.01013177
v 0.00207878 -0.02313053 -0.01022609
v 0.00229733 -0.02442729 -0.01020368
v 0.00250319 -0.02505823 -0.01017578
v 0.00305812 -0.01426693 -0.01032096
v 0.00317234 -0.01197078 -0.01041684
v 0.00284118 -0.01015697 -0.01052453
v 0.00228961 -0.00887607 -0.01060520
v 0.00166698 -0.00803149 -0.01063772
v 0.00128068 -0.00767158 -0.01062924
v 0.00085252 -0.00736017 -0.01059186
v 0.00264491 -0.01746730 -0.01023420
v 0.00154344 -0.01758239 -0.01025250
v 0.00073817 -0.01776386 -0.01017396
v 0.00059304 -0.01229999 -0.01028732
v 0.00061899 -0.00720335 -0.01055947
v 0.00165665 -0.01592507 -0.01029473
v -0.00414446 -0.00419402 -0.00294362
v -0.00381027 -0.00437388 -0.00222838
v -0.00336082 -0.00463831 -0.00160505
v -0.00266361 -0.00506616 -0.00090308
v -0.00179009 -0.00561805 -0.00026109
v -0.00085253 -0.00622512 0.00020661
v -0.00012484 -0.00670564 0.00042980
v 0.00061899 -0.00720335 0.00055944
v 0.00073817 -0.01776386 0.00017394
v 0.00059305 -0.01229997 0.00028730
v -0.00001623 -0.01802136 -0.00008356
v -0.00077572 -0.01835413 -0.00054758
v -0.00144418 -0.01871985 -0.00115354
v -0.00196691 -0.01907314 -0.00182931
v -0.00225569 -0.01930875 -0.00236655
v -0.00245959 -0.01950430 -0.00294316
v -0.00319674 -0.01632168 -0.00295053
v -0.00388377 -0.01047068 -0.00295220
v -0.00409414 -0.00716186 -0.00294698
v -0.00304200 -0.00588034 -0.00129436
v -0.00151280 -0.00784100 -0.00021937
v -0.00198265 -0.00754102 -0.00049615
v -0.00248972 -0.00721392 -0.00085891
v -0.00321254 -0.00630881 -0.00149299
v -0.00355184 -0.00604781 -0.00188478
v -0.00214416 -0.00852562 -0.00067342
v -0.00248103 -0.00830081 -0.00092019
v -0.00278884 -0.00808866 -0.00117468
v -0.00316559 -0.00782488 -0.00153156
v -0.00354883 -0.00761599 -0.00197349
v -0.00121438 -0.00988622 -0.00019175
v -0.00195034 -0.01779686 -0.00144578
v -0.00219202 -0.01733195 -0.00160268
v -0.00145732 -0.01569285 -0.00076783
v -0.00244519 -0.01756960 -0.00196167
v -0.00300814 -0.00905879 -0.00145856
v -0.00336583 -0.00934341 -0.00188622
v -0.00323468 -0.00945717 -0.00173898
v -0.00348455 -0.00923744 -0.00203054
v -0.00284788 -0.01019171 -0.00139263
v -0.00199487 -0.01152760 -0.00078585
v -0.00068893 -0.01190220 -0.00008072
v -0.00262086 -0.01317000 -0.00146027
v -0.00179860 -0.01423486 -0.00087259
v -0.00312084 -0.01107751 -0.00176970
v -0.00062835 -0.01320144 -0.00013541
v -0.00268974 -0.01462391 -0.00171217
v -0.00233306 -0.01544763 -0.00144702
v -0.00031803 -0.01661990 -0.00017975
v -0.00270660 -0.01531660 -0.00183690
v -0.00253904 -0.01603200 -0.00175474
v -0.00242556 -0.01648335 -0.00170204
v 0.00384271 -0.02729973 -0.00009341
v 0.00470846 -0.02844946 -0.00044275
v 0.00528814 -0.02923954 -0.00090852
v 0.00554258 -0.02959844 -0.00125136
v 0.00568717 -0.02980947 -0.00152700
v 0.00583644 -0.03003765 -0.00192970
v 0.00594844 -0.03022066 -0.00236683
v 0.00582048 -0.03048240 -0.00237635
v 0.00548946 -0.03041689 -0.00166678
v 0.00510260 -0.03032998 -0.00116779
v 0.00462601 -0.03021357 -0.00076451
v 0.00403845 -0.03006192 -0.00042308
v 0.00311345 -0.02981194 -0.00007318
v 0.00224729 -0.02956868 0.00013038
v 0.00134422 -0.02930667 0.00027128
v 0.00267789 -0.02592830 0.00014273
v 0.00277079 -0.02566562 0.00013172
v 0.00343851 -0.02924711 -0.00009796
v 0.00246273 -0.02863049 0.00013885
v 0.00277079 -0.02566562 0.00013172
v 0.00245949 -0.02494099 0.00018207
v 0.00223746 -0.02419043 0.00021073
v 0.00206108 -0.02262187 0.00022701
v 0.00218742 -0.02104379 0.00021745
v 0.00264491 -0.01746730 0.00023417
v 0.00154344 -0.01758239 0.00025247
v 0.00073817 -0.01776386 0.00017394
v 0.00068613 -0.02176953 0.00022591
v 0.00040906 -0.02509569 0.00031446
v 0.00267789 -0.02592830 0.00014273
v 0.00061899 -0.00720335 0.00055944
v 0.00085252 -0.00736017 0.00059184
v 0.00158045 -0.00794224 0.00063778
v 0.00216604 -0.00867388 0.00061606
v 0.00259997 -0.00949765 0.00056715
v 0.00298259 -0.01068278 0.00049111
v 0.00317802 -0.01206110 0.00041211
v 0.00317363 -0.01316664 0.00036099
v 0.00305812 -0.01426693 0.00032093
v 0.00264491 -0.01746730 0.00023417
v 0.00154344 -0.01758239 0.00025247
v 0.00073817 -0.01776386 0.00017394
v 0.00059305 -0.01229997 0.00028730
v 0.00165665 -0.01592507 0.00029471
v 0.00582048 -0.03048240 -0.00762368
v 0.00611173 -0.03052002 -0.00662389
v 0.00501058 -0.03249211 -0.00754814
v 0.00455312 -0.03437166 -0.00748413
v 0.00490474 -0.03430995 -0.00582805
v 0.00490474 -0.03430995 -0.00417198
v 0.00455312 -0.03437166 -0.00251590
v 0.00582048 -0.03048240 -0.00237635
v 0.00501059 -0.03249210 -0.00245188
v 0.00611173 -0.03052002 -0.00337614
v 0.00617611 -0.03074435 -0.00498955
v 0.00617611 -0.03074435 -0.00501048
v -0.00245959 -0.01950430 -0.00705686
v -0.00319674 -0.01632168 -0.00704949
v -0.00388377 -0.01047068 -0.00704782
v -0.00409414 -0.00716186 -0.00705305
v -0.00414446 -0.00419402 -0.00705640
v -0.00259483 -0.01964493 -0.00641459
v -0.00267230 -0.01972548 -0.00572122
v -0.00269752 -0.01975169 -0.00500001
v -0.00444913 -0.00412326 -0.00500001
v -0.00422069 -0.01018415 -0.00500001
v -0.00355437 -0.01600564 -0.00500001
v -0.00313422 -0.01822140 -0.00500001
v -0.00444912 -0.00412292 -0.00501048
v -0.00432283 -0.00411699 -0.00639003
v -0.00441826 -0.00409760 -0.00570596
v -0.00381944 -0.01348420 -0.00611402
v -0.00322755 -0.01743835 -0.00610678
v -0.00444912 -0.00412292 -0.00498954
v -0.00439460 -0.00409867 -0.00406834
v -0.00429990 -0.00412525 -0.00349957
v -0.00414446 -0.00419402 -0.00294362
v -0.00245959 -0.01950430 -0.00294316
v -0.00319674 -0.01632168 -0.00295053
v -0.00388377 -0.01047068 -0.00295220
v -0.00409414 -0.00716186 -0.00294698
v -0.00259484 -0.01964493 -0.00358543
v -0.00267231 -0.01972548 -0.00427881
v -0.00269752 -0.01975169 -0.00500001
v -0.00444913 -0.00412326 -0.00500001
v -0.00422069 -0.01018415 -0.00500001
v -0.00355437 -0.01600564 -0.00500001
v -0.00313422 -0.01822140 -0.00500001
v -0.00381944 -0.01348420 -0.00388601
v -0.00322755 -0.01743835 -0.00389325
v 0.00267789 -0.02592830 -0.01014275
v 0.00134422 -0.02930667 -0.01027130
v 0.00059836 -0.02902599 -0.01035681
v 0.00013646 -0.02873570 -0.01038455
v -0.00032972 -0.02831499 -0.01038439
v 0.00006008 -0.02694709 -0.01036581
v 0.00040906 -0.02509569 -0.01031448
v 0.00134422 -0.02930667 -0.01027130
v 0.00236928 -0.04569767 -0.00332174
v 0.00254426 -0.04567817 -0.00500001
v 0.00234753 -0.04569179 -0.00321484
v 0.00233588 -0.04566866 -0.00314039
v 0.00232720 -0.04561804 -0.00305500
v 0.00232472 -0.04554484 -0.00297718
v 0.00232834 -0.04546661 -0.00292108
v 0.00233740 -0.04538361 -0.00288261
v 0.00234681 -0.04532465 -0.00286659
v 0.00235807 -0.04526739 -0.00285877
v 0.00237033 -0.04521171 -0.00285605
v 0.00455312 -0.03437166 -0.00251590
v 0.00359572 -0.03950574 -0.00267636
v 0.00455312 -0.03437166 -0.00748413
v 0.00490474 -0.03430995 -0.00582805
v 0.00490474 -0.03430995 -0.00417198
v 0.00359572 -0.03950574 -0.00732366
v 0.00237033 -0.04521171 -0.00714398
v 0.00233740 -0.04538361 -0.00711741
v 0.00235027 -0.04530729 -0.00713567
v 0.00236928 -0.04569767 -0.00667829
v 0.00235061 -0.04569381 -0.00676920
v 0.00233881 -0.04567711 -0.00683856
v 0.00233072 -0.04564556 -0.00690416
v 0.00232571 -0.04559644 -0.00697138
v 0.00232489 -0.04553473 -0.00703129
v 0.00232853 -0.04546431 -0.00708020
v 0.00233231 -0.04542449 -0.00710087
v 0.00349273 -0.04152851 -0.00500001
v 0.00393913 -0.03945700 -0.00500001
v 0.00428775 -0.03773750 -0.00473586
v 0.00442298 -0.03688376 -0.00580139
v 0.00233740 -0.04538361 -0.00711741
v 0.00235027 -0.04530729 -0.00713567
v 0.00237033 -0.04521171 -0.00714398
v 0.00236928 -0.04569767 -0.00667829
v 0.00235061 -0.04569381 -0.00676920
v 0.00233881 -0.04567711 -0.00683856
v 0.00233072 -0.04564556 -0.00690416
v 0.00232571 -0.04559644 -0.00697138
v 0.00232489 -0.04553473 -0.00703129
v 0.00232853 -0.04546431 -0.00708020
v 0.00233231 -0.04542449 -0.00710087
v 0.00013379 -0.04892316 -0.00667825
v 0.00048610 -0.04882552 -0.00667831
v 0.00084716 -0.04861672 -0.00667855
v 0.00118821 -0.04830629 -0.00667885
v 0.00151954 -0.04788219 -0.00667913
v 0.00190463 -0.04717686 -0.00667926
v 0.00218059 -0.04642522 -0.00667895
v 0.00011623 -0.04879175 -0.00709679
v 0.00008191 -0.04852872 -0.00752755
v 0.00003205 -0.04813911 -0.00794674
v -0.00003339 -0.04761410 -0.00835218
v -0.00010831 -0.04698534 -0.00869646
v -0.00018669 -0.04627082 -0.00895613
v -0.00025647 -0.04552636 -0.00913153
v 0.00087672 -0.04539178 -0.00877657
v 0.00158756 -0.04530791 -0.00834889
v 0.00199439 -0.04525957 -0.00794292
v 0.00222528 -0.04523109 -0.00755673
v 0.00230485 -0.04522068 -0.00735457
v 0.00217504 -0.04548774 -0.00752812
v 0.00216671 -0.04553643 -0.00751832
v 0.00170521 -0.04612287 -0.00797131
v 0.00196246 -0.04656434 -0.00724846
v 0.00141587 -0.04719871 -0.00768238
v 0.00119058 -0.04644258 -0.00831155
v 0.00163663 -0.04746497 -0.00708240
v 0.00078274 -0.04686465 -0.00839547
v 0.00036535 -0.04651412 -0.00871961
v 0.00143232 -0.04776735 -0.00713125
v 0.00073828 -0.04754855 -0.00805411
v 0.00110595 -0.04814043 -0.00720097
v 0.00072250 -0.04804333 -0.00769421
v 0.00074944 -0.04837982 -0.00732187
v 0.00044938 -0.04871487 -0.00706293
v 0.00236928 -0.04569767 -0.00667829
v 0.00254426 -0.04567817 -0.00500001
v 0.00013379 -0.04892316 -0.00667825
v 0.00048610 -0.04882552 -0.00667831
v 0.00084716 -0.04861672 -0.00667855
v 0.00118821 -0.04830629 -0.00667885
v 0.00151954 -0.04788219 -0.00667913
v 0.00190463 -0.04717686 -0.00667926
v 0.00218059 -0.04642522 -0.00667895
v 0.00015798 -0.04910169 -0.00500001
v 0.00200599 -0.04732842 -0.00500001
v 0.00156469 -0.04808587 -0.00500000
v 0.00106948 -0.04864311 -0.00500000
v 0.00066189 -0.04893101 -0.00500001
v 0.00039209 -0.04904567 -0.00500001
v -0.00183093 -0.04897102 -0.00500001
v -0.00183928 -0.04891410 -0.00586448
v -0.00186523 -0.04873735 -0.00668147
v -0.00124133 -0.04890832 -0.00667835
v -0.00040850 -0.04896141 -0.00667801
v 0.00013379 -0.04892316 -0.00667825
v 0.00015798 -0.04910169 -0.00500001
v -0.00112733 -0.04911294 -0.00500001
v -0.00034532 -0.04914298 -0.00500001
v -0.00348578 -0.04765235 -0.00500001
v -0.00350681 -0.04745616 -0.00669896
v -0.00186523 -0.04873735 -0.00668147
v -0.00249794 -0.04841727 -0.00668753
v -0.00309096 -0.04793140 -0.00669395
v -0.00183093 -0.04897102 -0.00500001
v -0.00183928 -0.04891410 -0.00586448
v -0.00290489 -0.04832156 -0.00500001
v -0.00234513 -0.04874614 -0.00500001
v -0.00226798 -0.04576559 -0.00924610
v -0.00216924 -0.04658683 -0.00900851
v -0.00207118 -0.04732196 -0.00860870
v -0.00198692 -0.04791233 -0.00808057
v -0.00192478 -0.04833179 -0.00753755
v -0.00188639 -0.04859072 -0.00706912
v -0.00186523 -0.04873735 -0.00668147
v -0.00249794 -0.04841727 -0.00668753
v -0.00309096 -0.04793140 -0.00669395
v -0.00350681 -0.04745616 -0.00669896
v -0.00395201 -0.04671523 -0.00701172
v -0.00373847 -0.04706865 -0.00698258
v -0.00363543 -0.04722807 -0.00693539
v -0.00357276 -0.04732603 -0.00688321
v -0.00353923 -0.04738175 -0.00683654
v -0.00351939 -0.04741883 -0.00679001
v -0.00350981 -0.04744195 -0.00674445
v -0.00395363 -0.04669939 -0.00706309
v -0.00387686 -0.04648604 -0.00779219
v -0.00367787 -0.04628280 -0.00837783
v -0.00351805 -0.04616973 -0.00865037
v -0.00332089 -0.04605976 -0.00887674
v -0.00308776 -0.04595860 -0.00904756
v -0.00279597 -0.04586501 -0.00916784
v -0.00254450 -0.04580789 -0.00921960
v -0.00271335 -0.04661727 -0.00893092
v -0.00283602 -0.04663180 -0.00888722
v -0.00275782 -0.04696388 -0.00872169
v -0.00308253 -0.04667103 -0.00874314
v -0.00286678 -0.04696701 -0.00867193
v -0.00325191 -0.04720776 -0.00807055
v -0.00308047 -0.04759453 -0.00771692
v -0.00260594 -0.04815814 -0.00722563
v -0.00304568 -0.04781441 -0.00726730
v -0.00252707 -0.04049825 -0.01007368
v -0.00247323 -0.04320237 -0.00973067
v -0.00226798 -0.04576559 -0.00924610
v -0.00395201 -0.04671523 -0.00701172
v -0.00395363 -0.04669939 -0.00706309
v -0.00387686 -0.04648604 -0.00779219
v -0.00367787 -0.04628280 -0.00837783
v -0.00351805 -0.04616973 -0.00865037
v -0.00332089 -0.04605976 -0.00887674
v -0.00308776 -0.04595860 -0.00904756
v -0.00279597 -0.04586501 -0.00916784
v -0.00254450 -0.04580789 -0.00921960
v -0.00471552 -0.04479903 -0.00703221
v -0.00519171 -0.04254087 -0.00704807
v -0.00535906 -0.04096972 -0.00705686
v -0.00318089 -0.04053037 -0.01000298
v -0.00359776 -0.04057007 -0.00985112
v -0.00399157 -0.04061995 -0.00958599
v -0.00430669 -0.04067008 -0.00925815
v -0.00467601 -0.04074476 -0.00870101
v -0.00502286 -0.04083880 -0.00796664
v -0.00364529 -0.04141815 -0.00973297
v -0.00327230 -0.04185159 -0.00982915
v -0.00345899 -0.04185959 -0.00976394
v -0.00435613 -0.04208295 -0.00898965
v -0.00497059 -0.04155573 -0.00794707
v -0.00507876 -0.04157661 -0.00767528
v -0.00518618 -0.04159731 -0.00738665
v -0.00305358 -0.04459866 -0.00941310
v -0.00465157 -0.04352958 -0.00812053
v -0.00434057 -0.04291597 -0.00884697
v -0.00421166 -0.04393999 -0.00875842
v -0.00328298 -0.04512450 -0.00920638
v -0.00321577 -0.04463984 -0.00935489
v -0.00401286 -0.04474858 -0.00874229
v -0.00424669 -0.04564339 -0.00781038
v -0.00428658 -0.04568925 -0.00764549
v -0.00349709 -0.04263841 -0.00963326
v -0.00350552 -0.04303951 -0.00956206
v -0.00346276 -0.04351321 -0.00949456
v -0.00378110 -0.04332150 -0.00934596
v -0.00338466 -0.04389443 -0.00945272
v 0.00013379 -0.04892316 -0.00667825
v 0.00011623 -0.04879175 -0.00709679
v 0.00008191 -0.04852872 -0.00752755
v 0.00003205 -0.04813911 -0.00794674
v -0.00003339 -0.04761410 -0.00835218
v -0.00010831 -0.04698534 -0.00869646
v -0.00018669 -0.04627082 -0.00895613
v -0.00025647 -0.04552636 -0.00913153
v -0.00186523 -0.04873735 -0.00668147
v -0.00124133 -0.04890832 -0.00667835
v -0.00040850 -0.04896141 -0.00667801
v -0.00226798 -0.04576559 -0.00924610
v -0.00216924 -0.04658683 -0.00900851
v -0.00207118 -0.04732196 -0.00860870
v -0.00198692 -0.04791233 -0.00808057
v -0.00192478 -0.04833179 -0.00753755
v -0.00188639 -0.04859072 -0.00706912
v -0.00085587 -0.04838479 -0.00777694
v -0.00080406 -0.04871923 -0.00730321
v 0.00455312 -0.03437166 -0.00748413
v 0.00359572 -0.03950574 -0.00732366
v 0.00237033 -0.04521171 -0.00714398
v -0.00025647 -0.04552636 -0.00913153
v 0.00087672 -0.04539178 -0.00877657
v 0.00158756 -0.04530791 -0.00834889
v 0.00199439 -0.04525957 -0.00794292
v 0.00222528 -0.04523109 -0.00755673
v 0.00230485 -0.04522068 -0.00735457
v -0.00036576 -0.04202388 -0.00972558
v -0.00021738 -0.03849077 -0.01008887
v 0.00002729 -0.03494620 -0.01025750
v 0.00191783 -0.03471991 -0.00979473
v 0.00327386 -0.03455197 -0.00908333
v 0.00401640 -0.03445394 -0.00843276
v 0.00437050 -0.03440221 -0.00792461
v 0.00447364 -0.03438541 -0.00770162
v 0.00256909 -0.03581282 -0.00938189
v 0.00307198 -0.03742185 -0.00878982
v 0.00219802 -0.03644436 -0.00951153
v 0.00161879 -0.03651406 -0.00976695
v 0.00164779 -0.03993958 -0.00933357
v 0.00139366 -0.04416082 -0.00873359
v 0.00085541 -0.04363727 -0.00911197
v 0.00125107 -0.04359157 -0.00892638
v 0.00397849 -0.03587900 -0.00812059
v 0.00350807 -0.03844772 -0.00804130
v 0.00256655 -0.03890683 -0.00892631
v 0.00330006 -0.03918701 -0.00811793
v 0.00162751 -0.03746030 -0.00966740
v 0.00162856 -0.03793390 -0.00961301
v 0.00198462 -0.03825297 -0.00939823
v 0.00300287 -0.03968886 -0.00835842
v 0.00228148 -0.04070149 -0.00880352
v 0.00312824 -0.04008903 -0.00807828
v 0.00223672 -0.04221755 -0.00851617
v 0.00134895 -0.03867758 -0.00964403
v 0.00153126 -0.04162949 -0.00912343
v 0.00106298 -0.04134897 -0.00939779
v 0.00246927 -0.04369547 -0.00779739
v 0.00113482 -0.04209554 -0.00924731
v -0.00212974 -0.03520273 -0.01037590
v -0.00298285 -0.03530566 -0.01027043
v -0.00339059 -0.03535531 -0.01012297
v -0.00384102 -0.03541005 -0.00984071
v -0.00420511 -0.03545394 -0.00948193
v -0.00461149 -0.03550209 -0.00888403
v -0.00498412 -0.03554495 -0.00808976
v -0.00533872 -0.03558439 -0.00709644
v -0.00547120 -0.03831667 -0.00709117
v -0.00535906 -0.04096972 -0.00705686
v -0.00252707 -0.04049825 -0.01007368
v -0.00318089 -0.04053037 -0.01000298
v -0.00359776 -0.04057007 -0.00985112
v -0.00399157 -0.04061995 -0.00958599
v -0.00430669 -0.04067008 -0.00925815
v -0.00467601 -0.04074476 -0.00870101
v -0.00502286 -0.04083880 -0.00796664
v -0.00241895 -0.03789055 -0.01027081
v -0.00367125 -0.03981114 -0.00988496
v -0.00328850 -0.03933146 -0.01007686
v -0.00348974 -0.03937214 -0.01000449
v -0.00395904 -0.03987160 -0.00969099
v -0.00375647 -0.03943049 -0.00986743
v -0.00461681 -0.03911284 -0.00901525
v -0.00317011 -0.03670602 -0.01021496
v -0.00520903 -0.03969824 -0.00773134
v -0.00455205 -0.03814812 -0.00916293
v -0.00355835 -0.03631875 -0.01006130
v -0.00339581 -0.03674918 -0.01013781
v -0.00532008 -0.03976850 -0.00742081
v -0.00446888 -0.03727905 -0.00927733
v -0.00508731 -0.03686549 -0.00807965
v -0.00520583 -0.03690370 -0.00777263
v -0.00532028 -0.03694641 -0.00745025
v -0.00365470 -0.03849834 -0.00997963
v -0.00359181 -0.03801410 -0.01002981
v -0.00353298 -0.03759748 -0.01006857
v -0.00348578 -0.04765235 -0.00500001
v -0.00350681 -0.04745616 -0.00669896
v -0.00395201 -0.04671523 -0.00701172
v -0.00373847 -0.04706865 -0.00698258
v -0.00363543 -0.04722807 -0.00693539
v -0.00357276 -0.04732603 -0.00688321
v -0.00353923 -0.04738175 -0.00683654
v -0.00351939 -0.04741883 -0.00679001
v -0.00350981 -0.04744195 -0.00674445
v -0.00471552 -0.04479903 -0.00703221
v -0.00519171 -0.04254087 -0.00704807
v -0.00535906 -0.04096972 -0.00705686
v -0.00552600 -0.04105973 -0.00641459
v -0.00562160 -0.04111128 -0.00572122
v -0.00565272 -0.04112805 -0.00500001
v -0.00451679 -0.04575181 -0.00500001
v -0.00535368 -0.04310085 -0.00500001
v 0.00582048 -0.03048240 -0.00762368
v 0.00501058 -0.03249211 -0.00754814
v 0.00455312 -0.03437166 -0.00748413
v 0.00002729 -0.03494620 -0.01025750
v 0.00191783 -0.03471991 -0.00979473
v 0.00327386 -0.03455197 -0.00908333
v 0.00401640 -0.03445394 -0.00843276
v 0.00437050 -0.03440221 -0.00792461
v 0.00447364 -0.03438541 -0.00770162
v 0.00134422 -0.02930667 -0.01027130
v 0.00046571 -0.03185078 -0.01028765
v 0.00015892 -0.03353071 -0.01028150
v 0.00548945 -0.03041689 -0.00833326
v 0.00510259 -0.03032998 -0.00883224
v 0.00462601 -0.03021357 -0.00923551
v 0.00403844 -0.03006192 -0.00957695
v 0.00311344 -0.02981194 -0.00992685
v 0.00224729 -0.02956869 -0.01013040
v 0.00501069 -0.03128160 -0.00843526
v 0.00374923 -0.03242739 -0.00916180
v 0.00429154 -0.03360013 -0.00832793
v 0.00344464 -0.03240722 -0.00935201
v 0.00236462 -0.03076359 -0.01000659
v 0.00194288 -0.03351290 -0.00987605
v 0.00112608 -0.03352012 -0.01011142
v -0.00025647 -0.04552636 -0.00913153
v -0.00036576 -0.04202388 -0.00972558
v -0.00021738 -0.03849077 -0.01008887
v 0.00002729 -0.03494620 -0.01025750
v -0.00226798 -0.04576559 -0.00924610
v -0.00252707 -0.04049825 -0.01007368
v -0.00247323 -0.04320237 -0.00973067
v -0.00212974 -0.03520273 -0.01037590
v -0.00241895 -0.03789055 -0.01027081
v -0.00291369 -0.02675702 -0.00705686
v -0.00234926 -0.02696552 -0.00829431
v -0.00151279 -0.02741379 -0.00955210
v -0.00107499 -0.02769073 -0.01000639
v -0.00076549 -0.02791281 -0.01024096
v -0.00056364 -0.02808151 -0.01034138
v -0.00043448 -0.02820550 -0.01037544
v -0.00032972 -0.02831499 -0.01038439
v -0.00410437 -0.02954616 -0.00706280
v -0.00489939 -0.03253378 -0.00708084
v -0.00533872 -0.03558439 -0.00709644
v -0.00212974 -0.03520273 -0.01037590
v -0.00298285 -0.03530566 -0.01027043
v -0.00339059 -0.03535531 -0.01012297
v -0.00384102 -0.03541005 -0.00984071
v -0.00420511 -0.03545394 -0.00948193
v -0.00461149 -0.03550209 -0.00888403
v -0.00498412 -0.03554495 -0.00808976
v -0.00141133 -0.03166367 -0.01041023
v -0.00293992 -0.03394280 -0.01025150
v -0.00325001 -0.03396035 -0.01011468
v -0.00242860 -0.03329560 -0.01036062
v -0.00267540 -0.03327275 -0.01029791
v -0.00289977 -0.03326793 -0.01021434
v -0.00478788 -0.03405462 -0.00809150
v -0.00491262 -0.03405902 -0.00777764
v -0.00503483 -0.03406361 -0.00744799
v -0.00153992 -0.02955609 -0.01021092
v -0.00397304 -0.03109525 -0.00834895
v -0.00366343 -0.03187642 -0.00920319
v -0.00322218 -0.03048857 -0.00916613
v -0.00139552 -0.02893857 -0.01014954
v -0.00268299 -0.02940745 -0.00929614
v -0.00305181 -0.02826685 -0.00815813
v -0.00334673 -0.02817576 -0.00756407
v -0.00419353 -0.03450618 -0.00935015
v -0.00416468 -0.03402797 -0.00927344
v -0.00408720 -0.03370587 -0.00928978
v -0.00391514 -0.03306529 -0.00931765
v -0.00268416 -0.03216230 -0.01016488
v -0.00255419 -0.03162165 -0.01013291
v -0.00233555 -0.03099125 -0.01011951
v -0.00280391 -0.03126025 -0.00987624
v -0.00207146 -0.03049511 -0.01015131
v -0.00454376 -0.03178564 -0.00756019
v -0.00535906 -0.04096972 -0.00705686
v -0.00552600 -0.04105973 -0.00641459
v -0.00562160 -0.04111128 -0.00572122
v -0.00565272 -0.04112805 -0.00500001
v -0.00533872 -0.03558439 -0.00709644
v -0.00547120 -0.03831667 -0.00709117
v -0.00291369 -0.02675702 -0.00705686
v -0.00410437 -0.02954616 -0.00706280
v -0.00489939 -0.03253378 -0.00708084
v -0.00324378 -0.02669948 -0.00500001
v -0.00316449 -0.02671330 -0.00607300
v -0.00572346 -0.03739942 -0.00500001
v -0.00540963 -0.03380737 -0.00500001
v -0.00462742 -0.03015449 -0.00500001
v -0.00401515 -0.02839391 -0.00500001
v -0.00565093 -0.03997520 -0.00607994
v 0.00134422 -0.02930667 -0.01027130
v 0.00059836 -0.02902599 -0.01035681
v 0.00013646 -0.02873570 -0.01038455
v -0.00032972 -0.02831499 -0.01038439
v -0.00212974 -0.03520273 -0.01037590
v -0.00141133 -0.03166367 -0.01041023
v 0.00002729 -0.03494620 -0.01025750
v 0.00046571 -0.03185078 -0.01028765
v 0.00015892 -0.03353071 -0.01028150
v -0.00032972 -0.02831499 -0.01038439
v 0.00006008 -0.02694709 -0.01036581
v 0.00040906 -0.02509569 -0.01031448
v -0.00291369 -0.02675702 -0.00705686
v -0.00234926 -0.02696552 -0.00829431
v -0.00151279 -0.02741379 -0.00955210
v -0.00107499 -0.02769073 -0.01000639
v -0.00076549 -0.02791281 -0.01024096
v -0.00056364 -0.02808151 -0.01034138
v -0.00043448 -0.02820550 -0.01037544
v -0.00237151 -0.02562190 -0.00705670
v -0.00195408 -0.02419819 -0.00705657
v -0.00124728 -0.02446418 -0.00874399
v -0.00069598 -0.02467401 -0.00958514
v -0.00021406 -0.02485716 -0.01004147
v 0.00011715 -0.02498341 -0.01023411
v 0.00027090 -0.02504234 -0.01028897
v -0.00025456 -0.02578464 -0.01016153
v -0.00036715 -0.02765543 -0.01035104
v -0.00049125 -0.02754392 -0.01030056
v -0.00177363 -0.02602751 -0.00853523
v -0.00246462 -0.02633990 -0.00755725
v -0.00105053 -0.02595319 -0.00950232
v -0.00117609 -0.02673959 -0.00961846
v -0.00245959 -0.01950430 -0.00705686
v -0.00259483 -0.01964493 -0.00641459
v -0.00267230 -0.01972548 -0.00572122
v -0.00269752 -0.01975169 -0.00500001
v -0.00196673 -0.02122877 -0.00705654
v -0.00182279 -0.02267869 -0.00705649
v -0.00195408 -0.02419819 -0.00705657
v -0.00291369 -0.02675702 -0.00705686
v -0.00237151 -0.02562190 -0.00705670
v -0.00324378 -0.02669948 -0.00500001
v -0.00316449 -0.02671330 -0.00607300
v -0.00219872 -0.02179090 -0.00500001
v -0.00216039 -0.02312349 -0.00500001
v -0.00247764 -0.02492213 -0.00500001
v -0.00284195 -0.02588429 -0.00500001
v 0.00073817 -0.01776386 -0.01017396
v 0.00068613 -0.02176953 -0.01022594
v 0.00040906 -0.02509569 -0.01031448
v -0.00195408 -0.02419819 -0.00705657
v -0.00124728 -0.02446418 -0.00874399
v -0.00069598 -0.02467401 -0.00958514
v -0.00021406 -0.02485716 -0.01004147
v 0.00011715 -0.02498341 -0.01023411
v 0.00027090 -0.02504234 -0.01028897
v -0.00245959 -0.01950430 -0.00705686
v -0.00196673 -0.02122877 -0.00705654
v -0.00182279 -0.02267869 -0.00705649
v -0.00001623 -0.01802136 -0.00991646
v -0.00077572 -0.01835413 -0.00945245
v -0.00144418 -0.01871985 -0.00884648
v -0.00196691 -0.01907314 -0.00817072
v -0.00225569 -0.01930875 -0.00763347
v 0.00042918 -0.01944820 -0.01009327
v 0.00007143 -0.01951554 -0.00994133
v -0.00028805 -0.01959638 -0.00972852
v -0.00111410 -0.02026376 -0.00892734
v 0.00024019 -0.02380195 -0.01018608
v -0.00000255 -0.02369760 -0.01005325
v -0.00033237 -0.02356101 -0.00980253
v -0.00137642 -0.02190617 -0.00828469
v -0.00099755 -0.02136372 -0.00898350
v -0.00097391 -0.02237473 -0.00898716
v -0.00103313 -0.02321328 -0.00891209
v 0.00025518 -0.02053626 -0.01004734
v -0.00017542 -0.02151849 -0.00982574
v -0.00018473 -0.02211801 -0.00984008
v -0.00046823 -0.02183760 -0.00959179
v 0.00267789 -0.02592830 0.00014273
v 0.00134422 -0.02930667 0.00027128
v 0.00059836 -0.02902599 0.00035678
v 0.00013647 -0.02873570 0.00038452
v -0.00032972 -0.02831499 0.00038437
v 0.00006008 -0.02694709 0.00036578
v 0.00040906 -0.02509569 0.00031446
v 0.00134422 -0.02930667 0.00027128
v -0.00186523 -0.04873735 -0.00331856
v -0.00124132 -0.04890832 -0.00332168
v -0.00040850 -0.04896141 -0.00332201
v 0.00013379 -0.04892316 -0.00332177
v 0.00015798 -0.04910169 -0.00500001
v -0.00183093 -0.04897102 -0.00500001
v -0.00112733 -0.04911294 -0.00500001
v -0.00034532 -0.04914298 -0.00500001
v -0.00183928 -0.04891410 -0.00413555
v 0.00236928 -0.04569767 -0.00332174
v 0.00234753 -0.04569179 -0.00321484
v 0.00233588 -0.04566866 -0.00314039
v 0.00232720 -0.04561804 -0.00305500
v 0.00232472 -0.04554484 -0.00297718
v 0.00232834 -0.04546661 -0.00292108
v 0.00233740 -0.04538361 -0.00288261
v 0.00013379 -0.04892316 -0.00332177
v 0.00048610 -0.04882552 -0.00332171
v 0.00084716 -0.04861672 -0.00332148
v 0.00118821 -0.04830630 -0.00332118
v 0.00151954 -0.04788219 -0.00332090
v 0.00190463 -0.04717686 -0.00332077
v 0.00218059 -0.04642522 -0.00332107
v 0.00011623 -0.04879175 -0.00290324
v 0.00008191 -0.04852872 -0.00247247
v 0.00003205 -0.04813911 -0.00205328
v -0.00003339 -0.04761410 -0.00164785
v -0.00010831 -0.04698534 -0.00130357
v -0.00018669 -0.04627082 -0.00104389
v -0.00025647 -0.04552636 -0.00086850
v 0.00087672 -0.04539178 -0.00122346
v 0.00158756 -0.04530791 -0.00165114
v 0.00199439 -0.04525957 -0.00205710
v 0.00222528 -0.04523110 -0.00244330
v 0.00230485 -0.04522068 -0.00264545
v 0.00237033 -0.04521171 -0.00285605
v 0.00234681 -0.04532465 -0.00286659
v 0.00235807 -0.04526739 -0.00285877
v 0.00216624 -0.04553925 -0.00248233
v 0.00170521 -0.04612287 -0.00202872
v 0.00119058 -0.04644258 -0.00168847
v 0.00141587 -0.04719871 -0.00231764
v 0.00163663 -0.04746497 -0.00291762
v 0.00078275 -0.04686465 -0.00160456
v 0.00036535 -0.04651412 -0.00128042
v 0.00143232 -0.04776735 -0.00286877
v 0.00073828 -0.04754855 -0.00194591
v 0.00110595 -0.04814043 -0.00279906
v 0.00072250 -0.04804333 -0.00230582
v 0.00074944 -0.04837982 -0.00267816
v 0.00044938 -0.04871487 -0.00293710
v 0.00205947 -0.04598206 -0.00252453
v 0.00254426 -0.04567817 -0.00500001
v 0.00200599 -0.04732842 -0.00500001
v 0.00156469 -0.04808587 -0.00500000
v 0.00106948 -0.04864311 -0.00500000
v 0.00066189 -0.04893101 -0.00500001
v 0.00039209 -0.04904567 -0.00500001
v 0.00015798 -0.04910169 -0.00500001
v 0.00236928 -0.04569767 -0.00332174
v 0.00013379 -0.04892316 -0.00332177
v 0.00048610 -0.04882552 -0.00332171
v 0.00084716 -0.04861672 -0.00332148
v 0.00118821 -0.04830630 -0.00332118
v 0.00151954 -0.04788219 -0.00332090
v 0.00190463 -0.04717686 -0.00332077
v 0.00218059 -0.04642522 -0.00332107
v -0.00186523 -0.04873735 -0.00331856
v -0.00235315 -0.04850606 -0.00331397
v -0.00291384 -0.04809863 -0.00330804
v -0.00350681 -0.04745616 -0.00330107
v -0.00183093 -0.04897102 -0.00500001
v -0.00183928 -0.04891410 -0.00413555
v -0.00348578 -0.04765235 -0.00500001
v -0.00290489 -0.04832156 -0.00500001
v -0.00234513 -0.04874614 -0.00500001
v -0.00186523 -0.04873735 -0.00331856
v -0.00235315 -0.04850606 -0.00331397
v -0.00291384 -0.04809863 -0.00330804
v -0.00350681 -0.04745616 -0.00330107
v -0.00395201 -0.04671523 -0.00298830
v -0.00374217 -0.04706286 -0.00301637
v -0.00363524 -0.04722836 -0.00306476
v -0.00357226 -0.04732688 -0.00311750
v -0.00353904 -0.04738206 -0.00316376
v -0.00351883 -0.04742000 -0.00321185
v -0.00350926 -0.04744361 -0.00325976
v -0.00395363 -0.04669939 -0.00293694
v -0.00387686 -0.04648604 -0.00220784
v -0.00367787 -0.04628280 -0.00162219
v -0.00343849 -0.04612213 -0.00124681
v -0.00320966 -0.04600814 -0.00103130
v -0.00296170 -0.04591416 -0.00089034
v -0.00263758 -0.04582678 -0.00079551
v -0.00226798 -0.04576559 -0.00075393
v -0.00216924 -0.04658683 -0.00099152
v -0.00207118 -0.04732196 -0.00139133
v -0.00198692 -0.04791233 -0.00191945
v -0.00192478 -0.04833179 -0.00246248
v -0.00188639 -0.04859072 -0.00293091
v -0.00264919 -0.04661106 -0.00105176
v -0.00278478 -0.04662530 -0.00109270
v -0.00270903 -0.04696287 -0.00126058
v -0.00305342 -0.04666578 -0.00123507
v -0.00286678 -0.04696701 -0.00132809
v -0.00325180 -0.04720805 -0.00192970
v -0.00308033 -0.04759487 -0.00228352
v -0.00251154 -0.04820923 -0.00275709
v -0.00298977 -0.04785057 -0.00270008
v -0.00395201 -0.04671523 -0.00298830
v -0.00395363 -0.04669939 -0.00293694
v -0.00387686 -0.04648604 -0.00220784
v -0.00367787 -0.04628280 -0.00162219
v -0.00343849 -0.04612213 -0.00124681
v -0.00320966 -0.04600814 -0.00103130
v -0.00296170 -0.04591416 -0.00089034
v -0.00263758 -0.04582678 -0.00079551
v -0.00226798 -0.04576559 -0.00075393
v -0.00471551 -0.04479909 -0.00296782
v -0.00519171 -0.04254089 -0.00295196
v -0.00535906 -0.04096972 -0.00294316
v -0.00252707 -0.04049825 0.00007366
v -0.00318089 -0.04053037 0.00000295
v -0.00359776 -0.04057007 -0.00014890
v -0.00399157 -0.04061995 -0.00041403
v -0.00430669 -0.04067008 -0.00074188
v -0.00467601 -0.04074476 -0.00129901
v -0.00502286 -0.04083880 -0.00203338
v -0.00247323 -0.04320238 -0.00026935
v -0.00364530 -0.04141815 -0.00026705
v -0.00327230 -0.04185160 -0.00017088
v -0.00345899 -0.04185959 -0.00023609
v -0.00435613 -0.04208297 -0.00101038
v -0.00497059 -0.04155574 -0.00205296
v -0.00507876 -0.04157662 -0.00232475
v -0.00518618 -0.04159733 -0.00261338
v -0.00297060 -0.04457980 -0.00056395
v -0.00465156 -0.04352962 -0.00187949
v -0.00434058 -0.04291599 -0.00115306
v -0.00421166 -0.04394002 -0.00124160
v -0.00319319 -0.04509453 -0.00074789
v -0.00314748 -0.04462180 -0.00061833
v -0.00337072 -0.04468477 -0.00072006
v -0.00342918 -0.04517852 -0.00088591
v -0.00408462 -0.04478319 -0.00136432
v -0.00428657 -0.04568928 -0.00235454
v -0.00349709 -0.04263843 -0.00036677
v -0.00350552 -0.04303953 -0.00043797
v -0.00346276 -0.04351323 -0.00050547
v -0.00378110 -0.04332152 -0.00065407
v -0.00343973 -0.04390628 -0.00057409
v -0.00186523 -0.04873735 -0.00331856
v -0.00124132 -0.04890832 -0.00332168
v -0.00040850 -0.04896141 -0.00332201
v 0.00013379 -0.04892316 -0.00332177
v -0.00226798 -0.04576559 -0.00075393
v -0.00216924 -0.04658683 -0.00099152
v -0.00207118 -0.04732196 -0.00139133
v -0.00198692 -0.04791233 -0.00191945
v -0.00192478 -0.04833179 -0.00246248
v -0.00188639 -0.04859072 -0.00293091
v -0.00025647 -0.04552636 -0.00086850
v 0.00011623 -0.04879175 -0.00290324
v 0.00008191 -0.04852872 -0.00247247
v 0.00003205 -0.04813911 -0.00205328
v -0.00003339 -0.04761410 -0.00164785
v -0.00010831 -0.04698534 -0.00130357
v -0.00018669 -0.04627082 -0.00104389
v -0.00085587 -0.04838479 -0.00222308
v -0.00080406 -0.04871923 -0.00269681
v -0.00025647 -0.04552636 -0.00086850
v 0.00087672 -0.04539178 -0.00122346
v 0.00158756 -0.04530791 -0.00165114
v 0.00199439 -0.04525957 -0.00205710
v 0.00222528 -0.04523110 -0.00244330
v 0.00230485 -0.04522068 -0.00264545
v 0.00237033 -0.04521171 -0.00285605
v -0.00036575 -0.04202388 -0.00027445
v -0.00021738 -0.03849077 0.00008884
v 0.00002729 -0.03494620 0.00025747
v 0.00191783 -0.03471991 -0.00020529
v 0.00327386 -0.03455197 -0.00091670
v 0.00401640 -0.03445394 -0.00156727
v 0.00437050 -0.03440221 -0.00207542
v 0.00447364 -0.03438542 -0.00229841
v 0.00455312 -0.03437166 -0.00251590
v 0.00359572 -0.03950574 -0.00267636
v 0.00256909 -0.03581282 -0.00061814
v 0.00307198 -0.03742185 -0.00121021
v 0.00219802 -0.03644436 -0.00048850
v 0.00161879 -0.03651406 -0.00023308
v 0.00164779 -0.03993958 -0.00066645
v 0.00139366 -0.04416082 -0.00126643
v 0.00085541 -0.04363727 -0.00088805
v 0.00125107 -0.04359157 -0.00107364
v 0.00397850 -0.03587900 -0.00187943
v 0.00350807 -0.03844772 -0.00195872
v 0.00256655 -0.03890683 -0.00107371
v 0.00330006 -0.03918701 -0.00188210
v 0.00162751 -0.03746030 -0.00033263
v 0.00162856 -0.03793390 -0.00038701
v 0.00198462 -0.03825297 -0.00060180
v 0.00300287 -0.03968886 -0.00164160
v 0.00228148 -0.04070149 -0.00119651
v 0.00312824 -0.04008903 -0.00192174
v 0.00223672 -0.04221755 -0.00148386
v 0.00134896 -0.03867758 -0.00035600
v 0.00153126 -0.04162949 -0.00087660
v 0.00106298 -0.04134897 -0.00060223
v 0.00246927 -0.04369547 -0.00220264
v 0.00113483 -0.04209554 -0.00075272
v -0.00212974 -0.03520273 0.00037587
v -0.00241895 -0.03789055 0.00027079
v -0.00252707 -0.04049825 0.00007366
v -0.00298285 -0.03530566 0.00027040
v -0.00339059 -0.03535531 0.00012295
v -0.00384102 -0.03541005 -0.00015931
v -0.00420511 -0.03545394 -0.00051809
v -0.00461149 -0.03550210 -0.00111600
v -0.00498412 -0.03554495 -0.00191027
v -0.00533872 -0.03558439 -0.00290358
v -0.00547120 -0.03831667 -0.00290886
v -0.00535906 -0.04096972 -0.00294316
v -0.00318089 -0.04053037 0.00000295
v -0.00359776 -0.04057007 -0.00014890
v -0.00399157 -0.04061995 -0.00041403
v -0.00430669 -0.04067008 -0.00074188
v -0.00467601 -0.04074476 -0.00129901
v -0.00502286 -0.04083880 -0.00203338
v -0.00367125 -0.03981114 -0.00011507
v -0.00328850 -0.03933146 0.00007684
v -0.00348974 -0.03937214 0.00000446
v -0.00395904 -0.03987160 -0.00030904
v -0.00375647 -0.03943049 -0.00013259
v -0.00461681 -0.03911284 -0.00098478
v -0.00317011 -0.03670602 0.00021494
v -0.00520903 -0.03969824 -0.00226868
v -0.00455205 -0.03814812 -0.00083710
v -0.00355834 -0.03631875 0.00006128
v -0.00339581 -0.03674918 0.00013779
v -0.00532008 -0.03976850 -0.00257921
v -0.00446888 -0.03727905 -0.00072269
v -0.00508731 -0.03686549 -0.00192038
v -0.00520583 -0.03690370 -0.00222740
v -0.00532028 -0.03694641 -0.00254977
v -0.00365470 -0.03849834 -0.00002039
v -0.00359181 -0.03801410 0.00002979
v -0.00353298 -0.03759748 0.00006855
v -0.00348578 -0.04765235 -0.00500001
v -0.00451679 -0.04575181 -0.00500001
v -0.00535368 -0.04310085 -0.00500001
v -0.00565272 -0.04112805 -0.00500001
v -0.00350681 -0.04745616 -0.00330107
v -0.00395201 -0.04671523 -0.00298830
v -0.00374217 -0.04706286 -0.00301637
v -0.00363524 -0.04722836 -0.00306476
v -0.00357226 -0.04732688 -0.00311750
v -0.00353904 -0.04738206 -0.00316376
v -0.00351883 -0.04742000 -0.00321185
v -0.00350926 -0.04744361 -0.00325976
v -0.00471551 -0.04479909 -0.00296782
v -0.00519171 -0.04254089 -0.00295196
v -0.00535906 -0.04096972 -0.00294316
v -0.00552600 -0.04105973 -0.00358543
v -0.00562160 -0.04111128 -0.00427881
v 0.00002729 -0.03494620 0.00025747
v 0.00191783 -0.03471991 -0.00020529
v 0.00327386 -0.03455197 -0.00091670
v 0.00401640 -0.03445394 -0.00156727
v 0.00437050 -0.03440221 -0.00207542
v 0.00447364 -0.03438542 -0.00229841
v 0.00455312 -0.03437166 -0.00251590
v 0.00134422 -0.02930667 0.00027128
v 0.00046571 -0.03185077 0.00028762
v 0.00015893 -0.03353071 0.00028148
v 0.00582048 -0.03048240 -0.00237635
v 0.00548946 -0.03041689 -0.00166678
v 0.00510260 -0.03032998 -0.00116779
v 0.00462601 -0.03021357 -0.00076451
v 0.00403845 -0.03006192 -0.00042308
v 0.00311345 -0.02981194 -0.00007318
v 0.00224729 -0.02956868 0.00013038
v 0.00501059 -0.03249210 -0.00245188
v 0.00501069 -0.03128160 -0.00156477
v 0.00374923 -0.03242739 -0.00083823
v 0.00429154 -0.03360013 -0.00167210
v 0.00344465 -0.03240723 -0.00064802
v 0.00236462 -0.03076359 0.00000657
v 0.00194288 -0.03351290 -0.00012397
v 0.00112608 -0.03352012 0.00011139
v -0.00226798 -0.04576559 -0.00075393
v -0.00025647 -0.04552636 -0.00086850
v -0.00252707 -0.04049825 0.00007366
v -0.00247323 -0.04320238 -0.00026935
v -0.00212974 -0.03520273 0.00037587
v -0.00241895 -0.03789055 0.00027079
v 0.00002729 -0.03494620 0.00025747
v -0.00036575 -0.04202388 -0.00027445
v -0.00021738 -0.03849077 0.00008884
v -0.00212974 -0.03520273 0.00037587
v -0.00141133 -0.03166367 0.00041021
v -0.00032972 -0.02831499 0.00038437
v -0.00291369 -0.02675702 -0.00294316
v -0.00234926 -0.02696553 -0.00170572
v -0.00151279 -0.02741379 -0.00044793
v -0.00107499 -0.02769073 0.00000637
v -0.00076549 -0.02791281 0.00024093
v -0.00056364 -0.02808152 0.00034136
v -0.00043448 -0.02820550 0.00037542
v -0.00410437 -0.02954616 -0.00293722
v -0.00489939 -0.03253378 -0.00291919
v -0.00533872 -0.03558439 -0.00290358
v -0.00298285 -0.03530566 0.00027040
v -0.00339059 -0.03535531 0.00012295
v -0.00384102 -0.03541005 -0.00015931
v -0.00420511 -0.03545394 -0.00051809
v -0.00461149 -0.03550210 -0.00111600
v -0.00498412 -0.03554495 -0.00191027
v -0.00293992 -0.03394280 0.00025148
v -0.00325001 -0.03396035 0.00011465
v -0.00242860 -0.03329560 0.00036060
v -0.00267540 -0.03327275 0.00029789
v -0.00289977 -0.03326793 0.00021432
v -0.00478788 -0.03405462 -0.00190852
v -0.00491262 -0.03405902 -0.00222238
v -0.00503483 -0.03406361 -0.00255204
v -0.00153992 -0.02955609 0.00021090
v -0.00397304 -0.03109525 -0.00165108
v -0.00366343 -0.03187642 -0.00079684
v -0.00322217 -0.03048857 -0.00083390
v -0.00139552 -0.02893857 0.00014952
v -0.00268299 -0.02940745 -0.00070388
v -0.00305181 -0.02826685 -0.00184190
v -0.00334673 -0.02817576 -0.00243595
v -0.00419353 -0.03450618 -0.00064988
v -0.00416468 -0.03402797 -0.00072659
v -0.00408720 -0.03370587 -0.00071025
v -0.00391514 -0.03306529 -0.00068237
v -0.00268415 -0.03216230 0.00016485
v -0.00255419 -0.03162165 0.00013289
v -0.00233555 -0.03099125 0.00011948
v -0.00280391 -0.03126025 -0.00012378
v -0.00207146 -0.03049511 0.00015128
v -0.00454376 -0.03178564 -0.00243984
v -0.00565272 -0.04112805 -0.00500001
v -0.00572346 -0.03739942 -0.00500001
v -0.00540963 -0.03380737 -0.00500001
v -0.00462742 -0.03015449 -0.00500001
v -0.00401515 -0.02839391 -0.00500001
v -0.00324378 -0.02669948 -0.00500001
v -0.00535906 -0.04096972 -0.00294316
v -0.00552600 -0.04105973 -0.00358543
v -0.00562160 -0.04111128 -0.00427881
v -0.00533872 -0.03558439 -0.00290358
v -0.00547120 -0.03831667 -0.00290886
v -0.00291369 -0.02675702 -0.00294316
v -0.00410437 -0.02954616 -0.00293722
v -0.00489939 -0.03253378 -0.00291919
v -0.00316449 -0.02671330 -0.00392703
v -0.00565093 -0.03997520 -0.00392009
v 0.00134422 -0.02930667 0.00027128
v 0.00046571 -0.03185077 0.00028762
v 0.00015893 -0.03353071 0.00028148
v 0.00002729 -0.03494620 0.00025747
v 0.00059836 -0.02902599 0.00035678
v 0.00013647 -0.02873570 0.00038452
v -0.00032972 -0.02831499 0.00038437
v -0.00212974 -0.03520273 0.00037587
v -0.00141133 -0.03166367 0.00041021
v -0.00291369 -0.02675702 -0.00294316
v -0.00234926 -0.02696553 -0.00170572
v -0.00151279 -0.02741379 -0.00044793
v -0.00107499 -0.02769073 0.00000637
v -0.00076549 -0.02791281 0.00024093
v -0.00056364 -0.02808152 0.00034136
v -0.00043448 -0.02820550 0.00037542
v -0.00032972 -0.02831499 0.00038437
v -0.00237151 -0.02562190 -0.00294333
v -0.00195407 -0.02419819 -0.00294345
v -0.00124728 -0.02446418 -0.00125604
v -0.00069597 -0.02467401 -0.00041489
v -0.00021406 -0.02485716 0.00004145
v 0.00011715 -0.02498341 0.00023409
v 0.00027090 -0.02504234 0.00028894
v 0.00040906 -0.02509569 0.00031446
v 0.00006008 -0.02694709 0.00036578
v -0.00025456 -0.02578464 0.00016150
v -0.00036715 -0.02765543 0.00035102
v -0.00049125 -0.02754392 0.00030053
v -0.00177363 -0.02602751 -0.00146480
v -0.00246461 -0.02633990 -0.00244277
v -0.00105053 -0.02595319 -0.00049771
v -0.00117609 -0.02673959 -0.00038157
v -0.00245959 -0.01950430 -0.00294316
v -0.00196673 -0.02122877 -0.00294348
v -0.00182279 -0.02267869 -0.00294353
v -0.00195407 -0.02419819 -0.00294345
v -0.00291369 -0.02675702 -0.00294316
v -0.00237151 -0.02562190 -0.00294333
v -0.00324378 -0.02669948 -0.00500001
v -0.00316449 -0.02671330 -0.00392703
v -0.00269752 -0.01975169 -0.00500001
v -0.00219872 -0.02179090 -0.00500001
v -0.00216039 -0.02312349 -0.00500001
v -0.00247764 -0.02492213 -0.00500001
v -0.00284195 -0.02588429 -0.00500001
v -0.00259484 -0.01964493 -0.00358543
v -0.00267231 -0.01972548 -0.00427881
v -0.00195407 -0.02419819 -0.00294345
v -0.00124728 -0.02446418 -0.00125604
v -0.00069597 -0.02467401 -0.00041489
v -0.00021406 -0.02485716 0.00004145
v 0.00011715 -0.02498341 0.00023409
v 0.00027090 -0.02504234 0.00028894
v 0.00040906 -0.02509569 0.00031446
v -0.00245959 -0.01950430 -0.00294316
v -0.00196673 -0.02122877 -0.00294348
v -0.00182279 -0.02267869 -0.00294353
v 0.00073817 -0.01776386 0.00017394
v -0.00001623 -0.01802136 -0.00008356
v -0.00077572 -0.01835413 -0.00054758
v -0.00144418 -0.01871985 -0.00115354
v -0.00196691 -0.01907314 -0.00182931
v -0.00225569 -0.01930875 -0.00236655
v 0.00068613 -0.02176953 0.00022591
v 0.00042918 -0.01944820 0.00009325
v 0.00007143 -0.01951554 -0.00005870
v -0.00028805 -0.01959639 -0.00027151
v -0.00111410 -0.02026376 -0.00107268
v 0.00024019 -0.02380195 0.00018606
v -0.00000254 -0.02369760 0.00005322
v -0.00033237 -0.02356101 -0.00019749
v -0.00137642 -0.02190617 -0.00171533
v -0.00099755 -0.02136372 -0.00101653
v -0.00097391 -0.02237474 -0.00101286
v -0.00103313 -0.02321328 -0.00108793
v 0.00025518 -0.02053626 0.00004732
v -0.00017542 -0.02151849 -0.00017429
v -0.00018473 -0.02211801 -0.00015994
v -0.00046822 -0.02183760 -0.00040823
f 12 13 17
f 18 16 15
f 18 17 16
f 18 12 17
f 19 15 14
f 19 18 15
f 19 14 20
f 21 19 20
f 21 20 22
f 23 18 19
f 23 19 21
f 24 3 2
f 25 11 12
f 25 12 18
f 25 18 23
f 26 5 6
f 26 6 7
f 26 7 8
f 26 27 28
f 29 8 9
f 29 9 10
f 29 26 8
f 29 27 26
f 30 14 3
f 30 22 20
f 30 24 22
f 30 20 14
f 30 3 24
f 31 21 22
f 32 11 25
f 32 23 21
f 32 21 31
f 32 31 11
f 32 25 23
f 33 22 24
f 33 24 34
f 33 31 22
f 35 24 2
f 35 34 24
f 35 36 34
f 35 37 36
f 38 10 11
f 38 36 10
f 38 11 31
f 38 34 36
f 38 31 33
f 38 33 34
f 39 35 2
f 39 28 37
f 39 37 35
f 40 10 36
f 40 36 37
f 41 37 28
f 41 40 37
f 42 2 1
f 42 1 4
f 42 4 5
f 42 5 26
f 42 39 2
f 42 26 28
f 42 28 39
f 43 10 40
f 43 40 41
f 44 10 43
f 44 43 41
f 45 41 28
f 45 10 44
f 45 44 41
f 45 28 27
f 45 29 10
f 45 27 29
f 48 46 47
f 48 58 46
f 55 56 57
f 49 59 58
f 49 58 48
f 50 60 59
f 50 59 49
f 51 60 50
f 62 51 52
f 62 52 53
f 62 61 60
f 62 60 51
f 63 53 54
f 63 54 55
f 63 57 61
f 63 55 57
f 63 62 53
f 63 61 62
f 74 71 70
f 69 73 74
f 69 74 70
f 72 73 69
f 68 65 72
f 68 72 69
f 66 64 65
f 67 66 65
f 67 65 68
f 85 76 75
f 85 77 76
f 85 78 77
f 85 79 78
f 85 80 79
f 85 81 80
f 85 86 81
f 87 75 82
f 87 82 83
f 87 83 84
f 87 84 85
f 87 85 75
f 106 89 88
f 107 91 90
f 107 92 91
f 108 94 93
f 108 95 94
f 109 93 92
f 109 108 93
f 110 92 107
f 110 107 111
f 110 109 92
f 112 90 89
f 112 89 106
f 112 107 90
f 112 111 107
f 113 108 109
f 114 109 110
f 114 113 109
f 115 114 110
f 116 110 111
f 116 115 110
f 117 111 112
f 117 112 106
f 117 116 111
f 118 97 95
f 118 108 113
f 118 95 108
f 119 100 99
f 119 101 100
f 119 102 101
f 119 121 120
f 122 103 102
f 122 104 103
f 122 102 119
f 122 119 120
f 123 113 114
f 123 114 115
f 123 115 116
f 124 105 125
f 124 125 123
f 126 124 123
f 126 106 105
f 126 117 106
f 126 116 117
f 126 123 116
f 126 105 124
f 127 118 113
f 127 128 118
f 127 113 123
f 127 123 125
f 129 97 118
f 129 118 128
f 129 128 130
f 129 130 131
f 132 128 127
f 132 105 104
f 132 125 105
f 132 127 125
f 132 104 130
f 132 130 128
f 133 129 131
f 133 97 129
f 133 131 121
f 134 130 104
f 134 131 130
f 135 121 131
f 135 131 134
f 136 96 97
f 136 98 96
f 136 99 98
f 136 97 133
f 136 133 121
f 136 119 99
f 136 121 119
f 137 135 134
f 137 134 104
f 138 135 137
f 138 137 104
f 139 121 135
f 139 135 138
f 139 138 104
f 139 120 121
f 139 104 122
f 139 122 120
f 148 145 144
f 148 146 145
f 148 147 146
f 155 140 156
f 149 144 143
f 149 148 144
f 150 143 142
f 150 149 143
f 151 150 142
f 157 142 141
f 157 152 151
f 157 153 152
f 157 151 142
f 158 141 140
f 158 154 153
f 158 155 154
f 158 153 157
f 158 157 141
f 158 140 155
f 160 169 159
f 168 160 161
f 168 169 160
f 162 168 161
f 167 162 163
f 167 168 162
f 165 163 164
f 166 167 163
f 166 163 165
f 182 171 170
f 182 172 171
f 182 173 172
f 182 174 173
f 182 175 174
f 182 176 175
f 182 177 176
f 182 178 177
f 183 179 178
f 183 180 179
f 183 181 180
f 183 182 181
f 183 178 182
f 192 190 189
f 193 191 192
f 194 189 188
f 194 192 189
f 194 193 192
f 195 194 188
f 186 188 187
f 186 195 188
f 185 195 186
f 184 185 186
f 199 204 208
f 199 209 200
f 199 210 209
f 199 208 210
f 205 199 198
f 205 204 199
f 202 207 201
f 203 207 202
f 211 198 197
f 211 206 205
f 211 205 198
f 211 197 206
f 212 197 196
f 212 196 201
f 212 207 206
f 212 206 197
f 212 201 207
f 220 214 213
f 220 215 214
f 220 216 215
f 220 213 224
f 225 219 220
f 225 220 224
f 222 221 227
f 223 222 227
f 228 218 219
f 228 225 226
f 228 219 225
f 228 226 218
f 229 217 218
f 229 221 217
f 229 226 227
f 229 218 226
f 229 227 221
f 235 236 230
f 233 235 232
f 234 235 233
f 237 230 231
f 237 231 232
f 237 235 230
f 237 232 235
f 240 242 241
f 247 244 243
f 247 245 244
f 247 246 245
f 238 243 242
f 238 242 240
f 238 247 243
f 248 247 238
f 239 248 238
f 261 259 260
f 262 258 259
f 262 259 261
f 263 258 262
f 257 263 264
f 257 264 265
f 257 265 256
f 257 258 263
f 255 239 258
f 255 258 257
f 266 250 248
f 266 255 254
f 266 248 239
f 266 239 255
f 267 266 254
f 267 250 266
f 268 249 250
f 268 253 249
f 268 267 254
f 268 250 267
f 269 251 252
f 269 252 253
f 269 254 251
f 269 268 254
f 269 253 268
f 271 299 272
f 287 274 273
f 287 275 274
f 300 297 298
f 300 298 299
f 300 299 271
f 301 271 270
f 301 280 279
f 301 270 280
f 301 300 271
f 301 297 300
f 302 296 297
f 302 297 301
f 303 276 275
f 303 277 276
f 303 278 277
f 303 279 278
f 303 287 286
f 303 301 279
f 303 275 287
f 303 304 302
f 303 302 301
f 305 295 296
f 305 296 302
f 305 302 304
f 306 286 285
f 306 304 303
f 306 303 286
f 307 295 305
f 308 291 292
f 308 292 293
f 308 293 294
f 308 294 295
f 308 295 307
f 309 285 284
f 309 304 306
f 309 306 285
f 310 290 291
f 310 307 305
f 310 308 307
f 310 291 308
f 310 305 304
f 311 284 283
f 311 309 284
f 311 304 309
f 312 289 290
f 312 290 310
f 312 304 311
f 312 310 304
f 313 311 283
f 313 312 311
f 314 282 281
f 314 283 282
f 314 281 288
f 314 288 289
f 314 313 283
f 314 289 312
f 314 312 313
f 317 329 324
f 318 328 329
f 318 329 317
f 319 327 328
f 319 328 318
f 320 326 327
f 320 327 319
f 321 325 326
f 321 326 320
f 322 325 321
f 323 316 325
f 323 325 322
f 315 316 323
f 338 334 335
f 338 335 336
f 331 332 333
f 337 333 334
f 337 334 338
f 337 331 333
f 330 331 337
f 345 344 347
f 342 341 345
f 342 347 346
f 342 345 347
f 343 346 339
f 343 342 346
f 340 343 339
f 349 372 348
f 359 358 365
f 359 365 366
f 355 353 354
f 364 363 356
f 357 364 356
f 373 349 350
f 373 371 372
f 373 372 349
f 374 370 371
f 374 371 373
f 375 350 351
f 375 374 373
f 375 373 350
f 376 367 368
f 376 368 369
f 376 369 370
f 376 370 374
f 377 375 351
f 377 374 375
f 377 376 374
f 378 360 359
f 378 366 367
f 378 367 376
f 378 376 377
f 378 359 366
f 379 360 378
f 379 377 351
f 379 378 377
f 380 351 352
f 380 352 353
f 380 355 356
f 380 379 351
f 380 353 355
f 381 361 360
f 381 362 361
f 381 363 362
f 381 360 379
f 381 379 380
f 381 356 363
f 381 380 356
f 403 397 382
f 403 398 397
f 403 399 398
f 403 400 399
f 404 382 383
f 404 403 382
f 405 403 404
f 406 401 400
f 406 403 405
f 406 400 403
f 407 402 401
f 407 401 406
f 408 402 407
f 408 407 395
f 409 395 396
f 409 396 402
f 409 408 395
f 409 402 408
f 410 383 384
f 410 384 393
f 411 394 395
f 411 406 412
f 411 395 407
f 411 407 406
f 411 412 413
f 414 390 389
f 414 391 390
f 414 392 391
f 414 393 392
f 414 410 393
f 414 415 410
f 416 389 388
f 416 414 389
f 416 415 414
f 417 388 387
f 417 411 413
f 417 416 388
f 417 413 416
f 418 386 385
f 418 387 386
f 418 385 394
f 418 394 411
f 418 417 387
f 418 411 417
f 419 412 406
f 419 405 404
f 419 404 383
f 419 406 405
f 420 419 383
f 421 420 383
f 422 412 419
f 422 413 412
f 422 419 420
f 422 420 421
f 423 383 410
f 423 410 415
f 423 416 413
f 423 415 416
f 423 421 383
f 423 413 422
f 423 422 421
f 435 431 430
f 436 430 429
f 436 435 430
f 437 429 428
f 437 436 429
f 434 425 424
f 432 440 433
f 441 427 426
f 441 428 427
f 441 438 437
f 441 439 438
f 441 437 428
f 442 426 425
f 442 434 433
f 442 440 439
f 442 439 441
f 442 441 426
f 442 425 434
f 442 433 440
f 460 455 456
f 460 456 457
f 461 462 460
f 463 453 454
f 463 454 455
f 463 460 462
f 463 455 460
f 464 452 453
f 465 448 447
f 465 449 448
f 466 447 446
f 466 446 452
f 466 465 447
f 466 467 465
f 468 443 444
f 468 457 458
f 468 458 459
f 468 459 443
f 468 460 457
f 468 461 460
f 469 470 461
f 469 468 444
f 469 461 468
f 471 470 469
f 471 469 444
f 472 462 461
f 472 463 462
f 472 453 463
f 473 472 461
f 473 453 472
f 474 461 470
f 474 473 461
f 475 464 470
f 475 476 464
f 475 470 471
f 477 478 476
f 477 471 444
f 477 476 475
f 477 475 471
f 479 470 464
f 479 464 453
f 479 474 470
f 479 453 473
f 479 473 474
f 480 476 478
f 481 452 464
f 481 464 476
f 481 476 480
f 482 444 445
f 482 450 449
f 482 451 450
f 482 445 451
f 482 477 444
f 482 467 478
f 482 449 465
f 482 465 467
f 482 478 477
f 483 466 452
f 483 478 467
f 483 452 481
f 483 467 466
f 483 480 478
f 483 481 480
f 502 495 496
f 502 496 497
f 503 494 495
f 503 501 494
f 503 495 502
f 504 503 502
f 505 497 498
f 505 498 499
f 505 502 497
f 506 504 502
f 506 502 505
f 507 506 505
f 507 505 499
f 508 485 484
f 508 484 501
f 509 499 500
f 509 507 499
f 509 510 507
f 509 492 510
f 511 486 485
f 511 487 486
f 511 488 487
f 511 508 512
f 511 485 508
f 513 493 492
f 513 500 493
f 513 509 500
f 513 492 509
f 514 489 488
f 514 488 511
f 514 511 512
f 515 490 489
f 515 489 514
f 515 510 492
f 515 514 510
f 516 490 515
f 516 515 492
f 517 491 490
f 517 492 491
f 517 490 516
f 517 516 492
f 518 506 507
f 518 503 504
f 518 501 503
f 518 504 506
f 518 507 510
f 519 501 518
f 519 518 510
f 520 512 508
f 520 508 501
f 520 501 519
f 520 510 514
f 520 514 512
f 520 519 510
f 522 526 527
f 522 527 528
f 522 528 529
f 525 526 522
f 524 525 522
f 523 524 522
f 521 523 522
f 536 530 523
f 536 523 521
f 537 531 530
f 537 530 536
f 533 532 531
f 534 531 537
f 534 533 531
f 535 534 537
f 556 538 539
f 556 550 538
f 556 551 550
f 556 552 551
f 557 553 552
f 557 552 556
f 558 539 540
f 558 544 543
f 558 545 544
f 558 546 545
f 558 540 546
f 558 557 556
f 558 543 557
f 558 556 539
f 559 557 543
f 559 553 557
f 560 548 547
f 560 554 553
f 560 555 554
f 560 547 555
f 560 553 559
f 561 543 542
f 561 559 543
f 561 560 559
f 561 548 560
f 562 542 541
f 562 549 548
f 562 541 549
f 562 548 561
f 562 561 542
f 571 566 565
f 571 570 566
f 568 565 564
f 568 571 565
f 569 568 564
f 563 569 564
f 567 569 563
f 591 583 584
f 591 584 585
f 592 585 586
f 592 591 585
f 593 590 583
f 593 583 591
f 594 593 591
f 595 591 592
f 595 594 591
f 596 588 589
f 597 596 589
f 598 582 581
f 598 589 582
f 598 581 597
f 598 597 589
f 599 579 590
f 600 602 601
f 600 580 602
f 603 574 575
f 603 575 576
f 603 576 577
f 603 577 578
f 603 578 579
f 603 579 599
f 604 574 603
f 604 602 580
f 604 603 599
f 605 573 574
f 605 574 604
f 605 604 580
f 606 572 573
f 606 580 572
f 606 573 605
f 606 605 580
f 607 586 587
f 607 587 588
f 607 592 586
f 607 588 596
f 608 592 607
f 608 607 596
f 609 610 595
f 609 595 592
f 609 596 610
f 609 592 608
f 609 608 596
f 611 590 593
f 611 595 610
f 611 593 594
f 611 594 595
f 611 610 601
f 612 590 611
f 612 611 601
f 613 590 612
f 614 602 613
f 614 613 612
f 614 601 602
f 614 612 601
f 615 613 602
f 615 599 590
f 615 590 613
f 615 602 604
f 615 604 599
f 616 581 580
f 616 597 581
f 616 596 597
f 616 610 596
f 616 601 610
f 616 580 600
f 616 600 601
f 631 626 627
f 624 627 623
f 624 630 631
f 624 631 627
f 625 629 630
f 625 630 624
f 621 628 629
f 621 629 625
f 622 628 621
f 632 617 618
f 632 618 619
f 632 619 620
f 632 622 617
f 632 620 628
f 632 628 622
f 637 641 639
f 638 640 641
f 638 641 637
f 634 633 640
f 635 640 638
f 635 634 640
f 636 635 638
f 643 658 644
f 659 655 656
f 659 656 657
f 659 657 658
f 659 658 643
f 660 643 642
f 660 651 650
f 660 642 651
f 661 649 648
f 661 650 649
f 661 660 650
f 661 643 660
f 661 659 643
f 662 652 653
f 662 653 654
f 663 646 645
f 663 645 652
f 663 652 662
f 663 662 646
f 664 654 655
f 664 662 654
f 664 655 659
f 665 647 646
f 665 648 647
f 665 661 648
f 665 646 662
f 665 662 664
f 665 664 659
f 665 659 661
f 676 675 680
f 674 673 676
f 674 680 679
f 674 676 680
f 672 679 678
f 672 674 679
f 671 678 677
f 671 672 678
f 670 671 677
f 668 677 669
f 668 670 677
f 667 670 668
f 666 670 667
f 691 690 697
f 684 692 685
f 698 681 682
f 698 693 681
f 699 693 698
f 700 694 693
f 700 695 694
f 700 693 699
f 701 696 695
f 701 697 696
f 701 695 700
f 701 691 697
f 702 682 683
f 702 689 688
f 702 683 689
f 703 688 687
f 703 702 688
f 704 687 686
f 704 703 687
f 705 692 691
f 705 691 701
f 705 701 706
f 705 706 707
f 708 686 685
f 708 692 705
f 708 704 686
f 708 685 692
f 708 707 704
f 708 705 707
f 709 700 699
f 709 699 698
f 709 698 682
f 710 701 700
f 710 700 709
f 710 706 701
f 710 709 682
f 711 682 702
f 711 703 704
f 711 702 703
f 711 704 707
f 711 710 682
f 712 707 706
f 712 706 710
f 712 711 707
f 712 710 711
f 718 713 719
f 716 715 718
f 717 716 718
f 720 714 713
f 720 715 714
f 720 713 718
f 720 718 715
f 728 724 723
f 728 725 724
f 729 722 721
f 727 723 722
f 727 728 723
f 727 722 729
f 726 727 729
f 755 758 756
f 743 730 731
f 743 731 732
f 759 735 736
f 759 754 753
f 759 755 754
f 759 736 757
f 759 757 758
f 759 758 755
f 760 753 752
f 760 759 753
f 761 752 751
f 761 762 760
f 761 760 752
f 763 732 733
f 763 741 742
f 763 742 743
f 763 743 732
f 764 761 751
f 765 748 747
f 765 749 748
f 765 750 749
f 765 751 750
f 765 764 751
f 766 740 741
f 766 763 762
f 766 741 763
f 767 747 746
f 767 761 764
f 767 764 765
f 767 765 747
f 767 762 761
f 768 739 740
f 768 766 762
f 768 740 766
f 769 746 745
f 769 762 767
f 769 768 762
f 769 767 746
f 770 768 769
f 770 739 768
f 771 737 738
f 771 738 739
f 771 744 737
f 771 745 744
f 771 770 769
f 771 739 770
f 771 769 745
f 772 733 734
f 772 734 735
f 772 760 762
f 772 759 760
f 772 762 763
f 772 763 733
f 772 735 759
f 781 779 778
f 782 778 777
f 782 781 778
f 783 777 776
f 783 782 777
f 784 776 775
f 784 783 776
f 785 775 774
f 785 784 775
f 786 785 774
f 787 774 773
f 787 786 774
f 780 787 773
f 793 796 792
f 789 793 788
f 789 795 796
f 789 796 793
f 790 794 795
f 790 795 789
f 791 794 790
f 816 815 814
f 798 797 820
f 802 808 801
f 802 809 808
f 807 799 806
f 800 799 807
f 821 814 813
f 821 817 816
f 821 816 814
f 822 813 812
f 822 821 813
f 823 818 817
f 823 821 822
f 823 817 821
f 824 811 810
f 824 812 811
f 824 822 812
f 825 818 823
f 825 822 824
f 825 823 822
f 826 802 803
f 826 810 809
f 826 825 824
f 826 824 810
f 826 809 802
f 827 818 825
f 827 826 803
f 827 825 826
f 828 799 798
f 828 819 818
f 828 820 819
f 828 818 827
f 828 798 820
f 829 803 804
f 829 804 805
f 829 805 806
f 829 799 828
f 829 828 827
f 829 827 803
f 829 806 799
f 850 842 843
f 850 843 844
f 850 844 845
f 850 845 846
f 851 849 842
f 851 842 850
f 852 851 850
f 853 846 847
f 853 852 850
f 853 850 846
f 854 847 848
f 854 853 847
f 855 854 848
f 855 840 854
f 856 841 840
f 856 848 841
f 856 840 855
f 856 855 848
f 857 838 849
f 858 840 839
f 858 859 853
f 858 854 840
f 858 853 854
f 858 860 859
f 861 835 836
f 861 836 837
f 861 837 838
f 861 857 862
f 861 838 857
f 861 862 863
f 864 833 834
f 864 834 835
f 864 835 861
f 864 861 863
f 865 833 864
f 865 860 858
f 865 864 863
f 866 830 831
f 866 831 832
f 866 832 833
f 866 839 830
f 866 858 839
f 866 865 858
f 866 833 865
f 867 853 859
f 867 851 852
f 867 849 851
f 867 852 853
f 868 849 867
f 869 849 868
f 870 867 859
f 870 859 860
f 870 868 867
f 870 869 868
f 871 862 857
f 871 857 849
f 871 863 862
f 871 860 865
f 871 865 863
f 871 849 869
f 871 870 860
f 871 869 870
f 876 888 882
f 877 887 888
f 877 888 876
f 878 886 887
f 878 887 877
f 874 875 883
f 872 873 881
f 889 878 879
f 889 879 880
f 889 884 885
f 889 885 886
f 889 886 878
f 890 873 874
f 890 880 881
f 890 883 884
f 890 889 880
f 890 874 883
f 890 884 889
f 890 881 873
f 908 902 901
f 908 903 902
f 909 908 910
f 911 900 899
f 911 901 900
f 911 910 908
f 911 908 901
f 912 899 898
f 913 892 893
f 913 893 894
f 914 891 892
f 914 898 891
f 914 892 913
f 914 913 915
f 916 904 903
f 916 905 904
f 916 906 905
f 916 907 906
f 916 903 908
f 916 908 909
f 917 909 918
f 917 907 916
f 917 916 909
f 919 917 918
f 919 907 917
f 920 909 910
f 920 910 911
f 920 911 899
f 921 909 920
f 921 920 899
f 922 918 909
f 922 909 921
f 923 918 912
f 923 912 924
f 923 919 918
f 925 924 926
f 925 907 919
f 925 923 924
f 925 919 923
f 927 912 918
f 927 899 912
f 927 918 922
f 927 921 899
f 927 922 921
f 928 926 924
f 929 912 898
f 929 924 912
f 929 928 924
f 930 894 895
f 930 895 896
f 930 896 897
f 930 897 907
f 930 907 925
f 930 926 915
f 930 913 894
f 930 915 913
f 930 925 926
f 931 898 914
f 931 915 926
f 931 929 898
f 931 914 915
f 931 926 928
f 931 928 929
f 950 945 944
f 950 946 945
f 951 934 933
f 951 944 934
f 951 950 944
f 952 950 951
f 953 947 946
f 953 948 947
f 953 946 950
f 954 953 950
f 954 950 952
f 955 953 954
f 955 948 953
f 956 933 932
f 956 932 935
f 957 949 948
f 957 948 955
f 957 955 958
f 957 958 942
f 959 935 936
f 959 936 937
f 959 937 938
f 959 960 956
f 959 956 935
f 961 942 943
f 961 943 949
f 961 949 957
f 961 957 942
f 962 938 939
f 962 959 938
f 962 960 959
f 963 939 940
f 963 962 939
f 963 942 958
f 963 958 962
f 964 963 940
f 964 942 963
f 965 940 941
f 965 941 942
f 965 964 940
f 965 942 964
f 966 955 954
f 966 952 951
f 966 951 933
f 966 954 952
f 966 958 955
f 967 966 933
f 967 958 966
f 968 956 960
f 968 933 956
f 968 967 933
f 968 962 958
f 968 960 962
f 968 958 967
f 973 978 977
f 973 979 978
f 973 980 979
f 976 973 977
f 975 973 976
f 974 973 975
f 969 973 974
f 970 974 981
f 970 969 974
f 971 981 982
f 971 970 981
f 984 982 983
f 985 971 982
f 985 982 984
f 972 971 985
f 1004 996 997
f 1004 997 998
f 1004 998 999
f 1004 1003 996
f 1005 999 1000
f 1005 1004 999
f 1006 988 989
f 1006 989 990
f 1006 990 991
f 1006 991 992
f 1006 992 1003
f 1006 1004 1005
f 1006 1003 1004
f 1006 1005 988
f 1007 988 1005
f 1007 1005 1000
f 1008 993 994
f 1008 1000 1001
f 1008 1001 1002
f 1008 1002 993
f 1008 1007 1000
f 1009 987 988
f 1009 988 1007
f 1009 1007 1008
f 1009 1008 994
f 1010 986 987
f 1010 994 995
f 1010 995 986
f 1010 1009 994
f 1010 987 1009
f 1016 1017 1015
f 1016 1019 1017
f 1013 1018 1019
f 1013 1019 1016
f 1014 1018 1013
f 1012 1018 1014
f 1011 1012 1014
f 1039 1033 1020
f 1039 1034 1033
f 1040 1035 1034
f 1040 1034 1039
f 1041 1020 1021
f 1041 1039 1020
f 1042 1039 1041
f 1043 1040 1039
f 1043 1039 1042
f 1044 1038 1037
f 1045 1038 1044
f 1046 1031 1032
f 1046 1032 1038
f 1046 1045 1031
f 1046 1038 1045
f 1047 1021 1022
f 1048 1049 1050
f 1048 1050 1030
f 1051 1026 1025
f 1051 1027 1026
f 1051 1028 1027
f 1051 1029 1028
f 1051 1022 1029
f 1051 1047 1022
f 1052 1051 1025
f 1052 1030 1050
f 1052 1047 1051
f 1053 1025 1024
f 1053 1052 1025
f 1053 1030 1052
f 1054 1024 1023
f 1054 1023 1030
f 1054 1053 1024
f 1054 1030 1053
f 1055 1036 1035
f 1055 1037 1036
f 1055 1044 1037
f 1055 1035 1040
f 1056 1055 1040
f 1056 1044 1055
f 1057 1043 1058
f 1057 1058 1044
f 1057 1040 1043
f 1057 1056 1040
f 1057 1044 1056
f 1059 1041 1021
f 1059 1058 1043
f 1059 1042 1041
f 1059 1043 1042
f 1059 1049 1058
f 1060 1059 1021
f 1060 1049 1059
f 1061 1060 1021
f 1062 1060 1061
f 1062 1050 1049
f 1062 1061 1050
f 1062 1049 1060
f 1063 1021 1047
f 1063 1050 1061
f 1063 1052 1050
f 1063 1047 1052
f 1063 1061 1021
f 1064 1030 1031
f 1064 1045 1044
f 1064 1044 1058
f 1064 1031 1045
f 1064 1058 1049
f 1064 1048 1030
f 1064 1049 1048
f 1069 1079 1070
f 1077 1069 1068
f 1077 1076 1079
f 1077 1079 1069
f 1078 1068 1067
f 1078 1077 1068
f 1074 1067 1066
f 1074 1078 1067
f 1075 1074 1066
f 1080 1066 1065
f 1080 1072 1071
f 1080 1073 1072
f 1080 1065 1073
f 1080 1071 1075
f 1080 1075 1066
f 1088 1084 1083
f 1089 1083 1082
f 1089 1088 1083
f 1085 1082 1081
f 1086 1089 1082
f 1086 1082 1085
f 1087 1089 1086
f 1106 1105 1104
f 1107 1102 1101
f 1107 1103 1102
f 1107 1104 1103
f 1107 1106 1104
f 1108 1095 1096
f 1108 1096 1097
f 1108 1097 1106
f 1109 1093 1094
f 1109 1094 1095
f 1109 1108 1106
f 1109 1095 1108
f 1109 1106 1107
f 1110 1099 1098
f 1110 1100 1099
f 1111 1090 1091
f 1111 1098 1090
f 1111 1091 1110
f 1111 1110 1098
f 1112 1101 1100
f 1112 1100 1110
f 1112 1107 1101
f 1113 1091 1092
f 1113 1092 1093
f 1113 1093 1109
f 1113 1110 1091
f 1113 1112 1110
f 1113 1107 1112
f 1113 1109 1107
f 1121 1126 1120
f 1119 1121 1118
f 1119 1125 1126
f 1119 1126 1121
f 1117 1124 1125
f 1117 1125 1119
f 1116 1123 1124
f 1116 1124 1117
f 1115 1123 1116
f 1128 1122 1123
f 1128 1123 1115
f 1127 1128 1115
f 1114 1127 1115
f 1137 1144 1136
f 1129 1130 1138
f 1146 1139 1140
f 1146 1145 1139
f 1147 1146 1140
f 1148 1140 1141
f 1148 1141 1142
f 1148 1147 1140
f 1149 1142 1143
f 1149 1143 1144
f 1149 1148 1142
f 1149 1144 1137
f 1150 1133 1134
f 1150 1134 1135
f 1150 1135 1145
f 1151 1132 1133
f 1151 1133 1150
f 1152 1131 1132
f 1152 1132 1151
f 1153 1137 1138
f 1153 1149 1137
f 1153 1154 1149
f 1153 1155 1154
f 1156 1130 1131
f 1156 1153 1138
f 1156 1131 1152
f 1156 1138 1130
f 1156 1152 1155
f 1156 1155 1153
f 1157 1147 1148
f 1157 1146 1147
f 1157 1145 1146
f 1158 1149 1154
f 1158 1148 1149
f 1158 1157 1148
f 1158 1145 1157
f 1159 1150 1145
f 1159 1151 1150
f 1159 1152 1151
f 1159 1155 1152
f 1159 1145 1158
f 1160 1158 1154
f 1160 1154 1155
f 1160 1159 1158
f 1160 1155 1159

