# https://github.com/mikedh/trimesh
v 0.00673301 -0.00000352 -0.00805001
v 0.00664517 0.00184429 -0.00805001
v 0.00690609 -0.00081071 -0.00805001
v 0.00679629 -0.00045918 -0.00805001
v 0.00675435 -0.00023349 -0.00805001
v 0.00426626 -0.00066098 -0.00805001
v 0.00503994 -0.00033512 -0.00805001
v 0.00545560 -0.00026909 -0.00805001
v 0.00586976 -0.00029810 -0.00805001
v 0.00628134 -0.00043075 -0.00805001
v 0.00660188 -0.00060258 -0.00805001
v 0.00270415 -0.00223852 -0.00805001
v 0.00312979 -0.00161033 -0.00805001
v 0.00365908 -0.00107581 -0.00805001
v -0.00317188 -0.00306533 -0.00805001
v -0.00254882 -0.00356709 -0.00805001
v -0.00179874 -0.00395079 -0.00805001
v -0.00095451 -0.00416305 -0.00805001
v -0.00007104 -0.00416590 -0.00805001
v 0.00070217 -0.00398083 -0.00805001
v 0.00133972 -0.00367504 -0.00805001
v 0.00189433 -0.00326218 -0.00805001
v 0.00235032 -0.00277327 -0.00805001
v 0.00254012 -0.00250948 -0.00805001
v -0.00325983 -0.00298990 -0.00805001
v -0.00378989 -0.00297924 -0.00805001
v -0.00372746 -0.00293396 -0.00805001
v -0.00365738 -0.00290412 -0.00805001
v -0.00358258 -0.00288967 -0.00805001
v -0.00350594 -0.00289049 -0.00805001
v -0.00342968 -0.00290527 -0.00805001
v -0.00335579 -0.00293257 -0.00805001
v -0.00330634 -0.00295864 -0.00805001
v -0.00377722 -0.00260868 -0.00805001
v -0.00376041 -0.00218397 -0.00805001
v -0.00382016 -0.00142062 -0.00805001
v 0.00139299 0.00788611 -0.00805001
v -0.00031490 0.00688413 -0.00805001
v -0.00181923 0.00540311 -0.00805001
v -0.00296598 0.00352515 -0.00805001
v -0.00365125 0.00140710 -0.00805001
v -0.00383507 -0.00002190 -0.00805001
v 0.00593172 0.00380711 -0.00805001
v 0.00474824 0.00558264 -0.00805001
v 0.00336020 0.00685897 -0.00805001
v 0.00239428 0.00745550 -0.00805001
v -0.00281834 -0.00097385 -0.00805001
v -0.00265160 -0.00149000 -0.00805001
v -0.00236619 -0.00195126 -0.00805001
v -0.00197867 -0.00233080 -0.00805001
v -0.00151160 -0.00260657 -0.00805001
v -0.00099210 -0.00276256 -0.00805001
v -0.00045036 -0.00278968 -0.00805001
v 0.00008213 -0.00268637 -0.00805001
v 0.00057441 -0.00245864 -0.00805001
v 0.00099790 -0.00211970 -0.00805001
v 0.00132797 -0.00168927 -0.00805001
v 0.00154543 -0.00119236 -0.00805001
v 0.00163766 -0.00065784 -0.00805001
v 0.00159928 -0.00011678 -0.00805001
v 0.00143255 0.00039937 -0.00805001
v 0.00114713 0.00086061 -0.00805001
v 0.00075962 0.00124016 -0.00805001
v 0.00029254 0.00151593 -0.00805001
v -0.00022696 0.00167192 -0.00805001
v -0.00076870 0.00169905 -0.00805001
v -0.00130119 0.00159574 -0.00805001
v -0.00179347 0.00136799 -0.00805001
v -0.00221696 0.00102906 -0.00805001
v -0.00254702 0.00059863 -0.00805001
v -0.00276449 0.00010171 -0.00805001
v -0.00285671 -0.00043280 -0.00805001
v -0.00281834 -0.00097385 -0.00195001
v -0.00281834 -0.00097385 -0.00805001
v -0.00265160 -0.00149000 -0.00805001
v -0.00236619 -0.00195126 -0.00805001
v -0.00197867 -0.00233080 -0.00805001
v -0.00151160 -0.00260657 -0.00805001
v -0.00099210 -0.00276256 -0.00805001
v -0.00045036 -0.00278968 -0.00805001
v 0.00008213 -0.00268637 -0.00805001
v 0.00057441 -0.00245864 -0.00805001
v 0.00099790 -0.00211970 -0.00805001
v 0.00132797 -0.00168927 -0.00805001
v 0.00154543 -0.00119236 -0.00805001
v 0.00163766 -0.00065784 -0.00805001
v 0.00159928 -0.00011678 -0.00805001
v 0.00159928 -0.00011678 -0.00632568
v 0.00136192 -0.00162970 -0.00628882
v 0.00155750 -0.00115071 -0.00630099
v 0.00163878 -0.00063266 -0.00631361
v 0.00136192 -0.00162970 -0.00371120
v 0.00159928 -0.00011678 -0.00367434
v 0.00163878 -0.00063266 -0.00368642
v 0.00155750 -0.00115071 -0.00369904
v 0.00159928 -0.00011678 -0.00195001
v 0.00163766 -0.00065784 -0.00195001
v 0.00154543 -0.00119236 -0.00195001
v 0.00132797 -0.00168927 -0.00195001
v 0.00099790 -0.00211970 -0.00195001
v 0.00057441 -0.00245864 -0.00195001
v 0.00008213 -0.00268637 -0.00195001
v -0.00045036 -0.00278968 -0.00195001
v -0.00099210 -0.00276256 -0.00195001
v -0.00151160 -0.00260657 -0.00195001
v -0.00197867 -0.00233080 -0.00195001
v -0.00236619 -0.00195126 -0.00195001
v -0.00265160 -0.00149000 -0.00195001
v 0.00136192 -0.00162970 -0.00628882
v 0.00136192 -0.00162970 -0.00371120
v 0.00762683 -0.00154641 -0.00368345
v 0.00773210 -0.00154501 -0.00498955
v 0.00773210 -0.00154501 -0.00501048
v 0.00762683 -0.00154641 -0.00631657
v 0.00059050 0.00135795 -0.00364352
v 0.00101328 0.00101320 -0.00364996
v 0.00134622 0.00056713 -0.00365917
v 0.00150192 0.00023203 -0.00366647
v 0.00159928 -0.00011678 -0.00367434
v 0.00163878 -0.00063266 -0.00368642
v 0.00155750 -0.00115071 -0.00369904
v 0.00136192 -0.00162970 -0.00371120
v 0.00762683 -0.00154641 -0.00368345
v 0.00768626 -0.00159925 -0.00368446
v 0.00735244 -0.00122663 -0.00367700
v 0.00710683 -0.00078888 -0.00366763
v 0.00697429 -0.00038298 -0.00365854
v 0.00691538 0.00004183 -0.00364871
v 0.00681658 0.00206768 -0.00360107
v 0.00136192 -0.00162970 -0.00628882
v 0.00155750 -0.00115071 -0.00630099
v 0.00163878 -0.00063266 -0.00631361
v 0.00159928 -0.00011678 -0.00632568
v 0.00143123 0.00040221 -0.00633730
v 0.00113618 0.00087419 -0.00634728
v 0.00088031 0.00114077 -0.00635255
v 0.00059050 0.00135795 -0.00635651
v 0.00681658 0.00206768 -0.00639895
v 0.00691538 0.00004183 -0.00635131
v 0.00700637 -0.00050674 -0.00633868
v 0.00722154 -0.00102091 -0.00632737
v 0.00742873 -0.00132759 -0.00632095
v 0.00768626 -0.00159925 -0.00631556
v 0.00762683 -0.00154641 -0.00631657
v 0.00680868 0.00206678 -0.00655001
v 0.00680868 0.00206678 -0.00655001
v 0.00676043 0.00308171 -0.00655001
v 0.00676043 0.00308171 -0.00655001
v 0.00676043 0.00308171 -0.00655001
v 0.00681658 0.00206768 -0.00639895
v 0.00691538 0.00004183 -0.00635131
v 0.00691538 0.00004183 -0.00635131
v 0.00689546 0.00003129 -0.00673967
v 0.00689546 0.00003129 -0.00673967
v 0.00683312 -0.00000174 -0.00795525
v 0.00674528 0.00184607 -0.00795525
v 0.00674528 0.00184607 -0.00795525
v 0.00669182 0.00325081 -0.00770214
v 0.00669182 0.00325081 -0.00770214
v 0.00669259 0.00316468 -0.00776523
v 0.00669527 0.00305111 -0.00781701
v 0.00669527 0.00305111 -0.00781701
v 0.00669527 0.00305111 -0.00781701
v 0.00670033 0.00289209 -0.00786441
v 0.00670033 0.00289209 -0.00786441
v 0.00671484 0.00251808 -0.00792653
v 0.00671484 0.00251808 -0.00792653
v -0.00382016 -0.00142062 -0.00195001
v -0.00375104 0.00082568 -0.00195001
v -0.00315919 0.00307157 -0.00195001
v -0.00218518 0.00490722 -0.00195001
v -0.00100850 0.00629164 -0.00195001
v 0.00015164 0.00721548 -0.00195001
v 0.00139299 0.00788611 -0.00195001
v -0.00376041 -0.00218397 -0.00195001
v -0.00377722 -0.00260868 -0.00195001
v -0.00378989 -0.00297924 -0.00195001
v -0.00325983 -0.00298990 -0.00195001
v -0.00334341 -0.00293847 -0.00195001
v -0.00343434 -0.00290399 -0.00195001
v -0.00352869 -0.00288870 -0.00195001
v -0.00362271 -0.00289543 -0.00195001
v -0.00370309 -0.00292151 -0.00195001
v -0.00374847 -0.00294681 -0.00195001
v -0.00317188 -0.00306533 -0.00195001
v 0.00270415 -0.00223852 -0.00195001
v 0.00225642 -0.00288858 -0.00195001
v 0.00165357 -0.00346139 -0.00195001
v 0.00091108 -0.00389748 -0.00195001
v 0.00006964 -0.00414579 -0.00195001
v -0.00081019 -0.00417856 -0.00195001
v -0.00166159 -0.00399996 -0.00195001
v -0.00242746 -0.00364354 -0.00195001
v -0.00282288 -0.00337073 -0.00195001
v 0.00426626 -0.00066098 -0.00195001
v 0.00365908 -0.00107581 -0.00195001
v 0.00312979 -0.00161033 -0.00195001
v 0.00690610 -0.00081071 -0.00195001
v 0.00622988 -0.00040842 -0.00195001
v 0.00586247 -0.00029672 -0.00195001
v 0.00544824 -0.00026947 -0.00195001
v 0.00502774 -0.00033836 -0.00195001
v 0.00463865 -0.00047640 -0.00195001
v 0.00673301 -0.00000352 -0.00195001
v 0.00677705 -0.00036944 -0.00195001
v 0.00683132 -0.00059243 -0.00195001
v 0.00664517 0.00184429 -0.00195001
v 0.00292691 0.00715093 -0.00195001
v 0.00433164 0.00603054 -0.00195001
v 0.00548810 0.00458840 -0.00195001
v 0.00618872 0.00324803 -0.00195001
v -0.00281834 -0.00097385 -0.00195001
v -0.00285671 -0.00043280 -0.00195001
v -0.00276449 0.00010171 -0.00195001
v -0.00254702 0.00059863 -0.00195001
v -0.00221696 0.00102906 -0.00195001
v -0.00179347 0.00136799 -0.00195001
v -0.00130119 0.00159574 -0.00195001
v -0.00076870 0.00169905 -0.00195001
v -0.00022696 0.00167192 -0.00195001
v 0.00029254 0.00151593 -0.00195001
v 0.00075962 0.00124016 -0.00195001
v 0.00114713 0.00086061 -0.00195001
v 0.00143255 0.00039937 -0.00195001
v 0.00159928 -0.00011678 -0.00195001
v 0.00163766 -0.00065784 -0.00195001
v 0.00154543 -0.00119236 -0.00195001
v 0.00132797 -0.00168927 -0.00195001
v 0.00099790 -0.00211970 -0.00195001
v 0.00057441 -0.00245864 -0.00195001
v 0.00008213 -0.00268637 -0.00195001
v -0.00045036 -0.00278968 -0.00195001
v -0.00099210 -0.00276256 -0.00195001
v -0.00151160 -0.00260657 -0.00195001
v -0.00197867 -0.00233080 -0.00195001
v -0.00236619 -0.00195126 -0.00195001
v -0.00265160 -0.00149000 -0.00195001
v 0.00674528 0.00184607 -0.00204478
v 0.00674528 0.00184607 -0.00204478
v 0.00671291 0.00256459 -0.00207864
v 0.00671291 0.00256459 -0.00207864
v 0.00669503 0.00305973 -0.00218620
v 0.00669503 0.00305973 -0.00218620
v 0.00669503 0.00305973 -0.00218620
v 0.00669265 0.00316124 -0.00223283
v 0.00669182 0.00325081 -0.00229789
v 0.00669182 0.00325081 -0.00229789
v 0.00683312 -0.00000174 -0.00204478
v 0.00689546 0.00003129 -0.00326035
v 0.00689546 0.00003129 -0.00326035
v 0.00691538 0.00004183 -0.00364871
v 0.00691538 0.00004183 -0.00364871
v 0.00681658 0.00206768 -0.00360107
v 0.00680868 0.00206678 -0.00345001
v 0.00680868 0.00206678 -0.00345001
v 0.00676043 0.00308171 -0.00345001
v 0.00676043 0.00308171 -0.00345001
v 0.00676043 0.00308171 -0.00345001
v 0.00683312 -0.00000174 -0.00795525
v 0.00687504 -0.00035023 -0.00795556
v 0.00692672 -0.00056262 -0.00795568
v 0.00699793 -0.00077051 -0.00795575
v 0.00689546 0.00003129 -0.00673967
v 0.00698674 -0.00051917 -0.00673104
v 0.00720712 -0.00104273 -0.00672975
v 0.00741699 -0.00135050 -0.00673316
v 0.00766474 -0.00161097 -0.00673967
v 0.00758833 -0.00165219 -0.00823955
v 0.00712461 -0.00104494 -0.00798976
v 0.00727685 -0.00129344 -0.00806856
v 0.00742414 -0.00148248 -0.00815086
v 0.00691538 0.00004183 -0.00635131
v 0.00700637 -0.00050674 -0.00633868
v 0.00722154 -0.00102091 -0.00632737
v 0.00742873 -0.00132759 -0.00632095
v 0.00768626 -0.00159925 -0.00631556
v 0.00766474 -0.00161097 -0.00673967
v 0.00689546 0.00003129 -0.00673967
v 0.00698674 -0.00051917 -0.00673104
v 0.00720712 -0.00104273 -0.00672975
v 0.00741699 -0.00135050 -0.00673316
v 0.00758833 -0.00165219 -0.00176048
v 0.00766474 -0.00161097 -0.00326035
v 0.00730655 -0.00120189 -0.00326899
v 0.00704631 -0.00069944 -0.00327028
v 0.00694173 -0.00033591 -0.00326687
v 0.00689546 0.00003129 -0.00326035
v 0.00683312 -0.00000174 -0.00204478
v 0.00699793 -0.00077051 -0.00204427
v 0.00689337 -0.00043571 -0.00204441
v 0.00685343 -0.00022076 -0.00204457
v 0.00735596 -0.00140004 -0.00188731
v 0.00715819 -0.00110578 -0.00199453
v 0.00707287 -0.00094265 -0.00203046
v 0.00768626 -0.00159925 -0.00368446
v 0.00735244 -0.00122663 -0.00367700
v 0.00710683 -0.00078888 -0.00366763
v 0.00697429 -0.00038298 -0.00365854
v 0.00691538 0.00004183 -0.00364871
v 0.00689546 0.00003129 -0.00326035
v 0.00766474 -0.00161097 -0.00326035
v 0.00730655 -0.00120189 -0.00326899
v 0.00704631 -0.00069944 -0.00327028
v 0.00694173 -0.00033591 -0.00326687
v -0.00392574 0.00084312 -0.00345001
v -0.00220713 0.00103903 -0.00345001
v 0.00170532 0.00821649 -0.00345001
v -0.00005336 0.00730478 -0.00345001
v -0.00161772 0.00592852 -0.00345001
v -0.00284723 0.00416888 -0.00345001
v -0.00353884 0.00253924 -0.00345001
v 0.00205223 0.00820640 -0.00345001
v 0.00193880 0.00823932 -0.00345001
v 0.00183236 0.00824407 -0.00345001
v 0.00176782 0.00823482 -0.00345001
v 0.00374841 0.00722315 -0.00345001
v 0.00522772 0.00580917 -0.00345001
v 0.00607686 0.00459623 -0.00345001
v 0.00671816 0.00327846 -0.00345001
v 0.00676043 0.00308171 -0.00345001
v 0.00674962 0.00317088 -0.00345001
v 0.00673634 0.00322539 -0.00345001
v 0.00680868 0.00206678 -0.00345001
v 0.00059050 0.00135795 -0.00345001
v -0.00181271 0.00135596 -0.00345001
v -0.00135745 0.00157674 -0.00345001
v -0.00086436 0.00169020 -0.00345001
v -0.00035839 0.00169062 -0.00345001
v 0.00013488 0.00157797 -0.00345001
v 0.00180601 0.00817620 -0.00218989
v 0.00169494 0.00813062 -0.00211765
v 0.00157171 0.00808000 -0.00207195
v 0.00146231 0.00803449 -0.00205119
v 0.00135333 0.00798816 -0.00204478
v -0.00036482 0.00698182 -0.00204478
v -0.00188035 0.00549616 -0.00204478
v -0.00303981 0.00361204 -0.00204478
v -0.00373887 0.00148468 -0.00204478
v -0.00393365 0.00001390 -0.00204478
v -0.00392004 -0.00142607 -0.00204478
v -0.00393262 -0.00142675 -0.00228482
v -0.00394210 -0.00132226 -0.00231951
v -0.00394648 -0.00127428 -0.00234189
v -0.00395061 -0.00123487 -0.00237297
v -0.00395450 -0.00120293 -0.00241098
v -0.00395831 -0.00117653 -0.00245581
v -0.00396231 -0.00115366 -0.00250983
v -0.00397171 -0.00111572 -0.00265299
v -0.00398608 -0.00109190 -0.00290491
v -0.00407522 -0.00103971 -0.00455676
v -0.00406589 -0.00096778 -0.00432502
v -0.00405834 -0.00084244 -0.00411290
v -0.00405092 -0.00067268 -0.00392590
v -0.00404197 -0.00046748 -0.00376948
v -0.00402975 -0.00023594 -0.00364720
v -0.00400644 0.00010035 -0.00353483
v -0.00398441 0.00035068 -0.00348872
v -0.00395742 0.00060364 -0.00346960
v -0.00392650 0.00084304 -0.00346393
v -0.00392574 0.00084312 -0.00345001
v 0.00170532 0.00821649 -0.00345001
v -0.00005336 0.00730478 -0.00345001
v -0.00161772 0.00592852 -0.00345001
v -0.00284723 0.00416888 -0.00345001
v -0.00353884 0.00253924 -0.00345001
v -0.00392004 -0.00142607 -0.00204478
v -0.00392004 -0.00142607 -0.00204478
v -0.00385056 -0.00231375 -0.00204478
v -0.00393262 -0.00142675 -0.00228482
v -0.00388326 -0.00195549 -0.00213327
v -0.00388326 -0.00195549 -0.00213327
v -0.00392574 0.00084312 -0.00345001
v -0.00392574 0.00084312 -0.00345001
v -0.00392574 0.00084312 -0.00345001
v -0.00392574 0.00084312 -0.00345001
v -0.00220713 0.00103903 -0.00345001
v -0.00220713 0.00103903 -0.00345001
v -0.00392650 0.00084304 -0.00346393
v -0.00392650 0.00084304 -0.00346393
v -0.00392650 0.00084304 -0.00346393
v -0.00392650 0.00084304 -0.00346393
v -0.00392357 0.00084337 -0.00350858
v -0.00391057 0.00084485 -0.00355115
v -0.00391057 0.00084485 -0.00355115
v -0.00391057 0.00084485 -0.00355115
v -0.00388853 0.00084736 -0.00358967
v -0.00385851 0.00085079 -0.00362219
v -0.00385851 0.00085079 -0.00362219
v -0.00385851 0.00085079 -0.00362219
v -0.00382209 0.00085494 -0.00364723
v -0.00382209 0.00085494 -0.00364723
v -0.00378113 0.00085961 -0.00366411
v -0.00378113 0.00085961 -0.00366411
v -0.00375054 0.00086310 -0.00367078
v -0.00375054 0.00086310 -0.00367078
v -0.00371921 0.00086666 -0.00367290
v -0.00371921 0.00086666 -0.00367290
v -0.00324037 0.00092125 -0.00366964
v -0.00324037 0.00092125 -0.00366964
v -0.00220713 0.00103903 -0.00376574
v 0.00059050 0.00135795 -0.00364352
v 0.00059050 0.00135795 -0.00345001
v 0.00681658 0.00206768 -0.00360107
v 0.00680868 0.00206678 -0.00345001
v 0.00059050 0.00135795 -0.00655001
v 0.00059050 0.00135795 -0.00635651
v 0.00680868 0.00206678 -0.00655001
v 0.00681658 0.00206768 -0.00639895
v 0.00059050 0.00135795 -0.00655001
v 0.00013488 0.00157797 -0.00655001
v -0.00035839 0.00169062 -0.00655001
v -0.00086436 0.00169020 -0.00655001
v -0.00135745 0.00157674 -0.00655001
v -0.00181271 0.00135596 -0.00655001
v -0.00220713 0.00103903 -0.00655001
v -0.00392574 0.00084312 -0.00655001
v 0.00170532 0.00821649 -0.00655001
v -0.00005336 0.00730478 -0.00655001
v -0.00161772 0.00592852 -0.00655001
v -0.00284723 0.00416888 -0.00655001
v -0.00353884 0.00253924 -0.00655001
v 0.00180871 0.00824142 -0.00655001
v 0.00191500 0.00824205 -0.00655001
v 0.00198490 0.00822935 -0.00655001
v 0.00205223 0.00820640 -0.00655001
v 0.00374841 0.00722315 -0.00655001
v 0.00522772 0.00580917 -0.00655001
v 0.00607686 0.00459623 -0.00655001
v 0.00671816 0.00327846 -0.00655001
v 0.00674493 0.00319272 -0.00655001
v 0.00675521 0.00313757 -0.00655001
v 0.00676043 0.00308171 -0.00655001
v 0.00680868 0.00206678 -0.00655001
v 0.00135333 0.00798816 -0.00795525
v 0.00151167 0.00805512 -0.00794141
v 0.00166687 0.00811913 -0.00789534
v 0.00173926 0.00814878 -0.00785806
v 0.00180601 0.00817620 -0.00781013
v 0.00170532 0.00821649 -0.00655001
v -0.00005336 0.00730478 -0.00655001
v -0.00161772 0.00592852 -0.00655001
v -0.00284723 0.00416888 -0.00655001
v -0.00353884 0.00253924 -0.00655001
v -0.00392574 0.00084312 -0.00655001
v -0.00392650 0.00084304 -0.00653610
v -0.00395742 0.00060364 -0.00653042
v -0.00400846 0.00007508 -0.00645917
v -0.00403712 -0.00036836 -0.00628847
v -0.00405039 -0.00066033 -0.00608537
v -0.00405942 -0.00086467 -0.00585662
v -0.00406650 -0.00097527 -0.00565835
v -0.00407522 -0.00103971 -0.00544326
v -0.00398608 -0.00109190 -0.00709512
v -0.00396942 -0.00112320 -0.00738354
v -0.00395976 -0.00116774 -0.00752545
v -0.00395383 -0.00120806 -0.00759611
v -0.00394931 -0.00124662 -0.00763781
v -0.00394580 -0.00128136 -0.00766234
v -0.00394210 -0.00132226 -0.00768051
v -0.00393262 -0.00142675 -0.00771520
v -0.00392005 -0.00142607 -0.00795525
v -0.00385198 0.00083296 -0.00795525
v -0.00326136 0.00309282 -0.00795525
v -0.00228751 0.00494361 -0.00795525
v -0.00110925 0.00634333 -0.00795525
v 0.00007924 0.00729762 -0.00795525
v -0.00393262 -0.00142675 -0.00771520
v -0.00388326 -0.00195549 -0.00786675
v -0.00388326 -0.00195549 -0.00786675
v -0.00392005 -0.00142607 -0.00795525
v -0.00392005 -0.00142607 -0.00795525
v -0.00385056 -0.00231375 -0.00795525
v -0.00220713 0.00103903 -0.00623429
v -0.00324037 0.00092125 -0.00633039
v -0.00324037 0.00092125 -0.00633039
v -0.00371921 0.00086666 -0.00632712
v -0.00371921 0.00086666 -0.00632712
v -0.00376836 0.00086106 -0.00633255
v -0.00376836 0.00086106 -0.00633255
v -0.00376836 0.00086106 -0.00633255
v -0.00381473 0.00085577 -0.00634898
v -0.00381473 0.00085577 -0.00634898
v -0.00385592 0.00085108 -0.00637564
v -0.00385592 0.00085108 -0.00637564
v -0.00388651 0.00084759 -0.00640765
v -0.00390733 0.00084522 -0.00644177
v -0.00390733 0.00084522 -0.00644177
v -0.00392095 0.00084366 -0.00647946
v -0.00392095 0.00084366 -0.00647946
v -0.00392585 0.00084311 -0.00650750
v -0.00392650 0.00084304 -0.00653610
v -0.00392650 0.00084304 -0.00653610
v -0.00392650 0.00084304 -0.00653610
v -0.00392574 0.00084312 -0.00655001
v -0.00392574 0.00084312 -0.00655001
v -0.00392574 0.00084312 -0.00655001
v -0.00220713 0.00103903 -0.00655001
v -0.00220713 0.00103903 -0.00655001
v -0.00375787 0.00057416 -0.00632003
v -0.00371921 0.00086666 -0.00632712
v -0.00324037 0.00092125 -0.00633039
v -0.00398712 -0.00085864 -0.00535713
v -0.00280832 -0.00006801 -0.00538073
v -0.00397405 -0.00081428 -0.00554134
v -0.00395959 -0.00072808 -0.00571241
v -0.00394302 -0.00060608 -0.00586678
v -0.00392362 -0.00045429 -0.00600091
v -0.00390064 -0.00027895 -0.00611139
v -0.00386318 -0.00002019 -0.00622093
v -0.00381503 0.00027258 -0.00629198
v -0.00375787 0.00057416 -0.00632003
v -0.00324037 0.00092125 -0.00633039
v -0.00220713 0.00103903 -0.00623429
v -0.00280267 -0.00004232 -0.00551738
v -0.00279013 0.00000951 -0.00564509
v -0.00276995 0.00008321 -0.00576072
v -0.00274145 0.00017373 -0.00586153
v -0.00270418 0.00027599 -0.00594745
v -0.00264038 0.00042326 -0.00604032
v -0.00255059 0.00059254 -0.00611810
v -0.00239493 0.00082393 -0.00619101
v -0.00280832 -0.00006801 -0.00538073
v -0.00281451 -0.00009751 -0.00501048
v -0.00281451 -0.00009751 -0.00501048
v -0.00400382 -0.00089355 -0.00501048
v -0.00398712 -0.00085864 -0.00535713
v -0.00398712 -0.00085864 -0.00535713
v -0.00400500 -0.00089470 -0.00500001
v -0.00400382 -0.00089355 -0.00501048
v -0.00281451 -0.00009751 -0.00501048
v -0.00281460 -0.00009792 -0.00500001
v -0.00400382 -0.00089355 -0.00498954
v -0.00281451 -0.00009751 -0.00498954
v -0.00400500 -0.00089470 -0.00500001
v -0.00281460 -0.00009792 -0.00500001
v -0.00281451 -0.00009751 -0.00498954
v -0.00280832 -0.00006801 -0.00461930
v -0.00398711 -0.00085864 -0.00464290
v -0.00400382 -0.00089355 -0.00498954
v -0.00324037 0.00092125 -0.00366964
v -0.00220713 0.00103903 -0.00376574
v -0.00375787 0.00057416 -0.00368000
v -0.00384429 0.00009931 -0.00374448
v -0.00389779 -0.00025819 -0.00387785
v -0.00393194 -0.00051950 -0.00405135
v -0.00395425 -0.00069035 -0.00423353
v -0.00397114 -0.00079927 -0.00442154
v -0.00397934 -0.00083710 -0.00453016
v -0.00398711 -0.00085864 -0.00464290
v -0.00280832 -0.00006801 -0.00461930
v -0.00248402 0.00069916 -0.00384445
v -0.00263622 0.00043188 -0.00395513
v -0.00272586 0.00021829 -0.00409827
v -0.00275835 0.00012173 -0.00419260
v -0.00278224 0.00003946 -0.00430247
v -0.00279841 -0.00002401 -0.00442920
v -0.00280503 -0.00005283 -0.00452235
v -0.00395742 0.00060364 -0.00346960
v -0.00392650 0.00084304 -0.00346393
v -0.00375787 0.00057416 -0.00368000
v -0.00380276 0.00058201 -0.00367485
v -0.00384834 0.00058965 -0.00365820
v -0.00388631 0.00059569 -0.00363297
v -0.00391517 0.00059997 -0.00360298
v -0.00393705 0.00060286 -0.00356804
v -0.00395103 0.00060427 -0.00353058
v -0.00395665 0.00060437 -0.00349952
v -0.00371921 0.00086666 -0.00367290
v -0.00392357 0.00084337 -0.00350858
v -0.00391057 0.00084485 -0.00355115
v -0.00388853 0.00084736 -0.00358967
v -0.00385851 0.00085079 -0.00362219
v -0.00382209 0.00085494 -0.00364723
v -0.00378113 0.00085961 -0.00366411
v -0.00375054 0.00086310 -0.00367078
v -0.00407522 -0.00103971 -0.00455676
v -0.00407847 -0.00104302 -0.00462244
v -0.00398711 -0.00085864 -0.00464290
v -0.00402089 -0.00088730 -0.00463871
v -0.00404877 -0.00092467 -0.00463409
v -0.00406432 -0.00095779 -0.00463046
v -0.00407408 -0.00099272 -0.00462697
v -0.00407765 -0.00101795 -0.00462463
v -0.00375787 0.00057416 -0.00368000
v -0.00384429 0.00009931 -0.00374448
v -0.00389779 -0.00025819 -0.00387785
v -0.00393194 -0.00051950 -0.00405135
v -0.00395425 -0.00069035 -0.00423353
v -0.00397114 -0.00079927 -0.00442154
v -0.00397934 -0.00083710 -0.00453016
v -0.00380276 0.00058201 -0.00367485
v -0.00384834 0.00058965 -0.00365820
v -0.00388631 0.00059569 -0.00363297
v -0.00391517 0.00059997 -0.00360298
v -0.00393705 0.00060286 -0.00356804
v -0.00395103 0.00060427 -0.00353058
v -0.00395665 0.00060437 -0.00349952
v -0.00395742 0.00060364 -0.00346960
v -0.00406589 -0.00096778 -0.00432502
v -0.00405834 -0.00084244 -0.00411290
v -0.00405092 -0.00067268 -0.00392590
v -0.00404197 -0.00046748 -0.00376948
v -0.00402975 -0.00023594 -0.00364720
v -0.00400644 0.00010035 -0.00353483
v -0.00398441 0.00035068 -0.00348872
v -0.00405181 -0.00092398 -0.00454175
v -0.00404644 -0.00089256 -0.00443641
v -0.00404351 -0.00086895 -0.00437868
v -0.00403814 -0.00081466 -0.00427525
v -0.00403295 -0.00075122 -0.00418196
v -0.00402666 -0.00066430 -0.00408040
v -0.00402083 -0.00057976 -0.00400033
v -0.00401450 -0.00048713 -0.00392740
v -0.00400416 -0.00034399 -0.00383792
v -0.00399559 -0.00023624 -0.00378447
v -0.00397869 -0.00004613 -0.00371224
v -0.00396285 0.00011213 -0.00366961
v -0.00395026 0.00022724 -0.00364712
v -0.00391886 0.00048143 -0.00362016
v -0.00393454 0.00048229 -0.00360075
v -0.00394761 0.00048256 -0.00357974
v -0.00407847 -0.00104302 -0.00462244
v -0.00409446 -0.00105357 -0.00497127
v -0.00400382 -0.00089355 -0.00498954
v -0.00403718 -0.00092162 -0.00498545
v -0.00406479 -0.00095838 -0.00498090
v -0.00408417 -0.00100163 -0.00497623
v -0.00409084 -0.00102741 -0.00497369
v -0.00398711 -0.00085864 -0.00464290
v -0.00402089 -0.00088730 -0.00463871
v -0.00404877 -0.00092467 -0.00463409
v -0.00406432 -0.00095779 -0.00463046
v -0.00407408 -0.00099272 -0.00462697
v -0.00407765 -0.00101795 -0.00462463
v -0.00409446 -0.00105357 -0.00497127
v -0.00409522 -0.00105391 -0.00498835
v -0.00409533 -0.00105391 -0.00499054
v -0.00400500 -0.00089470 -0.00500001
v -0.00403806 -0.00092272 -0.00499746
v -0.00406547 -0.00095929 -0.00499493
v -0.00408483 -0.00100228 -0.00499264
v -0.00409157 -0.00102789 -0.00499152
v -0.00400382 -0.00089355 -0.00498954
v -0.00403718 -0.00092162 -0.00498545
v -0.00406479 -0.00095838 -0.00498090
v -0.00408417 -0.00100163 -0.00497623
v -0.00409084 -0.00102741 -0.00497369
v -0.00409533 -0.00105391 -0.00499054
v -0.00409533 -0.00105391 -0.00500948
v -0.00400500 -0.00089470 -0.00500001
v -0.00403806 -0.00092272 -0.00500257
v -0.00406547 -0.00095929 -0.00500509
v -0.00408483 -0.00100228 -0.00500739
v -0.00409157 -0.00102789 -0.00500851
v -0.00403806 -0.00092272 -0.00499746
v -0.00406547 -0.00095929 -0.00499493
v -0.00408483 -0.00100228 -0.00499264
v -0.00409157 -0.00102789 -0.00499152
v -0.00409533 -0.00105391 -0.00500948
v -0.00409522 -0.00105391 -0.00501167
v -0.00409446 -0.00105357 -0.00502875
v -0.00400382 -0.00089355 -0.00501048
v -0.00403718 -0.00092162 -0.00501457
v -0.00406479 -0.00095838 -0.00501912
v -0.00408417 -0.00100163 -0.00502380
v -0.00409084 -0.00102741 -0.00502634
v -0.00400500 -0.00089470 -0.00500001
v -0.00403806 -0.00092272 -0.00500257
v -0.00406547 -0.00095929 -0.00500509
v -0.00408483 -0.00100228 -0.00500739
v -0.00409157 -0.00102789 -0.00500851
v -0.00409446 -0.00105357 -0.00502875
v -0.00407847 -0.00104302 -0.00537758
v -0.00398712 -0.00085864 -0.00535713
v -0.00402094 -0.00088719 -0.00536130
v -0.00404878 -0.00092465 -0.00536594
v -0.00406809 -0.00096870 -0.00537069
v -0.00407635 -0.00100577 -0.00537429
v -0.00400382 -0.00089355 -0.00501048
v -0.00403718 -0.00092162 -0.00501457
v -0.00406479 -0.00095838 -0.00501912
v -0.00408417 -0.00100163 -0.00502380
v -0.00409084 -0.00102741 -0.00502634
v -0.00407847 -0.00104302 -0.00537758
v -0.00407522 -0.00103971 -0.00544326
v -0.00395742 0.00060364 -0.00653042
v -0.00400846 0.00007508 -0.00645917
v -0.00403712 -0.00036836 -0.00628847
v -0.00405039 -0.00066033 -0.00608537
v -0.00405942 -0.00086467 -0.00585662
v -0.00406650 -0.00097527 -0.00565835
v -0.00375787 0.00057416 -0.00632003
v -0.00380291 0.00058202 -0.00632564
v -0.00384845 0.00058965 -0.00634246
v -0.00388632 0.00059569 -0.00636720
v -0.00391505 0.00059995 -0.00639703
v -0.00393647 0.00060276 -0.00643186
v -0.00395043 0.00060416 -0.00646925
v -0.00395639 0.00060433 -0.00650040
v -0.00398712 -0.00085864 -0.00535713
v -0.00397405 -0.00081428 -0.00554134
v -0.00395959 -0.00072808 -0.00571241
v -0.00394302 -0.00060608 -0.00586678
v -0.00392362 -0.00045429 -0.00600091
v -0.00390064 -0.00027895 -0.00611139
v -0.00386318 -0.00002019 -0.00622093
v -0.00381503 0.00027258 -0.00629198
v -0.00402094 -0.00088719 -0.00536130
v -0.00404878 -0.00092465 -0.00536594
v -0.00406809 -0.00096870 -0.00537069
v -0.00407635 -0.00100577 -0.00537429
v -0.00388450 0.00043498 -0.00634322
v -0.00390055 0.00043626 -0.00635476
v -0.00391307 0.00043705 -0.00636558
v -0.00395416 0.00019272 -0.00634709
v -0.00397070 0.00003599 -0.00631195
v -0.00399016 -0.00017221 -0.00624291
v -0.00400141 -0.00030837 -0.00618097
v -0.00400873 -0.00040570 -0.00612651
v -0.00401805 -0.00053942 -0.00603316
v -0.00402369 -0.00062192 -0.00596181
v -0.00403048 -0.00071835 -0.00585966
v -0.00403535 -0.00078229 -0.00577541
v -0.00404012 -0.00083650 -0.00568716
v -0.00404490 -0.00088092 -0.00559390
v -0.00404980 -0.00091404 -0.00549762
v -0.00375787 0.00057416 -0.00632003
v -0.00371921 0.00086666 -0.00632712
v -0.00380291 0.00058202 -0.00632564
v -0.00384845 0.00058965 -0.00634246
v -0.00388632 0.00059569 -0.00636720
v -0.00391505 0.00059995 -0.00639703
v -0.00393647 0.00060276 -0.00643186
v -0.00395043 0.00060416 -0.00646925
v -0.00395639 0.00060433 -0.00650040
v -0.00395742 0.00060364 -0.00653042
v -0.00392650 0.00084304 -0.00653610
v -0.00376836 0.00086106 -0.00633255
v -0.00381473 0.00085577 -0.00634898
v -0.00385592 0.00085108 -0.00637564
v -0.00388651 0.00084759 -0.00640765
v -0.00390733 0.00084522 -0.00644177
v -0.00392095 0.00084366 -0.00647946
v -0.00392585 0.00084311 -0.00650750
v 0.00758833 -0.00165219 -0.00823955
v 0.00657363 -0.00083416 -0.00823954
v 0.00609075 -0.00058363 -0.00823955
v 0.00581237 -0.00050792 -0.00823955
v 0.00552864 -0.00048531 -0.00823955
v 0.00524258 -0.00051385 -0.00823955
v 0.00488624 -0.00061351 -0.00823955
v 0.00462192 -0.00072412 -0.00823955
v 0.00436138 -0.00085735 -0.00823955
v 0.00435814 -0.00085066 -0.00819726
v 0.00435008 -0.00083401 -0.00815499
v 0.00433712 -0.00080727 -0.00811637
v 0.00432004 -0.00077200 -0.00808494
v 0.00430030 -0.00073125 -0.00806322
v 0.00428311 -0.00069575 -0.00805316
v 0.00426626 -0.00066098 -0.00805001
v 0.00503994 -0.00033512 -0.00805001
v 0.00545560 -0.00026909 -0.00805001
v 0.00586976 -0.00029810 -0.00805001
v 0.00628134 -0.00043075 -0.00805001
v 0.00660188 -0.00060258 -0.00805001
v 0.00690609 -0.00081071 -0.00805001
v 0.00721843 -0.00125908 -0.00811648
v 0.00446321 -0.00072649 -0.00810494
v 0.00446942 -0.00074019 -0.00811935
v 0.00447493 -0.00075235 -0.00813499
v 0.00483405 -0.00056025 -0.00810502
v 0.00497046 -0.00051289 -0.00810502
v 0.00515336 -0.00046286 -0.00810502
v 0.00534817 -0.00042900 -0.00810506
v 0.00549623 -0.00041820 -0.00810506
v 0.00568832 -0.00042372 -0.00810494
v 0.00583504 -0.00044355 -0.00810494
v 0.00598019 -0.00047716 -0.00810494
v 0.00617102 -0.00054358 -0.00810494
v 0.00642033 -0.00066480 -0.00810494
v 0.00657067 -0.00075450 -0.00810494
v 0.00671841 -0.00085317 -0.00810494
v 0.00436138 -0.00085735 -0.00823955
v 0.00435814 -0.00085066 -0.00819726
v 0.00435008 -0.00083401 -0.00815499
v 0.00433712 -0.00080727 -0.00811637
v 0.00432004 -0.00077200 -0.00808494
v 0.00430030 -0.00073125 -0.00806322
v 0.00428311 -0.00069575 -0.00805316
v 0.00426626 -0.00066098 -0.00805001
v 0.00378430 -0.00125163 -0.00823955
v 0.00328123 -0.00175965 -0.00823955
v 0.00287669 -0.00235671 -0.00823955
v 0.00287080 -0.00235268 -0.00819726
v 0.00285618 -0.00234266 -0.00815499
v 0.00283269 -0.00232657 -0.00811637
v 0.00280170 -0.00230535 -0.00808494
v 0.00276589 -0.00228081 -0.00806322
v 0.00273470 -0.00225944 -0.00805316
v 0.00270415 -0.00223852 -0.00805001
v 0.00312979 -0.00161033 -0.00805001
v 0.00365908 -0.00107581 -0.00805001
v 0.00375621 -0.00121218 -0.00812352
v 0.00348732 -0.00145944 -0.00812352
v 0.00324725 -0.00172615 -0.00812352
v 0.00287669 -0.00235671 -0.00823955
v 0.00287080 -0.00235268 -0.00819726
v 0.00285618 -0.00234266 -0.00815499
v 0.00283269 -0.00232657 -0.00811637
v 0.00280170 -0.00230535 -0.00808494
v 0.00276589 -0.00228081 -0.00806322
v 0.00273470 -0.00225944 -0.00805316
v 0.00270415 -0.00223852 -0.00805001
v 0.00241954 -0.00302405 -0.00823955
v 0.00180710 -0.00361564 -0.00823955
v 0.00105355 -0.00407336 -0.00823955
v 0.00019712 -0.00434637 -0.00823954
v -0.00070431 -0.00440510 -0.00823954
v -0.00158534 -0.00425005 -0.00823954
v -0.00238813 -0.00391063 -0.00823954
v -0.00287720 -0.00359214 -0.00823954
v -0.00330260 -0.00322618 -0.00823954
v -0.00329925 -0.00322207 -0.00820391
v -0.00329016 -0.00321088 -0.00816435
v -0.00327327 -0.00319010 -0.00812352
v -0.00325019 -0.00316170 -0.00808975
v -0.00322316 -0.00312843 -0.00806600
v -0.00319831 -0.00309785 -0.00805413
v -0.00317188 -0.00306533 -0.00805001
v -0.00254882 -0.00356709 -0.00805001
v -0.00179874 -0.00395079 -0.00805001
v -0.00095451 -0.00416305 -0.00805001
v -0.00007104 -0.00416590 -0.00805001
v 0.00070217 -0.00398083 -0.00805001
v 0.00133972 -0.00367504 -0.00805001
v 0.00189433 -0.00326218 -0.00805001
v 0.00235032 -0.00277327 -0.00805001
v 0.00254012 -0.00250948 -0.00805001
v -0.00308218 -0.00339112 -0.00814979
v -0.00307713 -0.00338400 -0.00813657
v -0.00307121 -0.00337565 -0.00812352
v -0.00274080 -0.00363346 -0.00812352
v -0.00249908 -0.00379143 -0.00812352
v -0.00211332 -0.00399755 -0.00812352
v -0.00171126 -0.00415918 -0.00812352
v -0.00127503 -0.00427934 -0.00812352
v -0.00083575 -0.00434622 -0.00812352
v -0.00037604 -0.00436000 -0.00812352
v 0.00007009 -0.00431826 -0.00812352
v 0.00047523 -0.00423146 -0.00812352
v 0.00089669 -0.00408788 -0.00812352
v 0.00123031 -0.00393144 -0.00812352
v 0.00160372 -0.00370453 -0.00812352
v 0.00188987 -0.00348676 -0.00812352
v 0.00219926 -0.00319798 -0.00812352
v 0.00242843 -0.00293851 -0.00812352
v 0.00253307 -0.00280369 -0.00812352
v 0.00275594 -0.00247187 -0.00812352
v 0.00273767 -0.00245828 -0.00810086
v 0.00271769 -0.00244344 -0.00808269
v -0.00330260 -0.00322618 -0.00823954
v -0.00329925 -0.00322207 -0.00820391
v -0.00329016 -0.00321088 -0.00816435
v -0.00327327 -0.00319010 -0.00812352
v -0.00325019 -0.00316170 -0.00808975
v -0.00322316 -0.00312843 -0.00806600
v -0.00319831 -0.00309785 -0.00805413
v -0.00317188 -0.00306533 -0.00805001
v -0.00336688 -0.00316620 -0.00821122
v -0.00335973 -0.00315441 -0.00816951
v -0.00334701 -0.00313347 -0.00812971
v -0.00332911 -0.00310399 -0.00809548
v -0.00330731 -0.00306810 -0.00806994
v -0.00328354 -0.00302896 -0.00805479
v -0.00325983 -0.00298990 -0.00805001
v -0.00378989 -0.00297924 -0.00805001
v -0.00372746 -0.00293396 -0.00805001
v -0.00365738 -0.00290412 -0.00805001
v -0.00358258 -0.00288967 -0.00805001
v -0.00350594 -0.00289049 -0.00805001
v -0.00342968 -0.00290527 -0.00805001
v -0.00335579 -0.00293257 -0.00805001
v -0.00330634 -0.00295864 -0.00805001
v -0.00325983 -0.00298990 -0.00805001
v -0.00336688 -0.00316620 -0.00821122
v -0.00335973 -0.00315441 -0.00816951
v -0.00334701 -0.00313347 -0.00812971
v -0.00332911 -0.00310399 -0.00809548
v -0.00330731 -0.00306810 -0.00806994
v -0.00328354 -0.00302896 -0.00805479
v -0.00344487 -0.00311699 -0.00819081
v -0.00351959 -0.00309244 -0.00817307
v -0.00357941 -0.00308803 -0.00815990
v -0.00362522 -0.00309562 -0.00815043
v -0.00366247 -0.00311141 -0.00814311
v -0.00369421 -0.00313496 -0.00813754
v -0.00371669 -0.00316204 -0.00813455
v -0.00373099 -0.00319060 -0.00813389
v -0.00373850 -0.00322059 -0.00813535
v -0.00373953 -0.00325324 -0.00813910
v -0.00376406 -0.00318495 -0.00809830
v -0.00378310 -0.00309655 -0.00806489
v -0.00378890 -0.00304126 -0.00805408
v -0.00343917 -0.00303527 -0.00808804
v -0.00348594 -0.00301905 -0.00808531
v -0.00351467 -0.00301248 -0.00808372
v -0.00354351 -0.00300852 -0.00808220
v -0.00358188 -0.00300752 -0.00808026
v -0.00361024 -0.00301015 -0.00807890
v -0.00364029 -0.00301643 -0.00807753
v -0.00366693 -0.00302564 -0.00807635
v 0.00690610 -0.00081071 -0.00195001
v 0.00622988 -0.00040842 -0.00195001
v 0.00586247 -0.00029672 -0.00195001
v 0.00544824 -0.00026947 -0.00195001
v 0.00502774 -0.00033836 -0.00195001
v 0.00463865 -0.00047640 -0.00195001
v 0.00426626 -0.00066098 -0.00195001
v 0.00428885 -0.00070759 -0.00194431
v 0.00431150 -0.00075435 -0.00192603
v 0.00432997 -0.00079250 -0.00189870
v 0.00434360 -0.00082064 -0.00186676
v 0.00435352 -0.00084111 -0.00183022
v 0.00435906 -0.00085255 -0.00179515
v 0.00436138 -0.00085735 -0.00176048
v 0.00490953 -0.00060516 -0.00176048
v 0.00536723 -0.00049527 -0.00176048
v 0.00574956 -0.00049836 -0.00176048
v 0.00602937 -0.00056212 -0.00176048
v 0.00640787 -0.00073328 -0.00176048
v 0.00683012 -0.00101487 -0.00176048
v 0.00758833 -0.00165219 -0.00176048
v 0.00710673 -0.00111451 -0.00191684
v 0.00733580 -0.00139678 -0.00184524
v 0.00518185 -0.00045644 -0.00189509
v 0.00451160 -0.00070204 -0.00189509
v 0.00450502 -0.00068710 -0.00190790
v 0.00449795 -0.00067106 -0.00191914
v 0.00479054 -0.00057694 -0.00189509
v 0.00497672 -0.00051090 -0.00189502
v 0.00540921 -0.00042298 -0.00189495
v 0.00560779 -0.00041875 -0.00189495
v 0.00579910 -0.00043741 -0.00189509
v 0.00594469 -0.00046761 -0.00189509
v 0.00611515 -0.00052161 -0.00189509
v 0.00631052 -0.00060693 -0.00189509
v 0.00663539 -0.00079653 -0.00189509
v 0.00684775 -0.00094692 -0.00189509
v 0.00426626 -0.00066098 -0.00195001
v 0.00428885 -0.00070759 -0.00194431
v 0.00431150 -0.00075435 -0.00192603
v 0.00432997 -0.00079250 -0.00189870
v 0.00434360 -0.00082064 -0.00186676
v 0.00435352 -0.00084111 -0.00183022
v 0.00435906 -0.00085255 -0.00179515
v 0.00436138 -0.00085735 -0.00176048
v 0.00365908 -0.00107581 -0.00195001
v 0.00312979 -0.00161033 -0.00195001
v 0.00270415 -0.00223852 -0.00195001
v 0.00274511 -0.00226657 -0.00194431
v 0.00278619 -0.00229472 -0.00192603
v 0.00281971 -0.00231768 -0.00189870
v 0.00284443 -0.00233462 -0.00186676
v 0.00286242 -0.00234694 -0.00183022
v 0.00287247 -0.00235382 -0.00179515
v 0.00287669 -0.00235671 -0.00176048
v 0.00328123 -0.00175965 -0.00176048
v 0.00378430 -0.00125163 -0.00176048
v 0.00324725 -0.00172615 -0.00187651
v 0.00348732 -0.00145944 -0.00187651
v 0.00375621 -0.00121218 -0.00187651
v 0.00270415 -0.00223852 -0.00195001
v 0.00274511 -0.00226657 -0.00194431
v 0.00278619 -0.00229472 -0.00192603
v 0.00281971 -0.00231768 -0.00189870
v 0.00284443 -0.00233462 -0.00186676
v 0.00286242 -0.00234694 -0.00183022
v 0.00287247 -0.00235382 -0.00179515
v 0.00287669 -0.00235671 -0.00176048
v 0.00225642 -0.00288858 -0.00195001
v 0.00165357 -0.00346139 -0.00195001
v 0.00091108 -0.00389748 -0.00195001
v 0.00006964 -0.00414579 -0.00195001
v -0.00081019 -0.00417856 -0.00195001
v -0.00166159 -0.00399996 -0.00195001
v -0.00242746 -0.00364354 -0.00195001
v -0.00282288 -0.00337073 -0.00195001
v -0.00317188 -0.00306533 -0.00195001
v -0.00320487 -0.00310594 -0.00194355
v -0.00323482 -0.00314279 -0.00192537
v -0.00325954 -0.00317321 -0.00189853
v -0.00327813 -0.00319608 -0.00186682
v -0.00329078 -0.00321165 -0.00183364
v -0.00329837 -0.00322099 -0.00180145
v -0.00330127 -0.00322456 -0.00178022
v -0.00330259 -0.00322618 -0.00176048
v -0.00266537 -0.00374199 -0.00176048
v -0.00190051 -0.00414112 -0.00176048
v -0.00103922 -0.00437117 -0.00176048
v -0.00013393 -0.00439367 -0.00176048
v 0.00075025 -0.00419652 -0.00176048
v 0.00155019 -0.00379906 -0.00176048
v 0.00221897 -0.00324647 -0.00176048
v 0.00258369 -0.00281476 -0.00176048
v 0.00271970 -0.00257316 -0.00184393
v 0.00271118 -0.00256650 -0.00186110
v 0.00270173 -0.00255911 -0.00187651
v 0.00246257 -0.00289578 -0.00187651
v 0.00228198 -0.00310942 -0.00187651
v 0.00197515 -0.00341324 -0.00187651
v 0.00163730 -0.00368110 -0.00187651
v 0.00125681 -0.00391723 -0.00187651
v 0.00085495 -0.00410468 -0.00187651
v 0.00042038 -0.00424605 -0.00187651
v -0.00002052 -0.00433121 -0.00187651
v -0.00047892 -0.00436188 -0.00187651
v -0.00092624 -0.00433676 -0.00187651
v -0.00137405 -0.00425687 -0.00187651
v -0.00179518 -0.00412963 -0.00187651
v -0.00220205 -0.00395480 -0.00187651
v -0.00257172 -0.00374645 -0.00187651
v -0.00277936 -0.00360600 -0.00187651
v -0.00309808 -0.00335229 -0.00187651
v -0.00309204 -0.00334392 -0.00188774
v -0.00308527 -0.00333456 -0.00189853
v -0.00307443 -0.00331955 -0.00191280
v -0.00385056 -0.00231375 -0.00795525
v -0.00392005 -0.00142607 -0.00795525
v -0.00391824 -0.00142597 -0.00796958
v -0.00391440 -0.00142576 -0.00798352
v -0.00390152 -0.00142506 -0.00800817
v -0.00388334 -0.00142407 -0.00802754
v -0.00386864 -0.00142327 -0.00803748
v -0.00385250 -0.00142238 -0.00804464
v -0.00383659 -0.00142151 -0.00804865
v -0.00382016 -0.00142062 -0.00805001
v -0.00376041 -0.00218397 -0.00805001
v -0.00380191 -0.00258665 -0.00801868
v -0.00383177 -0.00251753 -0.00797422
v -0.00381593 -0.00263279 -0.00799313
v -0.00380762 -0.00264238 -0.00800602
v -0.00380420 -0.00262140 -0.00801286
v -0.00386776 -0.00180652 -0.00801326
v -0.00386051 -0.00180613 -0.00802122
v -0.00385306 -0.00180572 -0.00802787
v -0.00383302 -0.00225037 -0.00801326
v -0.00381536 -0.00235180 -0.00802354
v 0.00139299 0.00788611 -0.00805001
v 0.00138281 0.00791230 -0.00804667
v 0.00137366 0.00793586 -0.00803736
v 0.00136556 0.00795668 -0.00802234
v 0.00135903 0.00797348 -0.00800187
v 0.00135494 0.00798401 -0.00797868
v 0.00135333 0.00798816 -0.00795525
v -0.00392005 -0.00142607 -0.00795525
v -0.00385198 0.00083296 -0.00795525
v -0.00326136 0.00309282 -0.00795525
v -0.00228751 0.00494361 -0.00795525
v -0.00110925 0.00634333 -0.00795525
v 0.00007924 0.00729762 -0.00795525
v -0.00391824 -0.00142597 -0.00796958
v -0.00391440 -0.00142576 -0.00798352
v -0.00390152 -0.00142506 -0.00800817
v -0.00388334 -0.00142407 -0.00802754
v -0.00386864 -0.00142327 -0.00803748
v -0.00385250 -0.00142238 -0.00804464
v -0.00383659 -0.00142151 -0.00804865
v -0.00382016 -0.00142062 -0.00805001
v -0.00031490 0.00688413 -0.00805001
v -0.00181923 0.00540311 -0.00805001
v -0.00296598 0.00352515 -0.00805001
v -0.00365125 0.00140710 -0.00805001
v -0.00383507 -0.00002190 -0.00805001
v 0.00070921 0.00764799 -0.00801326
v 0.00070633 0.00765403 -0.00800490
v 0.00070399 0.00765891 -0.00799650
v -0.00013793 0.00711886 -0.00801326
v -0.00073810 0.00664857 -0.00801326
v -0.00150363 0.00590243 -0.00801326
v -0.00207986 0.00519655 -0.00801326
v -0.00268680 0.00425311 -0.00801326
v -0.00314212 0.00332384 -0.00801326
v -0.00352568 0.00224675 -0.00801326
v -0.00378347 0.00112616 -0.00801326
v -0.00388049 0.00040195 -0.00801326
v -0.00391402 -0.00074033 -0.00802787
v -0.00392151 -0.00074014 -0.00802122
v -0.00392878 -0.00073998 -0.00801326
v 0.00674528 0.00184607 -0.00795525
v 0.00683312 -0.00000174 -0.00795525
v 0.00682847 -0.00000183 -0.00798053
v 0.00681753 -0.00000201 -0.00800379
v 0.00680008 -0.00000233 -0.00802433
v 0.00677653 -0.00000274 -0.00804010
v 0.00675561 -0.00000312 -0.00804744
v 0.00673301 -0.00000352 -0.00805001
v 0.00664517 0.00184429 -0.00805001
v 0.00674348 0.00184604 -0.00796958
v 0.00673962 0.00184598 -0.00798352
v 0.00672672 0.00184574 -0.00800817
v 0.00670849 0.00184542 -0.00802754
v 0.00668637 0.00184502 -0.00804118
v 0.00666562 0.00184466 -0.00804791
v 0.00690609 -0.00081071 -0.00805001
v 0.00679629 -0.00045918 -0.00805001
v 0.00675435 -0.00023349 -0.00805001
v 0.00673301 -0.00000352 -0.00805001
v 0.00699793 -0.00077051 -0.00795575
v 0.00699622 -0.00077126 -0.00797004
v 0.00699263 -0.00077282 -0.00798391
v 0.00698076 -0.00077802 -0.00800843
v 0.00696403 -0.00078535 -0.00802768
v 0.00695054 -0.00079125 -0.00803756
v 0.00693574 -0.00079773 -0.00804468
v 0.00692116 -0.00080412 -0.00804866
v 0.00683312 -0.00000174 -0.00795525
v 0.00687504 -0.00035023 -0.00795556
v 0.00692672 -0.00056262 -0.00795568
v 0.00682847 -0.00000183 -0.00798053
v 0.00681753 -0.00000201 -0.00800379
v 0.00680008 -0.00000233 -0.00802433
v 0.00677653 -0.00000274 -0.00804010
v 0.00675561 -0.00000312 -0.00804744
v 0.00678759 -0.00011563 -0.00803852
v 0.00679881 -0.00011481 -0.00803162
v 0.00680980 -0.00011401 -0.00802259
v 0.00683264 -0.00029066 -0.00802264
v 0.00685340 -0.00039971 -0.00802267
v 0.00687913 -0.00050767 -0.00802269
v 0.00693061 -0.00067808 -0.00802271
v 0.00693664 -0.00067583 -0.00801607
v 0.00694177 -0.00067391 -0.00800929
v 0.00694644 -0.00067216 -0.00800185
v 0.00758833 -0.00165219 -0.00823955
v 0.00721843 -0.00125908 -0.00811648
v 0.00690609 -0.00081071 -0.00805001
v 0.00758833 -0.00165219 -0.00823955
v 0.00699793 -0.00077051 -0.00795575
v 0.00712461 -0.00104494 -0.00798976
v 0.00727685 -0.00129344 -0.00806856
v 0.00742414 -0.00148248 -0.00815086
v 0.00699622 -0.00077126 -0.00797004
v 0.00699263 -0.00077282 -0.00798391
v 0.00698076 -0.00077802 -0.00800843
v 0.00696403 -0.00078535 -0.00802768
v 0.00695054 -0.00079125 -0.00803756
v 0.00693574 -0.00079773 -0.00804468
v 0.00692116 -0.00080412 -0.00804866
v 0.00709380 -0.00102473 -0.00803635
v -0.00376041 -0.00218397 -0.00195001
v -0.00382016 -0.00142062 -0.00195001
v -0.00383457 -0.00142140 -0.00195106
v -0.00384870 -0.00142218 -0.00195417
v -0.00387399 -0.00142355 -0.00196573
v -0.00389429 -0.00142466 -0.00198288
v -0.00390499 -0.00142525 -0.00199703
v -0.00391298 -0.00142568 -0.00201278
v -0.00391782 -0.00142595 -0.00202845
v -0.00392004 -0.00142607 -0.00204478
v -0.00385056 -0.00231375 -0.00204478
v -0.00380191 -0.00258665 -0.00198134
v -0.00380527 -0.00263045 -0.00198947
v -0.00381020 -0.00264663 -0.00199844
v -0.00381607 -0.00263218 -0.00200709
v -0.00383177 -0.00251753 -0.00202580
v -0.00384178 -0.00180510 -0.00196428
v -0.00385099 -0.00180561 -0.00197053
v -0.00385946 -0.00180607 -0.00197779
v -0.00386776 -0.00180652 -0.00198676
v -0.00383302 -0.00225037 -0.00198676
v -0.00381536 -0.00235180 -0.00197648
v 0.00135333 0.00798816 -0.00204478
v 0.00135404 0.00798633 -0.00203044
v 0.00135557 0.00798239 -0.00201651
v 0.00136068 0.00796924 -0.00199185
v 0.00136791 0.00795065 -0.00197248
v 0.00137667 0.00792811 -0.00195885
v 0.00138489 0.00790695 -0.00195211
v 0.00139299 0.00788611 -0.00195001
v -0.00382016 -0.00142062 -0.00195001
v -0.00375104 0.00082568 -0.00195001
v -0.00315919 0.00307157 -0.00195001
v -0.00218518 0.00490722 -0.00195001
v -0.00100850 0.00629164 -0.00195001
v 0.00015164 0.00721548 -0.00195001
v -0.00383457 -0.00142140 -0.00195106
v -0.00384870 -0.00142218 -0.00195417
v -0.00387399 -0.00142355 -0.00196573
v -0.00389429 -0.00142466 -0.00198288
v -0.00390499 -0.00142525 -0.00199703
v -0.00391298 -0.00142568 -0.00201278
v -0.00391782 -0.00142595 -0.00202845
v -0.00392004 -0.00142607 -0.00204478
v -0.00036482 0.00698182 -0.00204478
v -0.00188035 0.00549616 -0.00204478
v -0.00303981 0.00361204 -0.00204478
v -0.00373887 0.00148468 -0.00204478
v -0.00393365 0.00001390 -0.00204478
v -0.00392892 -0.00072813 -0.00198676
v -0.00393249 -0.00072805 -0.00199138
v -0.00393572 -0.00072797 -0.00199611
v -0.00387858 0.00042124 -0.00198676
v -0.00377805 0.00115763 -0.00198676
v -0.00351446 0.00228496 -0.00198676
v -0.00312927 0.00335399 -0.00198676
v -0.00266802 0.00428648 -0.00198676
v -0.00206119 0.00522190 -0.00198676
v -0.00147977 0.00592865 -0.00198676
v -0.00071598 0.00666751 -0.00198676
v -0.00012414 0.00712867 -0.00198676
v 0.00072589 0.00763878 -0.00197216
v 0.00072238 0.00764612 -0.00197880
v 0.00071897 0.00765327 -0.00198676
v 0.00664517 0.00184429 -0.00195001
v 0.00673301 -0.00000352 -0.00195001
v 0.00676098 -0.00000302 -0.00195398
v 0.00678518 -0.00000259 -0.00196462
v 0.00680589 -0.00000222 -0.00198135
v 0.00682172 -0.00000194 -0.00200343
v 0.00683013 -0.00000179 -0.00202522
v 0.00683312 -0.00000174 -0.00204478
v 0.00674528 0.00184607 -0.00204478
v 0.00665962 0.00184455 -0.00195106
v 0.00667377 0.00184480 -0.00195417
v 0.00669912 0.00184525 -0.00196573
v 0.00671948 0.00184561 -0.00198288
v 0.00673019 0.00184581 -0.00199704
v 0.00673821 0.00184594 -0.00201278
v 0.00674306 0.00184603 -0.00202845
v 0.00699793 -0.00077051 -0.00204427
v 0.00689337 -0.00043571 -0.00204441
v 0.00685343 -0.00022076 -0.00204457
v 0.00683312 -0.00000174 -0.00204478
v 0.00690610 -0.00081071 -0.00195001
v 0.00691931 -0.00080492 -0.00195105
v 0.00693226 -0.00079925 -0.00195414
v 0.00695546 -0.00078910 -0.00196563
v 0.00697410 -0.00078094 -0.00198267
v 0.00698395 -0.00077663 -0.00199674
v 0.00699133 -0.00077340 -0.00201240
v 0.00699582 -0.00077142 -0.00202800
v 0.00673301 -0.00000352 -0.00195001
v 0.00677705 -0.00036944 -0.00195001
v 0.00683132 -0.00059243 -0.00195001
v 0.00676098 -0.00000302 -0.00195398
v 0.00678518 -0.00000259 -0.00196462
v 0.00680589 -0.00000222 -0.00198135
v 0.00682172 -0.00000194 -0.00200343
v 0.00683013 -0.00000179 -0.00202522
v 0.00691015 -0.00068573 -0.00196167
v 0.00691740 -0.00068302 -0.00196622
v 0.00692405 -0.00068054 -0.00197129
v 0.00693061 -0.00067808 -0.00197731
v 0.00687913 -0.00050767 -0.00197734
v 0.00685340 -0.00039971 -0.00197736
v 0.00683264 -0.00029066 -0.00197738
v 0.00680980 -0.00011401 -0.00197744
v 0.00682021 -0.00011325 -0.00198898
v 0.00758833 -0.00165219 -0.00176048
v 0.00758833 -0.00165219 -0.00176048
v 0.00690610 -0.00081071 -0.00195001
v 0.00710673 -0.00111451 -0.00191684
v 0.00733580 -0.00139678 -0.00184524
v 0.00691931 -0.00080492 -0.00195105
v 0.00693226 -0.00079925 -0.00195414
v 0.00695546 -0.00078910 -0.00196563
v 0.00697410 -0.00078094 -0.00198267
v 0.00698395 -0.00077663 -0.00199674
v 0.00699133 -0.00077340 -0.00201240
v 0.00699582 -0.00077142 -0.00202800
v 0.00699793 -0.00077051 -0.00204427
v 0.00735596 -0.00140004 -0.00188731
v 0.00715819 -0.00110578 -0.00199453
v 0.00707287 -0.00094265 -0.00203046
v 0.00701658 -0.00086121 -0.00198974
v 0.00701263 -0.00086258 -0.00198415
v 0.00700813 -0.00086422 -0.00197861
v 0.00709380 -0.00102473 -0.00196368
v 0.00714024 -0.00110319 -0.00194947
v -0.00376041 -0.00218397 -0.00195001
v -0.00376041 -0.00218397 -0.00195001
v -0.00380191 -0.00258665 -0.00198134
v -0.00377722 -0.00260868 -0.00195001
v -0.00380191 -0.00258665 -0.00198134
v -0.00377722 -0.00260868 -0.00195001
v -0.00380527 -0.00263045 -0.00198947
v -0.00381020 -0.00264663 -0.00199844
v -0.00381607 -0.00263218 -0.00200709
v -0.00383177 -0.00251753 -0.00202580
v -0.00385056 -0.00231375 -0.00204478
v -0.00385401 -0.00232264 -0.00207526
v -0.00386247 -0.00233163 -0.00210489
v -0.00387563 -0.00234038 -0.00213255
v -0.00385262 -0.00254307 -0.00207818
v -0.00384156 -0.00260428 -0.00205540
v -0.00383262 -0.00263827 -0.00203828
v -0.00382376 -0.00265851 -0.00202235
v -0.00381549 -0.00266876 -0.00200816
v -0.00380080 -0.00266353 -0.00198460
v -0.00378963 -0.00264467 -0.00196773
v -0.00378263 -0.00262683 -0.00195758
v -0.00385056 -0.00231375 -0.00204478
v -0.00385401 -0.00232264 -0.00207526
v -0.00386247 -0.00233163 -0.00210489
v -0.00387563 -0.00234038 -0.00213255
v -0.00388326 -0.00195549 -0.00213327
v -0.00388639 -0.00196476 -0.00216228
v -0.00389412 -0.00197412 -0.00219054
v -0.00390618 -0.00198325 -0.00221707
v -0.00388326 -0.00195549 -0.00213327
v -0.00388639 -0.00196476 -0.00216228
v -0.00389412 -0.00197412 -0.00219054
v -0.00390618 -0.00198325 -0.00221707
v -0.00393262 -0.00142675 -0.00228482
v -0.00393523 -0.00143739 -0.00231142
v -0.00394187 -0.00144808 -0.00233739
v -0.00395234 -0.00145850 -0.00236195
v -0.00393262 -0.00142675 -0.00228482
v -0.00393523 -0.00143739 -0.00231142
v -0.00394187 -0.00144808 -0.00233739
v -0.00395234 -0.00145850 -0.00236195
v -0.00394210 -0.00132226 -0.00231951
v -0.00394645 -0.00133604 -0.00235413
v -0.00395264 -0.00134463 -0.00237512
v -0.00396134 -0.00135297 -0.00239511
v -0.00394210 -0.00132226 -0.00231951
v -0.00394645 -0.00133604 -0.00235413
v -0.00395264 -0.00134463 -0.00237512
v -0.00396134 -0.00135297 -0.00239511
v -0.00394648 -0.00127428 -0.00234189
v -0.00395061 -0.00123487 -0.00237297
v -0.00395450 -0.00120293 -0.00241098
v -0.00395831 -0.00117653 -0.00245581
v -0.00396231 -0.00115366 -0.00250983
v -0.00397171 -0.00111572 -0.00265299
v -0.00398608 -0.00109190 -0.00290491
v -0.00398996 -0.00114608 -0.00290606
v -0.00400652 -0.00119876 -0.00290651
v -0.00402506 -0.00123120 -0.00290635
v -0.00404934 -0.00126011 -0.00290580
v -0.00407719 -0.00128301 -0.00290491
v -0.00402690 -0.00127460 -0.00266742
v -0.00399105 -0.00128789 -0.00251030
v -0.00397671 -0.00130544 -0.00245078
v -0.00397177 -0.00131497 -0.00243175
v -0.00396762 -0.00132565 -0.00241644
v -0.00396413 -0.00133824 -0.00240416
v -0.00398608 -0.00109190 -0.00290491
v -0.00398996 -0.00114608 -0.00290606
v -0.00400652 -0.00119876 -0.00290651
v -0.00402506 -0.00123120 -0.00290635
v -0.00404934 -0.00126011 -0.00290580
v -0.00407719 -0.00128301 -0.00290491
v -0.00407522 -0.00103971 -0.00455676
v -0.00407920 -0.00109357 -0.00455791
v -0.00409595 -0.00114592 -0.00455835
v -0.00412121 -0.00118741 -0.00455807
v -0.00414259 -0.00121075 -0.00455753
v -0.00416637 -0.00122963 -0.00455676
v -0.00407522 -0.00103971 -0.00455676
v -0.00407920 -0.00109357 -0.00455791
v -0.00409595 -0.00114592 -0.00455835
v -0.00412121 -0.00118741 -0.00455807
v -0.00414259 -0.00121075 -0.00455753
v -0.00416637 -0.00122963 -0.00455676
v -0.00407847 -0.00104302 -0.00462244
v -0.00408343 -0.00109547 -0.00462362
v -0.00410054 -0.00114620 -0.00462414
v -0.00412555 -0.00118636 -0.00462400
v -0.00414654 -0.00120900 -0.00462357
v -0.00416981 -0.00122740 -0.00462292
v -0.00407847 -0.00104302 -0.00462244
v -0.00408343 -0.00109547 -0.00462362
v -0.00410054 -0.00114620 -0.00462414
v -0.00412555 -0.00118636 -0.00462400
v -0.00414654 -0.00120900 -0.00462357
v -0.00416981 -0.00122740 -0.00462292
v -0.00409446 -0.00105357 -0.00497127
v -0.00410468 -0.00110463 -0.00497276
v -0.00412652 -0.00115224 -0.00497372
v -0.00415316 -0.00118676 -0.00497405
v -0.00418510 -0.00121360 -0.00497393
v -0.00409446 -0.00105357 -0.00497127
v -0.00410468 -0.00110463 -0.00497276
v -0.00412652 -0.00115224 -0.00497372
v -0.00415316 -0.00118676 -0.00497405
v -0.00418510 -0.00121360 -0.00497393
v -0.00409522 -0.00105391 -0.00498835
v -0.00410557 -0.00110465 -0.00498951
v -0.00412742 -0.00115195 -0.00499008
v -0.00415394 -0.00118624 -0.00499004
v -0.00418572 -0.00121294 -0.00498954
v -0.00409522 -0.00105391 -0.00498835
v -0.00410557 -0.00110465 -0.00498951
v -0.00412742 -0.00115195 -0.00499008
v -0.00415394 -0.00118624 -0.00499004
v -0.00418572 -0.00121294 -0.00498954
v -0.00409533 -0.00105391 -0.00499054
v -0.00410568 -0.00110465 -0.00499135
v -0.00412751 -0.00115194 -0.00499157
v -0.00415402 -0.00118622 -0.00499127
v -0.00418578 -0.00121292 -0.00499054
v -0.00409533 -0.00105391 -0.00499054
v -0.00410568 -0.00110465 -0.00499135
v -0.00412751 -0.00115194 -0.00499157
v -0.00415402 -0.00118622 -0.00499127
v -0.00418578 -0.00121292 -0.00499054
v -0.00409533 -0.00105391 -0.00500948
v -0.00410568 -0.00110465 -0.00500867
v -0.00412751 -0.00115194 -0.00500845
v -0.00415402 -0.00118622 -0.00500876
v -0.00418578 -0.00121292 -0.00500948
v -0.00418599 -0.00121277 -0.00500001
v -0.00409533 -0.00105391 -0.00500948
v -0.00410568 -0.00110465 -0.00500867
v -0.00412751 -0.00115194 -0.00500845
v -0.00415402 -0.00118622 -0.00500876
v -0.00418578 -0.00121292 -0.00500948
v -0.00409522 -0.00105391 -0.00501167
v -0.00410557 -0.00110465 -0.00501051
v -0.00412742 -0.00115195 -0.00500995
v -0.00415394 -0.00118624 -0.00500998
v -0.00418572 -0.00121294 -0.00501048
v -0.00409522 -0.00105391 -0.00501167
v -0.00410557 -0.00110465 -0.00501051
v -0.00412742 -0.00115195 -0.00500995
v -0.00415394 -0.00118624 -0.00500998
v -0.00418572 -0.00121294 -0.00501048
v -0.00409446 -0.00105357 -0.00502875
v -0.00410468 -0.00110463 -0.00502727
v -0.00412652 -0.00115224 -0.00502630
v -0.00415316 -0.00118676 -0.00502597
v -0.00418510 -0.00121360 -0.00502609
v -0.00409446 -0.00105357 -0.00502875
v -0.00410468 -0.00110463 -0.00502727
v -0.00412652 -0.00115224 -0.00502630
v -0.00415316 -0.00118676 -0.00502597
v -0.00418510 -0.00121360 -0.00502609
v -0.00407847 -0.00104302 -0.00537758
v -0.00408343 -0.00109547 -0.00537641
v -0.00410054 -0.00114620 -0.00537588
v -0.00412555 -0.00118636 -0.00537603
v -0.00414654 -0.00120900 -0.00537645
v -0.00416981 -0.00122740 -0.00537710
v -0.00407847 -0.00104302 -0.00537758
v -0.00408343 -0.00109547 -0.00537641
v -0.00410054 -0.00114620 -0.00537588
v -0.00412555 -0.00118636 -0.00537603
v -0.00414654 -0.00120900 -0.00537645
v -0.00416981 -0.00122740 -0.00537710
v -0.00407522 -0.00103971 -0.00544326
v -0.00407920 -0.00109357 -0.00544211
v -0.00409595 -0.00114592 -0.00544167
v -0.00412121 -0.00118741 -0.00544195
v -0.00414259 -0.00121075 -0.00544249
v -0.00416637 -0.00122963 -0.00544326
v -0.00407522 -0.00103971 -0.00544326
v -0.00407920 -0.00109357 -0.00544211
v -0.00409595 -0.00114592 -0.00544167
v -0.00412121 -0.00118741 -0.00544195
v -0.00414259 -0.00121075 -0.00544249
v -0.00416637 -0.00122963 -0.00544326
v -0.00398608 -0.00109190 -0.00709512
v -0.00398985 -0.00114605 -0.00709396
v -0.00400652 -0.00119876 -0.00709351
v -0.00403183 -0.00124055 -0.00709379
v -0.00405329 -0.00126403 -0.00709433
v -0.00407719 -0.00128301 -0.00709512
v -0.00398608 -0.00109190 -0.00709512
v -0.00398985 -0.00114605 -0.00709396
v -0.00400652 -0.00119876 -0.00709351
v -0.00403183 -0.00124055 -0.00709379
v -0.00405329 -0.00126403 -0.00709433
v -0.00407719 -0.00128301 -0.00709512
v -0.00396942 -0.00112320 -0.00738354
v -0.00395976 -0.00116774 -0.00752545
v -0.00395383 -0.00120806 -0.00759611
v -0.00394931 -0.00124662 -0.00763781
v -0.00394580 -0.00128136 -0.00766234
v -0.00394210 -0.00132226 -0.00768051
v -0.00394650 -0.00133604 -0.00764590
v -0.00395267 -0.00134462 -0.00762491
v -0.00396134 -0.00135297 -0.00760491
v -0.00396618 -0.00133037 -0.00758859
v -0.00397179 -0.00131500 -0.00756812
v -0.00398327 -0.00129581 -0.00752263
v -0.00400264 -0.00128065 -0.00743972
v -0.00402948 -0.00127443 -0.00732086
v -0.00394210 -0.00132226 -0.00768051
v -0.00394650 -0.00133604 -0.00764590
v -0.00395267 -0.00134462 -0.00762491
v -0.00396134 -0.00135297 -0.00760491
v -0.00393262 -0.00142675 -0.00771520
v -0.00393523 -0.00143739 -0.00768861
v -0.00394187 -0.00144808 -0.00766263
v -0.00395235 -0.00145850 -0.00763807
v -0.00393262 -0.00142675 -0.00771520
v -0.00393523 -0.00143739 -0.00768861
v -0.00394187 -0.00144808 -0.00766263
v -0.00395235 -0.00145850 -0.00763807
v -0.00388326 -0.00195549 -0.00786675
v -0.00388639 -0.00196476 -0.00783774
v -0.00389412 -0.00197412 -0.00780948
v -0.00390618 -0.00198325 -0.00778296
v -0.00388326 -0.00195549 -0.00786675
v -0.00388639 -0.00196476 -0.00783774
v -0.00389412 -0.00197412 -0.00780948
v -0.00390618 -0.00198325 -0.00778296
v -0.00385056 -0.00231375 -0.00795525
v -0.00385401 -0.00232264 -0.00792476
v -0.00386247 -0.00233163 -0.00789513
v -0.00387563 -0.00234038 -0.00786747
v -0.00385056 -0.00231375 -0.00795525
v -0.00385401 -0.00232264 -0.00792476
v -0.00386247 -0.00233163 -0.00789513
v -0.00387563 -0.00234038 -0.00786747
v -0.00383177 -0.00251753 -0.00797422
v -0.00381593 -0.00263279 -0.00799313
v -0.00380762 -0.00264238 -0.00800602
v -0.00380420 -0.00262140 -0.00801286
v -0.00380191 -0.00258665 -0.00801868
v -0.00377722 -0.00260868 -0.00805001
v -0.00378850 -0.00264211 -0.00803396
v -0.00379841 -0.00266047 -0.00801910
v -0.00381301 -0.00266978 -0.00799598
v -0.00382321 -0.00265943 -0.00797861
v -0.00383186 -0.00264045 -0.00796314
v -0.00384101 -0.00260684 -0.00794571
v -0.00386208 -0.00247585 -0.00790101
v -0.00376041 -0.00218397 -0.00805001
v -0.00376041 -0.00218397 -0.00805001
v -0.00377722 -0.00260868 -0.00805001
v -0.00380191 -0.00258665 -0.00801868
v -0.00377752 -0.00238776 -0.00804510
v 0.00671816 0.00327846 -0.00345001
v 0.00665461 0.00343544 -0.00245001
v 0.00554229 0.00540694 -0.00245001
v 0.00415461 0.00689816 -0.00245001
v 0.00317436 0.00761813 -0.00245001
v 0.00213381 0.00817100 -0.00245001
v 0.00205223 0.00820640 -0.00345001
v 0.00374841 0.00722315 -0.00345001
v 0.00522772 0.00580917 -0.00345001
v 0.00607686 0.00459623 -0.00345001
v 0.00665461 0.00343544 -0.00755001
v 0.00671816 0.00327846 -0.00655001
v 0.00205223 0.00820640 -0.00655001
v 0.00374841 0.00722315 -0.00655001
v 0.00522772 0.00580917 -0.00655001
v 0.00607686 0.00459623 -0.00655001
v 0.00213381 0.00817100 -0.00755001
v 0.00380733 0.00717849 -0.00755001
v 0.00526221 0.00576728 -0.00755001
v 0.00604690 0.00464693 -0.00755001
v 0.00213381 0.00817100 -0.00245001
v 0.00205223 0.00820640 -0.00345001
v 0.00180601 0.00817620 -0.00218989
v 0.00191379 0.00820433 -0.00227571
v 0.00202626 0.00820245 -0.00236266
v 0.00170532 0.00821649 -0.00345001
v 0.00193880 0.00823932 -0.00345001
v 0.00183236 0.00824407 -0.00345001
v 0.00176782 0.00823482 -0.00345001
v 0.00180601 0.00817620 -0.00218989
v 0.00191379 0.00820433 -0.00227571
v 0.00202626 0.00820245 -0.00236266
v 0.00213381 0.00817100 -0.00245001
v 0.00213381 0.00817100 -0.00245001
v 0.00186494 0.00815125 -0.00213140
v 0.00195884 0.00818756 -0.00223148
v 0.00204951 0.00819323 -0.00233912
v 0.00182275 0.00817701 -0.00216979
v 0.00183494 0.00817343 -0.00215699
v 0.00185036 0.00816445 -0.00214277
v 0.00180601 0.00817620 -0.00218989
v 0.00182275 0.00817701 -0.00216979
v 0.00183494 0.00817343 -0.00215699
v 0.00185036 0.00816445 -0.00214277
v 0.00186494 0.00815125 -0.00213140
v 0.00139299 0.00788611 -0.00195001
v 0.00155720 0.00798002 -0.00196738
v 0.00171918 0.00807046 -0.00202505
v 0.00179496 0.00811245 -0.00207162
v 0.00135333 0.00798816 -0.00204478
v 0.00135404 0.00798633 -0.00203044
v 0.00135557 0.00798239 -0.00201651
v 0.00136068 0.00796924 -0.00199185
v 0.00136791 0.00795065 -0.00197248
v 0.00137667 0.00792811 -0.00195885
v 0.00138489 0.00790695 -0.00195211
v 0.00169494 0.00813062 -0.00211765
v 0.00157171 0.00808000 -0.00207195
v 0.00146231 0.00803449 -0.00205119
v 0.00141606 0.00799700 -0.00199858
v 0.00150518 0.00802275 -0.00199415
v 0.00156218 0.00804920 -0.00200773
v 0.00164310 0.00808633 -0.00203519
v 0.00170620 0.00811505 -0.00206473
v 0.00174367 0.00813204 -0.00208645
v 0.00139299 0.00788611 -0.00195001
v 0.00292691 0.00715093 -0.00195001
v 0.00433164 0.00603054 -0.00195001
v 0.00548810 0.00458840 -0.00195001
v 0.00618872 0.00324803 -0.00195001
v 0.00664517 0.00184429 -0.00195001
v 0.00155720 0.00798002 -0.00196738
v 0.00171918 0.00807046 -0.00202505
v 0.00179496 0.00811245 -0.00207162
v 0.00186494 0.00815125 -0.00213140
v 0.00195884 0.00818756 -0.00223148
v 0.00204951 0.00819323 -0.00233912
v 0.00213381 0.00817100 -0.00245001
v 0.00665461 0.00343544 -0.00245001
v 0.00554229 0.00540694 -0.00245001
v 0.00415461 0.00689816 -0.00245001
v 0.00317436 0.00761813 -0.00245001
v 0.00667715 0.00328680 -0.00226639
v 0.00667674 0.00335676 -0.00235331
v 0.00666813 0.00339711 -0.00240355
v 0.00665492 0.00268882 -0.00201145
v 0.00666433 0.00300091 -0.00209510
v 0.00667077 0.00317323 -0.00217641
v 0.00667394 0.00323768 -0.00222073
v 0.00250151 0.00774110 -0.00203924
v 0.00256177 0.00778057 -0.00208739
v 0.00312190 0.00752656 -0.00215001
v 0.00362458 0.00718477 -0.00215001
v 0.00391032 0.00683087 -0.00205001
v 0.00435230 0.00658416 -0.00215001
v 0.00480279 0.00622892 -0.00225770
v 0.00505792 0.00585166 -0.00215001
v 0.00525743 0.00544529 -0.00205001
v 0.00564606 0.00508556 -0.00215001
v 0.00605851 0.00455057 -0.00225770
v 0.00623233 0.00410518 -0.00215001
v 0.00625920 0.00382602 -0.00205001
v 0.00648281 0.00326883 -0.00203490
v 0.00649861 0.00329970 -0.00205372
v 0.00652935 0.00334853 -0.00209457
v 0.00654510 0.00337771 -0.00212185
v 0.00655816 0.00340582 -0.00215001
v 0.00461223 0.00618694 -0.00205001
v 0.00583007 0.00461451 -0.00205001
v 0.00664517 0.00184429 -0.00195001
v 0.00665492 0.00268882 -0.00201145
v 0.00666433 0.00300091 -0.00209510
v 0.00667077 0.00317323 -0.00217641
v 0.00667394 0.00323768 -0.00222073
v 0.00667715 0.00328680 -0.00226639
v 0.00669182 0.00325081 -0.00229789
v 0.00668720 0.00326939 -0.00228152
v 0.00674528 0.00184607 -0.00204478
v 0.00671291 0.00256459 -0.00207864
v 0.00669503 0.00305973 -0.00218620
v 0.00669265 0.00316124 -0.00223283
v 0.00665962 0.00184455 -0.00195106
v 0.00667377 0.00184480 -0.00195417
v 0.00669912 0.00184525 -0.00196573
v 0.00671948 0.00184561 -0.00198288
v 0.00673019 0.00184581 -0.00199704
v 0.00673821 0.00184594 -0.00201278
v 0.00674306 0.00184603 -0.00202845
v 0.00671196 0.00220845 -0.00200143
v 0.00669426 0.00257945 -0.00202785
v 0.00669381 0.00262728 -0.00203605
v 0.00668894 0.00288128 -0.00208966
v 0.00667715 0.00328680 -0.00226639
v 0.00667674 0.00335676 -0.00235331
v 0.00666813 0.00339711 -0.00240355
v 0.00665461 0.00343544 -0.00245001
v 0.00665461 0.00343544 -0.00245001
v 0.00669182 0.00325081 -0.00229789
v 0.00668200 0.00334594 -0.00237307
v 0.00668720 0.00326939 -0.00228152
v 0.00671816 0.00327846 -0.00345001
v 0.00665461 0.00343544 -0.00245001
v 0.00676043 0.00308171 -0.00345001
v 0.00674962 0.00317088 -0.00345001
v 0.00673634 0.00322539 -0.00345001
v 0.00669182 0.00325081 -0.00229789
v 0.00668200 0.00334594 -0.00237307
v 0.00180601 0.00817620 -0.00781013
v 0.00170532 0.00821649 -0.00655001
v 0.00213381 0.00817100 -0.00755001
v 0.00202626 0.00820245 -0.00763736
v 0.00191379 0.00820433 -0.00772431
v 0.00205223 0.00820640 -0.00655001
v 0.00180871 0.00824142 -0.00655001
v 0.00191500 0.00824205 -0.00655001
v 0.00198490 0.00822935 -0.00655001
v 0.00135333 0.00798816 -0.00795525
v 0.00151167 0.00805512 -0.00794141
v 0.00166687 0.00811913 -0.00789534
v 0.00173926 0.00814878 -0.00785806
v 0.00180601 0.00817620 -0.00781013
v 0.00139299 0.00788611 -0.00805001
v 0.00138281 0.00791230 -0.00804667
v 0.00137366 0.00793586 -0.00803736
v 0.00136556 0.00795668 -0.00802234
v 0.00135903 0.00797348 -0.00800187
v 0.00135494 0.00798401 -0.00797868
v 0.00186494 0.00815125 -0.00786862
v 0.00174855 0.00808675 -0.00795877
v 0.00161978 0.00801514 -0.00801593
v 0.00150588 0.00795099 -0.00804195
v 0.00182275 0.00817701 -0.00783023
v 0.00183494 0.00817343 -0.00784303
v 0.00185036 0.00816445 -0.00785725
v 0.00150519 0.00802275 -0.00800587
v 0.00156218 0.00804920 -0.00799230
v 0.00164310 0.00808633 -0.00796484
v 0.00170621 0.00811505 -0.00793529
v 0.00174367 0.00813205 -0.00791357
v 0.00180601 0.00817620 -0.00781013
v 0.00182275 0.00817701 -0.00783023
v 0.00183494 0.00817343 -0.00784303
v 0.00185036 0.00816445 -0.00785725
v 0.00186494 0.00815125 -0.00786862
v 0.00213381 0.00817100 -0.00755001
v 0.00204948 0.00819324 -0.00766093
v 0.00195883 0.00818756 -0.00776856
v 0.00213381 0.00817100 -0.00755001
v 0.00202626 0.00820245 -0.00763736
v 0.00191379 0.00820433 -0.00772431
v 0.00674528 0.00184607 -0.00795525
v 0.00674348 0.00184604 -0.00796958
v 0.00673962 0.00184598 -0.00798352
v 0.00672672 0.00184574 -0.00800817
v 0.00670849 0.00184542 -0.00802754
v 0.00668637 0.00184502 -0.00804118
v 0.00666562 0.00184466 -0.00804791
v 0.00664517 0.00184429 -0.00805001
v 0.00669182 0.00325081 -0.00770214
v 0.00669259 0.00316468 -0.00776523
v 0.00669527 0.00305111 -0.00781701
v 0.00670033 0.00289209 -0.00786441
v 0.00671484 0.00251808 -0.00792653
v 0.00667715 0.00328680 -0.00773363
v 0.00668720 0.00326939 -0.00771850
v 0.00665012 0.00253270 -0.00801355
v 0.00666361 0.00303050 -0.00789675
v 0.00666962 0.00316714 -0.00783157
v 0.00667317 0.00322991 -0.00778763
v 0.00671601 0.00218467 -0.00799475
v 0.00669545 0.00252670 -0.00797949
v 0.00669137 0.00271774 -0.00794896
v 0.00668806 0.00201535 -0.00803500
v 0.00664517 0.00184429 -0.00805001
v 0.00665012 0.00253270 -0.00801355
v 0.00666361 0.00303050 -0.00789675
v 0.00666962 0.00316714 -0.00783157
v 0.00667317 0.00322991 -0.00778763
v 0.00667715 0.00328680 -0.00773363
v 0.00665461 0.00343544 -0.00755001
v 0.00667396 0.00337317 -0.00762620
v 0.00667901 0.00333137 -0.00767845
v 0.00213381 0.00817100 -0.00755001
v 0.00380733 0.00717849 -0.00755001
v 0.00526221 0.00576728 -0.00755001
v 0.00604690 0.00464693 -0.00755001
v 0.00204948 0.00819324 -0.00766093
v 0.00195883 0.00818756 -0.00776856
v 0.00186494 0.00815125 -0.00786862
v 0.00174855 0.00808675 -0.00795877
v 0.00161978 0.00801514 -0.00801593
v 0.00150588 0.00795099 -0.00804195
v 0.00139299 0.00788611 -0.00805001
v 0.00593172 0.00380711 -0.00805001
v 0.00474824 0.00558264 -0.00805001
v 0.00336020 0.00685897 -0.00805001
v 0.00239428 0.00745550 -0.00805001
v 0.00635802 0.00355058 -0.00796824
v 0.00637532 0.00358795 -0.00794631
v 0.00639404 0.00362013 -0.00792123
v 0.00641009 0.00365117 -0.00789468
v 0.00643032 0.00369845 -0.00785001
v 0.00612995 0.00429763 -0.00785001
v 0.00573542 0.00476637 -0.00795001
v 0.00553944 0.00523764 -0.00785001
v 0.00511287 0.00578693 -0.00785001
v 0.00474600 0.00628822 -0.00774232
v 0.00443813 0.00650383 -0.00785001
v 0.00410429 0.00666715 -0.00795001
v 0.00366325 0.00715617 -0.00785001
v 0.00326201 0.00731057 -0.00795001
v 0.00317756 0.00749134 -0.00785001
v 0.00285935 0.00775945 -0.00774232
v 0.00221161 0.00788377 -0.00796079
v 0.00227074 0.00792570 -0.00791264
v 0.00233012 0.00796324 -0.00785001
v 0.00480380 0.00598390 -0.00795001
v 0.00265304 0.00767852 -0.00795001
v 0.00667715 0.00328680 -0.00773363
v 0.00668720 0.00326939 -0.00771850
v 0.00669182 0.00325081 -0.00770214
v 0.00665461 0.00343544 -0.00755001
v 0.00668199 0.00334602 -0.00762689
v 0.00665461 0.00343544 -0.00755001
v 0.00667396 0.00337317 -0.00762620
v 0.00667901 0.00333137 -0.00767845
v 0.00665461 0.00343544 -0.00755001
v 0.00671816 0.00327846 -0.00655001
v 0.00668199 0.00334602 -0.00762689
v 0.00669182 0.00325081 -0.00770214
v 0.00676043 0.00308171 -0.00655001
v 0.00674493 0.00319272 -0.00655001
v 0.00675521 0.00313757 -0.00655001
v 0.00059050 0.00135795 -0.00364352
v 0.00101328 0.00101320 -0.00364996
v 0.00134622 0.00056713 -0.00365917
v 0.00150192 0.00023203 -0.00366647
v 0.00159928 -0.00011678 -0.00367434
v 0.00059050 0.00135795 -0.00345001
v -0.00220713 0.00103903 -0.00345001
v -0.00181271 0.00135596 -0.00345001
v -0.00135745 0.00157674 -0.00345001
v -0.00086436 0.00169020 -0.00345001
v -0.00035839 0.00169062 -0.00345001
v 0.00013488 0.00157797 -0.00345001
v -0.00220713 0.00103903 -0.00376574
v -0.00248402 0.00069916 -0.00384445
v -0.00263622 0.00043188 -0.00395513
v -0.00272586 0.00021829 -0.00409827
v -0.00275835 0.00012173 -0.00419260
v -0.00278224 0.00003946 -0.00430247
v -0.00279841 -0.00002401 -0.00442920
v -0.00280503 -0.00005283 -0.00452235
v -0.00280832 -0.00006801 -0.00461930
v -0.00281451 -0.00009751 -0.00498954
v -0.00281460 -0.00009792 -0.00500001
v -0.00281451 -0.00009751 -0.00501048
v -0.00280832 -0.00006801 -0.00538073
v -0.00280267 -0.00004232 -0.00551738
v -0.00279013 0.00000951 -0.00564509
v -0.00276995 0.00008321 -0.00576072
v -0.00274145 0.00017373 -0.00586153
v -0.00270418 0.00027599 -0.00594745
v -0.00264038 0.00042326 -0.00604032
v -0.00255059 0.00059254 -0.00611810
v -0.00239493 0.00082393 -0.00619101
v -0.00220713 0.00103903 -0.00623429
v -0.00220713 0.00103903 -0.00655001
v 0.00059050 0.00135795 -0.00655001
v 0.00013488 0.00157797 -0.00655001
v -0.00035839 0.00169062 -0.00655001
v -0.00086436 0.00169020 -0.00655001
v -0.00135745 0.00157674 -0.00655001
v -0.00181271 0.00135596 -0.00655001
v 0.00059050 0.00135795 -0.00635651
v 0.00159928 -0.00011678 -0.00632568
v 0.00143123 0.00040221 -0.00633730
v 0.00113618 0.00087419 -0.00634728
v 0.00088031 0.00114077 -0.00635255
v 0.00159928 -0.00011678 -0.00805001
v 0.00143255 0.00039937 -0.00805001
v 0.00114713 0.00086061 -0.00805001
v 0.00075962 0.00124016 -0.00805001
v 0.00029254 0.00151593 -0.00805001
v -0.00022696 0.00167192 -0.00805001
v -0.00076870 0.00169905 -0.00805001
v -0.00130119 0.00159574 -0.00805001
v -0.00179347 0.00136799 -0.00805001
v -0.00221696 0.00102906 -0.00805001
v -0.00254702 0.00059863 -0.00805001
v -0.00276449 0.00010171 -0.00805001
v -0.00285671 -0.00043280 -0.00805001
v -0.00281834 -0.00097385 -0.00805001
v -0.00281834 -0.00097385 -0.00195001
v -0.00285671 -0.00043280 -0.00195001
v -0.00276449 0.00010171 -0.00195001
v -0.00254702 0.00059863 -0.00195001
v -0.00221696 0.00102906 -0.00195001
v -0.00179347 0.00136799 -0.00195001
v -0.00130119 0.00159574 -0.00195001
v -0.00076870 0.00169905 -0.00195001
v -0.00022696 0.00167192 -0.00195001
v 0.00029254 0.00151593 -0.00195001
v 0.00075962 0.00124016 -0.00195001
v 0.00114713 0.00086061 -0.00195001
v 0.00143255 0.00039937 -0.00195001
v 0.00159928 -0.00011678 -0.00195001
f 11 4 3
f 5 4 11
f 10 1 5
f 10 5 11
f 9 1 10
f 2 9 8
f 2 1 9
f 7 2 8
f 43 2 7
f 57 24 23
f 57 12 24
f 56 57 23
f 56 23 22
f 58 12 57
f 58 13 12
f 55 21 20
f 55 22 21
f 55 56 22
f 59 14 13
f 59 13 58
f 54 55 20
f 54 20 19
f 60 6 14
f 60 14 59
f 53 54 19
f 53 19 18
f 61 7 6
f 61 6 60
f 52 53 18
f 17 52 18
f 62 7 61
f 62 44 43
f 62 43 7
f 51 52 17
f 63 44 62
f 16 51 17
f 50 51 16
f 64 44 63
f 15 49 50
f 15 50 16
f 25 49 15
f 45 44 64
f 33 49 25
f 32 49 33
f 34 27 26
f 34 28 27
f 34 29 28
f 34 30 29
f 34 31 30
f 35 32 31
f 35 48 49
f 35 49 32
f 35 31 34
f 36 47 48
f 36 72 47
f 36 48 35
f 42 72 36
f 42 71 72
f 41 71 42
f 41 68 69
f 41 69 70
f 41 70 71
f 38 46 45
f 38 37 46
f 38 45 64
f 38 64 65
f 40 68 41
f 40 66 67
f 40 67 68
f 39 66 40
f 39 65 66
f 39 38 65
f 94 96 93
f 94 97 96
f 91 88 87
f 95 98 97
f 95 97 94
f 86 91 87
f 90 91 86
f 92 99 98
f 92 98 95
f 100 99 92
f 85 90 86
f 89 90 85
f 84 89 85
f 83 92 89
f 83 100 92
f 83 89 84
f 82 101 100
f 82 102 101
f 82 100 83
f 81 103 102
f 81 102 82
f 80 104 103
f 80 103 81
f 79 104 80
f 78 105 104
f 78 104 79
f 77 106 105
f 77 107 106
f 77 105 78
f 76 107 77
f 75 107 76
f 75 108 107
f 74 108 75
f 74 73 108
f 109 113 114
f 110 111 112
f 110 112 113
f 110 113 109
f 124 123 125
f 116 115 129
f 117 116 129
f 118 129 128
f 118 117 129
f 119 118 128
f 120 128 127
f 120 119 128
f 121 126 125
f 121 127 126
f 121 120 127
f 122 125 123
f 122 121 125
f 142 144 143
f 130 142 141
f 130 144 142
f 131 141 140
f 131 130 141
f 132 140 139
f 132 131 140
f 133 139 138
f 133 132 139
f 134 133 138
f 135 134 138
f 136 135 138
f 137 136 138
f 157 154 155
f 145 151 153
f 145 156 166
f 145 153 156
f 159 163 160
f 150 152 146
f 147 164 161
f 149 167 165
f 148 162 158
f 148 145 166
f 173 208 174
f 199 205 204
f 199 206 205
f 199 198 206
f 200 204 207
f 200 199 204
f 201 200 207
f 202 207 211
f 202 201 207
f 203 202 211
f 222 210 209
f 221 173 172
f 221 222 209
f 221 209 208
f 221 208 173
f 223 203 211
f 223 210 222
f 223 211 210
f 220 172 171
f 220 221 172
f 224 203 223
f 224 195 203
f 219 220 171
f 225 195 224
f 225 196 195
f 218 171 170
f 218 219 171
f 226 197 196
f 226 196 225
f 217 218 170
f 227 197 226
f 186 197 227
f 216 217 170
f 228 186 227
f 187 186 228
f 229 187 228
f 169 216 170
f 169 215 216
f 214 215 169
f 188 187 229
f 188 229 230
f 213 214 169
f 189 188 230
f 189 230 231
f 168 212 213
f 168 213 169
f 168 237 212
f 190 231 232
f 190 189 231
f 175 236 237
f 175 237 168
f 191 232 233
f 191 190 232
f 192 233 234
f 192 191 233
f 179 236 175
f 179 178 236
f 185 235 236
f 185 236 178
f 180 175 176
f 180 179 175
f 181 180 176
f 194 235 185
f 193 235 194
f 193 234 235
f 193 192 234
f 182 181 176
f 183 182 176
f 184 183 176
f 177 184 176
f 254 249 251
f 255 252 253
f 239 248 250
f 238 249 254
f 241 255 258
f 241 239 255
f 244 240 257
f 246 245 242
f 247 243 256
f 271 267 268
f 270 266 267
f 270 267 271
f 269 265 266
f 269 266 270
f 262 264 265
f 262 265 269
f 261 264 262
f 260 263 264
f 260 264 261
f 259 263 260
f 279 278 272
f 273 279 272
f 274 280 279
f 274 279 273
f 275 281 280
f 275 280 274
f 276 277 281
f 276 281 275
f 291 286 287
f 291 287 288
f 290 285 286
f 290 286 291
f 289 285 290
f 294 284 285
f 294 285 289
f 293 284 294
f 292 283 284
f 292 284 293
f 282 283 292
f 296 302 301
f 296 301 295
f 297 303 302
f 297 302 296
f 298 304 303
f 298 303 297
f 299 300 304
f 299 304 298
f 319 321 320
f 319 322 321
f 324 317 318
f 324 318 319
f 324 320 323
f 324 319 320
f 316 324 329
f 316 317 324
f 307 313 312
f 307 314 313
f 307 315 314
f 308 312 316
f 308 316 329
f 308 307 312
f 311 306 305
f 311 325 306
f 311 326 325
f 309 328 327
f 309 329 328
f 309 308 329
f 310 327 326
f 310 326 311
f 310 309 327
f 332 331 330
f 333 332 330
f 334 361 362
f 334 330 361
f 334 333 330
f 335 334 362
f 363 335 362
f 336 335 363
f 364 336 363
f 337 364 365
f 337 336 364
f 358 360 359
f 338 365 360
f 338 337 365
f 339 356 355
f 339 357 356
f 339 358 357
f 339 360 358
f 339 338 360
f 349 351 350
f 349 352 351
f 349 353 352
f 349 354 353
f 349 355 354
f 349 339 355
f 348 339 349
f 347 339 348
f 346 339 347
f 345 339 346
f 344 339 345
f 340 339 344
f 340 342 341
f 340 343 342
f 340 344 343
f 371 367 369
f 368 366 370
f 385 389 386
f 380 384 382
f 381 391 388
f 379 392 390
f 378 387 383
f 372 394 392
f 375 397 395
f 374 393 380
f 398 396 373
f 377 400 399
f 376 398 373
f 404 401 402
f 404 403 401
f 407 405 406
f 408 407 406
f 430 432 431
f 429 432 430
f 409 428 427
f 409 429 428
f 409 433 432
f 409 432 429
f 426 410 409
f 426 409 427
f 417 423 422
f 417 424 423
f 417 425 424
f 418 426 425
f 418 410 426
f 418 425 417
f 421 414 413
f 421 415 414
f 421 416 415
f 419 411 410
f 419 412 411
f 419 410 418
f 420 413 412
f 420 412 419
f 420 421 413
f 453 450 449
f 453 451 450
f 453 452 451
f 448 453 449
f 461 457 456
f 461 458 457
f 461 459 458
f 461 460 459
f 447 454 453
f 447 453 448
f 444 446 445
f 462 447 446
f 462 455 454
f 462 456 455
f 462 446 444
f 462 461 456
f 462 454 447
f 443 462 444
f 463 443 442
f 463 462 443
f 464 442 441
f 464 463 442
f 465 441 440
f 465 464 441
f 466 465 440
f 434 440 439
f 434 466 440
f 438 435 434
f 438 436 435
f 438 437 436
f 438 434 439
f 469 467 471
f 472 468 470
f 488 491 490
f 487 492 489
f 483 486 485
f 483 491 486
f 482 493 484
f 478 494 491
f 480 492 481
f 477 496 479
f 474 495 476
f 497 495 474
f 473 498 475
f 500 499 501
f 512 521 513
f 520 521 512
f 519 520 512
f 518 512 511
f 518 519 512
f 517 518 511
f 510 517 511
f 516 517 510
f 509 516 510
f 508 515 516
f 508 516 509
f 507 515 508
f 506 514 515
f 506 515 507
f 505 514 506
f 504 503 514
f 504 514 505
f 502 503 504
f 524 527 525
f 523 522 526
f 529 531 530
f 528 531 529
f 532 535 534
f 532 533 535
f 536 539 538
f 537 536 538
f 540 541 551
f 540 551 552
f 540 552 553
f 548 550 549
f 547 557 550
f 547 550 548
f 546 556 557
f 546 557 547
f 545 555 556
f 545 556 546
f 542 540 553
f 544 555 545
f 543 553 554
f 543 554 555
f 543 542 553
f 543 555 544
f 575 568 560
f 574 560 561
f 574 575 560
f 573 561 562
f 573 574 561
f 572 562 563
f 572 573 562
f 571 563 564
f 571 572 563
f 570 564 565
f 570 565 566
f 570 571 564
f 569 566 567
f 569 570 566
f 559 567 558
f 559 569 567
f 590 578 579
f 576 582 583
f 576 583 577
f 606 579 580
f 606 580 581
f 606 581 582
f 606 590 579
f 606 582 576
f 607 589 590
f 607 576 599
f 607 590 606
f 607 606 576
f 608 589 607
f 608 607 599
f 609 588 589
f 609 599 600
f 609 589 608
f 609 608 599
f 610 588 609
f 610 609 600
f 611 587 588
f 611 600 601
f 611 588 610
f 611 610 600
f 612 587 611
f 612 611 601
f 613 586 587
f 613 601 602
f 613 612 601
f 613 587 612
f 614 613 602
f 614 586 613
f 615 602 603
f 615 614 602
f 615 586 614
f 616 585 586
f 616 603 604
f 616 586 615
f 616 615 603
f 617 616 604
f 617 585 616
f 618 584 585
f 618 604 605
f 618 617 604
f 618 585 617
f 619 591 584
f 619 592 591
f 619 593 592
f 619 594 593
f 619 584 618
f 619 618 605
f 620 594 619
f 620 619 605
f 621 620 605
f 621 595 594
f 621 596 595
f 621 597 596
f 621 598 597
f 621 605 598
f 621 594 620
f 623 634 633
f 623 622 634
f 628 623 633
f 627 633 632
f 627 628 633
f 626 631 630
f 626 632 631
f 626 627 632
f 625 630 629
f 625 626 630
f 624 625 629
f 647 636 635
f 642 637 636
f 642 636 647
f 646 642 647
f 641 642 646
f 645 641 646
f 640 641 645
f 644 640 645
f 639 640 644
f 643 639 644
f 638 639 643
f 651 655 650
f 656 655 651
f 652 656 651
f 657 656 652
f 653 657 652
f 658 657 653
f 654 648 658
f 654 658 653
f 649 648 654
f 671 660 659
f 666 661 660
f 666 660 671
f 665 671 670
f 665 666 671
f 664 670 669
f 664 665 670
f 663 669 668
f 663 664 669
f 662 668 667
f 662 663 668
f 680 674 675
f 680 679 674
f 681 675 676
f 681 680 675
f 682 676 677
f 682 681 676
f 683 677 678
f 683 682 677
f 672 678 673
f 672 683 678
f 711 710 685
f 684 711 685
f 712 692 693
f 712 693 694
f 712 694 695
f 712 707 692
f 713 707 712
f 713 712 695
f 714 686 687
f 714 695 696
f 714 696 697
f 714 697 698
f 714 698 699
f 714 699 686
f 714 707 713
f 714 713 695
f 715 706 707
f 715 707 714
f 715 714 687
f 716 706 715
f 716 715 687
f 717 687 688
f 717 705 706
f 717 716 687
f 717 706 716
f 718 705 717
f 718 717 688
f 719 688 689
f 719 704 705
f 719 705 718
f 719 718 688
f 720 719 689
f 720 704 719
f 721 703 704
f 721 720 689
f 721 704 720
f 722 689 690
f 722 702 703
f 722 703 721
f 722 721 689
f 723 722 690
f 723 702 722
f 724 690 691
f 724 701 702
f 724 723 690
f 724 702 723
f 725 724 691
f 725 701 724
f 726 691 685
f 726 700 701
f 726 708 700
f 726 709 708
f 726 710 709
f 726 685 710
f 726 725 691
f 726 701 725
f 727 728 738
f 729 738 739
f 729 727 738
f 730 739 740
f 730 729 739
f 731 740 741
f 731 730 740
f 732 741 742
f 732 731 741
f 733 742 743
f 733 732 742
f 734 733 743
f 735 743 744
f 735 734 743
f 736 744 737
f 736 735 744
f 745 746 767
f 768 756 757
f 768 757 758
f 768 758 759
f 768 759 760
f 769 756 768
f 769 768 752
f 770 752 753
f 770 753 754
f 770 754 755
f 770 755 756
f 770 769 752
f 770 756 769
f 771 751 752
f 771 760 761
f 771 768 760
f 771 752 768
f 772 750 751
f 772 751 771
f 772 771 761
f 773 772 761
f 773 750 772
f 774 749 750
f 774 761 762
f 774 773 761
f 774 750 773
f 775 749 774
f 775 774 762
f 776 748 749
f 776 762 763
f 776 775 762
f 776 749 775
f 777 748 776
f 777 776 763
f 778 747 748
f 778 763 764
f 778 748 777
f 778 777 763
f 779 747 778
f 779 778 764
f 780 746 747
f 780 764 765
f 780 747 779
f 780 779 764
f 781 746 780
f 781 780 765
f 782 765 766
f 782 766 767
f 782 781 765
f 782 767 746
f 782 746 781
f 802 789 788
f 802 790 789
f 791 784 783
f 799 800 801
f 798 799 801
f 793 794 792
f 803 785 784
f 803 786 785
f 803 787 786
f 803 788 787
f 803 802 788
f 803 784 791
f 804 791 792
f 804 801 802
f 804 803 791
f 804 802 803
f 805 794 795
f 805 795 796
f 805 796 797
f 805 797 798
f 805 798 801
f 805 801 804
f 805 804 792
f 805 792 794
f 839 821 822
f 839 822 823
f 839 823 824
f 839 824 825
f 840 821 839
f 840 839 825
f 841 825 826
f 841 826 827
f 841 827 828
f 841 828 829
f 841 829 830
f 841 821 840
f 841 840 825
f 842 841 830
f 842 821 841
f 843 820 821
f 843 821 842
f 843 842 830
f 844 820 843
f 844 819 820
f 844 830 831
f 844 843 830
f 845 844 831
f 845 819 844
f 846 818 819
f 846 831 832
f 846 819 845
f 846 845 831
f 847 818 846
f 847 846 832
f 848 817 818
f 848 832 833
f 848 818 847
f 848 847 832
f 849 817 848
f 849 848 833
f 850 816 817
f 850 833 834
f 850 849 833
f 850 817 849
f 851 816 850
f 851 850 834
f 852 834 835
f 852 816 851
f 852 851 834
f 853 852 835
f 853 815 816
f 853 835 836
f 853 816 852
f 854 815 853
f 854 853 836
f 855 814 815
f 855 854 836
f 855 836 837
f 855 815 854
f 856 814 855
f 856 855 837
f 857 806 814
f 857 856 837
f 857 837 838
f 857 814 856
f 858 807 806
f 858 808 807
f 858 809 808
f 858 857 838
f 858 806 857
f 859 810 809
f 859 858 838
f 859 809 858
f 860 811 810
f 860 812 811
f 860 813 812
f 860 810 859
f 860 859 838
f 860 838 813
f 869 862 861
f 870 863 862
f 870 862 869
f 871 864 863
f 871 863 870
f 872 865 864
f 872 864 871
f 873 866 865
f 873 865 872
f 874 867 866
f 874 866 873
f 875 868 867
f 875 867 874
f 891 886 885
f 891 887 886
f 883 890 889
f 883 884 890
f 882 883 889
f 901 897 898
f 901 898 899
f 902 896 897
f 902 897 901
f 900 901 899
f 876 877 903
f 904 881 882
f 904 888 887
f 904 889 888
f 904 887 891
f 904 882 889
f 905 880 881
f 905 891 892
f 905 904 891
f 905 881 904
f 906 905 892
f 906 880 905
f 907 879 880
f 907 892 893
f 907 880 906
f 907 906 892
f 908 879 907
f 908 907 893
f 909 878 879
f 909 893 894
f 909 908 893
f 909 879 908
f 910 877 878
f 910 909 894
f 910 878 909
f 911 894 895
f 911 895 896
f 911 902 903
f 911 877 910
f 911 903 877
f 911 896 902
f 911 910 894
f 934 933 931
f 932 934 931
f 935 915 916
f 935 926 927
f 936 921 922
f 936 922 923
f 936 923 924
f 936 924 925
f 936 925 926
f 937 920 921
f 937 921 936
f 937 936 917
f 938 917 918
f 938 918 919
f 938 919 920
f 938 920 937
f 938 937 917
f 939 916 917
f 939 917 936
f 939 936 926
f 940 926 935
f 940 935 916
f 940 916 939
f 940 939 926
f 941 935 927
f 941 915 935
f 942 914 915
f 942 927 928
f 942 915 941
f 942 941 927
f 943 914 942
f 943 942 928
f 944 913 914
f 944 928 929
f 944 943 928
f 944 914 943
f 945 913 944
f 945 944 929
f 946 929 930
f 946 945 929
f 946 913 945
f 947 912 913
f 947 930 931
f 947 913 946
f 947 946 930
f 948 933 912
f 948 912 947
f 948 931 933
f 948 947 931
f 958 959 960
f 958 960 961
f 967 964 965
f 967 965 966
f 950 949 957
f 951 950 957
f 955 954 968
f 956 955 968
f 969 961 962
f 969 962 963
f 969 963 964
f 969 958 961
f 969 964 967
f 970 957 958
f 970 967 968
f 970 969 967
f 970 958 969
f 971 952 951
f 971 953 952
f 971 954 953
f 971 957 970
f 971 970 968
f 971 951 957
f 971 968 954
f 1005 977 976
f 1005 978 977
f 1005 979 978
f 1005 1004 979
f 1006 1005 976
f 1006 1004 1005
f 1007 973 972
f 1007 974 973
f 1007 975 974
f 1007 976 975
f 1007 972 980
f 1007 1004 1006
f 1007 1006 976
f 1008 1003 1004
f 1008 1004 1007
f 1008 1007 980
f 1009 1008 980
f 1009 1003 1008
f 1010 1009 980
f 1010 980 981
f 1010 1002 1003
f 1010 1003 1009
f 1011 1010 981
f 1011 1002 1010
f 1012 981 982
f 1012 1001 1002
f 1012 1011 981
f 1012 1002 1011
f 1013 1012 982
f 1013 1001 1012
f 1014 982 983
f 1014 1000 1001
f 1014 1013 982
f 1014 1001 1013
f 1015 1014 983
f 1015 1000 1014
f 1016 983 984
f 1016 999 1000
f 1016 1015 983
f 1016 1000 1015
f 1017 1016 984
f 1017 999 1016
f 1018 984 985
f 1018 998 999
f 1018 1017 984
f 1018 999 1017
f 1019 998 1018
f 1019 1018 985
f 1020 1019 985
f 1020 985 986
f 1020 997 998
f 1020 998 1019
f 1021 1020 986
f 1021 997 1020
f 1022 1021 986
f 1022 997 1021
f 1022 986 987
f 1023 997 1022
f 1023 1022 987
f 1023 992 993
f 1023 993 994
f 1023 994 995
f 1023 995 996
f 1023 996 997
f 1024 991 992
f 1024 1023 987
f 1024 992 1023
f 1025 991 1024
f 1025 1024 987
f 1026 987 988
f 1026 988 989
f 1026 989 990
f 1026 990 991
f 1026 991 1025
f 1026 1025 987
f 1040 1039 1038
f 1042 1040 1038
f 1041 1040 1042
f 1043 1027 1028
f 1043 1028 1029
f 1043 1029 1030
f 1043 1030 1031
f 1044 1031 1032
f 1044 1043 1031
f 1044 1037 1043
f 1045 1032 1033
f 1045 1033 1034
f 1045 1034 1035
f 1045 1035 1036
f 1045 1036 1037
f 1045 1037 1044
f 1045 1044 1032
f 1046 1027 1043
f 1046 1043 1037
f 1047 1037 1038
f 1047 1039 1027
f 1047 1046 1037
f 1047 1027 1046
f 1047 1038 1039
f 1074 1049 1048
f 1074 1050 1049
f 1074 1051 1050
f 1074 1052 1051
f 1074 1048 1069
f 1075 1074 1060
f 1075 1052 1074
f 1076 1053 1052
f 1076 1054 1053
f 1076 1060 1054
f 1076 1052 1075
f 1076 1075 1060
f 1077 1074 1069
f 1077 1060 1074
f 1078 1059 1060
f 1078 1060 1077
f 1078 1077 1069
f 1079 1058 1059
f 1079 1069 1070
f 1079 1059 1078
f 1079 1078 1069
f 1080 1058 1079
f 1080 1079 1070
f 1081 1057 1058
f 1081 1070 1071
f 1081 1058 1080
f 1081 1080 1070
f 1082 1057 1081
f 1082 1081 1071
f 1083 1056 1057
f 1083 1071 1072
f 1083 1082 1071
f 1083 1057 1082
f 1084 1083 1072
f 1084 1056 1083
f 1085 1072 1073
f 1085 1084 1072
f 1085 1056 1084
f 1086 1065 1064
f 1086 1066 1065
f 1086 1067 1066
f 1086 1068 1067
f 1086 1073 1068
f 1087 1064 1063
f 1087 1086 1064
f 1087 1073 1086
f 1088 1055 1056
f 1088 1061 1055
f 1088 1062 1061
f 1088 1063 1062
f 1088 1056 1085
f 1088 1087 1063
f 1088 1085 1073
f 1088 1073 1087
f 1098 1089 1090
f 1098 1090 1091
f 1099 1091 1092
f 1099 1098 1091
f 1100 1092 1093
f 1100 1099 1092
f 1101 1093 1094
f 1101 1100 1093
f 1102 1094 1095
f 1102 1101 1094
f 1103 1095 1096
f 1103 1102 1095
f 1097 1103 1096
f 1124 1106 1107
f 1124 1123 1122
f 1124 1107 1123
f 1125 1122 1121
f 1125 1124 1122
f 1125 1106 1124
f 1126 1116 1117
f 1126 1119 1116
f 1126 1120 1119
f 1126 1121 1120
f 1126 1106 1125
f 1126 1125 1121
f 1127 1105 1106
f 1127 1126 1117
f 1127 1106 1126
f 1128 1127 1117
f 1128 1105 1127
f 1129 1117 1118
f 1129 1105 1128
f 1129 1128 1117
f 1130 1104 1105
f 1130 1112 1113
f 1130 1113 1114
f 1130 1114 1115
f 1130 1115 1104
f 1130 1129 1118
f 1130 1105 1129
f 1131 1111 1112
f 1131 1112 1130
f 1131 1130 1118
f 1132 1131 1118
f 1132 1111 1131
f 1133 1108 1109
f 1133 1109 1110
f 1133 1110 1111
f 1133 1118 1108
f 1133 1111 1132
f 1133 1132 1118
f 1140 1135 1139
f 1141 1135 1140
f 1134 1135 1141
f 1137 1134 1141
f 1149 1135 1136
f 1149 1138 1139
f 1149 1142 1138
f 1149 1143 1142
f 1149 1144 1143
f 1149 1145 1144
f 1149 1146 1145
f 1149 1147 1146
f 1149 1148 1147
f 1149 1136 1148
f 1149 1139 1135
f 1164 1162 1161
f 1164 1161 1165
f 1163 1162 1164
f 1166 1150 1151
f 1166 1151 1152
f 1166 1152 1153
f 1166 1153 1154
f 1167 1154 1155
f 1167 1150 1166
f 1167 1166 1154
f 1168 1150 1167
f 1168 1167 1155
f 1169 1155 1156
f 1169 1156 1157
f 1169 1157 1158
f 1169 1158 1159
f 1169 1159 1160
f 1169 1150 1168
f 1169 1168 1155
f 1170 1150 1169
f 1170 1169 1160
f 1171 1160 1165
f 1171 1161 1150
f 1171 1150 1170
f 1171 1170 1160
f 1171 1165 1161
f 1199 1180 1181
f 1199 1186 1180
f 1199 1187 1186
f 1199 1188 1187
f 1199 1189 1188
f 1200 1190 1189
f 1200 1199 1198
f 1200 1189 1199
f 1201 1191 1190
f 1201 1192 1191
f 1201 1193 1192
f 1201 1198 1193
f 1201 1190 1200
f 1201 1200 1198
f 1202 1197 1198
f 1202 1198 1199
f 1202 1199 1181
f 1203 1197 1202
f 1203 1202 1181
f 1204 1181 1182
f 1204 1196 1197
f 1204 1203 1181
f 1204 1197 1203
f 1205 1196 1204
f 1205 1204 1182
f 1206 1182 1183
f 1206 1195 1196
f 1206 1196 1205
f 1206 1205 1182
f 1207 1195 1206
f 1207 1206 1183
f 1208 1183 1184
f 1208 1194 1195
f 1208 1207 1183
f 1208 1195 1207
f 1209 1184 1185
f 1209 1208 1184
f 1209 1194 1208
f 1210 1209 1185
f 1210 1194 1209
f 1211 1177 1176
f 1211 1178 1177
f 1211 1179 1178
f 1211 1185 1179
f 1212 1176 1175
f 1212 1211 1176
f 1212 1185 1211
f 1213 1173 1172
f 1213 1174 1173
f 1213 1175 1174
f 1213 1172 1194
f 1213 1194 1210
f 1213 1212 1175
f 1213 1210 1185
f 1213 1185 1212
f 1223 1214 1215
f 1223 1215 1216
f 1224 1216 1217
f 1224 1223 1216
f 1225 1217 1218
f 1225 1224 1217
f 1226 1225 1218
f 1227 1218 1219
f 1227 1226 1218
f 1228 1219 1220
f 1228 1227 1219
f 1229 1220 1221
f 1229 1228 1220
f 1222 1229 1221
f 1250 1234 1235
f 1250 1235 1236
f 1250 1236 1237
f 1250 1244 1234
f 1251 1244 1250
f 1251 1250 1237
f 1252 1237 1238
f 1252 1244 1251
f 1252 1251 1237
f 1253 1230 1231
f 1253 1238 1239
f 1253 1239 1240
f 1253 1240 1241
f 1253 1241 1230
f 1253 1244 1252
f 1253 1252 1238
f 1254 1243 1244
f 1254 1244 1253
f 1254 1253 1231
f 1255 1243 1254
f 1255 1254 1231
f 1256 1231 1232
f 1256 1255 1231
f 1256 1243 1255
f 1257 1242 1243
f 1257 1245 1242
f 1257 1246 1245
f 1257 1247 1246
f 1257 1243 1256
f 1257 1256 1232
f 1258 1232 1233
f 1258 1248 1247
f 1258 1249 1248
f 1258 1233 1249
f 1258 1247 1257
f 1258 1257 1232
f 1259 1272 1263
f 1260 1259 1263
f 1275 1268 1267
f 1275 1269 1268
f 1275 1270 1269
f 1275 1271 1270
f 1275 1274 1271
f 1276 1275 1267
f 1276 1274 1275
f 1277 1264 1261
f 1277 1265 1264
f 1277 1266 1265
f 1277 1267 1266
f 1277 1276 1267
f 1277 1274 1276
f 1278 1261 1262
f 1278 1273 1274
f 1278 1274 1277
f 1278 1277 1261
f 1279 1262 1263
f 1279 1272 1273
f 1279 1278 1262
f 1279 1273 1278
f 1279 1263 1272
f 1282 1280 1281
f 1283 1280 1282
f 1294 1292 1293
f 1289 1290 1291
f 1289 1291 1292
f 1289 1294 1295
f 1289 1292 1294
f 1288 1295 1296
f 1288 1296 1297
f 1288 1297 1298
f 1288 1289 1295
f 1287 1298 1299
f 1287 1288 1298
f 1286 1299 1300
f 1286 1300 1301
f 1286 1287 1299
f 1284 1301 1285
f 1284 1286 1301
f 1307 1303 1302
f 1307 1302 1306
f 1308 1304 1303
f 1308 1303 1307
f 1309 1305 1304
f 1309 1304 1308
f 1312 1316 1317
f 1312 1317 1313
f 1311 1315 1316
f 1311 1316 1312
f 1310 1314 1315
f 1310 1315 1311
f 1321 1324 1325
f 1320 1323 1324
f 1320 1324 1321
f 1319 1322 1323
f 1319 1323 1320
f 1318 1322 1319
f 1327 1326 1330
f 1331 1327 1330
f 1347 1329 1328
f 1346 1328 1327
f 1346 1347 1328
f 1345 1327 1331
f 1345 1346 1327
f 1344 1331 1332
f 1344 1345 1331
f 1343 1332 1333
f 1343 1333 1334
f 1343 1344 1332
f 1342 1334 1335
f 1342 1343 1334
f 1337 1335 1336
f 1338 1342 1335
f 1338 1335 1337
f 1339 1342 1338
f 1340 1342 1339
f 1341 1342 1340
f 1355 1349 1348
f 1355 1348 1354
f 1356 1350 1349
f 1356 1351 1350
f 1356 1349 1355
f 1357 1352 1351
f 1357 1351 1356
f 1358 1353 1352
f 1358 1352 1357
f 1359 1353 1358
f 1367 1361 1360
f 1367 1360 1366
f 1368 1362 1361
f 1368 1361 1367
f 1369 1363 1362
f 1369 1362 1368
f 1370 1364 1363
f 1370 1363 1369
f 1371 1365 1364
f 1371 1364 1370
f 1378 1373 1372
f 1379 1374 1373
f 1379 1373 1378
f 1380 1375 1374
f 1380 1374 1379
f 1381 1376 1375
f 1381 1375 1380
f 1382 1377 1376
f 1382 1376 1381
f 1389 1384 1383
f 1389 1383 1388
f 1390 1385 1384
f 1390 1384 1389
f 1391 1386 1385
f 1391 1385 1390
f 1392 1387 1386
f 1392 1386 1391
f 1394 1393 1398
f 1399 1394 1398
f 1395 1394 1399
f 1400 1395 1399
f 1396 1395 1400
f 1401 1396 1400
f 1397 1396 1401
f 1402 1397 1401
f 1409 1404 1403
f 1409 1403 1408
f 1410 1405 1404
f 1410 1404 1409
f 1411 1406 1405
f 1411 1405 1410
f 1413 1407 1406
f 1413 1406 1411
f 1412 1413 1411
f 1422 1423 1418
f 1417 1422 1418
f 1421 1422 1417
f 1416 1421 1417
f 1420 1421 1416
f 1415 1420 1416
f 1419 1420 1415
f 1414 1419 1415
f 1432 1433 1428
f 1427 1432 1428
f 1426 1431 1432
f 1426 1432 1427
f 1425 1430 1431
f 1425 1431 1426
f 1424 1429 1430
f 1424 1430 1425
f 1438 1443 1444
f 1437 1442 1443
f 1437 1443 1438
f 1436 1441 1442
f 1436 1442 1437
f 1435 1440 1441
f 1435 1441 1436
f 1434 1439 1440
f 1434 1440 1435
f 1449 1454 1455
f 1449 1455 1456
f 1449 1456 1450
f 1448 1453 1454
f 1448 1454 1449
f 1447 1452 1453
f 1447 1453 1448
f 1446 1451 1452
f 1446 1452 1447
f 1445 1451 1446
f 1462 1467 1468
f 1461 1466 1467
f 1461 1467 1462
f 1460 1465 1466
f 1460 1466 1461
f 1459 1464 1465
f 1459 1465 1460
f 1458 1463 1464
f 1458 1464 1459
f 1457 1463 1458
f 1475 1470 1469
f 1488 1471 1470
f 1488 1472 1471
f 1488 1473 1472
f 1488 1474 1473
f 1488 1470 1475
f 1487 1475 1476
f 1487 1488 1475
f 1486 1476 1477
f 1486 1487 1476
f 1481 1478 1479
f 1481 1479 1480
f 1485 1477 1478
f 1485 1486 1477
f 1485 1478 1481
f 1484 1485 1481
f 1482 1484 1481
f 1483 1484 1482
f 1494 1490 1489
f 1494 1489 1493
f 1495 1491 1490
f 1495 1490 1494
f 1496 1492 1491
f 1496 1491 1495
f 1501 1498 1497
f 1502 1499 1498
f 1502 1498 1501
f 1503 1500 1499
f 1503 1499 1502
f 1504 1500 1503
f 1508 1511 1512
f 1507 1510 1511
f 1507 1511 1508
f 1506 1509 1510
f 1506 1510 1507
f 1505 1509 1506
f 1529 1514 1513
f 1529 1515 1514
f 1529 1516 1515
f 1529 1513 1517
f 1528 1517 1518
f 1528 1529 1517
f 1527 1528 1518
f 1526 1527 1518
f 1525 1518 1519
f 1525 1526 1518
f 1524 1519 1520
f 1524 1525 1519
f 1523 1520 1521
f 1523 1524 1520
f 1522 1523 1521
f 1534 1530 1531
f 1534 1531 1532
f 1534 1532 1533
f 1534 1533 1530
f 1544 1536 1535
f 1537 1536 1544
f 1543 1537 1544
f 1538 1537 1543
f 1542 1539 1538
f 1542 1538 1543
f 1541 1540 1539
f 1541 1539 1542
f 1550 1546 1545
f 1554 1550 1545
f 1549 1550 1554
f 1553 1549 1554
f 1552 1548 1549
f 1552 1549 1553
f 1551 1547 1548
f 1551 1548 1552
f 1555 1556 1561
f 1555 1561 1562
f 1555 1562 1563
f 1555 1563 1560
f 1559 1555 1560
f 1558 1559 1560
f 1557 1558 1560
f 1565 1564 1572
f 1565 1572 1573
f 1570 1573 1574
f 1570 1574 1569
f 1570 1565 1573
f 1566 1565 1570
f 1571 1566 1570
f 1567 1566 1571
f 1568 1567 1571
f 1578 1577 1583
f 1579 1578 1583
f 1594 1580 1581
f 1594 1584 1585
f 1594 1585 1586
f 1594 1586 1587
f 1594 1587 1588
f 1594 1588 1589
f 1594 1589 1590
f 1594 1590 1580
f 1594 1593 1584
f 1595 1593 1594
f 1595 1594 1581
f 1596 1592 1593
f 1596 1593 1595
f 1596 1595 1581
f 1597 1581 1582
f 1597 1591 1592
f 1597 1592 1596
f 1597 1596 1581
f 1598 1597 1582
f 1598 1591 1597
f 1599 1576 1575
f 1599 1577 1576
f 1599 1582 1583
f 1599 1575 1591
f 1599 1598 1582
f 1599 1591 1598
f 1599 1583 1577
f 1620 1621 1604
f 1605 1620 1604
f 1624 1600 1601
f 1624 1606 1600
f 1624 1607 1606
f 1624 1608 1607
f 1624 1609 1608
f 1624 1610 1609
f 1625 1611 1610
f 1625 1612 1611
f 1625 1616 1612
f 1625 1610 1624
f 1625 1624 1601
f 1626 1625 1601
f 1626 1616 1625
f 1627 1615 1616
f 1627 1626 1601
f 1627 1616 1626
f 1628 1601 1602
f 1628 1627 1601
f 1628 1615 1627
f 1629 1628 1602
f 1629 1615 1628
f 1630 1614 1615
f 1630 1615 1629
f 1631 1614 1630
f 1632 1602 1603
f 1632 1631 1602
f 1632 1614 1631
f 1633 1614 1632
f 1633 1632 1603
f 1634 1613 1614
f 1634 1614 1633
f 1635 1613 1634
f 1636 1603 1604
f 1636 1635 1603
f 1636 1613 1635
f 1637 1621 1622
f 1637 1604 1621
f 1638 1622 1623
f 1638 1637 1622
f 1638 1604 1637
f 1639 1638 1623
f 1639 1604 1638
f 1640 1623 1617
f 1640 1639 1623
f 1640 1604 1639
f 1641 1617 1618
f 1641 1618 1619
f 1641 1619 1613
f 1641 1636 1604
f 1641 1613 1636
f 1641 1640 1617
f 1641 1604 1640
f 1642 1631 1630
f 1642 1630 1629
f 1642 1602 1631
f 1642 1629 1602
f 1643 1633 1603
f 1643 1603 1635
f 1643 1634 1633
f 1643 1635 1634
f 1654 1647 1646
f 1655 1648 1647
f 1655 1647 1654
f 1651 1649 1648
f 1651 1648 1655
f 1650 1651 1655
f 1663 1645 1644
f 1663 1652 1653
f 1663 1644 1656
f 1663 1656 1657
f 1663 1657 1658
f 1663 1658 1659
f 1663 1659 1660
f 1663 1660 1661
f 1663 1661 1662
f 1663 1662 1652
f 1663 1664 1645
f 1663 1653 1664
f 1665 1645 1664
f 1665 1664 1653
f 1666 1646 1645
f 1666 1653 1654
f 1666 1665 1653
f 1666 1654 1646
f 1666 1645 1665
f 1668 1674 1672
f 1668 1667 1674
f 1673 1668 1672
f 1669 1668 1673
f 1671 1670 1669
f 1671 1669 1673
f 1679 1675 1676
f 1678 1679 1676
f 1677 1681 1680
f 1677 1676 1681
f 1677 1678 1676
f 1690 1687 1684
f 1689 1690 1684
f 1688 1689 1684
f 1683 1684 1685
f 1683 1685 1686
f 1683 1686 1682
f 1683 1688 1684
f 1705 1696 1697
f 1705 1697 1698
f 1705 1698 1699
f 1706 1707 1694
f 1695 1706 1694
f 1709 1691 1692
f 1709 1699 1700
f 1709 1700 1701
f 1709 1701 1691
f 1709 1705 1699
f 1710 1704 1705
f 1710 1705 1709
f 1710 1709 1692
f 1711 1692 1693
f 1711 1703 1704
f 1711 1704 1710
f 1711 1710 1692
f 1712 1703 1711
f 1712 1711 1693
f 1713 1693 1694
f 1713 1702 1703
f 1713 1707 1708
f 1713 1708 1702
f 1713 1712 1693
f 1713 1703 1712
f 1713 1694 1707
f 1721 1717 1716
f 1721 1718 1717
f 1724 1715 1714
f 1724 1716 1715
f 1724 1721 1716
f 1723 1720 1721
f 1723 1721 1724
f 1722 1719 1720
f 1722 1720 1723
f 1741 1735 1736
f 1742 1734 1735
f 1742 1735 1741
f 1743 1734 1742
f 1739 1733 1734
f 1739 1734 1743
f 1738 1739 1743
f 1744 1737 1725
f 1745 1744 1740
f 1745 1737 1744
f 1746 1736 1737
f 1746 1740 1741
f 1746 1745 1740
f 1746 1741 1736
f 1746 1737 1745
f 1747 1725 1726
f 1747 1726 1727
f 1747 1727 1728
f 1747 1728 1729
f 1747 1729 1730
f 1747 1730 1731
f 1747 1731 1732
f 1747 1732 1740
f 1747 1740 1744
f 1747 1744 1725
f 1765 1771 1766
f 1767 1766 1771
f 1768 1749 1748
f 1772 1750 1749
f 1772 1751 1750
f 1772 1752 1751
f 1772 1753 1752
f 1772 1756 1753
f 1772 1749 1768
f 1773 1756 1772
f 1773 1772 1768
f 1774 1773 1768
f 1774 1756 1773
f 1775 1755 1756
f 1775 1756 1774
f 1775 1774 1768
f 1776 1754 1755
f 1776 1760 1754
f 1776 1755 1775
f 1776 1775 1768
f 1777 1776 1768
f 1777 1760 1776
f 1778 1768 1769
f 1778 1760 1777
f 1778 1777 1768
f 1779 1759 1760
f 1779 1760 1778
f 1779 1778 1769
f 1780 1779 1769
f 1780 1759 1779
f 1781 1758 1759
f 1781 1759 1780
f 1782 1758 1781
f 1783 1769 1770
f 1783 1782 1769
f 1783 1758 1782
f 1784 1783 1770
f 1784 1758 1783
f 1785 1770 1771
f 1785 1784 1770
f 1786 1758 1784
f 1786 1784 1785
f 1787 1757 1758
f 1787 1758 1786
f 1788 1763 1762
f 1788 1764 1763
f 1788 1765 1764
f 1788 1771 1765
f 1789 1788 1762
f 1789 1771 1788
f 1790 1761 1757
f 1790 1762 1761
f 1790 1757 1787
f 1790 1789 1762
f 1791 1780 1769
f 1791 1781 1780
f 1791 1769 1782
f 1791 1782 1781
f 1792 1789 1790
f 1792 1785 1771
f 1792 1786 1785
f 1792 1787 1786
f 1792 1771 1789
f 1792 1790 1787
f 1800 1794 1793
f 1800 1795 1794
f 1797 1795 1800
f 1799 1797 1800
f 1796 1797 1799
f 1798 1796 1799
f 1801 1802 1806
f 1801 1806 1807
f 1801 1807 1805
f 1803 1801 1805
f 1804 1803 1805
f 1828 1827 1869
f 1826 1870 1869
f 1826 1869 1827
f 1829 1828 1869
f 1830 1868 1867
f 1830 1869 1868
f 1830 1829 1869
f 1825 1870 1826
f 1824 1870 1825
f 1823 1870 1824
f 1866 1831 1830
f 1866 1832 1831
f 1866 1833 1832
f 1866 1830 1867
f 1822 1870 1823
f 1822 1871 1870
f 1821 1871 1822
f 1872 1871 1821
f 1865 1833 1866
f 1865 1834 1833
f 1865 1835 1834
f 1865 1836 1835
f 1865 1837 1836
f 1865 1838 1837
f 1814 1872 1821
f 1820 1814 1821
f 1864 1838 1865
f 1864 1839 1838
f 1864 1840 1839
f 1815 1872 1814
f 1815 1873 1872
f 1842 1841 1840
f 1863 1840 1864
f 1863 1842 1840
f 1816 1873 1815
f 1816 1874 1873
f 1848 1842 1863
f 1862 1848 1863
f 1817 1874 1816
f 1817 1875 1874
f 1847 1848 1862
f 1861 1847 1862
f 1818 1875 1817
f 1818 1876 1875
f 1846 1847 1861
f 1860 1846 1861
f 1819 1876 1818
f 1819 1877 1876
f 1845 1846 1860
f 1859 1845 1860
f 1813 1878 1877
f 1813 1877 1819
f 1844 1845 1859
f 1858 1844 1859
f 1843 1844 1858
f 1809 1813 1808
f 1809 1879 1878
f 1809 1878 1813
f 1853 1849 1843
f 1857 1853 1843
f 1857 1843 1858
f 1810 1880 1879
f 1810 1879 1809
f 1811 1880 1810
f 1881 1880 1811
f 1856 1853 1857
f 1856 1852 1853
f 1851 1852 1856
f 1812 1881 1811
f 1855 1851 1856
f 1850 1851 1855
f 1854 1850 1855

