# https://github.com/mikedh/trimesh
v 0.00079696 -0.01660540 -0.01017395
v 0.00056957 -0.01162796 -0.01028730
v 0.00051803 -0.00697599 -0.01055946
v 0.00006678 -0.01687275 -0.00992450
v -0.00066949 -0.01720693 -0.00947638
v -0.00132160 -0.01756725 -0.00888925
v -0.00183719 -0.01791205 -0.00823163
v -0.00214590 -0.01815878 -0.00766531
v -0.00235993 -0.01836009 -0.00705685
v -0.00312443 -0.01558447 -0.00704977
v -0.00378324 -0.01132904 -0.00704635
v -0.00413257 -0.00780409 -0.00705195
v -0.00426958 -0.00447850 -0.00705639
v -0.00102735 -0.00612455 -0.01018077
v -0.00232215 -0.00543543 -0.00946059
v -0.00335093 -0.00490857 -0.00854479
v -0.00388244 -0.00464940 -0.00785557
v -0.00409943 -0.00455010 -0.00746584
v -0.00275150 -0.00637274 -0.00905013
v -0.00183433 -0.00786488 -0.00962128
v -0.00294406 -0.00686892 -0.00883891
v -0.00346201 -0.00654117 -0.00832145
v -0.00285489 -0.00846806 -0.00878441
v -0.00218292 -0.00882849 -0.00930460
v -0.00124791 -0.00983645 -0.00979153
v -0.00338450 -0.00827361 -0.00825300
v -0.00177656 -0.01356713 -0.00912581
v -0.00257466 -0.01295002 -0.00853156
v -0.00197565 -0.01154889 -0.00919579
v -0.00053134 -0.01475997 -0.00974908
v -0.00059039 -0.01561474 -0.00965768
v -0.00235175 -0.01661786 -0.00806167
v -0.00067705 -0.00736186 -0.01023086
v -0.00310767 -0.00951024 -0.00842465
v -0.00069785 -0.01156182 -0.00990807
v -0.00347027 -0.00986493 -0.00794279
v -0.00321114 -0.01004521 -0.00824374
v -0.00282484 -0.01058455 -0.00858867
v -0.00063085 -0.01253870 -0.00986353
v -0.00165250 -0.01502667 -0.00904494
v -0.00306143 -0.01150094 -0.00821495
v -0.00290142 -0.01200186 -0.00832381
v -0.00264066 -0.01408241 -0.00828492
v -0.00235175 -0.01476640 -0.00847812
v -0.00265858 -0.01462396 -0.00816197
v -0.00256264 -0.01533724 -0.00812868
v -0.00158555 -0.01611049 -0.00894483
v 0.00617278 -0.02769966 -0.00763319
v 0.00604937 -0.02794515 -0.00762366
v 0.00571884 -0.02790262 -0.00833324
v 0.00533241 -0.02784349 -0.00883222
v 0.00485622 -0.02776212 -0.00923550
v 0.00426899 -0.02765438 -0.00957693
v 0.00334438 -0.02747450 -0.00992684
v 0.00247844 -0.02729771 -0.01013039
v 0.00157548 -0.02710571 -0.01027129
v 0.00285185 -0.02395370 -0.01014274
v 0.00294020 -0.02370892 -0.01013176
v 0.00403222 -0.02514430 -0.00990660
v 0.00598938 -0.02744585 -0.00827328
v 0.00574527 -0.02713576 -0.00877093
v 0.00546104 -0.02679170 -0.00913349
v 0.00513587 -0.02640863 -0.00941342
v 0.00459681 -0.02578649 -0.00971316
v 0.00421132 -0.02712725 -0.00970235
v 0.00346455 -0.02679618 -0.00996477
v 0.00267867 -0.02643045 -0.01013886
v 0.00269059 -0.01623542 -0.01023419
v 0.00228945 -0.01952253 -0.01021746
v 0.00159585 -0.01639784 -0.01025248
v 0.00079696 -0.01660540 -0.01017395
v 0.00080596 -0.02026297 -0.01022593
v 0.00058063 -0.02331226 -0.01031447
v 0.00285185 -0.02395370 -0.01014274
v 0.00294020 -0.02370892 -0.01013176
v 0.00218734 -0.02095589 -0.01022702
v 0.00234893 -0.02224337 -0.01021451
v 0.00259173 -0.02299669 -0.01018601
v 0.00153240 -0.01775211 -0.01023591
v 0.00305336 -0.01329380 -0.01032094
v 0.00313110 -0.01118060 -0.01041753
v 0.00281996 -0.00968468 -0.01051523
v 0.00227669 -0.00852281 -0.01059817
v 0.00167325 -0.00777050 -0.01063628
v 0.00123822 -0.00740676 -0.01063181
v 0.00075289 -0.00710690 -0.01059185
v 0.00269059 -0.01623542 -0.01023419
v 0.00159585 -0.01639784 -0.01025248
v 0.00079696 -0.01660540 -0.01017395
v 0.00056957 -0.01162796 -0.01028730
v 0.00051803 -0.00697599 -0.01055946
v 0.00168338 -0.01487977 -0.01029472
v -0.00426958 -0.00447850 -0.00294361
v -0.00393437 -0.00462509 -0.00222869
v -0.00347921 -0.00484478 -0.00160090
v -0.00276714 -0.00520481 -0.00089012
v -0.00186710 -0.00567475 -0.00023870
v -0.00089493 -0.00619639 0.00023190
v -0.00019667 -0.00657903 0.00043725
v 0.00051803 -0.00697599 0.00055945
v 0.00079696 -0.01660540 0.00017395
v 0.00056957 -0.01162795 0.00028729
v 0.00006678 -0.01687275 -0.00007551
v -0.00066949 -0.01720693 -0.00052362
v -0.00132160 -0.01756725 -0.00111076
v -0.00183719 -0.01791205 -0.00176837
v -0.00214590 -0.01815878 -0.00233469
v -0.00235993 -0.01836009 -0.00294315
v -0.00312443 -0.01558447 -0.00295023
v -0.00378324 -0.01132904 -0.00295365
v -0.00413257 -0.00780409 -0.00294805
v -0.00312567 -0.00615491 -0.00128611
v -0.00202124 -0.00776324 -0.00049247
v -0.00253000 -0.00750087 -0.00084903
v -0.00328329 -0.00665453 -0.00148599
v -0.00363416 -0.00643210 -0.00188338
v -0.00250551 -0.00865897 -0.00092885
v -0.00280056 -0.00849803 -0.00116846
v -0.00319061 -0.00828112 -0.00153101
v -0.00147746 -0.00974451 -0.00032334
v -0.00357788 -0.00813873 -0.00197336
v -0.00177656 -0.01356712 -0.00087420
v -0.00257467 -0.01295002 -0.00146844
v -0.00197565 -0.01154889 -0.00080421
v -0.00053135 -0.01475997 -0.00025092
v -0.00059040 -0.01561474 -0.00034232
v -0.00235175 -0.01661786 -0.00193833
v -0.00069784 -0.01156181 -0.00009193
v -0.00333611 -0.00995968 -0.00189527
v -0.00344949 -0.00987967 -0.00203109
v -0.00291717 -0.01053535 -0.00149795
v -0.00063085 -0.01253869 -0.00013647
v -0.00165250 -0.01502667 -0.00095506
v -0.00306143 -0.01150093 -0.00178505
v -0.00290142 -0.01200186 -0.00167619
v -0.00264065 -0.01408241 -0.00171508
v -0.00235175 -0.01476639 -0.00152188
v -0.00265858 -0.01462396 -0.00183804
v -0.00256264 -0.01533724 -0.00187133
v -0.00158555 -0.01611049 -0.00105518
v 0.00403222 -0.02514429 -0.00009340
v 0.00493466 -0.02617497 -0.00045624
v 0.00534756 -0.02665707 -0.00075672
v 0.00574156 -0.02713124 -0.00122396
v 0.00598986 -0.02744648 -0.00172805
v 0.00609112 -0.02758339 -0.00204034
v 0.00617278 -0.02769966 -0.00236681
v 0.00604937 -0.02794515 -0.00237634
v 0.00571885 -0.02790263 -0.00166676
v 0.00533242 -0.02784350 -0.00116778
v 0.00485622 -0.02776211 -0.00076450
v 0.00426901 -0.02765438 -0.00042307
v 0.00334439 -0.02747450 -0.00007317
v 0.00247845 -0.02729770 0.00013039
v 0.00157548 -0.02710571 0.00027129
v 0.00285185 -0.02395370 0.00014274
v 0.00294034 -0.02370918 0.00013174
v 0.00367453 -0.02695310 -0.00010317
v 0.00267867 -0.02643045 0.00013886
v 0.00294034 -0.02370918 0.00013174
v 0.00264838 -0.02313171 0.00017813
v 0.00242627 -0.02252675 0.00020636
v 0.00219879 -0.02125029 0.00022684
v 0.00220217 -0.02038719 0.00022453
v 0.00228945 -0.01952253 0.00021746
v 0.00269059 -0.01623542 0.00023419
v 0.00159585 -0.01639784 0.00025248
v 0.00079696 -0.01660540 0.00017395
v 0.00080596 -0.02026297 0.00022592
v 0.00058063 -0.02331226 0.00031447
v 0.00285185 -0.02395370 0.00014274
v 0.00153240 -0.01775211 0.00023591
v 0.00051803 -0.00697599 0.00055945
v 0.00075289 -0.00710690 0.00059185
v 0.00148518 -0.00759903 0.00063778
v 0.00208940 -0.00824917 0.00061536
v 0.00254549 -0.00900816 0.00056412
v 0.00286681 -0.00983081 0.00050485
v 0.00310944 -0.01098128 0.00042925
v 0.00315785 -0.01213906 0.00036759
v 0.00305336 -0.01329380 0.00032094
v 0.00269059 -0.01623542 0.00023419
v 0.00159585 -0.01639784 0.00025248
v 0.00079696 -0.01660540 0.00017395
v 0.00056957 -0.01162795 0.00028729
v 0.00168338 -0.01487977 0.00029472
v 0.00604937 -0.02794515 -0.00762366
v 0.00633988 -0.02796429 -0.00662388
v 0.00527363 -0.02982106 -0.00754813
v 0.00484676 -0.03155985 -0.00748412
v 0.00519586 -0.03148521 -0.00582804
v 0.00519586 -0.03148521 -0.00417196
v 0.00484676 -0.03155985 -0.00251588
v 0.00604937 -0.02794515 -0.00237634
v 0.00527364 -0.02982105 -0.00245187
v 0.00633988 -0.02796429 -0.00337612
v 0.00640737 -0.02816562 -0.00498953
v 0.00640737 -0.02816562 -0.00501047
v -0.00235993 -0.01836009 -0.00705685
v -0.00312443 -0.01558447 -0.00704977
v -0.00378324 -0.01132904 -0.00704635
v -0.00413257 -0.00780409 -0.00705195
v -0.00426958 -0.00447850 -0.00705639
v -0.00249243 -0.01849546 -0.00641458
v -0.00256833 -0.01857299 -0.00572121
v -0.00259303 -0.01859821 -0.00500000
v -0.00457395 -0.00442982 -0.00500000
v -0.00432735 -0.00920667 -0.00500000
v -0.00372695 -0.01395544 -0.00500000
v -0.00318722 -0.01669845 -0.00500000
v -0.00457395 -0.00442951 -0.00501047
v -0.00444889 -0.00441737 -0.00638718
v -0.00454381 -0.00440480 -0.00570414
v -0.00382977 -0.01276672 -0.00611326
v -0.00321396 -0.01626069 -0.00610955
v -0.00457395 -0.00442951 -0.00498953
v -0.00451988 -0.00440455 -0.00406692
v -0.00442568 -0.00442372 -0.00350019
v -0.00426958 -0.00447850 -0.00294361
v -0.00235993 -0.01836009 -0.00294315
v -0.00312443 -0.01558447 -0.00295023
v -0.00378324 -0.01132904 -0.00295365
v -0.00413257 -0.00780409 -0.00294805
v -0.00249244 -0.01849546 -0.00358542
v -0.00256834 -0.01857299 -0.00427879
v -0.00259303 -0.01859821 -0.00500000
v -0.00457395 -0.00442982 -0.00500000
v -0.00432735 -0.00920667 -0.00500000
v -0.00372695 -0.01395544 -0.00500000
v -0.00318722 -0.01669845 -0.00500000
v -0.00382976 -0.01276672 -0.00388674
v -0.00321396 -0.01626069 -0.00389045
v 0.00285185 -0.02395370 -0.01014274
v 0.00157548 -0.02710571 -0.01027129
v 0.00082873 -0.02688849 -0.01035680
v 0.00036451 -0.02664770 -0.01038453
v -0.00010595 -0.02628813 -0.01038438
v 0.00026130 -0.02501984 -0.01036580
v 0.00058063 -0.02331226 -0.01031447
v 0.00157548 -0.02710571 -0.01027129
v -0.00177059 -0.04231146 -0.00924609
v -0.00165982 -0.04305563 -0.00900849
v -0.00156140 -0.04365995 -0.00865602
v -0.00148286 -0.04411609 -0.00824056
v -0.00141938 -0.04447237 -0.00779294
v -0.00136182 -0.04479097 -0.00724477
v -0.00133945 -0.04491686 -0.00694696
v -0.00132454 -0.04500196 -0.00668145
v -0.00195926 -0.04474289 -0.00668752
v -0.00255697 -0.04433048 -0.00669394
v -0.00297816 -0.04391854 -0.00669895
v -0.00343260 -0.04326571 -0.00701171
v -0.00321465 -0.04357704 -0.00698257
v -0.00310966 -0.04371712 -0.00693538
v -0.00304579 -0.04380324 -0.00688320
v -0.00301156 -0.04385233 -0.00683653
v -0.00299125 -0.04388513 -0.00678999
v -0.00298136 -0.04390573 -0.00674444
v -0.00337631 -0.04307437 -0.00771862
v -0.00316811 -0.04285834 -0.00837392
v -0.00299465 -0.04273640 -0.00867036
v -0.00275422 -0.04260510 -0.00892962
v -0.00251489 -0.04250357 -0.00908399
v -0.00226252 -0.04242025 -0.00917666
v -0.00202754 -0.04236050 -0.00922203
v -0.00217347 -0.04307414 -0.00895554
v -0.00232183 -0.04309870 -0.00890523
v -0.00225462 -0.04334496 -0.00877801
v -0.00237498 -0.04335814 -0.00872198
v -0.00274595 -0.04364141 -0.00810068
v -0.00224047 -0.04413431 -0.00788725
v -0.00257289 -0.04397870 -0.00777503
v -0.00251496 -0.04409601 -0.00761200
v -0.00230507 -0.04435257 -0.00729845
v -0.00263918 -0.04418808 -0.00701974
v -0.00128685 -0.04521337 -0.00500000
v -0.00129649 -0.04515928 -0.00588535
v -0.00132454 -0.04500196 -0.00668145
v -0.00062216 -0.04513182 -0.00667818
v 0.00016424 -0.04512815 -0.00667802
v 0.00066827 -0.04506730 -0.00667824
v 0.00069506 -0.04522893 -0.00500000
v -0.00029742 -0.04531124 -0.00500000
v 0.00280820 -0.04172287 -0.00711740
v 0.00281521 -0.04167799 -0.00713067
v 0.00282526 -0.04162514 -0.00713953
v 0.00283837 -0.04156431 -0.00714396
v 0.00284470 -0.04200776 -0.00667827
v 0.00282605 -0.04200522 -0.00676919
v 0.00281284 -0.04198782 -0.00684675
v 0.00280310 -0.04194814 -0.00692822
v 0.00279825 -0.04188548 -0.00700806
v 0.00279984 -0.04180857 -0.00707262
v 0.00066827 -0.04506730 -0.00667824
v 0.00101750 -0.04495984 -0.00667830
v 0.00137376 -0.04475051 -0.00667853
v 0.00170856 -0.04444949 -0.00667884
v 0.00203196 -0.04404526 -0.00667912
v 0.00240460 -0.04338163 -0.00667925
v 0.00266791 -0.04268142 -0.00667894
v 0.00064878 -0.04494831 -0.00709678
v 0.00060486 -0.04467374 -0.00757842
v 0.00053065 -0.04419985 -0.00809606
v 0.00043292 -0.04355303 -0.00856613
v 0.00032622 -0.04279506 -0.00891272
v 0.00022821 -0.04198833 -0.00913152
v 0.00135424 -0.04180647 -0.00877656
v 0.00206059 -0.04169289 -0.00834888
v 0.00246485 -0.04162758 -0.00794291
v 0.00269427 -0.04158955 -0.00755672
v 0.00277332 -0.04157591 -0.00735456
v 0.00263825 -0.04188579 -0.00751473
v 0.00262312 -0.04199014 -0.00748318
v 0.00211024 -0.04274397 -0.00790171
v 0.00232471 -0.04290287 -0.00745711
v 0.00215366 -0.04315027 -0.00756081
v 0.00166871 -0.04307723 -0.00816611
v 0.00193906 -0.04340521 -0.00767247
v 0.00221378 -0.04341131 -0.00721200
v 0.00178530 -0.04355754 -0.00774302
v 0.00183730 -0.04392713 -0.00733729
v 0.00149245 -0.04379071 -0.00785965
v 0.00087185 -0.04305474 -0.00864109
v 0.00117638 -0.04397393 -0.00796204
v 0.00112195 -0.04466579 -0.00728699
v 0.00096845 -0.04473553 -0.00730571
v 0.00097826 -0.04485180 -0.00708424
v 0.00284470 -0.04200776 -0.00667827
v 0.00301859 -0.04198085 -0.00500000
v 0.00066827 -0.04506730 -0.00667824
v 0.00101750 -0.04495984 -0.00667830
v 0.00137376 -0.04475051 -0.00667853
v 0.00170856 -0.04444949 -0.00667884
v 0.00203196 -0.04404526 -0.00667912
v 0.00240460 -0.04338163 -0.00667925
v 0.00266791 -0.04268142 -0.00667894
v 0.00069506 -0.04522893 -0.00500000
v 0.00259936 -0.04331608 -0.00500000
v 0.00203510 -0.04428855 -0.00500000
v 0.00150273 -0.04484039 -0.00500000
v 0.00117249 -0.04505855 -0.00500000
v 0.00094019 -0.04516022 -0.00500000
v -0.00295425 -0.04409645 -0.00500000
v -0.00297816 -0.04391854 -0.00669895
v -0.00132454 -0.04500196 -0.00668145
v -0.00195926 -0.04474289 -0.00668752
v -0.00255697 -0.04433048 -0.00669394
v -0.00128685 -0.04521337 -0.00500000
v -0.00129649 -0.04515928 -0.00588535
v -0.00247809 -0.04458299 -0.00500000
v -0.00192261 -0.04497397 -0.00500000
v -0.00161272 -0.04511468 -0.00500000
v -0.00210846 -0.03751893 -0.01007367
v -0.00201382 -0.03998340 -0.00973066
v -0.00177059 -0.04231146 -0.00924609
v -0.00343260 -0.04326571 -0.00701171
v -0.00337631 -0.04307437 -0.00771862
v -0.00316811 -0.04285834 -0.00837392
v -0.00299465 -0.04273640 -0.00867036
v -0.00275422 -0.04260510 -0.00892962
v -0.00251489 -0.04250357 -0.00908399
v -0.00226252 -0.04242025 -0.00917666
v -0.00202754 -0.04236050 -0.00922203
v -0.00415267 -0.04175678 -0.00703020
v -0.00471294 -0.03961653 -0.00704748
v -0.00492050 -0.03809673 -0.00705685
v -0.00275884 -0.03758231 -0.01000296
v -0.00317322 -0.03764027 -0.00985111
v -0.00356450 -0.03770630 -0.00958598
v -0.00387743 -0.03776847 -0.00925814
v -0.00424382 -0.03785583 -0.00870123
v -0.00458781 -0.03795975 -0.00796663
v -0.00320766 -0.03841654 -0.00973296
v -0.00282978 -0.03879258 -0.00982914
v -0.00301550 -0.03880961 -0.00976393
v -0.00390249 -0.03908855 -0.00898724
v -0.00452088 -0.03864916 -0.00794606
v -0.00462797 -0.03867358 -0.00767483
v -0.00387114 -0.03986522 -0.00884293
v -0.00473440 -0.03869771 -0.00738648
v -0.00252477 -0.04127557 -0.00942633
v -0.00275677 -0.04176693 -0.00922475
v -0.00271856 -0.04132989 -0.00936015
v -0.00288676 -0.04138344 -0.00927884
v -0.00415940 -0.04049302 -0.00811587
v -0.00371564 -0.04083985 -0.00874862
v -0.00296724 -0.04184965 -0.00909052
v -0.00357946 -0.04156956 -0.00862704
v -0.00374596 -0.04243198 -0.00763902
v -0.00304036 -0.03953635 -0.00963121
v -0.00304164 -0.03991008 -0.00955880
v -0.00298869 -0.04036160 -0.00948753
v -0.00330818 -0.04020444 -0.00933972
v -0.00296180 -0.04070478 -0.00942063
v 0.00066827 -0.04506730 -0.00667824
v 0.00064878 -0.04494831 -0.00709678
v 0.00060486 -0.04467374 -0.00757842
v 0.00053065 -0.04419985 -0.00809606
v 0.00043292 -0.04355303 -0.00856613
v 0.00032622 -0.04279506 -0.00891272
v 0.00022821 -0.04198833 -0.00913152
v -0.00132454 -0.04500196 -0.00668145
v -0.00062216 -0.04513182 -0.00667818
v 0.00016424 -0.04512815 -0.00667802
v -0.00177059 -0.04231146 -0.00924609
v -0.00165982 -0.04305563 -0.00900849
v -0.00156140 -0.04365995 -0.00865602
v -0.00148286 -0.04411609 -0.00824056
v -0.00141938 -0.04447237 -0.00779294
v -0.00136182 -0.04479097 -0.00724477
v -0.00133945 -0.04491686 -0.00694696
v -0.00028177 -0.04486202 -0.00742842
v 0.00484676 -0.03155985 -0.00748412
v 0.00397162 -0.03629419 -0.00732365
v 0.00283837 -0.04156431 -0.00714396
v 0.00022821 -0.04198833 -0.00913152
v 0.00135424 -0.04180647 -0.00877656
v 0.00206059 -0.04169289 -0.00834888
v 0.00246485 -0.04162758 -0.00794291
v 0.00269427 -0.04158955 -0.00755672
v 0.00277332 -0.04157591 -0.00735456
v 0.00006626 -0.03879829 -0.00972557
v 0.00016034 -0.03556687 -0.01008886
v 0.00035010 -0.03231998 -0.01025748
v 0.00218441 -0.03202221 -0.00981175
v 0.00351438 -0.03180148 -0.00912604
v 0.00425991 -0.03167254 -0.00849285
v 0.00462786 -0.03160458 -0.00799372
v 0.00475417 -0.03157937 -0.00773498
v 0.00403222 -0.03400461 -0.00821082
v 0.00313448 -0.03446733 -0.00901191
v 0.00191771 -0.03367415 -0.00978252
v 0.00293801 -0.03580138 -0.00892630
v 0.00203907 -0.03679158 -0.00933356
v 0.00185016 -0.04065636 -0.00873358
v 0.00169957 -0.04014440 -0.00892637
v 0.00265992 -0.03883934 -0.00851615
v 0.00130640 -0.04020672 -0.00911196
v 0.00367246 -0.03601878 -0.00811791
v 0.00338423 -0.03649218 -0.00835841
v 0.00268147 -0.03745373 -0.00880350
v 0.00351510 -0.03685077 -0.00807827
v 0.00222551 -0.03525500 -0.00946097
v 0.00178694 -0.03499525 -0.00969688
v 0.00172243 -0.03565567 -0.00964401
v 0.00183625 -0.03603286 -0.00954461
v 0.00194871 -0.03833955 -0.00912341
v 0.00291385 -0.04017570 -0.00779737
v 0.00147829 -0.03810801 -0.00939778
v 0.00156115 -0.03878545 -0.00924730
v 0.00284470 -0.04200776 -0.00332173
v 0.00301859 -0.04198085 -0.00500000
v 0.00282295 -0.04200353 -0.00321482
v 0.00280988 -0.04197963 -0.00313199
v 0.00280098 -0.04193165 -0.00304694
v 0.00279803 -0.04186329 -0.00297034
v 0.00280072 -0.04179500 -0.00291850
v 0.00280820 -0.04172287 -0.00288260
v 0.00281667 -0.04166859 -0.00286658
v 0.00282701 -0.04161576 -0.00285876
v 0.00283837 -0.04156431 -0.00285604
v 0.00484676 -0.03155985 -0.00251588
v 0.00397162 -0.03629419 -0.00267635
v 0.00484676 -0.03155985 -0.00748412
v 0.00519586 -0.03148521 -0.00582804
v 0.00519586 -0.03148521 -0.00417196
v 0.00397162 -0.03629419 -0.00732365
v 0.00283837 -0.04156431 -0.00714396
v 0.00280820 -0.04172287 -0.00711740
v 0.00281521 -0.04167799 -0.00713067
v 0.00282526 -0.04162514 -0.00713953
v 0.00284470 -0.04200776 -0.00667827
v 0.00282605 -0.04200522 -0.00676919
v 0.00281284 -0.04198782 -0.00684675
v 0.00280310 -0.04194814 -0.00692822
v 0.00279825 -0.04188548 -0.00700806
v 0.00279984 -0.04180857 -0.00707262
v 0.00389980 -0.03814518 -0.00500000
v 0.00431273 -0.03623181 -0.00500000
v 0.00475535 -0.03385872 -0.00419863
v 0.00463368 -0.03464474 -0.00526415
v -0.00179330 -0.03266648 -0.01037589
v -0.00264099 -0.03280486 -0.01027042
v -0.00304614 -0.03287142 -0.01012296
v -0.00349370 -0.03294484 -0.00984070
v -0.00385548 -0.03300386 -0.00948192
v -0.00425930 -0.03306899 -0.00888401
v -0.00462959 -0.03312750 -0.00808974
v -0.00498199 -0.03318198 -0.00709643
v -0.00507240 -0.03568187 -0.00709116
v -0.00492050 -0.03809673 -0.00705685
v -0.00210846 -0.03751893 -0.01007367
v -0.00275884 -0.03758231 -0.01000296
v -0.00317322 -0.03764027 -0.00985111
v -0.00356450 -0.03770630 -0.00958598
v -0.00387743 -0.03776847 -0.00925814
v -0.00424382 -0.03785583 -0.00870123
v -0.00458781 -0.03795975 -0.00796663
v -0.00204046 -0.03513481 -0.01027075
v -0.00288415 -0.03649441 -0.01007682
v -0.00325789 -0.03695189 -0.00988492
v -0.00308386 -0.03654201 -0.01000444
v -0.00354339 -0.03702203 -0.00969101
v -0.00334839 -0.03660913 -0.00986745
v -0.00420972 -0.03636403 -0.00901530
v -0.00280618 -0.03409277 -0.01021493
v -0.00479040 -0.03692875 -0.00773144
v -0.00415996 -0.03548060 -0.00916290
v -0.00319853 -0.03375952 -0.01006128
v -0.00303020 -0.03414392 -0.01013778
v -0.00489993 -0.03699867 -0.00742080
v -0.00409036 -0.03468318 -0.00927731
v -0.00471227 -0.03433778 -0.00807964
v -0.00482967 -0.03437882 -0.00777261
v -0.00494296 -0.03442375 -0.00745024
v -0.00326131 -0.03575348 -0.00997960
v -0.00320610 -0.03530846 -0.01002976
v -0.00315387 -0.03492520 -0.01006853
v -0.00295425 -0.04409645 -0.00500000
v -0.00297816 -0.04391854 -0.00669895
v -0.00343260 -0.04326571 -0.00701171
v -0.00321465 -0.04357704 -0.00698257
v -0.00310966 -0.04371712 -0.00693538
v -0.00304579 -0.04380324 -0.00688320
v -0.00301156 -0.04385233 -0.00683653
v -0.00299125 -0.04388513 -0.00678999
v -0.00298136 -0.04390573 -0.00674444
v -0.00415267 -0.04175678 -0.00703020
v -0.00471294 -0.03961653 -0.00704748
v -0.00492050 -0.03809673 -0.00705685
v -0.00508531 -0.03818756 -0.00641458
v -0.00517971 -0.03823958 -0.00572121
v -0.00521043 -0.03825650 -0.00500000
v -0.00388425 -0.04266771 -0.00500000
v -0.00474567 -0.04052113 -0.00500000
v 0.00604937 -0.02794515 -0.00762366
v 0.00527363 -0.02982106 -0.00754813
v 0.00484676 -0.03155985 -0.00748412
v 0.00035010 -0.03231998 -0.01025748
v 0.00218441 -0.03202221 -0.00981175
v 0.00351438 -0.03180148 -0.00912604
v 0.00425991 -0.03167254 -0.00849285
v 0.00462786 -0.03160458 -0.00799372
v 0.00475417 -0.03157937 -0.00773498
v 0.00157548 -0.02710571 -0.01027129
v 0.00073956 -0.02947280 -0.01028764
v 0.00045965 -0.03102160 -0.01028149
v 0.00571884 -0.02790262 -0.00833324
v 0.00533241 -0.02784349 -0.00883222
v 0.00485622 -0.02776212 -0.00923550
v 0.00426899 -0.02765438 -0.00957693
v 0.00334438 -0.02747450 -0.00992684
v 0.00247844 -0.02729771 -0.01013039
v 0.00525537 -0.02871656 -0.00843524
v 0.00438837 -0.02982986 -0.00887824
v 0.00398696 -0.02982754 -0.00918204
v 0.00368021 -0.02982492 -0.00937108
v 0.00261339 -0.02838185 -0.01000658
v 0.00219281 -0.03091490 -0.00989075
v 0.00139821 -0.03096300 -0.01011699
v 0.00022821 -0.04198833 -0.00913152
v 0.00006626 -0.03879829 -0.00972557
v 0.00016034 -0.03556687 -0.01008886
v 0.00035010 -0.03231998 -0.01025748
v -0.00177059 -0.04231146 -0.00924609
v -0.00210846 -0.03751893 -0.01007367
v -0.00201382 -0.03998340 -0.00973066
v -0.00179330 -0.03266648 -0.01037589
v -0.00204046 -0.03513481 -0.01027075
v -0.00270190 -0.02500130 -0.00705685
v -0.00213686 -0.02516212 -0.00829429
v -0.00129736 -0.02552753 -0.00955209
v -0.00085734 -0.02575739 -0.01000638
v -0.00054585 -0.02594389 -0.01024094
v -0.00034236 -0.02608730 -0.01034137
v -0.00021190 -0.02619369 -0.01037543
v -0.00010595 -0.02628813 -0.01038438
v -0.00384487 -0.02760823 -0.00706279
v -0.00459095 -0.03037565 -0.00708083
v -0.00498199 -0.03318198 -0.00709643
v -0.00179330 -0.03266648 -0.01037589
v -0.00264099 -0.03280486 -0.01027042
v -0.00304614 -0.03287142 -0.01012296
v -0.00349370 -0.03294484 -0.00984070
v -0.00385548 -0.03300386 -0.00948192
v -0.00425930 -0.03306899 -0.00888401
v -0.00462959 -0.03312750 -0.00808974
v -0.00113185 -0.02939992 -0.01041022
v -0.00261894 -0.03155912 -0.01025149
v -0.00211976 -0.03094196 -0.01036061
v -0.00292736 -0.03159130 -0.01011467
v -0.00236579 -0.03093397 -0.01029790
v -0.00258922 -0.03094127 -0.01021433
v -0.00360308 -0.03080930 -0.00931764
v -0.00445685 -0.03175748 -0.00809149
v -0.00458097 -0.03176798 -0.00777763
v -0.00470255 -0.03177855 -0.00744798
v -0.00129184 -0.02748362 -0.01021091
v -0.00369061 -0.02901481 -0.00834893
v -0.00337055 -0.02971143 -0.00920317
v -0.00295235 -0.02842212 -0.00916612
v -0.00115747 -0.02691266 -0.01014953
v -0.00243201 -0.02740758 -0.00929613
v -0.00281648 -0.02638609 -0.00815812
v -0.00311145 -0.02631836 -0.00756406
v -0.00239136 -0.02992123 -0.01016487
v -0.00227019 -0.02942115 -0.01013290
v -0.00206210 -0.02883456 -0.01011950
v -0.00252426 -0.02910442 -0.00987623
v -0.00180673 -0.02836811 -0.01015129
v -0.00424828 -0.02967448 -0.00756018
v -0.00492050 -0.03809673 -0.00705685
v -0.00508531 -0.03818756 -0.00641458
v -0.00517971 -0.03823958 -0.00572121
v -0.00521043 -0.03825650 -0.00500000
v -0.00498199 -0.03318198 -0.00709643
v -0.00507240 -0.03568187 -0.00709116
v -0.00270190 -0.02500130 -0.00705685
v -0.00384487 -0.02760823 -0.00706279
v -0.00459095 -0.03037565 -0.00708083
v -0.00303138 -0.02496600 -0.00500000
v -0.00295223 -0.02497448 -0.00607299
v -0.00533427 -0.03472796 -0.00500000
v -0.00503058 -0.03122548 -0.00500000
v -0.00428620 -0.02796423 -0.00500000
v -0.00372559 -0.02643689 -0.00500000
v -0.00522614 -0.03720452 -0.00607992
v 0.00157548 -0.02710571 -0.01027129
v 0.00082873 -0.02688849 -0.01035680
v 0.00036451 -0.02664770 -0.01038453
v -0.00010595 -0.02628813 -0.01038438
v -0.00179330 -0.03266648 -0.01037589
v -0.00113185 -0.02939992 -0.01041022
v 0.00035010 -0.03231998 -0.01025748
v 0.00073956 -0.02947280 -0.01028764
v 0.00045965 -0.03102160 -0.01028149
v -0.00010595 -0.02628813 -0.01038438
v 0.00026130 -0.02501984 -0.01036580
v 0.00058063 -0.02331226 -0.01031447
v -0.00270190 -0.02500130 -0.00705685
v -0.00213686 -0.02516212 -0.00829429
v -0.00129736 -0.02552753 -0.00955209
v -0.00085734 -0.02575739 -0.01000638
v -0.00054585 -0.02594389 -0.01024094
v -0.00034236 -0.02608730 -0.01034137
v -0.00021190 -0.02619369 -0.01037543
v -0.00217940 -0.02393733 -0.00705668
v -0.00178546 -0.02261655 -0.00705656
v -0.00107782 -0.02282240 -0.00874398
v -0.00052582 -0.02298511 -0.00958513
v -0.00004330 -0.02312711 -0.01004146
v 0.00028833 -0.02322503 -0.01023410
v 0.00044229 -0.02327079 -0.01028895
v -0.00006954 -0.02397554 -0.01016152
v -0.00015323 -0.02568832 -0.01035103
v -0.00027846 -0.02559304 -0.01030055
v -0.00157806 -0.02427625 -0.00853522
v -0.00226118 -0.02459730 -0.00755724
v -0.00085937 -0.02417078 -0.00950231
v -0.00097241 -0.02489483 -0.00961845
v -0.00235993 -0.01836009 -0.00705685
v -0.00249243 -0.01849546 -0.00641458
v -0.00256833 -0.01857299 -0.00572121
v -0.00259303 -0.01859821 -0.00500000
v -0.00184312 -0.01990785 -0.00705653
v -0.00167783 -0.02122329 -0.00705648
v -0.00178546 -0.02261655 -0.00705656
v -0.00270190 -0.02500130 -0.00705685
v -0.00217940 -0.02393733 -0.00705668
v -0.00303138 -0.02496600 -0.00500000
v -0.00295223 -0.02497448 -0.00607299
v -0.00210161 -0.02020664 -0.00500000
v -0.00201486 -0.02178755 -0.00500000
v -0.00228751 -0.02327789 -0.00500000
v -0.00263840 -0.02418976 -0.00500000
v 0.00079696 -0.01660540 -0.01017395
v 0.00080596 -0.02026297 -0.01022593
v 0.00058063 -0.02331226 -0.01031447
v -0.00178546 -0.02261655 -0.00705656
v -0.00107782 -0.02282240 -0.00874398
v -0.00052582 -0.02298511 -0.00958513
v -0.00004330 -0.02312711 -0.01004146
v 0.00028833 -0.02322503 -0.01023410
v 0.00044229 -0.02327079 -0.01028895
v -0.00235993 -0.01836009 -0.00705685
v -0.00184312 -0.01990785 -0.00705653
v -0.00167783 -0.02122329 -0.00705648
v 0.00006678 -0.01687275 -0.00992450
v -0.00066949 -0.01720693 -0.00947638
v -0.00132160 -0.01756725 -0.00888925
v -0.00183719 -0.01791205 -0.00823163
v -0.00214590 -0.01815878 -0.00766531
v 0.00052258 -0.01815673 -0.01009588
v 0.00017560 -0.01823462 -0.00994931
v -0.00017357 -0.01832449 -0.00974427
v -0.00099694 -0.01897927 -0.00894255
v 0.00039289 -0.02214063 -0.01018607
v -0.00173447 -0.01878769 -0.00795242
v -0.00087627 -0.01998047 -0.00898348
v 0.00014966 -0.02205807 -0.01005323
v -0.00018075 -0.02195064 -0.00980252
v -0.00088175 -0.02112512 -0.00891122
v 0.00036939 -0.01915924 -0.01005232
v -0.00005551 -0.02007882 -0.00982573
v 0.00285185 -0.02395370 0.00014274
v 0.00157548 -0.02710571 0.00027129
v 0.00082873 -0.02688849 0.00035679
v 0.00036452 -0.02664769 0.00038453
v -0.00010595 -0.02628813 0.00038438
v 0.00026130 -0.02501984 0.00036580
v 0.00058063 -0.02331226 0.00031447
v 0.00157548 -0.02710571 0.00027129
v -0.00132454 -0.04500196 -0.00331855
v -0.00181377 -0.04481636 -0.00331396
v -0.00237812 -0.04447384 -0.00330803
v -0.00297816 -0.04391854 -0.00330105
v -0.00343260 -0.04326571 -0.00298829
v -0.00321843 -0.04357195 -0.00301636
v -0.00310946 -0.04371739 -0.00306475
v -0.00304527 -0.04380400 -0.00311748
v -0.00301137 -0.04385261 -0.00316375
v -0.00299067 -0.04388617 -0.00321183
v -0.00298079 -0.04390722 -0.00325975
v -0.00337631 -0.04307437 -0.00228138
v -0.00316811 -0.04285834 -0.00162608
v -0.00299465 -0.04273640 -0.00132964
v -0.00275422 -0.04260510 -0.00107038
v -0.00251489 -0.04250357 -0.00091601
v -0.00226252 -0.04242025 -0.00082334
v -0.00202754 -0.04236050 -0.00077797
v -0.00177059 -0.04231146 -0.00075391
v -0.00165982 -0.04305563 -0.00099151
v -0.00156140 -0.04365995 -0.00134398
v -0.00148286 -0.04411609 -0.00175945
v -0.00141938 -0.04447237 -0.00220706
v -0.00136182 -0.04479097 -0.00275523
v -0.00133945 -0.04491686 -0.00305304
v -0.00217347 -0.04307414 -0.00104446
v -0.00232183 -0.04309870 -0.00109477
v -0.00225462 -0.04334496 -0.00122199
v -0.00237498 -0.04335814 -0.00127802
v -0.00274583 -0.04364167 -0.00189953
v -0.00257274 -0.04397902 -0.00222537
v -0.00198974 -0.04452314 -0.00269373
v -0.00195299 -0.04460434 -0.00286577
v -0.00246872 -0.04423206 -0.00266446
v -0.00132454 -0.04500196 -0.00331855
v -0.00062216 -0.04513181 -0.00332182
v 0.00016424 -0.04512815 -0.00332198
v 0.00066827 -0.04506730 -0.00332176
v 0.00069506 -0.04522893 -0.00500000
v -0.00128685 -0.04521337 -0.00500000
v -0.00029742 -0.04531124 -0.00500000
v -0.00129649 -0.04515928 -0.00411465
v 0.00284470 -0.04200776 -0.00332173
v 0.00282295 -0.04200353 -0.00321482
v 0.00280988 -0.04197963 -0.00313199
v 0.00280098 -0.04193165 -0.00304694
v 0.00279803 -0.04186329 -0.00297034
v 0.00280072 -0.04179500 -0.00291850
v 0.00280820 -0.04172287 -0.00288260
v 0.00066827 -0.04506730 -0.00332176
v 0.00101750 -0.04495984 -0.00332170
v 0.00137376 -0.04475051 -0.00332147
v 0.00170856 -0.04444949 -0.00332116
v 0.00203196 -0.04404526 -0.00332088
v 0.00240460 -0.04338163 -0.00332075
v 0.00266791 -0.04268142 -0.00332106
v 0.00064878 -0.04494831 -0.00290322
v 0.00060486 -0.04467374 -0.00242158
v 0.00053065 -0.04419984 -0.00190394
v 0.00043292 -0.04355303 -0.00143387
v 0.00032622 -0.04279506 -0.00108728
v 0.00022821 -0.04198833 -0.00086848
v 0.00135424 -0.04180647 -0.00122344
v 0.00206059 -0.04169289 -0.00165112
v 0.00246485 -0.04162758 -0.00205709
v 0.00269427 -0.04158955 -0.00244329
v 0.00277332 -0.04157591 -0.00264544
v 0.00283837 -0.04156431 -0.00285604
v 0.00281667 -0.04166859 -0.00286658
v 0.00282701 -0.04161576 -0.00285876
v 0.00264100 -0.04186872 -0.00248110
v 0.00262745 -0.04195815 -0.00250603
v 0.00211024 -0.04274397 -0.00209829
v 0.00232471 -0.04290287 -0.00254289
v 0.00215366 -0.04315027 -0.00243919
v 0.00166871 -0.04307723 -0.00183389
v 0.00193906 -0.04340521 -0.00232753
v 0.00221378 -0.04341131 -0.00278800
v 0.00178530 -0.04355754 -0.00225698
v 0.00183730 -0.04392713 -0.00266271
v 0.00149245 -0.04379071 -0.00214035
v 0.00087185 -0.04305474 -0.00135891
v 0.00117638 -0.04397393 -0.00203796
v 0.00112195 -0.04466579 -0.00271301
v 0.00096845 -0.04473553 -0.00269429
v 0.00097826 -0.04485180 -0.00291576
v 0.00301859 -0.04198085 -0.00500000
v 0.00259936 -0.04331608 -0.00500000
v 0.00203510 -0.04428855 -0.00500000
v 0.00150273 -0.04484039 -0.00500000
v 0.00117249 -0.04505855 -0.00500000
v 0.00094019 -0.04516022 -0.00500000
v 0.00069506 -0.04522893 -0.00500000
v 0.00284470 -0.04200776 -0.00332173
v 0.00066827 -0.04506730 -0.00332176
v 0.00101750 -0.04495984 -0.00332170
v 0.00137376 -0.04475051 -0.00332147
v 0.00170856 -0.04444949 -0.00332116
v 0.00203196 -0.04404526 -0.00332088
v 0.00240460 -0.04338163 -0.00332075
v 0.00266791 -0.04268142 -0.00332106
v -0.00132454 -0.04500196 -0.00331855
v -0.00181377 -0.04481636 -0.00331396
v -0.00237812 -0.04447384 -0.00330803
v -0.00297816 -0.04391854 -0.00330105
v -0.00128685 -0.04521337 -0.00500000
v -0.00129649 -0.04515928 -0.00411465
v -0.00295425 -0.04409645 -0.00500000
v -0.00247809 -0.04458299 -0.00500000
v -0.00192261 -0.04497397 -0.00500000
v -0.00161272 -0.04511468 -0.00500000
v -0.00297815 -0.04391855 -0.00330112
v -0.00343260 -0.04326571 -0.00298829
v -0.00337631 -0.04307437 -0.00228138
v -0.00316811 -0.04285834 -0.00162608
v -0.00299465 -0.04273640 -0.00132964
v -0.00275422 -0.04260510 -0.00107038
v -0.00251489 -0.04250357 -0.00091601
v -0.00226252 -0.04242025 -0.00082334
v -0.00202754 -0.04236050 -0.00077797
v -0.00177059 -0.04231146 -0.00075391
v -0.00415266 -0.04175683 -0.00296980
v -0.00471293 -0.03961656 -0.00295252
v -0.00492050 -0.03809673 -0.00294315
v -0.00210846 -0.03751893 0.00007367
v -0.00275884 -0.03758231 0.00000296
v -0.00317322 -0.03764026 -0.00014889
v -0.00356450 -0.03770630 -0.00041402
v -0.00387743 -0.03776847 -0.00074186
v -0.00424382 -0.03785583 -0.00129877
v -0.00458781 -0.03795975 -0.00203337
v -0.00201382 -0.03998341 -0.00026934
v -0.00320766 -0.03841654 -0.00026704
v -0.00282978 -0.03879259 -0.00017086
v -0.00301550 -0.03880962 -0.00023608
v -0.00390249 -0.03908856 -0.00101276
v -0.00452087 -0.03864917 -0.00205394
v -0.00462797 -0.03867359 -0.00232517
v -0.00387114 -0.03986524 -0.00115707
v -0.00473441 -0.03869771 -0.00261352
v -0.00252477 -0.04127558 -0.00057367
v -0.00275677 -0.04176692 -0.00077525
v -0.00271856 -0.04132989 -0.00063985
v -0.00288676 -0.04138344 -0.00072116
v -0.00415940 -0.04049304 -0.00188414
v -0.00371563 -0.04083988 -0.00125139
v -0.00296724 -0.04184965 -0.00090948
v -0.00357946 -0.04156958 -0.00137296
v -0.00374596 -0.04243200 -0.00236099
v -0.00304036 -0.03953636 -0.00036879
v -0.00304164 -0.03991009 -0.00044121
v -0.00298868 -0.04036163 -0.00051248
v -0.00330818 -0.04020447 -0.00066028
v -0.00296181 -0.04070479 -0.00057937
v -0.00132454 -0.04500196 -0.00331855
v -0.00062216 -0.04513181 -0.00332182
v 0.00016424 -0.04512815 -0.00332198
v 0.00066827 -0.04506730 -0.00332176
v -0.00177059 -0.04231146 -0.00075391
v -0.00165982 -0.04305563 -0.00099151
v -0.00156140 -0.04365995 -0.00134398
v -0.00148286 -0.04411609 -0.00175945
v -0.00141938 -0.04447237 -0.00220706
v -0.00136182 -0.04479097 -0.00275523
v -0.00133945 -0.04491686 -0.00305304
v 0.00022821 -0.04198833 -0.00086848
v 0.00064878 -0.04494831 -0.00290322
v 0.00060486 -0.04467374 -0.00242158
v 0.00053065 -0.04419984 -0.00190394
v 0.00043292 -0.04355303 -0.00143387
v 0.00032622 -0.04279506 -0.00108728
v -0.00028177 -0.04486202 -0.00257158
v 0.00022821 -0.04198833 -0.00086848
v 0.00135424 -0.04180647 -0.00122344
v 0.00206059 -0.04169289 -0.00165112
v 0.00246485 -0.04162758 -0.00205709
v 0.00269427 -0.04158955 -0.00244329
v 0.00277332 -0.04157591 -0.00264544
v 0.00283837 -0.04156431 -0.00285604
v 0.00006626 -0.03879829 -0.00027443
v 0.00016034 -0.03556687 0.00008886
v 0.00035010 -0.03231997 0.00025748
v 0.00218441 -0.03202221 -0.00018826
v 0.00351438 -0.03180148 -0.00087397
v 0.00425991 -0.03167254 -0.00150716
v 0.00462786 -0.03160458 -0.00200629
v 0.00475417 -0.03157937 -0.00226502
v 0.00484676 -0.03155985 -0.00251588
v 0.00397162 -0.03629419 -0.00267635
v 0.00403222 -0.03400461 -0.00178919
v 0.00313448 -0.03446733 -0.00098809
v 0.00191771 -0.03367415 -0.00021748
v 0.00293801 -0.03580138 -0.00107370
v 0.00203907 -0.03679158 -0.00066644
v 0.00185016 -0.04065636 -0.00126642
v 0.00169957 -0.04014440 -0.00107363
v 0.00265992 -0.03883934 -0.00148385
v 0.00130640 -0.04020672 -0.00088804
v 0.00367246 -0.03601878 -0.00188209
v 0.00338423 -0.03649218 -0.00164159
v 0.00268147 -0.03745373 -0.00119650
v 0.00351510 -0.03685077 -0.00192173
v 0.00222551 -0.03525500 -0.00053903
v 0.00178694 -0.03499525 -0.00030312
v 0.00172243 -0.03565567 -0.00035599
v 0.00183625 -0.03603286 -0.00045539
v 0.00194871 -0.03833955 -0.00087659
v 0.00291385 -0.04017570 -0.00220263
v 0.00147829 -0.03810801 -0.00060222
v 0.00156115 -0.03878545 -0.00075270
v -0.00179330 -0.03266648 0.00037589
v -0.00204046 -0.03513481 0.00027075
v -0.00210846 -0.03751893 0.00007367
v -0.00264099 -0.03280486 0.00027042
v -0.00304614 -0.03287142 0.00012296
v -0.00349370 -0.03294484 -0.00015930
v -0.00385548 -0.03300386 -0.00051808
v -0.00425930 -0.03306898 -0.00111599
v -0.00462959 -0.03312750 -0.00191026
v -0.00498199 -0.03318198 -0.00290357
v -0.00507240 -0.03568187 -0.00290884
v -0.00492050 -0.03809673 -0.00294315
v -0.00275884 -0.03758231 0.00000296
v -0.00317322 -0.03764026 -0.00014889
v -0.00356450 -0.03770630 -0.00041402
v -0.00387743 -0.03776847 -0.00074186
v -0.00424382 -0.03785583 -0.00129877
v -0.00458781 -0.03795975 -0.00203337
v -0.00288415 -0.03649441 0.00007682
v -0.00325789 -0.03695189 -0.00011508
v -0.00308386 -0.03654201 0.00000444
v -0.00354339 -0.03702203 -0.00030899
v -0.00334839 -0.03660912 -0.00013255
v -0.00420972 -0.03636403 -0.00098471
v -0.00280618 -0.03409277 0.00021493
v -0.00479040 -0.03692875 -0.00226856
v -0.00415996 -0.03548060 -0.00083710
v -0.00319853 -0.03375952 0.00006128
v -0.00303020 -0.03414392 0.00013778
v -0.00489993 -0.03699867 -0.00257920
v -0.00409036 -0.03468318 -0.00072269
v -0.00471227 -0.03433778 -0.00192037
v -0.00482967 -0.03437882 -0.00222739
v -0.00494296 -0.03442375 -0.00254976
v -0.00326131 -0.03575348 -0.00002040
v -0.00320610 -0.03530846 0.00002976
v -0.00315387 -0.03492520 0.00006853
v -0.00295425 -0.04409645 -0.00500000
v -0.00388425 -0.04266771 -0.00500000
v -0.00474567 -0.04052113 -0.00500000
v -0.00521043 -0.03825650 -0.00500000
v -0.00297816 -0.04391854 -0.00330105
v -0.00343260 -0.04326571 -0.00298829
v -0.00321843 -0.04357195 -0.00301636
v -0.00310946 -0.04371739 -0.00306475
v -0.00304527 -0.04380400 -0.00311748
v -0.00301137 -0.04385261 -0.00316375
v -0.00299067 -0.04388617 -0.00321183
v -0.00298079 -0.04390722 -0.00325975
v -0.00415266 -0.04175683 -0.00296980
v -0.00471293 -0.03961656 -0.00295252
v -0.00492050 -0.03809673 -0.00294315
v -0.00508531 -0.03818756 -0.00358542
v -0.00517971 -0.03823958 -0.00427879
v 0.00035010 -0.03231997 0.00025748
v 0.00218441 -0.03202221 -0.00018826
v 0.00351438 -0.03180148 -0.00087397
v 0.00425991 -0.03167254 -0.00150716
v 0.00462786 -0.03160458 -0.00200629
v 0.00475417 -0.03157937 -0.00226502
v 0.00484676 -0.03155985 -0.00251588
v 0.00157548 -0.02710571 0.00027129
v 0.00073956 -0.02947279 0.00028764
v 0.00045966 -0.03102160 0.00028149
v 0.00604937 -0.02794515 -0.00237634
v 0.00571885 -0.02790263 -0.00166676
v 0.00533242 -0.02784350 -0.00116778
v 0.00485622 -0.02776211 -0.00076450
v 0.00426901 -0.02765438 -0.00042307
v 0.00334439 -0.02747450 -0.00007317
v 0.00247845 -0.02729770 0.00013039
v 0.00527364 -0.02982105 -0.00245187
v 0.00525537 -0.02871656 -0.00156476
v 0.00438838 -0.02982986 -0.00112176
v 0.00398696 -0.02982754 -0.00081797
v 0.00368021 -0.02982492 -0.00062892
v 0.00261339 -0.02838184 0.00000658
v 0.00219280 -0.03091489 -0.00010925
v 0.00139821 -0.03096299 0.00011699
v -0.00177059 -0.04231146 -0.00075391
v 0.00022821 -0.04198833 -0.00086848
v -0.00210846 -0.03751893 0.00007367
v -0.00201382 -0.03998341 -0.00026934
v -0.00179330 -0.03266648 0.00037589
v -0.00204046 -0.03513481 0.00027075
v 0.00035010 -0.03231997 0.00025748
v 0.00006626 -0.03879829 -0.00027443
v 0.00016034 -0.03556687 0.00008886
v -0.00179330 -0.03266648 0.00037589
v -0.00113185 -0.02939992 0.00041022
v -0.00010595 -0.02628813 0.00038438
v -0.00270190 -0.02500130 -0.00294315
v -0.00213686 -0.02516212 -0.00170571
v -0.00129736 -0.02552753 -0.00044792
v -0.00085734 -0.02575739 0.00000638
v -0.00054585 -0.02594389 0.00024094
v -0.00034236 -0.02608730 0.00034137
v -0.00021190 -0.02619369 0.00037543
v -0.00384487 -0.02760823 -0.00293721
v -0.00459095 -0.03037565 -0.00291917
v -0.00498199 -0.03318198 -0.00290357
v -0.00264099 -0.03280486 0.00027042
v -0.00304614 -0.03287142 0.00012296
v -0.00349370 -0.03294484 -0.00015930
v -0.00385548 -0.03300386 -0.00051808
v -0.00425930 -0.03306898 -0.00111599
v -0.00462959 -0.03312750 -0.00191026
v -0.00261894 -0.03155912 0.00025149
v -0.00211976 -0.03094196 0.00036061
v -0.00292736 -0.03159130 0.00011466
v -0.00236579 -0.03093397 0.00029790
v -0.00258921 -0.03094127 0.00021433
v -0.00360308 -0.03080930 -0.00068236
v -0.00445685 -0.03175748 -0.00190851
v -0.00458097 -0.03176798 -0.00222237
v -0.00470255 -0.03177855 -0.00255203
v -0.00129184 -0.02748362 0.00021091
v -0.00369061 -0.02901481 -0.00165107
v -0.00337055 -0.02971143 -0.00079683
v -0.00295235 -0.02842212 -0.00083388
v -0.00115747 -0.02691266 0.00014953
v -0.00243201 -0.02740758 -0.00070387
v -0.00281648 -0.02638609 -0.00184188
v -0.00311145 -0.02631836 -0.00243594
v -0.00239136 -0.02992123 0.00016487
v -0.00227018 -0.02942115 0.00013290
v -0.00206210 -0.02883456 0.00011950
v -0.00252426 -0.02910442 -0.00012377
v -0.00180673 -0.02836811 0.00015129
v -0.00424828 -0.02967448 -0.00243983
v -0.00521043 -0.03825650 -0.00500000
v -0.00533427 -0.03472796 -0.00500000
v -0.00503058 -0.03122548 -0.00500000
v -0.00428620 -0.02796423 -0.00500000
v -0.00372559 -0.02643689 -0.00500000
v -0.00303138 -0.02496600 -0.00500000
v -0.00492050 -0.03809673 -0.00294315
v -0.00508531 -0.03818756 -0.00358542
v -0.00517971 -0.03823958 -0.00427879
v -0.00498199 -0.03318198 -0.00290357
v -0.00507240 -0.03568187 -0.00290884
v -0.00270190 -0.02500130 -0.00294315
v -0.00384487 -0.02760823 -0.00293721
v -0.00459095 -0.03037565 -0.00291917
v -0.00295223 -0.02497448 -0.00392701
v -0.00522614 -0.03720452 -0.00392008
v 0.00157548 -0.02710571 0.00027129
v 0.00073956 -0.02947279 0.00028764
v 0.00045966 -0.03102160 0.00028149
v 0.00035010 -0.03231997 0.00025748
v 0.00082873 -0.02688849 0.00035679
v 0.00036452 -0.02664769 0.00038453
v -0.00010595 -0.02628813 0.00038438
v -0.00179330 -0.03266648 0.00037589
v -0.00113185 -0.02939992 0.00041022
v -0.00270190 -0.02500130 -0.00294315
v -0.00213686 -0.02516212 -0.00170571
v -0.00129736 -0.02552753 -0.00044792
v -0.00085734 -0.02575739 0.00000638
v -0.00054585 -0.02594389 0.00024094
v -0.00034236 -0.02608730 0.00034137
v -0.00021190 -0.02619369 0.00037543
v -0.00010595 -0.02628813 0.00038438
v -0.00217940 -0.02393733 -0.00294332
v -0.00178546 -0.02261655 -0.00294344
v -0.00107782 -0.02282240 -0.00125603
v -0.00052582 -0.02298511 -0.00041487
v -0.00004330 -0.02312711 0.00004146
v 0.00028833 -0.02322503 0.00023410
v 0.00044229 -0.02327079 0.00028895
v 0.00058063 -0.02331226 0.00031447
v 0.00026130 -0.02501984 0.00036580
v -0.00006954 -0.02397554 0.00016152
v -0.00015323 -0.02568832 0.00035103
v -0.00027846 -0.02559304 0.00030055
v -0.00157806 -0.02427625 -0.00146478
v -0.00226118 -0.02459730 -0.00244276
v -0.00085937 -0.02417078 -0.00049770
v -0.00097241 -0.02489483 -0.00038155
v -0.00235993 -0.01836009 -0.00294315
v -0.00184312 -0.01990785 -0.00294347
v -0.00167783 -0.02122329 -0.00294352
v -0.00178546 -0.02261655 -0.00294344
v -0.00270190 -0.02500130 -0.00294315
v -0.00217940 -0.02393733 -0.00294332
v -0.00303138 -0.02496600 -0.00500000
v -0.00295223 -0.02497448 -0.00392701
v -0.00259303 -0.01859821 -0.00500000
v -0.00210161 -0.02020664 -0.00500000
v -0.00201486 -0.02178755 -0.00500000
v -0.00228751 -0.02327789 -0.00500000
v -0.00263840 -0.02418976 -0.00500000
v -0.00249244 -0.01849546 -0.00358542
v -0.00256834 -0.01857299 -0.00427879
v -0.00178546 -0.02261655 -0.00294344
v -0.00107782 -0.02282240 -0.00125603
v -0.00052582 -0.02298511 -0.00041487
v -0.00004330 -0.02312711 0.00004146
v 0.00028833 -0.02322503 0.00023410
v 0.00044229 -0.02327079 0.00028895
v 0.00058063 -0.02331226 0.00031447
v -0.00235993 -0.01836009 -0.00294315
v -0.00184312 -0.01990785 -0.00294347
v -0.00167783 -0.02122329 -0.00294352
v 0.00079696 -0.01660540 0.00017395
v 0.00006678 -0.01687275 -0.00007551
v -0.00066949 -0.01720693 -0.00052362
v -0.00132160 -0.01756725 -0.00111076
v -0.00183719 -0.01791205 -0.00176837
v -0.00214590 -0.01815878 -0.00233469
v 0.00080596 -0.02026297 0.00022592
v 0.00052258 -0.01815673 0.00009588
v 0.00017560 -0.01823462 -0.00005069
v -0.00017357 -0.01832449 -0.00025573
v -0.00099694 -0.01897927 -0.00105745
v 0.00039289 -0.02214063 0.00018607
v -0.00173446 -0.01878769 -0.00204759
v -0.00087627 -0.01998047 -0.00101652
v 0.00014966 -0.02205807 0.00005323
v -0.00018075 -0.02195064 -0.00019748
v -0.00088175 -0.02112512 -0.00108878
v 0.00036939 -0.01915924 0.00005232
v -0.00005551 -0.02007882 -0.00017427
f 12 18 17
f 12 13 18
f 19 15 14
f 19 16 15
f 20 19 14
f 21 19 20
f 22 17 16
f 22 12 17
f 22 19 21
f 22 16 19
f 23 21 20
f 23 20 24
f 25 3 2
f 25 24 20
f 26 12 22
f 26 21 23
f 26 22 21
f 27 28 29
f 30 2 1
f 31 1 4
f 31 4 5
f 31 30 1
f 32 7 8
f 32 8 9
f 32 9 10
f 33 14 3
f 33 20 14
f 33 3 25
f 33 25 20
f 34 23 24
f 34 26 23
f 35 25 2
f 35 29 25
f 35 27 29
f 36 11 12
f 36 12 26
f 36 34 37
f 36 26 34
f 36 37 11
f 38 24 25
f 38 34 24
f 38 25 29
f 38 37 34
f 39 35 2
f 39 2 30
f 39 40 27
f 39 30 40
f 39 27 35
f 41 11 37
f 41 37 38
f 42 10 11
f 42 38 29
f 42 41 38
f 42 29 28
f 42 11 41
f 43 10 42
f 43 42 28
f 43 28 27
f 44 43 27
f 44 27 40
f 45 43 44
f 45 10 43
f 46 44 40
f 46 45 44
f 46 10 45
f 46 32 10
f 46 40 32
f 47 5 6
f 47 6 7
f 47 7 32
f 47 31 5
f 47 40 30
f 47 30 31
f 47 32 40
f 50 48 49
f 50 60 48
f 51 61 60
f 51 60 50
f 57 58 59
f 52 62 61
f 52 61 51
f 65 52 53
f 65 53 54
f 65 63 62
f 65 64 63
f 65 62 52
f 66 54 55
f 66 64 65
f 66 65 54
f 67 55 56
f 67 56 57
f 67 59 64
f 67 66 55
f 67 64 66
f 67 57 59
f 78 75 74
f 73 77 78
f 73 78 74
f 72 69 76
f 72 76 77
f 72 77 73
f 79 68 69
f 79 70 68
f 79 71 70
f 79 72 71
f 79 69 72
f 90 81 80
f 90 82 81
f 90 83 82
f 90 84 83
f 90 85 84
f 90 86 85
f 90 91 86
f 92 80 87
f 92 87 88
f 92 88 89
f 92 89 90
f 92 90 80
f 112 96 95
f 112 97 96
f 113 98 97
f 113 99 98
f 114 112 115
f 114 97 112
f 114 113 97
f 116 94 93
f 116 95 94
f 116 93 111
f 116 115 112
f 116 112 95
f 117 113 114
f 118 117 114
f 119 114 115
f 119 118 114
f 120 100 99
f 120 102 100
f 120 113 117
f 120 99 113
f 121 115 116
f 121 116 111
f 121 119 115
f 122 124 123
f 125 101 102
f 126 103 101
f 126 104 103
f 126 101 125
f 127 107 106
f 127 108 107
f 127 109 108
f 128 102 120
f 128 120 124
f 128 124 122
f 129 118 119
f 129 117 118
f 130 111 110
f 130 121 111
f 130 129 119
f 130 110 129
f 130 119 121
f 131 117 129
f 131 120 117
f 131 124 120
f 132 102 128
f 132 125 102
f 132 122 133
f 132 133 125
f 132 128 122
f 134 129 110
f 134 131 129
f 135 131 134
f 135 110 109
f 135 123 124
f 135 134 110
f 135 124 131
f 136 123 135
f 136 122 123
f 136 135 109
f 137 122 136
f 137 133 122
f 138 137 136
f 138 136 109
f 139 133 137
f 139 137 138
f 139 138 109
f 139 109 127
f 139 127 133
f 140 105 104
f 140 106 105
f 140 127 106
f 140 104 126
f 140 125 133
f 140 126 125
f 140 133 127
f 148 147 146
f 149 146 145
f 149 148 146
f 150 145 144
f 150 149 145
f 156 141 157
f 151 144 143
f 151 150 144
f 152 151 143
f 158 142 141
f 158 143 142
f 158 153 152
f 158 154 153
f 158 152 143
f 159 155 154
f 159 156 155
f 159 154 158
f 159 158 141
f 159 141 156
f 161 171 160
f 170 161 162
f 170 171 161
f 163 170 162
f 169 163 164
f 169 164 165
f 169 170 163
f 172 165 166
f 172 166 167
f 172 167 168
f 172 168 169
f 172 169 165
f 185 174 173
f 185 175 174
f 185 176 175
f 185 177 176
f 185 178 177
f 185 179 178
f 185 180 179
f 185 181 180
f 186 182 181
f 186 183 182
f 186 184 183
f 186 185 184
f 186 181 185
f 195 193 192
f 196 194 195
f 197 192 191
f 197 195 192
f 197 196 195
f 198 197 191
f 189 191 190
f 189 198 191
f 188 198 189
f 187 188 189
f 202 212 203
f 202 213 212
f 208 202 201
f 208 207 211
f 208 211 213
f 208 213 202
f 205 210 204
f 206 210 205
f 214 201 200
f 214 209 208
f 214 208 201
f 214 200 209
f 215 200 199
f 215 199 204
f 215 210 209
f 215 209 200
f 215 204 210
f 223 217 216
f 223 218 217
f 223 219 218
f 228 222 223
f 228 216 227
f 228 223 216
f 225 224 230
f 226 225 230
f 231 221 222
f 231 228 229
f 231 222 228
f 231 229 221
f 232 220 221
f 232 224 220
f 232 229 230
f 232 221 229
f 232 230 224
f 238 239 233
f 236 238 235
f 237 238 236
f 240 233 234
f 240 234 235
f 240 238 233
f 240 235 238
f 242 265 241
f 253 252 259
f 249 246 247
f 249 247 248
f 251 258 250
f 266 242 243
f 266 263 264
f 266 264 265
f 266 265 242
f 267 262 263
f 267 263 266
f 268 243 244
f 268 267 266
f 268 266 243
f 269 261 262
f 269 262 267
f 269 267 268
f 270 259 260
f 270 260 261
f 270 253 259
f 270 261 269
f 271 244 245
f 271 245 246
f 271 268 244
f 271 269 268
f 271 270 269
f 272 254 253
f 272 270 271
f 272 253 270
f 273 254 272
f 273 272 271
f 274 249 250
f 274 273 271
f 274 246 249
f 274 271 246
f 275 255 254
f 275 256 255
f 275 257 256
f 275 258 257
f 275 254 273
f 275 274 250
f 275 273 274
f 275 250 258
f 282 280 281
f 283 279 280
f 283 280 282
f 277 278 279
f 277 279 283
f 276 277 283
f 311 287 286
f 300 289 288
f 300 290 289
f 312 285 284
f 312 286 285
f 312 309 310
f 312 310 311
f 312 311 286
f 313 293 292
f 313 284 293
f 313 312 284
f 314 308 309
f 314 312 313
f 314 309 312
f 315 292 291
f 315 313 292
f 315 314 313
f 316 314 315
f 317 307 308
f 317 308 314
f 318 314 316
f 319 291 290
f 319 299 298
f 319 300 299
f 319 316 315
f 319 290 300
f 319 318 316
f 319 315 291
f 320 314 318
f 320 317 314
f 321 298 297
f 321 320 318
f 321 318 319
f 321 319 298
f 322 320 321
f 322 317 320
f 323 303 304
f 323 304 305
f 323 305 306
f 323 306 307
f 323 307 317
f 324 317 322
f 324 303 323
f 324 323 317
f 325 297 296
f 325 321 297
f 325 322 321
f 325 324 322
f 326 301 302
f 326 302 303
f 326 303 324
f 326 324 325
f 327 295 294
f 327 296 295
f 327 294 301
f 327 325 296
f 327 301 326
f 327 326 325
f 330 342 337
f 331 341 342
f 331 342 330
f 332 340 341
f 332 341 331
f 333 339 340
f 333 340 332
f 334 338 339
f 334 339 333
f 335 338 334
f 336 329 338
f 336 338 335
f 328 329 336
f 349 352 351
f 349 348 352
f 346 345 349
f 346 351 350
f 346 349 351
f 347 350 343
f 347 346 350
f 344 347 343
f 373 368 367
f 373 369 368
f 373 370 369
f 374 353 354
f 374 367 353
f 374 373 367
f 375 373 374
f 376 371 370
f 376 373 375
f 376 370 373
f 377 372 371
f 377 371 376
f 378 372 377
f 379 377 376
f 380 365 366
f 380 366 372
f 380 378 365
f 380 372 378
f 381 354 355
f 381 355 363
f 382 361 360
f 382 362 361
f 382 363 362
f 382 381 363
f 382 383 381
f 382 384 383
f 385 364 365
f 385 365 378
f 385 377 379
f 385 378 377
f 385 379 386
f 387 359 358
f 387 360 359
f 387 382 360
f 387 384 382
f 388 387 358
f 388 385 386
f 388 384 387
f 389 357 356
f 389 358 357
f 389 356 364
f 389 364 385
f 389 388 358
f 389 385 388
f 390 379 376
f 390 374 354
f 390 376 375
f 390 375 374
f 391 390 354
f 392 391 354
f 393 379 390
f 393 386 379
f 393 390 391
f 393 391 392
f 394 354 381
f 394 381 383
f 394 383 384
f 394 388 386
f 394 384 388
f 394 392 354
f 394 386 393
f 394 393 392
f 406 401 400
f 406 405 401
f 407 400 399
f 407 406 400
f 408 399 398
f 408 407 399
f 404 396 395
f 402 411 403
f 412 397 396
f 412 398 397
f 412 404 403
f 412 409 408
f 412 410 409
f 412 411 410
f 412 408 398
f 412 396 404
f 412 403 411
f 430 413 414
f 430 426 427
f 430 427 428
f 430 428 429
f 430 429 413
f 431 426 430
f 432 423 424
f 432 424 425
f 432 425 426
f 432 426 431
f 433 431 430
f 434 422 423
f 435 418 417
f 435 419 418
f 435 436 437
f 438 417 416
f 438 416 422
f 438 435 417
f 438 436 435
f 439 430 414
f 439 433 430
f 440 441 434
f 440 434 433
f 440 433 439
f 442 437 441
f 442 441 440
f 442 439 414
f 442 440 439
f 443 431 433
f 444 423 432
f 444 432 431
f 444 431 443
f 445 423 444
f 445 444 443
f 446 434 423
f 446 433 434
f 446 423 445
f 446 443 433
f 446 445 443
f 447 441 437
f 448 414 415
f 448 420 419
f 448 421 420
f 448 415 421
f 448 419 435
f 448 435 437
f 448 437 442
f 448 442 414
f 449 422 434
f 449 434 441
f 449 441 447
f 450 438 422
f 450 437 436
f 450 447 437
f 450 436 438
f 450 422 449
f 450 449 447
f 453 455 454
f 460 457 456
f 460 458 457
f 460 459 458
f 461 456 455
f 461 460 456
f 451 455 453
f 451 461 455
f 452 461 451
f 475 473 474
f 470 477 469
f 471 476 477
f 471 477 470
f 468 472 473
f 468 475 476
f 468 452 472
f 468 476 471
f 468 473 475
f 478 463 461
f 478 468 467
f 478 461 452
f 478 452 468
f 479 478 467
f 479 463 478
f 480 462 463
f 480 465 466
f 480 466 462
f 480 463 479
f 481 464 465
f 481 467 464
f 481 479 467
f 481 480 479
f 481 465 480
f 500 492 493
f 500 499 492
f 501 493 494
f 501 494 495
f 501 500 493
f 502 500 501
f 503 495 496
f 503 496 497
f 503 501 495
f 504 501 503
f 504 502 501
f 505 504 503
f 505 503 497
f 506 483 482
f 506 482 499
f 507 497 498
f 507 505 497
f 507 490 508
f 507 508 505
f 509 484 483
f 509 485 484
f 509 486 485
f 509 483 506
f 509 506 510
f 511 491 490
f 511 498 491
f 511 490 507
f 511 507 498
f 512 487 486
f 512 486 509
f 512 509 510
f 513 488 487
f 513 508 490
f 513 487 512
f 513 512 508
f 514 488 513
f 514 513 490
f 515 489 488
f 515 490 489
f 515 488 514
f 515 514 490
f 516 504 505
f 516 499 500
f 516 500 502
f 516 502 504
f 516 505 508
f 517 499 516
f 517 516 508
f 518 506 499
f 518 510 506
f 518 508 512
f 518 512 510
f 518 499 517
f 518 517 508
f 527 525 526
f 520 524 525
f 520 525 527
f 523 524 520
f 522 523 520
f 521 522 520
f 519 521 520
f 534 528 521
f 534 521 519
f 535 529 528
f 535 528 534
f 531 530 529
f 532 529 535
f 532 531 529
f 533 532 535
f 544 537 538
f 543 537 544
f 554 536 537
f 554 548 536
f 554 549 548
f 554 550 549
f 555 542 541
f 555 543 542
f 555 537 543
f 555 554 537
f 555 550 554
f 556 551 550
f 556 550 555
f 556 555 541
f 557 556 541
f 557 551 556
f 558 546 545
f 558 552 551
f 558 553 552
f 558 545 553
f 558 551 557
f 559 541 540
f 559 558 557
f 559 557 541
f 559 546 558
f 560 540 539
f 560 547 546
f 560 539 547
f 560 559 540
f 560 546 559
f 569 564 563
f 569 568 564
f 566 563 562
f 566 569 563
f 567 566 562
f 561 567 562
f 565 567 561
f 589 581 582
f 589 582 583
f 590 588 581
f 590 581 589
f 591 583 584
f 591 584 585
f 591 589 583
f 592 590 589
f 593 589 591
f 593 592 589
f 594 591 585
f 594 593 591
f 595 585 586
f 595 586 587
f 595 594 585
f 596 595 587
f 597 580 579
f 597 587 580
f 597 579 596
f 597 596 587
f 598 577 588
f 599 601 600
f 599 578 601
f 602 572 573
f 602 573 574
f 602 574 575
f 602 575 576
f 602 576 577
f 602 577 598
f 603 572 602
f 603 602 598
f 604 571 572
f 604 601 578
f 604 572 603
f 604 603 601
f 605 570 571
f 605 578 570
f 605 571 604
f 605 604 578
f 606 588 590
f 606 593 594
f 606 592 593
f 606 590 592
f 606 594 600
f 607 606 600
f 607 588 606
f 608 588 607
f 609 600 601
f 609 607 600
f 609 601 608
f 609 608 607
f 610 598 588
f 610 588 608
f 610 601 603
f 610 603 598
f 610 608 601
f 611 579 578
f 611 595 596
f 611 594 595
f 611 596 579
f 611 600 594
f 611 578 599
f 611 599 600
f 626 621 622
f 619 622 618
f 619 625 626
f 619 626 622
f 620 624 625
f 620 625 619
f 616 623 624
f 616 624 620
f 617 623 616
f 627 612 613
f 627 613 614
f 627 614 615
f 627 617 612
f 627 615 623
f 627 623 617
f 632 636 634
f 633 635 636
f 633 636 632
f 629 628 635
f 630 635 633
f 630 629 635
f 631 630 633
f 638 653 639
f 654 650 651
f 654 651 652
f 654 652 653
f 654 653 638
f 655 638 637
f 655 646 645
f 655 637 646
f 656 644 643
f 656 645 644
f 656 655 645
f 656 638 655
f 656 654 638
f 657 642 641
f 657 647 648
f 657 648 649
f 658 641 640
f 658 640 647
f 658 647 657
f 658 657 641
f 659 649 650
f 659 657 649
f 659 650 654
f 660 643 642
f 660 656 643
f 660 642 657
f 660 659 654
f 660 657 659
f 660 654 656
f 671 670 675
f 669 668 671
f 669 675 674
f 669 671 675
f 667 674 673
f 667 669 674
f 666 673 672
f 666 667 673
f 665 666 672
f 663 672 664
f 663 665 672
f 662 665 663
f 661 665 662
f 679 687 680
f 693 676 677
f 693 688 676
f 694 688 693
f 695 689 688
f 695 688 694
f 696 690 689
f 696 689 695
f 697 677 678
f 697 684 683
f 697 678 684
f 698 686 685
f 698 691 690
f 698 692 691
f 698 685 692
f 698 690 696
f 699 686 698
f 699 698 696
f 700 683 682
f 700 697 683
f 701 681 680
f 701 682 681
f 701 700 682
f 702 687 686
f 702 701 680
f 702 686 699
f 702 680 687
f 703 695 694
f 703 694 693
f 703 693 677
f 704 696 695
f 704 695 703
f 704 677 697
f 704 699 696
f 704 697 700
f 704 700 701
f 704 701 702
f 704 702 699
f 704 703 677
f 710 705 711
f 708 707 710
f 709 708 710
f 712 706 705
f 712 707 706
f 712 705 710
f 712 710 707
f 732 731 730
f 714 713 737
f 718 724 717
f 723 715 722
f 716 715 723
f 738 729 728
f 738 730 729
f 738 733 732
f 738 732 730
f 739 728 727
f 739 738 728
f 740 734 733
f 740 738 739
f 740 733 738
f 741 727 726
f 741 739 727
f 741 734 740
f 741 740 739
f 742 725 724
f 742 726 725
f 742 724 718
f 742 741 726
f 743 718 719
f 743 741 742
f 743 734 741
f 743 742 718
f 744 735 734
f 744 736 735
f 744 734 743
f 745 715 714
f 745 737 736
f 745 714 737
f 745 736 744
f 746 719 720
f 746 720 721
f 746 721 722
f 746 743 719
f 746 744 743
f 746 715 745
f 746 745 744
f 746 722 715
f 751 750 749
f 753 749 748
f 753 751 749
f 754 748 747
f 754 753 748
f 752 753 754
f 779 782 780
f 781 782 779
f 768 755 756
f 768 756 757
f 783 778 777
f 783 779 778
f 783 781 779
f 784 759 760
f 784 760 761
f 784 761 781
f 784 783 777
f 784 781 783
f 785 777 776
f 785 784 777
f 786 757 758
f 786 758 759
f 786 784 785
f 786 759 784
f 787 786 785
f 788 776 775
f 788 785 776
f 789 787 785
f 790 766 767
f 790 767 768
f 790 786 787
f 790 768 757
f 790 787 789
f 790 757 786
f 791 789 785
f 791 785 788
f 792 765 766
f 792 789 791
f 792 790 789
f 792 766 790
f 793 792 791
f 793 791 788
f 794 772 771
f 794 773 772
f 794 774 773
f 794 775 774
f 794 788 775
f 795 793 788
f 795 794 771
f 795 788 794
f 796 764 765
f 796 765 792
f 796 792 793
f 796 793 795
f 797 770 769
f 797 771 770
f 797 795 771
f 797 796 795
f 798 762 763
f 798 763 764
f 798 769 762
f 798 797 769
f 798 764 796
f 798 796 797
f 807 805 804
f 808 804 803
f 808 807 804
f 809 803 802
f 809 808 803
f 810 802 801
f 810 809 802
f 811 801 800
f 811 810 801
f 812 811 800
f 813 800 799
f 813 812 800
f 806 813 799
f 819 822 823
f 819 823 818
f 815 819 814
f 815 822 819
f 816 821 822
f 816 822 815
f 824 816 817
f 824 820 821
f 824 817 820
f 824 821 816
f 845 838 839
f 845 839 840
f 845 840 841
f 846 837 838
f 846 844 837
f 846 838 845
f 847 846 845
f 848 841 842
f 848 847 845
f 848 845 841
f 849 842 843
f 849 848 842
f 850 849 843
f 851 848 849
f 852 836 835
f 852 843 836
f 852 850 843
f 852 835 850
f 853 832 833
f 853 833 844
f 854 829 830
f 854 830 831
f 854 831 832
f 854 832 853
f 854 853 855
f 854 855 856
f 857 835 834
f 857 850 835
f 857 851 849
f 857 849 850
f 857 858 851
f 859 827 828
f 859 828 829
f 859 829 854
f 859 854 856
f 860 827 859
f 860 858 857
f 860 859 856
f 861 825 826
f 861 826 827
f 861 834 825
f 861 857 834
f 861 827 860
f 861 860 857
f 862 848 851
f 862 844 846
f 862 847 848
f 862 846 847
f 863 844 862
f 864 844 863
f 865 862 851
f 865 851 858
f 865 863 862
f 865 864 863
f 866 853 844
f 866 855 853
f 866 856 855
f 866 858 860
f 866 860 856
f 866 844 864
f 866 865 858
f 866 864 865
f 872 878 871
f 872 883 878
f 873 882 883
f 873 883 872
f 874 881 882
f 874 882 873
f 869 870 879
f 867 868 877
f 884 868 869
f 884 874 875
f 884 875 876
f 884 876 877
f 884 879 880
f 884 880 881
f 884 881 874
f 884 869 879
f 884 877 868
f 902 897 896
f 902 898 897
f 902 899 898
f 902 900 899
f 902 901 900
f 903 902 896
f 904 894 893
f 904 895 894
f 904 896 895
f 904 903 896
f 905 902 903
f 906 893 892
f 907 886 887
f 907 887 888
f 907 909 908
f 910 885 886
f 910 892 885
f 910 886 907
f 910 907 908
f 911 901 902
f 911 902 905
f 912 905 906
f 912 906 913
f 912 911 905
f 914 913 909
f 914 912 913
f 914 901 911
f 914 911 912
f 915 905 903
f 916 904 893
f 916 903 904
f 916 915 903
f 917 916 893
f 917 915 916
f 918 893 906
f 918 906 905
f 918 917 893
f 918 905 915
f 918 915 917
f 919 909 913
f 920 888 889
f 920 889 890
f 920 890 891
f 920 891 901
f 920 914 909
f 920 907 888
f 920 909 907
f 920 901 914
f 921 906 892
f 921 913 906
f 921 919 913
f 922 892 910
f 922 908 909
f 922 909 919
f 922 910 908
f 922 921 892
f 922 919 921
f 941 925 924
f 941 935 925
f 942 936 935
f 942 937 936
f 942 935 941
f 943 942 941
f 944 938 937
f 944 939 938
f 944 937 942
f 945 944 942
f 945 942 943
f 946 944 945
f 946 939 944
f 947 924 923
f 947 923 926
f 948 940 939
f 948 939 946
f 948 949 933
f 948 946 949
f 950 926 927
f 950 927 928
f 950 928 929
f 950 951 947
f 950 947 926
f 952 933 934
f 952 934 940
f 952 948 933
f 952 940 948
f 953 929 930
f 953 950 929
f 953 951 950
f 954 930 931
f 954 933 949
f 954 953 930
f 954 949 953
f 955 954 931
f 955 933 954
f 956 931 932
f 956 932 933
f 956 955 931
f 956 933 955
f 957 946 945
f 957 943 941
f 957 945 943
f 957 941 924
f 957 949 946
f 958 957 924
f 958 949 957
f 959 924 947
f 959 947 951
f 959 953 949
f 959 951 953
f 959 958 924
f 959 949 958
f 971 970 969
f 964 969 968
f 964 971 969
f 967 964 968
f 966 964 967
f 965 964 966
f 960 964 965
f 961 965 972
f 961 960 965
f 962 972 973
f 962 961 972
f 975 973 974
f 976 962 973
f 976 973 975
f 963 962 976
f 982 983 994
f 981 982 994
f 995 987 988
f 995 988 989
f 995 989 990
f 995 994 987
f 996 979 980
f 996 980 981
f 996 994 995
f 996 981 994
f 996 995 990
f 997 990 991
f 997 996 990
f 997 979 996
f 998 979 997
f 998 997 991
f 999 984 985
f 999 991 992
f 999 992 993
f 999 993 984
f 999 998 991
f 1000 978 979
f 1000 998 999
f 1000 979 998
f 1000 999 985
f 1001 977 978
f 1001 985 986
f 1001 986 977
f 1001 978 1000
f 1001 1000 985
f 1007 1008 1006
f 1007 1010 1008
f 1004 1009 1010
f 1004 1010 1007
f 1005 1009 1004
f 1003 1009 1005
f 1002 1003 1005
f 1030 1024 1011
f 1030 1025 1024
f 1031 1011 1012
f 1031 1030 1011
f 1032 1026 1025
f 1032 1027 1026
f 1032 1025 1030
f 1033 1030 1031
f 1034 1032 1030
f 1034 1030 1033
f 1035 1027 1032
f 1035 1032 1034
f 1036 1028 1027
f 1036 1029 1028
f 1036 1027 1035
f 1037 1029 1036
f 1038 1022 1023
f 1038 1023 1029
f 1038 1037 1022
f 1038 1029 1037
f 1039 1012 1013
f 1040 1041 1042
f 1040 1042 1021
f 1043 1017 1016
f 1043 1018 1017
f 1043 1019 1018
f 1043 1020 1019
f 1043 1013 1020
f 1043 1039 1013
f 1044 1043 1016
f 1044 1039 1043
f 1045 1016 1015
f 1045 1021 1042
f 1045 1044 1016
f 1045 1042 1044
f 1046 1015 1014
f 1046 1014 1021
f 1046 1045 1015
f 1046 1021 1045
f 1047 1035 1034
f 1047 1031 1012
f 1047 1034 1033
f 1047 1033 1031
f 1047 1041 1035
f 1048 1047 1012
f 1048 1041 1047
f 1049 1048 1012
f 1050 1042 1041
f 1050 1041 1048
f 1050 1049 1042
f 1050 1048 1049
f 1051 1012 1039
f 1051 1049 1012
f 1051 1044 1042
f 1051 1039 1044
f 1051 1042 1049
f 1052 1021 1022
f 1052 1037 1036
f 1052 1036 1035
f 1052 1022 1037
f 1052 1035 1041
f 1052 1040 1021
f 1052 1041 1040
f 1057 1067 1058
f 1065 1057 1056
f 1065 1064 1067
f 1065 1067 1057
f 1066 1056 1055
f 1066 1065 1056
f 1062 1055 1054
f 1062 1066 1055
f 1063 1062 1054
f 1068 1054 1053
f 1068 1060 1059
f 1068 1061 1060
f 1068 1053 1061
f 1068 1059 1063
f 1068 1063 1054
f 1076 1072 1071
f 1077 1071 1070
f 1077 1076 1071
f 1073 1070 1069
f 1074 1077 1070
f 1074 1070 1073
f 1075 1077 1074
f 1094 1093 1092
f 1095 1090 1089
f 1095 1091 1090
f 1095 1092 1091
f 1095 1094 1092
f 1096 1083 1084
f 1096 1084 1085
f 1096 1085 1094
f 1097 1081 1082
f 1097 1082 1083
f 1097 1096 1094
f 1097 1083 1096
f 1097 1094 1095
f 1098 1079 1080
f 1098 1087 1086
f 1098 1088 1087
f 1099 1078 1079
f 1099 1086 1078
f 1099 1098 1086
f 1099 1079 1098
f 1100 1089 1088
f 1100 1088 1098
f 1100 1095 1089
f 1101 1080 1081
f 1101 1081 1097
f 1101 1098 1080
f 1101 1095 1100
f 1101 1100 1098
f 1101 1097 1095
f 1109 1114 1108
f 1107 1109 1106
f 1107 1113 1114
f 1107 1114 1109
f 1105 1112 1113
f 1105 1113 1107
f 1104 1111 1112
f 1104 1112 1105
f 1103 1111 1104
f 1116 1110 1111
f 1116 1111 1103
f 1115 1116 1103
f 1102 1115 1103
f 1117 1118 1126
f 1134 1127 1128
f 1134 1133 1127
f 1135 1134 1128
f 1136 1128 1129
f 1136 1135 1128
f 1137 1129 1130
f 1137 1136 1129
f 1138 1121 1122
f 1138 1122 1123
f 1138 1123 1133
f 1139 1124 1125
f 1139 1130 1131
f 1139 1131 1132
f 1139 1132 1124
f 1139 1137 1130
f 1140 1139 1125
f 1140 1137 1139
f 1141 1120 1121
f 1141 1121 1138
f 1142 1118 1119
f 1142 1119 1120
f 1142 1120 1141
f 1143 1125 1126
f 1143 1118 1142
f 1143 1140 1125
f 1143 1126 1118
f 1144 1135 1136
f 1144 1134 1135
f 1144 1133 1134
f 1145 1144 1136
f 1145 1136 1137
f 1145 1138 1133
f 1145 1137 1140
f 1145 1141 1138
f 1145 1142 1141
f 1145 1143 1142
f 1145 1140 1143
f 1145 1133 1144

