# https://github.com/mikedh/trimesh
v 0.00423472 -0.00336302 -0.01540466
v 0.00568449 -0.00287114 -0.01540466
v 0.00893269 -0.00474910 -0.01477300
v 0.01241478 -0.00685305 -0.01453281
v 0.01578031 -0.00895341 -0.01458101
v 0.01546948 -0.01013767 -0.01444723
v 0.01532688 -0.01084152 -0.01426651
v 0.01514328 -0.01125415 -0.01407833
v 0.01484923 -0.01163458 -0.01379664
v 0.01455946 -0.01188904 -0.01350539
v 0.01427095 -0.01209254 -0.01317498
v 0.01378589 -0.01240662 -0.01240351
v 0.01344621 -0.01261443 -0.01152223
v 0.01323252 -0.01274044 -0.01053226
v 0.01312280 -0.01280339 -0.00951774
v 0.00148504 -0.00774089 -0.00951775
v 0.00239842 -0.00544556 -0.01429581
v 0.00196069 -0.00646206 -0.01328137
v 0.00169044 -0.00716028 -0.01215167
v 0.00155197 -0.00754610 -0.01100982
v 0.00150820 -0.00767271 -0.01026817
v 0.00297304 -0.00478524 -0.01477941
v 0.00359597 -0.00407967 -0.01514821
v 0.00555188 -0.00494362 -0.01478698
v 0.00424372 -0.00549578 -0.01447755
v 0.00520462 -0.00554359 -0.01453083
v 0.00382789 -0.00621977 -0.01398003
v 0.00484702 -0.00607929 -0.01422920
v 0.00724891 -0.00615559 -0.01444035
v 0.00644374 -0.00686563 -0.01405303
v 0.00448153 -0.00727059 -0.01332109
v 0.00608021 -0.00728516 -0.01374601
v 0.01388098 -0.01015326 -0.01416475
v 0.01267890 -0.01039384 -0.01376073
v 0.01310543 -0.01017323 -0.01398072
v 0.01304134 -0.01117585 -0.01338917
v 0.01466026 -0.01123119 -0.01394742
v 0.01436057 -0.01141754 -0.01374784
v 0.01434175 -0.01170900 -0.01354613
v 0.00284620 -0.00752803 -0.01227733
v 0.00274316 -0.00767288 -0.01194199
v 0.00932244 -0.00749941 -0.01421415
v 0.00869288 -0.00940588 -0.01300180
v 0.00463162 -0.00821508 -0.01231235
v 0.01036744 -0.00817667 -0.01414526
v 0.00480563 -0.00859944 -0.01176536
v 0.00471949 -0.00870770 -0.01143232
v 0.01132121 -0.00887383 -0.01407636
v 0.00776065 -0.01021234 -0.01080308
v 0.01164060 -0.01131079 -0.01244638
v 0.01105487 -0.01133650 -0.01188792
v 0.01089012 -0.01142940 -0.01146199
v 0.01172687 -0.01190573 -0.01116832
v 0.01290650 -0.01209426 -0.01216315
v 0.01308501 -0.01227679 -0.01195858
v 0.00568449 -0.00287114 -0.01540466
v 0.00704065 -0.00204729 -0.01540466
v 0.00817918 -0.00093197 -0.01540465
v 0.00906868 0.00038597 -0.01540465
v 0.00970417 0.00185016 -0.01540465
v 0.00994977 0.00278870 -0.01540465
v 0.01008959 0.00375535 -0.01540465
v 0.02027117 -0.00522318 -0.01450104
v 0.01584925 -0.00105899 -0.01434639
v 0.01289069 0.00149507 -0.01466761
v 0.01935153 -0.00557063 -0.01452423
v 0.01798676 -0.00623653 -0.01454367
v 0.01692972 -0.00710925 -0.01457271
v 0.01626539 -0.00796614 -0.01459466
v 0.01578031 -0.00895341 -0.01458101
v 0.00893269 -0.00474910 -0.01477300
v 0.01241478 -0.00685305 -0.01453281
v 0.01116339 -0.00189412 -0.01481219
v 0.01284469 -0.00312130 -0.01459340
v 0.01452721 -0.00438274 -0.01449876
v 0.01356352 -0.00582494 -0.01455078
v 0.01008959 0.00375535 -0.01540465
v 0.01009493 0.00381595 -0.01540465
v 0.01079978 0.00482863 -0.01519752
v 0.01780327 0.00760924 -0.01002907
v 0.01756541 0.00755005 -0.01134501
v 0.01728086 0.00747715 -0.01194994
v 0.01682989 0.00735661 -0.01251385
v 0.01626465 0.00719609 -0.01298767
v 0.01507693 0.00681932 -0.01366676
v 0.01352138 0.00622773 -0.01430212
v 0.02364714 0.00143408 -0.01002907
v 0.02361923 0.00133636 -0.01067280
v 0.02355637 0.00112105 -0.01128482
v 0.02345526 0.00078762 -0.01183798
v 0.02332049 0.00036531 -0.01232000
v 0.02309871 -0.00028274 -0.01285604
v 0.02268974 -0.00135601 -0.01347721
v 0.02211836 -0.00266089 -0.01398342
v 0.02145086 -0.00398140 -0.01431318
v 0.02115212 -0.00447278 -0.01440038
v 0.02076161 -0.00489921 -0.01446364
v 0.02027117 -0.00522318 -0.01450104
v 0.01584925 -0.00105899 -0.01434639
v 0.01289069 0.00149507 -0.01466761
v 0.01633049 0.00486961 -0.01364630
v 0.01383572 0.00411017 -0.01439501
v 0.01588141 0.00328322 -0.01400889
v 0.01627308 0.00355879 -0.01388435
v 0.01518688 0.00289219 -0.01419112
v 0.01987657 0.00228692 -0.01317297
v 0.02038105 0.00255883 -0.01285974
v 0.01946186 -0.00240228 -0.01422931
v 0.01967093 0.00530469 -0.01124595
v 0.02276994 0.00203927 -0.01112067
v 0.02097228 0.00294559 -0.01229459
v 0.02269251 0.00189849 -0.01149288
v 0.01586208 0.00117662 -0.01421693
v 0.01781287 0.00059817 -0.01400857
v 0.01780706 0.00611990 -0.01256101
v 0.01827515 0.00551714 -0.01258998
v 0.01884795 0.00445969 -0.01278371
v 0.01990958 0.00411166 -0.01230261
v 0.02008043 0.00361958 -0.01249401
v 0.02061951 0.00276427 -0.01263678
v 0.02275024 0.00062157 -0.01255007
v 0.01546948 -0.01013767 -0.01444723
v 0.01532688 -0.01084152 -0.01426651
v 0.01514328 -0.01125415 -0.01407833
v 0.01484923 -0.01163458 -0.01379664
v 0.01455946 -0.01188904 -0.01350539
v 0.01427095 -0.01209254 -0.01317498
v 0.01546948 -0.01013767 -0.01400445
v 0.01427092 -0.01209256 -0.01219420
v 0.01472525 -0.01175269 -0.01295787
v 0.01506085 -0.01138136 -0.01340796
v 0.01525844 -0.01102598 -0.01366791
v 0.01538588 -0.01062034 -0.01385842
v 0.01427095 -0.01209254 -0.01317498
v 0.01378589 -0.01240662 -0.01240351
v 0.01344621 -0.01261443 -0.01152223
v 0.01323252 -0.01274044 -0.01053226
v 0.01312280 -0.01280339 -0.00951774
v 0.01312280 -0.01280339 -0.00509157
v 0.01337474 -0.01265695 -0.00335174
v 0.01375108 -0.01242836 -0.00227777
v 0.01398855 -0.01227796 -0.00183850
v 0.01427093 -0.01209256 -0.00143435
v 0.01427092 -0.01209256 -0.00241512
v 0.01396658 -0.01229137 -0.00321995
v 0.01377251 -0.01241474 -0.00411088
v 0.01365457 -0.01248811 -0.00520916
v 0.01365457 -0.01248811 -0.00940016
v 0.01382218 -0.01238373 -0.01078217
v 0.01401516 -0.01226064 -0.01154618
v 0.01427092 -0.01209256 -0.01219420
v 0.01427093 -0.01209256 -0.00143435
v 0.01427092 -0.01209256 -0.00241512
v 0.01546948 -0.01013768 -0.00060484
v 0.01538076 -0.01064293 -0.00075948
v 0.01524130 -0.01106499 -0.00096473
v 0.01503574 -0.01141621 -0.00123389
v 0.01478055 -0.01170196 -0.00157354
v 0.01452421 -0.01191533 -0.00195471
v 0.01546948 -0.01013768 -0.00016209
v 0.01481838 -0.01166581 -0.00084261
v 0.01507123 -0.01136656 -0.00060029
v 0.01526623 -0.01100788 -0.00040823
v 0.01539300 -0.01058492 -0.00026233
v 0.01546948 -0.01013767 -0.01400445
v 0.01563078 -0.00941379 -0.01413940
v 0.01586956 -0.00872908 -0.01420288
v 0.01651573 -0.00759996 -0.01421343
v 0.01738657 -0.00667993 -0.01418753
v 0.01832517 -0.00603273 -0.01416920
v 0.01881862 -0.00578414 -0.01416316
v 0.01935153 -0.00557063 -0.01415681
v 0.01935153 -0.00557063 -0.01452423
v 0.01798676 -0.00623653 -0.01454367
v 0.01692972 -0.00710925 -0.01457271
v 0.01626539 -0.00796614 -0.01459466
v 0.01578031 -0.00895341 -0.01458101
v 0.01546948 -0.01013767 -0.01444723
v 0.01935152 -0.00557063 -0.00008509
v 0.01935153 -0.00557063 -0.00045250
v 0.01802855 -0.00621000 -0.00043551
v 0.01695326 -0.00708488 -0.00040933
v 0.01629096 -0.00792563 -0.00039102
v 0.01586956 -0.00872908 -0.00040643
v 0.01562614 -0.00943022 -0.00047213
v 0.01546948 -0.01013768 -0.00060484
v 0.01546948 -0.01013768 -0.00016209
v 0.01578031 -0.00895341 -0.00002830
v 0.01633665 -0.00785498 -0.00001650
v 0.01712925 -0.00690978 -0.00004334
v 0.01810813 -0.00616008 -0.00006797
v 0.01871334 -0.00583231 -0.00007724
v 0.02145086 -0.00398140 -0.01391929
v 0.02233339 -0.00219200 -0.01336485
v 0.02291666 -0.00077742 -0.01260176
v 0.02314126 -0.00016252 -0.01209841
v 0.02327496 0.00022970 -0.01166019
v 0.02340018 0.00061204 -0.01101710
v 0.02345712 0.00079383 -0.01046374
v 0.02348308 0.00087787 -0.00988432
v 0.02348308 0.00087786 -0.00472499
v 0.02351907 0.00099625 -0.00730538
v 0.02343964 0.00073781 -0.00393197
v 0.02334993 0.00045447 -0.00328503
v 0.02322324 0.00007477 -0.00276003
v 0.02307541 -0.00034764 -0.00234158
v 0.02284181 -0.00097289 -0.00187634
v 0.02259991 -0.00157421 -0.00153064
v 0.02233339 -0.00219200 -0.00124446
v 0.02145086 -0.00398141 -0.00069002
v 0.02145086 -0.00398141 -0.00029613
v 0.02253311 -0.00173328 -0.00096261
v 0.02314045 -0.00016482 -0.00183873
v 0.02337882 0.00054522 -0.00247623
v 0.02351338 0.00097739 -0.00305574
v 0.02360125 0.00127412 -0.00371249
v 0.02363128 0.00137836 -0.00413935
v 0.02364714 0.00143408 -0.00458024
v 0.02364714 0.00143408 -0.01002907
v 0.02368310 0.00156083 -0.00730466
v 0.02361923 0.00133636 -0.01067280
v 0.02355637 0.00112105 -0.01128482
v 0.02345526 0.00078762 -0.01183798
v 0.02332049 0.00036531 -0.01232000
v 0.02309871 -0.00028274 -0.01285604
v 0.02268974 -0.00135601 -0.01347721
v 0.02211836 -0.00266089 -0.01398342
v 0.02145086 -0.00398140 -0.01431318
v 0.02014493 -0.00528340 -0.01413716
v 0.02067398 -0.00497008 -0.01409887
v 0.02105051 -0.00460431 -0.01404057
v 0.02124091 -0.00434217 -0.01399277
v 0.02145086 -0.00398140 -0.01391929
v 0.01935153 -0.00557063 -0.01415681
v 0.01935153 -0.00557063 -0.01452423
v 0.02027117 -0.00522318 -0.01450104
v 0.02145086 -0.00398140 -0.01431318
v 0.02115212 -0.00447278 -0.01440038
v 0.02076161 -0.00489921 -0.01446364
v 0.01935152 -0.00557063 -0.00008509
v 0.01935153 -0.00557063 -0.00045250
v 0.02014493 -0.00528341 -0.00047215
v 0.02145086 -0.00398141 -0.00069002
v 0.02109089 -0.00455406 -0.00057757
v 0.02072085 -0.00493285 -0.00051582
v 0.02040290 -0.00515236 -0.00048642
v 0.02145086 -0.00398141 -0.00029613
v 0.02027117 -0.00522318 -0.00010828
v 0.02075741 -0.00490233 -0.00014531
v 0.02115060 -0.00447488 -0.00020859
v 0.00239842 -0.00544556 -0.00031351
v 0.00297304 -0.00478524 0.00017010
v 0.00359597 -0.00407967 0.00053890
v 0.00423472 -0.00336303 0.00079534
v 0.00148504 -0.00774089 -0.00509157
v 0.00158212 -0.00746020 -0.00326489
v 0.00174910 -0.00700305 -0.00214454
v 0.00202463 -0.00630571 -0.00113890
v 0.00219964 -0.00589236 -0.00070395
v 0.01312280 -0.01280339 -0.00509157
v 0.01337474 -0.01265695 -0.00335174
v 0.01375108 -0.01242836 -0.00227777
v 0.01398855 -0.01227796 -0.00183850
v 0.01427093 -0.01209256 -0.00143435
v 0.01481838 -0.01166581 -0.00084261
v 0.01507123 -0.01136656 -0.00060029
v 0.01526623 -0.01100788 -0.00040823
v 0.01539300 -0.01058492 -0.00026233
v 0.01546948 -0.01013768 -0.00016209
v 0.01578031 -0.00895341 -0.00002830
v 0.00568449 -0.00287115 0.00079534
v 0.00893269 -0.00474910 0.00016369
v 0.01241478 -0.00685306 -0.00007650
v 0.00541185 -0.00519214 0.00008012
v 0.00526603 -0.00544213 -0.00002996
v 0.00391968 -0.00607009 -0.00051185
v 0.00494545 -0.00594150 -0.00029423
v 0.00732275 -0.00606455 -0.00013389
v 0.00654318 -0.00673613 -0.00047785
v 0.00458693 -0.00712501 -0.00113159
v 0.00618680 -0.00716988 -0.00076967
v 0.01385176 -0.01032376 -0.00050701
v 0.01306830 -0.01019375 -0.00064632
v 0.01256199 -0.01045034 -0.00091620
v 0.01295434 -0.01121794 -0.00129323
v 0.01452531 -0.01151416 -0.00085934
v 0.01431889 -0.01161723 -0.00100673
v 0.00292471 -0.00739803 -0.00208419
v 0.00229774 -0.00765690 -0.00302463
v 0.00266480 -0.00775427 -0.00290792
v 0.00934863 -0.00746609 -0.00038133
v 0.00869132 -0.00939170 -0.00159498
v 0.00456098 -0.00827582 -0.00243759
v 0.01036925 -0.00816772 -0.00046092
v 0.00471546 -0.00870265 -0.00316837
v 0.01131012 -0.00887653 -0.00053593
v 0.00775749 -0.01020961 -0.00380044
v 0.01147005 -0.01139774 -0.00244808
v 0.01088711 -0.01142517 -0.00313908
v 0.01270256 -0.01219945 -0.00291994
v 0.01293212 -0.01235814 -0.00305982
v 0.01312280 -0.01280339 -0.00509157
v 0.00148504 -0.00774089 -0.00509157
v 0.00148504 -0.00774089 -0.00951775
v 0.01312280 -0.01280339 -0.00951774
v 0.00568449 -0.00287115 0.00079534
v 0.00893269 -0.00474910 0.00016369
v 0.01241478 -0.00685306 -0.00007650
v 0.01578031 -0.00895341 -0.00002830
v 0.01633665 -0.00785498 -0.00001650
v 0.01712925 -0.00690978 -0.00004334
v 0.01810813 -0.00616008 -0.00006797
v 0.01871334 -0.00583231 -0.00007724
v 0.01935152 -0.00557063 -0.00008509
v 0.02027117 -0.00522318 -0.00010828
v 0.01008959 0.00375534 0.00079535
v 0.01347153 0.00100792 -0.00004041
v 0.01703844 -0.00213682 -0.00028143
v 0.00704065 -0.00204729 0.00079535
v 0.00817918 -0.00093198 0.00079535
v 0.00906868 0.00038597 0.00079535
v 0.00970417 0.00185015 0.00079535
v 0.00994977 0.00278870 0.00079535
v 0.01149549 -0.00213368 0.00014845
v 0.01315832 -0.00335405 -0.00004214
v 0.01520806 -0.00490159 -0.00011955
v 0.01391470 -0.00607224 -0.00006435
v 0.01008959 0.00375534 0.00079535
v 0.01347153 0.00100792 -0.00004041
v 0.01703844 -0.00213682 -0.00028143
v 0.02027117 -0.00522318 -0.00010828
v 0.02075741 -0.00490233 -0.00014531
v 0.02115060 -0.00447488 -0.00020859
v 0.02145086 -0.00398141 -0.00029613
v 0.02253311 -0.00173328 -0.00096261
v 0.02314045 -0.00016482 -0.00183873
v 0.02337882 0.00054522 -0.00247623
v 0.02351338 0.00097739 -0.00305574
v 0.02360125 0.00127412 -0.00371249
v 0.02363128 0.00137836 -0.00413935
v 0.02364714 0.00143408 -0.00458024
v 0.01780327 0.00760924 -0.00458024
v 0.01079978 0.00482862 0.00058821
v 0.01360184 0.00626148 -0.00033647
v 0.01590579 0.00708818 -0.00138531
v 0.01676967 0.00734002 -0.00203640
v 0.01724685 0.00746827 -0.00260596
v 0.01755365 0.00754708 -0.00323039
v 0.01771901 0.00758848 -0.00389522
v 0.01009493 0.00381594 0.00079535
v 0.01458460 0.00413328 -0.00039512
v 0.01650675 0.00444205 -0.00093254
v 0.01334149 0.00350780 -0.00006852
v 0.01619715 0.00264674 -0.00058978
v 0.01675670 0.00302428 -0.00075641
v 0.02027889 -0.00248370 -0.00043096
v 0.01967941 0.00530108 -0.00337571
v 0.02277470 0.00203987 -0.00350027
v 0.02099192 0.00295410 -0.00233584
v 0.02272205 0.00194860 -0.00323675
v 0.01668790 0.00039038 -0.00043294
v 0.01853929 0.00024335 -0.00065331
v 0.02020889 0.00245767 -0.00162957
v 0.01785991 0.00599271 -0.00201072
v 0.01838132 0.00533864 -0.00198976
v 0.02005700 0.00412112 -0.00243445
v 0.02046695 0.00268236 -0.00184849
v 0.01902742 0.00436668 -0.00187947
v 0.02209556 0.00114583 -0.00195807
v 0.02269580 0.00058430 -0.00200199
v 0.02125550 -0.00042142 -0.00101945
v 0.01780327 0.00760924 -0.00458024
v 0.01793413 0.00764138 -0.00730464
v 0.01780327 0.00760924 -0.01002907
v 0.02364714 0.00143408 -0.01002907
v 0.02368310 0.00156083 -0.00730466
v 0.02364714 0.00143408 -0.00458024
v 0.02177517 0.00347756 -0.00594245
v 0.02299822 0.00223949 -0.00798576
v 0.02097952 0.00429485 -0.00900741
f 24 1 2
f 24 2 3
f 24 23 1
f 25 17 22
f 25 22 23
f 25 23 24
f 26 25 24
f 27 18 17
f 27 17 25
f 28 25 26
f 28 27 25
f 29 26 24
f 29 24 3
f 30 26 29
f 30 28 26
f 31 27 28
f 32 28 30
f 32 31 28
f 33 5 6
f 33 6 7
f 34 35 33
f 36 34 33
f 37 7 8
f 37 8 9
f 37 33 7
f 37 36 33
f 38 37 9
f 38 36 37
f 39 9 10
f 39 10 11
f 39 38 9
f 39 36 38
f 40 19 18
f 40 18 27
f 40 27 31
f 41 20 19
f 41 21 20
f 41 19 40
f 42 3 4
f 42 32 30
f 42 29 3
f 42 43 32
f 42 30 29
f 44 31 32
f 44 32 43
f 44 40 31
f 44 41 40
f 45 43 42
f 45 42 4
f 46 44 43
f 47 16 21
f 47 21 41
f 47 41 44
f 47 44 46
f 48 43 45
f 48 4 5
f 48 5 33
f 48 45 4
f 48 33 35
f 48 34 43
f 48 35 34
f 49 16 47
f 49 47 46
f 49 15 16
f 49 46 43
f 50 43 34
f 50 34 36
f 51 49 43
f 51 43 50
f 52 49 51
f 53 14 15
f 53 15 49
f 53 51 50
f 53 49 52
f 53 52 51
f 54 11 12
f 54 50 36
f 54 53 50
f 54 39 11
f 54 36 39
f 55 12 13
f 55 13 14
f 55 54 12
f 55 53 54
f 55 14 53
f 65 60 61
f 65 61 62
f 59 60 65
f 71 56 57
f 66 64 63
f 67 64 66
f 70 72 69
f 73 57 58
f 73 58 59
f 73 71 57
f 73 59 65
f 74 65 64
f 74 71 73
f 74 73 65
f 75 67 68
f 75 74 64
f 75 64 67
f 76 68 69
f 76 72 71
f 76 71 74
f 76 75 68
f 76 74 75
f 76 69 72
f 77 78 79
f 100 77 79
f 101 85 84
f 102 86 85
f 102 79 86
f 102 85 101
f 102 100 79
f 103 101 104
f 103 102 101
f 105 100 102
f 105 102 103
f 106 107 94
f 108 94 95
f 108 95 96
f 108 96 97
f 108 97 98
f 108 98 99
f 108 106 94
f 109 81 80
f 109 82 81
f 110 80 87
f 110 87 88
f 110 88 89
f 110 109 80
f 110 111 109
f 112 89 90
f 112 110 89
f 112 111 110
f 113 99 100
f 113 105 103
f 113 100 105
f 113 103 104
f 114 108 99
f 114 113 104
f 114 106 108
f 114 99 113
f 115 83 82
f 115 84 83
f 115 101 84
f 115 82 109
f 116 101 115
f 116 115 109
f 117 104 101
f 117 114 104
f 117 106 114
f 117 101 116
f 118 109 111
f 118 116 109
f 118 117 116
f 119 117 118
f 119 107 106
f 119 111 120
f 119 120 107
f 119 118 111
f 119 106 117
f 121 90 91
f 121 91 92
f 121 92 93
f 121 93 94
f 121 94 107
f 121 112 90
f 121 120 111
f 121 107 120
f 121 111 112
f 123 122 128
f 133 123 128
f 132 124 123
f 132 123 133
f 131 125 124
f 131 124 132
f 126 125 131
f 130 126 131
f 127 126 130
f 129 127 130
f 135 134 151
f 150 135 151
f 136 135 150
f 149 136 150
f 137 136 149
f 148 137 149
f 138 137 148
f 147 138 148
f 139 138 147
f 146 139 147
f 140 146 145
f 140 139 146
f 141 145 144
f 141 140 145
f 142 141 144
f 143 142 144
f 164 155 154
f 164 154 160
f 163 156 155
f 163 155 164
f 162 157 156
f 162 156 163
f 161 158 157
f 161 157 162
f 152 159 158
f 152 153 159
f 152 158 161
f 171 173 172
f 174 171 170
f 174 173 171
f 169 174 170
f 175 174 169
f 168 175 169
f 176 175 168
f 167 177 176
f 167 176 168
f 166 177 167
f 178 177 166
f 165 178 166
f 192 180 179
f 181 180 192
f 191 181 192
f 190 182 181
f 190 181 191
f 189 183 182
f 189 182 190
f 184 183 189
f 188 184 189
f 185 184 188
f 187 186 185
f 187 185 188
f 196 225 224
f 197 224 223
f 197 196 224
f 195 226 225
f 195 225 196
f 198 222 221
f 198 223 222
f 198 197 223
f 199 221 219
f 199 198 221
f 194 227 226
f 194 226 195
f 200 199 219
f 193 228 227
f 193 227 194
f 220 200 219
f 202 200 220
f 201 220 218
f 201 202 220
f 217 201 218
f 203 217 216
f 203 201 217
f 215 203 216
f 204 203 215
f 214 204 215
f 205 204 214
f 206 205 214
f 213 206 214
f 207 206 213
f 212 207 213
f 212 208 207
f 209 208 212
f 211 210 209
f 211 209 212
f 232 238 237
f 232 237 233
f 231 238 232
f 239 238 231
f 230 239 231
f 236 239 230
f 229 236 230
f 235 236 229
f 234 235 229
f 250 244 243
f 250 243 247
f 249 245 244
f 249 244 250
f 246 245 249
f 248 242 246
f 248 246 249
f 240 241 242
f 240 242 248
f 274 253 252
f 274 254 253
f 274 272 271
f 274 271 254
f 275 274 252
f 276 252 251
f 276 259 258
f 276 251 259
f 276 275 252
f 277 275 276
f 278 274 275
f 278 272 274
f 279 278 275
f 279 275 277
f 280 277 276
f 281 277 280
f 281 279 277
f 282 267 268
f 282 268 269
f 282 269 270
f 282 270 283
f 284 282 283
f 285 263 264
f 285 282 284
f 286 265 266
f 286 266 267
f 286 267 282
f 286 282 285
f 287 264 265
f 287 265 286
f 287 285 264
f 287 286 285
f 288 258 257
f 288 280 276
f 288 276 258
f 289 256 255
f 289 257 256
f 289 288 257
f 290 289 255
f 290 288 289
f 291 273 272
f 291 278 279
f 291 281 292
f 291 279 281
f 291 272 278
f 293 281 280
f 293 292 281
f 293 280 288
f 293 288 290
f 294 273 291
f 294 291 292
f 295 293 290
f 295 292 293
f 295 290 255
f 296 294 292
f 296 270 273
f 296 283 270
f 296 273 294
f 296 292 284
f 296 284 283
f 297 295 255
f 297 292 295
f 297 255 260
f 298 284 292
f 298 285 284
f 299 298 292
f 299 297 260
f 299 292 297
f 300 262 263
f 300 285 298
f 300 298 299
f 300 263 285
f 300 299 260
f 301 260 261
f 301 261 262
f 301 262 300
f 301 300 260
f 303 305 302
f 304 305 303
f 317 322 321
f 317 323 322
f 317 316 323
f 307 319 306
f 314 315 318
f 313 314 318
f 312 313 318
f 309 310 308
f 324 320 319
f 324 321 320
f 324 317 321
f 324 319 307
f 325 318 317
f 325 324 307
f 325 317 324
f 326 311 312
f 326 318 325
f 326 312 318
f 327 307 308
f 327 310 311
f 327 311 326
f 327 325 307
f 327 326 325
f 327 308 310
f 351 345 344
f 351 352 345
f 353 328 329
f 353 344 343
f 353 343 350
f 353 350 328
f 353 351 344
f 354 351 353
f 354 353 329
f 354 355 352
f 354 352 351
f 356 330 331
f 356 331 332
f 356 332 333
f 356 333 334
f 357 348 347
f 357 349 348
f 357 342 349
f 358 339 340
f 358 340 341
f 358 341 342
f 358 357 359
f 358 342 357
f 360 338 339
f 360 339 358
f 360 358 359
f 361 329 330
f 361 354 329
f 361 355 354
f 362 330 356
f 362 363 355
f 362 361 330
f 362 355 361
f 364 346 345
f 364 347 346
f 364 357 347
f 364 345 352
f 365 364 352
f 365 357 364
f 366 357 365
f 366 359 357
f 366 367 359
f 368 352 355
f 368 355 363
f 368 363 367
f 368 365 352
f 368 366 365
f 368 367 366
f 369 359 367
f 369 367 363
f 369 360 359
f 370 335 336
f 370 336 337
f 370 337 338
f 370 338 360
f 370 360 369
f 371 370 369
f 371 334 335
f 371 362 356
f 371 369 363
f 371 335 370
f 371 356 334
f 371 363 362
f 378 373 372
f 378 372 377
f 379 376 375
f 379 377 376
f 379 378 377
f 380 374 373
f 380 375 374
f 380 373 378
f 380 379 375
f 380 378 379

