# https://github.com/mikedh/trimesh
v 0.00786070 0.02211736 -0.00334343
v 0.00755706 0.02212911 -0.00221518
v 0.00791512 0.02225967 -0.00488751
v 0.00791508 0.02225963 -0.00489798
v 0.00785449 0.02211760 -0.00636714
v 0.00755706 0.02212911 -0.00746251
v 0.00685395 0.02375465 -0.00738697
v 0.00648902 0.02522194 -0.00732296
v 0.00682938 0.02511430 -0.00566688
v 0.00682938 0.02511430 -0.00401080
v 0.00648902 0.02522194 -0.00235472
v 0.00678656 0.02395860 -0.00230005
v 0.00717670 0.02292250 -0.00225211
v 0.00755706 0.02212911 -0.00746251
v 0.00785449 0.02211760 -0.00636714
v 0.00767308 0.02190846 -0.00747223
v 0.00755706 0.02212911 -0.00221518
v 0.00767569 0.02190333 -0.00220524
v 0.00786070 0.02211736 -0.00334343
v 0.00429417 0.01932487 0.00030390
v 0.00437722 0.01910459 0.00029237
v 0.00313933 0.02205255 0.00043245
v 0.00518446 0.02212047 -0.00000732
v 0.00605249 0.02213787 -0.00039512
v 0.00658827 0.02214324 -0.00076290
v 0.00708714 0.02214168 -0.00128910
v 0.00735319 0.02213623 -0.00172801
v 0.00755706 0.02212911 -0.00221518
v 0.00767569 0.02190333 -0.00220524
v 0.00750389 0.02173467 -0.00160693
v 0.00723879 0.02149954 -0.00106646
v 0.00687347 0.02119582 -0.00063114
v 0.00643739 0.02084624 -0.00030921
v 0.00596203 0.02047336 -0.00008295
v 0.00546428 0.02008808 0.00007516
v 0.00484115 0.01958236 0.00021149
v 0.00447351 0.02148969 0.00024519
v 0.00755706 0.02212911 -0.00746251
v 0.00723129 0.02213926 -0.00817208
v 0.00679979 0.02214360 -0.00872251
v 0.00627260 0.02214071 -0.00914778
v 0.00562044 0.02213029 -0.00949945
v 0.00443834 0.02209959 -0.00988374
v 0.00313933 0.02205255 -0.01011013
v 0.00429417 0.01932487 -0.00998158
v 0.00437463 0.01911027 -0.00997042
v 0.00489124 0.01963429 -0.00987969
v 0.00546091 0.02009256 -0.00975354
v 0.00643472 0.02085127 -0.00936900
v 0.00687056 0.02120066 -0.00904723
v 0.00723100 0.02150020 -0.00861956
v 0.00750027 0.02173883 -0.00807361
v 0.00759549 0.02182997 -0.00777775
v 0.00767308 0.02190846 -0.00747223
v 0.00390746 0.01308672 0.00039473
v 0.00361147 0.01584762 0.00037826
v 0.00355517 0.01699121 0.00038773
v 0.00369095 0.01781948 0.00038044
v 0.00396554 0.01849557 0.00035260
v 0.00437722 0.01910459 0.00029237
v 0.00429417 0.01932487 0.00030390
v 0.00204476 0.01911146 0.00047563
v 0.00217288 0.01622298 0.00037578
v 0.00204847 0.01364494 0.00033511
v 0.00283104 0.01336735 0.00041378
v -0.00099579 0.01549366 -0.00278198
v -0.00186065 0.01324799 -0.00278947
v -0.00278121 0.00905223 -0.00279097
v -0.00312718 0.00665537 -0.00278576
v -0.00330295 0.00448016 -0.00278244
v -0.00066812 0.01519607 -0.00190952
v -0.00013551 0.01480013 -0.00110572
v 0.00059678 0.01434798 -0.00038669
v 0.00132347 0.01396824 0.00007751
v 0.00204847 0.01364494 0.00033511
v 0.00147402 0.00583416 0.00072448
v 0.00166886 0.00961948 0.00044951
v 0.00004084 0.00538848 0.00038849
v -0.00127915 0.00499979 -0.00031652
v -0.00241168 0.00468819 -0.00131878
v -0.00293099 0.00455774 -0.00200385
v -0.00164975 0.00637388 -0.00076758
v -0.00243553 0.00581250 -0.00147255
v -0.00065365 0.00805762 -0.00026809
v -0.00179630 0.00710093 -0.00099559
v -0.00232473 0.00692527 -0.00150732
v -0.00265147 0.00685281 -0.00190919
v -0.00058349 0.01146390 -0.00071035
v -0.00089112 0.00950353 -0.00062354
v -0.00143217 0.01082248 -0.00129832
v 0.00059066 0.01237745 -0.00014263
v 0.00058203 0.01306700 -0.00022567
v -0.00046896 0.01269843 -0.00084178
v -0.00110506 0.01408815 -0.00186390
v 0.00036671 0.00685578 0.00035752
v 0.00040001 0.00955132 0.00008179
v -0.00243761 0.00807148 -0.00185955
v -0.00196554 0.00860209 -0.00140585
v 0.00051491 0.01049734 0.00002702
v -0.00201000 0.00936776 -0.00160786
v -0.00143732 0.01190649 -0.00155037
v -0.00112990 0.01252442 -0.00137780
v -0.00142424 0.01242055 -0.00167516
v -0.00132467 0.01302086 -0.00173856
v -0.00360224 0.00449918 -0.00489798
v -0.00360231 0.00449916 -0.00488751
v -0.00353270 0.00446603 -0.00590866
v -0.00330268 0.00448618 -0.00689524
v -0.00099578 0.01549366 -0.00689569
v -0.00186062 0.01324810 -0.00688821
v -0.00278062 0.00905564 -0.00688670
v -0.00312664 0.00666014 -0.00689191
v -0.00118332 0.01568383 -0.00570178
v -0.00120878 0.01570965 -0.00440427
v -0.00114016 0.01564006 -0.00355948
v -0.00099579 0.01549366 -0.00278198
v -0.00186065 0.01324799 -0.00278947
v -0.00278121 0.00905223 -0.00279097
v -0.00312718 0.00665537 -0.00278576
v -0.00330295 0.00448016 -0.00278244
v -0.00348411 0.00445935 -0.00346991
v -0.00357745 0.00446803 -0.00417620
v -0.00349072 0.00610134 -0.00485513
v -0.00340099 0.00694375 -0.00483885
v -0.00314364 0.00855593 -0.00557864
v -0.00323508 0.00818278 -0.00483885
v -0.00326698 0.00772587 -0.00410412
v -0.00303138 0.00943029 -0.00483885
v -0.00269941 0.01095770 -0.00408335
v -0.00255817 0.01175270 -0.00483884
v -0.00205248 0.01366518 -0.00483884
v -0.00236856 0.01239327 -0.00559927
v -0.00154908 0.01468338 -0.00633649
v -0.00160626 0.01480063 -0.00572148
v -0.00176921 0.01450580 -0.00468771
v -0.00157238 0.01472864 -0.00353999
v -0.00274754 0.01051253 -0.00594797
v 0.00429417 0.01932487 -0.00998158
v 0.00437463 0.01911027 -0.00997042
v 0.00391601 0.01841231 -0.01003613
v 0.00363450 0.01762102 -0.01006233
v 0.00354340 0.01673726 -0.01006475
v 0.00360587 0.01584702 -0.01005631
v 0.00390166 0.01308803 -0.01007272
v 0.00282864 0.01336809 -0.01009139
v 0.00204847 0.01364494 -0.01001279
v 0.00217109 0.01660895 -0.01006477
v 0.00204476 0.01911146 -0.01015331
v 0.00204847 0.01364494 -0.01001279
v 0.00166909 0.00962261 -0.01012704
v 0.00147417 0.00584018 -0.01040161
v 0.00131150 0.01397403 -0.00974925
v 0.00057455 0.01436058 -0.00927330
v -0.00006694 0.01475406 -0.00865333
v -0.00056069 0.01510958 -0.00796411
v -0.00081510 0.01532209 -0.00744855
v -0.00099578 0.01549366 -0.00689569
v -0.00186062 0.01324810 -0.00688821
v -0.00278062 0.00905564 -0.00688670
v -0.00312664 0.00666014 -0.00689191
v -0.00330268 0.00448618 -0.00689524
v -0.00293541 0.00456267 -0.00766617
v -0.00242326 0.00469113 -0.00834537
v -0.00160903 0.00491253 -0.00911352
v -0.00055968 0.00521472 -0.00979747
v 0.00042638 0.00551224 -0.01019415
v -0.00131422 0.00647531 -0.00916573
v -0.00192211 0.00629555 -0.00867689
v -0.00256370 0.00576916 -0.00805598
v -0.00163423 0.00715891 -0.00881758
v -0.00053387 0.00808456 -0.00947709
v -0.00204015 0.00702500 -0.00845961
v -0.00245234 0.00688762 -0.00802521
v -0.00272419 0.00682538 -0.00766660
v -0.00058322 0.01146554 -0.00896726
v -0.00143178 0.01082464 -0.00837930
v -0.00089067 0.00950672 -0.00905399
v 0.00064011 0.01234816 -0.00956284
v 0.00060566 0.01305360 -0.00946657
v -0.00043985 0.01267740 -0.00886156
v -0.00107954 0.01406240 -0.00785948
v 0.00040036 0.00955443 -0.00975928
v -0.00237427 0.00810533 -0.00789441
v -0.00191714 0.00862124 -0.00831893
v 0.00051521 0.01049975 -0.00970458
v -0.00200946 0.00937109 -0.00806973
v -0.00143706 0.01190776 -0.00812728
v -0.00112175 0.01251809 -0.00830970
v -0.00142405 0.01242141 -0.00800250
v -0.00131481 0.01301137 -0.00795459
v 0.00416754 0.01069556 0.00047959
v 0.00423365 0.00983190 0.00052111
v 0.00419873 0.00910302 0.00056625
v 0.00395554 0.00808064 0.00064716
v 0.00351258 0.00721406 0.00072846
v 0.00297938 0.00660316 0.00078391
v 0.00238153 0.00618361 0.00080118
v 0.00203285 0.00602216 0.00078733
v 0.00166716 0.00589522 0.00075163
v 0.00147402 0.00583416 0.00072448
v 0.00166886 0.00961948 0.00044951
v 0.00204847 0.01364494 0.00033511
v 0.00283104 0.01336735 0.00041378
v 0.00390746 0.01308672 0.00039473
v 0.00286881 0.01214597 0.00045519
v 0.00166540 0.00590064 -0.01042853
v 0.00238613 0.00619255 -0.01047836
v 0.00296308 0.00659624 -0.01046209
v 0.00339207 0.00705745 -0.01042140
v 0.00373195 0.00758991 -0.01037028
v 0.00398051 0.00816800 -0.01031753
v 0.00414256 0.00877892 -0.01026779
v 0.00422908 0.00973341 -0.01020469
v 0.00416194 0.01069496 -0.01015768
v 0.00390166 0.01308803 -0.01007272
v 0.00282864 0.01336809 -0.01009139
v 0.00204847 0.01364494 -0.01001279
v 0.00166909 0.00962261 -0.01012704
v 0.00147417 0.00584018 -0.01040161
v 0.00286650 0.01214583 -0.01013284
v -0.00029946 0.01886686 -0.00689540
v 0.00040157 0.01893822 -0.00858282
v 0.00101682 0.01900275 -0.00950309
v 0.00145007 0.01904805 -0.00989727
v 0.00176622 0.01908138 -0.01007773
v 0.00191279 0.01909706 -0.01012920
v 0.00204476 0.01911146 -0.01015331
v -0.00099578 0.01549366 -0.00689569
v -0.00044033 0.01667867 -0.00689537
v -0.00025884 0.01750130 -0.00689532
v -0.00022715 0.01817682 -0.00689534
v 0.00204847 0.01364494 -0.01001279
v 0.00131150 0.01397403 -0.00974925
v 0.00057455 0.01436058 -0.00927330
v -0.00006694 0.01475406 -0.00865333
v -0.00056069 0.01510958 -0.00796411
v -0.00081510 0.01532209 -0.00744855
v 0.00217109 0.01660895 -0.01006477
v 0.00181439 0.01494373 -0.00993013
v 0.00146244 0.01505874 -0.00977413
v 0.00110991 0.01518422 -0.00955548
v 0.00034101 0.01581961 -0.00875483
v 0.00183531 0.01818864 -0.01003004
v 0.00161906 0.01815779 -0.00991482
v 0.00051100 0.01660702 -0.00882232
v 0.00125503 0.01811037 -0.00964136
v 0.00054123 0.01753574 -0.00875006
v 0.00131973 0.01657596 -0.00966457
v 0.00313933 0.02205255 -0.01011013
v 0.00239955 0.02197725 -0.01019563
v 0.00193639 0.02184470 -0.01022337
v 0.00146338 0.02161671 -0.01022322
v 0.00204476 0.01911146 -0.01015331
v 0.00429417 0.01932487 -0.00998158
v -0.00099579 0.01549366 -0.00278198
v -0.00044033 0.01667867 -0.00278229
v -0.00025885 0.01750130 -0.00278234
v -0.00022716 0.01817682 -0.00278232
v -0.00029946 0.01886686 -0.00278227
v -0.00099578 0.01549366 -0.00689569
v -0.00118332 0.01568383 -0.00570178
v -0.00120878 0.01570965 -0.00440427
v -0.00114016 0.01564006 -0.00355948
v -0.00044033 0.01667867 -0.00689537
v -0.00025884 0.01750130 -0.00689532
v -0.00022715 0.01817682 -0.00689534
v -0.00029946 0.01886686 -0.00689540
v -0.00112486 0.02092392 -0.00689569
v -0.00064506 0.01999080 -0.00689552
v -0.00112486 0.02092391 -0.00278198
v -0.00139973 0.02093735 -0.00397589
v -0.00143705 0.02093917 -0.00527339
v -0.00133646 0.02093426 -0.00611819
v -0.00050383 0.01963186 -0.00278218
v -0.00080280 0.02032781 -0.00278209
v -0.00053590 0.01850335 -0.00411746
v -0.00063812 0.01895311 -0.00483884
v -0.00058409 0.01862455 -0.00483884
v -0.00051693 0.01784773 -0.00411744
v -0.00055378 0.01829538 -0.00483883
v -0.00056366 0.01872412 -0.00556020
v -0.00054736 0.01796959 -0.00483883
v -0.00056419 0.01765114 -0.00483883
v -0.00051260 0.01806396 -0.00556022
v -0.00099579 0.01549366 -0.00278198
v -0.00044033 0.01667867 -0.00278229
v -0.00025885 0.01750130 -0.00278234
v -0.00022716 0.01817682 -0.00278232
v -0.00029946 0.01886686 -0.00278227
v 0.00204476 0.01911146 0.00047563
v 0.00185944 0.01909133 0.00043543
v 0.00165046 0.01906912 0.00034439
v 0.00143059 0.01904600 0.00020557
v 0.00113693 0.01901530 -0.00004733
v 0.00082374 0.01898256 -0.00041159
v 0.00009492 0.01890604 -0.00175878
v 0.00217288 0.01622298 0.00037578
v 0.00204847 0.01364494 0.00033511
v -0.00066812 0.01519607 -0.00190952
v -0.00013551 0.01480013 -0.00110572
v 0.00059678 0.01434798 -0.00038669
v 0.00132347 0.01396824 0.00007751
v 0.00180882 0.01479401 0.00025088
v 0.00145961 0.01491493 0.00009876
v 0.00105037 0.01506987 -0.00015562
v 0.00030368 0.01574849 -0.00095082
v 0.00183056 0.01805342 0.00034242
v 0.00168488 0.01803413 0.00026813
v 0.00151694 0.01801337 0.00016336
v 0.00049434 0.01646848 -0.00085580
v 0.00067609 0.01745438 -0.00071243
v 0.00165515 0.01552782 0.00018748
v 0.00130707 0.01632569 -0.00002085
v 0.00204476 0.01911146 0.00047563
v 0.00146338 0.02161671 0.00054554
v 0.00202892 0.02187789 0.00054215
v 0.00258534 0.02200898 0.00050049
v 0.00313933 0.02205255 0.00043245
v 0.00429417 0.01932487 0.00030390
v 0.00300984 0.02100104 0.00046761
v 0.00213343 0.02151890 0.00053969
v -0.00112486 0.02092392 -0.00689569
v -0.00056520 0.02097801 -0.00813313
v 0.00027022 0.02116092 -0.00939093
v 0.00070930 0.02128787 -0.00984522
v 0.00102086 0.02139702 -0.01007978
v 0.00122507 0.02148581 -0.01018021
v 0.00135645 0.02155445 -0.01021427
v 0.00146338 0.02161671 -0.01022322
v -0.00064506 0.01999080 -0.00689552
v -0.00029946 0.01886686 -0.00689540
v 0.00040157 0.01893822 -0.00858282
v 0.00101682 0.01900275 -0.00950309
v 0.00145007 0.01904805 -0.00989727
v 0.00176622 0.01908138 -0.01007773
v 0.00191279 0.01909706 -0.01012920
v 0.00204476 0.01911146 -0.01015331
v -0.00070482 0.02053689 -0.00739608
v 0.00313933 0.02205255 -0.01011013
v 0.00254275 0.02354966 -0.01012471
v 0.00219508 0.02513047 -0.01012304
v 0.00209869 0.02644522 -0.01009632
v 0.00239955 0.02197725 -0.01019563
v 0.00193639 0.02184470 -0.01022337
v 0.00146338 0.02161671 -0.01022322
v 0.00000549 0.02701549 -0.01021473
v 0.00055316 0.02427796 -0.01024906
v -0.00310852 0.02786387 -0.00274240
v -0.00263763 0.02474717 -0.00276478
v -0.00202094 0.02280948 -0.00277800
v -0.00112486 0.02092391 -0.00278198
v -0.00289527 0.03184000 -0.00278198
v -0.00311946 0.02990355 -0.00274769
v -0.00289527 0.03184000 -0.00689569
v -0.00313213 0.03198287 -0.00570178
v -0.00316427 0.03200226 -0.00440428
v -0.00307761 0.03194998 -0.00355948
v -0.00310852 0.02786387 -0.00693527
v -0.00311950 0.02990276 -0.00693000
v -0.00112486 0.02092392 -0.00689569
v -0.00216571 0.02319167 -0.00690163
v -0.00281198 0.02553596 -0.00691967
v -0.00139973 0.02093735 -0.00397589
v -0.00143705 0.02093917 -0.00527339
v -0.00133646 0.02093426 -0.00611819
v -0.00188410 0.02188665 -0.00397521
v -0.00213131 0.02233534 -0.00498419
v -0.00258245 0.02361683 -0.00411467
v -0.00241360 0.02303952 -0.00483884
v -0.00273442 0.02401383 -0.00483884
v -0.00302925 0.02520261 -0.00483884
v -0.00316628 0.02612492 -0.00410936
v -0.00284637 0.02453378 -0.00556489
v -0.00328184 0.02679358 -0.00483883
v -0.00337793 0.02795522 -0.00483883
v -0.00329449 0.02717663 -0.00557012
v -0.00337682 0.02936944 -0.00410719
v -0.00340662 0.02904009 -0.00483883
v -0.00337677 0.02867686 -0.00557106
v -0.00338259 0.03002475 -0.00483884
v -0.00319370 0.03114253 -0.00355095
v -0.00332375 0.03083926 -0.00469246
v -0.00324676 0.03117066 -0.00570723
v -0.00029946 0.01886686 -0.00278227
v -0.00050383 0.01963186 -0.00278218
v -0.00080280 0.02032781 -0.00278209
v -0.00112486 0.02092391 -0.00278198
v 0.00146338 0.02161671 0.00054554
v 0.00128728 0.02151703 0.00052200
v 0.00110336 0.02143067 0.00044878
v 0.00090709 0.02135441 0.00032624
v 0.00062208 0.02126073 0.00008803
v 0.00018355 0.02113836 -0.00039222
v -0.00041088 0.02100529 -0.00126792
v -0.00086811 0.02093662 -0.00216076
v 0.00204476 0.01911146 0.00047563
v 0.00185944 0.01909133 0.00043543
v 0.00165046 0.01906912 0.00034439
v 0.00143059 0.01904600 0.00020557
v 0.00113693 0.01901530 -0.00004733
v 0.00082374 0.01898256 -0.00041159
v 0.00009492 0.01890604 -0.00175878
v 0.00024036 0.02026675 -0.00079312
v 0.00000549 0.02701548 0.00053705
v 0.00209869 0.02644522 0.00041864
v 0.00146338 0.02161671 0.00054554
v 0.00055316 0.02427796 0.00057138
v 0.00202892 0.02187789 0.00054215
v 0.00258534 0.02200898 0.00050049
v 0.00313933 0.02205255 0.00043245
v 0.00227672 0.02461555 0.00044845
v 0.00262994 0.02328488 0.00044554
v 0.00000549 0.02701549 -0.01021473
v 0.00055316 0.02427796 -0.01024906
v 0.00146338 0.02161671 -0.01022322
v -0.00112486 0.02092392 -0.00689569
v -0.00056520 0.02097801 -0.00813313
v 0.00027022 0.02116092 -0.00939093
v 0.00070930 0.02128787 -0.00984522
v 0.00102086 0.02139702 -0.01007978
v 0.00122507 0.02148581 -0.01018021
v 0.00135645 0.02155445 -0.01021427
v -0.00216571 0.02319167 -0.00690163
v -0.00281198 0.02553596 -0.00691967
v -0.00310852 0.02786387 -0.00693527
v -0.00082231 0.02724210 -0.01010926
v -0.00121794 0.02735075 -0.00996180
v -0.00165498 0.02747070 -0.00967954
v -0.00200827 0.02756740 -0.00932076
v -0.00240264 0.02767470 -0.00872285
v -0.00276430 0.02777214 -0.00792858
v -0.00083942 0.02622920 -0.01009033
v -0.00114117 0.02629692 -0.00995351
v -0.00061037 0.02568820 -0.01013674
v -0.00082946 0.02572429 -0.01005317
v -0.00182878 0.02575416 -0.00915648
v -0.00263736 0.02663812 -0.00793033
v -0.00275887 0.02666340 -0.00761647
v -0.00163468 0.02483272 -0.00904201
v -0.00287789 0.02668837 -0.00728682
v 0.00033649 0.02274599 -0.01004975
v -0.00197054 0.02431117 -0.00818777
v -0.00126429 0.02373101 -0.00900496
v 0.00045063 0.02226497 -0.00998837
v -0.00078508 0.02283827 -0.00913497
v -0.00119425 0.02206204 -0.00799696
v -0.00148591 0.02204695 -0.00740290
v -0.00066697 0.02487062 -0.01000371
v -0.00056359 0.02444885 -0.00997174
v -0.00037758 0.02394520 -0.00995834
v -0.00082285 0.02422636 -0.00971507
v -0.00014142 0.02353257 -0.00999014
v 0.00032783 0.03483169 -0.00908493
v 0.00227982 0.03429989 -0.00897036
v -0.00015292 0.03099195 -0.00991251
v 0.00001664 0.03297712 -0.00956951
v 0.00000549 0.02701549 -0.01021473
v -0.00016042 0.02905210 -0.01010944
v 0.00209869 0.02644522 -0.01009632
v 0.00202160 0.03173557 -0.00956441
v 0.00201343 0.02910312 -0.00992770
v 0.00209869 0.02644522 -0.01009632
v 0.00377245 0.02598841 -0.00969521
v 0.00513707 0.02561208 -0.00900049
v 0.00590188 0.02539669 -0.00834784
v 0.00628355 0.02528535 -0.00781789
v 0.00640160 0.02524938 -0.00756676
v 0.00648902 0.02522194 -0.00732296
v 0.00313933 0.02205255 -0.01011013
v 0.00254275 0.02354966 -0.01012471
v 0.00219508 0.02513047 -0.01012304
v 0.00755706 0.02212911 -0.00746251
v 0.00723129 0.02213926 -0.00817208
v 0.00679979 0.02214360 -0.00872251
v 0.00627260 0.02214071 -0.00914778
v 0.00562044 0.02213029 -0.00949945
v 0.00443834 0.02209959 -0.00988374
v 0.00685395 0.02375465 -0.00738697
v 0.00617191 0.02385596 -0.00854028
v 0.00592797 0.02388899 -0.00876634
v 0.00550781 0.02394452 -0.00907628
v 0.00517194 0.02398819 -0.00927633
v 0.00449595 0.02407508 -0.00959269
v 0.00392703 0.02343391 -0.00986494
v -0.00289527 0.03184000 -0.00278198
v -0.00220972 0.03154303 -0.00108456
v -0.00172820 0.03138554 -0.00040110
v -0.00143252 0.03129926 -0.00013642
v -0.00103518 0.03119244 0.00008534
v -0.00059558 0.03108548 0.00020225
v -0.00015292 0.03099195 0.00023483
v -0.00311946 0.02990355 -0.00274769
v -0.00310852 0.02786387 -0.00274240
v 0.00000549 0.02701548 0.00053705
v -0.00082230 0.02724210 0.00043158
v -0.00121792 0.02735076 0.00028412
v -0.00165497 0.02747070 0.00000187
v -0.00200826 0.02756739 -0.00035690
v -0.00240263 0.02767470 -0.00095481
v -0.00276428 0.02777213 -0.00174906
v -0.00016042 0.02905210 0.00043176
v -0.00104062 0.03029864 0.00020574
v -0.00142302 0.02947276 0.00011630
v -0.00094444 0.02830964 0.00037604
v -0.00116274 0.02838135 0.00029889
v -0.00133993 0.02809209 0.00022242
v -0.00279497 0.03087026 -0.00208239
v -0.00292178 0.02881402 -0.00206622
v -0.00226127 0.03070276 -0.00092231
v -0.00228045 0.03021811 -0.00084458
v -0.00254326 0.02981004 -0.00123822
v -0.00234086 0.02922746 -0.00080836
v -0.00237976 0.02873296 -0.00085180
v -0.00171753 0.03050922 -0.00021762
v 0.00000549 0.02701548 0.00053705
v -0.00082230 0.02724210 0.00043158
v -0.00121792 0.02735076 0.00028412
v -0.00165497 0.02747070 0.00000187
v -0.00200826 0.02756739 -0.00035690
v -0.00240263 0.02767470 -0.00095481
v -0.00276428 0.02777213 -0.00174906
v -0.00310852 0.02786387 -0.00274240
v -0.00263763 0.02474717 -0.00276478
v -0.00202094 0.02280948 -0.00277800
v -0.00112486 0.02092391 -0.00278198
v 0.00146338 0.02161671 0.00054554
v 0.00128728 0.02151703 0.00052200
v 0.00110336 0.02143067 0.00044878
v 0.00090709 0.02135441 0.00032624
v 0.00062208 0.02126073 0.00008803
v 0.00018355 0.02113836 -0.00039222
v -0.00041088 0.02100529 -0.00126792
v -0.00086811 0.02093662 -0.00216076
v 0.00055316 0.02427796 0.00057138
v -0.00083941 0.02622920 0.00041265
v -0.00114116 0.02629692 0.00027583
v -0.00061036 0.02568820 0.00045906
v -0.00082945 0.02572428 0.00037549
v -0.00176542 0.02550568 -0.00052798
v -0.00257390 0.02625337 -0.00174995
v -0.00269838 0.02627628 -0.00206258
v -0.00151847 0.02446292 -0.00064800
v -0.00282043 0.02629903 -0.00239135
v 0.00028771 0.02274001 0.00034536
v 0.00038714 0.02225431 0.00026902
v -0.00184870 0.02393111 -0.00149693
v -0.00119640 0.02354976 -0.00067874
v -0.00076499 0.02271889 -0.00058407
v -0.00113932 0.02187566 -0.00174185
v -0.00134503 0.02186231 -0.00215871
v -0.00062996 0.02475649 0.00032374
v -0.00050309 0.02427989 0.00028972
v -0.00034534 0.02386218 0.00027836
v -0.00075899 0.02405314 0.00003167
v -0.00013655 0.02347826 0.00030091
v -0.00080571 0.03630655 -0.00318924
v -0.00080753 0.03629759 -0.00313995
v -0.00080396 0.03631509 -0.00323825
v -0.00077870 0.03643778 -0.00470360
v -0.00078460 0.03640933 -0.00564744
v -0.00080754 0.03629758 -0.00653779
v -0.00127393 0.03582968 -0.00685055
v -0.00105417 0.03604904 -0.00682248
v -0.00094269 0.03615223 -0.00677409
v -0.00087698 0.03621378 -0.00672136
v -0.00084219 0.03624862 -0.00667509
v -0.00082083 0.03627303 -0.00662701
v -0.00081048 0.03628876 -0.00657909
v -0.00189516 0.03495466 -0.00686554
v -0.00240194 0.03382075 -0.00687938
v -0.00274333 0.03264397 -0.00688925
v -0.00289527 0.03184000 -0.00689569
v -0.00313213 0.03198287 -0.00570178
v -0.00316427 0.03200226 -0.00440428
v -0.00307761 0.03194998 -0.00355948
v -0.00289527 0.03184000 -0.00278198
v -0.00251531 0.03348485 -0.00279505
v -0.00197690 0.03480304 -0.00280997
v -0.00163953 0.03536911 -0.00281858
v -0.00127395 0.03582965 -0.00282712
v -0.00126109 0.03584342 -0.00282741
v -0.00080825 0.03629434 -0.00312284
v -0.00081762 0.03627729 -0.00306163
v -0.00083613 0.03625513 -0.00301362
v -0.00086824 0.03622227 -0.00296606
v -0.00091351 0.03617926 -0.00292356
v -0.00096994 0.03612714 -0.00288832
v -0.00105641 0.03604693 -0.00285455
v -0.00116509 0.03594205 -0.00283334
v -0.00134966 0.03586011 -0.00582013
v -0.00157791 0.03561586 -0.00479348
v -0.00218295 0.03467898 -0.00555075
v -0.00198915 0.03503186 -0.00483883
v -0.00139931 0.03579384 -0.00372680
v -0.00231100 0.03448081 -0.00483883
v -0.00263113 0.03382094 -0.00483883
v -0.00295489 0.03279684 -0.00570311
v -0.00243755 0.03418969 -0.00412323
v -0.00291125 0.03308653 -0.00469350
v 0.00000549 0.02701549 -0.01021473
v -0.00016042 0.02905210 -0.01010944
v -0.00015292 0.03099195 -0.00991251
v -0.00082231 0.02724210 -0.01010926
v -0.00121794 0.02735075 -0.00996180
v -0.00165498 0.02747070 -0.00967954
v -0.00200827 0.02756740 -0.00932076
v -0.00240264 0.02767470 -0.00872285
v -0.00276430 0.02777214 -0.00792858
v -0.00310852 0.02786387 -0.00693527
v -0.00311950 0.02990276 -0.00693000
v -0.00289527 0.03184000 -0.00689569
v -0.00078937 0.03113114 -0.00984180
v -0.00119433 0.03123407 -0.00968995
v -0.00157635 0.03134042 -0.00942482
v -0.00188159 0.03143306 -0.00909698
v -0.00223831 0.03155327 -0.00854048
v -0.00257296 0.03168404 -0.00780547
v -0.00094617 0.03026709 -0.00991556
v -0.00129881 0.03068805 -0.00972370
v -0.00114072 0.03033263 -0.00984318
v -0.00148807 0.02949700 -0.00975308
v -0.00094445 0.02830964 -0.01005372
v -0.00116275 0.02838135 -0.00997657
v -0.00133994 0.02809208 -0.00990009
v -0.00280384 0.03087550 -0.00757047
v -0.00290924 0.03094702 -0.00725964
v -0.00292178 0.02881360 -0.00761145
v -0.00231061 0.03023173 -0.00878226
v -0.00256066 0.02981818 -0.00840324
v -0.00236379 0.02923679 -0.00883108
v -0.00239488 0.02873855 -0.00879989
v 0.00209869 0.02644522 0.00041864
v 0.00227672 0.02461555 0.00044845
v 0.00262994 0.02328488 0.00044554
v 0.00313933 0.02205255 0.00043245
v 0.00648902 0.02522194 -0.00235472
v 0.00627611 0.02528757 -0.00184618
v 0.00587489 0.02540441 -0.00130048
v 0.00522778 0.02558679 -0.00074043
v 0.00434700 0.02583066 -0.00022502
v 0.00328397 0.02612202 0.00017786
v 0.00678656 0.02395860 -0.00230005
v 0.00717670 0.02292250 -0.00225211
v 0.00755706 0.02212911 -0.00221518
v 0.00518446 0.02212047 -0.00000732
v 0.00605249 0.02213787 -0.00039512
v 0.00658827 0.02214324 -0.00076290
v 0.00708714 0.02214168 -0.00128910
v 0.00735319 0.02213623 -0.00172801
v 0.00682701 0.02295680 -0.00150936
v 0.00605565 0.02387180 -0.00102415
v 0.00572476 0.02391600 -0.00075140
v 0.00543848 0.02395357 -0.00055720
v 0.00501002 0.02400910 -0.00031625
v 0.00453469 0.02407012 -0.00010059
v 0.00332388 0.02537349 0.00020606
v -0.00015292 0.03099195 0.00023483
v -0.00016042 0.02905210 0.00043176
v 0.00000549 0.02701548 0.00053705
v 0.00032783 0.03483169 -0.00059275
v 0.00001665 0.03297721 -0.00010819
v 0.00227982 0.03429989 -0.00070732
v 0.00209869 0.02644522 0.00041864
v 0.00199857 0.02998539 0.00015289
v 0.00204294 0.03216887 -0.00019574
v 0.00484880 0.03396243 -0.00651711
v 0.00500027 0.03392204 -0.00539830
v 0.00500027 0.03392204 -0.00427945
v 0.00484881 0.03396243 -0.00316060
v 0.00482754 0.03360929 -0.00269510
v 0.00481100 0.03368972 -0.00270503
v 0.00480254 0.03375021 -0.00272821
v 0.00479841 0.03381153 -0.00276992
v 0.00479924 0.03386751 -0.00282807
v 0.00480471 0.03391331 -0.00289786
v 0.00481408 0.03394508 -0.00297319
v 0.00482636 0.03396134 -0.00304842
v 0.00483738 0.03396448 -0.00310557
v 0.00482880 0.03360373 -0.00269488
v 0.00648902 0.02522194 -0.00235472
v 0.00648902 0.02522194 -0.00732296
v 0.00682938 0.02511430 -0.00566688
v 0.00682938 0.02511430 -0.00401080
v 0.00482879 0.03360377 -0.00698280
v 0.00480410 0.03373639 -0.00695624
v 0.00481073 0.03369124 -0.00697226
v 0.00481924 0.03364702 -0.00698008
v 0.00482303 0.03395863 -0.00664811
v 0.00480935 0.03393240 -0.00673938
v 0.00480042 0.03388255 -0.00682959
v 0.00479819 0.03382240 -0.00689816
v 0.00479993 0.03378010 -0.00693164
v 0.00227982 0.03429989 -0.00897036
v 0.00337949 0.03400045 -0.00861540
v 0.00406931 0.03381301 -0.00818772
v 0.00446410 0.03370548 -0.00778175
v 0.00468812 0.03364369 -0.00739556
v 0.00476529 0.03362195 -0.00719340
v 0.00482879 0.03360377 -0.00698280
v 0.00202160 0.03173557 -0.00956441
v 0.00201343 0.02910312 -0.00992770
v 0.00209869 0.02644522 -0.01009632
v 0.00377245 0.02598841 -0.00969521
v 0.00513707 0.02561208 -0.00900049
v 0.00590188 0.02539669 -0.00834784
v 0.00628355 0.02528535 -0.00781789
v 0.00640160 0.02524938 -0.00756676
v 0.00648902 0.02522194 -0.00732296
v 0.00511853 0.02649655 -0.00889309
v 0.00453337 0.02665819 -0.00926753
v 0.00464949 0.02706582 -0.00914403
v 0.00421800 0.02718421 -0.00938244
v 0.00364627 0.02734053 -0.00963426
v 0.00491684 0.02919178 -0.00856134
v 0.00420600 0.03289988 -0.00830750
v 0.00366676 0.03260638 -0.00876521
v 0.00350031 0.03133383 -0.00911631
v 0.00412021 0.03116690 -0.00877871
v 0.00397840 0.03252253 -0.00857966
v 0.00383050 0.03300109 -0.00857242
v 0.00328275 0.03270997 -0.00895080
v 0.00386490 0.02845241 -0.00940360
v 0.00369486 0.02908449 -0.00939800
v 0.00508179 0.03134225 -0.00772171
v 0.00362270 0.02983635 -0.00931766
v 0.00486294 0.03125823 -0.00807854
v 0.00477892 0.03230501 -0.00783897
v 0.00480657 0.03273496 -0.00761432
v 0.00469563 0.03232821 -0.00794837
v 0.00084937 0.03695269 -0.00652029
v 0.00134631 0.03697424 -0.00651749
v 0.00194121 0.03691757 -0.00651672
v 0.00280756 0.03673664 -0.00651708
v 0.00032783 0.03483169 -0.00908493
v 0.00045971 0.03542004 -0.00884733
v 0.00056409 0.03585233 -0.00853622
v 0.00065072 0.03619510 -0.00816074
v 0.00074291 0.03654788 -0.00760997
v 0.00081398 0.03681619 -0.00700262
v 0.00227982 0.03429989 -0.00897036
v 0.00278474 0.03664280 -0.00693562
v 0.00273308 0.03642613 -0.00741727
v 0.00264550 0.03605196 -0.00793490
v 0.00252944 0.03554077 -0.00840497
v 0.00240112 0.03494068 -0.00875156
v -0.00127393 0.03582968 -0.00685055
v -0.00122463 0.03566696 -0.00755746
v -0.00102698 0.03546371 -0.00821276
v -0.00086050 0.03534144 -0.00850920
v -0.00062857 0.03520254 -0.00876846
v -0.00036894 0.03507544 -0.00893643
v -0.00009912 0.03496673 -0.00902872
v 0.00010580 0.03489696 -0.00906465
v 0.00032783 0.03483169 -0.00908493
v -0.00189516 0.03495466 -0.00686554
v -0.00240194 0.03382075 -0.00687938
v -0.00274333 0.03264397 -0.00688925
v -0.00289527 0.03184000 -0.00689569
v -0.00015292 0.03099195 -0.00991251
v -0.00078937 0.03113114 -0.00984180
v -0.00119433 0.03123407 -0.00968995
v -0.00157635 0.03134042 -0.00942482
v -0.00188159 0.03143306 -0.00909698
v -0.00223831 0.03155327 -0.00854048
v -0.00257296 0.03168404 -0.00780547
v 0.00001664 0.03297712 -0.00956951
v -0.00120399 0.03186804 -0.00957180
v -0.00082136 0.03212188 -0.00966798
v -0.00100313 0.03216075 -0.00960277
v -0.00044472 0.03409369 -0.00926517
v -0.00242939 0.03255040 -0.00777475
v -0.00173205 0.03349238 -0.00863992
v -0.00253075 0.03258374 -0.00750831
v -0.00065716 0.03452335 -0.00906359
v -0.00079669 0.03423001 -0.00911768
v -0.00063325 0.03416388 -0.00919899
v -0.00086119 0.03461883 -0.00892936
v -0.00156186 0.03421386 -0.00850519
v -0.00180922 0.03482425 -0.00750094
v -0.00098800 0.03286460 -0.00944968
v -0.00194153 0.03222354 -0.00880828
v -0.00096482 0.03322470 -0.00936493
v -0.00091883 0.03356362 -0.00928667
v -0.00289527 0.03184000 -0.00278198
v -0.00251531 0.03348485 -0.00279505
v -0.00197690 0.03480304 -0.00280997
v -0.00163953 0.03536911 -0.00281858
v -0.00127395 0.03582965 -0.00282712
v 0.00032783 0.03483169 -0.00059275
v -0.00017133 0.03499381 -0.00066764
v -0.00044859 0.03511180 -0.00078262
v -0.00069307 0.03523835 -0.00096843
v -0.00087684 0.03535242 -0.00119243
v -0.00102518 0.03546224 -0.00146096
v -0.00116709 0.03559492 -0.00186183
v -0.00125383 0.03571588 -0.00231507
v -0.00127627 0.03578386 -0.00261474
v 0.00001665 0.03297721 -0.00010819
v -0.00015292 0.03099195 0.00023483
v -0.00220972 0.03154303 -0.00108456
v -0.00172820 0.03138554 -0.00040110
v -0.00143252 0.03129926 -0.00013642
v -0.00103518 0.03119244 0.00008534
v -0.00059558 0.03108548 0.00020225
v -0.00090968 0.03214055 -0.00003855
v -0.00140040 0.03191399 -0.00023439
v -0.00122206 0.03221042 -0.00018702
v -0.00194700 0.03266712 -0.00102159
v -0.00049410 0.03411152 -0.00042735
v -0.00254906 0.03244284 -0.00214411
v -0.00176671 0.03333915 -0.00101949
v -0.00069444 0.03454005 -0.00063499
v -0.00064790 0.03416965 -0.00048501
v -0.00079471 0.03422922 -0.00055888
v -0.00159267 0.03411388 -0.00115680
v -0.00086814 0.03462232 -0.00075384
v -0.00187851 0.03467519 -0.00216644
v -0.00106579 0.03283596 -0.00025508
v -0.00097766 0.03315339 -0.00029874
v -0.00092799 0.03351605 -0.00038063
v -0.00080571 0.03630655 -0.00318924
v -0.00080753 0.03629759 -0.00313995
v -0.00080396 0.03631509 -0.00323825
v -0.00077870 0.03643778 -0.00470360
v -0.00078460 0.03640933 -0.00564744
v -0.00080754 0.03629758 -0.00653779
v 0.00084937 0.03695269 -0.00652029
v 0.00018240 0.03681726 -0.00652673
v -0.00030066 0.03661774 -0.00653190
v 0.00084937 0.03695269 -0.00315738
v 0.00088825 0.03710108 -0.00425947
v 0.00088825 0.03710108 -0.00541820
v -0.00020127 0.03666676 -0.00314686
v 0.00036336 0.03686826 -0.00315278
v 0.00010428 0.03695057 -0.00447739
v 0.00010470 0.03695485 -0.00506549
v 0.00010240 0.03693103 -0.00553613
v 0.00209869 0.02644522 0.00041864
v 0.00199857 0.02998539 0.00015289
v 0.00204294 0.03216887 -0.00019574
v 0.00227982 0.03429989 -0.00070732
v 0.00482880 0.03360373 -0.00269488
v 0.00468639 0.03364416 -0.00227817
v 0.00445671 0.03370751 -0.00188608
v 0.00409865 0.03380503 -0.00151418
v 0.00360196 0.03393997 -0.00117657
v 0.00298287 0.03410835 -0.00089823
v 0.00648902 0.02522194 -0.00235472
v 0.00627611 0.02528757 -0.00184618
v 0.00587489 0.02540441 -0.00130048
v 0.00522778 0.02558679 -0.00074043
v 0.00434700 0.02583066 -0.00022502
v 0.00328397 0.02612202 0.00017786
v 0.00505552 0.02680720 -0.00078331
v 0.00451445 0.02695641 -0.00043524
v 0.00457903 0.02752482 -0.00055269
v 0.00414162 0.02764456 -0.00031081
v 0.00366182 0.02777554 -0.00009568
v 0.00486152 0.02950026 -0.00113425
v 0.00364557 0.03283153 -0.00094911
v 0.00427433 0.03229660 -0.00127643
v 0.00406658 0.03162067 -0.00095859
v 0.00372020 0.03171382 -0.00075617
v 0.00382815 0.03314794 -0.00113781
v 0.00330334 0.03292392 -0.00078228
v 0.00320509 0.03185277 -0.00051820
v 0.00600439 0.02595309 -0.00159435
v 0.00379558 0.02900832 -0.00031837
v 0.00504980 0.03149754 -0.00196430
v 0.00363204 0.02968736 -0.00034081
v 0.00347420 0.03041351 -0.00038329
v 0.00473391 0.03290145 -0.00200434
v 0.00084937 0.03695269 -0.00315738
v 0.00077371 0.03666403 -0.00230130
v 0.00064880 0.03618762 -0.00150726
v 0.00056186 0.03584335 -0.00113333
v 0.00045597 0.03540411 -0.00082165
v 0.00039131 0.03512210 -0.00069232
v 0.00032783 0.03483169 -0.00059275
v 0.00280757 0.03673664 -0.00316060
v 0.00194121 0.03691757 -0.00316096
v 0.00134575 0.03697426 -0.00316019
v 0.00227982 0.03429989 -0.00070732
v 0.00240112 0.03494068 -0.00092612
v 0.00252944 0.03554077 -0.00127271
v 0.00264550 0.03605196 -0.00174278
v 0.00273308 0.03642613 -0.00226042
v 0.00278474 0.03664280 -0.00274206
v 0.00484881 0.03396243 -0.00316060
v 0.00447773 0.03509715 -0.00315961
v 0.00400045 0.03587544 -0.00315982
v 0.00352711 0.03635566 -0.00316028
v 0.00314588 0.03660296 -0.00316054
v 0.00280757 0.03673664 -0.00316060
v 0.00484880 0.03396243 -0.00651711
v 0.00500027 0.03392204 -0.00539830
v 0.00500027 0.03392204 -0.00427945
v 0.00280756 0.03673664 -0.00651708
v 0.00318786 0.03658112 -0.00651716
v 0.00361741 0.03628009 -0.00651749
v 0.00404666 0.03581600 -0.00651790
v 0.00441554 0.03522480 -0.00651809
v 0.00468171 0.03457760 -0.00651782
v 0.00283852 0.03686253 -0.00465237
v 0.00283286 0.03683948 -0.00558472
v 0.00341870 0.03654301 -0.00390648
v 0.00368269 0.03638689 -0.00477668
v 0.00345125 0.03653719 -0.00558471
v 0.00455024 0.03525472 -0.00465238
v 0.00470463 0.03488913 -0.00539829
v 0.00414975 0.03585848 -0.00549151
v 0.00484880 0.03396243 -0.00651711
v 0.00482303 0.03395863 -0.00664811
v 0.00480935 0.03393240 -0.00673938
v 0.00480042 0.03388255 -0.00682959
v 0.00479819 0.03382240 -0.00689816
v 0.00479993 0.03378010 -0.00693164
v 0.00480410 0.03373639 -0.00695624
v 0.00280756 0.03673664 -0.00651708
v 0.00318786 0.03658112 -0.00651716
v 0.00361741 0.03628009 -0.00651749
v 0.00404666 0.03581600 -0.00651790
v 0.00441554 0.03522480 -0.00651809
v 0.00468171 0.03457760 -0.00651782
v 0.00278474 0.03664280 -0.00693562
v 0.00273308 0.03642613 -0.00741727
v 0.00264550 0.03605196 -0.00793490
v 0.00252944 0.03554077 -0.00840497
v 0.00240112 0.03494068 -0.00875156
v 0.00227982 0.03429989 -0.00897036
v 0.00337949 0.03400045 -0.00861540
v 0.00406931 0.03381301 -0.00818772
v 0.00446410 0.03370548 -0.00778175
v 0.00468812 0.03364369 -0.00739556
v 0.00476529 0.03362195 -0.00719340
v 0.00482879 0.03360377 -0.00698280
v 0.00481073 0.03369124 -0.00697226
v 0.00481924 0.03364702 -0.00698008
v 0.00398367 0.03523810 -0.00752121
v 0.00463942 0.03391146 -0.00734721
v 0.00421936 0.03439338 -0.00781014
v 0.00418477 0.03543439 -0.00692830
v 0.00316301 0.03649128 -0.00691882
v 0.00441899 0.03463161 -0.00729749
v 0.00454287 0.03475876 -0.00683355
v 0.00280757 0.03673664 -0.00316060
v 0.00194121 0.03691757 -0.00316096
v 0.00134575 0.03697426 -0.00316019
v 0.00084937 0.03695269 -0.00315738
v 0.00088825 0.03710108 -0.00425947
v 0.00088825 0.03710108 -0.00541820
v 0.00084937 0.03695269 -0.00652029
v 0.00134631 0.03697424 -0.00651749
v 0.00194121 0.03691757 -0.00651672
v 0.00280756 0.03673664 -0.00651708
v 0.00283852 0.03686253 -0.00465237
v 0.00283286 0.03683948 -0.00558472
v 0.00084937 0.03695269 -0.00652029
v 0.00018240 0.03681726 -0.00652673
v -0.00030066 0.03661774 -0.00653190
v -0.00080754 0.03629758 -0.00653779
v -0.00127393 0.03582968 -0.00685055
v -0.00105417 0.03604904 -0.00682248
v -0.00094269 0.03615223 -0.00677409
v -0.00087698 0.03621378 -0.00672136
v -0.00084219 0.03624862 -0.00667509
v -0.00082083 0.03627303 -0.00662701
v -0.00081048 0.03628876 -0.00657909
v -0.00122463 0.03566696 -0.00755746
v -0.00102698 0.03546371 -0.00821276
v -0.00086050 0.03534144 -0.00850920
v -0.00062857 0.03520254 -0.00876846
v -0.00036894 0.03507544 -0.00893643
v -0.00009912 0.03496673 -0.00902872
v 0.00010580 0.03489696 -0.00906465
v 0.00032783 0.03483169 -0.00908493
v 0.00045971 0.03542004 -0.00884733
v 0.00056409 0.03585233 -0.00853622
v 0.00065072 0.03619510 -0.00816074
v 0.00074291 0.03654788 -0.00760997
v 0.00081398 0.03681619 -0.00700262
v -0.00005158 0.03548146 -0.00880718
v 0.00001197 0.03566876 -0.00868916
v -0.00012863 0.03570042 -0.00864269
v 0.00003203 0.03631730 -0.00789807
v -0.00044993 0.03606027 -0.00805386
v -0.00019863 0.03634478 -0.00770030
v -0.00028880 0.03633615 -0.00763658
v -0.00050887 0.03630552 -0.00743146
v -0.00025351 0.03650633 -0.00715678
v -0.00088033 0.03580385 -0.00795596
v -0.00086862 0.03596162 -0.00767315
v -0.00126109 0.03584342 -0.00282741
v -0.00127395 0.03582965 -0.00282712
v -0.00080825 0.03629434 -0.00312284
v -0.00081762 0.03627729 -0.00306163
v -0.00083613 0.03625513 -0.00301362
v -0.00086824 0.03622227 -0.00296606
v -0.00091351 0.03617926 -0.00292356
v -0.00096994 0.03612714 -0.00288832
v -0.00105641 0.03604693 -0.00285455
v -0.00116509 0.03594205 -0.00283334
v -0.00080753 0.03629759 -0.00313995
v -0.00020127 0.03666676 -0.00314686
v 0.00036336 0.03686826 -0.00315278
v 0.00084937 0.03695269 -0.00315738
v 0.00077371 0.03666403 -0.00230130
v 0.00064880 0.03618762 -0.00150726
v 0.00056186 0.03584335 -0.00113333
v 0.00045597 0.03540411 -0.00082165
v 0.00039131 0.03512210 -0.00069232
v 0.00032783 0.03483169 -0.00059275
v -0.00017133 0.03499381 -0.00066764
v -0.00044859 0.03511180 -0.00078262
v -0.00069307 0.03523835 -0.00096843
v -0.00087684 0.03535242 -0.00119243
v -0.00102518 0.03546224 -0.00146096
v -0.00116709 0.03559492 -0.00186183
v -0.00125383 0.03571588 -0.00231507
v -0.00127627 0.03578386 -0.00261474
v -0.00009175 0.03548740 -0.00087945
v -0.00002690 0.03567257 -0.00099584
v -0.00014101 0.03569881 -0.00103639
v -0.00011502 0.03631111 -0.00184158
v -0.00057265 0.03606973 -0.00177276
v 0.00017277 0.03664034 -0.00249499
v -0.00039036 0.03632390 -0.00212679
v -0.00046444 0.03631299 -0.00219893
v 0.00227982 0.03429989 -0.00070732
v 0.00240112 0.03494068 -0.00092612
v 0.00252944 0.03554077 -0.00127271
v 0.00264550 0.03605196 -0.00174278
v 0.00273308 0.03642613 -0.00226042
v 0.00278474 0.03664280 -0.00274206
v 0.00280757 0.03673664 -0.00316060
v 0.00484881 0.03396243 -0.00316060
v 0.00447773 0.03509715 -0.00315961
v 0.00400045 0.03587544 -0.00315982
v 0.00352711 0.03635566 -0.00316028
v 0.00314588 0.03660296 -0.00316054
v 0.00482754 0.03360929 -0.00269510
v 0.00481100 0.03368972 -0.00270503
v 0.00480254 0.03375021 -0.00272821
v 0.00479841 0.03381153 -0.00276992
v 0.00479924 0.03386751 -0.00282807
v 0.00480471 0.03391331 -0.00289786
v 0.00481408 0.03394508 -0.00297319
v 0.00482636 0.03396134 -0.00304842
v 0.00483738 0.03396448 -0.00310557
v 0.00482880 0.03360373 -0.00269488
v 0.00468639 0.03364416 -0.00227817
v 0.00445671 0.03370751 -0.00188608
v 0.00409865 0.03380503 -0.00151418
v 0.00360196 0.03393997 -0.00117657
v 0.00298287 0.03410835 -0.00089823
v 0.00402834 0.03453559 -0.00171592
v 0.00398367 0.03523810 -0.00215647
v 0.00422147 0.03537872 -0.00275948
f 10 11 12
f 1 12 13
f 1 13 2
f 3 9 10
f 3 10 12
f 3 12 1
f 4 9 3
f 7 8 9
f 7 9 4
f 5 7 4
f 6 7 5
f 16 14 15
f 19 17 18
f 27 29 28
f 27 30 29
f 26 31 30
f 26 30 27
f 25 32 31
f 25 31 26
f 20 21 36
f 24 32 25
f 23 33 32
f 23 32 24
f 37 22 20
f 37 23 22
f 37 34 33
f 37 35 34
f 37 36 35
f 37 33 23
f 37 20 36
f 38 54 53
f 39 53 52
f 39 38 53
f 40 52 51
f 40 39 52
f 45 47 46
f 41 51 50
f 41 40 51
f 42 50 49
f 42 41 50
f 43 49 48
f 43 42 49
f 44 48 47
f 44 47 45
f 44 43 48
f 59 60 61
f 62 58 59
f 62 59 61
f 57 58 62
f 63 56 57
f 63 57 62
f 65 55 56
f 65 56 63
f 64 65 63
f 69 70 81
f 82 79 78
f 83 80 79
f 83 81 80
f 83 69 81
f 83 79 82
f 84 85 82
f 86 83 82
f 86 82 85
f 87 68 69
f 87 69 83
f 87 83 86
f 88 90 89
f 91 77 75
f 92 73 72
f 92 74 73
f 92 75 74
f 92 91 75
f 93 92 72
f 93 88 91
f 93 91 92
f 94 66 67
f 94 71 66
f 94 72 71
f 94 93 72
f 95 76 77
f 95 78 76
f 95 84 82
f 95 82 78
f 96 95 77
f 96 89 84
f 96 88 89
f 96 84 95
f 97 86 85
f 97 68 87
f 97 87 86
f 98 97 85
f 98 85 84
f 98 84 89
f 99 96 77
f 99 77 91
f 99 91 88
f 99 88 96
f 100 67 68
f 100 68 97
f 100 90 67
f 100 89 90
f 100 97 98
f 100 98 89
f 101 67 90
f 101 90 88
f 102 88 93
f 102 101 88
f 103 67 101
f 103 101 102
f 104 94 67
f 104 93 94
f 104 67 103
f 104 102 93
f 104 103 102
f 112 108 107
f 119 121 120
f 123 105 106
f 123 107 105
f 123 122 121
f 123 106 122
f 123 112 107
f 123 121 119
f 124 112 123
f 125 111 112
f 125 112 124
f 126 125 124
f 127 119 118
f 127 124 123
f 127 123 119
f 127 126 124
f 128 127 118
f 128 126 127
f 128 125 126
f 129 118 117
f 129 117 130
f 129 128 118
f 131 130 117
f 131 110 132
f 131 132 130
f 133 109 110
f 133 113 109
f 134 114 113
f 134 133 110
f 134 110 131
f 134 113 133
f 135 131 117
f 135 114 134
f 135 134 131
f 136 115 114
f 136 116 115
f 136 117 116
f 136 114 135
f 136 135 117
f 137 110 111
f 137 111 125
f 137 132 110
f 137 130 132
f 137 125 128
f 137 129 130
f 137 128 129
f 140 138 139
f 148 138 140
f 141 148 140
f 147 141 142
f 147 142 143
f 147 148 141
f 145 143 144
f 146 143 145
f 146 147 143
f 160 162 161
f 167 165 164
f 167 166 165
f 168 167 164
f 169 163 162
f 169 164 163
f 169 162 160
f 169 168 164
f 170 167 168
f 171 151 166
f 171 167 170
f 171 166 167
f 172 170 168
f 173 168 169
f 173 172 168
f 174 160 159
f 174 169 160
f 174 173 169
f 175 177 176
f 178 149 150
f 179 152 149
f 179 153 152
f 179 154 153
f 179 149 178
f 180 178 175
f 180 154 179
f 180 179 178
f 181 155 154
f 181 156 155
f 181 157 156
f 181 158 157
f 181 154 180
f 182 150 151
f 182 151 171
f 182 171 177
f 182 177 175
f 183 174 159
f 183 172 173
f 183 173 174
f 183 170 172
f 184 171 170
f 184 177 171
f 184 170 183
f 185 150 182
f 185 178 150
f 185 175 178
f 185 182 175
f 186 159 158
f 186 158 176
f 186 183 159
f 186 176 177
f 186 184 183
f 186 177 184
f 187 176 158
f 187 175 176
f 188 180 175
f 188 175 187
f 189 187 158
f 189 188 187
f 190 188 189
f 190 158 181
f 190 181 180
f 190 189 158
f 190 180 188
f 201 192 191
f 201 193 192
f 201 194 193
f 201 195 194
f 201 196 195
f 201 197 196
f 201 198 197
f 201 199 198
f 201 200 199
f 205 202 201
f 205 203 202
f 205 204 203
f 205 191 204
f 205 201 191
f 218 207 206
f 218 208 207
f 218 209 208
f 218 210 209
f 218 211 210
f 218 212 211
f 218 213 212
f 218 214 213
f 218 206 219
f 220 215 214
f 220 216 215
f 220 217 216
f 220 218 217
f 220 214 218
f 229 236 237
f 229 237 228
f 221 222 231
f 239 232 233
f 239 238 232
f 240 239 233
f 241 233 234
f 241 240 233
f 242 234 235
f 242 235 236
f 242 241 234
f 242 236 229
f 243 225 226
f 243 226 227
f 243 227 238
f 244 224 225
f 244 225 243
f 245 242 229
f 245 241 242
f 246 222 223
f 246 223 224
f 246 224 244
f 247 229 230
f 247 230 231
f 247 245 229
f 247 222 246
f 247 231 222
f 248 239 240
f 248 246 244
f 248 241 245
f 248 238 239
f 248 244 243
f 248 240 241
f 248 243 238
f 248 245 247
f 248 247 246
f 250 254 253
f 250 249 254
f 251 250 253
f 252 251 253
f 271 275 270
f 274 275 271
f 269 273 268
f 263 255 256
f 262 263 256
f 260 261 264
f 276 258 259
f 276 259 274
f 277 271 272
f 277 274 271
f 277 276 274
f 278 276 277
f 279 256 257
f 279 257 258
f 279 262 256
f 279 258 276
f 280 279 276
f 280 276 278
f 281 267 266
f 281 269 267
f 281 272 273
f 281 277 272
f 281 280 278
f 281 273 269
f 281 278 277
f 282 279 280
f 283 261 262
f 283 262 279
f 283 279 282
f 283 264 261
f 284 265 264
f 284 266 265
f 284 282 280
f 284 280 281
f 284 264 283
f 284 281 266
f 284 283 282
f 286 285 299
f 288 287 296
f 289 288 296
f 303 298 297
f 303 302 298
f 304 302 303
f 305 301 302
f 305 302 304
f 306 299 300
f 306 300 301
f 306 301 305
f 306 286 299
f 307 290 291
f 307 291 292
f 307 297 290
f 308 292 293
f 308 297 307
f 308 307 292
f 309 293 294
f 309 294 295
f 309 308 293
f 310 287 286
f 310 306 305
f 310 286 306
f 311 295 296
f 311 309 295
f 311 287 310
f 311 296 287
f 312 304 303
f 312 303 297
f 312 305 304
f 313 305 312
f 313 297 308
f 313 312 297
f 313 310 305
f 313 308 309
f 313 309 311
f 313 311 310
f 320 318 317
f 320 319 318
f 320 314 319
f 321 315 314
f 321 316 315
f 321 317 316
f 321 320 317
f 321 314 320
f 329 337 336
f 328 336 335
f 328 329 336
f 327 328 335
f 326 335 334
f 326 327 335
f 325 334 333
f 325 326 334
f 324 333 332
f 324 325 333
f 323 324 332
f 330 332 331
f 338 322 323
f 338 330 322
f 338 332 330
f 338 323 332
f 346 342 341
f 347 341 340
f 347 346 341
f 343 340 339
f 344 347 340
f 344 340 343
f 345 347 344
f 361 360 365
f 366 351 350
f 366 363 351
f 366 364 363
f 367 365 364
f 367 361 365
f 367 364 366
f 368 350 349
f 368 366 350
f 369 366 368
f 369 367 366
f 369 361 367
f 370 369 368
f 371 370 368
f 371 368 349
f 372 349 348
f 372 371 349
f 373 362 361
f 373 370 371
f 373 361 369
f 373 369 370
f 373 371 362
f 374 371 372
f 375 372 348
f 375 374 372
f 376 358 362
f 376 362 371
f 376 371 374
f 376 374 375
f 377 348 353
f 377 375 348
f 378 375 377
f 379 359 358
f 379 358 376
f 379 376 375
f 379 375 378
f 380 359 379
f 380 378 377
f 380 379 378
f 381 353 352
f 381 357 356
f 381 352 357
f 382 377 353
f 382 381 356
f 382 380 377
f 382 353 381
f 383 355 354
f 383 356 355
f 383 354 359
f 383 359 380
f 383 382 356
f 383 380 382
f 388 397 396
f 389 398 397
f 389 397 388
f 390 399 398
f 390 398 389
f 391 399 390
f 385 384 402
f 387 386 395
f 403 386 385
f 403 391 392
f 403 392 393
f 403 393 394
f 403 394 395
f 403 400 399
f 403 401 400
f 403 402 401
f 403 399 391
f 403 385 402
f 403 395 386
f 411 405 404
f 407 412 411
f 407 411 404
f 409 410 412
f 408 412 407
f 408 409 412
f 406 408 407
f 432 426 413
f 432 427 426
f 433 428 427
f 433 429 428
f 433 427 432
f 434 413 414
f 434 432 413
f 435 432 434
f 435 433 432
f 436 430 429
f 436 429 433
f 436 433 435
f 437 431 430
f 437 430 436
f 438 431 437
f 439 437 436
f 440 424 425
f 440 425 431
f 440 431 438
f 440 438 424
f 441 414 415
f 442 423 424
f 442 437 439
f 442 424 438
f 442 438 437
f 442 439 443
f 444 419 418
f 444 420 419
f 444 421 420
f 444 422 421
f 444 415 422
f 444 441 415
f 445 444 418
f 445 441 444
f 446 418 417
f 446 423 442
f 446 442 443
f 446 445 418
f 446 443 445
f 447 417 416
f 447 416 423
f 447 423 446
f 447 446 417
f 448 434 414
f 448 439 436
f 448 436 435
f 448 435 434
f 449 448 414
f 450 449 414
f 451 439 448
f 451 443 439
f 451 448 449
f 451 449 450
f 452 414 441
f 452 445 443
f 452 441 445
f 452 450 414
f 452 451 450
f 452 443 451
f 458 459 457
f 458 461 459
f 455 460 461
f 455 461 458
f 456 454 460
f 456 460 455
f 453 454 456
f 478 472 473
f 467 468 478
f 466 467 478
f 462 463 471
f 479 465 466
f 479 473 474
f 479 478 473
f 479 466 478
f 480 464 465
f 480 474 475
f 480 465 479
f 480 479 474
f 481 475 476
f 481 480 475
f 481 464 480
f 482 481 476
f 482 464 481
f 483 463 464
f 483 482 476
f 483 464 482
f 483 471 463
f 484 469 470
f 484 470 471
f 484 476 477
f 484 477 469
f 484 471 483
f 484 483 476
f 502 489 488
f 502 490 489
f 502 491 490
f 502 501 491
f 503 501 502
f 504 495 494
f 504 494 501
f 504 501 503
f 505 504 503
f 506 496 495
f 506 497 496
f 506 498 497
f 506 495 504
f 506 504 505
f 507 486 485
f 507 485 492
f 508 492 493
f 508 493 500
f 509 487 486
f 509 486 507
f 510 509 507
f 511 492 508
f 511 507 492
f 511 510 507
f 512 506 505
f 512 503 510
f 512 510 511
f 512 505 503
f 513 499 498
f 513 500 499
f 513 508 500
f 513 498 506
f 513 506 512
f 513 511 508
f 513 512 511
f 514 488 487
f 514 510 503
f 514 502 488
f 514 503 502
f 514 487 509
f 514 509 510
f 535 515 516
f 535 516 517
f 536 517 518
f 536 518 519
f 536 535 517
f 537 534 515
f 537 515 535
f 538 537 535
f 538 535 536
f 539 519 520
f 539 536 519
f 539 538 536
f 540 520 521
f 540 539 520
f 541 540 521
f 542 539 540
f 543 521 522
f 543 522 523
f 543 523 541
f 543 541 521
f 544 526 534
f 545 527 526
f 545 528 527
f 545 529 528
f 545 530 529
f 545 531 530
f 545 526 544
f 546 523 524
f 546 541 523
f 546 542 540
f 546 540 541
f 546 547 542
f 548 532 531
f 548 531 545
f 548 545 544
f 548 547 546
f 549 533 532
f 549 532 548
f 549 548 546
f 550 524 525
f 550 525 533
f 550 546 524
f 550 533 549
f 550 549 546
f 551 539 542
f 551 537 538
f 551 538 539
f 551 534 537
f 552 534 551
f 553 534 552
f 554 551 542
f 554 542 547
f 554 552 551
f 554 553 552
f 555 544 534
f 555 548 544
f 555 547 548
f 555 534 553
f 555 554 547
f 555 553 554
f 568 567 566
f 561 565 564
f 561 566 565
f 561 568 566
f 563 561 564
f 584 583 582
f 585 582 557
f 585 584 582
f 586 557 556
f 586 585 557
f 587 556 558
f 587 586 556
f 588 587 558
f 589 588 558
f 576 577 575
f 590 559 560
f 590 560 561
f 590 563 562
f 590 562 569
f 590 561 563
f 591 559 590
f 592 569 570
f 592 590 569
f 592 591 590
f 593 591 592
f 594 558 559
f 594 591 593
f 594 578 579
f 594 579 580
f 594 580 581
f 594 581 589
f 594 559 591
f 594 589 558
f 595 593 592
f 596 595 592
f 597 570 571
f 597 571 572
f 597 572 573
f 597 573 574
f 597 596 592
f 597 592 570
f 598 577 578
f 598 593 595
f 598 595 596
f 598 594 593
f 598 578 594
f 599 596 597
f 599 574 575
f 599 577 598
f 599 598 596
f 599 575 577
f 599 597 574
f 618 602 601
f 618 612 602
f 619 613 612
f 619 614 613
f 619 615 614
f 619 612 618
f 620 619 618
f 621 620 618
f 621 618 601
f 622 601 600
f 622 600 603
f 622 621 601
f 623 621 622
f 624 603 604
f 624 604 605
f 624 605 606
f 624 622 603
f 624 623 622
f 625 617 616
f 626 610 611
f 626 611 617
f 626 625 610
f 626 617 625
f 627 608 609
f 627 609 610
f 628 616 615
f 628 615 619
f 628 620 621
f 628 625 616
f 628 619 620
f 629 610 625
f 629 627 610
f 629 625 628
f 630 623 624
f 630 621 623
f 630 628 621
f 630 627 629
f 630 629 628
f 631 606 607
f 631 607 608
f 631 608 627
f 631 624 606
f 631 630 624
f 631 627 630
f 643 649 644
f 637 642 636
f 634 635 645
f 650 643 642
f 650 647 648
f 650 648 649
f 650 649 643
f 651 637 638
f 651 642 637
f 651 650 642
f 651 647 650
f 652 638 639
f 652 646 647
f 652 647 651
f 652 651 638
f 653 652 639
f 653 646 652
f 654 639 640
f 654 645 646
f 654 646 653
f 654 653 639
f 655 633 634
f 655 645 654
f 655 634 645
f 655 654 640
f 656 632 633
f 656 640 641
f 656 641 632
f 656 633 655
f 656 655 640
f 658 663 664
f 658 659 663
f 657 664 665
f 657 658 664
f 661 665 662
f 661 657 665
f 660 661 662
f 670 672 671
f 670 673 672
f 670 674 673
f 679 675 674
f 679 676 675
f 679 677 676
f 679 674 670
f 678 677 679
f 669 678 679
f 668 669 679
f 687 686 685
f 687 692 691
f 687 685 692
f 684 666 667
f 684 688 666
f 684 689 688
f 684 690 689
f 684 691 690
f 684 687 691
f 683 679 680
f 683 668 679
f 682 667 668
f 682 684 667
f 682 668 683
f 681 684 682
f 709 705 704
f 709 706 705
f 709 707 706
f 710 704 703
f 710 709 704
f 711 709 710
f 712 711 710
f 713 702 701
f 713 703 702
f 713 710 703
f 713 712 710
f 714 708 707
f 714 707 709
f 714 709 711
f 715 695 696
f 716 718 717
f 716 719 718
f 720 694 695
f 720 695 715
f 720 715 719
f 720 719 716
f 721 693 694
f 721 700 693
f 721 694 720
f 721 717 700
f 721 716 717
f 721 720 716
f 722 711 712
f 722 713 701
f 722 714 711
f 722 712 713
f 723 722 701
f 723 714 722
f 724 699 708
f 724 708 714
f 725 701 700
f 725 718 714
f 725 723 701
f 725 714 723
f 725 700 717
f 725 717 718
f 726 714 718
f 726 718 719
f 726 724 714
f 727 724 726
f 728 696 697
f 728 697 698
f 728 698 699
f 728 715 696
f 728 699 724
f 728 724 727
f 729 719 715
f 729 726 719
f 729 727 726
f 729 715 728
f 729 728 727
f 735 740 734
f 735 745 740
f 736 744 745
f 736 745 735
f 737 743 744
f 737 744 736
f 738 742 743
f 738 743 737
f 732 733 741
f 732 741 742
f 739 742 738
f 739 732 742
f 731 732 739
f 730 731 739
f 767 760 761
f 767 761 762
f 768 759 760
f 768 766 759
f 768 760 767
f 769 768 767
f 770 752 753
f 770 753 754
f 770 754 766
f 771 764 765
f 772 771 756
f 773 757 756
f 773 758 757
f 773 765 758
f 773 771 765
f 773 756 771
f 774 750 751
f 774 751 752
f 774 776 775
f 774 770 776
f 774 752 770
f 777 748 749
f 777 749 750
f 777 750 774
f 777 774 775
f 778 748 777
f 778 777 775
f 779 746 747
f 779 747 748
f 779 755 746
f 779 756 755
f 779 772 756
f 779 748 778
f 779 778 772
f 780 768 769
f 780 766 768
f 781 762 763
f 781 763 764
f 781 769 767
f 781 780 769
f 781 771 772
f 781 767 762
f 781 764 771
f 781 772 780
f 782 766 780
f 782 780 772
f 783 775 776
f 783 776 770
f 783 770 766
f 783 766 782
f 783 772 778
f 783 778 775
f 783 782 772
f 797 787 796
f 788 787 797
f 805 799 798
f 805 803 804
f 805 804 799
f 806 800 801
f 806 801 802
f 806 802 803
f 806 803 805
f 807 806 805
f 808 806 807
f 808 800 806
f 809 789 790
f 809 798 789
f 810 785 784
f 810 784 800
f 810 811 785
f 810 800 808
f 810 808 811
f 812 790 791
f 812 814 813
f 812 813 809
f 812 809 790
f 815 794 795
f 816 791 792
f 816 792 793
f 816 793 794
f 816 812 791
f 816 794 815
f 816 814 812
f 816 815 814
f 817 786 785
f 817 787 786
f 817 795 796
f 817 815 795
f 817 785 811
f 817 796 787
f 817 811 815
f 818 807 805
f 818 808 807
f 818 805 798
f 818 811 808
f 819 818 798
f 819 811 818
f 820 813 814
f 820 809 813
f 820 798 809
f 820 815 811
f 820 814 815
f 820 819 798
f 820 811 819
f 831 834 830
f 821 822 833
f 823 821 833
f 826 825 829
f 835 824 823
f 835 833 834
f 835 834 831
f 835 823 833
f 836 825 824
f 836 831 832
f 836 824 835
f 836 835 831
f 837 827 828
f 837 828 829
f 837 832 827
f 837 836 832
f 837 825 836
f 837 829 825
f 854 851 850
f 855 852 851
f 855 853 852
f 855 851 854
f 856 855 854
f 857 855 856
f 858 839 838
f 858 838 853
f 858 853 855
f 858 855 857
f 859 856 854
f 860 862 861
f 860 863 862
f 864 845 846
f 864 861 845
f 864 860 861
f 865 841 840
f 865 846 847
f 865 847 841
f 865 840 866
f 865 864 846
f 865 866 863
f 865 863 860
f 865 860 864
f 867 849 848
f 867 850 849
f 867 848 859
f 867 859 854
f 867 854 850
f 868 839 858
f 868 857 856
f 868 856 859
f 868 858 857
f 869 848 842
f 869 859 848
f 869 862 859
f 869 861 862
f 870 839 868
f 870 868 859
f 871 840 839
f 871 859 862
f 871 866 840
f 871 839 870
f 871 862 863
f 871 863 866
f 871 870 859
f 872 842 843
f 872 843 844
f 872 844 845
f 872 869 842
f 872 845 861
f 872 861 869
f 878 883 884
f 878 879 883
f 877 878 884
f 876 884 885
f 876 877 884
f 875 885 886
f 875 876 885
f 874 886 887
f 874 875 886
f 881 887 888
f 881 888 880
f 881 874 887
f 882 874 881
f 873 874 882
f 899 898 905
f 897 890 889
f 895 903 896
f 906 892 891
f 906 893 892
f 906 894 893
f 906 904 894
f 907 904 906
f 908 900 899
f 908 905 904
f 908 904 907
f 908 899 905
f 909 891 890
f 909 906 891
f 909 907 906
f 909 890 897
f 910 897 896
f 910 903 902
f 910 909 897
f 910 896 903
f 911 901 900
f 911 902 901
f 911 909 910
f 911 910 902
f 911 907 909
f 911 908 907
f 911 900 908
f 935 938 936
f 937 938 935
f 924 912 913
f 929 931 930
f 928 931 929
f 919 920 925
f 939 928 927
f 939 932 931
f 939 931 928
f 940 916 917
f 940 917 918
f 940 934 933
f 940 935 934
f 940 918 937
f 940 937 935
f 941 933 932
f 941 940 933
f 941 932 939
f 942 921 922
f 942 922 923
f 942 939 921
f 943 920 921
f 943 926 925
f 943 927 926
f 943 939 927
f 943 921 939
f 943 925 920
f 944 915 916
f 944 941 939
f 944 940 941
f 944 916 940
f 944 939 942
f 945 913 914
f 945 914 915
f 945 923 924
f 945 944 942
f 945 942 923
f 945 924 913
f 945 915 944
f 954 957 955
f 951 953 952
f 951 954 953
f 951 956 957
f 951 957 954
f 950 956 951
f 947 946 956
f 947 956 950
f 948 947 950
f 949 948 950
f 977 976 975
f 959 958 981
f 963 969 962
f 967 960 966
f 968 960 967
f 961 960 968
f 982 974 973
f 982 975 974
f 982 977 975
f 983 978 977
f 983 979 978
f 983 977 982
f 984 972 971
f 984 973 972
f 984 983 982
f 984 982 973
f 985 980 979
f 985 981 980
f 985 959 981
f 985 979 983
f 985 983 984
f 986 984 971
f 986 985 984
f 987 985 986
f 988 987 986
f 989 964 965
f 989 965 966
f 989 988 986
f 990 960 959
f 990 987 988
f 990 989 966
f 990 988 989
f 990 985 987
f 990 959 985
f 990 966 960
f 991 970 969
f 991 971 970
f 991 986 971
f 992 963 964
f 992 989 986
f 992 986 991
f 992 969 963
f 992 964 989
f 992 991 969
f 1013 1012 1011
f 993 994 1020
f 1002 1020 1019
f 1002 993 1020
f 1001 1002 1019
f 996 997 1004
f 995 996 1004
f 1003 995 1004
f 1021 1011 1010
f 1021 1014 1013
f 1021 1013 1011
f 1022 1009 1008
f 1022 1010 1009
f 1022 1021 1010
f 1023 1015 1014
f 1023 1016 1015
f 1023 1014 1021
f 1023 1021 1022
f 1024 1008 1007
f 1024 1022 1008
f 1024 1023 1022
f 1025 1017 1016
f 1025 1018 1017
f 1025 1019 1018
f 1025 1016 1023
f 1025 1001 1019
f 1025 1023 1024
f 1026 1005 1004
f 1026 1006 1005
f 1026 1007 1006
f 1026 1024 1007
f 1027 1024 1026
f 1027 1025 1024
f 1027 1026 1004
f 1028 997 998
f 1028 998 999
f 1028 999 1000
f 1028 1000 1001
f 1028 1001 1025
f 1028 1025 1027
f 1028 1004 997
f 1028 1027 1004
f 1051 1041 1042
f 1051 1050 1041
f 1043 1051 1042
f 1044 1051 1043
f 1052 1051 1044
f 1037 1047 1048
f 1037 1048 1049
f 1037 1049 1036
f 1030 1029 1055
f 1031 1055 1054
f 1031 1030 1055
f 1040 1033 1039
f 1034 1033 1040
f 1035 1034 1040
f 1056 1053 1052
f 1056 1054 1053
f 1056 1052 1044
f 1056 1031 1054
f 1057 1032 1031
f 1057 1033 1032
f 1057 1038 1039
f 1057 1044 1045
f 1057 1031 1056
f 1057 1056 1044
f 1057 1039 1033
f 1058 1037 1038
f 1058 1045 1046
f 1058 1046 1047
f 1058 1057 1045
f 1058 1038 1057
f 1058 1047 1037

