# https://github.com/mikedh/trimesh
v -0.00053712 0.00543067 -0.00763527
v 0.00020126 0.00539800 -0.00763527
v -0.00053712 0.00543067 -0.00963527
v 0.00103400 0.00528401 -0.00963527
v 0.00248000 0.00483502 -0.00963527
v 0.00312352 0.00448471 -0.00963527
v 0.00368734 0.00404431 -0.00963527
v 0.00368734 0.00404432 -0.01333858
v 0.00314880 0.00446830 -0.01321728
v 0.00256533 0.00479540 -0.01301981
v 0.00197292 0.00503622 -0.01274751
v 0.00139264 0.00520600 -0.01240311
v 0.00084368 0.00531800 -0.01198897
v 0.00034889 0.00538407 -0.01150601
v -0.00006873 0.00541690 -0.01094813
v -0.00037441 0.00542856 -0.01032457
v -0.00064454 0.00543059 -0.00926282
v -0.00081919 0.00542796 -0.00818060
v -0.00097537 0.00542307 -0.00608587
v -0.00081919 0.00542796 -0.00398993
v -0.00056935 0.00543081 -0.00252173
v -0.00032296 0.00542727 -0.00171616
v 0.00009272 0.00540656 -0.00098214
v 0.00079054 0.00532659 -0.00022748
v 0.00173399 0.00511319 0.00044528
v 0.00263276 0.00476274 0.00087560
v 0.00318077 0.00444702 0.00105558
v 0.00368734 0.00404430 0.00116804
v 0.00368734 0.00404430 -0.00253527
v 0.00293009 0.00460355 -0.00253527
v 0.00204734 0.00501005 -0.00253527
v 0.00108216 0.00527462 -0.00253527
v 0.00028500 0.00539043 -0.00253527
v -0.00053712 0.00543066 -0.00253527
v -0.00053712 0.00543066 -0.00453527
v 0.00020126 0.00539799 -0.00453527
v 0.00372701 0.00400629 0.00117460
v 0.00368734 0.00404430 0.00116804
v 0.00433517 0.00326721 0.00122595
v 0.00480520 0.00243670 0.00119796
v 0.00517434 0.00149936 0.00112673
v 0.00541645 0.00051975 0.00101992
v 0.00553089 -0.00064984 0.00085347
v 0.00545840 -0.00181842 0.00066636
v 0.00520578 -0.00297128 0.00047822
v 0.00520578 -0.00297128 -0.00253528
v 0.00551782 -0.00123302 -0.00253528
v 0.00542436 0.00047464 -0.00253528
v 0.00495062 0.00210972 -0.00253527
v 0.00441596 0.00314376 -0.00253527
v 0.00368734 0.00404430 -0.00253527
v 0.01065346 -0.00334098 -0.00350571
v 0.00924152 -0.00479735 -0.00350569
v 0.00812931 -0.00592466 -0.00350567
v 0.00585630 -0.00812117 -0.00350564
v 0.00590171 -0.00823165 -0.00608529
v 0.00585630 -0.00812116 -0.00866493
v 0.00812931 -0.00592465 -0.00866489
v 0.00924152 -0.00479734 -0.00866487
v 0.01063081 -0.00332129 -0.00866485
v 0.01315300 -0.00034784 -0.00866494
v 0.01322453 -0.00043982 -0.00608528
v 0.01315300 -0.00034785 -0.00350561
v 0.01231199 -0.00152628 -0.00479678
v 0.01231178 -0.00152644 -0.00737510
v 0.00812931 -0.00592466 -0.00350567
v 0.00585630 -0.00812117 -0.00350564
v 0.00520578 -0.00297128 0.00047822
v 0.00510284 -0.00339337 0.00040265
v 0.00504499 -0.00387160 0.00029609
v 0.00504425 -0.00476965 0.00003818
v 0.00518924 -0.00590561 -0.00042715
v 0.00544075 -0.00694224 -0.00109727
v 0.00563944 -0.00755459 -0.00175414
v 0.00576020 -0.00788032 -0.00235026
v 0.00582552 -0.00804557 -0.00291502
v 0.00541645 0.00051975 0.00101992
v 0.00553089 -0.00064984 0.00085347
v 0.00545840 -0.00181842 0.00066636
v 0.00615032 0.00122481 0.00096811
v 0.00813154 -0.00093061 0.00017327
v 0.00908170 -0.00189135 -0.00044373
v 0.00968658 -0.00248229 -0.00099441
v 0.01014754 -0.00291493 -0.00160143
v 0.01041898 -0.00314977 -0.00214921
v 0.01059292 -0.00328331 -0.00274432
v 0.01064653 -0.00332630 -0.00312196
v 0.01065346 -0.00334098 -0.00350571
v 0.00924152 -0.00479735 -0.00350569
v 0.00698423 -0.00685560 -0.00263593
v 0.00822820 -0.00547022 -0.00226856
v 0.00935293 -0.00446382 -0.00253231
v 0.00984935 -0.00394204 -0.00252684
v 0.00679241 -0.00594496 -0.00129553
v 0.00623194 -0.00569523 -0.00080288
v 0.00674829 -0.00554607 -0.00100174
v 0.00912416 -0.00398688 -0.00158308
v 0.00767965 -0.00422795 -0.00078674
v 0.00892120 -0.00376738 -0.00125882
v 0.00638447 -0.00395579 -0.00013016
v 0.00643753 -0.00375485 -0.00008113
v 0.00658103 -0.00318645 0.00004988
v 0.00561096 -0.00747336 -0.00963529
v 0.00561096 -0.00747336 -0.00763529
v 0.00520578 -0.00297127 -0.00763528
v 0.00506198 -0.00368221 -0.00763528
v 0.00508447 -0.00522097 -0.00763528
v 0.00520578 -0.00297128 -0.00453528
v 0.00561096 -0.00747337 -0.00453529
v 0.00508447 -0.00522097 -0.00453528
v 0.00506198 -0.00368221 -0.00453528
v 0.00561096 -0.00747337 -0.00253529
v 0.00508447 -0.00522097 -0.00253528
v 0.00506198 -0.00368221 -0.00253528
v 0.00520578 -0.00297128 -0.00253528
v 0.00520578 -0.00297128 0.00047822
v 0.00510284 -0.00339337 0.00040265
v 0.00504499 -0.00387160 0.00029609
v 0.00504425 -0.00476965 0.00003818
v 0.00518924 -0.00590561 -0.00042715
v 0.00544075 -0.00694224 -0.00109727
v 0.00563944 -0.00755459 -0.00175414
v 0.00576020 -0.00788032 -0.00235026
v 0.00582552 -0.00804557 -0.00291502
v 0.00585630 -0.00812117 -0.00350564
v 0.00590171 -0.00823165 -0.00608529
v 0.00585630 -0.00812116 -0.00866493
v 0.00520578 -0.00297127 -0.01264878
v 0.00510275 -0.00339381 -0.01257312
v 0.00504499 -0.00387156 -0.01246665
v 0.00504424 -0.00476960 -0.01220875
v 0.00518923 -0.00590554 -0.01174344
v 0.00544073 -0.00694216 -0.01107335
v 0.00563942 -0.00755452 -0.01041651
v 0.00576018 -0.00788026 -0.00982042
v 0.00582551 -0.00804556 -0.00925557
v 0.00520578 -0.00297127 -0.00963528
v 0.00506198 -0.00368220 -0.00963528
v 0.00508447 -0.00522096 -0.00963528
v 0.00924152 -0.00479734 -0.00866487
v 0.01063081 -0.00332129 -0.00866485
v 0.01049586 -0.00320856 -0.00971920
v 0.01032415 -0.00307088 -0.01021924
v 0.00999867 -0.00277821 -0.01079162
v 0.00958697 -0.00238629 -0.01128033
v 0.00890267 -0.00171324 -0.01186071
v 0.00752807 -0.00029904 -0.01264479
v 0.00615032 0.00122483 -0.01313865
v 0.00541644 0.00051976 -0.01319047
v 0.00520578 -0.00297127 -0.01264878
v 0.00545729 -0.00182639 -0.01283561
v 0.00553074 -0.00065861 -0.01302263
v 0.00510275 -0.00339381 -0.01257312
v 0.00504499 -0.00387156 -0.01246665
v 0.00504424 -0.00476960 -0.01220875
v 0.00518923 -0.00590554 -0.01174344
v 0.00544073 -0.00694216 -0.01107335
v 0.00563942 -0.00755452 -0.01041651
v 0.00576018 -0.00788026 -0.00982042
v 0.00582551 -0.00804556 -0.00925557
v 0.00585630 -0.00812116 -0.00866493
v 0.00812931 -0.00592465 -0.00866489
v 0.00698423 -0.00685558 -0.00953468
v 0.00820259 -0.00544424 -0.00998644
v 0.00932220 -0.00443901 -0.00976533
v 0.00677104 -0.00591195 -0.01091408
v 0.00621546 -0.00566598 -0.01139161
v 0.00672405 -0.00550727 -0.01120591
v 0.00906748 -0.00392676 -0.01068573
v 0.00761599 -0.00414038 -0.01145859
v 0.00883415 -0.00367023 -0.01103163
v 0.00640272 -0.00369573 -0.01212040
v 0.00654349 -0.00313081 -0.01224870
v 0.00520578 -0.00297127 -0.00963528
v 0.00520578 -0.00297127 -0.01264878
v 0.00545729 -0.00182639 -0.01283561
v 0.00553074 -0.00065861 -0.01302263
v 0.00541644 0.00051976 -0.01319047
v 0.00507831 0.00178098 -0.01332146
v 0.00452232 0.00297036 -0.01339264
v 0.00415853 0.00351497 -0.01339154
v 0.00372701 0.00400631 -0.01334514
v 0.00368734 0.00404432 -0.01333858
v 0.00368734 0.00404431 -0.00963527
v 0.00438344 0.00319429 -0.00963527
v 0.00490489 0.00221730 -0.00963527
v 0.00525624 0.00122337 -0.00963527
v 0.00549296 -0.00002304 -0.00963528
v 0.00551602 -0.00126112 -0.00963528
v 0.00540372 -0.00215416 -0.00963528
v 0.00467824 0.00474669 0.00112810
v 0.00490589 0.00347521 0.00119550
v 0.00527611 0.00247127 0.00115327
v 0.00567703 0.00181111 0.00107789
v 0.00615032 0.00122481 0.00096811
v 0.00541645 0.00051975 0.00101992
v 0.00372701 0.00400629 0.00117460
v 0.00433517 0.00326721 0.00122595
v 0.00480520 0.00243670 0.00119796
v 0.00517434 0.00149936 0.00112673
v 0.00541644 0.00051976 -0.01319047
v 0.00507831 0.00178098 -0.01332146
v 0.00452232 0.00297036 -0.01339264
v 0.00415853 0.00351497 -0.01339154
v 0.00372701 0.00400631 -0.01334514
v 0.00615032 0.00122483 -0.01313865
v 0.00539335 0.00225160 -0.01330352
v 0.00497397 0.00323319 -0.01336306
v 0.00479354 0.00399399 -0.01335643
v 0.00467824 0.00474671 -0.01329864
v 0.00992033 0.00444866 -0.01274048
v 0.01148293 0.00204418 -0.01203980
v 0.01220988 0.00098392 -0.01142623
v 0.01263627 0.00037260 -0.01083770
v 0.01286886 0.00004299 -0.01033255
v 0.01303475 -0.00018920 -0.00973463
v 0.01311386 -0.00029716 -0.00919516
v 0.01315300 -0.00034784 -0.00866494
v 0.00615032 0.00122483 -0.01313865
v 0.00804001 0.00294380 -0.01295909
v 0.01063081 -0.00332129 -0.00866485
v 0.01049586 -0.00320856 -0.00971920
v 0.01032415 -0.00307088 -0.01021924
v 0.00999867 -0.00277821 -0.01079162
v 0.00958697 -0.00238629 -0.01128033
v 0.00890267 -0.00171324 -0.01186071
v 0.00752807 -0.00029904 -0.01264479
v 0.00997340 0.00132908 -0.01231791
v 0.01001832 0.00268906 -0.01254010
v 0.01129219 0.00125259 -0.01190384
v 0.00814371 0.00757831 0.00080378
v 0.00467824 0.00474669 0.00112810
v 0.00992033 0.00444864 0.00056994
v 0.00909164 0.00584732 0.00077448
v 0.00615032 0.00122481 0.00096811
v 0.00804002 0.00294379 0.00078854
v 0.00490589 0.00347521 0.00119550
v 0.00527611 0.00247127 0.00115327
v 0.00567703 0.00181111 0.00107789
v 0.00877271 0.00449268 0.00076732
v -0.00081919 0.00542796 -0.00818060
v -0.00097537 0.00542307 -0.00608587
v -0.00081919 0.00542796 -0.00398993
v 0.00066035 0.00642393 -0.00818052
v 0.00199809 0.00752279 -0.00818052
v 0.00354625 0.00910568 -0.00818077
v 0.00350344 0.00916938 -0.00608526
v 0.00354625 0.00910567 -0.00398976
v 0.00199809 0.00752279 -0.00399001
v 0.00066035 0.00642392 -0.00399001
v 0.00293290 0.00851873 -0.00503753
v 0.00293290 0.00851873 -0.00713300
v 0.00368734 0.00404432 -0.01333858
v 0.00314880 0.00446830 -0.01321728
v 0.00256533 0.00479540 -0.01301981
v 0.00197292 0.00503622 -0.01274751
v 0.00139264 0.00520600 -0.01240311
v 0.00084368 0.00531800 -0.01198897
v 0.00034889 0.00538407 -0.01150601
v -0.00006873 0.00541690 -0.01094813
v -0.00037441 0.00542856 -0.01032457
v -0.00064454 0.00543059 -0.00926282
v -0.00081919 0.00542796 -0.00818060
v 0.00372701 0.00400631 -0.01334514
v 0.00467824 0.00474671 -0.01329864
v 0.00439484 0.00639248 -0.01292217
v 0.00419153 0.00729099 -0.01246281
v 0.00401896 0.00792292 -0.01191881
v 0.00388317 0.00834727 -0.01134931
v 0.00376968 0.00865403 -0.01072113
v 0.00365545 0.00891461 -0.00982037
v 0.00358896 0.00903877 -0.00900697
v 0.00354625 0.00910568 -0.00818077
v 0.00066035 0.00642393 -0.00818052
v 0.00199809 0.00752279 -0.00818052
v 0.00467824 0.00474669 0.00112810
v 0.00372701 0.00400629 0.00117460
v 0.00368734 0.00404430 0.00116804
v -0.00081919 0.00542796 -0.00398993
v -0.00056935 0.00543081 -0.00252173
v -0.00032296 0.00542727 -0.00171616
v 0.00009272 0.00540656 -0.00098214
v 0.00079054 0.00532659 -0.00022748
v 0.00173399 0.00511319 0.00044528
v 0.00263276 0.00476274 0.00087560
v 0.00318077 0.00444702 0.00105558
v 0.00354625 0.00910567 -0.00398976
v 0.00199809 0.00752279 -0.00399001
v 0.00066035 0.00642392 -0.00399001
v 0.00369925 0.00882100 -0.00195711
v 0.00384409 0.00845791 -0.00101784
v 0.00398420 0.00803745 -0.00038332
v 0.00416352 0.00740103 0.00021481
v 0.00436755 0.00652424 0.00069968
v 0.00452429 0.00571077 0.00096022
v 0.00814371 0.00757833 -0.01297431
v 0.00909163 0.00584733 -0.01294501
v 0.00992033 0.00444866 -0.01274048
v 0.00467824 0.00474671 -0.01329864
v 0.00615032 0.00122483 -0.01313865
v 0.00539335 0.00225160 -0.01330352
v 0.00497397 0.00323319 -0.01336306
v 0.00479354 0.00399399 -0.01335643
v 0.00804001 0.00294380 -0.01295909
v 0.00877271 0.00449270 -0.01293786
v 0.00730523 0.00530468 -0.01315782
v 0.01490891 0.00771969 -0.01206922
v 0.01600348 0.00582893 -0.01121588
v 0.01659505 0.00480731 -0.01041563
v 0.01690965 0.00426399 -0.00973890
v 0.01706275 0.00399937 -0.00919622
v 0.01710861 0.00391987 -0.00889167
v 0.01712385 0.00389322 -0.00866493
v 0.00992033 0.00444866 -0.01274048
v 0.01229436 0.00610938 -0.01243112
v 0.01148293 0.00204418 -0.01203980
v 0.01220988 0.00098392 -0.01142623
v 0.01263627 0.00037260 -0.01083770
v 0.01286886 0.00004299 -0.01033255
v 0.01303475 -0.00018920 -0.00973463
v 0.01311386 -0.00029716 -0.00919516
v 0.01315300 -0.00034784 -0.00866494
v 0.01491145 0.00170940 -0.00866494
v 0.01396300 0.00092036 -0.00965032
v 0.01399394 0.00408446 -0.01153817
v 0.01445016 0.00611707 -0.01187365
v 0.01483564 0.00542385 -0.01157335
v 0.01321677 0.00078977 -0.01057177
v 0.01453290 0.00185583 -0.01003064
v 0.01351295 0.00184704 -0.01096650
v 0.01479809 0.00232365 -0.01018657
v 0.01412636 0.00224213 -0.01073174
v 0.01560686 0.00308208 -0.01001596
v 0.01573882 0.00410877 -0.01061559
v 0.01492257 0.00343758 -0.01081340
v 0.01315300 -0.00034785 -0.00350561
v 0.01491205 0.00171003 -0.00350561
v 0.01712385 0.00389321 -0.00350561
v 0.01315300 -0.00034784 -0.00866494
v 0.01322453 -0.00043982 -0.00608528
v 0.01712385 0.00389322 -0.00866493
v 0.01491145 0.00170940 -0.00866494
v 0.01718134 0.00379186 -0.00608527
v 0.00615032 0.00122481 0.00096811
v 0.00804002 0.00294379 0.00078854
v 0.00992033 0.00444864 0.00056994
v 0.01315300 -0.00034785 -0.00350561
v 0.01304888 -0.00020807 -0.00250833
v 0.01292908 -0.00004140 -0.00201621
v 0.01270262 0.00027829 -0.00145616
v 0.01241275 0.00069206 -0.00099023
v 0.01205421 0.00120902 -0.00058393
v 0.01098790 0.00278156 0.00015187
v 0.01065346 -0.00334098 -0.00350571
v 0.00813154 -0.00093061 0.00017327
v 0.00908170 -0.00189135 -0.00044373
v 0.00968658 -0.00248229 -0.00099441
v 0.01014754 -0.00291493 -0.00160143
v 0.01041898 -0.00314977 -0.00214921
v 0.01059292 -0.00328331 -0.00274432
v 0.01064653 -0.00332630 -0.00312196
v 0.01057543 0.00057190 -0.00021959
v 0.00975322 0.00306462 0.00047360
v 0.01048084 -0.00123152 -0.00083140
v 0.01187199 0.00046897 -0.00078526
v 0.01204021 -0.00044477 -0.00139887
v 0.01153392 -0.00190316 -0.00222092
v 0.00617263 0.01133791 -0.00398975
v 0.00470334 0.01021647 -0.00398976
v 0.00354625 0.00910567 -0.00398976
v 0.00814371 0.00757831 0.00080378
v 0.00767143 0.00848225 0.00061676
v 0.00723496 0.00931783 0.00022502
v 0.00686146 0.01003319 -0.00037069
v 0.00656886 0.01059314 -0.00112722
v 0.00636432 0.01098286 -0.00197784
v 0.00622764 0.01123942 -0.00301308
v 0.00467824 0.00474669 0.00112810
v 0.00369925 0.00882100 -0.00195711
v 0.00384409 0.00845791 -0.00101784
v 0.00398420 0.00803745 -0.00038332
v 0.00416352 0.00740103 0.00021481
v 0.00436755 0.00652424 0.00069968
v 0.00452429 0.00571077 0.00096022
v 0.01309079 0.01086062 0.00012739
v 0.01082391 0.00953148 0.00044831
v 0.00814371 0.00757831 0.00080378
v 0.01490891 0.00771968 -0.00010131
v 0.01418773 0.00896557 0.00011919
v 0.00992033 0.00444864 0.00056994
v 0.01228774 0.00610491 0.00026145
v 0.00909164 0.00584732 0.00077448
v 0.01068870 0.00581636 0.00053525
v 0.01362485 0.00765605 0.00016083
v 0.01277099 0.00949492 0.00028166
v 0.01550385 0.01517639 -0.00398975
v 0.01560064 0.01518605 -0.00399913
v 0.01567450 0.01519420 -0.00402787
v 0.01573316 0.01520118 -0.00406531
v 0.01578807 0.01520816 -0.00411347
v 0.01585752 0.01521780 -0.00419700
v 0.01590972 0.01522665 -0.00429560
v 0.01592902 0.01523147 -0.00436216
v 0.01593700 0.01523569 -0.00443026
v 0.01349800 0.01479713 -0.00398971
v 0.01124726 0.01404545 -0.00398970
v 0.00862017 0.01282381 -0.00398972
v 0.00617263 0.01133791 -0.00398975
v 0.00470334 0.01021647 -0.00398976
v 0.00354625 0.00910567 -0.00398976
v 0.00354625 0.00910568 -0.00818077
v 0.00350344 0.00916938 -0.00608526
v 0.00470459 0.01021754 -0.00818077
v 0.00617263 0.01133791 -0.00818077
v 0.00862017 0.01282382 -0.00818079
v 0.01124726 0.01404546 -0.00818081
v 0.01349804 0.01479714 -0.00818080
v 0.01550394 0.01517641 -0.00818076
v 0.01593751 0.01523716 -0.00771444
v 0.01592619 0.01523063 -0.00781999
v 0.01589256 0.01522342 -0.00791289
v 0.01583393 0.01521439 -0.00800519
v 0.01575498 0.01520389 -0.00808781
v 0.01566810 0.01519346 -0.00814594
v 0.01559294 0.01518525 -0.00817310
v 0.01555152 0.01518107 -0.00817920
v 0.01593751 0.01523716 -0.00445611
v 0.01593740 0.01523666 -0.00444718
v 0.01460731 0.01512347 -0.00608526
v 0.00617263 0.01133791 -0.00818077
v 0.00630834 0.01108873 -0.00985522
v 0.00647872 0.01076522 -0.01071920
v 0.00676451 0.01021884 -0.01158673
v 0.00711839 0.00954109 -0.01224139
v 0.00749770 0.00881478 -0.01266200
v 0.00781444 0.00820858 -0.01286522
v 0.00814371 0.00757833 -0.01297431
v 0.00354625 0.00910568 -0.00818077
v 0.00470459 0.01021754 -0.00818077
v 0.00467824 0.00474671 -0.01329864
v 0.00439484 0.00639248 -0.01292217
v 0.00419153 0.00729099 -0.01246281
v 0.00401896 0.00792292 -0.01191881
v 0.00388317 0.00834727 -0.01134931
v 0.00376968 0.00865403 -0.01072113
v 0.00365545 0.00891461 -0.00982037
v 0.00358896 0.00903877 -0.00900697
v 0.01309079 0.01086063 -0.01229792
v 0.01418773 0.00896558 -0.01228972
v 0.01490891 0.00771969 -0.01206922
v 0.00814371 0.00757833 -0.01297431
v 0.01082391 0.00953149 -0.01261884
v 0.00909163 0.00584733 -0.01294501
v 0.00992033 0.00444866 -0.01274048
v 0.01229436 0.00610938 -0.01243112
v 0.01069166 0.00581851 -0.01270543
v 0.01362776 0.00765781 -0.01233099
v 0.01277099 0.00949493 -0.01245219
v 0.01887511 0.01002517 -0.01114076
v 0.01971216 0.00891283 -0.01048777
v 0.02033588 0.00812805 -0.00967582
v 0.02068605 0.00772877 -0.00898204
v 0.02084890 0.00758242 -0.00850436
v 0.02089673 0.00756363 -0.00831261
v 0.02092463 0.00757375 -0.00819923
v 0.01490891 0.00771969 -0.01206922
v 0.01710516 0.00898840 -0.01166337
v 0.01600348 0.00582893 -0.01121588
v 0.01659505 0.00480731 -0.01041563
v 0.01690965 0.00426399 -0.00973890
v 0.01706275 0.00399937 -0.00919622
v 0.01710861 0.00391987 -0.00889167
v 0.01712385 0.00389322 -0.00866493
v 0.01694398 0.00680599 -0.01115543
v 0.01815317 0.00717038 -0.01069554
v 0.01887232 0.00831599 -0.01075737
v 0.01916146 0.00852028 -0.01067129
v 0.01775325 0.00537957 -0.00992047
v 0.01887518 0.00603700 -0.00939580
v 0.02005956 0.00729273 -0.00930459
v 0.01954423 0.00729949 -0.00981009
v 0.01971980 0.00707527 -0.00947287
v 0.02000631 0.00672642 -0.00862930
v 0.02092463 0.00757374 -0.00397130
v 0.02100479 0.00765629 -0.00398811
v 0.02107061 0.00772240 -0.00402269
v 0.02112869 0.00777884 -0.00407606
v 0.02117907 0.00782570 -0.00414723
v 0.02121720 0.00785875 -0.00423017
v 0.02124061 0.00787597 -0.00431804
v 0.02124938 0.00787942 -0.00438766
v 0.02125260 0.00787724 -0.00445608
v 0.02125260 0.00787724 -0.00771442
v 0.02124425 0.00787794 -0.00783014
v 0.02122234 0.00786288 -0.00792529
v 0.02118666 0.00783252 -0.00800957
v 0.02113811 0.00778779 -0.00808327
v 0.02108101 0.00773266 -0.00814004
v 0.02102026 0.00767201 -0.00817640
v 0.02097205 0.00762276 -0.00819165
v 0.02092463 0.00757375 -0.00819923
v 0.01712385 0.00389322 -0.00866493
v 0.01712385 0.00389321 -0.00350561
v 0.01718134 0.00379186 -0.00608527
v 0.00992033 0.00444864 0.00056994
v 0.01228774 0.00610491 0.00026145
v 0.01490891 0.00771968 -0.00010131
v 0.01712385 0.00389321 -0.00350561
v 0.01708940 0.00395323 -0.00312588
v 0.01699263 0.00412061 -0.00268715
v 0.01681806 0.00442218 -0.00220044
v 0.01654917 0.00488653 -0.00167688
v 0.01618538 0.00551477 -0.00116168
v 0.01559256 0.00653868 -0.00057085
v 0.01315300 -0.00034785 -0.00350561
v 0.01491205 0.00171003 -0.00350561
v 0.01304888 -0.00020807 -0.00250833
v 0.01292908 -0.00004140 -0.00201621
v 0.01270262 0.00027829 -0.00145616
v 0.01241275 0.00069206 -0.00099023
v 0.01205421 0.00120902 -0.00058393
v 0.01098790 0.00278156 0.00015187
v 0.01397606 0.00090393 -0.00258404
v 0.01391987 0.00097852 -0.00233295
v 0.01502505 0.00233449 -0.00224276
v 0.01391752 0.00420501 -0.00056719
v 0.01479801 0.00548509 -0.00056639
v 0.01455440 0.00592288 -0.00037303
v 0.01422696 0.00651422 -0.00015138
v 0.01460376 0.00305443 -0.00133934
v 0.01124726 0.01404545 -0.00398970
v 0.00862017 0.01282381 -0.00398972
v 0.00617263 0.01133791 -0.00398975
v 0.01309079 0.01086062 0.00012739
v 0.01244620 0.01197419 -0.00015907
v 0.01208171 0.01260015 -0.00052674
v 0.01179493 0.01308550 -0.00100704
v 0.01157910 0.01344278 -0.00155044
v 0.01141708 0.01370778 -0.00215414
v 0.01131249 0.01388528 -0.00277959
v 0.01126101 0.01399068 -0.00340323
v 0.01082391 0.00953148 0.00044831
v 0.00814371 0.00757831 0.00080378
v 0.00767143 0.00848225 0.00061676
v 0.00723496 0.00931783 0.00022502
v 0.00686146 0.01003319 -0.00037069
v 0.00656886 0.01059314 -0.00112722
v 0.00636432 0.01098286 -0.00197784
v 0.00622764 0.01123942 -0.00301308
v 0.00818639 0.00967018 0.00028536
v 0.00868740 0.00985329 0.00029632
v 0.00984556 0.01124251 -0.00013715
v 0.00844275 0.01147286 -0.00082362
v 0.01164259 0.01137356 0.00001730
v 0.00946269 0.01189264 -0.00072250
v 0.00709302 0.01164038 -0.00240875
v 0.01143708 0.01169690 -0.00012161
v 0.00930979 0.01214358 -0.00106349
v 0.00747575 0.01194624 -0.00262074
v 0.00920077 0.01231832 -0.00136359
v 0.00891480 0.01263097 -0.00224186
v 0.01011817 0.01338095 -0.00276145
v 0.01006942 0.01342904 -0.00307792
v 0.01686572 0.01287913 -0.00076177
v 0.01509288 0.01194724 -0.00026482
v 0.01309079 0.01086062 0.00012739
v 0.01887511 0.01002515 -0.00102977
v 0.01845398 0.01059629 -0.00086092
v 0.01771335 0.01162215 -0.00073938
v 0.01490891 0.00771968 -0.00010131
v 0.01710514 0.00898837 -0.00050715
v 0.01418773 0.00896557 0.00011919
v 0.01571780 0.00879879 -0.00014954
v 0.01763651 0.01006501 -0.00059080
v 0.01593751 0.01523716 -0.00771444
v 0.01593751 0.01523716 -0.00445611
v 0.01950877 0.01421245 -0.00771441
v 0.01869910 0.01468833 -0.00771445
v 0.01751605 0.01510146 -0.00771443
v 0.01677363 0.01521846 -0.00771442
v 0.01950877 0.01421244 -0.00445611
v 0.01737525 0.01513143 -0.00445609
v 0.01849580 0.01478165 -0.00445607
v 0.01905877 0.01449712 -0.00445608
v 0.01124726 0.01404546 -0.00818081
v 0.01127299 0.01396212 -0.00897550
v 0.01134836 0.01382255 -0.00964710
v 0.01151303 0.01355083 -0.01040322
v 0.01175620 0.01315019 -0.01108027
v 0.01204481 0.01266312 -0.01159332
v 0.01235946 0.01212358 -0.01194248
v 0.01270936 0.01152073 -0.01216926
v 0.01309079 0.01086063 -0.01229792
v 0.00617263 0.01133791 -0.00818077
v 0.00862017 0.01282382 -0.00818079
v 0.00630834 0.01108873 -0.00985522
v 0.00647872 0.01076522 -0.01071920
v 0.00676451 0.01021884 -0.01158673
v 0.00711839 0.00954109 -0.01224139
v 0.00749770 0.00881478 -0.01266200
v 0.00781444 0.00820858 -0.01286522
v 0.00814371 0.00757833 -0.01297431
v 0.01082391 0.00953149 -0.01261884
v 0.00884072 0.00956018 -0.01258708
v 0.00810532 0.00982670 -0.01236985
v 0.00862436 0.00997390 -0.01240824
v 0.00978792 0.01134192 -0.01196409
v 0.00836665 0.01161251 -0.01114699
v 0.01161746 0.01141328 -0.01217294
v 0.01140701 0.01174390 -0.01202497
v 0.00939388 0.01200634 -0.01130439
v 0.00923818 0.01225880 -0.01091640
v 0.00745855 0.01198144 -0.00938507
v 0.01168444 0.01210797 -0.01188031
v 0.00911969 0.01244557 -0.01054107
v 0.01011069 0.01280746 -0.01072324
v 0.00888168 0.01268064 -0.00974110
v 0.01009889 0.01340055 -0.00929217
v 0.01070804 0.01237708 -0.01148891
v 0.01550394 0.01517641 -0.00818076
v 0.01552548 0.01508536 -0.00890786
v 0.01565399 0.01483657 -0.00970858
v 0.01590534 0.01441521 -0.01046105
v 0.01619863 0.01394291 -0.01098334
v 0.01644706 0.01354617 -0.01125014
v 0.01666725 0.01319441 -0.01137215
v 0.01686572 0.01287915 -0.01140875
v 0.01124726 0.01404546 -0.00818081
v 0.01349804 0.01479714 -0.00818080
v 0.01127299 0.01396212 -0.00897550
v 0.01134836 0.01382255 -0.00964710
v 0.01151303 0.01355083 -0.01040322
v 0.01175620 0.01315019 -0.01108027
v 0.01204481 0.01266312 -0.01159332
v 0.01235946 0.01212358 -0.01194248
v 0.01270936 0.01152073 -0.01216926
v 0.01309079 0.01086063 -0.01229792
v 0.01509287 0.01194726 -0.01190570
v 0.01362388 0.01227502 -0.01192480
v 0.01300338 0.01260796 -0.01175023
v 0.01347146 0.01257366 -0.01179631
v 0.01443539 0.01311576 -0.01155132
v 0.01566330 0.01307479 -0.01155137
v 0.01246931 0.01433505 -0.00923579
v 0.01367769 0.01462463 -0.00942455
v 0.01273696 0.01360918 -0.01085729
v 0.01361211 0.01361071 -0.01107458
v 0.01321784 0.01381884 -0.01074014
v 0.01395137 0.01403373 -0.01066649
v 0.01465363 0.01419859 -0.01061340
v 0.01550385 0.01517639 -0.00398975
v 0.01349800 0.01479713 -0.00398971
v 0.01124726 0.01404545 -0.00398970
v 0.01686572 0.01287913 -0.00076177
v 0.01656874 0.01335179 -0.00084038
v 0.01632574 0.01373985 -0.00103279
v 0.01607076 0.01414779 -0.00138338
v 0.01583874 0.01452427 -0.00187002
v 0.01565809 0.01482935 -0.00244514
v 0.01554755 0.01503613 -0.00304878
v 0.01550888 0.01513238 -0.00354070
v 0.01509288 0.01194724 -0.00026482
v 0.01309079 0.01086062 0.00012739
v 0.01244620 0.01197419 -0.00015907
v 0.01208171 0.01260015 -0.00052674
v 0.01179493 0.01308550 -0.00100704
v 0.01157910 0.01344278 -0.00155044
v 0.01141708 0.01370778 -0.00215414
v 0.01131249 0.01388528 -0.00277959
v 0.01126101 0.01399068 -0.00340323
v 0.01364194 0.01223975 -0.00023306
v 0.01303004 0.01255701 -0.00039076
v 0.01349334 0.01253060 -0.00035316
v 0.01440423 0.01317967 -0.00065853
v 0.01560009 0.01319536 -0.00066527
v 0.01247800 0.01430803 -0.00282317
v 0.01370916 0.01452137 -0.00244425
v 0.01463937 0.01487115 -0.00288145
v 0.01278449 0.01350888 -0.00118071
v 0.01364264 0.01354400 -0.00102497
v 0.01326895 0.01370269 -0.00127330
v 0.01398107 0.01396411 -0.00140880
v 0.01465516 0.01419519 -0.00155239
v 0.01686572 0.01287915 -0.01140875
v 0.01798861 0.01123590 -0.01140323
v 0.01854596 0.01047128 -0.01128229
v 0.01887511 0.01002517 -0.01114076
v 0.01509287 0.01194726 -0.01190570
v 0.01309079 0.01086063 -0.01229792
v 0.01418773 0.00896558 -0.01228972
v 0.01490891 0.00771969 -0.01206922
v 0.01710516 0.00898840 -0.01166337
v 0.01772309 0.00994154 -0.01155374
v 0.02181295 0.01182506 -0.00771441
v 0.02217822 0.01107869 -0.00771442
v 0.02233945 0.01041086 -0.00771445
v 0.02234154 0.00983636 -0.00771448
v 0.02221751 0.00930104 -0.00771449
v 0.02198730 0.00881123 -0.00771448
v 0.02164664 0.00832577 -0.00771443
v 0.02125260 0.00787724 -0.00771442
v 0.01887511 0.01002517 -0.01114076
v 0.01991886 0.01064899 -0.01065285
v 0.02068714 0.01112017 -0.01003026
v 0.02124040 0.01146757 -0.00930436
v 0.02159614 0.01169357 -0.00860153
v 0.02176934 0.01180184 -0.00805461
v 0.01971216 0.00891283 -0.01048777
v 0.02033588 0.00812805 -0.00967582
v 0.02068605 0.00772877 -0.00898204
v 0.02084890 0.00758242 -0.00850436
v 0.02089673 0.00756363 -0.00831261
v 0.02092463 0.00757375 -0.00819923
v 0.02124425 0.00787794 -0.00783014
v 0.02122234 0.00786288 -0.00792529
v 0.02118666 0.00783252 -0.00800957
v 0.02113811 0.00778779 -0.00808327
v 0.02108101 0.00773266 -0.00814004
v 0.02102026 0.00767201 -0.00817640
v 0.02097205 0.00762276 -0.00819165
v 0.02119459 0.00792127 -0.00836742
v 0.02175103 0.00866528 -0.00827878
v 0.02151505 0.00872516 -0.00876756
v 0.02182134 0.00887267 -0.00836561
v 0.02188243 0.00920155 -0.00851136
v 0.02057063 0.00950864 -0.01009155
v 0.02189324 0.00944999 -0.00862306
v 0.02092036 0.00976616 -0.00985781
v 0.02187615 0.00971585 -0.00874046
v 0.02215277 0.00952960 -0.00818610
v 0.02027362 0.01004811 -0.01040505
v 0.02217543 0.00988979 -0.00827237
v 0.02065795 0.01030620 -0.01014062
v 0.02176639 0.01025301 -0.00896088
v 0.02067542 0.01057832 -0.01012318
v 0.02205906 0.01103967 -0.00824120
v 0.02212237 0.01109019 -0.00802220
v 0.02182954 0.00860057 -0.00790151
v 0.01490891 0.00771968 -0.00010131
v 0.01710514 0.00898837 -0.00050715
v 0.01887511 0.01002515 -0.00102977
v 0.02092463 0.00757374 -0.00397130
v 0.02089497 0.00756371 -0.00385027
v 0.02084247 0.00758662 -0.00364298
v 0.02074974 0.00766499 -0.00335431
v 0.02060377 0.00781704 -0.00299837
v 0.02031229 0.00815653 -0.00245635
v 0.01984534 0.00874092 -0.00182684
v 0.01939235 0.00933215 -0.00138600
v 0.01712385 0.00389321 -0.00350561
v 0.01708940 0.00395323 -0.00312588
v 0.01699263 0.00412061 -0.00268715
v 0.01681806 0.00442218 -0.00220044
v 0.01654917 0.00488653 -0.00167688
v 0.01618538 0.00551477 -0.00116168
v 0.01559256 0.00653868 -0.00057085
v 0.01691015 0.00686072 -0.00098099
v 0.01812224 0.00721671 -0.00143766
v 0.01885444 0.00834079 -0.00139503
v 0.01919612 0.00847340 -0.00153514
v 0.01753084 0.00490344 -0.00245312
v 0.01779143 0.00531923 -0.00233364
v 0.01888925 0.00601765 -0.00281236
v 0.02007747 0.00727189 -0.00290619
v 0.01959254 0.00723682 -0.00244713
v 0.01970179 0.00709776 -0.00265996
v 0.02000919 0.00672434 -0.00355332
v 0.02181295 0.01182506 -0.00771441
v 0.02181295 0.01182506 -0.00445611
v 0.02217822 0.01107869 -0.00771442
v 0.02233945 0.01041086 -0.00771445
v 0.02234154 0.00983636 -0.00771448
v 0.02221751 0.00930104 -0.00771449
v 0.02198730 0.00881123 -0.00771448
v 0.02164664 0.00832577 -0.00771443
v 0.02125260 0.00787724 -0.00771442
v 0.02125260 0.00787724 -0.00445608
v 0.02217826 0.01107862 -0.00445611
v 0.02233947 0.01041073 -0.00445608
v 0.02234152 0.00983619 -0.00445605
v 0.02221743 0.00930084 -0.00445603
v 0.02198715 0.00881099 -0.00445605
v 0.02164655 0.00832567 -0.00445609
v 0.01950877 0.01421244 -0.00445611
v 0.01945663 0.01418094 -0.00402385
v 0.01923707 0.01406960 -0.00330910
v 0.01880612 0.01385704 -0.00243855
v 0.01820608 0.01356007 -0.00162715
v 0.01759521 0.01325317 -0.00110133
v 0.01722170 0.01306266 -0.00089763
v 0.01686572 0.01287913 -0.00076177
v 0.02181295 0.01182506 -0.00445611
v 0.02092753 0.01300806 -0.00445619
v 0.02027343 0.01364859 -0.00445613
v 0.01887511 0.01002515 -0.00102977
v 0.01991886 0.01064898 -0.00151768
v 0.02068714 0.01112016 -0.00214026
v 0.02124040 0.01146757 -0.00286616
v 0.02159615 0.01169357 -0.00356900
v 0.02176935 0.01180183 -0.00411591
v 0.01845398 0.01059629 -0.00086092
v 0.01771335 0.01162215 -0.00073938
v 0.01942846 0.01126665 -0.00133025
v 0.01910398 0.01200281 -0.00136841
v 0.02044312 0.01279834 -0.00303750
v 0.02059210 0.01293981 -0.00342742
v 0.02022418 0.01361019 -0.00403510
v 0.02073853 0.01193701 -0.00257809
v 0.01978511 0.01207335 -0.00182925
v 0.02009243 0.01210715 -0.00208678
v 0.01950877 0.01421244 -0.00445611
v 0.01950877 0.01421245 -0.00771441
v 0.02181295 0.01182506 -0.00771441
v 0.02092753 0.01300806 -0.00771433
v 0.02027343 0.01364859 -0.00771438
v 0.02181295 0.01182506 -0.00445611
v 0.02092753 0.01300806 -0.00445619
v 0.02027343 0.01364859 -0.00445613
v 0.01593751 0.01523716 -0.00445611
v 0.01737525 0.01513143 -0.00445609
v 0.01849580 0.01478165 -0.00445607
v 0.01905877 0.01449712 -0.00445608
v 0.01950877 0.01421244 -0.00445611
v 0.01593740 0.01523666 -0.00444718
v 0.01593700 0.01523569 -0.00443026
v 0.01550385 0.01517639 -0.00398975
v 0.01560064 0.01518605 -0.00399913
v 0.01567450 0.01519420 -0.00402787
v 0.01573316 0.01520118 -0.00406531
v 0.01578807 0.01520816 -0.00411347
v 0.01585752 0.01521780 -0.00419700
v 0.01590972 0.01522665 -0.00429560
v 0.01592902 0.01523147 -0.00436216
v 0.01686572 0.01287913 -0.00076177
v 0.01656874 0.01335179 -0.00084038
v 0.01632574 0.01373985 -0.00103279
v 0.01607076 0.01414779 -0.00138338
v 0.01583874 0.01452427 -0.00187002
v 0.01565809 0.01482935 -0.00244514
v 0.01554755 0.01503613 -0.00304878
v 0.01550888 0.01513238 -0.00354070
v 0.01945663 0.01418094 -0.00402385
v 0.01923707 0.01406960 -0.00330910
v 0.01880612 0.01385704 -0.00243855
v 0.01820608 0.01356007 -0.00162715
v 0.01759521 0.01325317 -0.00110133
v 0.01722170 0.01306266 -0.00089763
v 0.01896467 0.01449233 -0.00401755
v 0.01886773 0.01446404 -0.00369831
v 0.01810255 0.01438364 -0.00255875
v 0.01755768 0.01371980 -0.00135249
v 0.01741002 0.01387587 -0.00141989
v 0.01723102 0.01356933 -0.00111063
v 0.01768724 0.01465285 -0.00275929
v 0.01759746 0.01496624 -0.00361639
v 0.01748723 0.01476940 -0.00288041
v 0.01703021 0.01381343 -0.00122299
v 0.01705471 0.01459147 -0.00223077
v 0.01700079 0.01500658 -0.00322323
v 0.01679995 0.01508106 -0.00337877
v 0.01655002 0.01495013 -0.00281939
v 0.01590217 0.01513690 -0.00339994
v 0.01582854 0.01512652 -0.00336113
v 0.01645431 0.01520683 -0.00396271
v 0.01686572 0.01287915 -0.01140875
v 0.01752659 0.01321836 -0.01111259
v 0.01814003 0.01352715 -0.01061329
v 0.01864611 0.01377817 -0.00998311
v 0.01905556 0.01397989 -0.00927240
v 0.01933288 0.01411742 -0.00859916
v 0.01947164 0.01418909 -0.00806825
v 0.01949934 0.01420530 -0.00786471
v 0.01950877 0.01421245 -0.00771441
v 0.01550394 0.01517641 -0.00818076
v 0.01552548 0.01508536 -0.00890786
v 0.01565399 0.01483657 -0.00970858
v 0.01590534 0.01441521 -0.01046105
v 0.01619863 0.01394291 -0.01098334
v 0.01644706 0.01354617 -0.01125014
v 0.01666725 0.01319441 -0.01137215
v 0.01593751 0.01523716 -0.00771444
v 0.01592619 0.01523063 -0.00781999
v 0.01589256 0.01522342 -0.00791289
v 0.01583393 0.01521439 -0.00800519
v 0.01575498 0.01520389 -0.00808781
v 0.01566810 0.01519346 -0.00814594
v 0.01559294 0.01518525 -0.00817310
v 0.01555152 0.01518107 -0.00817920
v 0.01869910 0.01468833 -0.00771445
v 0.01751605 0.01510146 -0.00771443
v 0.01677363 0.01521846 -0.00771442
v 0.01892340 0.01439609 -0.00858060
v 0.01817853 0.01427636 -0.00973493
v 0.01789011 0.01452554 -0.00951873
v 0.01776125 0.01490360 -0.00861243
v 0.01726201 0.01347661 -0.01110247
v 0.01739207 0.01375420 -0.01086580
v 0.01765523 0.01467215 -0.00939278
v 0.01713121 0.01363727 -0.01104914
v 0.01721271 0.01446200 -0.01009007
v 0.01711659 0.01495692 -0.00903394
v 0.01684765 0.01506479 -0.00882918
v 0.01661012 0.01491317 -0.00942932
v 0.01596697 0.01514738 -0.00872283
v 0.01585435 0.01513176 -0.00878814
v 0.01695208 0.01517224 -0.00809521
v 0.02181295 0.01182506 -0.00771441
v 0.02092753 0.01300806 -0.00771433
v 0.02027343 0.01364859 -0.00771438
v 0.01950877 0.01421245 -0.00771441
v 0.01686572 0.01287915 -0.01140875
v 0.01752659 0.01321836 -0.01111259
v 0.01814003 0.01352715 -0.01061329
v 0.01864611 0.01377817 -0.00998311
v 0.01905556 0.01397989 -0.00927240
v 0.01933288 0.01411742 -0.00859916
v 0.01947164 0.01418909 -0.00806825
v 0.01949934 0.01420530 -0.00786471
v 0.01798861 0.01123590 -0.01140323
v 0.01854596 0.01047128 -0.01128229
v 0.01887511 0.01002517 -0.01114076
v 0.01991886 0.01064899 -0.01065285
v 0.02068714 0.01112017 -0.01003026
v 0.02124040 0.01146757 -0.00930436
v 0.02159614 0.01169357 -0.00860153
v 0.02176934 0.01180184 -0.00805461
v 0.01954244 0.01114704 -0.01080480
v 0.01918789 0.01188672 -0.01079731
v 0.01992445 0.01235470 -0.01006199
v 0.02035477 0.01271798 -0.00932865
v 0.02052645 0.01287648 -0.00892634
v 0.02063110 0.01297824 -0.00862259
v 0.01887511 0.01002515 -0.00102977
v 0.01991886 0.01064898 -0.00151768
v 0.02068714 0.01112016 -0.00214026
v 0.02124040 0.01146757 -0.00286616
v 0.02159615 0.01169357 -0.00356900
v 0.02176935 0.01180183 -0.00411591
v 0.02181295 0.01182506 -0.00445611
v 0.02217826 0.01107862 -0.00445611
v 0.02233947 0.01041073 -0.00445608
v 0.02234152 0.00983619 -0.00445605
v 0.02221743 0.00930084 -0.00445603
v 0.02198715 0.00881099 -0.00445605
v 0.02164655 0.00832567 -0.00445609
v 0.02125260 0.00787724 -0.00445608
v 0.02092463 0.00757374 -0.00397130
v 0.02100479 0.00765629 -0.00398811
v 0.02107061 0.00772240 -0.00402269
v 0.02112869 0.00777884 -0.00407606
v 0.02117907 0.00782570 -0.00414723
v 0.02121720 0.00785875 -0.00423017
v 0.02124061 0.00787597 -0.00431804
v 0.02124938 0.00787942 -0.00438766
v 0.02089497 0.00756371 -0.00385027
v 0.02084247 0.00758662 -0.00364298
v 0.02074974 0.00766499 -0.00335431
v 0.02060377 0.00781704 -0.00299837
v 0.02031229 0.00815653 -0.00245635
v 0.01984534 0.00874092 -0.00182684
v 0.01939235 0.00933215 -0.00138600
v 0.02116258 0.00786922 -0.00383607
v 0.02124002 0.00794840 -0.00387223
v 0.02150133 0.00854359 -0.00353985
v 0.02171713 0.00858644 -0.00392291
v 0.02179572 0.00878766 -0.00384121
v 0.02150741 0.00893750 -0.00324622
v 0.02184442 0.00896515 -0.00376459
v 0.02188186 0.00919595 -0.00366168
v 0.02059483 0.00946254 -0.00210997
v 0.02189295 0.00946922 -0.00353887
v 0.02212096 0.00935406 -0.00402564
v 0.02090961 0.00978994 -0.00229861
v 0.02187371 0.00973640 -0.00342116
v 0.02033303 0.00994343 -0.00181942
v 0.02071135 0.01020194 -0.00207839
v 0.02217523 0.00990361 -0.00389485
v 0.02176202 0.01026820 -0.00320387
v 0.02071281 0.01050677 -0.00207539
v 0.02205909 0.01103960 -0.00392933
v 0.02212240 0.01109013 -0.00414833
v 0.02180054 0.00855716 -0.00427236
v 0.00549295 -0.00153454 -0.00763528
v 0.00520578 -0.00297127 -0.00763528
v 0.00549295 -0.00153455 -0.00453528
v 0.00520578 -0.00297128 -0.00453528
f 7 9 8
f 6 10 9
f 6 11 10
f 6 9 7
f 5 12 11
f 5 13 12
f 5 11 6
f 4 14 13
f 4 15 14
f 4 13 5
f 16 15 4
f 3 16 4
f 19 1 2
f 19 18 1
f 36 19 2
f 35 19 36
f 20 19 35
f 27 29 28
f 27 30 29
f 21 20 34
f 26 30 27
f 22 34 33
f 22 21 34
f 25 31 30
f 25 30 26
f 23 22 33
f 23 33 32
f 24 31 25
f 24 23 32
f 24 32 31
f 1 17 3
f 1 18 17
f 16 3 17
f 34 20 35
f 44 46 45
f 44 47 46
f 43 48 47
f 43 47 44
f 42 48 43
f 41 49 48
f 41 48 42
f 40 50 49
f 40 49 41
f 39 50 40
f 37 51 50
f 37 50 39
f 38 51 37
f 59 52 53
f 59 60 52
f 56 54 55
f 58 53 54
f 58 59 53
f 58 54 56
f 57 58 56
f 64 62 63
f 64 63 52
f 65 60 61
f 65 61 62
f 65 52 60
f 65 62 64
f 65 64 52
f 87 89 88
f 77 78 81
f 80 77 81
f 90 67 66
f 90 74 75
f 90 75 76
f 90 76 67
f 91 66 89
f 91 90 66
f 92 91 89
f 93 86 85
f 93 87 86
f 93 89 87
f 93 92 89
f 94 73 74
f 94 90 91
f 94 74 90
f 95 71 72
f 95 72 73
f 95 73 94
f 96 95 94
f 97 85 84
f 97 92 93
f 97 91 92
f 97 93 85
f 98 91 97
f 98 94 91
f 98 96 94
f 99 83 82
f 99 84 83
f 99 98 97
f 99 82 98
f 99 97 84
f 100 69 70
f 100 70 71
f 100 71 95
f 100 95 96
f 100 96 98
f 101 68 69
f 101 69 100
f 101 100 98
f 102 78 79
f 102 79 68
f 102 82 81
f 102 68 101
f 102 98 82
f 102 81 78
f 102 101 98
f 103 134 135
f 136 103 135
f 127 103 136
f 139 131 132
f 139 132 133
f 139 133 134
f 139 134 103
f 126 104 127
f 138 129 130
f 138 130 131
f 138 131 139
f 107 104 126
f 137 128 129
f 137 129 138
f 125 109 126
f 110 107 126
f 110 126 109
f 112 124 123
f 112 125 124
f 122 112 123
f 111 106 107
f 111 107 110
f 113 112 122
f 121 113 122
f 108 105 106
f 108 106 111
f 120 113 121
f 119 113 120
f 119 114 113
f 118 114 119
f 117 114 118
f 117 115 114
f 116 115 117
f 103 127 104
f 109 125 112
f 149 147 152
f 148 147 149
f 163 159 158
f 163 160 159
f 163 161 160
f 163 162 161
f 164 140 162
f 164 162 163
f 165 141 140
f 165 142 141
f 165 143 142
f 165 140 164
f 166 158 157
f 166 164 163
f 166 163 158
f 167 156 155
f 167 157 156
f 167 166 157
f 168 166 167
f 169 144 143
f 169 143 165
f 169 165 164
f 170 164 166
f 170 169 164
f 170 166 168
f 171 145 144
f 171 146 145
f 171 170 146
f 171 169 170
f 171 144 169
f 172 153 150
f 172 154 153
f 172 155 154
f 172 167 155
f 172 168 167
f 172 170 168
f 173 147 146
f 173 150 151
f 173 151 152
f 173 146 170
f 173 170 172
f 173 152 147
f 173 172 150
f 190 175 174
f 190 176 175
f 189 177 176
f 189 176 190
f 188 178 177
f 188 177 189
f 187 179 178
f 187 178 188
f 186 180 179
f 186 179 187
f 185 181 180
f 185 182 181
f 185 180 186
f 184 183 182
f 184 182 185
f 200 196 195
f 194 200 195
f 193 199 200
f 193 200 194
f 192 198 199
f 192 199 193
f 191 197 198
f 191 198 192
f 202 206 201
f 207 206 202
f 203 207 202
f 208 207 203
f 209 203 204
f 209 208 203
f 210 204 205
f 210 209 204
f 217 221 222
f 217 218 221
f 216 222 223
f 216 217 222
f 215 223 224
f 215 216 223
f 214 215 224
f 220 227 219
f 228 226 227
f 228 227 220
f 229 211 212
f 229 220 211
f 229 228 220
f 230 212 213
f 230 213 214
f 230 224 225
f 230 225 226
f 230 229 212
f 230 214 224
f 230 228 229
f 230 226 228
f 236 238 239
f 236 239 235
f 240 231 232
f 240 233 234
f 240 234 231
f 240 236 233
f 240 232 237
f 240 237 238
f 240 238 236
f 245 250 249
f 242 243 250
f 244 250 245
f 244 242 250
f 241 242 244
f 251 248 247
f 251 249 248
f 252 246 245
f 252 247 246
f 252 245 249
f 252 251 247
f 252 249 251
f 266 253 254
f 266 264 253
f 266 265 264
f 267 254 255
f 267 255 256
f 267 266 254
f 268 256 257
f 268 267 256
f 274 261 262
f 274 262 263
f 269 257 258
f 269 268 257
f 270 258 259
f 270 269 258
f 275 259 260
f 275 260 261
f 275 261 274
f 275 270 259
f 271 270 275
f 272 271 275
f 273 272 275
f 295 277 276
f 295 278 277
f 295 286 278
f 294 285 286
f 294 286 295
f 293 284 285
f 293 285 294
f 292 284 293
f 289 279 280
f 289 280 281
f 291 283 284
f 291 284 292
f 288 281 282
f 288 289 281
f 290 282 283
f 290 288 282
f 290 283 291
f 287 288 290
f 304 300 301
f 305 297 298
f 305 298 304
f 306 296 297
f 306 299 296
f 306 301 302
f 306 302 303
f 306 303 299
f 306 304 301
f 306 305 304
f 306 297 305
f 312 313 323
f 315 316 314
f 324 320 319
f 324 321 320
f 324 322 321
f 324 323 322
f 325 316 315
f 326 307 308
f 326 315 307
f 326 325 315
f 326 308 327
f 326 327 325
f 328 318 317
f 328 319 318
f 328 324 319
f 329 323 324
f 329 324 328
f 330 317 316
f 330 316 325
f 330 328 317
f 330 329 328
f 331 323 329
f 332 330 325
f 332 331 329
f 332 329 330
f 333 310 311
f 333 311 312
f 333 312 323
f 333 323 331
f 334 308 309
f 334 309 310
f 334 327 308
f 334 310 333
f 335 332 325
f 335 325 327
f 335 331 332
f 335 333 331
f 335 327 334
f 335 334 333
f 337 343 338
f 340 337 336
f 342 341 343
f 342 343 337
f 342 337 340
f 339 342 340
f 345 344 355
f 362 352 353
f 362 355 356
f 362 345 355
f 363 346 345
f 363 353 346
f 363 345 362
f 363 362 353
f 364 356 357
f 364 357 358
f 364 362 356
f 365 350 351
f 365 351 352
f 365 362 364
f 365 352 362
f 366 348 349
f 366 349 350
f 366 350 365
f 366 365 364
f 367 347 348
f 367 354 347
f 367 358 359
f 367 359 360
f 367 360 361
f 367 361 354
f 367 364 358
f 367 348 366
f 367 366 364
f 371 384 378
f 372 383 384
f 372 384 371
f 373 382 383
f 373 383 372
f 374 381 382
f 374 382 373
f 375 380 381
f 375 381 374
f 376 379 380
f 376 380 375
f 369 370 379
f 369 379 376
f 377 369 376
f 368 369 377
f 386 387 392
f 393 390 391
f 393 392 390
f 393 386 392
f 394 388 389
f 394 391 388
f 394 386 393
f 394 393 391
f 395 385 386
f 395 389 385
f 395 386 394
f 395 394 389
f 428 402 403
f 428 403 404
f 427 400 401
f 427 401 402
f 427 402 428
f 399 400 427
f 398 399 427
f 397 398 427
f 396 397 427
f 421 419 420
f 422 419 421
f 423 419 422
f 424 419 423
f 425 419 424
f 426 419 425
f 418 419 426
f 416 406 405
f 416 407 406
f 416 405 417
f 415 408 407
f 415 407 416
f 414 408 415
f 412 409 408
f 412 410 409
f 412 408 414
f 413 412 414
f 411 412 413
f 429 405 396
f 429 418 417
f 429 427 419
f 429 396 427
f 429 417 405
f 429 419 418
f 436 440 441
f 436 437 440
f 435 441 442
f 435 436 441
f 434 442 443
f 434 435 442
f 433 443 444
f 433 434 443
f 432 444 445
f 432 433 444
f 439 446 447
f 439 447 438
f 431 445 446
f 431 446 439
f 431 432 445
f 430 431 439
f 452 453 451
f 456 454 453
f 456 455 454
f 456 453 452
f 457 449 450
f 457 450 455
f 457 456 452
f 457 455 456
f 458 448 449
f 458 452 448
f 458 449 457
f 458 457 452
f 474 466 467
f 474 468 466
f 474 469 468
f 475 474 467
f 476 467 459
f 476 475 467
f 477 459 460
f 477 460 461
f 477 476 459
f 478 470 469
f 478 471 470
f 478 474 475
f 478 469 474
f 479 472 471
f 479 473 472
f 479 478 475
f 479 471 478
f 480 461 462
f 480 462 463
f 481 479 475
f 481 476 477
f 481 477 461
f 481 482 479
f 481 461 480
f 481 475 476
f 481 480 482
f 483 463 464
f 483 464 465
f 483 465 473
f 483 479 482
f 483 473 479
f 483 480 463
f 483 482 480
f 484 503 504
f 491 488 487
f 491 489 488
f 491 490 489
f 492 485 484
f 492 486 485
f 492 487 486
f 492 491 487
f 501 504 502
f 501 484 504
f 493 492 484
f 493 484 501
f 500 493 501
f 499 493 500
f 498 493 499
f 497 494 493
f 497 493 498
f 496 495 494
f 496 494 497
f 509 516 508
f 506 505 522
f 523 515 516
f 523 517 515
f 524 518 517
f 524 519 518
f 524 520 519
f 524 517 523
f 525 509 510
f 525 510 511
f 525 524 523
f 525 516 509
f 525 523 516
f 526 522 521
f 526 506 522
f 527 512 513
f 527 513 514
f 528 526 527
f 528 527 514
f 528 506 526
f 529 507 506
f 529 514 507
f 529 528 514
f 529 506 528
f 530 511 512
f 530 521 520
f 530 520 524
f 530 527 526
f 530 512 527
f 530 524 525
f 530 526 521
f 530 525 511
f 550 545 544
f 550 546 545
f 551 543 542
f 551 544 543
f 551 550 544
f 552 551 542
f 553 547 546
f 553 550 551
f 553 551 552
f 553 546 550
f 554 534 535
f 554 542 534
f 554 552 542
f 555 553 552
f 556 548 547
f 556 549 548
f 556 547 553
f 557 535 536
f 557 536 537
f 557 554 535
f 557 537 555
f 557 555 552
f 557 552 554
f 558 537 538
f 558 555 537
f 558 553 555
f 559 532 533
f 559 533 549
f 559 556 553
f 559 549 556
f 560 558 538
f 560 553 558
f 561 532 559
f 561 559 553
f 561 553 560
f 562 538 539
f 562 539 540
f 562 560 538
f 562 561 560
f 563 531 532
f 563 540 541
f 563 541 531
f 563 562 540
f 563 532 561
f 563 561 562
f 565 566 572
f 564 565 569
f 573 570 571
f 573 572 570
f 573 565 572
f 574 567 568
f 574 568 569
f 574 571 567
f 574 565 573
f 574 569 565
f 574 573 571
f 577 584 581
f 578 583 584
f 578 584 577
f 579 582 583
f 579 583 578
f 580 576 582
f 580 582 579
f 575 576 580
f 604 601 600
f 604 602 601
f 604 603 602
f 605 599 598
f 605 600 599
f 605 604 600
f 606 604 605
f 607 603 604
f 607 604 606
f 608 598 597
f 608 605 598
f 608 607 606
f 608 606 605
f 609 592 593
f 609 593 603
f 609 603 607
f 610 609 607
f 611 607 608
f 612 611 608
f 613 594 595
f 613 596 594
f 613 597 596
f 613 608 597
f 614 589 590
f 614 590 591
f 614 591 592
f 614 609 610
f 614 592 609
f 615 612 608
f 616 588 589
f 616 611 612
f 616 612 615
f 617 613 595
f 617 615 608
f 617 608 613
f 617 616 615
f 618 585 586
f 618 586 587
f 618 587 588
f 618 595 585
f 618 588 616
f 618 616 617
f 618 617 595
f 619 607 611
f 619 610 607
f 619 611 616
f 619 589 614
f 619 616 589
f 619 614 610
f 620 621 629
f 639 637 636
f 639 638 637
f 640 635 634
f 640 636 635
f 640 639 636
f 641 639 640
f 642 639 641
f 642 638 639
f 643 624 625
f 643 625 626
f 643 626 627
f 643 627 638
f 643 638 642
f 644 628 629
f 644 630 628
f 644 631 630
f 644 632 631
f 645 621 622
f 645 644 629
f 645 629 621
f 646 633 632
f 646 634 633
f 646 640 634
f 646 632 644
f 647 641 640
f 647 642 641
f 647 640 646
f 648 646 644
f 648 644 645
f 648 647 646
f 649 642 647
f 649 648 645
f 649 647 648
f 650 622 623
f 650 623 624
f 650 645 622
f 650 643 642
f 650 624 643
f 650 642 649
f 650 649 645
f 671 663 662
f 671 664 663
f 672 665 664
f 672 664 671
f 673 672 671
f 674 673 671
f 674 671 662
f 675 654 655
f 675 655 656
f 675 656 657
f 675 662 654
f 675 674 662
f 676 652 653
f 676 669 668
f 676 670 669
f 676 653 670
f 677 652 676
f 678 651 652
f 678 659 660
f 678 660 661
f 678 661 651
f 678 652 677
f 679 666 665
f 679 667 666
f 679 668 667
f 679 665 672
f 679 676 668
f 680 672 673
f 680 673 674
f 680 679 672
f 681 676 679
f 681 677 676
f 681 679 680
f 682 680 674
f 682 677 681
f 682 681 680
f 683 657 658
f 683 658 659
f 683 674 675
f 683 682 674
f 683 659 678
f 683 678 677
f 683 675 657
f 683 677 682
f 692 691 690
f 688 690 689
f 684 685 688
f 693 685 686
f 693 686 687
f 693 687 692
f 693 692 690
f 693 690 688
f 693 688 685
f 712 720 713
f 719 720 712
f 700 701 714
f 721 711 710
f 721 712 711
f 721 717 718
f 721 718 719
f 721 719 712
f 722 716 717
f 722 717 721
f 723 710 709
f 723 722 721
f 723 721 710
f 724 722 723
f 725 724 723
f 726 709 708
f 727 725 723
f 728 723 709
f 728 709 726
f 729 727 723
f 729 723 728
f 730 697 698
f 730 724 725
f 730 725 727
f 731 702 703
f 731 708 702
f 731 726 708
f 731 728 726
f 732 696 697
f 732 727 729
f 732 697 730
f 732 730 727
f 733 728 731
f 734 729 728
f 734 732 729
f 734 728 733
f 735 703 704
f 735 704 705
f 735 731 703
f 735 705 734
f 735 733 731
f 735 734 733
f 736 705 706
f 736 706 707
f 736 732 734
f 736 734 705
f 737 694 695
f 737 695 696
f 737 707 694
f 737 696 732
f 737 736 707
f 737 732 736
f 738 698 699
f 738 699 700
f 738 714 715
f 738 715 716
f 738 722 724
f 738 716 722
f 738 700 714
f 738 724 730
f 738 730 698
f 757 740 739
f 757 755 754
f 757 756 755
f 757 739 756
f 758 740 757
f 759 741 740
f 759 740 758
f 760 747 748
f 760 748 749
f 760 749 741
f 760 741 759
f 761 752 751
f 761 753 752
f 761 754 753
f 762 758 757
f 762 754 761
f 762 757 754
f 763 751 750
f 763 762 761
f 763 761 751
f 763 758 762
f 764 745 746
f 764 746 747
f 765 747 760
f 765 763 766
f 765 759 758
f 765 760 759
f 765 758 763
f 765 764 747
f 765 766 764
f 767 742 743
f 767 743 744
f 767 744 745
f 767 750 742
f 767 763 750
f 767 745 764
f 767 766 763
f 767 764 766
f 776 783 777
f 775 782 783
f 775 783 776
f 774 781 782
f 774 782 775
f 773 780 781
f 773 781 774
f 772 779 780
f 772 780 773
f 771 778 779
f 771 779 772
f 770 769 778
f 770 778 771
f 768 769 770
f 801 795 796
f 790 791 802
f 789 790 802
f 793 800 792
f 784 785 794
f 803 796 797
f 803 802 801
f 803 801 796
f 804 788 789
f 804 789 802
f 804 802 803
f 805 786 787
f 806 799 800
f 806 786 805
f 806 800 793
f 807 785 786
f 807 793 794
f 807 786 806
f 807 806 793
f 807 794 785
f 808 797 798
f 808 798 799
f 808 806 805
f 808 799 806
f 809 787 788
f 809 805 787
f 809 804 803
f 809 788 804
f 810 808 805
f 810 805 809
f 810 803 797
f 810 809 803
f 810 797 808
f 813 817 816
f 814 817 813
f 815 818 817
f 815 817 814
f 812 811 818
f 812 818 815
f 822 842 823
f 835 834 847
f 824 820 819
f 825 820 824
f 833 820 825
f 826 841 827
f 848 822 821
f 848 842 822
f 849 843 842
f 849 844 843
f 849 848 821
f 849 842 848
f 850 844 849
f 851 845 844
f 851 846 845
f 851 844 850
f 852 851 850
f 853 847 846
f 853 851 852
f 853 835 847
f 853 846 851
f 854 850 849
f 855 821 820
f 855 854 849
f 855 849 821
f 856 854 855
f 857 836 835
f 857 837 836
f 857 853 852
f 857 835 853
f 858 838 837
f 858 850 854
f 858 857 852
f 858 837 857
f 858 852 850
f 858 854 856
f 859 856 855
f 860 859 855
f 861 839 838
f 861 838 858
f 861 858 856
f 861 856 859
f 861 859 860
f 862 828 827
f 862 829 828
f 862 830 829
f 862 861 860
f 863 840 839
f 863 841 840
f 863 862 827
f 863 839 861
f 863 827 841
f 863 861 862
f 864 831 830
f 864 832 831
f 864 833 832
f 864 855 820
f 864 830 862
f 864 820 833
f 864 860 855
f 864 862 860
f 889 873 872
f 882 881 891
f 874 888 875
f 892 870 869
f 892 871 870
f 892 872 871
f 892 889 872
f 893 868 867
f 893 869 868
f 893 892 869
f 894 892 893
f 895 890 889
f 895 892 894
f 895 889 892
f 896 866 865
f 896 867 866
f 896 865 880
f 897 893 867
f 897 867 896
f 898 895 894
f 899 879 878
f 899 880 879
f 899 896 880
f 899 897 896
f 900 878 877
f 900 898 894
f 900 893 897
f 900 894 893
f 900 899 878
f 900 897 899
f 901 895 898
f 901 898 900
f 902 895 901
f 903 877 876
f 903 901 900
f 903 900 877
f 903 902 901
f 904 885 884
f 904 886 885
f 904 884 902
f 904 902 903
f 905 876 875
f 905 887 886
f 905 888 887
f 905 903 876
f 905 886 904
f 905 875 888
f 905 904 903
f 906 883 882
f 906 884 883
f 906 891 890
f 906 895 902
f 906 882 891
f 906 902 884
f 906 890 895
f 920 922 921
f 912 919 911
f 908 907 926
f 918 909 917
f 910 909 918
f 927 920 919
f 927 923 922
f 927 922 920
f 928 912 913
f 928 919 912
f 928 927 919
f 929 913 914
f 929 924 923
f 929 927 928
f 929 923 927
f 929 928 913
f 930 914 915
f 930 925 924
f 930 924 929
f 930 929 914
f 931 915 916
f 931 925 930
f 931 930 915
f 932 909 908
f 932 916 917
f 932 926 925
f 932 931 916
f 932 925 931
f 932 908 926
f 932 917 909
f 948 955 947
f 945 953 954
f 945 954 946
f 962 948 949
f 962 956 955
f 962 957 956
f 962 955 948
f 963 949 950
f 963 950 951
f 963 962 949
f 964 958 957
f 964 962 963
f 964 957 962
f 965 964 963
f 965 963 951
f 966 964 965
f 967 959 958
f 967 958 964
f 968 967 964
f 968 964 966
f 969 967 968
f 970 960 959
f 970 961 960
f 970 959 967
f 971 967 969
f 972 943 942
f 972 968 966
f 972 969 968
f 972 971 969
f 973 970 967
f 974 967 971
f 974 973 967
f 975 934 933
f 975 933 961
f 975 961 970
f 975 970 973
f 976 975 973
f 977 942 941
f 977 972 942
f 977 971 972
f 977 974 971
f 978 974 977
f 978 973 974
f 978 976 973
f 979 935 934
f 979 936 935
f 979 976 978
f 979 934 975
f 979 978 936
f 979 975 976
f 980 937 936
f 980 938 937
f 980 936 978
f 980 978 977
f 981 939 938
f 981 940 939
f 981 941 940
f 981 980 977
f 981 977 941
f 981 938 980
f 982 944 943
f 982 945 944
f 982 951 952
f 982 952 953
f 982 965 951
f 982 966 965
f 982 953 945
f 982 943 972
f 982 972 966
f 986 983 984
f 985 983 986

