# https://github.com/mikedh/trimesh
v 0.00108630 0.01734244 -0.01022275
v 0.00039229 0.01756953 -0.00999423
v -0.00031429 0.01786280 -0.00958758
v -0.00095445 0.01819077 -0.00905044
v -0.00147899 0.01851827 -0.00844151
v -0.00186751 0.01881321 -0.00779843
v -0.00212738 0.01905330 -0.00710566
v -0.00290779 0.01536888 -0.00709702
v -0.00349202 0.00967670 -0.00709708
v -0.00367088 0.00372812 -0.00710520
v 0.00106459 0.00678129 -0.01060826
v -0.00044219 0.00575991 -0.01023786
v -0.00185029 0.00483640 -0.00942944
v -0.00295641 0.00413973 -0.00836501
v -0.00336284 0.00389686 -0.00777853
v 0.00099161 0.01187745 -0.01033611
v -0.00131878 0.00715405 -0.00969529
v -0.00221922 0.00655860 -0.00905097
v -0.00237388 0.00747299 -0.00886258
v -0.00171438 0.00793438 -0.00938122
v -0.00293330 0.00706865 -0.00829958
v -0.00079589 0.00935626 -0.00986148
v -0.00159650 0.01093933 -0.00926788
v -0.00143692 0.01352756 -0.00918407
v -0.00225252 0.01243284 -0.00859451
v -0.00130154 0.01522493 -0.00913504
v -0.00282176 0.00876597 -0.00831449
v -0.00272646 0.01038979 -0.00828331
v -0.00237804 0.01447524 -0.00821753
v 0.00618139 0.02984680 -0.00768199
v 0.00634191 0.03014765 -0.00667268
v 0.00605102 0.03010735 -0.00767247
v 0.00605102 0.03010735 -0.00767247
v 0.00572062 0.03003879 -0.00838204
v 0.00533457 0.02994831 -0.00888102
v 0.00485908 0.02982750 -0.00928430
v 0.00427295 0.02967044 -0.00962574
v 0.00335029 0.02941193 -0.00997564
v 0.00248642 0.02916069 -0.01017919
v 0.00158580 0.02889036 -0.01032009
v 0.00295060 0.02552444 -0.01019154
v 0.00304577 0.02526234 -0.01018057
v 0.00410270 0.02690656 -0.00995540
v 0.00618139 0.02984680 -0.00768199
v 0.00599650 0.02954465 -0.00834316
v 0.00575145 0.02917728 -0.00884574
v 0.00547247 0.02877807 -0.00920267
v 0.00481351 0.02786710 -0.00968505
v 0.00250522 0.02063561 -0.01026627
v 0.00237733 0.02272125 -0.01027488
v 0.00258390 0.02401998 -0.01025247
v 0.00304577 0.02526234 -0.01018057
v 0.00299570 0.01706349 -0.01028299
v 0.00189322 0.01716841 -0.01030129
v 0.00108630 0.01734244 -0.01022275
v 0.00102681 0.02083126 -0.01026345
v 0.00068954 0.02467092 -0.01036327
v 0.00295060 0.02552444 -0.01019154
v 0.00299570 0.01706349 -0.01028299
v 0.00343843 0.01386707 -0.01036975
v 0.00189322 0.01716841 -0.01030129
v 0.00108630 0.01734244 -0.01022275
v 0.00099161 0.01187745 -0.01033611
v 0.00106459 0.00678129 -0.01060826
v 0.00129667 0.00694026 -0.01064065
v 0.00355515 0.01131834 -0.01047922
v 0.00318202 0.00951226 -0.01058901
v 0.00258829 0.00825069 -0.01066565
v 0.00201300 0.00752272 -0.01068656
v 0.00202171 0.01551221 -0.01034352
v -0.00212738 0.01905329 -0.00299195
v -0.00290779 0.01536888 -0.00300059
v -0.00349202 0.00967670 -0.00300053
v -0.00367088 0.00372812 -0.00299241
v -0.00333477 0.00391314 -0.00227114
v -0.00288252 0.00418506 -0.00164335
v -0.00218152 0.00462447 -0.00093741
v -0.00130330 0.00519109 -0.00029363
v -0.00036109 0.00581408 0.00017202
v 0.00034445 0.00628967 0.00038535
v 0.00106459 0.00678129 0.00051065
v 0.00108630 0.01734244 0.00012515
v 0.00099162 0.01188198 0.00023834
v 0.00039229 0.01756953 -0.00010338
v -0.00031429 0.01786280 -0.00051003
v -0.00095445 0.01819077 -0.00104716
v -0.00147899 0.01851827 -0.00165609
v -0.00186751 0.01881321 -0.00229918
v -0.00106784 0.00731204 -0.00026024
v -0.00152394 0.00701274 -0.00052942
v -0.00202672 0.00667973 -0.00088916
v -0.00171438 0.00793438 -0.00071639
v -0.00204119 0.00770946 -0.00095722
v -0.00234045 0.00749694 -0.00120548
v -0.00271984 0.00722336 -0.00156585
v -0.00306082 0.00697638 -0.00195095
v -0.00079585 0.00935788 -0.00023621
v -0.00159637 0.01094185 -0.00082981
v -0.00143675 0.01352991 -0.00091360
v -0.00225239 0.01243454 -0.00150314
v -0.00130141 0.01522636 -0.00096260
v -0.00282176 0.00876597 -0.00178312
v -0.00272637 0.01039115 -0.00181432
v -0.00237791 0.01447640 -0.00188009
v 0.00618139 0.02984680 -0.00241562
v 0.00605102 0.03010735 -0.00242514
v 0.00634191 0.03014765 -0.00342493
v 0.00304591 0.02526263 0.00008293
v 0.00410270 0.02690656 -0.00014220
v 0.00495781 0.02806423 -0.00049154
v 0.00553017 0.02885963 -0.00095731
v 0.00578129 0.02922086 -0.00130015
v 0.00592392 0.02943321 -0.00157579
v 0.00607108 0.02966276 -0.00197849
v 0.00618139 0.02984680 -0.00241562
v 0.00605102 0.03010735 -0.00242514
v 0.00572061 0.03003878 -0.00171556
v 0.00533456 0.02994831 -0.00121658
v 0.00485908 0.02982750 -0.00081330
v 0.00427293 0.02967044 -0.00047187
v 0.00335028 0.02941193 -0.00012197
v 0.00248641 0.02916069 0.00008158
v 0.00158580 0.02889036 0.00022249
v 0.00295060 0.02552444 0.00009394
v 0.00368055 0.02885013 -0.00014675
v 0.00250522 0.02063561 0.00016866
v 0.00299570 0.01706349 0.00018538
v 0.00189322 0.01716841 0.00020368
v 0.00108630 0.01734244 0.00012515
v 0.00102681 0.02083122 0.00016584
v 0.00068954 0.02467092 0.00026567
v 0.00295060 0.02552444 0.00009394
v 0.00304591 0.02526263 0.00008293
v 0.00252622 0.02378258 0.00016194
v 0.00236432 0.02221245 0.00017822
v 0.00108630 0.01734244 0.00012515
v 0.00099162 0.01188198 0.00023834
v 0.00106459 0.00678129 0.00051065
v 0.00129667 0.00694026 0.00054305
v 0.00199642 0.00750602 0.00058882
v 0.00256290 0.00821124 0.00056999
v 0.00298621 0.00900431 0.00052405
v 0.00336449 0.01014601 0.00045083
v 0.00356751 0.01147389 0.00037321
v 0.00357044 0.01267313 0.00031612
v 0.00343843 0.01386707 0.00027214
v 0.00299570 0.01706349 0.00018538
v 0.00189322 0.01716841 0.00020368
v 0.00202171 0.01551221 0.00024592
v 0.00634191 0.03014765 -0.00667268
v 0.00640422 0.03037257 -0.00505927
v 0.00605102 0.03010735 -0.00767247
v 0.00522261 0.03210949 -0.00759693
v 0.00474781 0.03398475 -0.00753292
v 0.00509999 0.03392628 -0.00587684
v 0.00509999 0.03392628 -0.00422077
v 0.00474781 0.03398475 -0.00256469
v 0.00605102 0.03010735 -0.00242514
v 0.00522260 0.03210949 -0.00250067
v 0.00634191 0.03014765 -0.00342493
v 0.00640422 0.03037257 -0.00503834
v -0.00212738 0.01905330 -0.00710566
v -0.00226392 0.01919267 -0.00646338
v -0.00234214 0.01927250 -0.00577001
v -0.00236758 0.01929848 -0.00504880
v -0.00397489 0.00365455 -0.00504880
v -0.00378977 0.00989578 -0.00504880
v -0.00314942 0.01581167 -0.00504880
v -0.00397487 0.00365421 -0.00505927
v -0.00367088 0.00372812 -0.00710520
v -0.00384853 0.00364945 -0.00643882
v -0.00394378 0.00362917 -0.00575475
v -0.00290779 0.01536888 -0.00709702
v -0.00349202 0.00967670 -0.00709708
v -0.00343092 0.01302729 -0.00616283
v -0.00397487 0.00365421 -0.00503834
v -0.00397489 0.00365455 -0.00504880
v -0.00392013 0.00363046 -0.00411713
v -0.00382567 0.00365791 -0.00354836
v -0.00367088 0.00372812 -0.00299241
v -0.00212738 0.01905329 -0.00299195
v -0.00290779 0.01536888 -0.00300059
v -0.00349202 0.00967670 -0.00300053
v -0.00226392 0.01919267 -0.00363423
v -0.00234212 0.01927250 -0.00432760
v -0.00236758 0.01929848 -0.00504880
v -0.00378977 0.00989578 -0.00504880
v -0.00314942 0.01581167 -0.00504880
v -0.00343092 0.01302729 -0.00393478
v 0.00158580 0.02889036 -0.01032009
v 0.00084256 0.02860280 -0.01040560
v 0.00038337 0.02830826 -0.01043334
v -0.00007892 0.02788327 -0.01043318
v 0.00068954 0.02467092 -0.01036327
v 0.00295060 0.02552444 -0.01019154
v -0.00166521 0.02375165 -0.00710536
v -0.00096090 0.02402416 -0.00879278
v -0.00041155 0.02423906 -0.00963393
v 0.00006865 0.02442665 -0.01009026
v 0.00039868 0.02455595 -0.01028290
v 0.00055188 0.02461630 -0.01033776
v 0.00068954 0.02467092 -0.01036327
v -0.00212738 0.01905330 -0.00710566
v -0.00165045 0.02078224 -0.00710534
v -0.00151991 0.02223343 -0.00710528
v 0.00108630 0.01734244 -0.01022275
v 0.00039229 0.01756953 -0.00999423
v -0.00031429 0.01786280 -0.00958758
v -0.00095445 0.01819077 -0.00905044
v -0.00147899 0.01851827 -0.00844151
v -0.00186751 0.01881321 -0.00779843
v 0.00102681 0.02083126 -0.01026345
v 0.00045813 0.01888403 -0.01001520
v 0.00012270 0.01896258 -0.00983065
v -0.00075335 0.01970072 -0.00903200
v 0.00030343 0.02309436 -0.01009645
v -0.00002702 0.02295961 -0.00984641
v -0.00107179 0.02135246 -0.00833607
v -0.00068946 0.02073649 -0.00903184
v -0.00066803 0.02175305 -0.00903518
v -0.00073087 0.02266940 -0.00896075
v 0.00013239 0.02135480 -0.00988080
v -0.00212738 0.01905330 -0.00710566
v -0.00165045 0.02078224 -0.00710534
v -0.00151991 0.02223343 -0.00710528
v -0.00166521 0.02375165 -0.00710536
v -0.00264840 0.02630152 -0.00710565
v -0.00209576 0.02517145 -0.00710549
v -0.00297795 0.02624093 -0.00504880
v -0.00289879 0.02625549 -0.00612179
v -0.00236758 0.01929848 -0.00504880
v -0.00188763 0.02134221 -0.00504880
v -0.00192772 0.02330105 -0.00504880
v -0.00235598 0.02492909 -0.00504880
v -0.00226392 0.01919267 -0.00646338
v -0.00234214 0.01927250 -0.00577001
v -0.00264840 0.02630152 -0.00710565
v -0.00208592 0.02651522 -0.00834310
v -0.00125362 0.02697119 -0.00960089
v -0.00081840 0.02725216 -0.01005518
v -0.00051095 0.02747709 -0.01028975
v -0.00031067 0.02764765 -0.01039017
v -0.00018266 0.02777282 -0.01042423
v -0.00007892 0.02788327 -0.01043318
v -0.00209576 0.02517145 -0.00710549
v -0.00166521 0.02375165 -0.00710536
v -0.00096090 0.02402416 -0.00879278
v -0.00041155 0.02423906 -0.00963393
v 0.00006865 0.02442665 -0.01009026
v 0.00039868 0.02455595 -0.01028290
v 0.00055188 0.02461630 -0.01033776
v 0.00068954 0.02467092 -0.01036327
v 0.00158580 0.02889036 -0.01032009
v 0.00068385 0.03142624 -0.01033644
v 0.00036157 0.03310328 -0.01033029
v 0.00021688 0.03451749 -0.01030629
v 0.00084256 0.02860280 -0.01040560
v 0.00038337 0.02830826 -0.01043334
v -0.00007892 0.02788327 -0.01043318
v -0.00194243 0.03475410 -0.01042469
v -0.00126788 0.03150022 -0.01046184
v -0.00551995 0.04064666 -0.00504880
v -0.00549533 0.03588961 -0.00504880
v -0.00486254 0.03146409 -0.00504880
v -0.00408892 0.02876897 -0.00504880
v -0.00297795 0.02624093 -0.00504880
v -0.00522484 0.04049105 -0.00710565
v -0.00539260 0.04057951 -0.00646338
v -0.00548868 0.04063017 -0.00577001
v -0.00515479 0.03510613 -0.00714523
v -0.00531248 0.03783707 -0.00713996
v -0.00264840 0.02630152 -0.00710565
v -0.00386477 0.02907955 -0.00711159
v -0.00468733 0.03205971 -0.00712963
v -0.00289879 0.02625549 -0.00612179
v -0.00194243 0.03475410 -0.01042469
v -0.00126788 0.03150022 -0.01046184
v -0.00007892 0.02788327 -0.01043318
v -0.00264840 0.02630152 -0.00710565
v -0.00208592 0.02651522 -0.00834310
v -0.00125362 0.02697119 -0.00960089
v -0.00081840 0.02725216 -0.01005518
v -0.00051095 0.02747709 -0.01028975
v -0.00031067 0.02764765 -0.01039017
v -0.00018266 0.02777282 -0.01042423
v -0.00386477 0.02907955 -0.00711159
v -0.00468733 0.03205971 -0.00712963
v -0.00515479 0.03510613 -0.00714523
v -0.00279645 0.03484916 -0.01031922
v -0.00320464 0.03489504 -0.01017176
v -0.00365555 0.03494562 -0.00988950
v -0.00402003 0.03498615 -0.00953072
v -0.00442684 0.03503055 -0.00893282
v -0.00479984 0.03506996 -0.00813855
v -0.00307352 0.03361183 -0.01016249
v -0.00250797 0.03297704 -0.01034577
v -0.00273369 0.03297308 -0.01026288
v -0.00373635 0.03271430 -0.00936867
v -0.00458986 0.03358151 -0.00814029
v -0.00471464 0.03358476 -0.00782643
v -0.00349520 0.03158218 -0.00925631
v -0.00135794 0.02925086 -0.01026166
v -0.00378246 0.03074494 -0.00839942
v -0.00304886 0.03019283 -0.00921929
v -0.00248430 0.02905801 -0.00934754
v -0.00280045 0.02781001 -0.00820692
v -0.00253269 0.03191615 -0.01021664
v -0.00241088 0.03139851 -0.01018613
v -0.00219127 0.03076423 -0.01017321
v -0.00265246 0.03101370 -0.00993044
v -0.00191577 0.03024019 -0.01020417
v -0.00217815 0.04531524 -0.00929489
v -0.00016452 0.04509458 -0.00918032
v -0.00238862 0.04004573 -0.01012247
v -0.00235974 0.04275024 -0.00977946
v -0.00194243 0.03475410 -0.01042469
v 0.00021688 0.03451749 -0.01030629
v -0.00025299 0.04258071 -0.00963130
v -0.00017259 0.03982782 -0.00998326
v 0.00021688 0.03451749 -0.01030629
v 0.00196112 0.03432524 -0.00989886
v 0.00337758 0.03416378 -0.00919318
v 0.00416420 0.03406800 -0.00853289
v 0.00455130 0.03401561 -0.00799888
v 0.00466318 0.03399857 -0.00776274
v 0.00474781 0.03398475 -0.00753292
v 0.00158580 0.02889036 -0.01032009
v 0.00068385 0.03142624 -0.01033644
v 0.00036157 0.03310328 -0.01033029
v 0.00605102 0.03010735 -0.00767247
v 0.00572062 0.03003879 -0.00838204
v 0.00533457 0.02994831 -0.00888102
v 0.00485908 0.02982750 -0.00928430
v 0.00427295 0.02967044 -0.00962574
v 0.00335029 0.02941193 -0.00997564
v 0.00248642 0.02916069 -0.01017919
v 0.00522261 0.03210949 -0.00759693
v 0.00523389 0.03089904 -0.00848404
v 0.00208446 0.03310186 -0.00994583
v -0.00341331 0.04719067 -0.00504880
v -0.00442673 0.04528070 -0.00504880
v -0.00523912 0.04262213 -0.00504880
v -0.00551995 0.04064666 -0.00504880
v -0.00343253 0.04699430 -0.00674775
v -0.00387087 0.04624930 -0.00706051
v -0.00366425 0.04659885 -0.00703244
v -0.00355885 0.04676533 -0.00698405
v -0.00349678 0.04686442 -0.00693132
v -0.00346408 0.04691990 -0.00688505
v -0.00344421 0.04695803 -0.00683697
v -0.00343487 0.04698173 -0.00678906
v -0.00461665 0.04432619 -0.00708100
v -0.00507199 0.04206370 -0.00709686
v -0.00522484 0.04049105 -0.00710565
v -0.00539260 0.04057951 -0.00646338
v -0.00548868 0.04063017 -0.00577001
v -0.00194243 0.03475410 -0.01042469
v -0.00238862 0.04004573 -0.01012247
v -0.00279645 0.03484916 -0.01031922
v -0.00320464 0.03489504 -0.01017176
v -0.00365555 0.03494562 -0.00988950
v -0.00402003 0.03498615 -0.00953072
v -0.00442684 0.03503055 -0.00893282
v -0.00479984 0.03506996 -0.00813855
v -0.00515479 0.03510613 -0.00714523
v -0.00531248 0.03783707 -0.00713996
v -0.00522484 0.04049105 -0.00710565
v -0.00304271 0.04007181 -0.01005176
v -0.00345993 0.04010767 -0.00989991
v -0.00385418 0.04015391 -0.00963478
v -0.00416974 0.04020113 -0.00930694
v -0.00453974 0.04027240 -0.00874980
v -0.00488744 0.04036323 -0.00801543
v -0.00506308 0.03922100 -0.00778013
v -0.00494869 0.03916128 -0.00807281
v -0.00491522 0.03638950 -0.00812844
v -0.00503408 0.03642661 -0.00782142
v -0.00432672 0.03960854 -0.00917321
v -0.00407993 0.03816506 -0.00958180
v -0.00432503 0.03707955 -0.00930134
v -0.00455794 0.03686707 -0.00893114
v -0.00422912 0.03562335 -0.00933539
v -0.00326762 0.03905202 -0.01007154
v -0.00290925 0.03765275 -0.01024757
v -0.00314486 0.03644356 -0.01021509
v 0.00245954 0.04529012 -0.00672708
v 0.00263469 0.04527223 -0.00504880
v 0.00245954 0.04529012 -0.00337053
v 0.00243725 0.04528331 -0.00326023
v 0.00242632 0.04526073 -0.00318867
v 0.00241818 0.04520990 -0.00310350
v 0.00241639 0.04513681 -0.00302590
v 0.00242066 0.04505919 -0.00297010
v 0.00243056 0.04497577 -0.00293140
v 0.00244040 0.04491761 -0.00291557
v 0.00245207 0.04486085 -0.00290773
v 0.00246507 0.04480418 -0.00290484
v 0.00474781 0.03398475 -0.00256469
v 0.00474781 0.03398475 -0.00753292
v 0.00509999 0.03392628 -0.00587684
v 0.00509999 0.03392628 -0.00422077
v 0.00246507 0.04480418 -0.00719276
v 0.00243056 0.04497577 -0.00716620
v 0.00244052 0.04491691 -0.00718223
v 0.00245230 0.04485976 -0.00719004
v 0.00243784 0.04528403 -0.00683398
v 0.00242641 0.04526080 -0.00690842
v 0.00241820 0.04521011 -0.00699382
v 0.00241640 0.04513688 -0.00707164
v 0.00242073 0.04505869 -0.00712773
v 0.00275621 0.04477405 -0.00504880
v 0.00361369 0.04114904 -0.00479789
v 0.00399043 0.03934293 -0.00582049
v 0.00456658 0.03663226 -0.00424885
v -0.00016452 0.04509458 -0.00918032
v 0.00096987 0.04497047 -0.00882536
v 0.00168145 0.04489316 -0.00839768
v 0.00208871 0.04484858 -0.00799171
v 0.00231986 0.04482223 -0.00760552
v 0.00239952 0.04481256 -0.00740336
v 0.00246507 0.04480418 -0.00719276
v -0.00025299 0.04258071 -0.00963130
v -0.00017259 0.03982782 -0.00998326
v 0.00021688 0.03451749 -0.01030629
v 0.00196112 0.03432524 -0.00989886
v 0.00337758 0.03416378 -0.00919318
v 0.00416420 0.03406800 -0.00853289
v 0.00455130 0.03401561 -0.00799888
v 0.00466318 0.03399857 -0.00776274
v 0.00474781 0.03398475 -0.00753292
v 0.00370786 0.03588184 -0.00862969
v 0.00352610 0.03590380 -0.00880026
v 0.00319468 0.03594267 -0.00906515
v 0.00259868 0.03601045 -0.00944233
v 0.00299981 0.03684420 -0.00906124
v 0.00282395 0.03686409 -0.00918230
v 0.00263685 0.03688506 -0.00930028
v 0.00220086 0.03693341 -0.00953910
v 0.00162206 0.03699709 -0.00979217
v 0.00311365 0.03946900 -0.00839778
v 0.00235719 0.04306772 -0.00823290
v 0.00210554 0.04221748 -0.00868284
v 0.00221740 0.04308316 -0.00837612
v 0.00195745 0.04223311 -0.00879011
v 0.00179898 0.04224974 -0.00889441
v 0.00162024 0.04364031 -0.00872581
v 0.00183675 0.04403738 -0.00847761
v 0.00131260 0.04367283 -0.00890485
v 0.00119115 0.04235047 -0.00921171
v 0.00146241 0.04407720 -0.00873561
v 0.00093261 0.04371332 -0.00908419
v 0.00177900 0.03961566 -0.00937463
v 0.00179631 0.04049268 -0.00922145
v -0.00180284 0.04829059 -0.00673025
v -0.00118054 0.04846731 -0.00672714
v -0.00034824 0.04852808 -0.00672680
v 0.00019438 0.04849484 -0.00672704
v -0.00217815 0.04531524 -0.00929489
v -0.00208699 0.04613736 -0.00905729
v -0.00199572 0.04687336 -0.00865749
v -0.00191691 0.04746448 -0.00812936
v -0.00185865 0.04788449 -0.00758633
v -0.00182265 0.04814377 -0.00711791
v -0.00016452 0.04509458 -0.00918032
v 0.00017803 0.04836328 -0.00714558
v 0.00014614 0.04809993 -0.00757634
v 0.00009988 0.04770988 -0.00799553
v 0.00003929 0.04718429 -0.00840097
v -0.00002983 0.04655487 -0.00874525
v -0.00010161 0.04583965 -0.00900492
v -0.00387087 0.04624930 -0.00706051
v -0.00387250 0.04623016 -0.00712293
v -0.00377401 0.04599495 -0.00792278
v -0.00362627 0.04584657 -0.00835463
v -0.00337980 0.04567676 -0.00876812
v -0.00313827 0.04555605 -0.00900543
v -0.00287334 0.04545744 -0.00915842
v -0.00254838 0.04537302 -0.00925329
v -0.00217815 0.04531524 -0.00929489
v -0.00461665 0.04432619 -0.00708100
v -0.00507199 0.04206370 -0.00709686
v -0.00522484 0.04049105 -0.00710565
v -0.00238862 0.04004573 -0.01012247
v -0.00304271 0.04007181 -0.01005176
v -0.00345993 0.04010767 -0.00989991
v -0.00385418 0.04015391 -0.00963478
v -0.00416974 0.04020113 -0.00930694
v -0.00453974 0.04027240 -0.00874980
v -0.00488744 0.04036323 -0.00801543
v -0.00235974 0.04275024 -0.00977946
v -0.00333306 0.04139841 -0.00981273
v -0.00423222 0.04161350 -0.00903844
v -0.00484179 0.04108062 -0.00799586
v -0.00495015 0.04110051 -0.00772407
v -0.00307043 0.04416921 -0.00942173
v -0.00454099 0.04305736 -0.00816932
v -0.00422436 0.04244663 -0.00889576
v -0.00410490 0.04347181 -0.00880721
v -0.00389242 0.04427263 -0.00882019
v -0.00414239 0.04516136 -0.00790662
v -0.00339048 0.04257787 -0.00961085
v -0.00335209 0.04305194 -0.00954335
v -0.00366864 0.04285731 -0.00939475
v -0.00180284 0.04829059 -0.00673025
v -0.00228861 0.04805481 -0.00673484
v -0.00284552 0.04764221 -0.00674077
v -0.00343253 0.04699430 -0.00674775
v -0.00177070 0.04852456 -0.00504880
v -0.00177853 0.04846757 -0.00591326
v -0.00341331 0.04719067 -0.00504880
v -0.00283862 0.04786522 -0.00504880
v -0.00228280 0.04829495 -0.00504880
v 0.00263469 0.04527223 -0.00504880
v 0.00208121 0.04691745 -0.00504881
v 0.00163295 0.04767079 -0.00504881
v 0.00113262 0.04822344 -0.00504881
v 0.00072238 0.04850757 -0.00504881
v 0.00045153 0.04861973 -0.00504881
v 0.00021692 0.04867358 -0.00504880
v 0.00245954 0.04529012 -0.00672708
v 0.00019438 0.04849484 -0.00672704
v 0.00054758 0.04840046 -0.00672710
v 0.00091054 0.04819499 -0.00672733
v 0.00125444 0.04788773 -0.00672764
v 0.00158967 0.04746671 -0.00672792
v 0.00198125 0.04676495 -0.00672805
v 0.00226415 0.04601589 -0.00672774
v 0.00245954 0.04529012 -0.00672708
v 0.00243784 0.04528403 -0.00683398
v 0.00242641 0.04526080 -0.00690842
v 0.00241820 0.04521011 -0.00699382
v 0.00241640 0.04513688 -0.00707164
v 0.00242073 0.04505869 -0.00712773
v 0.00243056 0.04497577 -0.00716620
v 0.00019438 0.04849484 -0.00672704
v 0.00054758 0.04840046 -0.00672710
v 0.00091054 0.04819499 -0.00672733
v 0.00125444 0.04788773 -0.00672764
v 0.00158967 0.04746671 -0.00672792
v 0.00198125 0.04676495 -0.00672805
v 0.00226415 0.04601589 -0.00672774
v 0.00017803 0.04836328 -0.00714558
v 0.00014614 0.04809993 -0.00757634
v 0.00009988 0.04770988 -0.00799553
v 0.00003929 0.04718429 -0.00840097
v -0.00002983 0.04655487 -0.00874525
v -0.00010161 0.04583965 -0.00900492
v -0.00016452 0.04509458 -0.00918032
v 0.00096987 0.04497047 -0.00882536
v 0.00168145 0.04489316 -0.00839768
v 0.00208871 0.04484858 -0.00799171
v 0.00231986 0.04482223 -0.00760552
v 0.00239952 0.04481256 -0.00740336
v 0.00246507 0.04480418 -0.00719276
v 0.00244052 0.04491691 -0.00718223
v 0.00245230 0.04485976 -0.00719004
v 0.00149232 0.04678230 -0.00773117
v 0.00171061 0.04705058 -0.00713119
v -0.00180284 0.04829059 -0.00673025
v -0.00118054 0.04846731 -0.00672714
v -0.00034824 0.04852808 -0.00672680
v 0.00019438 0.04849484 -0.00672704
v 0.00021692 0.04867358 -0.00504880
v -0.00177070 0.04852456 -0.00504880
v -0.00106844 0.04867297 -0.00504880
v -0.00028674 0.04871023 -0.00504880
v -0.00177853 0.04846757 -0.00591326
v -0.00180284 0.04829059 -0.00673025
v -0.00228861 0.04805481 -0.00673484
v -0.00284552 0.04764221 -0.00674077
v -0.00343253 0.04699430 -0.00674775
v -0.00387087 0.04624930 -0.00706051
v -0.00366425 0.04659885 -0.00703244
v -0.00355885 0.04676533 -0.00698405
v -0.00349678 0.04686442 -0.00693132
v -0.00346408 0.04691990 -0.00688505
v -0.00344421 0.04695803 -0.00683697
v -0.00343487 0.04698173 -0.00678906
v -0.00387250 0.04623016 -0.00712293
v -0.00377401 0.04599495 -0.00792278
v -0.00362627 0.04584657 -0.00835463
v -0.00337980 0.04567676 -0.00876812
v -0.00313827 0.04555605 -0.00900543
v -0.00287334 0.04545744 -0.00915842
v -0.00254838 0.04537302 -0.00925329
v -0.00217815 0.04531524 -0.00929489
v -0.00208699 0.04613736 -0.00905729
v -0.00199572 0.04687336 -0.00865749
v -0.00191691 0.04746448 -0.00812936
v -0.00185865 0.04788449 -0.00758633
v -0.00182265 0.04814377 -0.00711791
v -0.00272044 0.04617214 -0.00894954
v -0.00264695 0.04650856 -0.00878244
v -0.00281357 0.04651173 -0.00870679
v -0.00318755 0.04674660 -0.00810260
v -0.00300735 0.04713694 -0.00776530
v 0.00068954 0.02467092 0.00026567
v 0.00295060 0.02552444 0.00009394
v 0.00158580 0.02889036 0.00022249
v 0.00084256 0.02860280 0.00030799
v 0.00038336 0.02830827 0.00033573
v -0.00007892 0.02788326 0.00033558
v -0.00177070 0.04852456 -0.00504880
v -0.00177853 0.04846757 -0.00418434
v -0.00180284 0.04829059 -0.00336735
v -0.00118054 0.04846731 -0.00337047
v -0.00034824 0.04852808 -0.00337080
v 0.00019438 0.04849484 -0.00337056
v 0.00021692 0.04867358 -0.00504880
v -0.00106844 0.04867297 -0.00504880
v -0.00028674 0.04871023 -0.00504880
v 0.00243056 0.04497577 -0.00293140
v 0.00244040 0.04491761 -0.00291557
v 0.00245207 0.04486085 -0.00290773
v 0.00246507 0.04480418 -0.00290484
v 0.00245954 0.04529012 -0.00337053
v 0.00243725 0.04528331 -0.00326023
v 0.00242632 0.04526073 -0.00318867
v 0.00241818 0.04520990 -0.00310350
v 0.00241639 0.04513681 -0.00302590
v 0.00242066 0.04505919 -0.00297010
v 0.00019438 0.04849484 -0.00337056
v 0.00054758 0.04840046 -0.00337050
v 0.00091054 0.04819499 -0.00337027
v 0.00125444 0.04788773 -0.00336997
v 0.00158967 0.04746671 -0.00336968
v 0.00198125 0.04676495 -0.00336956
v 0.00226415 0.04601589 -0.00336986
v 0.00017803 0.04836327 -0.00295203
v 0.00014614 0.04809993 -0.00252126
v 0.00009988 0.04770988 -0.00210207
v 0.00003929 0.04718429 -0.00169664
v -0.00002983 0.04655487 -0.00135236
v -0.00010161 0.04583965 -0.00109268
v -0.00016452 0.04509458 -0.00091728
v 0.00096987 0.04497047 -0.00127225
v 0.00168145 0.04489316 -0.00169993
v 0.00208871 0.04484858 -0.00210589
v 0.00231986 0.04482223 -0.00249209
v 0.00239952 0.04481256 -0.00269424
v 0.00149232 0.04678230 -0.00236643
v 0.00171061 0.04705058 -0.00296641
v 0.00245954 0.04529012 -0.00337053
v 0.00263469 0.04527223 -0.00504880
v 0.00019438 0.04849484 -0.00337056
v 0.00054758 0.04840046 -0.00337050
v 0.00091054 0.04819499 -0.00337027
v 0.00125444 0.04788773 -0.00336997
v 0.00158967 0.04746671 -0.00336968
v 0.00198125 0.04676495 -0.00336956
v 0.00226415 0.04601589 -0.00336986
v 0.00021692 0.04867358 -0.00504880
v 0.00208121 0.04691745 -0.00504881
v 0.00163295 0.04767079 -0.00504881
v 0.00113262 0.04822344 -0.00504881
v 0.00072238 0.04850757 -0.00504881
v 0.00045153 0.04861973 -0.00504881
v -0.00341331 0.04719067 -0.00504880
v -0.00343253 0.04699430 -0.00334985
v -0.00180284 0.04829059 -0.00336735
v -0.00243257 0.04796469 -0.00336128
v -0.00302108 0.04747336 -0.00335486
v -0.00177070 0.04852456 -0.00504880
v -0.00177853 0.04846757 -0.00418434
v -0.00283862 0.04786522 -0.00504880
v -0.00228280 0.04829495 -0.00504880
v -0.00217815 0.04531524 -0.00080272
v -0.00208699 0.04613735 -0.00104031
v -0.00199572 0.04687336 -0.00144012
v -0.00191691 0.04746448 -0.00196824
v -0.00185865 0.04788449 -0.00251127
v -0.00182265 0.04814377 -0.00297969
v -0.00180284 0.04829059 -0.00336735
v -0.00243257 0.04796469 -0.00336128
v -0.00302108 0.04747336 -0.00335486
v -0.00343253 0.04699430 -0.00334985
v -0.00387087 0.04624930 -0.00303709
v -0.00366060 0.04660467 -0.00306623
v -0.00355904 0.04676503 -0.00311343
v -0.00349728 0.04686357 -0.00316560
v -0.00346426 0.04691960 -0.00321227
v -0.00344477 0.04695685 -0.00325881
v -0.00343540 0.04698007 -0.00330437
v -0.00387250 0.04623016 -0.00297467
v -0.00377401 0.04599495 -0.00217483
v -0.00362627 0.04584657 -0.00174298
v -0.00347472 0.04573501 -0.00146131
v -0.00328555 0.04562549 -0.00122253
v -0.00306014 0.04552374 -0.00103764
v -0.00283199 0.04544465 -0.00092246
v -0.00252481 0.04536823 -0.00084011
v -0.00259841 0.04728552 -0.00207684
v -0.00345234 0.04688030 -0.00290601
v -0.00291400 0.04651459 -0.00145519
v -0.00300837 0.04651750 -0.00153139
v -0.00309718 0.04652019 -0.00161916
v -0.00238862 0.04004573 0.00002487
v -0.00235974 0.04275023 -0.00031814
v -0.00217815 0.04531524 -0.00080272
v -0.00387087 0.04624930 -0.00303709
v -0.00387250 0.04623016 -0.00297467
v -0.00377401 0.04599495 -0.00217483
v -0.00362627 0.04584657 -0.00174298
v -0.00347472 0.04573501 -0.00146131
v -0.00328555 0.04562549 -0.00122253
v -0.00306014 0.04552374 -0.00103764
v -0.00283199 0.04544465 -0.00092246
v -0.00252481 0.04536823 -0.00084011
v -0.00461666 0.04432613 -0.00301660
v -0.00507200 0.04206367 -0.00300075
v -0.00522484 0.04049105 -0.00299195
v -0.00304271 0.04007181 -0.00004584
v -0.00345993 0.04010767 -0.00019769
v -0.00385418 0.04015391 -0.00046282
v -0.00416974 0.04020113 -0.00079067
v -0.00453974 0.04027240 -0.00134780
v -0.00488744 0.04036323 -0.00208217
v -0.00333306 0.04139841 -0.00028488
v -0.00423222 0.04161348 -0.00105916
v -0.00484180 0.04108061 -0.00210175
v -0.00495015 0.04110049 -0.00237354
v -0.00299332 0.04415042 -0.00064845
v -0.00454100 0.04305733 -0.00192828
v -0.00422435 0.04244661 -0.00120184
v -0.00410489 0.04347177 -0.00129039
v -0.00323373 0.04468080 -0.00086919
v -0.00315418 0.04419109 -0.00071067
v -0.00393163 0.04429046 -0.00133214
v -0.00339048 0.04257785 -0.00048675
v -0.00335209 0.04305192 -0.00055425
v -0.00366865 0.04285729 -0.00070285
v 0.00019438 0.04849484 -0.00337056
v 0.00017803 0.04836327 -0.00295203
v 0.00014614 0.04809993 -0.00252126
v 0.00009988 0.04770988 -0.00210207
v 0.00003929 0.04718429 -0.00169664
v -0.00002983 0.04655487 -0.00135236
v -0.00010161 0.04583965 -0.00109268
v -0.00016452 0.04509458 -0.00091728
v -0.00180284 0.04829059 -0.00336735
v -0.00118054 0.04846731 -0.00337047
v -0.00034824 0.04852808 -0.00337080
v -0.00217815 0.04531524 -0.00080272
v -0.00208699 0.04613735 -0.00104031
v -0.00199572 0.04687336 -0.00144012
v -0.00191691 0.04746448 -0.00196824
v -0.00185865 0.04788449 -0.00251127
v -0.00182265 0.04814377 -0.00297969
v 0.00474781 0.03398475 -0.00256469
v 0.00246507 0.04480418 -0.00290484
v -0.00016452 0.04509458 -0.00091728
v 0.00096987 0.04497047 -0.00127225
v 0.00168145 0.04489316 -0.00169993
v 0.00208871 0.04484858 -0.00210589
v 0.00231986 0.04482223 -0.00249209
v 0.00239952 0.04481256 -0.00269424
v -0.00025298 0.04258071 -0.00046630
v -0.00017259 0.03982782 -0.00011434
v 0.00021688 0.03451749 0.00020868
v 0.00196112 0.03432524 -0.00019874
v 0.00337758 0.03416378 -0.00090442
v 0.00416420 0.03406800 -0.00156472
v 0.00455130 0.03401561 -0.00209873
v 0.00466318 0.03399857 -0.00233487
v 0.00370786 0.03588184 -0.00146791
v 0.00352610 0.03590380 -0.00129735
v 0.00319468 0.03594267 -0.00103245
v 0.00259868 0.03601044 -0.00065528
v 0.00299981 0.03684420 -0.00103637
v 0.00282396 0.03686409 -0.00091530
v 0.00263685 0.03688506 -0.00079733
v 0.00220086 0.03693341 -0.00055850
v 0.00162206 0.03699709 -0.00030544
v 0.00311365 0.03946900 -0.00169982
v 0.00235719 0.04306772 -0.00186470
v 0.00210554 0.04221748 -0.00141477
v 0.00221740 0.04308316 -0.00172148
v 0.00195745 0.04223311 -0.00130749
v 0.00179898 0.04224974 -0.00120319
v 0.00162024 0.04364031 -0.00137180
v 0.00183675 0.04403738 -0.00161999
v 0.00131260 0.04367283 -0.00119275
v 0.00119115 0.04235047 -0.00088590
v 0.00146241 0.04407720 -0.00136199
v 0.00093261 0.04371332 -0.00101341
v 0.00177900 0.03961566 -0.00072297
v 0.00179631 0.04049268 -0.00087615
v -0.00194243 0.03475410 0.00032708
v -0.00279645 0.03484916 0.00022161
v -0.00320464 0.03489504 0.00007416
v -0.00365555 0.03494562 -0.00020810
v -0.00402003 0.03498615 -0.00056688
v -0.00442684 0.03503055 -0.00116479
v -0.00479984 0.03506996 -0.00195906
v -0.00515479 0.03510613 -0.00295237
v -0.00531248 0.03783707 -0.00295765
v -0.00522484 0.04049105 -0.00299195
v -0.00238862 0.04004573 0.00002487
v -0.00304271 0.04007181 -0.00004584
v -0.00345993 0.04010767 -0.00019769
v -0.00385418 0.04015391 -0.00046282
v -0.00416974 0.04020113 -0.00079067
v -0.00453974 0.04027240 -0.00134780
v -0.00488744 0.04036323 -0.00208217
v -0.00506308 0.03922100 -0.00231747
v -0.00494869 0.03916128 -0.00202479
v -0.00491522 0.03638950 -0.00196917
v -0.00503408 0.03642661 -0.00227619
v -0.00432672 0.03960854 -0.00092439
v -0.00407993 0.03816506 -0.00051580
v -0.00432503 0.03707955 -0.00079627
v -0.00455794 0.03686707 -0.00116647
v -0.00422912 0.03562335 -0.00076221
v -0.00326762 0.03905202 -0.00002607
v -0.00290925 0.03765275 0.00014996
v -0.00314485 0.03644356 0.00011748
v -0.00341331 0.04719067 -0.00504880
v -0.00343253 0.04699430 -0.00334985
v -0.00387087 0.04624930 -0.00303709
v -0.00366060 0.04660467 -0.00306623
v -0.00355904 0.04676503 -0.00311343
v -0.00349728 0.04686357 -0.00316560
v -0.00346426 0.04691960 -0.00321227
v -0.00344477 0.04695685 -0.00325881
v -0.00343540 0.04698007 -0.00330437
v -0.00461666 0.04432613 -0.00301660
v -0.00507200 0.04206367 -0.00300075
v -0.00522484 0.04049105 -0.00299195
v -0.00539260 0.04057951 -0.00363422
v -0.00548868 0.04063017 -0.00432760
v -0.00551995 0.04064666 -0.00504880
v -0.00442673 0.04528070 -0.00504880
v -0.00523912 0.04262213 -0.00504880
v 0.00605102 0.03010735 -0.00242514
v 0.00522260 0.03210949 -0.00250067
v 0.00474781 0.03398475 -0.00256469
v 0.00021688 0.03451749 0.00020868
v 0.00196112 0.03432524 -0.00019874
v 0.00337758 0.03416378 -0.00090442
v 0.00416420 0.03406800 -0.00156472
v 0.00455130 0.03401561 -0.00209873
v 0.00466318 0.03399857 -0.00233487
v 0.00158580 0.02889036 0.00022249
v 0.00068385 0.03142625 0.00023883
v 0.00036156 0.03310328 0.00023269
v 0.00572061 0.03003878 -0.00171556
v 0.00533456 0.02994831 -0.00121658
v 0.00485908 0.02982750 -0.00081330
v 0.00427293 0.02967044 -0.00047187
v 0.00335028 0.02941193 -0.00012197
v 0.00248641 0.02916069 0.00008158
v 0.00523389 0.03089904 -0.00161356
v 0.00208446 0.03310186 -0.00015178
v -0.00016452 0.04509458 -0.00091728
v -0.00025298 0.04258071 -0.00046630
v -0.00017259 0.03982782 -0.00011434
v 0.00021688 0.03451749 0.00020868
v -0.00217815 0.04531524 -0.00080272
v -0.00238862 0.04004573 0.00002487
v -0.00235974 0.04275023 -0.00031814
v -0.00194243 0.03475410 0.00032708
v -0.00264840 0.02630152 -0.00299195
v -0.00208592 0.02651522 -0.00175451
v -0.00125362 0.02697119 -0.00049672
v -0.00081840 0.02725216 -0.00004242
v -0.00051095 0.02747709 0.00019214
v -0.00031067 0.02764765 0.00029257
v -0.00018266 0.02777282 0.00032663
v -0.00007892 0.02788326 0.00033558
v -0.00386477 0.02907955 -0.00298601
v -0.00468733 0.03205971 -0.00296798
v -0.00515479 0.03510613 -0.00295237
v -0.00194243 0.03475410 0.00032708
v -0.00279645 0.03484916 0.00022161
v -0.00320464 0.03489504 0.00007416
v -0.00365555 0.03494562 -0.00020810
v -0.00402003 0.03498615 -0.00056688
v -0.00442684 0.03503055 -0.00116479
v -0.00479984 0.03506996 -0.00195906
v -0.00126788 0.03150022 0.00036424
v -0.00307352 0.03361183 0.00006488
v -0.00250797 0.03297704 0.00024816
v -0.00273369 0.03297308 0.00016528
v -0.00373635 0.03271430 -0.00072894
v -0.00458986 0.03358151 -0.00195731
v -0.00471464 0.03358476 -0.00227117
v -0.00349520 0.03158218 -0.00084129
v -0.00135794 0.02925086 0.00016405
v -0.00378246 0.03074494 -0.00169818
v -0.00304886 0.03019283 -0.00087831
v -0.00248430 0.02905801 -0.00075007
v -0.00280045 0.02781001 -0.00189069
v -0.00253269 0.03191615 0.00011903
v -0.00241087 0.03139851 0.00008852
v -0.00219127 0.03076423 0.00007561
v -0.00265246 0.03101370 -0.00016716
v -0.00191577 0.03024019 0.00010656
v -0.00522484 0.04049105 -0.00299195
v -0.00539260 0.04057951 -0.00363422
v -0.00548868 0.04063017 -0.00432760
v -0.00551995 0.04064666 -0.00504880
v -0.00515479 0.03510613 -0.00295237
v -0.00531248 0.03783707 -0.00295765
v -0.00264840 0.02630152 -0.00299195
v -0.00386477 0.02907955 -0.00298601
v -0.00468733 0.03205971 -0.00296798
v -0.00297795 0.02624093 -0.00504880
v -0.00289879 0.02625549 -0.00397582
v -0.00549533 0.03588961 -0.00504880
v -0.00486254 0.03146409 -0.00504880
v -0.00408892 0.02876897 -0.00504880
v 0.00158580 0.02889036 0.00022249
v 0.00084256 0.02860280 0.00030799
v 0.00038336 0.02830827 0.00033573
v -0.00007892 0.02788326 0.00033558
v -0.00194243 0.03475410 0.00032708
v -0.00126788 0.03150022 0.00036424
v 0.00021688 0.03451749 0.00020868
v 0.00068385 0.03142625 0.00023883
v 0.00036156 0.03310328 0.00023269
v -0.00007892 0.02788326 0.00033558
v 0.00068954 0.02467092 0.00026567
v -0.00264840 0.02630152 -0.00299195
v -0.00208592 0.02651522 -0.00175451
v -0.00125362 0.02697119 -0.00049672
v -0.00081840 0.02725216 -0.00004242
v -0.00051095 0.02747709 0.00019214
v -0.00031067 0.02764765 0.00029257
v -0.00018266 0.02777282 0.00032663
v -0.00209576 0.02517145 -0.00299212
v -0.00166521 0.02375165 -0.00299224
v -0.00096090 0.02402416 -0.00130483
v -0.00041155 0.02423906 -0.00046368
v 0.00006865 0.02442665 -0.00000735
v 0.00039868 0.02455595 0.00018530
v 0.00055188 0.02461630 0.00024015
v -0.00212738 0.01905329 -0.00299195
v -0.00226392 0.01919267 -0.00363423
v -0.00234212 0.01927250 -0.00432760
v -0.00236758 0.01929848 -0.00504880
v -0.00165045 0.02078224 -0.00299227
v -0.00151991 0.02223343 -0.00299233
v -0.00166521 0.02375165 -0.00299224
v -0.00264840 0.02630152 -0.00299195
v -0.00209576 0.02517145 -0.00299212
v -0.00297795 0.02624093 -0.00504880
v -0.00289879 0.02625549 -0.00397582
v -0.00188763 0.02134221 -0.00504880
v -0.00192772 0.02330105 -0.00504880
v -0.00235598 0.02492909 -0.00504880
v 0.00108630 0.01734244 0.00012515
v 0.00102681 0.02083122 0.00016584
v 0.00068954 0.02467092 0.00026567
v -0.00166521 0.02375165 -0.00299224
v -0.00096090 0.02402416 -0.00130483
v -0.00041155 0.02423906 -0.00046368
v 0.00006865 0.02442665 -0.00000735
v 0.00039868 0.02455595 0.00018530
v 0.00055188 0.02461630 0.00024015
v -0.00212738 0.01905329 -0.00299195
v -0.00165045 0.02078224 -0.00299227
v -0.00151991 0.02223343 -0.00299233
v 0.00039229 0.01756953 -0.00010338
v -0.00031429 0.01786280 -0.00051003
v -0.00095445 0.01819077 -0.00104716
v -0.00147899 0.01851827 -0.00165609
v -0.00186751 0.01881321 -0.00229918
v 0.00045813 0.01888402 -0.00008241
v 0.00012270 0.01896257 -0.00026695
v -0.00075335 0.01970072 -0.00106561
v 0.00030343 0.02309435 -0.00000116
v -0.00002702 0.02295961 -0.00025120
v -0.00107179 0.02135245 -0.00176153
v -0.00068946 0.02073649 -0.00106577
v -0.00066803 0.02175303 -0.00106243
v -0.00073087 0.02266939 -0.00113685
v 0.00013239 0.02135478 -0.00021681
f 7 6 8
f 17 11 12
f 18 12 13
f 18 17 12
f 19 20 17
f 19 17 18
f 21 10 9
f 21 13 14
f 21 14 15
f 21 15 10
f 21 18 13
f 21 19 18
f 22 16 11
f 22 17 20
f 22 11 17
f 23 16 22
f 24 16 23
f 24 23 25
f 26 2 1
f 26 3 2
f 26 4 3
f 26 5 4
f 26 6 5
f 26 1 16
f 26 8 6
f 26 16 24
f 27 19 21
f 27 20 19
f 27 21 9
f 28 9 8
f 28 20 27
f 28 22 20
f 28 23 22
f 28 8 25
f 28 25 23
f 28 27 9
f 29 25 8
f 29 24 25
f 29 8 26
f 29 26 24
f 30 32 31
f 34 44 45
f 34 33 44
f 41 43 42
f 35 45 46
f 35 34 45
f 36 46 47
f 36 35 46
f 37 47 48
f 37 36 47
f 38 37 48
f 39 48 43
f 39 38 48
f 40 43 41
f 40 39 43
f 51 58 52
f 57 58 51
f 50 57 51
f 56 50 49
f 56 57 50
f 54 49 53
f 54 56 49
f 55 56 54
f 63 65 64
f 63 60 66
f 63 66 67
f 63 67 68
f 63 68 69
f 63 69 65
f 70 59 60
f 70 61 59
f 70 62 61
f 70 63 62
f 70 60 63
f 71 72 88
f 89 79 80
f 89 80 81
f 90 78 79
f 90 79 89
f 91 77 78
f 91 78 90
f 92 90 89
f 93 91 90
f 93 90 92
f 94 91 93
f 95 91 94
f 96 73 74
f 96 74 75
f 96 75 76
f 96 76 77
f 96 91 95
f 96 77 91
f 97 81 83
f 97 89 81
f 97 92 89
f 98 97 83
f 99 98 83
f 99 100 98
f 101 83 82
f 101 82 84
f 101 84 85
f 101 85 86
f 101 86 87
f 101 87 88
f 101 99 83
f 101 88 72
f 102 93 92
f 102 94 93
f 102 95 94
f 102 96 95
f 102 73 96
f 103 72 73
f 103 102 92
f 103 100 72
f 103 92 97
f 103 97 98
f 103 98 100
f 103 73 102
f 104 72 100
f 104 100 99
f 104 99 101
f 104 101 72
f 105 107 106
f 117 113 114
f 117 114 115
f 117 115 116
f 124 108 109
f 118 112 113
f 118 113 117
f 119 111 112
f 119 112 118
f 120 111 119
f 123 124 109
f 125 109 110
f 125 110 111
f 125 120 121
f 125 121 122
f 125 122 123
f 125 111 120
f 125 123 109
f 134 133 132
f 131 134 132
f 135 134 131
f 130 126 135
f 130 135 131
f 128 127 126
f 128 126 130
f 129 128 130
f 137 138 139
f 137 139 140
f 137 140 141
f 137 141 142
f 137 142 143
f 137 143 144
f 137 144 145
f 137 145 146
f 149 136 137
f 149 146 147
f 149 147 148
f 149 148 136
f 149 137 146
f 159 156 157
f 160 159 158
f 161 155 156
f 161 156 159
f 161 159 160
f 151 155 161
f 153 154 155
f 153 155 151
f 150 153 151
f 152 153 150
f 167 169 166
f 167 170 171
f 167 171 172
f 167 172 169
f 167 174 170
f 163 162 173
f 164 173 168
f 164 163 173
f 165 164 168
f 175 167 168
f 175 173 174
f 175 174 167
f 175 168 173
f 187 177 176
f 187 176 178
f 187 178 179
f 187 179 180
f 187 180 183
f 184 182 181
f 185 188 182
f 185 182 184
f 186 188 185
f 189 183 182
f 189 188 187
f 189 187 183
f 189 182 188
f 191 195 194
f 191 190 195
f 192 191 194
f 193 192 194
f 204 211 203
f 196 197 205
f 213 206 207
f 213 212 206
f 214 207 208
f 214 208 209
f 214 213 207
f 215 209 210
f 215 210 211
f 215 214 209
f 215 211 204
f 216 199 200
f 216 200 201
f 216 201 202
f 216 202 212
f 217 198 199
f 217 199 216
f 218 204 205
f 218 215 204
f 218 219 215
f 218 220 219
f 221 197 198
f 221 217 220
f 221 218 205
f 221 220 218
f 221 205 197
f 221 198 217
f 222 216 212
f 222 217 216
f 222 220 217
f 222 212 213
f 222 213 214
f 222 215 219
f 222 219 220
f 222 214 215
f 234 229 230
f 228 230 227
f 228 234 230
f 226 233 234
f 226 234 228
f 225 232 233
f 225 233 226
f 224 232 225
f 236 231 232
f 236 232 224
f 235 236 224
f 223 235 224
f 244 252 251
f 243 251 250
f 243 244 251
f 242 243 250
f 241 250 249
f 241 242 250
f 240 249 248
f 240 241 249
f 239 248 247
f 239 240 248
f 238 239 247
f 245 247 246
f 245 238 247
f 237 238 245
f 260 256 255
f 261 255 254
f 261 260 255
f 257 254 253
f 258 261 254
f 258 254 257
f 259 261 258
f 265 275 266
f 273 272 275
f 273 275 265
f 264 273 265
f 274 273 264
f 270 264 263
f 270 274 264
f 271 270 263
f 262 271 263
f 269 271 262
f 268 271 269
f 267 271 268
f 295 289 276
f 295 290 289
f 295 291 290
f 295 292 291
f 296 276 277
f 296 295 276
f 297 295 296
f 298 295 297
f 298 292 295
f 299 293 292
f 299 294 293
f 299 292 298
f 300 287 288
f 300 288 294
f 300 294 299
f 300 299 287
f 301 299 298
f 301 287 299
f 302 277 278
f 302 282 281
f 302 283 282
f 302 284 283
f 302 285 284
f 302 278 285
f 303 286 287
f 303 287 301
f 303 304 286
f 303 301 304
f 305 302 281
f 305 286 304
f 306 280 279
f 306 281 280
f 306 279 286
f 306 305 281
f 306 286 305
f 307 296 277
f 307 301 298
f 307 297 296
f 307 298 297
f 308 307 277
f 308 301 307
f 309 308 277
f 310 304 301
f 310 308 309
f 310 301 308
f 310 309 304
f 311 277 302
f 311 302 305
f 311 305 304
f 311 309 277
f 311 304 309
f 314 317 316
f 314 319 317
f 315 318 319
f 315 319 314
f 312 313 318
f 312 318 315
f 325 326 337
f 324 325 337
f 323 324 337
f 328 335 336
f 328 336 327
f 320 321 329
f 338 330 331
f 338 331 332
f 338 332 333
f 338 333 334
f 338 337 330
f 338 323 337
f 339 321 322
f 339 322 323
f 339 328 329
f 339 334 335
f 339 335 328
f 339 323 338
f 339 338 334
f 339 329 321
f 344 349 348
f 344 350 349
f 344 351 350
f 347 344 348
f 346 344 347
f 345 344 346
f 340 344 345
f 341 345 352
f 341 340 345
f 342 352 353
f 342 341 352
f 355 353 354
f 356 342 353
f 356 353 355
f 343 342 356
f 374 366 367
f 374 367 373
f 374 373 375
f 374 375 366
f 376 363 364
f 377 364 365
f 377 365 366
f 377 376 364
f 378 371 370
f 378 372 371
f 378 373 372
f 378 375 373
f 379 375 378
f 380 375 379
f 381 377 366
f 381 376 377
f 381 366 375
f 381 375 380
f 382 361 362
f 382 362 363
f 382 381 380
f 382 363 376
f 382 376 381
f 383 368 358
f 383 369 368
f 383 370 369
f 383 379 378
f 383 378 370
f 384 358 357
f 384 383 358
f 384 379 383
f 385 357 359
f 385 359 360
f 385 360 361
f 385 380 379
f 385 384 357
f 385 361 382
f 385 382 380
f 385 379 384
f 389 390 391
f 396 392 393
f 396 393 394
f 396 394 395
f 388 391 392
f 388 389 391
f 388 392 396
f 397 388 396
f 408 406 386
f 408 407 406
f 409 408 386
f 405 404 403
f 405 410 409
f 405 403 410
f 405 409 386
f 402 405 386
f 411 386 387
f 411 387 388
f 411 388 397
f 411 402 386
f 412 411 397
f 412 402 411
f 413 399 402
f 413 402 412
f 414 397 398
f 414 400 399
f 414 401 400
f 414 398 401
f 414 412 397
f 414 413 412
f 414 399 413
f 431 428 427
f 431 429 428
f 431 430 429
f 432 427 426
f 432 431 427
f 433 432 426
f 434 425 424
f 434 426 425
f 434 433 426
f 435 431 432
f 435 432 433
f 436 433 434
f 436 435 433
f 437 436 434
f 438 437 434
f 439 424 423
f 439 434 424
f 439 438 434
f 440 421 430
f 440 430 431
f 440 431 435
f 441 418 419
f 441 419 420
f 441 420 421
f 441 421 440
f 441 440 442
f 443 442 444
f 443 441 442
f 443 444 445
f 446 443 445
f 447 417 418
f 447 418 441
f 447 441 443
f 447 443 446
f 448 445 449
f 448 446 445
f 450 416 417
f 450 417 447
f 450 447 446
f 450 446 448
f 451 415 416
f 451 422 415
f 451 449 422
f 451 416 450
f 451 448 449
f 451 450 448
f 452 435 436
f 452 436 437
f 452 440 435
f 452 439 423
f 452 437 438
f 452 438 439
f 453 423 422
f 453 422 449
f 453 452 423
f 453 442 440
f 453 440 452
f 453 444 442
f 453 445 444
f 453 449 445
f 458 470 464
f 459 469 470
f 459 470 458
f 460 468 469
f 460 469 459
f 461 467 468
f 461 468 460
f 462 466 467
f 462 467 461
f 456 457 465
f 463 465 466
f 463 466 462
f 463 456 465
f 455 456 463
f 454 455 463
f 471 472 480
f 491 483 484
f 491 484 485
f 491 485 486
f 491 490 483
f 492 486 487
f 492 487 488
f 492 491 486
f 493 488 489
f 493 492 488
f 494 482 481
f 494 489 482
f 494 481 493
f 494 493 489
f 495 475 476
f 495 476 477
f 495 477 478
f 495 478 479
f 495 479 490
f 496 481 480
f 496 493 481
f 496 498 497
f 496 492 493
f 496 497 492
f 499 474 475
f 499 475 495
f 500 472 473
f 500 473 474
f 500 498 496
f 500 499 498
f 500 496 480
f 500 474 499
f 500 480 472
f 501 491 492
f 501 492 497
f 501 490 491
f 502 498 499
f 502 495 490
f 502 490 501
f 502 499 495
f 503 497 498
f 503 498 502
f 503 501 497
f 503 502 501
f 509 512 508
f 505 509 504
f 505 511 512
f 505 512 509
f 506 510 511
f 506 511 505
f 507 510 506
f 521 519 518
f 522 518 517
f 522 521 518
f 523 517 516
f 523 522 517
f 524 516 515
f 524 523 516
f 525 515 514
f 525 524 515
f 526 525 514
f 527 514 513
f 527 526 514
f 520 527 513
f 553 556 554
f 555 556 553
f 552 555 553
f 534 555 552
f 533 534 552
f 551 533 552
f 541 528 529
f 541 529 530
f 547 549 548
f 546 549 547
f 545 549 546
f 536 537 543
f 542 536 543
f 535 536 542
f 557 532 533
f 557 537 538
f 557 544 543
f 557 545 544
f 557 550 549
f 557 551 550
f 557 533 551
f 557 549 545
f 557 543 537
f 558 530 531
f 558 531 532
f 558 538 539
f 558 539 540
f 558 540 541
f 558 557 538
f 558 532 557
f 558 541 530
f 566 562 561
f 566 563 562
f 567 560 559
f 565 561 560
f 565 566 561
f 565 560 567
f 564 565 567
f 587 586 585
f 569 591 590
f 569 568 591
f 573 579 572
f 573 580 579
f 577 570 576
f 578 570 577
f 571 570 578
f 592 584 583
f 592 585 584
f 592 587 585
f 593 588 587
f 593 589 588
f 593 587 592
f 594 583 582
f 594 589 593
f 594 593 592
f 594 592 583
f 595 573 574
f 595 581 580
f 595 582 581
f 595 594 582
f 595 580 573
f 596 570 569
f 596 574 575
f 596 575 576
f 596 590 589
f 596 595 574
f 596 569 590
f 596 589 594
f 596 594 595
f 596 576 570
f 600 597 598
f 600 598 599
f 601 597 600
f 602 597 601
f 611 607 608
f 611 608 609
f 604 605 606
f 610 606 607
f 610 607 611
f 610 604 606
f 603 604 610
f 640 615 614
f 613 640 614
f 639 640 613
f 612 639 613
f 621 639 612
f 638 639 621
f 628 617 616
f 628 618 617
f 634 635 636
f 633 634 636
f 632 633 636
f 623 630 624
f 629 630 623
f 622 629 623
f 641 621 620
f 641 625 624
f 641 630 631
f 641 631 632
f 641 636 637
f 641 637 638
f 641 638 621
f 641 632 636
f 641 624 630
f 642 619 618
f 642 620 619
f 642 626 625
f 642 627 626
f 642 628 627
f 642 641 620
f 642 625 641
f 642 618 628
f 645 657 652
f 646 656 657
f 646 657 645
f 647 655 656
f 647 656 646
f 648 654 655
f 648 655 647
f 649 653 654
f 649 654 648
f 650 653 649
f 651 644 653
f 651 653 650
f 643 644 651
f 664 663 666
f 661 660 664
f 661 666 665
f 661 664 666
f 662 665 658
f 662 661 665
f 659 662 658
f 668 691 667
f 690 691 668
f 678 677 684
f 678 684 685
f 674 672 673
f 682 681 675
f 683 682 675
f 676 683 675
f 692 669 670
f 692 670 671
f 692 671 672
f 692 674 675
f 692 672 674
f 693 679 678
f 693 680 679
f 693 681 680
f 693 678 685
f 693 692 675
f 693 675 681
f 694 668 669
f 694 688 689
f 694 689 690
f 694 669 692
f 694 690 668
f 695 688 694
f 695 694 692
f 696 685 686
f 696 686 687
f 696 687 688
f 696 692 693
f 696 693 685
f 696 695 692
f 696 688 695
f 701 709 702
f 700 709 701
f 718 697 698
f 718 712 697
f 718 713 712
f 718 714 713
f 719 715 714
f 719 716 715
f 719 714 718
f 720 717 716
f 720 716 719
f 721 710 711
f 721 711 717
f 721 720 710
f 721 717 720
f 722 698 699
f 722 699 708
f 723 709 710
f 723 710 720
f 723 720 719
f 723 719 724
f 723 724 725
f 726 705 704
f 726 706 705
f 726 707 706
f 726 708 707
f 726 722 708
f 726 727 722
f 728 703 702
f 728 704 703
f 728 723 725
f 728 726 704
f 728 709 723
f 728 702 709
f 728 727 726
f 729 719 718
f 729 724 719
f 729 718 698
f 730 728 725
f 730 722 727
f 730 698 722
f 730 727 728
f 730 729 698
f 731 730 725
f 731 725 724
f 731 724 729
f 731 729 730
f 743 739 738
f 744 738 737
f 744 743 738
f 745 737 736
f 745 744 737
f 746 736 735
f 746 745 736
f 747 735 734
f 747 746 735
f 742 733 732
f 748 734 733
f 748 747 734
f 748 733 742
f 741 748 742
f 740 748 741
f 765 762 763
f 765 763 764
f 765 764 749
f 766 761 762
f 766 762 765
f 767 761 766
f 768 759 760
f 768 760 761
f 768 761 767
f 769 766 765
f 769 767 766
f 770 768 767
f 770 767 769
f 771 768 770
f 772 768 771
f 773 758 759
f 773 759 768
f 773 768 772
f 774 749 750
f 774 769 765
f 774 765 749
f 775 755 754
f 775 756 755
f 775 750 756
f 775 774 750
f 775 776 774
f 777 778 776
f 777 776 775
f 777 779 778
f 780 779 777
f 781 754 753
f 781 775 754
f 781 777 775
f 781 780 777
f 782 783 779
f 782 779 780
f 784 753 752
f 784 781 753
f 784 780 781
f 784 782 780
f 785 752 751
f 785 751 757
f 785 784 752
f 785 757 783
f 785 783 782
f 785 782 784
f 786 770 769
f 786 771 770
f 786 769 774
f 786 758 773
f 786 772 771
f 786 773 772
f 787 757 758
f 787 786 774
f 787 774 776
f 787 758 786
f 787 776 778
f 787 783 757
f 787 778 779
f 787 779 783
f 805 797 796
f 805 804 797
f 805 806 804
f 805 796 806
f 807 794 793
f 808 795 794
f 808 796 795
f 808 794 807
f 809 801 802
f 809 802 803
f 809 803 804
f 809 804 806
f 810 809 806
f 811 810 806
f 812 811 806
f 812 796 808
f 812 808 807
f 812 806 796
f 813 792 791
f 813 793 792
f 813 811 812
f 813 807 793
f 813 812 807
f 814 798 799
f 814 799 800
f 814 800 801
f 814 809 810
f 814 801 809
f 815 788 798
f 815 798 814
f 815 814 810
f 816 789 788
f 816 790 789
f 816 791 790
f 816 810 811
f 816 813 791
f 816 811 813
f 816 788 815
f 816 815 810
f 818 822 823
f 818 823 824
f 818 824 825
f 821 822 818
f 820 821 818
f 819 820 818
f 817 819 818
f 832 826 819
f 832 819 817
f 833 827 826
f 833 826 832
f 829 828 827
f 830 827 833
f 830 829 827
f 831 830 833
f 842 835 836
f 841 835 842
f 840 835 841
f 844 851 850
f 844 843 851
f 852 834 835
f 852 846 834
f 852 847 846
f 852 848 847
f 852 849 848
f 852 835 840
f 853 838 837
f 853 839 838
f 853 840 839
f 853 845 844
f 853 837 845
f 853 850 849
f 853 852 840
f 853 844 850
f 853 849 852
f 859 857 856
f 859 861 857
f 860 856 855
f 860 859 856
f 858 855 854
f 858 860 855
f 881 873 874
f 881 874 875
f 881 875 876
f 881 876 877
f 882 880 873
f 882 873 881
f 883 882 881
f 884 883 881
f 884 881 877
f 885 877 878
f 885 878 879
f 885 884 877
f 886 872 871
f 886 879 872
f 886 885 879
f 886 871 885
f 887 884 885
f 887 885 871
f 888 864 865
f 888 865 866
f 888 866 867
f 888 867 868
f 888 868 869
f 888 869 880
f 889 871 870
f 889 887 871
f 889 870 890
f 889 890 887
f 891 890 870
f 891 864 888
f 892 862 863
f 892 863 864
f 892 870 862
f 892 864 891
f 892 891 870
f 893 884 887
f 893 880 882
f 893 882 883
f 893 883 884
f 894 893 887
f 894 880 893
f 895 880 894
f 896 890 895
f 896 887 890
f 896 894 887
f 896 895 894
f 897 895 890
f 897 888 880
f 897 890 891
f 897 891 888
f 897 880 895
f 911 907 908
f 905 908 904
f 905 911 908
f 910 911 905
f 906 910 905
f 902 909 910
f 902 910 906
f 903 909 902
f 901 909 903
f 900 901 903
f 899 900 903
f 898 899 903
f 916 920 918
f 917 919 920
f 917 920 916
f 913 912 919
f 914 919 917
f 914 913 919
f 915 914 917
f 921 936 922
f 929 935 936
f 929 936 921
f 928 935 929
f 927 934 935
f 927 935 928
f 926 933 934
f 926 934 927
f 925 932 933
f 925 933 926
f 924 932 925
f 930 931 932
f 930 932 924
f 923 930 924
f 950 947 946
f 945 944 947
f 945 947 950
f 943 950 949
f 943 945 950
f 942 949 948
f 942 943 949
f 941 942 948
f 939 948 940
f 939 941 948
f 938 941 939
f 937 941 938
f 961 960 967
f 954 962 955
f 968 951 952
f 968 963 951
f 969 964 963
f 969 965 964
f 969 963 968
f 970 966 965
f 970 967 966
f 970 965 969
f 970 961 967
f 971 952 953
f 971 958 957
f 971 959 958
f 971 953 959
f 972 957 956
f 972 971 957
f 973 962 961
f 973 961 970
f 973 970 974
f 973 974 975
f 976 956 955
f 976 962 973
f 976 973 975
f 976 975 972
f 976 955 962
f 976 972 956
f 977 969 968
f 977 952 971
f 977 974 970
f 977 975 974
f 977 971 972
f 977 968 952
f 977 970 969
f 977 972 975

