# https://github.com/mikedh/trimesh
v -0.00393385 0.00444972 -0.00733678
v -0.00393385 0.00444972 -0.00733678
v -0.00411273 0.00438733 -0.00666757
v -0.00411273 0.00438733 -0.00666757
v -0.00420756 0.00437410 -0.00598453
v -0.00420756 0.00437410 -0.00598453
v -0.00423787 0.00439860 -0.00529086
v 0.00083622 0.00698054 -0.01083985
v -0.00070318 0.00611834 -0.01046115
v -0.00070318 0.00611834 -0.01046115
v -0.00070318 0.00611834 -0.01046115
v -0.00199314 0.00542020 -0.00974098
v -0.00199314 0.00542020 -0.00974098
v -0.00199314 0.00542020 -0.00974098
v -0.00301822 0.00488619 -0.00882518
v -0.00301822 0.00488619 -0.00882518
v -0.00354791 0.00462331 -0.00813596
v -0.00354791 0.00462331 -0.00813596
v -0.00376420 0.00452250 -0.00774623
v -0.00376420 0.00452250 -0.00774623
v 0.00107016 0.00711309 -0.01087224
v 0.00107016 0.00711309 -0.01087224
v 0.00107473 0.00710513 -0.01104745
v 0.00086635 0.00698707 -0.01101829
v 0.00086635 0.00698707 -0.01101829
v -0.00072242 0.00609726 -0.01062691
v -0.00072242 0.00609726 -0.01062691
v -0.00205366 0.00537714 -0.00987785
v -0.00205366 0.00537714 -0.00987785
v -0.00205366 0.00537714 -0.00987785
v -0.00310013 0.00483248 -0.00893459
v -0.00310013 0.00483248 -0.00893459
v -0.00363998 0.00456493 -0.00822588
v -0.00363998 0.00456493 -0.00822588
v -0.00386034 0.00446242 -0.00782574
v -0.00386034 0.00446242 -0.00782574
v -0.00386034 0.00446242 -0.00782574
v -0.00403329 0.00438837 -0.00740581
v -0.00403329 0.00438837 -0.00740581
v -0.00419567 0.00433040 -0.00682037
v -0.00419567 0.00433040 -0.00682037
v -0.00419567 0.00433040 -0.00682037
v -0.00429936 0.00431060 -0.00616175
v -0.00429936 0.00431060 -0.00616175
v -0.00434530 0.00433683 -0.00529086
v 0.00107016 0.00711309 -0.01087224
v 0.00107473 0.00710513 -0.01104745
v 0.00333624 0.01331703 -0.01077125
v 0.00342884 0.01120081 -0.01087232
v 0.00312744 0.00970055 -0.01097306
v 0.00259110 0.00853318 -0.01105769
v 0.00199172 0.00777568 -0.01109558
v 0.00155864 0.00740865 -0.01108973
v 0.00332741 0.01331589 -0.01060133
v 0.00341989 0.01120328 -0.01069792
v 0.00311919 0.00970523 -0.01079562
v 0.00258404 0.00853960 -0.01087856
v 0.00198587 0.00778309 -0.01091667
v 0.00155339 0.00741633 -0.01091220
v 0.00252006 0.01953914 -0.01049785
v 0.00240795 0.02097175 -0.01050741
v 0.00256056 0.02226033 -0.01049490
v 0.00279810 0.02301532 -0.01046640
v 0.00314158 0.02372997 -0.01041215
v 0.00252841 0.01954022 -0.01065852
v 0.00316116 0.02374769 -0.01056620
v 0.00264950 0.02256083 -0.01064374
v 0.00242643 0.02127863 -0.01066625
v 0.00243470 0.02040750 -0.01066484
v 0.00348189 0.02424654 -0.01050810
v 0.00422971 0.02516748 -0.01034369
v 0.00422357 0.02517293 -0.01018699
v -0.00423787 0.00439860 -0.00526992
v -0.00423787 0.00439860 -0.00526992
v -0.00418362 0.00437402 -0.00434731
v -0.00418362 0.00437402 -0.00434731
v -0.00408956 0.00439384 -0.00378058
v -0.00408956 0.00439384 -0.00378058
v -0.00393385 0.00444972 -0.00322400
v -0.00393385 0.00444972 -0.00322400
v -0.00434530 0.00433683 -0.00526992
v -0.00429936 0.00431060 -0.00439904
v -0.00429936 0.00431060 -0.00439904
v -0.00429936 0.00431060 -0.00439904
v -0.00419568 0.00433040 -0.00374047
v -0.00419568 0.00433040 -0.00374047
v -0.00419568 0.00433040 -0.00374047
v -0.00403329 0.00438837 -0.00315497
v -0.00403329 0.00438837 -0.00315497
v -0.00365295 0.00455874 -0.00235577
v -0.00365295 0.00455874 -0.00235577
v -0.00313240 0.00481612 -0.00166239
v -0.00313240 0.00481612 -0.00166239
v -0.00313240 0.00481612 -0.00166239
v -0.00231718 0.00523788 -0.00088571
v -0.00231718 0.00523788 -0.00088571
v -0.00128519 0.00578966 -0.00019804
v -0.00128519 0.00578966 -0.00019804
v -0.00023618 0.00636652 0.00023666
v -0.00023618 0.00636652 0.00023666
v 0.00086635 0.00698707 0.00045751
v 0.00086635 0.00698707 0.00045751
v 0.00107474 0.00710513 0.00048666
v 0.00107016 0.00711309 0.00031146
v 0.00107016 0.00711309 0.00031146
v 0.00083622 0.00698054 0.00027906
v 0.00083622 0.00698054 0.00027906
v -0.00355613 0.00461937 -0.00243791
v -0.00355613 0.00461937 -0.00243791
v -0.00355613 0.00461937 -0.00243791
v -0.00303829 0.00487600 -0.00175785
v -0.00303829 0.00487600 -0.00175785
v -0.00223184 0.00529392 -0.00100112
v -0.00223184 0.00529392 -0.00100112
v -0.00121208 0.00583996 -0.00033474
v -0.00021365 0.00638953 0.00007024
v 0.00107016 0.00711309 0.00031146
v 0.00179663 0.00760829 0.00035738
v 0.00239497 0.00825960 0.00033527
v 0.00284538 0.00901827 0.00028435
v 0.00316144 0.00983976 0.00022530
v 0.00339769 0.01098718 0.00014986
v 0.00344030 0.01215361 0.00008759
v 0.00332741 0.01331589 0.00004055
v 0.00107474 0.00710513 0.00048666
v 0.00182071 0.00761677 0.00053595
v 0.00243054 0.00829270 0.00051220
v 0.00288477 0.00908018 0.00045797
v 0.00319910 0.00993533 0.00039530
v 0.00342130 0.01111864 0.00031650
v 0.00344639 0.01221988 0.00025667
v 0.00333624 0.01331703 0.00021046
v 0.00314173 0.02373023 -0.00014865
v 0.00422357 0.02517293 -0.00037379
v 0.00285380 0.02315073 -0.00010226
v 0.00263592 0.02254424 -0.00007403
v 0.00241735 0.02126622 -0.00005355
v 0.00242675 0.02040317 -0.00005586
v 0.00252006 0.01953914 -0.00006293
v 0.00252841 0.01954022 0.00009773
v 0.00241650 0.02098714 0.00010599
v 0.00257220 0.02227312 0.00009175
v 0.00281369 0.02303224 0.00006158
v 0.00316117 0.02374769 0.00000542
v 0.00348189 0.02424654 -0.00005269
v 0.00422971 0.02516748 -0.00021710
v -0.00423787 0.00439860 -0.00526992
v -0.00423787 0.00439891 -0.00528039
v -0.00423787 0.00439860 -0.00529086
v -0.00434530 0.00433683 -0.00529086
v -0.00434530 0.00433683 -0.00526992
v -0.00400358 0.00250659 -0.00742010
v -0.00371605 0.00242162 -0.00806334
v -0.00368248 0.00274612 -0.00814785
v -0.00358212 0.00298649 -0.00833039
v -0.00359208 0.00301808 -0.00831594
v -0.00360099 0.00303586 -0.00830242
v -0.00360780 0.00304334 -0.00829174
v -0.00361969 0.00304342 -0.00827227
v -0.00363010 0.00303028 -0.00825439
v -0.00363529 0.00301890 -0.00824515
v -0.00364050 0.00300381 -0.00823562
v -0.00366642 0.00287833 -0.00818430
v -0.00359147 0.00332520 -0.00833039
v -0.00353890 0.00357295 -0.00841948
v -0.00356820 0.00349972 -0.00837282
v -0.00358532 0.00342452 -0.00834375
v -0.00359052 0.00337542 -0.00833380
v -0.00343603 0.00364032 -0.00856952
v -0.00348483 0.00360190 -0.00849966
v 0.00096850 0.00457869 -0.01126163
v 0.00005385 0.00478265 -0.01103882
v -0.00084858 0.00479308 -0.01068956
v -0.00168007 0.00463742 -0.01022064
v -0.00241670 0.00434971 -0.00966631
v -0.00296604 0.00402178 -0.00914211
v 0.00088167 0.00694734 -0.01106462
v -0.00405561 0.00434465 -0.00741968
v -0.00370921 0.00449722 -0.00816492
v -0.00323999 0.00472599 -0.00881885
v -0.00250045 0.00510444 -0.00956357
v -0.00156573 0.00559820 -0.01024375
v -0.00054583 0.00615113 -0.01073634
v 0.00016161 0.00654235 -0.01094216
v -0.00427735 0.00264175 -0.00616867
v -0.00427735 0.00264175 -0.00616867
v -0.00424681 0.00204460 -0.00617068
v -0.00427879 0.00267493 -0.00616863
v -0.00432475 0.00267294 -0.00529086
v -0.00432475 0.00267294 -0.00529086
v -0.00429140 0.00201862 -0.00529086
v 0.00634624 0.02774316 -0.00791358
v 0.00634624 0.02774316 -0.00791358
v 0.00616462 0.02748808 -0.00855367
v 0.00616462 0.02748808 -0.00855367
v 0.00616462 0.02748808 -0.00855367
v 0.00592268 0.02717630 -0.00905133
v 0.00592268 0.02717630 -0.00905133
v 0.00592268 0.02717630 -0.00905133
v 0.00564086 0.02683026 -0.00941388
v 0.00564086 0.02683026 -0.00941388
v 0.00531836 0.02644493 -0.00969381
v 0.00531836 0.02644493 -0.00969381
v 0.00478367 0.02581904 -0.00999355
v 0.00478367 0.02581904 -0.00999355
v 0.00422357 0.02517293 -0.01018699
v 0.00422357 0.02517293 -0.01018699
v 0.00422971 0.02516748 -0.01034369
v 0.00642357 0.02782274 -0.00800873
v 0.00642357 0.02782274 -0.00800873
v 0.00642357 0.02782274 -0.00800873
v 0.00642357 0.02782274 -0.00800873
v 0.00623920 0.02756318 -0.00866636
v 0.00623920 0.02756318 -0.00866636
v 0.00623920 0.02756318 -0.00866636
v 0.00598912 0.02724060 -0.00918452
v 0.00598912 0.02724060 -0.00918452
v 0.00569902 0.02688458 -0.00955563
v 0.00569902 0.02688458 -0.00955563
v 0.00536471 0.02648541 -0.00984235
v 0.00536471 0.02648541 -0.00984235
v 0.00481080 0.02583748 -0.01014714
v 0.00481080 0.02583748 -0.01014714
v 0.00664751 0.02821403 -0.00624712
v 0.00664751 0.02821403 -0.00624712
v 0.00665652 0.02829965 -0.00529086
v 0.00657758 0.02821074 -0.00529086
v 0.00651149 0.02800895 -0.00690427
v 0.00651149 0.02800895 -0.00690427
v 0.00651149 0.02800895 -0.00690427
v 0.00332741 0.01331589 -0.01060133
v 0.00333624 0.01331703 -0.01077125
v 0.00333624 0.01331703 -0.01077125
v 0.00294667 0.01630248 -0.01067862
v 0.00294667 0.01630248 -0.01067862
v 0.00252841 0.01954022 -0.01065852
v 0.00252006 0.01953914 -0.01049785
v 0.00252006 0.01953914 -0.01049785
v 0.00294412 0.01625490 -0.01051458
v 0.00294412 0.01625490 -0.01051458
v -0.00400358 0.00250659 -0.00742010
v -0.00427735 0.00264175 -0.00616867
v -0.00424681 0.00204460 -0.00617068
v -0.00424681 0.00204458 -0.00617068
v -0.00397438 0.00194653 -0.00742050
v -0.00414673 0.00201896 -0.00680476
v -0.00432432 0.00426668 -0.00616313
v -0.00427879 0.00267493 -0.00616863
v -0.00427735 0.00264175 -0.00616867
v -0.00400358 0.00250659 -0.00742010
v -0.00405561 0.00434465 -0.00741968
v -0.00432433 0.00426674 -0.00616313
v -0.00421954 0.00428668 -0.00682798
v -0.00400358 0.00250659 -0.00742010
v -0.00397438 0.00194653 -0.00742050
v -0.00377653 0.00184897 -0.00788529
v -0.00376664 0.00194487 -0.00791845
v -0.00371605 0.00242162 -0.00806334
v 0.00469696 0.00133878 -0.01154785
v 0.00417228 0.00169035 -0.01157712
v 0.00371786 0.00213157 -0.01158539
v 0.00335110 0.00265038 -0.01156735
v 0.00334809 0.00265567 -0.01156693
v 0.00518844 0.00274753 -0.01139670
v 0.00669193 0.00273785 -0.01107976
v 0.00671565 0.00127279 -0.01120442
v 0.00671565 0.00127278 -0.01120442
v 0.00619433 0.00104047 -0.01134421
v 0.00591260 0.00098650 -0.01140190
v 0.00559664 0.00099799 -0.01145363
v 0.00527870 0.00107643 -0.01149438
v 0.00498253 0.00119442 -0.01152451
v 0.00088167 0.00694734 -0.01106462
v 0.00109148 0.00706533 -0.01109404
v 0.00096850 0.00457869 -0.01126163
v 0.00334801 0.00265566 -0.01156694
v 0.00271291 0.00348397 -0.01149845
v 0.00190147 0.00413755 -0.01141175
v 0.00334802 0.00265565 -0.01156694
v 0.00334809 0.00265567 -0.01156693
v 0.00518844 0.00274753 -0.01139670
v 0.00669193 0.00273785 -0.01107976
v 0.00527632 0.01621623 -0.01046527
v 0.00595225 0.01186461 -0.01057914
v 0.00645246 0.00696450 -0.01080428
v 0.00299888 0.01631043 -0.01072591
v 0.00338866 0.01332567 -0.01081850
v 0.00182639 0.00756202 -0.01114369
v 0.00243426 0.00821702 -0.01112313
v 0.00289237 0.00898036 -0.01107197
v 0.00321604 0.00981250 -0.01101133
v 0.00345733 0.01096623 -0.01093371
v 0.00350257 0.01214711 -0.01086840
v 0.00595155 0.00475456 -0.01108964
v 0.00487764 0.00521838 -0.01121679
v 0.00443363 0.00557213 -0.01123449
v 0.00351761 0.00622755 -0.01124635
v 0.00437124 0.00729395 -0.01110750
v 0.00469688 0.00761924 -0.01105252
v 0.00491235 0.00799739 -0.01100188
v 0.00505033 0.00840891 -0.01095664
v 0.00486723 0.01082692 -0.01082270
v 0.00460332 0.01486586 -0.01063949
v 0.00755071 0.02449947 -0.00805849
v 0.00711089 0.02628915 -0.00805311
v 0.00650295 0.02781118 -0.00802241
v 0.00672818 0.02820555 -0.00624845
v 0.00672826 0.02820542 -0.00624844
v 0.00794987 0.02440896 -0.00627984
v 0.00749314 0.02635915 -0.00625209
v 0.00712247 0.02741320 -0.00622114
v 0.01047955 0.00379049 -0.00628011
v 0.01047953 0.00379064 -0.00628011
v 0.01034055 0.00373516 -0.00719310
v 0.01011919 0.00360891 -0.00805849
v 0.00869675 0.01634966 -0.00806117
v 0.00755071 0.02449947 -0.00805849
v 0.00794987 0.02440896 -0.00627984
v 0.00795379 0.02438713 -0.00627987
v 0.00913979 0.01576271 -0.00629868
v 0.00824394 0.02159609 -0.00716970
v 0.00869675 0.01634966 -0.00806117
v 0.00847957 0.01633615 -0.00858025
v 0.00813450 0.01631664 -0.00905668
v 0.00769186 0.01629369 -0.00945752
v 0.00715226 0.01626894 -0.00980700
v 0.00623083 0.01623634 -0.01021154
v 0.00527632 0.01621623 -0.01046527
v 0.00595225 0.01186461 -0.01057914
v 0.00645246 0.00696450 -0.01080428
v 0.00669193 0.00273785 -0.01107976
v 0.00765815 0.00268526 -0.01071098
v 0.00865774 0.00259967 -0.01013687
v 0.00865707 0.00259903 -0.01013741
v 0.00865793 0.00259965 -0.01013674
v 0.01011919 0.00360891 -0.00805849
v 0.00977598 0.00338729 -0.00889058
v 0.00932482 0.00307531 -0.00952181
v 0.00900282 0.00284650 -0.00984689
v 0.00810085 0.01485559 -0.00927611
v 0.00772684 0.01486340 -0.00957484
v 0.00734527 0.01486981 -0.00981667
v 0.00780653 0.01410963 -0.00959745
v 0.00747408 0.01412253 -0.00981127
v 0.00715504 0.01413420 -0.00998379
v 0.00878118 0.01055631 -0.00916840
v 0.00875042 0.00528343 -0.00982029
v 0.00854555 0.00760337 -0.00974905
v 0.00788072 0.00739781 -0.01020459
v 0.00914617 0.00463810 -0.00953294
v 0.00833196 0.00515103 -0.01013266
v 0.00868945 0.00443845 -0.00994795
v 0.00795716 0.00496272 -0.01037035
v 0.00774932 0.00482447 -0.01048948
v 0.00832380 0.00423390 -0.01021777
v 0.00748937 0.01220967 -0.00998305
v 0.00748879 0.01122031 -0.01007392
v 0.00763167 0.00993671 -0.01011441
v 0.00949420 0.00554597 -0.00898756
v 0.00869675 0.01634966 -0.00806117
v 0.00847957 0.01633615 -0.00858025
v 0.00813450 0.01631664 -0.00905668
v 0.00769186 0.01629369 -0.00945752
v 0.00715226 0.01626894 -0.00980700
v 0.00623083 0.01623634 -0.01021154
v 0.00527632 0.01621623 -0.01046527
v 0.00755071 0.02449947 -0.00805849
v 0.00353077 0.02421804 -0.01055477
v 0.00546754 0.02454817 -0.01006092
v 0.00619242 0.02459980 -0.00971978
v 0.00678959 0.02459988 -0.00928703
v 0.00717554 0.02456848 -0.00884241
v 0.00738618 0.02453480 -0.00846979
v 0.00321203 0.02372327 -0.01061298
v 0.00435917 0.02013245 -0.01049152
v 0.00674292 0.02365912 -0.00946381
v 0.00642071 0.02360382 -0.00968272
v 0.00596684 0.02351908 -0.00991836
v 0.00643432 0.02300585 -0.00972624
v 0.00618875 0.02294711 -0.00985491
v 0.00583292 0.02285890 -0.01001060
v 0.00734978 0.01794950 -0.00956392
v 0.00696800 0.01786451 -0.00979794
v 0.00690961 0.01865681 -0.00977919
v 0.00658331 0.01856765 -0.00994263
v 0.00657360 0.01778068 -0.00999098
v 0.00627193 0.01848364 -0.01007337
v 0.00594677 0.01839554 -0.01018890
v 0.00542583 0.01825141 -0.01033856
v 0.00725114 0.02419481 -0.00883313
v 0.00743771 0.02328725 -0.00878109
v 0.00725055 0.02340981 -0.00901811
v 0.00722143 0.02118637 -0.00937499
v 0.00805064 0.01907955 -0.00873797
v 0.00604431 0.02075589 -0.01004054
v 0.00820253 0.01725619 -0.00883872
v 0.00829797 0.01695975 -0.00875295
v 0.00669193 0.00273785 -0.01107976
v 0.00765815 0.00268526 -0.01071098
v 0.00865774 0.00259967 -0.01013687
v 0.00671565 0.00127279 -0.01120442
v 0.00764906 0.00189132 -0.01081013
v 0.00353077 0.02421804 -0.01055477
v 0.00546754 0.02454817 -0.01006092
v 0.00619242 0.02459980 -0.00971978
v 0.00678959 0.02459988 -0.00928703
v 0.00717554 0.02456848 -0.00884241
v 0.00738618 0.02453480 -0.00846979
v 0.00755071 0.02449947 -0.00805849
v 0.00711089 0.02628915 -0.00805311
v 0.00650295 0.02781118 -0.00802241
v 0.00427846 0.02513582 -0.01038972
v 0.00521586 0.02621590 -0.01001746
v 0.00565100 0.02672762 -0.00970242
v 0.00602318 0.02717708 -0.00927231
v 0.00629152 0.02751704 -0.00875329
v 0.00640989 0.02767712 -0.00839804
v 0.00651272 0.02580467 -0.00928282
v 0.00299888 0.01631043 -0.01072591
v 0.00258117 0.01954666 -0.01070580
v 0.00247019 0.02098331 -0.01071401
v 0.00262531 0.02226005 -0.01069972
v 0.00286608 0.02301364 -0.01066937
v 0.00321203 0.02372327 -0.01061298
v 0.00527632 0.01621623 -0.01046527
v 0.00435917 0.02013245 -0.01049152
v 0.00795379 0.02438713 -0.00627987
v 0.00794987 0.02440896 -0.00627984
v 0.00800481 0.02439628 -0.00529086
v 0.00765193 0.02598707 -0.00529086
v 0.00673727 0.02829116 -0.00529086
v 0.00727209 0.02716979 -0.00529086
v 0.00672826 0.02820542 -0.00624844
v 0.00749314 0.02635915 -0.00625209
v 0.00712247 0.02741320 -0.00622114
v 0.00875949 0.01918551 -0.00529086
v 0.00930660 0.01482870 -0.00529086
v 0.00800481 0.02439628 -0.00529086
v 0.00795379 0.02438713 -0.00627987
v 0.01047953 0.00379064 -0.00628011
v 0.00913979 0.01576271 -0.00629868
v 0.01053386 0.00376901 -0.00529086
v -0.00432475 0.00267294 -0.00529086
v -0.00427879 0.00267493 -0.00616863
v -0.00432432 0.00426668 -0.00616313
v -0.00437034 0.00429298 -0.00529086
v -0.00432475 0.00267294 -0.00526992
v -0.00432475 0.00267294 -0.00526992
v -0.00427879 0.00267493 -0.00439215
v -0.00429140 0.00201862 -0.00526992
v -0.00424681 0.00204458 -0.00439010
v -0.00427735 0.00264175 -0.00439211
v -0.00427735 0.00264175 -0.00439211
v 0.00665652 0.02829965 -0.00526992
v 0.00657758 0.02821074 -0.00526992
v 0.00651149 0.02800895 -0.00365651
v 0.00651149 0.02800895 -0.00365651
v 0.00651149 0.02800895 -0.00365651
v 0.00634624 0.02774316 -0.00264721
v 0.00634624 0.02774316 -0.00264721
v 0.00422357 0.02517293 -0.00037379
v 0.00422357 0.02517293 -0.00037379
v 0.00511880 0.02620987 -0.00073663
v 0.00511880 0.02620987 -0.00073663
v 0.00511880 0.02620987 -0.00073663
v 0.00552832 0.02669484 -0.00103711
v 0.00552832 0.02669484 -0.00103711
v 0.00591900 0.02717175 -0.00150435
v 0.00591900 0.02717175 -0.00150435
v 0.00591900 0.02717175 -0.00150435
v 0.00616509 0.02748871 -0.00200844
v 0.00616509 0.02748871 -0.00200844
v 0.00626540 0.02762633 -0.00232073
v 0.00626540 0.02762633 -0.00232073
v 0.00626540 0.02762633 -0.00232073
v 0.00422971 0.02516748 -0.00021710
v 0.00515444 0.02623795 -0.00058374
v 0.00515444 0.02623795 -0.00058374
v 0.00515444 0.02623795 -0.00058374
v 0.00558366 0.02674583 -0.00089362
v 0.00558366 0.02674583 -0.00089362
v 0.00558366 0.02674583 -0.00089362
v 0.00595076 0.02719275 -0.00131724
v 0.00595076 0.02719275 -0.00131724
v 0.00619272 0.02750135 -0.00177431
v 0.00619272 0.02750135 -0.00177431
v 0.00619272 0.02750135 -0.00177431
v 0.00632272 0.02767750 -0.00215111
v 0.00632272 0.02767750 -0.00215111
v 0.00642357 0.02782274 -0.00255205
v 0.00642357 0.02782274 -0.00255205
v 0.00642357 0.02782274 -0.00255205
v 0.00642357 0.02782274 -0.00255205
v 0.00664751 0.02821403 -0.00431367
v 0.00664751 0.02821403 -0.00431367
v 0.00252841 0.01954022 0.00009773
v 0.00252006 0.01953914 -0.00006293
v 0.00252006 0.01953914 -0.00006293
v 0.00294412 0.01625490 -0.00004620
v 0.00294412 0.01625490 -0.00004620
v 0.00332741 0.01331589 0.00004055
v 0.00333624 0.01331703 0.00021046
v 0.00333624 0.01331703 0.00021046
v 0.00294667 0.01630248 0.00011784
v 0.00294667 0.01630248 0.00011784
v -0.00427735 0.00264175 -0.00439211
v -0.00424681 0.00204458 -0.00439010
v -0.00414101 0.00201697 -0.00372807
v -0.00397438 0.00194653 -0.00314028
v -0.00400358 0.00250659 -0.00314068
v -0.00405561 0.00434465 -0.00314110
v -0.00400358 0.00250659 -0.00314068
v -0.00421953 0.00428669 -0.00373274
v -0.00432432 0.00426674 -0.00439766
v -0.00432432 0.00426668 -0.00439766
v -0.00427879 0.00267493 -0.00439215
v -0.00427735 0.00264175 -0.00439211
v -0.00377653 0.00184897 -0.00267549
v -0.00376664 0.00194487 -0.00264233
v -0.00371605 0.00242162 -0.00249745
v -0.00400358 0.00250659 -0.00314068
v -0.00397438 0.00194653 -0.00314028
v 0.00088168 0.00694734 0.00050384
v 0.00096850 0.00457869 0.00070085
v -0.00071337 0.00605939 0.00011094
v -0.00204877 0.00534129 -0.00063830
v -0.00310758 0.00479261 -0.00159002
v -0.00365684 0.00452194 -0.00230999
v -0.00388120 0.00441849 -0.00271690
v -0.00405561 0.00434465 -0.00314110
v -0.00400358 0.00250659 -0.00314068
v -0.00371605 0.00242162 -0.00249745
v -0.00368248 0.00274612 -0.00241293
v -0.00365798 0.00292892 -0.00235897
v -0.00363713 0.00301398 -0.00231897
v -0.00362923 0.00303185 -0.00230486
v -0.00362072 0.00304267 -0.00229026
v -0.00361227 0.00304531 -0.00227625
v -0.00360525 0.00304117 -0.00226501
v -0.00359855 0.00303186 -0.00225461
v -0.00359167 0.00301703 -0.00224423
v -0.00358212 0.00298649 -0.00223039
v -0.00359147 0.00332520 -0.00223039
v -0.00358857 0.00339884 -0.00222306
v -0.00358223 0.00344284 -0.00221158
v -0.00357012 0.00349336 -0.00219111
v -0.00355581 0.00353478 -0.00216793
v -0.00353890 0.00357295 -0.00214130
v -0.00348478 0.00360193 -0.00206104
v -0.00343603 0.00364032 -0.00199126
v -0.00254838 0.00428101 -0.00101006
v -0.00154366 0.00467449 -0.00025263
v -0.00060301 0.00480824 0.00023930
v 0.00018091 0.00476648 0.00051543
v 0.00669193 0.00273785 0.00051898
v 0.00671565 0.00127279 0.00064364
v 0.00671565 0.00127278 0.00064364
v 0.00469696 0.00133878 0.00098706
v 0.00535682 0.00105192 0.00092448
v 0.00570868 0.00098544 0.00087594
v 0.00597653 0.00099341 0.00082905
v 0.00635959 0.00109818 0.00074396
v 0.00335110 0.00265038 0.00100656
v 0.00371786 0.00213157 0.00102461
v 0.00417228 0.00169035 0.00101634
v 0.00334809 0.00265567 0.00100615
v 0.00518844 0.00274753 0.00083592
v 0.00582855 0.00210235 0.00077537
v 0.00527632 0.01621623 -0.00009551
v 0.00299888 0.01631043 0.00016513
v 0.00338866 0.01332567 0.00025771
v 0.00348074 0.01119285 0.00035914
v 0.00317449 0.00968139 0.00046000
v 0.00263116 0.00850615 0.00054444
v 0.00202462 0.00774372 0.00058201
v 0.00158456 0.00737267 0.00057604
v 0.00109148 0.00706533 0.00053326
v 0.00088168 0.00694734 0.00050384
v 0.00096850 0.00457869 0.00070085
v 0.00190147 0.00413755 0.00085097
v 0.00271291 0.00348397 0.00093767
v 0.00334801 0.00265566 0.00100615
v 0.00334802 0.00265565 0.00100616
v 0.00334809 0.00265567 0.00100615
v 0.00518844 0.00274753 0.00083592
v 0.00669193 0.00273785 0.00051898
v 0.00595225 0.01186461 0.00001835
v 0.00645246 0.00696450 0.00024350
v 0.00595155 0.00475456 0.00052885
v 0.00487764 0.00521838 0.00065601
v 0.00443363 0.00557213 0.00067371
v 0.00448289 0.00738428 0.00052995
v 0.00479239 0.00776257 0.00047126
v 0.00503333 0.00834409 0.00040244
v 0.00485218 0.01076014 0.00026774
v 0.00460332 0.01486586 0.00007871
v 0.00794987 0.02440896 -0.00428094
v 0.00749314 0.02635915 -0.00430870
v 0.00712247 0.02741320 -0.00433965
v 0.00672826 0.02820542 -0.00431234
v 0.00755071 0.02449947 -0.00250230
v 0.00711091 0.02628909 -0.00250768
v 0.00650295 0.02781118 -0.00253837
v 0.00672818 0.02820555 -0.00431234
v 0.00527632 0.01621623 -0.00009551
v 0.00299888 0.01631043 0.00016513
v 0.00258118 0.01954666 0.00014501
v 0.00321203 0.02372327 0.00005220
v 0.00292125 0.02314601 0.00010074
v 0.00269998 0.02253783 0.00013038
v 0.00247996 0.02127011 0.00015271
v 0.00248841 0.02040712 0.00015130
v 0.00435917 0.02013245 -0.00006926
v 0.00755071 0.02449947 -0.00250230
v 0.00711091 0.02628909 -0.00250768
v 0.00650295 0.02781118 -0.00253837
v 0.00631633 0.02754984 -0.00187280
v 0.00606209 0.02722518 -0.00134834
v 0.00576794 0.02686722 -0.00097168
v 0.00542905 0.02646534 -0.00068028
v 0.00486746 0.02581198 -0.00037042
v 0.00427846 0.02513582 -0.00017106
v 0.00353077 0.02421804 -0.00000601
v 0.00546754 0.02454817 -0.00049987
v 0.00619242 0.02459980 -0.00084100
v 0.00678959 0.02459988 -0.00127375
v 0.00717554 0.02456848 -0.00171837
v 0.00738618 0.02453480 -0.00209099
v 0.00655142 0.02588454 -0.00133824
v 0.00669193 0.00273785 0.00051898
v 0.00671565 0.00127279 0.00064364
v 0.00764906 0.00189132 0.00024935
v 0.00865774 0.00259967 -0.00042391
v 0.00765815 0.00268526 0.00015019
v 0.00353077 0.02421804 -0.00000601
v 0.00546754 0.02454817 -0.00049987
v 0.00619242 0.02459980 -0.00084100
v 0.00678959 0.02459988 -0.00127375
v 0.00717554 0.02456848 -0.00171837
v 0.00738618 0.02453480 -0.00209099
v 0.00755071 0.02449947 -0.00250230
v 0.00321203 0.02372327 0.00005220
v 0.00527632 0.01621623 -0.00009551
v 0.00435917 0.02013245 -0.00006926
v 0.00869675 0.01634966 -0.00249961
v 0.00847957 0.01633615 -0.00198053
v 0.00813450 0.01631664 -0.00150410
v 0.00769186 0.01629369 -0.00110326
v 0.00715226 0.01626894 -0.00075378
v 0.00623083 0.01623634 -0.00034924
v 0.00674292 0.02365912 -0.00109697
v 0.00642071 0.02360382 -0.00087806
v 0.00596684 0.02351908 -0.00064243
v 0.00643433 0.02300585 -0.00083454
v 0.00618875 0.02294711 -0.00070588
v 0.00583292 0.02285890 -0.00055019
v 0.00734978 0.01794950 -0.00099687
v 0.00696801 0.01786451 -0.00076284
v 0.00690961 0.01865681 -0.00078160
v 0.00658331 0.01856765 -0.00061816
v 0.00657360 0.01778068 -0.00056980
v 0.00627193 0.01848364 -0.00048742
v 0.00594677 0.01839554 -0.00037189
v 0.00542583 0.01825141 -0.00022222
v 0.00725114 0.02419481 -0.00172766
v 0.00743771 0.02328725 -0.00177970
v 0.00725055 0.02340981 -0.00154268
v 0.00722143 0.02118637 -0.00118580
v 0.00805064 0.01907955 -0.00182281
v 0.00604431 0.02075589 -0.00052024
v 0.00820253 0.01725619 -0.00172206
v 0.00829797 0.01695975 -0.00180783
v 0.00865774 0.00259967 -0.00042391
v 0.00865707 0.00259903 -0.00042338
v 0.00865793 0.00259965 -0.00042404
v 0.00926841 0.00303546 -0.00097626
v 0.00973194 0.00335759 -0.00159341
v 0.00995040 0.00350248 -0.00203159
v 0.01011919 0.00360891 -0.00250230
v 0.00869675 0.01634966 -0.00249961
v 0.00847957 0.01633615 -0.00198053
v 0.00813450 0.01631664 -0.00150410
v 0.00769186 0.01629369 -0.00110326
v 0.00715226 0.01626894 -0.00075378
v 0.00623083 0.01623634 -0.00034924
v 0.00527632 0.01621623 -0.00009551
v 0.00595225 0.01186461 0.00001835
v 0.00645246 0.00696450 0.00024350
v 0.00669193 0.00273785 0.00051898
v 0.00765815 0.00268526 0.00015019
v 0.00810085 0.01485559 -0.00128468
v 0.00772684 0.01486340 -0.00098595
v 0.00734527 0.01486981 -0.00074411
v 0.00780653 0.01410963 -0.00096333
v 0.00747408 0.01412253 -0.00074951
v 0.00715504 0.01413420 -0.00057700
v 0.00878118 0.01055631 -0.00139239
v 0.00924383 0.00468118 -0.00113471
v 0.00875042 0.00528343 -0.00074049
v 0.00854555 0.00760337 -0.00081174
v 0.00788072 0.00739781 -0.00035619
v 0.00852646 0.00522049 -0.00056580
v 0.00899432 0.00458835 -0.00087818
v 0.00828853 0.00513309 -0.00039886
v 0.00863915 0.00441213 -0.00057301
v 0.00791804 0.00493864 -0.00016739
v 0.00748937 0.01220967 -0.00057773
v 0.00748879 0.01122031 -0.00048686
v 0.00763167 0.00993671 -0.00044637
v 0.00949420 0.00554597 -0.00157323
v 0.00869675 0.01634966 -0.00249961
v 0.00755071 0.02449947 -0.00250230
v 0.00794987 0.02440896 -0.00428094
v 0.00795379 0.02438713 -0.00428091
v 0.01047953 0.00379064 -0.00428067
v 0.00913979 0.01576271 -0.00426210
v 0.01047955 0.00379049 -0.00428067
v 0.01011919 0.00360891 -0.00250230
v 0.01034055 0.00373516 -0.00336768
v 0.00824394 0.02159609 -0.00339109
v 0.00765193 0.02598707 -0.00526992
v 0.00727203 0.02716995 -0.00526992
v 0.00673727 0.02829116 -0.00526992
v 0.00672826 0.02820542 -0.00431234
v 0.00794987 0.02440896 -0.00428094
v 0.00749314 0.02635915 -0.00430870
v 0.00712247 0.02741320 -0.00433965
v 0.00795379 0.02438713 -0.00428091
v 0.00800481 0.02439628 -0.00526992
v 0.01047953 0.00379064 -0.00428067
v 0.00913979 0.01576271 -0.00426210
v 0.00795379 0.02438713 -0.00428091
v 0.01053386 0.00376901 -0.00526992
v 0.00930660 0.01482870 -0.00526992
v 0.00875949 0.01918551 -0.00526992
v 0.00800481 0.02439628 -0.00526992
v -0.00432432 0.00426668 -0.00439766
v -0.00427879 0.00267493 -0.00439215
v -0.00437034 0.00429298 -0.00526992
v -0.00432475 0.00267294 -0.00526992
v 0.00673727 0.02829116 -0.00529086
v 0.00727209 0.02716979 -0.00529086
v 0.00765193 0.02598707 -0.00529086
v 0.00673727 0.02829116 -0.00526992
v 0.00765193 0.02598707 -0.00526992
v 0.00727203 0.02716995 -0.00526992
v 0.00765217 0.02598713 -0.00528388
v 0.00765217 0.02598713 -0.00527690
v 0.00765193 0.02598707 -0.00529086
v 0.00765217 0.02598713 -0.00528388
v 0.00765217 0.02598713 -0.00527690
v 0.00765193 0.02598707 -0.00526992
v 0.00800481 0.02439628 -0.00526992
v 0.00800481 0.02439628 -0.00529086
v 0.00800505 0.02439632 -0.00528388
v 0.00800505 0.02439632 -0.00527690
v 0.00800481 0.02439628 -0.00529086
v 0.00800505 0.02439632 -0.00528388
v 0.00800505 0.02439632 -0.00527690
v 0.00800481 0.02439628 -0.00526992
v 0.00875949 0.01918551 -0.00526992
v 0.00875949 0.01918551 -0.00529086
v 0.00875973 0.01918555 -0.00528388
v 0.00875973 0.01918555 -0.00527690
v 0.00875949 0.01918551 -0.00529086
v 0.00875973 0.01918555 -0.00528388
v 0.00875973 0.01918555 -0.00527690
v 0.00875949 0.01918551 -0.00526992
v 0.00930660 0.01482870 -0.00526992
v 0.00930660 0.01482870 -0.00529086
v 0.00930684 0.01482873 -0.00528388
v 0.00930684 0.01482873 -0.00527690
v 0.01053386 0.00376901 -0.00526992
v 0.00930660 0.01482870 -0.00526992
v 0.01053410 0.00376903 -0.00527690
v 0.01053410 0.00376903 -0.00528388
v 0.01053386 0.00376901 -0.00529086
v 0.00930660 0.01482870 -0.00529086
v 0.00930684 0.01482873 -0.00528388
v 0.00930684 0.01482873 -0.00527690
v 0.00334802 0.00265565 0.00100616
v 0.00330680 0.00263135 0.00100404
v 0.00326775 0.00260747 0.00099080
v 0.00323292 0.00258525 0.00096736
v 0.00320429 0.00256595 0.00093478
v 0.00318338 0.00255061 0.00089492
v 0.00317262 0.00254140 0.00085757
v 0.00316858 0.00253593 0.00081768
v 0.00317146 0.00253102 0.00081808
v 0.00335110 0.00265038 0.00100656
v 0.00331187 0.00262737 0.00100493
v 0.00327432 0.00260455 0.00099308
v 0.00324039 0.00258310 0.00097163
v 0.00321185 0.00256413 0.00094168
v 0.00319017 0.00254863 0.00090479
v 0.00317646 0.00253740 0.00086287
v 0.00334809 0.00265567 0.00100615
v -0.00429140 0.00201862 -0.00529086
v -0.00429164 0.00201860 -0.00528388
v -0.00429164 0.00201860 -0.00527690
v -0.00429140 0.00201862 -0.00526992
v -0.00432475 0.00267294 -0.00526992
v -0.00432475 0.00267294 -0.00529086
v -0.00432499 0.00267292 -0.00528388
v -0.00432499 0.00267292 -0.00527690
v -0.00437034 0.00429298 -0.00526992
v -0.00432475 0.00267294 -0.00526992
v -0.00437034 0.00429298 -0.00529086
v -0.00432475 0.00267294 -0.00529086
v -0.00432499 0.00267292 -0.00528388
v -0.00432499 0.00267292 -0.00527690
v 0.00657758 0.02821074 -0.00526992
v 0.00657758 0.02821074 -0.00529086
v 0.00665652 0.02829965 -0.00526992
v 0.00665652 0.02829965 -0.00529086
v -0.00434530 0.00433683 -0.00526992
v -0.00435576 0.00432879 -0.00526961
v -0.00436375 0.00431829 -0.00526951
v -0.00436873 0.00430607 -0.00526961
v -0.00437034 0.00429298 -0.00526992
v -0.00434530 0.00433683 -0.00529086
v -0.00437034 0.00429298 -0.00529086
v -0.00436873 0.00430607 -0.00529117
v -0.00436375 0.00431829 -0.00529127
v -0.00435576 0.00432879 -0.00529117
v -0.00437034 0.00429298 -0.00529086
v -0.00436873 0.00430607 -0.00529117
v -0.00436375 0.00431829 -0.00529127
v -0.00435576 0.00432879 -0.00529117
v -0.00434530 0.00433683 -0.00529086
v -0.00429936 0.00431060 -0.00616175
v -0.00432433 0.00426674 -0.00616313
v -0.00431776 0.00429205 -0.00616296
v -0.00432432 0.00426668 -0.00616313
v -0.00432432 0.00426668 -0.00439766
v -0.00437034 0.00429298 -0.00526992
v -0.00432432 0.00426674 -0.00439766
v -0.00429936 0.00431060 -0.00439904
v -0.00431776 0.00429203 -0.00439782
v -0.00434530 0.00433683 -0.00526992
v -0.00435576 0.00432879 -0.00526961
v -0.00436375 0.00431829 -0.00526951
v -0.00436873 0.00430607 -0.00526961
v -0.00432433 0.00426674 -0.00616313
v -0.00431776 0.00429205 -0.00616296
v -0.00429936 0.00431060 -0.00616175
v -0.00403329 0.00438837 -0.00740581
v -0.00419567 0.00433040 -0.00682037
v -0.00405561 0.00434465 -0.00741968
v -0.00405508 0.00435519 -0.00741803
v -0.00405241 0.00436527 -0.00741569
v -0.00404774 0.00437443 -0.00741278
v -0.00404126 0.00438225 -0.00740944
v -0.00421954 0.00428668 -0.00682798
v -0.00421354 0.00431194 -0.00682534
v -0.00429936 0.00431060 -0.00439904
v -0.00431776 0.00429203 -0.00439782
v -0.00432432 0.00426674 -0.00439766
v -0.00405561 0.00434465 -0.00314110
v -0.00421953 0.00428669 -0.00373274
v -0.00403329 0.00438837 -0.00315497
v -0.00404126 0.00438225 -0.00315134
v -0.00404774 0.00437443 -0.00314800
v -0.00405241 0.00436527 -0.00314509
v -0.00405508 0.00435519 -0.00314276
v -0.00419568 0.00433040 -0.00374047
v -0.00421354 0.00431195 -0.00373544
v -0.00405561 0.00434465 -0.00741968
v -0.00405508 0.00435519 -0.00741803
v -0.00405241 0.00436527 -0.00741569
v -0.00404774 0.00437443 -0.00741278
v -0.00404126 0.00438225 -0.00740944
v -0.00403329 0.00438837 -0.00740581
v 0.00086635 0.00698707 -0.01101829
v -0.00072242 0.00609726 -0.01062691
v -0.00205366 0.00537714 -0.00987785
v -0.00310013 0.00483248 -0.00893459
v -0.00363998 0.00456493 -0.00822588
v -0.00386034 0.00446242 -0.00782574
v 0.00088167 0.00694734 -0.01106462
v 0.00087666 0.00695704 -0.01106163
v 0.00087238 0.00696605 -0.01105628
v 0.00086907 0.00697392 -0.01104885
v 0.00086690 0.00698025 -0.01103972
v 0.00086597 0.00698471 -0.01102936
v -0.00370921 0.00449722 -0.00816492
v -0.00323999 0.00472599 -0.00881885
v -0.00250045 0.00510444 -0.00956357
v -0.00156573 0.00559820 -0.01024375
v -0.00054583 0.00615113 -0.01073634
v 0.00016161 0.00654235 -0.01094216
v 0.00051034 0.00676617 -0.01099755
v 0.00050873 0.00677025 -0.01099329
v -0.00029226 0.00632181 -0.01080937
v -0.00064006 0.00612964 -0.01068812
v -0.00115230 0.00584950 -0.01046017
v -0.00181927 0.00549022 -0.01007060
v -0.00228511 0.00524335 -0.00973021
v -0.00281453 0.00496756 -0.00926319
v -0.00317607 0.00478305 -0.00888091
v -0.00345638 0.00464322 -0.00853181
v -0.00368056 0.00453471 -0.00819830
v -0.00379442 0.00448143 -0.00799901
v -0.00396860 0.00440384 -0.00762972
v -0.00403329 0.00438837 -0.00315497
v -0.00404126 0.00438225 -0.00315134
v -0.00404774 0.00437443 -0.00314800
v -0.00405241 0.00436527 -0.00314509
v -0.00405508 0.00435519 -0.00314276
v -0.00405561 0.00434465 -0.00314110
v 0.00088168 0.00694734 0.00050384
v -0.00071337 0.00605939 0.00011094
v -0.00204877 0.00534129 -0.00063830
v -0.00310758 0.00479261 -0.00159002
v -0.00365684 0.00452194 -0.00230999
v -0.00388120 0.00441849 -0.00271690
v 0.00086635 0.00698707 0.00045751
v 0.00086597 0.00698471 0.00046857
v 0.00086690 0.00698025 0.00047894
v 0.00086907 0.00697393 0.00048807
v 0.00087238 0.00696605 0.00049550
v 0.00087666 0.00695704 0.00050085
v -0.00365295 0.00455874 -0.00235577
v -0.00313240 0.00481612 -0.00166239
v -0.00231718 0.00523788 -0.00088571
v -0.00128519 0.00578966 -0.00019804
v -0.00023618 0.00636652 0.00023666
v 0.00031056 0.00666287 0.00039346
v 0.00031172 0.00665922 0.00039817
v -0.00048053 0.00621760 0.00018629
v -0.00100792 0.00592811 -0.00003031
v -0.00167721 0.00556621 -0.00039798
v -0.00219028 0.00529331 -0.00075633
v -0.00272836 0.00501205 -0.00121498
v -0.00312589 0.00480842 -0.00162291
v -0.00341242 0.00466489 -0.00197014
v -0.00366082 0.00454410 -0.00233040
v -0.00377694 0.00448951 -0.00252943
v -0.00396882 0.00440375 -0.00293159
v 0.00107473 0.00710513 -0.01104745
v 0.00086635 0.00698707 -0.01101829
v 0.00109148 0.00706533 -0.01109404
v 0.00108629 0.00707512 -0.01109115
v 0.00108180 0.00708421 -0.01108584
v 0.00107824 0.00709213 -0.01107838
v 0.00107581 0.00709846 -0.01106916
v 0.00107462 0.00710287 -0.01105867
v 0.00088167 0.00694734 -0.01106462
v 0.00087666 0.00695704 -0.01106163
v 0.00087238 0.00696605 -0.01105628
v 0.00086907 0.00697392 -0.01104885
v 0.00086690 0.00698025 -0.01103972
v 0.00086597 0.00698471 -0.01102936
v 0.00086635 0.00698707 0.00045751
v 0.00086597 0.00698471 0.00046857
v 0.00086690 0.00698025 0.00047894
v 0.00086907 0.00697393 0.00048807
v 0.00087238 0.00696605 0.00049550
v 0.00087666 0.00695704 0.00050085
v 0.00088168 0.00694734 0.00050384
v 0.00109148 0.00706533 0.00053326
v 0.00107474 0.00710513 0.00048666
v 0.00107462 0.00710287 0.00049788
v 0.00107581 0.00709846 0.00050838
v 0.00107824 0.00709213 0.00051760
v 0.00108180 0.00708421 0.00052506
v 0.00108630 0.00707512 0.00053037
v 0.00109148 0.00706533 -0.01109404
v 0.00108629 0.00707512 -0.01109115
v 0.00108180 0.00708421 -0.01108584
v 0.00107824 0.00709213 -0.01107838
v 0.00107581 0.00709846 -0.01106916
v 0.00107462 0.00710287 -0.01105867
v 0.00107473 0.00710513 -0.01104745
v 0.00333624 0.01331703 -0.01077125
v 0.00342884 0.01120081 -0.01087232
v 0.00312744 0.00970055 -0.01097306
v 0.00259110 0.00853318 -0.01105769
v 0.00199172 0.00777568 -0.01109558
v 0.00155864 0.00740865 -0.01108973
v 0.00338866 0.01332567 -0.01081850
v 0.00337566 0.01332393 -0.01081760
v 0.00336336 0.01332216 -0.01081331
v 0.00335261 0.01332048 -0.01080594
v 0.00334415 0.01331900 -0.01079600
v 0.00333856 0.01331782 -0.01078416
v 0.00182639 0.00756202 -0.01114369
v 0.00243426 0.00821702 -0.01112313
v 0.00289237 0.00898036 -0.01107197
v 0.00321604 0.00981250 -0.01101133
v 0.00345733 0.01096623 -0.01093371
v 0.00350257 0.01214711 -0.01086840
v 0.00343515 0.01273461 -0.01083704
v 0.00342928 0.01273387 -0.01083372
v 0.00342350 0.01273309 -0.01082925
v 0.00347066 0.01167257 -0.01088000
v 0.00343447 0.01108538 -0.01091373
v 0.00331393 0.01032735 -0.01096265
v 0.00316307 0.00975979 -0.01100242
v 0.00301389 0.00934145 -0.01103283
v 0.00273925 0.00875700 -0.01107503
v 0.00250911 0.00837969 -0.01110012
v 0.00221307 0.00799224 -0.01112075
v 0.00190552 0.00767407 -0.01112886
v 0.00168786 0.00748900 -0.01112613
v 0.00132761 0.00723842 -0.01110514
v 0.00132581 0.00724199 -0.01110027
v 0.00107474 0.00710513 0.00048666
v 0.00107462 0.00710287 0.00049788
v 0.00107581 0.00709846 0.00050838
v 0.00107824 0.00709213 0.00051760
v 0.00108180 0.00708421 0.00052506
v 0.00108630 0.00707512 0.00053037
v 0.00109148 0.00706533 0.00053326
v 0.00338866 0.01332567 0.00025771
v 0.00348074 0.01119285 0.00035914
v 0.00317449 0.00968139 0.00046000
v 0.00263116 0.00850615 0.00054444
v 0.00202462 0.00774372 0.00058201
v 0.00158456 0.00737267 0.00057604
v 0.00333624 0.01331703 0.00021046
v 0.00333856 0.01331782 0.00022338
v 0.00334415 0.01331900 0.00023521
v 0.00335261 0.01332048 0.00024516
v 0.00336336 0.01332216 0.00025253
v 0.00337566 0.01332393 0.00025681
v 0.00182071 0.00761677 0.00053595
v 0.00243054 0.00829270 0.00051220
v 0.00288477 0.00908018 0.00045797
v 0.00319910 0.00993533 0.00039530
v 0.00342130 0.01111864 0.00031650
v 0.00344639 0.01221988 0.00025667
v 0.00341046 0.01277018 0.00025609
v 0.00341440 0.01277083 0.00026157
v 0.00341946 0.01277158 0.00026685
v 0.00347135 0.01170814 0.00031730
v 0.00344145 0.01115715 0.00034861
v 0.00335998 0.01055805 0.00038641
v 0.00317932 0.00981211 0.00043788
v 0.00302925 0.00938026 0.00046921
v 0.00275958 0.00879447 0.00051161
v 0.00252489 0.00840313 0.00053789
v 0.00223310 0.00801566 0.00055897
v 0.00191707 0.00768474 0.00056802
v 0.00170073 0.00749914 0.00056571
v 0.00132830 0.00723884 0.00054442
v 0.00133044 0.00723478 0.00054875
v 0.00338866 0.01332567 -0.01081850
v 0.00299888 0.01631043 -0.01072591
v 0.00337566 0.01332393 -0.01081760
v 0.00336336 0.01332216 -0.01081331
v 0.00335261 0.01332048 -0.01080594
v 0.00334415 0.01331900 -0.01079600
v 0.00333856 0.01331782 -0.01078416
v 0.00333624 0.01331703 -0.01077125
v 0.00294667 0.01630248 -0.01067862
v 0.00298594 0.01630872 -0.01072494
v 0.00297369 0.01630702 -0.01072062
v 0.00296299 0.01630545 -0.01071324
v 0.00295457 0.01630411 -0.01070330
v 0.00294899 0.01630310 -0.01069149
v 0.00296299 0.01630545 -0.01071324
v 0.00294667 0.01630248 0.00011784
v 0.00294900 0.01630310 0.00013071
v 0.00295457 0.01630411 0.00014252
v 0.00296299 0.01630545 0.00015246
v 0.00297369 0.01630702 0.00015984
v 0.00298594 0.01630872 0.00016416
v 0.00299888 0.01631043 0.00016513
v 0.00333624 0.01331703 0.00021046
v 0.00333856 0.01331782 0.00022338
v 0.00334415 0.01331900 0.00023521
v 0.00335261 0.01332048 0.00024516
v 0.00336336 0.01332216 0.00025253
v 0.00337566 0.01332393 0.00025681
v 0.00338866 0.01332567 0.00025771
v 0.00299888 0.01631043 -0.01072591
v 0.00298594 0.01630872 -0.01072494
v 0.00297369 0.01630702 -0.01072062
v 0.00296299 0.01630545 -0.01071324
v 0.00295457 0.01630411 -0.01070330
v 0.00294899 0.01630310 -0.01069149
v 0.00294667 0.01630248 -0.01067862
v 0.00252841 0.01954022 -0.01065852
v 0.00258117 0.01954666 -0.01070580
v 0.00256815 0.01954499 -0.01070491
v 0.00255582 0.01954344 -0.01070063
v 0.00254501 0.01954210 -0.01069326
v 0.00253647 0.01954108 -0.01068330
v 0.00253081 0.01954043 -0.01067145
v 0.00294667 0.01630248 0.00011784
v 0.00294900 0.01630310 0.00013071
v 0.00295457 0.01630411 0.00014252
v 0.00296299 0.01630545 0.00015246
v 0.00297369 0.01630702 0.00015984
v 0.00298594 0.01630872 0.00016416
v 0.00299888 0.01631043 0.00016513
v 0.00258118 0.01954666 0.00014501
v 0.00252841 0.01954022 0.00009773
v 0.00253081 0.01954043 0.00011066
v 0.00253647 0.01954108 0.00012252
v 0.00254501 0.01954210 0.00013248
v 0.00255582 0.01954344 0.00013985
v 0.00256815 0.01954500 0.00014413
v 0.00258117 0.01954666 -0.01070580
v 0.00256815 0.01954499 -0.01070491
v 0.00255582 0.01954344 -0.01070063
v 0.00254501 0.01954210 -0.01069326
v 0.00253647 0.01954108 -0.01068330
v 0.00253081 0.01954043 -0.01067145
v 0.00252841 0.01954022 -0.01065852
v 0.00316116 0.02374769 -0.01056620
v 0.00264950 0.02256083 -0.01064374
v 0.00242643 0.02127863 -0.01066625
v 0.00243470 0.02040750 -0.01066484
v 0.00321203 0.02372327 -0.01061298
v 0.00320187 0.02372912 -0.01061310
v 0.00319185 0.02373463 -0.01061049
v 0.00318252 0.02373946 -0.01060530
v 0.00317437 0.02374336 -0.01059781
v 0.00316788 0.02374613 -0.01058845
v 0.00316340 0.02374760 -0.01057771
v 0.00247019 0.02098331 -0.01071401
v 0.00262531 0.02226005 -0.01069972
v 0.00286608 0.02301364 -0.01066937
v 0.00300151 0.02338583 -0.01064042
v 0.00299657 0.02338799 -0.01063747
v 0.00299163 0.02339008 -0.01063356
v 0.00274323 0.02279416 -0.01066962
v 0.00262569 0.02241319 -0.01068377
v 0.00249386 0.02177569 -0.01069719
v 0.00243668 0.02113089 -0.01070162
v 0.00243653 0.02069610 -0.01070109
v 0.00249222 0.01997427 -0.01069659
v 0.00248711 0.01997373 -0.01069130
v 0.00248313 0.01997332 -0.01068581
v 0.00252841 0.01954022 0.00009773
v 0.00253081 0.01954043 0.00011066
v 0.00253647 0.01954108 0.00012252
v 0.00254501 0.01954210 0.00013248
v 0.00255582 0.01954344 0.00013985
v 0.00256815 0.01954500 0.00014413
v 0.00258118 0.01954666 0.00014501
v 0.00321203 0.02372327 0.00005220
v 0.00292125 0.02314601 0.00010074
v 0.00269998 0.02253783 0.00013038
v 0.00247996 0.02127011 0.00015271
v 0.00248841 0.02040712 0.00015130
v 0.00316117 0.02374769 0.00000542
v 0.00316340 0.02374760 0.00001693
v 0.00316789 0.02374613 0.00002766
v 0.00317437 0.02374336 0.00003703
v 0.00318252 0.02373945 0.00004451
v 0.00319185 0.02373462 0.00004970
v 0.00320188 0.02372913 0.00005231
v 0.00241650 0.02098714 0.00010599
v 0.00257220 0.02227312 0.00009175
v 0.00281369 0.02303224 0.00006158
v 0.00302360 0.02345479 0.00006754
v 0.00302853 0.02345265 0.00007145
v 0.00303344 0.02345044 0.00007441
v 0.00285789 0.02309402 0.00009312
v 0.00274174 0.02278990 0.00010903
v 0.00262469 0.02240945 0.00012310
v 0.00249356 0.02177366 0.00013643
v 0.00243664 0.02112971 0.00014084
v 0.00243654 0.02069581 0.00014030
v 0.00249243 0.01997235 0.00013579
v 0.00249827 0.01997297 0.00014027
v 0.00250416 0.01997361 0.00014359
v 0.00321203 0.02372327 -0.01061298
v 0.00321203 0.02372327 -0.01061298
v 0.00320187 0.02372912 -0.01061310
v 0.00319185 0.02373463 -0.01061049
v 0.00318252 0.02373946 -0.01060530
v 0.00317437 0.02374336 -0.01059781
v 0.00316788 0.02374613 -0.01058845
v 0.00316340 0.02374760 -0.01057771
v 0.00316116 0.02374769 -0.01056620
v 0.00348189 0.02424654 -0.01050810
v 0.00353077 0.02421804 -0.01055477
v 0.00352121 0.02422485 -0.01055490
v 0.00351172 0.02423125 -0.01055231
v 0.00350281 0.02423688 -0.01054714
v 0.00349499 0.02424144 -0.01053967
v 0.00348868 0.02424467 -0.01053032
v 0.00348423 0.02424641 -0.01051959
v 0.00353077 0.02421804 -0.01055477
v 0.00316117 0.02374769 0.00000542
v 0.00316340 0.02374760 0.00001693
v 0.00316789 0.02374613 0.00002766
v 0.00317437 0.02374336 0.00003703
v 0.00318252 0.02373945 0.00004451
v 0.00319185 0.02373462 0.00004970
v 0.00320188 0.02372913 0.00005231
v 0.00321203 0.02372327 0.00005220
v 0.00321203 0.02372327 0.00005220
v 0.00353077 0.02421804 -0.00000601
v 0.00348189 0.02424654 -0.00005269
v 0.00348423 0.02424641 -0.00004119
v 0.00348869 0.02424467 -0.00003047
v 0.00349499 0.02424144 -0.00002111
v 0.00350282 0.02423688 -0.00001365
v 0.00351172 0.02423125 -0.00000847
v 0.00352121 0.02422485 -0.00000588
v 0.00353077 0.02421804 -0.00000601
v 0.00353077 0.02421804 -0.01055477
v 0.00352121 0.02422485 -0.01055490
v 0.00351172 0.02423125 -0.01055231
v 0.00350281 0.02423688 -0.01054714
v 0.00349499 0.02424144 -0.01053967
v 0.00348868 0.02424467 -0.01053032
v 0.00348423 0.02424641 -0.01051959
v 0.00348189 0.02424654 -0.01050810
v 0.00422971 0.02516748 -0.01034369
v 0.00427846 0.02513582 -0.01038972
v 0.00426954 0.02514369 -0.01039012
v 0.00426048 0.02515103 -0.01038774
v 0.00425178 0.02515742 -0.01038271
v 0.00424395 0.02516251 -0.01037531
v 0.00423743 0.02516599 -0.01036598
v 0.00423259 0.02516768 -0.01035523
v 0.00427846 0.02513582 -0.00017106
v 0.00353077 0.02421804 -0.00000601
v 0.00422971 0.02516748 -0.00021710
v 0.00423259 0.02516768 -0.00020555
v 0.00423743 0.02516599 -0.00019480
v 0.00424395 0.02516251 -0.00018547
v 0.00425178 0.02515742 -0.00017808
v 0.00426048 0.02515103 -0.00017305
v 0.00426954 0.02514369 -0.00017066
v 0.00348189 0.02424654 -0.00005269
v 0.00348423 0.02424641 -0.00004119
v 0.00348869 0.02424467 -0.00003047
v 0.00349499 0.02424144 -0.00002111
v 0.00350282 0.02423688 -0.00001365
v 0.00351172 0.02423125 -0.00000847
v 0.00352121 0.02422485 -0.00000588
v 0.00427846 0.02513582 -0.01038972
v 0.00426954 0.02514369 -0.01039012
v 0.00426048 0.02515103 -0.01038774
v 0.00425178 0.02515742 -0.01038271
v 0.00424395 0.02516251 -0.01037531
v 0.00423743 0.02516599 -0.01036598
v 0.00423259 0.02516768 -0.01035523
v 0.00422971 0.02516748 -0.01034369
v 0.00642357 0.02782274 -0.00800873
v 0.00623920 0.02756318 -0.00866636
v 0.00598912 0.02724060 -0.00918452
v 0.00569902 0.02688458 -0.00955563
v 0.00536471 0.02648541 -0.00984235
v 0.00481080 0.02583748 -0.01014714
v 0.00650295 0.02781118 -0.00802241
v 0.00648895 0.02782663 -0.00802434
v 0.00647672 0.02783350 -0.00802389
v 0.00646250 0.02783700 -0.00802192
v 0.00644792 0.02783618 -0.00801847
v 0.00643450 0.02783124 -0.00801392
v 0.00521586 0.02621590 -0.01001746
v 0.00565100 0.02672762 -0.00970242
v 0.00602318 0.02717708 -0.00927231
v 0.00629152 0.02751704 -0.00875329
v 0.00640989 0.02767712 -0.00839804
v 0.00644273 0.02776350 -0.00821398
v 0.00643642 0.02776718 -0.00821376
v 0.00642912 0.02777014 -0.00821304
v 0.00642071 0.02777212 -0.00821168
v 0.00632715 0.02764085 -0.00854380
v 0.00626603 0.02755840 -0.00871914
v 0.00614773 0.02740431 -0.00899108
v 0.00600520 0.02722472 -0.00924021
v 0.00586223 0.02704883 -0.00943666
v 0.00567301 0.02682016 -0.00964282
v 0.00550478 0.02661960 -0.00979034
v 0.00528702 0.02636272 -0.00994577
v 0.00500857 0.02603748 -0.01010195
v 0.00454203 0.02549805 -0.01029129
v 0.00453755 0.02550063 -0.01028675
v 0.00453379 0.02550250 -0.01028201
v 0.00422971 0.02516748 -0.00021710
v 0.00423259 0.02516768 -0.00020555
v 0.00423743 0.02516599 -0.00019480
v 0.00424395 0.02516251 -0.00018547
v 0.00425178 0.02515742 -0.00017808
v 0.00426048 0.02515103 -0.00017305
v 0.00426954 0.02514369 -0.00017066
v 0.00427846 0.02513582 -0.00017106
v 0.00650295 0.02781118 -0.00253837
v 0.00631633 0.02754984 -0.00187280
v 0.00606209 0.02722518 -0.00134834
v 0.00576794 0.02686722 -0.00097168
v 0.00542905 0.02646534 -0.00068028
v 0.00486746 0.02581198 -0.00037042
v 0.00642357 0.02782274 -0.00255205
v 0.00643987 0.02783376 -0.00254487
v 0.00645296 0.02783695 -0.00254097
v 0.00646743 0.02783628 -0.00253802
v 0.00648150 0.02783130 -0.00253657
v 0.00649374 0.02782262 -0.00253670
v 0.00515444 0.02623795 -0.00058374
v 0.00558366 0.02674583 -0.00089362
v 0.00595076 0.02719275 -0.00131724
v 0.00619272 0.02750135 -0.00177431
v 0.00632272 0.02767750 -0.00215111
v 0.00639428 0.02776485 -0.00234035
v 0.00640101 0.02776655 -0.00233806
v 0.00640859 0.02776727 -0.00233592
v 0.00641709 0.02776669 -0.00233401
v 0.00632251 0.02763451 -0.00200265
v 0.00625504 0.02754387 -0.00181309
v 0.00613515 0.02738813 -0.00154469
v 0.00600508 0.02722458 -0.00132039
v 0.00586284 0.02704958 -0.00112487
v 0.00567286 0.02681998 -0.00091782
v 0.00550487 0.02661970 -0.00077051
v 0.00528715 0.02636286 -0.00061509
v 0.00500799 0.02603679 -0.00045854
v 0.00454381 0.02550009 -0.00027008
v 0.00454864 0.02549701 -0.00026626
v 0.00455331 0.02549378 -0.00026345
v 0.00455783 0.02549043 -0.00026146
v 0.00650295 0.02781118 -0.00802241
v 0.00648895 0.02782663 -0.00802434
v 0.00647672 0.02783350 -0.00802389
v 0.00646250 0.02783700 -0.00802192
v 0.00644792 0.02783618 -0.00801847
v 0.00643450 0.02783124 -0.00801392
v 0.00642357 0.02782274 -0.00800873
v 0.00664751 0.02821403 -0.00624712
v 0.00672818 0.02820555 -0.00624845
v 0.00671424 0.02822101 -0.00624977
v 0.00670190 0.02822756 -0.00625015
v 0.00668735 0.02823052 -0.00625006
v 0.00667259 0.02822910 -0.00624949
v 0.00665884 0.02822339 -0.00624847
v 0.00642357 0.02782274 -0.00255205
v 0.00643987 0.02783376 -0.00254487
v 0.00645296 0.02783695 -0.00254097
v 0.00646743 0.02783628 -0.00253802
v 0.00648150 0.02783130 -0.00253657
v 0.00649374 0.02782262 -0.00253670
v 0.00650295 0.02781118 -0.00253837
v 0.00672818 0.02820555 -0.00431234
v 0.00664751 0.02821403 -0.00431367
v 0.00666441 0.02822629 -0.00431183
v 0.00667780 0.02823010 -0.00431104
v 0.00669257 0.02822996 -0.00431063
v 0.00670675 0.02822550 -0.00431073
v 0.00671891 0.02821717 -0.00431131
v 0.00672818 0.02820555 -0.00624845
v 0.00671424 0.02822101 -0.00624977
v 0.00670190 0.02822756 -0.00625015
v 0.00668735 0.02823052 -0.00625006
v 0.00667259 0.02822910 -0.00624949
v 0.00665884 0.02822339 -0.00624847
v 0.00664751 0.02821403 -0.00624712
v 0.00665652 0.02829965 -0.00529086
v 0.00673727 0.02829116 -0.00529086
v 0.00673024 0.02830063 -0.00529164
v 0.00672118 0.02830819 -0.00529223
v 0.00671059 0.02831342 -0.00529260
v 0.00669906 0.02831603 -0.00529273
v 0.00668725 0.02831587 -0.00529260
v 0.00667580 0.02831296 -0.00529223
v 0.00666536 0.02830745 -0.00529164
v 0.00672826 0.02820542 -0.00624844
v 0.00672826 0.02820542 -0.00431234
v 0.00672818 0.02820555 -0.00431234
v 0.00673727 0.02829116 -0.00526992
v 0.00665652 0.02829965 -0.00526992
v 0.00666536 0.02830745 -0.00526914
v 0.00667580 0.02831296 -0.00526855
v 0.00668725 0.02831587 -0.00526818
v 0.00669906 0.02831603 -0.00526806
v 0.00671059 0.02831342 -0.00526818
v 0.00672118 0.02830819 -0.00526855
v 0.00673024 0.02830063 -0.00526914
v 0.00664751 0.02821403 -0.00431367
v 0.00666441 0.02822629 -0.00431183
v 0.00667780 0.02823010 -0.00431104
v 0.00669257 0.02822996 -0.00431063
v 0.00670675 0.02822550 -0.00431073
v 0.00671891 0.02821717 -0.00431131
v 0.00673727 0.02829116 -0.00529086
v 0.00673024 0.02830063 -0.00529164
v 0.00672118 0.02830819 -0.00529223
v 0.00671059 0.02831342 -0.00529260
v 0.00669906 0.02831603 -0.00529273
v 0.00668725 0.02831587 -0.00529260
v 0.00667580 0.02831296 -0.00529223
v 0.00666536 0.02830745 -0.00529164
v 0.00665652 0.02829965 -0.00529086
v 0.00665652 0.02829965 -0.00526992
v 0.00666536 0.02830745 -0.00526914
v 0.00667580 0.02831296 -0.00526855
v 0.00668725 0.02831587 -0.00526818
v 0.00669906 0.02831603 -0.00526806
v 0.00671059 0.02831342 -0.00526818
v 0.00672118 0.02830819 -0.00526855
v 0.00673024 0.02830063 -0.00526914
v 0.00673727 0.02829116 -0.00526992
f 6 45 7
f 44 45 6
f 3 43 5
f 40 43 3
f 1 38 41
f 2 42 4
f 20 37 39
f 19 38 1
f 18 34 36
f 17 35 19
f 15 33 17
f 31 33 15
f 14 32 16
f 29 31 13
f 9 28 12
f 27 30 11
f 8 26 10
f 24 26 8
f 21 24 8
f 23 25 22
f 59 47 46
f 53 47 59
f 58 53 59
f 52 53 58
f 51 58 57
f 51 52 58
f 50 57 56
f 50 51 57
f 49 56 55
f 49 50 56
f 48 55 54
f 48 49 55
f 69 65 60
f 61 69 60
f 68 69 61
f 62 68 61
f 67 68 62
f 63 67 62
f 66 63 64
f 66 67 63
f 70 66 64
f 72 70 64
f 71 70 72
f 112 93 95
f 110 91 94
f 108 92 111
f 113 112 95
f 88 90 108
f 98 114 96
f 79 89 109
f 115 113 97
f 85 89 79
f 78 87 80
f 99 115 97
f 76 84 86
f 76 86 77
f 116 115 99
f 74 81 83
f 73 82 75
f 107 100 102
f 106 116 99
f 105 102 103
f 104 106 101
f 118 117 125
f 126 118 125
f 119 118 126
f 127 119 126
f 120 119 127
f 128 120 127
f 121 120 128
f 129 121 128
f 122 121 129
f 130 122 129
f 123 122 130
f 131 123 130
f 124 123 131
f 132 124 131
f 138 139 140
f 141 138 140
f 137 138 141
f 142 137 141
f 136 137 142
f 143 135 136
f 143 136 142
f 144 133 135
f 144 135 143
f 145 133 144
f 134 133 145
f 146 134 145
f 148 149 150
f 148 150 151
f 147 148 151
f 184 171 172
f 184 177 171
f 183 172 173
f 183 184 172
f 182 173 174
f 182 183 173
f 164 155 156
f 164 156 157
f 164 157 158
f 164 158 159
f 164 159 160
f 164 160 161
f 164 161 162
f 152 154 153
f 152 163 154
f 181 174 175
f 181 182 174
f 180 175 176
f 180 176 169
f 180 181 175
f 179 165 166
f 179 169 170
f 179 170 165
f 179 180 169
f 178 162 163
f 178 166 167
f 178 167 168
f 178 168 164
f 178 163 152
f 178 164 162
f 178 179 166
f 186 191 190
f 186 187 191
f 188 185 189
f 225 227 226
f 230 227 225
f 223 207 205
f 222 208 206
f 209 192 228
f 195 193 211
f 220 204 202
f 220 222 204
f 213 197 194
f 214 196 212
f 219 203 201
f 219 221 203
f 216 200 198
f 216 218 200
f 217 199 215
f 210 229 224
f 239 232 231
f 235 233 240
f 238 235 240
f 236 234 237
f 246 241 245
f 242 241 246
f 243 242 246
f 244 243 246
f 248 250 249
f 253 251 250
f 253 250 248
f 247 253 248
f 252 253 247
f 255 257 256
f 254 258 257
f 254 257 255
f 268 264 265
f 268 265 266
f 268 266 267
f 269 264 268
f 270 264 269
f 262 263 264
f 271 264 270
f 272 264 271
f 259 264 272
f 261 262 264
f 260 264 259
f 260 261 264
f 276 280 279
f 277 281 280
f 277 280 276
f 273 274 275
f 287 284 293
f 294 282 281
f 294 285 282
f 295 281 277
f 295 294 281
f 295 285 294
f 296 277 278
f 296 285 295
f 296 295 277
f 297 278 275
f 297 274 288
f 297 296 278
f 297 275 274
f 298 288 289
f 298 285 296
f 298 297 288
f 298 296 297
f 299 289 290
f 299 298 289
f 299 285 298
f 300 299 290
f 300 285 299
f 301 284 285
f 301 290 291
f 301 285 300
f 301 300 290
f 302 291 292
f 302 292 293
f 302 284 301
f 302 301 291
f 302 293 284
f 303 283 284
f 303 286 283
f 303 287 286
f 303 284 287
f 306 307 308
f 306 308 311
f 305 310 309
f 305 311 310
f 305 306 311
f 304 305 309
f 317 318 319
f 314 313 312
f 314 320 313
f 314 316 320
f 315 316 314
f 321 316 317
f 321 319 320
f 321 317 319
f 321 320 316
f 333 339 335
f 334 333 335
f 340 323 322
f 340 324 323
f 340 325 324
f 341 326 325
f 341 325 340
f 342 327 326
f 342 328 327
f 342 326 341
f 343 341 340
f 344 341 343
f 344 342 341
f 345 329 328
f 345 328 342
f 345 342 344
f 346 322 336
f 346 340 322
f 346 343 340
f 347 349 348
f 350 336 337
f 350 337 338
f 351 330 349
f 351 349 347
f 352 350 338
f 352 347 350
f 352 351 347
f 353 330 351
f 353 351 352
f 354 331 330
f 354 330 353
f 355 332 331
f 355 333 332
f 355 338 339
f 355 352 338
f 355 339 333
f 355 331 354
f 355 353 352
f 355 354 353
f 356 329 345
f 356 344 343
f 356 345 344
f 356 343 346
f 357 329 356
f 357 356 346
f 358 330 329
f 358 346 348
f 358 349 330
f 358 329 357
f 358 348 349
f 358 357 346
f 359 346 336
f 359 348 346
f 359 336 350
f 359 347 348
f 359 350 347
f 374 368 369
f 376 370 371
f 377 370 376
f 378 369 370
f 378 374 369
f 378 370 377
f 379 377 376
f 379 378 377
f 380 378 379
f 381 375 374
f 381 378 380
f 381 374 378
f 382 363 364
f 383 382 364
f 383 384 382
f 383 385 384
f 386 364 365
f 386 383 364
f 386 387 385
f 386 385 383
f 386 388 387
f 389 365 366
f 389 366 375
f 389 388 386
f 389 386 365
f 390 371 372
f 390 372 373
f 390 373 367
f 390 376 371
f 391 367 360
f 391 390 367
f 392 379 376
f 392 393 379
f 392 376 390
f 392 391 393
f 392 390 391
f 394 384 393
f 394 382 384
f 394 391 360
f 394 393 391
f 395 381 380
f 395 380 379
f 395 375 381
f 395 379 393
f 395 393 384
f 395 384 385
f 395 385 387
f 395 387 388
f 395 389 375
f 395 388 389
f 396 362 363
f 396 363 382
f 396 382 394
f 396 394 360
f 397 360 361
f 397 361 362
f 397 362 396
f 397 396 360
f 399 400 402
f 398 402 401
f 398 399 402
f 410 409 408
f 417 411 410
f 416 417 410
f 415 416 410
f 413 405 404
f 412 413 404
f 403 412 404
f 418 406 405
f 418 407 406
f 418 408 407
f 418 413 414
f 418 414 415
f 418 410 408
f 418 405 413
f 418 415 410
f 426 422 423
f 426 423 424
f 421 422 426
f 420 421 426
f 425 420 426
f 419 420 425
f 429 427 428
f 430 428 434
f 430 429 428
f 432 434 435
f 432 430 434
f 431 435 433
f 431 432 435
f 437 440 441
f 437 442 440
f 436 437 441
f 439 436 441
f 438 436 439
f 445 444 443
f 445 443 446
f 453 448 450
f 453 450 451
f 449 447 452
f 494 454 455
f 457 494 455
f 477 464 461
f 478 462 476
f 491 456 460
f 490 459 473
f 488 474 471
f 489 493 475
f 480 467 463
f 482 465 479
f 487 472 470
f 485 488 471
f 483 468 466
f 483 466 481
f 484 486 469
f 492 495 458
f 499 501 502
f 505 500 503
f 498 500 505
f 496 497 504
f 508 509 510
f 506 508 510
f 507 508 506
f 516 517 512
f 513 512 511
f 513 516 512
f 515 516 513
f 514 515 513
f 522 518 519
f 521 519 520
f 521 522 519
f 523 554 524
f 525 552 553
f 525 553 554
f 525 554 523
f 526 551 552
f 526 552 525
f 543 535 536
f 543 536 537
f 543 537 538
f 543 538 539
f 543 539 540
f 543 540 541
f 543 541 542
f 531 532 533
f 531 533 534
f 527 550 551
f 527 551 526
f 528 548 549
f 528 549 550
f 528 550 527
f 529 544 545
f 529 545 546
f 529 546 547
f 529 547 548
f 529 548 528
f 530 534 535
f 530 543 544
f 530 531 534
f 530 535 543
f 530 544 529
f 562 557 556
f 563 567 566
f 564 567 563
f 565 567 564
f 565 558 567
f 568 556 555
f 568 558 559
f 568 559 560
f 568 560 561
f 568 561 562
f 568 555 567
f 568 562 556
f 568 567 558
f 582 583 584
f 581 584 585
f 581 582 584
f 577 579 580
f 578 579 577
f 589 585 586
f 589 586 588
f 590 581 585
f 590 589 588
f 590 585 589
f 591 575 576
f 591 576 577
f 591 580 581
f 591 590 588
f 591 581 590
f 591 577 580
f 592 574 575
f 592 575 591
f 592 591 588
f 593 592 588
f 593 574 592
f 594 573 574
f 594 588 587
f 594 593 588
f 594 574 593
f 595 571 572
f 595 572 573
f 595 573 594
f 595 594 587
f 595 587 571
f 596 569 570
f 596 570 571
f 596 587 569
f 596 571 587
f 603 599 600
f 603 600 604
f 602 597 598
f 602 598 599
f 602 599 603
f 601 597 602
f 613 608 609
f 613 609 610
f 611 613 610
f 612 613 611
f 607 613 612
f 605 613 607
f 606 605 607
f 615 628 614
f 617 615 616
f 618 615 617
f 621 624 625
f 621 625 620
f 622 624 621
f 623 624 622
f 629 618 619
f 629 619 620
f 629 625 626
f 629 626 627
f 629 627 628
f 629 628 615
f 629 620 625
f 629 615 618
f 634 632 633
f 630 631 632
f 630 632 634
f 642 636 635
f 651 638 637
f 652 651 637
f 653 637 636
f 653 636 642
f 653 652 637
f 654 651 652
f 654 652 653
f 655 654 653
f 656 642 644
f 656 655 653
f 656 653 642
f 657 649 648
f 658 649 657
f 658 657 659
f 658 659 660
f 661 650 649
f 661 649 658
f 661 660 662
f 661 658 660
f 661 662 663
f 664 644 643
f 664 643 650
f 664 661 663
f 664 650 661
f 665 639 638
f 665 640 639
f 665 641 640
f 665 638 651
f 666 645 641
f 666 641 665
f 667 651 654
f 667 654 668
f 667 665 651
f 667 668 666
f 667 666 665
f 669 668 659
f 669 659 657
f 669 645 666
f 669 666 668
f 670 655 656
f 670 654 655
f 670 656 644
f 670 668 654
f 670 644 664
f 670 659 668
f 670 660 659
f 670 662 660
f 670 663 662
f 670 664 663
f 671 648 647
f 671 657 648
f 671 669 657
f 671 645 669
f 672 646 645
f 672 647 646
f 672 671 647
f 672 645 671
f 673 675 676
f 674 675 673
f 691 680 681
f 691 681 682
f 691 682 683
f 692 683 684
f 692 691 683
f 693 684 685
f 693 685 686
f 693 692 684
f 694 691 692
f 695 694 692
f 695 692 693
f 696 686 687
f 696 693 686
f 696 695 693
f 697 679 680
f 697 680 691
f 697 691 694
f 698 677 678
f 698 678 679
f 699 700 701
f 702 699 701
f 703 676 677
f 703 677 698
f 703 698 699
f 703 699 702
f 704 701 688
f 704 702 701
f 705 690 673
f 705 673 676
f 705 676 703
f 705 703 702
f 705 702 704
f 706 688 689
f 706 689 690
f 706 690 705
f 706 704 688
f 706 705 704
f 707 696 687
f 707 694 695
f 707 697 694
f 707 695 696
f 708 707 687
f 708 697 707
f 709 687 688
f 709 708 687
f 709 700 697
f 709 688 701
f 709 701 700
f 709 697 708
f 710 697 700
f 710 698 679
f 710 679 697
f 710 699 698
f 710 700 699
f 712 714 713
f 719 715 716
f 719 717 715
f 719 716 711
f 718 719 711
f 720 712 711
f 720 716 714
f 720 714 712
f 720 711 716
f 729 725 728
f 721 726 725
f 721 725 729
f 722 727 726
f 722 726 721
f 723 724 727
f 723 727 722
f 734 731 730
f 734 730 733
f 735 731 734
f 732 731 735
f 736 732 735
f 737 739 740
f 737 740 738
f 746 741 744
f 742 741 746
f 748 746 745
f 748 742 746
f 747 742 748
f 743 742 747
f 750 755 754
f 750 756 755
f 750 754 749
f 751 753 756
f 751 756 750
f 752 753 751
f 761 759 760
f 764 758 759
f 764 759 761
f 763 758 764
f 762 757 758
f 762 758 763
f 772 767 768
f 772 768 769
f 771 765 766
f 771 766 767
f 771 767 772
f 770 765 771
f 779 775 776
f 779 776 777
f 779 777 778
f 780 773 775
f 780 775 779
f 774 773 780
f 781 790 797
f 791 790 781
f 782 791 781
f 792 791 782
f 783 792 782
f 793 792 783
f 784 793 783
f 794 793 784
f 785 794 784
f 795 794 785
f 786 795 785
f 796 795 786
f 787 796 786
f 789 796 787
f 788 789 787
f 802 800 801
f 805 799 800
f 805 800 802
f 804 799 805
f 803 798 799
f 803 799 804
f 806 810 811
f 806 811 807
f 808 809 810
f 808 810 806
f 812 814 815
f 812 815 813
f 820 823 822
f 819 824 823
f 819 823 820
f 818 824 819
f 817 825 824
f 817 824 818
f 816 821 825
f 816 825 817
f 831 828 829
f 831 829 830
f 833 826 827
f 833 827 828
f 833 828 831
f 832 826 833
f 834 826 832
f 837 836 835
f 839 842 843
f 839 843 836
f 839 836 837
f 838 840 841
f 838 841 842
f 838 842 839
f 854 850 849
f 848 847 853
f 845 854 844
f 855 845 846
f 855 846 848
f 855 851 850
f 855 852 851
f 855 853 852
f 855 850 854
f 855 848 853
f 855 854 845
f 866 862 861
f 860 859 865
f 858 860 857
f 867 856 857
f 867 863 862
f 867 864 863
f 867 865 864
f 867 866 856
f 867 862 866
f 867 860 865
f 867 857 860
f 892 881 880
f 892 882 881
f 892 883 882
f 892 880 891
f 893 884 883
f 893 885 884
f 893 874 885
f 893 892 891
f 893 883 892
f 894 875 874
f 894 891 890
f 894 874 893
f 894 893 891
f 895 875 894
f 895 894 890
f 896 876 875
f 896 890 889
f 896 895 890
f 896 875 895
f 897 889 888
f 897 876 896
f 897 896 889
f 898 897 888
f 898 876 897
f 899 877 876
f 899 888 887
f 899 898 888
f 899 876 898
f 900 877 899
f 900 899 887
f 901 878 877
f 901 887 886
f 901 877 900
f 901 900 887
f 902 901 886
f 902 878 901
f 903 879 878
f 903 878 902
f 903 902 886
f 904 868 869
f 904 869 870
f 904 870 871
f 904 871 872
f 904 872 873
f 904 873 879
f 904 886 868
f 904 879 903
f 904 903 886
f 928 918 917
f 928 919 918
f 928 920 919
f 928 917 927
f 929 912 911
f 929 921 920
f 929 922 921
f 929 911 922
f 929 928 927
f 929 920 928
f 930 929 927
f 930 912 929
f 931 927 926
f 931 930 927
f 931 912 930
f 932 913 912
f 932 926 925
f 932 931 926
f 932 912 931
f 933 913 932
f 933 932 925
f 934 914 913
f 934 925 924
f 934 933 925
f 934 913 933
f 935 934 924
f 935 914 934
f 936 915 914
f 936 924 923
f 936 914 935
f 936 935 924
f 937 915 936
f 937 936 923
f 938 916 915
f 938 937 923
f 938 915 937
f 939 905 906
f 939 906 907
f 939 907 908
f 939 908 909
f 939 909 910
f 939 910 916
f 939 923 905
f 939 938 923
f 939 916 938
f 940 953 941
f 947 952 953
f 947 953 940
f 946 951 952
f 946 952 947
f 945 951 946
f 944 950 951
f 944 951 945
f 943 949 950
f 943 950 944
f 942 948 949
f 942 949 943
f 961 959 960
f 967 958 959
f 967 959 961
f 966 957 958
f 966 958 967
f 965 957 966
f 964 956 957
f 964 957 965
f 963 955 956
f 963 956 964
f 962 954 955
f 962 955 963
f 993 982 981
f 993 983 982
f 993 981 992
f 994 984 983
f 994 993 992
f 994 983 993
f 995 976 975
f 995 985 984
f 995 986 985
f 995 975 986
f 995 984 994
f 995 994 992
f 996 992 991
f 996 995 992
f 996 976 995
f 997 996 991
f 997 976 996
f 998 977 976
f 998 991 990
f 998 976 997
f 998 997 991
f 999 998 990
f 999 977 998
f 1000 978 977
f 1000 990 989
f 1000 999 990
f 1000 977 999
f 1001 989 988
f 1001 1000 989
f 1001 978 1000
f 1002 978 1001
f 1002 1001 988
f 1003 979 978
f 1003 988 987
f 1003 978 1002
f 1003 1002 988
f 1004 1003 987
f 1004 979 1003
f 1005 980 979
f 1005 979 1004
f 1005 1004 987
f 1006 968 969
f 1006 969 970
f 1006 970 971
f 1006 987 968
f 1006 980 1005
f 1006 1005 987
f 1007 971 972
f 1007 972 973
f 1007 973 974
f 1007 974 980
f 1007 1006 971
f 1007 980 1006
f 1033 1022 1021
f 1033 1023 1022
f 1033 1021 1032
f 1034 1024 1023
f 1034 1033 1032
f 1034 1023 1033
f 1035 1016 1015
f 1035 1025 1024
f 1035 1026 1025
f 1035 1015 1026
f 1035 1024 1034
f 1035 1034 1032
f 1036 1032 1031
f 1036 1035 1032
f 1036 1016 1035
f 1037 1036 1031
f 1037 1016 1036
f 1038 1017 1016
f 1038 1031 1030
f 1038 1037 1031
f 1038 1016 1037
f 1039 1038 1030
f 1039 1017 1038
f 1040 1018 1017
f 1040 1030 1029
f 1040 1039 1030
f 1040 1017 1039
f 1041 1029 1028
f 1041 1040 1029
f 1041 1018 1040
f 1042 1041 1028
f 1042 1018 1041
f 1043 1019 1018
f 1043 1028 1027
f 1043 1018 1042
f 1043 1042 1028
f 1044 1019 1043
f 1044 1043 1027
f 1045 1020 1019
f 1045 1019 1044
f 1045 1044 1027
f 1046 1008 1009
f 1046 1009 1010
f 1046 1010 1011
f 1046 1027 1008
f 1046 1020 1045
f 1046 1045 1027
f 1047 1011 1012
f 1047 1012 1013
f 1047 1013 1014
f 1047 1014 1020
f 1047 1046 1011
f 1047 1020 1046
f 1050 1049 1048
f 1050 1057 1049
f 1051 1058 1057
f 1051 1057 1050
f 1054 1061 1060
f 1054 1060 1053
f 1055 1056 1061
f 1055 1061 1054
f 1062 1051 1052
f 1062 1052 1053
f 1062 1059 1058
f 1062 1060 1059
f 1062 1058 1051
f 1062 1053 1060
f 1071 1064 1063
f 1071 1065 1064
f 1071 1063 1070
f 1072 1066 1065
f 1072 1065 1071
f 1073 1067 1066
f 1073 1066 1072
f 1074 1068 1067
f 1074 1067 1073
f 1075 1069 1068
f 1075 1068 1074
f 1076 1069 1075
f 1078 1086 1085
f 1078 1085 1077
f 1079 1087 1086
f 1079 1086 1078
f 1080 1088 1087
f 1080 1089 1088
f 1080 1087 1079
f 1081 1090 1089
f 1081 1089 1080
f 1082 1084 1090
f 1082 1090 1081
f 1083 1084 1082
f 1092 1100 1099
f 1092 1099 1091
f 1093 1101 1100
f 1093 1100 1092
f 1094 1102 1101
f 1094 1103 1102
f 1094 1101 1093
f 1095 1104 1103
f 1095 1103 1094
f 1096 1098 1104
f 1096 1104 1095
f 1097 1098 1096
f 1126 1117 1116
f 1126 1118 1117
f 1126 1119 1118
f 1126 1116 1125
f 1127 1126 1125
f 1127 1119 1126
f 1128 1113 1112
f 1128 1120 1119
f 1128 1121 1120
f 1128 1122 1121
f 1128 1112 1122
f 1128 1127 1125
f 1128 1119 1127
f 1129 1125 1124
f 1129 1128 1125
f 1129 1113 1128
f 1130 1113 1129
f 1130 1129 1124
f 1131 1114 1113
f 1131 1124 1123
f 1131 1130 1124
f 1131 1113 1130
f 1132 1114 1131
f 1132 1131 1123
f 1133 1115 1114
f 1133 1132 1123
f 1133 1114 1132
f 1134 1105 1106
f 1134 1106 1107
f 1134 1107 1108
f 1134 1123 1105
f 1134 1133 1123
f 1134 1115 1133
f 1135 1108 1109
f 1135 1134 1108
f 1135 1115 1134
f 1136 1109 1110
f 1136 1110 1111
f 1136 1111 1115
f 1136 1135 1109
f 1136 1115 1135
f 1159 1150 1149
f 1159 1151 1150
f 1159 1152 1151
f 1159 1153 1152
f 1159 1149 1158
f 1160 1153 1159
f 1160 1159 1145
f 1161 1145 1144
f 1161 1154 1153
f 1161 1155 1154
f 1161 1144 1155
f 1161 1160 1145
f 1161 1153 1160
f 1162 1159 1158
f 1162 1145 1159
f 1163 1146 1145
f 1163 1158 1157
f 1163 1145 1162
f 1163 1162 1158
f 1164 1163 1157
f 1164 1146 1163
f 1165 1147 1146
f 1165 1157 1156
f 1165 1164 1157
f 1165 1146 1164
f 1166 1165 1156
f 1166 1147 1165
f 1167 1148 1147
f 1167 1166 1156
f 1167 1147 1166
f 1168 1137 1138
f 1168 1138 1139
f 1168 1139 1140
f 1168 1156 1137
f 1168 1148 1167
f 1168 1167 1156
f 1169 1140 1141
f 1169 1168 1140
f 1169 1148 1168
f 1170 1141 1142
f 1170 1142 1143
f 1170 1143 1148
f 1170 1169 1141
f 1170 1148 1169
f 1171 1172 1181
f 1174 1183 1182
f 1174 1182 1173
f 1175 1184 1183
f 1175 1183 1174
f 1176 1185 1184
f 1176 1186 1185
f 1176 1184 1175
f 1177 1187 1186
f 1177 1186 1176
f 1178 1180 1187
f 1178 1187 1177
f 1179 1180 1178
f 1188 1172 1173
f 1188 1182 1181
f 1188 1181 1172
f 1188 1173 1182
f 1189 1200 1199
f 1190 1201 1200
f 1190 1200 1189
f 1191 1202 1201
f 1191 1201 1190
f 1192 1203 1202
f 1192 1202 1191
f 1193 1204 1203
f 1193 1203 1192
f 1194 1205 1204
f 1194 1204 1193
f 1195 1205 1194
f 1206 1195 1196
f 1206 1196 1197
f 1206 1197 1198
f 1206 1198 1205
f 1206 1205 1195
f 1208 1217 1216
f 1208 1216 1207
f 1209 1218 1217
f 1209 1217 1208
f 1210 1219 1218
f 1210 1220 1219
f 1210 1218 1209
f 1211 1221 1220
f 1211 1220 1210
f 1212 1222 1221
f 1212 1221 1211
f 1213 1215 1222
f 1213 1222 1212
f 1214 1215 1213
f 1233 1226 1225
f 1233 1225 1232
f 1234 1227 1226
f 1234 1226 1233
f 1235 1228 1227
f 1235 1227 1234
f 1236 1229 1228
f 1236 1230 1229
f 1236 1228 1235
f 1237 1231 1230
f 1237 1230 1236
f 1238 1223 1231
f 1238 1231 1237
f 1224 1223 1238
f 1264 1254 1253
f 1264 1253 1263
f 1265 1255 1254
f 1265 1264 1263
f 1265 1254 1264
f 1266 1256 1255
f 1266 1255 1265
f 1266 1265 1263
f 1267 1248 1247
f 1267 1257 1256
f 1267 1258 1257
f 1267 1247 1258
f 1267 1256 1266
f 1267 1266 1263
f 1268 1263 1262
f 1268 1267 1263
f 1268 1248 1267
f 1269 1248 1268
f 1269 1268 1262
f 1270 1249 1248
f 1270 1262 1261
f 1270 1269 1262
f 1270 1248 1269
f 1271 1270 1261
f 1271 1249 1270
f 1272 1250 1249
f 1272 1261 1260
f 1272 1249 1271
f 1272 1271 1261
f 1273 1250 1272
f 1273 1272 1260
f 1274 1251 1250
f 1274 1260 1259
f 1274 1273 1260
f 1274 1250 1273
f 1275 1251 1274
f 1275 1274 1259
f 1276 1252 1251
f 1276 1251 1275
f 1276 1275 1259
f 1277 1239 1240
f 1277 1240 1241
f 1277 1241 1242
f 1277 1242 1243
f 1277 1259 1239
f 1277 1252 1276
f 1277 1276 1259
f 1278 1277 1243
f 1278 1252 1277
f 1279 1243 1244
f 1279 1244 1245
f 1279 1245 1246
f 1279 1246 1252
f 1279 1278 1243
f 1279 1252 1278
f 1305 1295 1294
f 1305 1294 1304
f 1306 1296 1295
f 1306 1305 1304
f 1306 1295 1305
f 1307 1297 1296
f 1307 1296 1306
f 1307 1306 1304
f 1308 1289 1288
f 1308 1298 1297
f 1308 1299 1298
f 1308 1288 1299
f 1308 1297 1307
f 1308 1307 1304
f 1309 1304 1303
f 1309 1308 1304
f 1309 1289 1308
f 1310 1289 1309
f 1310 1309 1303
f 1311 1290 1289
f 1311 1303 1302
f 1311 1310 1303
f 1311 1289 1310
f 1312 1311 1302
f 1312 1290 1311
f 1313 1291 1290
f 1313 1302 1301
f 1313 1290 1312
f 1313 1312 1302
f 1314 1291 1313
f 1314 1313 1301
f 1315 1292 1291
f 1315 1301 1300
f 1315 1291 1314
f 1315 1314 1301
f 1316 1292 1315
f 1316 1315 1300
f 1317 1293 1292
f 1317 1292 1316
f 1317 1316 1300
f 1318 1280 1281
f 1318 1281 1282
f 1318 1282 1283
f 1318 1283 1284
f 1318 1300 1280
f 1318 1293 1317
f 1318 1317 1300
f 1319 1318 1284
f 1319 1293 1318
f 1320 1284 1285
f 1320 1319 1284
f 1320 1293 1319
f 1321 1285 1286
f 1321 1286 1287
f 1321 1287 1293
f 1321 1320 1285
f 1321 1293 1320
f 1329 1326 1327
f 1329 1327 1328
f 1335 1325 1326
f 1335 1326 1329
f 1334 1324 1325
f 1334 1325 1335
f 1333 1324 1334
f 1332 1323 1324
f 1332 1324 1333
f 1331 1323 1332
f 1330 1322 1323
f 1330 1323 1331
f 1343 1341 1342
f 1349 1341 1343
f 1348 1340 1341
f 1348 1341 1349
f 1347 1340 1348
f 1346 1339 1340
f 1346 1340 1347
f 1345 1338 1339
f 1345 1339 1346
f 1344 1336 1337
f 1344 1337 1338
f 1344 1338 1345
f 1350 1359 1358
f 1350 1358 1366
f 1351 1360 1359
f 1351 1359 1350
f 1352 1361 1360
f 1352 1360 1351
f 1353 1362 1361
f 1353 1361 1352
f 1354 1363 1362
f 1354 1362 1353
f 1355 1364 1363
f 1355 1363 1354
f 1356 1365 1364
f 1356 1357 1365
f 1356 1364 1355
f 1378 1371 1370
f 1378 1372 1371
f 1379 1373 1372
f 1379 1372 1378
f 1380 1374 1373
f 1380 1373 1379
f 1381 1375 1374
f 1381 1374 1380
f 1382 1376 1375
f 1382 1375 1381
f 1383 1377 1376
f 1383 1376 1382
f 1368 1369 1377
f 1368 1377 1383
f 1367 1369 1368
f 1394 1391 1392
f 1394 1392 1393
f 1395 1390 1391
f 1395 1391 1394
f 1396 1389 1390
f 1396 1390 1395
f 1397 1388 1389
f 1397 1389 1396
f 1398 1387 1388
f 1398 1388 1397
f 1399 1386 1387
f 1399 1387 1398
f 1400 1385 1386
f 1400 1386 1399
f 1401 1384 1385
f 1401 1385 1400

