# https://github.com/mikedh/trimesh
v 0.00104796 0.01661166 -0.01045434
v 0.00031859 0.01687285 -0.01020614
v -0.00041764 0.01720048 -0.00976052
v -0.00107097 0.01755495 -0.00917634
v -0.00158899 0.01789535 -0.00852159
v -0.00190342 0.01814255 -0.00795071
v -0.00212110 0.01834429 -0.00733724
v -0.00279668 0.01591753 -0.00733138
v -0.00354595 0.01085589 -0.00732725
v -0.00383434 0.00755256 -0.00733274
v -0.00393385 0.00444972 -0.00733678
v 0.00083622 0.00698054 -0.01083985
v -0.00070318 0.00611834 -0.01046115
v -0.00199314 0.00542020 -0.00974098
v -0.00301822 0.00488619 -0.00882518
v -0.00354791 0.00462331 -0.00813596
v -0.00376420 0.00452250 -0.00774623
v 0.00085531 0.01163275 -0.01056769
v -0.00243075 0.00628853 -0.00933322
v -0.00152707 0.00772471 -0.00990832
v -0.00262870 0.00674808 -0.00912291
v -0.00314436 0.00641456 -0.00860440
v -0.00255913 0.00824194 -0.00907158
v -0.00188830 0.00861524 -0.00959363
v -0.00095616 0.00970316 -0.01007850
v -0.00308884 0.00803714 -0.00853820
v -0.00026312 0.01475460 -0.01003174
v -0.00032781 0.01560883 -0.00994076
v -0.00137283 0.01513602 -0.00932377
v -0.00148388 0.01375448 -0.00939975
v -0.00206483 0.01675461 -0.00834218
v -0.00036234 0.00729911 -0.01051516
v -0.00282874 0.00920629 -0.00871201
v -0.00041689 0.01146674 -0.01019286
v -0.00170508 0.01134216 -0.00948336
v -0.00320108 0.00951428 -0.00822847
v -0.00294180 0.00970256 -0.00853086
v -0.00255530 0.01028877 -0.00887634
v -0.00079926 0.01221837 -0.00995667
v -0.00229645 0.01294750 -0.00881162
v -0.00034492 0.01263516 -0.01013967
v -0.00280667 0.01116734 -0.00850128
v -0.00263911 0.01178408 -0.00860818
v -0.00234466 0.01426958 -0.00856166
v -0.00205501 0.01497946 -0.00875429
v -0.00235144 0.01489368 -0.00843773
v -0.00226267 0.01555809 -0.00840633
v -0.00131451 0.01618203 -0.00922598
v 0.00634624 0.02774316 -0.00791358
v 0.00651149 0.02800895 -0.00690427
v 0.00622113 0.02798779 -0.00790406
v 0.00622113 0.02798779 -0.00790406
v 0.00589091 0.02794296 -0.00861363
v 0.00550490 0.02788114 -0.00911261
v 0.00502928 0.02779643 -0.00951589
v 0.00444283 0.02768460 -0.00985732
v 0.00351949 0.02749828 -0.01020723
v 0.00265481 0.02731544 -0.01041078
v 0.00175320 0.02711716 -0.01055168
v 0.00305153 0.02397413 -0.01042313
v 0.00314158 0.02372997 -0.01041215
v 0.00422357 0.02517293 -0.01018699
v 0.00634624 0.02774316 -0.00791358
v 0.00616462 0.02748808 -0.00855367
v 0.00592268 0.02717630 -0.00905133
v 0.00564086 0.02683026 -0.00941388
v 0.00531836 0.02644493 -0.00969381
v 0.00478367 0.02581904 -0.00999355
v 0.00438883 0.02715708 -0.00998274
v 0.00364438 0.02682081 -0.01024516
v 0.00286108 0.02644960 -0.01041925
v 0.00252006 0.01953914 -0.01049785
v 0.00240795 0.02097175 -0.01050741
v 0.00256056 0.02226033 -0.01049490
v 0.00279810 0.02301532 -0.01046640
v 0.00314158 0.02372997 -0.01041215
v 0.00294412 0.01625490 -0.01051458
v 0.00184828 0.01640969 -0.01053287
v 0.00104796 0.01661166 -0.01045434
v 0.00103144 0.02026921 -0.01050632
v 0.00078484 0.02331686 -0.01059486
v 0.00305153 0.02397413 -0.01042313
v 0.00177538 0.01776348 -0.01051630
v 0.00294412 0.01625490 -0.01051458
v 0.00332741 0.01331589 -0.01060133
v 0.00184828 0.01640969 -0.01053287
v 0.00104796 0.01661166 -0.01045434
v 0.00085531 0.01163275 -0.01056769
v 0.00083622 0.00698054 -0.01083985
v 0.00107016 0.00711309 -0.01087224
v 0.00341989 0.01120328 -0.01069792
v 0.00311919 0.00970523 -0.01079562
v 0.00258404 0.00853960 -0.01087856
v 0.00198587 0.00778309 -0.01091667
v 0.00155339 0.00741633 -0.01091220
v 0.00194640 0.01489227 -0.01057511
v -0.00212110 0.01834429 -0.00322354
v -0.00279668 0.01591753 -0.00322940
v -0.00354595 0.01085589 -0.00323353
v -0.00383433 0.00755256 -0.00322804
v -0.00393385 0.00444972 -0.00322400
v -0.00355613 0.00461937 -0.00243791
v -0.00303829 0.00487600 -0.00175785
v -0.00223184 0.00529392 -0.00100112
v -0.00121208 0.00583996 -0.00033474
v -0.00021365 0.00638953 0.00007024
v 0.00083622 0.00698054 0.00027906
v 0.00104796 0.01661166 -0.00010644
v 0.00085540 0.01163687 0.00000674
v 0.00031859 0.01687285 -0.00035464
v -0.00041764 0.01720048 -0.00080026
v -0.00107097 0.01755495 -0.00138444
v -0.00158899 0.01789535 -0.00203919
v -0.00190342 0.01814255 -0.00261008
v -0.00264900 0.00615819 -0.00141863
v -0.00137203 0.00780189 -0.00056340
v -0.00201448 0.00746182 -0.00097014
v -0.00283585 0.00661446 -0.00163193
v -0.00323690 0.00635459 -0.00206446
v -0.00188829 0.00861525 -0.00096715
v -0.00235543 0.00835791 -0.00131652
v -0.00276457 0.00812372 -0.00167795
v -0.00095609 0.00970463 -0.00048236
v -0.00320720 0.00795223 -0.00215870
v -0.00026296 0.01475658 -0.00052910
v -0.00032770 0.01561010 -0.00062005
v -0.00137266 0.01513730 -0.00123705
v -0.00148366 0.01375656 -0.00116110
v -0.00206483 0.01675461 -0.00221860
v -0.00276755 0.00924321 -0.00178802
v -0.00041670 0.01146993 -0.00036807
v -0.00170489 0.01134443 -0.00107751
v -0.00312286 0.00957212 -0.00223561
v -0.00294180 0.00970256 -0.00202992
v -0.00255524 0.01028958 -0.00168446
v -0.00079905 0.01222122 -0.00060424
v -0.00229629 0.01294899 -0.00174919
v -0.00034471 0.01263830 -0.00042125
v -0.00280655 0.01116857 -0.00205952
v -0.00263897 0.01178541 -0.00195263
v -0.00234450 0.01427074 -0.00199914
v -0.00205485 0.01498054 -0.00180652
v -0.00235129 0.01489467 -0.00212307
v -0.00226257 0.01555871 -0.00215447
v -0.00131441 0.01618262 -0.00133482
v 0.00634624 0.02774316 -0.00264721
v 0.00622113 0.02798779 -0.00265673
v 0.00651149 0.02800895 -0.00365651
v 0.00314173 0.02373023 -0.00014865
v 0.00422357 0.02517293 -0.00037379
v 0.00511880 0.02620987 -0.00073663
v 0.00552832 0.02669484 -0.00103711
v 0.00591900 0.02717175 -0.00150435
v 0.00616509 0.02748871 -0.00200844
v 0.00626540 0.02762633 -0.00232073
v 0.00634624 0.02774316 -0.00264721
v 0.00622113 0.02798779 -0.00265673
v 0.00589090 0.02794295 -0.00194715
v 0.00550489 0.02788113 -0.00144817
v 0.00502928 0.02779643 -0.00104489
v 0.00444282 0.02768460 -0.00070346
v 0.00351948 0.02749828 -0.00035356
v 0.00265480 0.02731544 -0.00015000
v 0.00175320 0.02711716 -0.00000910
v 0.00305153 0.02397413 -0.00013765
v 0.00385326 0.02697919 -0.00038356
v 0.00286108 0.02644960 -0.00014153
v 0.00252006 0.01953914 -0.00006293
v 0.00294412 0.01625490 -0.00004620
v 0.00184828 0.01640969 -0.00002791
v 0.00104796 0.01661166 -0.00010644
v 0.00103144 0.02026921 -0.00005447
v 0.00078484 0.02331686 0.00003408
v 0.00305153 0.02397413 -0.00013765
v 0.00314173 0.02373023 -0.00014865
v 0.00285380 0.02315073 -0.00010226
v 0.00263592 0.02254424 -0.00007403
v 0.00241735 0.02126622 -0.00005355
v 0.00242675 0.02040317 -0.00005586
v 0.00177538 0.01776348 -0.00004448
v 0.00104796 0.01661166 -0.00010644
v 0.00085540 0.01163687 0.00000674
v 0.00083622 0.00698054 0.00027906
v 0.00107016 0.00711309 0.00031146
v 0.00179663 0.00760829 0.00035738
v 0.00239497 0.00825960 0.00033527
v 0.00284538 0.00901827 0.00028435
v 0.00316144 0.00983976 0.00022530
v 0.00339769 0.01098718 0.00014986
v 0.00344030 0.01215361 0.00008759
v 0.00332741 0.01331589 0.00004055
v 0.00294412 0.01625490 -0.00004620
v 0.00184828 0.01640969 -0.00002791
v 0.00194640 0.01489227 0.00001433
v 0.00651149 0.02800895 -0.00690427
v 0.00657758 0.02821074 -0.00529086
v 0.00622113 0.02798779 -0.00790406
v 0.00543232 0.02985823 -0.00782852
v 0.00499333 0.03159401 -0.00776451
v 0.00534294 0.03152181 -0.00610843
v 0.00534294 0.03152181 -0.00445235
v 0.00499333 0.03159401 -0.00279627
v 0.00622113 0.02798779 -0.00265673
v 0.00543232 0.02985824 -0.00273226
v 0.00651149 0.02800895 -0.00365651
v 0.00657758 0.02821074 -0.00526992
v -0.00212110 0.01834429 -0.00733724
v -0.00225455 0.01847873 -0.00669497
v -0.00233099 0.01855573 -0.00600160
v -0.00235586 0.01858078 -0.00528039
v -0.00423787 0.00439891 -0.00528039
v -0.00402461 0.00917737 -0.00528039
v -0.00345736 0.01393021 -0.00528039
v -0.00293677 0.01667692 -0.00528039
v -0.00423787 0.00439860 -0.00529086
v -0.00393385 0.00444972 -0.00733678
v -0.00411273 0.00438733 -0.00666757
v -0.00420756 0.00437410 -0.00598453
v -0.00279668 0.01591753 -0.00733138
v -0.00354595 0.01085589 -0.00732725
v -0.00383434 0.00755256 -0.00733274
v -0.00358118 0.01252258 -0.00639263
v -0.00292420 0.01640427 -0.00638819
v -0.00423787 0.00439860 -0.00526992
v -0.00423787 0.00439891 -0.00528039
v -0.00418362 0.00437402 -0.00434731
v -0.00408956 0.00439384 -0.00378058
v -0.00393385 0.00444972 -0.00322400
v -0.00212110 0.01834429 -0.00322354
v -0.00279668 0.01591753 -0.00322940
v -0.00354595 0.01085589 -0.00323353
v -0.00383433 0.00755256 -0.00322804
v -0.00225454 0.01847873 -0.00386581
v -0.00233097 0.01855573 -0.00455919
v -0.00235586 0.01858078 -0.00528039
v -0.00402461 0.00917737 -0.00528039
v -0.00345736 0.01393021 -0.00528039
v -0.00293677 0.01667692 -0.00528039
v -0.00358118 0.01252258 -0.00416815
v -0.00292420 0.01640427 -0.00417259
v 0.00175320 0.02711716 -0.01055168
v 0.00100798 0.02689473 -0.01063719
v 0.00054546 0.02665070 -0.01066492
v 0.00007751 0.02628786 -0.01066477
v 0.00045360 0.02502217 -0.01064619
v 0.00078484 0.02331686 -0.01059486
v 0.00305153 0.02397413 -0.01042313
v 0.00175320 0.02711716 -0.01055168
v -0.00157633 0.02260466 -0.00733695
v -0.00087015 0.02281544 -0.00902437
v -0.00031930 0.02298200 -0.00986552
v 0.00016222 0.02312735 -0.01032185
v 0.00049316 0.02322759 -0.01051449
v 0.00064679 0.02327442 -0.01056935
v 0.00078484 0.02331686 -0.01059486
v -0.00212110 0.01834429 -0.00733724
v -0.00161510 0.01989562 -0.00733692
v -0.00145899 0.02121217 -0.00733687
v 0.00104796 0.01661166 -0.01045434
v 0.00031859 0.01687285 -0.01020614
v -0.00041764 0.01720048 -0.00976052
v -0.00107097 0.01755495 -0.00917634
v -0.00158899 0.01789535 -0.00852159
v -0.00190342 0.01814255 -0.00795071
v 0.00103144 0.02026921 -0.01050632
v 0.00076396 0.01816080 -0.01037669
v 0.00041773 0.01823594 -0.01023095
v 0.00006913 0.01832297 -0.01002712
v -0.00076056 0.01897240 -0.00922533
v 0.00060528 0.02214394 -0.01046646
v -0.00149670 0.01877516 -0.00823650
v -0.00064878 0.01997498 -0.00926387
v 0.00036263 0.02205969 -0.01033362
v 0.00003298 0.02194995 -0.01008291
v -0.00066225 0.02111957 -0.00919161
v -0.00122042 0.02205655 -0.00803817
v 0.00060434 0.01916233 -0.01033349
v 0.00017128 0.02007905 -0.01010612
v -0.00212110 0.01834429 -0.00733724
v -0.00161510 0.01989562 -0.00733692
v -0.00145899 0.02121217 -0.00733687
v -0.00157633 0.02260466 -0.00733695
v -0.00250940 0.02498295 -0.00733724
v -0.00197948 0.02392265 -0.00733707
v -0.00283861 0.02494535 -0.00528039
v -0.00275953 0.02495439 -0.00635338
v -0.00235586 0.01858078 -0.00528039
v -0.00187567 0.02019260 -0.00528039
v -0.00179995 0.02177407 -0.00528039
v -0.00208299 0.02326248 -0.00528039
v -0.00244023 0.02417187 -0.00528039
v -0.00225455 0.01847873 -0.00669497
v -0.00233099 0.01855573 -0.00600160
v -0.00250940 0.02498295 -0.00733724
v -0.00194548 0.02514771 -0.00857468
v -0.00110856 0.02551897 -0.00983248
v -0.00067015 0.02575189 -0.01028677
v -0.00035998 0.02594056 -0.01052133
v -0.00015749 0.02608539 -0.01062176
v -0.00002777 0.02619268 -0.01065582
v 0.00007751 0.02628786 -0.01066477
v -0.00197948 0.02392265 -0.00733707
v -0.00157633 0.02260466 -0.00733695
v -0.00087015 0.02281544 -0.00902437
v -0.00031930 0.02298200 -0.00986552
v 0.00016222 0.02312735 -0.01032185
v 0.00049316 0.02322759 -0.01051449
v 0.00064679 0.02327442 -0.01056935
v 0.00078484 0.02331686 -0.01059486
v 0.00045360 0.02502217 -0.01064619
v 0.00013006 0.02397558 -0.01044191
v 0.00003442 0.02568774 -0.01063142
v -0.00009014 0.02559159 -0.01058094
v -0.00138053 0.02426576 -0.00881561
v -0.00206587 0.02458203 -0.00783763
v -0.00066111 0.02416531 -0.00978270
v -0.00077921 0.02488855 -0.00989884
v 0.00175320 0.02711716 -0.01055168
v 0.00090078 0.02947835 -0.01056803
v 0.00061008 0.03102516 -0.01056188
v 0.00049147 0.03232274 -0.01053787
v 0.00100798 0.02689473 -0.01063719
v 0.00054546 0.02665070 -0.01066492
v 0.00007751 0.02628786 -0.01066477
v -0.00165429 0.03265428 -0.01065628
v -0.00097007 0.02939242 -0.01069061
v -0.00511034 0.03822033 -0.00528039
v -0.00520998 0.03470350 -0.00528039
v -0.00488531 0.03121524 -0.00528039
v -0.00412412 0.02796501 -0.00528039
v -0.00354932 0.02642596 -0.00528039
v -0.00283861 0.02494535 -0.00528039
v -0.00481931 0.03806258 -0.00733724
v -0.00498475 0.03815226 -0.00669497
v -0.00507950 0.03820362 -0.00600160
v -0.00484650 0.03314752 -0.00737682
v -0.00495435 0.03564672 -0.00737155
v -0.00250940 0.02498295 -0.00733724
v -0.00367052 0.02758185 -0.00734318
v -0.00443590 0.03034399 -0.00736122
v -0.00275953 0.02495439 -0.00635338
v -0.00511872 0.03716826 -0.00636032
v -0.00165429 0.03265428 -0.01065628
v -0.00097007 0.02939242 -0.01069061
v 0.00007751 0.02628786 -0.01066477
v -0.00250940 0.02498295 -0.00733724
v -0.00194548 0.02514771 -0.00857468
v -0.00110856 0.02551897 -0.00983248
v -0.00067015 0.02575189 -0.01028677
v -0.00035998 0.02594056 -0.01052133
v -0.00015749 0.02608539 -0.01062176
v -0.00002777 0.02619268 -0.01065582
v -0.00367052 0.02758185 -0.00734318
v -0.00443590 0.03034399 -0.00736122
v -0.00484650 0.03314752 -0.00737682
v -0.00250293 0.03278675 -0.01055081
v -0.00290853 0.03285048 -0.01040335
v -0.00335660 0.03292077 -0.01012109
v -0.00371878 0.03297727 -0.00976231
v -0.00412305 0.03303957 -0.00916440
v -0.00449373 0.03309551 -0.00837013
v -0.00247219 0.03154119 -0.01053188
v -0.00196871 0.03092752 -0.01064100
v -0.00278083 0.03157122 -0.01039506
v -0.00221468 0.03091782 -0.01057829
v -0.00243815 0.03092356 -0.01049472
v -0.00345107 0.03078452 -0.00959803
v -0.00431144 0.03172672 -0.00837188
v -0.00443563 0.03173636 -0.00805802
v -0.00455728 0.03174608 -0.00772837
v -0.00111669 0.02747505 -0.01049130
v -0.00352609 0.02898946 -0.00862932
v -0.00321089 0.02968830 -0.00948356
v -0.00278371 0.02840194 -0.00944651
v -0.00097834 0.02690504 -0.01042992
v -0.00225630 0.02739106 -0.00957652
v -0.00263363 0.02636691 -0.00843851
v -0.00292812 0.02629712 -0.00784445
v -0.00223318 0.02990492 -0.01044526
v -0.00210853 0.02940571 -0.01041329
v -0.00189636 0.02882058 -0.01039989
v -0.00236039 0.02908721 -0.01015662
v -0.00163774 0.02835592 -0.01043169
v -0.00408834 0.02964523 -0.00784057
v -0.00169888 0.04229919 -0.00952648
v 0.00030213 0.04199001 -0.00941191
v -0.00200330 0.03750442 -0.01035406
v -0.00192586 0.03996950 -0.01001105
v -0.00165429 0.03265428 -0.01065628
v -0.00191867 0.03512083 -0.01055114
v 0.00049147 0.03232274 -0.01053787
v 0.00016243 0.03879892 -0.01000596
v 0.00027906 0.03556823 -0.01036925
v 0.00049147 0.03232274 -0.01053787
v 0.00232185 0.03203871 -0.01009440
v 0.00365090 0.03182770 -0.00941213
v 0.00439825 0.03170387 -0.00878131
v 0.00476881 0.03163820 -0.00828342
v 0.00489872 0.03161326 -0.00801985
v 0.00499333 0.03159401 -0.00776451
v 0.00175320 0.02711716 -0.01055168
v 0.00090078 0.02947835 -0.01056803
v 0.00061008 0.03102516 -0.01056188
v 0.00622113 0.02798779 -0.00790406
v 0.00589091 0.02794296 -0.00861363
v 0.00550490 0.02788114 -0.00911261
v 0.00502928 0.02779643 -0.00951589
v 0.00444283 0.02768460 -0.00985732
v 0.00351949 0.02749828 -0.01020723
v 0.00265481 0.02731544 -0.01041078
v 0.00543232 0.02985823 -0.00782852
v 0.00542176 0.02875364 -0.00871563
v 0.00454239 0.02986082 -0.00916262
v 0.00414158 0.02985567 -0.00946513
v 0.00383443 0.02985091 -0.00965402
v 0.00278218 0.02840049 -0.01028697
v 0.00233822 0.03093085 -0.01017309
v 0.00154578 0.03097329 -0.01039812
v -0.00289496 0.04407587 -0.00528039
v -0.00381225 0.04264608 -0.00528039
v -0.00466054 0.04049105 -0.00528039
v -0.00511034 0.03822033 -0.00528039
v -0.00291763 0.04389780 -0.00697934
v -0.00336750 0.04324182 -0.00729210
v -0.00315548 0.04354955 -0.00726403
v -0.00304753 0.04369574 -0.00721564
v -0.00298394 0.04378279 -0.00716291
v -0.00295038 0.04383164 -0.00711664
v -0.00292991 0.04386535 -0.00706856
v -0.00292019 0.04388646 -0.00702065
v -0.00407702 0.04172795 -0.00731059
v -0.00462235 0.03958383 -0.00732787
v -0.00481931 0.03806258 -0.00733724
v -0.00498475 0.03815226 -0.00669497
v -0.00507950 0.03820362 -0.00600160
v -0.00165429 0.03265428 -0.01065628
v -0.00191867 0.03512083 -0.01055114
v -0.00200330 0.03750442 -0.01035406
v -0.00250293 0.03278675 -0.01055081
v -0.00290853 0.03285048 -0.01040335
v -0.00335660 0.03292077 -0.01012109
v -0.00371878 0.03297727 -0.00976231
v -0.00412305 0.03303957 -0.00916440
v -0.00449373 0.03309551 -0.00837013
v -0.00484650 0.03314752 -0.00737682
v -0.00495435 0.03564672 -0.00737155
v -0.00481931 0.03806258 -0.00733724
v -0.00265411 0.03756326 -0.01028335
v -0.00306889 0.03761832 -0.01013150
v -0.00346061 0.03768163 -0.00986637
v -0.00377397 0.03774161 -0.00953853
v -0.00414096 0.03782641 -0.00898162
v -0.00448566 0.03792793 -0.00824702
v -0.00277182 0.03647451 -0.01035721
v -0.00314875 0.03692937 -0.01016531
v -0.00297187 0.03652072 -0.01028483
v -0.00343473 0.03699752 -0.00997140
v -0.00323686 0.03658598 -0.01014784
v -0.00267710 0.03407348 -0.01049532
v -0.00468106 0.03689554 -0.00801183
v -0.00404053 0.03545182 -0.00944329
v -0.00306712 0.03373749 -0.01034167
v -0.00290148 0.03412306 -0.01041817
v -0.00479107 0.03696469 -0.00770119
v -0.00396537 0.03465490 -0.00955770
v -0.00458485 0.03430518 -0.00836003
v -0.00470254 0.03434540 -0.00805300
v -0.00481614 0.03438954 -0.00773063
v -0.00314381 0.03573097 -0.01025999
v -0.00308550 0.03528634 -0.01031016
v -0.00417720 0.03694686 -0.00908204
v -0.00303059 0.03490345 -0.01034892
v 0.00291842 0.04202770 -0.00695866
v 0.00309250 0.04200200 -0.00528039
v 0.00291842 0.04202770 -0.00360212
v 0.00289610 0.04202268 -0.00349182
v 0.00288371 0.04199932 -0.00341202
v 0.00287521 0.04195105 -0.00332698
v 0.00287273 0.04188330 -0.00325105
v 0.00287584 0.04181579 -0.00319965
v 0.00288390 0.04174256 -0.00316299
v 0.00289266 0.04168899 -0.00314716
v 0.00290325 0.04163659 -0.00313932
v 0.00291518 0.04158421 -0.00313643
v 0.00499333 0.03159401 -0.00279627
v 0.00408517 0.03632213 -0.00295674
v 0.00499333 0.03159401 -0.00776451
v 0.00534294 0.03152181 -0.00610843
v 0.00534294 0.03152181 -0.00445235
v 0.00408517 0.03632213 -0.00760404
v 0.00291518 0.04158421 -0.00742435
v 0.00288390 0.04174256 -0.00739779
v 0.00289276 0.04168834 -0.00741382
v 0.00290346 0.04163558 -0.00742163
v 0.00289670 0.04202331 -0.00706557
v 0.00288379 0.04199933 -0.00714840
v 0.00287523 0.04195128 -0.00723345
v 0.00287275 0.04188290 -0.00731005
v 0.00287592 0.04181464 -0.00736189
v 0.00400044 0.03817257 -0.00528039
v 0.00442672 0.03626213 -0.00528039
v 0.00488587 0.03389219 -0.00447902
v 0.00475872 0.03467734 -0.00554454
v 0.00030213 0.04199001 -0.00941191
v 0.00142940 0.04181601 -0.00905695
v 0.00213653 0.04170737 -0.00862927
v 0.00254123 0.04164487 -0.00822330
v 0.00277091 0.04160845 -0.00783711
v 0.00285005 0.04159536 -0.00763495
v 0.00291518 0.04158421 -0.00742435
v 0.00016243 0.03879892 -0.01000596
v 0.00027906 0.03556823 -0.01036925
v 0.00049147 0.03232274 -0.01053787
v 0.00232185 0.03203871 -0.01009440
v 0.00365090 0.03182770 -0.00941213
v 0.00439825 0.03170387 -0.00878131
v 0.00476881 0.03163820 -0.00828342
v 0.00489872 0.03161326 -0.00801985
v 0.00499333 0.03159401 -0.00776451
v 0.00408517 0.03632213 -0.00760404
v 0.00415968 0.03403340 -0.00849405
v 0.00325824 0.03448988 -0.00929415
v 0.00204415 0.03368866 -0.01006498
v 0.00305503 0.03582213 -0.00920669
v 0.00214920 0.03680602 -0.00961395
v 0.00193333 0.04066939 -0.00901397
v 0.00139272 0.04021597 -0.00939235
v 0.00178632 0.04015640 -0.00920676
v 0.00378794 0.03604465 -0.00839830
v 0.00349641 0.03651601 -0.00863880
v 0.00278696 0.03747263 -0.00908389
v 0.00362479 0.03687551 -0.00835866
v 0.00275575 0.03885806 -0.00879654
v 0.00234530 0.03527095 -0.00974188
v 0.00190787 0.03500824 -0.00997796
v 0.00184049 0.03566793 -0.00992441
v 0.00195168 0.03604590 -0.00982500
v 0.00204805 0.03835333 -0.00940381
v 0.00300034 0.04019617 -0.00807777
v 0.00157925 0.03811851 -0.00967817
v 0.00293255 0.04020769 -0.00818679
v 0.00165738 0.03879651 -0.00952769
v 0.00156223 0.03927076 -0.00948846
v -0.00127161 0.04499273 -0.00696184
v -0.00057016 0.04512748 -0.00695858
v 0.00021625 0.04512930 -0.00695841
v 0.00072069 0.04507198 -0.00695863
v -0.00169888 0.04229919 -0.00952648
v -0.00159331 0.04304411 -0.00928888
v -0.00149911 0.04364911 -0.00893641
v -0.00142375 0.04410578 -0.00852095
v -0.00136275 0.04446250 -0.00807333
v -0.00130742 0.04478149 -0.00752516
v -0.00128593 0.04490754 -0.00722735
v 0.00030213 0.04199001 -0.00941191
v 0.00070204 0.04495285 -0.00737717
v 0.00066003 0.04467798 -0.00785882
v 0.00058913 0.04420358 -0.00837645
v 0.00049591 0.04355610 -0.00884652
v 0.00039451 0.04279740 -0.00919311
v -0.00022789 0.04486007 -0.00770881
v -0.00336750 0.04324182 -0.00729210
v -0.00330988 0.04305087 -0.00799901
v -0.00310018 0.04283630 -0.00865431
v -0.00292587 0.04271557 -0.00895075
v -0.00268453 0.04258596 -0.00921001
v -0.00244450 0.04248610 -0.00936438
v -0.00219156 0.04240454 -0.00945705
v -0.00195616 0.04234644 -0.00950242
v -0.00169888 0.04229919 -0.00952648
v -0.00407702 0.04172795 -0.00731059
v -0.00462235 0.03958383 -0.00732787
v -0.00481931 0.03806258 -0.00733724
v -0.00200330 0.03750442 -0.01035406
v -0.00265411 0.03756326 -0.01028335
v -0.00306889 0.03761832 -0.01013150
v -0.00346061 0.03768163 -0.00986637
v -0.00377397 0.03774161 -0.00953853
v -0.00414096 0.03782641 -0.00898162
v -0.00448566 0.03792793 -0.00824702
v -0.00192586 0.03996950 -0.01001105
v -0.00310874 0.03839434 -0.01001335
v -0.00273349 0.03877301 -0.01010953
v -0.00291933 0.03878874 -0.01004432
v -0.00380824 0.03906150 -0.00926763
v -0.00442354 0.03861780 -0.00822645
v -0.00453081 0.03864147 -0.00795522
v -0.00378231 0.03983838 -0.00912332
v -0.00463741 0.03866485 -0.00766687
v -0.00244582 0.04125807 -0.00970672
v -0.00268123 0.04174779 -0.00950514
v -0.00263998 0.04131103 -0.00964054
v -0.00280855 0.04136340 -0.00955923
v -0.00407494 0.04046415 -0.00839625
v -0.00363360 0.04081407 -0.00902900
v -0.00289228 0.04182904 -0.00937091
v -0.00350253 0.04154471 -0.00890743
v -0.00367504 0.04240594 -0.00791941
v -0.00294925 0.03951530 -0.00991160
v -0.00295314 0.03988901 -0.00983918
v -0.00290334 0.04034090 -0.00976791
v -0.00322173 0.04018152 -0.00962011
v -0.00287886 0.04068425 -0.00970102
v -0.00127161 0.04499273 -0.00696184
v -0.00175954 0.04480372 -0.00696643
v -0.00232148 0.04445727 -0.00697236
v -0.00291763 0.04389780 -0.00697934
v -0.00123540 0.04520440 -0.00528039
v -0.00124466 0.04515025 -0.00616574
v -0.00289496 0.04407587 -0.00528039
v -0.00242221 0.04456572 -0.00528039
v -0.00186947 0.04496057 -0.00528039
v -0.00156057 0.04510345 -0.00528039
v -0.00291763 0.04389782 -0.00697927
v 0.00309250 0.04200200 -0.00528039
v 0.00266396 0.04333427 -0.00528039
v 0.00209292 0.04430278 -0.00528039
v 0.00155672 0.04485089 -0.00528039
v 0.00122496 0.04506674 -0.00528039
v 0.00099196 0.04516679 -0.00528039
v 0.00074635 0.04523379 -0.00528039
v 0.00291842 0.04202770 -0.00695866
v 0.00072069 0.04507198 -0.00695863
v 0.00107067 0.04496696 -0.00695869
v 0.00142838 0.04476011 -0.00695892
v 0.00176527 0.04446144 -0.00695923
v 0.00209148 0.04405948 -0.00695951
v 0.00246874 0.04339846 -0.00695964
v 0.00273693 0.04270011 -0.00695933
v 0.00291842 0.04202770 -0.00695866
v 0.00289670 0.04202331 -0.00706557
v 0.00288379 0.04199933 -0.00714840
v 0.00287523 0.04195128 -0.00723345
v 0.00287275 0.04188290 -0.00731005
v 0.00287592 0.04181464 -0.00736189
v 0.00288390 0.04174256 -0.00739779
v 0.00072069 0.04507198 -0.00695863
v 0.00107067 0.04496696 -0.00695869
v 0.00142838 0.04476011 -0.00695892
v 0.00176527 0.04446144 -0.00695923
v 0.00209148 0.04405948 -0.00695951
v 0.00246874 0.04339846 -0.00695964
v 0.00273693 0.04270011 -0.00695933
v 0.00070204 0.04495285 -0.00737717
v 0.00066003 0.04467798 -0.00785882
v 0.00058913 0.04420358 -0.00837645
v 0.00049591 0.04355610 -0.00884652
v 0.00039451 0.04279740 -0.00919311
v 0.00030213 0.04199001 -0.00941191
v 0.00142940 0.04181601 -0.00905695
v 0.00213653 0.04170737 -0.00862927
v 0.00254123 0.04164487 -0.00822330
v 0.00277091 0.04160845 -0.00783711
v 0.00285005 0.04159536 -0.00763495
v 0.00291518 0.04158421 -0.00742435
v 0.00289276 0.04168834 -0.00741382
v 0.00290346 0.04163558 -0.00742163
v 0.00271570 0.04188724 -0.00779929
v 0.00270152 0.04197657 -0.00777436
v 0.00217884 0.04275876 -0.00818211
v 0.00239219 0.04291915 -0.00773750
v 0.00221942 0.04316536 -0.00784121
v 0.00173499 0.04308893 -0.00844651
v 0.00200305 0.04341879 -0.00795286
v 0.00227772 0.04342681 -0.00749239
v 0.00184823 0.04357004 -0.00802342
v 0.00189765 0.04393999 -0.00761768
v 0.00155377 0.04380117 -0.00814004
v 0.00093831 0.04306088 -0.00892148
v 0.00123642 0.04398217 -0.00824243
v 0.00117716 0.04467364 -0.00756738
v 0.00102319 0.04474231 -0.00758610
v 0.00103218 0.04485864 -0.00736463
v -0.00127161 0.04499273 -0.00696184
v -0.00057016 0.04512748 -0.00695858
v 0.00021625 0.04512930 -0.00695841
v 0.00072069 0.04507198 -0.00695863
v 0.00074635 0.04523379 -0.00528039
v -0.00123540 0.04520440 -0.00528039
v -0.00024667 0.04530917 -0.00528039
v -0.00124466 0.04515025 -0.00616574
v -0.00127161 0.04499273 -0.00696184
v -0.00175954 0.04480372 -0.00696643
v -0.00232148 0.04445727 -0.00697236
v -0.00291763 0.04389780 -0.00697934
v -0.00336750 0.04324182 -0.00729210
v -0.00315548 0.04354955 -0.00726403
v -0.00304753 0.04369574 -0.00721564
v -0.00298394 0.04378279 -0.00716291
v -0.00295038 0.04383164 -0.00711664
v -0.00292991 0.04386535 -0.00706856
v -0.00292019 0.04388646 -0.00702065
v -0.00330988 0.04305087 -0.00799901
v -0.00310018 0.04283630 -0.00865431
v -0.00292587 0.04271557 -0.00895075
v -0.00268453 0.04258596 -0.00921001
v -0.00244450 0.04248610 -0.00936438
v -0.00219156 0.04240454 -0.00945705
v -0.00195616 0.04234644 -0.00950242
v -0.00169888 0.04229919 -0.00952648
v -0.00159331 0.04304411 -0.00928888
v -0.00149911 0.04364911 -0.00893641
v -0.00142375 0.04410578 -0.00852095
v -0.00136275 0.04446250 -0.00807333
v -0.00130742 0.04478149 -0.00752516
v -0.00128593 0.04490754 -0.00722735
v -0.00210707 0.04305904 -0.00923593
v -0.00225560 0.04308256 -0.00918562
v -0.00219011 0.04332929 -0.00905841
v -0.00231056 0.04334162 -0.00900237
v -0.00268337 0.04362256 -0.00838086
v -0.00251264 0.04396111 -0.00805502
v -0.00193346 0.04450929 -0.00758666
v -0.00189727 0.04459074 -0.00741462
v -0.00241039 0.04421487 -0.00761593
v 0.00078484 0.02331686 0.00003408
v 0.00305153 0.02397413 -0.00013765
v 0.00175320 0.02711716 -0.00000910
v 0.00100798 0.02689473 0.00007640
v 0.00054546 0.02665071 0.00010414
v 0.00007751 0.02628786 0.00010399
v 0.00045361 0.02502217 0.00008541
v 0.00175320 0.02711716 -0.00000910
v -0.00169887 0.04229919 -0.00103430
v -0.00159331 0.04304411 -0.00127190
v -0.00149911 0.04364911 -0.00162438
v -0.00142375 0.04410578 -0.00203984
v -0.00136275 0.04446250 -0.00248745
v -0.00130742 0.04478149 -0.00303562
v -0.00128593 0.04490754 -0.00333343
v -0.00127161 0.04499273 -0.00359894
v -0.00190451 0.04472924 -0.00359287
v -0.00249933 0.04431267 -0.00358645
v -0.00291763 0.04389780 -0.00358144
v -0.00336750 0.04324182 -0.00326868
v -0.00315174 0.04355466 -0.00329782
v -0.00304773 0.04369548 -0.00334501
v -0.00298446 0.04378204 -0.00339719
v -0.00295057 0.04383136 -0.00344386
v -0.00293049 0.04386431 -0.00349040
v -0.00292074 0.04388497 -0.00353596
v -0.00330988 0.04305087 -0.00256177
v -0.00310018 0.04283630 -0.00190647
v -0.00292587 0.04271557 -0.00161003
v -0.00268453 0.04258596 -0.00135077
v -0.00244450 0.04248610 -0.00119640
v -0.00219156 0.04240454 -0.00110373
v -0.00195616 0.04234644 -0.00105837
v -0.00210707 0.04305904 -0.00132485
v -0.00225560 0.04308256 -0.00137516
v -0.00219011 0.04332929 -0.00150238
v -0.00231056 0.04334162 -0.00155841
v -0.00268349 0.04362230 -0.00217971
v -0.00218147 0.04411871 -0.00239315
v -0.00251279 0.04396079 -0.00250536
v -0.00245568 0.04407851 -0.00266840
v -0.00224759 0.04433652 -0.00298195
v -0.00258055 0.04416970 -0.00326065
v -0.00123540 0.04520440 -0.00528039
v -0.00124466 0.04515025 -0.00439504
v -0.00127161 0.04499273 -0.00359894
v -0.00057016 0.04512749 -0.00360221
v 0.00021625 0.04512930 -0.00360237
v 0.00072069 0.04507198 -0.00360215
v 0.00074635 0.04523379 -0.00528039
v -0.00024667 0.04530917 -0.00528039
v 0.00288390 0.04174256 -0.00316299
v 0.00289266 0.04168899 -0.00314716
v 0.00290325 0.04163659 -0.00313932
v 0.00291518 0.04158421 -0.00313643
v 0.00291842 0.04202770 -0.00360212
v 0.00289610 0.04202268 -0.00349182
v 0.00288371 0.04199932 -0.00341202
v 0.00287521 0.04195105 -0.00332698
v 0.00287273 0.04188330 -0.00325105
v 0.00287584 0.04181579 -0.00319965
v 0.00072069 0.04507198 -0.00360215
v 0.00107067 0.04496696 -0.00360209
v 0.00142838 0.04476011 -0.00360186
v 0.00176527 0.04446144 -0.00360156
v 0.00209148 0.04405948 -0.00360127
v 0.00246874 0.04339846 -0.00360115
v 0.00273693 0.04270011 -0.00360145
v 0.00070204 0.04495285 -0.00318362
v 0.00066004 0.04467798 -0.00270197
v 0.00058913 0.04420358 -0.00218434
v 0.00049591 0.04355610 -0.00171426
v 0.00039451 0.04279740 -0.00136767
v 0.00030213 0.04199001 -0.00114887
v 0.00142940 0.04181601 -0.00150384
v 0.00213653 0.04170737 -0.00193152
v 0.00254123 0.04164487 -0.00233748
v 0.00277091 0.04160845 -0.00272368
v 0.00285005 0.04159536 -0.00292583
v 0.00271545 0.04188869 -0.00276184
v 0.00270144 0.04197709 -0.00278658
v 0.00217884 0.04275876 -0.00237868
v 0.00239219 0.04291915 -0.00282328
v 0.00221942 0.04316536 -0.00271958
v 0.00173499 0.04308893 -0.00211428
v 0.00200305 0.04341879 -0.00260792
v 0.00227772 0.04342681 -0.00306839
v 0.00184823 0.04357004 -0.00253737
v 0.00189765 0.04393999 -0.00294310
v 0.00155377 0.04380117 -0.00242074
v 0.00093832 0.04306088 -0.00163930
v 0.00123642 0.04398217 -0.00231835
v 0.00117716 0.04467364 -0.00299340
v 0.00102319 0.04474231 -0.00297469
v 0.00103218 0.04485864 -0.00319616
v 0.00291842 0.04202770 -0.00360212
v 0.00309250 0.04200200 -0.00528039
v 0.00072069 0.04507198 -0.00360215
v 0.00107067 0.04496696 -0.00360209
v 0.00142838 0.04476011 -0.00360186
v 0.00176527 0.04446144 -0.00360156
v 0.00209148 0.04405948 -0.00360127
v 0.00246874 0.04339846 -0.00360115
v 0.00273693 0.04270011 -0.00360145
v 0.00074635 0.04523379 -0.00528039
v 0.00266396 0.04333427 -0.00528039
v 0.00209292 0.04430278 -0.00528039
v 0.00155672 0.04485089 -0.00528039
v 0.00122496 0.04506674 -0.00528039
v 0.00099196 0.04516679 -0.00528039
v -0.00289496 0.04407587 -0.00528039
v -0.00291763 0.04389780 -0.00358144
v -0.00127161 0.04499273 -0.00359894
v -0.00190451 0.04472924 -0.00359287
v -0.00249933 0.04431267 -0.00358645
v -0.00123540 0.04520440 -0.00528039
v -0.00124466 0.04515025 -0.00439504
v -0.00242221 0.04456572 -0.00528039
v -0.00186947 0.04496057 -0.00528039
v -0.00156057 0.04510345 -0.00528039
v -0.00200330 0.03750442 -0.00020672
v -0.00192586 0.03996949 -0.00054973
v -0.00169887 0.04229919 -0.00103430
v -0.00336750 0.04324182 -0.00326868
v -0.00330988 0.04305087 -0.00256177
v -0.00310018 0.04283630 -0.00190647
v -0.00292587 0.04271557 -0.00161003
v -0.00268453 0.04258596 -0.00135077
v -0.00244450 0.04248610 -0.00119640
v -0.00219156 0.04240454 -0.00110373
v -0.00195616 0.04234644 -0.00105837
v -0.00407704 0.04172790 -0.00325019
v -0.00462235 0.03958380 -0.00323291
v -0.00481931 0.03806258 -0.00322354
v -0.00265411 0.03756326 -0.00027743
v -0.00306889 0.03761832 -0.00042928
v -0.00346061 0.03768163 -0.00069441
v -0.00377397 0.03774161 -0.00102225
v -0.00414096 0.03782641 -0.00157916
v -0.00448566 0.03792793 -0.00231376
v -0.00310874 0.03839434 -0.00054743
v -0.00273349 0.03877301 -0.00045125
v -0.00291933 0.03878874 -0.00051647
v -0.00380824 0.03906148 -0.00129315
v -0.00442355 0.03861779 -0.00233433
v -0.00453081 0.03864146 -0.00260556
v -0.00378231 0.03983835 -0.00143746
v -0.00463740 0.03866484 -0.00289391
v -0.00244582 0.04125806 -0.00085406
v -0.00268123 0.04174779 -0.00105564
v -0.00263998 0.04131103 -0.00092024
v -0.00280855 0.04136340 -0.00100155
v -0.00407495 0.04046412 -0.00216453
v -0.00363361 0.04081404 -0.00153177
v -0.00289228 0.04182904 -0.00118987
v -0.00350253 0.04154469 -0.00165335
v -0.00367504 0.04240592 -0.00264138
v -0.00294926 0.03951529 -0.00064918
v -0.00295314 0.03988900 -0.00072160
v -0.00290334 0.04034088 -0.00079286
v -0.00322173 0.04018150 -0.00094067
v -0.00287885 0.04068423 -0.00085976
v 0.00072069 0.04507198 -0.00360215
v 0.00070204 0.04495285 -0.00318362
v 0.00066004 0.04467798 -0.00270197
v 0.00058913 0.04420358 -0.00218434
v 0.00049591 0.04355610 -0.00171426
v 0.00039451 0.04279740 -0.00136767
v 0.00030213 0.04199001 -0.00114887
v -0.00127161 0.04499273 -0.00359894
v -0.00057016 0.04512749 -0.00360221
v 0.00021625 0.04512930 -0.00360237
v -0.00169887 0.04229919 -0.00103430
v -0.00159331 0.04304411 -0.00127190
v -0.00149911 0.04364911 -0.00162438
v -0.00142375 0.04410578 -0.00203984
v -0.00136275 0.04446250 -0.00248745
v -0.00130742 0.04478149 -0.00303562
v -0.00128593 0.04490754 -0.00333343
v -0.00022789 0.04486007 -0.00285197
v 0.00499333 0.03159401 -0.00279627
v 0.00408517 0.03632213 -0.00295674
v 0.00291518 0.04158421 -0.00313643
v 0.00030213 0.04199001 -0.00114887
v 0.00142940 0.04181601 -0.00150384
v 0.00213653 0.04170737 -0.00193152
v 0.00254123 0.04164487 -0.00233748
v 0.00277091 0.04160845 -0.00272368
v 0.00285005 0.04159536 -0.00292583
v 0.00016243 0.03879892 -0.00055483
v 0.00027906 0.03556823 -0.00019153
v 0.00049147 0.03232274 -0.00002291
v 0.00232186 0.03203871 -0.00046638
v 0.00365090 0.03182770 -0.00114865
v 0.00439825 0.03170387 -0.00177947
v 0.00476881 0.03163820 -0.00227736
v 0.00489872 0.03161326 -0.00254093
v 0.00415968 0.03403339 -0.00206673
v 0.00325825 0.03448988 -0.00126664
v 0.00204415 0.03368866 -0.00049580
v 0.00305502 0.03582212 -0.00135409
v 0.00214920 0.03680602 -0.00094683
v 0.00193333 0.04066939 -0.00154681
v 0.00139272 0.04021597 -0.00116843
v 0.00178632 0.04015640 -0.00135402
v 0.00378794 0.03604464 -0.00216248
v 0.00349641 0.03651601 -0.00192198
v 0.00278696 0.03747263 -0.00147689
v 0.00362479 0.03687551 -0.00220212
v 0.00275575 0.03885806 -0.00176424
v 0.00234530 0.03527095 -0.00081890
v 0.00190787 0.03500824 -0.00058283
v 0.00184049 0.03566793 -0.00063638
v 0.00195168 0.03604590 -0.00073579
v 0.00204805 0.03835333 -0.00115698
v 0.00300034 0.04019617 -0.00248302
v 0.00157925 0.03811851 -0.00088261
v 0.00293255 0.04020769 -0.00237399
v 0.00165738 0.03879651 -0.00103309
v 0.00156223 0.03927076 -0.00107233
v -0.00165429 0.03265428 0.00009550
v -0.00250293 0.03278675 -0.00000997
v -0.00290853 0.03285048 -0.00015743
v -0.00335659 0.03292077 -0.00043969
v -0.00371878 0.03297727 -0.00079847
v -0.00412304 0.03303957 -0.00139638
v -0.00449373 0.03309551 -0.00219065
v -0.00484650 0.03314752 -0.00318396
v -0.00495435 0.03564672 -0.00318923
v -0.00481931 0.03806258 -0.00322354
v -0.00200330 0.03750442 -0.00020672
v -0.00265411 0.03756326 -0.00027743
v -0.00306889 0.03761832 -0.00042928
v -0.00346061 0.03768163 -0.00069441
v -0.00377397 0.03774161 -0.00102225
v -0.00414096 0.03782641 -0.00157916
v -0.00448566 0.03792793 -0.00231376
v -0.00191867 0.03512083 -0.00000964
v -0.00277182 0.03647451 -0.00020357
v -0.00314875 0.03692937 -0.00039547
v -0.00297187 0.03652072 -0.00027595
v -0.00343473 0.03699752 -0.00058938
v -0.00323686 0.03658598 -0.00041294
v -0.00409645 0.03633488 -0.00126510
v -0.00267710 0.03407348 -0.00006546
v -0.00468106 0.03689554 -0.00254895
v -0.00404053 0.03545182 -0.00111749
v -0.00306712 0.03373749 -0.00021911
v -0.00290147 0.03412306 -0.00014261
v -0.00479107 0.03696469 -0.00285959
v -0.00396537 0.03465491 -0.00100308
v -0.00458485 0.03430518 -0.00220076
v -0.00470254 0.03434540 -0.00250778
v -0.00481614 0.03438954 -0.00283015
v -0.00314381 0.03573097 -0.00030079
v -0.00308549 0.03528634 -0.00025063
v -0.00303059 0.03490345 -0.00021186
v -0.00289496 0.04407587 -0.00528039
v -0.00291763 0.04389780 -0.00358144
v -0.00336750 0.04324182 -0.00326868
v -0.00315174 0.04355466 -0.00329782
v -0.00304773 0.04369548 -0.00334501
v -0.00298446 0.04378204 -0.00339719
v -0.00295057 0.04383136 -0.00344386
v -0.00293049 0.04386431 -0.00349040
v -0.00292074 0.04388497 -0.00353596
v -0.00407704 0.04172790 -0.00325019
v -0.00462235 0.03958380 -0.00323291
v -0.00481931 0.03806258 -0.00322354
v -0.00498475 0.03815226 -0.00386581
v -0.00507950 0.03820362 -0.00455918
v -0.00511034 0.03822033 -0.00528039
v -0.00381225 0.04264608 -0.00528039
v -0.00466054 0.04049105 -0.00528039
v 0.00622113 0.02798779 -0.00265673
v 0.00543232 0.02985824 -0.00273226
v 0.00499333 0.03159401 -0.00279627
v 0.00049147 0.03232274 -0.00002291
v 0.00232186 0.03203871 -0.00046638
v 0.00365090 0.03182770 -0.00114865
v 0.00439825 0.03170387 -0.00177947
v 0.00476881 0.03163820 -0.00227736
v 0.00489872 0.03161326 -0.00254093
v 0.00175320 0.02711716 -0.00000910
v 0.00090078 0.02947836 0.00000725
v 0.00061007 0.03102516 0.00000110
v 0.00589090 0.02794295 -0.00194715
v 0.00550489 0.02788113 -0.00144817
v 0.00502928 0.02779643 -0.00104489
v 0.00444282 0.02768460 -0.00070346
v 0.00351948 0.02749828 -0.00035356
v 0.00265480 0.02731544 -0.00015000
v 0.00542176 0.02875364 -0.00184515
v 0.00454239 0.02986082 -0.00139816
v 0.00414158 0.02985568 -0.00109565
v 0.00383442 0.02985091 -0.00090676
v 0.00278218 0.02840050 -0.00027381
v 0.00233822 0.03093086 -0.00038769
v 0.00154579 0.03097329 -0.00016266
v 0.00030213 0.04199001 -0.00114887
v 0.00016243 0.03879892 -0.00055483
v 0.00027906 0.03556823 -0.00019153
v 0.00049147 0.03232274 -0.00002291
v -0.00169887 0.04229919 -0.00103430
v -0.00200330 0.03750442 -0.00020672
v -0.00192586 0.03996949 -0.00054973
v -0.00165429 0.03265428 0.00009550
v -0.00191867 0.03512083 -0.00000964
v -0.00250940 0.02498295 -0.00322354
v -0.00194548 0.02514771 -0.00198610
v -0.00110856 0.02551897 -0.00072831
v -0.00067015 0.02575189 -0.00027401
v -0.00035998 0.02594056 -0.00003945
v -0.00015748 0.02608539 0.00006098
v -0.00002777 0.02619268 0.00009504
v 0.00007751 0.02628786 0.00010399
v -0.00367052 0.02758185 -0.00321760
v -0.00443589 0.03034399 -0.00319956
v -0.00484650 0.03314752 -0.00318396
v -0.00165429 0.03265428 0.00009550
v -0.00250293 0.03278675 -0.00000997
v -0.00290853 0.03285048 -0.00015743
v -0.00335659 0.03292077 -0.00043969
v -0.00371878 0.03297727 -0.00079847
v -0.00412304 0.03303957 -0.00139638
v -0.00449373 0.03309551 -0.00219065
v -0.00097007 0.02939242 0.00012983
v -0.00247219 0.03154119 -0.00002890
v -0.00196871 0.03092752 0.00008022
v -0.00278083 0.03157122 -0.00016573
v -0.00221468 0.03091782 0.00001751
v -0.00243815 0.03092356 -0.00006606
v -0.00345107 0.03078452 -0.00096275
v -0.00431144 0.03172672 -0.00218890
v -0.00443563 0.03173636 -0.00250276
v -0.00455728 0.03174608 -0.00283242
v -0.00111669 0.02747505 -0.00006948
v -0.00352609 0.02898946 -0.00193146
v -0.00321089 0.02968830 -0.00107722
v -0.00278370 0.02840194 -0.00111427
v -0.00097834 0.02690504 -0.00013086
v -0.00225630 0.02739106 -0.00098426
v -0.00263363 0.02636691 -0.00212227
v -0.00292812 0.02629712 -0.00271633
v -0.00223318 0.02990492 -0.00011552
v -0.00210853 0.02940571 -0.00014749
v -0.00189636 0.02882058 -0.00016089
v -0.00236039 0.02908721 -0.00040416
v -0.00163774 0.02835592 -0.00012910
v -0.00408834 0.02964523 -0.00272022
v -0.00481931 0.03806258 -0.00322354
v -0.00498475 0.03815226 -0.00386581
v -0.00507950 0.03820362 -0.00455918
v -0.00511034 0.03822033 -0.00528039
v -0.00484650 0.03314752 -0.00318396
v -0.00495435 0.03564672 -0.00318923
v -0.00250940 0.02498295 -0.00322354
v -0.00367052 0.02758185 -0.00321760
v -0.00443589 0.03034399 -0.00319956
v -0.00283861 0.02494535 -0.00528039
v -0.00275953 0.02495439 -0.00420740
v -0.00520998 0.03470350 -0.00528039
v -0.00488531 0.03121524 -0.00528039
v -0.00412412 0.02796501 -0.00528039
v -0.00354932 0.02642596 -0.00528039
v -0.00511871 0.03716827 -0.00420047
v 0.00175320 0.02711716 -0.00000910
v 0.00100798 0.02689473 0.00007640
v 0.00054546 0.02665071 0.00010414
v 0.00007751 0.02628786 0.00010399
v -0.00165429 0.03265428 0.00009550
v -0.00097007 0.02939242 0.00012983
v 0.00049147 0.03232274 -0.00002291
v 0.00090078 0.02947836 0.00000725
v 0.00061007 0.03102516 0.00000110
v 0.00007751 0.02628786 0.00010399
v 0.00045361 0.02502217 0.00008541
v 0.00078484 0.02331686 0.00003408
v -0.00250940 0.02498295 -0.00322354
v -0.00194548 0.02514771 -0.00198610
v -0.00110856 0.02551897 -0.00072831
v -0.00067015 0.02575189 -0.00027401
v -0.00035998 0.02594056 -0.00003945
v -0.00015748 0.02608539 0.00006098
v -0.00002777 0.02619268 0.00009504
v -0.00197948 0.02392265 -0.00322371
v -0.00157633 0.02260466 -0.00322383
v -0.00087015 0.02281544 -0.00153642
v -0.00031930 0.02298200 -0.00069526
v 0.00016222 0.02312735 -0.00023893
v 0.00049316 0.02322759 -0.00004629
v 0.00064679 0.02327442 0.00000856
v 0.00013006 0.02397558 -0.00011887
v 0.00003442 0.02568774 0.00007064
v -0.00009014 0.02559159 0.00002016
v -0.00138053 0.02426576 -0.00174517
v -0.00206587 0.02458203 -0.00272315
v -0.00066111 0.02416531 -0.00077809
v -0.00077921 0.02488855 -0.00066194
v -0.00212110 0.01834429 -0.00322354
v -0.00225454 0.01847873 -0.00386581
v -0.00233097 0.01855573 -0.00455919
v -0.00235586 0.01858078 -0.00528039
v -0.00161510 0.01989562 -0.00322386
v -0.00145899 0.02121217 -0.00322391
v -0.00157633 0.02260466 -0.00322383
v -0.00250940 0.02498295 -0.00322354
v -0.00197948 0.02392265 -0.00322371
v -0.00283861 0.02494535 -0.00528039
v -0.00275953 0.02495439 -0.00420740
v -0.00187567 0.02019260 -0.00528039
v -0.00179995 0.02177407 -0.00528039
v -0.00208299 0.02326248 -0.00528039
v -0.00244023 0.02417187 -0.00528039
v 0.00104796 0.01661166 -0.00010644
v 0.00103144 0.02026921 -0.00005447
v 0.00078484 0.02331686 0.00003408
v -0.00157633 0.02260466 -0.00322383
v -0.00087015 0.02281544 -0.00153642
v -0.00031930 0.02298200 -0.00069526
v 0.00016222 0.02312735 -0.00023893
v 0.00049316 0.02322759 -0.00004629
v 0.00064679 0.02327442 0.00000856
v -0.00212110 0.01834429 -0.00322354
v -0.00161510 0.01989562 -0.00322386
v -0.00145899 0.02121217 -0.00322391
v 0.00031859 0.01687285 -0.00035464
v -0.00041764 0.01720048 -0.00080026
v -0.00107097 0.01755495 -0.00138444
v -0.00158899 0.01789535 -0.00203919
v -0.00190342 0.01814255 -0.00261008
v 0.00076396 0.01816080 -0.00018410
v 0.00041773 0.01823594 -0.00032983
v 0.00006913 0.01832297 -0.00053366
v -0.00076056 0.01897240 -0.00133545
v 0.00060528 0.02214394 -0.00009432
v -0.00149670 0.01877516 -0.00232428
v -0.00064878 0.01997498 -0.00129691
v 0.00036263 0.02205969 -0.00022716
v 0.00003298 0.02194995 -0.00047787
v -0.00066225 0.02111957 -0.00136917
v -0.00122042 0.02205655 -0.00252261
v 0.00060434 0.01916233 -0.00022729
v 0.00017128 0.02007905 -0.00045466
f 10 16 17
f 10 17 11
f 19 13 14
f 19 14 15
f 20 13 19
f 21 20 19
f 22 15 16
f 22 21 19
f 22 16 10
f 22 19 15
f 23 20 21
f 23 24 20
f 25 18 12
f 25 20 24
f 26 21 22
f 26 22 10
f 26 23 21
f 27 1 18
f 28 2 1
f 28 3 2
f 28 1 27
f 29 27 30
f 29 28 27
f 31 6 5
f 31 7 6
f 31 8 7
f 32 12 13
f 32 13 20
f 32 25 12
f 32 20 25
f 33 23 26
f 33 24 23
f 34 18 25
f 34 25 35
f 36 10 9
f 36 26 10
f 36 9 37
f 36 33 26
f 36 37 33
f 38 25 24
f 38 35 25
f 38 24 33
f 38 33 37
f 39 35 40
f 39 40 30
f 39 34 35
f 41 39 30
f 41 27 18
f 41 30 27
f 41 18 34
f 41 34 39
f 42 37 9
f 42 38 37
f 43 38 42
f 43 9 8
f 43 8 40
f 43 40 35
f 43 35 38
f 43 42 9
f 44 40 8
f 44 30 40
f 45 30 44
f 45 29 30
f 46 45 44
f 46 44 8
f 47 29 45
f 47 45 46
f 47 46 8
f 47 8 31
f 47 31 29
f 48 4 3
f 48 5 4
f 48 3 28
f 48 28 29
f 48 31 5
f 48 29 31
f 49 51 50
f 53 63 64
f 53 52 63
f 54 64 65
f 54 53 64
f 60 62 61
f 55 65 66
f 55 54 65
f 69 56 55
f 69 57 56
f 69 66 67
f 69 67 68
f 69 55 66
f 70 58 57
f 70 69 68
f 70 57 69
f 71 59 58
f 71 60 59
f 71 68 62
f 71 70 68
f 71 58 70
f 71 62 60
f 75 82 76
f 81 75 74
f 81 82 75
f 80 73 72
f 80 74 73
f 80 81 74
f 83 72 77
f 83 77 78
f 83 78 79
f 83 79 80
f 83 80 72
f 88 90 89
f 88 85 91
f 88 91 92
f 88 92 93
f 88 93 94
f 88 94 95
f 88 95 90
f 96 84 85
f 96 86 84
f 96 87 86
f 96 88 87
f 96 85 88
f 100 101 102
f 115 103 104
f 115 104 105
f 116 105 106
f 116 106 107
f 117 118 115
f 117 105 116
f 117 115 105
f 119 102 103
f 119 115 118
f 119 100 102
f 119 103 115
f 120 117 116
f 121 117 120
f 122 117 121
f 122 118 117
f 123 107 109
f 123 120 116
f 123 116 107
f 124 100 119
f 124 119 118
f 124 118 122
f 125 109 108
f 126 108 110
f 126 110 111
f 126 125 108
f 127 128 125
f 127 125 126
f 129 97 98
f 129 113 114
f 129 114 97
f 130 121 120
f 130 122 121
f 131 123 109
f 131 132 123
f 133 99 100
f 133 100 124
f 133 134 99
f 133 124 122
f 133 122 130
f 133 130 134
f 135 120 123
f 135 123 132
f 135 130 120
f 135 134 130
f 136 137 132
f 136 128 137
f 136 132 131
f 138 128 136
f 138 131 109
f 138 109 125
f 138 125 128
f 138 136 131
f 139 99 134
f 139 134 135
f 140 98 99
f 140 139 135
f 140 137 98
f 140 132 137
f 140 99 139
f 140 135 132
f 141 98 137
f 141 137 128
f 142 141 128
f 142 128 127
f 143 141 142
f 143 98 141
f 144 142 127
f 144 143 142
f 144 98 143
f 144 129 98
f 144 127 129
f 145 111 112
f 145 112 113
f 145 126 111
f 145 113 129
f 145 127 126
f 145 129 127
f 146 148 147
f 157 155 156
f 158 154 155
f 158 155 157
f 159 153 154
f 159 154 158
f 165 149 150
f 160 152 153
f 160 153 159
f 161 152 160
f 166 150 151
f 166 151 152
f 166 161 162
f 166 162 163
f 166 152 161
f 167 163 164
f 167 164 165
f 167 166 163
f 167 150 166
f 167 165 150
f 176 175 174
f 173 177 176
f 173 176 174
f 178 177 173
f 172 179 178
f 172 168 179
f 172 178 173
f 180 169 168
f 180 170 169
f 180 171 170
f 180 172 171
f 180 168 172
f 182 183 184
f 182 184 185
f 182 185 186
f 182 186 187
f 182 187 188
f 182 188 189
f 182 189 190
f 182 190 191
f 194 181 182
f 194 191 192
f 194 192 193
f 194 193 181
f 194 182 191
f 204 201 202
f 205 204 203
f 206 200 201
f 206 201 204
f 206 204 205
f 196 200 206
f 198 199 200
f 198 200 196
f 195 198 196
f 197 198 195
f 221 216 217
f 221 217 218
f 221 218 215
f 212 215 211
f 212 220 221
f 212 221 215
f 210 209 214
f 222 212 213
f 222 219 220
f 222 220 212
f 222 213 219
f 223 208 207
f 223 209 208
f 223 213 214
f 223 207 219
f 223 219 213
f 223 214 209
f 232 224 226
f 232 226 227
f 232 227 228
f 236 225 224
f 236 232 231
f 236 224 232
f 235 238 234
f 239 231 230
f 239 237 236
f 239 236 231
f 239 230 237
f 240 230 229
f 240 229 233
f 240 233 234
f 240 238 237
f 240 237 230
f 240 234 238
f 245 247 246
f 243 242 245
f 244 243 245
f 248 242 241
f 248 241 247
f 248 247 245
f 248 245 242
f 266 259 260
f 266 265 259
f 267 266 260
f 268 260 261
f 268 267 260
f 269 261 262
f 269 268 261
f 270 253 254
f 270 254 255
f 270 255 265
f 271 256 257
f 271 262 263
f 271 263 264
f 271 264 256
f 271 269 262
f 272 271 257
f 272 269 271
f 273 252 253
f 273 253 270
f 274 250 251
f 274 251 252
f 274 252 273
f 275 257 258
f 275 250 274
f 275 272 257
f 276 249 250
f 276 258 249
f 276 275 258
f 276 250 275
f 277 267 268
f 277 266 267
f 277 265 266
f 278 268 269
f 278 270 265
f 278 277 268
f 278 269 272
f 278 273 270
f 278 274 273
f 278 275 274
f 278 272 275
f 278 265 277
f 286 291 285
f 284 286 283
f 284 290 291
f 284 291 286
f 282 289 290
f 282 290 284
f 281 288 289
f 281 289 282
f 280 288 281
f 293 287 288
f 293 288 280
f 292 293 280
f 279 292 280
f 310 309 308
f 311 306 305
f 311 307 306
f 311 308 307
f 311 310 308
f 312 299 300
f 312 300 301
f 312 301 310
f 313 297 298
f 313 298 299
f 313 312 310
f 313 299 312
f 313 310 311
f 314 295 296
f 314 303 302
f 314 304 303
f 315 294 295
f 315 302 294
f 315 314 302
f 315 295 314
f 316 305 304
f 316 304 314
f 316 311 305
f 317 296 297
f 317 297 313
f 317 314 296
f 317 311 316
f 317 316 314
f 317 313 311
f 325 321 320
f 326 320 319
f 326 325 320
f 322 319 318
f 323 326 319
f 323 319 322
f 324 326 323
f 331 341 332
f 339 331 330
f 339 338 341
f 339 341 331
f 340 330 329
f 340 339 330
f 336 329 328
f 336 340 329
f 337 336 328
f 342 328 327
f 342 334 333
f 342 335 334
f 342 327 335
f 342 333 337
f 342 337 328
f 362 356 343
f 362 357 356
f 363 343 344
f 363 362 343
f 364 358 357
f 364 359 358
f 364 357 362
f 365 362 363
f 366 364 362
f 366 362 365
f 367 359 364
f 367 364 366
f 368 360 359
f 368 361 360
f 368 359 367
f 369 361 368
f 370 354 355
f 370 355 361
f 370 369 354
f 370 361 369
f 371 344 345
f 372 373 374
f 372 374 353
f 375 349 348
f 375 350 349
f 375 351 350
f 375 352 351
f 375 345 352
f 375 371 345
f 376 375 348
f 376 371 375
f 377 348 347
f 377 353 374
f 377 376 348
f 377 374 376
f 378 347 346
f 378 346 353
f 378 377 347
f 378 353 377
f 379 367 366
f 379 363 344
f 379 366 365
f 379 365 363
f 379 373 367
f 380 379 344
f 380 373 379
f 381 380 344
f 382 374 373
f 382 373 380
f 382 381 374
f 382 380 381
f 383 344 371
f 383 381 344
f 383 376 374
f 383 371 376
f 383 374 381
f 384 353 354
f 384 369 368
f 384 368 367
f 384 354 369
f 384 367 373
f 384 372 353
f 384 373 372
f 390 391 389
f 390 393 391
f 387 392 393
f 387 393 390
f 388 392 387
f 386 392 388
f 385 386 388
f 399 400 411
f 398 399 411
f 412 404 405
f 412 405 406
f 412 406 407
f 412 411 404
f 413 396 397
f 413 397 398
f 413 411 412
f 413 398 411
f 413 412 407
f 414 407 408
f 414 413 407
f 414 396 413
f 415 396 414
f 415 414 408
f 416 401 402
f 416 408 409
f 416 409 410
f 416 410 401
f 416 415 408
f 417 395 396
f 417 415 416
f 417 396 415
f 417 416 402
f 418 394 395
f 418 402 403
f 418 403 394
f 418 395 417
f 418 417 402
f 430 429 428
f 423 428 427
f 423 430 428
f 426 423 427
f 425 423 426
f 424 423 425
f 419 423 424
f 420 424 431
f 420 419 424
f 421 431 432
f 421 420 431
f 434 432 433
f 435 421 432
f 435 432 434
f 422 421 435
f 454 438 437
f 454 448 438
f 455 449 448
f 455 450 449
f 455 448 454
f 456 455 454
f 457 451 450
f 457 450 455
f 458 457 455
f 458 455 456
f 459 437 436
f 459 436 439
f 460 461 446
f 462 439 440
f 462 440 441
f 462 441 442
f 462 463 459
f 462 459 439
f 464 446 447
f 464 447 453
f 464 460 446
f 464 453 460
f 465 442 443
f 465 462 442
f 465 463 462
f 466 443 444
f 466 446 461
f 466 461 465
f 466 465 443
f 467 466 444
f 467 446 466
f 468 444 445
f 468 445 446
f 468 467 444
f 468 446 467
f 469 456 454
f 469 458 456
f 469 454 437
f 470 461 469
f 470 469 437
f 471 452 451
f 471 453 452
f 471 457 458
f 471 451 457
f 471 460 453
f 471 469 461
f 471 461 460
f 471 458 469
f 472 459 463
f 472 461 470
f 472 465 461
f 472 437 459
f 472 463 465
f 472 470 437
f 476 477 478
f 483 479 480
f 483 480 481
f 483 481 482
f 484 478 479
f 484 479 483
f 475 476 478
f 475 478 484
f 474 475 484
f 497 495 473
f 497 496 495
f 494 493 492
f 494 499 498
f 494 492 499
f 491 473 474
f 491 498 497
f 491 497 473
f 491 494 498
f 500 484 486
f 500 490 491
f 500 474 484
f 500 491 474
f 501 490 500
f 501 500 486
f 502 486 485
f 502 489 488
f 502 485 489
f 502 501 486
f 503 488 487
f 503 487 490
f 503 490 501
f 503 502 488
f 503 501 502
f 521 516 515
f 521 517 516
f 521 518 517
f 521 519 518
f 521 520 519
f 522 521 515
f 523 513 512
f 523 514 513
f 523 515 514
f 523 522 515
f 524 521 522
f 525 512 511
f 526 505 506
f 526 506 507
f 527 504 505
f 527 511 504
f 527 505 526
f 527 526 528
f 529 520 521
f 529 521 524
f 530 524 525
f 530 525 531
f 530 529 524
f 532 531 533
f 532 530 531
f 532 520 529
f 532 529 530
f 534 524 522
f 535 523 512
f 535 522 523
f 535 534 522
f 536 535 512
f 536 534 535
f 537 512 525
f 537 525 524
f 537 536 512
f 537 524 534
f 537 534 536
f 538 533 531
f 539 508 509
f 539 509 510
f 539 510 520
f 539 532 533
f 539 520 532
f 540 525 511
f 540 531 525
f 540 538 531
f 541 507 508
f 541 508 539
f 541 533 528
f 541 526 507
f 541 528 526
f 541 539 533
f 542 533 538
f 542 540 511
f 542 538 540
f 543 511 527
f 543 528 533
f 543 527 528
f 543 542 511
f 543 533 542
f 549 555 548
f 549 560 555
f 550 559 560
f 550 560 549
f 551 558 559
f 551 559 550
f 546 547 556
f 544 545 554
f 561 545 546
f 561 551 552
f 561 552 553
f 561 553 554
f 561 556 557
f 561 557 558
f 561 558 551
f 561 546 556
f 561 554 545
f 582 575 576
f 582 576 577
f 582 577 578
f 583 574 575
f 583 581 574
f 583 575 582
f 584 583 582
f 585 578 579
f 585 584 582
f 585 582 578
f 586 579 580
f 586 585 579
f 587 586 580
f 588 585 586
f 589 573 572
f 589 580 573
f 589 587 580
f 589 572 587
f 590 569 570
f 590 570 581
f 591 566 567
f 591 567 568
f 591 568 569
f 591 569 590
f 591 590 592
f 591 592 593
f 594 572 571
f 594 587 572
f 594 588 586
f 594 586 587
f 594 595 588
f 596 564 565
f 596 565 566
f 596 566 591
f 596 591 593
f 597 564 596
f 597 595 594
f 597 596 593
f 598 562 563
f 598 563 564
f 598 571 562
f 598 594 571
f 598 564 597
f 598 597 594
f 599 585 588
f 599 581 583
f 599 584 585
f 599 583 584
f 600 581 599
f 601 581 600
f 602 599 588
f 602 588 595
f 602 600 599
f 602 601 600
f 603 590 581
f 603 592 590
f 603 593 592
f 603 595 597
f 603 597 593
f 603 581 601
f 603 602 595
f 603 601 602
f 609 612 613
f 609 613 608
f 605 609 604
f 605 612 609
f 606 611 612
f 606 612 605
f 614 606 607
f 614 610 611
f 614 607 610
f 614 611 606
f 623 621 620
f 624 620 619
f 624 623 620
f 625 619 618
f 625 624 619
f 626 618 617
f 626 625 618
f 627 617 616
f 627 626 617
f 628 627 616
f 629 616 615
f 629 628 616
f 622 629 615
f 654 657 655
f 656 657 654
f 643 630 631
f 643 631 632
f 658 653 652
f 658 654 653
f 658 656 654
f 659 634 635
f 659 635 636
f 659 636 656
f 659 658 652
f 659 656 658
f 660 652 651
f 660 659 652
f 661 632 633
f 661 633 634
f 661 659 660
f 661 634 659
f 662 661 660
f 663 651 650
f 663 660 651
f 664 662 660
f 665 641 642
f 665 642 643
f 665 661 662
f 665 643 632
f 665 662 664
f 665 632 661
f 666 664 660
f 666 660 663
f 667 640 641
f 667 664 666
f 667 665 664
f 667 641 665
f 668 667 666
f 668 666 663
f 669 647 646
f 669 648 647
f 669 649 648
f 669 650 649
f 669 663 650
f 670 668 663
f 670 669 646
f 670 663 669
f 671 639 640
f 671 640 667
f 671 667 668
f 671 668 670
f 672 645 644
f 672 646 645
f 672 670 646
f 672 671 670
f 673 637 638
f 673 638 639
f 673 644 637
f 673 672 644
f 673 639 671
f 673 671 672
f 678 677 676
f 680 676 675
f 680 678 676
f 681 675 674
f 681 680 675
f 679 680 681
f 701 700 699
f 683 682 706
f 687 693 686
f 692 684 691
f 685 684 692
f 707 698 697
f 707 699 698
f 707 702 701
f 707 701 699
f 708 697 696
f 708 707 697
f 709 703 702
f 709 707 708
f 709 702 707
f 710 696 695
f 710 708 696
f 710 703 709
f 710 709 708
f 711 694 693
f 711 695 694
f 711 693 687
f 711 710 695
f 712 687 688
f 712 710 711
f 712 703 710
f 712 711 687
f 713 704 703
f 713 705 704
f 713 703 712
f 714 684 683
f 714 706 705
f 714 683 706
f 714 705 713
f 715 688 689
f 715 689 690
f 715 690 691
f 715 712 688
f 715 713 712
f 715 684 714
f 715 714 713
f 715 691 684
f 722 716 717
f 720 722 719
f 721 722 720
f 723 717 718
f 723 718 719
f 723 722 717
f 723 719 722
f 725 748 724
f 736 735 742
f 732 729 730
f 732 730 731
f 734 741 733
f 749 725 726
f 749 746 747
f 749 747 748
f 749 748 725
f 750 745 746
f 750 746 749
f 751 726 727
f 751 750 749
f 751 749 726
f 752 744 745
f 752 745 750
f 752 750 751
f 753 742 743
f 753 743 744
f 753 736 742
f 753 744 752
f 754 727 728
f 754 728 729
f 754 751 727
f 754 752 751
f 754 753 752
f 755 737 736
f 755 753 754
f 755 736 753
f 756 737 755
f 756 755 754
f 757 732 733
f 757 756 754
f 757 729 732
f 757 754 729
f 758 738 737
f 758 739 738
f 758 740 739
f 758 741 740
f 758 737 756
f 758 757 733
f 758 756 757
f 758 733 741
f 765 763 764
f 766 762 763
f 766 763 765
f 760 761 762
f 760 762 766
f 759 760 766
f 794 770 769
f 783 772 771
f 783 773 772
f 795 769 768
f 795 792 793
f 795 793 794
f 795 794 769
f 796 768 767
f 796 776 775
f 796 767 776
f 796 795 768
f 796 792 795
f 797 791 792
f 797 792 796
f 798 774 773
f 798 775 774
f 798 797 796
f 798 796 775
f 799 797 798
f 800 790 791
f 800 791 797
f 801 797 799
f 802 782 781
f 802 783 782
f 802 799 798
f 802 798 773
f 802 773 783
f 802 801 799
f 803 800 797
f 803 797 801
f 804 781 780
f 804 803 801
f 804 801 802
f 804 802 781
f 805 803 804
f 805 800 803
f 806 786 787
f 806 787 788
f 806 788 789
f 806 789 790
f 806 790 800
f 807 800 805
f 807 786 806
f 807 806 800
f 808 780 779
f 808 804 780
f 808 805 804
f 808 807 805
f 809 784 785
f 809 785 786
f 809 786 807
f 809 807 808
f 810 778 777
f 810 779 778
f 810 777 784
f 810 784 809
f 810 808 779
f 810 809 808
f 813 825 820
f 814 824 825
f 814 825 813
f 815 823 824
f 815 824 814
f 816 822 823
f 816 823 815
f 817 821 822
f 817 822 816
f 818 821 817
f 819 812 821
f 819 821 818
f 811 812 819
f 832 835 834
f 832 831 835
f 829 828 832
f 829 834 833
f 829 832 834
f 830 833 826
f 830 829 833
f 827 830 826
f 856 851 850
f 856 852 851
f 856 853 852
f 857 836 837
f 857 850 836
f 857 856 850
f 858 856 857
f 859 854 853
f 859 856 858
f 859 853 856
f 860 855 854
f 860 854 859
f 861 855 860
f 862 860 859
f 863 848 849
f 863 849 855
f 863 861 848
f 863 855 861
f 864 837 838
f 864 838 846
f 865 844 843
f 865 845 844
f 865 846 845
f 865 864 846
f 865 866 864
f 865 867 866
f 868 847 848
f 868 848 861
f 868 860 862
f 868 861 860
f 868 862 869
f 870 842 841
f 870 843 842
f 870 865 843
f 870 867 865
f 871 870 841
f 871 868 869
f 871 867 870
f 872 840 839
f 872 841 840
f 872 839 847
f 872 847 868
f 872 871 841
f 872 868 871
f 873 862 859
f 873 857 837
f 873 859 858
f 873 858 857
f 874 873 837
f 875 874 837
f 876 862 873
f 876 869 862
f 876 873 874
f 876 874 875
f 877 837 864
f 877 864 866
f 877 866 867
f 877 871 869
f 877 867 871
f 877 875 837
f 877 869 876
f 877 876 875
f 889 884 883
f 889 888 884
f 890 883 882
f 890 889 883
f 891 882 881
f 891 890 882
f 887 879 878
f 885 894 886
f 895 880 879
f 895 881 880
f 895 887 886
f 895 892 891
f 895 893 892
f 895 894 893
f 895 891 881
f 895 879 887
f 895 886 894
f 913 896 897
f 913 909 910
f 913 910 911
f 913 911 912
f 913 912 896
f 914 909 913
f 915 906 907
f 915 907 908
f 915 908 909
f 915 909 914
f 916 914 913
f 917 905 906
f 918 901 900
f 918 902 901
f 919 900 899
f 919 899 905
f 919 918 900
f 919 920 918
f 921 913 897
f 921 916 913
f 922 923 917
f 922 917 916
f 922 916 921
f 924 925 923
f 924 923 922
f 924 921 897
f 924 922 921
f 926 914 916
f 927 906 915
f 927 915 914
f 927 914 926
f 928 906 927
f 928 927 926
f 929 917 906
f 929 916 917
f 929 906 928
f 929 926 916
f 929 928 926
f 930 923 925
f 931 897 898
f 931 904 903
f 931 898 904
f 931 925 924
f 931 924 897
f 932 905 917
f 932 917 923
f 932 923 930
f 933 903 902
f 933 931 903
f 933 920 925
f 933 902 918
f 933 918 920
f 933 925 931
f 934 930 925
f 934 905 932
f 934 932 930
f 935 919 905
f 935 925 920
f 935 920 919
f 935 905 934
f 935 934 925
f 954 946 947
f 954 953 946
f 955 947 948
f 955 948 949
f 955 954 947
f 956 954 955
f 957 949 950
f 957 950 951
f 957 955 949
f 958 955 957
f 958 956 955
f 959 958 957
f 959 957 951
f 960 937 936
f 960 936 953
f 961 951 952
f 961 959 951
f 961 944 962
f 961 962 959
f 963 938 937
f 963 939 938
f 963 940 939
f 963 937 960
f 963 960 964
f 965 945 944
f 965 952 945
f 965 944 961
f 965 961 952
f 966 941 940
f 966 940 963
f 966 963 964
f 967 942 941
f 967 962 944
f 967 941 966
f 967 966 962
f 968 942 967
f 968 967 944
f 969 943 942
f 969 944 943
f 969 942 968
f 969 968 944
f 970 958 959
f 970 953 954
f 970 954 956
f 970 956 958
f 970 959 962
f 971 953 970
f 971 970 962
f 972 960 953
f 972 964 960
f 972 962 966
f 972 966 964
f 972 953 971
f 972 971 962
f 981 979 980
f 974 978 979
f 974 979 981
f 977 978 974
f 976 977 974
f 975 976 974
f 973 975 974
f 988 982 975
f 988 975 973
f 989 983 982
f 989 982 988
f 985 984 983
f 986 983 989
f 986 985 983
f 987 986 989
f 998 991 992
f 997 991 998
f 1008 990 991
f 1008 1002 990
f 1008 1003 1002
f 1008 1004 1003
f 1009 996 995
f 1009 997 996
f 1009 991 997
f 1009 1008 991
f 1009 1004 1008
f 1010 1005 1004
f 1010 1004 1009
f 1010 1009 995
f 1011 1010 995
f 1011 1005 1010
f 1012 1000 999
f 1012 1006 1005
f 1012 1007 1006
f 1012 999 1007
f 1012 1005 1011
f 1013 995 994
f 1013 1012 1011
f 1013 1011 995
f 1013 1000 1012
f 1014 994 993
f 1014 1001 1000
f 1014 993 1001
f 1014 1013 994
f 1014 1000 1013
f 1023 1018 1017
f 1023 1022 1018
f 1020 1017 1016
f 1020 1023 1017
f 1021 1020 1016
f 1015 1021 1016
f 1019 1021 1015
f 1043 1035 1036
f 1043 1036 1037
f 1044 1042 1035
f 1044 1035 1043
f 1045 1037 1038
f 1045 1038 1039
f 1045 1043 1037
f 1046 1044 1043
f 1047 1043 1045
f 1047 1046 1043
f 1048 1045 1039
f 1048 1047 1045
f 1049 1039 1040
f 1049 1040 1041
f 1049 1048 1039
f 1050 1049 1041
f 1051 1034 1033
f 1051 1041 1034
f 1051 1033 1050
f 1051 1050 1041
f 1052 1031 1042
f 1053 1055 1054
f 1053 1032 1055
f 1056 1026 1027
f 1056 1027 1028
f 1056 1028 1029
f 1056 1029 1030
f 1056 1030 1031
f 1056 1031 1052
f 1057 1026 1056
f 1057 1056 1052
f 1058 1025 1026
f 1058 1055 1032
f 1058 1026 1057
f 1058 1057 1055
f 1059 1024 1025
f 1059 1032 1024
f 1059 1025 1058
f 1059 1058 1032
f 1060 1042 1044
f 1060 1047 1048
f 1060 1046 1047
f 1060 1044 1046
f 1060 1048 1054
f 1061 1060 1054
f 1061 1042 1060
f 1062 1042 1061
f 1063 1054 1055
f 1063 1061 1054
f 1063 1055 1062
f 1063 1062 1061
f 1064 1052 1042
f 1064 1042 1062
f 1064 1055 1057
f 1064 1057 1052
f 1064 1062 1055
f 1065 1033 1032
f 1065 1049 1050
f 1065 1048 1049
f 1065 1050 1033
f 1065 1054 1048
f 1065 1032 1053
f 1065 1053 1054
f 1080 1075 1076
f 1073 1076 1072
f 1073 1079 1080
f 1073 1080 1076
f 1074 1078 1079
f 1074 1079 1073
f 1070 1077 1078
f 1070 1078 1074
f 1071 1077 1070
f 1081 1066 1067
f 1081 1067 1068
f 1081 1068 1069
f 1081 1071 1066
f 1081 1069 1077
f 1081 1077 1071
f 1086 1090 1088
f 1087 1089 1090
f 1087 1090 1086
f 1083 1082 1089
f 1084 1089 1087
f 1084 1083 1089
f 1085 1084 1087
f 1092 1107 1093
f 1108 1104 1105
f 1108 1105 1106
f 1108 1106 1107
f 1108 1107 1092
f 1109 1092 1091
f 1109 1100 1099
f 1109 1091 1100
f 1110 1098 1097
f 1110 1099 1098
f 1110 1109 1099
f 1110 1092 1109
f 1110 1108 1092
f 1111 1096 1095
f 1111 1101 1102
f 1111 1102 1103
f 1112 1095 1094
f 1112 1094 1101
f 1112 1101 1111
f 1112 1111 1095
f 1113 1103 1104
f 1113 1111 1103
f 1113 1104 1108
f 1114 1097 1096
f 1114 1110 1097
f 1114 1096 1111
f 1114 1113 1108
f 1114 1111 1113
f 1114 1108 1110
f 1125 1124 1129
f 1123 1122 1125
f 1123 1129 1128
f 1123 1125 1129
f 1121 1128 1127
f 1121 1123 1128
f 1120 1127 1126
f 1120 1121 1127
f 1119 1120 1126
f 1117 1126 1118
f 1117 1119 1126
f 1116 1119 1117
f 1115 1119 1116
f 1147 1130 1131
f 1147 1142 1130
f 1148 1142 1147
f 1149 1143 1142
f 1149 1142 1148
f 1150 1144 1143
f 1150 1143 1149
f 1151 1131 1132
f 1151 1138 1137
f 1151 1132 1138
f 1152 1140 1139
f 1152 1145 1144
f 1152 1146 1145
f 1152 1139 1146
f 1152 1144 1150
f 1153 1140 1152
f 1153 1152 1150
f 1154 1137 1136
f 1154 1151 1137
f 1155 1135 1134
f 1155 1136 1135
f 1155 1154 1136
f 1156 1141 1140
f 1156 1155 1134
f 1156 1140 1153
f 1157 1134 1133
f 1157 1133 1141
f 1157 1141 1156
f 1157 1156 1134
f 1158 1149 1148
f 1158 1148 1147
f 1158 1147 1131
f 1159 1153 1150
f 1159 1150 1149
f 1159 1151 1154
f 1159 1131 1151
f 1159 1149 1158
f 1159 1154 1155
f 1159 1155 1156
f 1159 1156 1153
f 1159 1158 1131

