# https://github.com/mikedh/trimesh
v -0.00313106 0.00407779 -0.00253527
v -0.00399101 0.00313019 -0.00253527
v -0.00463045 0.00202178 -0.00253527
v -0.00502031 0.00080299 -0.00253527
v -0.00514285 -0.00047076 -0.00253527
v -0.00499250 -0.00174153 -0.00253528
v -0.00457608 -0.00295152 -0.00253528
v -0.00391256 -0.00404568 -0.00253528
v -0.00313106 0.00407780 -0.00453527
v -0.00391256 -0.00404568 -0.00453528
v -0.00457608 -0.00295151 -0.00453528
v -0.00499250 -0.00174153 -0.00453528
v -0.00514285 -0.00047076 -0.00453527
v -0.00502031 0.00080299 -0.00453527
v -0.00463045 0.00202179 -0.00453527
v -0.00399101 0.00313020 -0.00453527
v 0.00141105 -0.00167731 -0.00963528
v 0.00141105 -0.00167732 -0.00763528
v 0.00096528 -0.00198635 -0.00763528
v 0.00045850 -0.00217972 -0.00763528
v -0.00007983 -0.00224620 -0.00763528
v -0.00061842 -0.00218191 -0.00763528
v -0.00112598 -0.00199060 -0.00763528
v -0.00157300 -0.00168338 -0.00763528
v -0.00193351 -0.00127811 -0.00763528
v -0.00218656 -0.00079834 -0.00763528
v -0.00231744 -0.00027195 -0.00763527
v -0.00231854 0.00027047 -0.00763527
v -0.00218980 0.00079739 -0.00763527
v -0.00193870 0.00127818 -0.00763527
v -0.00157984 0.00168491 -0.00763527
v -0.00157984 0.00168492 -0.00963527
v 0.00096528 -0.00198635 -0.00963528
v 0.00045850 -0.00217972 -0.00963528
v -0.00007983 -0.00224620 -0.00963528
v -0.00061842 -0.00218191 -0.00963528
v -0.00112598 -0.00199060 -0.00963528
v -0.00157300 -0.00168338 -0.00963528
v -0.00193351 -0.00127810 -0.00963528
v -0.00218656 -0.00079833 -0.00963528
v -0.00231744 -0.00027195 -0.00963527
v -0.00231854 0.00027047 -0.00963527
v -0.00218980 0.00079739 -0.00963527
v -0.00193870 0.00127818 -0.00963527
v -0.00157984 0.00168491 -0.00253527
v -0.00157984 0.00168491 -0.00453527
v 0.00141105 -0.00167732 -0.00453528
v 0.00096528 -0.00198635 -0.00453528
v 0.00045850 -0.00217973 -0.00453528
v -0.00007983 -0.00224620 -0.00453528
v -0.00061842 -0.00218191 -0.00453528
v -0.00112598 -0.00199060 -0.00453528
v -0.00157300 -0.00168338 -0.00453528
v -0.00193351 -0.00127811 -0.00453528
v -0.00218656 -0.00079834 -0.00453528
v -0.00231744 -0.00027195 -0.00453527
v -0.00231854 0.00027046 -0.00453527
v -0.00218980 0.00079738 -0.00453527
v -0.00193870 0.00127818 -0.00453527
v 0.00141105 -0.00167732 -0.00253528
v 0.00096528 -0.00198636 -0.00253528
v 0.00045850 -0.00217973 -0.00253528
v -0.00007983 -0.00224620 -0.00253528
v -0.00061841 -0.00218192 -0.00253528
v -0.00112598 -0.00199061 -0.00253528
v -0.00157300 -0.00168338 -0.00253528
v -0.00193351 -0.00127811 -0.00253528
v -0.00218656 -0.00079834 -0.00253528
v -0.00231744 -0.00027195 -0.00253527
v -0.00231854 0.00027046 -0.00253527
v -0.00218980 0.00079738 -0.00253527
v -0.00193870 0.00127818 -0.00253527
v -0.00053712 0.00543067 -0.00763527
v -0.00192983 0.00490847 -0.00763527
v -0.00315129 0.00405972 -0.00763527
v -0.00412644 0.00293659 -0.00763527
v -0.00479535 0.00160810 -0.00763527
v -0.00511692 0.00015589 -0.00763527
v -0.00507138 -0.00133080 -0.00763528
v -0.00466153 -0.00276062 -0.00763528
v -0.00391256 -0.00404567 -0.00763528
v -0.00225413 -0.00549968 -0.00763528
v -0.00031731 -0.00655477 -0.00763528
v 0.00180370 -0.00715963 -0.00763528
v 0.00286776 -0.00736791 -0.00763528
v 0.00394811 -0.00745977 -0.00763529
v 0.00503206 -0.00743413 -0.00763529
v 0.00522599 -0.00742843 -0.00763529
v 0.00541956 -0.00744155 -0.00763529
v 0.00561096 -0.00747336 -0.00763529
v 0.00520578 -0.00297127 -0.00763528
v 0.00506198 -0.00368221 -0.00763528
v 0.00508447 -0.00522097 -0.00763528
v 0.00549295 -0.00153454 -0.00763528
v 0.00020126 0.00539800 -0.00763527
v 0.00141105 -0.00167732 -0.00763528
v 0.00096528 -0.00198635 -0.00763528
v 0.00045850 -0.00217972 -0.00763528
v -0.00007983 -0.00224620 -0.00763528
v -0.00061842 -0.00218191 -0.00763528
v -0.00112598 -0.00199060 -0.00763528
v -0.00157300 -0.00168338 -0.00763528
v -0.00193351 -0.00127811 -0.00763528
v -0.00218656 -0.00079834 -0.00763528
v -0.00231744 -0.00027195 -0.00763527
v -0.00231854 0.00027047 -0.00763527
v -0.00218980 0.00079739 -0.00763527
v -0.00193870 0.00127818 -0.00763527
v -0.00157984 0.00168491 -0.00763527
v -0.00113407 0.00199395 -0.00763527
v -0.00062730 0.00218732 -0.00763527
v -0.00008897 0.00225379 -0.00763527
v 0.00044962 0.00218951 -0.00763527
v 0.00095718 0.00199819 -0.00763527
v 0.00140421 0.00169098 -0.00763527
v 0.00176472 0.00128570 -0.00763527
v 0.00201777 0.00080593 -0.00763527
v 0.00214864 0.00027954 -0.00763527
v 0.00214975 -0.00026287 -0.00763528
v 0.00202101 -0.00078979 -0.00763528
v 0.00176991 -0.00127058 -0.00763528
v 0.00503206 -0.00743413 -0.00453529
v 0.00394811 -0.00745978 -0.00453528
v 0.00286776 -0.00736791 -0.00453528
v 0.00180370 -0.00715963 -0.00453528
v -0.00031731 -0.00655477 -0.00453528
v -0.00225413 -0.00549968 -0.00453528
v -0.00391256 -0.00404568 -0.00453528
v -0.00457608 -0.00295151 -0.00453528
v -0.00499250 -0.00174153 -0.00453528
v -0.00514285 -0.00047076 -0.00453527
v -0.00502031 0.00080299 -0.00453527
v -0.00463045 0.00202179 -0.00453527
v -0.00399101 0.00313020 -0.00453527
v -0.00313106 0.00407780 -0.00453527
v -0.00234470 0.00466931 -0.00453527
v -0.00147223 0.00512435 -0.00453527
v -0.00053712 0.00543066 -0.00453527
v 0.00020126 0.00539799 -0.00453527
v 0.00549295 -0.00153455 -0.00453528
v 0.00520578 -0.00297128 -0.00453528
v 0.00561096 -0.00747337 -0.00453529
v 0.00508447 -0.00522097 -0.00453528
v 0.00506198 -0.00368221 -0.00453528
v 0.00541957 -0.00744155 -0.00453529
v 0.00522599 -0.00742844 -0.00453529
v -0.00157984 0.00168491 -0.00453527
v -0.00113407 0.00199394 -0.00453527
v -0.00062730 0.00218731 -0.00453527
v -0.00008897 0.00225379 -0.00453527
v 0.00044963 0.00218950 -0.00453527
v 0.00095718 0.00199819 -0.00453527
v 0.00140421 0.00169097 -0.00453527
v 0.00176472 0.00128570 -0.00453527
v 0.00201777 0.00080593 -0.00453527
v 0.00214864 0.00027954 -0.00453527
v 0.00214975 -0.00026287 -0.00453528
v 0.00202101 -0.00078979 -0.00453528
v 0.00176991 -0.00127059 -0.00453528
v 0.00141105 -0.00167732 -0.00453528
v 0.00096528 -0.00198635 -0.00453528
v 0.00045850 -0.00217973 -0.00453528
v -0.00007983 -0.00224620 -0.00453528
v -0.00061842 -0.00218191 -0.00453528
v -0.00112598 -0.00199060 -0.00453528
v -0.00157300 -0.00168338 -0.00453528
v -0.00193351 -0.00127811 -0.00453528
v -0.00218656 -0.00079834 -0.00453528
v -0.00231744 -0.00027195 -0.00453527
v -0.00231854 0.00027046 -0.00453527
v -0.00218980 0.00079738 -0.00453527
v -0.00193870 0.00127818 -0.00453527
v -0.00157984 0.00168491 -0.00453527
v -0.00113407 0.00199394 -0.00453527
v -0.00062730 0.00218731 -0.00453527
v -0.00008897 0.00225379 -0.00453527
v 0.00044963 0.00218950 -0.00453527
v 0.00095718 0.00199819 -0.00453527
v 0.00140421 0.00169097 -0.00453527
v 0.00176472 0.00128570 -0.00453527
v 0.00201777 0.00080593 -0.00453527
v 0.00214864 0.00027954 -0.00453527
v 0.00214975 -0.00026287 -0.00453528
v 0.00202101 -0.00078979 -0.00453528
v 0.00176991 -0.00127059 -0.00453528
v 0.00141105 -0.00167732 -0.00453528
v -0.00157984 0.00168491 -0.00253527
v -0.00113407 0.00199394 -0.00253527
v -0.00062730 0.00218731 -0.00253527
v -0.00008897 0.00225379 -0.00253527
v 0.00044963 0.00218950 -0.00253527
v 0.00095718 0.00199819 -0.00253527
v 0.00140421 0.00169097 -0.00253527
v 0.00176472 0.00128570 -0.00253527
v 0.00201777 0.00080593 -0.00253527
v 0.00214864 0.00027953 -0.00253528
v 0.00214975 -0.00026288 -0.00253528
v 0.00202101 -0.00078979 -0.00253528
v 0.00176991 -0.00127059 -0.00253528
v 0.00141105 -0.00167732 -0.00253528
v -0.00157984 0.00168491 -0.00763527
v -0.00113407 0.00199395 -0.00763527
v -0.00062730 0.00218732 -0.00763527
v -0.00008897 0.00225379 -0.00763527
v 0.00044962 0.00218951 -0.00763527
v 0.00095718 0.00199819 -0.00763527
v 0.00140421 0.00169098 -0.00763527
v 0.00176472 0.00128570 -0.00763527
v 0.00201777 0.00080593 -0.00763527
v 0.00214864 0.00027954 -0.00763527
v 0.00214975 -0.00026287 -0.00763528
v 0.00202101 -0.00078979 -0.00763528
v 0.00176991 -0.00127058 -0.00763528
v 0.00141105 -0.00167732 -0.00763528
v 0.00141105 -0.00167731 -0.00963528
v -0.00157984 0.00168492 -0.00963527
v -0.00113407 0.00199395 -0.00963527
v -0.00062730 0.00218732 -0.00963527
v -0.00008897 0.00225379 -0.00963527
v 0.00044962 0.00218951 -0.00963527
v 0.00095718 0.00199820 -0.00963527
v 0.00140421 0.00169098 -0.00963527
v 0.00176472 0.00128571 -0.00963527
v 0.00201777 0.00080594 -0.00963527
v 0.00214864 0.00027954 -0.00963527
v 0.00214975 -0.00026287 -0.00963528
v 0.00202101 -0.00078979 -0.00963528
v 0.00176991 -0.00127058 -0.00963528
v 0.00561096 -0.00747336 -0.00963529
v 0.00541956 -0.00744155 -0.00963529
v 0.00522599 -0.00742843 -0.00963529
v 0.00503206 -0.00743412 -0.00963529
v 0.00520578 -0.00297127 -0.00963528
v 0.00506198 -0.00368220 -0.00963528
v 0.00508447 -0.00522096 -0.00963528
v 0.00368734 0.00404431 -0.00963527
v 0.00438344 0.00319429 -0.00963527
v 0.00490489 0.00221730 -0.00963527
v 0.00525624 0.00122337 -0.00963527
v 0.00549296 -0.00002304 -0.00963528
v 0.00551602 -0.00126112 -0.00963528
v 0.00540372 -0.00215416 -0.00963528
v -0.00053712 0.00543067 -0.00963527
v 0.00103400 0.00528401 -0.00963527
v 0.00248000 0.00483502 -0.00963527
v 0.00312352 0.00448471 -0.00963527
v -0.00391256 -0.00404567 -0.00963528
v -0.00466153 -0.00276061 -0.00963528
v -0.00507138 -0.00133080 -0.00963528
v -0.00511692 0.00015589 -0.00963527
v -0.00479535 0.00160811 -0.00963527
v -0.00412644 0.00293660 -0.00963527
v -0.00315129 0.00405972 -0.00963527
v -0.00192983 0.00490847 -0.00963527
v 0.00180370 -0.00715962 -0.00963528
v -0.00031731 -0.00655477 -0.00963528
v -0.00225413 -0.00549967 -0.00963528
v 0.00394810 -0.00745977 -0.00963528
v 0.00286776 -0.00736791 -0.00963528
v -0.00157984 0.00168492 -0.00963527
v -0.00113407 0.00199395 -0.00963527
v -0.00062730 0.00218732 -0.00963527
v -0.00008897 0.00225379 -0.00963527
v 0.00044962 0.00218951 -0.00963527
v 0.00095718 0.00199820 -0.00963527
v 0.00140421 0.00169098 -0.00963527
v 0.00176472 0.00128571 -0.00963527
v 0.00201777 0.00080594 -0.00963527
v 0.00214864 0.00027954 -0.00963527
v 0.00214975 -0.00026287 -0.00963528
v 0.00202101 -0.00078979 -0.00963528
v 0.00176991 -0.00127058 -0.00963528
v 0.00141105 -0.00167731 -0.00963528
v 0.00096528 -0.00198635 -0.00963528
v 0.00045850 -0.00217972 -0.00963528
v -0.00007983 -0.00224620 -0.00963528
v -0.00061842 -0.00218191 -0.00963528
v -0.00112598 -0.00199060 -0.00963528
v -0.00157300 -0.00168338 -0.00963528
v -0.00193351 -0.00127810 -0.00963528
v -0.00218656 -0.00079833 -0.00963528
v -0.00231744 -0.00027195 -0.00963527
v -0.00231854 0.00027047 -0.00963527
v -0.00218980 0.00079739 -0.00963527
v -0.00193870 0.00127818 -0.00963527
v 0.00368734 0.00404430 -0.00253527
v 0.00293009 0.00460355 -0.00253527
v 0.00204734 0.00501005 -0.00253527
v 0.00108216 0.00527462 -0.00253527
v 0.00028500 0.00539043 -0.00253527
v -0.00053712 0.00543066 -0.00253527
v 0.00520578 -0.00297128 -0.00253528
v 0.00551782 -0.00123302 -0.00253528
v 0.00542436 0.00047464 -0.00253528
v 0.00495062 0.00210972 -0.00253527
v 0.00441596 0.00314376 -0.00253527
v 0.00561096 -0.00747337 -0.00253529
v 0.00508447 -0.00522097 -0.00253528
v 0.00506198 -0.00368221 -0.00253528
v 0.00503206 -0.00743413 -0.00253529
v 0.00522599 -0.00742844 -0.00253529
v 0.00541957 -0.00744156 -0.00253529
v 0.00180370 -0.00715963 -0.00253528
v 0.00286776 -0.00736792 -0.00253528
v 0.00394811 -0.00745978 -0.00253529
v -0.00391256 -0.00404568 -0.00253528
v -0.00225413 -0.00549968 -0.00253528
v -0.00031731 -0.00655478 -0.00253528
v -0.00313106 0.00407779 -0.00253527
v -0.00399101 0.00313019 -0.00253527
v -0.00463045 0.00202178 -0.00253527
v -0.00502031 0.00080299 -0.00253527
v -0.00514285 -0.00047076 -0.00253527
v -0.00499250 -0.00174153 -0.00253528
v -0.00457608 -0.00295152 -0.00253528
v -0.00147223 0.00512435 -0.00253527
v -0.00234470 0.00466931 -0.00253527
v 0.00141105 -0.00167732 -0.00253528
v 0.00096528 -0.00198636 -0.00253528
v 0.00045850 -0.00217973 -0.00253528
v -0.00007983 -0.00224620 -0.00253528
v -0.00061841 -0.00218192 -0.00253528
v -0.00112598 -0.00199061 -0.00253528
v -0.00157300 -0.00168338 -0.00253528
v -0.00193351 -0.00127811 -0.00253528
v -0.00218656 -0.00079834 -0.00253528
v -0.00231744 -0.00027195 -0.00253527
v -0.00231854 0.00027046 -0.00253527
v -0.00218980 0.00079738 -0.00253527
v -0.00193870 0.00127818 -0.00253527
v -0.00157984 0.00168491 -0.00253527
v -0.00113407 0.00199394 -0.00253527
v -0.00062730 0.00218731 -0.00253527
v -0.00008897 0.00225379 -0.00253527
v 0.00044963 0.00218950 -0.00253527
v 0.00095718 0.00199819 -0.00253527
v 0.00140421 0.00169097 -0.00253527
v 0.00176472 0.00128570 -0.00253527
v 0.00201777 0.00080593 -0.00253527
v 0.00214864 0.00027953 -0.00253528
v 0.00214975 -0.00026288 -0.00253528
v 0.00202101 -0.00078979 -0.00253528
v 0.00176991 -0.00127059 -0.00253528
v 0.00549295 -0.00153455 -0.00453528
v 0.00549295 -0.00153454 -0.00763528
v 0.00020126 0.00539799 -0.00453527
v 0.00020126 0.00539800 -0.00763527
v 0.00561096 -0.00747337 -0.00453529
v 0.00561096 -0.00747337 -0.00253529
v 0.00541957 -0.00744155 -0.00453529
v 0.00522599 -0.00742844 -0.00453529
v 0.00503206 -0.00743413 -0.00453529
v 0.00503206 -0.00743413 -0.00253529
v 0.00522599 -0.00742844 -0.00253529
v 0.00541957 -0.00744156 -0.00253529
v 0.00561096 -0.00747336 -0.00963529
v 0.00561096 -0.00747336 -0.00763529
v 0.00541956 -0.00744155 -0.00963529
v 0.00522599 -0.00742843 -0.00963529
v 0.00503206 -0.00743412 -0.00963529
v 0.00503206 -0.00743413 -0.00763529
v 0.00522599 -0.00742843 -0.00763529
v 0.00541956 -0.00744155 -0.00763529
v -0.00053712 0.00543067 -0.00963527
v -0.00053712 0.00543067 -0.00763527
v -0.00391256 -0.00404567 -0.00963528
v -0.00466153 -0.00276061 -0.00963528
v -0.00507138 -0.00133080 -0.00963528
v -0.00511692 0.00015589 -0.00963527
v -0.00479535 0.00160811 -0.00963527
v -0.00412644 0.00293660 -0.00963527
v -0.00315129 0.00405972 -0.00963527
v -0.00192983 0.00490847 -0.00963527
v -0.00391256 -0.00404567 -0.00763528
v -0.00192983 0.00490847 -0.00763527
v -0.00315129 0.00405972 -0.00763527
v -0.00412644 0.00293659 -0.00763527
v -0.00479535 0.00160810 -0.00763527
v -0.00511692 0.00015589 -0.00763527
v -0.00507138 -0.00133080 -0.00763528
v -0.00466153 -0.00276062 -0.00763528
v -0.00313106 0.00407779 -0.00253527
v -0.00313106 0.00407780 -0.00453527
v -0.00053712 0.00543066 -0.00253527
v -0.00147223 0.00512435 -0.00253527
v -0.00234470 0.00466931 -0.00253527
v -0.00053712 0.00543066 -0.00453527
v -0.00234470 0.00466931 -0.00453527
v -0.00147223 0.00512435 -0.00453527
v 0.00180370 -0.00715962 -0.00963528
v -0.00031731 -0.00655477 -0.00963528
v -0.00225413 -0.00549967 -0.00963528
v -0.00391256 -0.00404567 -0.00963528
v 0.00180370 -0.00715963 -0.00763528
v -0.00391256 -0.00404567 -0.00763528
v -0.00225413 -0.00549968 -0.00763528
v -0.00031731 -0.00655477 -0.00763528
v 0.00180370 -0.00715963 -0.00453528
v -0.00031731 -0.00655477 -0.00453528
v -0.00225413 -0.00549968 -0.00453528
v -0.00391256 -0.00404568 -0.00453528
v 0.00180370 -0.00715963 -0.00253528
v -0.00391256 -0.00404568 -0.00253528
v -0.00225413 -0.00549968 -0.00253528
v -0.00031731 -0.00655478 -0.00253528
v 0.00180370 -0.00715963 -0.00763528
v 0.00286776 -0.00736791 -0.00763528
v 0.00394811 -0.00745977 -0.00763529
v 0.00503206 -0.00743413 -0.00763529
v 0.00180370 -0.00715962 -0.00963528
v 0.00503206 -0.00743412 -0.00963529
v 0.00394810 -0.00745977 -0.00963528
v 0.00286776 -0.00736791 -0.00963528
v 0.00180370 -0.00715963 -0.00253528
v 0.00286776 -0.00736792 -0.00253528
v 0.00394811 -0.00745978 -0.00253529
v 0.00503206 -0.00743413 -0.00253529
v 0.00180370 -0.00715963 -0.00453528
v 0.00503206 -0.00743413 -0.00453529
v 0.00394811 -0.00745978 -0.00453528
v 0.00286776 -0.00736791 -0.00453528
f 11 8 7
f 11 10 8
f 12 7 6
f 12 11 7
f 13 6 5
f 13 12 6
f 14 5 4
f 14 13 5
f 15 4 3
f 15 14 4
f 16 3 2
f 16 15 3
f 9 2 1
f 9 16 2
f 31 44 32
f 30 43 44
f 30 44 31
f 29 42 43
f 29 43 30
f 28 41 42
f 28 42 29
f 27 40 41
f 27 41 28
f 26 39 40
f 26 40 27
f 25 38 39
f 25 39 26
f 24 37 38
f 24 38 25
f 23 37 24
f 22 36 37
f 22 37 23
f 21 34 35
f 21 35 36
f 21 36 22
f 20 33 34
f 20 34 21
f 19 17 33
f 19 33 20
f 18 17 19
f 47 61 60
f 48 61 47
f 49 62 61
f 49 61 48
f 50 63 62
f 50 62 49
f 51 64 63
f 51 63 50
f 52 65 64
f 52 64 51
f 53 66 65
f 53 67 66
f 53 65 52
f 54 67 53
f 55 68 67
f 55 67 54
f 56 69 68
f 56 68 55
f 57 70 69
f 57 69 56
f 58 71 70
f 58 70 57
f 59 72 71
f 59 71 58
f 46 45 72
f 46 72 59
f 106 77 78
f 105 78 79
f 105 106 78
f 107 77 106
f 104 79 80
f 104 105 79
f 108 76 77
f 108 77 107
f 103 104 80
f 109 75 76
f 109 76 108
f 102 80 81
f 102 103 80
f 110 74 75
f 110 75 109
f 101 81 82
f 101 102 81
f 111 73 74
f 111 74 110
f 100 101 82
f 112 73 111
f 95 73 112
f 99 100 82
f 83 99 82
f 113 95 112
f 98 99 83
f 114 95 113
f 115 95 114
f 116 95 115
f 84 98 83
f 84 97 98
f 92 96 97
f 92 97 84
f 91 96 92
f 91 120 121
f 91 121 96
f 93 84 85
f 93 85 86
f 93 92 84
f 87 93 86
f 94 120 91
f 94 116 117
f 94 117 118
f 94 118 119
f 94 119 120
f 88 93 87
f 89 93 88
f 90 93 89
f 94 95 116
f 143 122 123
f 143 123 124
f 143 124 125
f 143 142 145
f 143 145 146
f 143 146 122
f 144 143 125
f 163 126 127
f 164 163 127
f 162 125 126
f 162 126 163
f 165 127 128
f 165 164 127
f 161 144 125
f 161 125 162
f 166 128 129
f 166 165 128
f 160 141 144
f 160 144 161
f 167 129 130
f 167 166 129
f 159 141 160
f 168 167 130
f 131 168 130
f 158 140 141
f 158 141 159
f 169 168 131
f 157 140 158
f 170 169 131
f 156 140 157
f 132 170 131
f 171 170 132
f 155 140 156
f 154 140 155
f 133 171 132
f 133 172 171
f 134 172 133
f 134 147 172
f 135 147 134
f 135 148 147
f 136 149 148
f 136 148 135
f 137 150 149
f 137 149 136
f 138 150 137
f 139 151 150
f 139 152 151
f 139 153 152
f 139 154 153
f 139 150 138
f 139 140 154
f 174 187 173
f 174 188 187
f 175 189 188
f 175 188 174
f 176 190 189
f 176 189 175
f 177 191 190
f 177 190 176
f 178 192 191
f 178 191 177
f 179 193 192
f 179 192 178
f 180 194 193
f 180 193 179
f 181 195 194
f 181 194 180
f 182 196 195
f 182 195 181
f 183 197 196
f 183 196 182
f 184 198 197
f 184 197 183
f 185 199 198
f 185 198 184
f 186 200 199
f 186 199 185
f 214 228 215
f 213 227 228
f 213 228 214
f 212 226 227
f 212 227 213
f 211 225 226
f 211 226 212
f 210 224 225
f 210 225 211
f 209 223 224
f 209 224 210
f 208 222 223
f 208 223 209
f 207 221 222
f 207 222 208
f 206 220 221
f 206 221 207
f 205 219 220
f 205 220 206
f 204 218 219
f 204 219 205
f 203 217 218
f 203 218 204
f 202 216 217
f 202 217 203
f 201 216 202
f 283 250 251
f 282 249 250
f 282 250 283
f 284 283 251
f 281 248 249
f 281 249 282
f 285 251 252
f 285 284 251
f 280 248 281
f 260 252 253
f 260 285 252
f 279 247 248
f 279 248 280
f 261 253 254
f 261 260 253
f 278 257 247
f 278 247 279
f 262 254 243
f 262 261 254
f 277 257 278
f 263 262 243
f 276 257 277
f 256 257 276
f 275 256 276
f 244 263 243
f 244 264 263
f 265 264 244
f 245 265 244
f 255 256 275
f 255 275 274
f 246 265 245
f 246 266 265
f 236 266 246
f 237 267 266
f 237 266 236
f 238 267 237
f 238 268 267
f 239 269 268
f 239 268 238
f 234 255 274
f 234 274 273
f 233 273 272
f 233 234 273
f 235 258 259
f 235 259 255
f 235 255 234
f 232 258 235
f 240 269 239
f 240 270 269
f 242 272 271
f 242 233 272
f 241 271 270
f 241 242 271
f 241 270 240
f 231 232 235
f 230 231 235
f 229 230 235
f 298 300 301
f 298 301 302
f 298 302 297
f 298 303 304
f 298 304 305
f 298 305 300
f 299 303 298
f 321 307 308
f 322 307 321
f 320 308 303
f 320 321 308
f 323 306 307
f 323 307 322
f 319 320 303
f 319 303 299
f 324 315 306
f 324 306 323
f 318 299 292
f 318 319 299
f 325 314 315
f 325 315 324
f 343 318 292
f 326 314 325
f 313 314 326
f 342 292 293
f 342 343 292
f 327 313 326
f 341 342 293
f 328 313 327
f 312 313 328
f 329 312 328
f 294 341 293
f 294 340 341
f 311 312 329
f 311 329 330
f 295 340 294
f 295 338 339
f 295 339 340
f 310 311 330
f 310 330 331
f 296 337 338
f 296 338 295
f 309 331 332
f 309 310 331
f 286 337 296
f 317 309 332
f 317 332 333
f 287 336 337
f 287 337 286
f 316 317 333
f 316 333 334
f 288 335 336
f 288 336 287
f 289 335 288
f 291 316 334
f 290 334 335
f 290 291 334
f 290 335 289
f 346 345 344
f 347 345 346
f 355 348 349
f 355 350 348
f 354 351 350
f 354 350 355
f 353 352 351
f 353 351 354
f 363 356 357
f 363 358 356
f 362 359 358
f 362 358 363
f 361 360 359
f 361 359 362
f 365 364 373
f 375 373 372
f 375 365 373
f 376 372 371
f 376 375 372
f 377 371 370
f 377 376 371
f 378 370 369
f 378 377 370
f 379 369 368
f 379 378 369
f 380 368 367
f 380 379 368
f 381 367 366
f 381 380 367
f 374 381 366
f 388 383 382
f 388 382 386
f 389 385 384
f 389 386 385
f 389 388 386
f 387 389 384
f 396 393 392
f 396 395 393
f 397 392 391
f 397 396 392
f 394 391 390
f 394 397 391
f 398 402 405
f 399 405 404
f 399 398 405
f 400 404 403
f 400 399 404
f 401 400 403
f 406 410 413
f 407 413 412
f 407 406 413
f 408 412 411
f 408 407 412
f 409 408 411
f 414 418 421
f 415 414 421
f 416 421 420
f 416 415 421
f 417 420 419
f 417 416 420

