# https://github.com/mikedh/trimesh
v 0.00173631 0.00805849 -0.00501069
v 0.00178662 0.00790258 -0.00372034
v 0.00191931 0.00750809 -0.00248801
v 0.00173631 0.00805849 -0.00920170
v 0.00191931 0.00750809 -0.01172438
v 0.00182467 0.00778706 -0.01096719
v 0.00176751 0.00796133 -0.01015760
v 0.00400140 0.00293044 -0.01520606
v 0.00310062 0.00465607 -0.01457563
v 0.00249740 0.00599714 -0.01369087
v 0.00214445 0.00688491 -0.01276036
v 0.00201890 0.00722588 -0.01225936
v 0.00330567 0.00423826 -0.01520620
v 0.00282164 0.00525331 -0.01473332
v 0.00240857 0.00621197 -0.01409734
v 0.00201198 0.00724521 -0.01308290
v 0.00176998 0.00795372 -0.01195321
v 0.00164709 0.00834479 -0.01081136
v 0.00160844 0.00847305 -0.01006971
v 0.00158803 0.00854210 -0.00931928
v 0.00158803 0.00854210 -0.00489311
v 0.00167378 0.00825774 -0.00306643
v 0.00182228 0.00779426 -0.00194608
v 0.00206959 0.00708642 -0.00094044
v 0.00222788 0.00666638 -0.00050549
v 0.00240857 0.00621197 -0.00011505
v 0.00282173 0.00525321 0.00052170
v 0.00330567 0.00423826 0.00099380
v 0.00400141 0.00293043 0.00099378
v 0.00209912 0.00700626 -0.00161677
v 0.00234862 0.00636002 -0.00085473
v 0.00266270 0.00561054 -0.00021852
v 0.00303300 0.00479762 0.00028956
v 0.00349485 0.00386684 0.00070824
v 0.02025800 0.00527251 -0.01430258
v 0.01567252 0.00128913 -0.01414793
v 0.01261384 -0.00114414 -0.01446915
v 0.00972429 -0.00329019 -0.01520620
v 0.01935304 0.00565658 -0.01432577
v 0.01801609 0.00637672 -0.01434521
v 0.01699493 0.00729116 -0.01437425
v 0.01636552 0.00817401 -0.01439620
v 0.01592046 0.00917995 -0.01438255
v 0.00558867 0.00350775 -0.01520620
v 0.00890963 0.00525384 -0.01457454
v 0.01247334 0.00721635 -0.01433435
v 0.00691068 0.00263014 -0.01520620
v 0.00800353 0.00147003 -0.01520620
v 0.00883942 0.00011745 -0.01520620
v 0.00941564 -0.00137106 -0.01520620
v 0.00962338 -0.00231870 -0.01520620
v 0.01102395 0.00231164 -0.01461374
v 0.01275315 0.00347036 -0.01439495
v 0.01448493 0.00466326 -0.01430030
v 0.01357989 0.00614297 -0.01435232
v 0.00558867 0.00350775 -0.01520620
v 0.00890963 0.00525384 -0.01457454
v 0.01247334 0.00721635 -0.01433435
v 0.01592046 0.00917995 -0.01438255
v 0.01565740 0.01037574 -0.01424877
v 0.01554316 0.01108475 -0.01406805
v 0.01537627 0.01150441 -0.01387987
v 0.01509772 0.01189633 -0.01359817
v 0.01481839 0.01216221 -0.01330693
v 0.01453828 0.01237713 -0.01297652
v 0.01406622 0.01271042 -0.01220505
v 0.01373515 0.01293169 -0.01132376
v 0.01352670 0.01306619 -0.01033379
v 0.01341959 0.01313348 -0.00931928
v 0.00158803 0.00854210 -0.00931928
v 0.00240857 0.00621197 -0.01409734
v 0.00201198 0.00724521 -0.01308290
v 0.00176998 0.00795372 -0.01195321
v 0.00164709 0.00834479 -0.01081136
v 0.00160844 0.00847305 -0.01006971
v 0.00295623 0.00552912 -0.01458095
v 0.00355033 0.00479912 -0.01494975
v 0.00415981 0.00405742 -0.01520620
v 0.00553934 0.00558388 -0.01458852
v 0.00425440 0.00618810 -0.01427909
v 0.00521644 0.00619730 -0.01433237
v 0.00386796 0.00692819 -0.01378157
v 0.00488062 0.00674692 -0.01403074
v 0.00728364 0.00672677 -0.01424189
v 0.00650761 0.00746856 -0.01385457
v 0.00456324 0.00795193 -0.01312263
v 0.00616121 0.00790234 -0.01354755
v 0.01407080 0.01045506 -0.01396629
v 0.01287934 0.01074369 -0.01356227
v 0.01329668 0.01050615 -0.01378226
v 0.01327288 0.01151052 -0.01319071
v 0.01489272 0.01150085 -0.01374896
v 0.01460074 0.01169908 -0.01354938
v 0.01459364 0.01199106 -0.01334766
v 0.00293956 0.00827479 -0.01207887
v 0.00284242 0.00842367 -0.01174353
v 0.00940944 0.00798629 -0.01401569
v 0.00885689 0.00991650 -0.01280334
v 0.00475111 0.00888963 -0.01211388
v 0.01048078 0.00862107 -0.01394680
v 0.00494040 0.00926670 -0.01156690
v 0.00485869 0.00937833 -0.01123386
v 0.01146175 0.00927940 -0.01387789
v 0.00795778 0.01075971 -0.01060462
v 0.01187869 0.01170157 -0.01224791
v 0.01129446 0.01175077 -0.01168945
v 0.01113357 0.01185020 -0.01126353
v 0.01198876 0.01229257 -0.01096986
v 0.01317501 0.01243360 -0.01196468
v 0.01336069 0.01260882 -0.01176011
v 0.01039084 -0.00439110 -0.01499906
v 0.00972720 -0.00335095 -0.01520620
v 0.01727710 -0.00745054 -0.00983061
v 0.01704180 -0.00738185 -0.01114656
v 0.01676040 -0.00729758 -0.01175149
v 0.01631464 -0.00715905 -0.01231540
v 0.01575630 -0.00697597 -0.01278922
v 0.01458465 -0.00655184 -0.01346831
v 0.01305410 -0.00589829 -0.01410367
v 0.02336408 -0.00151488 -0.00983061
v 0.02334011 -0.00141611 -0.01047435
v 0.02328594 -0.00119846 -0.01108636
v 0.02319830 -0.00086124 -0.01163953
v 0.02308058 -0.00043386 -0.01212155
v 0.02288499 0.00022257 -0.01265758
v 0.02251942 0.00131139 -0.01327875
v 0.02200086 0.00263815 -0.01378496
v 0.02138690 0.00398439 -0.01411472
v 0.02110812 0.00448735 -0.01420193
v 0.02073503 0.00492911 -0.01426518
v 0.02025800 0.00527251 -0.01430258
v 0.01567252 0.00128913 -0.01414793
v 0.01261384 -0.00114414 -0.01446915
v 0.00972429 -0.00329019 -0.01520620
v 0.01591544 -0.00465401 -0.01344784
v 0.01345316 -0.00379506 -0.01419655
v 0.01553040 -0.00305088 -0.01381043
v 0.01591069 -0.00334193 -0.01368589
v 0.01485212 -0.00263229 -0.01399266
v 0.01956232 -0.00221571 -0.01297451
v 0.02005548 -0.00250764 -0.01266129
v 0.01933613 0.00248635 -0.01403086
v 0.01923573 -0.00522279 -0.01104750
v 0.02246330 -0.00208438 -0.01092222
v 0.02063071 -0.00291782 -0.01209614
v 0.02239157 -0.00194061 -0.01129443
v 0.01559562 -0.00094519 -0.01401847
v 0.01756805 -0.00044550 -0.01381011
v 0.01734066 -0.00596255 -0.01236255
v 0.01783256 -0.00537906 -0.01239152
v 0.01844733 -0.00434545 -0.01258526
v 0.01952207 -0.00404031 -0.01210415
v 0.01971253 -0.00355548 -0.01229556
v 0.02028550 -0.00272249 -0.01243832
v 0.02250051 -0.00066702 -0.01235162
v 0.00973963 -0.00392729 -0.01520620
v 0.00853335 -0.00293695 -0.01520619
v 0.00919825 -0.00350556 -0.01501716
v 0.01114113 -0.00487360 -0.01437881
v 0.01668370 -0.00727422 -0.01003814
v 0.01648594 -0.00721305 -0.01098245
v 0.01619317 -0.00712016 -0.01159297
v 0.01574791 -0.00697313 -0.01213983
v 0.01521705 -0.00678795 -0.01258244
v 0.01320929 -0.00597050 -0.01362304
v 0.01672069 -0.00728550 -0.00968586
v 0.01684246 -0.00732263 -0.00710620
v 0.01672069 -0.00728550 -0.00452654
v 0.01114113 -0.00487360 0.00016641
v 0.01346704 -0.00608728 -0.00069645
v 0.01449724 -0.00651778 -0.00118587
v 0.01531310 -0.00682230 -0.00170063
v 0.01598069 -0.00705090 -0.00232713
v 0.01634996 -0.00717027 -0.00289942
v 0.01649892 -0.00721710 -0.00326894
v 0.01660649 -0.00725048 -0.00368040
v 0.00919825 -0.00350556 0.00080476
v 0.00853335 -0.00293696 0.00099379
v 0.00973963 -0.00392729 0.00099380
v 0.00998106 -0.00410450 0.00091744
v 0.01002456 -0.00413575 0.00089444
v 0.01002456 -0.00413575 0.00090361
v 0.01039084 -0.00439111 0.00078667
v 0.01313314 -0.00593525 -0.00013802
v 0.01540205 -0.00685376 -0.00118686
v 0.01625513 -0.00714006 -0.00183795
v 0.01672678 -0.00728736 -0.00240751
v 0.01703017 -0.00737841 -0.00303194
v 0.01719374 -0.00742642 -0.00369677
v 0.01727710 -0.00745054 -0.00438179
v 0.01740656 -0.00748791 -0.00710619
v 0.01727710 -0.00745054 -0.00983061
v 0.01704180 -0.00738185 -0.01114656
v 0.01676040 -0.00729758 -0.01175149
v 0.01631464 -0.00715905 -0.01231540
v 0.01575630 -0.00697597 -0.01278922
v 0.01458465 -0.00655184 -0.01346831
v 0.01305410 -0.00589829 -0.01410367
v 0.01039084 -0.00439110 -0.01499906
v 0.01002456 -0.00413575 -0.01511601
v 0.01002456 -0.00413575 -0.01510684
v 0.00998106 -0.00410450 -0.01512983
v 0.01565740 0.01037574 -0.01424877
v 0.01554316 0.01108475 -0.01406805
v 0.01537627 0.01150441 -0.01387987
v 0.01509772 0.01189633 -0.01359817
v 0.01481839 0.01216221 -0.01330693
v 0.01453828 0.01237713 -0.01297652
v 0.01565740 0.01037574 -0.01380598
v 0.01453826 0.01237715 -0.01199574
v 0.01496338 0.01203399 -0.01273818
v 0.01529129 0.01164672 -0.01319876
v 0.01548321 0.01126973 -0.01347067
v 0.01559270 0.01086451 -0.01365817
v 0.01453827 0.01237714 -0.00123589
v 0.01453826 0.01237715 -0.00221665
v 0.01565740 0.01037574 -0.00040638
v 0.01555862 0.01102536 -0.00061883
v 0.01541029 0.01143833 -0.00084844
v 0.01518939 0.01178793 -0.00115350
v 0.01493803 0.01205765 -0.00151371
v 0.01472591 0.01223685 -0.00185633
v 0.01565740 0.01037574 0.00003637
v 0.01506815 0.01192877 -0.00064415
v 0.01530879 0.01161961 -0.00040183
v 0.01548924 0.01125340 -0.00020977
v 0.01559893 0.01082569 -0.00006386
v 0.01453828 0.01237713 -0.01297652
v 0.01406622 0.01271042 -0.01220505
v 0.01373515 0.01293169 -0.01132376
v 0.01352670 0.01306619 -0.01033379
v 0.01341959 0.01313348 -0.00931928
v 0.01341959 0.01313348 -0.00489311
v 0.01366546 0.01297705 -0.00315328
v 0.01403231 0.01273353 -0.00207931
v 0.01426355 0.01257372 -0.00164004
v 0.01453827 0.01237714 -0.00123589
v 0.01453826 0.01237715 -0.00221665
v 0.01422754 0.01259892 -0.00307687
v 0.01404328 0.01272608 -0.00398610
v 0.01393828 0.01279711 -0.00501069
v 0.01393828 0.01279711 -0.00920170
v 0.01411456 0.01267725 -0.01065101
v 0.01429592 0.01255096 -0.01136881
v 0.01453826 0.01237715 -0.01199574
v 0.01565740 0.01037574 -0.01380598
v 0.01578479 0.00966128 -0.01393919
v 0.01600063 0.00895222 -0.01400442
v 0.01659046 0.00781338 -0.01401526
v 0.01745721 0.00682271 -0.01398835
v 0.01833977 0.00616335 -0.01397083
v 0.01935304 0.00565658 -0.01395835
v 0.01935304 0.00565658 -0.01432577
v 0.01801609 0.00637672 -0.01434521
v 0.01699493 0.00729116 -0.01437425
v 0.01636552 0.00817401 -0.01439620
v 0.01592046 0.00917995 -0.01438255
v 0.01565740 0.01037574 -0.01424877
v 0.01935303 0.00565657 0.00011337
v 0.01935304 0.00565657 -0.00025404
v 0.01808080 0.00633172 -0.00023746
v 0.01708614 0.00718972 -0.00021314
v 0.01645096 0.00802930 -0.00019364
v 0.01600063 0.00895222 -0.00020797
v 0.01578467 0.00966180 -0.00027327
v 0.01565740 0.01037574 -0.00040638
v 0.01565740 0.01037574 0.00003637
v 0.01592046 0.00917995 0.00017016
v 0.01643226 0.00806007 0.00018196
v 0.01718629 0.00708383 0.00015512
v 0.01813430 0.00629544 0.00013049
v 0.01872586 0.00594365 0.00012122
v 0.02138690 0.00398439 -0.01411472
v 0.02138690 0.00398439 -0.01372083
v 0.02219691 0.00216101 -0.01316639
v 0.02270910 0.00076594 -0.01243189
v 0.02292230 0.00010197 -0.01190112
v 0.02308592 -0.00045260 -0.01124153
v 0.02317104 -0.00075979 -0.01063076
v 0.02320520 -0.00088716 -0.01017251
v 0.02322247 -0.00095253 -0.00968586
v 0.02322247 -0.00095253 -0.00452654
v 0.02325407 -0.00107267 -0.00710620
v 0.02318188 -0.00079996 -0.00369906
v 0.02310712 -0.00052781 -0.00309218
v 0.02300250 -0.00016439 -0.00258990
v 0.02286744 0.00027864 -0.00215144
v 0.02265014 0.00093965 -0.00166701
v 0.02244007 0.00152886 -0.00133427
v 0.02219691 0.00216100 -0.00104600
v 0.02138690 0.00398438 -0.00049156
v 0.02138690 0.00398438 -0.00009767
v 0.02237805 0.00169464 -0.00076415
v 0.02292196 0.00010306 -0.00164027
v 0.02313164 -0.00061597 -0.00227777
v 0.02324875 -0.00105319 -0.00285729
v 0.02332465 -0.00135320 -0.00351403
v 0.02335046 -0.00145858 -0.00394089
v 0.02336408 -0.00151488 -0.00438179
v 0.02336408 -0.00151488 -0.00983061
v 0.02339492 -0.00164297 -0.00710620
v 0.02334011 -0.00141611 -0.01047435
v 0.02328594 -0.00119846 -0.01108636
v 0.02319830 -0.00086124 -0.01163953
v 0.02308058 -0.00043386 -0.01212155
v 0.02288499 0.00022257 -0.01265758
v 0.02251942 0.00131139 -0.01327875
v 0.02200086 0.00263815 -0.01378496
v 0.01935304 0.00565658 -0.01395835
v 0.02013428 0.00533775 -0.01393870
v 0.01935304 0.00565658 -0.01432577
v 0.02025800 0.00527251 -0.01430258
v 0.02138690 0.00398439 -0.01411472
v 0.02110812 0.00448735 -0.01420193
v 0.02073503 0.00492911 -0.01426518
v 0.02138690 0.00398439 -0.01372083
v 0.02061655 0.00503173 -0.01390418
v 0.02100530 0.00463150 -0.01384360
v 0.02120941 0.00432348 -0.01378881
v 0.01935303 0.00565657 0.00011337
v 0.01935304 0.00565657 -0.00025404
v 0.02013428 0.00533774 -0.00027370
v 0.02138690 0.00398438 -0.00049156
v 0.02107906 0.00453016 -0.00038748
v 0.02070523 0.00495624 -0.00032070
v 0.02043160 0.00516700 -0.00029244
v 0.02138690 0.00398438 -0.00009767
v 0.02025800 0.00527250 0.00009018
v 0.02073097 0.00493239 0.00005314
v 0.02110669 0.00448951 -0.00001013
v 0.00972720 -0.00335095 0.00099380
v 0.00973963 -0.00392729 0.00099380
v 0.01039084 -0.00439111 0.00078667
v 0.01002456 -0.00413575 0.00090361
v 0.00999143 -0.00410445 0.00091419
v 0.00998106 -0.00410450 0.00091744
v 0.02336408 -0.00151488 -0.00438179
v 0.01727710 -0.00745054 -0.00438179
v 0.01740656 -0.00748791 -0.00710619
v 0.01727710 -0.00745054 -0.00983061
v 0.02336408 -0.00151488 -0.00983061
v 0.02339492 -0.00164297 -0.00710620
v 0.02141161 -0.00348159 -0.00574400
v 0.02268335 -0.00229359 -0.00778730
v 0.02058379 -0.00426629 -0.00880895
v 0.02025800 0.00527250 0.00009018
v 0.02073097 0.00493239 0.00005314
v 0.02110669 0.00448951 -0.00001013
v 0.02138690 0.00398438 -0.00009767
v 0.02237805 0.00169464 -0.00076415
v 0.02292196 0.00010306 -0.00164027
v 0.02313164 -0.00061597 -0.00227777
v 0.02324875 -0.00105319 -0.00285729
v 0.02332465 -0.00135320 -0.00351403
v 0.02335046 -0.00145858 -0.00394089
v 0.02336408 -0.00151488 -0.00438179
v 0.01727710 -0.00745054 -0.00438179
v 0.01039084 -0.00439111 0.00078667
v 0.01313314 -0.00593525 -0.00013802
v 0.01540205 -0.00685376 -0.00118686
v 0.01625513 -0.00714006 -0.00183795
v 0.01672678 -0.00728736 -0.00240751
v 0.01703017 -0.00737841 -0.00303194
v 0.01719374 -0.00742642 -0.00369677
v 0.00972720 -0.00335095 0.00099380
v 0.00972429 -0.00329019 0.00099380
v 0.01321376 -0.00068070 0.00015805
v 0.01690401 0.00231836 -0.00008297
v 0.01420051 -0.00384822 -0.00019666
v 0.01610873 -0.00423387 -0.00073409
v 0.01298351 -0.00317335 0.00012993
v 0.01587142 -0.00242758 -0.00039132
v 0.01641537 -0.00282728 -0.00055795
v 0.02015577 0.00253491 -0.00023251
v 0.01924436 -0.00521953 -0.00317726
v 0.02246803 -0.00208517 -0.00330181
v 0.02064999 -0.00292712 -0.00213739
v 0.02241909 -0.00199186 -0.00303829
v 0.01645233 -0.00019273 -0.00023448
v 0.01830813 -0.00012013 -0.00045486
v 0.01988752 -0.00239966 -0.00143111
v 0.01739856 -0.00583759 -0.00181227
v 0.01794580 -0.00520497 -0.00179131
v 0.01966899 -0.00405568 -0.00223600
v 0.02013635 -0.00263453 -0.00165003
v 0.01863039 -0.00425973 -0.00168102
v 0.02182532 -0.00116460 -0.00175962
v 0.02244761 -0.00062761 -0.00180354
v 0.02104883 0.00043510 -0.00082100
v 0.01592046 0.00917995 0.00017016
v 0.01643226 0.00806007 0.00018196
v 0.01718629 0.00708383 0.00015512
v 0.01813430 0.00629544 0.00013049
v 0.01872586 0.00594365 0.00012122
v 0.01935303 0.00565657 0.00011337
v 0.02025800 0.00527250 0.00009018
v 0.00972429 -0.00329019 0.00099380
v 0.01321376 -0.00068070 0.00015805
v 0.01690401 0.00231836 -0.00008297
v 0.00558868 0.00350775 0.00099380
v 0.00691068 0.00263013 0.00099380
v 0.00800354 0.00147002 0.00099380
v 0.00883943 0.00011744 0.00099380
v 0.00941564 -0.00137107 0.00099380
v 0.00962338 -0.00231871 0.00099380
v 0.00890963 0.00525383 0.00036215
v 0.01247334 0.00721635 0.00012196
v 0.01136540 0.00253767 0.00034691
v 0.01307587 0.00369033 0.00015632
v 0.01518605 0.00515436 0.00007891
v 0.01394072 0.00637597 0.00013411
v 0.00158803 0.00854210 -0.00931928
v 0.00158803 0.00854210 -0.00489311
v 0.01341959 0.01313348 -0.00931928
v 0.01341959 0.01313348 -0.00489311
v 0.00240857 0.00621197 -0.00011505
v 0.00295623 0.00552912 0.00036856
v 0.00355034 0.00479912 0.00073736
v 0.00415981 0.00405741 0.00099380
v 0.00330567 0.00423826 0.00099380
v 0.00282173 0.00525321 0.00052170
v 0.00158803 0.00854210 -0.00489311
v 0.00167378 0.00825774 -0.00306643
v 0.00182228 0.00779426 -0.00194608
v 0.00206959 0.00708642 -0.00094044
v 0.00222788 0.00666638 -0.00050549
v 0.00240857 0.00621197 -0.00011505
v 0.01341959 0.01313348 -0.00489311
v 0.01366546 0.01297705 -0.00315328
v 0.01403231 0.01273353 -0.00207931
v 0.01426355 0.01257372 -0.00164004
v 0.01453827 0.01237714 -0.00123589
v 0.01506815 0.01192877 -0.00064415
v 0.01530879 0.01161961 -0.00040183
v 0.01548924 0.01125340 -0.00020977
v 0.01559893 0.01082569 -0.00006386
v 0.01565740 0.01037574 0.00003637
v 0.01592046 0.00917995 0.00017016
v 0.00558868 0.00350775 0.00099380
v 0.00890963 0.00525383 0.00036215
v 0.01247334 0.00721635 0.00012196
v 0.00415981 0.00405741 0.00099380
v 0.00295623 0.00552912 0.00036856
v 0.00355034 0.00479912 0.00073736
v 0.00540940 0.00583781 0.00027858
v 0.00527373 0.00609345 0.00016850
v 0.00395367 0.00677494 -0.00031339
v 0.00497345 0.00660529 -0.00009577
v 0.00735377 0.00663284 0.00006457
v 0.00660179 0.00733515 -0.00027939
v 0.00466271 0.00780223 -0.00093313
v 0.00626310 0.00778286 -0.00057121
v 0.01404846 0.01062659 -0.00030855
v 0.01326040 0.01052813 -0.00044786
v 0.01276480 0.01080483 -0.00071773
v 0.01318764 0.01155607 -0.00109476
v 0.01476923 0.01178900 -0.00066088
v 0.01456711 0.01190027 -0.00080827
v 0.00301279 0.00814174 -0.00188572
v 0.00239671 0.00842557 -0.00282617
v 0.00276739 0.00850813 -0.00270946
v 0.00943427 0.00795194 -0.00018287
v 0.00885476 0.00990238 -0.00139652
v 0.00468297 0.00895315 -0.00223913
v 0.01048222 0.00861204 -0.00026245
v 0.00485445 0.00937345 -0.00296991
v 0.01145078 0.00928253 -0.00033747
v 0.00795451 0.01075711 -0.00360198
v 0.01171177 0.01179529 -0.00224962
v 0.01113040 0.01184610 -0.00294061
v 0.01297545 0.01254689 -0.00272148
v 0.01321120 0.01269624 -0.00286135
f 9 13 8
f 14 13 9
f 10 15 14
f 10 14 9
f 16 10 11
f 16 15 10
f 12 16 11
f 17 12 5
f 17 16 12
f 6 17 5
f 18 17 6
f 7 18 6
f 19 18 7
f 4 19 7
f 20 19 4
f 21 4 1
f 21 20 4
f 2 21 1
f 28 33 34
f 28 34 29
f 22 2 3
f 22 21 2
f 27 32 33
f 27 33 28
f 23 3 30
f 23 22 3
f 26 31 32
f 26 32 27
f 25 31 26
f 24 30 31
f 24 31 25
f 24 23 30
f 37 51 50
f 37 38 51
f 49 37 50
f 45 47 44
f 39 35 36
f 40 39 36
f 43 42 46
f 52 48 47
f 52 49 48
f 52 37 49
f 52 47 45
f 53 36 37
f 53 37 52
f 53 52 45
f 54 41 40
f 54 36 53
f 54 40 36
f 55 42 41
f 55 45 46
f 55 53 45
f 55 41 54
f 55 54 53
f 55 46 42
f 79 57 56
f 79 78 77
f 79 56 78
f 80 76 71
f 80 77 76
f 80 79 77
f 81 79 80
f 82 71 72
f 82 80 71
f 83 81 80
f 83 80 82
f 84 79 81
f 84 57 79
f 85 84 81
f 85 81 83
f 86 83 82
f 87 85 83
f 87 83 86
f 88 60 59
f 88 61 60
f 89 88 90
f 91 88 89
f 92 62 61
f 92 63 62
f 92 61 88
f 92 88 91
f 93 63 92
f 93 92 91
f 94 64 63
f 94 65 64
f 94 63 93
f 94 93 91
f 95 72 73
f 95 82 72
f 95 86 82
f 96 73 74
f 96 74 75
f 96 95 73
f 97 58 57
f 97 87 98
f 97 57 84
f 97 85 87
f 97 84 85
f 99 87 86
f 99 98 87
f 99 86 95
f 99 95 96
f 100 58 97
f 100 97 98
f 101 98 99
f 102 99 96
f 102 75 70
f 102 96 75
f 102 101 99
f 103 58 100
f 103 59 58
f 103 100 98
f 103 88 59
f 103 90 88
f 103 98 89
f 103 89 90
f 104 70 69
f 104 101 102
f 104 102 70
f 104 98 101
f 105 89 98
f 105 91 89
f 106 98 104
f 106 105 98
f 107 106 104
f 108 104 69
f 108 69 68
f 108 107 104
f 108 105 106
f 108 106 107
f 109 66 65
f 109 91 105
f 109 105 108
f 109 65 94
f 109 94 91
f 110 67 66
f 110 68 67
f 110 108 68
f 110 66 109
f 110 109 108
f 134 111 112
f 133 111 134
f 135 117 118
f 136 118 119
f 136 119 111
f 136 111 133
f 136 135 118
f 137 135 136
f 137 138 135
f 139 136 133
f 139 137 136
f 140 127 141
f 142 128 127
f 142 129 128
f 142 130 129
f 142 131 130
f 142 132 131
f 142 127 140
f 143 113 114
f 143 114 115
f 144 120 113
f 144 121 120
f 144 122 121
f 144 113 143
f 144 143 145
f 146 123 122
f 146 122 144
f 146 144 145
f 147 133 132
f 147 137 139
f 147 139 133
f 147 138 137
f 148 132 142
f 148 138 147
f 148 142 140
f 148 147 132
f 149 115 116
f 149 116 117
f 149 117 135
f 149 143 115
f 150 149 135
f 150 143 149
f 151 135 138
f 151 138 148
f 151 148 140
f 151 150 135
f 152 145 143
f 152 143 150
f 152 150 151
f 153 152 151
f 153 140 141
f 153 154 145
f 153 141 154
f 153 145 152
f 153 151 140
f 155 124 123
f 155 125 124
f 155 126 125
f 155 127 126
f 155 141 127
f 155 145 154
f 155 123 146
f 155 154 141
f 155 146 145
f 163 196 195
f 164 197 196
f 164 196 163
f 162 195 194
f 162 163 195
f 161 194 193
f 161 162 194
f 165 198 197
f 165 197 164
f 160 193 192
f 160 161 193
f 166 160 192
f 159 198 165
f 199 198 159
f 201 200 199
f 201 199 159
f 191 166 192
f 167 166 191
f 158 202 201
f 158 156 202
f 158 201 159
f 157 156 158
f 168 191 190
f 168 167 191
f 189 168 190
f 176 168 189
f 188 176 189
f 175 176 188
f 174 175 188
f 187 174 188
f 173 174 187
f 186 173 187
f 172 173 186
f 185 172 186
f 171 172 185
f 184 170 171
f 184 171 185
f 169 170 184
f 183 169 184
f 181 169 183
f 182 181 183
f 177 180 179
f 177 181 180
f 177 169 181
f 178 177 179
f 204 209 203
f 214 209 204
f 213 204 205
f 213 214 204
f 212 205 206
f 212 213 205
f 207 212 206
f 211 212 207
f 208 211 207
f 210 211 208
f 227 217 218
f 227 223 217
f 226 218 219
f 226 227 218
f 225 226 219
f 224 219 220
f 224 225 219
f 215 220 221
f 215 221 222
f 215 222 216
f 215 224 220
f 229 245 228
f 244 245 229
f 230 244 229
f 243 244 230
f 231 243 230
f 242 243 231
f 232 242 231
f 241 242 232
f 233 241 232
f 240 241 233
f 234 239 240
f 234 240 233
f 235 238 239
f 235 239 234
f 236 238 235
f 237 238 236
f 251 252 253
f 254 251 253
f 250 251 254
f 255 250 254
f 249 250 255
f 256 249 255
f 248 256 257
f 248 249 256
f 247 248 257
f 258 247 257
f 246 247 258
f 272 259 260
f 261 272 260
f 271 272 261
f 270 261 262
f 270 271 261
f 269 262 263
f 269 270 262
f 264 269 263
f 268 269 264
f 265 268 264
f 267 265 266
f 267 268 265
f 277 305 306
f 278 303 304
f 278 304 305
f 278 305 277
f 276 306 307
f 276 277 306
f 279 302 303
f 279 303 278
f 280 300 302
f 280 302 279
f 275 307 308
f 275 276 307
f 281 300 280
f 274 308 273
f 274 275 308
f 301 300 281
f 283 301 281
f 282 299 301
f 282 301 283
f 298 299 282
f 284 297 298
f 284 298 282
f 296 297 284
f 285 296 284
f 295 296 285
f 286 295 285
f 287 295 286
f 294 295 287
f 288 294 287
f 293 294 288
f 293 288 289
f 290 293 289
f 292 290 291
f 292 293 290
f 319 313 314
f 319 316 313
f 318 314 315
f 318 319 314
f 317 318 315
f 312 317 315
f 310 317 312
f 311 310 312
f 309 310 311
f 324 327 323
f 330 327 324
f 329 324 325
f 329 330 324
f 326 329 325
f 328 326 322
f 328 329 326
f 320 322 321
f 320 328 322
f 332 336 335
f 331 332 335
f 331 334 333
f 331 335 334
f 343 337 338
f 343 338 339
f 344 341 342
f 344 342 337
f 344 337 343
f 345 339 340
f 345 340 341
f 345 341 344
f 345 343 339
f 345 344 343
f 369 359 360
f 369 360 370
f 371 358 359
f 371 365 358
f 371 366 365
f 371 367 366
f 371 359 369
f 372 367 371
f 372 371 369
f 372 369 370
f 372 370 373
f 374 347 346
f 374 348 347
f 374 349 348
f 374 346 368
f 375 362 363
f 375 363 364
f 375 364 357
f 376 355 354
f 376 356 355
f 376 357 356
f 376 377 375
f 376 375 357
f 378 354 353
f 378 376 354
f 378 377 376
f 379 368 367
f 379 367 372
f 379 372 373
f 380 374 368
f 380 373 381
f 380 368 379
f 380 379 373
f 382 360 361
f 382 361 362
f 382 362 375
f 382 370 360
f 383 382 375
f 383 370 382
f 384 375 377
f 384 377 385
f 384 383 375
f 386 373 370
f 386 381 373
f 386 385 381
f 386 370 383
f 386 384 385
f 386 383 384
f 387 385 377
f 387 381 385
f 387 377 378
f 388 351 350
f 388 352 351
f 388 353 352
f 388 378 353
f 388 387 378
f 389 387 388
f 389 350 349
f 389 374 380
f 389 349 374
f 389 388 350
f 389 380 381
f 389 381 387
f 398 403 404
f 398 404 405
f 398 405 397
f 406 400 401
f 395 399 396
f 394 399 395
f 393 399 394
f 390 407 391
f 408 401 402
f 408 402 403
f 408 403 398
f 408 406 401
f 409 398 399
f 409 406 408
f 409 408 398
f 410 393 392
f 410 409 399
f 410 399 393
f 411 392 391
f 411 407 406
f 411 410 392
f 411 409 410
f 411 406 409
f 411 391 407
f 413 415 414
f 412 413 414
f 418 420 419
f 421 420 418
f 417 421 418
f 416 421 417
f 445 439 440
f 445 442 439
f 445 443 444
f 445 444 442
f 446 443 445
f 447 425 426
f 447 426 427
f 447 427 443
f 447 443 446
f 448 447 446
f 449 446 445
f 449 445 440
f 450 446 449
f 450 448 446
f 451 447 448
f 452 451 448
f 452 448 450
f 453 436 435
f 453 437 436
f 453 438 437
f 453 454 438
f 455 454 453
f 456 432 431
f 456 455 453
f 457 434 433
f 457 435 434
f 457 453 435
f 457 456 453
f 458 433 432
f 458 457 433
f 458 432 456
f 458 456 457
f 459 424 425
f 459 425 447
f 459 447 451
f 460 422 423
f 460 423 424
f 460 424 459
f 461 422 460
f 461 460 459
f 462 440 441
f 462 450 449
f 462 463 452
f 462 452 450
f 462 449 440
f 464 451 452
f 464 452 463
f 464 459 451
f 464 461 459
f 465 462 441
f 465 463 462
f 466 464 463
f 466 461 464
f 466 422 461
f 467 463 465
f 467 441 438
f 467 438 454
f 467 465 441
f 467 455 463
f 467 454 455
f 468 428 422
f 468 422 466
f 468 466 463
f 469 463 455
f 469 455 456
f 470 468 463
f 470 428 468
f 470 463 469
f 471 431 430
f 471 428 470
f 471 469 456
f 471 470 469
f 471 456 431
f 472 429 428
f 472 430 429
f 472 428 471
f 472 471 430

