# https://github.com/mikedh/trimesh
v 0.01079230 0.00364366 -0.00505927
v 0.00822962 0.00118883 -0.00505927
v 0.01079230 0.00364366 -0.00503834
v 0.00822962 0.00118883 -0.00503834
v 0.00185894 0.00121473 -0.00633761
v 0.00185894 0.00121473 -0.00375999
v 0.00812435 0.00118926 -0.00636536
v 0.00822962 0.00118883 -0.00505927
v 0.00822962 0.00118883 -0.00503834
v 0.00812435 0.00118926 -0.00373224
v 0.00742758 -0.00040548 -0.00369750
v 0.00734748 -0.00243215 -0.00364986
v 0.00818329 0.00124265 -0.00373325
v 0.00785292 0.00086696 -0.00372579
v 0.00761136 0.00042697 -0.00371642
v 0.00748257 0.00001986 -0.00370734
v 0.00812435 0.00118926 -0.00373224
v 0.00185894 0.00121473 -0.00375999
v 0.00211025 -0.00029594 -0.00372314
v 0.00214498 0.00022028 -0.00373521
v 0.00205893 0.00073756 -0.00374783
v 0.00111512 -0.00177991 -0.00369231
v 0.00153470 -0.00143127 -0.00369875
v 0.00186351 -0.00098215 -0.00370796
v 0.00201611 -0.00064563 -0.00371526
v -0.00231510 0.00052033 -0.00199880
v -0.00231510 0.00052033 -0.00809880
v 0.00211025 -0.00029594 -0.00809880
v 0.00194828 -0.00081360 -0.00809880
v 0.00166713 -0.00127746 -0.00809880
v 0.00128315 -0.00166057 -0.00809880
v 0.00081863 -0.00194064 -0.00809880
v 0.00030059 -0.00210141 -0.00809880
v -0.00024087 -0.00213354 -0.00809880
v -0.00077429 -0.00203515 -0.00809880
v -0.00126866 -0.00181196 -0.00809880
v -0.00169525 -0.00147695 -0.00809880
v -0.00202927 -0.00104958 -0.00809880
v -0.00225132 -0.00055470 -0.00809880
v -0.00234847 -0.00002106 -0.00809880
v 0.00211025 -0.00029594 -0.00637447
v 0.00194699 -0.00081646 -0.00638609
v 0.00165631 -0.00129114 -0.00639607
v 0.00140291 -0.00156007 -0.00640134
v 0.00111512 -0.00177991 -0.00640530
v 0.00111512 -0.00177991 -0.00659880
v 0.00066155 -0.00200413 -0.00659880
v 0.00016934 -0.00212133 -0.00659880
v -0.00033661 -0.00212558 -0.00659880
v -0.00083073 -0.00201667 -0.00659880
v -0.00128800 -0.00180010 -0.00659880
v -0.00168533 -0.00148683 -0.00659880
v -0.00168533 -0.00148683 -0.00628308
v -0.00229672 -0.00038538 -0.00542952
v -0.00229083 -0.00041102 -0.00556618
v -0.00227781 -0.00046273 -0.00569388
v -0.00225696 -0.00053625 -0.00580951
v -0.00222762 -0.00062650 -0.00591032
v -0.00218940 -0.00072841 -0.00599624
v -0.00212425 -0.00087509 -0.00608911
v -0.00203290 -0.00104352 -0.00616689
v -0.00187511 -0.00127347 -0.00623981
v -0.00230318 -0.00035594 -0.00505927
v -0.00230327 -0.00035553 -0.00504880
v -0.00230318 -0.00035594 -0.00503834
v -0.00229672 -0.00038538 -0.00466809
v -0.00168533 -0.00148683 -0.00381453
v -0.00196535 -0.00114952 -0.00389324
v -0.00212001 -0.00088366 -0.00400392
v -0.00221162 -0.00067091 -0.00414706
v -0.00224499 -0.00057466 -0.00424139
v -0.00226964 -0.00049261 -0.00435126
v -0.00228640 -0.00042929 -0.00447799
v -0.00229328 -0.00040054 -0.00457114
v -0.00168533 -0.00148683 -0.00349880
v -0.00128800 -0.00180010 -0.00349880
v -0.00083073 -0.00201667 -0.00349880
v -0.00033661 -0.00212558 -0.00349880
v 0.00016934 -0.00212133 -0.00349880
v 0.00066155 -0.00200413 -0.00349880
v 0.00111512 -0.00177991 -0.00349880
v 0.00111512 -0.00177991 -0.00369231
v 0.00153470 -0.00143127 -0.00369875
v 0.00186351 -0.00098215 -0.00370796
v 0.00201611 -0.00064563 -0.00371526
v 0.00211025 -0.00029594 -0.00372314
v 0.00211025 -0.00029594 -0.00199880
v -0.00234847 -0.00002106 -0.00199880
v -0.00225132 -0.00055470 -0.00199880
v -0.00202927 -0.00104958 -0.00199880
v -0.00169525 -0.00147695 -0.00199880
v -0.00126866 -0.00181196 -0.00199880
v -0.00077429 -0.00203515 -0.00199880
v -0.00024087 -0.00213354 -0.00199880
v 0.00030059 -0.00210141 -0.00199880
v 0.00081863 -0.00194064 -0.00199880
v 0.00128315 -0.00166057 -0.00199880
v 0.00166713 -0.00127746 -0.00199880
v 0.00194828 -0.00081360 -0.00199880
v -0.00230318 -0.00035594 -0.00505927
v -0.00349978 0.00042908 -0.00505927
v -0.00350098 0.00043023 -0.00504880
v -0.00230327 -0.00035553 -0.00504880
v 0.00818329 0.00124265 -0.00636436
v 0.00812435 0.00118926 -0.00636536
v 0.00742758 -0.00040548 -0.00640010
v 0.00751351 0.00014391 -0.00638747
v 0.00772392 0.00066004 -0.00637616
v 0.00792828 0.00096863 -0.00636974
v 0.00734748 -0.00243215 -0.00644774
v 0.00111512 -0.00177991 -0.00640530
v 0.00211025 -0.00029594 -0.00637447
v 0.00194699 -0.00081646 -0.00638609
v 0.00165631 -0.00129114 -0.00639607
v 0.00140291 -0.00156007 -0.00640134
v 0.00185894 0.00121473 -0.00633761
v 0.00205893 0.00073756 -0.00634978
v 0.00214498 0.00022028 -0.00636240
v 0.00822962 0.00118883 -0.00505927
v 0.00822962 0.00118883 -0.00505927
v 0.00812435 0.00118926 -0.00636536
v 0.00818329 0.00124265 -0.00636436
v 0.00818329 0.00124265 -0.00636436
v 0.00816165 0.00125417 -0.00678847
v 0.00804310 0.00141245 -0.01040815
v 0.00900973 0.00225689 -0.00975373
v 0.00960677 0.00278493 -0.00920421
v 0.01000922 0.00313611 -0.00866090
v 0.01021471 0.00330788 -0.00824936
v 0.01038798 0.00344437 -0.00777459
v 0.01060257 0.00359549 -0.00693159
v 0.01073759 0.00366394 -0.00604320
v 0.01079230 0.00364366 -0.00505927
v 0.00816165 0.00125417 -0.00678847
v 0.00808487 0.00129468 -0.00828834
v 0.00708960 0.00047513 -0.00828834
v 0.00660768 0.00021637 -0.00828834
v 0.00623070 0.00011907 -0.00828834
v 0.00590872 0.00011340 -0.00828834
v 0.00542777 0.00021930 -0.00828834
v 0.00514354 0.00033217 -0.00828834
v 0.00486539 0.00047009 -0.00828834
v 0.00493493 0.00061708 -0.01112831
v 0.00564397 0.00032164 -0.01106640
v 0.00596848 0.00026741 -0.01102732
v 0.00629627 0.00028466 -0.01097839
v 0.00660439 0.00037461 -0.01092129
v 0.00688100 0.00051130 -0.01085916
v 0.00713209 0.00067237 -0.01079054
v 0.00804310 0.00141245 -0.01040815
v 0.00804310 0.00141245 -0.01040815
v 0.00349442 0.00204749 -0.01114713
v 0.00383898 0.00153907 -0.01116810
v 0.00431425 0.00104585 -0.01116179
v 0.00493493 0.00061708 -0.01112831
v 0.00486539 0.00047009 -0.00828834
v 0.00428470 0.00085903 -0.00828834
v 0.00377696 0.00136239 -0.00828834
v 0.00336693 0.00195568 -0.00828834
v 0.00121600 0.00393359 -0.01084411
v 0.00198559 0.00359142 -0.01097733
v 0.00262557 0.00312624 -0.01105459
v 0.00300737 0.00273738 -0.01109151
v 0.00349442 0.00204749 -0.01114713
v -0.00282012 0.00276810 -0.00828834
v -0.00197109 0.00348923 -0.00926040
v -0.00106600 0.00392010 -0.00995465
v -0.00026252 0.00408970 -0.01039022
v 0.00042299 0.00409296 -0.01064489
v 0.00336693 0.00195568 -0.00828834
v 0.00279705 0.00273885 -0.00828834
v 0.00209799 0.00333924 -0.00828834
v 0.00133800 0.00373418 -0.00828834
v 0.00049480 0.00394760 -0.00828834
v -0.00037674 0.00395871 -0.00828834
v -0.00121796 0.00377350 -0.00828834
v -0.00197897 0.00342207 -0.00828834
v -0.00242768 0.00311504 -0.00828834
v 0.00724480 -0.00036181 -0.00809880
v 0.00717402 -0.00221036 -0.00809880
v 0.00651104 -0.00411311 -0.00809880
v 0.00540651 -0.00585221 -0.00809880
v 0.00394241 -0.00725001 -0.00809880
v 0.00297877 -0.00785860 -0.00809880
v 0.00197783 -0.00830039 -0.00809880
v 0.00031801 -0.00735673 -0.00809880
v -0.00116157 -0.00596339 -0.00809880
v -0.00232014 -0.00418894 -0.00809880
v -0.00305743 -0.00216916 -0.00809880
v -0.00331188 -0.00059148 -0.00809880
v -0.00332100 0.00095783 -0.00809880
v -0.00326830 0.00172170 -0.00809880
v -0.00328903 0.00214624 -0.00809880
v -0.00330512 0.00251666 -0.00809880
v -0.00323590 0.00246861 -0.00809880
v -0.00319382 0.00244998 -0.00809880
v -0.00313288 0.00243399 -0.00809880
v -0.00306695 0.00242850 -0.00809880
v -0.00300216 0.00243297 -0.00809880
v -0.00294058 0.00244638 -0.00809880
v -0.00288048 0.00246875 -0.00809880
v -0.00282722 0.00249680 -0.00809880
v -0.00277517 0.00253221 -0.00809880
v -0.00268792 0.00260845 -0.00809880
v -0.00193569 0.00320161 -0.00809880
v -0.00110790 0.00358324 -0.00809880
v -0.00027937 0.00374849 -0.00809880
v 0.00057381 0.00371398 -0.00809880
v 0.00139057 0.00347681 -0.00809880
v 0.00211566 0.00306235 -0.00809880
v 0.00271130 0.00251673 -0.00809880
v 0.00297504 0.00218346 -0.00809880
v 0.00319549 0.00183591 -0.00809880
v 0.00362691 0.00121168 -0.00809880
v 0.00416111 0.00068206 -0.00809880
v 0.00477209 0.00027285 -0.00809880
v 0.00553500 -0.00004028 -0.00809880
v 0.00602536 -0.00011146 -0.00809880
v 0.00638424 -0.00007303 -0.00809880
v 0.00677371 0.00005923 -0.00809880
v 0.00708639 0.00022517 -0.00809880
v 0.00741043 0.00044694 -0.00809880
v 0.00730383 0.00009442 -0.00809880
v 0.00726401 -0.00013153 -0.00809880
v -0.00231510 0.00052033 -0.00809880
v -0.00215313 0.00103800 -0.00809880
v -0.00187198 0.00150186 -0.00809880
v -0.00148799 0.00188497 -0.00809880
v -0.00102348 0.00216504 -0.00809880
v -0.00050544 0.00232581 -0.00809880
v 0.00003602 0.00235793 -0.00809880
v 0.00056944 0.00225954 -0.00809880
v 0.00106381 0.00203636 -0.00809880
v 0.00149041 0.00170135 -0.00809880
v 0.00182443 0.00127398 -0.00809880
v 0.00204647 0.00077910 -0.00809880
v 0.00214363 0.00024545 -0.00809880
v 0.00211025 -0.00029594 -0.00809880
v 0.00194828 -0.00081360 -0.00809880
v 0.00166713 -0.00127746 -0.00809880
v 0.00128315 -0.00166057 -0.00809880
v 0.00081863 -0.00194064 -0.00809880
v 0.00030059 -0.00210141 -0.00809880
v -0.00024087 -0.00213354 -0.00809880
v -0.00077429 -0.00203515 -0.00809880
v -0.00126866 -0.00181196 -0.00809880
v -0.00169525 -0.00147695 -0.00809880
v -0.00202927 -0.00104958 -0.00809880
v -0.00225132 -0.00055470 -0.00809880
v -0.00234847 -0.00002106 -0.00809880
v 0.00733958 -0.00243132 -0.00659880
v 0.00733958 -0.00243132 -0.00659880
v 0.00730070 -0.00344666 -0.00659880
v 0.00730070 -0.00344666 -0.00659880
v 0.00730070 -0.00344666 -0.00659880
v 0.00723365 -0.00361638 -0.00775093
v 0.00723365 -0.00361638 -0.00775093
v 0.00723369 -0.00352763 -0.00781466
v 0.00723543 -0.00340737 -0.00786916
v 0.00723543 -0.00340737 -0.00786916
v 0.00723543 -0.00340737 -0.00786916
v 0.00724861 -0.00292446 -0.00797032
v 0.00724861 -0.00292446 -0.00797032
v 0.00727415 -0.00221121 -0.00800404
v 0.00727415 -0.00221121 -0.00800404
v 0.00734492 -0.00036267 -0.00800404
v 0.00740757 -0.00039512 -0.00678847
v 0.00740757 -0.00039512 -0.00678847
v 0.00742758 -0.00040548 -0.00640010
v 0.00742758 -0.00040548 -0.00640010
v 0.00734748 -0.00243215 -0.00644774
v -0.00349978 0.00042908 -0.00505927
v -0.00348276 0.00039434 -0.00540592
v -0.00230318 -0.00035594 -0.00505927
v -0.00229672 -0.00038538 -0.00542952
v 0.00816165 0.00125417 -0.00330914
v 0.00818329 0.00124265 -0.00373325
v 0.00818329 0.00124265 -0.00373325
v 0.00804310 0.00141245 0.00031055
v 0.00900974 0.00225689 -0.00034387
v 0.01038798 0.00344437 -0.00232302
v 0.01008771 0.00320265 -0.00157910
v 0.00974697 0.00290842 -0.00105725
v 0.00941520 0.00261553 -0.00069563
v 0.01073759 0.00366394 -0.00405448
v 0.01060257 0.00359549 -0.00316603
v 0.01079230 0.00364366 -0.00503834
v 0.00822962 0.00118883 -0.00503834
v 0.00822962 0.00118883 -0.00503834
v 0.00812435 0.00118926 -0.00373224
v 0.00713209 0.00067237 0.00069293
v 0.00659562 0.00037108 0.00082547
v 0.00629071 0.00028370 0.00088171
v 0.00596240 0.00026782 0.00093052
v 0.00555227 0.00034785 0.00097839
v 0.00524929 0.00046210 0.00100657
v 0.00493493 0.00061708 0.00103070
v 0.00804310 0.00141245 0.00031055
v 0.00816165 0.00125417 -0.00330914
v 0.00808487 0.00129468 -0.00180927
v 0.00808487 0.00129468 -0.00180927
v 0.00486539 0.00047009 -0.00180927
v 0.00541718 0.00022292 -0.00180927
v 0.00587876 0.00011626 -0.00180927
v 0.00622643 0.00011853 -0.00180927
v 0.00654157 0.00019215 -0.00180927
v 0.00691953 0.00036865 -0.00180927
v 0.00733934 0.00065560 -0.00180927
v 0.00349442 0.00204749 0.00104952
v 0.00336693 0.00195568 -0.00180927
v 0.00377696 0.00136239 -0.00180927
v 0.00428470 0.00085903 -0.00180927
v 0.00486539 0.00047009 -0.00180927
v 0.00493493 0.00061708 0.00103070
v 0.00431425 0.00104585 0.00106418
v 0.00383898 0.00153907 0.00107050
v 0.00349442 0.00204749 0.00104952
v 0.00336693 0.00195568 -0.00180927
v -0.00282012 0.00276809 -0.00180927
v -0.00205112 0.00337827 -0.00180927
v -0.00120728 0.00377712 -0.00180927
v -0.00036153 0.00396027 -0.00180927
v 0.00051378 0.00394507 -0.00180927
v 0.00135921 0.00372598 -0.00180927
v 0.00211944 0.00332472 -0.00180927
v 0.00275463 0.00278409 -0.00180927
v 0.00309187 0.00238113 -0.00180927
v 0.00121600 0.00393359 0.00074651
v 0.00045758 0.00408964 0.00055785
v -0.00019547 0.00409566 0.00032219
v -0.00086377 0.00398022 -0.00001857
v -0.00146395 0.00376492 -0.00041864
v -0.00199666 0.00347271 -0.00086075
v -0.00243232 0.00314600 -0.00130920
v 0.00285459 0.00290512 0.00097889
v 0.00240682 0.00330735 0.00093378
v 0.00180135 0.00369239 0.00085237
v -0.00332100 0.00095783 -0.00199880
v -0.00320480 -0.00145293 -0.00199880
v -0.00258497 -0.00360974 -0.00199880
v -0.00161523 -0.00537241 -0.00199880
v -0.00032331 -0.00683370 -0.00199880
v 0.00079322 -0.00768145 -0.00199880
v 0.00197783 -0.00830039 -0.00199880
v 0.00361201 -0.00748139 -0.00199880
v 0.00508310 -0.00622458 -0.00199880
v 0.00624856 -0.00461729 -0.00199880
v 0.00680371 -0.00343295 -0.00199880
v 0.00717402 -0.00221036 -0.00199880
v 0.00724480 -0.00036181 -0.00199880
v 0.00728543 0.00000456 -0.00199880
v 0.00733762 0.00022791 -0.00199880
v 0.00741043 0.00044694 -0.00199880
v 0.00674953 0.00004862 -0.00199880
v 0.00629836 -0.00008985 -0.00199880
v 0.00594389 -0.00010861 -0.00199880
v 0.00560217 -0.00005717 -0.00199880
v 0.00520273 0.00007043 -0.00199880
v 0.00477209 0.00027285 -0.00199880
v 0.00416111 0.00068206 -0.00199880
v 0.00362691 0.00121168 -0.00199880
v 0.00319549 0.00183591 -0.00199880
v 0.00263702 0.00259846 -0.00199880
v 0.00194863 0.00317821 -0.00199880
v 0.00120020 0.00355159 -0.00199880
v 0.00037283 0.00374084 -0.00199880
v -0.00047630 0.00372721 -0.00199880
v -0.00128761 0.00352019 -0.00199880
v -0.00201220 0.00315356 -0.00199880
v -0.00237004 0.00289434 -0.00199880
v -0.00268792 0.00260845 -0.00199880
v -0.00277517 0.00253221 -0.00199880
v -0.00286008 0.00247872 -0.00199880
v -0.00294892 0.00244435 -0.00199880
v -0.00304170 0.00242911 -0.00199880
v -0.00313933 0.00243474 -0.00199880
v -0.00321879 0.00245995 -0.00199880
v -0.00326344 0.00248474 -0.00199880
v -0.00330512 0.00251666 -0.00199880
v -0.00328903 0.00214624 -0.00199880
v -0.00326830 0.00172170 -0.00199880
v -0.00231510 0.00052033 -0.00199880
v -0.00234847 -0.00002106 -0.00199880
v -0.00225132 -0.00055470 -0.00199880
v -0.00202927 -0.00104958 -0.00199880
v -0.00169525 -0.00147695 -0.00199880
v -0.00126866 -0.00181196 -0.00199880
v -0.00077429 -0.00203515 -0.00199880
v -0.00024087 -0.00213354 -0.00199880
v 0.00030059 -0.00210141 -0.00199880
v 0.00081863 -0.00194064 -0.00199880
v 0.00128315 -0.00166057 -0.00199880
v 0.00166713 -0.00127746 -0.00199880
v 0.00194828 -0.00081360 -0.00199880
v 0.00211025 -0.00029594 -0.00199880
v 0.00214363 0.00024545 -0.00199880
v 0.00204647 0.00077910 -0.00199880
v 0.00182443 0.00127398 -0.00199880
v 0.00149041 0.00170135 -0.00199880
v 0.00106381 0.00203636 -0.00199880
v 0.00056944 0.00225954 -0.00199880
v 0.00003602 0.00235793 -0.00199880
v -0.00050544 0.00232581 -0.00199880
v -0.00102348 0.00216504 -0.00199880
v -0.00148799 0.00188497 -0.00199880
v -0.00187198 0.00150186 -0.00199880
v -0.00215313 0.00103800 -0.00199880
v 0.00727415 -0.00221121 -0.00209357
v 0.00727415 -0.00221121 -0.00209357
v 0.00724490 -0.00304371 -0.00214357
v 0.00724490 -0.00304371 -0.00214357
v 0.00723492 -0.00344088 -0.00224303
v 0.00723492 -0.00344088 -0.00224303
v 0.00723492 -0.00344088 -0.00224303
v 0.00723367 -0.00353993 -0.00229146
v 0.00723365 -0.00361638 -0.00234668
v 0.00723365 -0.00361638 -0.00234668
v 0.00730070 -0.00344666 -0.00349880
v 0.00730070 -0.00344666 -0.00349880
v 0.00733958 -0.00243132 -0.00349880
v 0.00733958 -0.00243132 -0.00349880
v 0.00734748 -0.00243215 -0.00364986
v 0.00742758 -0.00040548 -0.00369750
v 0.00742758 -0.00040548 -0.00369750
v 0.00740757 -0.00039512 -0.00330914
v 0.00740757 -0.00039512 -0.00330914
v 0.00734492 -0.00036267 -0.00209357
v -0.00348276 0.00039434 -0.00469169
v -0.00348276 0.00039434 -0.00469169
v -0.00349978 0.00042908 -0.00503834
v -0.00229672 -0.00038538 -0.00466809
v -0.00230318 -0.00035594 -0.00503834
v -0.00230318 -0.00035594 -0.00503834
v 0.00734492 -0.00036267 -0.00800404
v 0.00740757 -0.00039512 -0.00678847
v 0.00749376 0.00015615 -0.00677983
v 0.00770930 0.00068173 -0.00677854
v 0.00791632 0.00099142 -0.00678195
v 0.00816165 0.00125417 -0.00678847
v 0.00808487 0.00129468 -0.00828834
v 0.00750263 0.00040759 -0.00800454
v 0.00762801 0.00068579 -0.00804031
v 0.00780019 0.00096689 -0.00813148
v 0.00738334 -0.00001845 -0.00800257
v 0.00743305 0.00019659 -0.00800299
v 0.00818329 0.00124265 -0.00636436
v 0.00816165 0.00125417 -0.00678847
v 0.00740757 -0.00039512 -0.00678847
v 0.00749376 0.00015615 -0.00677983
v 0.00770930 0.00068173 -0.00677854
v 0.00791632 0.00099142 -0.00678195
v 0.00742758 -0.00040548 -0.00640010
v 0.00751351 0.00014391 -0.00638747
v 0.00772392 0.00066004 -0.00637616
v 0.00792828 0.00096863 -0.00636974
v 0.00816165 0.00125417 -0.00330914
v 0.00780726 0.00084180 -0.00331778
v 0.00755167 0.00033697 -0.00331907
v 0.00745045 -0.00002751 -0.00331566
v 0.00740757 -0.00039512 -0.00330914
v 0.00734492 -0.00036267 -0.00209357
v 0.00750263 0.00040759 -0.00209307
v 0.00740084 0.00006785 -0.00209500
v 0.00736301 -0.00014803 -0.00209479
v 0.00808487 0.00129468 -0.00180927
v 0.00780791 0.00097754 -0.00196165
v 0.00764640 0.00072039 -0.00204887
v 0.00756413 0.00055505 -0.00208206
v 0.00742758 -0.00040548 -0.00369750
v 0.00740757 -0.00039512 -0.00330914
v 0.00816165 0.00125417 -0.00330914
v 0.00780726 0.00084180 -0.00331778
v 0.00755167 0.00033697 -0.00331907
v 0.00745045 -0.00002751 -0.00331566
v 0.00818329 0.00124265 -0.00373325
v 0.00785292 0.00086696 -0.00372579
v 0.00761136 0.00042697 -0.00371642
v 0.00748257 0.00001986 -0.00370734
v -0.00349978 0.00042908 -0.00503834
v -0.00350098 0.00043023 -0.00504880
v -0.00230318 -0.00035594 -0.00503834
v -0.00230327 -0.00035553 -0.00504880
v -0.00340568 -0.00130679 -0.00349880
v -0.00168533 -0.00148683 -0.00349880
v -0.00128800 -0.00180010 -0.00349880
v -0.00083073 -0.00201667 -0.00349880
v -0.00033661 -0.00212558 -0.00349880
v 0.00016934 -0.00212133 -0.00349880
v 0.00066155 -0.00200413 -0.00349880
v 0.00111512 -0.00177991 -0.00349880
v 0.00733958 -0.00243132 -0.00349880
v 0.00730070 -0.00344666 -0.00349880
v 0.00729071 -0.00353592 -0.00349880
v 0.00727793 -0.00359055 -0.00349880
v 0.00726025 -0.00364379 -0.00349880
v 0.00264000 -0.00861458 -0.00349880
v 0.00437243 -0.00758072 -0.00349880
v 0.00586696 -0.00609624 -0.00349880
v 0.00666027 -0.00491633 -0.00349880
v 0.00252687 -0.00864855 -0.00349880
v 0.00242048 -0.00865428 -0.00349880
v 0.00235586 -0.00864563 -0.00349880
v 0.00229319 -0.00862788 -0.00349880
v 0.00058524 -0.00777158 -0.00349880
v -0.00095055 -0.00647909 -0.00349880
v -0.00218548 -0.00481877 -0.00349880
v -0.00296731 -0.00310540 -0.00349880
v 0.00229319 -0.00862788 -0.00349880
v 0.00239350 -0.00858665 -0.00223868
v 0.00227996 -0.00854143 -0.00216468
v 0.00214669 -0.00848817 -0.00211679
v 0.00204711 -0.00844767 -0.00209937
v 0.00193911 -0.00840280 -0.00209357
v 0.00026936 -0.00745503 -0.00209357
v -0.00122100 -0.00605734 -0.00209357
v -0.00239177 -0.00427726 -0.00209357
v -0.00314237 -0.00224906 -0.00209357
v -0.00340970 -0.00062910 -0.00209357
v -0.00342093 0.00096236 -0.00209357
v -0.00343351 0.00096293 -0.00233361
v -0.00344203 0.00085835 -0.00236830
v -0.00344564 0.00081423 -0.00238898
v -0.00344942 0.00077467 -0.00242029
v -0.00345338 0.00073969 -0.00246225
v -0.00345757 0.00070935 -0.00251485
v -0.00346356 0.00067614 -0.00260154
v -0.00347307 0.00064321 -0.00275829
v -0.00348388 0.00062760 -0.00295370
v -0.00357253 0.00057459 -0.00460555
v -0.00356251 0.00050831 -0.00437789
v -0.00355394 0.00039146 -0.00417053
v -0.00354814 0.00028147 -0.00404005
v -0.00354081 0.00013258 -0.00390831
v -0.00352816 -0.00009882 -0.00375888
v -0.00351070 -0.00035840 -0.00364288
v -0.00348677 -0.00064084 -0.00356456
v -0.00346552 -0.00084846 -0.00353260
v -0.00343957 -0.00106761 -0.00351839
v -0.00340644 -0.00130671 -0.00351272
v -0.00340568 -0.00130679 -0.00349880
v 0.00058524 -0.00777158 -0.00349880
v -0.00095055 -0.00647909 -0.00349880
v -0.00218548 -0.00481877 -0.00349880
v -0.00296731 -0.00310540 -0.00349880
v -0.00342093 0.00096236 -0.00209357
v -0.00342093 0.00096236 -0.00209357
v -0.00335964 0.00185064 -0.00209357
v -0.00338903 0.00149209 -0.00218206
v -0.00338903 0.00149209 -0.00218206
v -0.00343351 0.00096293 -0.00233361
v -0.00271962 -0.00137859 -0.00371843
v -0.00271962 -0.00137859 -0.00371843
v -0.00168533 -0.00148683 -0.00381453
v -0.00319894 -0.00132842 -0.00372169
v -0.00319894 -0.00132842 -0.00372169
v -0.00340644 -0.00130671 -0.00351272
v -0.00340644 -0.00130671 -0.00351272
v -0.00340644 -0.00130671 -0.00351272
v -0.00340350 -0.00130702 -0.00355737
v -0.00339049 -0.00130838 -0.00359994
v -0.00339049 -0.00130838 -0.00359994
v -0.00339049 -0.00130838 -0.00359994
v -0.00336843 -0.00131068 -0.00363847
v -0.00333838 -0.00131383 -0.00367098
v -0.00333838 -0.00131383 -0.00367098
v -0.00333838 -0.00131383 -0.00367098
v -0.00330193 -0.00131765 -0.00369602
v -0.00326092 -0.00132194 -0.00371290
v -0.00326092 -0.00132194 -0.00371290
v -0.00323031 -0.00132515 -0.00371957
v -0.00323031 -0.00132515 -0.00371957
v -0.00340568 -0.00130679 -0.00349880
v -0.00340568 -0.00130679 -0.00349880
v -0.00340568 -0.00130679 -0.00349880
v -0.00340568 -0.00130679 -0.00349880
v -0.00168533 -0.00148683 -0.00349880
v -0.00168533 -0.00148683 -0.00349880
v -0.00324030 -0.00103629 -0.00372879
v -0.00271962 -0.00137859 -0.00371843
v -0.00319894 -0.00132842 -0.00372169
v 0.00733958 -0.00243132 -0.00349880
v 0.00734748 -0.00243215 -0.00364986
v 0.00111512 -0.00177991 -0.00369231
v 0.00111512 -0.00177991 -0.00349880
v 0.00734748 -0.00243215 -0.00644774
v 0.00733958 -0.00243132 -0.00659880
v 0.00111512 -0.00177991 -0.00659880
v 0.00111512 -0.00177991 -0.00640530
v -0.00340568 -0.00130679 -0.00659880
v -0.00340568 -0.00130679 -0.00659880
v -0.00340568 -0.00130679 -0.00659880
v -0.00168533 -0.00148683 -0.00659880
v -0.00168533 -0.00148683 -0.00659880
v -0.00340644 -0.00130671 -0.00658489
v -0.00340644 -0.00130671 -0.00658489
v -0.00340644 -0.00130671 -0.00658489
v -0.00340644 -0.00130671 -0.00658489
v -0.00319894 -0.00132842 -0.00637591
v -0.00319894 -0.00132842 -0.00637591
v -0.00324814 -0.00132327 -0.00638134
v -0.00324814 -0.00132327 -0.00638134
v -0.00324814 -0.00132327 -0.00638134
v -0.00329455 -0.00131842 -0.00639778
v -0.00329455 -0.00131842 -0.00639778
v -0.00333578 -0.00131411 -0.00642443
v -0.00333578 -0.00131411 -0.00642443
v -0.00333578 -0.00131411 -0.00642443
v -0.00336641 -0.00131090 -0.00645644
v -0.00339058 -0.00130837 -0.00649786
v -0.00339058 -0.00130837 -0.00649786
v -0.00339058 -0.00130837 -0.00649786
v -0.00340353 -0.00130701 -0.00654034
v -0.00271962 -0.00137859 -0.00637918
v -0.00271962 -0.00137859 -0.00637918
v -0.00168533 -0.00148683 -0.00628308
v -0.00319894 -0.00132842 -0.00637591
v -0.00271962 -0.00137859 -0.00637918
v -0.00324030 -0.00103629 -0.00636882
v -0.00342093 0.00096236 -0.00800404
v -0.00330574 -0.00146209 -0.00800404
v -0.00268697 -0.00363250 -0.00800404
v -0.00171760 -0.00540936 -0.00800404
v -0.00042425 -0.00688686 -0.00800404
v 0.00072138 -0.00776438 -0.00800404
v 0.00193911 -0.00840280 -0.00800404
v 0.00211444 -0.00847513 -0.00798791
v 0.00226612 -0.00853593 -0.00793954
v 0.00233289 -0.00856246 -0.00790327
v 0.00239350 -0.00858665 -0.00785893
v 0.00229319 -0.00862788 -0.00659880
v 0.00058524 -0.00777158 -0.00659880
v -0.00095055 -0.00647909 -0.00659880
v -0.00218549 -0.00481877 -0.00659880
v -0.00296731 -0.00310540 -0.00659880
v -0.00340568 -0.00130679 -0.00659880
v -0.00340644 -0.00130671 -0.00658489
v -0.00343957 -0.00106761 -0.00657922
v -0.00349713 -0.00052485 -0.00650616
v -0.00352811 -0.00009939 -0.00633902
v -0.00354589 0.00022743 -0.00611026
v -0.00355531 0.00040412 -0.00590994
v -0.00356319 0.00051244 -0.00571031
v -0.00357253 0.00057459 -0.00549205
v -0.00348388 0.00062760 -0.00714391
v -0.00346722 0.00066088 -0.00743793
v -0.00345703 0.00071290 -0.00758995
v -0.00345230 0.00074863 -0.00764768
v -0.00344791 0.00078970 -0.00769091
v -0.00344492 0.00082256 -0.00771354
v -0.00344203 0.00085835 -0.00772930
v -0.00343351 0.00096293 -0.00776399
v -0.00343351 0.00096293 -0.00776399
v -0.00338903 0.00149209 -0.00791555
v -0.00338903 0.00149209 -0.00791555
v -0.00335964 0.00185064 -0.00800404
v -0.00342093 0.00096236 -0.00800404
v -0.00342093 0.00096236 -0.00800404
v 0.00733958 -0.00243132 -0.00659880
v 0.00730070 -0.00344666 -0.00659880
v 0.00726025 -0.00364379 -0.00659880
v 0.00728622 -0.00355781 -0.00659880
v 0.00729599 -0.00350256 -0.00659880
v 0.00264000 -0.00861458 -0.00659880
v 0.00437243 -0.00758072 -0.00659880
v 0.00586696 -0.00609624 -0.00659880
v 0.00666027 -0.00491633 -0.00659880
v 0.00229319 -0.00862788 -0.00659880
v 0.00239681 -0.00865185 -0.00659880
v 0.00250310 -0.00865150 -0.00659880
v 0.00257288 -0.00863815 -0.00659880
v 0.00058524 -0.00777158 -0.00659880
v -0.00095055 -0.00647909 -0.00659880
v -0.00218549 -0.00481877 -0.00659880
v -0.00296731 -0.00310540 -0.00659880
v -0.00340568 -0.00130679 -0.00659880
v -0.00168533 -0.00148683 -0.00659880
v 0.00111512 -0.00177991 -0.00659880
v 0.00066155 -0.00200413 -0.00659880
v 0.00016934 -0.00212133 -0.00659880
v -0.00033661 -0.00212558 -0.00659880
v -0.00083073 -0.00201667 -0.00659880
v -0.00128800 -0.00180010 -0.00659880
v -0.00168533 -0.00148683 -0.00628308
v -0.00271962 -0.00137859 -0.00637918
v -0.00324030 -0.00103629 -0.00636882
v -0.00348276 0.00039434 -0.00540592
v -0.00346817 0.00034991 -0.00558915
v -0.00344987 0.00025334 -0.00577696
v -0.00343603 0.00015520 -0.00590163
v -0.00341872 0.00001967 -0.00602739
v -0.00339787 -0.00013633 -0.00613336
v -0.00336886 -0.00032740 -0.00622692
v -0.00333393 -0.00053951 -0.00629839
v -0.00329252 -0.00077405 -0.00634670
v -0.00229672 -0.00038538 -0.00542952
v -0.00229083 -0.00041102 -0.00556618
v -0.00227781 -0.00046273 -0.00569388
v -0.00225696 -0.00053625 -0.00580951
v -0.00222762 -0.00062650 -0.00591032
v -0.00218940 -0.00072841 -0.00599624
v -0.00212425 -0.00087509 -0.00608911
v -0.00203290 -0.00104352 -0.00616689
v -0.00187511 -0.00127347 -0.00623981
v -0.00229672 -0.00038538 -0.00466809
v -0.00348276 0.00039434 -0.00469169
v -0.00324030 -0.00103629 -0.00372879
v -0.00332941 -0.00056607 -0.00379225
v -0.00338767 -0.00020558 -0.00392652
v -0.00342197 0.00004360 -0.00409005
v -0.00343738 0.00016428 -0.00420630
v -0.00345098 0.00026028 -0.00433116
v -0.00346500 0.00033609 -0.00447361
v -0.00347470 0.00037404 -0.00458434
v -0.00271962 -0.00137859 -0.00371843
v -0.00168533 -0.00148683 -0.00381453
v -0.00196535 -0.00114952 -0.00389324
v -0.00212001 -0.00088366 -0.00400392
v -0.00221162 -0.00067091 -0.00414706
v -0.00224499 -0.00057466 -0.00424139
v -0.00226964 -0.00049261 -0.00435126
v -0.00228640 -0.00042929 -0.00447799
v -0.00229328 -0.00040054 -0.00457114
v -0.00340644 -0.00130671 -0.00351272
v -0.00340350 -0.00130702 -0.00355737
v -0.00339049 -0.00130838 -0.00359994
v -0.00336843 -0.00131068 -0.00363847
v -0.00333838 -0.00131383 -0.00367098
v -0.00330193 -0.00131765 -0.00369602
v -0.00326092 -0.00132194 -0.00371290
v -0.00323031 -0.00132515 -0.00371957
v -0.00319894 -0.00132842 -0.00372169
v -0.00343957 -0.00106761 -0.00351839
v -0.00324030 -0.00103629 -0.00372879
v -0.00328526 -0.00104457 -0.00372318
v -0.00333074 -0.00105262 -0.00370635
v -0.00336855 -0.00105900 -0.00368162
v -0.00339724 -0.00106353 -0.00365179
v -0.00341863 -0.00106654 -0.00361695
v -0.00343447 -0.00106821 -0.00357198
v -0.00343892 -0.00106825 -0.00354469
v -0.00357253 0.00057459 -0.00460555
v -0.00356251 0.00050831 -0.00437789
v -0.00355394 0.00039146 -0.00417053
v -0.00354814 0.00028147 -0.00404005
v -0.00354081 0.00013258 -0.00390831
v -0.00352816 -0.00009882 -0.00375888
v -0.00351070 -0.00035840 -0.00364288
v -0.00348677 -0.00064084 -0.00356456
v -0.00346552 -0.00084846 -0.00353260
v -0.00343957 -0.00106761 -0.00351839
v -0.00357581 0.00057786 -0.00467123
v -0.00348276 0.00039434 -0.00469169
v -0.00351684 0.00042257 -0.00468751
v -0.00354503 0.00045977 -0.00468288
v -0.00356475 0.00050364 -0.00467812
v -0.00357335 0.00054063 -0.00467453
v -0.00324030 -0.00103629 -0.00372879
v -0.00332941 -0.00056607 -0.00379225
v -0.00338767 -0.00020558 -0.00392652
v -0.00342197 0.00004360 -0.00409005
v -0.00343738 0.00016428 -0.00420630
v -0.00345098 0.00026028 -0.00433116
v -0.00346500 0.00033609 -0.00447361
v -0.00347470 0.00037404 -0.00458434
v -0.00328526 -0.00104457 -0.00372318
v -0.00333074 -0.00105262 -0.00370635
v -0.00336855 -0.00105900 -0.00368162
v -0.00339724 -0.00106353 -0.00365179
v -0.00341863 -0.00106654 -0.00361695
v -0.00343447 -0.00106821 -0.00357198
v -0.00343892 -0.00106825 -0.00354469
v -0.00354821 0.00045972 -0.00459344
v -0.00354268 0.00042964 -0.00449052
v -0.00353947 0.00040596 -0.00443157
v -0.00353510 0.00036710 -0.00435376
v -0.00352963 0.00030955 -0.00426222
v -0.00352524 0.00025809 -0.00419476
v -0.00352109 0.00020667 -0.00413651
v -0.00351606 0.00014255 -0.00407337
v -0.00351069 0.00007329 -0.00401439
v -0.00350030 -0.00005753 -0.00392308
v -0.00349087 -0.00016852 -0.00386158
v -0.00347993 -0.00028714 -0.00380806
v -0.00346001 -0.00048227 -0.00374198
v -0.00344520 -0.00061355 -0.00371035
v -0.00343371 -0.00070876 -0.00369306
v -0.00341573 -0.00096180 -0.00364871
v -0.00342891 -0.00096240 -0.00362756
v -0.00348276 0.00039434 -0.00469169
v -0.00351684 0.00042257 -0.00468751
v -0.00354503 0.00045977 -0.00468288
v -0.00356475 0.00050364 -0.00467812
v -0.00357335 0.00054063 -0.00467453
v -0.00357581 0.00057786 -0.00467123
v -0.00359190 0.00058827 -0.00502006
v -0.00349978 0.00042908 -0.00503834
v -0.00353341 0.00045685 -0.00503424
v -0.00356135 0.00049335 -0.00502970
v -0.00358113 0.00053643 -0.00502502
v -0.00358804 0.00056214 -0.00502248
v -0.00349978 0.00042908 -0.00503834
v -0.00353341 0.00045685 -0.00503424
v -0.00356135 0.00049335 -0.00502970
v -0.00358113 0.00053643 -0.00502502
v -0.00358804 0.00056214 -0.00502248
v -0.00359190 0.00058827 -0.00502006
v -0.00359266 0.00058860 -0.00503714
v -0.00359277 0.00058860 -0.00503933
v -0.00350098 0.00043023 -0.00504880
v -0.00353429 0.00045794 -0.00504625
v -0.00356204 0.00049426 -0.00504373
v -0.00358180 0.00053707 -0.00504143
v -0.00358877 0.00056261 -0.00504031
v -0.00350098 0.00043023 -0.00504880
v -0.00353429 0.00045794 -0.00504625
v -0.00356204 0.00049426 -0.00504373
v -0.00358180 0.00053707 -0.00504143
v -0.00358877 0.00056261 -0.00504031
v -0.00359277 0.00058860 -0.00503933
v -0.00359277 0.00058860 -0.00505828
v -0.00353429 0.00045794 -0.00505136
v -0.00356204 0.00049426 -0.00505388
v -0.00358180 0.00053707 -0.00505618
v -0.00358877 0.00056261 -0.00505730
v -0.00350098 0.00043023 -0.00504880
v -0.00353429 0.00045794 -0.00505136
v -0.00356204 0.00049426 -0.00505388
v -0.00358180 0.00053707 -0.00505618
v -0.00358877 0.00056261 -0.00505730
v -0.00359277 0.00058860 -0.00505828
v -0.00359266 0.00058860 -0.00506046
v -0.00359190 0.00058827 -0.00507755
v -0.00349978 0.00042908 -0.00505927
v -0.00353341 0.00045685 -0.00506337
v -0.00356135 0.00049335 -0.00506791
v -0.00358113 0.00053643 -0.00507259
v -0.00358804 0.00056214 -0.00507513
v -0.00349978 0.00042908 -0.00505927
v -0.00353341 0.00045685 -0.00506337
v -0.00356135 0.00049335 -0.00506791
v -0.00358113 0.00053643 -0.00507259
v -0.00358804 0.00056214 -0.00507513
v -0.00359190 0.00058827 -0.00507755
v -0.00357581 0.00057786 -0.00542637
v -0.00348276 0.00039434 -0.00540592
v -0.00351680 0.00042268 -0.00541010
v -0.00354501 0.00045979 -0.00541473
v -0.00356467 0.00050364 -0.00541948
v -0.00357326 0.00054062 -0.00542307
v -0.00348276 0.00039434 -0.00540592
v -0.00351680 0.00042268 -0.00541010
v -0.00354501 0.00045979 -0.00541473
v -0.00356467 0.00050364 -0.00541948
v -0.00357326 0.00054062 -0.00542307
v -0.00357581 0.00057786 -0.00542637
v -0.00357253 0.00057459 -0.00549205
v -0.00343957 -0.00106761 -0.00657922
v -0.00349713 -0.00052485 -0.00650616
v -0.00352811 -0.00009939 -0.00633902
v -0.00354589 0.00022743 -0.00611026
v -0.00355531 0.00040412 -0.00590994
v -0.00356319 0.00051244 -0.00571031
v -0.00324030 -0.00103629 -0.00636882
v -0.00328512 -0.00104455 -0.00637397
v -0.00333062 -0.00105262 -0.00639061
v -0.00336854 -0.00105900 -0.00641584
v -0.00339736 -0.00106355 -0.00644583
v -0.00341921 -0.00106664 -0.00648077
v -0.00343502 -0.00106830 -0.00652581
v -0.00343913 -0.00106829 -0.00655300
v -0.00346817 0.00034991 -0.00558915
v -0.00344987 0.00025334 -0.00577696
v -0.00343603 0.00015520 -0.00590163
v -0.00341872 0.00001967 -0.00602739
v -0.00339787 -0.00013633 -0.00613336
v -0.00336886 -0.00032740 -0.00622692
v -0.00333393 -0.00053951 -0.00629839
v -0.00329252 -0.00077405 -0.00634670
v -0.00336507 -0.00091864 -0.00639337
v -0.00338434 -0.00092054 -0.00640743
v -0.00339523 -0.00092143 -0.00641707
v -0.00343842 -0.00067057 -0.00639838
v -0.00345301 -0.00054581 -0.00637237
v -0.00346559 -0.00043016 -0.00634060
v -0.00348501 -0.00023337 -0.00626680
v -0.00349407 -0.00013192 -0.00621712
v -0.00350146 -0.00004321 -0.00616564
v -0.00351308 0.00010417 -0.00605809
v -0.00351880 0.00017768 -0.00599103
v -0.00352537 0.00025978 -0.00590117
v -0.00352977 0.00031137 -0.00583325
v -0.00353499 0.00036630 -0.00574579
v -0.00354073 0.00041589 -0.00564317
v -0.00354596 0.00044926 -0.00554601
v -0.00319894 -0.00132842 -0.00637591
v -0.00324814 -0.00132327 -0.00638134
v -0.00329455 -0.00131842 -0.00639778
v -0.00333578 -0.00131411 -0.00642443
v -0.00336641 -0.00131090 -0.00645644
v -0.00339058 -0.00130837 -0.00649786
v -0.00340353 -0.00130701 -0.00654034
v -0.00340644 -0.00130671 -0.00658489
v -0.00324030 -0.00103629 -0.00636882
v -0.00328512 -0.00104455 -0.00637397
v -0.00333062 -0.00105262 -0.00639061
v -0.00336854 -0.00105900 -0.00641584
v -0.00339736 -0.00106355 -0.00644583
v -0.00341921 -0.00106664 -0.00648077
v -0.00343502 -0.00106830 -0.00652581
v -0.00343913 -0.00106829 -0.00655300
v -0.00343957 -0.00106761 -0.00657922
v 0.00486539 0.00047009 -0.00828834
v 0.00486209 0.00046310 -0.00824505
v 0.00485488 0.00044786 -0.00820610
v 0.00484335 0.00042348 -0.00816944
v 0.00482644 0.00038774 -0.00813612
v 0.00480680 0.00034623 -0.00811312
v 0.00478993 0.00031055 -0.00810248
v 0.00477209 0.00027285 -0.00809880
v 0.00553500 -0.00004028 -0.00809880
v 0.00602536 -0.00011146 -0.00809880
v 0.00638424 -0.00007303 -0.00809880
v 0.00677371 0.00005923 -0.00809880
v 0.00708639 0.00022517 -0.00809880
v 0.00741043 0.00044694 -0.00809880
v 0.00808487 0.00129468 -0.00828834
v 0.00772205 0.00090244 -0.00816638
v 0.00708960 0.00047513 -0.00828834
v 0.00660768 0.00021637 -0.00828834
v 0.00623070 0.00011907 -0.00828834
v 0.00590872 0.00011340 -0.00828834
v 0.00542777 0.00021930 -0.00828834
v 0.00514354 0.00033217 -0.00828834
v 0.00497660 0.00033609 -0.00815373
v 0.00498311 0.00035087 -0.00816933
v 0.00498843 0.00036297 -0.00818506
v 0.00534285 0.00017748 -0.00815452
v 0.00548927 0.00012858 -0.00815452
v 0.00573613 0.00006875 -0.00815450
v 0.00596638 0.00004245 -0.00815372
v 0.00613345 0.00004377 -0.00815370
v 0.00629922 0.00006252 -0.00815404
v 0.00649555 0.00010760 -0.00815407
v 0.00667602 0.00017436 -0.00815546
v 0.00682645 0.00024374 -0.00815462
v 0.00707125 0.00038604 -0.00815462
v 0.00722829 0.00049191 -0.00815373
v 0.00486539 0.00047009 -0.00828834
v 0.00428470 0.00085903 -0.00828834
v 0.00377696 0.00136239 -0.00828834
v 0.00336693 0.00195568 -0.00828834
v 0.00336108 0.00195160 -0.00824605
v 0.00334655 0.00194145 -0.00820378
v 0.00332321 0.00192514 -0.00816516
v 0.00329242 0.00190363 -0.00813373
v 0.00325684 0.00187877 -0.00811201
v 0.00322584 0.00185712 -0.00810195
v 0.00319549 0.00183591 -0.00809880
v 0.00362691 0.00121168 -0.00809880
v 0.00416111 0.00068206 -0.00809880
v 0.00477209 0.00027285 -0.00809880
v 0.00486209 0.00046310 -0.00824505
v 0.00485488 0.00044786 -0.00820610
v 0.00484335 0.00042348 -0.00816944
v 0.00482644 0.00038774 -0.00813612
v 0.00480680 0.00034623 -0.00811312
v 0.00478993 0.00031055 -0.00810248
v 0.00425697 0.00081932 -0.00817231
v 0.00398581 0.00106409 -0.00817231
v 0.00374329 0.00132857 -0.00817231
v 0.00336693 0.00195568 -0.00828834
v 0.00279705 0.00273885 -0.00828834
v 0.00209799 0.00333924 -0.00828834
v 0.00133800 0.00373418 -0.00828834
v 0.00049480 0.00394760 -0.00828834
v -0.00037674 0.00395871 -0.00828834
v -0.00121796 0.00377350 -0.00828834
v -0.00197897 0.00342207 -0.00828834
v -0.00242768 0.00311504 -0.00828834
v -0.00282012 0.00276810 -0.00828834
v -0.00281471 0.00276157 -0.00824129
v -0.00280273 0.00274710 -0.00819924
v -0.00278617 0.00272710 -0.00816476
v -0.00276496 0.00270149 -0.00813616
v -0.00274058 0.00267204 -0.00811531
v -0.00271403 0.00263998 -0.00810273
v -0.00268792 0.00260845 -0.00809880
v -0.00193569 0.00320161 -0.00809880
v -0.00110790 0.00358324 -0.00809880
v -0.00027937 0.00374849 -0.00809880
v 0.00057381 0.00371398 -0.00809880
v 0.00139057 0.00347681 -0.00809880
v 0.00211566 0.00306235 -0.00809880
v 0.00271130 0.00251673 -0.00809880
v 0.00297504 0.00218346 -0.00809880
v 0.00319549 0.00183591 -0.00809880
v 0.00336108 0.00195160 -0.00824605
v 0.00334655 0.00194145 -0.00820378
v 0.00332321 0.00192514 -0.00816516
v 0.00329242 0.00190363 -0.00813373
v 0.00325684 0.00187877 -0.00811201
v 0.00322584 0.00185712 -0.00810195
v -0.00261503 0.00292325 -0.00819903
v -0.00260959 0.00291581 -0.00818505
v -0.00260369 0.00290772 -0.00817231
v -0.00221080 0.00321679 -0.00817231
v -0.00198342 0.00336419 -0.00817231
v -0.00162195 0.00355804 -0.00817231
v -0.00117662 0.00373646 -0.00817231
v -0.00076699 0.00384762 -0.00817231
v -0.00032977 0.00391413 -0.00817231
v 0.00010095 0.00392875 -0.00817231
v 0.00054496 0.00389087 -0.00817231
v 0.00096717 0.00380315 -0.00817231
v 0.00138686 0.00366216 -0.00817231
v 0.00177160 0.00348031 -0.00817231
v 0.00214003 0.00325138 -0.00817231
v 0.00249934 0.00296524 -0.00817231
v 0.00279510 0.00267025 -0.00817231
v 0.00294004 0.00250060 -0.00817231
v 0.00321931 0.00211101 -0.00817231
v 0.00320129 0.00209703 -0.00814966
v 0.00318160 0.00208175 -0.00813148
v -0.00282012 0.00276810 -0.00828834
v -0.00288385 0.00270752 -0.00826001
v -0.00287643 0.00269554 -0.00821829
v -0.00286352 0.00267472 -0.00817853
v -0.00284550 0.00264566 -0.00814428
v -0.00282340 0.00261000 -0.00811901
v -0.00279928 0.00257111 -0.00810386
v -0.00277517 0.00253221 -0.00809880
v -0.00268792 0.00260845 -0.00809880
v -0.00281471 0.00276157 -0.00824129
v -0.00280273 0.00274710 -0.00819924
v -0.00278617 0.00272710 -0.00816476
v -0.00276496 0.00270149 -0.00813616
v -0.00274058 0.00267204 -0.00811531
v -0.00271403 0.00263998 -0.00810273
v -0.00288385 0.00270752 -0.00826001
v -0.00287643 0.00269554 -0.00821829
v -0.00286352 0.00267472 -0.00817853
v -0.00284550 0.00264566 -0.00814428
v -0.00282340 0.00261000 -0.00811901
v -0.00279928 0.00257111 -0.00810386
v -0.00277517 0.00253221 -0.00809880
v -0.00296301 0.00265596 -0.00823861
v -0.00303126 0.00263195 -0.00822135
v -0.00307897 0.00262574 -0.00821000
v -0.00312906 0.00262954 -0.00819886
v -0.00317186 0.00264333 -0.00819030
v -0.00320499 0.00266397 -0.00818477
v -0.00323167 0.00269278 -0.00818177
v -0.00324868 0.00272608 -0.00818171
v -0.00325625 0.00275786 -0.00818385
v -0.00325728 0.00279111 -0.00818789
v -0.00328679 0.00270270 -0.00813857
v -0.00330257 0.00261119 -0.00810879
v -0.00330546 0.00256430 -0.00810131
v -0.00330512 0.00251666 -0.00809880
v -0.00323590 0.00246861 -0.00809880
v -0.00319382 0.00244998 -0.00809880
v -0.00313288 0.00243399 -0.00809880
v -0.00306695 0.00242850 -0.00809880
v -0.00300216 0.00243297 -0.00809880
v -0.00294058 0.00244638 -0.00809880
v -0.00288048 0.00246875 -0.00809880
v -0.00282722 0.00249680 -0.00809880
v -0.00295473 0.00257564 -0.00813660
v -0.00299725 0.00255952 -0.00813372
v -0.00302046 0.00255349 -0.00813245
v -0.00304482 0.00254901 -0.00813116
v -0.00307529 0.00254565 -0.00812936
v -0.00310024 0.00254560 -0.00812816
v -0.00313295 0.00254851 -0.00812641
v -0.00315602 0.00255346 -0.00812540
v -0.00317236 0.00255849 -0.00812471
v 0.00477209 0.00027285 -0.00199880
v 0.00479565 0.00032264 -0.00199235
v 0.00481702 0.00036783 -0.00197416
v 0.00483467 0.00040514 -0.00194732
v 0.00484793 0.00043318 -0.00191561
v 0.00485831 0.00045512 -0.00187585
v 0.00486343 0.00046594 -0.00184091
v 0.00486539 0.00047009 -0.00180927
v 0.00541718 0.00022292 -0.00180927
v 0.00587876 0.00011626 -0.00180927
v 0.00622643 0.00011853 -0.00180927
v 0.00654157 0.00019215 -0.00180927
v 0.00691953 0.00036865 -0.00180927
v 0.00733934 0.00065560 -0.00180927
v 0.00808487 0.00129468 -0.00180927
v 0.00741043 0.00044694 -0.00199880
v 0.00758802 0.00072351 -0.00197099
v 0.00783599 0.00103843 -0.00189294
v 0.00674953 0.00004862 -0.00199880
v 0.00629836 -0.00008985 -0.00199880
v 0.00594389 -0.00010861 -0.00199880
v 0.00560217 -0.00005717 -0.00199880
v 0.00520273 0.00007043 -0.00199880
v 0.00503818 0.00029046 -0.00195503
v 0.00503143 0.00027452 -0.00196644
v 0.00532513 0.00018390 -0.00194319
v 0.00551531 0.00012078 -0.00194318
v 0.00575280 0.00006576 -0.00194319
v 0.00591309 0.00004551 -0.00194392
v 0.00609356 0.00004188 -0.00194394
v 0.00625713 0.00005576 -0.00194395
v 0.00642161 0.00008709 -0.00194392
v 0.00663066 0.00015597 -0.00194211
v 0.00682548 0.00024433 -0.00194211
v 0.00714314 0.00043248 -0.00194388
v 0.00735425 0.00058522 -0.00194388
v 0.00745065 0.00070729 -0.00189953
v 0.00477209 0.00027285 -0.00199880
v 0.00416111 0.00068206 -0.00199880
v 0.00362691 0.00121168 -0.00199880
v 0.00319549 0.00183591 -0.00199880
v 0.00323618 0.00186434 -0.00199310
v 0.00327701 0.00189286 -0.00197482
v 0.00331031 0.00191613 -0.00194749
v 0.00333488 0.00193330 -0.00191555
v 0.00335275 0.00194578 -0.00187902
v 0.00336273 0.00195276 -0.00184394
v 0.00336693 0.00195568 -0.00180927
v 0.00377696 0.00136239 -0.00180927
v 0.00428470 0.00085903 -0.00180927
v 0.00486539 0.00047009 -0.00180927
v 0.00479565 0.00032264 -0.00199235
v 0.00481702 0.00036783 -0.00197416
v 0.00483467 0.00040514 -0.00194732
v 0.00484793 0.00043318 -0.00191561
v 0.00485831 0.00045512 -0.00187585
v 0.00486343 0.00046594 -0.00184091
v 0.00374329 0.00132857 -0.00192530
v 0.00398581 0.00106409 -0.00192530
v 0.00425697 0.00081932 -0.00192530
v 0.00319549 0.00183591 -0.00199880
v 0.00263702 0.00259846 -0.00199880
v 0.00194863 0.00317821 -0.00199880
v 0.00120020 0.00355159 -0.00199880
v 0.00037283 0.00374084 -0.00199880
v -0.00047630 0.00372721 -0.00199880
v -0.00128761 0.00352019 -0.00199880
v -0.00201220 0.00315356 -0.00199880
v -0.00237004 0.00289434 -0.00199880
v -0.00268792 0.00260845 -0.00199880
v -0.00271930 0.00264634 -0.00199310
v -0.00275078 0.00268436 -0.00197482
v -0.00277646 0.00271537 -0.00194749
v -0.00279541 0.00273826 -0.00191555
v -0.00280919 0.00275490 -0.00187902
v -0.00281688 0.00276419 -0.00184394
v -0.00282012 0.00276809 -0.00180927
v -0.00205112 0.00337827 -0.00180927
v -0.00120728 0.00377712 -0.00180927
v -0.00036153 0.00396027 -0.00180927
v 0.00051378 0.00394507 -0.00180927
v 0.00135921 0.00372598 -0.00180927
v 0.00211944 0.00332472 -0.00180927
v 0.00275463 0.00278409 -0.00180927
v 0.00309187 0.00238113 -0.00180927
v 0.00336693 0.00195568 -0.00180927
v 0.00323618 0.00186434 -0.00199310
v 0.00327701 0.00189286 -0.00197482
v 0.00331031 0.00191613 -0.00194749
v 0.00333488 0.00193330 -0.00191555
v 0.00335275 0.00194578 -0.00187902
v 0.00336273 0.00195276 -0.00184394
v 0.00321783 0.00215544 -0.00189272
v 0.00320935 0.00214874 -0.00190990
v 0.00319993 0.00214130 -0.00192530
v 0.00290863 0.00253899 -0.00192530
v 0.00273531 0.00273501 -0.00192530
v 0.00243948 0.00301788 -0.00192530
v 0.00206333 0.00330395 -0.00192530
v 0.00169784 0.00351941 -0.00192530
v 0.00129820 0.00369668 -0.00192530
v 0.00088510 0.00382429 -0.00192530
v 0.00044982 0.00390359 -0.00192530
v 0.00001612 0.00392985 -0.00192530
v -0.00042473 0.00390415 -0.00192530
v -0.00084868 0.00382930 -0.00192530
v -0.00126507 0.00370597 -0.00192530
v -0.00169387 0.00352316 -0.00192530
v -0.00205891 0.00331757 -0.00192530
v -0.00225171 0.00318797 -0.00192530
v -0.00263056 0.00288373 -0.00192530
v -0.00261959 0.00286897 -0.00194425
v -0.00260768 0.00285295 -0.00196018
v -0.00268792 0.00260845 -0.00199880
v -0.00277517 0.00253221 -0.00199880
v -0.00279928 0.00257111 -0.00199375
v -0.00282340 0.00261000 -0.00197859
v -0.00284550 0.00264566 -0.00195333
v -0.00286352 0.00267472 -0.00191908
v -0.00287643 0.00269554 -0.00187932
v -0.00288385 0.00270752 -0.00183759
v -0.00282012 0.00276809 -0.00180927
v -0.00271930 0.00264634 -0.00199310
v -0.00275078 0.00268436 -0.00197482
v -0.00277646 0.00271537 -0.00194749
v -0.00279541 0.00273826 -0.00191555
v -0.00280919 0.00275490 -0.00187902
v -0.00281688 0.00276419 -0.00184394
v -0.00325728 0.00279111 -0.00190971
v -0.00325512 0.00275053 -0.00191441
v -0.00324821 0.00272478 -0.00191594
v -0.00322959 0.00268986 -0.00191569
v -0.00320195 0.00266155 -0.00191239
v -0.00318532 0.00265035 -0.00190971
v -0.00316676 0.00264104 -0.00190635
v -0.00312217 0.00262830 -0.00189727
v -0.00307932 0.00262572 -0.00188769
v -0.00303164 0.00263186 -0.00187635
v -0.00295929 0.00265779 -0.00185803
v -0.00288385 0.00270752 -0.00183759
v -0.00277517 0.00253221 -0.00199880
v -0.00279928 0.00257111 -0.00199375
v -0.00282340 0.00261000 -0.00197859
v -0.00284550 0.00264566 -0.00195333
v -0.00286352 0.00267472 -0.00191908
v -0.00287643 0.00269554 -0.00187932
v -0.00286008 0.00247872 -0.00199880
v -0.00294892 0.00244435 -0.00199880
v -0.00304170 0.00242911 -0.00199880
v -0.00313933 0.00243474 -0.00199880
v -0.00321879 0.00245995 -0.00199880
v -0.00326344 0.00248474 -0.00199880
v -0.00330512 0.00251666 -0.00199880
v -0.00330341 0.00260187 -0.00199071
v -0.00329103 0.00268464 -0.00196657
v -0.00327666 0.00273844 -0.00194164
v -0.00295545 0.00257535 -0.00196103
v -0.00300062 0.00255853 -0.00196408
v -0.00303552 0.00255049 -0.00196596
v -0.00306599 0.00254621 -0.00196779
v -0.00310289 0.00254572 -0.00196958
v -0.00313075 0.00254822 -0.00197107
v -0.00316118 0.00255496 -0.00197239
v -0.00335964 0.00185064 -0.00800404
v -0.00342093 0.00096236 -0.00800404
v -0.00333036 0.00214611 -0.00803916
v -0.00331993 0.00217470 -0.00805476
v -0.00331351 0.00212398 -0.00806747
v -0.00326830 0.00172170 -0.00809880
v -0.00332100 0.00095783 -0.00809880
v -0.00341410 0.00096205 -0.00803546
v -0.00340328 0.00096156 -0.00805572
v -0.00338666 0.00096081 -0.00807426
v -0.00336594 0.00095987 -0.00808815
v -0.00334411 0.00095888 -0.00809610
v -0.00335570 0.00134253 -0.00807804
v -0.00337215 0.00134328 -0.00806205
v -0.00334151 0.00178742 -0.00806205
v 0.00197783 -0.00830039 -0.00809880
v 0.00031801 -0.00735673 -0.00809880
v -0.00116157 -0.00596339 -0.00809880
v -0.00232014 -0.00418894 -0.00809880
v -0.00305743 -0.00216916 -0.00809880
v -0.00331188 -0.00059148 -0.00809880
v -0.00332100 0.00095783 -0.00809880
v 0.00196856 -0.00832490 -0.00809591
v 0.00195984 -0.00834797 -0.00808739
v 0.00195294 -0.00836620 -0.00807550
v 0.00194677 -0.00838253 -0.00805867
v 0.00194226 -0.00839446 -0.00803862
v 0.00193911 -0.00840280 -0.00800404
v -0.00342093 0.00096236 -0.00800404
v -0.00330574 -0.00146209 -0.00800404
v -0.00268697 -0.00363250 -0.00800404
v -0.00171760 -0.00540936 -0.00800404
v -0.00042425 -0.00688686 -0.00800404
v 0.00072138 -0.00776438 -0.00800404
v -0.00341410 0.00096205 -0.00803546
v -0.00340328 0.00096156 -0.00805572
v -0.00338666 0.00096081 -0.00807426
v -0.00336594 0.00095987 -0.00808815
v -0.00334411 0.00095888 -0.00809610
v 0.00132502 -0.00808608 -0.00806205
v 0.00132238 -0.00809177 -0.00805428
v 0.00132015 -0.00809660 -0.00804619
v 0.00050005 -0.00758894 -0.00806205
v -0.00007685 -0.00715559 -0.00806205
v -0.00083163 -0.00645562 -0.00806205
v -0.00146793 -0.00571146 -0.00806205
v -0.00206954 -0.00481826 -0.00806205
v -0.00253391 -0.00392686 -0.00806205
v -0.00293135 -0.00290262 -0.00806205
v -0.00321582 -0.00182241 -0.00806205
v -0.00334622 -0.00102411 -0.00806205
v -0.00340682 0.00020517 -0.00807804
v -0.00342333 0.00020449 -0.00806205
v 0.00727415 -0.00221121 -0.00800404
v 0.00734492 -0.00036267 -0.00800404
v 0.00726701 -0.00221115 -0.00803619
v 0.00724982 -0.00221100 -0.00806426
v 0.00723494 -0.00221087 -0.00807823
v 0.00721756 -0.00221073 -0.00808888
v 0.00719641 -0.00221055 -0.00809628
v 0.00717402 -0.00221036 -0.00809880
v 0.00724480 -0.00036181 -0.00809880
v 0.00733808 -0.00036261 -0.00803546
v 0.00732724 -0.00036252 -0.00805572
v 0.00731059 -0.00036238 -0.00807427
v 0.00728983 -0.00036220 -0.00808815
v 0.00726796 -0.00036201 -0.00809610
v 0.00734492 -0.00036267 -0.00800404
v 0.00733808 -0.00036261 -0.00803546
v 0.00732724 -0.00036252 -0.00805572
v 0.00731059 -0.00036238 -0.00807427
v 0.00728983 -0.00036220 -0.00808815
v 0.00726796 -0.00036201 -0.00809610
v 0.00724480 -0.00036181 -0.00809880
v 0.00741043 0.00044694 -0.00809880
v 0.00730383 0.00009442 -0.00809880
v 0.00726401 -0.00013153 -0.00809880
v 0.00750263 0.00040759 -0.00800454
v 0.00749622 0.00041032 -0.00803584
v 0.00748620 0.00041460 -0.00805599
v 0.00747087 0.00042114 -0.00807442
v 0.00745179 0.00042928 -0.00808822
v 0.00743170 0.00043786 -0.00809612
v 0.00738334 -0.00001845 -0.00800257
v 0.00743305 0.00019659 -0.00800299
v 0.00730676 -0.00024968 -0.00808234
v 0.00732057 -0.00025056 -0.00807138
v 0.00734143 -0.00007602 -0.00807143
v 0.00736106 0.00003317 -0.00807146
v 0.00738595 0.00014247 -0.00807148
v 0.00743579 0.00031336 -0.00807150
v 0.00744406 0.00031035 -0.00806207
v 0.00745067 0.00030796 -0.00805234
v 0.00750263 0.00040759 -0.00800454
v 0.00749622 0.00041032 -0.00803584
v 0.00748620 0.00041460 -0.00805599
v 0.00747087 0.00042114 -0.00807442
v 0.00745179 0.00042928 -0.00808822
v 0.00743170 0.00043786 -0.00809612
v 0.00741043 0.00044694 -0.00809880
v 0.00808487 0.00129468 -0.00828834
v 0.00772205 0.00090244 -0.00816638
v 0.00808487 0.00129468 -0.00828834
v 0.00762801 0.00068579 -0.00804031
v 0.00780019 0.00096689 -0.00813148
v 0.00753723 0.00055328 -0.00807324
v 0.00754363 0.00055133 -0.00806471
v 0.00754883 0.00054998 -0.00805613
v -0.00326830 0.00172170 -0.00199880
v -0.00332100 0.00095783 -0.00199880
v -0.00331351 0.00212398 -0.00203014
v -0.00332014 0.00217495 -0.00204321
v -0.00333093 0.00214285 -0.00205922
v -0.00335964 0.00185064 -0.00209357
v -0.00342093 0.00096236 -0.00209357
v -0.00335276 0.00095927 -0.00200397
v -0.00337356 0.00096021 -0.00201371
v -0.00339297 0.00096109 -0.00202933
v -0.00340793 0.00096177 -0.00204927
v -0.00341701 0.00096218 -0.00207065
v -0.00337215 0.00134328 -0.00203556
v -0.00336036 0.00134274 -0.00202339
v -0.00334826 0.00134220 -0.00201437
v -0.00334151 0.00178742 -0.00203556
v 0.00193911 -0.00840280 -0.00209357
v 0.00026936 -0.00745503 -0.00209357
v -0.00122100 -0.00605734 -0.00209357
v -0.00239177 -0.00427726 -0.00209357
v -0.00314237 -0.00224906 -0.00209357
v -0.00340970 -0.00062910 -0.00209357
v -0.00342093 0.00096236 -0.00209357
v 0.00194186 -0.00839551 -0.00206142
v 0.00194852 -0.00837792 -0.00203335
v 0.00195621 -0.00835756 -0.00201579
v 0.00196628 -0.00833092 -0.00200334
v 0.00197783 -0.00830039 -0.00199880
v -0.00332100 0.00095783 -0.00199880
v -0.00320480 -0.00145293 -0.00199880
v -0.00258497 -0.00360974 -0.00199880
v -0.00161523 -0.00537241 -0.00199880
v -0.00032331 -0.00683370 -0.00199880
v 0.00079322 -0.00768145 -0.00199880
v -0.00335276 0.00095927 -0.00200397
v -0.00337356 0.00096021 -0.00201371
v -0.00339297 0.00096109 -0.00202933
v -0.00340793 0.00096177 -0.00204927
v -0.00341701 0.00096218 -0.00207065
v -0.00342329 0.00019309 -0.00203556
v -0.00343079 0.00019277 -0.00204602
v -0.00334384 -0.00104342 -0.00203556
v -0.00320945 -0.00185334 -0.00203556
v -0.00291921 -0.00293978 -0.00203556
v -0.00252047 -0.00395626 -0.00203556
v -0.00205017 -0.00485088 -0.00203556
v -0.00144882 -0.00573640 -0.00203556
v -0.00080674 -0.00648154 -0.00203556
v -0.00005373 -0.00717450 -0.00203556
v 0.00051423 -0.00759863 -0.00203556
v 0.00134298 -0.00807472 -0.00201926
v 0.00133527 -0.00809145 -0.00203556
v 0.00717402 -0.00221036 -0.00199880
v 0.00724480 -0.00036181 -0.00199880
v 0.00719799 -0.00221056 -0.00200170
v 0.00722054 -0.00221076 -0.00201022
v 0.00724452 -0.00221096 -0.00202769
v 0.00726231 -0.00221111 -0.00205142
v 0.00727058 -0.00221118 -0.00207186
v 0.00727415 -0.00221121 -0.00209357
v 0.00734492 -0.00036267 -0.00209357
v 0.00727662 -0.00036208 -0.00200397
v 0.00729747 -0.00036226 -0.00201371
v 0.00731691 -0.00036243 -0.00202933
v 0.00733190 -0.00036256 -0.00204927
v 0.00734100 -0.00036264 -0.00207065
v 0.00724480 -0.00036181 -0.00199880
v 0.00727662 -0.00036208 -0.00200397
v 0.00729747 -0.00036226 -0.00201371
v 0.00731691 -0.00036243 -0.00202933
v 0.00733190 -0.00036256 -0.00204927
v 0.00734100 -0.00036264 -0.00207065
v 0.00734492 -0.00036267 -0.00209357
v 0.00750263 0.00040759 -0.00209307
v 0.00740084 0.00006785 -0.00209500
v 0.00736301 -0.00014803 -0.00209479
v 0.00741043 0.00044694 -0.00199880
v 0.00743965 0.00043446 -0.00200394
v 0.00745881 0.00042629 -0.00201362
v 0.00747668 0.00041866 -0.00202913
v 0.00749050 0.00041277 -0.00204896
v 0.00749894 0.00040916 -0.00207023
v 0.00728543 0.00000456 -0.00199880
v 0.00733762 0.00022791 -0.00199880
v 0.00742681 0.00031791 -0.00201787
v 0.00743617 0.00031451 -0.00202610
v 0.00738576 0.00014168 -0.00202613
v 0.00736113 0.00003352 -0.00202615
v 0.00734143 -0.00007602 -0.00202618
v 0.00732039 -0.00025293 -0.00202623
v 0.00733206 -0.00025366 -0.00203945
v 0.00808487 0.00129468 -0.00180927
v 0.00780791 0.00097754 -0.00196165
v 0.00764640 0.00072039 -0.00204887
v 0.00756413 0.00055505 -0.00208206
v 0.00750263 0.00040759 -0.00209307
v 0.00808487 0.00129468 -0.00180927
v 0.00741043 0.00044694 -0.00199880
v 0.00758802 0.00072351 -0.00197099
v 0.00783599 0.00103843 -0.00189294
v 0.00743965 0.00043446 -0.00200394
v 0.00745881 0.00042629 -0.00201362
v 0.00747668 0.00041866 -0.00202913
v 0.00749050 0.00041277 -0.00204896
v 0.00749894 0.00040916 -0.00207023
v 0.00759615 0.00066268 -0.00201247
v 0.00751535 0.00048591 -0.00203976
v 0.00750574 0.00048935 -0.00202724
v 0.00762576 0.00071476 -0.00200327
v 0.00770729 0.00084587 -0.00197322
v -0.00331351 0.00212398 -0.00203014
v -0.00328903 0.00214624 -0.00199880
v -0.00326830 0.00172170 -0.00199880
v -0.00326830 0.00172170 -0.00199880
v 0.00272124 -0.00857843 -0.00249880
v 0.00264000 -0.00861458 -0.00349880
v 0.00719814 -0.00380135 -0.00249880
v 0.00610407 -0.00578303 -0.00249880
v 0.00473021 -0.00728700 -0.00249880
v 0.00375664 -0.00801598 -0.00249880
v 0.00726025 -0.00364379 -0.00349880
v 0.00437243 -0.00758072 -0.00349880
v 0.00586696 -0.00609624 -0.00349880
v 0.00666027 -0.00491633 -0.00349880
v 0.00264000 -0.00861458 -0.00659880
v 0.00272124 -0.00857843 -0.00759880
v 0.00437243 -0.00758072 -0.00659880
v 0.00586696 -0.00609624 -0.00659880
v 0.00666027 -0.00491633 -0.00659880
v 0.00726025 -0.00364379 -0.00659880
v 0.00719814 -0.00380135 -0.00759880
v 0.00438554 -0.00757052 -0.00759880
v 0.00582733 -0.00614594 -0.00759880
v 0.00660164 -0.00501839 -0.00759880
v 0.00264000 -0.00861458 -0.00349880
v 0.00252687 -0.00864855 -0.00349880
v 0.00242048 -0.00865428 -0.00349880
v 0.00235586 -0.00864563 -0.00349880
v 0.00229319 -0.00862788 -0.00349880
v 0.00272124 -0.00857843 -0.00249880
v 0.00239350 -0.00858665 -0.00223868
v 0.00250637 -0.00861421 -0.00232038
v 0.00261689 -0.00861046 -0.00240826
v 0.00239350 -0.00858665 -0.00223868
v 0.00240749 -0.00858769 -0.00222169
v 0.00242241 -0.00858362 -0.00220579
v 0.00243755 -0.00857464 -0.00219173
v 0.00245220 -0.00856117 -0.00218019
v 0.00250637 -0.00861421 -0.00232038
v 0.00261689 -0.00861046 -0.00240826
v 0.00272124 -0.00857843 -0.00249880
v 0.00272124 -0.00857843 -0.00249880
v 0.00254311 -0.00859905 -0.00228250
v 0.00262441 -0.00860527 -0.00238202
v 0.00267421 -0.00859588 -0.00244303
v 0.00239350 -0.00858665 -0.00223868
v 0.00227996 -0.00854143 -0.00216468
v 0.00214669 -0.00848817 -0.00211679
v 0.00204711 -0.00844767 -0.00209937
v 0.00193911 -0.00840280 -0.00209357
v 0.00240749 -0.00858769 -0.00222169
v 0.00242241 -0.00858362 -0.00220579
v 0.00243755 -0.00857464 -0.00219173
v 0.00245220 -0.00856117 -0.00218019
v 0.00197783 -0.00830039 -0.00199880
v 0.00216786 -0.00840910 -0.00202387
v 0.00231831 -0.00849171 -0.00208341
v 0.00239475 -0.00853119 -0.00213129
v 0.00194186 -0.00839551 -0.00206142
v 0.00194852 -0.00837792 -0.00203335
v 0.00195621 -0.00835756 -0.00201579
v 0.00196628 -0.00833092 -0.00200334
v 0.00200279 -0.00840731 -0.00204217
v 0.00210317 -0.00844228 -0.00204634
v 0.00215496 -0.00846539 -0.00205898
v 0.00223051 -0.00849956 -0.00208554
v 0.00229826 -0.00852956 -0.00211761
v 0.00233632 -0.00854574 -0.00213912
v 0.00717402 -0.00221036 -0.00199880
v 0.00718533 -0.00289869 -0.00203527
v 0.00720340 -0.00339634 -0.00215206
v 0.00721068 -0.00353292 -0.00221725
v 0.00721480 -0.00359566 -0.00226119
v 0.00721931 -0.00365251 -0.00231519
v 0.00197783 -0.00830039 -0.00199880
v 0.00361201 -0.00748139 -0.00199880
v 0.00508310 -0.00622458 -0.00199880
v 0.00624856 -0.00461729 -0.00199880
v 0.00680371 -0.00343295 -0.00199880
v 0.00216786 -0.00840910 -0.00202387
v 0.00231831 -0.00849171 -0.00208341
v 0.00239475 -0.00853119 -0.00213129
v 0.00245220 -0.00856117 -0.00218019
v 0.00254311 -0.00859905 -0.00228250
v 0.00262441 -0.00860527 -0.00238202
v 0.00267421 -0.00859588 -0.00244303
v 0.00272124 -0.00857843 -0.00249880
v 0.00719814 -0.00380135 -0.00249880
v 0.00610407 -0.00578303 -0.00249880
v 0.00473021 -0.00728700 -0.00249880
v 0.00375664 -0.00801598 -0.00249880
v 0.00721741 -0.00372982 -0.00240594
v 0.00314356 -0.00811529 -0.00208890
v 0.00319857 -0.00815162 -0.00213325
v 0.00375993 -0.00788835 -0.00219880
v 0.00425545 -0.00753874 -0.00219880
v 0.00502854 -0.00687216 -0.00219880
v 0.00571058 -0.00612748 -0.00219880
v 0.00632491 -0.00527747 -0.00219880
v 0.00684627 -0.00423752 -0.00214534
v 0.00687107 -0.00429404 -0.00219880
v 0.00705886 -0.00353554 -0.00208057
v 0.00707852 -0.00357079 -0.00210251
v 0.00711086 -0.00362286 -0.00214534
v 0.00717402 -0.00221036 -0.00199880
v 0.00719799 -0.00221056 -0.00200170
v 0.00722054 -0.00221076 -0.00201022
v 0.00724452 -0.00221096 -0.00202769
v 0.00726231 -0.00221111 -0.00205142
v 0.00727058 -0.00221118 -0.00207186
v 0.00727415 -0.00221121 -0.00209357
v 0.00718533 -0.00289869 -0.00203527
v 0.00720340 -0.00339634 -0.00215206
v 0.00721068 -0.00353292 -0.00221725
v 0.00721480 -0.00359566 -0.00226119
v 0.00721931 -0.00365251 -0.00231519
v 0.00723365 -0.00361638 -0.00234668
v 0.00722921 -0.00363500 -0.00233032
v 0.00724490 -0.00304371 -0.00214357
v 0.00723492 -0.00344088 -0.00224303
v 0.00723367 -0.00353993 -0.00229146
v 0.00723609 -0.00255294 -0.00203791
v 0.00722953 -0.00297360 -0.00208093
v 0.00723365 -0.00361638 -0.00234668
v 0.00722921 -0.00363500 -0.00233032
v 0.00721931 -0.00365251 -0.00231519
v 0.00721741 -0.00372982 -0.00240594
v 0.00719814 -0.00380135 -0.00249880
v 0.00719814 -0.00380135 -0.00249880
v 0.00722474 -0.00371084 -0.00242238
v 0.00723365 -0.00361638 -0.00234668
v 0.00722474 -0.00371084 -0.00242238
v 0.00719814 -0.00380135 -0.00249880
v 0.00726025 -0.00364379 -0.00349880
v 0.00730070 -0.00344666 -0.00349880
v 0.00729071 -0.00353592 -0.00349880
v 0.00727793 -0.00359055 -0.00349880
v 0.00229319 -0.00862788 -0.00659880
v 0.00239681 -0.00865185 -0.00659880
v 0.00250310 -0.00865150 -0.00659880
v 0.00257288 -0.00863815 -0.00659880
v 0.00264000 -0.00861458 -0.00659880
v 0.00239350 -0.00858665 -0.00785893
v 0.00272124 -0.00857843 -0.00759880
v 0.00261687 -0.00861047 -0.00768937
v 0.00250636 -0.00861422 -0.00777725
v 0.00239350 -0.00858665 -0.00785893
v 0.00240749 -0.00858769 -0.00787592
v 0.00242241 -0.00858362 -0.00789182
v 0.00243755 -0.00857464 -0.00790588
v 0.00245220 -0.00856117 -0.00791741
v 0.00193911 -0.00840280 -0.00800404
v 0.00211444 -0.00847513 -0.00798791
v 0.00226612 -0.00853593 -0.00793954
v 0.00233289 -0.00856246 -0.00790327
v 0.00197783 -0.00830039 -0.00809880
v 0.00196856 -0.00832490 -0.00809591
v 0.00195984 -0.00834797 -0.00808739
v 0.00195294 -0.00836620 -0.00807550
v 0.00194677 -0.00838253 -0.00805867
v 0.00194226 -0.00839446 -0.00803862
v 0.00234591 -0.00850609 -0.00799862
v 0.00218664 -0.00841975 -0.00806840
v 0.00208790 -0.00836343 -0.00809053
v 0.00201231 -0.00838320 -0.00807893
v 0.00209827 -0.00843921 -0.00805320
v 0.00214755 -0.00846228 -0.00804045
v 0.00222711 -0.00849776 -0.00801385
v 0.00230480 -0.00853225 -0.00797668
v 0.00233925 -0.00854759 -0.00795566
v 0.00272124 -0.00857843 -0.00759880
v 0.00272124 -0.00857843 -0.00759880
v 0.00261687 -0.00861047 -0.00768937
v 0.00250636 -0.00861422 -0.00777725
v 0.00239350 -0.00858665 -0.00785893
v 0.00240749 -0.00858769 -0.00787592
v 0.00242241 -0.00858362 -0.00789182
v 0.00243755 -0.00857464 -0.00790588
v 0.00245220 -0.00856117 -0.00791741
v 0.00264136 -0.00860318 -0.00769471
v 0.00255259 -0.00860117 -0.00780372
v 0.00250399 -0.00858657 -0.00786086
v 0.00717402 -0.00221036 -0.00809880
v 0.00719156 -0.00305476 -0.00803736
v 0.00720385 -0.00336675 -0.00795371
v 0.00721189 -0.00353900 -0.00787241
v 0.00721564 -0.00360342 -0.00782809
v 0.00721931 -0.00365251 -0.00778242
v 0.00727415 -0.00221121 -0.00800404
v 0.00726701 -0.00221115 -0.00803619
v 0.00724982 -0.00221100 -0.00806426
v 0.00723494 -0.00221087 -0.00807823
v 0.00721756 -0.00221073 -0.00808888
v 0.00719641 -0.00221055 -0.00809628
v 0.00723365 -0.00361638 -0.00775093
v 0.00723369 -0.00352763 -0.00781466
v 0.00723543 -0.00340737 -0.00786916
v 0.00724861 -0.00292446 -0.00797032
v 0.00722921 -0.00363500 -0.00776729
v 0.00724801 -0.00257082 -0.00804140
v 0.00724255 -0.00257122 -0.00805000
v 0.00723575 -0.00257161 -0.00805858
v 0.00722992 -0.00299008 -0.00801321
v 0.00722741 -0.00323749 -0.00796174
v 0.00717402 -0.00221036 -0.00809880
v 0.00651104 -0.00411311 -0.00809880
v 0.00540651 -0.00585221 -0.00809880
v 0.00394241 -0.00725001 -0.00809880
v 0.00297877 -0.00785860 -0.00809880
v 0.00197783 -0.00830039 -0.00809880
v 0.00719156 -0.00305476 -0.00803736
v 0.00720385 -0.00336675 -0.00795371
v 0.00721189 -0.00353900 -0.00787241
v 0.00721564 -0.00360342 -0.00782809
v 0.00721931 -0.00365251 -0.00778242
v 0.00719814 -0.00380135 -0.00759880
v 0.00721741 -0.00372989 -0.00769159
v 0.00272124 -0.00857843 -0.00759880
v 0.00438554 -0.00757052 -0.00759880
v 0.00582733 -0.00614594 -0.00759880
v 0.00660164 -0.00501839 -0.00759880
v 0.00264136 -0.00860318 -0.00769471
v 0.00255259 -0.00860117 -0.00780372
v 0.00250399 -0.00858657 -0.00786086
v 0.00245220 -0.00856117 -0.00791741
v 0.00234591 -0.00850609 -0.00799862
v 0.00218664 -0.00841975 -0.00806840
v 0.00208790 -0.00836343 -0.00809053
v 0.00692019 -0.00389043 -0.00801392
v 0.00693512 -0.00392225 -0.00799510
v 0.00696478 -0.00397713 -0.00795223
v 0.00699168 -0.00403173 -0.00789880
v 0.00670029 -0.00463300 -0.00789880
v 0.00614223 -0.00555263 -0.00789880
v 0.00572736 -0.00610684 -0.00789880
v 0.00506860 -0.00683295 -0.00789880
v 0.00424486 -0.00754679 -0.00789880
v 0.00376047 -0.00788800 -0.00789880
v 0.00280323 -0.00829643 -0.00800407
v 0.00286238 -0.00833800 -0.00795385
v 0.00291761 -0.00836789 -0.00789880
v 0.00719814 -0.00380135 -0.00759880
v 0.00719814 -0.00380135 -0.00759880
v 0.00721741 -0.00372989 -0.00769159
v 0.00721931 -0.00365251 -0.00778242
v 0.00722921 -0.00363500 -0.00776729
v 0.00723365 -0.00361638 -0.00775093
v 0.00722474 -0.00371084 -0.00767523
v 0.00726025 -0.00364379 -0.00659880
v 0.00728622 -0.00355781 -0.00659880
v 0.00729599 -0.00350256 -0.00659880
v 0.00730070 -0.00344666 -0.00659880
v 0.00719814 -0.00380135 -0.00759880
v 0.00722474 -0.00371084 -0.00767523
v 0.00723365 -0.00361638 -0.00775093
v 0.00211025 -0.00029594 -0.00372314
v 0.00214498 0.00022028 -0.00373521
v 0.00205893 0.00073756 -0.00374783
v 0.00185894 0.00121473 -0.00375999
v 0.00185894 0.00121473 -0.00633761
v 0.00205893 0.00073756 -0.00634978
v 0.00214498 0.00022028 -0.00636240
v 0.00211025 -0.00029594 -0.00637447
v 0.00211025 -0.00029594 -0.00809880
v -0.00231510 0.00052033 -0.00809880
v -0.00215313 0.00103800 -0.00809880
v -0.00187198 0.00150186 -0.00809880
v -0.00148799 0.00188497 -0.00809880
v -0.00102348 0.00216504 -0.00809880
v -0.00050544 0.00232581 -0.00809880
v 0.00003602 0.00235793 -0.00809880
v 0.00056944 0.00225954 -0.00809880
v 0.00106381 0.00203636 -0.00809880
v 0.00149041 0.00170135 -0.00809880
v 0.00182443 0.00127398 -0.00809880
v 0.00204647 0.00077910 -0.00809880
v 0.00214363 0.00024545 -0.00809880
v -0.00231510 0.00052033 -0.00199880
v 0.00211025 -0.00029594 -0.00199880
v 0.00214363 0.00024545 -0.00199880
v 0.00204647 0.00077910 -0.00199880
v 0.00182443 0.00127398 -0.00199880
v 0.00149041 0.00170135 -0.00199880
v 0.00106381 0.00203636 -0.00199880
v 0.00056944 0.00225954 -0.00199880
v 0.00003602 0.00235793 -0.00199880
v -0.00050544 0.00232581 -0.00199880
v -0.00102348 0.00216504 -0.00199880
v -0.00148799 0.00188497 -0.00199880
v -0.00187198 0.00150186 -0.00199880
v -0.00215313 0.00103800 -0.00199880
f 2 1 3
f 2 3 4
f 6 8 9
f 6 9 10
f 5 7 8
f 5 8 6
f 14 17 13
f 18 17 14
f 21 14 15
f 21 15 16
f 21 18 14
f 20 16 11
f 20 21 16
f 19 20 11
f 25 11 12
f 25 19 11
f 24 25 12
f 23 24 12
f 22 23 12
f 85 87 86
f 85 99 87
f 84 99 85
f 98 99 84
f 83 98 84
f 97 98 83
f 29 41 28
f 29 42 41
f 81 97 83
f 82 81 83
f 96 97 81
f 30 43 42
f 30 42 29
f 44 43 30
f 80 96 81
f 46 45 44
f 95 96 80
f 31 44 30
f 31 46 44
f 79 95 80
f 94 95 79
f 32 46 31
f 32 47 46
f 78 94 79
f 93 94 78
f 33 47 32
f 33 48 47
f 77 93 78
f 92 93 77
f 34 49 48
f 34 48 33
f 76 92 77
f 91 92 76
f 35 50 49
f 35 49 34
f 75 91 76
f 36 51 50
f 36 50 35
f 68 75 67
f 68 91 75
f 68 90 91
f 62 53 52
f 69 90 68
f 69 89 90
f 37 52 51
f 37 51 36
f 37 62 52
f 70 89 69
f 71 89 70
f 72 89 71
f 38 60 61
f 38 61 62
f 38 62 37
f 73 88 89
f 73 89 72
f 74 88 73
f 66 88 74
f 65 88 66
f 64 88 65
f 26 88 64
f 39 55 56
f 39 56 57
f 39 57 58
f 39 58 59
f 39 59 60
f 39 60 38
f 40 55 39
f 40 54 55
f 40 63 54
f 40 64 63
f 27 26 64
f 27 64 40
f 101 103 102
f 101 100 103
f 104 105 109
f 115 111 110
f 114 115 110
f 113 114 110
f 112 110 106
f 112 113 110
f 118 106 107
f 118 112 106
f 117 107 108
f 117 118 107
f 116 108 109
f 116 117 108
f 116 109 105
f 122 119 121
f 132 133 120
f 132 120 123
f 131 123 124
f 131 132 123
f 130 131 124
f 126 124 125
f 129 130 124
f 128 129 124
f 127 124 126
f 127 128 124
f 143 141 142
f 144 140 141
f 144 141 143
f 145 139 140
f 145 140 144
f 146 138 139
f 146 139 145
f 147 137 138
f 147 138 146
f 148 137 147
f 149 136 137
f 149 137 148
f 150 135 136
f 150 136 149
f 151 134 135
f 152 158 159
f 153 158 152
f 154 157 158
f 154 158 153
f 155 156 157
f 155 157 154
f 178 165 166
f 177 178 166
f 176 166 167
f 176 177 166
f 175 167 168
f 175 176 167
f 174 168 169
f 174 175 168
f 173 169 160
f 173 174 169
f 172 160 161
f 172 161 162
f 172 173 160
f 171 162 163
f 171 172 162
f 170 163 164
f 170 171 163
f 186 183 184
f 186 184 185
f 221 222 223
f 221 223 224
f 220 224 179
f 220 221 224
f 219 179 180
f 219 220 179
f 218 219 180
f 217 180 181
f 217 218 180
f 241 182 183
f 242 241 183
f 242 186 187
f 242 183 186
f 240 181 182
f 240 217 181
f 240 182 241
f 243 242 187
f 239 216 217
f 239 217 240
f 244 187 188
f 244 243 187
f 238 216 239
f 238 215 216
f 245 244 188
f 237 215 238
f 237 214 215
f 246 245 188
f 236 214 237
f 213 214 236
f 189 246 188
f 189 247 246
f 235 213 236
f 212 213 235
f 248 247 189
f 211 212 235
f 234 211 235
f 210 234 233
f 210 211 234
f 190 248 189
f 190 249 248
f 190 250 249
f 209 233 232
f 209 210 233
f 191 226 225
f 191 250 190
f 191 225 250
f 208 232 231
f 208 209 232
f 207 231 230
f 207 208 231
f 192 227 226
f 192 226 191
f 206 230 229
f 206 207 230
f 202 203 227
f 201 227 192
f 201 202 227
f 204 228 227
f 204 227 203
f 200 192 193
f 200 201 192
f 199 200 193
f 205 229 228
f 205 228 204
f 205 206 229
f 198 199 193
f 197 198 193
f 196 197 193
f 195 196 193
f 194 195 193
f 251 267 269
f 252 270 271
f 265 266 268
f 264 267 251
f 263 252 255
f 262 264 251
f 259 262 253
f 257 258 261
f 256 260 254
f 274 272 273
f 275 274 273
f 277 290 288
f 285 289 287
f 285 278 289
f 286 276 278
f 286 278 285
f 281 276 286
f 280 279 276
f 284 280 276
f 282 276 281
f 283 276 282
f 283 284 276
f 296 302 303
f 296 297 302
f 295 296 303
f 294 303 304
f 294 295 303
f 293 304 305
f 293 294 304
f 292 305 306
f 292 293 305
f 291 306 307
f 291 307 308
f 291 292 306
f 298 308 301
f 298 291 308
f 298 300 299
f 314 312 313
f 315 311 312
f 315 312 314
f 316 311 315
f 309 310 311
f 309 311 316
f 327 318 317
f 327 317 335
f 326 335 336
f 326 327 335
f 325 336 337
f 325 326 336
f 324 328 329
f 324 337 328
f 324 325 337
f 323 329 330
f 323 324 329
f 322 330 331
f 322 331 332
f 322 323 330
f 321 332 333
f 321 322 332
f 320 333 334
f 320 321 333
f 319 320 334
f 354 350 351
f 354 351 352
f 354 352 353
f 355 350 354
f 349 355 356
f 349 350 355
f 357 349 356
f 348 357 358
f 348 349 357
f 398 362 363
f 399 398 363
f 399 363 364
f 397 361 362
f 397 362 398
f 400 399 364
f 400 364 365
f 396 361 397
f 396 360 361
f 401 400 365
f 401 365 366
f 395 360 396
f 395 359 360
f 402 401 366
f 402 366 367
f 394 358 359
f 394 359 395
f 403 402 367
f 403 367 368
f 393 347 348
f 393 358 394
f 393 348 358
f 404 403 368
f 369 404 368
f 392 346 347
f 392 347 393
f 405 404 369
f 370 405 369
f 391 346 392
f 371 405 370
f 371 406 405
f 372 406 371
f 373 406 372
f 345 346 391
f 380 374 375
f 380 375 376
f 380 376 377
f 380 377 378
f 380 378 379
f 381 373 374
f 381 406 373
f 381 407 406
f 381 374 380
f 338 383 382
f 338 407 381
f 338 382 407
f 339 384 383
f 339 385 384
f 339 386 385
f 339 383 338
f 343 344 345
f 342 343 345
f 342 345 391
f 342 391 390
f 340 387 386
f 340 388 387
f 340 386 339
f 341 342 390
f 341 388 340
f 341 389 388
f 341 390 389
f 409 426 427
f 421 409 411
f 420 423 425
f 420 425 408
f 416 412 415
f 422 424 421
f 419 411 414
f 418 420 410
f 418 413 417
f 433 429 430
f 432 431 428
f 443 439 438
f 443 440 439
f 442 438 437
f 442 443 438
f 441 437 436
f 441 442 437
f 445 441 436
f 444 436 435
f 444 445 436
f 434 444 435
f 449 452 448
f 453 452 449
f 454 449 450
f 454 453 449
f 455 450 451
f 455 454 450
f 446 451 447
f 446 455 451
f 464 460 459
f 464 461 460
f 463 459 458
f 463 464 459
f 462 463 458
f 468 458 457
f 468 462 458
f 467 468 457
f 466 457 456
f 466 467 457
f 465 466 456
f 476 471 472
f 476 475 471
f 477 472 473
f 477 476 472
f 478 473 474
f 478 477 473
f 469 474 470
f 469 478 474
f 479 482 481
f 480 482 479
f 503 496 500
f 503 500 501
f 503 501 502
f 493 494 495
f 492 493 495
f 504 497 496
f 504 496 503
f 490 491 492
f 490 498 497
f 490 499 498
f 490 495 499
f 490 492 495
f 489 504 505
f 489 497 504
f 489 490 497
f 488 505 506
f 488 489 505
f 487 488 506
f 486 487 506
f 507 486 506
f 485 486 507
f 484 485 507
f 483 484 507
f 511 509 510
f 512 509 511
f 513 508 509
f 513 541 508
f 513 509 512
f 514 542 541
f 514 541 513
f 515 542 514
f 543 542 515
f 516 544 543
f 516 543 515
f 538 539 540
f 517 540 544
f 517 544 516
f 518 535 536
f 518 536 537
f 518 537 538
f 518 538 540
f 518 540 517
f 528 529 530
f 528 530 531
f 528 531 532
f 528 532 533
f 528 533 534
f 528 534 535
f 528 535 518
f 527 528 518
f 526 527 518
f 525 526 518
f 524 525 518
f 523 524 518
f 519 523 518
f 519 520 521
f 519 521 522
f 519 522 523
f 549 550 546
f 547 548 545
f 560 557 559
f 565 561 563
f 566 558 562
f 567 557 564
f 568 572 556
f 569 557 567
f 570 573 569
f 555 575 571
f 551 574 554
f 576 574 551
f 553 577 552
f 580 578 579
f 581 584 583
f 582 581 583
f 586 588 587
f 586 585 588
f 609 605 608
f 595 600 603
f 597 604 607
f 594 610 612
f 596 606 611
f 591 599 602
f 590 601 596
f 613 598 589
f 593 615 614
f 592 613 589
f 618 616 617
f 644 640 641
f 644 641 642
f 644 642 643
f 639 640 644
f 619 647 648
f 619 648 649
f 619 649 650
f 619 650 651
f 638 644 645
f 638 639 644
f 635 636 637
f 620 637 638
f 620 645 646
f 620 646 647
f 620 635 637
f 620 647 619
f 620 638 645
f 634 635 620
f 621 633 634
f 621 634 620
f 622 632 633
f 622 633 621
f 623 631 632
f 623 632 622
f 624 631 623
f 625 630 631
f 625 631 624
f 629 625 626
f 629 626 627
f 629 627 628
f 629 630 625
f 654 657 652
f 655 656 653
f 667 668 669
f 667 669 670
f 667 670 663
f 659 660 661
f 659 661 662
f 671 663 664
f 671 667 663
f 677 659 658
f 677 664 665
f 677 665 666
f 677 666 660
f 677 660 659
f 678 672 671
f 678 671 664
f 678 664 677
f 679 673 672
f 679 672 678
f 680 673 679
f 681 673 680
f 674 673 681
f 682 674 681
f 676 674 682
f 675 674 676
f 684 701 700
f 684 702 701
f 684 703 702
f 684 683 703
f 687 695 686
f 687 696 695
f 688 696 687
f 689 697 696
f 689 696 688
f 690 697 689
f 685 684 700
f 691 697 690
f 694 700 699
f 694 685 700
f 692 698 697
f 692 697 691
f 693 699 698
f 693 698 692
f 693 694 699
f 714 716 715
f 717 716 714
f 718 714 706
f 718 717 714
f 707 719 718
f 707 720 719
f 707 718 706
f 708 720 707
f 709 721 720
f 709 720 708
f 710 721 709
f 711 722 721
f 711 721 710
f 712 704 722
f 712 722 711
f 713 704 712
f 705 704 713
f 730 733 731
f 729 734 733
f 729 733 730
f 728 735 734
f 728 734 729
f 727 736 735
f 727 735 728
f 726 737 736
f 726 736 727
f 725 738 737
f 725 739 738
f 725 737 726
f 724 740 739
f 724 739 725
f 723 732 740
f 723 740 724
f 764 753 752
f 741 751 756
f 772 754 753
f 772 755 754
f 772 756 755
f 772 753 764
f 772 741 756
f 773 742 741
f 773 764 763
f 773 741 772
f 773 772 764
f 774 773 763
f 774 742 773
f 775 743 742
f 775 763 762
f 775 774 763
f 775 742 774
f 776 743 775
f 776 775 762
f 777 744 743
f 777 762 761
f 777 743 776
f 777 776 762
f 778 744 777
f 778 777 761
f 779 745 744
f 779 761 760
f 779 778 761
f 779 744 778
f 780 745 779
f 780 779 760
f 781 746 745
f 781 760 759
f 781 780 760
f 781 745 780
f 782 746 781
f 782 781 759
f 783 747 746
f 783 759 758
f 783 746 782
f 783 782 759
f 784 748 747
f 784 747 783
f 784 783 758
f 785 748 784
f 785 784 758
f 786 749 748
f 786 758 757
f 786 785 758
f 786 748 785
f 787 757 765
f 787 765 766
f 787 766 767
f 787 767 768
f 787 786 757
f 787 749 786
f 788 749 787
f 788 750 749
f 788 768 769
f 788 769 770
f 788 770 771
f 788 771 750
f 788 787 768
f 795 793 794
f 800 792 793
f 800 793 795
f 799 791 792
f 799 792 800
f 798 790 791
f 798 791 799
f 797 789 790
f 797 790 798
f 796 789 797
f 805 806 807
f 813 807 808
f 813 805 807
f 804 805 813
f 812 804 813
f 803 804 812
f 811 803 812
f 802 803 811
f 810 802 811
f 801 802 810
f 809 801 810
f 821 814 815
f 816 821 815
f 822 821 816
f 817 822 816
f 823 822 817
f 818 823 817
f 824 818 819
f 824 823 818
f 820 824 819
f 829 830 831
f 837 831 832
f 837 829 831
f 836 828 829
f 836 829 837
f 835 827 828
f 835 828 836
f 834 826 827
f 834 827 835
f 833 825 826
f 833 826 834
f 839 846 845
f 839 845 838
f 840 847 846
f 840 846 839
f 841 848 847
f 841 847 840
f 842 849 848
f 842 848 841
f 843 844 849
f 843 849 842
f 854 856 853
f 855 856 854
f 879 864 863
f 879 865 864
f 879 866 865
f 879 863 878
f 880 879 878
f 880 866 879
f 881 858 857
f 881 867 866
f 881 868 867
f 881 869 868
f 881 870 869
f 881 857 870
f 881 866 880
f 881 880 878
f 882 878 877
f 882 881 878
f 882 858 881
f 883 882 877
f 883 858 882
f 884 859 858
f 884 877 876
f 884 883 877
f 884 858 883
f 885 876 875
f 885 884 876
f 885 859 884
f 886 885 875
f 886 859 885
f 887 860 859
f 887 875 874
f 887 886 875
f 887 859 886
f 888 860 887
f 888 887 874
f 889 874 873
f 889 888 874
f 889 860 888
f 890 861 860
f 890 873 872
f 890 889 873
f 890 860 889
f 891 861 890
f 891 890 872
f 892 862 861
f 892 872 871
f 892 861 891
f 892 891 872
f 893 862 892
f 893 892 871
f 894 850 851
f 894 851 852
f 894 852 853
f 894 856 862
f 894 871 850
f 894 853 856
f 894 862 893
f 894 893 871
f 903 896 895
f 904 897 896
f 904 896 903
f 905 898 897
f 905 897 904
f 906 899 898
f 906 898 905
f 907 900 899
f 907 899 906
f 908 900 907
f 909 901 900
f 909 900 908
f 910 902 901
f 910 901 909
f 911 902 910
f 926 927 928
f 934 916 915
f 934 917 916
f 934 918 917
f 934 919 918
f 935 934 915
f 935 933 934
f 936 913 912
f 936 914 913
f 936 915 914
f 936 912 933
f 936 933 935
f 936 935 915
f 937 920 919
f 937 933 932
f 937 919 934
f 937 934 933
f 938 920 937
f 938 937 932
f 939 921 920
f 939 932 931
f 939 938 932
f 939 920 938
f 940 921 939
f 940 939 931
f 941 922 921
f 941 931 930
f 941 940 931
f 941 921 940
f 942 922 941
f 942 941 930
f 943 923 922
f 943 930 929
f 943 922 942
f 943 942 930
f 944 923 943
f 944 943 929
f 945 924 923
f 945 929 928
f 945 923 944
f 945 944 929
f 946 924 945
f 946 945 928
f 947 925 924
f 947 927 925
f 947 924 946
f 947 928 927
f 947 946 928
f 960 966 967
f 960 967 961
f 949 948 962
f 957 959 958
f 956 959 957
f 951 950 952
f 968 962 963
f 968 963 964
f 968 964 965
f 968 965 966
f 968 966 960
f 968 949 962
f 969 950 949
f 969 960 959
f 969 949 968
f 969 968 960
f 970 953 952
f 970 954 953
f 970 955 954
f 970 956 955
f 970 969 959
f 970 950 969
f 970 959 956
f 970 952 950
f 1003 980 979
f 1003 981 980
f 1003 982 981
f 1004 983 982
f 1004 982 1003
f 1004 1003 979
f 1005 984 983
f 1005 985 984
f 1005 986 985
f 1005 987 986
f 1005 988 987
f 1005 983 1004
f 1005 1004 979
f 1006 979 978
f 1006 988 1005
f 1006 1005 979
f 1007 988 1006
f 1007 1006 978
f 1008 978 977
f 1008 989 988
f 1008 1007 978
f 1008 988 1007
f 1009 989 1008
f 1009 1008 977
f 1010 977 976
f 1010 990 989
f 1010 989 1009
f 1010 1009 977
f 1011 1010 976
f 1011 990 1010
f 1012 976 975
f 1012 991 990
f 1012 990 1011
f 1012 1011 976
f 1013 1012 975
f 1013 991 1012
f 1014 975 974
f 1014 992 991
f 1014 1013 975
f 1014 991 1013
f 1015 1014 974
f 1015 992 1014
f 1016 974 973
f 1016 993 992
f 1016 1015 974
f 1016 992 1015
f 1017 993 1016
f 1017 1016 973
f 1018 973 972
f 1018 993 1017
f 1018 1017 973
f 1018 994 993
f 1019 994 1018
f 1019 1018 972
f 1020 972 971
f 1020 994 1019
f 1020 1019 972
f 1020 995 994
f 1021 1020 971
f 1021 995 1020
f 1021 971 997
f 1021 997 998
f 1021 998 999
f 1022 999 1000
f 1022 995 1021
f 1022 1021 999
f 1023 1022 1000
f 1023 996 995
f 1023 1000 1001
f 1023 1001 1002
f 1023 1002 996
f 1023 995 1022
f 1025 1024 1033
f 1026 1033 1034
f 1026 1025 1033
f 1027 1034 1035
f 1027 1026 1034
f 1028 1035 1036
f 1028 1027 1035
f 1029 1036 1037
f 1029 1028 1036
f 1030 1037 1038
f 1030 1029 1037
f 1031 1038 1032
f 1031 1030 1038
f 1046 1039 1040
f 1046 1040 1041
f 1067 1043 1044
f 1067 1044 1045
f 1066 1043 1067
f 1056 1052 1051
f 1056 1053 1052
f 1056 1054 1053
f 1057 1056 1051
f 1055 1054 1056
f 1059 1058 1060
f 1068 1041 1042
f 1068 1042 1043
f 1068 1066 1065
f 1068 1046 1041
f 1068 1043 1066
f 1069 1047 1046
f 1069 1065 1064
f 1069 1046 1068
f 1069 1068 1065
f 1070 1069 1064
f 1070 1047 1069
f 1071 1048 1047
f 1071 1064 1063
f 1071 1070 1064
f 1071 1047 1070
f 1072 1048 1071
f 1072 1071 1063
f 1073 1063 1062
f 1073 1072 1063
f 1073 1048 1072
f 1074 1049 1048
f 1074 1062 1061
f 1074 1048 1073
f 1074 1073 1062
f 1075 1074 1061
f 1075 1049 1074
f 1076 1050 1049
f 1076 1051 1050
f 1076 1058 1057
f 1076 1061 1060
f 1076 1057 1051
f 1076 1049 1075
f 1076 1060 1058
f 1076 1075 1061
f 1091 1090 1094
f 1100 1081 1080
f 1100 1082 1081
f 1100 1083 1082
f 1100 1084 1083
f 1100 1085 1084
f 1101 1078 1077
f 1101 1079 1078
f 1101 1080 1079
f 1101 1077 1099
f 1101 1100 1080
f 1101 1099 1100
f 1102 1085 1100
f 1102 1100 1099
f 1103 1086 1085
f 1103 1099 1098
f 1103 1085 1102
f 1103 1102 1099
f 1104 1098 1097
f 1104 1086 1103
f 1104 1103 1098
f 1105 1104 1097
f 1105 1086 1104
f 1106 1087 1086
f 1106 1097 1096
f 1106 1105 1097
f 1106 1086 1105
f 1107 1087 1106
f 1107 1106 1096
f 1108 1088 1087
f 1108 1096 1095
f 1108 1087 1107
f 1108 1107 1096
f 1109 1108 1095
f 1109 1088 1108
f 1110 1089 1088
f 1110 1088 1109
f 1110 1109 1095
f 1111 1090 1089
f 1111 1095 1092
f 1111 1089 1110
f 1111 1110 1095
f 1112 1092 1093
f 1112 1090 1111
f 1112 1111 1092
f 1113 1093 1094
f 1113 1112 1093
f 1113 1094 1090
f 1113 1090 1112
f 1116 1118 1117
f 1116 1119 1118
f 1125 1123 1122
f 1125 1124 1123
f 1128 1115 1114
f 1129 1115 1128
f 1133 1126 1132
f 1127 1126 1133
f 1134 1120 1119
f 1134 1121 1120
f 1134 1122 1121
f 1134 1119 1116
f 1134 1125 1122
f 1135 1116 1115
f 1135 1126 1125
f 1135 1125 1134
f 1135 1134 1116
f 1136 1129 1130
f 1136 1130 1131
f 1136 1131 1132
f 1136 1135 1115
f 1136 1126 1135
f 1136 1115 1129
f 1136 1132 1126
f 1169 1162 1161
f 1169 1166 1167
f 1169 1167 1168
f 1169 1168 1162
f 1170 1169 1161
f 1170 1166 1169
f 1171 1138 1137
f 1171 1137 1163
f 1171 1163 1164
f 1171 1164 1165
f 1171 1165 1166
f 1171 1170 1161
f 1171 1166 1170
f 1172 1161 1160
f 1172 1171 1161
f 1172 1138 1171
f 1173 1138 1172
f 1173 1172 1160
f 1174 1139 1138
f 1174 1160 1159
f 1174 1138 1173
f 1174 1173 1160
f 1175 1139 1174
f 1175 1174 1159
f 1176 1140 1139
f 1176 1159 1158
f 1176 1175 1159
f 1176 1139 1175
f 1177 1176 1158
f 1177 1140 1176
f 1178 1141 1140
f 1178 1158 1157
f 1178 1140 1177
f 1178 1177 1158
f 1179 1178 1157
f 1179 1141 1178
f 1180 1142 1141
f 1180 1157 1156
f 1180 1179 1157
f 1180 1141 1179
f 1181 1142 1180
f 1181 1180 1156
f 1182 1143 1142
f 1182 1156 1155
f 1182 1181 1156
f 1182 1142 1181
f 1183 1182 1155
f 1183 1143 1182
f 1184 1143 1183
f 1184 1144 1143
f 1184 1155 1154
f 1184 1183 1155
f 1185 1144 1184
f 1185 1184 1154
f 1186 1145 1144
f 1186 1144 1185
f 1186 1185 1154
f 1186 1154 1153
f 1187 1150 1149
f 1187 1151 1150
f 1187 1186 1153
f 1187 1152 1151
f 1187 1153 1152
f 1187 1145 1186
f 1188 1145 1187
f 1188 1187 1149
f 1189 1146 1145
f 1189 1147 1146
f 1189 1148 1147
f 1189 1149 1148
f 1189 1188 1149
f 1189 1145 1188
f 1204 1197 1196
f 1204 1198 1197
f 1203 1196 1195
f 1203 1204 1196
f 1202 1195 1194
f 1202 1203 1195
f 1201 1194 1193
f 1201 1202 1194
f 1200 1193 1192
f 1200 1201 1193
f 1199 1192 1191
f 1199 1200 1192
f 1190 1199 1191
f 1223 1217 1218
f 1219 1223 1218
f 1215 1221 1222
f 1215 1222 1216
f 1230 1229 1228
f 1209 1230 1210
f 1231 1230 1209
f 1208 1231 1209
f 1207 1232 1231
f 1207 1231 1208
f 1206 1232 1207
f 1205 1232 1206
f 1233 1219 1220
f 1233 1220 1221
f 1233 1224 1223
f 1233 1223 1219
f 1233 1221 1215
f 1234 1215 1214
f 1234 1225 1224
f 1234 1224 1233
f 1234 1233 1215
f 1235 1234 1214
f 1235 1225 1234
f 1236 1214 1213
f 1236 1226 1225
f 1236 1235 1214
f 1236 1225 1235
f 1237 1213 1212
f 1237 1236 1213
f 1237 1226 1236
f 1238 1237 1212
f 1238 1226 1237
f 1239 1211 1210
f 1239 1212 1211
f 1239 1227 1226
f 1239 1228 1227
f 1239 1238 1212
f 1239 1230 1228
f 1239 1210 1230
f 1239 1226 1238
f 1242 1244 1240
f 1243 1244 1242
f 1252 1245 1246
f 1252 1250 1249
f 1252 1251 1250
f 1252 1246 1251
f 1253 1241 1240
f 1253 1247 1241
f 1253 1248 1247
f 1253 1249 1248
f 1253 1252 1249
f 1253 1245 1252
f 1254 1244 1245
f 1254 1253 1240
f 1254 1245 1253
f 1254 1240 1244
f 1279 1256 1255
f 1279 1255 1262
f 1279 1262 1263
f 1279 1263 1264
f 1279 1264 1265
f 1280 1279 1265
f 1280 1273 1279
f 1281 1265 1266
f 1281 1266 1267
f 1281 1267 1273
f 1281 1280 1265
f 1281 1273 1280
f 1282 1256 1279
f 1282 1279 1273
f 1283 1273 1272
f 1283 1256 1282
f 1283 1282 1273
f 1284 1257 1256
f 1284 1272 1271
f 1284 1256 1283
f 1284 1283 1272
f 1285 1284 1271
f 1285 1257 1284
f 1286 1258 1257
f 1286 1271 1270
f 1286 1285 1271
f 1286 1257 1285
f 1287 1258 1286
f 1287 1286 1270
f 1288 1259 1258
f 1288 1270 1269
f 1288 1258 1287
f 1288 1287 1270
f 1289 1259 1288
f 1289 1288 1269
f 1290 1260 1259
f 1290 1259 1289
f 1290 1289 1269
f 1291 1261 1260
f 1291 1276 1277
f 1291 1277 1278
f 1291 1278 1261
f 1292 1269 1268
f 1292 1268 1274
f 1292 1274 1275
f 1292 1275 1276
f 1292 1260 1290
f 1292 1276 1291
f 1292 1290 1269
f 1292 1291 1260
f 1299 1300 1301
f 1299 1301 1306
f 1298 1306 1305
f 1298 1299 1306
f 1297 1305 1304
f 1297 1298 1305
f 1296 1304 1303
f 1296 1297 1304
f 1295 1303 1302
f 1295 1296 1303
f 1293 1302 1294
f 1293 1295 1302
f 1325 1310 1311
f 1325 1311 1312
f 1325 1312 1313
f 1325 1313 1316
f 1326 1307 1308
f 1326 1308 1309
f 1326 1309 1310
f 1326 1323 1307
f 1326 1310 1325
f 1326 1325 1316
f 1327 1316 1315
f 1327 1326 1316
f 1327 1323 1326
f 1328 1327 1315
f 1328 1323 1327
f 1329 1324 1323
f 1329 1323 1328
f 1329 1328 1315
f 1330 1315 1314
f 1330 1321 1320
f 1330 1322 1321
f 1330 1314 1322
f 1330 1329 1315
f 1330 1324 1329
f 1331 1320 1319
f 1331 1330 1320
f 1331 1324 1330
f 1332 1318 1317
f 1332 1319 1318
f 1332 1317 1324
f 1332 1331 1319
f 1332 1324 1331
f 1344 1343 1341
f 1340 1344 1341
f 1342 1344 1340
f 1345 1336 1337
f 1345 1337 1338
f 1345 1338 1339
f 1345 1339 1341
f 1345 1341 1343
f 1346 1335 1336
f 1346 1336 1345
f 1346 1345 1343
f 1347 1333 1334
f 1347 1334 1335
f 1347 1343 1333
f 1347 1335 1346
f 1347 1346 1343
f 1350 1352 1353
f 1351 1352 1350
f 1360 1353 1354
f 1360 1358 1357
f 1360 1359 1358
f 1360 1354 1359
f 1361 1357 1356
f 1361 1360 1357
f 1361 1348 1360
f 1362 1349 1348
f 1362 1355 1349
f 1362 1356 1355
f 1362 1348 1361
f 1362 1361 1356
f 1363 1348 1350
f 1363 1353 1360
f 1363 1350 1353
f 1363 1360 1348
f 1387 1377 1376
f 1387 1376 1382
f 1387 1382 1383
f 1387 1383 1384
f 1387 1384 1385
f 1388 1370 1369
f 1388 1385 1386
f 1388 1386 1370
f 1388 1369 1387
f 1388 1387 1385
f 1389 1369 1368
f 1389 1377 1387
f 1389 1387 1369
f 1390 1389 1368
f 1390 1377 1389
f 1391 1368 1367
f 1391 1378 1377
f 1391 1390 1368
f 1391 1377 1390
f 1392 1391 1367
f 1392 1378 1391
f 1393 1367 1366
f 1393 1379 1378
f 1393 1392 1367
f 1393 1378 1392
f 1394 1379 1393
f 1394 1393 1366
f 1395 1366 1365
f 1395 1380 1379
f 1395 1394 1366
f 1395 1379 1394
f 1396 1381 1380
f 1396 1395 1365
f 1396 1380 1395
f 1397 1381 1396
f 1397 1396 1365
f 1398 1372 1373
f 1398 1373 1374
f 1398 1374 1375
f 1398 1375 1381
f 1399 1365 1364
f 1399 1364 1371
f 1399 1371 1372
f 1399 1397 1365
f 1399 1372 1398
f 1399 1381 1397
f 1399 1398 1381
f 1406 1407 1408
f 1406 1408 1413
f 1405 1413 1412
f 1405 1406 1413
f 1404 1411 1410
f 1404 1412 1411
f 1404 1405 1412
f 1403 1410 1409
f 1403 1404 1410
f 1402 1409 1401
f 1402 1403 1409
f 1400 1402 1401
f 1432 1425 1424
f 1432 1426 1425
f 1432 1427 1426
f 1432 1424 1431
f 1433 1422 1421
f 1433 1428 1427
f 1433 1429 1428
f 1433 1421 1429
f 1433 1432 1431
f 1433 1427 1432
f 1434 1431 1430
f 1434 1433 1431
f 1434 1422 1433
f 1435 1434 1430
f 1435 1422 1434
f 1436 1423 1422
f 1436 1422 1435
f 1436 1435 1430
f 1437 1414 1415
f 1437 1415 1416
f 1437 1416 1417
f 1437 1430 1414
f 1437 1436 1430
f 1437 1423 1436
f 1438 1417 1418
f 1438 1418 1419
f 1438 1419 1420
f 1438 1420 1423
f 1438 1437 1417
f 1438 1423 1437
f 1439 1447 1440
f 1444 1447 1439
f 1453 1442 1441
f 1454 1443 1442
f 1454 1450 1451
f 1454 1451 1452
f 1454 1452 1443
f 1455 1446 1445
f 1455 1445 1448
f 1455 1448 1449
f 1455 1449 1450
f 1455 1450 1454
f 1455 1454 1442
f 1455 1453 1446
f 1455 1442 1453
f 1456 1446 1453
f 1456 1453 1441
f 1457 1441 1440
f 1457 1447 1446
f 1457 1456 1441
f 1457 1446 1456
f 1457 1440 1447
f 1459 1461 1460
f 1459 1458 1461
f 1467 1462 1463
f 1469 1466 1467
f 1469 1467 1463
f 1470 1465 1466
f 1470 1466 1469
f 1471 1465 1470
f 1464 1465 1471
f 1468 1464 1471
f 1474 1472 1473
f 1479 1474 1473
f 1480 1475 1474
f 1480 1474 1479
f 1481 1476 1475
f 1481 1475 1480
f 1478 1477 1476
f 1478 1476 1481
f 1487 1483 1482
f 1487 1484 1483
f 1487 1485 1484
f 1487 1486 1485
f 1490 1486 1487
f 1489 1486 1490
f 1488 1486 1489
f 1496 1492 1491
f 1496 1493 1492
f 1500 1494 1493
f 1500 1495 1494
f 1500 1493 1496
f 1501 1496 1497
f 1501 1500 1496
f 1502 1501 1497
f 1498 1502 1497
f 1499 1502 1498
f 1510 1515 1509
f 1511 1515 1510
f 1520 1507 1506
f 1520 1516 1507
f 1520 1517 1516
f 1520 1518 1517
f 1520 1519 1518
f 1520 1512 1519
f 1521 1506 1505
f 1521 1513 1512
f 1521 1520 1506
f 1521 1512 1520
f 1522 1521 1505
f 1522 1513 1521
f 1523 1505 1504
f 1523 1514 1513
f 1523 1513 1522
f 1523 1522 1505
f 1524 1523 1504
f 1524 1514 1523
f 1525 1504 1503
f 1525 1503 1508
f 1525 1508 1509
f 1525 1515 1514
f 1525 1524 1504
f 1525 1514 1524
f 1525 1509 1515
f 1527 1536 1528
f 1526 1536 1527
f 1550 1533 1532
f 1550 1532 1537
f 1550 1537 1538
f 1550 1538 1539
f 1550 1539 1540
f 1550 1540 1541
f 1551 1541 1542
f 1551 1542 1543
f 1551 1543 1544
f 1551 1544 1548
f 1551 1550 1541
f 1551 1533 1550
f 1552 1551 1548
f 1552 1533 1551
f 1553 1534 1533
f 1553 1548 1547
f 1553 1552 1548
f 1553 1533 1552
f 1554 1534 1553
f 1554 1553 1547
f 1555 1547 1546
f 1555 1554 1547
f 1555 1534 1554
f 1556 1535 1534
f 1556 1534 1555
f 1556 1555 1546
f 1557 1536 1535
f 1557 1545 1549
f 1558 1546 1545
f 1558 1535 1556
f 1558 1556 1546
f 1558 1557 1535
f 1558 1545 1557
f 1559 1529 1528
f 1559 1528 1536
f 1560 1559 1536
f 1560 1529 1559
f 1561 1530 1529
f 1561 1531 1530
f 1561 1549 1531
f 1561 1536 1557
f 1561 1557 1549
f 1561 1529 1560
f 1561 1560 1536
f 1577 1570 1571
f 1577 1576 1570
f 1578 1571 1572
f 1578 1577 1571
f 1575 1572 1573
f 1575 1578 1572
f 1574 1578 1575
f 1579 1563 1562
f 1579 1564 1563
f 1579 1565 1564
f 1579 1566 1565
f 1579 1567 1566
f 1579 1568 1567
f 1579 1562 1569
f 1579 1576 1568
f 1580 1569 1570
f 1580 1579 1569
f 1580 1570 1576
f 1580 1576 1579
f 1584 1582 1583
f 1587 1581 1582
f 1587 1582 1584
f 1586 1584 1585
f 1586 1587 1584
f 1594 1590 1591
f 1593 1590 1594
f 1592 1588 1589
f 1592 1589 1590
f 1592 1590 1593
f 1598 1601 1599
f 1597 1601 1598
f 1596 1601 1597
f 1595 1602 1601
f 1595 1603 1602
f 1595 1600 1603
f 1595 1601 1596
f 1605 1612 1606
f 1604 1612 1605
f 1622 1614 1613
f 1622 1615 1614
f 1622 1616 1615
f 1622 1617 1616
f 1622 1618 1617
f 1622 1609 1618
f 1622 1613 1621
f 1623 1610 1609
f 1623 1621 1620
f 1623 1622 1621
f 1623 1609 1622
f 1624 1610 1623
f 1624 1623 1620
f 1625 1611 1610
f 1625 1620 1619
f 1625 1610 1624
f 1625 1624 1620
f 1626 1611 1625
f 1626 1625 1619
f 1627 1607 1606
f 1627 1608 1607
f 1627 1612 1611
f 1627 1619 1608
f 1627 1626 1619
f 1627 1611 1626
f 1627 1606 1612
f 1639 1632 1633
f 1639 1633 1634
f 1639 1634 1635
f 1639 1635 1636
f 1631 1639 1638
f 1631 1632 1639
f 1630 1638 1637
f 1630 1631 1638
f 1629 1637 1628
f 1629 1630 1637
f 1643 1654 1653
f 1643 1642 1654
f 1644 1643 1653
f 1656 1653 1652
f 1656 1644 1653
f 1645 1644 1656
f 1657 1647 1646
f 1657 1648 1647
f 1657 1646 1655
f 1658 1648 1657
f 1658 1657 1655
f 1659 1641 1640
f 1659 1649 1648
f 1659 1650 1649
f 1659 1651 1650
f 1659 1640 1651
f 1659 1658 1655
f 1659 1648 1658
f 1660 1641 1659
f 1660 1659 1655
f 1661 1642 1641
f 1661 1655 1654
f 1661 1641 1660
f 1661 1660 1655
f 1661 1654 1642
f 1663 1662 1668
f 1684 1685 1666
f 1667 1666 1685
f 1686 1668 1669
f 1686 1669 1670
f 1686 1670 1671
f 1686 1671 1672
f 1686 1663 1668
f 1687 1663 1686
f 1687 1686 1672
f 1688 1672 1674
f 1688 1687 1672
f 1688 1663 1687
f 1689 1674 1673
f 1689 1688 1674
f 1689 1663 1688
f 1690 1673 1678
f 1690 1689 1673
f 1690 1663 1689
f 1691 1664 1663
f 1691 1678 1677
f 1691 1663 1690
f 1691 1690 1678
f 1692 1664 1691
f 1692 1691 1677
f 1693 1665 1664
f 1693 1677 1676
f 1693 1692 1677
f 1693 1664 1692
f 1694 1665 1693
f 1694 1693 1676
f 1695 1666 1665
f 1695 1676 1675
f 1695 1665 1694
f 1695 1694 1676
f 1696 1681 1682
f 1696 1682 1683
f 1696 1683 1684
f 1696 1684 1666
f 1697 1680 1681
f 1697 1681 1696
f 1697 1696 1666
f 1698 1675 1679
f 1698 1679 1680
f 1698 1666 1695
f 1698 1695 1675
f 1698 1680 1697
f 1698 1697 1666
f 1705 1703 1704
f 1701 1702 1703
f 1701 1703 1705
f 1699 1701 1705
f 1700 1701 1699
f 1710 1707 1706
f 1710 1708 1707
f 1710 1709 1708
f 1711 1709 1710
f 1712 1709 1711
f 1723 1735 1722
f 1723 1748 1735
f 1724 1747 1748
f 1724 1748 1723
f 1725 1746 1747
f 1725 1747 1724
f 1726 1745 1746
f 1726 1746 1725
f 1727 1744 1745
f 1727 1745 1726
f 1728 1743 1744
f 1728 1744 1727
f 1729 1742 1743
f 1729 1743 1728
f 1730 1740 1741
f 1730 1741 1742
f 1730 1742 1729
f 1716 1739 1740
f 1738 1739 1716
f 1731 1716 1740
f 1731 1740 1730
f 1717 1716 1731
f 1715 1738 1716
f 1737 1738 1715
f 1732 1717 1731
f 1714 1737 1715
f 1736 1737 1714
f 1733 1718 1717
f 1733 1717 1732
f 1713 1736 1714
f 1734 1719 1718
f 1734 1718 1733
f 1721 1720 1719
f 1721 1719 1734

