# https://github.com/mikedh/trimesh
v 0.03181385 -0.00603027 -0.00278912
v 0.03053578 -0.00603027 -0.00852325
v 0.02800299 -0.00603027 -0.01382406
v 0.02434478 -0.00603027 -0.01842093
v 0.01974791 -0.00603027 -0.02207914
v 0.01444710 -0.00603027 -0.02461194
v 0.00871297 -0.00603027 -0.02588999
v 0.00850716 -0.00642307 -0.02595022
v 0.00825400 -0.00677142 -0.02607770
v 0.00796737 -0.00706761 -0.02624944
v 0.00754118 -0.00738766 -0.02652016
v 0.00701428 -0.00764698 -0.02683812
v 0.00648114 -0.00779254 -0.02708541
v 0.00621917 -0.00782684 -0.02715595
v 0.00592209 -0.00783790 -0.02718026
v 0.00561817 -0.00781855 -0.02713834
v 0.00532987 -0.00777122 -0.02704444
v 0.00497149 -0.00767069 -0.02687386
v 0.00448141 -0.00744865 -0.02658507
v 0.00398378 -0.00709565 -0.02626893
v 0.00355238 -0.00662786 -0.02601624
v 0.00336446 -0.00634256 -0.02593090
v 0.00320703 -0.00603027 -0.02588999
v -0.00252710 -0.00603027 -0.02461193
v -0.00782791 -0.00603027 -0.02207913
v -0.01242478 -0.00603027 -0.01842092
v -0.01608299 -0.00603027 -0.01382406
v -0.01861578 -0.00603027 -0.00852324
v -0.01989384 -0.00603027 -0.00278911
v -0.01995569 -0.00642921 -0.00257947
v -0.02008667 -0.00678213 -0.00232108
v -0.02026270 -0.00708105 -0.00202848
v -0.02053934 -0.00740251 -0.00159318
v -0.02086174 -0.00766021 -0.00105431
v -0.02110601 -0.00780095 -0.00050712
v -0.02116335 -0.00782849 -0.00027601
v -0.02118468 -0.00783815 -0.00003614
v -0.02126823 -0.00787536 -0.00003614
v -0.02135340 -0.00790872 -0.00003614
v -0.02144000 -0.00793815 -0.00003614
v -0.02064380 -0.00793815 -0.00659340
v -0.01830149 -0.00793815 -0.01276956
v -0.01454919 -0.00793815 -0.01820570
v -0.00960497 -0.00793815 -0.02258591
v -0.00375617 -0.00793815 -0.02565559
v 0.00265729 -0.00793815 -0.02723637
v 0.00926270 -0.00793815 -0.02723637
v 0.01567617 -0.00793815 -0.02565559
v 0.02152497 -0.00793815 -0.02258591
v 0.02646920 -0.00793815 -0.01820571
v 0.03022150 -0.00793815 -0.01276956
v 0.03256381 -0.00793815 -0.00659340
v 0.03336000 -0.00793815 -0.00003615
v 0.03310468 -0.00783815 -0.00003615
v 0.03318823 -0.00787536 -0.00003615
v 0.03327340 -0.00790872 -0.00003615
v 0.03306941 -0.00782204 -0.00034665
v 0.03297809 -0.00777638 -0.00064177
v 0.03280646 -0.00767631 -0.00100825
v 0.03251156 -0.00745092 -0.00151051
v 0.03219063 -0.00709222 -0.00201583
v 0.03195405 -0.00666347 -0.00241698
v 0.03185943 -0.00636340 -0.00261947
v -0.02003842 -0.00721349 -0.00455109
v -0.02019281 -0.00738024 -0.00445998
v -0.01935325 -0.00721349 -0.00748878
v -0.01828190 -0.00721349 -0.01045886
v -0.01693007 -0.00721349 -0.01316427
v -0.01520151 -0.00721349 -0.01579982
v -0.01325742 -0.00721349 -0.01811910
v -0.01096380 -0.00721349 -0.02028183
v -0.00853701 -0.00721349 -0.02208471
v -0.00579863 -0.00721349 -0.02365896
v -0.00302687 -0.00721349 -0.02484620
v 0.00001325 -0.00721349 -0.02574488
v 0.00297254 -0.00721349 -0.02625404
v 0.00304188 -0.00734573 -0.02636844
v 0.00894746 -0.00721349 -0.02625404
v 0.00885594 -0.00737781 -0.02639969
v 0.01190675 -0.00721349 -0.02574488
v 0.01494687 -0.00721349 -0.02484620
v 0.01771863 -0.00721349 -0.02365896
v 0.02045701 -0.00721349 -0.02208471
v 0.02288380 -0.00721349 -0.02028183
v 0.02517742 -0.00721349 -0.01811911
v 0.02712151 -0.00721349 -0.01579982
v 0.02885007 -0.00721349 -0.01316427
v 0.03020190 -0.00721349 -0.01045887
v 0.03127326 -0.00721349 -0.00748879
v 0.03195842 -0.00721349 -0.00455109
v 0.03208592 -0.00735411 -0.00447814
v 0.00596000 0.00016185 0.02596385
v 0.01218221 0.00016185 0.02520834
v 0.01804281 0.00016185 0.02298571
v 0.02320119 0.00016185 0.01942513
v 0.02735758 0.00016185 0.01473353
v 0.03027043 0.00016185 0.00918358
v 0.03177043 0.00016185 0.00309780
v 0.03177043 0.00016185 -0.00317010
v 0.03027042 0.00016185 -0.00925588
v 0.02735758 0.00016185 -0.01480583
v 0.02320119 0.00016185 -0.01949743
v 0.01804280 0.00016185 -0.02305800
v 0.01218221 0.00016185 -0.02528063
v 0.00596000 0.00016185 -0.02603614
v 0.00596000 -0.00183815 0.02596385
v 0.00665971 -0.00192092 0.02595443
v 0.00732200 -0.00216511 0.02592816
v 0.00790755 -0.00255635 0.02589080
v 0.00838510 -0.00307208 0.02585051
v 0.00873040 -0.00368709 0.02581583
v 0.00890179 -0.00425001 0.02579689
v 0.00896000 -0.00483815 0.02579020
v 0.00893226 -0.00524544 0.02579341
v 0.00884983 -0.00564361 0.02580276
v 0.00871298 -0.00603027 0.02581769
v 0.01444710 -0.00603027 0.02453964
v 0.01974792 -0.00603027 0.02200684
v 0.02434478 -0.00603027 0.01834863
v 0.02800299 -0.00603027 0.01375176
v 0.03053579 -0.00603027 0.00845095
v 0.03181385 -0.00603027 0.00271682
v 0.03179520 -0.00551460 0.00288660
v 0.03178861 -0.00517992 0.00294428
v 0.03178634 -0.00483815 0.00296385
v 0.03179423 -0.00420005 0.00289520
v 0.03181650 -0.00358963 0.00269172
v 0.03184892 -0.00303929 0.00236464
v 0.03188577 -0.00256979 0.00192719
v 0.03192033 -0.00220398 0.00139947
v 0.03194632 -0.00195911 0.00080705
v 0.03195915 -0.00184551 0.00017435
v 0.03195641 -0.00186944 -0.00046798
v 0.03193869 -0.00202879 -0.00108856
v 0.03190904 -0.00231769 -0.00166318
v 0.03187299 -0.00272089 -0.00216153
v 0.03183696 -0.00322050 -0.00256264
v 0.03180736 -0.00379616 -0.00284939
v 0.03179183 -0.00430601 -0.00298857
v 0.03178634 -0.00483815 -0.00303615
v 0.03178956 -0.00524544 -0.00300841
v 0.03179891 -0.00564361 -0.00292597
v 0.03181385 -0.00603027 -0.00278912
v 0.03053578 -0.00603027 -0.00852325
v 0.02800299 -0.00603027 -0.01382406
v 0.02434478 -0.00603027 -0.01842093
v 0.01974791 -0.00603027 -0.02207914
v 0.01444710 -0.00603027 -0.02461194
v 0.00871297 -0.00603027 -0.02588999
v 0.00888275 -0.00551460 -0.02587134
v 0.00894043 -0.00517992 -0.02586476
v 0.00896000 -0.00483815 -0.02586249
v 0.00887723 -0.00413844 -0.02587197
v 0.00863305 -0.00347617 -0.02589837
v 0.00824181 -0.00289062 -0.02593582
v 0.00772607 -0.00241306 -0.02597610
v 0.00711106 -0.00206776 -0.02601065
v 0.00654814 -0.00189637 -0.02602950
v 0.00596000 -0.00183815 -0.02603614
v 0.00296000 -0.00483815 0.02256385
v 0.00296000 -0.00483815 0.02579020
v 0.00304277 -0.00413844 0.02579968
v 0.00328696 -0.00347617 0.02582608
v 0.00367819 -0.00289062 0.02586353
v 0.00419393 -0.00241306 0.02590380
v 0.00480894 -0.00206776 0.02593836
v 0.00537187 -0.00189637 0.02595720
v 0.00596000 -0.00183815 0.02596385
v 0.00665971 -0.00192092 0.02595443
v 0.00732200 -0.00216511 0.02592816
v 0.00790755 -0.00255635 0.02589080
v 0.00838510 -0.00307208 0.02585051
v 0.00873040 -0.00368709 0.02581583
v 0.00890179 -0.00425001 0.02579689
v 0.00896000 -0.00483815 0.02579020
v 0.00896000 -0.00483815 0.02256385
v 0.00887283 -0.00412020 0.02256385
v 0.00861637 -0.00344398 0.02256385
v 0.00820554 -0.00284878 0.02256385
v 0.00766420 -0.00236920 0.02256385
v 0.00702382 -0.00203310 0.02256385
v 0.00632161 -0.00186002 0.02256385
v 0.00559839 -0.00186002 0.02256385
v 0.00489619 -0.00203310 0.02256385
v 0.00425581 -0.00236920 0.02256385
v 0.00371447 -0.00284878 0.02256385
v 0.00330364 -0.00344398 0.02256385
v 0.00304718 -0.00412020 0.02256385
v 0.02856000 -0.00483815 0.00296385
v 0.03178634 -0.00483815 0.00296385
v 0.03179423 -0.00420005 0.00289520
v 0.03181650 -0.00358963 0.00269172
v 0.03184892 -0.00303929 0.00236464
v 0.03188577 -0.00256979 0.00192719
v 0.03192033 -0.00220398 0.00139947
v 0.03194632 -0.00195911 0.00080705
v 0.03195915 -0.00184551 0.00017435
v 0.03195641 -0.00186944 -0.00046798
v 0.03193869 -0.00202879 -0.00108856
v 0.03190904 -0.00231769 -0.00166318
v 0.03187299 -0.00272089 -0.00216153
v 0.03183696 -0.00322050 -0.00256264
v 0.03180736 -0.00379616 -0.00284939
v 0.03179183 -0.00430601 -0.00298857
v 0.03178634 -0.00483815 -0.00303615
v 0.02856000 -0.00483815 -0.00303615
v 0.02856000 -0.00412020 -0.00294897
v 0.02856000 -0.00344398 -0.00269252
v 0.02856000 -0.00284878 -0.00228168
v 0.02856000 -0.00236920 -0.00174034
v 0.02856000 -0.00203310 -0.00109996
v 0.02856000 -0.00186002 -0.00039776
v 0.02856000 -0.00186002 0.00032546
v 0.02856000 -0.00203310 0.00102767
v 0.02856000 -0.00236920 0.00166804
v 0.02856000 -0.00284878 0.00220938
v 0.02856000 -0.00344398 0.00262022
v 0.02856000 -0.00412020 0.00287668
v 0.00896000 -0.00483815 -0.02263615
v 0.00896000 -0.00483815 -0.02586249
v 0.00887723 -0.00413844 -0.02587197
v 0.00863305 -0.00347617 -0.02589837
v 0.00824181 -0.00289062 -0.02593582
v 0.00772607 -0.00241306 -0.02597610
v 0.00711106 -0.00206776 -0.02601065
v 0.00654814 -0.00189637 -0.02602950
v 0.00596000 -0.00183815 -0.02603614
v 0.00526029 -0.00192092 -0.02602673
v 0.00459801 -0.00216511 -0.02600045
v 0.00401246 -0.00255635 -0.02596310
v 0.00353490 -0.00307208 -0.02592281
v 0.00318961 -0.00368709 -0.02588813
v 0.00301821 -0.00425001 -0.02586918
v 0.00296000 -0.00483815 -0.02586249
v 0.00296000 -0.00483815 -0.02263615
v 0.00304717 -0.00412020 -0.02263615
v 0.00330363 -0.00344398 -0.02263615
v 0.00371447 -0.00284878 -0.02263615
v 0.00425581 -0.00236920 -0.02263615
v 0.00489618 -0.00203310 -0.02263615
v 0.00559839 -0.00186002 -0.02263615
v 0.00632161 -0.00186002 -0.02263615
v 0.00702381 -0.00203310 -0.02263615
v 0.00766419 -0.00236920 -0.02263615
v 0.00820553 -0.00284878 -0.02263615
v 0.00861637 -0.00344398 -0.02263615
v 0.00887282 -0.00412020 -0.02263615
v 0.03336000 -0.00793815 -0.00003615
v 0.03256381 -0.00793815 0.00652110
v 0.03022150 -0.00793815 0.01269726
v 0.02646920 -0.00793815 0.01813341
v 0.02152498 -0.00793815 0.02251361
v 0.01567618 -0.00793815 0.02558330
v 0.00926271 -0.00793815 0.02716408
v 0.00265730 -0.00793815 0.02716408
v -0.00375617 -0.00793815 0.02558330
v -0.00960497 -0.00793815 0.02251361
v -0.01454919 -0.00793815 0.01813342
v -0.01830149 -0.00793815 0.01269727
v -0.02064380 -0.00793815 0.00652111
v -0.02144000 -0.00793815 -0.00003614
v -0.02118468 -0.00783815 -0.00003614
v -0.02126823 -0.00787536 -0.00003614
v -0.02135340 -0.00790872 -0.00003614
v -0.02114941 -0.00782204 0.00027436
v -0.02105809 -0.00777638 0.00056948
v -0.02088645 -0.00767631 0.00093595
v -0.02059155 -0.00745092 0.00143822
v -0.02027063 -0.00709222 0.00194354
v -0.02003404 -0.00666347 0.00234468
v -0.01993942 -0.00636340 0.00254718
v -0.01989384 -0.00603027 0.00271682
v -0.01861578 -0.00603027 0.00845096
v -0.01608299 -0.00603027 0.01375177
v -0.01242477 -0.00603027 0.01834863
v -0.00782791 -0.00603027 0.02200684
v -0.00252710 -0.00603027 0.02453964
v 0.00320703 -0.00603027 0.02581770
v 0.00341284 -0.00642307 0.02587792
v 0.00366601 -0.00677142 0.02600541
v 0.00395263 -0.00706761 0.02617715
v 0.00437882 -0.00738766 0.02644787
v 0.00490573 -0.00764698 0.02676583
v 0.00543886 -0.00779254 0.02701311
v 0.00570083 -0.00782684 0.02708365
v 0.00599792 -0.00783790 0.02710797
v 0.00630183 -0.00781855 0.02706605
v 0.00659014 -0.00777122 0.02697214
v 0.00694851 -0.00767069 0.02680157
v 0.00743859 -0.00744865 0.02651278
v 0.00793622 -0.00709565 0.02619663
v 0.00836762 -0.00662786 0.02594394
v 0.00855554 -0.00634256 0.02585860
v 0.00871298 -0.00603027 0.02581769
v 0.01444710 -0.00603027 0.02453964
v 0.01974792 -0.00603027 0.02200684
v 0.02434478 -0.00603027 0.01834863
v 0.02800299 -0.00603027 0.01375176
v 0.03053579 -0.00603027 0.00845095
v 0.03181385 -0.00603027 0.00271682
v 0.03187569 -0.00642921 0.00250718
v 0.03200667 -0.00678213 0.00224879
v 0.03218270 -0.00708105 0.00195618
v 0.03245934 -0.00740251 0.00152089
v 0.03278175 -0.00766021 0.00098201
v 0.03302601 -0.00780095 0.00043482
v 0.03308335 -0.00782849 0.00020371
v 0.03310468 -0.00783815 -0.00003615
v 0.03318823 -0.00787536 -0.00003615
v 0.03327340 -0.00790872 -0.00003615
v 0.03195843 -0.00721349 0.00447879
v 0.03211282 -0.00738024 0.00438768
v 0.03127326 -0.00721349 0.00741649
v 0.03020190 -0.00721349 0.01038657
v 0.02885007 -0.00721349 0.01309197
v 0.02712151 -0.00721349 0.01572752
v 0.02517742 -0.00721349 0.01804681
v 0.02288381 -0.00721349 0.02020953
v 0.02045702 -0.00721349 0.02201242
v 0.01771864 -0.00721349 0.02358666
v 0.01494688 -0.00721349 0.02477391
v 0.01190675 -0.00721349 0.02567258
v 0.00894746 -0.00721349 0.02618174
v 0.00887812 -0.00734573 0.02629615
v 0.00297255 -0.00721349 0.02618174
v 0.00306406 -0.00737781 0.02632740
v 0.00001326 -0.00721349 0.02567258
v -0.00302687 -0.00721349 0.02477391
v -0.00579863 -0.00721349 0.02358667
v -0.00853701 -0.00721349 0.02201242
v -0.01096380 -0.00721349 0.02020954
v -0.01325742 -0.00721349 0.01804682
v -0.01520150 -0.00721349 0.01572753
v -0.01693006 -0.00721349 0.01309198
v -0.01828190 -0.00721349 0.01038658
v -0.01935325 -0.00721349 0.00741649
v -0.02003842 -0.00721349 0.00447880
v -0.02016591 -0.00735411 0.00440585
v 0.00596000 0.00016185 -0.02603614
v -0.00026221 0.00016185 -0.02528063
v -0.00612280 0.00016185 -0.02305800
v -0.01128119 0.00016185 -0.01949742
v -0.01543758 0.00016185 -0.01480583
v -0.01835042 0.00016185 -0.00925587
v -0.01985043 0.00016185 -0.00317010
v -0.01985043 0.00016185 0.00309781
v -0.01835042 0.00016185 0.00918358
v -0.01543758 0.00016185 0.01473354
v -0.01128118 0.00016185 0.01942514
v -0.00612280 0.00016185 0.02298571
v -0.00026220 0.00016185 0.02520834
v 0.00596000 0.00016185 0.02596385
v 0.01218221 0.00016185 0.02520834
v 0.01804281 0.00016185 0.02298571
v 0.02320119 0.00016185 0.01942513
v 0.02735758 0.00016185 0.01473353
v 0.03027043 0.00016185 0.00918358
v 0.03177043 0.00016185 0.00309780
v 0.03177043 0.00016185 -0.00317010
v 0.03027042 0.00016185 -0.00925588
v 0.02735758 0.00016185 -0.01480583
v 0.02320119 0.00016185 -0.01949743
v 0.01804280 0.00016185 -0.02305800
v 0.01218221 0.00016185 -0.02528063
v 0.00596000 0.00016185 0.01896385
v 0.00141301 0.00016185 0.01841175
v -0.00286974 0.00016185 0.01678752
v -0.00663933 0.00016185 0.01418556
v -0.00967669 0.00016185 0.01075708
v -0.01180531 0.00016185 0.00670135
v -0.01290147 0.00016185 0.00225405
v -0.01290147 0.00016185 -0.00232634
v -0.01180531 0.00016185 -0.00677364
v -0.00967669 0.00016185 -0.01082937
v -0.00663933 0.00016185 -0.01425785
v -0.00286974 0.00016185 -0.01685981
v 0.00141300 0.00016185 -0.01848404
v 0.00596000 0.00016185 -0.01903614
v 0.01050700 0.00016185 -0.01848404
v 0.01478974 0.00016185 -0.01685981
v 0.01855933 0.00016185 -0.01425786
v 0.02159669 0.00016185 -0.01082938
v 0.02372531 0.00016185 -0.00677364
v 0.02482147 0.00016185 -0.00232635
v 0.02482147 0.00016185 0.00225405
v 0.02372531 0.00016185 0.00670134
v 0.02159670 0.00016185 0.01075708
v 0.01855933 0.00016185 0.01418556
v 0.01478974 0.00016185 0.01678752
v 0.01050700 0.00016185 0.01841175
v 0.00596000 -0.01083815 0.01896385
v 0.00596000 -0.00653815 0.01896385
v 0.00556362 -0.00649128 0.01895972
v 0.00518833 -0.00635294 0.01894818
v 0.00485645 -0.00613122 0.01893178
v 0.00458545 -0.00583812 0.01891407
v 0.00439006 -0.00549029 0.01889888
v 0.00429320 -0.00517182 0.01889063
v 0.00426000 -0.00483815 0.01888765
v 0.00430688 -0.00444176 0.01889180
v 0.00444521 -0.00406648 0.01890337
v 0.00466694 -0.00373460 0.01891980
v 0.00496003 -0.00346360 0.01893750
v 0.00530786 -0.00326821 0.01895266
v 0.00562634 -0.00317135 0.01896089
v 0.00596000 -0.00313815 0.01896385
v 0.00596000 0.00016185 0.01896385
v 0.00141301 0.00016185 0.01841175
v -0.00286974 0.00016185 0.01678752
v -0.00663933 0.00016185 0.01418556
v -0.00967669 0.00016185 0.01075708
v -0.01180531 0.00016185 0.00670135
v -0.01290147 0.00016185 0.00225405
v -0.01290147 0.00016185 -0.00232634
v -0.01180531 0.00016185 -0.00677364
v -0.00967669 0.00016185 -0.01082937
v -0.00663933 0.00016185 -0.01425785
v -0.00286974 0.00016185 -0.01685981
v 0.00141300 0.00016185 -0.01848404
v 0.00596000 0.00016185 -0.01903614
v 0.00596000 -0.00313815 -0.01903614
v 0.00556361 -0.00318502 -0.01903201
v 0.00518833 -0.00332336 -0.01902047
v 0.00485644 -0.00354508 -0.01900407
v 0.00458545 -0.00383818 -0.01898637
v 0.00439006 -0.00418601 -0.01897117
v 0.00429320 -0.00450448 -0.01896292
v 0.00426000 -0.00483815 -0.01895994
v 0.00430687 -0.00523454 -0.01896410
v 0.00444521 -0.00560982 -0.01897567
v 0.00466693 -0.00594170 -0.01899210
v 0.00496003 -0.00621270 -0.01900979
v 0.00530786 -0.00640809 -0.01902495
v 0.00562633 -0.00650495 -0.01903318
v 0.00596000 -0.00653815 -0.01903614
v 0.00596000 -0.01083815 -0.01903614
v 0.00141300 -0.01083815 -0.01848404
v -0.00286974 -0.01083815 -0.01685981
v -0.00663933 -0.01083815 -0.01425785
v -0.00967669 -0.01083815 -0.01082937
v -0.01180531 -0.01083815 -0.00677364
v -0.01290147 -0.01083815 -0.00232634
v -0.01290147 -0.01083815 0.00225405
v -0.01180531 -0.01083815 0.00670135
v -0.00967669 -0.01083815 0.01075708
v -0.00663933 -0.01083815 0.01418556
v -0.00286974 -0.01083815 0.01678752
v 0.00141301 -0.01083815 0.01841175
v -0.01296379 -0.00483815 0.00166386
v -0.01296795 -0.00523472 0.00161694
v -0.01297953 -0.00561015 0.00147847
v -0.01299597 -0.00594213 0.00125656
v -0.01301367 -0.00621314 0.00096323
v -0.01302883 -0.00640845 0.00061514
v -0.01303808 -0.00651686 0.00023082
v -0.01303953 -0.00653294 -0.00016855
v -0.01303276 -0.00645527 -0.00056054
v -0.01301924 -0.00628790 -0.00092394
v -0.01300199 -0.00604106 -0.00123740
v -0.01298470 -0.00572791 -0.00148469
v -0.01297112 -0.00536446 -0.00165263
v -0.01296570 -0.00510529 -0.00171505
v -0.01296379 -0.00483815 -0.00173615
v -0.01296795 -0.00444158 -0.00168923
v -0.01297953 -0.00406615 -0.00155076
v -0.01299597 -0.00373417 -0.00132885
v -0.01301368 -0.00346316 -0.00103552
v -0.01302883 -0.00326785 -0.00068743
v -0.01303808 -0.00315944 -0.00030310
v -0.01303953 -0.00314336 0.00009626
v -0.01303276 -0.00322103 0.00048825
v -0.01301924 -0.00338840 0.00085165
v -0.01300199 -0.00363524 0.00116511
v -0.01298470 -0.00394839 0.00141240
v -0.01297112 -0.00431183 0.00158034
v -0.01296570 -0.00457101 0.00164276
v -0.01296379 -0.00483815 -0.00173615
v -0.01661500 -0.00483815 -0.00173615
v -0.01661500 -0.00443131 -0.00168674
v -0.01661500 -0.00404812 -0.00154142
v -0.01661500 -0.00371084 -0.00130861
v -0.01661500 -0.00343908 -0.00100185
v -0.01661500 -0.00324862 -0.00063897
v -0.01661500 -0.00315055 -0.00024106
v -0.01661500 -0.00315055 0.00016877
v -0.01661500 -0.00324862 0.00056668
v -0.01661500 -0.00343908 0.00092956
v -0.01661500 -0.00371084 0.00123632
v -0.01661500 -0.00404812 0.00146913
v -0.01661500 -0.00443131 0.00161446
v -0.01661500 -0.00483815 0.00166386
v -0.01296379 -0.00483815 0.00166386
v -0.01296795 -0.00444158 -0.00168923
v -0.01297953 -0.00406615 -0.00155076
v -0.01299597 -0.00373417 -0.00132885
v -0.01301368 -0.00346316 -0.00103552
v -0.01302883 -0.00326785 -0.00068743
v -0.01303808 -0.00315944 -0.00030310
v -0.01303953 -0.00314336 0.00009626
v -0.01303276 -0.00322103 0.00048825
v -0.01301924 -0.00338840 0.00085165
v -0.01300199 -0.00363524 0.00116511
v -0.01298470 -0.00394839 0.00141240
v -0.01297112 -0.00431183 0.00158034
v -0.01296570 -0.00457101 0.00164276
v 0.00426000 -0.00483815 0.01888765
v 0.00430688 -0.00444176 0.01889180
v 0.00444521 -0.00406648 0.01890337
v 0.00466694 -0.00373460 0.01891980
v 0.00496003 -0.00346360 0.01893750
v 0.00530786 -0.00326821 0.01895266
v 0.00562634 -0.00317135 0.01896089
v 0.00596000 -0.00313815 0.01896385
v 0.00426000 -0.00483815 0.02253885
v 0.00430940 -0.00443131 0.02253885
v 0.00445473 -0.00404812 0.02253885
v 0.00468754 -0.00371084 0.02253885
v 0.00499429 -0.00343908 0.02253885
v 0.00535718 -0.00324862 0.02253885
v 0.00575509 -0.00315055 0.02253885
v 0.00616492 -0.00315055 0.02253885
v 0.00656283 -0.00324862 0.02253885
v 0.00692571 -0.00343908 0.02253885
v 0.00723247 -0.00371084 0.02253885
v 0.00746528 -0.00404812 0.02253885
v 0.00761061 -0.00443131 0.02253885
v 0.00766000 -0.00483815 0.02253885
v 0.00766000 -0.00483815 0.01888765
v 0.00635639 -0.00318502 0.01895972
v 0.00673168 -0.00332336 0.01894818
v 0.00706356 -0.00354508 0.01893178
v 0.00733456 -0.00383818 0.01891407
v 0.00752994 -0.00418601 0.01889888
v 0.00762681 -0.00450448 0.01889063
v 0.00766000 -0.00483815 -0.01895994
v 0.00761313 -0.00444176 -0.01896410
v 0.00747479 -0.00406648 -0.01897567
v 0.00725307 -0.00373460 -0.01899210
v 0.00695997 -0.00346360 -0.01900979
v 0.00661214 -0.00326821 -0.01902495
v 0.00629367 -0.00317135 -0.01903318
v 0.00596000 -0.00313815 -0.01903614
v 0.00766000 -0.00483815 -0.02261115
v 0.00761060 -0.00443131 -0.02261115
v 0.00746527 -0.00404812 -0.02261115
v 0.00723247 -0.00371084 -0.02261115
v 0.00692571 -0.00343908 -0.02261115
v 0.00656283 -0.00324862 -0.02261115
v 0.00616491 -0.00315055 -0.02261115
v 0.00575509 -0.00315055 -0.02261115
v 0.00535717 -0.00324862 -0.02261115
v 0.00499429 -0.00343908 -0.02261115
v 0.00468753 -0.00371084 -0.02261115
v 0.00445472 -0.00404812 -0.02261115
v 0.00430940 -0.00443131 -0.02261115
v 0.00426000 -0.00483815 -0.02261115
v 0.00426000 -0.00483815 -0.01895994
v 0.00556361 -0.00318502 -0.01903201
v 0.00518833 -0.00332336 -0.01902047
v 0.00485644 -0.00354508 -0.01900407
v 0.00458545 -0.00383818 -0.01898637
v 0.00439006 -0.00418601 -0.01897117
v 0.00429320 -0.00450448 -0.01896292
v 0.00596000 -0.01083815 0.01896385
v 0.01050700 -0.01083815 0.01841175
v 0.01478974 -0.01083815 0.01678752
v 0.01855933 -0.01083815 0.01418556
v 0.02159670 -0.01083815 0.01075708
v 0.02372531 -0.01083815 0.00670134
v 0.02482147 -0.01083815 0.00225405
v 0.02482147 -0.01083815 -0.00232635
v 0.02372531 -0.01083815 -0.00677364
v 0.02159669 -0.01083815 -0.01082938
v 0.01855933 -0.01083815 -0.01425786
v 0.01478974 -0.01083815 -0.01685981
v 0.01050700 -0.01083815 -0.01848404
v 0.00596000 -0.01083815 -0.01903614
v 0.00141300 -0.01083815 -0.01848404
v -0.00286974 -0.01083815 -0.01685981
v -0.00663933 -0.01083815 -0.01425785
v -0.00967669 -0.01083815 -0.01082937
v -0.01180531 -0.01083815 -0.00677364
v -0.01290147 -0.01083815 -0.00232634
v -0.01290147 -0.01083815 0.00225405
v -0.01180531 -0.01083815 0.00670135
v -0.00967669 -0.01083815 0.01075708
v -0.00663933 -0.01083815 0.01418556
v -0.00286974 -0.01083815 0.01678752
v 0.00141301 -0.01083815 0.01841175
v -0.01024000 -0.01083815 -0.00003615
v -0.01026324 -0.01083815 0.00015531
v -0.01033163 -0.01083815 0.00033563
v -0.01044119 -0.01083815 0.00049435
v -0.01058555 -0.01083815 0.00062224
v -0.01075631 -0.01083815 0.00071187
v -0.01094357 -0.01083815 0.00075802
v -0.01113643 -0.01083815 0.00075802
v -0.01132368 -0.01083815 0.00071187
v -0.01149445 -0.01083815 0.00062224
v -0.01163881 -0.01083815 0.00049435
v -0.01174836 -0.01083815 0.00033563
v -0.01181675 -0.01083815 0.00015531
v -0.01184000 -0.01083815 -0.00003615
v -0.01181675 -0.01083815 -0.00022760
v -0.01174836 -0.01083815 -0.00040792
v -0.01163881 -0.01083815 -0.00056664
v -0.01149445 -0.01083815 -0.00069453
v -0.01132368 -0.01083815 -0.00078416
v -0.01113643 -0.01083815 -0.00083031
v -0.01094357 -0.01083815 -0.00083031
v -0.01075631 -0.01083815 -0.00078416
v -0.01058555 -0.01083815 -0.00069453
v -0.01044119 -0.01083815 -0.00056664
v -0.01033163 -0.01083815 -0.00040792
v -0.01026324 -0.01083815 -0.00022760
v 0.00596000 -0.01083815 0.01776385
v 0.00576855 -0.01083815 0.01774061
v 0.00558823 -0.01083815 0.01767222
v 0.00542951 -0.01083815 0.01756266
v 0.00530162 -0.01083815 0.01741831
v 0.00521199 -0.01083815 0.01724754
v 0.00516584 -0.01083815 0.01706028
v 0.00516584 -0.01083815 0.01686743
v 0.00521199 -0.01083815 0.01668017
v 0.00530162 -0.01083815 0.01650940
v 0.00542951 -0.01083815 0.01636504
v 0.00558823 -0.01083815 0.01625549
v 0.00576855 -0.01083815 0.01618710
v 0.00596000 -0.01083815 0.01616385
v 0.00615146 -0.01083815 0.01618710
v 0.00633178 -0.01083815 0.01625549
v 0.00649050 -0.01083815 0.01636504
v 0.00661839 -0.01083815 0.01650940
v 0.00670802 -0.01083815 0.01668017
v 0.00675417 -0.01083815 0.01686743
v 0.00675417 -0.01083815 0.01706028
v 0.00670802 -0.01083815 0.01724754
v 0.00661839 -0.01083815 0.01741831
v 0.00649050 -0.01083815 0.01756266
v 0.00633178 -0.01083815 0.01767222
v 0.00615146 -0.01083815 0.01774061
v 0.02376000 -0.01083815 -0.00003615
v 0.02373675 -0.01083815 0.00015530
v 0.02366837 -0.01083815 0.00033563
v 0.02355881 -0.01083815 0.00049435
v 0.02341445 -0.01083815 0.00062224
v 0.02324369 -0.01083815 0.00071187
v 0.02305643 -0.01083815 0.00075802
v 0.02286357 -0.01083815 0.00075802
v 0.02267632 -0.01083815 0.00071187
v 0.02250555 -0.01083815 0.00062224
v 0.02236119 -0.01083815 0.00049435
v 0.02225164 -0.01083815 0.00033563
v 0.02218325 -0.01083815 0.00015530
v 0.02216000 -0.01083815 -0.00003615
v 0.02218325 -0.01083815 -0.00022760
v 0.02225164 -0.01083815 -0.00040793
v 0.02236119 -0.01083815 -0.00056665
v 0.02250555 -0.01083815 -0.00069454
v 0.02267632 -0.01083815 -0.00078416
v 0.02286357 -0.01083815 -0.00083032
v 0.02305643 -0.01083815 -0.00083032
v 0.02324369 -0.01083815 -0.00078416
v 0.02341445 -0.01083815 -0.00069454
v 0.02355881 -0.01083815 -0.00056665
v 0.02366837 -0.01083815 -0.00040793
v 0.02373675 -0.01083815 -0.00022760
v 0.00596000 -0.01083815 -0.01623615
v 0.00576855 -0.01083815 -0.01625939
v 0.00558822 -0.01083815 -0.01632778
v 0.00542950 -0.01083815 -0.01643734
v 0.00530161 -0.01083815 -0.01658169
v 0.00521199 -0.01083815 -0.01675247
v 0.00516583 -0.01083815 -0.01693971
v 0.00516583 -0.01083815 -0.01713257
v 0.00521199 -0.01083815 -0.01731983
v 0.00530161 -0.01083815 -0.01749060
v 0.00542950 -0.01083815 -0.01763496
v 0.00558822 -0.01083815 -0.01774451
v 0.00576855 -0.01083815 -0.01781290
v 0.00596000 -0.01083815 -0.01783615
v 0.00615145 -0.01083815 -0.01781290
v 0.00633178 -0.01083815 -0.01774451
v 0.00649050 -0.01083815 -0.01763496
v 0.00661839 -0.01083815 -0.01749060
v 0.00670801 -0.01083815 -0.01731983
v 0.00675417 -0.01083815 -0.01713257
v 0.00675417 -0.01083815 -0.01693971
v 0.00670801 -0.01083815 -0.01675247
v 0.00661839 -0.01083815 -0.01658169
v 0.00649050 -0.01083815 -0.01643734
v 0.00633178 -0.01083815 -0.01632778
v 0.00615145 -0.01083815 -0.01625939
v 0.00596000 -0.00653815 -0.01903614
v 0.00635639 -0.00649128 -0.01903201
v 0.00673167 -0.00635294 -0.01902047
v 0.00706356 -0.00613122 -0.01900407
v 0.00733455 -0.00583812 -0.01898637
v 0.00752994 -0.00549029 -0.01897117
v 0.00762680 -0.00517182 -0.01896292
v 0.00766000 -0.00483815 -0.01895994
v 0.00761313 -0.00444176 -0.01896410
v 0.00747479 -0.00406648 -0.01897567
v 0.00725307 -0.00373460 -0.01899210
v 0.00695997 -0.00346360 -0.01900979
v 0.00661214 -0.00326821 -0.01902495
v 0.00629367 -0.00317135 -0.01903318
v 0.00596000 -0.00313815 -0.01903614
v 0.00596000 0.00016185 -0.01903614
v 0.01050700 0.00016185 -0.01848404
v 0.01478974 0.00016185 -0.01685981
v 0.01855933 0.00016185 -0.01425786
v 0.02159669 0.00016185 -0.01082938
v 0.02372531 0.00016185 -0.00677364
v 0.02482147 0.00016185 -0.00232635
v 0.02482147 0.00016185 0.00225405
v 0.02372531 0.00016185 0.00670134
v 0.02159670 0.00016185 0.01075708
v 0.01855933 0.00016185 0.01418556
v 0.01478974 0.00016185 0.01678752
v 0.01050700 0.00016185 0.01841175
v 0.00596000 0.00016185 0.01896385
v 0.00596000 -0.00313815 0.01896385
v 0.00635639 -0.00318502 0.01895972
v 0.00673168 -0.00332336 0.01894818
v 0.00706356 -0.00354508 0.01893178
v 0.00733456 -0.00383818 0.01891407
v 0.00752994 -0.00418601 0.01889888
v 0.00762681 -0.00450448 0.01889063
v 0.00766000 -0.00483815 0.01888765
v 0.00761313 -0.00523454 0.01889180
v 0.00747479 -0.00560982 0.01890337
v 0.00725307 -0.00594170 0.01891980
v 0.00695998 -0.00621270 0.01893750
v 0.00661215 -0.00640809 0.01895266
v 0.00629367 -0.00650495 0.01896089
v 0.00596000 -0.00653815 0.01896385
v 0.00596000 -0.01083815 0.01896385
v 0.01050700 -0.01083815 0.01841175
v 0.01478974 -0.01083815 0.01678752
v 0.01855933 -0.01083815 0.01418556
v 0.02159670 -0.01083815 0.01075708
v 0.02372531 -0.01083815 0.00670134
v 0.02482147 -0.01083815 0.00225405
v 0.02482147 -0.01083815 -0.00232635
v 0.02372531 -0.01083815 -0.00677364
v 0.02159669 -0.01083815 -0.01082938
v 0.01855933 -0.01083815 -0.01425786
v 0.01478974 -0.01083815 -0.01685981
v 0.01050700 -0.01083815 -0.01848404
v 0.00596000 -0.01083815 -0.01903614
v 0.02488380 -0.00483815 -0.00173615
v 0.02488795 -0.00523472 -0.00168923
v 0.02489954 -0.00561015 -0.00155077
v 0.02491597 -0.00594213 -0.00132885
v 0.02493368 -0.00621314 -0.00103552
v 0.02494884 -0.00640845 -0.00068743
v 0.02495809 -0.00651686 -0.00030311
v 0.02495953 -0.00653294 0.00009625
v 0.02495276 -0.00645527 0.00048824
v 0.02493925 -0.00628790 0.00085164
v 0.02492199 -0.00604106 0.00116510
v 0.02490470 -0.00572791 0.00141240
v 0.02489112 -0.00536446 0.00158034
v 0.02488570 -0.00510529 0.00164276
v 0.02488380 -0.00483815 0.00166385
v 0.02488795 -0.00444158 0.00161693
v 0.02489954 -0.00406615 0.00147847
v 0.02491597 -0.00373417 0.00125656
v 0.02493368 -0.00346316 0.00096322
v 0.02494884 -0.00326785 0.00061513
v 0.02495809 -0.00315944 0.00023081
v 0.02495953 -0.00314336 -0.00016855
v 0.02495276 -0.00322103 -0.00056054
v 0.02493925 -0.00338840 -0.00092394
v 0.02492199 -0.00363524 -0.00123740
v 0.02490470 -0.00394839 -0.00148469
v 0.02489112 -0.00431183 -0.00165264
v 0.02488570 -0.00457101 -0.00171506
v 0.02488380 -0.00483815 0.00166385
v 0.02853500 -0.00483815 0.00166385
v 0.02853500 -0.00443131 0.00161445
v 0.02853500 -0.00404812 0.00146913
v 0.02853500 -0.00371084 0.00123632
v 0.02853500 -0.00343908 0.00092956
v 0.02853500 -0.00324862 0.00056668
v 0.02853500 -0.00315055 0.00016876
v 0.02853500 -0.00315055 -0.00024106
v 0.02853500 -0.00324862 -0.00063898
v 0.02853500 -0.00343908 -0.00100186
v 0.02853500 -0.00371084 -0.00130862
v 0.02853500 -0.00404812 -0.00154142
v 0.02853500 -0.00443131 -0.00168675
v 0.02853500 -0.00483815 -0.00173615
v 0.02488380 -0.00483815 -0.00173615
v 0.02488795 -0.00444158 0.00161693
v 0.02489954 -0.00406615 0.00147847
v 0.02491597 -0.00373417 0.00125656
v 0.02493368 -0.00346316 0.00096322
v 0.02494884 -0.00326785 0.00061513
v 0.02495809 -0.00315944 0.00023081
v 0.02495953 -0.00314336 -0.00016855
v 0.02495276 -0.00322103 -0.00056054
v 0.02493925 -0.00338840 -0.00092394
v 0.02492199 -0.00363524 -0.00123740
v 0.02490470 -0.00394839 -0.00148469
v 0.02489112 -0.00431183 -0.00165264
v 0.02488570 -0.00457101 -0.00171506
v 0.00426000 -0.00483815 -0.02261115
v 0.00430940 -0.00524499 -0.02261115
v 0.00445472 -0.00562818 -0.02261115
v 0.00468753 -0.00596546 -0.02261115
v 0.00499429 -0.00623722 -0.02261115
v 0.00535717 -0.00642768 -0.02261115
v 0.00575509 -0.00652575 -0.02261115
v 0.00616491 -0.00652575 -0.02261115
v 0.00656283 -0.00642768 -0.02261115
v 0.00692571 -0.00623722 -0.02261115
v 0.00723247 -0.00596546 -0.02261115
v 0.00746527 -0.00562818 -0.02261115
v 0.00761060 -0.00524499 -0.02261115
v 0.00766000 -0.00483815 -0.02261115
v 0.00766000 -0.00483815 -0.01895994
v 0.00596000 -0.00653815 -0.01903614
v 0.00635639 -0.00649128 -0.01903201
v 0.00673167 -0.00635294 -0.01902047
v 0.00706356 -0.00613122 -0.01900407
v 0.00733455 -0.00583812 -0.01898637
v 0.00752994 -0.00549029 -0.01897117
v 0.00762680 -0.00517182 -0.01896292
v 0.00426000 -0.00483815 -0.01895994
v 0.00430687 -0.00523454 -0.01896410
v 0.00444521 -0.00560982 -0.01897567
v 0.00466693 -0.00594170 -0.01899210
v 0.00496003 -0.00621270 -0.01900979
v 0.00530786 -0.00640809 -0.01902495
v 0.00562633 -0.00650495 -0.01903318
v 0.00766000 -0.00483815 0.02253885
v 0.00761061 -0.00524499 0.02253885
v 0.00746528 -0.00562818 0.02253885
v 0.00723247 -0.00596546 0.02253885
v 0.00692571 -0.00623722 0.02253885
v 0.00656283 -0.00642768 0.02253885
v 0.00616492 -0.00652575 0.02253885
v 0.00575509 -0.00652575 0.02253885
v 0.00535718 -0.00642768 0.02253885
v 0.00499429 -0.00623722 0.02253885
v 0.00468754 -0.00596546 0.02253885
v 0.00445473 -0.00562818 0.02253885
v 0.00430940 -0.00524499 0.02253885
v 0.00426000 -0.00483815 0.02253885
v 0.00426000 -0.00483815 0.01888765
v 0.00596000 -0.00653815 0.01896385
v 0.00556362 -0.00649128 0.01895972
v 0.00518833 -0.00635294 0.01894818
v 0.00485645 -0.00613122 0.01893178
v 0.00458545 -0.00583812 0.01891407
v 0.00439006 -0.00549029 0.01889888
v 0.00429320 -0.00517182 0.01889063
v 0.00766000 -0.00483815 0.01888765
v 0.00761313 -0.00523454 0.01889180
v 0.00747479 -0.00560982 0.01890337
v 0.00725307 -0.00594170 0.01891980
v 0.00695998 -0.00621270 0.01893750
v 0.00661215 -0.00640809 0.01895266
v 0.00629367 -0.00650495 0.01896089
v -0.01661500 -0.00483815 0.00166386
v -0.01661500 -0.00524499 0.00161446
v -0.01661500 -0.00562818 0.00146913
v -0.01661500 -0.00596546 0.00123632
v -0.01661500 -0.00623722 0.00092956
v -0.01661500 -0.00642768 0.00056668
v -0.01661500 -0.00652575 0.00016877
v -0.01661500 -0.00652575 -0.00024106
v -0.01661500 -0.00642768 -0.00063897
v -0.01661500 -0.00623722 -0.00100185
v -0.01661500 -0.00596546 -0.00130861
v -0.01661500 -0.00562818 -0.00154142
v -0.01661500 -0.00524499 -0.00168674
v -0.01661500 -0.00483815 -0.00173615
v -0.01296379 -0.00483815 -0.00173615
v -0.01296379 -0.00483815 0.00166386
v -0.01296795 -0.00523472 0.00161694
v -0.01297953 -0.00561015 0.00147847
v -0.01299597 -0.00594213 0.00125656
v -0.01301367 -0.00621314 0.00096323
v -0.01302883 -0.00640845 0.00061514
v -0.01303808 -0.00651686 0.00023082
v -0.01303953 -0.00653294 -0.00016855
v -0.01303276 -0.00645527 -0.00056054
v -0.01301924 -0.00628790 -0.00092394
v -0.01300199 -0.00604106 -0.00123740
v -0.01298470 -0.00572791 -0.00148469
v -0.01297112 -0.00536446 -0.00165263
v -0.01296570 -0.00510529 -0.00171505
v 0.02853500 -0.00483815 -0.00173615
v 0.02853500 -0.00524499 -0.00168675
v 0.02853500 -0.00562818 -0.00154142
v 0.02853500 -0.00596546 -0.00130862
v 0.02853500 -0.00623722 -0.00100186
v 0.02853500 -0.00642768 -0.00063898
v 0.02853500 -0.00652575 -0.00024106
v 0.02853500 -0.00652575 0.00016876
v 0.02853500 -0.00642768 0.00056668
v 0.02853500 -0.00623722 0.00092956
v 0.02853500 -0.00596546 0.00123632
v 0.02853500 -0.00562818 0.00146913
v 0.02853500 -0.00524499 0.00161445
v 0.02853500 -0.00483815 0.00166385
v 0.02488380 -0.00483815 0.00166385
v 0.02488380 -0.00483815 -0.00173615
v 0.02488795 -0.00523472 -0.00168923
v 0.02489954 -0.00561015 -0.00155077
v 0.02491597 -0.00594213 -0.00132885
v 0.02493368 -0.00621314 -0.00103552
v 0.02494884 -0.00640845 -0.00068743
v 0.02495809 -0.00651686 -0.00030311
v 0.02495953 -0.00653294 0.00009625
v 0.02495276 -0.00645527 0.00048824
v 0.02493925 -0.00628790 0.00085164
v 0.02492199 -0.00604106 0.00116510
v 0.02490470 -0.00572791 0.00141240
v 0.02489112 -0.00536446 0.00158034
v 0.02488570 -0.00510529 0.00164276
v -0.01986634 -0.00483815 0.00296386
v -0.01986955 -0.00524544 0.00293611
v -0.01987891 -0.00564361 0.00285368
v -0.01989384 -0.00603027 0.00271682
v -0.02118468 -0.00783815 -0.00003614
v -0.02114941 -0.00782204 0.00027436
v -0.02105809 -0.00777638 0.00056948
v -0.02088645 -0.00767631 0.00093595
v -0.02059155 -0.00745092 0.00143822
v -0.02027063 -0.00709222 0.00194354
v -0.02003404 -0.00666347 0.00234468
v -0.01993942 -0.00636340 0.00254718
v -0.01989384 -0.00603027 -0.00278911
v -0.01995569 -0.00642921 -0.00257947
v -0.02008667 -0.00678213 -0.00232108
v -0.02026270 -0.00708105 -0.00202848
v -0.02053934 -0.00740251 -0.00159318
v -0.02086174 -0.00766021 -0.00105431
v -0.02110601 -0.00780095 -0.00050712
v -0.02116335 -0.00782849 -0.00027601
v -0.01987520 -0.00551460 -0.00295889
v -0.01986861 -0.00517992 -0.00301658
v -0.01986634 -0.00483815 -0.00303615
v -0.01664000 -0.00483815 -0.00303615
v -0.01664000 -0.00555610 -0.00294897
v -0.01664000 -0.00623232 -0.00269251
v -0.01664000 -0.00682752 -0.00228168
v -0.01664000 -0.00730710 -0.00174034
v -0.01664000 -0.00764320 -0.00109996
v -0.01664000 -0.00781628 -0.00039775
v -0.01664000 -0.00781628 0.00032546
v -0.01664000 -0.00764320 0.00102767
v -0.01664000 -0.00730710 0.00166805
v -0.01664000 -0.00682752 0.00220939
v -0.01664000 -0.00623232 0.00262022
v -0.01664000 -0.00555610 0.00287668
v -0.01664000 -0.00483815 0.00296386
v -0.01664000 -0.00483815 -0.00303615
v -0.01986634 -0.00483815 -0.00303615
v -0.01987422 -0.00420005 -0.00296749
v -0.01989650 -0.00358963 -0.00276401
v -0.01992892 -0.00303929 -0.00243694
v -0.01996577 -0.00256979 -0.00199949
v -0.02000033 -0.00220398 -0.00147177
v -0.02002632 -0.00195911 -0.00087935
v -0.02003915 -0.00184551 -0.00024664
v -0.02003640 -0.00186944 0.00039569
v -0.02001869 -0.00202879 0.00101627
v -0.01998904 -0.00231769 0.00159089
v -0.01995298 -0.00272089 0.00208923
v -0.01991695 -0.00322050 0.00249035
v -0.01988735 -0.00379616 0.00277710
v -0.01987182 -0.00430601 0.00291628
v -0.01986634 -0.00483815 0.00296386
v -0.01664000 -0.00483815 0.00296386
v -0.01664000 -0.00412020 0.00287668
v -0.01664000 -0.00344398 0.00262022
v -0.01664000 -0.00284878 0.00220939
v -0.01664000 -0.00236920 0.00166805
v -0.01664000 -0.00203310 0.00102767
v -0.01664000 -0.00186002 0.00032546
v -0.01664000 -0.00186002 -0.00039775
v -0.01664000 -0.00203310 -0.00109996
v -0.01664000 -0.00236920 -0.00174034
v -0.01664000 -0.00284878 -0.00228168
v -0.01664000 -0.00344398 -0.00269251
v -0.01664000 -0.00412020 -0.00294897
v 0.00596000 0.00016185 0.02596385
v 0.00596000 -0.00183815 0.02596385
v 0.00596000 0.00016185 -0.02603614
v -0.00026221 0.00016185 -0.02528063
v -0.00612280 0.00016185 -0.02305800
v -0.01128119 0.00016185 -0.01949742
v -0.01543758 0.00016185 -0.01480583
v -0.01835042 0.00016185 -0.00925587
v -0.01985043 0.00016185 -0.00317010
v -0.01985043 0.00016185 0.00309781
v -0.01835042 0.00016185 0.00918358
v -0.01543758 0.00016185 0.01473354
v -0.01128118 0.00016185 0.01942514
v -0.00612280 0.00016185 0.02298571
v -0.00026220 0.00016185 0.02520834
v 0.00596000 -0.00183815 -0.02603614
v 0.00526029 -0.00192092 -0.02602673
v 0.00459801 -0.00216511 -0.02600045
v 0.00401246 -0.00255635 -0.02596310
v 0.00353490 -0.00307208 -0.02592281
v 0.00318961 -0.00368709 -0.02588813
v 0.00301821 -0.00425001 -0.02586918
v 0.00296000 -0.00483815 -0.02586249
v 0.00298774 -0.00524544 -0.02586570
v 0.00307018 -0.00564361 -0.02587505
v 0.00320703 -0.00603027 -0.02588999
v -0.00252710 -0.00603027 -0.02461193
v -0.00782791 -0.00603027 -0.02207913
v -0.01242478 -0.00603027 -0.01842092
v -0.01608299 -0.00603027 -0.01382406
v -0.01861578 -0.00603027 -0.00852324
v -0.01989384 -0.00603027 -0.00278911
v -0.01987520 -0.00551460 -0.00295889
v -0.01986861 -0.00517992 -0.00301658
v -0.01986634 -0.00483815 -0.00303615
v -0.01987422 -0.00420005 -0.00296749
v -0.01989650 -0.00358963 -0.00276401
v -0.01992892 -0.00303929 -0.00243694
v -0.01996577 -0.00256979 -0.00199949
v -0.02000033 -0.00220398 -0.00147177
v -0.02002632 -0.00195911 -0.00087935
v -0.02003915 -0.00184551 -0.00024664
v -0.02003640 -0.00186944 0.00039569
v -0.02001869 -0.00202879 0.00101627
v -0.01998904 -0.00231769 0.00159089
v -0.01995298 -0.00272089 0.00208923
v -0.01991695 -0.00322050 0.00249035
v -0.01988735 -0.00379616 0.00277710
v -0.01987182 -0.00430601 0.00291628
v -0.01986634 -0.00483815 0.00296386
v -0.01986955 -0.00524544 0.00293611
v -0.01987891 -0.00564361 0.00285368
v -0.01989384 -0.00603027 0.00271682
v -0.01861578 -0.00603027 0.00845096
v -0.01608299 -0.00603027 0.01375177
v -0.01242477 -0.00603027 0.01834863
v -0.00782791 -0.00603027 0.02200684
v -0.00252710 -0.00603027 0.02453964
v 0.00320703 -0.00603027 0.02581770
v 0.00303726 -0.00551460 0.02579905
v 0.00297957 -0.00517992 0.02579247
v 0.00296000 -0.00483815 0.02579020
v 0.00304277 -0.00413844 0.02579968
v 0.00328696 -0.00347617 0.02582608
v 0.00367819 -0.00289062 0.02586353
v 0.00419393 -0.00241306 0.02590380
v 0.00480894 -0.00206776 0.02593836
v 0.00537187 -0.00189637 0.02595720
v 0.00296000 -0.00483815 -0.02586249
v 0.00298774 -0.00524544 -0.02586570
v 0.00307018 -0.00564361 -0.02587505
v 0.00320703 -0.00603027 -0.02588999
v 0.00871297 -0.00603027 -0.02588999
v 0.00850716 -0.00642307 -0.02595022
v 0.00825400 -0.00677142 -0.02607770
v 0.00796737 -0.00706761 -0.02624944
v 0.00754118 -0.00738766 -0.02652016
v 0.00701428 -0.00764698 -0.02683812
v 0.00648114 -0.00779254 -0.02708541
v 0.00621917 -0.00782684 -0.02715595
v 0.00592209 -0.00783790 -0.02718026
v 0.00561817 -0.00781855 -0.02713834
v 0.00532987 -0.00777122 -0.02704444
v 0.00497149 -0.00767069 -0.02687386
v 0.00448141 -0.00744865 -0.02658507
v 0.00398378 -0.00709565 -0.02626893
v 0.00355238 -0.00662786 -0.02601624
v 0.00336446 -0.00634256 -0.02593090
v 0.00888275 -0.00551460 -0.02587134
v 0.00894043 -0.00517992 -0.02586476
v 0.00896000 -0.00483815 -0.02586249
v 0.00896000 -0.00483815 -0.02263615
v 0.00887282 -0.00555610 -0.02263615
v 0.00861637 -0.00623232 -0.02263615
v 0.00820553 -0.00682752 -0.02263615
v 0.00766419 -0.00730710 -0.02263615
v 0.00702381 -0.00764320 -0.02263615
v 0.00632161 -0.00781628 -0.02263615
v 0.00559839 -0.00781628 -0.02263615
v 0.00489618 -0.00764320 -0.02263615
v 0.00425581 -0.00730710 -0.02263615
v 0.00371447 -0.00682752 -0.02263615
v 0.00330363 -0.00623232 -0.02263615
v 0.00304717 -0.00555610 -0.02263615
v 0.00296000 -0.00483815 -0.02263615
v 0.03178634 -0.00483815 -0.00303615
v 0.03178956 -0.00524544 -0.00300841
v 0.03179891 -0.00564361 -0.00292597
v 0.03181385 -0.00603027 -0.00278912
v 0.03310468 -0.00783815 -0.00003615
v 0.03306941 -0.00782204 -0.00034665
v 0.03297809 -0.00777638 -0.00064177
v 0.03280646 -0.00767631 -0.00100825
v 0.03251156 -0.00745092 -0.00151051
v 0.03219063 -0.00709222 -0.00201583
v 0.03195405 -0.00666347 -0.00241698
v 0.03185943 -0.00636340 -0.00261947
v 0.03181385 -0.00603027 0.00271682
v 0.03187569 -0.00642921 0.00250718
v 0.03200667 -0.00678213 0.00224879
v 0.03218270 -0.00708105 0.00195618
v 0.03245934 -0.00740251 0.00152089
v 0.03278175 -0.00766021 0.00098201
v 0.03302601 -0.00780095 0.00043482
v 0.03308335 -0.00782849 0.00020371
v 0.03179520 -0.00551460 0.00288660
v 0.03178861 -0.00517992 0.00294428
v 0.03178634 -0.00483815 0.00296385
v 0.02856000 -0.00483815 0.00296385
v 0.02856000 -0.00555610 0.00287668
v 0.02856000 -0.00623232 0.00262022
v 0.02856000 -0.00682752 0.00220938
v 0.02856000 -0.00730710 0.00166804
v 0.02856000 -0.00764320 0.00102767
v 0.02856000 -0.00781628 0.00032546
v 0.02856000 -0.00781628 -0.00039776
v 0.02856000 -0.00764320 -0.00109996
v 0.02856000 -0.00730710 -0.00174034
v 0.02856000 -0.00682752 -0.00228168
v 0.02856000 -0.00623232 -0.00269252
v 0.02856000 -0.00555610 -0.00294897
v 0.02856000 -0.00483815 -0.00303615
v 0.00896000 -0.00483815 0.02579020
v 0.00893226 -0.00524544 0.02579341
v 0.00884983 -0.00564361 0.02580276
v 0.00871298 -0.00603027 0.02581769
v 0.00320703 -0.00603027 0.02581770
v 0.00341284 -0.00642307 0.02587792
v 0.00366601 -0.00677142 0.02600541
v 0.00395263 -0.00706761 0.02617715
v 0.00437882 -0.00738766 0.02644787
v 0.00490573 -0.00764698 0.02676583
v 0.00543886 -0.00779254 0.02701311
v 0.00570083 -0.00782684 0.02708365
v 0.00599792 -0.00783790 0.02710797
v 0.00630183 -0.00781855 0.02706605
v 0.00659014 -0.00777122 0.02697214
v 0.00694851 -0.00767069 0.02680157
v 0.00743859 -0.00744865 0.02651278
v 0.00793622 -0.00709565 0.02619663
v 0.00836762 -0.00662786 0.02594394
v 0.00855554 -0.00634256 0.02585860
v 0.00303726 -0.00551460 0.02579905
v 0.00297957 -0.00517992 0.02579247
v 0.00296000 -0.00483815 0.02579020
v 0.00296000 -0.00483815 0.02256385
v 0.00304718 -0.00555610 0.02256385
v 0.00330364 -0.00623232 0.02256385
v 0.00371447 -0.00682752 0.02256385
v 0.00425581 -0.00730710 0.02256385
v 0.00489619 -0.00764320 0.02256385
v 0.00559839 -0.00781628 0.02256385
v 0.00632161 -0.00781628 0.02256385
v 0.00702382 -0.00764320 0.02256385
v 0.00766420 -0.00730710 0.02256385
v 0.00820554 -0.00682752 0.02256385
v 0.00861637 -0.00623232 0.02256385
v 0.00887283 -0.00555610 0.02256385
v 0.00896000 -0.00483815 0.02256385
v -0.01664000 -0.00483815 0.00296386
v -0.01664000 -0.00412020 0.00287668
v -0.01664000 -0.00344398 0.00262022
v -0.01664000 -0.00284878 0.00220939
v -0.01664000 -0.00236920 0.00166805
v -0.01664000 -0.00203310 0.00102767
v -0.01664000 -0.00186002 0.00032546
v -0.01664000 -0.00186002 -0.00039775
v -0.01664000 -0.00203310 -0.00109996
v -0.01664000 -0.00236920 -0.00174034
v -0.01664000 -0.00284878 -0.00228168
v -0.01664000 -0.00344398 -0.00269251
v -0.01664000 -0.00412020 -0.00294897
v -0.01664000 -0.00483815 -0.00303615
v -0.01664000 -0.00555610 -0.00294897
v -0.01664000 -0.00623232 -0.00269251
v -0.01664000 -0.00682752 -0.00228168
v -0.01664000 -0.00730710 -0.00174034
v -0.01664000 -0.00764320 -0.00109996
v -0.01664000 -0.00781628 -0.00039775
v -0.01664000 -0.00781628 0.00032546
v -0.01664000 -0.00764320 0.00102767
v -0.01664000 -0.00730710 0.00166805
v -0.01664000 -0.00682752 0.00220939
v -0.01664000 -0.00623232 0.00262022
v -0.01664000 -0.00555610 0.00287668
v -0.01664000 -0.00483815 0.00168886
v -0.01664000 -0.00525097 0.00163873
v -0.01664000 -0.00563980 0.00149127
v -0.01664000 -0.00598204 0.00125504
v -0.01664000 -0.00625780 0.00094377
v -0.01664000 -0.00645105 0.00057555
v -0.01664000 -0.00655057 0.00017178
v -0.01664000 -0.00655057 -0.00024407
v -0.01664000 -0.00645105 -0.00064784
v -0.01664000 -0.00625780 -0.00101606
v -0.01664000 -0.00598204 -0.00132732
v -0.01664000 -0.00563980 -0.00156356
v -0.01664000 -0.00525097 -0.00171102
v -0.01664000 -0.00483815 -0.00176115
v -0.01664000 -0.00442533 -0.00171102
v -0.01664000 -0.00403650 -0.00156356
v -0.01664000 -0.00369426 -0.00132732
v -0.01664000 -0.00341850 -0.00101606
v -0.01664000 -0.00322525 -0.00064784
v -0.01664000 -0.00312573 -0.00024407
v -0.01664000 -0.00312573 0.00017178
v -0.01664000 -0.00322525 0.00057555
v -0.01664000 -0.00341850 0.00094377
v -0.01664000 -0.00369426 0.00125504
v -0.01664000 -0.00403650 0.00149127
v -0.01664000 -0.00442533 0.00163873
v 0.00296000 -0.00483815 -0.02263615
v 0.00304717 -0.00412020 -0.02263615
v 0.00330363 -0.00344398 -0.02263615
v 0.00371447 -0.00284878 -0.02263615
v 0.00425581 -0.00236920 -0.02263615
v 0.00489618 -0.00203310 -0.02263615
v 0.00559839 -0.00186002 -0.02263615
v 0.00632161 -0.00186002 -0.02263615
v 0.00702381 -0.00203310 -0.02263615
v 0.00766419 -0.00236920 -0.02263615
v 0.00820553 -0.00284878 -0.02263615
v 0.00861637 -0.00344398 -0.02263615
v 0.00887282 -0.00412020 -0.02263615
v 0.00896000 -0.00483815 -0.02263615
v 0.00887282 -0.00555610 -0.02263615
v 0.00861637 -0.00623232 -0.02263615
v 0.00820553 -0.00682752 -0.02263615
v 0.00766419 -0.00730710 -0.02263615
v 0.00702381 -0.00764320 -0.02263615
v 0.00632161 -0.00781628 -0.02263615
v 0.00559839 -0.00781628 -0.02263615
v 0.00489618 -0.00764320 -0.02263615
v 0.00425581 -0.00730710 -0.02263615
v 0.00371447 -0.00682752 -0.02263615
v 0.00330363 -0.00623232 -0.02263615
v 0.00304717 -0.00555610 -0.02263615
v 0.00423500 -0.00483815 -0.02263615
v 0.00428513 -0.00525097 -0.02263615
v 0.00443259 -0.00563980 -0.02263615
v 0.00466882 -0.00598204 -0.02263615
v 0.00498009 -0.00625780 -0.02263615
v 0.00534831 -0.00645105 -0.02263615
v 0.00575207 -0.00655057 -0.02263615
v 0.00616793 -0.00655057 -0.02263615
v 0.00657169 -0.00645105 -0.02263615
v 0.00693991 -0.00625780 -0.02263615
v 0.00725118 -0.00598204 -0.02263615
v 0.00748741 -0.00563980 -0.02263615
v 0.00763487 -0.00525097 -0.02263615
v 0.00768500 -0.00483815 -0.02263615
v 0.00763487 -0.00442533 -0.02263615
v 0.00748741 -0.00403650 -0.02263615
v 0.00725118 -0.00369426 -0.02263615
v 0.00693991 -0.00341850 -0.02263615
v 0.00657169 -0.00322525 -0.02263615
v 0.00616793 -0.00312573 -0.02263615
v 0.00575207 -0.00312573 -0.02263615
v 0.00534831 -0.00322525 -0.02263615
v 0.00498009 -0.00341850 -0.02263615
v 0.00466882 -0.00369426 -0.02263615
v 0.00443259 -0.00403650 -0.02263615
v 0.00428513 -0.00442533 -0.02263615
v 0.02856000 -0.00483815 -0.00303615
v 0.02856000 -0.00412020 -0.00294897
v 0.02856000 -0.00344398 -0.00269252
v 0.02856000 -0.00284878 -0.00228168
v 0.02856000 -0.00236920 -0.00174034
v 0.02856000 -0.00203310 -0.00109996
v 0.02856000 -0.00186002 -0.00039776
v 0.02856000 -0.00186002 0.00032546
v 0.02856000 -0.00203310 0.00102767
v 0.02856000 -0.00236920 0.00166804
v 0.02856000 -0.00284878 0.00220938
v 0.02856000 -0.00344398 0.00262022
v 0.02856000 -0.00412020 0.00287668
v 0.02856000 -0.00483815 0.00296385
v 0.02856000 -0.00555610 0.00287668
v 0.02856000 -0.00623232 0.00262022
v 0.02856000 -0.00682752 0.00220938
v 0.02856000 -0.00730710 0.00166804
v 0.02856000 -0.00764320 0.00102767
v 0.02856000 -0.00781628 0.00032546
v 0.02856000 -0.00781628 -0.00039776
v 0.02856000 -0.00764320 -0.00109996
v 0.02856000 -0.00730710 -0.00174034
v 0.02856000 -0.00682752 -0.00228168
v 0.02856000 -0.00623232 -0.00269252
v 0.02856000 -0.00555610 -0.00294897
v 0.02856000 -0.00483815 -0.00176115
v 0.02856000 -0.00525097 -0.00171102
v 0.02856000 -0.00563980 -0.00156356
v 0.02856000 -0.00598204 -0.00132733
v 0.02856000 -0.00625780 -0.00101606
v 0.02856000 -0.00645105 -0.00064784
v 0.02856000 -0.00655057 -0.00024407
v 0.02856000 -0.00655057 0.00017178
v 0.02856000 -0.00645105 0.00057554
v 0.02856000 -0.00625780 0.00094376
v 0.02856000 -0.00598204 0.00125503
v 0.02856000 -0.00563980 0.00149126
v 0.02856000 -0.00525097 0.00163873
v 0.02856000 -0.00483815 0.00168885
v 0.02856000 -0.00442533 0.00163873
v 0.02856000 -0.00403650 0.00149126
v 0.02856000 -0.00369426 0.00125503
v 0.02856000 -0.00341850 0.00094376
v 0.02856000 -0.00322525 0.00057554
v 0.02856000 -0.00312573 0.00017178
v 0.02856000 -0.00312573 -0.00024407
v 0.02856000 -0.00322525 -0.00064784
v 0.02856000 -0.00341850 -0.00101606
v 0.02856000 -0.00369426 -0.00132733
v 0.02856000 -0.00403650 -0.00156356
v 0.02856000 -0.00442533 -0.00171102
v 0.00896000 -0.00483815 0.02256385
v 0.00887283 -0.00412020 0.02256385
v 0.00861637 -0.00344398 0.02256385
v 0.00820554 -0.00284878 0.02256385
v 0.00766420 -0.00236920 0.02256385
v 0.00702382 -0.00203310 0.02256385
v 0.00632161 -0.00186002 0.02256385
v 0.00559839 -0.00186002 0.02256385
v 0.00489619 -0.00203310 0.02256385
v 0.00425581 -0.00236920 0.02256385
v 0.00371447 -0.00284878 0.02256385
v 0.00330364 -0.00344398 0.02256385
v 0.00304718 -0.00412020 0.02256385
v 0.00296000 -0.00483815 0.02256385
v 0.00304718 -0.00555610 0.02256385
v 0.00330364 -0.00623232 0.02256385
v 0.00371447 -0.00682752 0.02256385
v 0.00425581 -0.00730710 0.02256385
v 0.00489619 -0.00764320 0.02256385
v 0.00559839 -0.00781628 0.02256385
v 0.00632161 -0.00781628 0.02256385
v 0.00702382 -0.00764320 0.02256385
v 0.00766420 -0.00730710 0.02256385
v 0.00820554 -0.00682752 0.02256385
v 0.00861637 -0.00623232 0.02256385
v 0.00887283 -0.00555610 0.02256385
v 0.00768500 -0.00483815 0.02256385
v 0.00763488 -0.00525097 0.02256385
v 0.00748742 -0.00563980 0.02256385
v 0.00725119 -0.00598204 0.02256385
v 0.00693992 -0.00625780 0.02256385
v 0.00657170 -0.00645105 0.02256385
v 0.00616793 -0.00655057 0.02256385
v 0.00575208 -0.00655057 0.02256385
v 0.00534831 -0.00645105 0.02256385
v 0.00498009 -0.00625780 0.02256385
v 0.00466882 -0.00598204 0.02256385
v 0.00443259 -0.00563980 0.02256385
v 0.00428513 -0.00525097 0.02256385
v 0.00423500 -0.00483815 0.02256385
v 0.00428513 -0.00442533 0.02256385
v 0.00443259 -0.00403650 0.02256385
v 0.00466882 -0.00369426 0.02256385
v 0.00498009 -0.00341850 0.02256385
v 0.00534831 -0.00322525 0.02256385
v 0.00575208 -0.00312573 0.02256385
v 0.00616793 -0.00312573 0.02256385
v 0.00657170 -0.00322525 0.02256385
v 0.00693992 -0.00341850 0.02256385
v 0.00725119 -0.00369426 0.02256385
v 0.00748742 -0.00403650 0.02256385
v 0.00763488 -0.00442533 0.02256385
f 36 38 37
f 36 39 38
f 36 40 39
f 35 40 36
f 34 40 35
f 41 40 34
f 18 46 19
f 17 46 18
f 16 46 17
f 15 46 16
f 47 12 11
f 47 13 12
f 47 14 13
f 47 15 14
f 47 46 15
f 55 57 54
f 56 57 55
f 53 58 57
f 53 59 58
f 53 52 59
f 53 57 56
f 64 29 28
f 65 30 29
f 65 64 41
f 65 31 30
f 65 32 31
f 65 33 32
f 65 34 33
f 65 29 64
f 65 41 34
f 66 41 64
f 66 64 28
f 67 28 27
f 67 41 66
f 67 66 28
f 67 42 41
f 68 67 27
f 68 42 67
f 69 27 26
f 69 43 42
f 69 42 68
f 69 68 27
f 70 43 69
f 70 69 26
f 71 43 70
f 71 26 25
f 71 44 43
f 71 70 26
f 72 44 71
f 72 71 25
f 73 25 24
f 73 45 44
f 73 72 25
f 73 44 72
f 74 73 24
f 74 45 73
f 75 45 74
f 75 24 23
f 75 46 45
f 75 74 24
f 76 21 20
f 76 22 21
f 76 23 22
f 76 46 75
f 76 75 23
f 77 20 19
f 77 19 46
f 77 76 20
f 77 46 76
f 78 8 7
f 78 9 8
f 78 10 9
f 79 11 10
f 79 78 47
f 79 47 11
f 79 10 78
f 80 7 6
f 80 47 78
f 80 78 7
f 80 48 47
f 81 80 6
f 81 48 80
f 82 6 5
f 82 48 81
f 82 81 6
f 82 49 48
f 83 49 82
f 83 82 5
f 84 5 4
f 84 49 83
f 84 50 49
f 84 83 5
f 85 84 4
f 85 50 84
f 86 4 3
f 86 51 50
f 86 50 85
f 86 85 4
f 87 86 3
f 87 51 86
f 88 3 2
f 88 52 51
f 88 87 3
f 88 51 87
f 89 88 2
f 89 52 88
f 90 2 1
f 90 89 2
f 90 52 89
f 91 52 90
f 91 60 59
f 91 61 60
f 91 62 61
f 91 63 62
f 91 1 63
f 91 90 1
f 91 59 52
f 158 159 105
f 157 158 105
f 104 156 157
f 104 157 105
f 155 156 104
f 154 155 104
f 148 104 103
f 148 149 150
f 148 150 151
f 148 151 152
f 148 152 153
f 148 153 154
f 148 154 104
f 147 103 102
f 147 148 103
f 146 147 102
f 146 102 101
f 145 146 101
f 145 101 100
f 144 145 100
f 134 135 99
f 136 100 99
f 136 99 135
f 133 134 99
f 137 100 136
f 132 99 98
f 132 133 99
f 138 144 100
f 138 100 137
f 131 132 98
f 139 144 138
f 130 131 98
f 140 144 139
f 141 144 140
f 129 130 98
f 142 144 141
f 128 129 98
f 143 144 142
f 97 128 98
f 97 127 128
f 121 122 123
f 121 123 124
f 121 124 125
f 121 125 126
f 121 126 127
f 121 127 97
f 120 97 96
f 120 121 97
f 119 96 95
f 119 120 96
f 118 95 94
f 118 119 95
f 117 94 93
f 117 118 94
f 108 93 92
f 109 93 108
f 107 108 92
f 110 93 109
f 106 107 92
f 111 117 93
f 111 93 110
f 112 117 111
f 113 117 112
f 114 117 113
f 115 117 114
f 116 117 115
f 174 176 175
f 174 177 176
f 173 178 177
f 173 177 174
f 172 179 178
f 172 178 173
f 171 180 179
f 171 179 172
f 170 181 180
f 170 180 171
f 169 182 181
f 169 181 170
f 168 183 182
f 168 182 169
f 167 184 183
f 167 183 168
f 166 185 184
f 166 184 167
f 165 186 185
f 165 185 166
f 164 187 186
f 164 186 165
f 163 188 187
f 163 187 164
f 162 160 188
f 162 188 163
f 161 160 162
f 204 206 205
f 204 207 206
f 203 208 207
f 203 207 204
f 202 209 208
f 202 208 203
f 201 210 209
f 201 209 202
f 200 211 210
f 200 210 201
f 199 211 200
f 198 212 211
f 198 211 199
f 197 213 212
f 197 212 198
f 196 214 213
f 196 213 197
f 195 215 214
f 195 214 196
f 194 216 215
f 194 215 195
f 193 217 216
f 193 216 194
f 192 218 217
f 192 217 193
f 191 189 218
f 191 218 192
f 190 189 191
f 233 235 234
f 233 236 235
f 232 237 236
f 232 236 233
f 231 238 237
f 231 237 232
f 230 239 238
f 230 238 231
f 229 240 239
f 229 239 230
f 228 241 240
f 228 240 229
f 227 242 241
f 227 241 228
f 226 243 242
f 226 242 227
f 225 244 243
f 225 243 226
f 224 245 244
f 224 244 225
f 223 246 245
f 223 245 224
f 222 247 246
f 222 246 223
f 221 219 247
f 221 247 222
f 220 219 221
f 307 309 308
f 307 310 309
f 307 248 310
f 306 248 307
f 305 248 306
f 249 248 305
f 289 254 290
f 288 254 289
f 287 254 288
f 286 254 287
f 255 254 286
f 255 283 282
f 255 284 283
f 255 285 284
f 255 286 285
f 263 265 262
f 264 265 263
f 261 266 265
f 261 267 266
f 261 260 267
f 261 265 264
f 311 300 299
f 312 311 249
f 312 301 300
f 312 302 301
f 312 303 302
f 312 304 303
f 312 305 304
f 312 249 305
f 312 300 311
f 313 249 311
f 313 311 299
f 314 250 249
f 314 299 298
f 314 313 299
f 314 249 313
f 315 314 298
f 315 250 314
f 316 251 250
f 316 250 315
f 316 315 298
f 316 298 297
f 317 251 316
f 317 316 297
f 318 252 251
f 318 317 297
f 318 251 317
f 318 297 296
f 319 252 318
f 319 318 296
f 320 253 252
f 320 296 295
f 320 319 296
f 320 252 319
f 321 253 320
f 321 320 295
f 322 254 253
f 322 253 321
f 322 295 294
f 322 321 295
f 323 292 291
f 323 293 292
f 323 294 293
f 323 254 322
f 323 322 294
f 324 290 254
f 324 291 290
f 324 254 323
f 324 323 291
f 325 279 278
f 325 280 279
f 325 281 280
f 326 325 255
f 326 255 282
f 326 282 281
f 326 281 325
f 327 325 278
f 327 256 255
f 327 255 325
f 327 278 277
f 328 256 327
f 328 327 277
f 329 328 277
f 329 256 328
f 329 257 256
f 329 277 276
f 330 329 276
f 330 257 329
f 331 258 257
f 331 330 276
f 331 276 275
f 331 257 330
f 332 258 331
f 332 331 275
f 333 259 258
f 333 275 274
f 333 258 332
f 333 332 275
f 334 259 333
f 334 333 274
f 335 260 259
f 335 274 273
f 335 334 274
f 335 259 334
f 336 260 335
f 336 335 273
f 337 273 272
f 337 336 273
f 337 260 336
f 338 260 337
f 338 268 267
f 338 269 268
f 338 270 269
f 338 271 270
f 338 272 271
f 338 337 272
f 338 267 260
f 375 342 343
f 374 343 344
f 374 375 343
f 376 341 342
f 376 342 375
f 373 374 344
f 377 340 341
f 377 341 376
f 372 344 345
f 372 345 346
f 372 373 344
f 378 339 340
f 378 340 377
f 371 372 346
f 347 371 346
f 379 364 339
f 379 339 378
f 370 371 347
f 380 363 364
f 380 364 379
f 369 347 348
f 369 370 347
f 381 362 363
f 381 363 380
f 349 368 369
f 349 369 348
f 382 362 381
f 361 362 382
f 367 368 349
f 350 367 349
f 383 361 382
f 360 361 383
f 384 360 383
f 351 367 350
f 351 365 366
f 351 366 367
f 359 360 384
f 359 384 385
f 352 365 351
f 358 359 385
f 358 385 386
f 353 365 352
f 353 390 365
f 357 358 386
f 357 386 387
f 354 390 353
f 354 389 390
f 356 387 388
f 356 357 387
f 355 388 389
f 355 389 354
f 355 356 388
f 434 436 435
f 433 436 434
f 432 437 436
f 432 436 433
f 431 437 432
f 430 437 431
f 429 437 430
f 428 437 429
f 420 422 421
f 420 423 422
f 420 424 423
f 419 437 428
f 419 424 420
f 419 425 424
f 419 426 425
f 419 427 426
f 419 428 427
f 418 437 419
f 418 438 437
f 417 438 418
f 417 439 438
f 417 440 439
f 416 440 417
f 415 440 416
f 415 441 440
f 460 459 442
f 460 442 441
f 458 442 459
f 461 460 441
f 462 461 441
f 457 442 458
f 463 441 415
f 463 462 441
f 456 443 442
f 456 442 457
f 464 463 415
f 455 443 456
f 465 464 415
f 454 443 455
f 453 443 454
f 452 443 453
f 451 443 452
f 444 450 449
f 444 451 450
f 444 443 451
f 414 465 415
f 414 466 465
f 414 467 466
f 414 468 467
f 414 469 468
f 414 470 469
f 413 471 470
f 413 472 471
f 413 473 472
f 413 474 473
f 413 475 474
f 413 470 414
f 412 475 413
f 412 476 475
f 412 449 476
f 412 444 449
f 411 444 412
f 411 445 444
f 411 446 445
f 410 446 411
f 410 447 446
f 409 447 410
f 409 448 447
f 395 448 396
f 395 391 448
f 397 396 448
f 394 391 395
f 398 397 448
f 393 391 394
f 399 398 448
f 392 391 393
f 408 400 399
f 408 401 400
f 408 448 409
f 408 399 448
f 402 401 408
f 403 402 408
f 407 404 403
f 407 405 404
f 407 406 405
f 407 403 408
f 491 505 492
f 490 504 505
f 490 505 491
f 489 503 504
f 489 504 490
f 488 502 503
f 488 503 489
f 487 501 502
f 487 502 488
f 486 500 501
f 486 501 487
f 485 499 500
f 485 500 486
f 484 498 499
f 484 499 485
f 483 497 498
f 483 498 484
f 482 496 497
f 482 497 483
f 481 495 496
f 481 496 482
f 480 494 495
f 480 495 481
f 479 493 494
f 479 494 480
f 478 477 493
f 478 493 479
f 527 534 528
f 526 533 534
f 526 534 527
f 525 532 533
f 525 533 526
f 524 531 532
f 524 532 525
f 523 530 531
f 523 531 524
f 522 529 530
f 522 530 523
f 521 513 529
f 521 529 522
f 520 512 513
f 520 513 521
f 519 511 512
f 519 512 520
f 518 510 511
f 518 511 519
f 517 509 510
f 517 510 518
f 516 508 509
f 516 509 517
f 515 507 508
f 515 508 516
f 514 506 507
f 514 507 515
f 556 563 557
f 555 562 563
f 555 563 556
f 554 561 562
f 554 562 555
f 553 560 561
f 553 561 554
f 552 559 560
f 552 560 553
f 551 558 559
f 551 559 552
f 550 542 558
f 550 558 551
f 549 541 542
f 549 542 550
f 548 540 541
f 548 541 549
f 547 539 540
f 547 540 548
f 546 538 539
f 546 539 547
f 545 537 538
f 545 538 546
f 544 536 537
f 544 537 545
f 543 535 536
f 543 536 544
f 678 577 578
f 607 583 606
f 677 678 578
f 605 606 583
f 679 577 678
f 608 583 607
f 676 677 578
f 604 605 583
f 680 577 679
f 609 583 608
f 675 676 578
f 603 604 583
f 681 577 680
f 610 582 583
f 610 583 609
f 674 675 578
f 682 577 681
f 611 582 610
f 673 674 578
f 683 577 682
f 612 582 611
f 672 578 579
f 672 673 578
f 684 577 683
f 613 581 582
f 613 582 612
f 671 672 579
f 614 580 581
f 614 581 613
f 670 671 579
f 670 579 580
f 670 580 614
f 584 599 600
f 584 600 601
f 584 601 602
f 584 602 603
f 584 603 583
f 598 599 584
f 669 614 615
f 669 670 614
f 597 598 584
f 668 669 615
f 668 615 590
f 596 597 584
f 576 684 685
f 576 685 686
f 576 686 687
f 576 687 688
f 576 688 689
f 576 689 690
f 576 577 684
f 585 596 584
f 585 593 594
f 585 594 595
f 585 595 596
f 575 690 691
f 575 691 692
f 575 576 690
f 586 593 585
f 586 592 593
f 574 575 692
f 587 592 586
f 658 572 573
f 659 572 658
f 625 588 589
f 625 626 588
f 657 573 574
f 657 574 692
f 657 658 573
f 627 587 588
f 627 592 587
f 627 588 626
f 660 572 659
f 624 625 589
f 656 692 693
f 656 693 668
f 656 657 692
f 628 591 592
f 628 592 627
f 661 572 660
f 623 624 589
f 655 668 590
f 655 656 668
f 629 590 591
f 629 591 628
f 629 655 590
f 622 623 589
f 654 655 629
f 630 654 629
f 621 622 589
f 571 572 661
f 571 661 662
f 571 662 663
f 631 654 630
f 631 653 654
f 664 571 663
f 620 621 589
f 665 571 664
f 619 620 589
f 666 571 665
f 667 571 666
f 642 571 667
f 564 619 589
f 564 616 617
f 564 617 618
f 564 618 619
f 564 639 640
f 564 640 641
f 564 641 616
f 570 571 642
f 570 642 643
f 570 643 644
f 570 644 645
f 570 645 646
f 570 646 647
f 570 647 648
f 570 648 649
f 565 639 564
f 565 633 634
f 565 634 635
f 565 635 636
f 565 636 637
f 565 637 638
f 565 638 639
f 569 570 649
f 569 649 650
f 569 650 651
f 569 651 652
f 566 633 565
f 566 631 632
f 566 632 633
f 568 569 652
f 568 652 653
f 567 653 631
f 567 631 566
f 567 568 653
f 736 738 737
f 735 738 736
f 734 739 738
f 734 738 735
f 733 739 734
f 732 739 733
f 731 739 732
f 730 739 731
f 722 724 723
f 722 725 724
f 722 726 725
f 721 739 730
f 721 726 722
f 721 727 726
f 721 728 727
f 721 729 728
f 721 730 729
f 721 740 739
f 720 740 721
f 720 741 740
f 719 741 720
f 719 742 741
f 718 742 719
f 718 743 742
f 717 743 718
f 763 762 744
f 763 744 743
f 761 744 762
f 764 763 743
f 765 764 743
f 760 744 761
f 766 743 717
f 766 765 743
f 759 745 744
f 759 744 760
f 767 766 717
f 758 745 759
f 768 767 717
f 757 745 758
f 756 745 757
f 755 745 756
f 754 745 755
f 746 753 752
f 746 754 753
f 746 745 754
f 716 768 717
f 716 769 768
f 716 770 769
f 716 771 770
f 716 772 771
f 716 773 772
f 715 774 773
f 715 775 774
f 715 776 775
f 715 777 776
f 715 778 777
f 715 773 716
f 714 778 715
f 714 779 778
f 714 752 779
f 714 746 752
f 713 746 714
f 713 747 746
f 713 748 747
f 712 748 713
f 712 749 748
f 711 749 712
f 697 750 698
f 697 751 750
f 699 698 750
f 696 751 697
f 700 699 750
f 695 751 696
f 701 700 750
f 694 751 695
f 710 702 701
f 710 703 702
f 710 749 711
f 710 701 750
f 710 750 749
f 704 703 710
f 705 704 710
f 709 706 705
f 709 707 706
f 709 708 707
f 709 705 710
f 794 808 795
f 793 807 808
f 793 808 794
f 792 806 807
f 792 807 793
f 791 805 806
f 791 806 792
f 790 804 805
f 790 805 791
f 789 803 804
f 789 804 790
f 788 802 803
f 788 803 789
f 787 801 802
f 787 802 788
f 786 800 801
f 786 801 787
f 785 799 800
f 785 800 786
f 784 798 799
f 784 799 785
f 783 797 798
f 783 798 784
f 782 796 797
f 782 797 783
f 781 780 796
f 781 796 782
f 822 830 823
f 821 829 830
f 821 830 822
f 820 828 829
f 820 829 821
f 819 827 828
f 819 828 820
f 818 826 827
f 818 827 819
f 817 825 826
f 817 826 818
f 816 824 825
f 816 825 817
f 815 837 824
f 815 824 816
f 814 836 837
f 814 837 815
f 813 835 836
f 813 836 814
f 812 834 835
f 812 835 813
f 811 833 834
f 811 834 812
f 810 832 833
f 810 833 811
f 809 831 832
f 809 832 810
f 851 859 852
f 850 858 859
f 850 859 851
f 849 857 858
f 849 858 850
f 848 856 857
f 848 857 849
f 847 855 856
f 847 856 848
f 846 854 855
f 846 855 847
f 845 853 854
f 845 854 846
f 844 866 853
f 844 853 845
f 843 865 866
f 843 866 844
f 842 864 865
f 842 865 843
f 841 863 864
f 841 864 842
f 840 862 863
f 840 863 841
f 839 861 862
f 839 862 840
f 838 860 861
f 838 861 839
f 880 895 881
f 879 894 895
f 879 895 880
f 878 893 894
f 878 894 879
f 877 892 893
f 877 893 878
f 876 891 892
f 876 892 877
f 875 890 891
f 875 891 876
f 874 889 890
f 874 890 875
f 873 888 889
f 873 889 874
f 872 887 888
f 872 888 873
f 871 886 887
f 871 887 872
f 870 885 886
f 870 886 871
f 869 884 885
f 869 885 870
f 868 883 884
f 868 884 869
f 867 882 883
f 867 883 868
f 909 924 910
f 908 923 924
f 908 924 909
f 907 922 923
f 907 923 908
f 906 921 922
f 906 922 907
f 905 920 921
f 905 921 906
f 904 919 920
f 904 920 905
f 903 918 919
f 903 919 904
f 902 917 918
f 902 918 903
f 901 916 917
f 901 917 902
f 900 915 916
f 900 916 901
f 899 914 915
f 899 915 900
f 898 913 914
f 898 914 899
f 897 912 913
f 897 913 898
f 896 911 912
f 896 912 897
f 946 948 947
f 946 949 948
f 945 949 946
f 937 950 949
f 937 949 945
f 938 951 950
f 938 950 937
f 939 951 938
f 940 952 951
f 940 951 939
f 941 953 952
f 941 952 940
f 942 954 953
f 942 953 941
f 943 954 942
f 944 954 943
f 929 955 954
f 929 954 944
f 930 955 929
f 931 955 930
f 932 956 955
f 932 955 931
f 933 957 956
f 933 956 932
f 934 958 957
f 934 957 933
f 935 958 934
f 936 959 958
f 936 958 935
f 928 959 936
f 928 960 959
f 927 960 928
f 926 960 927
f 926 961 960
f 925 961 926
f 977 979 978
f 977 980 979
f 976 981 980
f 976 980 977
f 975 982 981
f 975 981 976
f 974 983 982
f 974 982 975
f 973 984 983
f 973 983 974
f 972 984 973
f 971 985 984
f 971 984 972
f 970 986 985
f 970 985 971
f 969 987 986
f 969 986 970
f 968 988 987
f 968 987 969
f 967 989 988
f 967 988 968
f 966 990 989
f 966 989 967
f 965 991 990
f 965 990 966
f 964 962 991
f 964 991 965
f 963 962 964
f 1059 993 992
f 1058 1059 992
f 1006 1057 1058
f 1006 1058 992
f 1056 1057 1006
f 1055 1056 1006
f 1049 1006 1005
f 1049 1050 1051
f 1049 1051 1052
f 1049 1052 1053
f 1049 1053 1054
f 1049 1054 1055
f 1049 1055 1006
f 1048 1005 1004
f 1048 1049 1005
f 1047 1048 1004
f 1047 1004 1003
f 1046 1047 1003
f 1046 1003 1002
f 1045 1046 1002
f 1035 1036 1001
f 1037 1002 1001
f 1037 1001 1036
f 1034 1035 1001
f 1038 1002 1037
f 1033 1001 1000
f 1033 1034 1001
f 1039 1045 1002
f 1039 1002 1038
f 1032 1033 1000
f 1040 1045 1039
f 1031 1032 1000
f 1041 1045 1040
f 1042 1045 1041
f 1030 1031 1000
f 1043 1045 1042
f 1029 1030 1000
f 1044 1045 1043
f 999 1029 1000
f 999 1028 1029
f 1022 1023 1024
f 1022 1024 1025
f 1022 1025 1026
f 1022 1026 1027
f 1022 1027 1028
f 1022 1028 999
f 1021 999 998
f 1021 1022 999
f 1020 998 997
f 1020 1021 998
f 1019 997 996
f 1019 1020 997
f 1018 996 995
f 1018 1019 996
f 1009 995 994
f 1010 995 1009
f 1008 1009 994
f 1011 995 1010
f 1007 1008 994
f 1012 1018 995
f 1012 995 1011
f 1013 1018 1012
f 1014 1018 1013
f 1015 1018 1014
f 1016 1018 1015
f 1017 1018 1016
f 1081 1083 1082
f 1081 1084 1083
f 1080 1084 1081
f 1064 1085 1084
f 1064 1084 1080
f 1065 1086 1085
f 1065 1085 1064
f 1066 1086 1065
f 1067 1087 1086
f 1067 1086 1066
f 1068 1088 1087
f 1068 1087 1067
f 1069 1089 1088
f 1069 1088 1068
f 1070 1089 1069
f 1071 1089 1070
f 1072 1090 1089
f 1072 1089 1071
f 1073 1090 1072
f 1074 1090 1073
f 1075 1091 1090
f 1075 1090 1074
f 1076 1092 1091
f 1076 1091 1075
f 1077 1093 1092
f 1077 1092 1076
f 1078 1094 1093
f 1078 1093 1077
f 1079 1094 1078
f 1063 1094 1079
f 1063 1095 1094
f 1062 1095 1063
f 1061 1095 1062
f 1061 1096 1095
f 1060 1096 1061
f 1118 1120 1119
f 1118 1121 1120
f 1117 1121 1118
f 1109 1122 1121
f 1109 1121 1117
f 1110 1123 1122
f 1110 1122 1109
f 1111 1123 1110
f 1112 1124 1123
f 1112 1123 1111
f 1113 1125 1124
f 1113 1124 1112
f 1114 1126 1125
f 1114 1125 1113
f 1115 1126 1114
f 1116 1126 1115
f 1101 1127 1126
f 1101 1126 1116
f 1102 1127 1101
f 1103 1127 1102
f 1104 1128 1127
f 1104 1127 1103
f 1105 1129 1128
f 1105 1128 1104
f 1106 1130 1129
f 1106 1129 1105
f 1107 1130 1106
f 1108 1131 1130
f 1108 1130 1107
f 1100 1131 1108
f 1100 1132 1131
f 1099 1132 1100
f 1098 1132 1099
f 1098 1133 1132
f 1097 1133 1098
f 1155 1157 1156
f 1155 1158 1157
f 1154 1158 1155
f 1138 1159 1158
f 1138 1158 1154
f 1139 1160 1159
f 1139 1159 1138
f 1140 1160 1139
f 1141 1161 1160
f 1141 1160 1140
f 1142 1162 1161
f 1142 1161 1141
f 1143 1163 1162
f 1143 1162 1142
f 1144 1163 1143
f 1145 1163 1144
f 1146 1164 1163
f 1146 1163 1145
f 1147 1164 1146
f 1148 1164 1147
f 1149 1165 1164
f 1149 1164 1148
f 1150 1166 1165
f 1150 1165 1149
f 1151 1167 1166
f 1151 1166 1150
f 1152 1168 1167
f 1152 1167 1151
f 1153 1168 1152
f 1137 1168 1153
f 1137 1169 1168
f 1136 1169 1137
f 1135 1169 1136
f 1135 1170 1169
f 1134 1170 1135
f 1213 1181 1182
f 1214 1180 1181
f 1214 1181 1213
f 1212 1182 1183
f 1212 1213 1182
f 1215 1179 1180
f 1215 1180 1214
f 1211 1183 1184
f 1211 1212 1183
f 1216 1178 1179
f 1216 1179 1215
f 1210 1184 1185
f 1210 1211 1184
f 1217 1177 1178
f 1217 1178 1216
f 1209 1185 1186
f 1209 1210 1185
f 1218 1176 1177
f 1218 1177 1217
f 1208 1209 1186
f 1219 1175 1176
f 1219 1176 1218
f 1187 1208 1186
f 1207 1208 1187
f 1220 1175 1219
f 1174 1175 1220
f 1221 1174 1220
f 1188 1206 1207
f 1188 1207 1187
f 1173 1174 1221
f 1173 1221 1222
f 1189 1206 1188
f 1189 1205 1206
f 1172 1173 1222
f 1172 1222 1197
f 1190 1205 1189
f 1190 1204 1205
f 1171 1172 1197
f 1191 1203 1204
f 1191 1204 1190
f 1196 1197 1198
f 1196 1198 1199
f 1196 1171 1197
f 1192 1202 1203
f 1192 1203 1191
f 1195 1196 1199
f 1193 1200 1201
f 1193 1201 1202
f 1193 1202 1192
f 1194 1199 1200
f 1194 1200 1193
f 1194 1195 1199
f 1265 1233 1234
f 1266 1232 1233
f 1266 1233 1265
f 1264 1234 1235
f 1264 1265 1234
f 1267 1231 1232
f 1267 1232 1266
f 1263 1235 1236
f 1263 1264 1235
f 1268 1230 1231
f 1268 1231 1267
f 1262 1263 1236
f 1269 1229 1230
f 1269 1230 1268
f 1261 1236 1237
f 1261 1262 1236
f 1270 1228 1229
f 1270 1229 1269
f 1260 1237 1238
f 1260 1261 1237
f 1271 1227 1228
f 1271 1228 1270
f 1259 1238 1239
f 1259 1260 1238
f 1272 1227 1271
f 1226 1227 1272
f 1258 1259 1239
f 1273 1226 1272
f 1240 1258 1239
f 1257 1258 1240
f 1225 1226 1273
f 1225 1273 1274
f 1241 1257 1240
f 1241 1256 1257
f 1224 1225 1274
f 1224 1274 1249
f 1242 1256 1241
f 1242 1255 1256
f 1223 1224 1249
f 1243 1254 1255
f 1243 1255 1242
f 1248 1249 1250
f 1248 1223 1249
f 1244 1253 1254
f 1244 1254 1243
f 1247 1250 1251
f 1247 1248 1250
f 1245 1253 1244
f 1245 1252 1253
f 1246 1251 1252
f 1246 1247 1251
f 1246 1252 1245
f 1317 1285 1286
f 1318 1284 1285
f 1318 1285 1317
f 1316 1286 1287
f 1316 1317 1286
f 1319 1283 1284
f 1319 1284 1318
f 1315 1287 1288
f 1315 1316 1287
f 1320 1282 1283
f 1320 1283 1319
f 1314 1315 1288
f 1321 1281 1282
f 1321 1282 1320
f 1313 1288 1289
f 1313 1314 1288
f 1322 1280 1281
f 1322 1281 1321
f 1312 1289 1290
f 1312 1313 1289
f 1323 1279 1280
f 1323 1280 1322
f 1311 1290 1291
f 1311 1312 1290
f 1324 1279 1323
f 1278 1279 1324
f 1310 1311 1291
f 1325 1278 1324
f 1292 1310 1291
f 1309 1310 1292
f 1277 1278 1325
f 1277 1325 1326
f 1293 1309 1292
f 1293 1308 1309
f 1276 1277 1326
f 1276 1326 1301
f 1294 1308 1293
f 1294 1307 1308
f 1275 1276 1301
f 1295 1306 1307
f 1295 1307 1294
f 1300 1301 1302
f 1300 1275 1301
f 1296 1305 1306
f 1296 1306 1295
f 1299 1302 1303
f 1299 1300 1302
f 1297 1304 1305
f 1297 1305 1296
f 1298 1303 1304
f 1298 1299 1303
f 1298 1304 1297
f 1369 1337 1338
f 1370 1336 1337
f 1370 1337 1369
f 1368 1338 1339
f 1368 1369 1338
f 1371 1335 1336
f 1371 1336 1370
f 1367 1339 1340
f 1367 1368 1339
f 1372 1334 1335
f 1372 1335 1371
f 1366 1340 1341
f 1366 1367 1340
f 1373 1333 1334
f 1373 1334 1372
f 1365 1341 1342
f 1365 1366 1341
f 1374 1332 1333
f 1374 1333 1373
f 1364 1365 1342
f 1375 1331 1332
f 1375 1332 1374
f 1343 1364 1342
f 1363 1364 1343
f 1376 1331 1375
f 1330 1331 1376
f 1344 1363 1343
f 1344 1362 1363
f 1329 1330 1376
f 1329 1376 1377
f 1345 1362 1344
f 1345 1361 1362
f 1328 1329 1377
f 1328 1377 1378
f 1346 1361 1345
f 1346 1360 1361
f 1327 1328 1378
f 1327 1378 1353
f 1347 1359 1360
f 1347 1360 1346
f 1352 1327 1353
f 1352 1353 1354
f 1352 1354 1355
f 1348 1358 1359
f 1348 1359 1347
f 1351 1355 1356
f 1351 1352 1355
f 1349 1357 1358
f 1349 1358 1348
f 1350 1356 1357
f 1350 1351 1356
f 1350 1357 1349

