# https://github.com/mikedh/trimesh
v 0.03550000 0.02344000 0.01494400
v 0.03550000 0.02441900 0.01474100
v 0.03550000 0.02398800 0.01512500
v 0.03550000 0.02412400 0.01492300
v 0.03550000 0.02427900 0.01484500
v 0.03550000 0.02395700 0.01497400
v 0.03550000 0.02361000 0.01498400
v 0.03550000 0.02378400 0.01499400
v 0.03550000 0.02473200 0.01379100
v 0.03550000 0.02441900 0.01474100
v 0.03550000 0.02485000 0.01435600
v 0.03550000 0.02453800 0.01461400
v 0.03550000 0.02463400 0.01446800
v 0.03550000 0.02470300 0.01430800
v 0.03550000 0.02474300 0.01413800
v 0.03550000 0.02475300 0.01396400
v 0.03550000 0.02473200 0.01379100
v 0.03550000 0.02406700 0.01304500
v 0.03550000 0.02461500 0.01322600
v 0.03550000 0.02468200 0.01362400
v 0.03550000 0.02460400 0.01346800
v 0.03550000 0.02449900 0.01332900
v 0.03550000 0.02437200 0.01320900
v 0.03550000 0.02422700 0.01311400
v 0.03550000 0.02308700 0.01324800
v 0.03550000 0.02351800 0.01286400
v 0.03550000 0.02406700 0.01304500
v 0.03550000 0.02389700 0.01300500
v 0.03550000 0.02372300 0.01299500
v 0.03550000 0.02355000 0.01301500
v 0.03550000 0.02338300 0.01306600
v 0.03550000 0.02322700 0.01314400
v 0.03550000 0.02344000 0.01494400
v 0.03550000 0.02277400 0.01419800
v 0.03550000 0.02289200 0.01476300
v 0.03550000 0.02282400 0.01436500
v 0.03550000 0.02290300 0.01452100
v 0.03550000 0.02300700 0.01466000
v 0.03550000 0.02313400 0.01478000
v 0.03550000 0.02328000 0.01487500
v 0.03700000 0.02207000 0.01554800
v 0.03700000 0.02191000 0.01477900
v 0.03700000 0.02175000 0.01401000
v 0.03700000 0.02159000 0.01324000
v 0.03700000 0.02299900 0.01615800
v 0.03700000 0.02283900 0.01538800
v 0.03700000 0.02235900 0.01308000
v 0.03700000 0.02220000 0.01231100
v 0.03700000 0.02376800 0.01599800
v 0.03700000 0.02360800 0.01522800
v 0.03700000 0.02312900 0.01292100
v 0.03700000 0.02296900 0.01215100
v 0.03700000 0.02453800 0.01583800
v 0.03700000 0.02437800 0.01506800
v 0.03700000 0.02389800 0.01276100
v 0.03700000 0.02373800 0.01199100
v 0.03700000 0.02530700 0.01567800
v 0.03700000 0.02514700 0.01490900
v 0.03700000 0.02466700 0.01260100
v 0.03700000 0.02450700 0.01183100
v 0.03700000 0.02591600 0.01474900
v 0.03700000 0.02575600 0.01397900
v 0.03700000 0.02559600 0.01321000
v 0.03700000 0.02543700 0.01244100
v 0.03700000 0.02461500 0.01322600
v 0.03700000 0.02473200 0.01379100
v 0.03700000 0.02485000 0.01435600
v 0.03700000 0.02289200 0.01476300
v 0.03700000 0.02277400 0.01419800
v 0.03700000 0.02265700 0.01363300
v 0.03700000 0.02644600 0.01343500
v 0.03700000 0.02637700 0.01317400
v 0.03700000 0.02628300 0.01292100
v 0.03700000 0.02616500 0.01267900
v 0.03700000 0.02602400 0.01244900
v 0.03700000 0.02586200 0.01223300
v 0.03700000 0.02568000 0.01203400
v 0.03700000 0.02547900 0.01185400
v 0.03700000 0.02526100 0.01169500
v 0.03700000 0.02502900 0.01155900
v 0.03700000 0.02478300 0.01144600
v 0.03700000 0.02452800 0.01135800
v 0.03700000 0.02426600 0.01129500
v 0.03700000 0.02399900 0.01125800
v 0.03700000 0.02372900 0.01124600
v 0.03700000 0.02346000 0.01126100
v 0.03700000 0.02319400 0.01130200
v 0.03700000 0.02293300 0.01137000
v 0.03700000 0.02268000 0.01146400
v 0.03700000 0.02243700 0.01158200
v 0.03700000 0.02220700 0.01172300
v 0.03700000 0.02199200 0.01188600
v 0.03700000 0.02179300 0.01206800
v 0.03700000 0.02161300 0.01226900
v 0.03700000 0.02145400 0.01248600
v 0.03700000 0.02131700 0.01271900
v 0.03700000 0.02120500 0.01296400
v 0.03700000 0.02111700 0.01321900
v 0.03700000 0.02105400 0.01348200
v 0.03700000 0.02101700 0.01374900
v 0.03700000 0.02100500 0.01401800
v 0.03700000 0.02101900 0.01428800
v 0.03700000 0.02106100 0.01455400
v 0.03700000 0.02112900 0.01481500
v 0.03700000 0.02122300 0.01506800
v 0.03700000 0.02134100 0.01531000
v 0.03700000 0.02148200 0.01554000
v 0.03700000 0.02164400 0.01575600
v 0.03700000 0.02182700 0.01595500
v 0.03700000 0.02202700 0.01613500
v 0.03700000 0.02224500 0.01629400
v 0.03700000 0.02247800 0.01643000
v 0.03700000 0.02272300 0.01654300
v 0.03700000 0.02297800 0.01663100
v 0.03700000 0.02324000 0.01669400
v 0.03700000 0.02350800 0.01673100
v 0.03700000 0.02377700 0.01674300
v 0.03700000 0.02404600 0.01672800
v 0.03700000 0.02431300 0.01668700
v 0.03700000 0.02457400 0.01661900
v 0.03700000 0.02482700 0.01652500
v 0.03700000 0.02506900 0.01640700
v 0.03700000 0.02529900 0.01626600
v 0.03700000 0.02551500 0.01610300
v 0.03700000 0.02571400 0.01592100
v 0.03700000 0.02589400 0.01572000
v 0.03700000 0.02605300 0.01550300
v 0.03700000 0.02618900 0.01527000
v 0.03700000 0.02630100 0.01502500
v 0.03700000 0.02638900 0.01477000
v 0.03700000 0.02645200 0.01450700
v 0.03700000 0.02649000 0.01424000
v 0.03700000 0.02650200 0.01397100
v 0.03700000 0.02648700 0.01370100
v 0.03700000 0.02441900 0.01474100
v 0.03700000 0.02398800 0.01512500
v 0.03700000 0.02344000 0.01494400
v 0.03700000 0.02308700 0.01324800
v 0.03700000 0.02351800 0.01286400
v 0.03700000 0.02406700 0.01304500
v 0.03700000 0.02398800 0.01512500
v 0.03700000 0.02441900 0.01474100
v 0.03550000 0.02398800 0.01512500
v 0.03625000 0.02398800 0.01512500
v 0.03550000 0.02441900 0.01474100
v 0.03550000 0.02485000 0.01435600
v 0.03700000 0.02485000 0.01435600
v 0.03625000 0.02485000 0.01435600
v 0.03550000 0.02395700 0.01497400
v 0.03625000 0.02441900 0.01474100
v 0.03625000 0.02420400 0.01493300
v 0.03587500 0.02441900 0.01474100
v 0.03587500 0.02420400 0.01493300
v 0.03700000 0.02289200 0.01476300
v 0.03700000 0.02398800 0.01512500
v 0.03625000 0.02398800 0.01512500
v 0.03700000 0.02344000 0.01494400
v 0.03550000 0.02289200 0.01476300
v 0.03625000 0.02289200 0.01476300
v 0.03550000 0.02344000 0.01494400
v 0.03550000 0.02398800 0.01512500
v 0.03625000 0.02344000 0.01494400
v 0.03587500 0.02344000 0.01494400
v 0.03625000 0.02371400 0.01503500
v 0.03587500 0.02371400 0.01503500
v 0.03550000 0.02395700 0.01497400
v 0.03700000 0.02265700 0.01363300
v 0.03550000 0.02289200 0.01476300
v 0.03700000 0.02277400 0.01419800
v 0.03700000 0.02289200 0.01476300
v 0.03625000 0.02289200 0.01476300
v 0.03550000 0.02265700 0.01363300
v 0.03625000 0.02265700 0.01363300
v 0.03550000 0.02277400 0.01419800
v 0.03700000 0.02351800 0.01286400
v 0.03700000 0.02265700 0.01363300
v 0.03625000 0.02265700 0.01363300
v 0.03700000 0.02308700 0.01324800
v 0.03550000 0.02351800 0.01286400
v 0.03625000 0.02351800 0.01286400
v 0.03550000 0.02308700 0.01324800
v 0.03550000 0.02265700 0.01363300
v 0.03550000 0.02351800 0.01286400
v 0.03700000 0.02351800 0.01286400
v 0.03625000 0.02351800 0.01286400
v 0.03700000 0.02461500 0.01322600
v 0.03700000 0.02406700 0.01304500
v 0.03550000 0.02461500 0.01322600
v 0.03625000 0.02461500 0.01322600
v 0.03550000 0.02406700 0.01304500
v 0.03700000 0.02461500 0.01322600
v 0.03550000 0.02473200 0.01379100
v 0.03550000 0.02461500 0.01322600
v 0.03700000 0.02485000 0.01435600
v 0.03700000 0.02473200 0.01379100
v 0.03550000 0.02485000 0.01435600
v 0.03625000 0.02485000 0.01435600
v 0.03625000 0.02461500 0.01322600
v 0.03550000 0.02308700 0.01324800
v 0.03550000 0.02277400 0.01419800
v 0.03550000 0.02265700 0.01363300
v 0.03550000 0.02296800 0.01337500
v 0.03550000 0.02287200 0.01352100
v 0.03550000 0.02280400 0.01368100
v 0.03550000 0.02276400 0.01385100
v 0.03550000 0.02275400 0.01402500
v 0.03492300 0.02375300 0.01399400
v 0.03521100 0.02385500 0.01448400
v 0.03492300 0.02375300 0.01399400
v 0.03521100 0.02379500 0.01449300
v 0.03492300 0.02375300 0.01399400
v 0.03521100 0.02373900 0.01449400
v 0.03492300 0.02375300 0.01399400
v 0.03521100 0.02368200 0.01448900
v 0.03492300 0.02375300 0.01399400
v 0.03521100 0.02362600 0.01447800
v 0.03492300 0.02375300 0.01399400
v 0.03521100 0.02357300 0.01446100
v 0.03492300 0.02375300 0.01399400
v 0.03521100 0.02352300 0.01443800
v 0.03492300 0.02375300 0.01399400
v 0.03521100 0.02347500 0.01441000
v 0.03492300 0.02375300 0.01399400
v 0.03521100 0.02343100 0.01437700
v 0.03492300 0.02375300 0.01399400
v 0.03521100 0.02339000 0.01433900
v 0.03492300 0.02375300 0.01399400
v 0.03521100 0.02335500 0.01429600
v 0.03492300 0.02375300 0.01399400
v 0.03521100 0.02332400 0.01425000
v 0.03492300 0.02375300 0.01399400
v 0.03521100 0.02329800 0.01420100
v 0.03492300 0.02375300 0.01399400
v 0.03521100 0.02327700 0.01414700
v 0.03492300 0.02375300 0.01399400
v 0.03521100 0.02326400 0.01409600
v 0.03492300 0.02375300 0.01399400
v 0.03521100 0.02325500 0.01403700
v 0.03492300 0.02375300 0.01399400
v 0.03521100 0.02325300 0.01398000
v 0.03492300 0.02375300 0.01399400
v 0.03521100 0.02325800 0.01392300
v 0.03492300 0.02375300 0.01399400
v 0.03521100 0.02327000 0.01386700
v 0.03492300 0.02375300 0.01399400
v 0.03521100 0.02328700 0.01381400
v 0.03492300 0.02375300 0.01399400
v 0.03521100 0.02331000 0.01376400
v 0.03492300 0.02375300 0.01399400
v 0.03521100 0.02333800 0.01371600
v 0.03492300 0.02375300 0.01399400
v 0.03521100 0.02337100 0.01367200
v 0.03492300 0.02375300 0.01399400
v 0.03521100 0.02340900 0.01363200
v 0.03492300 0.02375300 0.01399400
v 0.03521100 0.02345100 0.01359600
v 0.03492300 0.02375300 0.01399400
v 0.03521100 0.02349700 0.01356500
v 0.03492300 0.02375300 0.01399400
v 0.03521100 0.02354600 0.01353900
v 0.03492300 0.02375300 0.01399400
v 0.03521100 0.02360100 0.01351800
v 0.03492300 0.02375300 0.01399400
v 0.03521100 0.02365100 0.01350500
v 0.03492300 0.02375300 0.01399400
v 0.03521100 0.02371100 0.01349600
v 0.03492300 0.02375300 0.01399400
v 0.03521100 0.02376800 0.01349500
v 0.03492300 0.02375300 0.01399400
v 0.03521100 0.02382500 0.01350000
v 0.03492300 0.02375300 0.01399400
v 0.03521100 0.02388000 0.01351100
v 0.03492300 0.02375300 0.01399400
v 0.03521100 0.02393300 0.01352800
v 0.03492300 0.02375300 0.01399400
v 0.03521100 0.02398400 0.01355100
v 0.03492300 0.02375300 0.01399400
v 0.03521100 0.02403200 0.01357900
v 0.03492300 0.02375300 0.01399400
v 0.03521100 0.02407600 0.01361200
v 0.03492300 0.02375300 0.01399400
v 0.03521100 0.02411600 0.01365000
v 0.03492300 0.02375300 0.01399400
v 0.03521100 0.02415200 0.01369300
v 0.03492300 0.02375300 0.01399400
v 0.03521100 0.02418300 0.01373900
v 0.03492300 0.02375300 0.01399400
v 0.03521100 0.02420800 0.01378800
v 0.03492300 0.02375300 0.01399400
v 0.03521100 0.02422900 0.01384200
v 0.03492300 0.02375300 0.01399400
v 0.03521100 0.02424300 0.01389300
v 0.03492300 0.02375300 0.01399400
v 0.03521100 0.02425100 0.01395200
v 0.03492300 0.02375300 0.01399400
v 0.03521100 0.02425300 0.01400900
v 0.03492300 0.02375300 0.01399400
v 0.03521100 0.02424800 0.01406600
v 0.03492300 0.02375300 0.01399400
v 0.03521100 0.02423700 0.01412200
v 0.03492300 0.02375300 0.01399400
v 0.03521100 0.02422000 0.01417500
v 0.03492300 0.02375300 0.01399400
v 0.03521100 0.02419700 0.01422500
v 0.03492300 0.02375300 0.01399400
v 0.03521100 0.02416900 0.01427300
v 0.03492300 0.02375300 0.01399400
v 0.03521100 0.02413500 0.01431700
v 0.03492300 0.02375300 0.01399400
v 0.03521100 0.02409700 0.01435700
v 0.03492300 0.02375300 0.01399400
v 0.03521100 0.02405500 0.01439300
v 0.03492300 0.02375300 0.01399400
v 0.03521100 0.02400900 0.01442400
v 0.03492300 0.02375300 0.01399400
v 0.03521100 0.02396000 0.01445000
v 0.03492300 0.02375300 0.01399400
v 0.03521100 0.02390600 0.01447100
v 0.03521100 0.02385500 0.01448400
v 0.03550000 0.02308700 0.01324800
v 0.03550000 0.02296800 0.01337500
v 0.03550000 0.02287200 0.01352100
v 0.03550000 0.02280400 0.01368100
v 0.03550000 0.02276400 0.01385100
v 0.03550000 0.02275400 0.01402500
v 0.03550000 0.02406700 0.01304500
v 0.03550000 0.02389700 0.01300500
v 0.03550000 0.02372300 0.01299500
v 0.03550000 0.02355000 0.01301500
v 0.03550000 0.02338300 0.01306600
v 0.03550000 0.02322700 0.01314400
v 0.03550000 0.02473200 0.01379100
v 0.03550000 0.02468200 0.01362400
v 0.03550000 0.02460400 0.01346800
v 0.03550000 0.02449900 0.01332900
v 0.03550000 0.02437200 0.01320900
v 0.03550000 0.02422700 0.01311400
v 0.03550000 0.02277400 0.01419800
v 0.03550000 0.02282400 0.01436500
v 0.03550000 0.02290300 0.01452100
v 0.03550000 0.02300700 0.01466000
v 0.03550000 0.02313400 0.01478000
v 0.03550000 0.02328000 0.01487500
v 0.03550000 0.02395700 0.01497400
v 0.03550000 0.02412400 0.01492300
v 0.03550000 0.02427900 0.01484500
v 0.03550000 0.02441900 0.01474100
v 0.03550000 0.02344000 0.01494400
v 0.03550000 0.02361000 0.01498400
v 0.03550000 0.02378400 0.01499400
v 0.03550000 0.02395700 0.01497400
v 0.03550000 0.02453800 0.01461400
v 0.03550000 0.02463400 0.01446800
v 0.03550000 0.02470300 0.01430800
v 0.03550000 0.02474300 0.01413800
v 0.03550000 0.02475300 0.01396400
v 0.03562900 -0.01583900 -0.01322600
v 0.03562800 -0.01485100 -0.01306800
v 0.03563100 -0.01539100 -0.01286200
v 0.03562900 -0.01519200 -0.01300200
v 0.03562900 -0.01501900 -0.01302000
v 0.03563000 -0.01536600 -0.01301500
v 0.03563000 -0.01536600 -0.01301500
v 0.03562900 -0.01569400 -0.01312900
v 0.03563000 -0.01553500 -0.01305700
v 0.03561800 -0.01422000 -0.01384400
v 0.03562800 -0.01485100 -0.01306800
v 0.03562100 -0.01426600 -0.01355900
v 0.03562400 -0.01431200 -0.01327400
v 0.03562600 -0.01458200 -0.01317100
v 0.03562600 -0.01469400 -0.01314400
v 0.03562500 -0.01455300 -0.01324600
v 0.03562300 -0.01443200 -0.01337100
v 0.03562100 -0.01433400 -0.01351500
v 0.03562000 -0.01426300 -0.01367500
v 0.03561800 -0.01422000 -0.01384400
v 0.03560900 -0.01457700 -0.01477800
v 0.03561100 -0.01412900 -0.01441400
v 0.03561500 -0.01417400 -0.01412900
v 0.03561000 -0.01435300 -0.01459600
v 0.03561600 -0.01420800 -0.01401700
v 0.03561400 -0.01422600 -0.01419100
v 0.03561200 -0.01427300 -0.01435800
v 0.03561100 -0.01434900 -0.01451500
v 0.03561000 -0.01445100 -0.01465700
v 0.03561000 -0.01556400 -0.01493700
v 0.03560800 -0.01529400 -0.01503900
v 0.03560600 -0.01502400 -0.01514200
v 0.03560900 -0.01457700 -0.01477800
v 0.03560800 -0.01472100 -0.01487600
v 0.03560800 -0.01488000 -0.01494700
v 0.03560800 -0.01504900 -0.01498900
v 0.03560800 -0.01522300 -0.01500200
v 0.03560900 -0.01539600 -0.01498400
v 0.03562900 -0.01583900 -0.01322600
v 0.03562600 -0.01628600 -0.01359100
v 0.03562300 -0.01624100 -0.01387600
v 0.03562700 -0.01606300 -0.01340900
v 0.03562000 -0.01619500 -0.01416100
v 0.03562200 -0.01620700 -0.01398700
v 0.03562300 -0.01619000 -0.01381400
v 0.03562500 -0.01614200 -0.01364600
v 0.03562700 -0.01606600 -0.01348900
v 0.03562800 -0.01596400 -0.01334800
v 0.03713400 -0.01733000 -0.01316600
v 0.03712500 -0.01720500 -0.01394200
v 0.03711700 -0.01708000 -0.01471700
v 0.03710800 -0.01695600 -0.01549300
v 0.03714100 -0.01667900 -0.01226600
v 0.03713300 -0.01655400 -0.01304100
v 0.03710700 -0.01618000 -0.01536900
v 0.03709900 -0.01605500 -0.01614400
v 0.03714000 -0.01590300 -0.01214100
v 0.03713200 -0.01577800 -0.01291700
v 0.03710600 -0.01540400 -0.01524400
v 0.03709800 -0.01528000 -0.01602000
v 0.03714000 -0.01512700 -0.01201600
v 0.03713100 -0.01500200 -0.01279200
v 0.03710500 -0.01462900 -0.01511900
v 0.03709700 -0.01450400 -0.01589500
v 0.03713900 -0.01435100 -0.01189200
v 0.03713000 -0.01422700 -0.01266700
v 0.03710500 -0.01385300 -0.01499500
v 0.03709600 -0.01372800 -0.01577000
v 0.03712900 -0.01345100 -0.01254300
v 0.03712100 -0.01332600 -0.01331900
v 0.03711200 -0.01320200 -0.01409400
v 0.03710400 -0.01307700 -0.01487000
v 0.03711100 -0.01412400 -0.01442900
v 0.03711800 -0.01421600 -0.01385900
v 0.03712400 -0.01430800 -0.01328900
v 0.03712600 -0.01628200 -0.01360700
v 0.03712000 -0.01619100 -0.01417700
v 0.03711300 -0.01609900 -0.01474700
v 0.03711600 -0.01248800 -0.01358200
v 0.03711300 -0.01245900 -0.01385000
v 0.03711000 -0.01245700 -0.01411900
v 0.03710700 -0.01248100 -0.01438800
v 0.03710400 -0.01253100 -0.01465300
v 0.03710200 -0.01260500 -0.01491200
v 0.03710000 -0.01270500 -0.01516300
v 0.03709700 -0.01282800 -0.01540300
v 0.03709500 -0.01297500 -0.01562900
v 0.03709400 -0.01314400 -0.01584000
v 0.03709200 -0.01333300 -0.01603200
v 0.03709100 -0.01354000 -0.01620500
v 0.03709000 -0.01376300 -0.01635700
v 0.03708900 -0.01399900 -0.01648700
v 0.03708900 -0.01424700 -0.01659400
v 0.03708900 -0.01450300 -0.01667700
v 0.03708900 -0.01476700 -0.01673300
v 0.03708900 -0.01503500 -0.01676200
v 0.03709000 -0.01530500 -0.01676400
v 0.03709100 -0.01557400 -0.01674000
v 0.03709200 -0.01583900 -0.01669100
v 0.03709400 -0.01609800 -0.01661600
v 0.03709600 -0.01634900 -0.01651600
v 0.03709800 -0.01658800 -0.01639300
v 0.03710000 -0.01681500 -0.01624600
v 0.03710200 -0.01702500 -0.01607700
v 0.03710500 -0.01721700 -0.01588800
v 0.03710700 -0.01739000 -0.01568100
v 0.03711000 -0.01754300 -0.01545900
v 0.03711300 -0.01767300 -0.01522200
v 0.03711600 -0.01778000 -0.01497500
v 0.03711900 -0.01786200 -0.01471800
v 0.03712200 -0.01791900 -0.01445400
v 0.03712500 -0.01794800 -0.01418600
v 0.03712700 -0.01795000 -0.01391600
v 0.03713000 -0.01792600 -0.01364800
v 0.03713300 -0.01787600 -0.01338300
v 0.03713500 -0.01780100 -0.01312300
v 0.03713800 -0.01770200 -0.01287300
v 0.03714000 -0.01757800 -0.01263300
v 0.03714200 -0.01743200 -0.01240700
v 0.03714400 -0.01726300 -0.01219600
v 0.03714500 -0.01707400 -0.01200400
v 0.03714600 -0.01686700 -0.01183100
v 0.03714700 -0.01664400 -0.01167900
v 0.03714800 -0.01640800 -0.01154900
v 0.03714800 -0.01616000 -0.01144200
v 0.03714900 -0.01590300 -0.01135900
v 0.03714800 -0.01564000 -0.01130300
v 0.03714800 -0.01537100 -0.01127400
v 0.03714700 -0.01510200 -0.01127200
v 0.03714600 -0.01483300 -0.01129600
v 0.03714500 -0.01456800 -0.01134500
v 0.03714400 -0.01430900 -0.01142000
v 0.03714200 -0.01405800 -0.01152000
v 0.03714000 -0.01381800 -0.01164300
v 0.03713800 -0.01359200 -0.01179000
v 0.03713500 -0.01338200 -0.01195900
v 0.03713300 -0.01318900 -0.01214800
v 0.03713000 -0.01301600 -0.01235500
v 0.03712700 -0.01286400 -0.01257700
v 0.03712400 -0.01273400 -0.01281400
v 0.03712200 -0.01262700 -0.01306100
v 0.03711900 -0.01254400 -0.01331800
v 0.03712700 -0.01484700 -0.01308400
v 0.03713100 -0.01538600 -0.01287800
v 0.03712900 -0.01583400 -0.01324200
v 0.03711100 -0.01573900 -0.01488400
v 0.03710900 -0.01538000 -0.01502100
v 0.03710600 -0.01502000 -0.01515800
v 0.03710900 -0.01457200 -0.01479400
v 0.03713100 -0.01538600 -0.01287800
v 0.03712700 -0.01484700 -0.01308400
v 0.03563100 -0.01539100 -0.01286200
v 0.03637800 -0.01484900 -0.01307600
v 0.03637900 -0.01511900 -0.01297300
v 0.03600300 -0.01485000 -0.01307200
v 0.03600400 -0.01512000 -0.01296900
v 0.03562800 -0.01485100 -0.01306800
v 0.03562400 -0.01431200 -0.01327400
v 0.03562600 -0.01458200 -0.01317100
v 0.03712400 -0.01430800 -0.01328900
v 0.03637400 -0.01431000 -0.01328100
v 0.03638000 -0.01537600 -0.01294600
v 0.03563000 -0.01536600 -0.01301500
v 0.03563000 -0.01536600 -0.01301500
v 0.03637900 -0.01583600 -0.01323400
v 0.03600400 -0.01583800 -0.01323000
v 0.03638000 -0.01561300 -0.01305200
v 0.03600500 -0.01561400 -0.01304800
v 0.03713100 -0.01538600 -0.01287800
v 0.03638000 -0.01537600 -0.01294600
v 0.03712600 -0.01628200 -0.01360700
v 0.03712900 -0.01583400 -0.01324200
v 0.03562600 -0.01628600 -0.01359100
v 0.03637600 -0.01628400 -0.01359900
v 0.03562900 -0.01583900 -0.01322600
v 0.03562700 -0.01606300 -0.01340900
v 0.03563000 -0.01536600 -0.01301500
v 0.03561400 -0.01610300 -0.01473100
v 0.03562600 -0.01628600 -0.01359100
v 0.03562300 -0.01624100 -0.01387600
v 0.03711300 -0.01609900 -0.01474700
v 0.03712000 -0.01619100 -0.01417700
v 0.03712600 -0.01628200 -0.01360700
v 0.03637600 -0.01628400 -0.01359900
v 0.03611400 -0.01610200 -0.01473600
v 0.03661400 -0.01610100 -0.01474100
v 0.03562000 -0.01619500 -0.01416100
v 0.03561400 -0.01610300 -0.01473100
v 0.03711300 -0.01609900 -0.01474700
v 0.03661400 -0.01610100 -0.01474100
v 0.03611400 -0.01610200 -0.01473600
v 0.03710600 -0.01502000 -0.01515800
v 0.03710900 -0.01538000 -0.01502100
v 0.03711100 -0.01573900 -0.01488400
v 0.03560600 -0.01502400 -0.01514200
v 0.03610600 -0.01502300 -0.01514700
v 0.03660600 -0.01502200 -0.01515300
v 0.03561000 -0.01556400 -0.01493700
v 0.03560800 -0.01529400 -0.01503900
v 0.03561200 -0.01583400 -0.01483400
v 0.03710600 -0.01502000 -0.01515800
v 0.03561100 -0.01412900 -0.01441400
v 0.03660600 -0.01502200 -0.01515300
v 0.03610600 -0.01502300 -0.01514700
v 0.03711100 -0.01412400 -0.01442900
v 0.03710900 -0.01457200 -0.01479400
v 0.03636100 -0.01412700 -0.01442100
v 0.03560900 -0.01457700 -0.01477800
v 0.03561000 -0.01435300 -0.01459600
v 0.03560600 -0.01502400 -0.01514200
v 0.03711100 -0.01412400 -0.01442900
v 0.03561800 -0.01422000 -0.01384400
v 0.03562100 -0.01426600 -0.01355900
v 0.03561100 -0.01412900 -0.01441400
v 0.03561500 -0.01417400 -0.01412900
v 0.03712400 -0.01430800 -0.01328900
v 0.03711800 -0.01421600 -0.01385900
v 0.03562400 -0.01431200 -0.01327400
v 0.03637400 -0.01431000 -0.01328100
v 0.03636100 -0.01412700 -0.01442100
v 0.03561000 -0.01556400 -0.01493700
v 0.03562000 -0.01619500 -0.01416100
v 0.03561400 -0.01610300 -0.01473100
v 0.03561200 -0.01583400 -0.01483400
v 0.03561100 -0.01572100 -0.01486000
v 0.03561300 -0.01586200 -0.01475800
v 0.03561400 -0.01598300 -0.01463300
v 0.03561600 -0.01608100 -0.01448900
v 0.03561800 -0.01615200 -0.01433000
v 0.03504100 -0.01520900 -0.01399600
v 0.03533600 -0.01528800 -0.01350600
v 0.03504100 -0.01520900 -0.01399600
v 0.03533600 -0.01534600 -0.01351900
v 0.03504100 -0.01520900 -0.01399600
v 0.03533500 -0.01540000 -0.01353700
v 0.03504100 -0.01520900 -0.01399600
v 0.03533500 -0.01545100 -0.01356200
v 0.03504100 -0.01520900 -0.01399600
v 0.03533500 -0.01549900 -0.01359300
v 0.03504100 -0.01520900 -0.01399600
v 0.03533500 -0.01554300 -0.01362800
v 0.03504100 -0.01520900 -0.01399600
v 0.03533500 -0.01558200 -0.01366700
v 0.03504100 -0.01520900 -0.01399600
v 0.03533400 -0.01561600 -0.01371000
v 0.03504100 -0.01520900 -0.01399600
v 0.03533400 -0.01564600 -0.01375700
v 0.03504100 -0.01520900 -0.01399600
v 0.03533300 -0.01567000 -0.01380700
v 0.03504100 -0.01520900 -0.01399600
v 0.03533300 -0.01568800 -0.01385900
v 0.03504100 -0.01520900 -0.01399600
v 0.03533200 -0.01570100 -0.01391300
v 0.03504100 -0.01520900 -0.01399600
v 0.03533200 -0.01570700 -0.01396800
v 0.03504100 -0.01520900 -0.01399600
v 0.03533100 -0.01570800 -0.01402600
v 0.03504100 -0.01520900 -0.01399600
v 0.03533100 -0.01570200 -0.01407800
v 0.03504100 -0.01520900 -0.01399600
v 0.03533000 -0.01568900 -0.01413700
v 0.03504100 -0.01520900 -0.01399600
v 0.03532900 -0.01567000 -0.01419100
v 0.03504100 -0.01520900 -0.01399600
v 0.03532900 -0.01564500 -0.01424200
v 0.03504100 -0.01520900 -0.01399600
v 0.03532800 -0.01561500 -0.01429000
v 0.03504100 -0.01520900 -0.01399600
v 0.03532800 -0.01558000 -0.01433400
v 0.03504100 -0.01520900 -0.01399600
v 0.03532700 -0.01554100 -0.01437300
v 0.03504100 -0.01520900 -0.01399600
v 0.03532700 -0.01549700 -0.01440700
v 0.03504100 -0.01520900 -0.01399600
v 0.03532600 -0.01545000 -0.01443700
v 0.03504100 -0.01520900 -0.01399600
v 0.03532600 -0.01540100 -0.01446100
v 0.03504100 -0.01520900 -0.01399600
v 0.03532500 -0.01534800 -0.01447900
v 0.03504100 -0.01520900 -0.01399600
v 0.03532500 -0.01529400 -0.01449200
v 0.03504100 -0.01520900 -0.01399600
v 0.03532500 -0.01523900 -0.01449800
v 0.03504100 -0.01520900 -0.01399600
v 0.03532500 -0.01518100 -0.01449800
v 0.03504100 -0.01520900 -0.01399600
v 0.03532500 -0.01512900 -0.01449300
v 0.03504100 -0.01520900 -0.01399600
v 0.03532500 -0.01507000 -0.01448000
v 0.03504100 -0.01520900 -0.01399600
v 0.03532500 -0.01501700 -0.01446100
v 0.03504100 -0.01520900 -0.01399600
v 0.03532500 -0.01496500 -0.01443600
v 0.03504100 -0.01520900 -0.01399600
v 0.03532500 -0.01491700 -0.01440600
v 0.03504100 -0.01520900 -0.01399600
v 0.03532500 -0.01487400 -0.01437100
v 0.03504100 -0.01520900 -0.01399600
v 0.03532600 -0.01483500 -0.01433100
v 0.03504100 -0.01520900 -0.01399600
v 0.03532600 -0.01480000 -0.01428800
v 0.03504100 -0.01520900 -0.01399600
v 0.03532600 -0.01477100 -0.01424100
v 0.03504100 -0.01520900 -0.01399600
v 0.03532700 -0.01474700 -0.01419100
v 0.03504100 -0.01520900 -0.01399600
v 0.03532700 -0.01472800 -0.01413900
v 0.03504100 -0.01520900 -0.01399600
v 0.03532800 -0.01471600 -0.01408500
v 0.03504100 -0.01520900 -0.01399600
v 0.03532800 -0.01470900 -0.01403000
v 0.03504100 -0.01520900 -0.01399600
v 0.03532900 -0.01470900 -0.01397200
v 0.03504100 -0.01520900 -0.01399600
v 0.03533000 -0.01471500 -0.01392000
v 0.03504100 -0.01520900 -0.01399600
v 0.03533000 -0.01472800 -0.01386100
v 0.03504100 -0.01520900 -0.01399600
v 0.03533100 -0.01474700 -0.01380700
v 0.03504100 -0.01520900 -0.01399600
v 0.03533100 -0.01477100 -0.01375600
v 0.03504100 -0.01520900 -0.01399600
v 0.03533200 -0.01480200 -0.01370800
v 0.03504100 -0.01520900 -0.01399600
v 0.03533300 -0.01483700 -0.01366500
v 0.03504100 -0.01520900 -0.01399600
v 0.03533300 -0.01487600 -0.01362600
v 0.03504100 -0.01520900 -0.01399600
v 0.03533400 -0.01491900 -0.01359100
v 0.03504100 -0.01520900 -0.01399600
v 0.03533400 -0.01496600 -0.01356200
v 0.03504100 -0.01520900 -0.01399600
v 0.03533400 -0.01501600 -0.01353800
v 0.03504100 -0.01520900 -0.01399600
v 0.03533500 -0.01506800 -0.01351900
v 0.03504100 -0.01520900 -0.01399600
v 0.03533500 -0.01512200 -0.01350700
v 0.03504100 -0.01520900 -0.01399600
v 0.03533500 -0.01517700 -0.01350000
v 0.03504100 -0.01520900 -0.01399600
v 0.03533500 -0.01523600 -0.01350000
v 0.03533600 -0.01528800 -0.01350600
v 0.03561000 -0.01556400 -0.01493700
v 0.03561100 -0.01572100 -0.01486000
v 0.03561300 -0.01586200 -0.01475800
v 0.03561400 -0.01598300 -0.01463300
v 0.03561600 -0.01608100 -0.01448900
v 0.03561800 -0.01615200 -0.01433000
v 0.03560900 -0.01457700 -0.01477800
v 0.03560800 -0.01472100 -0.01487600
v 0.03560800 -0.01488000 -0.01494700
v 0.03560800 -0.01504900 -0.01498900
v 0.03560800 -0.01522300 -0.01500200
v 0.03560900 -0.01539600 -0.01498400
v 0.03561800 -0.01422000 -0.01384400
v 0.03561600 -0.01420800 -0.01401700
v 0.03561400 -0.01422600 -0.01419100
v 0.03561200 -0.01427300 -0.01435800
v 0.03561100 -0.01434900 -0.01451500
v 0.03561000 -0.01445100 -0.01465700
v 0.03562000 -0.01619500 -0.01416100
v 0.03562200 -0.01620700 -0.01398700
v 0.03562300 -0.01619000 -0.01381400
v 0.03562500 -0.01614200 -0.01364600
v 0.03562700 -0.01606600 -0.01348900
v 0.03562800 -0.01596400 -0.01334800
v 0.03563000 -0.01536600 -0.01301500
v 0.03562900 -0.01519200 -0.01300200
v 0.03562900 -0.01501900 -0.01302000
v 0.03562900 -0.01583900 -0.01322600
v 0.03562900 -0.01569400 -0.01312900
v 0.03563000 -0.01553500 -0.01305700
v 0.03563000 -0.01536600 -0.01301500
v 0.03562800 -0.01485100 -0.01306800
v 0.03562600 -0.01469400 -0.01314400
v 0.03562500 -0.01455300 -0.01324600
v 0.03562300 -0.01443200 -0.01337100
v 0.03562100 -0.01433400 -0.01351500
v 0.03562000 -0.01426300 -0.01367500
v -0.03550000 0.02453800 0.01337500
v -0.03550000 0.02468200 0.01436400
v -0.03550000 0.02489600 0.01382800
v -0.03550000 0.02475300 0.01402400
v -0.03550000 0.02473300 0.01419700
v -0.03550000 0.02474300 0.01385000
v -0.03550000 0.02474300 0.01385000
v -0.03550000 0.02463400 0.01352000
v -0.03550000 0.02470300 0.01368000
v -0.03550000 0.02389800 0.01498400
v -0.03550000 0.02468200 0.01436400
v -0.03550000 0.02418300 0.01494200
v -0.03550000 0.02446900 0.01490100
v -0.03550000 0.02457600 0.01463200
v -0.03550000 0.02460400 0.01452000
v -0.03550000 0.02450000 0.01466000
v -0.03550000 0.02437300 0.01477900
v -0.03550000 0.02422700 0.01487500
v -0.03550000 0.02406700 0.01494400
v -0.03550000 0.02389800 0.01498400
v -0.03550000 0.02296900 0.01461400
v -0.03550000 0.02332600 0.01506700
v -0.03550000 0.02361200 0.01502500
v -0.03550000 0.02314700 0.01484000
v -0.03550000 0.02372400 0.01499400
v -0.03550000 0.02355000 0.01497300
v -0.03550000 0.02338300 0.01492300
v -0.03550000 0.02322800 0.01484500
v -0.03550000 0.02308800 0.01474100
v -0.03550000 0.02282400 0.01362400
v -0.03550000 0.02271800 0.01389200
v -0.03550000 0.02261100 0.01416100
v -0.03550000 0.02279000 0.01438700
v -0.03550000 0.02296900 0.01461400
v -0.03550000 0.02287300 0.01446800
v -0.03550000 0.02280400 0.01430800
v -0.03550000 0.02276400 0.01413800
v -0.03550000 0.02275400 0.01396400
v -0.03550000 0.02277400 0.01379100
v -0.03550000 0.02453800 0.01337500
v -0.03550000 0.02418100 0.01292100
v -0.03550000 0.02389500 0.01296300
v -0.03550000 0.02436000 0.01314800
v -0.03550000 0.02360900 0.01300500
v -0.03550000 0.02378300 0.01299500
v -0.03550000 0.02395700 0.01301500
v -0.03550000 0.02412300 0.01306500
v -0.03550000 0.02427900 0.01314300
v -0.03550000 0.02441900 0.01324800
v -0.03700000 0.02463700 0.01188100
v -0.03700000 0.02385900 0.01199400
v -0.03700000 0.02308200 0.01210700
v -0.03700000 0.02230400 0.01222000
v -0.03700000 0.02552700 0.01254500
v -0.03700000 0.02475000 0.01265800
v -0.03700000 0.02241700 0.01299800
v -0.03700000 0.02164000 0.01311100
v -0.03700000 0.02564100 0.01332200
v -0.03700000 0.02486300 0.01343600
v -0.03700000 0.02253100 0.01377500
v -0.03700000 0.02175300 0.01388800
v -0.03700000 0.02575400 0.01410000
v -0.03700000 0.02497600 0.01421300
v -0.03700000 0.02264400 0.01455300
v -0.03700000 0.02186600 0.01466600
v -0.03700000 0.02586700 0.01487700
v -0.03700000 0.02509000 0.01499100
v -0.03700000 0.02275700 0.01533000
v -0.03700000 0.02197900 0.01544300
v -0.03700000 0.02520300 0.01576800
v -0.03700000 0.02442500 0.01588100
v -0.03700000 0.02364800 0.01599500
v -0.03700000 0.02287000 0.01610800
v -0.03700000 0.02332600 0.01506700
v -0.03700000 0.02389800 0.01498400
v -0.03700000 0.02446900 0.01490100
v -0.03700000 0.02418100 0.01292100
v -0.03700000 0.02360900 0.01300500
v -0.03700000 0.02303800 0.01308800
v -0.03700000 0.02415000 0.01671500
v -0.03700000 0.02388100 0.01674100
v -0.03700000 0.02361100 0.01673900
v -0.03700000 0.02334300 0.01671100
v -0.03700000 0.02307900 0.01665700
v -0.03700000 0.02282100 0.01657900
v -0.03700000 0.02257100 0.01647500
v -0.03700000 0.02233400 0.01634900
v -0.03700000 0.02210900 0.01619900
v -0.03700000 0.02190200 0.01602700
v -0.03700000 0.02171200 0.01583500
v -0.03700000 0.02154200 0.01562500
v -0.03700000 0.02139300 0.01540000
v -0.03700000 0.02126600 0.01516200
v -0.03700000 0.02116300 0.01491300
v -0.03700000 0.02108500 0.01465500
v -0.03700000 0.02103200 0.01439000
v -0.03700000 0.02100700 0.01412200
v -0.03700000 0.02100900 0.01385200
v -0.03700000 0.02103700 0.01358400
v -0.03700000 0.02109000 0.01331900
v -0.03700000 0.02116900 0.01306100
v -0.03700000 0.02127200 0.01281200
v -0.03700000 0.02139900 0.01257400
v -0.03700000 0.02154900 0.01235000
v -0.03700000 0.02172100 0.01214200
v -0.03700000 0.02191300 0.01195300
v -0.03700000 0.02212200 0.01178300
v -0.03700000 0.02234700 0.01163400
v -0.03700000 0.02258600 0.01150700
v -0.03700000 0.02283500 0.01140400
v -0.03700000 0.02309300 0.01132500
v -0.03700000 0.02335700 0.01127300
v -0.03700000 0.02362600 0.01124800
v -0.03700000 0.02389500 0.01124900
v -0.03700000 0.02416400 0.01127700
v -0.03700000 0.02442800 0.01133100
v -0.03700000 0.02468600 0.01141000
v -0.03700000 0.02493500 0.01151300
v -0.03700000 0.02517300 0.01164000
v -0.03700000 0.02539800 0.01179000
v -0.03700000 0.02560500 0.01196200
v -0.03700000 0.02579500 0.01215400
v -0.03700000 0.02596500 0.01236300
v -0.03700000 0.02611400 0.01258800
v -0.03700000 0.02624100 0.01282600
v -0.03700000 0.02634400 0.01307500
v -0.03700000 0.02642200 0.01333300
v -0.03700000 0.02647500 0.01359800
v -0.03700000 0.02650000 0.01386600
v -0.03700000 0.02649800 0.01413600
v -0.03700000 0.02647000 0.01440400
v -0.03700000 0.02641700 0.01466900
v -0.03700000 0.02633800 0.01492700
v -0.03700000 0.02623500 0.01517600
v -0.03700000 0.02610800 0.01541400
v -0.03700000 0.02595800 0.01563800
v -0.03700000 0.02578600 0.01584600
v -0.03700000 0.02559400 0.01603500
v -0.03700000 0.02538400 0.01620500
v -0.03700000 0.02516000 0.01635400
v -0.03700000 0.02492100 0.01648100
v -0.03700000 0.02467200 0.01658500
v -0.03700000 0.02441400 0.01666300
v -0.03700000 0.02468200 0.01436400
v -0.03700000 0.02489600 0.01382800
v -0.03700000 0.02453800 0.01337500
v -0.03700000 0.02282400 0.01362400
v -0.03700000 0.02261100 0.01416100
v -0.03700000 0.02296900 0.01461400
v -0.03700000 0.02489600 0.01382800
v -0.03700000 0.02468200 0.01436400
v -0.03550000 0.02489600 0.01382800
v -0.03625000 0.02489600 0.01382800
v -0.03550000 0.02468200 0.01436400
v -0.03550000 0.02446900 0.01490100
v -0.03550000 0.02457600 0.01463200
v -0.03625000 0.02468200 0.01436400
v -0.03700000 0.02446900 0.01490100
v -0.03625000 0.02446900 0.01490100
v -0.03550000 0.02474300 0.01385000
v -0.03625000 0.02478900 0.01409600
v -0.03587500 0.02468200 0.01436400
v -0.03587500 0.02478900 0.01409600
v -0.03700000 0.02418100 0.01292100
v -0.03700000 0.02489600 0.01382800
v -0.03625000 0.02489600 0.01382800
v -0.03700000 0.02453800 0.01337500
v -0.03550000 0.02418100 0.01292100
v -0.03625000 0.02418100 0.01292100
v -0.03550000 0.02453800 0.01337500
v -0.03550000 0.02436000 0.01314800
v -0.03625000 0.02453800 0.01337500
v -0.03550000 0.02489600 0.01382800
v -0.03587500 0.02453800 0.01337500
v -0.03625000 0.02471700 0.01360100
v -0.03587500 0.02471700 0.01360100
v -0.03550000 0.02474300 0.01385000
v -0.03550000 0.02418100 0.01292100
v -0.03550000 0.02389500 0.01296300
v -0.03700000 0.02303800 0.01308800
v -0.03700000 0.02360900 0.01300500
v -0.03700000 0.02418100 0.01292100
v -0.03625000 0.02418100 0.01292100
v -0.03550000 0.02303800 0.01308800
v -0.03625000 0.02303800 0.01308800
v -0.03550000 0.02360900 0.01300500
v -0.03550000 0.02332400 0.01304600
v -0.03700000 0.02303800 0.01308800
v -0.03625000 0.02303800 0.01308800
v -0.03700000 0.02261100 0.01416100
v -0.03700000 0.02282400 0.01362400
v -0.03550000 0.02261100 0.01416100
v -0.03625000 0.02261100 0.01416100
v -0.03550000 0.02282400 0.01362400
v -0.03550000 0.02271800 0.01389200
v -0.03550000 0.02303800 0.01308800
v -0.03550000 0.02293100 0.01335600
v -0.03700000 0.02332600 0.01506700
v -0.03700000 0.02261100 0.01416100
v -0.03625000 0.02261100 0.01416100
v -0.03700000 0.02296900 0.01461400
v -0.03550000 0.02332600 0.01506700
v -0.03625000 0.02332600 0.01506700
v -0.03550000 0.02296900 0.01461400
v -0.03550000 0.02314700 0.01484000
v -0.03550000 0.02261100 0.01416100
v -0.03550000 0.02279000 0.01438700
v -0.03700000 0.02446900 0.01490100
v -0.03550000 0.02389800 0.01498400
v -0.03550000 0.02418300 0.01494200
v -0.03550000 0.02332600 0.01506700
v -0.03550000 0.02361200 0.01502500
v -0.03700000 0.02389800 0.01498400
v -0.03550000 0.02446900 0.01490100
v -0.03625000 0.02446900 0.01490100
v -0.03700000 0.02332600 0.01506700
v -0.03625000 0.02332600 0.01506700
v -0.03550000 0.02282400 0.01362400
v -0.03550000 0.02360900 0.01300500
v -0.03550000 0.02332400 0.01304600
v -0.03550000 0.02303800 0.01308800
v -0.03550000 0.02293100 0.01335600
v -0.03550000 0.02290300 0.01346800
v -0.03550000 0.02300700 0.01332900
v -0.03550000 0.02313400 0.01320900
v -0.03550000 0.02328000 0.01311400
v -0.03550000 0.02344000 0.01304500
v -0.03492300 0.02375300 0.01399400
v -0.03521100 0.02424800 0.01392200
v -0.03492300 0.02375300 0.01399400
v -0.03521100 0.02423600 0.01386300
v -0.03492300 0.02375300 0.01399400
v -0.03521100 0.02421800 0.01380900
v -0.03492300 0.02375300 0.01399400
v -0.03521100 0.02419400 0.01375800
v -0.03492300 0.02375300 0.01399400
v -0.03521100 0.02416400 0.01370900
v -0.03492300 0.02375300 0.01399400
v -0.03521100 0.02413000 0.01366500
v -0.03492300 0.02375300 0.01399400
v -0.03521100 0.02409100 0.01362500
v -0.03492300 0.02375300 0.01399400
v -0.03521100 0.02404800 0.01359000
v -0.03492300 0.02375300 0.01399400
v -0.03521100 0.02400200 0.01356000
v -0.03492300 0.02375300 0.01399400
v -0.03521100 0.02395200 0.01353500
v -0.03492300 0.02375300 0.01399400
v -0.03521100 0.02390100 0.01351600
v -0.03492300 0.02375300 0.01399400
v -0.03521100 0.02384700 0.01350300
v -0.03492300 0.02375300 0.01399400
v -0.03521100 0.02379200 0.01349600
v -0.03492300 0.02375300 0.01399400
v -0.03521100 0.02373300 0.01349500
v -0.03492300 0.02375300 0.01399400
v -0.03521100 0.02368100 0.01349900
v -0.03492300 0.02375300 0.01399400
v -0.03521100 0.02362200 0.01351200
v -0.03492300 0.02375300 0.01399400
v -0.03521100 0.02356800 0.01353000
v -0.03492300 0.02375300 0.01399400
v -0.03521100 0.02351700 0.01355400
v -0.03492300 0.02375300 0.01399400
v -0.03521100 0.02346800 0.01358300
v -0.03492300 0.02375300 0.01399400
v -0.03521100 0.02342400 0.01361800
v -0.03492300 0.02375300 0.01399400
v -0.03521100 0.02338500 0.01365600
v -0.03492300 0.02375300 0.01399400
v -0.03521100 0.02335000 0.01369900
v -0.03492300 0.02375300 0.01399400
v -0.03521100 0.02332000 0.01374600
v -0.03492300 0.02375300 0.01399400
v -0.03521100 0.02329500 0.01379500
v -0.03492300 0.02375300 0.01399400
v -0.03521100 0.02327600 0.01384700
v -0.03492300 0.02375300 0.01399400
v -0.03521100 0.02326200 0.01390100
v -0.03492300 0.02375300 0.01399400
v -0.03521100 0.02325500 0.01395600
v -0.03492300 0.02375300 0.01399400
v -0.03521100 0.02325400 0.01401400
v -0.03492300 0.02375300 0.01399400
v -0.03521100 0.02325900 0.01406600
v -0.03492300 0.02375300 0.01399400
v -0.03521100 0.02327100 0.01412500
v -0.03492300 0.02375300 0.01399400
v -0.03521100 0.02328900 0.01417900
v -0.03492300 0.02375300 0.01399400
v -0.03521100 0.02331300 0.01423100
v -0.03492300 0.02375300 0.01399400
v -0.03521100 0.02334300 0.01427900
v -0.03492300 0.02375300 0.01399400
v -0.03521100 0.02337700 0.01432300
v -0.03492300 0.02375300 0.01399400
v -0.03521100 0.02341600 0.01436300
v -0.03492300 0.02375300 0.01399400
v -0.03521100 0.02345900 0.01439800
v -0.03492300 0.02375300 0.01399400
v -0.03521100 0.02350500 0.01442800
v -0.03492300 0.02375300 0.01399400
v -0.03521100 0.02355400 0.01445300
v -0.03492300 0.02375300 0.01399400
v -0.03521100 0.02360600 0.01447200
v -0.03492300 0.02375300 0.01399400
v -0.03521100 0.02366000 0.01448500
v -0.03492300 0.02375300 0.01399400
v -0.03521100 0.02371500 0.01449300
v -0.03492300 0.02375300 0.01399400
v -0.03521100 0.02377300 0.01449400
v -0.03492300 0.02375300 0.01399400
v -0.03521100 0.02382600 0.01448900
v -0.03492300 0.02375300 0.01399400
v -0.03521100 0.02388400 0.01447700
v -0.03492300 0.02375300 0.01399400
v -0.03521100 0.02393800 0.01445900
v -0.03492300 0.02375300 0.01399400
v -0.03521100 0.02399000 0.01443500
v -0.03492300 0.02375300 0.01399400
v -0.03521100 0.02403900 0.01440500
v -0.03492300 0.02375300 0.01399400
v -0.03521100 0.02408300 0.01437100
v -0.03492300 0.02375300 0.01399400
v -0.03521100 0.02412200 0.01433200
v -0.03492300 0.02375300 0.01399400
v -0.03521100 0.02415700 0.01428900
v -0.03492300 0.02375300 0.01399400
v -0.03521100 0.02418700 0.01424300
v -0.03492300 0.02375300 0.01399400
v -0.03521100 0.02421200 0.01419300
v -0.03492300 0.02375300 0.01399400
v -0.03521100 0.02423100 0.01414100
v -0.03492300 0.02375300 0.01399400
v -0.03521100 0.02424500 0.01408700
v -0.03492300 0.02375300 0.01399400
v -0.03521100 0.02425200 0.01403300
v -0.03492300 0.02375300 0.01399400
v -0.03521100 0.02425300 0.01397400
v -0.03521100 0.02424800 0.01392200
v -0.03550000 0.02282400 0.01362400
v -0.03550000 0.02290300 0.01346800
v -0.03550000 0.02300700 0.01332900
v -0.03550000 0.02313400 0.01320900
v -0.03550000 0.02328000 0.01311400
v -0.03550000 0.02344000 0.01304500
v -0.03550000 0.02296900 0.01461400
v -0.03550000 0.02287300 0.01446800
v -0.03550000 0.02280400 0.01430800
v -0.03550000 0.02276400 0.01413800
v -0.03550000 0.02275400 0.01396400
v -0.03550000 0.02277400 0.01379100
v -0.03550000 0.02389800 0.01498400
v -0.03550000 0.02372400 0.01499400
v -0.03550000 0.02355000 0.01497300
v -0.03550000 0.02338300 0.01492300
v -0.03550000 0.02322800 0.01484500
v -0.03550000 0.02308800 0.01474100
v -0.03550000 0.02360900 0.01300500
v -0.03550000 0.02378300 0.01299500
v -0.03550000 0.02395700 0.01301500
v -0.03550000 0.02412300 0.01306500
v -0.03550000 0.02427900 0.01314300
v -0.03550000 0.02441900 0.01324800
v -0.03550000 0.02453800 0.01337500
v -0.03550000 0.02474300 0.01385000
v -0.03550000 0.02475300 0.01402400
v -0.03550000 0.02473300 0.01419700
v -0.03550000 0.02463400 0.01352000
v -0.03550000 0.02470300 0.01368000
v -0.03550000 0.02474300 0.01385000
v -0.03550000 0.02468200 0.01436400
v -0.03550000 0.02460400 0.01452000
v -0.03550000 0.02450000 0.01466000
v -0.03550000 0.02437300 0.01477900
v -0.03550000 0.02422700 0.01487500
v -0.03550000 0.02406700 0.01494400
v -0.03550000 -0.01458800 -0.01474300
v -0.03550000 -0.01427400 -0.01379300
v -0.03550000 -0.01421500 -0.01407600
v -0.03550000 -0.01415700 -0.01435900
v -0.03550000 -0.01437200 -0.01455100
v -0.03550000 -0.01446800 -0.01461600
v -0.03550000 -0.01437300 -0.01447000
v -0.03550000 -0.01430400 -0.01431000
v -0.03550000 -0.01426400 -0.01414100
v -0.03550000 -0.01425400 -0.01396700
v -0.03550000 -0.01427400 -0.01379300
v -0.03550000 -0.01494000 -0.01304700
v -0.03550000 -0.01439100 -0.01322800
v -0.03550000 -0.01432400 -0.01362700
v -0.03550000 -0.01440300 -0.01347100
v -0.03550000 -0.01450700 -0.01333100
v -0.03550000 -0.01463400 -0.01321200
v -0.03550000 -0.01477900 -0.01311600
v -0.03550000 -0.01591900 -0.01325000
v -0.03550000 -0.01548800 -0.01286600
v -0.03550000 -0.01494000 -0.01304700
v -0.03550000 -0.01510900 -0.01300700
v -0.03550000 -0.01528300 -0.01299700
v -0.03550000 -0.01545600 -0.01301700
v -0.03550000 -0.01562300 -0.01306800
v -0.03550000 -0.01577900 -0.01314600
v -0.03550000 -0.01623200 -0.01420000
v -0.03550000 -0.01635000 -0.01363400
v -0.03550000 -0.01613400 -0.01344200
v -0.03550000 -0.01591900 -0.01325000
v -0.03550000 -0.01603800 -0.01337700
v -0.03550000 -0.01613400 -0.01352300
v -0.03550000 -0.01620300 -0.01368300
v -0.03550000 -0.01621800 -0.01394100
v -0.03550000 -0.01620300 -0.01368300
v -0.03550000 -0.01624300 -0.01385200
v -0.03550000 -0.01625300 -0.01402600
v -0.03550000 -0.01458800 -0.01474300
v -0.03550000 -0.01556700 -0.01494600
v -0.03550000 -0.01501900 -0.01512700
v -0.03550000 -0.01539700 -0.01498600
v -0.03550000 -0.01522300 -0.01499600
v -0.03550000 -0.01505000 -0.01497600
v -0.03550000 -0.01488300 -0.01492600
v -0.03550000 -0.01472800 -0.01484700
v -0.03700000 -0.01475000 -0.01623100
v -0.03700000 -0.01549600 -0.01598500
v -0.03700000 -0.01624300 -0.01573800
v -0.03700000 -0.01698900 -0.01549200
v -0.03700000 -0.01375800 -0.01573200
v -0.03700000 -0.01450400 -0.01548500
v -0.03700000 -0.01674200 -0.01474600
v -0.03700000 -0.01748800 -0.01449900
v -0.03700000 -0.01351100 -0.01498600
v -0.03700000 -0.01425700 -0.01473900
v -0.03700000 -0.01649600 -0.01400000
v -0.03700000 -0.01724200 -0.01375300
v -0.03700000 -0.01326500 -0.01424000
v -0.03700000 -0.01401100 -0.01399300
v -0.03700000 -0.01624900 -0.01325400
v -0.03700000 -0.01699500 -0.01300700
v -0.03700000 -0.01301800 -0.01349400
v -0.03700000 -0.01376400 -0.01324700
v -0.03700000 -0.01600300 -0.01250800
v -0.03700000 -0.01674900 -0.01226100
v -0.03700000 -0.01351800 -0.01250100
v -0.03700000 -0.01426400 -0.01225500
v -0.03700000 -0.01501000 -0.01200800
v -0.03700000 -0.01575600 -0.01176200
v -0.03700000 -0.01548800 -0.01286600
v -0.03700000 -0.01494000 -0.01304700
v -0.03700000 -0.01439100 -0.01322800
v -0.03700000 -0.01501900 -0.01512700
v -0.03700000 -0.01556700 -0.01494600
v -0.03700000 -0.01611500 -0.01476500
v -0.03700000 -0.01439000 -0.01138500
v -0.03700000 -0.01465100 -0.01131400
v -0.03700000 -0.01491600 -0.01126900
v -0.03700000 -0.01518500 -0.01125000
v -0.03700000 -0.01545500 -0.01125700
v -0.03700000 -0.01572300 -0.01128900
v -0.03700000 -0.01598600 -0.01134800
v -0.03700000 -0.01624300 -0.01143100
v -0.03700000 -0.01649000 -0.01154000
v -0.03700000 -0.01672400 -0.01167300
v -0.03700000 -0.01694400 -0.01183000
v -0.03700000 -0.01714800 -0.01200600
v -0.03700000 -0.01733300 -0.01220200
v -0.03700000 -0.01750000 -0.01241400
v -0.03700000 -0.01764500 -0.01264200
v -0.03700000 -0.01776700 -0.01288200
v -0.03700000 -0.01786400 -0.01313400
v -0.03700000 -0.01793600 -0.01339400
v -0.03700000 -0.01798100 -0.01366000
v -0.03700000 -0.01800000 -0.01392900
v -0.03700000 -0.01799300 -0.01419900
v -0.03700000 -0.01796000 -0.01446600
v -0.03700000 -0.01790200 -0.01473000
v -0.03700000 -0.01781900 -0.01498600
v -0.03700000 -0.01771000 -0.01523300
v -0.03700000 -0.01757600 -0.01546700
v -0.03700000 -0.01742000 -0.01568700
v -0.03700000 -0.01724300 -0.01589100
v -0.03700000 -0.01704800 -0.01607700
v -0.03700000 -0.01683500 -0.01624300
v -0.03700000 -0.01660800 -0.01638800
v -0.03700000 -0.01636700 -0.01651000
v -0.03700000 -0.01611600 -0.01660800
v -0.03700000 -0.01585600 -0.01667900
v -0.03700000 -0.01559000 -0.01672400
v -0.03700000 -0.01532100 -0.01674300
v -0.03700000 -0.01505100 -0.01673600
v -0.03700000 -0.01478300 -0.01670400
v -0.03700000 -0.01452000 -0.01664500
v -0.03700000 -0.01426400 -0.01656200
v -0.03700000 -0.01401700 -0.01645300
v -0.03700000 -0.01378200 -0.01632000
v -0.03700000 -0.01356300 -0.01616400
v -0.03700000 -0.01335900 -0.01598700
v -0.03700000 -0.01317300 -0.01579100
v -0.03700000 -0.01300700 -0.01557900
v -0.03700000 -0.01286200 -0.01535100
v -0.03700000 -0.01274000 -0.01511100
v -0.03700000 -0.01264200 -0.01485900
v -0.03700000 -0.01257100 -0.01459900
v -0.03700000 -0.01252500 -0.01433300
v -0.03700000 -0.01250600 -0.01406400
v -0.03700000 -0.01251300 -0.01379500
v -0.03700000 -0.01254600 -0.01352700
v -0.03700000 -0.01260400 -0.01326300
v -0.03700000 -0.01268800 -0.01300700
v -0.03700000 -0.01279700 -0.01276000
v -0.03700000 -0.01293000 -0.01252600
v -0.03700000 -0.01308600 -0.01230600
v -0.03700000 -0.01326300 -0.01210200
v -0.03700000 -0.01345900 -0.01191600
v -0.03700000 -0.01367100 -0.01175000
v -0.03700000 -0.01389900 -0.01160500
v -0.03700000 -0.01413900 -0.01148300
v -0.03700000 -0.01427400 -0.01379300
v -0.03700000 -0.01415700 -0.01435900
v -0.03700000 -0.01458800 -0.01474300
v -0.03700000 -0.01623200 -0.01420000
v -0.03700000 -0.01635000 -0.01363400
v -0.03700000 -0.01591900 -0.01325000
v -0.03700000 -0.01415700 -0.01435900
v -0.03700000 -0.01427400 -0.01379300
v -0.03550000 -0.01415700 -0.01435900
v -0.03625000 -0.01415700 -0.01435900
v -0.03550000 -0.01427400 -0.01379300
v -0.03550000 -0.01421500 -0.01407600
v -0.03550000 -0.01439100 -0.01322800
v -0.03700000 -0.01439100 -0.01322800
v -0.03625000 -0.01439100 -0.01322800
v -0.03700000 -0.01415700 -0.01435900
v -0.03625000 -0.01415700 -0.01435900
v -0.03700000 -0.01501900 -0.01512700
v -0.03700000 -0.01458800 -0.01474300
v -0.03550000 -0.01501900 -0.01512700
v -0.03625000 -0.01501900 -0.01512700
v -0.03550000 -0.01458800 -0.01474300
v -0.03550000 -0.01415700 -0.01435900
v -0.03550000 -0.01437200 -0.01455100
v -0.03700000 -0.01611500 -0.01476500
v -0.03550000 -0.01501900 -0.01512700
v -0.03550000 -0.01556700 -0.01494600
v -0.03700000 -0.01556700 -0.01494600
v -0.03700000 -0.01501900 -0.01512700
v -0.03625000 -0.01501900 -0.01512700
v -0.03550000 -0.01611500 -0.01476500
v -0.03625000 -0.01611500 -0.01476500
v -0.03700000 -0.01611500 -0.01476500
v -0.03625000 -0.01611500 -0.01476500
v -0.03700000 -0.01635000 -0.01363400
v -0.03700000 -0.01623200 -0.01420000
v -0.03550000 -0.01635000 -0.01363400
v -0.03625000 -0.01623200 -0.01420000
v -0.03625000 -0.01629100 -0.01391700
v -0.03587500 -0.01623200 -0.01420000
v -0.03587500 -0.01629100 -0.01391700
v -0.03550000 -0.01623200 -0.01420000
v -0.03550000 -0.01621800 -0.01394100
v -0.03550000 -0.01611500 -0.01476500
v -0.03625000 -0.01627600 -0.01365900
v -0.03550000 -0.01620300 -0.01368300
v -0.03700000 -0.01635000 -0.01363400
v -0.03550000 -0.01548800 -0.01286600
v -0.03700000 -0.01548800 -0.01286600
v -0.03700000 -0.01591900 -0.01325000
v -0.03625000 -0.01548800 -0.01286600
v -0.03550000 -0.01591900 -0.01325000
v -0.03550000 -0.01635000 -0.01363400
v -0.03625000 -0.01591900 -0.01325000
v -0.03587500 -0.01591900 -0.01325000
v -0.03625000 -0.01613400 -0.01344200
v -0.03587500 -0.01613400 -0.01344200
v -0.03625000 -0.01635000 -0.01363400
v -0.03550000 -0.01620300 -0.01368300
v -0.03700000 -0.01548800 -0.01286600
v -0.03550000 -0.01494000 -0.01304700
v -0.03550000 -0.01548800 -0.01286600
v -0.03700000 -0.01439100 -0.01322800
v -0.03700000 -0.01494000 -0.01304700
v -0.03550000 -0.01439100 -0.01322800
v -0.03625000 -0.01439100 -0.01322800
v -0.03625000 -0.01548800 -0.01286600
v -0.03550000 -0.01623200 -0.01420000
v -0.03550000 -0.01556700 -0.01494600
v -0.03550000 -0.01611500 -0.01476500
v -0.03550000 -0.01618200 -0.01436700
v -0.03550000 -0.01610400 -0.01452200
v -0.03550000 -0.01600000 -0.01466200
v -0.03550000 -0.01587300 -0.01478100
v -0.03550000 -0.01572700 -0.01487700
v -0.03492300 -0.01525300 -0.01399700
v -0.03521100 -0.01572800 -0.01384000
v -0.03492300 -0.01525300 -0.01399700
v -0.03521100 -0.01570600 -0.01378400
v -0.03492300 -0.01525300 -0.01399700
v -0.03521100 -0.01567900 -0.01373400
v -0.03492300 -0.01525300 -0.01399700
v -0.03521100 -0.01564600 -0.01368700
v -0.03492300 -0.01525300 -0.01399700
v -0.03521100 -0.01560800 -0.01364400
v -0.03492300 -0.01525300 -0.01399700
v -0.03521100 -0.01556700 -0.01360700
v -0.03492300 -0.01525300 -0.01399700
v -0.03521100 -0.01552200 -0.01357500
v -0.03492300 -0.01525300 -0.01399700
v -0.03521100 -0.01547400 -0.01354800
v -0.03492300 -0.01525300 -0.01399700
v -0.03521100 -0.01542300 -0.01352600
v -0.03492300 -0.01525300 -0.01399700
v -0.03521100 -0.01537000 -0.01351000
v -0.03492300 -0.01525300 -0.01399700
v -0.03521100 -0.01531500 -0.01350000
v -0.03492300 -0.01525300 -0.01399700
v -0.03521100 -0.01526000 -0.01349700
v -0.03492300 -0.01525300 -0.01399700
v -0.03521100 -0.01520500 -0.01349900
v -0.03492300 -0.01525300 -0.01399700
v -0.03521100 -0.01514700 -0.01350800
v -0.03492300 -0.01525300 -0.01399700
v -0.03521100 -0.01509600 -0.01352200
v -0.03492300 -0.01525300 -0.01399700
v -0.03521100 -0.01504000 -0.01354400
v -0.03492300 -0.01525300 -0.01399700
v -0.03521100 -0.01499000 -0.01357100
v -0.03492300 -0.01525300 -0.01399700
v -0.03521100 -0.01494400 -0.01360400
v -0.03492300 -0.01525300 -0.01399700
v -0.03521100 -0.01490100 -0.01364200
v -0.03492300 -0.01525300 -0.01399700
v -0.03521100 -0.01486400 -0.01368300
v -0.03492300 -0.01525300 -0.01399700
v -0.03521100 -0.01483200 -0.01372800
v -0.03492300 -0.01525300 -0.01399700
v -0.03521100 -0.01480400 -0.01377600
v -0.03492300 -0.01525300 -0.01399700
v -0.03521100 -0.01478300 -0.01382700
v -0.03492300 -0.01525300 -0.01399700
v -0.03521100 -0.01476700 -0.01388000
v -0.03492300 -0.01525300 -0.01399700
v -0.03521100 -0.01475700 -0.01393500
v -0.03492300 -0.01525300 -0.01399700
v -0.03521100 -0.01475300 -0.01399000
v -0.03492300 -0.01525300 -0.01399700
v -0.03521100 -0.01475600 -0.01404500
v -0.03492300 -0.01525300 -0.01399700
v -0.03521100 -0.01476500 -0.01410300
v -0.03492300 -0.01525300 -0.01399700
v -0.03521100 -0.01477800 -0.01415300
v -0.03492300 -0.01525300 -0.01399700
v -0.03521100 -0.01480100 -0.01420900
v -0.03492300 -0.01525300 -0.01399700
v -0.03521100 -0.01482800 -0.01425900
v -0.03492300 -0.01525300 -0.01399700
v -0.03521100 -0.01486100 -0.01430600
v -0.03492300 -0.01525300 -0.01399700
v -0.03521100 -0.01489800 -0.01434900
v -0.03492300 -0.01525300 -0.01399700
v -0.03521100 -0.01494000 -0.01438600
v -0.03492300 -0.01525300 -0.01399700
v -0.03521100 -0.01498500 -0.01441800
v -0.03492300 -0.01525300 -0.01399700
v -0.03521100 -0.01503300 -0.01444500
v -0.03492300 -0.01525300 -0.01399700
v -0.03521100 -0.01508400 -0.01446700
v -0.03492300 -0.01525300 -0.01399700
v -0.03521100 -0.01513700 -0.01448300
v -0.03492300 -0.01525300 -0.01399700
v -0.03521100 -0.01519100 -0.01449300
v -0.03492300 -0.01525300 -0.01399700
v -0.03521100 -0.01524700 -0.01449600
v -0.03492300 -0.01525300 -0.01399700
v -0.03521100 -0.01530200 -0.01449400
v -0.03492300 -0.01525300 -0.01399700
v -0.03521100 -0.01536000 -0.01448500
v -0.03492300 -0.01525300 -0.01399700
v -0.03521100 -0.01541000 -0.01447100
v -0.03492300 -0.01525300 -0.01399700
v -0.03521100 -0.01546600 -0.01444900
v -0.03492300 -0.01525300 -0.01399700
v -0.03521100 -0.01551600 -0.01442200
v -0.03492300 -0.01525300 -0.01399700
v -0.03521100 -0.01556300 -0.01438900
v -0.03492300 -0.01525300 -0.01399700
v -0.03521100 -0.01560500 -0.01435200
v -0.03492300 -0.01525300 -0.01399700
v -0.03521100 -0.01564300 -0.01431000
v -0.03492300 -0.01525300 -0.01399700
v -0.03521100 -0.01567500 -0.01426500
v -0.03492300 -0.01525300 -0.01399700
v -0.03521100 -0.01570200 -0.01421700
v -0.03492300 -0.01525300 -0.01399700
v -0.03521100 -0.01572400 -0.01416600
v -0.03492300 -0.01525300 -0.01399700
v -0.03521100 -0.01574000 -0.01411300
v -0.03492300 -0.01525300 -0.01399700
v -0.03521100 -0.01574900 -0.01405800
v -0.03492300 -0.01525300 -0.01399700
v -0.03521100 -0.01575300 -0.01400300
v -0.03492300 -0.01525300 -0.01399700
v -0.03521100 -0.01575100 -0.01394800
v -0.03492300 -0.01525300 -0.01399700
v -0.03521100 -0.01574200 -0.01389000
v -0.03521100 -0.01572800 -0.01384000
v -0.03550000 -0.01427400 -0.01379300
v -0.03550000 -0.01432400 -0.01362700
v -0.03550000 -0.01440300 -0.01347100
v -0.03550000 -0.01450700 -0.01333100
v -0.03550000 -0.01463400 -0.01321200
v -0.03550000 -0.01477900 -0.01311600
v -0.03550000 -0.01458800 -0.01474300
v -0.03550000 -0.01446800 -0.01461600
v -0.03550000 -0.01437300 -0.01447000
v -0.03550000 -0.01430400 -0.01431000
v -0.03550000 -0.01426400 -0.01414100
v -0.03550000 -0.01425400 -0.01396700
v -0.03550000 -0.01556700 -0.01494600
v -0.03550000 -0.01539700 -0.01498600
v -0.03550000 -0.01522300 -0.01499600
v -0.03550000 -0.01505000 -0.01497600
v -0.03550000 -0.01488300 -0.01492600
v -0.03550000 -0.01472800 -0.01484700
v -0.03550000 -0.01494000 -0.01304700
v -0.03550000 -0.01510900 -0.01300700
v -0.03550000 -0.01528300 -0.01299700
v -0.03550000 -0.01545600 -0.01301700
v -0.03550000 -0.01562300 -0.01306800
v -0.03550000 -0.01577900 -0.01314600
v -0.03550000 -0.01620300 -0.01368300
v -0.03550000 -0.01624300 -0.01385200
v -0.03550000 -0.01625300 -0.01402600
v -0.03550000 -0.01623200 -0.01420000
v -0.03550000 -0.01591900 -0.01325000
v -0.03550000 -0.01603800 -0.01337700
v -0.03550000 -0.01613400 -0.01352300
v -0.03550000 -0.01620300 -0.01368300
v -0.03550000 -0.01618200 -0.01436700
v -0.03550000 -0.01610400 -0.01452200
v -0.03550000 -0.01600000 -0.01466200
v -0.03550000 -0.01587300 -0.01478100
v -0.03550000 -0.01572700 -0.01487700
f 6 4 3
f 5 3 4
f 3 5 2
f 6 7 8
f 6 1 7
f 16 11 15
f 14 15 11
f 11 16 9
f 11 10 12
f 11 13 14
f 11 12 13
f 19 17 20
f 22 19 21
f 20 21 19
f 19 22 23
f 19 24 18
f 19 23 24
f 26 27 28
f 26 29 30
f 26 28 29
f 26 32 25
f 32 26 31
f 30 31 26
f 35 40 33
f 35 38 39
f 39 40 35
f 36 37 35
f 38 35 37
f 35 34 36
f 42 46 41
f 47 43 44
f 49 46 50
f 51 48 52
f 58 53 54
f 59 56 60
f 58 62 61
f 63 59 64
f 109 108 41
f 110 109 41
f 111 41 46
f 110 41 111
f 107 41 108
f 104 103 42
f 105 104 42
f 42 107 106
f 41 107 42
f 105 42 106
f 42 103 43
f 112 111 45
f 114 113 45
f 114 45 115
f 117 116 49
f 49 116 115
f 49 118 117
f 68 137 46
f 46 42 68
f 45 111 46
f 46 137 50
f 54 49 50
f 50 137 136
f 49 115 45
f 119 118 49
f 45 113 112
f 68 42 69
f 100 43 101
f 102 101 43
f 44 43 99
f 100 99 43
f 95 47 44
f 98 44 99
f 102 43 103
f 97 96 44
f 44 98 97
f 96 95 44
f 95 94 48
f 94 93 48
f 70 43 47
f 70 47 138
f 93 92 48
f 47 51 138
f 138 51 139
f 70 69 43
f 90 52 91
f 48 92 91
f 88 52 89
f 90 89 52
f 52 88 87
f 56 52 87
f 91 52 48
f 55 139 51
f 47 95 48
f 43 69 42
f 120 119 53
f 120 53 121
f 123 122 53
f 53 122 121
f 124 123 57
f 135 58 54
f 54 50 136
f 67 58 135
f 57 58 127
f 62 58 67
f 57 123 53
f 125 124 57
f 54 136 135
f 127 126 57
f 127 58 61
f 129 128 61
f 128 127 61
f 130 129 61
f 62 131 61
f 130 61 131
f 132 131 62
f 133 62 134
f 134 62 71
f 132 62 133
f 66 62 67
f 126 125 57
f 71 62 63
f 55 140 139
f 59 140 55
f 55 52 56
f 59 63 65
f 66 65 63
f 140 59 65
f 85 56 86
f 56 87 86
f 84 56 85
f 84 83 56
f 60 56 83
f 82 60 83
f 60 79 59
f 64 75 63
f 74 63 75
f 76 75 64
f 59 79 64
f 74 73 63
f 72 63 73
f 63 62 66
f 60 81 80
f 81 60 82
f 79 78 64
f 80 79 60
f 64 78 77
f 64 77 76
f 63 72 71
f 53 119 49
f 153 150 151
f 152 145 146
f 153 145 152
f 148 152 146
f 147 150 148
f 152 148 150
f 142 150 147
f 143 149 153
f 145 153 149
f 144 143 153
f 141 151 142
f 151 150 142
f 151 141 144
f 144 153 151
f 163 164 162
f 165 166 161
f 165 160 166
f 156 165 161
f 155 164 156
f 157 164 155
f 158 160 163
f 163 159 158
f 159 162 157
f 157 154 159
f 169 171 170
f 169 167 173
f 174 171 169
f 169 173 174
f 174 173 172
f 168 171 174
f 177 181 182
f 177 176 178
f 180 181 177
f 177 178 180
f 180 178 175
f 179 181 180
f 190 185 187
f 185 184 187
f 190 183 185
f 189 188 190
f 189 187 186
f 190 187 189
f 192 197 196
f 192 193 198
f 198 197 192
f 197 198 195
f 195 198 191
f 194 197 195
f 201 203 204
f 201 199 202
f 202 203 201
f 201 206 200
f 204 205 201
f 206 201 205
f 210 207 208
f 212 209 210
f 214 211 212
f 216 213 214
f 218 215 216
f 220 217 218
f 222 219 220
f 224 221 222
f 226 223 224
f 228 225 226
f 230 227 228
f 232 229 230
f 234 231 232
f 236 233 234
f 238 235 236
f 240 237 238
f 242 239 240
f 244 241 242
f 246 243 244
f 248 245 246
f 250 247 248
f 252 249 250
f 254 251 252
f 256 253 254
f 258 255 256
f 260 257 258
f 262 259 260
f 264 261 262
f 266 263 264
f 268 265 266
f 270 267 268
f 272 269 270
f 274 271 272
f 276 273 274
f 278 275 276
f 280 277 278
f 282 279 280
f 284 281 282
f 286 283 284
f 288 285 286
f 290 287 288
f 292 289 290
f 294 291 292
f 296 293 294
f 298 295 296
f 300 297 298
f 302 299 300
f 304 301 302
f 306 303 304
f 308 305 306
f 310 307 308
f 312 309 310
f 314 311 312
f 316 313 314
f 318 315 316
f 319 317 318
f 351 210 208
f 349 214 212
f 349 216 214
f 350 212 210
f 218 343 220
f 343 222 220
f 342 226 224
f 341 228 226
f 342 224 222
f 348 218 216
f 340 232 230
f 339 234 232
f 338 238 236
f 325 240 238
f 338 236 234
f 324 244 242
f 323 246 244
f 322 250 248
f 321 252 250
f 246 322 248
f 324 242 240
f 340 230 228
f 349 212 350
f 342 222 343
f 349 348 216
f 340 228 341
f 324 240 325
f 339 338 234
f 320 256 254
f 331 258 256
f 330 262 260
f 329 262 330
f 331 260 258
f 321 250 322
f 256 320 331
f 320 252 321
f 244 324 323
f 328 268 266
f 327 272 270
f 326 274 272
f 327 270 268
f 337 278 276
f 336 280 278
f 335 284 282
f 334 286 284
f 280 335 282
f 274 337 276
f 333 290 288
f 332 292 290
f 356 296 294
f 355 298 296
f 332 294 292
f 354 302 300
f 302 353 304
f 352 308 306
f 308 347 310
f 353 306 304
f 355 300 298
f 334 288 286
f 266 329 328
f 327 268 328
f 336 278 337
f 327 326 272
f 334 284 335
f 355 296 356
f 333 332 290
f 300 355 354
f 312 346 314
f 346 316 314
f 318 316 345
f 319 318 344
f 352 306 353
f 318 345 344
f 346 312 347
f 312 310 347
f 359 361 358
f 359 360 361
f 362 364 365
f 362 357 364
f 359 363 360
f 368 369 374
f 373 374 369
f 366 368 375
f 374 375 368
f 370 367 371
f 373 369 372
f 370 372 369
f 371 372 370
f 379 376 381
f 378 379 382
f 381 382 379
f 383 378 382
f 378 384 380
f 377 380 385
f 384 385 380
f 383 384 378
f 388 389 390
f 390 391 388
f 392 388 391
f 387 394 386
f 387 392 393
f 394 387 393
f 388 392 387
f 398 404 395
f 402 403 396
f 398 396 403
f 404 398 403
f 397 401 396
f 402 396 401
f 399 400 397
f 401 397 400
f 406 410 405
f 411 407 408
f 413 410 414
f 415 412 416
f 421 418 422
f 423 420 424
f 422 426 425
f 427 423 428
f 473 472 405
f 474 473 405
f 475 405 410
f 474 405 475
f 471 405 472
f 468 467 406
f 469 468 406
f 406 471 470
f 405 471 406
f 469 406 470
f 406 467 407
f 476 475 409
f 478 477 409
f 478 409 479
f 481 480 413
f 413 480 479
f 413 482 481
f 432 501 410
f 410 406 432
f 409 475 410
f 410 501 414
f 414 417 413
f 414 501 500
f 413 479 409
f 483 482 413
f 409 477 476
f 432 406 433
f 464 407 465
f 466 465 407
f 408 407 463
f 464 463 407
f 459 411 408
f 462 408 463
f 466 407 467
f 461 460 408
f 408 462 461
f 460 459 408
f 459 458 412
f 458 457 412
f 411 434 407
f 433 407 434
f 502 434 411
f 415 503 502
f 415 419 504
f 411 415 502
f 455 412 456
f 412 457 456
f 416 412 455
f 453 416 454
f 455 454 416
f 416 453 452
f 451 416 452
f 415 504 503
f 411 459 412
f 407 433 406
f 484 483 417
f 484 417 485
f 487 486 417
f 417 486 485
f 488 487 421
f 499 422 418
f 418 414 500
f 431 422 499
f 421 422 491
f 426 422 431
f 421 487 417
f 489 488 421
f 418 500 499
f 491 490 421
f 491 422 425
f 492 425 493
f 425 492 491
f 494 493 425
f 426 495 425
f 494 425 495
f 496 495 426
f 497 426 498
f 498 426 435
f 496 426 497
f 430 426 431
f 490 489 421
f 435 426 427
f 419 505 504
f 423 505 419
f 415 420 419
f 423 427 429
f 430 429 427
f 505 423 429
f 450 420 451
f 420 416 451
f 449 420 450
f 446 424 447
f 420 448 447
f 448 420 449
f 447 424 420
f 424 443 423
f 428 439 427
f 438 427 439
f 440 439 428
f 423 443 428
f 438 437 427
f 436 427 437
f 427 426 430
f 424 445 444
f 445 424 446
f 443 442 428
f 444 443 424
f 428 442 441
f 428 441 440
f 427 436 435
f 417 483 413
f 510 511 509
f 517 515 514
f 511 513 515
f 509 517 516
f 517 509 511
f 511 515 517
f 507 509 516
f 511 512 513
f 508 519 512
f 513 512 519
f 512 518 508
f 506 510 507
f 510 509 507
f 510 506 518
f 522 523 521
f 531 524 522
f 526 524 520
f 523 526 525
f 528 523 525
f 524 526 523
f 531 533 524
f 532 522 530
f 530 529 532
f 530 521 528
f 528 527 530
f 521 530 522
f 531 522 532
f 538 540 539
f 537 542 538
f 538 542 543
f 536 540 538
f 536 538 543
f 534 543 541
f 543 542 541
f 535 540 536
f 547 556 544
f 547 546 554
f 545 550 546
f 546 550 554
f 554 556 547
f 552 555 554
f 552 551 555
f 549 553 554
f 552 554 553
f 549 548 553
f 550 549 554
f 564 560 562
f 557 562 559
f 560 559 562
f 564 566 560
f 565 562 563
f 565 563 558
f 563 562 561
f 564 562 565
f 575 574 569
f 573 568 571
f 576 571 570
f 568 573 569
f 573 572 575
f 567 573 576
f 573 571 576
f 575 569 573
f 579 580 582
f 581 582 580
f 580 577 581
f 579 585 578
f 579 583 584
f 585 579 584
f 582 583 579
f 589 586 587
f 591 588 589
f 593 590 591
f 595 592 593
f 597 594 595
f 599 596 597
f 601 598 599
f 603 600 601
f 605 602 603
f 607 604 605
f 609 606 607
f 611 608 609
f 613 610 611
f 615 612 613
f 617 614 615
f 619 616 617
f 621 618 619
f 623 620 621
f 625 622 623
f 627 624 625
f 629 626 627
f 631 628 629
f 633 630 631
f 635 632 633
f 637 634 635
f 639 636 637
f 641 638 639
f 643 640 641
f 645 642 643
f 647 644 645
f 649 646 647
f 651 648 649
f 653 650 651
f 655 652 653
f 657 654 655
f 659 656 657
f 661 658 659
f 663 660 661
f 665 662 663
f 667 664 665
f 669 666 667
f 671 668 669
f 673 670 671
f 675 672 673
f 677 674 675
f 679 676 677
f 681 678 679
f 683 680 681
f 685 682 683
f 687 684 685
f 689 686 687
f 691 688 689
f 693 690 691
f 695 692 693
f 697 694 695
f 698 696 697
f 729 589 587
f 727 593 591
f 727 595 593
f 728 591 589
f 597 722 599
f 722 601 599
f 603 720 605
f 720 607 605
f 721 603 601
f 726 597 595
f 719 611 609
f 718 613 611
f 717 617 615
f 704 619 617
f 717 615 613
f 703 623 621
f 702 625 623
f 701 629 627
f 700 631 629
f 625 701 627
f 703 621 619
f 719 609 607
f 727 591 728
f 721 601 722
f 727 726 595
f 719 607 720
f 703 619 704
f 718 717 613
f 623 703 702
f 633 699 635
f 637 635 710
f 710 639 637
f 641 639 709
f 700 629 701
f 633 700 699
f 708 641 709
f 710 635 699
f 645 708 707
f 706 649 647
f 706 651 649
f 707 647 645
f 653 716 655
f 716 657 655
f 659 714 661
f 714 663 661
f 715 659 657
f 705 653 651
f 713 667 665
f 712 669 667
f 711 673 671
f 735 675 673
f 711 671 669
f 734 679 677
f 733 681 679
f 732 685 683
f 731 687 685
f 681 732 683
f 734 677 675
f 713 665 663
f 706 647 707
f 705 651 706
f 715 657 716
f 711 669 712
f 734 675 735
f 733 679 734
f 714 713 663
f 730 691 689
f 725 693 691
f 724 697 695
f 723 698 697
f 725 695 693
f 731 685 732
f 730 687 731
f 697 724 723
f 725 691 730
f 738 740 737
f 738 739 740
f 742 743 744
f 742 736 743
f 738 741 739
f 747 748 753
f 752 753 748
f 745 747 754
f 753 754 747
f 749 746 750
f 752 748 751
f 749 751 748
f 750 751 749
f 758 755 760
f 757 758 761
f 760 761 758
f 762 757 761
f 757 763 759
f 756 759 764
f 763 764 759
f 762 763 757
f 768 769 770
f 767 768 771
f 770 771 768
f 772 767 771
f 766 774 765
f 767 773 766
f 774 766 773
f 772 773 767
f 778 784 775
f 782 783 776
f 778 776 783
f 784 778 783
f 777 781 776
f 782 776 781
f 779 780 777
f 781 777 780
f 786 790 785
f 791 787 788
f 794 789 790
f 796 791 792
f 801 798 802
f 804 799 800
f 802 806 805
f 807 803 808
f 852 785 853
f 853 785 854
f 785 790 855
f 854 785 855
f 789 856 855
f 849 848 786
f 850 849 786
f 786 785 851
f 852 851 785
f 850 786 851
f 847 786 848
f 857 856 789
f 858 789 859
f 859 793 860
f 862 861 793
f 793 861 860
f 863 862 793
f 812 881 790
f 786 812 790
f 789 855 790
f 790 881 794
f 794 797 793
f 794 881 880
f 793 859 789
f 797 863 793
f 858 857 789
f 813 812 786
f 845 787 846
f 847 846 787
f 843 787 844
f 845 844 787
f 788 787 843
f 847 787 786
f 840 788 841
f 842 841 788
f 838 792 839
f 839 791 788
f 840 839 788
f 788 843 842
f 791 839 792
f 814 787 791
f 838 837 792
f 791 795 882
f 882 795 883
f 814 791 882
f 836 835 792
f 792 837 836
f 833 796 834
f 835 834 796
f 796 833 832
f 831 796 832
f 792 835 796
f 799 883 795
f 814 813 787
f 787 813 786
f 797 865 864
f 866 865 797
f 794 880 798
f 801 867 797
f 866 797 867
f 868 867 801
f 811 802 879
f 798 879 802
f 806 811 810
f 801 802 871
f 802 811 806
f 869 868 801
f 798 880 879
f 871 870 801
f 871 802 805
f 872 805 873
f 805 872 871
f 874 873 805
f 806 875 805
f 874 805 875
f 876 875 806
f 877 806 878
f 878 806 815
f 876 806 877
f 807 806 810
f 870 869 801
f 815 806 807
f 799 796 800
f 884 883 799
f 796 831 800
f 803 809 884
f 807 809 803
f 799 803 884
f 830 829 800
f 800 831 830
f 828 827 800
f 800 829 828
f 826 804 827
f 827 804 800
f 804 823 803
f 808 819 807
f 818 807 819
f 820 819 808
f 803 823 808
f 818 817 807
f 816 807 817
f 816 815 807
f 804 825 824
f 825 804 826
f 808 823 822
f 824 823 804
f 808 822 821
f 821 820 808
f 807 810 809
f 797 864 863
f 898 892 896
f 894 891 890
f 897 889 891
f 892 894 893
f 894 892 897
f 897 891 894
f 886 892 893
f 897 898 889
f 887 895 898
f 889 898 895
f 888 887 898
f 885 896 886
f 896 892 886
f 896 885 888
f 888 898 896
f 909 910 907
f 911 912 908
f 905 911 909
f 901 911 908
f 910 901 900
f 902 910 900
f 911 901 910
f 905 912 911
f 906 909 904
f 904 903 906
f 899 907 902
f 907 899 904
f 907 904 909
f 905 909 906
f 916 918 917
f 915 920 916
f 916 920 922
f 914 918 916
f 918 914 913
f 916 922 921
f 920 919 922
f 916 921 914
f 924 932 931
f 926 924 923
f 924 926 932
f 932 926 929
f 928 927 930
f 925 928 926
f 930 926 928
f 929 926 930
f 935 942 941
f 934 936 935
f 935 936 939
f 939 942 935
f 938 940 939
f 940 938 937
f 938 936 933
f 939 936 938
f 950 949 945
f 952 944 947
f 952 947 946
f 944 950 945
f 948 943 950
f 951 948 952
f 948 944 952
f 950 944 948
f 956 957 959
f 957 953 958
f 959 957 958
f 956 959 960
f 955 962 954
f 956 961 955
f 962 955 961
f 960 961 956
f 966 963 964
f 968 965 966
f 970 967 968
f 972 969 970
f 974 971 972
f 976 973 974
f 978 975 976
f 980 977 978
f 982 979 980
f 984 981 982
f 986 983 984
f 988 985 986
f 990 987 988
f 992 989 990
f 994 991 992
f 996 993 994
f 998 995 996
f 1000 997 998
f 1002 999 1000
f 1004 1001 1002
f 1006 1003 1004
f 1008 1005 1006
f 1010 1007 1008
f 1012 1009 1010
f 1014 1011 1012
f 1016 1013 1014
f 1018 1015 1016
f 1020 1017 1018
f 1022 1019 1020
f 1024 1021 1022
f 1026 1023 1024
f 1028 1025 1026
f 1030 1027 1028
f 1032 1029 1030
f 1034 1031 1032
f 1036 1033 1034
f 1038 1035 1036
f 1040 1037 1038
f 1042 1039 1040
f 1044 1041 1042
f 1046 1043 1044
f 1048 1045 1046
f 1050 1047 1048
f 1052 1049 1050
f 1054 1051 1052
f 1056 1053 1054
f 1058 1055 1056
f 1060 1057 1058
f 1062 1059 1060
f 1064 1061 1062
f 1066 1063 1064
f 1068 1065 1066
f 1070 1067 1068
f 1072 1069 1070
f 1074 1071 1072
f 1075 1073 1074
f 1106 966 964
f 1104 970 968
f 1104 972 970
f 1105 968 966
f 974 1099 976
f 1099 978 976
f 980 1097 982
f 1097 984 982
f 1098 980 978
f 1100 974 972
f 1096 988 986
f 1095 990 988
f 1094 994 992
f 1081 996 994
f 1094 992 990
f 1080 1000 998
f 1079 1002 1000
f 1078 1006 1004
f 1077 1008 1006
f 1002 1078 1004
f 1080 998 996
f 1096 986 984
f 1104 968 1105
f 1098 978 1099
f 1104 1100 972
f 1096 984 1097
f 1080 996 1081
f 1095 1094 990
f 1000 1080 1079
f 1010 1076 1012
f 1014 1012 1087
f 1087 1016 1014
f 1018 1016 1086
f 1077 1006 1078
f 1010 1077 1076
f 1085 1018 1086
f 1087 1012 1076
f 1022 1085 1084
f 1083 1026 1024
f 1083 1028 1026
f 1084 1024 1022
f 1030 1093 1032
f 1093 1034 1032
f 1092 1038 1036
f 1091 1040 1038
f 1092 1036 1034
f 1082 1030 1028
f 1090 1044 1042
f 1089 1046 1044
f 1088 1050 1048
f 1112 1052 1050
f 1088 1048 1046
f 1111 1056 1054
f 1110 1058 1056
f 1109 1062 1060
f 1108 1064 1062
f 1058 1109 1060
f 1111 1054 1052
f 1090 1042 1040
f 1083 1024 1084
f 1082 1028 1083
f 1092 1034 1093
f 1088 1046 1089
f 1111 1052 1112
f 1110 1056 1111
f 1091 1090 1040
f 1107 1068 1066
f 1103 1070 1068
f 1102 1074 1072
f 1101 1075 1074
f 1103 1072 1070
f 1108 1062 1109
f 1107 1064 1108
f 1074 1102 1101
f 1103 1068 1107
f 1121 1115 1116
f 1115 1122 1114
f 1115 1121 1122
f 1121 1116 1120
f 1120 1116 1119
f 1117 1119 1116
f 1117 1118 1119
f 1117 1113 1118
f 1130 1125 1129
f 1128 1129 1125
f 1125 1130 1124
f 1125 1123 1126
f 1125 1127 1128
f 1125 1126 1127
f 1132 1133 1134
f 1136 1132 1135
f 1134 1135 1132
f 1132 1136 1137
f 1132 1138 1131
f 1132 1137 1138
f 1141 1142 1143
f 1147 1140 1141
f 1143 1144 1141
f 1144 1145 1141
f 1146 1149 1139
f 1146 1148 1149
f 1146 1147 1148
f 1152 1157 1150
f 1152 1155 1156
f 1156 1157 1152
f 1153 1154 1152
f 1155 1152 1154
f 1152 1151 1153
f 1159 1163 1158
f 1164 1160 1161
f 1166 1163 1167
f 1168 1165 1169
f 1174 1171 1175
f 1176 1173 1177
f 1175 1179 1178
f 1180 1176 1181
f 1226 1225 1158
f 1227 1226 1158
f 1228 1158 1163
f 1227 1158 1228
f 1224 1158 1225
f 1221 1220 1159
f 1222 1221 1159
f 1159 1224 1223
f 1158 1224 1159
f 1222 1159 1223
f 1159 1220 1160
f 1229 1228 1162
f 1231 1162 1232
f 1232 1166 1233
f 1235 1234 1166
f 1166 1234 1233
f 1236 1235 1166
f 1228 1163 1162
f 1162 1231 1230
f 1159 1185 1163
f 1167 1163 1254
f 1167 1170 1166
f 1254 1163 1185
f 1162 1166 1232
f 1162 1230 1229
f 1167 1254 1253
f 1185 1159 1186
f 1217 1160 1218
f 1219 1218 1160
f 1161 1160 1216
f 1217 1216 1160
f 1212 1164 1161
f 1215 1161 1216
f 1219 1160 1220
f 1214 1213 1161
f 1161 1215 1214
f 1213 1212 1161
f 1211 1165 1212
f 1165 1211 1210
f 1187 1160 1164
f 1187 1164 1255
f 1210 1209 1165
f 1164 1168 1255
f 1255 1168 1256
f 1187 1186 1160
f 1207 1169 1208
f 1165 1209 1208
f 1205 1169 1206
f 1207 1206 1169
f 1169 1205 1204
f 1173 1169 1204
f 1208 1169 1165
f 1172 1256 1168
f 1164 1212 1165
f 1160 1186 1159
f 1166 1170 1236
f 1170 1238 1237
f 1239 1238 1170
f 1174 1240 1170
f 1239 1170 1240
f 1241 1240 1174
f 1252 1171 1253
f 1253 1171 1167
f 1175 1171 1252
f 1184 1175 1252
f 1174 1175 1244
f 1179 1175 1184
f 1242 1241 1174
f 1237 1236 1170
f 1244 1243 1174
f 1244 1175 1178
f 1245 1178 1246
f 1178 1245 1244
f 1247 1246 1178
f 1179 1248 1178
f 1247 1178 1248
f 1249 1248 1179
f 1250 1179 1251
f 1251 1179 1188
f 1249 1179 1250
f 1183 1179 1184
f 1243 1242 1174
f 1188 1179 1180
f 1172 1257 1256
f 1176 1257 1172
f 1168 1173 1172
f 1176 1180 1182
f 1183 1182 1180
f 1257 1176 1182
f 1202 1173 1203
f 1173 1204 1203
f 1201 1173 1202
f 1201 1200 1173
f 1177 1173 1200
f 1199 1177 1200
f 1177 1196 1176
f 1181 1192 1180
f 1191 1180 1192
f 1193 1192 1181
f 1176 1196 1181
f 1191 1190 1180
f 1189 1180 1190
f 1180 1179 1183
f 1177 1198 1197
f 1198 1177 1199
f 1181 1196 1195
f 1197 1196 1177
f 1195 1194 1181
f 1181 1194 1193
f 1180 1189 1188
f 1262 1266 1259
f 1266 1265 1259
f 1262 1264 1266
f 1263 1259 1261
f 1263 1261 1260
f 1261 1259 1258
f 1262 1259 1263
f 1268 1275 1274
f 1268 1267 1270
f 1273 1275 1268
f 1272 1271 1273
f 1269 1272 1270
f 1273 1270 1272
f 1268 1270 1273
f 1281 1279 1283
f 1279 1276 1283
f 1281 1280 1279
f 1278 1277 1281
f 1278 1283 1282
f 1281 1283 1278
f 1292 1289 1290
f 1291 1293 1295
f 1285 1291 1295
f 1289 1285 1284
f 1284 1287 1289
f 1289 1287 1290
f 1291 1294 1293
f 1292 1297 1294
f 1292 1288 1297
f 1296 1292 1290
f 1290 1286 1296
f 1296 1288 1292
f 1287 1286 1290
f 1306 1307 1305
f 1308 1310 1304
f 1308 1303 1310
f 1309 1308 1304
f 1298 1307 1309
f 1308 1309 1307
f 1301 1307 1298
f 1299 1303 1306
f 1302 1299 1306
f 1300 1305 1301
f 1305 1307 1301
f 1305 1300 1302
f 1302 1306 1305
f 1317 1312 1318
f 1312 1313 1318
f 1317 1316 1312
f 1315 1314 1317
f 1315 1318 1311
f 1317 1318 1315
f 1321 1323 1324
f 1321 1319 1322
f 1322 1323 1321
f 1321 1326 1320
f 1324 1325 1321
f 1326 1321 1325
f 1330 1327 1328
f 1332 1329 1330
f 1334 1331 1332
f 1336 1333 1334
f 1338 1335 1336
f 1340 1337 1338
f 1342 1339 1340
f 1344 1341 1342
f 1346 1343 1344
f 1348 1345 1346
f 1350 1347 1348
f 1352 1349 1350
f 1354 1351 1352
f 1356 1353 1354
f 1358 1355 1356
f 1360 1357 1358
f 1362 1359 1360
f 1364 1361 1362
f 1366 1363 1364
f 1368 1365 1366
f 1370 1367 1368
f 1372 1369 1370
f 1374 1371 1372
f 1376 1373 1374
f 1378 1375 1376
f 1380 1377 1378
f 1382 1379 1380
f 1384 1381 1382
f 1386 1383 1384
f 1388 1385 1386
f 1390 1387 1388
f 1392 1389 1390
f 1394 1391 1392
f 1396 1393 1394
f 1398 1395 1396
f 1400 1397 1398
f 1402 1399 1400
f 1404 1401 1402
f 1406 1403 1404
f 1408 1405 1406
f 1410 1407 1408
f 1412 1409 1410
f 1414 1411 1412
f 1416 1413 1414
f 1418 1415 1416
f 1420 1417 1418
f 1422 1419 1420
f 1424 1421 1422
f 1426 1423 1424
f 1428 1425 1426
f 1430 1427 1428
f 1432 1429 1430
f 1434 1431 1432
f 1436 1433 1434
f 1438 1435 1436
f 1439 1437 1438
f 1471 1330 1328
f 1469 1334 1332
f 1469 1336 1334
f 1470 1332 1330
f 1338 1463 1340
f 1463 1342 1340
f 1462 1346 1344
f 1461 1348 1346
f 1462 1344 1342
f 1468 1338 1336
f 1460 1352 1350
f 1459 1354 1352
f 1458 1358 1356
f 1445 1360 1358
f 1458 1356 1354
f 1444 1364 1362
f 1443 1366 1364
f 1442 1370 1368
f 1441 1372 1370
f 1366 1442 1368
f 1444 1362 1360
f 1460 1350 1348
f 1469 1332 1470
f 1462 1342 1463
f 1469 1468 1336
f 1460 1348 1461
f 1444 1360 1445
f 1459 1458 1354
f 1440 1376 1374
f 1451 1378 1376
f 1450 1382 1380
f 1449 1382 1450
f 1451 1380 1378
f 1441 1370 1442
f 1376 1440 1451
f 1374 1441 1440
f 1364 1444 1443
f 1448 1388 1386
f 1447 1392 1390
f 1446 1394 1392
f 1447 1390 1388
f 1457 1398 1396
f 1456 1400 1398
f 1455 1404 1402
f 1454 1406 1404
f 1400 1455 1402
f 1394 1457 1396
f 1453 1410 1408
f 1452 1412 1410
f 1476 1416 1414
f 1475 1418 1416
f 1452 1414 1412
f 1474 1422 1420
f 1422 1473 1424
f 1472 1428 1426
f 1428 1467 1430
f 1473 1426 1424
f 1475 1420 1418
f 1454 1408 1406
f 1386 1449 1448
f 1447 1388 1448
f 1456 1398 1457
f 1447 1446 1392
f 1454 1404 1455
f 1475 1416 1476
f 1453 1452 1410
f 1420 1475 1474
f 1432 1466 1434
f 1466 1436 1434
f 1438 1436 1465
f 1439 1438 1464
f 1472 1426 1473
f 1438 1465 1464
f 1466 1432 1467
f 1432 1430 1467
f 49 45 46
f 51 47 48
f 58 57 53
f 59 55 56
f 54 53 49
f 55 51 52
f 153 152 150
f 163 165 164
f 165 163 160
f 156 164 165
f 157 162 164
f 163 162 159
f 351 350 210
f 218 348 343
f 342 341 226
f 340 339 232
f 338 325 238
f 246 323 322
f 329 264 262
f 331 330 260
f 320 254 252
f 280 336 335
f 274 326 337
f 332 356 294
f 302 354 353
f 308 352 347
f 334 333 288
f 266 264 329
f 346 345 316
f 413 409 410
f 415 411 412
f 421 417 418
f 423 419 420
f 414 418 417
f 415 416 420
f 510 512 511
f 512 510 518
f 522 524 523
f 528 521 523
f 729 728 589
f 597 726 722
f 603 721 720
f 719 718 611
f 717 704 617
f 625 702 701
f 710 709 639
f 633 631 700
f 708 643 641
f 645 643 708
f 653 705 716
f 659 715 714
f 713 712 667
f 711 735 673
f 681 733 732
f 725 724 695
f 730 689 687
f 794 793 789
f 796 795 791
f 801 797 798
f 804 803 799
f 794 798 797
f 799 795 796
f 898 897 892
f 909 911 910
f 902 907 910
f 1106 1105 966
f 974 1100 1099
f 980 1098 1097
f 1096 1095 988
f 1094 1081 994
f 1002 1079 1078
f 1087 1086 1016
f 1010 1008 1077
f 1085 1020 1018
f 1022 1020 1085
f 1030 1082 1093
f 1092 1091 1038
f 1090 1089 1044
f 1088 1112 1050
f 1058 1110 1109
f 1103 1102 1072
f 1107 1066 1064
f 1166 1162 1163
f 1168 1164 1165
f 1174 1170 1171
f 1176 1172 1173
f 1167 1171 1170
f 1168 1169 1173
f 1292 1291 1289
f 1285 1289 1291
f 1291 1292 1294
f 1306 1308 1307
f 1308 1306 1303
f 1471 1470 1330
f 1338 1468 1463
f 1462 1461 1346
f 1460 1459 1352
f 1458 1445 1358
f 1366 1443 1442
f 1449 1384 1382
f 1451 1450 1380
f 1374 1372 1441
f 1400 1456 1455
f 1394 1446 1457
f 1452 1476 1414
f 1422 1474 1473
f 1428 1472 1467
f 1454 1453 1408
f 1386 1384 1449
f 1466 1465 1436

