v 0.08638381 -0.05350375 0.04399996
v 0.08638381 -0.05350375 0.04399996
v 0.08658975 -0.05350393 0.04299998
v 0.08658027 -0.05300605 0.04299056
v 0.08658027 -0.05300605 0.04299056
v 0.08636689 -0.05238008 0.04395508
v 0.08636689 -0.05238008 0.04395508
v 0.08658027 -0.05300605 0.04299056
v 0.08656919 -0.05193847 0.04290586
v 0.08636689 -0.05238008 0.04395508
v 0.08656919 -0.05193847 0.04290586
v 0.08636277 -0.05125319 0.04381853
v 0.08636277 -0.05125319 0.04381853
v 0.08656919 -0.05193847 0.04290586
v 0.08656817 -0.05149316 0.04284411
v 0.08636277 -0.05125319 0.04381853
v 0.08656817 -0.05149316 0.04284411
v 0.08637136 -0.05014163 0.04359120
v 0.08656817 -0.05149316 0.04284411
v 0.08657032 -0.05088102 0.04273343
v 0.08637136 -0.05014163 0.04359120
v 0.08637136 -0.05014163 0.04359120
v 0.08657032 -0.05088102 0.04273343
v 0.08658343 -0.04984092 0.04247438
v 0.08637136 -0.05014163 0.04359120
v 0.08658343 -0.04984092 0.04247438
v 0.08639216 -0.04905205 0.04327464
v 0.08639216 -0.04905205 0.04327464
v 0.08658343 -0.04984092 0.04247438
v 0.08659291 -0.04939121 0.04233360
v 0.08639216 -0.04905205 0.04327464
v 0.08659291 -0.04939121 0.04233360
v 0.08642482 -0.04799163 0.04287081
v 0.08642482 -0.04799163 0.04287081
v 0.08659291 -0.04939121 0.04233360
v 0.08660817 -0.04882526 0.04213041
v 0.08642482 -0.04799163 0.04287081
v 0.08660817 -0.04882526 0.04213041
v 0.08646899 -0.04696738 0.04238241
v 0.08646899 -0.04696738 0.04238241
v 0.08660817 -0.04882526 0.04213041
v 0.08664423 -0.04784107 0.04170370
v 0.08646899 -0.04696738 0.04238241
v 0.08664423 -0.04784107 0.04170370
v 0.08647066 -0.04693377 0.04236465
v 0.08647066 -0.04693377 0.04236465
v 0.08664423 -0.04784107 0.04170370
v 0.08666437 -0.04740303 0.04148155
v 0.08647066 -0.04693377 0.04236465
v 0.08666437 -0.04740303 0.04148155
v 0.08652430 -0.04598593 0.04181265
v 0.08652430 -0.04598593 0.04181265
v 0.08666437 -0.04740303 0.04148155
v 0.08669126 -0.04689508 0.04119712
v 0.08652430 -0.04598593 0.04181265
v 0.08669126 -0.04689508 0.04119712
v 0.08659040 -0.04505389 0.04116529
v 0.08659040 -0.04505389 0.04116529
v 0.08669126 -0.04689508 0.04119712
v 0.08674901 -0.04599386 0.04061400
v 0.08659040 -0.04505389 0.04116529
v 0.08674901 -0.04599386 0.04061400
v 0.08659672 -0.04497450 0.04110479
v 0.08659672 -0.04497450 0.04110479
v 0.08674901 -0.04599386 0.04061400
v 0.08666700 -0.04417735 0.04044455
v 0.08674901 -0.04599386 0.04061400
v 0.08678013 -0.04558366 0.04031169
v 0.08666700 -0.04417735 0.04044455
v 0.08666700 -0.04417735 0.04044455
v 0.08678013 -0.04558366 0.04031169
v 0.08681756 -0.04514008 0.03995549
v 0.08666700 -0.04417735 0.04044455
v 0.08681756 -0.04514008 0.03995549
v 0.08674860 -0.04340726 0.03970241
v 0.08674860 -0.04340726 0.03970241
v 0.08681756 -0.04514008 0.03995549
v 0.08689230 -0.04438084 0.03926497
v 0.08674860 -0.04340726 0.03970241
v 0.08689230 -0.04438084 0.03926497
v 0.08676707 -0.04325127 0.03953748
v 0.08676707 -0.04325127 0.03953748
v 0.08689230 -0.04438084 0.03926497
v 0.08693766 -0.04398345 0.03885638
v 0.08676707 -0.04325127 0.03953748
v 0.08693766 -0.04398345 0.03885638
v 0.08684456 -0.04265755 0.03885674
v 0.08693766 -0.04398345 0.03885638
v 0.08697789 -0.04366254 0.03849852
v 0.08684456 -0.04265755 0.03885674
v 0.08684456 -0.04265755 0.03885674
v 0.08697789 -0.04366254 0.03849852
v 0.08707195 -0.04300719 0.03767472
v 0.08684456 -0.04265755 0.03885674
v 0.08707195 -0.04300719 0.03767472
v 0.08694308 -0.04201662 0.03800827
v 0.08694308 -0.04201662 0.03800827
v 0.08707195 -0.04300719 0.03767472
v 0.08713203 -0.04264670 0.03715586
v 0.08751749 -0.04111045 0.03393697
v 0.08745068 -0.04001796 0.03377288
v 0.08739984 -0.04145926 0.03490108
v 0.08739984 -0.04145926 0.03490108
v 0.08745068 -0.04001796 0.03377288
v 0.08731514 -0.04038029 0.03488612
v 0.08739984 -0.04145926 0.03490108
v 0.08731514 -0.04038029 0.03488612
v 0.08735686 -0.04161041 0.03525722
v 0.08735686 -0.04161041 0.03525722
v 0.08731514 -0.04038029 0.03488612
v 0.08722168 -0.04069578 0.03566151
v 0.08735686 -0.04161041 0.03525722
v 0.08722168 -0.04069578 0.03566151
v 0.08728784 -0.04188221 0.03583329
v 0.08728784 -0.04188221 0.03583329
v 0.08722168 -0.04069578 0.03566151
v 0.08718484 -0.04083603 0.03596854
v 0.08728784 -0.04188221 0.03583329
v 0.08718484 -0.04083603 0.03596854
v 0.08717370 -0.04241991 0.03679937
v 0.08717370 -0.04241991 0.03679937
v 0.08718484 -0.04083603 0.03596854
v 0.08706039 -0.04138290 0.03701257
v 0.08717370 -0.04241991 0.03679937
v 0.08706039 -0.04138290 0.03701257
v 0.08713203 -0.04264670 0.03715586
v 0.08713203 -0.04264670 0.03715586
v 0.08706039 -0.04138290 0.03701257
v 0.08697849 -0.04181170 0.03770613
v 0.08713203 -0.04264670 0.03715586
v 0.08697849 -0.04181170 0.03770613
v 0.08694308 -0.04201662 0.03800827
v 0.08751749 -0.04111045 0.03393697
v 0.08760684 -0.04090332 0.03321307
v 0.08745068 -0.04001796 0.03377288
v 0.08745068 -0.04001796 0.03377288
v 0.08760684 -0.04090332 0.03321307
v 0.08764046 -0.04083740 0.03294253
v 0.08745068 -0.04001796 0.03377288
v 0.08764046 -0.04083740 0.03294253
v 0.08748906 -0.03993433 0.03346014
v 0.08748906 -0.03993433 0.03346014
v 0.08764046 -0.04083740 0.03294253
v 0.08776807 -0.04064327 0.03192466
v 0.08748906 -0.03993433 0.03346014
v 0.08776807 -0.04064327 0.03192466
v 0.08759087 -0.03975045 0.03263628
v 0.08759087 -0.03975045 0.03263628
v 0.08776807 -0.04064327 0.03192466
v 0.08773517 -0.03957885 0.03148400
v 0.08773517 -0.03957885 0.03148400
v 0.08776807 -0.04064327 0.03192466
v 0.08787542 -0.04054492 0.03107994
v 0.08773517 -0.03957885 0.03148400
v 0.08787542 -0.04054492 0.03107994
v 0.08777582 -0.03954839 0.03116297
v 0.08777582 -0.03954839 0.03116297
v 0.08787542 -0.04054492 0.03107994
v 0.08789962 -0.04053056 0.03089070
v 0.08777582 -0.03954839 0.03116297
v 0.08789962 -0.04053056 0.03089070
v 0.08788323 -0.03950375 0.03032386
v 0.08788323 -0.03950375 0.03032386
v 0.08789962 -0.04053056 0.03089070
v 0.08804088 -0.04050147 0.02980178
v 0.08788323 -0.03950375 0.03032386
v 0.08804088 -0.04050147 0.02980178
v 0.08801567 -0.03951698 0.02930980
v 0.08801567 -0.03951698 0.02930980
v 0.08804088 -0.04050147 0.02980178
v 0.08817094 -0.04055339 0.02882283
v 0.08801567 -0.03951698 0.02930980
v 0.08817094 -0.04055339 0.02882283
v 0.08807855 -0.03954863 0.02883362
v 0.08807855 -0.03954863 0.02883362
v 0.08817094 -0.04055339 0.02882283
v 0.08814632 -0.03960072 0.02832335
v 0.08814632 -0.03960072 0.02832335
v 0.08817094 -0.04055339 0.02882283
v 0.08831262 -0.04069274 0.02776968
v 0.08814632 -0.03960072 0.02832335
v 0.08831262 -0.04069274 0.02776968
v 0.08828395 -0.03976315 0.02729809
v 0.08828395 -0.03976315 0.02729809
v 0.08831262 -0.04069274 0.02776968
v 0.08838766 -0.03993511 0.02653658
v 0.08838766 -0.03993511 0.02653658
v 0.08831262 -0.04069274 0.02776968
v 0.08843845 -0.04088777 0.02684837
v 0.08838766 -0.03993511 0.02653658
v 0.08843845 -0.04088777 0.02684837
v 0.08842372 -0.04000473 0.02627462
v 0.08842372 -0.04000473 0.02627462
v 0.08843845 -0.04088777 0.02684837
v 0.08856457 -0.04032444 0.02526652
v 0.08856457 -0.04032444 0.02526652
v 0.08843845 -0.04088777 0.02684837
v 0.08857762 -0.04118001 0.02585053
v 0.08856457 -0.04032444 0.02526652
v 0.08857762 -0.04118001 0.02585053
v 0.08870333 -0.04071360 0.02429831
v 0.08857762 -0.04118001 0.02585053
v 0.08871549 -0.04154717 0.02488821
v 0.08870333 -0.04071360 0.02429831
v 0.08870333 -0.04071360 0.02429831
v 0.08871549 -0.04154717 0.02488821
v 0.08873707 -0.04161167 0.02473992
v 0.08870333 -0.04071360 0.02429831
v 0.08873707 -0.04161167 0.02473992
v 0.08883768 -0.04116183 0.02338403
v 0.08883768 -0.04116183 0.02338403
v 0.08873707 -0.04161167 0.02473992
v 0.08885180 -0.04198688 0.02396273
v 0.08883768 -0.04116183 0.02338403
v 0.08885180 -0.04198688 0.02396273
v 0.08897429 -0.04169046 0.02248102
v 0.08897429 -0.04169046 0.02248102
v 0.08885180 -0.04198688 0.02396273
v 0.08898627 -0.04249739 0.02307581
v 0.08897429 -0.04169046 0.02248102
v 0.08898627 -0.04249739 0.02307581
v 0.08900362 -0.04181355 0.02229100
v 0.08900362 -0.04181355 0.02229100
v 0.08898627 -0.04249739 0.02307581
v 0.08902257 -0.04264837 0.02284157
v 0.08900362 -0.04181355 0.02229100
v 0.08902257 -0.04264837 0.02284157
v 0.08910721 -0.04227644 0.02163147
v 0.08910721 -0.04227644 0.02163147
v 0.08902257 -0.04264837 0.02284157
v 0.08911842 -0.04307472 0.02223378
v 0.08910721 -0.04227644 0.02163147
v 0.08911842 -0.04307472 0.02223378
v 0.08923542 -0.04291176 0.02084082
v 0.08923542 -0.04291176 0.02084082
v 0.08911842 -0.04307472 0.02223378
v 0.08926057 -0.04378306 0.02136385
v 0.08923542 -0.04291176 0.02084082
v 0.08926057 -0.04378306 0.02136385
v 0.08929896 -0.04325348 0.02046006
v 0.08929896 -0.04325348 0.02046006
v 0.08926057 -0.04378306 0.02136385
v 0.08929795 -0.04398548 0.02114140
v 0.08929896 -0.04325348 0.02046006
v 0.08929795 -0.04398548 0.02114140
v 0.08937603 -0.04369497 0.02000683
v 0.08937603 -0.04369497 0.02000683
v 0.08929795 -0.04398548 0.02114140
v 0.08939260 -0.04453104 0.02058941
v 0.08937603 -0.04369497 0.02000683
v 0.08939260 -0.04453104 0.02058941
v 0.08950263 -0.04448854 0.01928579
v 0.08950263 -0.04448854 0.01928579
v 0.08939260 -0.04453104 0.02058941
v 0.08952593 -0.04538506 0.01984381
v 0.08950263 -0.04448854 0.01928579
v 0.08952593 -0.04538506 0.01984381
v 0.08957409 -0.04497706 0.01889318
v 0.08957409 -0.04497706 0.01889318
v 0.08952593 -0.04538506 0.01984381
v 0.08955508 -0.04558604 0.01968640
v 0.08957409 -0.04497706 0.01889318
v 0.08955508 -0.04558604 0.01968640
v 0.08962643 -0.04535502 0.01861315
v 0.08962643 -0.04535502 0.01861315
v 0.08955508 -0.04558604 0.01968640
v 0.08974373 -0.04626965 0.01801156
v 0.08974373 -0.04626965 0.01801156
v 0.08955508 -0.04558604 0.01968640
v 0.08965313 -0.04630446 0.01917296
v 0.08974373 -0.04626965 0.01801156
v 0.08965313 -0.04630446 0.01917296
v 0.08982193 -0.04693663 0.01763379
v 0.08965313 -0.04630446 0.01917296
v 0.08977293 -0.04728043 0.01858431
v 0.08982193 -0.04693663 0.01763379
v 0.08982193 -0.04693663 0.01763379
v 0.08977293 -0.04728043 0.01858431
v 0.08978724 -0.04740566 0.01851695
v 0.08982193 -0.04693663 0.01763379
v 0.08978724 -0.04740566 0.01851695
v 0.08985412 -0.04722666 0.01748412
v 0.08985412 -0.04722666 0.01748412
v 0.08978724 -0.04740566 0.01851695
v 0.08987247 -0.04819321 0.01813244
v 0.08985412 -0.04722666 0.01748412
v 0.08987247 -0.04819321 0.01813244
v 0.08995682 -0.04821974 0.01703387
v 0.08995682 -0.04821974 0.01703387
v 0.08987247 -0.04819321 0.01813244
v 0.09003674 -0.04907786 0.01671671
v 0.08987247 -0.04819321 0.01813244
v 0.08996587 -0.04916143 0.01774531
v 0.09003674 -0.04907786 0.01671671
v 0.09003674 -0.04907786 0.01671671
v 0.08996587 -0.04916143 0.01774531
v 0.08998656 -0.04939401 0.01766544
v 0.09003674 -0.04907786 0.01671671
v 0.08998656 -0.04939401 0.01766544
v 0.09005111 -0.04924231 0.01666307
v 0.09005111 -0.04924231 0.01666307
v 0.08998656 -0.04939401 0.01766544
v 0.09005522 -0.05022543 0.01741915
v 0.09024858 -0.05350691 0.01699984
v 0.09032535 -0.05350703 0.01599979
v 0.09019827 -0.05241990 0.01704490
v 0.09019827 -0.05241990 0.01704490
v 0.09032535 -0.05350703 0.01599979
v 0.09027433 -0.05241811 0.01604181
v 0.09019827 -0.05241990 0.01704490
v 0.09027433 -0.05241811 0.01604181
v 0.09013307 -0.05131435 0.01718503
v 0.09013307 -0.05131435 0.01718503
v 0.09027433 -0.05241811 0.01604181
v 0.09021103 -0.05134856 0.01616626
v 0.09013307 -0.05131435 0.01718503
v 0.09021103 -0.05134856 0.01616626
v 0.09005522 -0.05022543 0.01741915
v 0.09005522 -0.05022543 0.01741915
v 0.09021103 -0.05134856 0.01616626
v 0.09013622 -0.05028760 0.01637351
v 0.09005522 -0.05022543 0.01741915
v 0.09013622 -0.05028760 0.01637351
v 0.09005111 -0.04924231 0.01666307
v 0.08661496 -0.05457901 0.04295510
v 0.08658975 -0.05350393 0.04299998
v 0.08638381 -0.05350375 0.04399996
v 0.08692479 -0.06130427 0.04039674
v 0.08685940 -0.06043982 0.04099261
v 0.08675462 -0.06240779 0.04080051
v 0.08967441 -0.06494259 0.02193355
v 0.08982515 -0.06422406 0.02100032
v 0.08951479 -0.06468987 0.02338284
v 0.08951479 -0.06468987 0.02338284
v 0.08982515 -0.06422406 0.02100032
v 0.08965599 -0.06412565 0.02251029
v 0.09032535 -0.05350703 0.01599979
v 0.09024858 -0.05350691 0.01699984
v 0.09036272 -0.05462235 0.01604503
v 0.09036272 -0.05462235 0.01604503
v 0.09024858 -0.05350691 0.01699984
v 0.09027314 -0.05420184 0.01701891
v 0.09036272 -0.05462235 0.01604503
v 0.09027314 -0.05420184 0.01701891
v 0.09038424 -0.05572110 0.01617729
v 0.09027314 -0.05420184 0.01701891
v 0.09029853 -0.05528604 0.01712322
v 0.09038424 -0.05572110 0.01617729
v 0.09038424 -0.05572110 0.01617729
v 0.09029853 -0.05528604 0.01712322
v 0.09030407 -0.05570930 0.01718908
v 0.09038424 -0.05572110 0.01617729
v 0.09030407 -0.05570930 0.01718908
v 0.09038978 -0.05680519 0.01639574
v 0.09030407 -0.05570930 0.01718908
v 0.09030759 -0.05635738 0.01731789
v 0.09038978 -0.05680519 0.01639574
v 0.09038978 -0.05680519 0.01639574
v 0.09030759 -0.05635738 0.01731789
v 0.09029972 -0.05740833 0.01760137
v 0.09038978 -0.05680519 0.01639574
v 0.09029972 -0.05740833 0.01760137
v 0.09037882 -0.05786782 0.01669877
v 0.09037882 -0.05786782 0.01669877
v 0.09029972 -0.05740833 0.01760137
v 0.09029012 -0.05789172 0.01776427
v 0.09037882 -0.05786782 0.01669877
v 0.09029012 -0.05789172 0.01776427
v 0.09035074 -0.05890434 0.01708513
v 0.09035074 -0.05890434 0.01708513
v 0.09029012 -0.05789172 0.01776427
v 0.09027445 -0.05843263 0.01797211
v 0.09035074 -0.05890434 0.01708513
v 0.09027445 -0.05843263 0.01797211
v 0.09030342 -0.05993872 0.01756846
v 0.09030342 -0.05993872 0.01756846
v 0.09027445 -0.05843263 0.01797211
v 0.09023237 -0.05940246 0.01841717
v 0.09030342 -0.05993872 0.01756846
v 0.09023237 -0.05940246 0.01841717
v 0.09029817 -0.06003087 0.01761662
v 0.09029817 -0.06003087 0.01761662
v 0.09023237 -0.05940246 0.01841717
v 0.09020054 -0.05994176 0.01870822
v 0.09029817 -0.06003087 0.01761662
v 0.09020054 -0.05994176 0.01870822
v 0.09023886 -0.06091749 0.01812642
v 0.09009808 -0.06121677 0.01953810
v 0.09005814 -0.06272560 0.01946961
v 0.09014332 -0.06198227 0.01886218
v 0.09020054 -0.05994176 0.01870822
v 0.09017342 -0.06033235 0.01894021
v 0.09023886 -0.06091749 0.01812642
v 0.09023886 -0.06091749 0.01812642
v 0.09017342 -0.06033235 0.01894021
v 0.09009808 -0.06121677 0.01953810
v 0.09023886 -0.06091749 0.01812642
v 0.09009808 -0.06121677 0.01953810
v 0.09015697 -0.06184846 0.01876151
v 0.09015697 -0.06184846 0.01876151
v 0.09009808 -0.06121677 0.01953810
v 0.09014332 -0.06198227 0.01886218
v 0.09009808 -0.06121677 0.01953810
v 0.09003669 -0.06179761 0.01999253
v 0.09005814 -0.06272560 0.01946961
v 0.09005814 -0.06272560 0.01946961
v 0.09003669 -0.06179761 0.01999253
v 0.09000462 -0.06206655 0.02022171
v 0.09005814 -0.06272560 0.01946961
v 0.09000462 -0.06206655 0.02022171
v 0.08994537 -0.06352686 0.02022951
v 0.08994537 -0.06352686 0.02022951
v 0.09000462 -0.06206655 0.02022171
v 0.08990269 -0.06280684 0.02092349
v 0.08994537 -0.06352686 0.02022951
v 0.08990269 -0.06280684 0.02092349
v 0.08991730 -0.06370174 0.02041232
v 0.08991730 -0.06370174 0.02041232
v 0.08990269 -0.06280684 0.02092349
v 0.08980298 -0.06340330 0.02157837
v 0.08991730 -0.06370174 0.02041232
v 0.08980298 -0.06340330 0.02157837
v 0.08982515 -0.06422406 0.02100032
v 0.08982515 -0.06422406 0.02100032
v 0.08980298 -0.06340330 0.02157837
v 0.08978587 -0.06349599 0.02168858
v 0.08982515 -0.06422406 0.02100032
v 0.08978587 -0.06349599 0.02168858
v 0.08965599 -0.06412565 0.02251029
v 0.08825635 -0.06749808 0.03023016
v 0.08844846 -0.06747120 0.02910292
v 0.08850139 -0.06648653 0.02940905
v 0.08850139 -0.06648653 0.02940905
v 0.08844846 -0.06747120 0.02910292
v 0.08851540 -0.06744050 0.02871102
v 0.08850139 -0.06648653 0.02940905
v 0.08851540 -0.06744050 0.02871102
v 0.08866989 -0.06640148 0.02840280
v 0.08866989 -0.06640148 0.02840280
v 0.08851540 -0.06744050 0.02871102
v 0.08862835 -0.06736385 0.02805233
v 0.08866989 -0.06640148 0.02840280
v 0.08862835 -0.06736385 0.02805233
v 0.08880078 -0.06628233 0.02763104
v 0.08880078 -0.06628233 0.02763104
v 0.08862835 -0.06736385 0.02805233
v 0.08882069 -0.06716138 0.02693963
v 0.08880078 -0.06628233 0.02763104
v 0.08882069 -0.06716138 0.02693963
v 0.08885145 -0.06622385 0.02733486
v 0.08885145 -0.06622385 0.02733486
v 0.08882069 -0.06716138 0.02693963
v 0.08890879 -0.06703752 0.02643144
v 0.08885145 -0.06622385 0.02733486
v 0.08890879 -0.06703752 0.02643144
v 0.08902519 -0.06596636 0.02631360
v 0.08902519 -0.06596636 0.02631360
v 0.08890879 -0.06703752 0.02643144
v 0.08899700 -0.06689310 0.02592265
v 0.08902519 -0.06596636 0.02631360
v 0.08899700 -0.06689310 0.02592265
v 0.08916980 -0.06568002 0.02545607
v 0.08916980 -0.06568002 0.02545607
v 0.08899700 -0.06689310 0.02592265
v 0.08916360 -0.06656169 0.02496093
v 0.08916980 -0.06568002 0.02545607
v 0.08916360 -0.06656169 0.02496093
v 0.08920091 -0.06560945 0.02527123
v 0.08920091 -0.06560945 0.02527123
v 0.08916360 -0.06656169 0.02496093
v 0.08928591 -0.06626445 0.02424937
v 0.08920091 -0.06560945 0.02527123
v 0.08928591 -0.06626445 0.02424937
v 0.08935838 -0.06519883 0.02433103
v 0.08935838 -0.06519883 0.02433103
v 0.08928591 -0.06626445 0.02424937
v 0.08933514 -0.06613057 0.02396106
v 0.08935838 -0.06519883 0.02433103
v 0.08933514 -0.06613057 0.02396106
v 0.08950901 -0.06471055 0.02341800
v 0.08950901 -0.06471055 0.02341800
v 0.08933514 -0.06613057 0.02396106
v 0.08951026 -0.06558012 0.02292388
v 0.08950901 -0.06471055 0.02341800
v 0.08951026 -0.06558012 0.02292388
v 0.08951479 -0.06468987 0.02338284
v 0.08951479 -0.06468987 0.02338284
v 0.08951026 -0.06558012 0.02292388
v 0.08962655 -0.06514227 0.02222460
v 0.08951479 -0.06468987 0.02338284
v 0.08962655 -0.06514227 0.02222460
v 0.08967441 -0.06494259 0.02193355
v 0.08850139 -0.06648653 0.02940905
v 0.08842349 -0.06649941 0.02987742
v 0.08825635 -0.06749808 0.03023016
v 0.08825635 -0.06749808 0.03023016
v 0.08842349 -0.06649941 0.02987742
v 0.08832776 -0.06649196 0.03045684
v 0.08825635 -0.06749808 0.03023016
v 0.08832776 -0.06649196 0.03045684
v 0.08812224 -0.06746232 0.03102582
v 0.08812224 -0.06746232 0.03102582
v 0.08832776 -0.06649196 0.03045684
v 0.08816158 -0.06641560 0.03147870
v 0.08812224 -0.06746232 0.03102582
v 0.08816158 -0.06641560 0.03147870
v 0.08807718 -0.06743973 0.03129732
v 0.08807718 -0.06743973 0.03129732
v 0.08816158 -0.06641560 0.03147870
v 0.08790123 -0.06729662 0.03237736
v 0.08816158 -0.06641560 0.03147870
v 0.08805787 -0.06632471 0.03212743
v 0.08790123 -0.06729662 0.03237736
v 0.08790123 -0.06729662 0.03237736
v 0.08805787 -0.06632471 0.03212743
v 0.08800041 -0.06625926 0.03249019
v 0.08790123 -0.06729662 0.03237736
v 0.08800041 -0.06625926 0.03249019
v 0.08775311 -0.06710237 0.03331273
v 0.08775311 -0.06710237 0.03331273
v 0.08800041 -0.06625926 0.03249019
v 0.08784538 -0.06602436 0.03348428
v 0.08775311 -0.06710237 0.03331273
v 0.08784538 -0.06602436 0.03348428
v 0.08773356 -0.06707125 0.03343808
v 0.08773356 -0.06707125 0.03343808
v 0.08784538 -0.06602436 0.03348428
v 0.08757483 -0.06676554 0.03447484
v 0.08730030 -0.06426274 0.03729122
v 0.08714699 -0.06532073 0.03750133
v 0.08742451 -0.06483453 0.03636616
v 0.08742451 -0.06483453 0.03636616
v 0.08714699 -0.06532073 0.03750133
v 0.08727860 -0.06588733 0.03652334
v 0.08742451 -0.06483453 0.03636616
v 0.08727860 -0.06588733 0.03652334
v 0.08756041 -0.06532698 0.03539639
v 0.08756041 -0.06532698 0.03539639
v 0.08727860 -0.06588733 0.03652334
v 0.08742606 -0.06638246 0.03548103
v 0.08756041 -0.06532698 0.03539639
v 0.08742606 -0.06638246 0.03548103
v 0.08769518 -0.06570583 0.03447401
v 0.08769518 -0.06570583 0.03447401
v 0.08742606 -0.06638246 0.03548103
v 0.08757483 -0.06676554 0.03447484
v 0.08769518 -0.06570583 0.03447401
v 0.08757483 -0.06676554 0.03447484
v 0.08771920 -0.06576353 0.03431344
v 0.08771920 -0.06576353 0.03431344
v 0.08757483 -0.06676554 0.03447484
v 0.08784538 -0.06602436 0.03348428
v 0.08718788 -0.06361562 0.03816533
v 0.08683210 -0.06320863 0.04008668
v 0.08691138 -0.06388062 0.03939372
v 0.08691138 -0.06388062 0.03939372
v 0.08692359 -0.06397342 0.03929013
v 0.08718788 -0.06361562 0.03816533
v 0.08718788 -0.06361562 0.03816533
v 0.08692359 -0.06397342 0.03929013
v 0.08702903 -0.06468284 0.03842276
v 0.08718788 -0.06361562 0.03816533
v 0.08702903 -0.06468284 0.03842276
v 0.08730030 -0.06426274 0.03729122
v 0.08730030 -0.06426274 0.03729122
v 0.08702903 -0.06468284 0.03842276
v 0.08713996 -0.06528669 0.03755468
v 0.08730030 -0.06426274 0.03729122
v 0.08713996 -0.06528669 0.03755468
v 0.08714699 -0.06532073 0.03750133
v 0.08692479 -0.06130427 0.04039674
v 0.08675462 -0.06240779 0.04080051
v 0.08698624 -0.06198471 0.03984934
v 0.08718788 -0.06361562 0.03816533
v 0.08717930 -0.06356030 0.03823345
v 0.08683210 -0.06320863 0.04008668
v 0.08683210 -0.06320863 0.04008668
v 0.08717930 -0.06356030 0.03823345
v 0.08708429 -0.06287240 0.03900873
v 0.08683210 -0.06320863 0.04008668
v 0.08708429 -0.06287240 0.03900873
v 0.08675462 -0.06240779 0.04080051
v 0.08675462 -0.06240779 0.04080051
v 0.08708429 -0.06287240 0.03900873
v 0.08699929 -0.06211578 0.03973484
v 0.08675462 -0.06240779 0.04080051
v 0.08699929 -0.06211578 0.03973484
v 0.08698624 -0.06198471 0.03984934
v 0.08661824 -0.06047707 0.04213750
v 0.08668112 -0.06147003 0.04150986
v 0.08685940 -0.06043982 0.04099261
v 0.08685940 -0.06043982 0.04099261
v 0.08668112 -0.06147003 0.04150986
v 0.08673614 -0.06219071 0.04097592
v 0.08685940 -0.06043982 0.04099261
v 0.08673614 -0.06219071 0.04097592
v 0.08675462 -0.06240779 0.04080051
v 0.08685940 -0.06043982 0.04099261
v 0.08684033 -0.06015336 0.04116833
v 0.08661824 -0.06047707 0.04213750
v 0.08661824 -0.06047707 0.04213750
v 0.08684033 -0.06015336 0.04116833
v 0.08680236 -0.05952715 0.04151839
v 0.08661824 -0.06047707 0.04213750
v 0.08680236 -0.05952715 0.04151839
v 0.08660632 -0.06026309 0.04225802
v 0.08660632 -0.06026309 0.04225802
v 0.08680236 -0.05952715 0.04151839
v 0.08675408 -0.05859589 0.04195958
v 0.08667540 -0.05663496 0.04261630
v 0.08648735 -0.05746036 0.04342812
v 0.08671218 -0.05763077 0.04232621
v 0.08671218 -0.05763077 0.04232621
v 0.08648735 -0.05746036 0.04342812
v 0.08651149 -0.05815058 0.04320496
v 0.08671218 -0.05763077 0.04232621
v 0.08651149 -0.05815058 0.04320496
v 0.08673262 -0.05812156 0.04215073
v 0.08673262 -0.05812156 0.04215073
v 0.08651149 -0.05815058 0.04320496
v 0.08652371 -0.05847322 0.04308688
v 0.08673262 -0.05812156 0.04215073
v 0.08652371 -0.05847322 0.04308688
v 0.08675408 -0.05859589 0.04195958
v 0.08675408 -0.05859589 0.04195958
v 0.08652371 -0.05847322 0.04308688
v 0.08656471 -0.05943810 0.04267823
v 0.08675408 -0.05859589 0.04195958
v 0.08656471 -0.05943810 0.04267823
v 0.08660632 -0.06026309 0.04225802
v 0.08638381 -0.05350375 0.04399996
v 0.08640170 -0.05432260 0.04397577
v 0.08661496 -0.05457901 0.04295510
v 0.08661496 -0.05457901 0.04295510
v 0.08640170 -0.05432260 0.04397577
v 0.08642715 -0.05538231 0.04387283
v 0.08661496 -0.05457901 0.04295510
v 0.08642715 -0.05538231 0.04387283
v 0.08664315 -0.05561518 0.04282671
v 0.08664315 -0.05561518 0.04282671
v 0.08642715 -0.05538231 0.04387283
v 0.08644098 -0.05591094 0.04379081
v 0.08664315 -0.05561518 0.04282671
v 0.08644098 -0.05591094 0.04379081
v 0.08665323 -0.05595040 0.04276692
v 0.08665323 -0.05595040 0.04276692
v 0.08644098 -0.05591094 0.04379081
v 0.08645552 -0.05643033 0.04368984
v 0.08665323 -0.05595040 0.04276692
v 0.08645552 -0.05643033 0.04368984
v 0.08667540 -0.05663496 0.04261630
v 0.08667540 -0.05663496 0.04261630
v 0.08645552 -0.05643033 0.04368984
v 0.08646237 -0.05666506 0.04363751
v 0.08667540 -0.05663496 0.04261630
v 0.08646237 -0.05666506 0.04363751
v 0.08648735 -0.05746036 0.04342812
v 0.08638381 -0.05350375 -0.04399996
v 0.08658975 -0.05350393 -0.04299998
v 0.08640843 -0.05461633 -0.04395538
v 0.08640843 -0.05461633 -0.04395538
v 0.08658975 -0.05350393 -0.04299998
v 0.08661538 -0.05459076 -0.04295438
v 0.08640843 -0.05461633 -0.04395538
v 0.08661538 -0.05459076 -0.04295438
v 0.08643478 -0.05567818 -0.04382950
v 0.08661538 -0.05459076 -0.04295438
v 0.08664482 -0.05566602 -0.04281830
v 0.08643478 -0.05567818 -0.04382950
v 0.08643478 -0.05567818 -0.04382950
v 0.08664482 -0.05566602 -0.04281830
v 0.08665341 -0.05595040 -0.04276692
v 0.08643478 -0.05567818 -0.04382950
v 0.08665341 -0.05595040 -0.04276692
v 0.08646410 -0.05672216 -0.04362416
v 0.08646410 -0.05672216 -0.04362416
v 0.08665341 -0.05595040 -0.04276692
v 0.08667886 -0.05673187 -0.04259175
v 0.08646410 -0.05672216 -0.04362416
v 0.08667886 -0.05673187 -0.04259175
v 0.08649682 -0.05774015 -0.04334241
v 0.08649682 -0.05774015 -0.04334241
v 0.08667886 -0.05673187 -0.04259175
v 0.08671796 -0.05777418 -0.04227739
v 0.08649682 -0.05774015 -0.04334241
v 0.08671796 -0.05777418 -0.04227739
v 0.08651149 -0.05815058 -0.04320496
v 0.08651149 -0.05815058 -0.04320496
v 0.08671796 -0.05777418 -0.04227739
v 0.08653372 -0.05872499 -0.04298841
v 0.08671796 -0.05777418 -0.04227739
v 0.08673262 -0.05812162 -0.04215097
v 0.08653372 -0.05872499 -0.04298841
v 0.08653372 -0.05872499 -0.04298841
v 0.08673262 -0.05812162 -0.04215097
v 0.08676332 -0.05878913 -0.04187601
v 0.08653372 -0.05872499 -0.04298841
v 0.08676332 -0.05878913 -0.04187601
v 0.08657687 -0.05969357 -0.04255545
v 0.08657687 -0.05969357 -0.04255545
v 0.08676332 -0.05878913 -0.04187601
v 0.08681631 -0.05976843 -0.04138910
v 0.08657687 -0.05969357 -0.04255545
v 0.08681631 -0.05976843 -0.04138910
v 0.08660632 -0.06026309 -0.04225802
v 0.08660632 -0.06026309 -0.04225802
v 0.08681631 -0.05976843 -0.04138910
v 0.08684027 -0.06015330 -0.04116815
v 0.08702969 -0.06240606 -0.03947061
v 0.08712077 -0.06315493 -0.03870588
v 0.08683770 -0.06326079 -0.04003626
v 0.08702969 -0.06240606 -0.03947061
v 0.08683770 -0.06326079 -0.04003626
v 0.08698612 -0.06198477 -0.03984934
v 0.08698612 -0.06198477 -0.03984934
v 0.08683770 -0.06326079 -0.04003626
v 0.08675932 -0.06246149 -0.04075592
v 0.08698612 -0.06198477 -0.03984934
v 0.08675932 -0.06246149 -0.04075592
v 0.08694857 -0.06158244 -0.04018145
v 0.08694857 -0.06158244 -0.04018145
v 0.08675932 -0.06246149 -0.04075592
v 0.08673614 -0.06219065 -0.04097592
v 0.08694857 -0.06158244 -0.04018145
v 0.08673614 -0.06219065 -0.04097592
v 0.08687734 -0.06069445 -0.04082673
v 0.08687734 -0.06069445 -0.04082673
v 0.08673614 -0.06219065 -0.04097592
v 0.08669084 -0.06160575 -0.04141473
v 0.08687734 -0.06069445 -0.04082673
v 0.08669084 -0.06160575 -0.04141473
v 0.08684027 -0.06015330 -0.04116815
v 0.08684027 -0.06015330 -0.04116815
v 0.08669084 -0.06160575 -0.04141473
v 0.08663123 -0.06069940 -0.04200696
v 0.08684027 -0.06015330 -0.04116815
v 0.08663123 -0.06069940 -0.04200696
v 0.08660632 -0.06026309 -0.04225802
v 0.08712077 -0.06315493 -0.03870588
v 0.08717906 -0.06356048 -0.03823351
v 0.08683770 -0.06326079 -0.04003626
v 0.08683770 -0.06326079 -0.04003626
v 0.08717906 -0.06356048 -0.03823351
v 0.08722347 -0.06383806 -0.03788173
v 0.08683770 -0.06326079 -0.04003626
v 0.08722347 -0.06383806 -0.03788173
v 0.08691138 -0.06388062 -0.03939372
v 0.08691138 -0.06388062 -0.03939372
v 0.08722347 -0.06383806 -0.03788173
v 0.08693605 -0.06406581 -0.03918492
v 0.08790946 -0.06730312 -0.03233939
v 0.08775490 -0.06710237 -0.03331279
v 0.08791178 -0.06613677 -0.03304940
v 0.08791178 -0.06613677 -0.03304940
v 0.08775490 -0.06710237 -0.03331279
v 0.08774447 -0.06708598 -0.03337937
v 0.08791178 -0.06613677 -0.03304940
v 0.08774447 -0.06708598 -0.03337937
v 0.08775258 -0.06584000 -0.03408944
v 0.08775258 -0.06584000 -0.03408944
v 0.08774447 -0.06708598 -0.03337937
v 0.08758717 -0.06679117 -0.03439819
v 0.08775258 -0.06584000 -0.03408944
v 0.08758717 -0.06679117 -0.03439819
v 0.08771902 -0.06576365 -0.03431349
v 0.08771902 -0.06576365 -0.03431349
v 0.08758717 -0.06679117 -0.03439819
v 0.08743804 -0.06641703 -0.03539907
v 0.08771902 -0.06576365 -0.03431349
v 0.08743804 -0.06641703 -0.03539907
v 0.08760493 -0.06546348 -0.03508788
v 0.08760493 -0.06546348 -0.03508788
v 0.08743804 -0.06641703 -0.03539907
v 0.08742207 -0.06637054 -0.03550899
v 0.08760493 -0.06546348 -0.03508788
v 0.08742207 -0.06637054 -0.03550899
v 0.08746552 -0.06499719 -0.03606790
v 0.08746552 -0.06499719 -0.03606790
v 0.08742207 -0.06637054 -0.03550899
v 0.08729726 -0.06595736 -0.03638857
v 0.08746552 -0.06499719 -0.03606790
v 0.08729726 -0.06595736 -0.03638857
v 0.08742380 -0.06483274 -0.03636938
v 0.08742380 -0.06483274 -0.03636938
v 0.08729726 -0.06595736 -0.03638857
v 0.08716458 -0.06540465 -0.03736740
v 0.08742380 -0.06483274 -0.03636938
v 0.08716458 -0.06540465 -0.03736740
v 0.08733987 -0.06446069 -0.03698945
v 0.08733987 -0.06446069 -0.03698945
v 0.08716458 -0.06540465 -0.03736740
v 0.08713996 -0.06528675 -0.03755462
v 0.08733987 -0.06446069 -0.03698945
v 0.08713996 -0.06528675 -0.03755462
v 0.08722347 -0.06383806 -0.03788173
v 0.08722347 -0.06383806 -0.03788173
v 0.08713996 -0.06528675 -0.03755462
v 0.08704453 -0.06477528 -0.03829866
v 0.08722347 -0.06383806 -0.03788173
v 0.08704453 -0.06477528 -0.03829866
v 0.08693605 -0.06406581 -0.03918492
v 0.08791178 -0.06613677 -0.03304940
v 0.08805680 -0.06632459 -0.03212755
v 0.08790946 -0.06730312 -0.03233939
v 0.08790946 -0.06730312 -0.03233939
v 0.08805680 -0.06632459 -0.03212755
v 0.08808034 -0.06634837 -0.03197991
v 0.08790946 -0.06730312 -0.03233939
v 0.08808034 -0.06634837 -0.03197991
v 0.08808082 -0.06744092 -0.03128474
v 0.08808082 -0.06744092 -0.03128474
v 0.08808034 -0.06634837 -0.03197991
v 0.08825314 -0.06646889 -0.03091055
v 0.08808082 -0.06744092 -0.03128474
v 0.08825314 -0.06646889 -0.03091055
v 0.08812355 -0.06746232 -0.03102588
v 0.08812355 -0.06746232 -0.03102588
v 0.08825314 -0.06646889 -0.03091055
v 0.08824652 -0.06749701 -0.03028839
v 0.08824652 -0.06749701 -0.03028839
v 0.08825314 -0.06646889 -0.03091055
v 0.08842349 -0.06649947 -0.02987748
v 0.08824652 -0.06749701 -0.03028839
v 0.08842349 -0.06649947 -0.02987748
v 0.08837306 -0.06749260 -0.02954471
v 0.08837306 -0.06749260 -0.02954471
v 0.08842349 -0.06649947 -0.02987748
v 0.08843171 -0.06649887 -0.02982795
v 0.08837306 -0.06749260 -0.02954471
v 0.08843171 -0.06649887 -0.02982795
v 0.08851534 -0.06744050 -0.02871102
v 0.08851534 -0.06744050 -0.02871102
v 0.08843171 -0.06649887 -0.02982795
v 0.08860886 -0.06644147 -0.02876943
v 0.08851534 -0.06744050 -0.02871102
v 0.08860886 -0.06644147 -0.02876943
v 0.08854597 -0.06742280 -0.02853214
v 0.08854597 -0.06742280 -0.02853214
v 0.08860886 -0.06644147 -0.02876943
v 0.08879226 -0.06629258 -0.02768284
v 0.08854597 -0.06742280 -0.02853214
v 0.08879226 -0.06629258 -0.02768284
v 0.08874148 -0.06725585 -0.02739673
v 0.08909147 -0.06671494 -0.02537781
v 0.08892810 -0.06700760 -0.02631974
v 0.08897209 -0.06605446 -0.02662247
v 0.08879226 -0.06629258 -0.02768284
v 0.08880108 -0.06628310 -0.02763086
v 0.08874148 -0.06725585 -0.02739673
v 0.08874148 -0.06725585 -0.02739673
v 0.08880108 -0.06628310 -0.02763086
v 0.08897209 -0.06605446 -0.02662247
v 0.08874148 -0.06725585 -0.02739673
v 0.08897209 -0.06605446 -0.02662247
v 0.08890879 -0.06703752 -0.02643138
v 0.08890879 -0.06703752 -0.02643138
v 0.08897209 -0.06605446 -0.02662247
v 0.08892810 -0.06700760 -0.02631974
v 0.08897209 -0.06605446 -0.02662247
v 0.08914792 -0.06572741 -0.02558493
v 0.08909147 -0.06671494 -0.02537781
v 0.08909147 -0.06671494 -0.02537781
v 0.08914792 -0.06572741 -0.02558493
v 0.08916968 -0.06568002 -0.02545607
v 0.08909147 -0.06671494 -0.02537781
v 0.08916968 -0.06568002 -0.02545607
v 0.08926534 -0.06631785 -0.02436947
v 0.08926534 -0.06631785 -0.02436947
v 0.08916968 -0.06568002 -0.02545607
v 0.08931887 -0.06531119 -0.02456873
v 0.09000223 -0.06208741 -0.02023935
v 0.08998566 -0.06325966 -0.01996260
v 0.08989489 -0.06285756 -0.02097558
v 0.08989489 -0.06285756 -0.02097558
v 0.08998566 -0.06325966 -0.01996260
v 0.08991736 -0.06370180 -0.02041238
v 0.08989489 -0.06285756 -0.02097558
v 0.08991736 -0.06370180 -0.02041238
v 0.08980327 -0.06340330 -0.02157855
v 0.08980327 -0.06340330 -0.02157855
v 0.08991736 -0.06370180 -0.02041238
v 0.08986359 -0.06401538 -0.02075737
v 0.08980327 -0.06340330 -0.02157855
v 0.08986359 -0.06401538 -0.02075737
v 0.08977150 -0.06357389 -0.02178364
v 0.08977150 -0.06357389 -0.02178364
v 0.08986359 -0.06401538 -0.02075737
v 0.08973062 -0.06469160 -0.02158886
v 0.08977150 -0.06357389 -0.02178364
v 0.08973062 -0.06469160 -0.02158886
v 0.08963072 -0.06423717 -0.02267259
v 0.08963072 -0.06423717 -0.02267259
v 0.08973062 -0.06469160 -0.02158886
v 0.08962655 -0.06514227 -0.02222454
v 0.08963072 -0.06423717 -0.02267259
v 0.08962655 -0.06514227 -0.02222454
v 0.08950954 -0.06471043 -0.02341830
v 0.08950954 -0.06471043 -0.02341830
v 0.08962655 -0.06514227 -0.02222454
v 0.08958530 -0.06530499 -0.02247393
v 0.08950954 -0.06471043 -0.02341830
v 0.08958530 -0.06530499 -0.02247393
v 0.08948040 -0.06481295 -0.02359592
v 0.08948040 -0.06481295 -0.02359592
v 0.08958530 -0.06530499 -0.02247393
v 0.08942896 -0.06585067 -0.02340751
v 0.08948040 -0.06481295 -0.02359592
v 0.08942896 -0.06585067 -0.02340751
v 0.08931887 -0.06531119 -0.02456873
v 0.08931887 -0.06531119 -0.02456873
v 0.08942896 -0.06585067 -0.02340751
v 0.08928591 -0.06626439 -0.02424937
v 0.08931887 -0.06531119 -0.02456873
v 0.08928591 -0.06626439 -0.02424937
v 0.08926534 -0.06631785 -0.02436947
v 0.09014332 -0.06198233 -0.01886224
v 0.09009486 -0.06125521 -0.01956444
v 0.09018164 -0.06159275 -0.01857602
v 0.09018164 -0.06159275 -0.01857602
v 0.09009486 -0.06125521 -0.01956444
v 0.09025764 -0.06066358 -0.01797157
v 0.09000223 -0.06208741 -0.02023935
v 0.09003698 -0.06179827 -0.01999175
v 0.08998566 -0.06325966 -0.01996260
v 0.08998566 -0.06325966 -0.01996260
v 0.09003698 -0.06179827 -0.01999175
v 0.09009486 -0.06125521 -0.01956444
v 0.08998566 -0.06325966 -0.01996260
v 0.09009486 -0.06125521 -0.01956444
v 0.09008914 -0.06247186 -0.01925265
v 0.09008914 -0.06247186 -0.01925265
v 0.09009486 -0.06125521 -0.01956444
v 0.09014332 -0.06198233 -0.01886224
v 0.09009486 -0.06125521 -0.01956444
v 0.09017115 -0.06037098 -0.01896190
v 0.09025764 -0.06066358 -0.01797157
v 0.09025764 -0.06066358 -0.01797157
v 0.09017115 -0.06037098 -0.01896190
v 0.09020096 -0.05994254 -0.01870691
v 0.09025764 -0.06066358 -0.01797157
v 0.09020096 -0.05994254 -0.01870691
v 0.09029823 -0.06003093 -0.01761662
v 0.09029823 -0.06003093 -0.01761662
v 0.09020096 -0.05994254 -0.01870691
v 0.09023064 -0.05944001 -0.01843547
v 0.09029823 -0.06003093 -0.01761662
v 0.09023064 -0.05944001 -0.01843547
v 0.09031671 -0.05969005 -0.01744282
v 0.09031671 -0.05969005 -0.01744282
v 0.09023064 -0.05944001 -0.01843547
v 0.09027361 -0.05846005 -0.01798343
v 0.09024858 -0.05350691 -0.01699984
v 0.09032535 -0.05350703 -0.01599979
v 0.09027612 -0.05427867 -0.01702272
v 0.09027612 -0.05427867 -0.01702272
v 0.09032535 -0.05350703 -0.01599979
v 0.09035372 -0.05430757 -0.01602327
v 0.09027612 -0.05427867 -0.01702272
v 0.09035372 -0.05430757 -0.01602327
v 0.09030020 -0.05534517 -0.01712983
v 0.09030020 -0.05534517 -0.01712983
v 0.09035372 -0.05430757 -0.01602327
v 0.09038007 -0.05543327 -0.01613414
v 0.09030020 -0.05534517 -0.01712983
v 0.09038007 -0.05543327 -0.01613414
v 0.09030479 -0.05570966 -0.01718717
v 0.09030479 -0.05570966 -0.01718717
v 0.09038007 -0.05543327 -0.01613414
v 0.09038329 -0.05565053 -0.01616615
v 0.09030479 -0.05570966 -0.01718717
v 0.09038329 -0.05565053 -0.01616615
v 0.09030824 -0.05639529 -0.01732456
v 0.09030824 -0.05639529 -0.01732456
v 0.09038329 -0.05565053 -0.01616615
v 0.09038990 -0.05654597 -0.01633536
v 0.09030824 -0.05639529 -0.01732456
v 0.09038990 -0.05654597 -0.01633536
v 0.09029972 -0.05743050 -0.01760745
v 0.09029972 -0.05743050 -0.01760745
v 0.09038990 -0.05654597 -0.01633536
v 0.09038257 -0.05763828 -0.01662558
v 0.09029972 -0.05743050 -0.01760745
v 0.09038257 -0.05763828 -0.01662558
v 0.09029030 -0.05789184 -0.01776391
v 0.09029030 -0.05789184 -0.01776391
v 0.09038257 -0.05763828 -0.01662558
v 0.09037816 -0.05790090 -0.01670968
v 0.09029030 -0.05789184 -0.01776391
v 0.09037816 -0.05790090 -0.01670968
v 0.09027361 -0.05846005 -0.01798343
v 0.09027361 -0.05846005 -0.01798343
v 0.09037816 -0.05790090 -0.01670968
v 0.09035831 -0.05868119 -0.01699399
v 0.09027361 -0.05846005 -0.01798343
v 0.09035831 -0.05868119 -0.01699399
v 0.09031671 -0.05969005 -0.01744282
v 0.08659529 -0.04497295 -0.04110652
v 0.08665800 -0.04426527 -0.04052382
v 0.08676511 -0.04576265 -0.04044872
v 0.08676511 -0.04576265 -0.04044872
v 0.08665800 -0.04426527 -0.04052382
v 0.08677929 -0.04558277 -0.04031282
v 0.09032535 -0.05350703 -0.01599979
v 0.09024858 -0.05350691 -0.01699984
v 0.09031909 -0.05336862 -0.01600033
v 0.09031909 -0.05336862 -0.01600033
v 0.09024858 -0.05350691 -0.01699984
v 0.09019827 -0.05242758 -0.01704400
v 0.09013569 -0.05135655 -0.01717782
v 0.09021240 -0.05134105 -0.01616454
v 0.09019827 -0.05242758 -0.01704400
v 0.09019827 -0.05242758 -0.01704400
v 0.09021240 -0.05134105 -0.01616454
v 0.09026825 -0.05229824 -0.01605010
v 0.09019827 -0.05242758 -0.01704400
v 0.09026825 -0.05229824 -0.01605010
v 0.09031909 -0.05336862 -0.01600033
v 0.08997309 -0.04924136 -0.01771724
v 0.09004092 -0.04907727 -0.01671558
v 0.09005969 -0.05028283 -0.01740419
v 0.09005969 -0.05028283 -0.01740419
v 0.09004092 -0.04907727 -0.01671558
v 0.09012532 -0.05010008 -0.01641613
v 0.09005969 -0.05028283 -0.01740419
v 0.09012532 -0.05010008 -0.01641613
v 0.09013569 -0.05135655 -0.01717782
v 0.09013569 -0.05135655 -0.01717782
v 0.09012532 -0.05010008 -0.01641613
v 0.09020280 -0.05119115 -0.01618862
v 0.09013569 -0.05135655 -0.01717782
v 0.09020280 -0.05119115 -0.01618862
v 0.09021240 -0.05134105 -0.01616454
v 0.08978754 -0.04740554 -0.01851671
v 0.08982455 -0.04692733 -0.01763832
v 0.08987683 -0.04823553 -0.01811414
v 0.08987683 -0.04823553 -0.01811414
v 0.08982455 -0.04692733 -0.01763832
v 0.08993411 -0.04794836 -0.01714825
v 0.08987683 -0.04823553 -0.01811414
v 0.08993411 -0.04794836 -0.01714825
v 0.08997309 -0.04924136 -0.01771724
v 0.08997309 -0.04924136 -0.01771724
v 0.08993411 -0.04794836 -0.01714825
v 0.09003591 -0.04902082 -0.01673465
v 0.08997309 -0.04924136 -0.01771724
v 0.09003591 -0.04902082 -0.01673465
v 0.09004092 -0.04907727 -0.01671558
v 0.08978754 -0.04740554 -0.01851671
v 0.08977133 -0.04726409 -0.01859265
v 0.08982455 -0.04692733 -0.01763832
v 0.08982455 -0.04692733 -0.01763832
v 0.08977133 -0.04726409 -0.01859265
v 0.08965784 -0.04633677 -0.01914983
v 0.08982455 -0.04692733 -0.01763832
v 0.08965784 -0.04633677 -0.01914983
v 0.08970808 -0.04595917 -0.01820236
v 0.08970808 -0.04595917 -0.01820236
v 0.08965784 -0.04633677 -0.01914983
v 0.08958470 -0.04504090 -0.01884233
v 0.08955538 -0.04558539 -0.01968556
v 0.08945411 -0.04417115 -0.01956015
v 0.08965784 -0.04633677 -0.01914983
v 0.08965784 -0.04633677 -0.01914983
v 0.08945411 -0.04417115 -0.01956015
v 0.08957540 -0.04497593 -0.01889193
v 0.08965784 -0.04633677 -0.01914983
v 0.08957540 -0.04497593 -0.01889193
v 0.08958470 -0.04504090 -0.01884233
v 0.08955538 -0.04558539 -0.01968556
v 0.08953779 -0.04546374 -0.01978027
v 0.08945411 -0.04417115 -0.01956015
v 0.08945411 -0.04417115 -0.01956015
v 0.08953779 -0.04546374 -0.01978027
v 0.08941090 -0.04464185 -0.02048552
v 0.08945411 -0.04417115 -0.01956015
v 0.08941090 -0.04464185 -0.02048552
v 0.08931761 -0.04335755 -0.02034950
v 0.08931761 -0.04335755 -0.02034950
v 0.08941090 -0.04464185 -0.02048552
v 0.08929806 -0.04398572 -0.02114158
v 0.08931761 -0.04335755 -0.02034950
v 0.08929806 -0.04398572 -0.02114158
v 0.08929896 -0.04325342 -0.02046000
v 0.08929896 -0.04325342 -0.02046000
v 0.08929806 -0.04398572 -0.02114158
v 0.08927673 -0.04386901 -0.02126824
v 0.08929896 -0.04325342 -0.02046000
v 0.08927673 -0.04386901 -0.02126824
v 0.08917707 -0.04261112 -0.02119797
v 0.08917707 -0.04261112 -0.02119797
v 0.08927673 -0.04386901 -0.02126824
v 0.08913892 -0.04316794 -0.02210766
v 0.08917707 -0.04261112 -0.02119797
v 0.08913892 -0.04316794 -0.02210766
v 0.08903437 -0.04194176 -0.02209514
v 0.08903437 -0.04194176 -0.02209514
v 0.08913892 -0.04316794 -0.02210766
v 0.08902305 -0.04264670 -0.02284049
v 0.08903437 -0.04194176 -0.02209514
v 0.08902305 -0.04264670 -0.02284049
v 0.08900409 -0.04181104 -0.02228951
v 0.08900409 -0.04181104 -0.02228951
v 0.08902305 -0.04264670 -0.02284049
v 0.08888888 -0.04134744 -0.02304387
v 0.08902305 -0.04264670 -0.02284049
v 0.08899956 -0.04254865 -0.02299147
v 0.08888888 -0.04134744 -0.02304387
v 0.08888888 -0.04134744 -0.02304387
v 0.08899956 -0.04254865 -0.02299147
v 0.08885776 -0.04200649 -0.02392357
v 0.08888888 -0.04134744 -0.02304387
v 0.08885776 -0.04200649 -0.02392357
v 0.08873927 -0.04082524 -0.02405196
v 0.08873927 -0.04082524 -0.02405196
v 0.08885776 -0.04200649 -0.02392357
v 0.08873713 -0.04161179 -0.02474004
v 0.08873927 -0.04082524 -0.02405196
v 0.08873713 -0.04161179 -0.02474004
v 0.08869802 -0.04069662 -0.02433520
v 0.08869802 -0.04069662 -0.02433520
v 0.08873713 -0.04161179 -0.02474004
v 0.08871275 -0.04153925 -0.02490735
v 0.08869802 -0.04069662 -0.02433520
v 0.08871275 -0.04153925 -0.02490735
v 0.08858573 -0.04037880 -0.02511733
v 0.08858573 -0.04037880 -0.02511733
v 0.08871275 -0.04153925 -0.02490735
v 0.08856689 -0.04115533 -0.02592408
v 0.08858573 -0.04037880 -0.02511733
v 0.08856689 -0.04115533 -0.02592408
v 0.08843475 -0.04002624 -0.02619093
v 0.08856689 -0.04115533 -0.02592408
v 0.08844649 -0.04090392 -0.02678376
v 0.08843475 -0.04002624 -0.02619093
v 0.08843475 -0.04002624 -0.02619093
v 0.08844649 -0.04090392 -0.02678376
v 0.08842116 -0.04085856 -0.02696722
v 0.08843475 -0.04002624 -0.02619093
v 0.08842116 -0.04085856 -0.02696722
v 0.08838701 -0.03993284 -0.02653592
v 0.08838701 -0.03993284 -0.02653592
v 0.08842116 -0.04085856 -0.02696722
v 0.08828544 -0.03976386 -0.02727800
v 0.08828544 -0.03976386 -0.02727800
v 0.08842116 -0.04085856 -0.02696722
v 0.08813714 -0.03959083 -0.02838218
v 0.08813714 -0.03959083 -0.02838218
v 0.08842116 -0.04085856 -0.02696722
v 0.08827644 -0.04065054 -0.02802675
v 0.08813714 -0.03959083 -0.02838218
v 0.08827644 -0.04065054 -0.02802675
v 0.08807748 -0.03954637 -0.02883332
v 0.08827644 -0.04065054 -0.02802675
v 0.08815729 -0.04054510 -0.02891683
v 0.08807748 -0.03954637 -0.02883332
v 0.08807748 -0.03954637 -0.02883332
v 0.08815729 -0.04054510 -0.02891683
v 0.08813327 -0.04053121 -0.02909815
v 0.08807748 -0.03954637 -0.02883332
v 0.08813327 -0.04053121 -0.02909815
v 0.08798730 -0.03950709 -0.02952110
v 0.08798730 -0.03950709 -0.02952110
v 0.08813327 -0.04053121 -0.02909815
v 0.08799064 -0.04050129 -0.03018575
v 0.08798730 -0.03950709 -0.02952110
v 0.08799064 -0.04050129 -0.03018575
v 0.08783757 -0.03951656 -0.03067934
v 0.08783757 -0.03951656 -0.03067934
v 0.08799064 -0.04050129 -0.03018575
v 0.08787530 -0.04054468 -0.03108000
v 0.08783757 -0.03951656 -0.03067934
v 0.08787530 -0.04054468 -0.03108000
v 0.08777570 -0.03954797 -0.03116297
v 0.08777570 -0.03954797 -0.03116297
v 0.08787530 -0.04054468 -0.03108000
v 0.08785074 -0.04056209 -0.03127169
v 0.08777570 -0.03954797 -0.03116297
v 0.08785074 -0.04056209 -0.03127169
v 0.08769428 -0.03961527 -0.03180396
v 0.08769428 -0.03961527 -0.03180396
v 0.08785074 -0.04056209 -0.03127169
v 0.08771479 -0.04071336 -0.03234565
v 0.08769428 -0.03961527 -0.03180396
v 0.08771479 -0.04071336 -0.03234565
v 0.08755636 -0.03980165 -0.03290319
v 0.08755636 -0.03980165 -0.03290319
v 0.08771479 -0.04071336 -0.03234565
v 0.08748728 -0.03993183 -0.03346049
v 0.08771479 -0.04071336 -0.03234565
v 0.08760654 -0.04090338 -0.03321301
v 0.08748728 -0.03993183 -0.03346049
v 0.08748728 -0.03993183 -0.03346049
v 0.08760654 -0.04090338 -0.03321301
v 0.08758121 -0.04095715 -0.03341722
v 0.08748728 -0.03993183 -0.03346049
v 0.08758121 -0.04095715 -0.03341722
v 0.08742320 -0.04007613 -0.03398090
v 0.08742320 -0.04007613 -0.03398090
v 0.08758121 -0.04095715 -0.03341722
v 0.08745390 -0.04128706 -0.03445488
v 0.08742320 -0.04007613 -0.03398090
v 0.08745390 -0.04128706 -0.03445488
v 0.08729457 -0.04043966 -0.03503835
v 0.08729457 -0.04043966 -0.03503835
v 0.08745390 -0.04128706 -0.03445488
v 0.08721977 -0.04069900 -0.03565979
v 0.08721977 -0.04069900 -0.03565979
v 0.08745390 -0.04128706 -0.03445488
v 0.08735674 -0.04161059 -0.03525716
v 0.08721977 -0.04069900 -0.03565979
v 0.08735674 -0.04161059 -0.03525716
v 0.08716881 -0.04089623 -0.03608518
v 0.08716881 -0.04089623 -0.03608518
v 0.08735674 -0.04161059 -0.03525716
v 0.08733278 -0.04170078 -0.03545665
v 0.08716881 -0.04089623 -0.03608518
v 0.08733278 -0.04170078 -0.03545665
v 0.08705008 -0.04142880 -0.03708547
v 0.08705008 -0.04142880 -0.03708547
v 0.08733278 -0.04170078 -0.03545665
v 0.08721816 -0.04219555 -0.03641974
v 0.08705008 -0.04142880 -0.03708547
v 0.08721816 -0.04219555 -0.03641974
v 0.08697730 -0.04181307 -0.03770512
v 0.08697730 -0.04181307 -0.03770512
v 0.08721816 -0.04219555 -0.03641974
v 0.08713179 -0.04264652 -0.03715598
v 0.08697730 -0.04181307 -0.03770512
v 0.08713179 -0.04264652 -0.03715598
v 0.08693957 -0.04203265 -0.03802931
v 0.08693957 -0.04203265 -0.03802931
v 0.08713179 -0.04264652 -0.03715598
v 0.08711051 -0.04276967 -0.03733944
v 0.08693957 -0.04203265 -0.03802931
v 0.08711051 -0.04276967 -0.03733944
v 0.08683705 -0.04271006 -0.03892040
v 0.08683705 -0.04271006 -0.03892040
v 0.08711051 -0.04276967 -0.03733944
v 0.08701205 -0.04340904 -0.03819632
v 0.08683705 -0.04271006 -0.03892040
v 0.08701205 -0.04340904 -0.03819632
v 0.08676725 -0.04325133 -0.03953737
v 0.08676725 -0.04325133 -0.03953737
v 0.08701205 -0.04340904 -0.03819632
v 0.08693766 -0.04398351 -0.03885632
v 0.08676725 -0.04325133 -0.03953737
v 0.08693766 -0.04398351 -0.03885632
v 0.08674383 -0.04344975 -0.03974634
v 0.08674383 -0.04344975 -0.03974634
v 0.08693766 -0.04398351 -0.03885632
v 0.08692079 -0.04412674 -0.03900772
v 0.08674383 -0.04344975 -0.03974634
v 0.08692079 -0.04412674 -0.03900772
v 0.08665800 -0.04426527 -0.04052382
v 0.08665800 -0.04426527 -0.04052382
v 0.08692079 -0.04412674 -0.03900772
v 0.08683764 -0.04491841 -0.03976565
v 0.08665800 -0.04426527 -0.04052382
v 0.08683764 -0.04491841 -0.03976565
v 0.08677929 -0.04558277 -0.04031282
v 0.08659529 -0.04497295 -0.04110652
v 0.08676511 -0.04576265 -0.04044872
v 0.08658248 -0.04513329 -0.04122799
v 0.08658248 -0.04513329 -0.04122799
v 0.08676511 -0.04576265 -0.04044872
v 0.08670383 -0.04665225 -0.04105222
v 0.08658248 -0.04513329 -0.04122799
v 0.08670383 -0.04665225 -0.04105222
v 0.08651751 -0.04605388 -0.04185855
v 0.08651751 -0.04605388 -0.04185855
v 0.08670383 -0.04665225 -0.04105222
v 0.08646786 -0.04693305 -0.04236567
v 0.08646786 -0.04693305 -0.04236567
v 0.08670383 -0.04665225 -0.04105222
v 0.08666247 -0.04740267 -0.04148221
v 0.08646786 -0.04693305 -0.04236567
v 0.08666247 -0.04740267 -0.04148221
v 0.08646309 -0.04703038 -0.04241669
v 0.08646309 -0.04703038 -0.04241669
v 0.08666247 -0.04740267 -0.04148221
v 0.08665347 -0.04759025 -0.04157954
v 0.08646309 -0.04703038 -0.04241669
v 0.08665347 -0.04759025 -0.04157954
v 0.08642029 -0.04803752 -0.04289036
v 0.08642029 -0.04803752 -0.04289036
v 0.08665347 -0.04759025 -0.04157954
v 0.08661395 -0.04858016 -0.04203289
v 0.08642029 -0.04803752 -0.04289036
v 0.08661395 -0.04858016 -0.04203289
v 0.08638834 -0.04909199 -0.04328894
v 0.08638834 -0.04909199 -0.04328894
v 0.08661395 -0.04858016 -0.04203289
v 0.08659088 -0.04939121 -0.04233366
v 0.08638834 -0.04909199 -0.04328894
v 0.08659088 -0.04939121 -0.04233366
v 0.08636850 -0.05016487 -0.04359918
v 0.08659088 -0.04939121 -0.04233366
v 0.08658581 -0.04961818 -0.04240703
v 0.08636850 -0.05016487 -0.04359918
v 0.08636850 -0.05016487 -0.04359918
v 0.08658581 -0.04961818 -0.04240703
v 0.08657062 -0.05066084 -0.04268616
v 0.08636850 -0.05016487 -0.04359918
v 0.08657062 -0.05066084 -0.04268616
v 0.08636105 -0.05125755 -0.04382145
v 0.08658975 -0.05350393 -0.04299998
v 0.08638381 -0.05350375 -0.04399996
v 0.08657675 -0.05279195 -0.04298073
v 0.08657675 -0.05279195 -0.04298073
v 0.08638381 -0.05350375 -0.04399996
v 0.08636611 -0.05237185 -0.04395544
v 0.08657675 -0.05279195 -0.04298073
v 0.08636611 -0.05237185 -0.04395544
v 0.08656758 -0.05171889 -0.04287749
v 0.08656758 -0.05171889 -0.04287749
v 0.08636611 -0.05237185 -0.04395544
v 0.08636105 -0.05125755 -0.04382145
v 0.08656758 -0.05171889 -0.04287749
v 0.08636105 -0.05125755 -0.04382145
v 0.08656716 -0.05149316 -0.04284417
v 0.08656716 -0.05149316 -0.04284417
v 0.08636105 -0.05125755 -0.04382145
v 0.08657062 -0.05066084 -0.04268616
f 1 3 4
f 2 5 6
f 7 8 9
f 10 11 12
f 13 14 15
f 16 17 18
f 19 20 21
f 22 23 24
f 25 26 27
f 28 29 30
f 31 32 33
f 34 35 36
f 37 38 39
f 40 41 42
f 43 44 45
f 46 47 48
f 49 50 51
f 52 53 54
f 55 56 57
f 58 59 60
f 61 62 63
f 64 65 66
f 67 68 69
f 70 71 72
f 73 74 75
f 76 77 78
f 79 80 81
f 82 83 84
f 85 86 87
f 88 89 90
f 91 92 93
f 94 95 96
f 97 98 99
f 100 101 102
f 103 104 105
f 106 107 108
f 109 110 111
f 112 113 114
f 115 116 117
f 118 119 120
f 121 122 123
f 124 125 126
f 127 128 129
f 130 131 132
f 133 134 135
f 136 137 138
f 139 140 141
f 142 143 144
f 145 146 147
f 148 149 150
f 151 152 153
f 154 155 156
f 157 158 159
f 160 161 162
f 163 164 165
f 166 167 168
f 169 170 171
f 172 173 174
f 175 176 177
f 178 179 180
f 181 182 183
f 184 185 186
f 187 188 189
f 190 191 192
f 193 194 195
f 196 197 198
f 199 200 201
f 202 203 204
f 205 206 207
f 208 209 210
f 211 212 213
f 214 215 216
f 217 218 219
f 220 221 222
f 223 224 225
f 226 227 228
f 229 230 231
f 232 233 234
f 235 236 237
f 238 239 240
f 241 242 243
f 244 245 246
f 247 248 249
f 250 251 252
f 253 254 255
f 256 257 258
f 259 260 261
f 262 263 264
f 265 266 267
f 268 269 270
f 271 272 273
f 274 275 276
f 277 278 279
f 280 281 282
f 283 284 285
f 286 287 288
f 289 290 291
f 292 293 294
f 295 296 297
f 298 299 300
f 301 302 303
f 304 305 306
f 307 308 309
f 310 311 312
f 313 314 315
f 316 317 318
f 319 320 321
f 322 323 324
f 325 326 327
f 328 329 330
f 331 332 333
f 334 335 336
f 337 338 339
f 340 341 342
f 343 344 345
f 346 347 348
f 349 350 351
f 352 353 354
f 355 356 357
f 358 359 360
f 361 362 363
f 364 365 366
f 367 368 369
f 370 371 372
f 373 374 375
f 376 377 378
f 379 380 381
f 382 383 384
f 385 386 387
f 388 389 390
f 391 392 393
f 394 395 396
f 397 398 399
f 400 401 402
f 403 404 405
f 406 407 408
f 409 410 411
f 412 413 414
f 415 416 417
f 418 419 420
f 421 422 423
f 424 425 426
f 427 428 429
f 430 431 432
f 433 434 435
f 436 437 438
f 439 440 441
f 442 443 444
f 445 446 447
f 448 449 450
f 451 452 453
f 454 455 456
f 457 458 459
f 460 461 462
f 463 464 465
f 466 467 468
f 469 470 471
f 472 473 474
f 475 476 477
f 478 479 480
f 481 482 483
f 484 485 486
f 487 488 489
f 490 491 492
f 493 494 495
f 496 497 498
f 499 500 501
f 502 503 504
f 505 506 507
f 508 509 510
f 511 512 513
f 514 515 516
f 517 518 519
f 520 521 522
f 523 524 525
f 526 527 528
f 529 530 531
f 532 533 534
f 535 536 537
f 538 539 540
f 541 542 543
f 544 545 546
f 547 548 549
f 550 551 552
f 553 554 555
f 556 557 558
f 559 560 561
f 562 563 564
f 565 566 567
f 568 569 570
f 571 572 573
f 574 575 576
f 577 578 579
f 580 581 582
f 583 584 585
f 586 587 588
f 589 590 591
f 592 593 594
f 595 596 597
f 598 599 600
f 601 602 603
f 604 605 606
f 607 608 609
f 610 611 612
f 613 614 615
f 616 617 618
f 619 620 621
f 622 623 624
f 625 626 627
f 628 629 630
f 631 632 633
f 634 635 636
f 637 638 639
f 640 641 642
f 643 644 645
f 646 647 648
f 649 650 651
f 652 653 654
f 655 656 657
f 658 659 660
f 661 662 663
f 664 665 666
f 667 668 669
f 670 671 672
f 673 674 675
f 676 677 678
f 679 680 681
f 682 683 684
f 685 686 687
f 688 689 690
f 691 692 693
f 694 695 696
f 697 698 699
f 700 701 702
f 703 704 705
f 706 707 708
f 709 710 711
f 712 713 714
f 715 716 717
f 718 719 720
f 721 722 723
f 724 725 726
f 727 728 729
f 730 731 732
f 733 734 735
f 736 737 738
f 739 740 741
f 742 743 744
f 745 746 747
f 748 749 750
f 751 752 753
f 754 755 756
f 757 758 759
f 760 761 762
f 763 764 765
f 766 767 768
f 769 770 771
f 772 773 774
f 775 776 777
f 778 779 780
f 781 782 783
f 784 785 786
f 787 788 789
f 790 791 792
f 793 794 795
f 796 797 798
f 799 800 801
f 802 803 804
f 805 806 807
f 808 809 810
f 811 812 813
f 814 815 816
f 817 818 819
f 820 821 822
f 823 824 825
f 826 827 828
f 829 830 831
f 832 833 834
f 835 836 837
f 838 839 840
f 841 842 843
f 844 845 846
f 847 848 849
f 850 851 852
f 853 854 855
f 856 857 858
f 859 860 861
f 862 863 864
f 865 866 867
f 868 869 870
f 871 872 873
f 874 875 876
f 877 878 879
f 880 881 882
f 883 884 885
f 886 887 888
f 889 890 891
f 892 893 894
f 895 896 897
f 898 899 900
f 901 902 903
f 904 905 906
f 907 908 909
f 910 911 912
f 913 914 915
f 916 917 918
f 919 920 921
f 922 923 924
f 925 926 927
f 928 929 930
f 931 932 933
f 934 935 936
f 937 938 939
f 940 941 942
f 943 944 945
f 946 947 948
f 949 950 951
f 952 953 954
f 955 956 957
f 958 959 960
f 961 962 963
f 964 965 966
f 967 968 969
f 970 971 972
f 973 974 975
f 976 977 978
f 979 980 981
f 982 983 984
f 985 986 987
f 988 989 990
f 991 992 993
f 994 995 996
f 997 998 999
f 1000 1001 1002
f 1003 1004 1005
f 1006 1007 1008
f 1009 1010 1011
f 1012 1013 1014
f 1015 1016 1017
f 1018 1019 1020
f 1021 1022 1023
f 1024 1025 1026
f 1027 1028 1029
f 1030 1031 1032
f 1033 1034 1035
f 1036 1037 1038
f 1039 1040 1041
f 1042 1043 1044
f 1045 1046 1047
f 1048 1049 1050
f 1051 1052 1053
f 1054 1055 1056
f 1057 1058 1059
f 1060 1061 1062
f 1063 1064 1065
f 1066 1067 1068
f 1069 1070 1071
f 1072 1073 1074
f 1075 1076 1077
f 1078 1079 1080
f 1081 1082 1083
f 1084 1085 1086
f 1087 1088 1089
f 1090 1091 1092
f 1093 1094 1095
f 1096 1097 1098
f 1099 1100 1101
f 1102 1103 1104
f 1105 1106 1107
f 1108 1109 1110
f 1111 1112 1113
f 1114 1115 1116
f 1117 1118 1119
f 1120 1121 1122
f 1123 1124 1125
f 1126 1127 1128
f 1129 1130 1131
f 1132 1133 1134
f 1135 1136 1137
f 1138 1139 1140
f 1141 1142 1143
f 1144 1145 1146
f 1147 1148 1149
f 1150 1151 1152
f 1153 1154 1155
f 1156 1157 1158
f 1159 1160 1161
f 1162 1163 1164
f 1165 1166 1167
f 1168 1169 1170
f 1171 1172 1173
f 1174 1175 1176
f 1177 1178 1179
f 1180 1181 1182
f 1183 1184 1185
f 1186 1187 1188
f 1189 1190 1191
f 1192 1193 1194
f 1195 1196 1197
f 1198 1199 1200
f 1201 1202 1203
f 1204 1205 1206
f 1207 1208 1209
f 1210 1211 1212
f 1213 1214 1215
f 1216 1217 1218
f 1219 1220 1221
f 1222 1223 1224
f 1225 1226 1227
f 1228 1229 1230
f 1231 1232 1233
f 1234 1235 1236
f 1237 1238 1239
f 1240 1241 1242
f 1243 1244 1245
f 1246 1247 1248
f 1249 1250 1251
f 1252 1253 1254
f 1255 1256 1257
f 1258 1259 1260
f 1261 1262 1263
f 1264 1265 1266
f 1267 1268 1269
f 1270 1271 1272
f 1273 1274 1275
f 1276 1277 1278
f 1279 1280 1281
f 1282 1283 1284
f 1285 1286 1287
f 1288 1289 1290
f 1291 1292 1293
f 1294 1295 1296
f 1297 1298 1299
f 1300 1301 1302
f 1303 1304 1305
f 1306 1307 1308
f 1309 1310 1311
f 1312 1313 1314
f 1315 1316 1317
f 1318 1319 1320
f 1321 1322 1323
