# https://github.com/mikedh/trimesh
v -0.02997739 0.00338382 0.02803800
v -0.02999743 -0.00426870 0.03391387
v -0.02999149 -0.00422714 0.02789136
v -0.02758767 -0.00298635 0.04468967
v -0.02970362 0.00575854 0.03391893
v -0.02698819 0.00419716 0.00510594
v -0.02758767 0.00298606 0.04468967
v -0.02609789 -0.00722819 0.04529647
v -0.02659127 -0.00586866 0.00511099
v -0.02199210 -0.00360378 -0.00009739
v -0.01376123 0.01912819 0.05128864
v -0.02869313 -0.00942183 0.02803295
v -0.02811554 -0.01111938 0.03379947
v -0.01209191 0.01662138 0.05130255
v -0.02609789 0.00932655 0.04470484
v -0.02815672 0.01111649 0.02819476
v -0.02523726 0.01031206 0.00501997
v -0.02158107 0.00479084 -0.00028955
v -0.02495681 -0.01048118 0.00484868
v -0.02337356 -0.01496086 0.04458348
v -0.02066406 -0.01735339 0.04529141
v -0.01203107 0.02160383 0.05129875
v -0.02799943 0.01142335 0.03368885
v -0.01050494 -0.02466009 0.04529394
v 0.00609257 0.01661841 0.05130255
v -0.02355904 0.01457615 0.04469093
v -0.01949479 -0.01020549 -0.00029207
v -0.02567054 -0.01607994 0.03375206
v -0.01598848 -0.02257331 0.04469220
v -0.01019111 -0.02579550 0.04469473
v -0.02373561 0.01863692 0.03389112
v -0.02065442 0.01840019 0.04472506
v -0.02280376 0.01500806 0.00508571
v -0.01708800 0.01379547 -0.00028955
v -0.02279782 -0.01500835 0.00508571
v -0.02520165 -0.01680126 0.02788630
v 0.00426262 -0.02654391 0.04529773
v -0.00275706 -0.02759138 0.04468967
v -0.01474873 -0.02633872 0.03387405
v -0.02126761 -0.02149949 0.03379346
v 0.00603618 0.02160383 0.05130381
v -0.00161450 0.02762373 0.04473139
v -0.00931267 0.02610095 0.04470737
v -0.01618583 0.02248544 0.04464416
v -0.02578035 0.01587186 0.02803800
v -0.01318847 -0.01768288 -0.00028955
v -0.00725904 -0.02940507 0.03393410
v 0.00776338 0.01952299 0.05129117
v 0.01721619 -0.02029952 0.04529394
v 0.02608882 -0.00722522 0.04529647
v -0.00575442 0.02970161 0.03392651
v -0.01249032 0.02756140 0.03380389
v -0.01801986 0.02430507 0.03392146
v -0.01198952 0.01858794 -0.00028955
v 0.02158684 -0.00478520 -0.00028955
v 0.01042835 -0.01953367 -0.00018462
v -0.00300931 -0.02201822 -0.00012015
v 0.00208546 -0.03014123 0.03375522
v -0.01974056 -0.02282840 0.02803927
v -0.01266912 -0.02746671 0.02806202
v 0.02234657 -0.01635304 0.04468082
v 0.02527493 -0.01113682 0.04471369
v 0.00276283 -0.02759435 0.04468967
v 0.01019687 -0.02579550 0.04469473
v 0.01739647 -0.02159819 0.04469978
v 0.00462653 0.02729573 0.04467260
v 0.00438318 0.02984113 0.03376470
v -0.00014253 0.03026561 0.02819982
v -0.01489489 0.02626347 0.02802599
v -0.02306788 0.01961352 0.02811386
v -0.00106103 0.02245279 0.00004925
v 0.01857761 -0.01197465 -0.00028955
v -0.00284906 -0.03012342 0.02804559
v -0.00723530 -0.02939913 0.02788125
v 0.02653397 0.00484279 0.04529647
v 0.02757563 -0.00299229 0.04468967
v 0.02757563 0.00298606 0.04468967
v 0.02378831 -0.01857321 0.03390329
v 0.02263592 0.01589709 0.04467576
v 0.01589631 0.02264128 0.04467703
v 0.01082899 0.02550430 0.04470989
v -0.00573068 0.02970458 0.02788630
v -0.01957195 0.01897086 0.00500228
v 0.01198936 0.01857607 -0.00028955
v 0.02158684 0.00480271 -0.00028955
v -0.01031575 -0.02523150 0.00501997
v -0.01620660 -0.02190096 0.00507813
v 0.02815878 -0.01107374 0.03374258
v 0.02970346 -0.00575587 0.03392904
v 0.02608882 0.00932358 0.04470484
v 0.00850307 -0.02903105 0.03386267
v 0.01801078 -0.02429943 0.03392904
v 0.01921270 0.02341455 0.03393410
v 0.01234845 0.02761186 0.03392398
v -0.01622144 0.02190660 0.00507560
v -0.01031575 0.02523714 0.00501997
v 0.01977062 0.01045454 0.00002144
v 0.01621237 -0.02190096 0.00507813
v -0.00420232 -0.02698879 0.00510594
v 0.03015751 0.00213413 0.03375712
v 0.02436979 -0.01791367 0.02801082
v 0.02870483 0.00953434 0.03377608
v 0.00573645 -0.02969300 0.02788630
v 0.00724106 0.02941071 0.02788125
v -0.00420232 0.02698850 0.00510594
v 0.00081084 0.02712356 0.00497446
v 0.02697616 -0.00194742 0.00481771
v 0.02564812 -0.00892092 0.00507181
v 0.02280359 -0.01501429 0.00508571
v 0.00932289 -0.02555209 0.00511479
v 0.02704293 -0.01361172 0.02819982
v 0.02912772 -0.00820776 0.02804053
v 0.03012635 -0.00172627 0.02804812
v 0.01784163 -0.02443449 0.02797100
v 0.02495108 0.01688668 0.03375806
v 0.01261628 -0.02747784 0.02817137
v 0.01680294 0.02518965 0.02789136
v 0.01225645 0.02771278 0.02819982
v 0.00419622 -0.02698286 0.00510594
v 0.02969158 0.00573182 0.02788883
v 0.02794807 0.01154246 0.02819982
v 0.02170258 0.02110365 0.02819982
v 0.00546342 0.02670353 0.00506801
v 0.01741428 0.02100421 0.00507054
v 0.02670016 0.00546170 0.00507307
v 0.02523116 0.01031206 0.00501997
v 0.02190438 0.01620729 0.00507813
v 0.02564960 0.01606480 0.02804559
v 0.01117473 0.02484606 0.00531579
v -0.01469560 -0.01890107 0.04540705
v -0.01467337 -0.01946594 0.04540705
v -0.01405820 -0.01890033 0.05039889
v -0.01469560 -0.01889588 0.04540705
v -0.01467040 -0.01949856 0.04540705
v -0.01401743 -0.01949930 0.05039889
v -0.01405227 -0.01899818 0.05039889
v -0.01394331 -0.01890033 0.05099895
v -0.01387587 -0.01832583 0.05102098
v -0.01397815 -0.01830062 0.05039889
v -0.01464965 -0.01830137 0.04540705
v -0.01393590 -0.01899818 0.05100707
v -0.01456367 -0.02057566 0.04540705
v -0.01385512 -0.01994926 0.05088473
v -0.01389292 -0.01951709 0.05104997
v -0.01381361 -0.01890033 0.05130971
v -0.01380768 -0.01854229 0.05130565
v -0.01380990 -0.01932880 0.05130681
v -0.01381361 -0.01899818 0.05130913
v -0.01383436 -0.01791886 0.05083603
v -0.01456664 -0.01770314 0.04540705
v -0.01441099 -0.02101080 0.04540705
v -0.01335186 -0.02068685 0.05102272
v -0.01373949 -0.01972910 0.05128478
v -0.01376766 -0.02032362 0.05039889
v -0.01324365 -0.02104787 0.05083835
v -0.01349861 -0.01890033 0.05132536
v -0.01367649 -0.01814273 0.05123607
v -0.01327478 -0.01770017 0.05131435
v -0.01322216 -0.01736585 0.05130913
v -0.01323105 -0.02047929 0.05130913
v -0.01332814 -0.02009975 0.05131435
v -0.01352307 -0.01951709 0.05131551
v -0.01332221 -0.01723761 0.05099895
v -0.01341115 -0.01712715 0.05039889
v -0.01371207 -0.01757786 0.05039889
v -0.01427388 -0.01710121 0.04540705
v -0.01392849 -0.02172912 0.04540705
v -0.01307837 -0.02087885 0.05123840
v -0.01331184 -0.02231178 0.04540705
v -0.01261291 -0.02160828 0.05073921
v -0.01284564 -0.02124653 0.05098910
v -0.01289826 -0.01770017 0.05133000
v -0.01289901 -0.02009975 0.05133000
v -0.01289901 -0.01899818 0.05133000
v -0.01285972 -0.01713976 0.05131724
v -0.01263367 -0.01677800 0.05130913
v -0.01306206 -0.01693812 0.05099895
v -0.01267888 -0.02104564 0.05130913
v -0.01288715 -0.02068685 0.05131724
v -0.01317176 -0.01682767 0.05039889
v -0.01382324 -0.01650002 0.04540705
v -0.01244245 -0.02144594 0.05113925
v -0.01204221 -0.02161347 0.05130797
v -0.01199256 -0.02279287 0.04540705
v -0.01169905 -0.02197745 0.05039889
v -0.01226531 -0.02167500 0.05096300
v -0.01229866 -0.01710121 0.05133000
v -0.01229940 -0.02069872 0.05133000
v -0.01229866 -0.01672537 0.05131435
v -0.01145595 -0.01619238 0.05130507
v -0.01185618 -0.01632211 0.05123607
v -0.01208001 -0.01616421 0.05083662
v -0.01276115 -0.01667867 0.05099895
v -0.01226531 -0.02126803 0.05131667
v -0.01169905 -0.02129916 0.05132884
v -0.01287232 -0.01658972 0.05039889
v -0.01349935 -0.01617681 0.04540705
v -0.01169905 -0.02181585 0.05099895
v -0.01109945 -0.02186477 0.05099895
v -0.01169905 -0.02162682 0.05131319
v -0.01147448 -0.02287442 0.04540705
v -0.01109945 -0.02205973 0.05039889
v -0.00990097 -0.01710121 0.05133000
v -0.01109870 -0.01650076 0.05132536
v -0.01109945 -0.02129916 0.05133000
v -0.01109870 -0.01618571 0.05130971
v -0.01109870 -0.01605524 0.05099895
v -0.01167311 -0.01612418 0.05102156
v -0.01169905 -0.01602262 0.05039889
v -0.01229718 -0.01543329 0.04540705
v -0.01289901 -0.01572981 0.04540705
v -0.01242095 -0.01629023 0.05039889
v -0.01109945 -0.02163423 0.05131435
v -0.01050132 -0.02184179 0.05099895
v -0.01050132 -0.02163127 0.05131435
v -0.01109945 -0.02287590 0.04540705
v -0.01050132 -0.02201970 0.05039889
v -0.01050058 -0.02284106 0.04540705
v -0.00930063 -0.01770017 0.05133000
v -0.00931397 -0.01711381 0.05131724
v -0.00990097 -0.01667274 0.05131435
v -0.01048279 -0.01647778 0.05131551
v -0.01067105 -0.01618942 0.05130739
v -0.01050132 -0.02129916 0.05133000
v -0.01109870 -0.01594034 0.05039889
v -0.01048279 -0.01610491 0.05104997
v -0.01169905 -0.01535175 0.04540705
v -0.00990616 -0.02171132 0.05103200
v -0.01010850 -0.02161718 0.05130913
v -0.00990097 -0.02185143 0.05039889
v -0.00930359 -0.02237775 0.04540705
v -0.00952668 -0.02164461 0.05085401
v -0.00870102 -0.01890033 0.05133000
v -0.00870102 -0.01830062 0.05132884
v -0.00873363 -0.01773427 0.05131667
v -0.00895450 -0.01732286 0.05130913
v -0.00952298 -0.01676837 0.05130913
v -0.01027156 -0.01626206 0.05128420
v -0.00990616 -0.02129472 0.05131724
v -0.00930063 -0.02069872 0.05132594
v -0.00930063 -0.02009975 0.05133000
v -0.01050132 -0.01597963 0.05039889
v -0.01053171 -0.01532432 0.04540705
v -0.01109945 -0.01530283 0.04540705
v -0.01004995 -0.01614494 0.05088416
v -0.00970901 -0.02149116 0.05125405
v -0.00898859 -0.02101154 0.05130565
v -0.00930063 -0.02107752 0.05131087
v -0.00870102 -0.02190555 0.04540705
v -0.00918871 -0.02146373 0.05039889
v -0.00890855 -0.02109086 0.05099895
v -0.00836601 -0.01890033 0.05131435
v -0.00837342 -0.01830062 0.05131377
v -0.00870102 -0.01949930 0.05133000
v -0.00838602 -0.01795666 0.05130797
v -0.00912275 -0.01692256 0.05123607
v -0.00931397 -0.01664753 0.05102156
v -0.00892041 -0.02069872 0.05131087
v -0.00870398 -0.02009678 0.05131724
v -0.00942440 -0.01543626 0.04540705
v -0.01050058 -0.01532655 0.04540705
v -0.00967492 -0.01623093 0.05039889
v -0.00898933 -0.01558897 0.04540705
v -0.00895450 -0.01675725 0.05083603
v -0.00835415 -0.02047559 0.05085748
v -0.00850535 -0.02029471 0.05125753
v -0.00838232 -0.01989441 0.05130913
v -0.00810067 -0.02130732 0.04540705
v -0.00883517 -0.02116425 0.05039889
v -0.00853574 -0.02081436 0.05039889
v -0.00813551 -0.01890033 0.05099895
v -0.00836972 -0.01949930 0.05131435
v -0.00817331 -0.01899818 0.05104997
v -0.00832599 -0.01773427 0.05096069
v -0.00839269 -0.01738809 0.05073515
v -0.00855501 -0.01755711 0.05113520
v -0.00818294 -0.01830062 0.05099895
v -0.00875438 -0.01715532 0.05098562
v -0.00827188 -0.01607155 0.04540705
v -0.00769006 -0.01668979 0.04540705
v -0.00762262 -0.02069723 0.04540705
v -0.00716013 -0.01949856 0.04540705
v -0.00814588 -0.02009975 0.05039889
v -0.00828819 -0.02009678 0.05103432
v -0.00815922 -0.01949930 0.05099895
v -0.00809252 -0.02129916 0.04540705
v -0.00793984 -0.01890033 0.05039889
v -0.00802137 -0.01830062 0.05039889
v -0.00720460 -0.01800485 0.04540705
v -0.00798060 -0.01949930 0.05039889
v -0.00712455 -0.01890107 0.04540705
v -0.00712603 -0.01852598 0.04540705
v 0.00112450 -0.01890078 0.04540705
v 0.00194051 -0.01890078 0.05039889
v 0.00120381 -0.01830114 0.04540705
v 0.00112524 -0.01927435 0.04540705
v 0.00213544 -0.01890078 0.05099895
v 0.00218213 -0.01830040 0.05099895
v 0.00202130 -0.01830040 0.05039889
v 0.00116230 -0.01983768 0.04540705
v 0.00198202 -0.01949968 0.05039889
v 0.00215989 -0.01949968 0.05099895
v 0.00239262 -0.01738870 0.05073458
v 0.00167444 -0.01711445 0.04540705
v 0.00236519 -0.01890078 0.05131435
v 0.00237261 -0.01830040 0.05131319
v 0.00238595 -0.01795721 0.05130797
v 0.00236890 -0.01949968 0.05131435
v 0.00232517 -0.01773485 0.05096010
v 0.00235482 -0.02047587 0.05085748
v 0.00214581 -0.02009933 0.05039889
v 0.00165813 -0.02114592 0.04540705
v 0.00228811 -0.02009636 0.05103432
v 0.00238224 -0.01989401 0.05130913
v 0.00255419 -0.01755696 0.05113462
v 0.00275430 -0.01715596 0.05098503
v 0.00295367 -0.01675718 0.05083545
v 0.00219992 -0.01650591 0.04540705
v 0.00270094 -0.01890078 0.05133000
v 0.00270094 -0.01830040 0.05132884
v 0.00270094 -0.01949968 0.05133000
v 0.00273281 -0.01773485 0.05131667
v 0.00295441 -0.01732347 0.05130913
v 0.00312265 -0.01692322 0.05123550
v 0.00298850 -0.02101102 0.05130507
v 0.00250601 -0.02029427 0.05125753
v 0.00290920 -0.02109033 0.05099895
v 0.00222956 -0.02177003 0.04540705
v 0.00283657 -0.02116372 0.05039889
v 0.00292032 -0.02069971 0.05131087
v 0.00270390 -0.02009636 0.05131724
v 0.00331461 -0.01664822 0.05102098
v 0.00405058 -0.01614420 0.05088473
v 0.00367556 -0.01623166 0.05039889
v 0.00330053 -0.01558680 0.04540705
v 0.00270687 -0.01601671 0.04540705
v 0.00330053 -0.01770075 0.05133000
v 0.00331461 -0.01711445 0.05131724
v 0.00330127 -0.02069971 0.05132594
v 0.00450046 -0.02129936 0.05133000
v 0.00352288 -0.01676904 0.05130913
v 0.00427070 -0.01626131 0.05128420
v 0.00352658 -0.02164402 0.05085401
v 0.00370891 -0.02149059 0.05125405
v 0.00410913 -0.02161734 0.05130913
v 0.00330127 -0.02107773 0.05131087
v 0.00285436 -0.02234151 0.04540705
v 0.00448341 -0.01610565 0.05104997
v 0.00450046 -0.01597965 0.05039889
v 0.00389568 -0.01540521 0.04540705
v 0.00390087 -0.01710037 0.05133000
v 0.00390087 -0.01667194 0.05131435
v 0.00390605 -0.02129417 0.05131724
v 0.00450046 -0.02163142 0.05131435
v 0.00509931 -0.02163439 0.05131435
v 0.00509931 -0.02129936 0.05133000
v 0.00467018 -0.01618941 0.05130739
v 0.00416101 -0.02283886 0.04540705
v 0.00390087 -0.02185156 0.05039889
v 0.00390605 -0.02171073 0.05103200
v 0.00450046 -0.02184119 0.05099895
v 0.00509857 -0.01605525 0.05099895
v 0.00509857 -0.01594036 0.05039889
v 0.00450046 -0.01532738 0.04540705
v 0.00629924 -0.01710037 0.05133000
v 0.00509857 -0.01650072 0.05132536
v 0.00448341 -0.01647700 0.05131551
v 0.00509931 -0.02186416 0.05099895
v 0.00569891 -0.02162697 0.05131319
v 0.00569891 -0.02129936 0.05132884
v 0.00629924 -0.02069971 0.05133000
v 0.00509857 -0.01618570 0.05130971
v 0.00472503 -0.02287444 0.04540705
v 0.00509931 -0.02205984 0.05039889
v 0.00450046 -0.02201982 0.05039889
v 0.00545581 -0.01619238 0.05130507
v 0.00567371 -0.01612418 0.05102214
v 0.00675135 -0.01545413 0.04540705
v 0.00564406 -0.01534368 0.04540705
v 0.00509931 -0.01530366 0.04540705
v 0.00569965 -0.01602190 0.05039889
v 0.00689884 -0.01770075 0.05133000
v 0.00686030 -0.01714039 0.05131724
v 0.00663424 -0.01677794 0.05130913
v 0.00629924 -0.01672457 0.05131435
v 0.00569891 -0.02181673 0.05099895
v 0.00604354 -0.02161363 0.05130797
v 0.00626515 -0.02126748 0.05131667
v 0.00688698 -0.02068711 0.05131724
v 0.00689884 -0.02009933 0.05133000
v 0.00509931 -0.02287444 0.04540705
v 0.00569891 -0.02197757 0.05039889
v 0.00569891 -0.02279439 0.04540705
v 0.00608134 -0.01616495 0.05083719
v 0.00585677 -0.01632209 0.05123724
v 0.00780156 -0.01619831 0.04540705
v 0.00642153 -0.01629022 0.05039889
v 0.00687290 -0.01658967 0.05039889
v 0.00749917 -0.01890078 0.05132536
v 0.00727534 -0.01770075 0.05131435
v 0.00722198 -0.01736572 0.05130913
v 0.00706263 -0.01693804 0.05099895
v 0.00676172 -0.01667861 0.05099895
v 0.00626515 -0.02167515 0.05096417
v 0.00661423 -0.02160919 0.05074153
v 0.00644303 -0.02144612 0.05114157
v 0.00707819 -0.02087909 0.05123840
v 0.00667871 -0.02104586 0.05130913
v 0.00723087 -0.02047957 0.05130913
v 0.00732871 -0.02009933 0.05131435
v 0.00688549 -0.02232742 0.04540705
v 0.00854568 -0.01724787 0.04540705
v 0.00717232 -0.01682760 0.05039889
v 0.00741246 -0.01712705 0.05039889
v 0.00781416 -0.01890078 0.05130971
v 0.00780823 -0.01854129 0.05130565
v 0.00752363 -0.01951821 0.05131551
v 0.00781046 -0.01933069 0.05130739
v 0.00781416 -0.01900159 0.05130913
v 0.00732352 -0.01723823 0.05099895
v 0.00767779 -0.01814178 0.05123666
v 0.00783565 -0.01791793 0.05083662
v 0.00684621 -0.02124747 0.05098967
v 0.00749398 -0.02180338 0.04540705
v 0.00724347 -0.02104734 0.05083835
v 0.00735242 -0.02068711 0.05102272
v 0.00774005 -0.01973020 0.05128478
v 0.00771262 -0.01757697 0.05039889
v 0.00797870 -0.01830040 0.05039889
v 0.00805948 -0.01890078 0.05039889
v 0.00865760 -0.01835450 0.04540705
v 0.00794386 -0.01890078 0.05099895
v 0.00787642 -0.01832486 0.05102156
v 0.00789346 -0.01951821 0.05105055
v 0.00793645 -0.01900233 0.05100765
v 0.00791273 -0.01900233 0.05107142
v 0.00798611 -0.02129343 0.04540705
v 0.00841450 -0.02069897 0.04540705
v 0.00776673 -0.02032466 0.05039889
v 0.00785567 -0.01994960 0.05088473
v 0.00869614 -0.01890078 0.04540705
v 0.00801798 -0.01949968 0.05039889
v 0.00867094 -0.01949894 0.04540705
v 0.00869614 -0.01890523 0.04540705
v 0.00859534 -0.02010452 0.04540705
v -0.00270008 0.00376062 0.04540705
v -0.00270155 0.00302292 0.05080415
v -0.00225443 0.00375252 0.04540705
v -0.00329967 0.00376062 0.04540705
v -0.00270155 0.00278144 0.05110447
v -0.00173734 0.00242069 0.05130913
v -0.00237892 0.00300599 0.05073168
v -0.00166221 0.00373485 0.04540705
v -0.00329894 0.00302292 0.05080299
v -0.00388748 0.00373706 0.04540705
v -0.00270155 0.00248106 0.05131435
v -0.00210122 0.00244941 0.05131435
v -0.00329894 0.00278144 0.05110273
v -0.00329894 0.00248106 0.05131435
v -0.00152299 0.00207761 0.05131724
v -0.00113554 0.00186337 0.05130913
v -0.00133736 0.00226314 0.05120709
v -0.00152299 0.00251640 0.05100417
v -0.00210122 0.00209896 0.05133000
v -0.00116353 0.00242953 0.05080705
v -0.00047628 0.00312231 0.04540705
v -0.00362083 0.00300599 0.05072994
v -0.00426389 0.00242069 0.05130913
v -0.00449960 0.00349484 0.04540705
v -0.00389927 0.00244941 0.05131435
v -0.00389927 0.00209896 0.05133000
v -0.00092192 0.00147907 0.05131724
v -0.00057866 0.00126483 0.05130913
v -0.00073630 0.00166459 0.05121057
v -0.00094917 0.00205037 0.05100881
v -0.00150163 0.00149968 0.05133000
v -0.00056982 0.00183834 0.05081052
v 0.00012332 0.00252377 0.04540705
v -0.00449886 0.00265923 0.05039889
v -0.00483770 0.00242953 0.05080705
v -0.00447750 0.00251640 0.05100417
v -0.00466312 0.00226314 0.05120709
v -0.00486495 0.00186264 0.05130913
v -0.00447750 0.00207761 0.05131724
v -0.00509109 0.00315839 0.04540705
v -0.00507857 0.00147907 0.05131724
v -0.00509919 0.00089892 0.05133000
v -0.00090130 0.00089892 0.05133000
v -0.00054994 0.00089892 0.05131435
v -0.00021773 0.00029964 0.05110447
v 0.00002314 0.00029964 0.05080415
v 0.00000473 0.00061842 0.05072472
v -0.00048217 0.00147907 0.05100591
v 0.00073617 0.00133771 0.04540705
v -0.00560524 0.00269310 0.04540705
v -0.00543066 0.00183834 0.05081052
v -0.00505131 0.00205037 0.05100881
v -0.00526419 0.00166459 0.05121057
v -0.00542182 0.00126483 0.05130913
v -0.00509919 -0.00089967 0.05133000
v -0.00544982 0.00089892 0.05131435
v -0.00548223 0.00029964 0.05131435
v -0.00090130 -0.00089967 0.05133000
v -0.00051753 0.00029964 0.05131435
v -0.00021773 0.00000220 0.05110447
v 0.00002314 -0.00029965 0.05080415
v 0.00076269 0.00015534 0.04540705
v 0.00076195 0.00029964 0.04540705
v 0.00075311 0.00074579 0.04540705
v -0.00569363 0.00260475 0.04540705
v -0.00615843 0.00209160 0.04540705
v -0.00650168 0.00149968 0.04540705
v -0.00566269 0.00149968 0.05039889
v -0.00600448 0.00061695 0.05072414
v -0.00551758 0.00147907 0.05100591
v -0.00602363 0.00029964 0.05080241
v -0.00578276 0.00029964 0.05110273
v -0.00507857 -0.00147834 0.05131724
v -0.00389927 -0.00209897 0.05133000
v -0.00548223 0.00000220 0.05131435
v -0.00548149 -0.00029965 0.05131435
v -0.00544908 -0.00089967 0.05131435
v -0.00542109 -0.00126483 0.05130913
v -0.00210122 -0.00209897 0.05133000
v -0.00092192 -0.00147907 0.05131724
v -0.00057866 -0.00126483 0.05130913
v -0.00055067 -0.00089967 0.05131435
v -0.00051826 -0.00029965 0.05131435
v -0.00051753 0.00000220 0.05131435
v -0.00021773 -0.00029965 0.05110389
v 0.00000399 -0.00061843 0.05072472
v 0.00073838 -0.00088715 0.04540705
v 0.00076269 -0.00029965 0.04540705
v -0.00673887 0.00088714 0.04540705
v -0.00676244 0.00029964 0.04540705
v -0.00602363 0.00000220 0.05080241
v -0.00578276 0.00000220 0.05110273
v -0.00486495 -0.00186338 0.05130913
v -0.00447750 -0.00207762 0.05131724
v -0.00426315 -0.00242144 0.05130913
v -0.00389927 -0.00245015 0.05131435
v -0.00329894 -0.00248181 0.05131435
v -0.00578202 -0.00029965 0.05110273
v -0.00602289 -0.00029965 0.05080241
v -0.00600374 -0.00061769 0.05072414
v -0.00551758 -0.00147834 0.05100533
v -0.00526419 -0.00166387 0.05120999
v -0.00270155 -0.00248107 0.05131435
v -0.00210122 -0.00245015 0.05131435
v -0.00173660 -0.00242144 0.05130913
v -0.00152299 -0.00207762 0.05131724
v -0.00113554 -0.00186338 0.05130913
v -0.00073556 -0.00166460 0.05121114
v -0.00048217 -0.00147907 0.05100649
v 0.00050267 -0.00149969 0.04540705
v -0.00056982 -0.00183909 0.05081110
v -0.00033779 -0.00149895 0.05039889
v -0.00676244 -0.00015535 0.04540705
v -0.00466312 -0.00226315 0.05120651
v -0.00447750 -0.00251641 0.05100359
v -0.00362157 -0.00300526 0.05073110
v -0.00329894 -0.00302293 0.05080415
v -0.00329894 -0.00278145 0.05110389
v -0.00676170 -0.00029965 0.04540705
v -0.00675360 -0.00074580 0.04540705
v -0.00673592 -0.00133772 0.04540705
v -0.00542993 -0.00183835 0.05080995
v -0.00505131 -0.00205038 0.05100822
v -0.00270155 -0.00278145 0.05110331
v -0.00152299 -0.00251641 0.05100417
v -0.00133736 -0.00226315 0.05120767
v -0.00270155 -0.00302293 0.05080299
v -0.00237966 -0.00300526 0.05073052
v -0.00094917 -0.00205112 0.05100939
v 0.00015941 -0.00209161 0.04540705
v -0.00030612 -0.00260549 0.04540705
v -0.00116279 -0.00242954 0.05080763
v -0.00483696 -0.00242954 0.05080647
v -0.00433755 -0.00373486 0.04540705
v -0.00374605 -0.00375253 0.04540705
v -0.00329967 -0.00376063 0.04540705
v -0.00270008 -0.00376063 0.04540705
v -0.00612233 -0.00252377 0.04540705
v -0.00552348 -0.00312232 0.04540705
v -0.00211153 -0.00373707 0.04540705
v -0.00150015 -0.00349559 0.04540705
v -0.00150163 -0.00265924 0.05039889
v -0.00039451 -0.00269311 0.04540705
v -0.00090866 -0.00315840 0.04540705
f 1 2 5
f 1 3 2
f 2 4 5
f 1 6 3
f 5 4 7
f 6 9 3
f 4 8 7
f 8 11 7
f 9 6 10
f 9 12 3
f 2 13 8
f 2 8 4
f 11 8 14
f 7 11 15
f 1 16 6
f 6 18 10
f 3 12 2
f 2 12 13
f 8 13 20
f 14 8 21
f 14 25 41
f 14 41 22
f 14 22 11
f 15 5 7
f 15 23 5
f 6 16 17
f 14 21 24
f 8 20 21
f 11 26 15
f 11 22 26
f 15 26 23
f 5 23 1
f 1 23 16
f 6 17 18
f 9 10 19
f 13 12 36
f 13 36 28
f 13 28 20
f 21 20 29
f 26 31 23
f 22 32 26
f 18 27 10
f 10 27 19
f 19 12 9
f 14 24 37
f 14 37 25
f 24 30 38
f 24 38 37
f 21 29 24
f 24 29 30
f 20 28 40
f 22 42 43
f 26 32 31
f 22 44 32
f 23 45 16
f 16 33 17
f 16 45 33
f 33 34 17
f 17 34 18
f 27 56 46
f 35 36 19
f 19 36 12
f 29 40 39
f 30 39 47
f 20 40 29
f 25 49 50
f 25 50 48
f 25 48 41
f 25 37 49
f 22 41 42
f 22 43 44
f 43 51 52
f 31 45 23
f 44 53 32
f 27 18 54
f 27 55 56
f 46 56 57
f 19 27 35
f 30 47 38
f 38 47 58
f 39 40 59
f 39 59 60
f 29 39 30
f 40 28 59
f 49 61 62
f 49 62 50
f 37 63 64
f 37 64 49
f 38 63 37
f 41 66 42
f 42 67 51
f 44 43 52
f 44 52 53
f 42 51 43
f 31 70 45
f 53 31 32
f 18 34 54
f 55 72 56
f 58 47 73
f 39 60 47
f 47 60 74
f 28 36 59
f 48 50 75
f 50 62 76
f 50 77 75
f 49 65 61
f 48 79 41
f 64 65 49
f 41 80 81
f 41 81 66
f 66 67 42
f 67 68 51
f 51 68 82
f 51 82 52
f 52 82 69
f 53 52 69
f 53 70 31
f 45 70 33
f 27 54 55
f 54 71 84
f 54 84 55
f 55 84 85
f 47 74 73
f 38 58 63
f 59 87 60
f 60 87 86
f 59 35 87
f 62 89 76
f 62 88 89
f 50 76 77
f 61 65 78
f 61 78 62
f 62 78 88
f 75 90 79
f 75 79 48
f 41 79 80
f 64 63 91
f 64 91 65
f 65 91 92
f 80 93 94
f 80 94 81
f 81 94 66
f 66 94 67
f 70 83 33
f 53 69 70
f 71 54 96
f 84 97 85
f 46 57 86
f 46 86 87
f 27 46 35
f 35 59 36
f 60 86 74
f 74 86 99
f 76 89 100
f 76 100 77
f 75 77 90
f 90 77 102
f 90 102 79
f 58 91 63
f 92 78 65
f 67 104 68
f 82 68 105
f 82 105 96
f 82 96 69
f 70 95 83
f 34 33 83
f 34 95 54
f 95 96 54
f 71 96 105
f 85 107 55
f 55 108 109
f 72 55 109
f 72 98 56
f 57 99 86
f 46 87 35
f 74 99 73
f 58 73 103
f 89 88 112
f 100 89 113
f 88 78 111
f 77 100 102
f 102 115 79
f 80 79 93
f 58 103 91
f 91 116 92
f 92 116 114
f 92 114 78
f 93 117 94
f 94 117 118
f 94 118 104
f 94 104 67
f 68 106 105
f 69 96 95
f 69 95 70
f 34 83 95
f 109 98 72
f 56 98 110
f 56 110 119
f 56 119 57
f 57 119 99
f 73 99 103
f 88 111 112
f 114 101 78
f 78 101 111
f 102 100 120
f 102 121 115
f 93 115 122
f 79 115 93
f 91 103 116
f 104 123 106
f 104 106 68
f 71 105 106
f 71 123 84
f 84 123 124
f 85 125 107
f 97 84 127
f 97 127 126
f 108 112 111
f 103 99 119
f 111 109 108
f 89 112 113
f 114 98 109
f 114 109 101
f 101 109 111
f 102 120 121
f 115 121 128
f 115 128 122
f 116 103 110
f 117 124 129
f 117 129 118
f 106 123 71
f 84 124 127
f 107 108 55
f 85 97 125
f 97 126 125
f 112 108 107
f 112 107 113
f 113 107 125
f 113 125 120
f 120 100 113
f 121 126 127
f 121 127 128
f 93 122 117
f 122 124 117
f 103 119 110
f 116 98 114
f 104 118 129
f 104 129 123
f 98 116 110
f 120 125 121
f 121 125 126
f 122 127 124
f 129 124 123
f 127 122 128
f 130 131 132
f 130 132 133
f 130 133 140
f 130 140 150
f 130 150 166
f 130 166 181
f 130 181 197
f 130 197 211
f 130 211 210
f 130 210 227
f 130 227 244
f 130 244 243
f 130 243 261
f 130 261 260
f 130 260 263
f 130 263 279
f 130 279 280
f 130 280 289
f 130 289 292
f 130 292 291
f 130 291 282
f 130 282 281
f 130 281 286
f 130 286 268
f 130 268 249
f 130 249 231
f 130 231 218
f 130 218 216
f 130 216 201
f 130 201 184
f 130 184 169
f 130 169 167
f 130 167 151
f 130 151 142
f 130 142 134
f 130 134 131
f 131 134 135
f 131 135 136
f 131 136 132
f 132 137 138
f 132 138 139
f 132 139 140
f 132 140 133
f 132 136 141
f 132 141 137
f 134 142 135
f 135 143 144
f 135 144 136
f 135 142 143
f 136 144 141
f 137 145 146
f 137 146 138
f 137 141 147
f 137 147 148
f 137 148 145
f 138 146 149
f 138 149 139
f 139 149 150
f 139 150 140
f 141 144 147
f 142 151 143
f 143 152 153
f 143 153 144
f 143 151 154
f 143 154 155
f 143 155 152
f 144 153 147
f 145 156 146
f 145 148 156
f 146 157 149
f 146 156 158
f 146 158 159
f 146 159 157
f 147 153 160
f 147 160 161
f 147 161 162
f 147 162 156
f 147 156 148
f 149 157 159
f 149 159 163
f 149 163 164
f 149 164 165
f 149 165 166
f 149 166 150
f 151 167 155
f 151 155 154
f 152 168 153
f 152 155 168
f 153 168 160
f 155 167 169
f 155 169 170
f 155 170 171
f 155 171 168
f 156 172 158
f 156 162 161
f 156 161 173
f 156 173 174
f 156 174 172
f 158 172 159
f 159 172 175
f 159 175 176
f 159 176 177
f 159 177 163
f 160 168 178
f 160 178 179
f 160 179 161
f 161 179 173
f 163 177 180
f 163 180 164
f 164 166 165
f 164 180 181
f 164 181 166
f 168 171 182
f 168 182 183
f 168 183 178
f 169 184 170
f 170 183 182
f 170 182 171
f 170 184 185
f 170 185 186
f 170 186 183
f 172 187 175
f 172 174 173
f 172 173 188
f 172 188 205
f 172 205 224
f 172 224 241
f 172 241 254
f 172 254 233
f 172 233 219
f 172 219 203
f 172 203 187
f 173 179 188
f 175 187 176
f 176 189 190
f 176 190 191
f 176 191 192
f 176 192 193
f 176 193 177
f 176 187 189
f 177 193 180
f 178 183 194
f 178 194 179
f 179 194 195
f 179 195 188
f 180 193 196
f 180 196 197
f 180 197 181
f 183 186 198
f 183 198 199
f 183 199 200
f 183 200 195
f 183 195 194
f 184 201 185
f 185 201 202
f 185 202 198
f 185 198 186
f 187 203 204
f 187 204 189
f 188 195 205
f 189 204 190
f 190 206 207
f 190 207 208
f 190 208 192
f 190 192 191
f 190 204 206
f 192 208 209
f 192 209 210
f 192 210 211
f 192 211 212
f 192 212 196
f 192 196 193
f 195 200 213
f 195 213 205
f 196 212 211
f 196 211 197
f 198 202 199
f 199 202 214
f 199 214 215
f 199 215 213
f 199 213 200
f 201 216 202
f 202 217 214
f 202 216 218
f 202 218 217
f 203 219 220
f 203 220 221
f 203 221 204
f 204 221 222
f 204 222 223
f 204 223 206
f 205 213 224
f 206 223 207
f 207 225 208
f 207 223 226
f 207 226 225
f 208 225 209
f 209 225 210
f 210 225 227
f 213 215 224
f 214 228 229
f 214 229 215
f 214 217 228
f 215 229 224
f 217 218 230
f 217 230 228
f 218 231 232
f 218 232 230
f 219 233 234
f 219 234 220
f 220 234 235
f 220 235 236
f 220 236 237
f 220 237 221
f 221 237 223
f 221 223 222
f 223 237 238
f 223 238 226
f 224 229 239
f 224 239 240
f 224 240 241
f 225 226 242
f 225 242 243
f 225 243 244
f 225 244 227
f 226 238 245
f 226 245 242
f 228 230 232
f 228 232 246
f 228 246 229
f 229 246 247
f 229 247 248
f 229 248 239
f 231 249 250
f 231 250 232
f 232 250 251
f 232 251 247
f 232 247 246
f 233 252 253
f 233 253 234
f 233 254 252
f 234 253 255
f 234 255 235
f 235 255 236
f 236 256 237
f 236 255 256
f 237 256 238
f 238 256 257
f 238 257 245
f 239 248 240
f 240 258 259
f 240 259 254
f 240 254 241
f 240 248 247
f 240 247 258
f 242 260 261
f 242 261 243
f 242 245 260
f 245 262 263
f 245 263 260
f 245 257 264
f 245 264 262
f 247 251 265
f 247 265 266
f 247 266 267
f 247 267 258
f 249 268 269
f 249 269 250
f 250 269 251
f 251 269 270
f 251 270 265
f 252 271 253
f 252 254 272
f 252 272 273
f 252 273 271
f 253 271 255
f 254 259 267
f 254 267 272
f 255 274 275
f 255 275 276
f 255 276 256
f 255 271 277
f 255 277 274
f 256 276 278
f 256 278 264
f 256 264 257
f 258 267 259
f 262 264 263
f 263 264 279
f 264 280 279
f 264 278 275
f 264 275 280
f 265 270 281
f 265 281 282
f 265 282 283
f 265 283 284
f 265 284 266
f 266 284 267
f 267 284 285
f 267 285 272
f 268 286 269
f 269 286 270
f 270 286 281
f 271 287 277
f 271 273 285
f 271 285 287
f 272 285 273
f 274 277 288
f 274 288 275
f 275 278 276
f 275 288 289
f 275 289 280
f 277 287 288
f 282 290 283
f 282 291 287
f 282 287 290
f 283 290 284
f 284 290 285
f 285 290 287
f 287 292 288
f 287 291 292
f 288 292 289
f 293 294 295
f 293 295 304
f 293 304 318
f 293 318 336
f 293 336 335
f 293 335 350
f 293 350 364
f 293 364 380
f 293 380 379
f 293 379 378
f 293 378 396
f 293 396 412
f 293 412 431
f 293 431 441
f 293 441 444
f 293 444 443
f 293 443 445
f 293 445 438
f 293 438 437
f 293 437 424
f 293 424 411
f 293 411 393
f 293 393 391
f 293 391 373
f 293 373 358
f 293 358 347
f 293 347 328
f 293 328 312
f 293 312 300
f 293 300 296
f 293 296 294
f 294 297 298
f 294 298 299
f 294 299 295
f 294 296 300
f 294 300 301
f 294 301 302
f 294 302 297
f 295 299 303
f 295 303 304
f 297 305 306
f 297 306 307
f 297 307 298
f 297 302 308
f 297 308 305
f 298 307 309
f 298 309 299
f 299 309 303
f 300 310 311
f 300 311 301
f 300 312 310
f 301 311 313
f 301 313 302
f 302 313 314
f 302 314 308
f 303 309 307
f 303 307 315
f 303 315 316
f 303 316 317
f 303 317 304
f 304 317 318
f 305 319 320
f 305 320 306
f 305 308 321
f 305 321 319
f 306 320 307
f 307 320 322
f 307 322 323
f 307 323 324
f 307 324 315
f 308 314 321
f 310 325 326
f 310 326 313
f 310 313 311
f 310 312 327
f 310 327 325
f 312 328 329
f 312 329 327
f 313 326 314
f 314 326 325
f 314 325 330
f 314 330 331
f 314 331 321
f 315 324 316
f 316 324 317
f 317 324 332
f 317 332 333
f 317 333 334
f 317 334 335
f 317 335 336
f 317 336 318
f 319 337 320
f 319 321 340
f 319 340 356
f 319 356 371
f 319 371 390
f 319 390 382
f 319 382 365
f 319 365 351
f 319 351 337
f 320 337 338
f 320 338 322
f 321 331 339
f 321 339 340
f 322 338 323
f 323 338 341
f 323 341 324
f 324 341 342
f 324 342 332
f 325 339 330
f 325 327 343
f 325 343 344
f 325 344 345
f 325 345 346
f 325 346 339
f 327 329 347
f 327 347 343
f 328 347 329
f 330 339 331
f 332 342 333
f 333 348 349
f 333 349 350
f 333 350 335
f 333 335 334
f 333 342 348
f 337 351 338
f 338 351 352
f 338 352 341
f 339 346 353
f 339 353 340
f 340 353 345
f 340 345 354
f 340 354 355
f 340 355 356
f 341 352 357
f 341 357 342
f 342 357 348
f 343 347 358
f 343 358 359
f 343 359 360
f 343 360 344
f 344 360 345
f 345 353 346
f 345 360 361
f 345 361 354
f 348 357 362
f 348 362 349
f 349 362 363
f 349 363 364
f 349 364 350
f 351 365 366
f 351 366 352
f 352 366 367
f 352 367 357
f 354 361 368
f 354 368 355
f 355 368 369
f 355 369 370
f 355 370 356
f 356 370 371
f 357 372 362
f 357 367 366
f 357 366 372
f 358 373 374
f 358 374 375
f 358 375 359
f 359 375 360
f 360 375 361
f 361 375 374
f 361 374 368
f 362 372 376
f 362 376 377
f 362 377 363
f 363 378 379
f 363 379 380
f 363 380 364
f 363 377 381
f 363 381 378
f 365 382 383
f 365 383 384
f 365 384 385
f 365 385 366
f 366 385 376
f 366 376 372
f 368 374 386
f 368 386 387
f 368 387 369
f 369 387 370
f 370 387 388
f 370 388 389
f 370 389 371
f 371 389 390
f 373 391 374
f 374 392 386
f 374 391 393
f 374 393 392
f 376 394 377
f 376 385 384
f 376 384 395
f 376 395 394
f 377 394 381
f 378 381 394
f 378 394 397
f 378 397 398
f 378 398 396
f 382 399 400
f 382 400 401
f 382 401 383
f 382 390 399
f 383 401 384
f 384 402 403
f 384 403 394
f 384 394 395
f 384 401 402
f 386 392 404
f 386 404 387
f 387 404 405
f 387 405 406
f 387 406 407
f 387 407 408
f 387 408 388
f 388 408 389
f 389 409 410
f 389 410 390
f 389 408 409
f 390 410 399
f 392 393 405
f 392 405 404
f 393 411 405
f 394 403 398
f 394 398 397
f 396 398 413
f 396 413 414
f 396 414 412
f 398 403 413
f 399 415 416
f 399 416 400
f 399 410 417
f 399 417 418
f 399 418 419
f 399 419 415
f 400 416 401
f 401 420 402
f 401 416 421
f 401 421 422
f 401 422 420
f 402 413 403
f 402 420 413
f 405 423 406
f 405 411 424
f 405 424 425
f 405 425 423
f 406 423 407
f 407 423 425
f 407 425 426
f 407 426 427
f 407 427 409
f 407 409 408
f 409 427 418
f 409 418 410
f 410 418 417
f 412 414 428
f 412 428 422
f 412 422 429
f 412 429 430
f 412 430 431
f 413 420 414
f 414 420 422
f 414 422 428
f 415 432 416
f 415 419 432
f 416 432 433
f 416 433 422
f 416 422 421
f 418 427 434
f 418 434 435
f 418 435 436
f 418 436 419
f 419 436 432
f 422 433 429
f 424 437 425
f 425 438 439
f 425 439 440
f 425 440 426
f 425 437 438
f 426 440 427
f 427 440 434
f 429 433 430
f 430 441 431
f 430 433 432
f 430 432 435
f 430 435 434
f 430 434 442
f 430 442 443
f 430 443 444
f 430 444 441
f 432 436 435
f 434 440 442
f 438 445 440
f 438 440 439
f 440 445 442
f 442 445 443
f 446 447 448
f 446 448 453
f 446 453 466
f 446 466 478
f 446 478 494
f 446 494 509
f 446 509 508
f 446 508 507
f 446 507 533
f 446 533 532
f 446 532 555
f 446 555 575
f 446 575 576
f 446 576 588
f 446 588 589
f 446 589 586
f 446 586 585
f 446 585 582
f 446 582 581
f 446 581 580
f 446 580 579
f 446 579 584
f 446 584 583
f 446 583 566
f 446 566 565
f 446 565 564
f 446 564 558
f 446 558 535
f 446 535 534
f 446 534 512
f 446 512 511
f 446 511 510
f 446 510 495
f 446 495 485
f 446 485 469
f 446 469 455
f 446 455 449
f 446 449 447
f 447 450 451
f 447 451 452
f 447 452 453
f 447 453 448
f 447 449 454
f 447 454 450
f 449 455 454
f 450 456 457
f 450 457 451
f 450 454 458
f 450 458 459
f 450 459 456
f 451 460 461
f 451 461 462
f 451 462 463
f 451 463 452
f 451 457 464
f 451 464 460
f 452 463 465
f 452 465 453
f 453 465 466
f 454 455 467
f 454 467 468
f 454 468 458
f 455 469 467
f 456 464 457
f 456 459 471
f 456 471 464
f 458 470 459
f 458 468 470
f 459 470 471
f 460 472 461
f 460 464 472
f 461 472 473
f 461 473 474
f 461 474 462
f 462 465 463
f 462 474 475
f 462 475 465
f 464 476 472
f 464 471 487
f 464 487 500
f 464 500 519
f 464 519 524
f 464 524 503
f 464 503 488
f 464 488 476
f 465 475 477
f 465 477 466
f 466 477 478
f 467 469 479
f 467 479 480
f 467 480 481
f 467 481 468
f 468 481 482
f 468 482 483
f 468 483 484
f 468 484 471
f 468 471 470
f 469 485 480
f 469 480 479
f 471 484 486
f 471 486 487
f 472 476 488
f 472 488 473
f 473 489 490
f 473 490 491
f 473 491 492
f 473 492 493
f 473 493 474
f 473 488 489
f 474 493 477
f 474 477 475
f 477 493 492
f 477 492 494
f 477 494 478
f 480 485 495
f 480 495 496
f 480 496 497
f 480 497 482
f 480 482 481
f 482 497 498
f 482 498 483
f 483 486 484
f 483 498 499
f 483 499 486
f 486 499 487
f 487 499 501
f 487 501 502
f 487 502 520
f 487 520 500
f 488 503 529
f 488 529 504
f 488 504 489
f 489 504 490
f 490 504 529
f 490 529 505
f 490 505 506
f 490 506 491
f 491 506 533
f 491 533 507
f 491 507 508
f 491 508 509
f 491 509 494
f 491 494 492
f 495 510 496
f 496 510 511
f 496 511 512
f 496 512 513
f 496 513 514
f 496 514 515
f 496 515 498
f 496 498 497
f 498 515 499
f 499 515 514
f 499 514 516
f 499 516 517
f 499 517 501
f 500 518 519
f 500 520 521
f 500 521 522
f 500 522 523
f 500 523 518
f 501 517 502
f 502 517 537
f 502 537 520
f 503 524 525
f 503 525 526
f 503 526 527
f 503 527 528
f 503 528 529
f 505 529 528
f 505 528 530
f 505 530 506
f 506 531 532
f 506 532 533
f 506 530 526
f 506 526 531
f 512 534 514
f 512 514 513
f 514 534 516
f 516 534 535
f 516 535 558
f 516 558 536
f 516 536 537
f 516 537 517
f 518 538 539
f 518 539 519
f 518 523 538
f 519 539 540
f 519 540 541
f 519 541 542
f 519 542 524
f 520 537 543
f 520 543 521
f 521 543 522
f 522 543 523
f 523 543 544
f 523 544 545
f 523 545 546
f 523 546 547
f 523 547 538
f 524 548 549
f 524 549 550
f 524 550 551
f 524 551 525
f 524 542 548
f 525 551 552
f 525 552 526
f 526 553 554
f 526 554 531
f 526 530 527
f 526 552 553
f 527 530 528
f 531 555 532
f 531 554 556
f 531 556 557
f 531 557 555
f 536 544 543
f 536 543 537
f 536 558 544
f 538 559 540
f 538 540 539
f 538 547 559
f 540 559 560
f 540 560 561
f 540 561 562
f 540 562 563
f 540 563 541
f 541 563 542
f 542 563 548
f 544 558 564
f 544 564 565
f 544 565 566
f 544 566 545
f 545 566 567
f 545 567 546
f 546 567 547
f 547 567 568
f 547 568 559
f 548 569 549
f 548 563 569
f 549 569 550
f 550 570 571
f 550 571 552
f 550 552 551
f 550 569 572
f 550 572 573
f 550 573 570
f 552 571 553
f 553 556 554
f 553 571 574
f 553 574 556
f 555 557 556
f 555 556 575
f 556 576 575
f 556 574 577
f 556 577 576
f 559 568 578
f 559 578 560
f 560 578 561
f 561 578 579
f 561 579 562
f 562 579 580
f 562 580 581
f 562 581 582
f 562 582 572
f 562 572 569
f 562 569 563
f 566 583 567
f 567 583 584
f 567 584 578
f 567 578 568
f 570 577 571
f 570 573 577
f 571 577 574
f 572 582 585
f 572 585 573
f 573 585 586
f 573 586 587
f 573 587 577
f 576 577 588
f 577 589 588
f 577 587 586
f 577 586 589
f 578 584 579

