# https://github.com/mikedh/trimesh
v -0.00810052 -0.05302747 0.08515163
v 0.01607121 -0.05276190 0.06521346
v 0.01508087 -0.05271055 0.09725122
v -0.00927201 -0.05249504 0.06340996
v -0.01300733 -0.05131149 0.09755713
v 0.02017184 -0.05241320 0.08823962
v -0.00651421 -0.05158895 0.11811348
v -0.01557355 -0.04967832 0.06342813
v 0.02198098 -0.05162449 0.06605948
v -0.01117213 -0.04920229 0.14776687
v -0.01678773 -0.04875430 0.08391672
v -0.01656029 -0.04707386 0.12223801
v -0.00921711 -0.05111945 0.05225066
v 0.02441275 -0.04992547 0.08584297
v 0.02082652 -0.04927011 0.14096336
v 0.01353384 -0.04961963 0.14486791
v -0.00798509 -0.04917099 0.14919670
v -0.01505414 -0.04599660 0.14958952
v -0.01420367 -0.04832066 0.04816541
v 0.02061491 -0.05073601 0.05243921
v -0.01087716 -0.04910839 0.04613850
v -0.02061142 -0.04279613 0.05412044
v -0.02044790 -0.04400120 0.07064213
v 0.01508087 -0.05079861 0.04984665
v 0.02462596 -0.04681302 0.05071869
v 0.02698899 -0.04599921 0.06510347
v -0.01743079 -0.04278569 0.14911814
v -0.01431429 -0.02932649 -0.00001693
v 0.02672127 -0.04468981 0.10421971
v 0.02468047 -0.04519583 0.13730235
v 0.02305168 -0.04684432 0.14050770
v 0.00829639 -0.04775204 0.14930670
v -0.02196447 -0.04045903 0.06430214
v -0.02081021 -0.03936873 0.11827453
v 0.02030310 -0.04859389 0.04606878
v -0.02063066 -0.02534090 0.00000664
v -0.00799151 -0.03170533 -0.00000908
v 0.02391738 -0.01393188 0.14139545
v -0.01749492 -0.03781414 0.15325838
v -0.03015330 -0.01264334 0.00000664
v -0.02539518 -0.02057279 0.00000664
v -0.02709371 -0.02304814 0.04228501
v 0.00003381 -0.02850746 -0.00084969
v -0.00077738 -0.03265478 0.00080797
v 0.01438190 -0.04774682 0.14688697
v -0.01030003 -0.03723508 0.15482178
v -0.03203539 -0.00469824 -0.00029975
v -0.01857222 -0.03485624 0.15161642
v 0.00634537 -0.03183314 -0.00013084
v 0.01432740 -0.02931606 -0.00000122
v 0.03174711 -0.00784394 0.00013234
v -0.00967160 -0.01182953 0.15940197
v 0.02581549 -0.03724551 0.13573110
v -0.01557756 -0.02632165 0.15719436
v -0.01762317 -0.02010850 0.15739863
v -0.02286864 -0.01817309 0.11825882
v -0.03250190 -0.00172600 0.00525461
v 0.02423640 -0.02177004 0.00004592
v 0.02858572 -0.01582556 0.00000664
v 0.02761662 -0.04208795 0.08930071
v 0.03275388 -0.00072830 0.00239494
v 0.02682868 -0.03803846 0.12144845
v -0.00947922 0.00337207 0.15874989
v 0.02568724 0.03956323 0.13160461
v 0.02739218 0.03794474 0.11229986
v -0.01725124 0.00082629 0.15867133
v -0.02935494 0.00679164 -0.00079470
v -0.02114326 -0.00577811 0.13867328
v 0.02679581 -0.01402187 -0.00078291
v 0.03173428 0.00790020 0.00027375
v 0.02199361 0.04687972 0.13632818
v 0.01438190 0.04780830 0.14129333
v 0.02400234 0.04589115 0.13379061
v -0.00966839 0.02074904 0.15557598
v -0.02331431 -0.00272370 0.11942547
v 0.01270823 0.02703261 -0.00079863
v 0.02065338 0.04925856 0.13651673
v 0.00994441 0.04789177 0.14300598
v 0.02698899 0.04606591 0.10308056
v -0.03173720 0.00797324 0.00000664
v -0.03245461 0.00361464 0.00418027
v -0.01982267 0.02385301 -0.00074756
v 0.02836769 0.04234376 0.07920936
v -0.01587895 0.02705609 0.15400472
v -0.02141299 0.03733308 0.11348222
v -0.02324778 0.01138759 0.11693897
v -0.01868765 -0.00786480 0.15636159
v 0.02858572 0.01591312 0.00000664
v 0.01250303 0.04991195 0.13870862
v -0.01029682 0.03806342 0.14995876
v 0.02469810 0.05010758 0.09303439
v -0.01748209 0.02635705 0.15324268
v 0.02342040 0.02265576 0.00010484
v -0.00629859 0.03190766 -0.00004050
v 0.00255234 0.03234196 0.00028946
v 0.01426648 0.02939319 0.00010091
v -0.01876781 0.01789027 0.15280272
v -0.02934853 0.01431158 0.00013234
v -0.01859787 0.03574719 0.14683983
v -0.01742438 0.04286283 0.14427871
v -0.02339287 0.02264533 0.00017555
v -0.01585330 0.02861068 0.00002235
v -0.00711780 0.04998890 0.04578890
v 0.01746634 0.04948287 0.04471849
v 0.02699540 0.04448002 0.04924957
v 0.02772543 0.04606330 0.07227917
v -0.01275083 0.04563488 0.14548266
v -0.02041263 0.04251852 0.05001948
v -0.02220814 0.03973278 0.06823026
v -0.02051603 0.04188599 0.10608950
v 0.02320558 0.04704144 0.04419801
v 0.01508087 0.05227384 0.10713438
v -0.00963913 0.04944375 0.14130510
v 0.02208980 0.05238339 0.07802307
v -0.01560161 0.04699449 0.04626813
v -0.01124267 0.04934203 0.04533716
v 0.02405204 0.05103225 0.06593624
v -0.01420527 0.04763093 0.14251889
v -0.02045591 0.04414093 0.07304613
v 0.02226775 0.05023278 0.05226637
v -0.01428864 0.05047536 0.05933699
v -0.00754263 0.05215385 0.05515747
v -0.00777669 0.05273552 0.09767742
v -0.01685346 0.04855984 0.06334171
v 0.01595619 0.05214863 0.05517318
v 0.01636599 0.05319100 0.07408120
v -0.01157132 0.05250859 0.08406452
v -0.00711299 0.05332240 0.07702925
v -0.01614828 0.04957156 0.09286744
v -0.01578454 0.01831097 0.10971369
v -0.01765396 0.01827979 0.11127494
v -0.01765396 0.02410277 0.11126386
v -0.01578237 0.01835664 0.10971369
v -0.01574980 0.01672268 0.10971369
v -0.01765396 0.01734307 0.11130344
v -0.00744058 0.02079254 0.10971369
v -0.00871725 0.02087162 0.10971369
v -0.01443839 0.02104871 0.10971369
v -0.01482921 0.02101418 0.10971369
v -0.01508324 0.02068115 0.10971369
v -0.01553702 0.01989592 0.10971369
v -0.01555005 0.01984914 0.10971369
v -0.01765396 0.02410277 0.12588994
v -0.01665737 0.02410277 0.11142378
v 0.00334817 0.02075132 0.11101209
v -0.01573460 0.01664249 0.10971369
v -0.01765396 0.01672268 0.11138579
v 0.00239284 0.01989592 0.11034389
v 0.00239284 0.01831097 0.10998128
v -0.00690429 0.02005520 0.10971369
v -0.01765396 0.01413197 0.12588994
v -0.01375446 0.02410277 0.12588994
v -0.01506804 0.02410277 0.11189248
v 0.00343068 0.02078140 0.11193839
v 0.00410158 0.01989703 0.11193839
v 0.00364129 0.01989703 0.11074608
v -0.01475973 0.02410277 0.11212207
v -0.01419739 0.02410277 0.11254485
v -0.01497251 0.01452180 0.10971369
v -0.01765396 0.01620254 0.11160904
v 0.00290742 0.01830986 0.11018872
v 0.00290742 0.01785097 0.11031380
v 0.00239284 0.01707130 0.11058298
v -0.00886055 0.01396490 0.10971369
v -0.00805503 0.01436030 0.10971369
v -0.00782705 0.01451957 0.10971369
v -0.00738630 0.01510098 0.10971369
v -0.00671105 0.01669929 0.10971369
v -0.00650044 0.01831097 0.10971369
v -0.00680658 0.01989592 0.10971369
v -0.01765396 0.01272412 0.12192822
v -0.00871725 0.01455856 0.12588994
v -0.00734939 0.01806371 0.12588994
v 0.00239284 0.01831097 0.12467229
v 0.00239284 0.01989592 0.12438886
v 0.00290742 0.02036706 0.12413710
v 0.00332429 0.02075021 0.12393125
v -0.01269274 0.02410277 0.12393442
v 0.00343285 0.02078140 0.11352499
v 0.00412547 0.01989703 0.11670133
v 0.00411895 0.01989703 0.11511316
v -0.01266234 0.02410277 0.12331688
v 0.00452714 0.01830986 0.11670133
v 0.00449891 0.01830986 0.11193839
v 0.00384104 0.01830986 0.11056557
v -0.01765396 0.01272412 0.11459696
v -0.01765396 0.01532374 0.11205874
v -0.01439714 0.01420214 0.10971369
v 0.00361306 0.01721944 0.11077142
v 0.00290742 0.01713368 0.11066215
v -0.01030440 0.01391700 0.10971369
v 0.00239284 0.01664583 0.11193839
v -0.00117880 0.01577817 0.11352499
v -0.00118097 0.01577817 0.12145953
v -0.01448833 0.01272412 0.11828476
v -0.01449267 0.01272412 0.11708294
v -0.01450570 0.01272412 0.11670133
v -0.01485526 0.01272412 0.11571486
v -0.01510712 0.01272412 0.11516858
v -0.01665737 0.01272412 0.11459538
v -0.01727834 0.01272412 0.12187596
v -0.00742104 0.01526025 0.12588994
v -0.01585836 0.01272412 0.12153237
v -0.01514838 0.01272412 0.12131385
v 0.00239284 0.01664806 0.12304770
v 0.00290742 0.01690201 0.12351798
v 0.00356529 0.01722947 0.12411968
v -0.00698896 0.01717043 0.12588994
v -0.00689343 0.01671600 0.12588994
v -0.00726688 0.01556878 0.12588994
v 0.00290742 0.01830986 0.12451553
v 0.00375419 0.01830986 0.12425744
v 0.00357398 0.01989703 0.12411651
v 0.00290742 0.01989703 0.12427010
v 0.00403645 0.01989703 0.12304928
v 0.00341331 0.02078140 0.12304928
v -0.01266668 0.02410277 0.12388375
v 0.00343285 0.02078140 0.12146111
v 0.00412547 0.01989703 0.11828634
v -0.01266234 0.02410277 0.12341505
v 0.00452714 0.01830986 0.11828634
v 0.00383452 0.01707242 0.11670133
v 0.00382801 0.01707576 0.11193839
v -0.01348089 0.01386131 0.10971369
v -0.01744986 0.01272412 0.11459538
v 0.00290742 0.01679954 0.11193839
v 0.00239284 0.01662801 0.11670133
v 0.00239284 0.01662801 0.11828476
v -0.01453392 0.01272412 0.11987294
v 0.00383235 0.01707576 0.12146111
v 0.00290742 0.01680622 0.12304928
v 0.00379110 0.01708244 0.12304928
v 0.00441424 0.01830986 0.12304928
v 0.00450760 0.01830986 0.12146111
v 0.00411027 0.01989703 0.12146111
v 0.00383452 0.01707242 0.11987294
v 0.00290742 0.01678617 0.11670133
v 0.00290742 0.01678617 0.11885321
v 0.00451524 -0.02773590 0.12146160
v 0.00382227 -0.02653478 0.12146160
v 0.00378487 -0.02653678 0.12304865
v 0.00441404 -0.02773590 0.12304865
v 0.00411815 -0.02932256 0.12304865
v 0.00420615 -0.02932256 0.12146160
v 0.00451524 -0.02773590 0.11352640
v 0.00290821 -0.02627325 0.11828443
v 0.00239343 -0.02612724 0.11828598
v 0.00382227 -0.02653478 0.11352640
v 0.00290821 -0.02636527 0.12304865
v 0.00356158 -0.02667280 0.12411390
v 0.00375077 -0.02773590 0.12425325
v 0.00360888 -0.02932256 0.12414022
v 0.00337129 -0.03020115 0.12396216
v 0.00348898 -0.03024416 0.12304865
v 0.00351428 -0.03024466 0.12146160
v 0.00420615 -0.02932256 0.11352640
v 0.00419075 -0.02932256 0.11193781
v 0.00449874 -0.02773590 0.11193781
v 0.00381897 -0.02653478 0.11193781
v 0.00290821 -0.02627325 0.11612915
v 0.00239343 -0.02612724 0.11670048
v -0.00672186 -0.02612724 0.11828598
v -0.00236715 -0.02613824 0.12304865
v 0.00239343 -0.02626525 0.12304865
v 0.00290821 -0.02659729 0.12418976
v 0.00290821 -0.02726836 0.12442357
v 0.00290821 -0.02773590 0.12451027
v 0.00239343 -0.02773590 0.12466355
v 0.00239343 -0.02932256 0.12443595
v -0.00672186 -0.03087322 0.12460008
v -0.00672186 -0.03123526 0.12342335
v -0.00236715 -0.03122176 0.12146006
v -0.00078212 -0.03106374 0.12146006
v -0.00078212 -0.03106424 0.11352640
v 0.00351428 -0.03024466 0.11352640
v 0.00351208 -0.03024466 0.11193781
v 0.00340209 -0.03020215 0.11096855
v 0.00368147 -0.02932256 0.11071308
v 0.00383547 -0.02773590 0.11057372
v 0.00360668 -0.02667029 0.11078120
v 0.00290821 -0.02646477 0.11144699
v 0.00290821 -0.02639377 0.11193781
v -0.00672186 -0.02612724 0.11670048
v 0.00239343 -0.02631426 0.11193781
v -0.00236715 -0.02614524 0.11193781
v -0.00672186 -0.02619225 0.12304865
v -0.00672186 -0.02653878 0.12425170
v 0.00239343 -0.02653878 0.12424860
v -0.00672186 -0.02781891 0.12487878
v -0.00672186 -0.02915505 0.12498096
v -0.00672186 -0.02932256 0.12496394
v -0.00672186 -0.03084622 0.12461092
v -0.00657666 -0.03123526 0.12304865
v -0.00672186 -0.03123526 0.11156776
v -0.00236715 -0.03122526 0.11352640
v -0.00672186 -0.03089172 0.11036161
v 0.00290821 -0.03022316 0.11092520
v 0.00290821 -0.02977011 0.11062947
v -0.00078212 -0.03077621 0.11193781
v 0.00239343 -0.02932256 0.11027955
v 0.00290821 -0.02836847 0.11028264
v 0.00290821 -0.02773590 0.11020213
v 0.00239343 -0.02773590 0.10999775
v 0.00239343 -0.02653478 0.11060005
v 0.00290821 -0.02659179 0.11067747
v -0.00672186 -0.02623725 0.11197187
v -0.00672186 -0.02647177 0.11035851
v -0.00672186 -0.02625775 0.11159098
v -0.00672186 -0.02744737 0.12474871
v -0.00651067 -0.03123526 0.12169850
v -0.00657006 -0.03123526 0.11193781
v -0.00649637 -0.03123526 0.11537201
v -0.00649857 -0.03123526 0.11378187
v -0.00650407 -0.03123526 0.11352640
v -0.00650627 -0.03123526 0.12146006
v -0.00649637 -0.03123526 0.11828598
v -0.00672186 -0.02932256 0.10924216
v 0.00239343 -0.03024466 0.11088184
v -0.00672186 -0.02773590 0.10916474
f 1 2 3
f 1 4 2
f 1 5 4
f 3 2 6
f 5 8 4
f 2 9 6
f 3 7 1
f 7 10 1
f 1 10 5
f 5 11 8
f 5 12 11
f 6 9 14
f 4 8 13
f 14 15 6
f 6 15 3
f 3 16 7
f 10 7 16
f 5 18 12
f 9 2 20
f 8 19 13
f 10 18 5
f 3 15 16
f 10 16 17
f 8 22 19
f 8 23 22
f 12 23 11
f 2 24 20
f 4 13 2
f 13 19 21
f 9 26 14
f 17 18 10
f 11 23 8
f 18 27 12
f 2 13 24
f 20 25 9
f 25 26 9
f 14 29 30
f 14 30 15
f 23 33 22
f 12 27 23
f 19 36 28
f 19 28 21
f 28 37 21
f 30 31 15
f 16 32 17
f 22 40 41
f 22 41 19
f 19 41 36
f 27 34 23
f 18 39 27
f 23 34 42
f 20 24 35
f 35 25 20
f 13 21 24
f 21 37 44
f 21 44 24
f 14 26 29
f 31 30 38
f 15 31 45
f 15 45 16
f 31 38 45
f 32 46 17
f 17 39 18
f 33 40 22
f 39 48 27
f 27 48 34
f 23 42 33
f 24 44 49
f 35 49 50
f 36 41 28
f 28 41 43
f 28 43 37
f 44 37 49
f 26 25 51
f 38 30 53
f 45 32 16
f 45 52 32
f 32 52 46
f 17 46 39
f 40 33 42
f 40 42 47
f 34 48 56
f 34 57 42
f 24 49 35
f 35 50 58
f 25 59 51
f 26 51 61
f 26 61 60
f 26 60 29
f 29 62 30
f 29 60 62
f 45 38 52
f 52 38 63
f 38 53 64
f 52 63 66
f 52 54 46
f 46 54 39
f 40 47 41
f 39 54 55
f 39 55 48
f 34 56 57
f 57 47 42
f 49 43 50
f 25 58 59
f 35 58 25
f 37 43 49
f 62 53 30
f 60 61 62
f 53 62 65
f 53 65 64
f 52 55 54
f 47 67 43
f 47 43 41
f 48 68 56
f 50 43 69
f 50 69 58
f 51 59 69
f 51 69 70
f 51 70 61
f 62 61 65
f 38 71 72
f 38 72 63
f 64 73 38
f 38 73 71
f 63 72 74
f 52 66 55
f 57 56 75
f 58 69 59
f 43 76 69
f 72 78 74
f 64 65 79
f 71 73 77
f 47 80 67
f 57 81 47
f 43 67 76
f 75 56 68
f 61 83 65
f 77 72 71
f 64 79 73
f 63 74 66
f 57 75 86
f 57 86 81
f 47 81 80
f 48 55 87
f 48 87 68
f 76 70 69
f 76 67 82
f 70 76 88
f 72 77 89
f 78 90 74
f 73 79 91
f 73 91 77
f 74 84 66
f 66 92 87
f 66 87 55
f 81 86 85
f 82 94 76
f 76 94 95
f 61 70 83
f 65 83 79
f 72 89 78
f 74 90 84
f 92 97 87
f 81 85 80
f 85 99 100
f 68 86 75
f 76 96 93
f 76 93 88
f 82 67 98
f 82 98 101
f 82 102 94
f 94 103 95
f 76 95 96
f 70 105 83
f 90 78 107
f 84 92 66
f 84 90 92
f 97 68 87
f 67 80 98
f 80 109 108
f 80 108 98
f 85 86 99
f 82 101 102
f 103 104 95
f 95 104 96
f 105 106 83
f 106 79 83
f 89 112 113
f 89 113 78
f 78 113 107
f 90 107 92
f 80 85 109
f 98 108 101
f 85 100 110
f 86 68 97
f 96 111 93
f 93 111 88
f 102 116 94
f 102 101 115
f 94 116 103
f 96 104 111
f 88 111 105
f 70 88 105
f 106 91 79
f 89 77 112
f 113 118 107
f 91 114 77
f 92 107 100
f 92 100 99
f 92 99 97
f 101 108 115
f 109 119 108
f 85 110 109
f 99 86 97
f 100 107 118
f 111 104 120
f 102 115 116
f 103 116 122
f 105 111 117
f 105 117 106
f 106 117 91
f 77 114 112
f 112 123 113
f 108 124 121
f 115 108 121
f 115 121 116
f 104 125 120
f 111 120 117
f 114 126 112
f 108 119 124
f 118 110 100
f 116 121 122
f 103 122 125
f 103 125 104
f 109 110 119
f 117 114 91
f 126 123 112
f 123 126 128
f 123 118 113
f 119 129 124
f 124 129 121
f 110 129 119
f 118 129 110
f 127 123 128
f 118 123 127
f 126 114 125
f 120 125 117
f 117 125 114
f 121 127 122
f 125 122 126
f 122 128 126
f 127 129 118
f 129 127 121
f 122 127 128
f 130 131 132
f 130 132 133
f 130 133 142
f 130 142 141
f 130 141 140
f 130 140 139
f 130 139 138
f 130 138 137
f 130 137 136
f 130 136 150
f 130 150 170
f 130 170 169
f 130 169 168
f 130 168 167
f 130 167 166
f 130 166 165
f 130 165 164
f 130 164 191
f 130 191 224
f 130 224 188
f 130 188 159
f 130 159 146
f 130 146 134
f 130 134 131
f 131 134 135
f 131 135 147
f 131 147 160
f 131 160 187
f 131 187 186
f 131 186 171
f 131 171 151
f 131 151 143
f 131 143 132
f 132 136 137
f 132 137 138
f 132 138 139
f 132 139 140
f 132 140 141
f 132 141 142
f 132 142 133
f 132 143 152
f 132 152 178
f 132 178 217
f 132 217 220
f 132 220 182
f 132 182 158
f 132 158 157
f 132 157 153
f 132 153 144
f 132 144 145
f 132 145 136
f 134 146 147
f 134 147 135
f 136 148 149
f 136 149 150
f 136 145 148
f 143 151 172
f 143 172 202
f 143 202 210
f 143 210 209
f 143 209 208
f 143 208 173
f 143 173 152
f 144 153 145
f 145 154 155
f 145 155 156
f 145 156 148
f 145 153 157
f 145 157 158
f 145 158 154
f 146 159 147
f 147 159 160
f 148 156 149
f 149 156 161
f 149 161 162
f 149 162 163
f 149 163 164
f 149 164 165
f 149 165 166
f 149 166 167
f 149 167 168
f 149 168 169
f 149 169 170
f 149 170 150
f 151 171 172
f 152 173 174
f 152 174 175
f 152 175 176
f 152 176 177
f 152 177 178
f 154 179 180
f 154 180 181
f 154 181 155
f 154 158 182
f 154 182 179
f 155 181 183
f 155 183 184
f 155 184 156
f 156 184 185
f 156 185 161
f 159 186 187
f 159 187 160
f 159 188 186
f 161 185 162
f 162 185 189
f 162 189 190
f 162 190 163
f 163 190 164
f 164 190 189
f 164 189 192
f 164 192 193
f 164 193 194
f 164 194 195
f 164 195 196
f 164 196 197
f 164 197 198
f 164 198 199
f 164 199 200
f 164 200 191
f 171 186 225
f 171 225 200
f 171 200 199
f 171 199 198
f 171 198 197
f 171 197 196
f 171 196 195
f 171 195 229
f 171 229 204
f 171 204 203
f 171 203 201
f 171 201 172
f 172 201 203
f 172 203 204
f 172 204 205
f 172 205 206
f 172 206 207
f 172 207 202
f 173 208 174
f 174 208 209
f 174 209 210
f 174 210 202
f 174 202 207
f 174 207 211
f 174 211 212
f 174 212 213
f 174 213 214
f 174 214 175
f 175 214 176
f 176 214 213
f 176 213 177
f 177 213 215
f 177 215 216
f 177 216 217
f 177 217 178
f 179 218 219
f 179 219 180
f 179 182 220
f 179 220 218
f 180 219 221
f 180 221 183
f 180 183 181
f 183 221 236
f 183 236 222
f 183 222 223
f 183 223 184
f 184 223 189
f 184 189 185
f 186 188 224
f 186 224 225
f 189 223 226
f 189 226 192
f 191 200 224
f 192 227 193
f 192 226 227
f 193 227 228
f 193 228 194
f 194 228 205
f 194 205 229
f 194 229 195
f 200 225 224
f 204 229 205
f 205 228 230
f 205 230 231
f 205 231 206
f 206 231 207
f 207 231 232
f 207 232 233
f 207 233 212
f 207 212 211
f 212 233 213
f 213 233 215
f 215 233 234
f 215 234 235
f 215 235 216
f 216 235 218
f 216 218 217
f 217 218 220
f 218 235 219
f 219 235 221
f 221 234 230
f 221 230 236
f 221 235 234
f 222 236 238
f 222 238 237
f 222 237 223
f 223 237 227
f 223 227 226
f 227 237 238
f 227 238 228
f 228 238 230
f 230 234 232
f 230 232 231
f 230 238 236
f 232 234 233
f 239 240 241
f 239 241 242
f 239 242 243
f 239 243 244
f 239 244 256
f 239 256 245
f 239 245 248
f 239 248 240
f 240 246 247
f 240 247 241
f 240 248 260
f 240 260 246
f 241 247 249
f 241 249 250
f 241 250 242
f 242 250 251
f 242 251 252
f 242 252 243
f 243 252 253
f 243 253 254
f 243 254 244
f 244 254 255
f 244 255 275
f 244 275 256
f 245 256 257
f 245 257 258
f 245 258 259
f 245 259 248
f 246 260 261
f 246 261 247
f 247 261 283
f 247 283 262
f 247 262 263
f 247 263 264
f 247 264 249
f 248 259 260
f 249 264 250
f 250 265 266
f 250 266 267
f 250 267 251
f 250 264 265
f 251 267 252
f 252 267 268
f 252 268 269
f 252 269 253
f 253 269 270
f 253 270 271
f 253 271 272
f 253 272 273
f 253 273 254
f 254 273 255
f 255 273 274
f 255 274 275
f 256 275 276
f 256 276 257
f 257 276 277
f 257 277 278
f 257 278 258
f 258 278 279
f 258 279 280
f 258 280 259
f 259 280 281
f 259 281 282
f 259 282 261
f 259 261 260
f 261 282 284
f 261 284 285
f 261 285 283
f 262 286 263
f 262 283 306
f 262 306 308
f 262 308 307
f 262 307 319
f 262 319 317
f 262 317 296
f 262 296 294
f 262 294 271
f 262 271 270
f 262 270 292
f 262 292 291
f 262 291 290
f 262 290 289
f 262 289 309
f 262 309 287
f 262 287 286
f 263 286 287
f 263 287 288
f 263 288 264
f 264 288 265
f 265 288 266
f 266 268 267
f 266 288 268
f 268 288 289
f 268 289 290
f 268 290 291
f 268 291 269
f 269 291 292
f 269 292 270
f 271 293 272
f 271 294 311
f 271 311 314
f 271 314 313
f 271 313 312
f 271 312 316
f 271 316 315
f 271 315 310
f 271 310 293
f 272 293 295
f 272 295 273
f 273 295 274
f 274 295 277
f 274 277 276
f 274 276 275
f 277 294 296
f 277 296 297
f 277 297 298
f 277 298 278
f 277 295 299
f 277 299 294
f 278 298 300
f 278 300 301
f 278 301 302
f 278 302 279
f 279 302 280
f 280 302 303
f 280 303 304
f 280 304 305
f 280 305 281
f 281 305 304
f 281 304 284
f 281 284 282
f 283 285 306
f 284 304 285
f 285 304 307
f 285 307 308
f 285 308 306
f 287 309 288
f 288 309 289
f 293 310 295
f 294 299 295
f 294 295 311
f 295 312 313
f 295 313 314
f 295 314 311
f 295 310 315
f 295 315 316
f 295 316 312
f 296 317 318
f 296 318 297
f 297 318 317
f 297 317 298
f 298 317 300
f 300 317 303
f 300 303 301
f 301 303 302
f 303 317 319
f 303 319 304
f 304 319 307

