# https://github.com/mikedh/trimesh
v 0.00302385 0.00018612 0.00455366
v 0.00200974 -0.00343475 -0.01142825
v 0.00200758 0.00345972 -0.01142825
v 0.00298294 -0.00187435 0.00455366
v 0.00200974 -0.00446885 -0.01074578
v 0.00188916 0.00469060 -0.01055055
v 0.00286883 0.00293187 0.00421413
v 0.00179443 -0.00489175 -0.01022290
v 0.00234778 -0.00514332 -0.00012852
v 0.00235208 0.00517292 0.00371501
v 0.00234778 0.00344583 0.00609176
v 0.00201835 -0.00584713 0.00340604
v 0.00119478 -0.00672611 0.00311234
v 0.00034323 -0.00722540 0.00297822
v -0.00263452 -0.00783351 0.00009218
v 0.00234993 -0.00342241 0.00609176
v 0.00045734 0.00489704 -0.01067363
v -0.00263452 0.00786003 0.00008878
v 0.00076955 0.00699995 0.00304443
v 0.00202050 0.00587364 0.00336529
v 0.00064527 0.00203396 0.01003546
v -0.00012130 -0.00489560 -0.01067278
v -0.00648052 -0.00768149 -0.00113015
v -0.00094326 -0.00351810 -0.01148342
v -0.00110635 0.00765051 0.00288315
v 0.00095485 -0.00085039 0.00960170
v -0.00074409 -0.00651543 0.00849567
v -0.00330239 -0.00741915 0.00904126
v -0.00461216 -0.00770309 0.00746942
v -0.00757807 0.00759301 -0.00148666
v -0.00199720 0.00722606 0.00835179
v -0.00697304 0.00773385 0.00643808
v -0.00050900 0.00628091 0.00861747
v -0.00796738 -0.00762853 0.00755112
v -0.00898405 -0.00754644 0.00368785
v -0.00187448 0.00349059 -0.01144183
v -0.00302558 0.00488006 -0.01025643
v -0.00449105 0.00752009 0.01006007
v 0.00003749 0.00469408 0.01002251
v -0.00908094 -0.00723775 -0.00184996
v -0.00390701 -0.00483155 -0.01008369
v -0.00022519 -0.00437933 0.01090297
v -0.00876982 0.00759513 0.00368743
v -0.00108072 -0.00089466 0.01290124
v -0.00349577 -0.00651697 0.01296395
v -0.00577874 -0.00674405 0.01450395
v -0.00654242 -0.00731299 0.01243024
v -0.00373476 -0.00348955 -0.01093422
v -0.00919721 0.00724343 -0.00180073
v -0.00919721 0.00735086 0.01174173
v -0.00555468 0.00688092 0.01392218
v -0.00235644 0.00501911 0.01364535
v -0.01018010 -0.00668984 -0.00212499
v -0.00733584 -0.00483773 -0.00787501
v -0.00337143 0.00603801 0.01371708
v -0.00128022 0.00326679 0.01302676
v -0.00233632 -0.00371566 0.01429174
v -0.01223387 -0.00697894 0.01297657
v -0.00645953 -0.00348646 -0.00956590
v -0.00426658 0.00339953 -0.01077294
v -0.01234788 0.00704273 0.01022952
v -0.00714206 0.00485035 -0.00802441
v -0.00346886 -0.00505704 0.01499447
v -0.00632566 -0.00557698 0.01723132
v -0.00868423 -0.00669601 0.01617340
v -0.00678249 0.00348750 -0.00938425
v -0.01219542 0.00630387 0.00258521
v -0.01008133 0.00659490 0.01678838
v -0.00362953 0.00334319 0.01592299
v -0.01318935 -0.00640585 0.01714977
v -0.01142783 -0.00552609 -0.00251545
v -0.00833596 -0.00349495 -0.00802950
v -0.01174649 0.00518527 -0.00250866
v -0.00627140 0.00628998 0.01615939
v -0.00863955 -0.00582861 0.01846102
v -0.01363127 -0.00665086 0.01136176
v -0.01225947 -0.00418872 -0.00247726
v -0.01314561 0.00674244 0.01492975
v -0.00630047 0.00530383 0.01754809
v -0.00636519 -0.00441497 0.01816424
v -0.01526239 -0.00583333 0.01239544
v -0.01406163 -0.00525696 0.00577387
v -0.00899482 0.00347516 -0.00731648
v -0.01049930 0.00558618 0.01948471
v -0.00529725 0.00433576 0.01733323
v -0.00516154 -0.00300891 0.01747265
v -0.01273639 0.00238357 -0.00228457
v -0.01764010 -0.00255037 0.01537379
v -0.01496243 0.00535090 0.00937930
v -0.01553597 0.00588058 0.01403603
v -0.01364244 0.00587542 0.01882156
v -0.01379518 -0.00565497 0.01946095
v -0.01268794 -0.00259725 -0.00231937
v -0.01689674 -0.00430139 0.01463276
v -0.01242903 0.00381780 -0.00251885
v -0.00707115 0.00271671 0.01909722
v -0.01051670 -0.00320461 0.02114881
v -0.01052783 -0.00510474 0.02013832
v -0.01564524 -0.00580430 0.01708420
v -0.00794410 0.00416198 0.01950678
v -0.01818241 -0.00302259 0.01843794
v -0.01827311 0.00009737 0.01681088
v -0.01553166 0.00586129 0.01748655
v -0.01790870 0.00236080 0.01608088
v -0.01725227 0.00405278 0.01579100
v -0.00790723 -0.00222741 0.01979709
v -0.01396635 -0.00439939 0.02150325
v -0.01890344 -0.00102045 0.02009588
v -0.01544904 0.00483405 0.02065059
v -0.01335648 0.00452247 0.02127449
v -0.01327951 0.00335038 0.02205372
v -0.01346138 -0.00365165 0.02192926
v -0.01609659 -0.00447956 0.02085262
v -0.01730031 -0.00444635 0.01912826
v -0.01891205 0.00105507 0.02026225
v -0.01691396 0.00484572 0.01923855
v -0.01021455 0.00224466 0.02124181
v -0.01851265 0.00237026 0.02059542
v -0.01721324 0.00392265 0.02086132
v -0.01733247 -0.00279539 0.02199939
v -0.01860092 -0.00219924 0.02084455
v -0.01647298 0.00295541 0.02228524
v -0.01309003 -0.00107177 0.02259316
v -0.01625942 -0.00179159 0.02282786
v -0.01857670 0.00005589 0.02186740
v -0.01788798 0.00193115 0.02217150
v -0.01483076 0.00070717 0.02294824
v -0.01671372 0.00026946 0.02302267
v -0.01783065 -0.00106270 0.02250148
f 1 2 3
f 1 4 2
f 2 4 5
f 3 6 7
f 3 7 1
f 5 4 9
f 5 9 8
f 6 10 7
f 7 11 1
f 8 9 12
f 8 12 13
f 8 13 14
f 8 14 15
f 9 4 12
f 4 1 16
f 6 18 19
f 6 19 20
f 6 20 10
f 11 21 1
f 8 22 5
f 8 15 23
f 8 23 22
f 6 17 18
f 18 25 19
f 10 11 7
f 21 26 1
f 1 26 16
f 12 27 13
f 14 27 28
f 14 28 29
f 14 29 15
f 4 16 12
f 2 24 3
f 6 3 17
f 17 30 18
f 19 25 31
f 13 27 14
f 2 5 24
f 18 32 25
f 19 31 33
f 19 33 20
f 15 29 34
f 15 34 23
f 23 34 35
f 22 24 5
f 3 36 17
f 17 36 37
f 25 32 38
f 23 40 41
f 23 41 22
f 24 36 3
f 17 37 30
f 30 43 32
f 30 32 18
f 31 25 38
f 20 39 11
f 21 44 26
f 16 26 42
f 27 45 28
f 28 45 46
f 29 28 47
f 24 22 48
f 30 37 49
f 38 51 31
f 20 33 39
f 11 10 20
f 11 39 21
f 23 35 40
f 40 53 54
f 40 54 41
f 16 42 12
f 24 48 36
f 22 41 48
f 32 50 38
f 31 51 55
f 31 55 33
f 21 39 56
f 21 56 44
f 12 42 27
f 27 42 45
f 46 47 28
f 35 34 58
f 41 54 59
f 49 43 30
f 43 61 50
f 32 43 50
f 49 37 62
f 39 52 56
f 26 44 57
f 26 57 42
f 45 64 46
f 46 65 47
f 41 59 48
f 48 59 60
f 48 60 36
f 37 60 66
f 38 50 68
f 38 68 51
f 55 52 33
f 33 52 39
f 44 56 69
f 57 63 42
f 45 42 63
f 63 64 45
f 65 70 47
f 47 34 29
f 53 71 54
f 54 71 72
f 60 59 66
f 60 37 36
f 62 37 66
f 49 62 73
f 51 74 55
f 52 69 56
f 34 47 58
f 35 58 76
f 40 35 76
f 40 76 53
f 71 77 72
f 54 72 59
f 43 49 61
f 61 78 50
f 49 73 67
f 51 68 74
f 74 79 55
f 55 79 52
f 44 69 57
f 64 75 46
f 53 76 81
f 71 82 77
f 49 67 61
f 68 84 74
f 52 85 69
f 69 86 57
f 63 57 86
f 63 80 64
f 46 75 65
f 53 81 71
f 72 87 83
f 59 72 66
f 73 62 83
f 62 66 83
f 61 67 90
f 78 68 50
f 68 78 91
f 74 84 79
f 79 85 52
f 86 80 63
f 75 92 65
f 65 92 70
f 58 47 70
f 71 81 82
f 72 77 93
f 72 93 87
f 72 83 66
f 77 82 94
f 77 94 88
f 77 88 93
f 73 83 95
f 73 89 67
f 67 89 90
f 85 96 69
f 80 97 64
f 58 70 99
f 76 58 99
f 76 99 81
f 81 94 82
f 83 87 95
f 73 95 89
f 68 91 84
f 79 100 85
f 69 96 86
f 64 98 75
f 93 88 102
f 93 102 87
f 87 104 95
f 95 104 105
f 61 90 78
f 84 100 79
f 80 86 106
f 80 106 97
f 97 98 64
f 98 107 75
f 75 107 92
f 81 99 94
f 88 101 108
f 95 105 89
f 89 105 90
f 100 84 111
f 100 96 85
f 96 106 86
f 98 112 107
f 70 92 99
f 99 114 94
f 88 108 102
f 88 94 101
f 78 90 103
f 90 105 116
f 90 116 103
f 91 109 110
f 111 84 110
f 102 104 87
f 78 103 91
f 91 116 109
f 91 110 84
f 100 111 117
f 96 100 117
f 98 97 112
f 107 113 92
f 92 113 99
f 94 114 101
f 115 118 104
f 104 118 105
f 105 118 116
f 103 116 91
f 109 116 119
f 96 117 106
f 107 120 113
f 99 113 114
f 101 114 121
f 108 115 102
f 102 115 104
f 119 122 109
f 109 122 110
f 106 117 97
f 112 124 120
f 112 120 107
f 110 122 111
f 117 123 97
f 97 123 112
f 121 114 120
f 108 101 121
f 115 108 125
f 116 118 119
f 119 126 122
f 111 123 117
f 123 124 112
f 120 114 113
f 108 121 125
f 119 118 126
f 111 122 127
f 127 123 111
f 123 127 128
f 123 128 124
f 115 125 118
f 122 128 127
f 120 124 129
f 120 129 121
f 126 128 122
f 126 118 125
f 124 128 129
f 129 125 121
f 125 129 126
f 126 129 128

