# https://github.com/mikedh/trimesh
v 0.01116816 0.00448481 0.00817525
v 0.01113539 -0.00479379 0.00817003
v 0.01110482 0.00475276 0.00737771
v 0.01113539 0.00479399 0.00817525
v 0.00872315 0.00527578 0.03084503
v 0.00879413 0.00448481 0.03084503
v 0.00879850 -0.00395559 0.03085024
v 0.01110482 -0.00475085 0.00737250
v 0.00491587 0.00858693 0.00013605
v 0.00745970 0.00741680 0.02084197
v 0.00744878 0.00741680 0.03157480
v 0.00794892 0.00686802 0.03196314
v 0.00840756 0.00616465 0.03137672
v 0.00874390 -0.00501365 0.03085024
v 0.00848619 -0.00584841 0.03122034
v 0.00795220 -0.00662993 0.03189798
v 0.00494590 -0.00860348 0.00079415
v 0.00682197 -0.00759094 0.03137672
v 0.00727843 -0.00731183 0.02241097
v 0.00434530 -0.00854165 -0.00228653
v 0.01059048 -0.00462375 0.00630391
v 0.01058721 0.00476650 0.00631433
v 0.00434530 0.00854184 -0.00227610
v 0.00450691 0.00876685 0.00079936
v 0.00648781 0.00797846 0.03189798
v 0.00638626 0.00792693 0.03385011
v 0.00704528 -0.00715638 0.03366767
v 0.00450691 -0.00876837 0.00079415
v 0.00407011 -0.00817751 -0.00291204
v 0.00393580 0.00817771 -0.00308406
v 0.00371521 0.00874968 -0.00237514
v 0.00382332 0.00845768 0.03612022
v 0.00703409 0.00715443 0.03384946
v 0.00187081 0.00858135 0.03664670
v 0.00787548 0.00567083 0.03295680
v 0.00802864 -0.00548084 0.03268379
v 0.00587192 -0.00793017 0.03401431
v 0.00345422 -0.00827713 0.03613064
v 0.00213289 -0.00836559 0.03665191
v 0.00345204 -0.00873918 -0.00291204
v 0.00267453 -0.00845577 -0.00422563
v 0.00317576 -0.00817751 -0.00385553
v 0.00327732 0.00817771 -0.00378255
v 0.00267890 0.00845596 -0.00423605
v 0.00563714 0.00796987 0.03515327
v -0.00445846 0.00877201 0.00237358
v -0.00709893 0.00871189 0.00342132
v 0.00272913 0.00846455 0.03749115
v 0.00530845 -0.00791987 0.03534875
v 0.00239716 -0.00833725 0.03717839
v -0.00709893 -0.00870826 0.00342132
v -0.00498699 -0.00876837 0.00290005
v -0.00182017 0.00876342 -0.00395978
v -0.00250595 0.00793380 0.04116084
v 0.00782443 -0.00527644 0.03305779
v 0.00730464 -0.00632763 0.03368070
v 0.00624430 -0.00732299 0.03472063
v -0.00017943 -0.00793447 0.03997888
v -0.00254308 -0.00792330 0.04116084
v -0.00069950 -0.00874025 -0.00435725
v 0.00162838 -0.00845920 -0.00476253
v 0.00162838 0.00845596 -0.00477296
v -0.00214996 0.00448481 0.04633179
v -0.00374210 0.00851436 -0.00323523
v -0.00842463 0.00844394 0.00315026
v -0.00446064 0.00777922 0.04140584
v -0.00411557 0.00527664 0.04694688
v -0.00276694 0.00487729 0.04676965
v -0.00551552 0.00757139 0.04193231
v -0.00698536 0.00693157 0.04369419
v -0.00214996 -0.00448462 0.04633700
v -0.00247756 -0.00491059 0.04652987
v 0.00322271 -0.00794220 0.03747030
v -0.00373992 -0.00527301 0.04687911
v -0.00696571 -0.00692021 0.04368898
v -0.00446064 -0.00775326 0.04141105
v -0.00340358 -0.00874433 -0.00291204
v 0.00028522 -0.00817751 -0.00501795
v 0.00028740 0.00817771 -0.00501795
v -0.00925674 0.00793896 0.00342132
v -0.00790702 0.00634500 0.04433013
v -0.00789610 -0.00633450 0.04431971
v -0.00551552 -0.00754543 0.04193231
v -0.00842900 -0.00844890 0.00314505
v -0.00156901 -0.00845233 -0.00476253
v -0.00157119 0.00845253 -0.00476253
v -0.00989119 0.00728626 0.00303819
v -0.00419419 0.00369127 0.04800504
v -0.00408499 0.00263665 0.04810409
v -0.00842244 0.00580910 0.04431449
v -0.00518464 0.00490391 0.04706416
v -0.00996436 0.00734809 0.00342132
v -0.00426954 -0.00289925 0.04814057
v -0.00419201 -0.00369279 0.04800504
v -0.00538885 -0.00485734 0.04702507
v -0.00840279 -0.00578143 0.04404344
v -0.00995999 -0.00734275 0.00342132
v -0.00925783 -0.00794220 0.00342132
v -0.00898810 -0.00482814 0.04435619
v -0.00373992 -0.00851588 -0.00325086
v -0.00264136 -0.00847123 -0.00423605
v -0.00265119 0.00832370 -0.00424909
v -0.01105855 0.00528866 0.00315026
v -0.01058899 0.00644119 0.00307207
v -0.00323978 0.00817771 -0.00379819
v -0.00446064 0.00250053 0.04820313
v -0.00899247 0.00483693 0.04436141
v -0.00553846 0.00345338 0.04775484
v -0.01065997 -0.00633021 0.00342132
v -0.00989010 -0.00728349 0.00303037
v -0.00628866 -0.00307789 0.04745772
v -0.00323978 -0.00817751 -0.00379819
v -0.01059335 -0.00644271 0.00306165
v -0.01106073 -0.00529706 0.00314505
v -0.01078992 0.00606159 0.00342653
v -0.01110005 0.00448138 0.00308771
v -0.00928404 0.00412669 0.04404344
v -0.00949698 0.00330652 0.04434055
v -0.00631050 0.00280111 0.04747596
v -0.00528866 -0.00257011 0.04803502
v -0.00949480 -0.00330118 0.04434055
v -0.00939651 -0.00377438 0.04404344
v -0.01110005 -0.00447947 0.00308771
v -0.01112953 -0.00395559 0.00421364
v -0.01111752 0.00395579 0.00448470
v -0.00565421 0.00210676 0.04795292
v -0.00636729 -0.00184120 0.04752548
v -0.00957779 -0.00210485 0.04404344
v -0.00957779 0.00237214 0.04404344
v -0.00129505 0.00487167 0.02670266
v -0.00070527 0.00487167 0.02665505
v -0.00180236 0.00487167 0.02659434
v -0.00164127 -0.00342827 0.02535664
v -0.00129505 -0.00342827 0.02540355
v -0.00036287 0.00487167 0.02652397
v -0.00075169 -0.00342827 0.02535802
v -0.00029243 -0.00342827 0.02519451
v -0.00288362 0.00487167 0.02609898
v -0.00190448 -0.00342827 0.02523866
v -0.00007072 0.00487167 0.02641151
v -0.00028478 -0.00342827 0.02519106
v -0.00388351 0.00487167 0.02550428
v -0.00267119 -0.00342827 0.02484127
v -0.00234954 -0.00342827 0.02502893
v 0.00025202 0.00487167 0.02625076
v 0.00018267 -0.00342827 0.02490130
v -0.00446072 0.00487167 0.02503928
v -0.00292239 -0.00342827 0.02452391
v 0.00105532 0.00342470 0.02360564
v 0.00111812 0.00342470 0.02334140
v 0.00025202 0.00487167 0.01988149
v 0.00025147 -0.00342827 0.02484058
v 0.00064794 -0.00271170 0.02440525
v 0.00087784 -0.00271170 0.02399613
v 0.00093845 -0.00271170 0.02383055
v 0.00104603 -0.00271170 0.02353665
v -0.00446072 0.00487167 0.02109160
v -0.00446072 0.00454019 0.02438455
v -0.00342042 -0.00342827 0.02346835
v -0.00325987 -0.00342827 0.02397405
v -0.00312881 -0.00342827 0.02423829
v 0.00111703 0.00342470 0.02296057
v 0.00109136 -0.00271170 0.02327310
v 0.00109136 -0.00271170 0.02310683
v 0.00023837 0.00487167 0.01985872
v 0.00111211 0.00342470 0.02293573
v 0.00099142 0.00342470 0.02249419
v 0.00094610 -0.00271170 0.02241416
v 0.00070145 -0.00271170 0.02192363
v 0.00025147 -0.00342827 0.02142896
v -0.00446072 0.00453369 0.02194157
v -0.00298465 0.00487167 0.02009536
v -0.00238067 -0.00342827 0.02123441
v -0.00273891 -0.00342827 0.02149796
v -0.00300267 -0.00342827 0.02182773
v -0.00318506 -0.00342827 0.02209335
v -0.00331612 -0.00342827 0.02241416
v -0.00343298 -0.00342827 0.02294194
v -0.00446072 0.00441182 0.02399613
v -0.00446072 0.00438664 0.02387401
v -0.00446072 0.00431271 0.02346766
v 0.00106023 -0.00271170 0.02284260
v -0.00024000 0.00487167 0.01972764
v 0.00063701 -0.00271170 0.02182842
v 0.00052179 -0.00271170 0.02166008
v -0.00010731 -0.00342827 0.02117508
v -0.00037161 -0.00342827 0.02101777
v -0.00446072 0.00438908 0.02233482
v -0.00270232 0.00487167 0.01993047
v -0.00211746 -0.00342827 0.02107297
v -0.00446072 0.00430377 0.02294125
v -0.00446072 0.00436876 0.02241416
v -0.00076753 0.00487167 0.01966486
v -0.00076971 -0.00342827 0.02091084
v -0.00235719 0.00487167 0.01979663
v -0.00182311 -0.00342827 0.02096603
v -0.00129559 0.00487167 0.01965451
v -0.00129723 -0.00342827 0.02088117
v -0.00182257 0.00487167 0.01967865
v -0.00181602 0.00487167 0.01967796
f 1 2 3
f 1 3 4
f 1 4 5
f 1 5 6
f 1 6 7
f 1 7 2
f 2 8 3
f 3 9 4
f 4 10 11
f 4 11 12
f 4 9 10
f 4 12 13
f 4 13 5
f 5 13 6
f 2 7 14
f 2 14 15
f 2 15 16
f 2 17 8
f 2 16 18
f 2 18 19
f 2 19 17
f 8 17 20
f 8 20 21
f 3 22 23
f 3 23 9
f 10 25 11
f 11 25 26
f 9 24 25
f 9 25 10
f 15 14 16
f 17 19 18
f 17 18 28
f 17 28 20
f 21 20 29
f 21 22 3
f 21 3 8
f 22 30 23
f 9 23 24
f 24 23 31
f 26 33 11
f 11 33 12
f 24 34 32
f 24 32 25
f 6 13 35
f 6 35 36
f 14 36 16
f 16 36 27
f 7 36 14
f 28 18 37
f 28 37 38
f 28 38 39
f 28 40 20
f 21 29 30
f 21 30 22
f 20 41 42
f 20 42 29
f 23 30 43
f 23 43 44
f 26 25 32
f 32 45 26
f 12 33 13
f 34 46 47
f 32 34 48
f 13 33 35
f 6 36 7
f 16 27 18
f 18 27 37
f 37 49 38
f 38 50 39
f 39 51 52
f 39 52 28
f 29 42 30
f 20 40 41
f 30 42 43
f 23 44 31
f 26 45 33
f 24 31 53
f 24 53 46
f 24 46 34
f 34 54 48
f 48 45 32
f 35 55 36
f 36 55 56
f 36 56 27
f 27 56 57
f 27 57 49
f 27 49 37
f 38 49 50
f 50 58 59
f 50 59 39
f 39 59 51
f 40 60 61
f 40 61 41
f 42 41 44
f 42 44 43
f 31 44 53
f 45 63 33
f 46 53 47
f 47 53 64
f 47 64 65
f 47 66 34
f 48 54 67
f 48 67 68
f 34 66 54
f 54 66 69
f 54 69 70
f 54 70 67
f 35 33 63
f 35 63 55
f 55 63 71
f 55 71 56
f 56 71 57
f 57 71 72
f 50 49 73
f 50 73 58
f 58 74 59
f 59 74 75
f 59 75 76
f 51 59 76
f 51 77 52
f 52 77 40
f 52 40 28
f 61 78 62
f 61 62 44
f 61 44 41
f 44 62 53
f 45 68 63
f 47 65 69
f 47 69 66
f 48 68 45
f 70 81 67
f 57 72 49
f 72 73 49
f 73 72 58
f 58 72 74
f 75 74 82
f 75 83 76
f 76 83 51
f 51 84 77
f 51 83 84
f 40 77 60
f 60 85 61
f 61 85 78
f 62 78 79
f 79 86 62
f 53 62 86
f 65 87 80
f 65 64 87
f 80 81 70
f 80 70 65
f 65 70 69
f 68 67 88
f 63 89 71
f 81 80 92
f 81 92 90
f 81 91 67
f 71 89 93
f 72 94 74
f 74 95 82
f 82 96 97
f 82 97 98
f 82 98 75
f 82 99 96
f 75 84 83
f 84 75 98
f 84 100 77
f 60 77 101
f 78 85 86
f 78 86 79
f 64 53 102
f 64 103 104
f 64 104 87
f 64 102 105
f 64 105 103
f 87 92 80
f 68 88 89
f 68 89 63
f 90 108 81
f 90 92 104
f 90 104 107
f 81 108 91
f 91 88 67
f 93 72 71
f 72 93 94
f 74 94 95
f 96 109 97
f 97 110 98
f 98 110 84
f 82 95 99
f 99 95 111
f 84 110 100
f 100 112 101
f 100 110 113
f 100 113 114
f 100 114 112
f 100 101 77
f 60 101 85
f 53 86 102
f 103 115 104
f 104 92 87
f 105 116 103
f 105 102 101
f 105 101 112
f 105 112 123
f 105 123 116
f 88 106 89
f 106 88 108
f 106 93 89
f 107 117 118
f 107 119 108
f 107 108 90
f 91 108 88
f 93 120 94
f 96 99 109
f 109 113 97
f 97 113 110
f 95 120 111
f 99 121 122
f 112 114 123
f 113 109 114
f 103 116 123
f 103 123 124
f 103 124 125
f 103 118 117
f 103 117 115
f 115 117 107
f 115 107 104
f 106 108 126
f 106 126 120
f 106 120 93
f 118 119 107
f 95 94 120
f 111 121 99
f 121 111 127
f 121 114 122
f 122 114 109
f 122 109 99
f 114 124 123
f 114 121 124
f 85 101 86
f 86 101 102
f 124 128 125
f 125 129 118
f 125 118 103
f 118 127 119
f 119 126 108
f 111 120 127
f 121 128 124
f 128 121 118
f 128 118 129
f 128 129 125
f 127 118 121
f 127 126 119
f 120 126 127
f 130 131 135
f 130 135 140
f 130 140 145
f 130 145 151
f 130 151 165
f 130 165 183
f 130 183 193
f 130 193 197
f 130 197 200
f 130 200 199
f 130 199 195
f 130 195 189
f 130 189 172
f 130 172 157
f 130 157 147
f 130 147 142
f 130 142 138
f 130 138 132
f 130 132 133
f 130 133 134
f 130 134 131
f 131 134 136
f 131 136 137
f 131 137 135
f 132 138 139
f 132 139 133
f 133 139 144
f 133 144 143
f 133 143 148
f 133 148 161
f 133 161 160
f 133 160 159
f 133 159 178
f 133 178 177
f 133 177 176
f 133 176 175
f 133 175 174
f 133 174 173
f 133 173 190
f 133 190 196
f 133 196 198
f 133 198 194
f 133 194 187
f 133 187 186
f 133 186 170
f 133 170 152
f 133 152 146
f 133 146 141
f 133 141 137
f 133 137 136
f 133 136 134
f 135 137 140
f 137 141 140
f 138 142 143
f 138 143 144
f 138 144 139
f 140 141 145
f 141 146 145
f 142 147 143
f 143 147 148
f 145 149 150
f 145 150 151
f 145 146 152
f 145 152 153
f 145 153 154
f 145 154 155
f 145 155 156
f 145 156 149
f 147 157 171
f 147 171 188
f 147 188 192
f 147 192 191
f 147 191 181
f 147 181 180
f 147 180 179
f 147 179 158
f 147 158 159
f 147 159 160
f 147 160 161
f 147 161 148
f 149 156 150
f 150 162 151
f 150 156 163
f 150 163 164
f 150 164 162
f 151 162 166
f 151 166 167
f 151 167 168
f 151 168 169
f 151 169 165
f 152 170 164
f 152 164 163
f 152 163 156
f 152 156 155
f 152 155 154
f 152 154 153
f 157 172 173
f 157 173 174
f 157 174 175
f 157 175 176
f 157 176 177
f 157 177 178
f 157 178 171
f 158 179 159
f 159 179 180
f 159 180 181
f 159 181 178
f 162 164 182
f 162 182 166
f 164 170 182
f 165 169 184
f 165 184 185
f 165 185 170
f 165 170 186
f 165 186 187
f 165 187 183
f 166 182 168
f 166 168 167
f 168 182 170
f 168 170 169
f 169 170 184
f 170 185 184
f 171 178 188
f 172 189 190
f 172 190 173
f 178 181 191
f 178 191 192
f 178 192 188
f 183 187 194
f 183 194 193
f 189 195 190
f 190 195 196
f 193 194 198
f 193 198 197
f 195 199 196
f 196 199 198
f 197 198 200
f 198 199 200

