# https://github.com/mikedh/trimesh
v -0.01299866 -0.00449795 -0.00299741
v -0.01294163 -0.00516856 0.00300112
v -0.01299730 -0.00449795 0.00300112
v -0.01299866 0.00449961 0.00300112
v -0.01299866 0.00449961 -0.00299871
v -0.01294163 -0.00516856 -0.00299741
v -0.00992754 -0.00479914 0.00677103
v -0.00699762 -0.00849335 -0.00299871
v -0.01265923 -0.00611042 -0.00299741
v -0.00213298 0.00679767 -0.00299871
v -0.00991260 -0.00531001 0.00667861
v -0.00928263 -0.00479914 0.00744144
v -0.00992754 0.00479914 0.00677363
v -0.01265923 -0.00611042 0.00299982
v -0.01294163 0.00517022 0.00300112
v -0.00213163 -0.00679934 -0.00299741
v -0.00135502 -0.00679934 -0.00289457
v -0.00067549 -0.00679934 -0.00261860
v -0.00001090 -0.00679934 -0.00211872
v 0.00048195 -0.00679934 -0.00146653
v 0.00076435 -0.00679934 -0.00077400
v 0.00086889 -0.00679934 0.00000316
v -0.00899616 -0.00850000 -0.00299741
v -0.00966686 -0.00844176 -0.00299741
v -0.01061182 -0.00815554 -0.00299611
v -0.01215417 -0.00695742 -0.00299611
v -0.01294163 0.00517022 -0.00299871
v -0.00945964 -0.00562451 0.00699070
v -0.01215417 -0.00695742 0.00299982
v -0.00977616 0.00545644 0.00677168
v -0.01265787 0.00611374 0.00300112
v -0.00150980 0.00679767 -0.00293362
v -0.00070197 0.00679767 -0.00263552
v -0.00001226 0.00679767 -0.00212002
v 0.00024163 0.00502212 -0.00183233
v 0.00050367 0.00679767 -0.00143139
v 0.00080101 0.00679767 -0.00062299
v 0.00086889 -0.00679934 0.00777079
v 0.00086753 0.00679767 0.00000055
v -0.00704582 -0.00849002 0.00130622
v -0.00760044 -0.00849252 0.00239840
v -0.00899616 -0.00849335 0.00300112
v -0.00966686 -0.00844176 0.00300112
v -0.01145767 -0.00765133 -0.00299611
v -0.01265787 0.00611374 -0.00299871
v -0.01215417 0.00695742 -0.00299871
v -0.01145767 0.00765300 -0.00299871
v -0.01061182 0.00815887 -0.00299871
v -0.00966958 0.00844176 -0.00299871
v -0.00899887 0.00850000 -0.00299871
v -0.00700034 0.00850000 -0.00299871
v -0.00829049 -0.00556294 0.00808614
v -0.00771924 -0.00500632 0.00866900
v -0.00835736 -0.00479914 0.00823356
v -0.00892725 0.00481786 0.00777404
v -0.01145767 -0.00765133 0.00299982
v -0.00894830 -0.00597147 0.00722014
v -0.00910953 0.00566861 0.00732591
v -0.01215417 0.00695742 0.00300112
v 0.00086889 -0.00676606 0.00815351
v 0.00086889 -0.00516357 0.00984580
v -0.00248802 -0.00670449 0.00891699
v -0.00417632 -0.00660797 0.00894303
v -0.00582118 -0.00654307 0.00852581
v -0.00706381 -0.00639747 0.00813691
v -0.01061182 -0.00815554 0.00299982
v -0.01145767 0.00765300 0.00300112
v -0.01061182 0.00815887 0.00300112
v -0.00966958 0.00844176 0.00300112
v -0.00899887 0.00850000 0.00300112
v -0.00700238 0.00850000 0.00106800
v -0.00829287 0.00470179 0.00828759
v -0.00799248 -0.00626975 0.00769138
v -0.00000004 -0.00670449 0.00867031
v 0.00086618 0.00515358 0.00985101
v -0.00540216 -0.00631010 0.00902390
v -0.00875313 0.00610459 0.00727416
v -0.00782989 0.00621359 0.00790226
v -0.00697997 0.00638998 0.00821143
v -0.00585987 0.00653641 0.00853297
v -0.00446687 0.00665290 0.00876924
v -0.00838927 0.00850000 0.00290479
v -0.00338614 0.00665290 0.00898663
v -0.00112829 0.00669117 0.00891764
v 0.00086618 0.00679767 0.00777860
v -0.00748249 -0.00571021 0.00854257
v -0.00758008 0.00506206 0.00875492
v -0.00804237 0.00570189 0.00819907
v 0.00086618 0.00676605 0.00815481
v 0.00086889 -0.00636918 0.00904684
v 0.00086618 0.00641660 0.00900356
v 0.00086618 0.00584916 0.00954574
v -0.00215046 -0.00639747 0.00950457
v -0.00371199 -0.00622274 0.00958903
v -0.00724744 0.00582087 0.00864167
v -0.00001769 0.00670032 0.00865078
v -0.00232561 0.00643158 0.00945153
v -0.00066124 0.00648691 0.00926489
v -0.00727391 0.00850000 0.00196427
v -0.00667313 -0.00580298 0.00895930
v -0.00699219 -0.00515192 0.00907646
v -0.00058724 0.00621608 0.00959488
v -0.00008413 0.00572789 0.00986402
v 0.00001897 -0.00515192 0.01006840
v -0.00000479 -0.00607090 0.00961653
v -0.00123351 -0.00612331 0.00976183
v -0.00524127 -0.00588473 0.00948684
v -0.00524653 0.00601723 0.00937684
v -0.00361899 0.00621359 0.00961571
v -0.00622238 0.00515358 0.00944746
v -0.00070400 0.00515358 0.01019370
v -0.00064868 -0.00556378 0.01005636
v -0.00237533 -0.00602389 0.00989527
v -0.00376426 -0.00580340 0.00990275
v -0.00604452 -0.00515192 0.00952166
v -0.00156852 0.00567318 0.01008955
v -0.00198805 -0.00556378 0.01015985
v -0.00409350 -0.00516357 0.01010355
v -0.00507512 -0.00515192 0.00986532
v -0.00520546 0.00545644 0.00973547
v -0.00382196 0.00582087 0.00989917
v -0.00251450 0.00590990 0.00997337
v -0.00191371 0.00515358 0.01029361
v -0.00098030 -0.00516357 0.01022852
v -0.00306165 -0.00515192 0.01025195
v -0.00447570 0.00515358 0.01002089
v -0.00314379 0.00515358 0.01023893
v -0.00541794 0.00502878 0.00975012
v -0.00202437 -0.00515192 0.01029621
v -0.01879884 0.00000009 -0.00250000
v -0.01879884 -0.00041058 -0.00246525
v -0.01879884 0.00041126 -0.00246525
v -0.01285364 0.00041126 -0.00246525
v -0.01285364 0.00000009 -0.00249951
v -0.01285364 -0.00033206 -0.00247210
v -0.01879884 -0.00054130 -0.00242120
v -0.01285364 -0.00041058 -0.00246525
v -0.01879884 0.00118871 -0.00219802
v -0.01368774 0.00118920 -0.00219802
v -0.01285364 0.00118920 -0.00219802
v -0.01285306 -0.00054130 -0.00242071
v -0.01776684 -0.00054130 -0.00242120
v -0.01879884 -0.00118999 -0.00219802
v -0.01879884 0.00183838 -0.00169293
v -0.01285364 0.00183838 -0.00169244
v -0.01368774 0.00183838 -0.00169293
v -0.01285306 -0.00118999 -0.00219802
v -0.01285306 0.00247391 -0.00000000
v -0.01879884 -0.00183917 -0.00169293
v -0.01879884 0.00228905 -0.00100431
v -0.01285364 0.00228905 -0.00100431
v -0.01285306 -0.00183917 -0.00169293
v -0.01285306 0.00242269 0.00061374
v -0.01285364 0.00249147 -0.00020654
v -0.01879884 -0.00228887 -0.00100431
v -0.01285306 -0.00218449 -0.00116435
v -0.01879884 0.00249147 -0.00020654
v -0.01285306 0.00240952 0.00064458
v -0.01879884 0.00242269 0.00061374
v -0.01879884 -0.00249128 -0.00020654
v -0.01285306 -0.00228887 -0.00100431
v -0.01368774 0.00209249 0.00136697
v -0.01285306 0.00209249 0.00136697
v -0.01879884 0.00209201 0.00136648
v -0.01368774 -0.00247421 -0.00000000
v -0.01879884 -0.00242299 0.00061374
v -0.01285306 -0.00249128 -0.00020654
v -0.01879884 0.00153501 0.00197240
v -0.01285306 0.00153501 0.00197240
v -0.01285306 -0.00247421 -0.00000000
v -0.01368774 -0.00242299 0.00061423
v -0.01285306 -0.00216888 0.00119274
v -0.01879884 -0.00209182 0.00136697
v -0.01879884 0.00081169 0.00236394
v -0.01285306 0.00081169 0.00236394
v -0.01285306 -0.00242299 0.00061423
v -0.01285306 -0.00210548 0.00133614
v -0.01879884 -0.00153433 0.00197240
v -0.01285306 -0.00209182 0.00136697
v -0.01368774 -0.00153482 0.00197240
v -0.01879884 0.00000009 0.00250000
v -0.01285306 0.00062294 0.00239575
v -0.01879884 -0.00081102 0.00236394
v -0.01368774 -0.00093832 0.00229542
v -0.01285306 -0.00153482 0.00197240
v -0.01285306 -0.00081150 0.00236394
v -0.01285306 0.00000009 0.00249951
f 1 3 4
f 1 4 5
f 1 5 6
f 1 6 2
f 1 2 3
f 3 7 4
f 3 2 7
f 5 8 9
f 5 9 6
f 5 10 8
f 6 9 14
f 6 14 2
f 7 2 11
f 7 11 12
f 7 12 13
f 7 13 4
f 2 14 11
f 4 13 15
f 8 16 17
f 8 17 18
f 8 18 19
f 8 19 20
f 8 20 21
f 8 21 22
f 8 22 38
f 8 23 24
f 8 24 25
f 8 25 9
f 8 10 16
f 9 26 29
f 9 29 14
f 5 27 10
f 12 11 28
f 14 29 28
f 14 28 11
f 15 13 30
f 15 27 4
f 15 30 31
f 15 31 45
f 15 45 27
f 4 27 5
f 19 34 35
f 20 19 35
f 20 35 36
f 20 36 37
f 20 37 21
f 22 21 39
f 22 61 90
f 22 90 60
f 22 60 38
f 8 40 41
f 8 41 23
f 8 38 40
f 23 41 42
f 23 42 43
f 23 43 24
f 24 43 25
f 25 43 66
f 25 44 9
f 9 44 26
f 26 44 56
f 26 56 29
f 27 45 10
f 10 46 47
f 10 47 48
f 10 48 49
f 10 49 50
f 10 50 51
f 10 45 46
f 28 52 12
f 12 52 53
f 12 53 54
f 29 56 57
f 29 57 28
f 30 13 58
f 31 59 46
f 31 46 45
f 31 30 59
f 16 10 32
f 16 32 17
f 17 32 33
f 17 33 18
f 33 32 51
f 33 51 34
f 33 34 18
f 18 34 19
f 35 34 36
f 21 37 39
f 37 36 51
f 37 51 39
f 38 60 41
f 38 41 40
f 22 39 61
f 42 62 63
f 42 63 43
f 43 63 64
f 43 64 65
f 25 66 56
f 25 56 44
f 46 59 67
f 46 67 47
f 47 67 68
f 47 68 48
f 48 68 69
f 48 69 49
f 49 69 70
f 49 70 50
f 50 70 82
f 50 82 99
f 50 99 71
f 50 71 51
f 51 36 34
f 51 32 10
f 51 71 39
f 28 57 52
f 12 55 13
f 13 55 58
f 56 66 73
f 56 73 57
f 30 58 59
f 59 58 67
f 60 74 42
f 60 42 41
f 61 39 75
f 42 74 62
f 43 65 66
f 63 76 64
f 64 76 65
f 66 65 73
f 67 58 77
f 67 77 68
f 68 77 78
f 68 78 79
f 68 79 69
f 69 79 80
f 69 80 81
f 69 81 70
f 70 81 83
f 70 83 84
f 70 84 82
f 71 85 39
f 57 73 86
f 57 86 52
f 52 86 53
f 54 72 55
f 54 55 12
f 54 53 87
f 54 87 72
f 55 72 87
f 55 87 58
f 58 87 88
f 58 88 77
f 39 85 89
f 39 89 75
f 60 90 74
f 75 89 91
f 75 91 92
f 62 74 93
f 62 93 63
f 63 94 76
f 77 88 78
f 78 88 95
f 82 84 96
f 82 96 89
f 83 97 84
f 84 98 96
f 71 99 85
f 85 99 89
f 73 65 86
f 53 86 101
f 53 101 87
f 86 65 100
f 87 95 88
f 89 99 82
f 89 96 91
f 91 96 98
f 91 98 102
f 91 102 92
f 92 102 103
f 92 103 75
f 61 75 104
f 74 105 106
f 74 106 93
f 63 93 94
f 76 94 107
f 76 107 100
f 76 100 65
f 78 95 79
f 79 95 108
f 79 108 80
f 80 108 109
f 80 109 81
f 81 109 83
f 97 98 84
f 87 110 95
f 87 101 110
f 74 90 105
f 103 111 75
f 61 104 112
f 93 106 113
f 93 113 94
f 94 113 114
f 94 114 107
f 95 110 108
f 83 109 97
f 98 97 102
f 86 100 115
f 86 115 101
f 100 107 115
f 90 61 105
f 103 116 111
f 111 104 75
f 112 106 105
f 112 105 61
f 114 113 117
f 114 118 119
f 114 119 107
f 107 119 115
f 110 120 108
f 108 121 109
f 108 120 121
f 109 121 122
f 101 115 110
f 103 102 116
f 111 124 104
f 104 124 112
f 112 124 117
f 112 117 106
f 106 117 113
f 117 125 114
f 114 125 118
f 120 110 126
f 120 126 121
f 122 121 127
f 122 127 116
f 122 116 102
f 122 102 97
f 122 97 109
f 115 119 128
f 115 128 110
f 116 123 111
f 111 123 124
f 124 129 117
f 124 123 129
f 117 129 125
f 125 127 118
f 118 127 126
f 118 126 119
f 119 126 128
f 110 128 126
f 126 127 121
f 116 127 123
f 129 123 127
f 129 127 125
f 130 131 136
f 130 136 143
f 130 143 149
f 130 149 155
f 130 155 160
f 130 160 166
f 130 166 173
f 130 173 178
f 130 178 183
f 130 183 181
f 130 181 174
f 130 174 168
f 130 168 164
f 130 164 159
f 130 159 157
f 130 157 150
f 130 150 144
f 130 144 138
f 130 138 132
f 130 132 133
f 130 133 134
f 130 134 135
f 130 135 131
f 131 135 137
f 131 137 142
f 131 142 136
f 132 138 139
f 132 139 140
f 132 140 133
f 133 140 141
f 133 141 134
f 134 141 135
f 135 141 137
f 136 142 147
f 136 147 143
f 137 141 142
f 138 144 139
f 139 144 146
f 139 146 140
f 140 145 141
f 140 146 145
f 141 147 142
f 141 145 148
f 141 148 153
f 141 153 158
f 141 158 163
f 141 163 169
f 141 169 175
f 141 175 182
f 141 182 187
f 141 187 186
f 141 186 185
f 141 185 179
f 141 179 177
f 141 177 172
f 141 172 176
f 141 176 170
f 141 170 167
f 141 167 161
f 141 161 156
f 141 156 152
f 141 152 147
f 143 147 152
f 143 152 149
f 144 150 151
f 144 151 146
f 145 151 148
f 145 146 151
f 148 151 154
f 148 154 153
f 149 152 156
f 149 156 155
f 150 157 154
f 150 154 151
f 153 154 157
f 153 157 159
f 153 159 158
f 155 156 161
f 155 161 167
f 155 167 160
f 158 162 163
f 158 159 162
f 159 164 162
f 160 165 166
f 160 167 170
f 160 170 165
f 162 164 168
f 162 168 169
f 162 169 163
f 165 170 176
f 165 176 171
f 165 171 166
f 166 171 172
f 166 172 173
f 168 174 175
f 168 175 169
f 171 176 172
f 172 177 173
f 173 177 179
f 173 179 185
f 173 185 180
f 173 180 178
f 174 181 182
f 174 182 175
f 178 180 184
f 178 184 183
f 180 185 184
f 181 183 186
f 181 186 187
f 181 187 182
f 183 184 186
f 184 185 186

