# https://github.com/mikedh/trimesh
v 0.00956475 -0.00067594 0.01580106
v 0.00957146 0.00019470 0.01544222
v 0.00871489 -0.00010832 0.02116583
v 0.00928306 -0.00383697 0.01496738
v 0.00271320 -0.00731873 -0.00107004
v 0.00271224 0.00733879 -0.00106460
v 0.00933432 0.00339945 0.01503354
v 0.00850698 0.00162697 0.02208718
v 0.00273716 -0.00772420 -0.00094137
v 0.00237115 0.00773769 -0.00163730
v 0.00949576 0.00246027 0.01562164
v 0.00893814 -0.00175876 0.01963961
v 0.00857980 -0.00586923 0.01413733
v 0.00674403 -0.00768972 0.01157830
v 0.00221019 -0.00761093 -0.00184391
v 0.00937480 -0.00360141 0.01560080
v 0.00273524 0.00774097 -0.00093774
v 0.00893814 0.00366497 0.01854133
v 0.00799343 -0.00666005 0.01397422
v 0.00600244 -0.00804922 0.01050902
v 0.00224803 -0.00785757 -0.00114525
v 0.00472431 -0.00831680 0.00884166
v 0.00600053 0.00807092 0.01051265
v 0.00673828 0.00770814 0.01158555
v 0.00857788 0.00588929 0.01414458
v 0.00893622 0.00511611 0.01453605
v 0.00900664 -0.00480755 0.01574397
v 0.00839392 -0.00567552 0.01679423
v 0.00721734 -0.00739260 0.01323841
v 0.00089564 -0.00769301 -0.00271021
v 0.00163723 0.00772619 -0.00234774
v 0.00010231 0.00770814 -0.00270296
v 0.00490252 0.00831470 0.00912620
v 0.00755173 0.00714180 0.01342689
v 0.00768108 0.00349096 0.02569646
v 0.00762083 -0.00335271 0.02585594
v 0.00848542 -0.00421618 0.02040170
v 0.00503090 -0.00707249 0.03229339
v 0.00344138 -0.00829382 0.02093000
v 0.00380642 -0.00835456 0.00948052
v 0.00004866 -0.00769629 -0.00271021
v 0.00158836 -0.00658577 -0.00241027
v 0.00082234 0.00651472 -0.00273740
v 0.00380642 0.00837297 0.00940168
v 0.00825116 0.00629557 0.01488583
v 0.00866267 0.00532172 0.01652509
v 0.00895167 0.00434581 0.01726566
v 0.00782575 -0.00021712 0.02582060
v 0.00812229 -0.00495652 0.02088106
v 0.00495042 -0.00806728 0.01873706
v 0.00747220 -0.00462616 0.02516000
v -0.00025890 0.00715575 -0.00285339
v 0.00485257 0.00822251 0.01546029
v 0.00606736 0.00786922 0.01498551
v 0.00504432 0.00678886 0.03265586
v 0.00504815 -0.00676881 0.03265948
v 0.00441052 -0.00676881 0.03353122
v 0.00362390 -0.00718248 0.03348410
v 0.00289237 -0.00815921 0.02752692
v 0.00005249 -0.00713487 -0.00286970
v -0.00097270 0.00735192 -0.00270659
v -0.00077149 0.00760144 -0.00215201
v 0.00502707 0.00708434 0.03228976
v 0.00105852 -0.00833322 0.02789302
v 0.00069252 -0.00835948 0.02642865
v -0.00076958 -0.00760108 -0.00215201
v -0.00097270 -0.00733514 -0.00271021
v -0.00553337 0.00749309 0.02972348
v 0.00069252 0.00837954 0.02641777
v 0.00233953 0.00825478 0.02788577
v 0.00778827 0.00483694 0.02299856
v 0.00489006 0.00794452 0.02129065
v 0.00328233 0.00807913 0.02751605
v 0.00425578 0.00690870 0.03363271
v -0.00553720 -0.00749602 0.02972348
v -0.00188579 0.00700883 -0.00216651
v -0.00209323 0.00718120 -0.00160740
v -0.00633245 0.00730431 0.02935377
v -0.00610825 0.00734864 0.02991559
v -0.00391414 0.00770814 0.03028169
v 0.00417338 0.00718694 0.03320500
v 0.00366222 -0.00676881 0.03396346
v 0.00194191 -0.00697728 0.03395712
v -0.00040549 -0.00785716 0.03082539
v -0.00395438 -0.00769465 0.03028894
v -0.00168363 -0.00712256 -0.00232237
v -0.00173920 -0.00734007 -0.00192184
v -0.00636502 -0.00729575 0.02935739
v -0.00129798 0.00596521 -0.00257791
v -0.00498532 0.00404417 -0.00050640
v -0.00718518 0.00697436 0.02953319
v -0.00779550 0.00647368 0.02956944
v 0.00194000 0.00699734 0.03395349
v 0.00105852 0.00835327 0.02788577
v 0.00307250 0.00678886 0.03410392
v 0.00379301 0.00678886 0.03393175
v 0.00270650 -0.00676881 0.03412386
v -0.00612166 -0.00733186 0.02991922
v -0.00247935 -0.00697975 -0.00126940
v -0.00508880 -0.00200171 -0.00053177
v -0.00535899 0.00250603 -0.00016749
v -0.00427440 0.00553799 -0.00018381
v -0.00343652 0.00642854 -0.00009500
v -0.00809061 0.00632594 0.02898767
v -0.00939078 0.00479272 0.02918703
v 0.00252445 0.00678886 0.03411298
v -0.00975678 0.00371093 0.02918341
v 0.00270650 0.00717463 0.03375414
v -0.00780317 -0.00646019 0.02957669
v -0.00720626 -0.00696415 0.02950057
v -0.00498916 -0.00403068 -0.00050640
v -0.00339675 -0.00649138 0.00004092
v -0.00795264 -0.00643639 0.02899492
v -0.00417715 -0.00568661 -0.00008231
v -0.00520857 0.00367400 0.00004455
v -0.00494892 0.00444225 0.00004455
v -0.00882357 0.00559216 0.02898767
v -0.00976517 -0.00325812 0.02918295
v -0.00031591 0.00785752 0.03082539
v -0.00939844 -0.00477923 0.02919066
v -0.00535372 -0.00235587 -0.00013487
v -0.00479562 -0.00473737 -0.00005332
v -0.00999057 0.00202505 0.02862158
v -0.00992925 0.00294022 0.02862158
v -0.00977403 0.00375197 0.02869045
v -0.00863195 -0.00583147 0.02899492
v -0.00521719 -0.00365148 0.00004817
v -0.00995799 -0.00273549 0.02862521
v -0.00977211 -0.00373191 0.02869770
f 2 4 5
f 2 5 6
f 2 6 7
f 1 8 3
f 5 4 9
f 6 5 10
f 2 7 11
f 2 11 1
f 8 1 11
f 1 3 12
f 9 4 13
f 9 13 14
f 9 15 5
f 4 2 16
f 5 15 10
f 6 10 17
f 6 17 7
f 8 11 18
f 1 16 2
f 13 19 14
f 14 20 9
f 9 21 15
f 9 20 22
f 9 22 21
f 4 16 13
f 17 23 24
f 17 24 25
f 17 25 26
f 17 26 7
f 13 16 27
f 13 28 19
f 14 19 29
f 14 29 20
f 15 21 30
f 16 1 12
f 10 32 17
f 10 31 32
f 17 33 23
f 25 24 34
f 13 27 28
f 22 20 39
f 21 22 40
f 21 40 41
f 15 42 31
f 15 31 10
f 12 37 16
f 32 44 17
f 17 44 33
f 34 45 25
f 25 45 26
f 26 45 46
f 26 47 7
f 7 47 11
f 11 47 18
f 18 35 8
f 8 35 48
f 12 36 37
f 27 37 49
f 29 19 38
f 38 50 29
f 38 19 28
f 38 28 49
f 38 49 51
f 29 50 20
f 22 39 40
f 20 50 39
f 21 41 30
f 30 42 15
f 37 27 16
f 31 43 52
f 23 33 53
f 23 53 54
f 23 54 24
f 26 46 47
f 35 55 48
f 8 48 3
f 3 48 12
f 12 48 36
f 27 49 28
f 38 56 57
f 38 51 56
f 38 57 58
f 38 58 59
f 41 60 30
f 31 42 43
f 52 32 31
f 24 54 34
f 34 54 63
f 45 34 63
f 18 47 35
f 55 56 48
f 49 37 51
f 56 51 36
f 38 59 50
f 39 59 64
f 40 39 64
f 50 59 39
f 40 64 65
f 40 65 41
f 41 65 66
f 42 30 43
f 32 52 61
f 61 62 32
f 62 68 69
f 32 62 69
f 32 69 44
f 33 70 53
f 63 71 46
f 63 46 45
f 63 54 72
f 63 72 73
f 46 71 47
f 55 35 71
f 55 71 63
f 55 63 74
f 36 48 56
f 37 36 51
f 58 64 59
f 66 65 75
f 67 60 41
f 41 66 67
f 60 52 43
f 30 60 43
f 52 60 61
f 61 77 62
f 62 78 68
f 68 78 79
f 68 79 80
f 44 69 33
f 33 69 70
f 70 73 53
f 54 53 72
f 35 47 71
f 74 63 81
f 55 57 56
f 55 74 57
f 57 83 58
f 58 84 64
f 65 85 75
f 66 87 67
f 66 75 88
f 66 88 87
f 67 87 86
f 60 67 61
f 61 89 76
f 76 89 90
f 61 76 77
f 77 91 78
f 62 77 78
f 79 91 92
f 79 92 93
f 79 93 80
f 80 94 69
f 80 69 68
f 70 69 94
f 70 94 81
f 70 81 63
f 70 63 73
f 53 73 72
f 74 95 96
f 57 74 82
f 82 74 96
f 57 82 83
f 83 82 97
f 58 83 84
f 64 84 85
f 65 64 85
f 85 98 75
f 85 83 98
f 75 98 88
f 87 99 86
f 61 67 89
f 89 100 90
f 90 102 76
f 76 102 77
f 77 102 103
f 77 103 104
f 77 104 91
f 78 91 79
f 93 92 105
f 93 105 107
f 93 108 80
f 93 106 95
f 93 95 108
f 94 108 81
f 81 108 74
f 82 96 95
f 97 95 106
f 83 85 84
f 98 109 110
f 98 83 109
f 67 86 100
f 67 100 89
f 86 111 100
f 87 88 110
f 98 110 88
f 99 87 110
f 99 110 113
f 99 113 112
f 99 112 114
f 101 115 90
f 90 115 116
f 90 116 102
f 91 104 92
f 92 104 117
f 92 117 105
f 93 107 118
f 93 118 83
f 93 83 106
f 106 83 97
f 80 119 94
f 108 119 80
f 94 119 108
f 108 95 74
f 95 97 82
f 109 113 110
f 83 118 120
f 83 120 109
f 99 114 111
f 99 111 86
f 111 121 100
f 114 122 111
f 100 121 90
f 90 121 101
f 101 121 123
f 101 123 124
f 115 101 124
f 115 124 125
f 115 125 116
f 116 125 105
f 116 105 102
f 102 105 117
f 102 117 103
f 103 117 104
f 105 125 107
f 107 125 124
f 107 124 123
f 120 126 109
f 109 126 113
f 111 122 127
f 111 127 121
f 112 113 126
f 112 126 114
f 114 126 122
f 122 126 120
f 107 123 118
f 118 128 129
f 118 129 120
f 122 120 129
f 122 129 127
f 127 129 128
f 127 128 121
f 121 128 123
f 123 128 118

