# https://github.com/mikedh/trimesh
v 0.00299963 0.00104465 0.00455027
v 0.00200974 -0.00343475 -0.01142825
v 0.00200758 0.00345972 -0.01142825
v 0.00298294 -0.00187435 0.00455027
v 0.00200974 -0.00446885 -0.01074578
v 0.00200543 0.00448919 -0.01074578
v 0.00269012 -0.00015652 0.00574543
v 0.00179443 -0.00489329 -0.01022290
v 0.00234778 -0.00514332 -0.00012852
v 0.00177290 0.00489202 -0.01035532
v 0.00274287 0.00359439 0.00410718
v 0.00201835 -0.00584867 0.00340604
v 0.00119478 -0.00672611 0.00311234
v -0.00031993 -0.00741872 0.00295148
v -0.00263452 -0.00783351 0.00009218
v 0.00045734 0.00489704 -0.01067363
v -0.00263452 0.00786003 0.00008878
v -0.00038156 0.00744967 0.00292857
v 0.00119102 0.00674780 0.00313823
v 0.00202050 0.00587364 0.00336529
v 0.00234778 0.00344583 0.00609176
v 0.00110974 0.00001171 0.00935808
v -0.00114323 -0.00350305 -0.01146177
v 0.00234993 -0.00342241 0.00609176
v -0.00538512 -0.00779647 -0.00077194
v -0.00121562 -0.00693061 0.00794647
v -0.00340641 -0.00762091 0.00746857
v -0.00757807 0.00759301 -0.00148666
v -0.00348500 0.00764009 0.00778307
v -0.00208763 0.00723957 0.00855339
v 0.00020233 -0.00371508 0.01044863
v -0.00778692 0.00771263 0.00609855
v 0.00028193 0.00499143 0.00921283
v -0.00832843 -0.00740213 -0.00166916
v -0.00430588 -0.00695955 0.01242408
v -0.00744242 -0.00770695 0.00609855
v -0.00187448 0.00349059 -0.01144183
v -0.00302558 0.00488006 -0.01025643
v -0.00071469 0.00298898 0.01217739
v -0.01044386 -0.00734733 0.00712310
v -0.00309852 -0.00485702 -0.01028741
v -0.00015875 -0.00544680 0.00939512
v -0.00624314 -0.00741524 0.01167626
v -0.00710438 0.00753436 0.01090636
v -0.00635453 0.00721724 0.01287434
v -0.00312813 -0.00635761 0.01281964
v -0.01046135 0.00735137 0.00621208
v -0.00919829 0.00724343 -0.00180073
v -0.00252959 0.00613612 0.01239223
v -0.00373476 -0.00348955 -0.01093422
v -0.00172618 0.00501029 0.01281073
v -0.00159820 -0.00067222 0.01365872
v -0.00199344 -0.00426627 0.01364514
v -0.01168594 -0.00697566 0.00582724
v -0.01019841 -0.00669871 -0.00206896
v -0.00698435 -0.00483310 -0.00812117
v -0.00791772 -0.00676903 0.01565816
v -0.00426658 0.00339953 -0.01077294
v -0.00714206 0.00485035 -0.00802441
v -0.00635941 0.00654638 0.01560043
v -0.00331814 0.00392130 0.01541454
v -0.01250614 -0.00679923 0.01512636
v -0.00646276 -0.00341739 -0.00956675
v -0.00537759 -0.00583401 0.01623027
v -0.00678249 0.00348750 -0.00938425
v -0.01223740 0.00627493 0.00258351
v -0.01203070 0.00699137 0.01397067
v -0.01221641 -0.00629240 0.00275413
v -0.00798635 -0.00609002 0.01758926
v -0.01142783 0.00555261 -0.00252224
v -0.00970110 0.00637872 0.01756348
v -0.00434356 0.00501086 0.01606899
v -0.00385534 0.00204035 0.01625107
v -0.00360706 -0.00304137 0.01594252
v -0.01435068 -0.00644829 0.01385522
v -0.01142783 -0.00552764 -0.00251545
v -0.00866108 -0.00346099 -0.00766620
v -0.00576602 -0.00443050 0.01762491
v -0.01414075 0.00654348 0.01224753
v -0.01225947 -0.00418872 -0.00247726
v -0.01049876 -0.00591639 0.01885106
v -0.01308236 -0.00599674 0.01854739
v -0.00899482 0.00347516 -0.00731648
v -0.01498962 0.00567376 0.01038942
v -0.00784519 0.00554788 0.01834939
v -0.01403014 -0.00526882 0.00568877
v -0.01242903 0.00381780 -0.00251885
v -0.01326020 0.00609811 0.01825284
v -0.01526239 -0.00583372 0.01239544
v -0.01256198 -0.00269516 -0.00257466
v -0.01716090 -0.00370360 0.01473122
v -0.00800681 -0.00496853 0.01906242
v -0.01466127 0.00458526 0.00650260
v -0.00700218 0.00393881 0.01885074
v -0.00627819 0.00030265 0.01855327
v -0.01273639 0.00238357 -0.00228457
v -0.00898405 -0.00342935 0.02035223
v -0.01142406 -0.00504184 0.02042268
v -0.01577712 0.00580418 0.01656981
v -0.01293730 0.00495492 0.02075320
v -0.01533183 -0.00567021 0.01836446
v -0.01813451 -0.00091820 0.01650487
v -0.01822682 0.00158890 0.01700526
v -0.01024349 0.00417751 0.02069770
v -0.01645417 -0.00519379 0.01688279
v -0.01825104 -0.00277899 0.01799840
v -0.01146935 -0.00417671 0.02112944
v -0.01826618 0.00294142 0.01886528
v -0.01540302 0.00560026 0.01886464
v -0.01012789 0.00198691 0.02123332
v -0.01655439 -0.00411695 0.02121804
v -0.01691396 0.00484726 0.01923176
v -0.00913006 -0.00082241 0.02068709
v -0.01246281 -0.00229030 0.02217733
v -0.01422365 -0.00432020 0.02152808
v -0.01593241 0.00385088 0.02173774
v -0.01350720 0.00313194 0.02223665
v -0.01784922 0.00304049 0.02127237
v -0.01760027 -0.00405164 0.01979475
v -0.01892429 0.00016413 0.02040528
v -0.01863248 -0.00180198 0.02098334
v -0.01437437 -0.00298639 0.02245565
v -0.01668358 -0.00128168 0.02292590
v -0.01728672 0.00188495 0.02251018
v -0.01275980 0.00025229 0.02247485
v -0.01793454 -0.00241609 0.02191748
v -0.01858827 0.00080445 0.02170909
v -0.01500610 0.00169134 0.02286648
v -0.01594183 0.00010818 0.02303720
f 1 2 3
f 1 4 2
f 2 4 5
f 3 6 1
f 1 7 4
f 5 4 9
f 5 9 8
f 6 11 1
f 8 9 12
f 8 12 13
f 8 13 14
f 8 14 15
f 4 12 9
f 6 16 10
f 10 17 18
f 10 18 19
f 10 19 20
f 10 20 6
f 1 11 21
f 1 21 7
f 7 24 4
f 10 16 17
f 6 20 11
f 7 22 24
f 8 15 25
f 14 13 26
f 14 26 27
f 4 24 12
f 2 23 3
f 23 2 5
f 6 3 16
f 16 28 17
f 18 17 29
f 21 22 7
f 8 23 5
f 14 27 15
f 18 29 30
f 18 30 19
f 24 22 31
f 25 34 8
f 27 26 35
f 27 36 15
f 3 37 16
f 16 37 38
f 17 32 29
f 20 21 11
f 22 21 39
f 25 15 36
f 25 36 40
f 34 41 8
f 12 42 13
f 13 42 26
f 27 43 36
f 23 37 3
f 16 38 28
f 28 32 17
f 32 44 29
f 29 45 30
f 19 33 20
f 21 20 33
f 21 33 39
f 25 40 34
f 26 46 35
f 35 43 27
f 31 42 24
f 32 28 47
f 28 38 48
f 44 45 29
f 30 49 19
f 26 42 46
f 24 42 12
f 23 50 37
f 8 41 23
f 23 41 50
f 19 49 33
f 22 39 52
f 22 52 53
f 22 53 31
f 34 55 56
f 34 56 41
f 35 57 43
f 31 53 42
f 48 38 59
f 48 47 28
f 45 60 30
f 30 60 49
f 51 39 33
f 34 54 55
f 56 63 41
f 34 40 54
f 46 64 35
f 50 63 58
f 50 58 37
f 38 58 65
f 45 44 67
f 33 49 51
f 39 51 61
f 36 62 40
f 35 69 57
f 57 62 43
f 43 62 36
f 58 63 65
f 58 38 37
f 59 38 65
f 48 59 70
f 51 72 61
f 39 61 52
f 61 73 52
f 52 74 53
f 40 75 54
f 55 68 76
f 55 76 56
f 56 76 77
f 41 63 50
f 42 53 46
f 46 53 78
f 46 78 64
f 35 64 69
f 32 79 67
f 48 70 66
f 45 67 71
f 45 71 60
f 51 49 72
f 73 74 52
f 54 68 55
f 56 77 63
f 76 80 77
f 57 82 62
f 32 47 79
f 32 67 44
f 48 79 47
f 72 49 60
f 53 74 78
f 40 62 75
f 76 68 86
f 76 86 80
f 57 69 81
f 57 81 82
f 63 77 65
f 70 59 83
f 70 83 87
f 59 65 83
f 48 66 79
f 84 79 66
f 71 67 88
f 60 71 85
f 60 85 72
f 54 75 68
f 77 90 83
f 77 80 90
f 78 92 64
f 87 93 70
f 70 93 66
f 65 77 83
f 72 85 94
f 73 95 74
f 68 89 86
f 83 90 96
f 80 91 90
f 78 97 92
f 64 92 69
f 81 69 98
f 83 96 87
f 93 84 66
f 84 99 79
f 71 100 85
f 61 72 94
f 61 94 73
f 73 94 95
f 74 95 78
f 75 89 68
f 90 91 102
f 86 91 80
f 69 92 98
f 96 103 93
f 96 93 87
f 85 104 94
f 85 100 104
f 62 101 75
f 75 105 89
f 86 89 91
f 90 102 96
f 91 106 102
f 97 107 92
f 92 107 98
f 82 101 62
f 93 103 108
f 88 109 100
f 88 100 71
f 94 104 110
f 101 105 75
f 89 105 91
f 96 102 103
f 84 93 108
f 67 79 88
f 95 94 110
f 95 110 113
f 95 113 97
f 95 97 78
f 97 114 107
f 98 107 115
f 98 115 82
f 98 82 81
f 82 115 111
f 84 108 112
f 88 79 109
f 109 112 116
f 100 109 116
f 100 117 104
f 105 106 91
f 82 111 101
f 99 109 79
f 84 112 99
f 116 112 118
f 105 119 106
f 102 120 103
f 106 120 102
f 106 121 120
f 107 122 115
f 115 122 111
f 100 116 117
f 105 101 119
f 97 113 114
f 114 122 107
f 99 112 109
f 120 108 103
f 108 118 112
f 116 118 124
f 117 116 124
f 117 110 104
f 119 121 106
f 122 123 111
f 125 113 110
f 113 125 114
f 101 111 119
f 111 126 119
f 118 127 124
f 117 124 128
f 110 117 125
f 117 128 125
f 119 126 121
f 122 129 123
f 111 123 126
f 120 127 108
f 127 118 108
f 124 129 128
f 121 127 120
f 114 125 129
f 114 129 122
f 125 128 129
f 121 126 127
f 123 129 126
f 127 126 124
f 129 124 126

