# https://github.com/mikedh/trimesh
v 0.01116758 0.00448481 0.00817003
v 0.01113482 0.00479227 0.00817003
v 0.01113263 -0.00479207 0.00817525
v 0.01110643 0.00475105 0.00737250
v 0.00492692 0.00859852 0.00025203
v 0.00745704 0.00741852 0.02084718
v 0.00744830 0.00741766 0.03157740
v 0.00794297 0.00686802 0.03196574
v 0.00853919 0.00585376 0.03111087
v 0.00877942 0.00474933 0.03084503
v 0.00879799 -0.00395731 0.03083981
v 0.01110424 -0.00474913 0.00738814
v 0.00450651 0.00877029 0.00077851
v 0.00628534 0.00804201 0.03190319
v 0.00638362 0.00792693 0.03385272
v 0.00821159 0.00609852 0.03218989
v 0.00874339 -0.00501193 0.03083981
v 0.00836829 -0.00497156 0.03198138
v 0.00785888 -0.00676219 0.03188756
v 0.00716220 -0.00739685 0.03110827
v 0.00727577 -0.00731011 0.02214252
v 0.00492255 -0.00859403 0.00027028
v 0.00848786 -0.00584841 0.03122034
v 0.01059211 0.00462480 0.00630391
v 0.00457640 0.00852037 -0.00175484
v 0.00371483 0.00876857 -0.00211972
v 0.00186392 0.00858306 0.03664670
v 0.00382075 0.00845939 0.03612022
v 0.00529819 0.00822494 0.03480924
v 0.00703007 0.00715357 0.03385207
v 0.00450651 -0.00876665 0.00079936
v 0.00661840 -0.00769829 0.03137672
v 0.01058665 -0.00476459 0.00632476
v 0.00434490 -0.00853821 -0.00227610
v 0.00380546 0.00817771 -0.00327693
v 0.00267417 0.00845768 -0.00424127
v -0.00498497 0.00877029 0.00288963
v -0.00709904 0.00871017 0.00342653
v 0.00272440 0.00846455 0.03749115
v 0.00781957 0.00554115 0.03305519
v 0.00687829 -0.00738053 0.03373804
v 0.00587148 -0.00792845 0.03400389
v 0.00345384 -0.00827541 0.03612022
v 0.00213364 -0.00836387 0.03664670
v 0.00406753 -0.00817751 -0.00290683
v 0.00782176 -0.00553752 0.03304997
v -0.00366695 0.00875654 -0.00238296
v -0.00250836 0.00793380 0.04117127
v 0.00521466 0.00791276 0.03565238
v 0.00688047 -0.00685580 0.03410097
v 0.00531021 -0.00791815 0.03534875
v 0.00239899 -0.00833553 0.03717839
v -0.00709904 -0.00870654 0.00342653
v -0.00498497 -0.00876665 0.00291048
v 0.00094666 -0.00875936 -0.00422042
v 0.00162805 -0.00845576 -0.00476253
v 0.00327476 -0.00817751 -0.00378255
v 0.00134032 0.00872734 -0.00423345
v -0.00842470 0.00844394 0.00315026
v -0.00445863 0.00778093 0.04140063
v -0.00411357 0.00527836 0.04695209
v -0.00247778 0.00490735 0.04652987
v -0.00572533 0.00750955 0.04192971
v -0.00698547 0.00693157 0.04369158
v -0.00214801 0.00448481 0.04633179
v -0.00017972 -0.00793275 0.03997106
v -0.00254767 -0.00792330 0.04115042
v -0.00340378 -0.00874433 -0.00290683
v 0.00162587 0.00845939 -0.00477296
v -0.00157144 0.00845424 -0.00476774
v -0.00374230 0.00851608 -0.00325086
v -0.00925569 0.00793810 0.00342653
v -0.00790710 0.00634500 0.04433013
v -0.00418782 0.00370072 0.04799201
v -0.00215019 -0.00448290 0.04633179
v -0.00247997 -0.00490887 0.04652987
v 0.00322016 -0.00794220 0.03746508
v -0.00401529 -0.00527301 0.04691299
v -0.00696582 -0.00692107 0.04368898
v -0.00446082 -0.00775326 0.04141105
v -0.00842907 -0.00844718 0.00315026
v 0.00002503 -0.00857042 -0.00485375
v 0.00028274 0.00817771 -0.00501795
v -0.00264376 0.00847314 -0.00425169
v -0.00989123 0.00728454 0.00303558
v -0.01105855 0.00528694 0.00315026
v -0.01059118 0.00644290 0.00307207
v -0.00408736 0.00289945 0.04809887
v -0.00407862 -0.00289925 0.04809887
v -0.00842251 0.00580910 0.04431449
v -0.00544469 0.00446463 0.04724791
v -0.00996439 0.00734809 0.00342653
v -0.00551567 -0.00754542 0.04193231
v -0.00789618 -0.00633450 0.04431449
v -0.00374230 -0.00851416 -0.00324565
v -0.00925897 -0.00794048 0.00342653
v 0.00028711 -0.00817751 -0.00501795
v -0.00323999 0.00817771 -0.00379819
v -0.01113117 0.00415202 0.00382269
v -0.01061848 0.00639309 0.00342653
v -0.00472398 0.00230343 0.04818423
v -0.00446082 -0.00250162 0.04819921
v -0.00899034 0.00483693 0.04436141
v -0.00628005 0.00306262 0.04745250
v -0.00419219 -0.00369279 0.04800504
v -0.00538900 -0.00485563 0.04702507
v -0.00898816 -0.00482643 0.04435619
v -0.00840286 -0.00578314 0.04404344
v -0.00996002 -0.00734274 0.00342653
v -0.00323999 -0.00817751 -0.00379819
v -0.00264376 -0.00847122 -0.00423605
v -0.00988904 -0.00728177 0.00303558
v -0.01059337 -0.00644099 0.00306686
v -0.01106073 -0.00529534 0.00315026
v -0.01110005 0.00448138 0.00308250
v -0.01113171 -0.00368936 0.00421885
v -0.00949702 0.00330652 0.04434055
v -0.00928299 0.00412669 0.04404344
v -0.00545506 0.00263579 0.04797637
v -0.00539309 -0.00257076 0.04800570
v -0.00628879 -0.00307788 0.04745772
v -0.01044268 -0.00672440 0.00342653
v -0.01079648 -0.00606655 0.00342653
v -0.00156926 -0.00845061 -0.00476253
v -0.01110005 -0.00448118 0.00308771
v -0.00957783 0.00237042 0.04404344
v -0.00957783 -0.00210399 0.04404344
v -0.00636741 0.00184311 0.04752548
v -0.00949484 -0.00330289 0.04434055
v -0.00129505 0.00487167 0.02670266
v -0.00070527 0.00487167 0.02665505
v -0.00180236 0.00487167 0.02659434
v -0.00164127 -0.00342827 0.02535664
v -0.00129505 -0.00342827 0.02540355
v -0.00036287 0.00487167 0.02652397
v -0.00075169 -0.00342827 0.02535802
v -0.00029243 -0.00342827 0.02519451
v -0.00288362 0.00487167 0.02609898
v -0.00190448 -0.00342827 0.02523866
v -0.00007072 0.00487167 0.02641151
v -0.00028478 -0.00342827 0.02519106
v -0.00388351 0.00487167 0.02550428
v -0.00267119 -0.00342827 0.02484127
v -0.00234954 -0.00342827 0.02502893
v 0.00025202 0.00487167 0.02625076
v 0.00018267 -0.00342827 0.02490130
v -0.00446072 0.00487167 0.02503928
v -0.00292239 -0.00342827 0.02452391
v 0.00105532 0.00342470 0.02360564
v 0.00111812 0.00342470 0.02334140
v 0.00025202 0.00487167 0.01988149
v 0.00025147 -0.00342827 0.02484058
v 0.00064794 -0.00271170 0.02440525
v 0.00087784 -0.00271170 0.02399613
v 0.00093845 -0.00271170 0.02383055
v 0.00104603 -0.00271170 0.02353665
v -0.00446072 0.00487167 0.02109160
v -0.00446072 0.00454019 0.02438455
v -0.00342042 -0.00342827 0.02346835
v -0.00325987 -0.00342827 0.02397405
v -0.00312881 -0.00342827 0.02423829
v 0.00111703 0.00342470 0.02296057
v 0.00109136 -0.00271170 0.02327310
v 0.00109136 -0.00271170 0.02310683
v 0.00023837 0.00487167 0.01985872
v 0.00111211 0.00342470 0.02293573
v 0.00099142 0.00342470 0.02249419
v 0.00094610 -0.00271170 0.02241416
v 0.00070145 -0.00271170 0.02192363
v 0.00025147 -0.00342827 0.02142896
v -0.00446072 0.00453369 0.02194157
v -0.00298465 0.00487167 0.02009536
v -0.00238067 -0.00342827 0.02123441
v -0.00273891 -0.00342827 0.02149796
v -0.00300267 -0.00342827 0.02182773
v -0.00318506 -0.00342827 0.02209335
v -0.00331612 -0.00342827 0.02241416
v -0.00343298 -0.00342827 0.02294194
v -0.00446072 0.00441182 0.02399613
v -0.00446072 0.00438664 0.02387401
v -0.00446072 0.00431271 0.02346766
v 0.00106023 -0.00271170 0.02284260
v -0.00024000 0.00487167 0.01972764
v 0.00063701 -0.00271170 0.02182842
v 0.00052179 -0.00271170 0.02166008
v -0.00010731 -0.00342827 0.02117508
v -0.00037161 -0.00342827 0.02101777
v -0.00446072 0.00438908 0.02233482
v -0.00270232 0.00487167 0.01993047
v -0.00211746 -0.00342827 0.02107297
v -0.00446072 0.00430377 0.02294125
v -0.00446072 0.00436876 0.02241416
v -0.00076753 0.00487167 0.01966486
v -0.00076971 -0.00342827 0.02091084
v -0.00235719 0.00487167 0.01979663
v -0.00182311 -0.00342827 0.02096603
v -0.00129559 0.00487167 0.01965451
v -0.00129723 -0.00342827 0.02088117
v -0.00182257 0.00487167 0.01967865
v -0.00181602 0.00487167 0.01967796
f 1 4 2
f 2 4 5
f 2 5 6
f 2 6 7
f 2 7 8
f 2 8 9
f 2 9 10
f 2 10 1
f 1 10 11
f 1 11 3
f 3 12 1
f 1 12 4
f 5 13 14
f 5 14 6
f 6 14 7
f 7 14 15
f 9 8 16
f 9 16 10
f 3 11 17
f 11 10 18
f 3 19 20
f 3 20 21
f 3 21 22
f 3 22 12
f 3 17 23
f 3 23 19
f 4 24 25
f 4 25 5
f 5 26 13
f 13 27 28
f 13 28 29
f 13 29 14
f 15 30 7
f 7 30 8
f 11 18 17
f 21 20 22
f 22 20 32
f 22 32 31
f 12 22 34
f 12 34 33
f 17 18 23
f 23 18 19
f 12 33 4
f 4 33 24
f 24 35 25
f 25 35 36
f 25 36 26
f 5 25 26
f 26 37 13
f 27 37 38
f 28 27 39
f 28 39 29
f 14 29 15
f 8 30 16
f 16 30 40
f 16 40 10
f 31 32 42
f 31 42 43
f 31 43 44
f 22 31 34
f 32 20 42
f 33 34 45
f 18 46 19
f 19 46 41
f 24 33 45
f 24 45 35
f 37 26 47
f 37 27 13
f 37 47 38
f 27 48 39
f 39 49 29
f 29 49 15
f 15 49 30
f 10 40 18
f 19 41 20
f 20 41 42
f 41 46 50
f 43 42 51
f 43 52 44
f 44 53 54
f 44 54 31
f 31 55 34
f 34 56 57
f 34 57 45
f 35 57 36
f 36 58 26
f 26 58 47
f 47 59 38
f 38 60 27
f 39 48 61
f 39 61 62
f 48 27 60
f 48 60 63
f 48 63 64
f 48 64 61
f 49 62 30
f 30 65 40
f 40 46 18
f 42 41 51
f 41 50 51
f 43 51 52
f 52 66 67
f 52 67 44
f 44 67 53
f 53 68 54
f 31 54 55
f 45 57 35
f 58 36 69
f 58 70 47
f 59 47 71
f 38 59 63
f 38 63 60
f 62 49 39
f 64 73 61
f 30 62 65
f 65 75 46
f 65 46 40
f 46 75 50
f 50 75 76
f 50 76 51
f 52 51 77
f 52 77 66
f 66 78 67
f 67 78 79
f 67 79 80
f 53 67 80
f 68 53 81
f 54 68 55
f 55 68 82
f 34 55 56
f 58 69 70
f 70 69 83
f 47 70 84
f 47 84 71
f 59 85 72
f 59 71 85
f 72 73 64
f 72 64 59
f 59 64 63
f 71 86 87
f 71 87 85
f 62 61 74
f 65 88 89
f 65 89 75
f 73 90 91
f 73 72 92
f 73 92 90
f 73 91 61
f 74 61 91
f 76 77 51
f 77 76 66
f 66 76 78
f 79 93 80
f 79 78 94
f 80 93 53
f 53 93 81
f 81 95 68
f 55 82 56
f 57 56 36
f 56 82 97
f 36 56 69
f 69 97 83
f 71 84 98
f 85 92 72
f 71 98 86
f 86 100 87
f 87 100 92
f 87 92 85
f 62 74 88
f 62 88 65
f 89 88 102
f 90 104 91
f 90 92 100
f 90 100 103
f 75 89 76
f 76 105 78
f 79 81 93
f 78 106 94
f 94 107 108
f 94 108 109
f 94 109 96
f 94 96 79
f 81 79 96
f 95 110 111
f 95 81 112
f 95 112 113
f 95 113 114
f 95 114 110
f 95 111 68
f 68 111 82
f 81 96 112
f 97 69 56
f 83 97 70
f 98 110 115
f 98 115 86
f 98 84 110
f 86 115 99
f 99 115 114
f 99 114 116
f 99 117 86
f 86 117 118
f 86 118 100
f 100 118 103
f 74 101 88
f 101 74 119
f 101 102 88
f 103 118 117
f 103 104 90
f 91 104 119
f 74 91 119
f 76 89 105
f 102 120 105
f 102 105 89
f 78 105 106
f 94 106 107
f 107 106 121
f 108 122 109
f 109 122 112
f 109 112 96
f 112 122 113
f 113 122 123
f 113 123 114
f 97 82 124
f 97 124 70
f 110 114 125
f 110 125 115
f 110 84 111
f 115 125 114
f 116 126 99
f 116 127 126
f 99 126 117
f 117 128 104
f 117 104 103
f 101 119 120
f 101 120 102
f 106 120 121
f 108 107 122
f 122 107 123
f 123 107 129
f 123 129 114
f 111 124 82
f 84 124 111
f 84 70 124
f 126 127 117
f 116 114 129
f 116 129 127
f 128 119 104
f 120 106 105
f 121 129 107
f 127 129 117
f 119 128 120
f 121 128 129
f 129 128 117
f 128 121 120
f 130 131 135
f 130 135 140
f 130 140 145
f 130 145 151
f 130 151 165
f 130 165 183
f 130 183 193
f 130 193 197
f 130 197 200
f 130 200 199
f 130 199 195
f 130 195 189
f 130 189 172
f 130 172 157
f 130 157 147
f 130 147 142
f 130 142 138
f 130 138 132
f 130 132 133
f 130 133 134
f 130 134 131
f 131 134 136
f 131 136 137
f 131 137 135
f 132 138 139
f 132 139 133
f 133 139 144
f 133 144 143
f 133 143 148
f 133 148 161
f 133 161 160
f 133 160 159
f 133 159 178
f 133 178 177
f 133 177 176
f 133 176 175
f 133 175 174
f 133 174 173
f 133 173 190
f 133 190 196
f 133 196 198
f 133 198 194
f 133 194 187
f 133 187 186
f 133 186 170
f 133 170 152
f 133 152 146
f 133 146 141
f 133 141 137
f 133 137 136
f 133 136 134
f 135 137 140
f 137 141 140
f 138 142 143
f 138 143 144
f 138 144 139
f 140 141 145
f 141 146 145
f 142 147 143
f 143 147 148
f 145 149 150
f 145 150 151
f 145 146 152
f 145 152 153
f 145 153 154
f 145 154 155
f 145 155 156
f 145 156 149
f 147 157 171
f 147 171 188
f 147 188 192
f 147 192 191
f 147 191 181
f 147 181 180
f 147 180 179
f 147 179 158
f 147 158 159
f 147 159 160
f 147 160 161
f 147 161 148
f 149 156 150
f 150 162 151
f 150 156 163
f 150 163 164
f 150 164 162
f 151 162 166
f 151 166 167
f 151 167 168
f 151 168 169
f 151 169 165
f 152 170 164
f 152 164 163
f 152 163 156
f 152 156 155
f 152 155 154
f 152 154 153
f 157 172 173
f 157 173 174
f 157 174 175
f 157 175 176
f 157 176 177
f 157 177 178
f 157 178 171
f 158 179 159
f 159 179 180
f 159 180 181
f 159 181 178
f 162 164 182
f 162 182 166
f 164 170 182
f 165 169 184
f 165 184 185
f 165 185 170
f 165 170 186
f 165 186 187
f 165 187 183
f 166 182 168
f 166 168 167
f 168 182 170
f 168 170 169
f 169 170 184
f 170 185 184
f 171 178 188
f 172 189 190
f 172 190 173
f 178 181 191
f 178 191 192
f 178 192 188
f 183 187 194
f 183 194 193
f 189 195 190
f 190 195 196
f 193 194 198
f 193 198 197
f 195 199 196
f 196 199 198
f 197 198 200
f 198 199 200

