# https://github.com/mikedh/trimesh
v -0.01299866 -0.00449795 -0.00299741
v -0.01294163 -0.00516856 0.00300112
v -0.01299730 -0.00449795 0.00300112
v -0.01299866 0.00449961 0.00300112
v -0.01299866 0.00449961 -0.00299871
v -0.01294163 -0.00516856 -0.00299741
v -0.00992754 -0.00479914 0.00677103
v -0.00699762 -0.00849335 -0.00299871
v -0.01265923 -0.00611042 -0.00299741
v -0.00213434 0.00679767 -0.00299871
v -0.00991260 -0.00531001 0.00667861
v -0.00972321 0.00479914 0.00699493
v -0.01265923 -0.00611042 0.00299982
v -0.01294163 0.00517022 0.00300112
v -0.00213163 -0.00679934 -0.00299741
v -0.00135502 -0.00679934 -0.00289457
v -0.00067549 -0.00679934 -0.00261860
v -0.00001090 -0.00679934 -0.00211872
v 0.00048195 -0.00679934 -0.00146653
v 0.00076435 -0.00679934 -0.00077400
v 0.00086889 -0.00679934 0.00000316
v -0.00899616 -0.00850000 -0.00299741
v -0.00966686 -0.00844176 -0.00299741
v -0.01061182 -0.00815554 -0.00299611
v -0.01215417 -0.00695742 -0.00299611
v -0.01294163 0.00517022 -0.00299871
v -0.00906133 -0.00479914 0.00765493
v -0.01215417 -0.00695742 0.00300112
v -0.00960576 -0.00568608 0.00681334
v -0.00977616 0.00545644 0.00677168
v -0.01265787 0.00611374 0.00300112
v -0.00150980 0.00679767 -0.00293362
v -0.00070061 0.00679767 -0.00263552
v -0.00001090 0.00679767 -0.00212002
v 0.00050367 0.00679767 -0.00143139
v 0.00080101 0.00679767 -0.00062299
v 0.00086889 -0.00679934 0.00777079
v 0.00086753 0.00679767 0.00000055
v -0.00704582 -0.00849002 0.00130622
v -0.00760044 -0.00849252 0.00239906
v -0.00899616 -0.00849335 0.00300112
v -0.00966686 -0.00844176 0.00300112
v -0.01145767 -0.00765133 -0.00299611
v -0.01265787 0.00611374 -0.00299871
v -0.01215417 0.00695742 -0.00299871
v -0.01145767 0.00765300 -0.00299871
v -0.01061182 0.00815887 -0.00299871
v -0.00966958 0.00844176 -0.00299871
v -0.00899887 0.00850000 -0.00299871
v -0.00700034 0.00850000 -0.00299871
v -0.00822023 -0.00556294 0.00812226
v -0.00771924 -0.00500632 0.00866900
v -0.00835736 -0.00479914 0.00823356
v -0.00892725 0.00481786 0.00777404
v -0.01145767 -0.00765133 0.00300112
v -0.00894830 -0.00597147 0.00722014
v -0.00910953 0.00566861 0.00732591
v -0.01215417 0.00695742 0.00300112
v 0.00086889 -0.00676606 0.00815351
v 0.00086889 -0.00516357 0.00984580
v -0.00248802 -0.00670449 0.00891699
v -0.00417632 -0.00660797 0.00894303
v -0.00582118 -0.00654307 0.00852581
v -0.00688290 -0.00647817 0.00811771
v -0.01061182 -0.00815554 0.00300112
v -0.01145767 0.00765300 0.00300112
v -0.01061182 0.00815887 0.00300112
v -0.00966958 0.00844176 0.00300112
v -0.00899887 0.00850000 0.00300112
v -0.00700237 0.00850000 0.00106800
v -0.00829287 0.00470179 0.00828759
v -0.00799248 -0.00626975 0.00769170
v -0.00000004 -0.00670449 0.00867031
v 0.00086618 0.00515358 0.00985101
v -0.00533427 -0.00631010 0.00905351
v -0.00875313 0.00610459 0.00727416
v -0.00692566 0.00646320 0.00811250
v -0.00782989 0.00621359 0.00790226
v -0.00585987 0.00653641 0.00853297
v -0.00446551 0.00665290 0.00876924
v -0.00838927 0.00850000 0.00290479
v -0.00338614 0.00665290 0.00898663
v -0.00112829 0.00669117 0.00891764
v 0.00086618 0.00679767 0.00777860
v -0.00764015 -0.00602389 0.00822185
v -0.00758008 0.00506206 0.00875492
v -0.00768241 0.00557917 0.00849424
v 0.00086618 0.00676605 0.00815481
v 0.00086889 -0.00636918 0.00904684
v 0.00086618 0.00641660 0.00900356
v 0.00086618 0.00584916 0.00954574
v -0.00215046 -0.00639747 0.00950457
v -0.00371199 -0.00622274 0.00958903
v -0.00641296 -0.00597147 0.00895881
v -0.00690530 0.00601723 0.00865501
v -0.00001769 0.00670032 0.00865078
v -0.00232561 0.00643158 0.00945153
v -0.00066124 0.00648691 0.00926489
v -0.00727391 0.00850000 0.00196427
v -0.00672744 -0.00556336 0.00906539
v -0.00699219 -0.00515192 0.00907646
v -0.00058724 0.00621608 0.00959488
v -0.00008413 0.00572789 0.00986402
v 0.00001897 -0.00515192 0.01006840
v -0.00000479 -0.00607090 0.00961653
v -0.00123351 -0.00612331 0.00976183
v -0.00492374 -0.00602389 0.00949432
v -0.00524636 0.00601723 0.00937684
v -0.00361899 0.00621359 0.00961571
v -0.00622238 0.00515358 0.00944746
v -0.00070333 0.00515358 0.01019370
v -0.00064868 -0.00556378 0.01005636
v -0.00237533 -0.00602389 0.00989527
v -0.00376426 -0.00580340 0.00990275
v -0.00604452 -0.00515192 0.00952166
v -0.00156852 0.00567318 0.01008955
v -0.00198805 -0.00556378 0.01015985
v -0.00409350 -0.00516357 0.01010355
v -0.00507512 -0.00515192 0.00986532
v -0.00520546 0.00545644 0.00973547
v -0.00382128 0.00582087 0.00989917
v -0.00251450 0.00590990 0.00997337
v -0.00191371 0.00515358 0.01029361
v -0.00098030 -0.00516357 0.01022852
v -0.00306165 -0.00515192 0.01025195
v -0.00447570 0.00515358 0.01002089
v -0.00314379 0.00515358 0.01023893
v -0.00541794 0.00502878 0.00975012
v -0.00202437 -0.00515192 0.01029621
v -0.01880000 0.00000009 -0.00250000
v -0.01880000 -0.00041058 -0.00246525
v -0.01880000 0.00041126 -0.00246525
v -0.01285356 0.00041126 -0.00246525
v -0.01285356 0.00000009 -0.00249951
v -0.01285356 -0.00033206 -0.00247210
v -0.01879884 -0.00054130 -0.00242120
v -0.01879884 -0.00118999 -0.00219802
v -0.01879884 -0.00183917 -0.00169293
v -0.01880000 -0.00249128 -0.00020654
v -0.01285356 -0.00041058 -0.00246525
v -0.01880000 0.00249147 -0.00020654
v -0.01879884 0.00183838 -0.00169293
v -0.01879884 0.00118871 -0.00219802
v -0.01368825 0.00118920 -0.00219802
v -0.01285356 0.00118920 -0.00219802
v -0.01776682 -0.00054130 -0.00242120
v -0.01285356 -0.00118999 -0.00219802
v -0.01879884 -0.00228887 -0.00100431
v -0.01285356 -0.00183917 -0.00169293
v -0.01285356 -0.00218449 -0.00116435
v -0.01368825 -0.00247421 -0.00000000
v -0.01879884 -0.00242299 0.00061374
v -0.01880000 -0.00153433 0.00197240
v -0.01285356 -0.00249128 -0.00020654
v -0.01285356 -0.00054130 -0.00242071
v -0.01879884 0.00228905 -0.00100431
v -0.01880000 0.00153501 0.00197240
v -0.01879884 0.00242269 0.00061374
v -0.01285356 0.00249147 -0.00020654
v -0.01368825 0.00183838 -0.00169293
v -0.01285356 0.00183838 -0.00169244
v -0.01285356 -0.00228887 -0.00100431
v -0.01285356 -0.00247421 -0.00000000
v -0.01368825 -0.00242299 0.00061423
v -0.01285356 -0.00216888 0.00119274
v -0.01879884 -0.00209182 0.00136697
v -0.01880000 -0.00081102 0.00236394
v -0.01368825 -0.00153482 0.00197240
v -0.01368825 -0.00093832 0.00229542
v -0.01285356 0.00228905 -0.00100431
v -0.01879884 0.00209201 0.00136648
v -0.01880000 0.00081169 0.00236394
v -0.01285356 0.00153501 0.00197240
v -0.01368825 0.00209249 0.00136697
v -0.01285356 0.00240952 0.00064458
v -0.01285356 0.00242269 0.00061374
v -0.01285356 -0.00242299 0.00061423
v -0.01285356 -0.00210548 0.00133614
v -0.01285356 -0.00209182 0.00136697
v -0.01880000 0.00000009 0.00250000
v -0.01285356 -0.00081150 0.00236394
v -0.01285356 -0.00153482 0.00197240
v -0.01285356 0.00062294 0.00239575
v -0.01285356 0.00081169 0.00236394
v -0.01285356 0.00209249 0.00136697
v -0.01285356 0.00000009 0.00249951
f 1 3 4
f 1 4 5
f 1 5 6
f 1 6 2
f 1 2 3
f 3 7 4
f 3 2 7
f 5 8 9
f 5 9 6
f 5 10 8
f 6 9 13
f 6 13 2
f 7 12 4
f 2 11 7
f 2 13 11
f 4 12 14
f 8 15 16
f 8 16 17
f 8 17 18
f 8 18 19
f 8 19 20
f 8 20 21
f 8 21 37
f 8 22 23
f 8 23 24
f 8 24 9
f 8 10 15
f 9 25 28
f 9 28 13
f 5 26 10
f 7 11 27
f 13 28 29
f 13 29 11
f 14 12 30
f 14 26 4
f 14 30 31
f 14 31 44
f 14 44 26
f 4 26 5
f 19 18 35
f 19 35 36
f 19 36 20
f 21 20 38
f 21 60 89
f 21 89 59
f 21 59 37
f 8 39 40
f 8 40 22
f 8 37 39
f 22 40 41
f 22 41 42
f 22 42 23
f 23 42 24
f 24 42 65
f 24 43 9
f 9 43 25
f 25 43 55
f 25 55 28
f 26 44 10
f 10 45 46
f 10 46 47
f 10 47 48
f 10 48 49
f 10 49 50
f 10 44 45
f 11 51 52
f 11 52 27
f 27 52 53
f 11 29 51
f 7 27 12
f 28 55 56
f 28 56 29
f 30 12 57
f 31 58 45
f 31 45 44
f 31 30 58
f 15 10 32
f 15 32 16
f 16 32 33
f 16 33 17
f 33 32 50
f 33 50 34
f 33 34 17
f 17 34 18
f 18 34 35
f 34 50 35
f 20 36 38
f 36 35 50
f 36 50 38
f 37 59 40
f 37 40 39
f 21 38 60
f 41 61 62
f 41 62 42
f 42 62 63
f 42 63 64
f 42 64 65
f 24 65 55
f 24 55 43
f 45 58 66
f 45 66 46
f 46 66 67
f 46 67 47
f 47 67 68
f 47 68 48
f 48 68 69
f 48 69 49
f 49 69 81
f 49 81 99
f 49 99 70
f 49 70 50
f 50 32 10
f 50 70 38
f 27 54 12
f 29 56 51
f 12 54 57
f 55 65 72
f 55 72 56
f 30 57 58
f 58 57 66
f 59 73 41
f 59 41 40
f 60 38 74
f 41 73 61
f 62 75 63
f 63 75 64
f 65 64 72
f 66 57 76
f 66 76 67
f 67 77 68
f 67 76 78
f 67 78 77
f 68 77 79
f 68 79 80
f 68 80 69
f 69 80 82
f 69 82 83
f 69 83 81
f 70 84 38
f 51 56 85
f 53 71 54
f 53 54 27
f 53 52 86
f 53 86 71
f 54 71 86
f 56 72 85
f 54 86 57
f 57 86 87
f 57 87 76
f 38 84 88
f 38 88 74
f 59 89 73
f 74 88 90
f 74 90 91
f 61 73 92
f 61 92 62
f 62 93 75
f 75 94 64
f 64 94 85
f 64 85 72
f 76 87 78
f 77 78 95
f 77 95 79
f 78 87 95
f 81 83 96
f 81 96 88
f 82 97 83
f 83 98 96
f 70 99 84
f 84 99 88
f 51 100 52
f 52 100 101
f 51 85 100
f 52 101 86
f 85 94 100
f 88 99 81
f 88 96 90
f 90 96 98
f 90 98 102
f 90 102 91
f 91 102 103
f 91 103 74
f 60 74 104
f 73 105 106
f 73 106 92
f 62 92 93
f 75 93 107
f 75 107 94
f 79 95 108
f 79 108 109
f 79 109 80
f 80 109 82
f 97 98 83
f 86 110 87
f 86 101 110
f 73 89 105
f 103 111 74
f 60 104 112
f 92 106 113
f 92 113 93
f 93 113 114
f 93 114 107
f 107 114 115
f 107 115 94
f 94 115 100
f 95 87 110
f 95 110 108
f 82 109 97
f 98 97 102
f 89 60 105
f 103 116 111
f 111 104 74
f 112 106 105
f 112 105 60
f 114 113 117
f 114 118 119
f 114 119 115
f 110 120 108
f 108 120 121
f 108 121 109
f 109 121 122
f 100 115 101
f 101 115 110
f 103 102 116
f 111 124 104
f 104 124 112
f 112 124 117
f 112 117 106
f 106 117 113
f 117 125 114
f 114 125 118
f 120 110 126
f 120 126 121
f 122 121 127
f 122 127 116
f 122 116 102
f 122 102 97
f 122 97 109
f 115 119 128
f 115 128 110
f 116 123 111
f 111 123 124
f 124 129 117
f 124 123 129
f 117 129 125
f 125 127 118
f 118 127 126
f 118 126 119
f 119 126 128
f 110 128 126
f 126 127 121
f 116 127 123
f 129 123 127
f 129 127 125
f 130 131 139
f 130 139 153
f 130 153 167
f 130 167 180
f 130 180 172
f 130 172 157
f 130 157 141
f 130 141 132
f 130 132 133
f 130 133 134
f 130 134 135
f 130 135 131
f 131 136 137
f 131 137 138
f 131 138 139
f 131 135 140
f 131 140 146
f 131 146 136
f 132 141 142
f 132 142 143
f 132 143 144
f 132 144 145
f 132 145 133
f 133 145 161
f 133 161 170
f 133 170 159
f 133 159 176
f 133 176 175
f 133 175 185
f 133 185 173
f 133 173 184
f 133 184 183
f 133 183 186
f 133 186 181
f 133 181 182
f 133 182 179
f 133 179 178
f 133 178 165
f 133 165 177
f 133 177 163
f 133 163 154
f 133 154 162
f 133 162 150
f 133 150 149
f 133 149 147
f 133 147 155
f 133 155 140
f 133 140 135
f 133 135 134
f 136 146 147
f 136 147 137
f 137 147 149
f 137 149 138
f 138 148 139
f 138 149 150
f 138 150 148
f 139 151 152
f 139 152 153
f 139 148 162
f 139 162 154
f 139 154 163
f 139 163 151
f 140 155 146
f 141 156 142
f 141 157 158
f 141 158 176
f 141 176 159
f 141 159 170
f 141 170 156
f 142 156 170
f 142 170 160
f 142 160 145
f 142 145 144
f 142 144 143
f 145 160 161
f 146 155 147
f 148 150 162
f 151 163 177
f 151 177 164
f 151 164 152
f 152 164 165
f 152 165 166
f 152 166 153
f 153 166 168
f 153 168 169
f 153 169 167
f 157 171 158
f 157 172 184
f 157 184 173
f 157 173 185
f 157 185 174
f 157 174 171
f 158 171 174
f 158 174 175
f 158 175 176
f 160 170 161
f 164 177 165
f 165 178 166
f 166 178 179
f 166 179 182
f 166 182 168
f 167 169 181
f 167 181 180
f 168 182 169
f 169 182 181
f 172 180 183
f 172 183 184
f 174 185 175
f 180 181 186
f 180 186 183

