# https://github.com/mikedh/trimesh
v 0.00956475 -0.00067594 0.01580106
v 0.00957146 0.00019470 0.01544222
v 0.00871489 -0.00010832 0.02116583
v 0.00928306 -0.00383697 0.01496738
v 0.00275057 -0.00750258 -0.00097761
v 0.00270937 0.00733879 -0.00106460
v 0.00933432 0.00339945 0.01503354
v 0.00850698 0.00162697 0.02208718
v 0.00273716 -0.00772420 -0.00094137
v 0.00237690 -0.00761093 -0.00165180
v 0.00273141 0.00774097 -0.00093412
v 0.00941720 0.00249782 0.01626865
v 0.00893814 -0.00175876 0.01963961
v 0.00857980 -0.00586923 0.01413733
v 0.00674403 -0.00768972 0.01157830
v 0.00937480 -0.00360141 0.01560080
v 0.00225570 0.00763016 -0.00178592
v 0.00600053 0.00807092 0.01051265
v 0.00673828 0.00770814 0.01158193
v 0.00857980 0.00588929 0.01414458
v 0.00893622 0.00511611 0.01453605
v 0.00887682 0.00357797 0.01900347
v 0.00224803 -0.00785757 -0.00114525
v 0.00600244 -0.00804922 0.01050902
v 0.00472431 -0.00831680 0.00884166
v 0.00799343 -0.00666005 0.01397422
v 0.00188155 0.00784521 -0.00150319
v 0.00490060 0.00831470 0.00912167
v 0.00089564 -0.00769301 -0.00271021
v 0.00900664 -0.00480755 0.01574397
v 0.00839392 -0.00567552 0.01679423
v 0.00721734 -0.00739260 0.01323841
v 0.00125685 0.00771635 -0.00252173
v 0.00721734 0.00741266 0.01324566
v 0.00825116 0.00629557 0.01488583
v 0.00898688 0.00423110 0.01726294
v 0.00380355 0.00837297 0.00939624
v 0.00768108 0.00349096 0.02569646
v 0.00762083 -0.00335271 0.02585594
v 0.00848542 -0.00421618 0.02040170
v 0.00344138 -0.00829382 0.02093000
v 0.00380642 -0.00835456 0.00948052
v 0.00004866 -0.00769629 -0.00271021
v 0.00162525 -0.00026370 -0.00238988
v 0.00503090 -0.00707249 0.03229339
v 0.00493425 0.00821128 0.01531082
v 0.00547020 0.00791036 0.01813106
v 0.00782575 -0.00021712 0.02582060
v 0.00495042 -0.00806728 0.01873706
v 0.00812229 -0.00495652 0.02088106
v 0.00747220 -0.00462616 0.02516000
v 0.00013968 0.00715493 -0.00286064
v 0.00010231 0.00770814 -0.00270296
v 0.00325454 0.00833522 0.02091912
v 0.00502707 0.00708434 0.03228976
v 0.00829380 0.00531597 0.01888114
v 0.00504432 0.00678886 0.03265586
v 0.00289237 -0.00815921 0.02752692
v 0.00032652 -0.00713487 -0.00286970
v 0.00504815 -0.00676881 0.03265948
v 0.00441052 -0.00676881 0.03353122
v 0.00362390 -0.00718248 0.03348410
v 0.00082187 0.00660706 -0.00275824
v -0.00097270 0.00735192 -0.00270659
v -0.00077149 0.00760144 -0.00215201
v 0.00233953 0.00825478 0.02788577
v 0.00755820 0.00454218 0.02491488
v 0.00328137 0.00807913 0.02751605
v 0.00105852 -0.00833322 0.02789302
v 0.00069252 -0.00835948 0.02642865
v -0.00076958 -0.00760108 -0.00215201
v -0.00132816 -0.00722885 -0.00251629
v -0.00553337 0.00749309 0.02972348
v 0.00069252 0.00837954 0.02641777
v 0.00425578 0.00690870 0.03363271
v -0.00553720 -0.00749602 0.02972348
v -0.00058658 -0.00603831 -0.00283345
v -0.00188579 0.00700883 -0.00216651
v -0.00209323 0.00718120 -0.00160740
v -0.00632861 0.00730431 0.02935377
v -0.00610441 0.00734864 0.02991559
v -0.00391414 0.00770814 0.03028169
v 0.00105661 0.00835327 0.02788577
v 0.00417338 0.00718694 0.03320500
v -0.00395438 -0.00769465 0.03028894
v -0.00134349 0.00605673 -0.00255798
v -0.00173920 -0.00734007 -0.00192184
v -0.00636502 -0.00729575 0.02935739
v 0.00366222 -0.00676881 0.03396346
v 0.00194191 -0.00697728 0.03395712
v -0.00040549 -0.00785716 0.03082539
v -0.00498532 0.00404417 -0.00050640
v -0.00718518 0.00697436 0.02953319
v -0.00779454 0.00647368 0.02956944
v 0.00194000 0.00699734 0.03395349
v 0.00270650 0.00717463 0.03375414
v 0.00279848 0.00678886 0.03410845
v 0.00379301 0.00678886 0.03393175
v -0.00612166 -0.00733186 0.02991922
v -0.00247935 -0.00697975 -0.00126940
v 0.00270650 -0.00676881 0.03412386
v -0.00508880 -0.00200171 -0.00053177
v -0.00535899 0.00250603 -0.00016749
v -0.00427440 0.00553799 -0.00018381
v -0.00343652 0.00642854 -0.00009500
v -0.00809013 0.00632594 0.02898767
v -0.00882261 0.00559216 0.02898767
v -0.00938886 0.00479272 0.02918703
v -0.00975678 0.00371093 0.02918341
v -0.00031591 0.00785752 0.03082539
v -0.00780317 -0.00646019 0.02957669
v -0.00720626 -0.00696415 0.02950057
v -0.00498916 -0.00403068 -0.00050640
v -0.00339675 -0.00649138 0.00004092
v -0.00795264 -0.00643639 0.02899492
v -0.00417715 -0.00568661 -0.00008231
v -0.00520857 0.00367400 0.00004455
v -0.00494892 0.00444225 0.00004455
v -0.00976517 -0.00325812 0.02918295
v -0.00939844 -0.00477923 0.02919066
v -0.00535372 -0.00235587 -0.00013487
v -0.00479562 -0.00473737 -0.00005332
v -0.00999057 0.00202505 0.02862158
v -0.00992925 0.00294022 0.02862158
v -0.00977403 0.00375197 0.02869045
v -0.00863195 -0.00583147 0.02899492
v -0.00521719 -0.00365148 0.00004817
v -0.00995799 -0.00273549 0.02862521
v -0.00977211 -0.00373191 0.02869770
f 2 4 5
f 2 5 6
f 2 6 7
f 1 8 3
f 5 4 9
f 5 10 6
f 6 11 7
f 2 7 1
f 8 1 12
f 1 3 13
f 9 10 5
f 9 4 14
f 9 14 15
f 4 2 16
f 10 17 6
f 6 17 11
f 11 18 19
f 11 19 20
f 11 20 21
f 11 21 7
f 7 12 1
f 1 16 2
f 9 23 10
f 9 15 24
f 9 24 25
f 9 25 23
f 14 26 15
f 4 16 14
f 11 17 27
f 11 27 28
f 11 28 18
f 8 12 22
f 10 23 29
f 14 16 30
f 14 31 26
f 15 26 32
f 15 32 24
f 16 1 13
f 17 33 27
f 20 19 34
f 20 35 21
f 21 36 7
f 27 37 28
f 7 36 12
f 12 36 22
f 25 24 41
f 23 25 42
f 23 42 43
f 10 44 17
f 14 30 31
f 13 40 16
f 18 28 46
f 18 47 19
f 18 46 47
f 34 35 20
f 22 38 8
f 8 38 48
f 13 39 40
f 25 41 42
f 24 49 41
f 23 43 29
f 29 44 10
f 30 40 50
f 32 26 45
f 45 49 32
f 45 26 31
f 45 31 50
f 45 50 51
f 32 49 24
f 16 40 30
f 44 33 17
f 27 33 53
f 27 53 37
f 19 47 34
f 34 55 35
f 21 35 56
f 21 56 36
f 38 57 48
f 8 48 3
f 3 48 13
f 13 48 39
f 43 59 29
f 30 50 31
f 45 60 61
f 45 51 60
f 45 61 62
f 45 62 58
f 33 44 63
f 33 63 52
f 52 53 33
f 28 37 54
f 28 54 46
f 54 66 46
f 34 47 55
f 55 67 56
f 55 56 35
f 55 47 68
f 22 36 38
f 57 60 48
f 41 58 69
f 42 41 69
f 49 58 41
f 42 69 70
f 42 70 43
f 43 70 71
f 29 63 44
f 59 77 52
f 50 40 51
f 60 51 39
f 45 58 49
f 52 64 53
f 64 65 53
f 65 73 74
f 53 65 74
f 53 74 37
f 66 68 46
f 55 75 57
f 55 57 67
f 57 38 67
f 39 48 60
f 40 39 51
f 58 62 69
f 71 70 76
f 72 59 43
f 43 71 72
f 29 59 63
f 59 72 77
f 63 59 52
f 52 77 64
f 64 79 65
f 65 80 73
f 73 80 81
f 73 81 82
f 37 74 54
f 54 74 66
f 66 74 83
f 66 83 84
f 66 84 55
f 66 55 68
f 46 68 47
f 55 84 75
f 67 36 56
f 36 67 38
f 57 61 60
f 57 75 61
f 70 85 76
f 71 87 72
f 71 76 88
f 71 88 87
f 72 86 77
f 61 90 62
f 62 91 69
f 64 86 78
f 78 86 92
f 64 78 79
f 79 93 80
f 65 79 80
f 81 93 94
f 81 94 95
f 81 95 82
f 82 83 74
f 82 74 73
f 83 96 84
f 84 96 75
f 75 97 98
f 69 91 85
f 70 69 85
f 85 99 76
f 85 90 99
f 76 99 88
f 87 100 72
f 77 86 64
f 61 75 89
f 89 75 98
f 61 89 90
f 90 89 101
f 62 90 91
f 86 102 92
f 92 104 78
f 78 104 79
f 79 104 105
f 79 105 106
f 79 106 93
f 80 93 81
f 94 93 107
f 94 107 108
f 95 94 108
f 95 108 109
f 95 96 82
f 95 97 96
f 83 82 110
f 83 110 96
f 96 97 75
f 99 111 112
f 99 90 111
f 72 113 102
f 87 88 112
f 99 112 88
f 100 87 112
f 100 112 115
f 100 115 114
f 100 114 116
f 89 98 97
f 90 85 91
f 103 117 92
f 92 117 118
f 92 118 104
f 93 106 107
f 95 109 119
f 95 119 90
f 95 90 97
f 97 90 101
f 96 110 82
f 97 101 89
f 111 115 112
f 90 119 120
f 90 120 111
f 86 72 102
f 113 121 102
f 100 116 113
f 100 113 72
f 116 122 113
f 102 121 92
f 92 121 103
f 103 121 123
f 103 123 124
f 117 103 124
f 117 124 125
f 117 125 118
f 118 125 108
f 118 108 104
f 104 108 107
f 104 107 105
f 105 107 106
f 108 125 109
f 109 125 124
f 109 124 123
f 120 126 111
f 111 126 115
f 113 122 127
f 113 127 121
f 114 115 126
f 114 126 116
f 116 126 122
f 122 126 120
f 109 123 119
f 119 128 129
f 119 129 120
f 122 120 129
f 122 129 127
f 127 129 128
f 127 128 121
f 121 128 123
f 123 128 119

