# https://github.com/mikedh/trimesh
v 0.00300073 -0.00153254 0.00455706
v 0.00284197 0.00293158 0.00434485
v 0.00201262 -0.00343393 -0.01142825
v 0.00200832 0.00346172 -0.01142485
v 0.00235060 -0.00342159 0.00609515
v 0.00201262 -0.00446952 -0.01074578
v 0.00200832 0.00449113 -0.01074238
v 0.00234845 0.00344937 0.00608836
v 0.00179520 -0.00489239 -0.01022290
v 0.00177367 0.00489086 -0.01035532
v 0.00169940 -0.00620809 0.00322184
v 0.00067577 -0.00705461 0.00301048
v -0.00189434 -0.00773330 0.00147875
v 0.00248407 -0.00468906 0.00385932
v -0.00005832 0.00486616 -0.01077804
v -0.00263300 0.00785870 0.00008538
v 0.00076605 0.00699925 0.00305610
v 0.00201908 0.00587088 0.00336190
v 0.00091284 0.00041883 0.00967640
v -0.00469748 -0.00784018 -0.00060048
v -0.00182787 -0.00344319 -0.01143164
v -0.00125740 0.00769202 0.00283562
v 0.00093100 -0.00530225 0.00729106
v -0.00174607 -0.00721667 0.00788450
v -0.00452742 -0.00770205 0.00747027
v -0.00187523 0.00349259 -0.01143843
v -0.00474108 0.00773774 0.00736332
v -0.00129265 0.00695971 0.00807592
v -0.00031342 -0.00489799 -0.01067278
v -0.00757463 0.00759248 -0.00149345
v 0.00062626 0.00343394 0.00986739
v -0.00421607 -0.00709252 0.01179043
v -0.00757463 -0.00756700 -0.00148836
v -0.00280737 0.00489549 -0.01032051
v -0.00744439 0.00772655 0.00649156
v -0.00336170 0.00719709 0.01050635
v -0.00006531 0.00533688 0.00948032
v -0.00082617 -0.00092402 0.01255523
v -0.00127085 -0.00641567 0.00969507
v -0.00888215 -0.00754959 0.00640211
v -0.00309907 -0.00485767 -0.01028741
v -0.00031880 -0.00409255 0.01123232
v -0.00744869 0.00724291 0.01338497
v -0.00100149 0.00303113 0.01265030
v -0.00730311 -0.00739060 0.01188444
v -0.00963938 -0.00696780 -0.00195989
v -0.00964395 0.00699540 -0.00196244
v -0.00693419 0.00688485 0.01502492
v -0.00175253 0.00553752 0.01231883
v -0.00212758 -0.00529248 0.01301010
v -0.00390420 -0.00652641 0.01341298
v -0.00375673 0.00352037 -0.01093931
v -0.00494074 -0.00351419 -0.01043341
v -0.00555643 0.00485854 -0.00919198
v -0.01137523 0.00717450 0.01216736
v -0.00286671 0.00030795 0.01520583
v -0.01137637 -0.00711943 0.01248297
v -0.01138741 -0.00711355 0.00641283
v -0.00698316 -0.00483297 -0.00812117
v -0.00365932 -0.00377501 0.01588564
v -0.00494814 0.00612987 0.01531650
v -0.00280953 0.00448341 0.01468199
v -0.00854942 -0.00669106 0.01604013
v -0.00597191 0.00339227 -0.00992071
v -0.00770379 0.00482989 -0.00756519
v -0.01365008 0.00665596 0.01151456
v -0.00497640 0.00295917 0.01727890
v -0.00695262 -0.00610112 0.01693958
v -0.00728293 -0.00344628 -0.00903113
v -0.00984254 0.00655304 0.01713004
v -0.00599700 0.00540378 0.01720909
v -0.00548552 -0.00461121 0.01730235
v -0.01060300 -0.00556529 0.01949066
v -0.01247347 -0.00664119 0.01617658
v -0.01456029 -0.00633850 0.01272712
v -0.01186451 -0.00601160 0.00035022
v -0.01184514 -0.00492905 -0.00251970
v -0.00866176 -0.00346171 -0.00766620
v -0.00899651 0.00347561 -0.00731648
v -0.01142912 0.00555295 -0.00252224
v -0.01273368 0.00582149 0.00242478
v -0.00587503 0.00452045 0.01779892
v -0.01504734 0.00560909 0.01047558
v -0.01412435 0.00653915 0.01533390
v -0.01263331 -0.00268329 -0.00241274
v -0.01499891 -0.00552786 0.01011100
v -0.01243014 0.00381978 -0.00251545
v -0.01460119 0.00609389 0.01747636
v -0.00931512 0.00568491 0.01898560
v -0.00694710 -0.00170230 0.01913330
v -0.00803101 -0.00492943 0.01911462
v -0.01407006 -0.00552695 0.01960679
v -0.01501387 -0.00604246 0.01682199
v -0.01691324 -0.00415853 0.01440188
v -0.01258622 0.00259518 -0.00255917
v -0.01322235 0.00583538 0.01919526
v -0.00791167 0.00406478 0.01943294
v -0.01691754 0.00485690 0.01679050
v -0.00886574 -0.00359367 0.02019943
v -0.01386925 -0.00423126 0.02154315
v -0.01210239 -0.00385006 0.02150675
v -0.01791103 -0.00233507 0.01608427
v -0.01790888 0.00236132 0.01608088
v -0.01733625 0.00391932 0.01571163
v -0.01523732 0.00505619 0.02034331
v -0.01805742 0.00018057 0.01602316
v -0.01276274 0.00438425 0.02137592
v -0.00928589 0.00132581 0.02075813
v -0.00907855 -0.00186595 0.02059717
v -0.01751870 -0.00422798 0.01954371
v -0.01783596 -0.00365422 0.01845566
v -0.01105064 0.00336251 0.02134749
v -0.01620391 -0.00411378 0.02138611
v -0.01883241 0.00155724 0.02000930
v -0.01691216 0.00484610 0.01923516
v -0.01768526 0.00317601 0.02137423
v -0.01433963 -0.00192802 0.02273491
v -0.01629378 -0.00295569 0.02233553
v -0.01894866 -0.00067907 0.02018246
v -0.01527728 0.00344055 0.02219282
v -0.01185859 -0.00180127 0.02205202
v -0.01246297 0.00066306 0.02235633
v -0.01859991 0.00155338 0.02155078
v -0.01777110 0.00160585 0.02243358
v -0.01500604 0.00114131 0.02290277
v -0.01785291 -0.00280193 0.02162209
v -0.01767652 -0.00147543 0.02247432
v -0.01663439 -0.00052575 0.02296707
v -0.01866032 -0.00117950 0.02141073
f 1 3 4
f 2 5 1
f 3 1 6
f 4 7 2
f 4 2 1
f 2 8 5
f 9 6 11
f 9 11 12
f 9 12 13
f 1 14 6
f 6 14 11
f 7 15 10
f 10 16 17
f 10 17 18
f 10 18 7
f 8 19 5
f 13 20 9
f 10 15 16
f 16 22 17
f 11 14 23
f 12 24 13
f 14 1 5
f 3 21 4
f 4 21 26
f 22 16 27
f 17 22 28
f 18 2 7
f 2 18 8
f 11 23 12
f 24 25 13
f 13 25 20
f 20 29 9
f 9 29 6
f 3 6 21
f 7 4 15
f 16 15 30
f 8 31 19
f 20 33 29
f 29 21 6
f 5 23 14
f 15 4 26
f 16 35 27
f 23 39 12
f 12 39 24
f 32 25 24
f 33 20 40
f 33 41 29
f 21 29 41
f 34 30 15
f 30 35 16
f 27 35 43
f 27 43 22
f 22 43 36
f 22 36 28
f 28 37 17
f 17 37 18
f 18 37 8
f 31 8 37
f 19 38 42
f 25 40 20
f 33 46 41
f 5 19 42
f 30 34 47
f 36 43 48
f 37 49 31
f 44 19 31
f 19 44 38
f 39 32 24
f 32 45 25
f 25 45 40
f 21 52 26
f 21 41 53
f 5 42 23
f 34 15 26
f 35 30 55
f 36 49 28
f 28 49 37
f 39 23 50
f 39 51 32
f 46 59 41
f 46 33 58
f 21 53 52
f 47 34 54
f 36 48 61
f 49 36 61
f 49 62 31
f 31 62 44
f 38 44 56
f 38 56 60
f 23 42 50
f 32 63 45
f 40 58 33
f 53 64 52
f 26 52 34
f 38 60 42
f 54 65 47
f 56 44 67
f 50 51 39
f 51 63 32
f 59 53 41
f 52 54 34
f 47 66 30
f 43 70 48
f 62 49 71
f 44 62 67
f 50 72 51
f 51 68 63
f 63 74 45
f 45 57 40
f 40 57 58
f 46 75 76
f 46 76 77
f 46 77 59
f 59 77 78
f 59 69 53
f 64 54 52
f 42 60 50
f 54 64 65
f 47 65 80
f 47 81 66
f 35 55 43
f 61 71 49
f 62 71 82
f 62 82 67
f 51 72 68
f 45 74 57
f 58 57 75
f 58 75 46
f 59 78 69
f 53 69 64
f 65 64 79
f 80 81 47
f 81 83 66
f 30 66 55
f 43 55 70
f 50 60 72
f 63 68 73
f 77 85 78
f 69 79 64
f 69 78 79
f 79 80 65
f 80 79 87
f 55 66 84
f 56 67 90
f 60 56 90
f 60 90 72
f 72 91 68
f 73 92 63
f 74 63 92
f 75 57 93
f 77 94 85
f 79 95 87
f 55 84 70
f 48 70 89
f 89 71 48
f 48 71 61
f 71 97 82
f 91 73 68
f 76 75 86
f 77 76 86
f 78 85 95
f 78 95 79
f 87 81 80
f 66 83 98
f 70 96 89
f 96 70 88
f 73 100 92
f 73 101 100
f 57 74 93
f 77 86 94
f 85 94 102
f 87 95 103
f 81 87 83
f 83 104 98
f 88 70 84
f 97 71 89
f 97 67 82
f 90 99 72
f 72 99 91
f 73 91 101
f 75 93 86
f 85 106 95
f 87 103 104
f 83 87 104
f 67 97 108
f 67 108 90
f 99 90 109
f 74 92 93
f 86 111 94
f 85 102 106
f 93 110 86
f 95 106 103
f 66 98 84
f 96 88 105
f 96 105 89
f 89 105 107
f 90 108 109
f 100 113 92
f 86 110 111
f 103 114 104
f 98 104 115
f 89 107 112
f 89 112 97
f 97 112 108
f 99 101 91
f 101 117 100
f 100 118 113
f 94 111 102
f 98 88 84
f 88 115 105
f 105 115 116
f 105 120 107
f 101 99 121
f 119 106 102
f 104 114 115
f 116 120 105
f 117 118 100
f 113 110 93
f 113 93 92
f 111 119 102
f 103 106 114
f 114 123 115
f 98 115 88
f 120 116 124
f 107 120 112
f 112 120 125
f 108 122 109
f 109 122 121
f 109 121 99
f 118 126 113
f 121 117 101
f 118 128 127
f 106 119 114
f 123 116 115
f 125 122 112
f 122 108 112
f 126 118 127
f 126 110 113
f 118 117 128
f 111 110 126
f 111 126 129
f 119 111 129
f 119 129 123
f 119 123 114
f 120 124 125
f 126 127 129
f 116 123 124
f 117 125 128
f 124 128 125
f 122 125 117
f 122 117 121
f 128 124 127
f 127 124 129
f 129 124 123

