# https://github.com/mikedh/trimesh
v 0.01116815 0.00448481 0.00818046
v 0.01116597 -0.00448462 0.00817525
v 0.01110482 0.00475276 0.00739335
v 0.01113321 0.00479570 0.00818046
v 0.00879413 0.00448481 0.03084503
v 0.00879413 -0.00422096 0.03085024
v 0.01113321 -0.00479379 0.00817525
v 0.01110482 -0.00475085 0.00738293
v 0.00492843 0.00859681 0.00025985
v 0.00745970 0.00741680 0.02084718
v 0.00743131 0.00740478 0.03230978
v 0.00794673 0.00686802 0.03195532
v 0.00840319 0.00616637 0.03136629
v 0.00872206 0.00527750 0.03084503
v 0.00848837 -0.00584841 0.03122555
v 0.00785937 -0.00676219 0.03189798
v 0.00716158 -0.00739771 0.03111348
v 0.00727406 -0.00731183 0.02187928
v 0.00494372 -0.00860176 0.00079415
v 0.01058721 0.00476479 0.00631955
v 0.00434530 0.00854013 -0.00228653
v 0.00450691 0.00876857 0.00078893
v 0.00648781 0.00797846 0.03189798
v 0.00638517 0.00792779 0.03384490
v 0.00799478 0.00554115 0.03278413
v 0.00768902 -0.00650669 0.03299133
v 0.00450473 -0.00876837 0.00079415
v 0.00592652 -0.00794735 0.03243488
v 0.01058939 -0.00462546 0.00630912
v 0.00434530 -0.00853993 -0.00228653
v 0.00380366 0.00817771 -0.00326650
v 0.00371521 0.00875139 -0.00237514
v 0.00693990 0.00745115 0.03384230
v 0.00382332 0.00845940 0.03612022
v 0.00187518 0.00858307 0.03664149
v 0.00817824 -0.00501365 0.03243488
v 0.00666035 -0.00742347 0.03406905
v 0.00345204 -0.00827713 0.03612543
v 0.00213180 -0.00836473 0.03665191
v 0.00361147 -0.00862409 -0.00307624
v 0.00393689 -0.00817751 -0.00308667
v 0.00268108 0.00845768 -0.00423605
v -0.00182017 0.00876513 -0.00395978
v -0.00472273 0.00877029 0.00263160
v -0.00710112 0.00871189 0.00342132
v 0.00754378 0.00632954 0.03338880
v 0.00755143 -0.00606312 0.03339922
v 0.00094479 -0.00875979 -0.00422823
v 0.00493280 -0.00793275 0.03576055
v 0.00239716 -0.00833725 0.03717839
v -0.00709893 -0.00870826 0.00342132
v -0.00498481 -0.00876837 0.00290005
v 0.00267889 -0.00845748 -0.00422563
v 0.00501087 0.00800079 0.03583222
v 0.00068489 0.00872391 -0.00449147
v -0.00446283 0.00777922 0.04140584
v 0.00273131 0.00846455 0.03747551
v -0.00250377 0.00793380 0.04115563
v -0.00214777 0.00448481 0.04632136
v 0.00624539 -0.00732385 0.03472063
v -0.00018052 -0.00793447 0.03997888
v -0.00254745 -0.00792502 0.04116084
v 0.00163057 0.00845768 -0.00476774
v -0.00247756 0.00490907 0.04651944
v -0.00374210 0.00851608 -0.00324044
v -0.00842681 0.00844394 0.00315026
v -0.00402493 0.00527320 0.04689996
v -0.00551771 0.00757139 0.04193231
v -0.00698646 0.00693157 0.04369419
v 0.00782443 -0.00017166 0.03306040
v -0.00214996 -0.00448462 0.04633700
v -0.00247974 -0.00491059 0.04652987
v 0.00320852 -0.00798643 0.03740253
v -0.00373992 -0.00527301 0.04687911
v -0.00696571 -0.00692021 0.04368898
v -0.00551771 -0.00754543 0.04193231
v -0.00446064 -0.00775326 0.04141105
v -0.00340358 -0.00874433 -0.00291204
v 0.00162620 -0.00845748 -0.00476253
v 0.00028740 0.00817771 -0.00501274
v -0.00156683 0.00845424 -0.00476253
v -0.00938996 0.00785308 0.00342132
v -0.00790702 0.00634500 0.04433013
v -0.00408499 0.00263751 0.04810409
v -0.00789828 -0.00633450 0.04431971
v -0.00843118 -0.00844890 0.00314505
v 0.00002477 -0.00857257 -0.00485766
v 0.00028522 -0.00817751 -0.00501795
v -0.00989229 0.00728626 0.00303819
v -0.01106073 0.00528866 0.00315026
v -0.01058899 0.00644119 0.00307207
v -0.00419419 0.00369127 0.04800504
v -0.00842244 0.00580910 0.04431449
v -0.00518574 0.00490391 0.04706416
v -0.00996436 0.00734809 0.00342132
v -0.00446064 0.00250053 0.04820313
v -0.00420948 -0.00369279 0.04800504
v -0.00538885 -0.00485734 0.04702507
v -0.00898810 -0.00482814 0.04435619
v -0.00840497 -0.00578143 0.04404344
v -0.01013689 -0.00712332 0.00342132
v -0.00925892 -0.00794220 0.00342132
v -0.00374210 -0.00851588 -0.00325086
v -0.00278605 0.00825114 -0.00415526
v -0.01113717 0.00448138 0.00342653
v -0.01079210 0.00606159 0.00342653
v -0.00899247 0.00483693 0.04436141
v -0.00553846 0.00345338 0.04775484
v -0.00525262 0.00217268 0.04808584
v -0.00628866 -0.00307789 0.04745772
v -0.00989010 -0.00728349 0.00303037
v -0.00323978 -0.00817751 -0.00379819
v -0.00264355 -0.00847123 -0.00423605
v -0.01059335 -0.00644271 0.00306165
v -0.01106292 -0.00529706 0.00314505
v -0.00156901 -0.00845233 -0.00476253
v -0.01110004 0.00448138 0.00308771
v -0.01113663 -0.00369108 0.00408072
v -0.00957779 0.00237214 0.04404344
v -0.00949916 0.00330652 0.04434055
v -0.01109895 -0.00452670 0.00308771
v -0.00926001 0.00421687 0.04404344
v -0.00637302 0.00232211 0.04746944
v -0.00525563 -0.00316548 0.04800504
v -0.00949698 -0.00330118 0.04434055
v -0.00939870 -0.00377438 0.04404344
v -0.01079647 -0.00606655 0.00342132
v -0.00957779 -0.00210485 0.04404344
v -0.00636729 -0.00184120 0.04752548
v -0.00343344 -0.00342827 0.02294161
v -0.00331624 -0.00342827 0.02241386
v -0.00342051 -0.00342827 0.02346847
v -0.00342631 0.00272637 0.02294161
v -0.00318523 -0.00342827 0.02209287
v -0.00330020 0.00272637 0.02241386
v -0.00317320 0.00272637 0.02210173
v -0.00326009 -0.00342827 0.02397452
v -0.00341249 0.00272637 0.02346847
v 0.00025183 0.00342543 0.02484141
v 0.00025183 0.00342543 0.02142832
v -0.00300297 -0.00342827 0.02182767
v -0.00299940 0.00272637 0.02183785
v -0.00312908 -0.00342827 0.02423839
v -0.00325474 0.00272637 0.02395903
v 0.00044434 0.00342543 0.02467095
v -0.00311972 0.00272637 0.02422290
v -0.00297935 0.00272637 0.02442346
v -0.00290894 0.00272637 0.02452396
v -0.00266697 0.00272637 0.02483477
v -0.00234969 0.00272637 0.02502337
v -0.00203687 0.00272637 0.02516771
v -0.00188001 0.00272637 0.02523988
v -0.00170443 0.00272637 0.02530319
v -0.00161620 0.00272637 0.02533418
v -0.00140230 0.00272637 0.02534658
v -0.00129491 0.00272637 0.02535278
v -0.00086177 0.00272637 0.02533418
v -0.00059796 0.00272637 0.02530363
v -0.00035911 0.00272637 0.02520136
v -0.00023968 0.00272637 0.02515000
v 0.00018187 0.00272637 0.02489808
v 0.00018321 -0.00342827 0.02490162
v 0.00025183 -0.00342827 0.02484097
v -0.00011001 0.00272637 0.02117020
v -0.00028514 0.00272637 0.02107368
v -0.00037382 0.00272637 0.02102675
v -0.00063584 0.00272637 0.02095990
v -0.00076730 0.00272637 0.02092669
v -0.00129491 0.00272637 0.02089437
v -0.00164606 0.00272637 0.02095680
v -0.00182208 0.00272637 0.02098823
v -0.00200612 0.00272637 0.02105464
v -0.00209836 0.00272637 0.02108829
v -0.00236217 0.00272637 0.02123705
v -0.00273560 0.00272637 0.02150093
v 0.00026743 0.00342543 0.02143894
v -0.00273916 -0.00342827 0.02149783
v -0.00292276 -0.00342827 0.02452396
v 0.00065200 0.00342543 0.02440531
v 0.00044568 -0.00271178 0.02466918
v -0.00267143 -0.00342827 0.02484185
v -0.00234969 -0.00342827 0.02502957
v -0.00190496 -0.00342827 0.02523899
v -0.00164116 -0.00342827 0.02535676
v -0.00129491 -0.00342827 0.02540369
v -0.00075126 -0.00342827 0.02535809
v -0.00074769 -0.00342827 0.02535720
v -0.00056632 -0.00325787 0.02530762
v -0.00029227 -0.00342827 0.02519472
v -0.00028425 -0.00342827 0.02519117
v 0.00025183 -0.00342827 0.02142876
v 0.00109138 -0.00271178 0.02327322
v 0.00104637 -0.00271178 0.02353709
v 0.00093898 -0.00271178 0.02383063
v 0.00087837 -0.00271178 0.02399622
v 0.00064799 -0.00271178 0.02440531
v 0.00051876 -0.00271178 0.02457399
v -0.00011001 0.00237416 0.02116666
v -0.00037114 -0.00342827 0.02101745
v -0.00076953 -0.00342827 0.02091031
v -0.00129669 -0.00342827 0.02088065
v -0.00182342 -0.00342827 0.02096565
v -0.00211797 -0.00342827 0.02107280
v -0.00238088 -0.00342827 0.02123395
v 0.00053124 0.00342543 0.02164570
v 0.00025985 0.00237416 0.02143053
v 0.00025183 0.00237416 0.02142477
v 0.00088951 0.00342543 0.02400064
v -0.00010689 -0.00342827 0.02117507
v -0.00011001 -0.00237432 0.02116666
v 0.00025183 -0.00237432 0.02142477
v 0.00025985 -0.00237432 0.02143053
v 0.00052188 -0.00271178 0.02165943
v 0.00063729 -0.00271178 0.02182811
v 0.00070146 -0.00271178 0.02192330
v 0.00094611 -0.00271178 0.02241386
v 0.00106063 -0.00271178 0.02284243
v 0.00108024 -0.00271178 0.02301067
v 0.00109138 -0.00271178 0.02310630
v 0.00111812 0.00342543 0.02334184
v 0.00105573 0.00342543 0.02360572
v 0.00105395 0.00342543 0.02361059
v 0.00089174 0.00342543 0.02399622
v 0.00070325 0.00342543 0.02190958
v 0.00052366 -0.00237432 0.02165943
v 0.00098042 0.00342543 0.02245370
v 0.00099156 0.00342543 0.02249355
v 0.00111232 0.00342543 0.02293541
v 0.00111723 0.00342543 0.02296020
f 1 2 3
f 1 3 4
f 1 4 5
f 1 5 6
f 1 6 2
f 2 6 7
f 2 7 8
f 3 2 8
f 3 9 4
f 4 10 11
f 4 11 12
f 4 9 10
f 4 12 13
f 4 13 14
f 4 14 5
f 7 6 15
f 7 15 16
f 7 16 17
f 7 17 18
f 7 18 19
f 7 19 8
f 3 20 21
f 3 21 9
f 9 21 22
f 10 23 11
f 11 23 24
f 9 22 23
f 9 23 10
f 14 13 5
f 5 13 25
f 5 25 6
f 18 17 19
f 19 17 28
f 19 28 27
f 8 19 30
f 8 30 29
f 19 27 30
f 8 29 3
f 3 29 20
f 20 31 21
f 21 32 22
f 12 11 33
f 24 33 11
f 22 35 34
f 22 34 23
f 6 25 36
f 6 36 15
f 15 26 16
f 26 37 16
f 27 28 38
f 27 38 39
f 27 40 30
f 29 30 41
f 30 40 41
f 20 29 31
f 31 29 41
f 21 31 42
f 12 33 13
f 24 23 34
f 22 32 43
f 22 43 44
f 22 44 35
f 35 44 45
f 13 33 46
f 36 26 15
f 26 47 37
f 16 37 17
f 17 37 28
f 27 48 40
f 38 28 37
f 38 37 49
f 38 50 39
f 39 51 52
f 39 52 27
f 40 53 41
f 31 41 53
f 21 42 32
f 33 24 54
f 24 34 54
f 32 55 43
f 44 43 45
f 35 45 56
f 35 57 34
f 35 58 57
f 13 46 25
f 36 47 26
f 37 47 60
f 37 60 49
f 38 49 50
f 50 61 62
f 50 62 39
f 39 62 51
f 31 53 42
f 42 55 32
f 42 63 55
f 43 65 45
f 45 65 66
f 56 58 35
f 57 58 67
f 57 67 64
f 58 56 68
f 58 68 69
f 58 69 67
f 34 57 54
f 25 46 70
f 46 59 70
f 33 64 59
f 33 59 46
f 59 71 70
f 25 70 36
f 36 70 47
f 47 70 71
f 60 47 71
f 60 71 72
f 49 73 50
f 50 73 61
f 61 74 62
f 62 74 75
f 62 75 76
f 62 76 77
f 51 62 77
f 51 78 52
f 52 78 48
f 52 48 27
f 48 53 40
f 53 48 79
f 54 64 33
f 55 63 43
f 43 81 65
f 45 66 68
f 45 68 56
f 57 64 54
f 69 83 67
f 59 84 71
f 60 72 49
f 72 73 49
f 73 72 61
f 61 72 74
f 75 74 85
f 51 86 78
f 51 77 76
f 51 76 86
f 48 78 87
f 48 87 79
f 79 87 88
f 79 42 53
f 42 79 63
f 63 79 80
f 63 80 81
f 63 81 43
f 66 89 82
f 66 65 89
f 82 83 69
f 82 69 66
f 66 69 68
f 65 90 91
f 65 91 89
f 64 67 92
f 59 64 84
f 83 82 95
f 83 95 93
f 83 94 67
f 84 96 97
f 84 97 71
f 72 97 74
f 85 74 98
f 85 99 100
f 85 100 101
f 85 101 102
f 85 102 75
f 75 86 76
f 86 75 102
f 86 103 78
f 88 80 79
f 80 88 81
f 65 81 104
f 89 95 82
f 90 106 91
f 91 95 89
f 64 92 84
f 93 108 83
f 93 95 91
f 93 91 107
f 83 108 94
f 94 92 67
f 96 84 92
f 96 92 108
f 96 108 109
f 97 72 71
f 74 97 98
f 98 99 85
f 99 98 110
f 101 111 102
f 102 111 86
f 86 111 103
f 103 112 113
f 103 111 114
f 103 114 115
f 103 115 112
f 103 113 78
f 78 113 87
f 88 116 81
f 104 113 112
f 104 112 117
f 104 117 90
f 104 90 65
f 90 117 105
f 105 119 120
f 105 117 121
f 105 121 118
f 90 120 122
f 90 122 106
f 106 122 107
f 106 107 91
f 107 122 120
f 107 123 108
f 107 108 93
f 94 108 92
f 96 109 124
f 96 124 97
f 98 124 110
f 99 125 126
f 100 99 101
f 101 127 114
f 101 99 127
f 101 114 111
f 112 115 121
f 112 121 117
f 114 127 115
f 87 113 116
f 87 116 88
f 105 118 119
f 105 120 90
f 120 123 107
f 98 97 124
f 99 110 125
f 125 110 129
f 125 115 126
f 126 115 127
f 126 127 99
f 110 124 129
f 115 118 121
f 115 125 118
f 104 116 113
f 104 81 116
f 118 125 128
f 128 125 120
f 128 120 119
f 128 119 118
f 108 123 109
f 109 123 124
f 125 129 123
f 125 123 120
f 123 129 124
f 130 131 134
f 130 134 141
f 130 141 177
f 130 177 204
f 130 204 203
f 130 203 202
f 130 202 201
f 130 201 200
f 130 200 199
f 130 199 209
f 130 209 191
f 130 191 163
f 130 163 162
f 130 162 190
f 130 190 189
f 130 189 187
f 130 187 186
f 130 186 185
f 130 185 184
f 130 184 183
f 130 183 182
f 130 182 181
f 130 181 178
f 130 178 143
f 130 143 137
f 130 137 132
f 130 132 133
f 130 133 131
f 131 133 135
f 131 135 136
f 131 136 134
f 132 137 138
f 132 138 133
f 133 138 139
f 133 139 140
f 133 140 135
f 134 136 142
f 134 142 141
f 135 140 136
f 136 140 142
f 137 143 144
f 137 144 138
f 138 144 139
f 139 145 179
f 139 179 208
f 139 208 223
f 139 223 222
f 139 222 221
f 139 221 220
f 139 220 229
f 139 229 228
f 139 228 227
f 139 227 226
f 139 226 224
f 139 224 205
f 139 205 176
f 139 176 140
f 139 144 146
f 139 146 147
f 139 147 148
f 139 148 149
f 139 149 150
f 139 150 151
f 139 151 152
f 139 152 153
f 139 153 154
f 139 154 155
f 139 155 156
f 139 156 157
f 139 157 158
f 139 158 159
f 139 159 160
f 139 160 161
f 139 161 162
f 139 162 163
f 139 163 145
f 140 164 165
f 140 165 166
f 140 166 167
f 140 167 168
f 140 168 169
f 140 169 170
f 140 170 171
f 140 171 172
f 140 172 173
f 140 173 174
f 140 174 175
f 140 175 142
f 140 176 164
f 141 142 175
f 141 175 177
f 143 178 148
f 143 148 147
f 143 147 146
f 143 146 144
f 145 163 180
f 145 180 179
f 148 178 149
f 149 178 181
f 149 181 150
f 150 181 182
f 150 182 183
f 150 183 151
f 151 183 152
f 152 183 184
f 152 184 153
f 153 184 154
f 154 184 185
f 154 185 155
f 155 185 156
f 156 185 157
f 157 185 186
f 157 186 158
f 158 186 187
f 158 187 188
f 158 188 189
f 158 189 159
f 159 189 160
f 160 189 190
f 160 190 161
f 161 190 162
f 163 191 219
f 163 219 192
f 163 192 193
f 163 193 194
f 163 194 195
f 163 195 196
f 163 196 197
f 163 197 180
f 164 176 198
f 164 198 165
f 165 198 199
f 165 199 166
f 166 199 200
f 166 200 167
f 167 200 168
f 168 200 169
f 169 200 201
f 169 201 202
f 169 202 170
f 170 202 171
f 171 202 172
f 172 202 203
f 172 203 173
f 173 203 174
f 174 203 204
f 174 204 175
f 175 204 177
f 176 205 206
f 176 206 207
f 176 207 198
f 179 180 197
f 179 197 196
f 179 196 208
f 187 189 188
f 191 209 210
f 191 210 211
f 191 211 212
f 191 212 213
f 191 213 214
f 191 214 215
f 191 215 216
f 191 216 217
f 191 217 218
f 191 218 219
f 192 219 220
f 192 220 193
f 193 220 221
f 193 221 194
f 194 221 222
f 194 222 195
f 195 222 223
f 195 223 208
f 195 208 196
f 198 207 211
f 198 211 210
f 198 210 199
f 199 210 209
f 205 224 215
f 205 215 214
f 205 214 225
f 205 225 212
f 205 212 206
f 206 212 211
f 206 211 207
f 212 225 213
f 213 225 214
f 215 224 226
f 215 226 216
f 216 226 227
f 216 227 228
f 216 228 217
f 217 228 229
f 217 229 218
f 218 229 219
f 219 229 220

