# https://github.com/mikedh/trimesh
v 0.00956475 -0.00067627 0.01580106
v 0.00957241 -0.00017007 0.01544222
v 0.00271320 -0.00731877 -0.00107004
v 0.00273141 0.00774028 -0.00094499
v 0.00938270 0.00312440 0.01510150
v 0.00850123 0.00159535 0.02213339
v 0.00870423 -0.00012545 0.02122529
v 0.00273716 -0.00772422 -0.00094137
v 0.00928306 -0.00383717 0.01496738
v 0.00237403 0.00762948 -0.00165362
v 0.00893430 0.00511717 0.01453605
v 0.00943684 0.00262785 0.01603485
v 0.00849931 -0.00169830 0.02211527
v 0.00237690 -0.00761096 -0.00165180
v 0.00875705 -0.00548276 0.01434213
v 0.00782336 -0.00678447 0.01317316
v 0.00637324 -0.00786950 0.01104547
v 0.00938438 -0.00347994 0.01571135
v 0.00894388 -0.00513231 0.01529723
v 0.00674211 0.00770909 0.01158193
v 0.00857788 0.00588867 0.01414458
v 0.00224803 -0.00785800 -0.00114525
v 0.00490731 -0.00829464 0.00911623
v 0.00163148 0.00772551 -0.00235499
v 0.00187868 0.00784492 -0.00151044
v 0.00472239 0.00833614 0.00884529
v 0.00600053 0.00807022 0.01051265
v 0.00577824 -0.00812639 0.01132095
v 0.00184323 -0.00760439 -0.00220094
v 0.00841883 -0.00607411 0.01479884
v 0.00777114 -0.00689527 0.01397422
v 0.00706069 -0.00750262 0.01289860
v 0.00881741 -0.00346947 0.01946562
v 0.00676319 0.00772140 0.01261496
v 0.00841931 0.00609714 0.01476531
v 0.00898460 0.00422256 0.01730984
v 0.00861285 0.00352164 0.02055031
v 0.00768108 0.00349045 0.02569646
v 0.00380642 -0.00835558 0.00952764
v 0.00344138 -0.00829382 0.02093000
v 0.00004866 -0.00769632 -0.00271021
v 0.00089564 -0.00769303 -0.00271021
v 0.00845117 -0.00423831 0.02054986
v 0.00380451 0.00838046 0.00976234
v 0.00380163 0.00833614 0.01726725
v 0.00509438 0.00816707 0.01539329
v 0.00753137 0.00712677 0.01374858
v 0.00819559 0.00530369 0.01947015
v 0.00782575 0.00024009 0.02582332
v 0.00423279 -0.00808679 0.02217825
v 0.00110535 -0.00326480 -0.00266037
v 0.00503090 -0.00707255 0.03229339
v 0.00576914 -0.00782189 0.01749651
v 0.00050377 0.00669752 -0.00283073
v 0.00010040 0.00770909 -0.00271021
v 0.00502899 0.00708368 0.03228976
v 0.00504432 0.00678821 0.03265586
v 0.00759197 -0.00353216 0.02589627
v 0.00261643 -0.00819615 0.02770997
v 0.00005249 -0.00713493 -0.00286970
v 0.00766383 -0.00486310 0.02362404
v -0.00022536 0.00715427 -0.00286426
v -0.00097270 0.00735124 -0.00271021
v -0.00170662 0.00734632 -0.00202152
v -0.00077149 0.00760075 -0.00215201
v 0.00068677 0.00838046 0.02642865
v 0.00285477 0.00816132 0.02766059
v 0.00539499 0.00783425 0.01980498
v 0.00744155 0.00444006 0.02572364
v 0.00504815 -0.00676887 0.03265948
v 0.00105852 -0.00833322 0.02789302
v 0.00069252 -0.00835948 0.02642865
v -0.00077149 -0.00760111 -0.00215201
v -0.00097270 -0.00733519 -0.00271021
v 0.00370103 -0.00676887 0.03396799
v 0.00362390 -0.00718253 0.03348410
v -0.00553337 0.00749405 0.02972348
v 0.00425578 0.00690804 0.03363634
v 0.00417338 0.00718627 0.03320862
v -0.00553720 -0.00749606 0.02972348
v 0.00436405 -0.00676887 0.03357653
v -0.00643497 0.00726425 0.02935739
v -0.00610825 0.00734796 0.02991922
v -0.00391414 0.00770909 0.03027444
v 0.00123961 0.00831808 0.02807425
v -0.00395438 -0.00769468 0.03028894
v -0.00168363 -0.00712262 -0.00232237
v -0.00173920 -0.00734011 -0.00192184
v -0.00636502 -0.00729579 0.02935739
v -0.00498532 0.00404364 -0.00050640
v -0.00247696 0.00701310 -0.00120053
v -0.00718518 0.00697370 0.02953681
v -0.00779263 0.00647387 0.02957125
v 0.00194000 0.00699668 0.03394987
v 0.00270650 0.00717478 0.03375776
v 0.00307250 0.00678821 0.03410754
v 0.00379109 0.00678821 0.03393537
v -0.00040549 -0.00785718 0.03082539
v -0.00612166 -0.00733191 0.02991922
v 0.00194191 -0.00697734 0.03395712
v -0.00247935 -0.00697940 -0.00126940
v -0.00508880 -0.00200034 -0.00053177
v -0.00535899 0.00250556 -0.00016749
v -0.00427248 0.00553740 -0.00019105
v -0.00360371 0.00631875 0.00004455
v -0.00818306 0.00623421 0.02899130
v -0.00938886 0.00479380 0.02918703
v -0.00975678 0.00371041 0.02918341
v -0.00040932 0.00785518 0.03082176
v -0.00780317 -0.00646027 0.02957669
v -0.00720626 -0.00696421 0.02950057
v 0.00279848 -0.00676887 0.03411298
v -0.00498916 -0.00403086 -0.00050640
v -0.00795264 -0.00643647 0.02899492
v -0.00339675 -0.00649146 0.00004092
v -0.00417715 -0.00568672 -0.00008231
v -0.00520857 0.00367430 0.00004455
v -0.00494892 0.00444170 0.00004455
v -0.00896346 0.00543726 0.02899130
v -0.00999057 0.00202460 0.02862521
v -0.00939844 -0.00477938 0.02919066
v -0.00976636 -0.00346783 0.02918703
v -0.00535372 -0.00235531 -0.00013442
v -0.00479562 -0.00473753 -0.00005332
v -0.00992925 0.00294055 0.02862521
v -0.00968205 0.00398783 0.02865783
v -0.00863195 -0.00583158 0.02899492
v -0.00995799 -0.00273573 0.02862521
v -0.00977211 -0.00373211 0.02870132
f 2 3 4
f 2 4 5
f 1 2 5
f 1 6 7
f 3 2 9
f 3 9 8
f 4 3 10
f 4 11 5
f 1 5 12
f 1 12 6
f 1 7 13
f 8 14 3
f 8 9 15
f 8 15 16
f 8 16 17
f 3 14 10
f 9 2 18
f 9 19 15
f 4 20 21
f 4 21 11
f 1 18 2
f 8 22 14
f 8 17 23
f 8 23 22
f 9 18 19
f 10 25 4
f 4 25 26
f 4 26 27
f 4 27 20
f 23 17 28
f 14 22 29
f 15 19 30
f 16 31 32
f 16 32 17
f 10 24 25
f 14 29 10
f 10 29 24
f 20 27 34
f 21 35 11
f 11 36 5
f 5 36 12
f 6 12 37
f 13 33 1
f 1 33 18
f 23 39 22
f 28 40 23
f 22 39 41
f 15 31 16
f 15 30 31
f 25 44 26
f 26 45 46
f 34 47 20
f 20 47 21
f 21 47 35
f 11 35 48
f 11 48 36
f 12 36 37
f 6 37 38
f 6 38 49
f 23 40 39
f 17 32 28
f 28 50 40
f 22 41 42
f 22 42 29
f 42 51 29
f 18 43 19
f 31 30 52
f 31 52 32
f 32 53 28
f 33 43 18
f 25 24 55
f 25 55 44
f 26 44 45
f 26 46 27
f 27 46 34
f 34 56 47
f 47 56 35
f 38 57 49
f 6 49 7
f 7 49 13
f 41 60 42
f 29 51 24
f 43 61 19
f 52 53 32
f 52 30 19
f 52 19 61
f 54 24 51
f 24 54 55
f 55 54 62
f 55 63 64
f 44 66 45
f 45 66 67
f 46 45 67
f 46 68 34
f 34 68 56
f 56 69 48
f 56 48 35
f 56 68 67
f 37 36 69
f 37 69 38
f 57 70 49
f 49 58 13
f 13 58 33
f 40 59 71
f 39 40 71
f 28 53 50
f 50 59 40
f 39 71 72
f 39 72 41
f 41 72 73
f 60 51 42
f 52 70 75
f 52 61 70
f 52 75 76
f 52 76 59
f 52 59 50
f 52 50 53
f 33 58 43
f 54 51 60
f 55 62 63
f 64 65 55
f 65 77 66
f 65 66 55
f 55 66 44
f 56 67 79
f 56 79 78
f 56 78 57
f 56 57 69
f 57 38 69
f 58 49 70
f 59 76 71
f 73 72 80
f 74 60 41
f 41 73 74
f 60 62 54
f 70 81 75
f 70 61 58
f 61 43 58
f 62 60 74
f 62 74 63
f 65 82 77
f 77 82 83
f 77 83 84
f 67 85 79
f 67 68 46
f 69 36 48
f 57 78 81
f 57 81 70
f 72 86 80
f 73 88 74
f 73 80 89
f 73 89 88
f 74 88 87
f 63 90 64
f 64 91 92
f 65 64 82
f 83 92 93
f 83 93 94
f 83 94 84
f 84 66 77
f 84 94 95
f 66 85 67
f 85 95 79
f 79 95 78
f 78 96 97
f 71 98 86
f 71 76 98
f 72 71 86
f 86 99 80
f 86 100 99
f 75 100 76
f 80 99 89
f 88 101 87
f 63 102 90
f 90 104 64
f 64 104 91
f 91 104 105
f 91 106 92
f 92 82 64
f 82 92 83
f 94 93 107
f 94 107 108
f 66 84 85
f 85 84 109
f 85 109 95
f 95 96 78
f 97 75 81
f 97 81 78
f 98 76 100
f 99 110 111
f 99 100 110
f 75 112 100
f 87 113 102
f 88 89 111
f 99 111 89
f 101 88 111
f 101 111 114
f 101 114 115
f 101 115 116
f 63 74 102
f 103 117 90
f 90 117 118
f 90 118 104
f 91 105 106
f 92 106 93
f 107 93 106
f 107 106 119
f 94 108 100
f 94 100 112
f 94 112 96
f 94 96 95
f 84 95 109
f 96 112 75
f 96 75 97
f 100 86 98
f 110 114 111
f 100 122 121
f 100 121 110
f 101 116 113
f 101 113 87
f 87 102 74
f 113 123 102
f 116 124 113
f 102 123 90
f 90 123 103
f 103 123 120
f 103 120 125
f 117 103 125
f 117 125 126
f 117 126 118
f 118 126 107
f 118 107 104
f 104 107 119
f 104 119 106
f 104 106 105
f 107 126 108
f 100 108 122
f 108 120 122
f 108 126 125
f 108 125 120
f 121 127 110
f 110 127 114
f 114 127 115
f 115 127 116
f 116 127 124
f 124 127 121
f 123 128 120
f 120 128 122
f 122 128 129
f 122 129 121
f 124 121 129
f 124 129 113
f 113 129 128
f 113 128 123

