# https://github.com/mikedh/trimesh
v 0.00299963 0.00104465 0.00455027
v 0.00200974 -0.00343475 -0.01142825
v 0.00200758 0.00345972 -0.01142825
v 0.00283492 -0.00277629 0.00429562
v 0.00200543 0.00448919 -0.01074578
v 0.00269012 -0.00015652 0.00574543
v 0.00169538 -0.00483773 -0.01047415
v 0.00234347 -0.00514332 -0.00012513
v 0.00177290 0.00489202 -0.01035532
v 0.00274287 0.00359439 0.00410718
v 0.00201835 -0.00584867 0.00340604
v 0.00119478 -0.00672611 0.00311234
v -0.00031993 -0.00741872 0.00295148
v -0.00263452 -0.00783351 0.00009218
v 0.00045734 0.00489704 -0.01067363
v -0.00263452 0.00786003 0.00008878
v -0.00038156 0.00744967 0.00292857
v 0.00119102 0.00674780 0.00313823
v 0.00202050 0.00587364 0.00336529
v 0.00234778 0.00344583 0.00609176
v 0.00118133 -0.00112579 0.00908943
v 0.00234993 -0.00342241 0.00609176
v -0.00182926 -0.00344247 -0.01143164
v -0.00469721 0.00786774 -0.00060048
v -0.00648052 -0.00768149 -0.00113015
v -0.00112735 -0.00684611 0.00804154
v -0.00340641 -0.00762091 0.00746857
v -0.00208763 0.00723957 0.00855339
v -0.00040067 -0.00489368 -0.01066684
v 0.00024701 -0.00371932 0.01036884
v -0.00018132 0.00457774 0.01057320
v 0.00004771 0.00312982 0.01099634
v -0.00377352 -0.00721923 0.01095050
v -0.00744242 -0.00770695 0.00609855
v -0.00187448 0.00349059 -0.01144183
v -0.00302558 0.00488006 -0.01025643
v -0.00757807 0.00759301 -0.00148666
v -0.00435701 0.00746491 0.01039027
v -0.00898405 -0.00754644 0.00368785
v -0.00309852 -0.00485779 -0.01028741
v -0.00624314 -0.00741524 0.01167626
v -0.00079435 -0.00531238 0.01081617
v -0.00778692 0.00771186 0.00661464
v -0.00016491 0.00593991 0.00858819
v -0.00963967 -0.00696823 -0.00195946
v -0.00342162 -0.00661787 0.01241411
v -0.00969027 0.00698105 -0.00196710
v -0.00734318 0.00732171 0.01260712
v -0.00583889 0.00672156 0.01465950
v -0.00288990 0.00597266 0.01313133
v -0.00218136 0.00382223 0.01405650
v -0.00373476 -0.00348877 -0.01093422
v -0.00161045 -0.00082328 0.01364386
v -0.00168554 -0.00412544 0.01331452
v -0.01237090 -0.00701704 0.01029945
v -0.00698435 -0.00483310 -0.00812117
v -0.00315988 -0.00512172 0.01466502
v -0.00692783 -0.00685807 0.01502492
v -0.00426658 0.00339953 -0.01077294
v -0.01236982 0.00704201 0.01013562
v -0.00714206 0.00485035 -0.00802441
v -0.01250614 -0.00679923 0.01512636
v -0.00646276 -0.00341816 -0.00956675
v -0.00562412 -0.00601111 0.01615727
v -0.00678249 0.00348750 -0.00938425
v -0.01224602 0.00694478 0.01451222
v -0.01290261 0.00655296 0.00696802
v -0.01184554 -0.00658643 0.00283562
v -0.01142783 0.00555261 -0.00252224
v -0.00961195 0.00629326 0.01776836
v -0.00388629 0.00326583 0.01618539
v -0.00434719 -0.00025284 0.01678960
v -0.00380474 -0.00337417 0.01607928
v -0.01142783 -0.00552764 -0.00251545
v -0.00833596 -0.00349495 -0.00802950
v -0.00767550 0.00586727 0.01783754
v -0.00578042 0.00503406 0.01731392
v -0.01491157 -0.00531503 0.00899903
v -0.01227185 -0.00410306 -0.00253413
v -0.00726802 -0.00378048 0.01915027
v -0.00935035 -0.00596028 0.01838101
v -0.01193058 -0.00634392 0.01771319
v -0.01500038 0.00551325 0.00983089
v -0.00899482 0.00347516 -0.00731648
v -0.01330427 0.00636155 0.01742586
v -0.01474840 -0.00617260 0.01645617
v -0.01412568 0.00653885 0.01533390
v -0.01242903 0.00381780 -0.00251885
v -0.01509445 -0.00592169 0.01212126
v -0.01273639 0.00238357 -0.00228457
v -0.01763202 -0.00330974 0.01601467
v -0.01052568 -0.00510474 0.02013492
v -0.01466127 0.00458526 0.00650260
v -0.01441191 0.00541871 0.01980345
v -0.01382317 0.00491768 0.02087850
v -0.01268740 -0.00260285 -0.00232192
v -0.00923973 -0.00408492 0.02026310
v -0.01358148 -0.00561831 0.01958233
v -0.01631674 0.00528574 0.01594549
v -0.00703548 0.00287862 0.01908045
v -0.01707692 -0.00456145 0.01642657
v -0.01791408 -0.00185043 0.01589583
v -0.01790870 0.00236080 0.01608088
v -0.01733288 0.00398024 0.01593424
v -0.01152418 0.00446174 0.02099957
v -0.00903465 0.00355078 0.02036326
v -0.00825468 -0.00048103 0.02012898
v -0.01598597 -0.00546050 0.01802981
v -0.01827311 0.00009622 0.01681088
v -0.01396635 -0.00431373 0.02158304
v -0.01230637 -0.00329821 0.02184862
v -0.01655439 -0.00411540 0.02122144
v -0.01646773 0.00508996 0.01918592
v -0.01586432 0.00351201 0.02204555
v -0.01305451 0.00234267 0.02235548
v -0.01802981 -0.00348091 0.01939728
v -0.01895619 -0.00041967 0.02014681
v -0.01251367 -0.00102759 0.02236832
v -0.01859769 0.00249585 0.01990404
v -0.01755350 0.00366427 0.02078142
v -0.01511665 -0.00287304 0.02251379
v -0.01777305 -0.00345096 0.02091246
v -0.01860092 -0.00186471 0.02119767
v -0.01484805 -0.00087103 0.02293651
v -0.01777090 0.00160607 0.02243358
v -0.01595455 0.00187270 0.02281789
v -0.01785326 -0.00199821 0.02217553
v -0.01858827 0.00080445 0.02170909
v -0.01619913 0.00022625 0.02305577
f 1 2 3
f 1 4 2
f 3 5 1
f 1 6 4
f 2 4 8
f 2 8 7
f 5 10 1
f 7 8 11
f 7 11 12
f 7 12 13
f 7 13 14
f 8 4 11
f 5 15 9
f 9 16 17
f 9 17 18
f 9 18 19
f 9 19 5
f 1 10 20
f 1 20 6
f 6 22 4
f 9 15 24
f 9 24 16
f 5 19 10
f 6 20 21
f 6 21 22
f 7 14 25
f 13 12 26
f 13 26 27
f 2 23 3
f 5 3 15
f 25 29 7
f 13 27 14
f 7 23 2
f 22 21 30
f 17 28 18
f 7 29 23
f 27 26 33
f 27 34 14
f 4 22 11
f 3 35 15
f 15 35 36
f 24 15 37
f 16 38 17
f 28 17 38
f 19 20 10
f 20 32 21
f 25 14 34
f 25 34 39
f 25 40 29
f 11 26 12
f 27 41 34
f 23 35 3
f 22 30 42
f 15 36 37
f 37 43 24
f 28 44 18
f 18 44 19
f 19 44 31
f 20 19 31
f 20 31 32
f 25 45 40
f 11 42 26
f 26 46 33
f 33 41 27
f 22 42 11
f 37 36 47
f 24 43 16
f 28 50 44
f 25 39 45
f 26 42 46
f 23 52 35
f 29 40 23
f 23 40 52
f 16 43 48
f 16 48 38
f 28 38 49
f 28 49 50
f 32 31 51
f 32 53 21
f 21 53 30
f 30 53 54
f 34 55 39
f 45 56 40
f 33 58 41
f 47 36 61
f 32 51 53
f 54 42 30
f 56 63 40
f 46 42 57
f 46 57 64
f 52 63 59
f 52 59 35
f 37 60 43
f 43 60 66
f 47 60 37
f 36 59 65
f 48 49 38
f 50 31 44
f 34 62 55
f 39 55 45
f 46 58 33
f 58 62 41
f 41 62 34
f 59 63 65
f 59 36 35
f 42 54 57
f 61 36 65
f 47 61 69
f 47 67 60
f 48 66 49
f 49 66 70
f 31 50 51
f 51 71 53
f 45 68 74
f 45 74 56
f 56 74 75
f 40 63 52
f 46 64 58
f 47 69 67
f 49 77 50
f 71 72 53
f 53 72 73
f 53 73 54
f 54 73 57
f 56 75 63
f 74 79 75
f 64 81 58
f 58 82 62
f 67 69 83
f 43 66 48
f 76 77 49
f 50 77 51
f 51 77 71
f 55 62 86
f 45 55 68
f 74 68 78
f 74 78 79
f 64 57 80
f 58 81 82
f 63 75 65
f 69 61 84
f 69 84 88
f 61 65 84
f 66 85 70
f 70 76 49
f 57 73 80
f 75 90 84
f 79 78 91
f 64 80 92
f 60 87 66
f 88 93 69
f 69 93 83
f 65 75 84
f 86 89 55
f 68 55 89
f 68 89 78
f 75 79 96
f 75 96 90
f 79 91 96
f 80 97 92
f 64 92 81
f 81 98 82
f 84 90 88
f 60 67 87
f 67 99 87
f 94 70 85
f 70 95 76
f 71 100 72
f 73 72 80
f 89 101 78
f 96 91 102
f 62 82 98
f 90 103 88
f 93 88 104
f 83 93 104
f 83 104 99
f 67 83 99
f 76 95 105
f 71 77 100
f 72 100 107
f 72 107 80
f 96 102 109
f 96 109 90
f 92 110 81
f 81 110 98
f 98 86 62
f 103 104 88
f 66 87 85
f 70 94 95
f 77 76 106
f 77 106 100
f 86 108 89
f 89 108 101
f 78 101 91
f 92 97 111
f 106 76 105
f 80 107 97
f 92 111 110
f 98 110 112
f 87 113 85
f 90 109 103
f 99 113 87
f 85 113 94
f 95 94 114
f 105 115 106
f 100 106 107
f 101 116 91
f 91 116 102
f 97 118 111
f 98 112 108
f 98 108 86
f 103 119 104
f 99 104 119
f 94 113 120
f 94 120 114
f 105 95 114
f 108 116 101
f 109 102 117
f 97 107 118
f 111 121 110
f 110 121 112
f 99 119 120
f 114 115 105
f 108 122 116
f 117 103 109
f 117 119 103
f 120 113 99
f 116 117 102
f 121 111 124
f 120 125 114
f 106 115 118
f 118 107 106
f 108 112 122
f 116 122 123
f 117 116 123
f 111 118 124
f 112 127 122
f 121 127 112
f 125 120 128
f 114 125 126
f 114 126 115
f 121 124 127
f 117 128 119
f 115 126 124
f 115 124 118
f 123 128 117
f 127 123 122
f 119 128 120
f 124 129 127
f 127 129 125
f 125 129 126
f 126 129 124
f 123 127 128
f 128 127 125

