# https://github.com/mikedh/trimesh
v -0.01299866 -0.00449795 -0.00299741
v -0.01294163 -0.00516856 0.00300112
v -0.01299730 -0.00449795 0.00300112
v -0.01299866 0.00449961 0.00300112
v -0.01299866 0.00449961 -0.00299871
v -0.01294163 -0.00516856 -0.00299741
v -0.00992754 -0.00479914 0.00677103
v -0.00699762 -0.00849335 -0.00299871
v -0.01265923 -0.00611042 -0.00299741
v -0.00213434 0.00679767 -0.00299871
v -0.00972321 0.00479914 0.00699493
v -0.00991260 -0.00531001 0.00667861
v -0.01265923 -0.00611042 0.00299982
v -0.01294163 0.00517022 0.00300112
v -0.00213298 -0.00679934 -0.00299741
v -0.00135638 -0.00679934 -0.00289587
v -0.00067549 -0.00679934 -0.00261990
v -0.00001090 -0.00679934 -0.00211872
v 0.00049960 -0.00679934 -0.00143789
v 0.00076435 -0.00679934 -0.00077530
v 0.00086889 -0.00679934 0.00000186
v -0.00899616 -0.00850000 -0.00299741
v -0.00966686 -0.00844176 -0.00299741
v -0.01061182 -0.00815554 -0.00299611
v -0.01215417 -0.00695742 -0.00299611
v -0.01294163 0.00517022 -0.00299871
v -0.01215417 -0.00695742 0.00300112
v -0.00960576 -0.00568608 0.00681334
v -0.00906133 -0.00479914 0.00765493
v -0.00977616 0.00545644 0.00677168
v -0.01265787 0.00611374 0.00300112
v -0.00150980 0.00679767 -0.00293362
v -0.00070061 0.00679767 -0.00263552
v -0.00001090 0.00679767 -0.00212002
v 0.00050367 0.00679767 -0.00143139
v 0.00080101 0.00679767 -0.00062299
v 0.00086753 0.00679767 0.00000055
v -0.00704582 -0.00849002 0.00130622
v -0.00760044 -0.00849252 0.00239906
v 0.00086753 -0.00679934 0.00776948
v -0.00899616 -0.00849335 0.00300112
v -0.00966686 -0.00844176 0.00300112
v -0.01145767 -0.00765133 -0.00299611
v -0.01265787 0.00611374 -0.00299871
v -0.01215417 0.00695742 -0.00299871
v -0.01145767 0.00765300 -0.00299871
v -0.01061182 0.00815721 -0.00299871
v -0.00966958 0.00844176 -0.00299871
v -0.00899887 0.00850000 -0.00299871
v -0.00700034 0.00850000 -0.00299871
v -0.00892725 0.00481786 0.00777404
v -0.01145767 -0.00765133 0.00300112
v -0.00894830 -0.00597147 0.00722014
v -0.00834836 -0.00556294 0.00803635
v -0.00771924 -0.00500632 0.00866900
v -0.00835736 -0.00479914 0.00823356
v -0.00899344 0.00551635 0.00753842
v -0.01215417 0.00695742 0.00300112
v 0.00086753 -0.00676606 0.00815351
v 0.00086821 -0.00509368 0.00984385
v -0.00082993 -0.00670615 0.00881025
v -0.00269728 -0.00668077 0.00896174
v -0.00417564 -0.00660797 0.00894237
v -0.00542473 -0.00654307 0.00868788
v -0.00650376 -0.00647817 0.00831981
v -0.01061182 -0.00815554 0.00300112
v -0.01145767 0.00765300 0.00300112
v -0.01061182 0.00815721 0.00300112
v -0.00966958 0.00844176 0.00300112
v -0.00899887 0.00850000 0.00300112
v -0.00700237 0.00850000 0.00106865
v -0.00799248 -0.00626975 0.00769170
v -0.00829287 0.00470179 0.00828759
v -0.00898937 0.00596273 0.00719378
v 0.00086753 -0.00564698 0.00967527
v 0.00086753 -0.00625977 0.00918418
v 0.00086618 0.00515358 0.00985101
v -0.00367567 -0.00639747 0.00937033
v -0.00714578 -0.00612331 0.00841256
v -0.00782989 0.00621359 0.00790226
v -0.00692566 0.00646320 0.00811250
v -0.00585987 0.00653641 0.00853297
v -0.00446551 0.00665290 0.00876924
v -0.00838927 0.00850000 0.00290479
v -0.00338614 0.00665290 0.00898663
v -0.00112829 0.00669117 0.00891764
v 0.00086618 0.00679767 0.00777860
v -0.00758008 0.00506206 0.00875492
v -0.00699219 -0.00515192 0.00907646
v 0.00086618 0.00676605 0.00815481
v 0.00008380 -0.00654307 0.00901755
v 0.00001897 -0.00515192 0.01006710
v -0.00010797 -0.00622274 0.00950474
v 0.00086618 0.00641660 0.00900356
v 0.00086618 0.00584916 0.00954574
v -0.00008413 0.00572789 0.00986402
v -0.00177879 -0.00639747 0.00950051
v -0.00535515 -0.00602389 0.00935796
v -0.00690530 0.00601723 0.00865501
v -0.00001769 0.00670032 0.00865078
v -0.00232561 0.00643158 0.00945153
v -0.00066124 0.00648691 0.00926489
v -0.00727391 0.00850000 0.00196427
v -0.00732245 0.00545644 0.00878942
v -0.00639243 -0.00580319 0.00908606
v -0.00065004 -0.00556378 0.01005603
v -0.00058724 0.00621608 0.00959488
v -0.00253215 -0.00591905 0.00997142
v -0.00390614 -0.00588473 0.00982562
v -0.00524636 0.00601723 0.00937684
v -0.00361899 0.00621359 0.00961571
v -0.00622238 0.00515358 0.00944746
v -0.00070333 0.00515358 0.01019370
v -0.00130445 -0.00602389 0.00986142
v -0.00507512 -0.00515192 0.00986532
v -0.00604316 -0.00515192 0.00952166
v -0.00156852 0.00567318 0.01008955
v -0.00098030 -0.00516357 0.01022722
v -0.00207206 -0.00556378 0.01015619
v -0.00409214 -0.00516357 0.01010485
v -0.00520546 0.00545644 0.00973547
v -0.00382128 0.00582087 0.00989917
v -0.00251450 0.00590990 0.00997337
v -0.00191371 0.00515358 0.01029361
v -0.00202573 -0.00515192 0.01029621
v -0.00306301 -0.00515192 0.01025325
v -0.00447570 0.00515358 0.01002089
v -0.00314379 0.00515358 0.01023893
v -0.00541794 0.00502878 0.00975012
v -0.01880000 0.00000009 -0.00250000
v -0.01880000 -0.00041058 -0.00246525
v -0.01880000 0.00041126 -0.00246525
v -0.01285356 0.00041126 -0.00246525
v -0.01285356 0.00000009 -0.00249951
v -0.01285356 -0.00033206 -0.00247210
v -0.01879884 -0.00054130 -0.00242120
v -0.01879884 -0.00118999 -0.00219802
v -0.01879884 -0.00183917 -0.00169293
v -0.01880000 -0.00249128 -0.00020654
v -0.01285356 -0.00041058 -0.00246525
v -0.01880000 0.00249147 -0.00020654
v -0.01879884 0.00183838 -0.00169293
v -0.01879884 0.00118871 -0.00219802
v -0.01368825 0.00118920 -0.00219802
v -0.01285356 0.00118920 -0.00219802
v -0.01776682 -0.00054130 -0.00242120
v -0.01285356 -0.00118999 -0.00219802
v -0.01879884 -0.00228887 -0.00100431
v -0.01285356 -0.00183917 -0.00169293
v -0.01285356 -0.00218449 -0.00116435
v -0.01368825 -0.00247421 -0.00000000
v -0.01879884 -0.00242299 0.00061374
v -0.01880000 -0.00153433 0.00197240
v -0.01285356 -0.00249128 -0.00020654
v -0.01285356 -0.00054130 -0.00242071
v -0.01879884 0.00228905 -0.00100431
v -0.01880000 0.00153501 0.00197240
v -0.01879884 0.00242269 0.00061374
v -0.01285356 0.00249147 -0.00020654
v -0.01368825 0.00183838 -0.00169293
v -0.01285356 0.00183838 -0.00169244
v -0.01285356 -0.00228887 -0.00100431
v -0.01285356 -0.00247421 -0.00000000
v -0.01368825 -0.00242299 0.00061423
v -0.01285356 -0.00216888 0.00119274
v -0.01879884 -0.00209182 0.00136697
v -0.01880000 -0.00081102 0.00236394
v -0.01368825 -0.00153482 0.00197240
v -0.01368825 -0.00093832 0.00229542
v -0.01285356 0.00228905 -0.00100431
v -0.01879884 0.00209201 0.00136648
v -0.01880000 0.00081169 0.00236394
v -0.01285356 0.00153501 0.00197240
v -0.01368825 0.00209249 0.00136697
v -0.01285356 0.00240952 0.00064458
v -0.01285356 0.00242269 0.00061374
v -0.01285356 -0.00242299 0.00061423
v -0.01285356 -0.00210548 0.00133614
v -0.01285356 -0.00209182 0.00136697
v -0.01880000 0.00000009 0.00250000
v -0.01285356 -0.00081150 0.00236394
v -0.01285356 -0.00153482 0.00197240
v -0.01285356 0.00062294 0.00239575
v -0.01285356 0.00081169 0.00236394
v -0.01285356 0.00209249 0.00136697
v -0.01285356 0.00000009 0.00249951
f 1 3 4
f 1 4 5
f 1 5 6
f 1 6 2
f 1 2 3
f 3 7 4
f 3 2 7
f 5 8 9
f 5 9 6
f 5 10 8
f 6 9 13
f 6 13 2
f 7 11 4
f 2 12 7
f 2 13 12
f 4 11 14
f 8 15 16
f 8 16 17
f 8 17 18
f 8 18 19
f 8 19 20
f 8 20 21
f 8 22 23
f 8 23 24
f 8 24 9
f 8 10 15
f 9 25 27
f 9 27 13
f 5 26 10
f 13 27 28
f 13 28 12
f 7 12 29
f 14 11 30
f 14 26 4
f 14 30 31
f 14 31 44
f 14 44 26
f 4 26 5
f 19 18 35
f 19 35 36
f 19 36 20
f 21 20 37
f 8 38 39
f 8 39 22
f 8 21 40
f 8 40 38
f 22 39 41
f 22 41 42
f 22 42 23
f 23 42 24
f 24 42 66
f 24 43 9
f 9 43 25
f 25 43 52
f 25 52 27
f 26 44 10
f 10 45 46
f 10 46 47
f 10 47 48
f 10 48 49
f 10 49 50
f 10 44 45
f 7 29 11
f 27 52 53
f 27 53 28
f 12 54 55
f 12 55 29
f 12 28 54
f 29 55 56
f 30 11 57
f 31 58 45
f 31 45 44
f 31 30 58
f 15 10 32
f 15 32 16
f 32 33 16
f 16 33 17
f 33 32 50
f 33 50 34
f 33 34 17
f 17 34 18
f 34 50 35
f 34 35 18
f 20 36 37
f 36 35 50
f 36 50 37
f 21 59 40
f 21 60 59
f 38 40 39
f 39 40 59
f 41 61 62
f 41 62 63
f 41 63 42
f 42 63 64
f 42 64 65
f 42 65 66
f 24 66 52
f 24 52 43
f 45 58 67
f 45 67 46
f 46 67 68
f 46 68 47
f 47 68 69
f 47 69 48
f 48 69 70
f 48 70 49
f 49 70 84
f 49 84 103
f 49 103 71
f 49 71 50
f 50 32 10
f 50 71 37
f 29 51 11
f 11 51 57
f 28 53 54
f 52 66 72
f 52 72 53
f 57 74 30
f 30 74 58
f 58 74 67
f 59 61 41
f 59 41 39
f 60 75 76
f 60 76 59
f 60 21 37
f 60 37 77
f 63 78 64
f 66 65 72
f 67 74 80
f 67 80 68
f 68 80 81
f 68 81 69
f 69 81 82
f 69 82 83
f 69 83 70
f 70 83 85
f 70 85 86
f 70 86 84
f 71 87 37
f 51 73 88
f 51 29 56
f 51 88 57
f 72 79 53
f 54 89 55
f 54 53 79
f 54 79 89
f 56 73 51
f 56 55 88
f 56 88 73
f 37 87 90
f 37 90 77
f 59 76 91
f 59 91 61
f 60 77 92
f 60 92 75
f 76 75 93
f 77 90 94
f 77 94 95
f 77 95 96
f 61 91 97
f 61 97 62
f 62 97 78
f 62 78 63
f 64 78 98
f 64 98 65
f 65 98 79
f 79 72 65
f 74 57 80
f 80 57 99
f 81 80 99
f 81 99 82
f 84 86 100
f 84 100 90
f 85 101 86
f 86 102 100
f 71 103 87
f 87 103 90
f 88 104 57
f 89 79 105
f 55 89 88
f 57 104 99
f 90 103 84
f 75 92 106
f 75 106 93
f 76 93 91
f 90 100 94
f 94 100 102
f 94 102 107
f 94 107 95
f 95 107 96
f 91 93 97
f 78 97 108
f 78 108 109
f 78 109 98
f 98 105 79
f 99 110 82
f 82 110 111
f 82 111 83
f 83 111 85
f 101 102 86
f 88 112 104
f 88 89 112
f 96 113 77
f 77 113 92
f 106 114 93
f 93 114 97
f 97 114 108
f 98 109 115
f 98 115 105
f 99 104 112
f 99 112 110
f 85 111 101
f 102 101 107
f 89 105 116
f 96 117 113
f 92 118 106
f 92 113 118
f 106 118 119
f 106 119 114
f 108 119 109
f 115 109 120
f 105 115 116
f 112 121 110
f 110 121 122
f 110 122 111
f 111 122 123
f 89 116 112
f 96 107 117
f 118 125 119
f 118 113 124
f 118 124 125
f 119 108 114
f 119 126 109
f 109 126 120
f 121 112 127
f 121 127 122
f 123 122 128
f 123 128 117
f 123 117 107
f 123 107 101
f 123 101 111
f 116 115 129
f 116 129 112
f 117 124 113
f 119 125 126
f 115 120 127
f 115 127 129
f 112 129 127
f 127 128 122
f 117 128 124
f 124 128 125
f 125 128 126
f 126 128 120
f 120 128 127
f 130 131 139
f 130 139 153
f 130 153 167
f 130 167 180
f 130 180 172
f 130 172 157
f 130 157 141
f 130 141 132
f 130 132 133
f 130 133 134
f 130 134 135
f 130 135 131
f 131 136 137
f 131 137 138
f 131 138 139
f 131 135 140
f 131 140 146
f 131 146 136
f 132 141 142
f 132 142 143
f 132 143 144
f 132 144 145
f 132 145 133
f 133 145 161
f 133 161 170
f 133 170 159
f 133 159 176
f 133 176 175
f 133 175 185
f 133 185 173
f 133 173 184
f 133 184 183
f 133 183 186
f 133 186 181
f 133 181 182
f 133 182 179
f 133 179 178
f 133 178 165
f 133 165 177
f 133 177 163
f 133 163 154
f 133 154 162
f 133 162 150
f 133 150 149
f 133 149 147
f 133 147 155
f 133 155 140
f 133 140 135
f 133 135 134
f 136 146 147
f 136 147 137
f 137 147 149
f 137 149 138
f 138 148 139
f 138 149 150
f 138 150 148
f 139 151 152
f 139 152 153
f 139 148 162
f 139 162 154
f 139 154 163
f 139 163 151
f 140 155 146
f 141 156 142
f 141 157 158
f 141 158 176
f 141 176 159
f 141 159 170
f 141 170 156
f 142 156 170
f 142 170 160
f 142 160 145
f 142 145 144
f 142 144 143
f 145 160 161
f 146 155 147
f 148 150 162
f 151 163 177
f 151 177 164
f 151 164 152
f 152 164 165
f 152 165 166
f 152 166 153
f 153 166 168
f 153 168 169
f 153 169 167
f 157 171 158
f 157 172 184
f 157 184 173
f 157 173 185
f 157 185 174
f 157 174 171
f 158 171 174
f 158 174 175
f 158 175 176
f 160 170 161
f 164 177 165
f 165 178 166
f 166 178 179
f 166 179 182
f 166 182 168
f 167 169 181
f 167 181 180
f 168 182 169
f 169 182 181
f 172 180 183
f 172 183 184
f 174 185 175
f 180 181 186
f 180 186 183

