# https://github.com/mikedh/trimesh
v 0.01116816 0.00448481 0.00817003
v 0.01110482 -0.00475085 0.00738293
v 0.01110700 0.00475276 0.00737771
v 0.01113539 0.00479399 0.00817003
v 0.01113321 -0.00479379 0.00817525
v 0.00492843 0.00859767 0.00026246
v 0.00745970 0.00741852 0.02083675
v 0.00744878 0.00741852 0.03157740
v 0.00794892 0.00686802 0.03196835
v 0.00840756 0.00616809 0.03137672
v 0.00872315 0.00527750 0.03085024
v 0.00879413 0.00448653 0.03085024
v 0.00879413 -0.00422096 0.03084503
v 0.00494372 -0.00860348 0.00078372
v 0.01058721 -0.00476631 0.00631433
v 0.00434530 -0.00854165 -0.00229174
v 0.00457680 0.00851951 -0.00174702
v 0.01058939 0.00476479 0.00630912
v 0.00648781 0.00797846 0.03190841
v 0.00638626 0.00792951 0.03385272
v 0.00450691 0.00876857 0.00078893
v 0.00810399 0.00582070 0.03249222
v 0.00848837 -0.00584841 0.03122034
v 0.00785938 -0.00676219 0.03189277
v 0.00689022 -0.00754628 0.03123988
v 0.00727406 -0.00731011 0.02188450
v 0.00450473 -0.00876837 0.00078372
v 0.00380585 -0.00817751 -0.00327171
v 0.00361147 -0.00862495 -0.00307624
v 0.00392269 0.00834432 -0.00307624
v 0.00345204 0.00873937 -0.00291204
v 0.00443047 0.00837867 0.03533311
v 0.00694209 0.00745287 0.03385272
v 0.00187081 0.00858307 0.03665191
v 0.00817824 -0.00501365 0.03242967
v 0.00742912 -0.00688929 0.03326369
v 0.00692789 -0.00741832 0.03334449
v 0.00587192 -0.00792846 0.03400910
v 0.00327732 0.00817771 -0.00378255
v -0.00498699 0.00876857 0.00290005
v 0.00272913 0.00846627 0.03749636
v 0.00743022 0.00659406 0.03352172
v 0.00279246 -0.00831793 0.03677701
v 0.00213289 -0.00836473 0.03664931
v 0.00160436 -0.00876837 -0.00397021
v 0.00267890 -0.00845748 -0.00424127
v 0.00162838 0.00845940 -0.00477296
v 0.00127676 0.00874517 -0.00422823
v 0.00501033 0.00800423 0.03584004
v -0.00393211 0.00876513 -0.00184866
v -0.00710112 0.00871189 0.00342132
v -0.00250595 0.00793552 0.04116606
v 0.00782388 0.00048704 0.03305910
v 0.00531063 -0.00791815 0.03534354
v -0.00103065 -0.00876837 0.00289484
v 0.00162620 -0.00845920 -0.00477296
v -0.00247974 0.00490907 0.04652987
v -0.00214996 0.00448481 0.04633700
v -0.00446283 0.00777922 0.04140584
v -0.00551771 0.00757139 0.04193231
v -0.00698646 0.00693157 0.04369419
v -0.00411557 0.00528007 0.04695209
v 0.00755143 -0.00606312 0.03338880
v 0.00679358 -0.00685666 0.03421761
v -0.00018052 -0.00793447 0.03997888
v -0.00254745 -0.00792330 0.04116084
v -0.00709893 -0.00870826 0.00342132
v -0.00023895 -0.00865759 -0.00469216
v 0.00028522 -0.00817751 -0.00501795
v 0.00028740 0.00817771 -0.00501795
v -0.00050103 0.00857276 -0.00486418
v -0.00214996 -0.00448118 0.04633179
v -0.00842681 0.00844394 0.00315026
v -0.00790702 0.00634500 0.04433013
v -0.00247974 -0.00490887 0.04653508
v 0.00322053 -0.00794220 0.03747030
v -0.00324087 -0.00526528 0.04658460
v -0.00419201 -0.00527559 0.04694688
v -0.00696571 -0.00692021 0.04368898
v -0.00446064 -0.00775326 0.04141105
v -0.00340358 -0.00874604 -0.00291204
v -0.00419419 0.00369127 0.04800504
v -0.00408063 -0.00289925 0.04809887
v -0.00938996 0.00785308 0.00342132
v -0.00374210 0.00851608 -0.00324044
v -0.00842244 0.00580910 0.04431449
v -0.00518574 0.00490391 0.04706416
v -0.00996436 0.00734809 0.00342132
v -0.00551771 -0.00754543 0.04193231
v -0.00789828 -0.00633450 0.04431971
v -0.00843118 -0.00844890 0.00314505
v -0.00156901 -0.00845233 -0.00476774
v -0.00446064 0.00250053 0.04820313
v -0.00472600 -0.00243614 0.04817836
v -0.00420184 -0.00369279 0.04800504
v -0.00989229 0.00728626 0.00303819
v -0.00899247 0.00483693 0.04436141
v -0.00582128 0.00374280 0.04750463
v -0.01058899 0.00644119 0.00307207
v -0.00525563 0.00316396 0.04800504
v -0.00538885 -0.00485734 0.04702507
v -0.00840497 -0.00578143 0.04404344
v -0.01013689 -0.00712332 0.00342132
v -0.00925892 -0.00794220 0.00342132
v -0.00898810 -0.00482814 0.04435619
v -0.00374210 -0.00851588 -0.00324565
v -0.00157119 0.00845424 -0.00476774
v -0.00264355 0.00847142 -0.00424648
v -0.01106073 0.00528866 0.00315026
v -0.00323978 0.00817771 -0.00379819
v -0.00949916 0.00330652 0.04434055
v -0.00637302 0.00232211 0.04746944
v -0.00989010 -0.00728349 0.00303037
v -0.00628866 -0.00307789 0.04745772
v -0.01059335 -0.00644271 0.00306165
v -0.01106292 -0.00529706 0.00314505
v -0.00249612 -0.00832437 -0.00433249
v -0.00545601 -0.00263603 0.04797898
v -0.01113717 0.00448138 0.00342653
v -0.01079210 0.00606159 0.00342653
v -0.01110005 0.00448138 0.00308771
v -0.00308144 -0.00817751 -0.00393111
v -0.01079647 -0.00606655 0.00342132
v -0.00949698 -0.00330118 0.04434055
v -0.01113663 -0.00369108 0.00408072
v -0.00957779 0.00237214 0.04404344
v -0.01110005 -0.00447947 0.00308771
v -0.00636729 -0.00184120 0.04752548
v -0.00957779 -0.00210485 0.04404344
v -0.00129505 0.00487167 0.02670266
v -0.00070527 0.00487167 0.02665505
v -0.00180236 0.00487167 0.02659434
v -0.00164127 -0.00342827 0.02535664
v -0.00129505 -0.00342827 0.02540355
v -0.00036287 0.00487167 0.02652397
v -0.00075169 -0.00342827 0.02535802
v -0.00029243 -0.00342827 0.02519451
v -0.00288362 0.00487167 0.02609898
v -0.00190448 -0.00342827 0.02523866
v -0.00007072 0.00487167 0.02641151
v -0.00028478 -0.00342827 0.02519106
v -0.00388351 0.00487167 0.02550428
v -0.00267119 -0.00342827 0.02484127
v -0.00234954 -0.00342827 0.02502893
v 0.00025202 0.00487167 0.02625076
v 0.00018267 -0.00342827 0.02490130
v -0.00446072 0.00487167 0.02503928
v -0.00292239 -0.00342827 0.02452391
v 0.00105532 0.00342470 0.02360564
v 0.00111812 0.00342470 0.02334140
v 0.00025202 0.00487167 0.01988149
v 0.00025147 -0.00342827 0.02484058
v 0.00064794 -0.00271170 0.02440525
v 0.00087784 -0.00271170 0.02399613
v 0.00093845 -0.00271170 0.02383055
v 0.00104603 -0.00271170 0.02353665
v -0.00446072 0.00487167 0.02109160
v -0.00446072 0.00454019 0.02438455
v -0.00342042 -0.00342827 0.02346835
v -0.00325987 -0.00342827 0.02397405
v -0.00312881 -0.00342827 0.02423829
v 0.00111703 0.00342470 0.02296057
v 0.00109136 -0.00271170 0.02327310
v 0.00109136 -0.00271170 0.02310683
v 0.00023837 0.00487167 0.01985872
v 0.00111211 0.00342470 0.02293573
v 0.00099142 0.00342470 0.02249419
v 0.00094610 -0.00271170 0.02241416
v 0.00070145 -0.00271170 0.02192363
v 0.00025147 -0.00342827 0.02142896
v -0.00446072 0.00453369 0.02194157
v -0.00298465 0.00487167 0.02009536
v -0.00238067 -0.00342827 0.02123441
v -0.00273891 -0.00342827 0.02149796
v -0.00300267 -0.00342827 0.02182773
v -0.00318506 -0.00342827 0.02209335
v -0.00331612 -0.00342827 0.02241416
v -0.00343298 -0.00342827 0.02294194
v -0.00446072 0.00441182 0.02399613
v -0.00446072 0.00438664 0.02387401
v -0.00446072 0.00431271 0.02346766
v 0.00106023 -0.00271170 0.02284260
v -0.00024000 0.00487167 0.01972764
v 0.00063701 -0.00271170 0.02182842
v 0.00052179 -0.00271170 0.02166008
v -0.00010731 -0.00342827 0.02117508
v -0.00037161 -0.00342827 0.02101777
v -0.00446072 0.00438908 0.02233482
v -0.00270232 0.00487167 0.01993047
v -0.00211746 -0.00342827 0.02107297
v -0.00446072 0.00430377 0.02294125
v -0.00446072 0.00436876 0.02241416
v -0.00076753 0.00487167 0.01966486
v -0.00076971 -0.00342827 0.02091084
v -0.00235719 0.00487167 0.01979663
v -0.00182311 -0.00342827 0.02096603
v -0.00129559 0.00487167 0.01965451
v -0.00129723 -0.00342827 0.02088117
v -0.00182257 0.00487167 0.01967865
v -0.00181602 0.00487167 0.01967796
v -0.00182255 -0.00381523 0.03274300
v -0.00129535 -0.00381523 0.03275325
v -0.00235174 -0.00381523 0.03284856
v -0.00297619 0.00490019 0.03175709
v -0.00246296 0.00490019 0.03170072
v -0.00198066 0.00490019 0.03164845
v -0.00182305 0.00490019 0.03163513
v -0.00129535 0.00490019 0.03163821
v -0.00077464 -0.00381523 0.03286394
v -0.00076766 0.00490019 0.03170789
v -0.00286247 -0.00381523 0.03300229
v -0.00336224 0.00490019 0.03195899
v -0.00073374 0.00490019 0.03171712
v -0.00073374 -0.00381523 0.03287623
v -0.00288292 -0.00381523 0.03301664
v -0.00367795 0.00490019 0.03214961
v -0.00073374 0.00490019 0.03870564
v 0.00092266 0.00295253 0.03981556
v 0.00092066 0.00295253 0.03980532
v -0.00073374 -0.00381523 0.03771973
v 0.00062091 0.00147579 0.03982991
v -0.00340314 -0.00381523 0.03349115
v -0.00417273 0.00490019 0.03249704
v -0.00294228 0.00490019 0.03870564
v -0.00078312 0.00326136 0.04210408
v -0.00073374 0.00326136 0.04210100
v 0.00075009 0.00295253 0.04084965
v 0.00091767 0.00295253 0.04035874
v 0.00092266 0.00295253 0.03981967
v -0.00200160 -0.00381523 0.03771973
v 0.00061442 0.00148517 0.04035669
v 0.00057153 0.00154745 0.04065083
v 0.00005580 0.00154489 0.04116838
v -0.00023946 0.00148347 0.04121245
v -0.00073374 0.00147494 0.04121757
v -0.00388644 -0.00381523 0.03406302
v -0.00389791 -0.00381523 0.03409889
v -0.00401063 -0.00381523 0.03455393
v -0.00401412 -0.00381523 0.03458673
v -0.00404205 -0.00381523 0.03508174
v -0.00417273 0.00418955 0.03317140
v -0.00417273 0.00490019 0.03754550
v -0.00183851 0.00326136 0.04161420
v -0.00129485 0.00326136 0.04190116
v -0.00107839 0.00153380 0.04117453
v -0.00076766 0.00147494 0.04121757
v 0.00028574 0.00295253 0.04133236
v 0.00053262 0.00295253 0.04112533
v -0.00322607 -0.00381523 0.03701770
v -0.00402210 -0.00381523 0.03560646
v -0.00417273 0.00416225 0.03702795
v -0.00417273 0.00407950 0.03666310
v -0.00417273 0.00397371 0.03612504
v -0.00417273 0.00390461 0.03560749
v -0.00417273 0.00389949 0.03543531
v -0.00417273 0.00389266 0.03508071
v -0.00417273 0.00391143 0.03455291
v -0.00417273 0.00393361 0.03438278
v -0.00417273 0.00398139 0.03404560
v -0.00417273 0.00406073 0.03366743
v -0.00417273 0.00416651 0.03325133
v -0.00389592 -0.00381523 0.03611172
v -0.00238865 0.00326136 0.04085785
v -0.00202554 0.00326136 0.04142870
v -0.00388095 -0.00381523 0.03613529
f 1 2 3
f 1 3 4
f 1 5 2
f 4 3 6
f 4 7 8
f 4 8 9
f 4 6 7
f 4 9 10
f 4 10 11
f 4 11 1
f 1 11 12
f 1 12 13
f 1 13 5
f 2 5 14
f 2 14 16
f 2 16 15
f 2 15 3
f 3 17 6
f 3 18 17
f 7 19 8
f 8 19 20
f 6 21 19
f 6 19 7
f 10 9 22
f 10 22 11
f 11 22 12
f 5 13 23
f 5 23 24
f 5 24 25
f 5 25 26
f 5 26 14
f 14 27 16
f 15 16 28
f 15 18 3
f 16 29 28
f 18 30 17
f 6 17 31
f 6 31 21
f 20 19 32
f 20 33 8
f 8 33 9
f 21 34 32
f 21 32 19
f 13 35 23
f 23 36 24
f 25 24 37
f 26 25 14
f 14 25 38
f 14 38 27
f 27 29 16
f 15 28 18
f 28 30 18
f 30 31 17
f 21 31 48
f 21 48 50
f 21 50 40
f 9 33 22
f 32 34 41
f 22 33 42
f 12 35 13
f 36 37 24
f 27 38 43
f 27 43 44
f 25 37 38
f 29 27 45
f 29 46 28
f 28 39 30
f 39 47 30
f 30 47 31
f 20 32 49
f 20 49 33
f 21 40 34
f 40 50 51
f 40 51 34
f 34 52 41
f 41 49 32
f 42 53 22
f 12 22 35
f 23 35 36
f 37 36 54
f 27 44 55
f 28 46 39
f 29 45 46
f 39 46 47
f 31 47 48
f 33 58 42
f 34 51 59
f 34 59 52
f 52 59 60
f 52 60 61
f 52 61 62
f 41 52 62
f 41 62 57
f 42 58 53
f 36 35 63
f 36 64 54
f 37 54 38
f 43 38 54
f 43 65 66
f 43 66 44
f 44 67 55
f 45 68 56
f 45 56 46
f 47 70 71
f 48 47 71
f 49 57 33
f 57 58 33
f 58 72 53
f 50 73 51
f 61 74 62
f 41 57 49
f 22 53 35
f 35 53 63
f 63 64 36
f 63 72 64
f 64 72 75
f 54 64 75
f 54 76 43
f 43 76 65
f 44 66 67
f 65 77 66
f 66 77 78
f 66 78 79
f 66 79 80
f 67 81 55
f 45 81 68
f 45 27 55
f 45 55 81
f 68 69 56
f 69 70 56
f 56 47 46
f 47 56 70
f 48 71 50
f 58 82 83
f 58 83 72
f 72 63 53
f 73 50 85
f 51 73 60
f 51 60 59
f 61 60 73
f 74 61 84
f 74 84 88
f 74 88 86
f 74 87 62
f 57 62 82
f 75 77 76
f 75 76 54
f 76 77 65
f 67 66 80
f 77 75 78
f 80 89 67
f 79 89 80
f 79 78 90
f 81 67 91
f 68 81 92
f 69 68 92
f 69 92 70
f 58 57 82
f 83 82 93
f 83 95 75
f 83 75 72
f 73 96 84
f 73 85 96
f 84 61 73
f 50 71 85
f 84 96 88
f 86 98 74
f 86 88 99
f 86 99 97
f 74 98 87
f 87 98 100
f 87 82 62
f 82 87 100
f 67 89 91
f 75 95 78
f 79 91 89
f 78 101 90
f 90 102 103
f 90 103 104
f 90 104 79
f 90 105 102
f 91 106 81
f 81 106 92
f 70 92 107
f 70 107 71
f 71 108 85
f 71 107 108
f 93 82 100
f 93 94 83
f 83 94 95
f 85 109 99
f 85 99 96
f 85 108 110
f 85 110 109
f 97 112 98
f 97 98 86
f 88 96 99
f 91 79 104
f 78 95 101
f 103 113 104
f 104 113 91
f 101 105 90
f 105 101 114
f 91 113 106
f 106 113 115
f 106 115 116
f 106 117 92
f 93 100 94
f 94 118 95
f 109 120 99
f 110 121 109
f 110 108 122
f 110 122 127
f 110 127 121
f 97 99 120
f 97 120 109
f 97 109 111
f 111 112 97
f 111 109 119
f 98 112 100
f 102 105 103
f 103 123 115
f 103 105 123
f 103 115 113
f 101 118 114
f 106 116 122
f 106 122 117
f 115 123 116
f 117 107 92
f 107 117 108
f 108 117 122
f 100 118 94
f 109 121 119
f 119 126 111
f 119 121 127
f 119 127 125
f 122 116 127
f 101 95 118
f 105 114 124
f 124 114 128
f 124 116 123
f 124 123 105
f 114 118 128
f 116 125 127
f 116 124 125
f 100 112 118
f 118 112 128
f 119 125 126
f 112 111 124
f 112 124 128
f 124 129 125
f 129 124 111
f 129 111 126
f 129 126 125
f 130 131 135
f 130 135 140
f 130 140 145
f 130 145 151
f 130 151 165
f 130 165 183
f 130 183 193
f 130 193 197
f 130 197 200
f 130 200 199
f 130 199 195
f 130 195 189
f 130 189 172
f 130 172 157
f 130 157 147
f 130 147 142
f 130 142 138
f 130 138 132
f 130 132 133
f 130 133 134
f 130 134 131
f 131 134 136
f 131 136 137
f 131 137 135
f 132 138 139
f 132 139 133
f 133 139 144
f 133 144 143
f 133 143 148
f 133 148 161
f 133 161 160
f 133 160 159
f 133 159 178
f 133 178 177
f 133 177 176
f 133 176 175
f 133 175 174
f 133 174 173
f 133 173 190
f 133 190 196
f 133 196 198
f 133 198 194
f 133 194 187
f 133 187 186
f 133 186 170
f 133 170 152
f 133 152 146
f 133 146 141
f 133 141 137
f 133 137 136
f 133 136 134
f 135 137 140
f 137 141 140
f 138 142 143
f 138 143 144
f 138 144 139
f 140 141 145
f 141 146 145
f 142 147 143
f 143 147 148
f 145 149 150
f 145 150 151
f 145 146 152
f 145 152 153
f 145 153 154
f 145 154 155
f 145 155 156
f 145 156 149
f 147 157 171
f 147 171 188
f 147 188 192
f 147 192 191
f 147 191 181
f 147 181 180
f 147 180 179
f 147 179 158
f 147 158 159
f 147 159 160
f 147 160 161
f 147 161 148
f 149 156 150
f 150 162 151
f 150 156 163
f 150 163 164
f 150 164 162
f 151 162 166
f 151 166 167
f 151 167 168
f 151 168 169
f 151 169 165
f 152 170 164
f 152 164 163
f 152 163 156
f 152 156 155
f 152 155 154
f 152 154 153
f 157 172 173
f 157 173 174
f 157 174 175
f 157 175 176
f 157 176 177
f 157 177 178
f 157 178 171
f 158 179 159
f 159 179 180
f 159 180 181
f 159 181 178
f 162 164 182
f 162 182 166
f 164 170 182
f 165 169 184
f 165 184 185
f 165 185 170
f 165 170 186
f 165 186 187
f 165 187 183
f 166 182 168
f 166 168 167
f 168 182 170
f 168 170 169
f 169 170 184
f 170 185 184
f 171 178 188
f 172 189 190
f 172 190 173
f 178 181 191
f 178 191 192
f 178 192 188
f 183 187 194
f 183 194 193
f 189 195 190
f 190 195 196
f 193 194 198
f 193 198 197
f 195 199 196
f 196 199 198
f 197 198 200
f 198 199 200
f 201 202 209
f 201 209 214
f 201 214 220
f 201 220 230
f 201 230 249
f 201 249 265
f 201 265 262
f 201 262 250
f 201 250 240
f 201 240 239
f 201 239 238
f 201 238 237
f 201 237 236
f 201 236 222
f 201 222 215
f 201 215 211
f 201 211 203
f 201 203 204
f 201 204 205
f 201 205 206
f 201 206 207
f 201 207 208
f 201 208 202
f 202 208 210
f 202 210 209
f 203 211 204
f 204 211 212
f 204 212 216
f 204 216 223
f 204 223 242
f 204 242 224
f 204 224 217
f 204 217 213
f 204 213 210
f 204 210 208
f 204 208 207
f 204 207 206
f 204 206 205
f 209 210 213
f 209 213 214
f 211 215 216
f 211 216 212
f 213 217 229
f 213 229 218
f 213 218 219
f 213 219 214
f 214 219 218
f 214 218 221
f 214 221 220
f 215 222 223
f 215 223 216
f 217 224 225
f 217 225 226
f 217 226 227
f 217 227 228
f 217 228 229
f 218 229 221
f 220 221 231
f 220 231 232
f 220 232 233
f 220 233 234
f 220 234 235
f 220 235 246
f 220 246 230
f 221 229 228
f 221 228 231
f 222 236 223
f 223 236 237
f 223 237 238
f 223 238 239
f 223 239 240
f 223 240 241
f 223 241 261
f 223 261 260
f 223 260 259
f 223 259 258
f 223 258 257
f 223 257 256
f 223 256 255
f 223 255 254
f 223 254 253
f 223 253 252
f 223 252 251
f 223 251 242
f 224 242 243
f 224 243 244
f 224 244 225
f 225 244 245
f 225 245 246
f 225 246 235
f 225 235 234
f 225 234 226
f 226 234 233
f 226 233 247
f 226 247 248
f 226 248 227
f 227 232 228
f 227 248 232
f 228 232 231
f 230 246 245
f 230 245 249
f 232 248 233
f 233 248 247
f 240 250 242
f 240 242 251
f 240 251 252
f 240 252 253
f 240 253 254
f 240 254 255
f 240 255 256
f 240 256 257
f 240 257 258
f 240 258 259
f 240 259 260
f 240 260 261
f 240 261 241
f 242 250 262
f 242 262 263
f 242 263 264
f 242 264 243
f 243 245 244
f 243 264 249
f 243 249 245
f 249 264 265
f 262 265 263
f 263 265 264

