# https://github.com/mikedh/trimesh
v 0.00956475 -0.00067701 0.01580106
v 0.00957146 0.00019250 0.01543859
v 0.00933576 -0.00337829 0.01502991
v 0.00275057 -0.00750141 -0.00097761
v 0.00269117 0.00733902 -0.00111626
v 0.00850123 0.00159505 0.02213520
v 0.00893814 -0.00176155 0.01963961
v 0.00273141 -0.00772299 -0.00094137
v 0.00273332 0.00774197 -0.00094499
v 0.00928114 0.00385685 0.01496376
v 0.00948714 0.00259762 0.01561983
v 0.00941001 -0.00336106 0.01561983
v 0.00236732 -0.00771807 -0.00164093
v 0.00857788 -0.00586825 0.01414096
v 0.00674403 -0.00768852 0.01158193
v 0.00894388 -0.00513127 0.01529723
v 0.00185137 0.00743052 -0.00220638
v 0.00600244 0.00807024 0.01051265
v 0.00674403 0.00771078 0.01158193
v 0.00857980 0.00589051 0.01414458
v 0.00893430 0.00511742 0.01453605
v 0.00188155 -0.00784158 -0.00151135
v 0.00600053 -0.00804798 0.01050902
v 0.00490731 -0.00829296 0.00911895
v 0.00841117 -0.00606521 0.01488945
v 0.00776922 -0.00689410 0.01397422
v 0.00087456 0.00770750 -0.00270296
v 0.00490635 0.00831522 0.00911986
v 0.00779797 0.00693442 0.01361175
v 0.00858746 0.00590036 0.01464116
v 0.00782000 -0.00117968 0.02579251
v 0.00184227 -0.00760317 -0.00220094
v 0.00702476 -0.00751844 0.01305808
v 0.00010231 0.00771078 -0.00271021
v 0.00380451 0.00837800 0.00957929
v 0.00676511 0.00772309 0.01261496
v 0.00923036 0.00431562 0.01552740
v 0.00881550 0.00349083 0.01946925
v 0.00768108 0.00349083 0.02569646
v 0.00398847 -0.00835656 0.00920413
v 0.00520241 -0.00814236 0.01488764
v 0.00325454 -0.00831224 0.02093000
v 0.00004866 -0.00769509 -0.00271021
v 0.00784683 -0.00449196 0.02344281
v 0.00820038 -0.00547760 0.01888205
v 0.00502899 -0.00707137 0.03228976
v 0.00545823 0.00824259 0.01104547
v 0.00782479 0.00092537 0.02581970
v 0.00757520 -0.00361916 0.02594203
v 0.00005153 -0.00713374 -0.00286970
v 0.00110415 -0.00326350 -0.00266037
v 0.00562207 -0.00783871 0.01818429
v 0.00050568 0.00669929 -0.00283073
v 0.00325454 0.00833615 0.02093000
v 0.00477916 0.00806214 0.01976896
v 0.00502899 0.00708542 0.03228976
v 0.00783246 0.00512727 0.02216964
v 0.00504623 0.00678998 0.03265586
v 0.00344737 -0.00807835 0.02634709
v 0.00233953 -0.00823099 0.02789302
v 0.00069252 -0.00835656 0.02642865
v 0.00504432 -0.00676607 0.03265586
v 0.00453029 -0.00689000 0.03338351
v 0.00417243 -0.00718380 0.03320862
v -0.00022441 0.00642395 -0.00287332
v -0.00097270 0.00735297 -0.00271021
v -0.00170662 0.00734804 -0.00202152
v -0.00077149 0.00760081 -0.00215201
v 0.00068869 0.00838046 0.02642865
v 0.00308591 0.00813180 0.02752692
v 0.00744155 0.00444118 0.02572183
v 0.00105852 -0.00833194 0.02789302
v -0.00076958 -0.00760153 -0.00215201
v -0.00097270 -0.00733235 -0.00271021
v -0.00553337 0.00749577 0.02972711
v 0.00371588 0.00718185 0.03348319
v 0.00430177 0.00690980 0.03359918
v 0.00427207 -0.00676607 0.03364902
v 0.00330365 -0.00689831 0.03402463
v 0.00270602 -0.00717026 0.03375776
v -0.00643688 0.00726597 0.02936102
v -0.00610825 0.00734968 0.02991922
v -0.00391414 0.00771078 0.03027806
v 0.00123961 0.00831973 0.02807606
v -0.00395438 -0.00769345 0.03028169
v -0.00553529 -0.00749484 0.02971623
v -0.00173728 -0.00733809 -0.00192184
v -0.00636502 -0.00729295 0.02935014
v -0.00169513 -0.00699915 -0.00234774
v -0.00040549 -0.00785594 0.03082539
v -0.00134397 0.00587615 -0.00256160
v -0.00498532 0.00404233 -0.00050640
v -0.00247887 0.00701485 -0.00120053
v -0.00718709 0.00697545 0.02953681
v -0.00779550 0.00647566 0.02957487
v 0.00194191 0.00699679 0.03395349
v 0.00325838 0.00678998 0.03408761
v 0.00194383 -0.00697617 0.03395712
v -0.00611974 -0.00733070 0.02991922
v -0.00250953 -0.00701064 -0.00105735
v 0.00270650 -0.00676607 0.03412386
v -0.00535708 0.00261926 -0.00015481
v -0.00444111 0.00533244 -0.00007325
v -0.00348921 0.00639892 -0.00002704
v -0.00808965 0.00632588 0.02899130
v -0.00896537 0.00543749 0.02899130
v 0.00252445 0.00678998 0.03411298
v -0.00975678 0.00370913 0.02918341
v -0.00059041 0.00785605 0.03082176
v -0.00779934 -0.00645914 0.02957669
v -0.00720434 -0.00696304 0.02949694
v -0.00498532 -0.00402663 -0.00050640
v -0.00795359 -0.00643534 0.02899492
v -0.00350406 -0.00639841 0.00004092
v -0.00429452 -0.00554079 -0.00008231
v -0.00508880 -0.00200283 -0.00053177
v -0.00501790 0.00425694 0.00004455
v -0.00999057 0.00202345 0.02862521
v -0.00975487 -0.00368851 0.02918341
v -0.00939844 -0.00477345 0.02919428
v -0.00479466 -0.00473570 -0.00005150
v -0.00535804 -0.00223631 -0.00017474
v -0.00992925 0.00294015 0.02862521
v -0.00977403 0.00375017 0.02869045
v -0.00937737 0.00476453 0.02885356
v -0.00999057 -0.00200283 0.02862521
v -0.00863003 -0.00583049 0.02899492
v -0.00521719 -0.00365076 0.00004455
v -0.00985260 -0.00332495 0.02866326
f 2 3 4
f 2 4 5
f 1 6 7
f 4 3 8
f 5 9 10
f 5 10 2
f 6 1 11
f 1 12 2
f 3 2 12
f 8 13 4
f 8 3 14
f 8 14 15
f 3 16 14
f 5 4 13
f 5 13 17
f 5 17 9
f 9 18 19
f 9 19 20
f 9 20 21
f 9 21 10
f 10 11 2
f 2 11 1
f 8 22 13
f 8 15 23
f 8 23 24
f 8 24 22
f 14 25 26
f 14 26 15
f 3 12 16
f 9 17 27
f 9 28 18
f 20 19 29
f 20 29 30
f 20 30 21
f 6 31 7
f 12 1 7
f 14 16 25
f 15 26 33
f 15 33 23
f 13 32 17
f 27 34 9
f 9 34 35
f 9 35 28
f 18 36 19
f 19 36 29
f 21 37 10
f 10 37 11
f 6 11 38
f 24 40 22
f 24 41 42
f 13 22 32
f 26 46 33
f 18 28 47
f 18 47 36
f 11 37 38
f 6 38 39
f 39 48 6
f 7 49 12
f 24 23 41
f 22 40 43
f 22 43 32
f 43 51 32
f 16 12 44
f 16 45 25
f 26 25 46
f 46 52 33
f 46 25 45
f 46 45 44
f 23 33 52
f 28 35 54
f 28 54 47
f 47 54 55
f 47 55 36
f 36 56 29
f 29 56 30
f 21 30 57
f 21 57 37
f 39 58 48
f 6 48 31
f 7 31 49
f 49 44 12
f 24 42 40
f 23 52 41
f 41 59 42
f 40 61 43
f 32 51 17
f 16 44 45
f 46 44 62
f 46 62 63
f 46 63 64
f 46 64 60
f 46 60 59
f 46 59 52
f 52 59 41
f 17 51 27
f 53 27 51
f 27 53 34
f 34 53 65
f 34 66 67
f 34 68 69
f 34 69 35
f 54 70 55
f 56 36 55
f 56 55 70
f 56 57 30
f 39 38 71
f 58 62 48
f 40 42 72
f 42 60 72
f 59 60 42
f 40 72 61
f 43 61 73
f 43 73 74
f 50 51 43
f 62 44 49
f 53 51 50
f 34 65 66
f 67 68 34
f 68 75 69
f 35 69 54
f 54 69 70
f 56 76 77
f 56 70 76
f 56 58 71
f 56 71 57
f 56 77 58
f 71 38 37
f 58 39 71
f 31 48 62
f 31 62 49
f 60 64 72
f 74 50 43
f 50 65 53
f 62 58 63
f 63 58 77
f 63 77 78
f 63 79 64
f 64 79 80
f 64 80 72
f 65 50 74
f 65 74 66
f 68 81 75
f 75 81 82
f 75 82 83
f 69 84 70
f 70 84 76
f 37 57 71
f 72 85 86
f 73 61 86
f 61 72 86
f 73 87 74
f 73 86 88
f 73 88 87
f 74 87 89
f 63 78 79
f 80 90 72
f 66 92 67
f 67 93 94
f 67 94 81
f 68 67 81
f 82 94 95
f 82 95 96
f 82 96 83
f 83 69 75
f 85 80 98
f 85 98 99
f 85 99 86
f 72 90 85
f 86 99 88
f 87 100 89
f 74 89 91
f 78 77 79
f 74 91 66
f 91 92 66
f 91 116 92
f 92 103 67
f 67 103 93
f 93 103 104
f 93 104 105
f 93 105 94
f 81 94 82
f 96 95 108
f 96 107 97
f 83 96 109
f 69 83 84
f 84 83 109
f 84 109 76
f 76 97 77
f 77 97 79
f 80 79 98
f 98 79 101
f 99 110 111
f 99 98 110
f 87 88 111
f 99 111 88
f 87 111 100
f 100 111 113
f 100 114 115
f 89 112 116
f 79 97 101
f 101 97 107
f 80 85 90
f 92 116 102
f 91 89 116
f 92 102 117
f 92 117 103
f 95 106 108
f 94 105 95
f 95 105 106
f 96 98 107
f 96 108 98
f 107 98 101
f 96 76 109
f 96 97 76
f 98 119 120
f 98 120 110
f 100 115 112
f 100 112 89
f 113 114 100
f 115 121 112
f 112 122 116
f 116 122 102
f 102 122 118
f 102 118 123
f 102 123 124
f 102 124 117
f 117 124 125
f 117 125 103
f 103 125 106
f 103 106 104
f 104 106 105
f 98 108 119
f 108 118 119
f 108 124 123
f 108 123 118
f 120 127 110
f 110 127 111
f 111 127 113
f 112 121 128
f 112 128 122
f 113 127 114
f 114 127 115
f 115 127 121
f 121 127 120
f 122 126 118
f 124 108 125
f 125 108 106
f 119 118 126
f 126 129 119
f 119 129 120
f 121 120 129
f 121 129 128
f 128 129 122
f 122 129 126

