# https://github.com/mikedh/trimesh
v 0.02660722 0.00351122 0.03022116
v 0.02638984 0.00541852 0.01867843
v 0.02637231 -0.00701208 0.02845088
v 0.02604385 0.00533989 0.04527190
v 0.02632975 -0.00115945 0.04498084
v 0.02646086 -0.00464264 0.01867843
v 0.02527539 0.01006383 0.04614507
v 0.02528267 -0.00004766 0.05313045
v 0.02528813 -0.00369754 0.01285345
v 0.02500770 0.00842995 0.01339823
v 0.02563116 0.01079074 0.03120348
v 0.02472726 0.00777734 0.05257897
v 0.02070102 0.01018649 0.06723142
v 0.02547205 -0.00986979 0.04363279
v 0.02506415 -0.00967480 0.01402917
v 0.02567054 0.01006226 0.01867843
v 0.02397997 0.01225616 0.04724707
v 0.02070466 -0.01018430 0.06723142
v 0.02545475 -0.01060929 0.01848695
v 0.02416275 -0.01017487 0.05287769
v 0.01660739 0.00503167 -0.00083391
v 0.02098509 0.01373023 0.05148559
v 0.01708996 0.01099242 0.07086007
v 0.01933071 -0.01007894 0.06936361
v 0.02148587 -0.01358887 0.05153921
v 0.02341159 -0.01321775 0.04352172
v 0.01580706 -0.01239452 0.00260900
v 0.01506682 0.00479736 -0.00204026
v 0.01588991 0.00690615 -0.00097561
v 0.01636338 -0.01123319 0.07091560
v 0.01676764 0.01010786 0.07170452
v 0.02281623 -0.01261261 0.01265862
v 0.02330505 0.01190214 0.01215645
v 0.02412462 0.01297265 0.03106561
v 0.02513175 -0.01177690 0.03218293
v 0.01709497 -0.01436453 0.01110424
v 0.01021247 -0.01482352 0.00733294
v 0.00274953 -0.01313126 -0.00333470
v 0.00197014 -0.01144234 -0.00490488
v 0.00212675 0.01202794 -0.00454872
v 0.00319386 0.01315389 -0.00298237
v 0.02157874 0.01323723 0.01196113
v 0.02291718 0.01351872 0.01737634
v 0.02233446 0.01413240 0.03458894
v 0.01569325 -0.01024092 0.07211813
v 0.01268312 0.01159942 0.07206068
v 0.01030967 0.01476005 0.05855427
v 0.01307646 0.01045068 0.07278067
v 0.02215418 -0.01392382 0.01683252
v 0.00038950 -0.01317529 -0.00342662
v 0.00089757 0.00978706 -0.00525722
v 0.01694428 0.01513215 0.04768461
v 0.01429471 -0.01468179 0.05601039
v 0.01258752 -0.01160432 0.07206643
v 0.01688419 -0.01516299 0.01797760
v 0.00029880 -0.01426531 0.00890898
v -0.00146838 -0.00986999 -0.00500134
v 0.00040043 0.01317433 -0.00341896
v 0.01269587 0.01483180 0.00919226
v 0.01741410 -0.01499158 0.04839311
v 0.00833274 -0.01472268 0.06012349
v 0.00089574 0.01285982 0.07131389
v 0.00408706 0.01473508 0.05715547
v 0.01433341 -0.01584980 0.03676613
v 0.01688601 0.01515181 0.01779377
v 0.01171981 -0.01044849 0.07289939
v 0.00063853 -0.01269095 0.07159633
v -0.00066201 0.01361715 0.06171964
v 0.02311795 -0.01371703 0.02990090
v -0.00357665 -0.01163184 -0.00282152
v -0.00208137 0.01175609 -0.00419399
v 0.00554022 0.01453065 0.00378663
v 0.01661519 0.01551197 0.03149406
v -0.00185489 0.01203345 0.07038902
v 0.00100318 0.01072430 0.07270024
v 0.01171981 -0.01604519 0.02506064
v 0.00515872 -0.01542089 0.01711592
v -0.00653032 -0.01320360 0.01945204
v -0.00392401 0.00973752 -0.00340412
v -0.00379062 0.01196779 -0.00076976
v -0.00393903 0.01354466 0.01169305
v 0.00035308 -0.01177572 0.07252407
v -0.00110008 -0.01241103 0.07098453
v 0.00786292 -0.01567879 0.04420724
v -0.00411931 -0.00967480 -0.00337300
v 0.00172464 0.01495121 0.01521399
v 0.01171981 0.01604895 0.02488256
v -0.00183577 -0.00022693 0.07248578
v -0.00083512 -0.01414005 0.05560396
v -0.00336473 0.01031308 0.06992035
v -0.00465184 0.01296518 0.05587204
v 0.00358423 -0.01564065 0.03111755
v -0.00531207 -0.01393798 0.02477149
v -0.00609965 0.01317669 0.01653476
v 0.00476721 0.01578161 0.03490872
v -0.00801626 -0.01085106 0.01436619
v -0.00415573 -0.01008681 0.06864841
v -0.00456773 0.00000581 0.07041486
v -0.00776861 -0.00915193 0.00934162
v -0.00726237 -0.00348839 0.00198093
v -0.00529386 -0.01354484 0.04727867
v -0.00226552 -0.01472936 0.03907161
v -0.00683079 0.01080450 0.05575763
v -0.00446075 0.01391657 0.04674825
v -0.00567445 0.01003238 -0.00023264
v -0.00743309 -0.01160982 0.04859704
v -0.00560252 0.00000581 0.06861969
v -0.00725508 0.00348429 0.00198093
v -0.00763476 0.01278041 0.02681464
v -0.00574410 0.01395510 0.03217335
v -0.00740896 0.00457721 0.05912298
v -0.00756061 0.01262993 0.03946631
v -0.00796254 0.00712454 0.00840765
v -0.00836772 0.01074789 0.01728825
v -0.00699809 -0.00689699 0.05938699
v -0.00856188 0.00684246 0.05013754
v -0.00765115 -0.01279709 0.03513850
v -0.00924283 -0.01012897 0.02808395
v -0.00893815 -0.00470515 0.01263038
v -0.00879201 0.01007641 0.04388555
v -0.00919992 -0.00000205 0.01248197
v -0.00881842 -0.00718467 0.04761760
v -0.00832583 0.00000266 0.05583422
v -0.00924180 0.01044753 0.03435150
v -0.01021365 -0.00236284 0.03237753
v -0.00987779 0.00232139 0.02126444
v -0.00979448 -0.00495401 0.04063221
v -0.00972710 -0.00000205 0.04469840
v -0.01007685 0.00488464 0.03118242
f 1 3 2
f 1 4 5
f 1 5 3
f 2 3 6
f 4 8 5
f 6 9 10
f 6 10 2
f 1 11 7
f 7 4 1
f 4 12 8
f 8 12 13
f 5 14 3
f 2 16 1
f 13 12 17
f 5 8 14
f 2 10 16
f 11 1 16
f 7 12 4
f 12 7 17
f 8 18 20
f 3 14 19
f 6 3 19
f 6 15 9
f 9 21 10
f 13 17 22
f 18 13 24
f 13 18 8
f 18 25 20
f 20 26 14
f 20 14 8
f 6 19 15
f 21 27 28
f 21 9 27
f 7 11 17
f 13 22 23
f 24 30 18
f 25 26 20
f 9 15 27
f 21 28 29
f 21 29 33
f 21 33 10
f 10 33 16
f 16 34 11
f 30 25 18
f 23 31 13
f 31 24 13
f 14 26 35
f 19 14 35
f 27 32 36
f 27 36 37
f 27 15 32
f 27 38 39
f 27 39 28
f 27 37 38
f 28 40 29
f 29 40 41
f 29 41 42
f 29 42 33
f 16 33 43
f 16 43 34
f 11 34 17
f 22 17 44
f 24 45 30
f 23 22 47
f 23 48 31
f 24 31 45
f 19 32 15
f 32 49 36
f 38 50 39
f 28 39 51
f 28 51 40
f 17 34 44
f 25 30 53
f 23 47 46
f 35 49 19
f 19 49 32
f 36 49 55
f 36 55 37
f 50 38 56
f 42 43 33
f 39 57 51
f 40 58 41
f 42 41 59
f 22 44 52
f 22 52 47
f 53 60 25
f 54 61 53
f 54 53 30
f 46 47 62
f 46 48 23
f 48 45 31
f 26 25 60
f 37 56 38
f 50 57 39
f 43 42 65
f 42 59 65
f 45 54 30
f 54 67 61
f 63 68 47
f 47 68 62
f 26 69 35
f 35 69 49
f 51 57 71
f 51 71 40
f 40 71 58
f 41 58 72
f 65 73 43
f 34 43 44
f 52 44 73
f 66 54 45
f 45 48 66
f 62 75 46
f 26 60 69
f 55 76 37
f 56 37 77
f 50 56 78
f 50 70 57
f 71 57 79
f 58 80 81
f 41 72 59
f 66 48 75
f 53 61 60
f 60 61 64
f 75 48 46
f 47 52 63
f 62 68 74
f 55 49 64
f 50 78 70
f 57 70 85
f 73 44 43
f 58 71 80
f 58 86 72
f 59 87 65
f 66 82 54
f 75 88 66
f 67 54 82
f 61 67 89
f 61 84 64
f 75 62 74
f 75 74 90
f 60 64 69
f 64 76 55
f 76 92 77
f 76 77 37
f 56 93 78
f 58 81 86
f 59 72 87
f 73 87 52
f 88 82 66
f 82 83 67
f 83 89 67
f 74 68 91
f 64 49 69
f 77 92 56
f 71 79 80
f 80 94 81
f 82 97 83
f 87 95 52
f 52 95 63
f 75 90 88
f 78 96 70
f 70 96 85
f 85 96 99
f 85 79 57
f 72 86 87
f 87 73 65
f 89 84 61
f 90 74 103
f 74 91 103
f 68 63 104
f 68 104 91
f 64 92 76
f 92 64 84
f 56 92 93
f 85 100 79
f 87 86 95
f 83 97 106
f 83 106 101
f 89 102 84
f 89 83 101
f 90 107 98
f 63 95 104
f 79 105 80
f 79 100 105
f 105 100 108
f 81 94 110
f 82 98 97
f 89 101 102
f 84 102 92
f 98 88 90
f 104 112 91
f 80 105 94
f 94 114 109
f 81 110 86
f 86 110 95
f 82 88 98
f 111 103 116
f 103 111 90
f 90 111 107
f 103 91 112
f 92 102 93
f 78 117 118
f 78 118 96
f 110 94 109
f 115 106 97
f 95 110 104
f 104 110 112
f 99 119 100
f 85 99 100
f 113 114 105
f 105 114 94
f 116 103 120
f 107 97 98
f 112 120 103
f 100 119 108
f 108 113 105
f 97 107 115
f 101 106 117
f 111 123 107
f 102 101 93
f 93 117 78
f 96 118 119
f 96 119 99
f 119 121 108
f 114 124 109
f 109 112 110
f 115 122 106
f 106 122 117
f 111 116 123
f 93 101 117
f 108 121 113
f 114 113 126
f 109 124 112
f 122 127 117
f 123 115 107
f 112 124 120
f 118 125 119
f 113 121 126
f 114 126 124
f 115 123 122
f 116 128 123
f 121 119 126
f 123 128 122
f 117 127 118
f 124 129 120
f 120 128 116
f 119 125 126
f 118 127 125
f 124 126 129
f 122 128 127
f 120 129 128
f 129 126 125
f 128 125 127
f 128 129 125

