# https://github.com/mikedh/trimesh
v 0.00977518 -0.02607562 -0.00097386
v 0.00559350 -0.02623293 -0.00235113
v 0.00480895 -0.02606789 0.00314761
v 0.01015569 -0.02574038 -0.00535325
v 0.01055637 -0.02555729 -0.00458982
v 0.00857033 -0.02580485 0.00451133
v 0.00475795 -0.02594668 -0.00190880
v 0.00559350 -0.02537678 -0.00703485
v 0.01107586 -0.02463151 -0.00862748
v 0.02462680 -0.00416900 0.00157433
v 0.01531301 -0.01730008 0.01849868
v 0.00520123 -0.02501317 0.00805572
v 0.01080743 -0.02408739 -0.01066629
v 0.01160712 -0.02230160 -0.01385798
v 0.01783255 -0.01301417 -0.01903304
v 0.01620460 -0.01535569 0.01981662
v 0.01321937 -0.01932183 0.01776620
v 0.00797183 -0.02452578 0.00945620
v 0.00341468 -0.00911508 0.00181161
v 0.00479774 -0.02242667 0.01357251
v 0.01834588 -0.01191046 -0.01867711
v 0.02505606 -0.00259595 0.00259825
v 0.01043645 -0.02090262 0.01597628
v 0.00224009 0.01694078 -0.01277603
v 0.00342813 -0.00807841 -0.00495606
v 0.00478878 -0.02296821 -0.01256970
v 0.01536569 -0.01498435 -0.02085520
v 0.01723741 -0.01166032 -0.02111376
v 0.02492156 0.00156875 -0.00338278
v 0.01703791 -0.01220573 0.02094242
v 0.01431327 -0.01489151 0.02140022
v 0.01236757 -0.01511200 0.02148146
v 0.00480335 -0.01955134 0.01746444
v 0.00221768 0.01745653 -0.01016594
v 0.01320817 -0.01669665 -0.02035872
v 0.02505046 0.00260800 -0.00260388
v 0.02493838 -0.00155155 0.00337973
v 0.01782583 -0.00458676 0.02289354
v 0.00478878 -0.01541758 0.02114488
v 0.00343262 0.00494436 0.01588859
v 0.00479550 0.01357807 -0.02244266
v 0.00479046 0.00799504 -0.02486706
v 0.00481343 0.00310828 -0.02606894
v 0.00477308 -0.00181201 -0.02611537
v 0.00481343 -0.00781538 -0.02502697
v 0.00471929 -0.01380843 -0.02151288
v 0.00484930 -0.02030692 -0.01665507
v 0.01326421 -0.01361502 -0.02246588
v 0.01607908 -0.00846007 -0.02375674
v 0.01808018 -0.00589492 -0.02191990
v 0.01822875 0.00177892 -0.02229436
v 0.01810155 0.01196892 -0.01928321
v 0.02491372 0.00339194 -0.00155933
v 0.01838174 0.00463749 0.02154852
v 0.01630772 -0.01046313 0.02277168
v 0.00479550 -0.01048182 0.02399226
v 0.00230510 0.01901411 -0.01120791
v 0.00479550 0.01775567 -0.01931674
v 0.00522364 -0.01669665 -0.02035872
v 0.01426619 -0.00740793 -0.02507339
v 0.01812228 0.01843131 -0.01324157
v 0.01713332 0.00903622 -0.02248522
v 0.01838174 0.02059618 -0.00757583
v 0.01837684 0.01766461 0.01300414
v 0.01837390 0.01280702 0.01801380
v 0.01838735 0.00900592 0.02013128
v 0.01719650 -0.00172433 0.02410316
v 0.00479550 -0.00584520 0.02556038
v 0.00476636 -0.00077534 0.02612263
v 0.00345447 0.01276576 0.01367052
v 0.00479774 0.00925606 0.02451325
v 0.01681488 -0.00318907 -0.02451630
v 0.01778324 0.02177339 -0.00860297
v 0.01839968 0.02196937 -0.00000153
v 0.01839968 0.02094689 0.00660624
v 0.01342112 -0.01014207 0.02419343
v 0.00350883 0.02424900 -0.00287211
v 0.00480643 0.01642309 0.02020092
v 0.00479326 0.02400660 -0.01050122
v 0.00479774 0.02139173 -0.01515400
v 0.01262648 0.00765980 -0.02519332
v 0.00544556 -0.01197751 -0.02346401
v 0.01698860 0.01748555 -0.01709610
v 0.01780117 0.02283584 0.00494270
v 0.01684850 0.02090692 0.01310827
v 0.01472614 -0.00455050 0.02545335
v 0.00478429 0.02194359 0.01419667
v 0.00480895 0.02449657 0.00937367
v 0.00479886 0.02582463 0.00337973
v 0.00511268 0.02561317 -0.00585489
v 0.01377648 0.01579895 -0.02085311
v 0.01348192 0.00492341 -0.02572592
v 0.01262648 0.00026132 -0.02633975
v 0.01368422 -0.00335798 -0.02592290
v 0.01684402 0.02090177 -0.01312679
v 0.01627409 0.01810767 0.01732195
v 0.01680143 0.01407319 0.02032987
v 0.01628082 0.00137019 0.02502779
v 0.01323282 -0.00629390 0.02555006
v 0.00559350 0.01885938 0.01835425
v 0.00559350 0.00441829 0.02595241
v 0.00542875 0.01425628 0.02210948
v 0.01408911 0.01978774 -0.01718637
v 0.01387041 0.01092258 -0.02372031
v 0.01623430 0.01374569 -0.02107572
v 0.01582914 0.00545367 -0.02481548
v 0.01625728 0.02501232 -0.00183659
v 0.01603536 0.00929474 0.02347192
v 0.00559350 0.02632491 -0.00052509
v 0.00559350 0.02586847 0.00493754
v 0.01236533 0.00082865 0.02632381
v 0.01297336 0.02448367 -0.00939413
v 0.01268252 0.02169603 -0.01489222
v 0.01503534 0.00033030 -0.02582844
v 0.01577590 0.01800065 -0.01800654
v 0.01630492 0.02452751 0.00503941
v 0.01344409 0.02428640 0.00980567
v 0.01274402 0.00451854 0.02591147
v 0.01338441 0.01146606 0.02359862
v 0.01319247 0.01460442 0.02189284
v 0.01246508 0.02606962 -0.00364844
v 0.01502833 0.02164961 -0.01410429
v 0.01440503 0.00261444 0.02588245
v 0.01417205 0.02240777 0.01353125
v 0.01288762 0.02045564 0.01655401
v 0.01314876 0.02566862 0.00533730
v 0.01576581 0.02386219 -0.00887636
v 0.01348612 0.02622950 -0.00040129
v 0.01437379 0.02542492 -0.00566791
f 1 3 2
f 1 2 4
f 4 5 1
f 1 6 3
f 2 3 7
f 4 9 5
f 5 9 10
f 1 5 11
f 2 8 4
f 5 10 11
f 10 16 11
f 1 11 6
f 6 11 17
f 6 17 18
f 3 6 12
f 7 3 19
f 7 8 2
f 9 4 13
f 9 13 14
f 14 15 9
f 15 10 9
f 10 22 16
f 17 23 18
f 6 18 12
f 19 24 25
f 19 25 7
f 12 20 3
f 8 26 13
f 8 13 4
f 14 27 15
f 15 27 28
f 21 15 28
f 15 21 10
f 10 21 29
f 10 29 22
f 22 30 16
f 11 31 32
f 11 32 17
f 19 3 20
f 19 20 33
f 19 34 24
f 25 26 7
f 7 26 8
f 13 26 14
f 22 29 36
f 22 37 38
f 22 38 30
f 16 31 11
f 18 23 20
f 12 18 20
f 33 39 40
f 33 40 19
f 24 41 42
f 24 42 43
f 24 43 44
f 24 44 45
f 24 45 46
f 24 46 25
f 25 47 26
f 14 26 47
f 14 35 27
f 27 49 28
f 29 21 50
f 29 50 51
f 29 51 52
f 29 52 36
f 22 36 37
f 37 36 53
f 37 54 38
f 30 55 16
f 16 55 31
f 32 39 33
f 32 33 17
f 40 39 56
f 34 19 40
f 25 46 47
f 24 57 58
f 24 58 41
f 46 45 59
f 47 35 14
f 27 60 49
f 27 48 60
f 36 52 61
f 51 62 52
f 36 61 63
f 36 63 53
f 37 53 64
f 37 64 65
f 37 65 66
f 37 66 54
f 30 38 55
f 33 23 17
f 23 33 20
f 40 56 68
f 40 68 69
f 34 40 70
f 34 70 57
f 34 57 24
f 40 69 71
f 40 71 70
f 47 46 59
f 35 48 27
f 49 50 28
f 28 50 21
f 51 50 72
f 53 74 75
f 53 63 74
f 53 75 64
f 54 67 38
f 57 70 77
f 70 71 78
f 57 77 79
f 57 79 80
f 57 80 58
f 43 42 81
f 45 82 59
f 35 47 59
f 35 59 48
f 48 82 60
f 52 83 61
f 63 61 73
f 74 84 75
f 64 85 65
f 31 55 76
f 76 32 31
f 39 32 56
f 77 70 87
f 77 87 88
f 77 88 89
f 70 78 87
f 77 90 79
f 58 91 41
f 81 92 43
f 43 92 93
f 43 93 44
f 44 94 45
f 48 59 82
f 50 49 72
f 63 73 74
f 75 84 64
f 54 98 67
f 67 86 38
f 38 86 55
f 86 76 55
f 76 86 99
f 56 76 68
f 77 89 90
f 69 101 71
f 71 102 78
f 58 103 91
f 58 80 103
f 41 104 42
f 44 93 94
f 45 94 60
f 83 52 105
f 83 95 61
f 95 73 61
f 72 106 51
f 51 106 62
f 74 73 107
f 65 85 96
f 65 96 97
f 97 66 65
f 66 108 54
f 56 32 76
f 76 99 68
f 89 110 109
f 89 109 90
f 88 110 89
f 100 78 102
f 78 100 87
f 69 111 101
f 79 90 112
f 91 104 41
f 42 104 81
f 93 92 114
f 49 60 94
f 49 94 72
f 83 105 115
f 83 115 95
f 52 62 105
f 106 72 114
f 64 84 85
f 54 108 98
f 98 86 67
f 88 87 117
f 101 111 118
f 71 119 102
f 102 120 100
f 79 113 80
f 81 104 92
f 93 114 94
f 60 82 45
f 115 122 95
f 72 94 114
f 84 74 107
f 84 107 116
f 97 108 66
f 98 108 123
f 68 99 69
f 69 99 111
f 88 126 110
f 117 87 124
f 100 125 87
f 111 123 118
f 101 119 71
f 102 119 120
f 90 109 121
f 112 113 79
f 80 113 103
f 62 106 104
f 104 105 62
f 115 105 91
f 115 91 103
f 95 122 127
f 95 127 73
f 84 116 85
f 96 85 124
f 86 98 123
f 87 125 124
f 110 126 128
f 110 128 109
f 88 117 126
f 100 120 125
f 101 118 119
f 90 121 112
f 103 113 122
f 114 92 106
f 92 104 106
f 103 122 115
f 127 107 73
f 124 125 96
f 97 120 108
f 123 111 86
f 111 99 86
f 109 128 121
f 113 112 122
f 105 104 91
f 127 122 112
f 107 126 116
f 107 127 129
f 124 85 117
f 96 120 97
f 108 120 119
f 112 121 129
f 125 120 96
f 119 118 108
f 123 108 118
f 121 128 129
f 129 127 112
f 128 126 107
f 116 117 85
f 129 128 107
f 117 116 126

