# https://github.com/mikedh/trimesh
v -0.01036631 0.00226925 0.00977241
v -0.01022040 0.00285508 0.00957713
v -0.01029100 0.00193665 0.00977241
v -0.01021099 0.00170987 0.01206746
v -0.01020628 0.00316122 0.01359750
v -0.00986503 0.00165696 0.01387088
v -0.00984150 0.00401162 0.00957254
v -0.00962734 0.00461823 0.01359750
v -0.00384259 -0.00003249 -0.00821356
v -0.00374139 -0.00109833 -0.00809410
v -0.00338602 -0.00185045 -0.00813316
v 0.00698440 -0.02664992 -0.00176145
v 0.00727505 -0.02753245 -0.00017743
v 0.00737624 -0.02777056 0.00079895
v -0.00979178 0.00301665 0.01445556
v -0.00371550 0.00131302 -0.00803207
v 0.00769631 -0.02779701 -0.00044392
v 0.00755216 -0.02759481 0.00177417
v -0.00968382 0.00166641 0.01419711
v 0.00696910 -0.02666693 0.00274021
v -0.00868949 0.00532879 0.01455664
v -0.00907192 0.00552343 0.00957713
v -0.00313891 0.00054389 -0.00864662
v -0.00337014 -0.00153014 -0.00843296
v 0.00298120 -0.01379948 -0.00783106
v 0.00430030 -0.01747130 -0.00652042
v 0.00736330 -0.02638535 -0.00224734
v 0.00809522 -0.02785182 0.00077827
v 0.00735036 -0.02664803 0.00308941
v -0.00926138 0.00170421 0.01455090
v -0.00851122 0.00630391 0.01394784
v -0.00299064 0.00250736 -0.00811478
v -0.00829058 0.00665730 0.00961159
v 0.00277763 -0.01248231 -0.00841573
v 0.00791989 -0.02725843 -0.00139962
v 0.00574061 -0.02023793 -0.00564857
v 0.00789165 -0.02722347 0.00244328
v 0.00317536 -0.01628075 0.00918428
v -0.00897543 0.00351272 0.01476972
v -0.00219754 0.00323303 -0.00804816
v -0.00716799 0.00782517 0.00957024
v 0.00259877 -0.01073994 -0.00865466
v 0.00344248 -0.01334971 -0.00830431
v 0.00468097 -0.01688453 -0.00711198
v 0.00706324 -0.02339196 -0.00401745
v 0.01159596 -0.02662158 0.00079206
v 0.01162420 -0.02625118 0.00195222
v 0.00323773 -0.01546059 0.00966328
v 0.00374725 -0.01614374 0.00934797
v -0.00868831 0.00188751 0.01473469
v -0.00172803 0.00314043 -0.00851796
v -0.00624574 0.00862219 0.00978447
v -0.00007827 0.00302894 -0.00865925
v 0.01159125 -0.02585433 -0.00151678
v 0.01198427 -0.02625496 -0.00040257
v 0.00769984 -0.02598661 0.00342597
v 0.01107820 -0.02542724 0.00304806
v -0.00199043 0.00150578 0.01481050
v -0.00701429 0.00652478 0.01475378
v -0.00711269 0.00795746 0.01359750
v -0.00683204 0.00777368 0.01436395
v 0.00489102 -0.00998025 -0.00865695
v 0.00585828 -0.01166026 -0.00841458
v 0.00661373 -0.01446846 -0.00766105
v 0.01119823 -0.02508330 -0.00227721
v 0.00831174 -0.01933462 -0.00572209
v 0.01198192 -0.02587323 0.00194303
v 0.01163832 -0.02553685 0.00275170
v 0.00087605 0.00131302 0.01473813
v -0.00084431 0.00073853 0.01469334
v -0.00066898 0.00376595 -0.00823080
v -0.00498871 0.00941258 0.00977241
v -0.00484280 0.00951841 0.01359750
v 0.00958259 -0.02231857 -0.00410016
v 0.01199604 -0.02546315 -0.00118137
v 0.01213842 -0.02604331 0.00077827
v 0.01228434 -0.01227065 0.00964375
v 0.01269030 -0.01320042 0.00918658
v -0.00330836 0.01010046 0.00960240
v 0.00128526 0.00326043 -0.00853835
v 0.00317301 0.00063837 -0.00863570
v 0.00857179 -0.01890753 -0.00576803
v 0.01164303 -0.02451259 -0.00198774
v 0.01350930 -0.01435696 0.00489283
v 0.01363639 -0.01494657 0.00594502
v 0.01350930 -0.01435696 0.00731194
v 0.01322100 -0.01392231 0.00836068
v 0.00756923 0.00494894 0.01473009
v 0.00718797 0.00571241 0.01481050
v -0.00230226 0.00915392 0.01478336
v -0.00161388 0.01048975 0.00960470
v -0.00486869 0.00934833 0.01417643
v -0.00524053 0.00877006 0.01455320
v 0.00049597 0.00379807 -0.00821356
v 0.00355191 0.00129413 -0.00839965
v 0.00749862 -0.01532452 -0.00701894
v 0.01320571 -0.01380137 0.00408646
v 0.01279150 -0.01265239 0.00926929
v 0.00818347 0.00533068 0.01458076
v -0.00027595 0.01065038 0.00977241
v 0.00162209 0.01048597 0.00959321
v 0.00625836 -0.01160167 -0.00805735
v 0.01275855 -0.01240672 0.00381767
v 0.00891539 0.00553855 0.00957483
v 0.00890127 0.00585981 0.01015377
v 0.00894599 0.00565194 0.01206746
v -0.00136560 0.01057290 0.01370662
v -0.00310567 0.01019873 0.01365206
v 0.00209278 0.00327083 -0.00812397
v 0.00318713 0.01011558 0.00957483
v 0.00284823 0.00251870 -0.00832039
v 0.00859532 0.00620375 0.01371581
v 0.00853884 0.00593540 0.01418792
v 0.00164033 0.00953731 0.01476742
v -0.00036774 0.01015148 0.01458479
v -0.00300476 0.00974518 0.01456928
v 0.00111257 0.01055778 0.01387318
v 0.00853884 0.00629824 0.00957024
v 0.00699852 0.00743399 0.01455549
v 0.00284470 0.01027810 0.01358831
v 0.00334245 0.01016471 0.01015377
v 0.00506517 0.00933321 0.00962538
v 0.00645017 0.00840911 0.00956220
v 0.00754569 0.00750675 0.00977241
v 0.00316830 0.00972628 0.01455320
v 0.00435208 0.00974329 0.01370892
v 0.00629602 0.00863022 0.01359750
v 0.00742272 0.00767021 0.01359750
v 0.00549350 0.00859620 0.01456468
f 1 3 4
f 2 1 5
f 1 6 5
f 1 4 6
f 2 5 7
f 3 1 10
f 3 10 11
f 3 11 12
f 3 12 13
f 3 13 14
f 3 14 4
f 4 14 6
f 6 15 5
f 5 15 8
f 5 8 7
f 2 7 16
f 2 16 9
f 2 9 1
f 9 10 1
f 12 17 13
f 6 14 20
f 6 20 19
f 14 18 20
f 15 21 8
f 16 7 22
f 9 23 24
f 9 24 10
f 10 24 11
f 11 24 25
f 11 25 26
f 11 26 12
f 12 26 27
f 13 17 14
f 20 18 29
f 15 6 30
f 6 19 30
f 8 21 31
f 7 8 22
f 16 22 32
f 16 32 9
f 22 33 32
f 9 32 23
f 25 34 26
f 12 27 35
f 12 35 17
f 27 26 36
f 17 28 14
f 28 18 14
f 19 20 38
f 19 38 30
f 20 29 38
f 15 30 39
f 15 39 21
f 32 33 41
f 32 41 40
f 22 31 33
f 31 22 8
f 23 53 81
f 23 81 62
f 23 62 42
f 23 42 24
f 24 34 25
f 34 44 26
f 26 44 36
f 27 36 45
f 28 46 47
f 37 29 18
f 37 18 47
f 30 38 48
f 29 49 38
f 30 50 39
f 32 40 51
f 41 52 40
f 23 32 51
f 23 51 53
f 24 42 34
f 34 42 43
f 34 43 44
f 35 27 54
f 35 54 17
f 17 54 55
f 17 55 46
f 17 46 28
f 28 47 18
f 48 50 30
f 38 49 48
f 29 56 49
f 37 57 29
f 39 59 21
f 33 31 60
f 33 60 41
f 21 61 31
f 31 61 60
f 43 64 44
f 27 65 54
f 36 44 66
f 36 66 45
f 46 55 47
f 47 67 68
f 37 47 57
f 48 69 70
f 48 70 50
f 29 57 56
f 58 89 90
f 58 90 59
f 58 59 50
f 50 59 39
f 51 40 71
f 40 52 72
f 41 60 52
f 21 59 61
f 51 71 53
f 53 71 80
f 43 42 63
f 64 43 63
f 27 45 65
f 66 74 45
f 54 65 75
f 54 75 55
f 55 75 76
f 55 76 47
f 47 76 67
f 47 68 57
f 49 77 48
f 48 77 69
f 49 56 78
f 50 70 58
f 40 72 79
f 72 52 73
f 52 60 73
f 62 81 63
f 62 63 42
f 44 64 66
f 45 74 65
f 66 82 74
f 65 74 82
f 75 65 83
f 75 84 85
f 75 85 76
f 76 85 86
f 76 86 67
f 67 86 87
f 67 87 68
f 68 87 78
f 68 78 57
f 77 49 78
f 77 88 69
f 70 69 58
f 69 89 58
f 56 57 78
f 40 79 71
f 71 79 91
f 72 73 79
f 73 60 92
f 61 93 92
f 60 61 92
f 71 94 80
f 53 80 81
f 81 80 95
f 63 96 64
f 64 82 66
f 82 64 96
f 65 82 83
f 83 97 75
f 75 97 84
f 85 84 86
f 87 98 78
f 77 78 98
f 77 99 88
f 71 91 100
f 71 100 94
f 61 59 93
f 94 100 101
f 81 95 63
f 63 95 102
f 83 82 96
f 83 96 97
f 97 96 102
f 97 102 95
f 97 95 103
f 97 103 84
f 84 104 105
f 84 105 106
f 84 106 86
f 77 98 99
f 88 99 89
f 88 89 69
f 59 90 93
f 91 107 100
f 91 79 108
f 91 108 107
f 92 108 73
f 73 108 79
f 94 101 110
f 94 110 109
f 80 111 95
f 63 102 96
f 103 104 84
f 106 105 112
f 86 106 87
f 87 106 112
f 87 112 113
f 87 113 98
f 98 113 99
f 99 113 89
f 92 116 108
f 93 116 92
f 101 100 117
f 94 109 80
f 80 109 111
f 95 111 118
f 95 118 104
f 95 104 103
f 89 113 119
f 90 116 93
f 90 89 114
f 114 115 90
f 116 107 108
f 101 117 120
f 101 120 121
f 101 121 110
f 110 122 109
f 111 109 123
f 111 123 124
f 111 124 118
f 104 118 105
f 105 118 112
f 90 115 116
f 114 125 115
f 100 107 117
f 121 126 122
f 121 122 110
f 109 122 123
f 124 123 127
f 124 127 128
f 124 112 118
f 112 124 128
f 112 128 113
f 119 129 89
f 89 129 114
f 115 125 117
f 115 117 107
f 107 116 115
f 121 120 126
f 122 126 127
f 113 128 119
f 129 125 114
f 127 123 122
f 117 125 129
f 117 129 120
f 120 129 126
f 127 119 128
f 126 129 127
f 127 129 119

