# https://github.com/mikedh/trimesh
v 0.01175442 0.00381469 0.00048060
v 0.01174040 -0.00384723 0.00029351
v 0.01155353 0.00374539 0.00239473
v 0.01153018 -0.00397490 0.00228679
v 0.01045102 0.00512420 -0.00393413
v 0.00979816 -0.00544992 -0.00478011
v 0.01017102 0.00628861 0.00020536
v 0.00971991 0.00372168 0.01109467
v 0.00976823 -0.00015545 0.01151113
v 0.00907522 -0.00605042 0.01044973
v 0.01042416 -0.00583430 -0.00256689
v 0.00861740 0.00691703 0.00997929
v 0.00917216 0.00584188 0.01056576
v 0.00972108 -0.00362108 0.01111985
v 0.00918500 0.00530476 -0.00581228
v 0.00894889 0.00688588 -0.00243028
v 0.00897478 0.00363048 0.01323907
v 0.00809198 -0.00557634 0.01414306
v 0.01088666 -0.00554813 0.00098803
v 0.00821826 -0.00673025 -0.00482103
v 0.00931494 -0.00685393 -0.00107935
v 0.00890821 -0.00552425 -0.00574212
v 0.00807432 0.00673374 -0.00480844
v 0.00813184 -0.00394184 0.01510732
v 0.00777066 -0.00792669 0.00878026
v -0.00042459 -0.00341681 -0.00575471
v -0.00087074 -0.00913635 -0.00390175
v -0.00047744 0.00390588 -0.00565577
v 0.00640595 0.00781299 0.01351386
v 0.00718554 0.00839251 0.00831702
v 0.00648245 0.00596077 0.01712264
v 0.00647311 0.00405817 0.01825916
v 0.00656428 -0.00558033 0.01726971
v 0.00630668 -0.00741966 0.01499826
v 0.00190467 -0.00925376 -0.00317540
v -0.00086840 0.00910381 -0.00390175
v 0.00643340 -0.00403509 0.01834461
v -0.00228128 -0.00385703 -0.00522018
v -0.00221909 0.00382028 -0.00524616
v 0.00591134 0.00893875 0.00658459
v 0.00358252 -0.00927906 -0.00107283
v -0.00164857 -0.00920839 0.00814072
v 0.00258629 0.00919682 -0.00298786
v 0.00369552 0.00923034 -0.00070628
v 0.00498577 0.00729548 0.01775994
v 0.00506285 0.00089787 0.02058672
v 0.00524289 -0.00865381 0.01211489
v 0.00532622 -0.00913635 0.00594595
v -0.00256071 -0.00880623 -0.00304543
v 0.00157685 -0.00930830 0.00907125
v -0.00342496 0.00355206 -0.00463394
v -0.00272071 0.00875546 -0.00284754
v -0.00251282 0.00910290 0.00795003
v 0.00402866 0.00905114 0.01132854
v 0.00350427 -0.00549233 0.02199297
v -0.00653045 -0.00550783 -0.00063297
v -0.00391052 -0.00387162 -0.00412032
v 0.00096464 -0.00913566 0.01303713
v -0.00670563 0.00510049 -0.00062398
v 0.00113457 0.00928528 0.00931636
v 0.00240410 0.00654132 0.02235277
v 0.00323361 -0.00704304 0.02071928
v -0.00489303 -0.00769187 -0.00064557
v -0.00934278 -0.00575359 0.01962820
v -0.00448076 -0.00862066 0.01721754
v -0.00553830 0.00702509 -0.00049895
v -0.00500807 0.00821070 0.00597181
v 0.00294367 0.00561846 0.02253267
v 0.00275681 0.00307969 0.02343217
v 0.00309638 -0.00384723 0.02293632
v 0.00294404 -0.00808297 0.01843175
v -0.00585656 -0.00828234 0.01298361
v -0.01158255 -0.00241894 0.02551540
v -0.00706302 -0.00364479 -0.00060239
v -0.01153259 0.00290944 0.02633889
v -0.01053172 0.00488984 0.02463839
v -0.00794946 0.00688170 0.01534479
v -0.00424017 0.00880379 0.01333801
v 0.00277783 0.00837245 0.01762142
v -0.00706885 0.00349370 -0.00062038
v 0.00028382 -0.00667753 0.02405113
v -0.00659687 -0.00797411 0.02010650
v -0.00815852 -0.00714016 0.01907500
v -0.01067304 -0.00453561 0.02752083
v -0.01187891 -0.00009401 0.02606544
v -0.00720842 0.00057876 -0.00059789
v -0.00811881 0.00725079 0.02163137
v -0.00533450 0.00824934 0.02008064
v 0.00040521 0.00900897 0.01469985
v -0.00062343 -0.00254821 0.02675536
v 0.00131560 -0.00877340 0.01689103
v -0.01106662 0.00360677 0.02871761
v -0.00085438 0.00691703 0.02455834
v 0.00042682 -0.00479471 0.02546683
v -0.01201264 0.00089109 0.02837940
v -0.00019451 0.00791558 0.02174291
v -0.00098767 0.00583470 0.02584237
v -0.00011159 0.00162062 0.02640051
v -0.00864758 -0.00654810 0.02578840
v -0.01137846 -0.00162272 0.02976013
v -0.00177937 0.00845817 0.01962190
v -0.00277794 -0.00616202 0.02657096
v -0.00062051 -0.00800329 0.02168130
v -0.00478442 -0.00798140 0.02235907
v -0.01032149 -0.00364661 0.02964230
v -0.00963710 0.00582820 0.02659660
v -0.00122885 0.00381241 0.02700632
v -0.00289510 0.00761790 0.02355782
v -0.00532983 -0.00471720 0.02890830
v -0.01130225 0.00055482 0.03015816
v -0.00960440 0.00420636 0.02950557
v -0.00365774 0.00405983 0.02845158
v -0.00495230 0.00494068 0.02855705
v -0.00267224 -0.00735862 0.02442679
v -0.00894438 -0.00548714 0.02813479
v -0.00677600 0.00726932 0.02473385
v -0.00408951 -0.00201063 0.02919974
v -0.00537188 0.00016155 0.02998050
v -0.00624299 -0.00658617 0.02674659
v -0.00958921 0.00244465 0.03045049
v -0.00637103 0.00649231 0.02684081
v -0.00704199 -0.00548868 0.02856650
v -0.01039157 -0.00153803 0.03054719
v -0.00716229 0.00481552 0.02920514
v -0.00748872 -0.00245998 0.03035290
v -0.00815020 -0.00365202 0.03001693
v -0.00981404 0.00028330 0.03085122
v -0.00680009 0.00268785 0.03016159
v -0.00800297 0.00074900 0.03076206
v -0.00614487 -0.00201377 0.01792226
v -0.00614487 -0.00196653 0.01789539
v -0.00684072 -0.00201377 0.01707364
v -0.00614487 -0.00201377 0.01601603
v -0.00614487 -0.00188178 0.01757165
v -0.00681178 -0.00201377 0.01601603
v -0.00614487 -0.00194252 0.01601603
v -0.00614487 -0.00189892 0.01703912
v -0.00614487 -0.00192792 0.01634406
f 1 4 2
f 2 5 1
f 1 3 4
f 2 6 5
f 5 7 1
f 3 8 9
f 3 9 4
f 2 11 6
f 1 12 13
f 1 13 3
f 3 13 8
f 4 9 14
f 4 14 10
f 5 6 15
f 8 17 9
f 10 19 4
f 2 4 19
f 2 19 11
f 6 11 20
f 5 16 7
f 1 7 12
f 8 13 17
f 10 14 18
f 15 6 22
f 15 23 5
f 5 23 16
f 14 24 18
f 10 25 19
f 11 21 20
f 20 22 6
f 22 26 15
f 15 26 28
f 12 7 30
f 9 24 14
f 18 34 10
f 20 35 27
f 20 27 22
f 22 27 26
f 15 28 36
f 15 36 23
f 12 30 29
f 12 29 13
f 13 31 17
f 17 32 9
f 32 37 24
f 32 24 9
f 24 37 33
f 18 24 33
f 10 34 25
f 19 21 11
f 26 38 39
f 26 39 28
f 7 16 40
f 7 40 30
f 18 33 34
f 25 21 19
f 20 41 35
f 23 36 43
f 40 16 44
f 29 45 31
f 29 31 13
f 31 32 17
f 32 46 37
f 25 34 47
f 27 38 26
f 27 35 49
f 35 42 49
f 35 50 42
f 39 38 51
f 36 28 39
f 36 53 43
f 23 43 44
f 16 23 44
f 37 55 33
f 25 47 48
f 25 48 21
f 41 20 21
f 41 50 35
f 49 56 57
f 49 57 38
f 49 38 27
f 42 50 58
f 36 39 52
f 52 39 51
f 52 51 59
f 43 53 44
f 40 54 30
f 45 61 31
f 34 33 55
f 34 55 62
f 48 41 21
f 41 48 50
f 49 63 56
f 42 65 49
f 38 57 51
f 52 59 66
f 36 52 53
f 53 60 44
f 31 68 69
f 31 69 32
f 37 70 55
f 49 72 63
f 63 64 56
f 56 64 73
f 56 73 74
f 58 65 42
f 59 75 76
f 59 76 77
f 59 77 66
f 52 66 67
f 53 52 78
f 53 78 60
f 40 44 54
f 30 54 29
f 29 79 45
f 31 61 68
f 32 69 46
f 46 69 70
f 46 70 37
f 34 62 71
f 34 71 47
f 50 48 58
f 56 74 57
f 51 80 59
f 59 80 75
f 52 67 78
f 44 60 54
f 55 81 62
f 49 65 72
f 63 72 83
f 64 84 73
f 74 73 85
f 57 74 86
f 57 86 51
f 51 86 80
f 80 85 75
f 66 77 67
f 69 90 70
f 72 82 83
f 63 83 64
f 64 83 84
f 65 82 72
f 75 92 76
f 67 77 87
f 78 88 89
f 78 89 60
f 29 54 79
f 45 93 61
f 70 94 55
f 55 94 81
f 48 47 58
f 74 85 86
f 58 91 65
f 86 85 80
f 87 78 67
f 78 87 88
f 79 96 45
f 45 96 93
f 61 93 97
f 61 97 68
f 69 98 90
f 81 71 62
f 83 82 99
f 85 95 75
f 89 88 101
f 68 98 69
f 70 90 94
f 81 103 71
f 81 94 102
f 73 84 100
f 85 73 100
f 76 87 77
f 60 89 54
f 103 91 71
f 47 71 91
f 58 47 91
f 85 100 95
f 91 104 65
f 104 82 65
f 95 92 75
f 76 92 106
f 79 54 89
f 79 89 96
f 68 97 107
f 68 107 98
f 96 108 93
f 94 109 102
f 83 99 84
f 91 103 104
f 92 95 110
f 76 106 87
f 96 101 108
f 97 113 112
f 97 112 107
f 81 114 103
f 102 114 81
f 99 115 84
f 84 105 100
f 106 92 111
f 89 101 96
f 94 90 117
f 95 100 110
f 110 111 92
f 88 87 116
f 88 116 108
f 107 112 118
f 107 118 98
f 97 93 113
f 94 117 109
f 102 109 119
f 115 105 84
f 82 104 99
f 103 114 104
f 110 120 111
f 88 108 101
f 102 119 114
f 100 105 123
f 100 123 110
f 106 111 124
f 87 106 116
f 121 93 108
f 90 98 117
f 117 125 109
f 122 119 109
f 109 126 122
f 110 123 127
f 110 127 120
f 98 118 117
f 108 116 121
f 113 124 128
f 109 125 126
f 114 119 104
f 99 119 115
f 115 122 126
f 115 126 105
f 119 99 104
f 124 121 106
f 106 121 116
f 121 124 113
f 121 113 93
f 112 113 128
f 122 115 119
f 124 120 128
f 112 128 118
f 117 118 125
f 105 126 123
f 111 120 124
f 128 120 129
f 126 125 123
f 118 129 125
f 125 127 123
f 127 129 120
f 128 129 118
f 125 129 127
f 130 131 132
f 130 132 135
f 130 135 133
f 130 133 136
f 130 136 138
f 130 138 137
f 130 137 134
f 130 134 131
f 131 134 132
f 132 134 135
f 133 135 136
f 134 137 135
f 135 137 138
f 135 138 136

