# https://github.com/mikedh/trimesh
v 0.00894439 0.00117765 0.01391638
v 0.00855036 0.00148480 0.00805706
v 0.00893866 0.00110948 0.01521786
v 0.00874508 -0.00394259 0.01393019
v 0.00846216 -0.00341251 0.00769583
v 0.00832500 -0.00023475 0.02521856
v 0.00718617 0.00540565 0.00336959
v 0.00870156 0.00432156 0.01393232
v 0.00832128 0.00418761 0.00732876
v 0.00842093 -0.00369334 0.02165197
v 0.00782531 0.00563912 0.00591731
v 0.00827202 0.00567356 0.01358384
v 0.00802232 0.00425745 0.02570197
v 0.00832357 -0.00494631 0.01844554
v 0.00830181 -0.00553476 0.01358596
v 0.00705738 -0.00601569 0.00322842
v 0.00803950 -0.00390719 0.02574871
v 0.00764204 -0.00606102 0.00576645
v 0.00760768 0.00564103 0.02578271
v 0.00760081 -0.00685136 0.01324598
v 0.00690554 0.00705045 0.00427054
v 0.00741181 0.00715474 0.01316524
v 0.00660143 -0.00734700 0.00372710
v 0.00739463 -0.00600265 0.02578909
v 0.00589413 0.00736907 0.00079425
v 0.00685371 0.00692127 0.02581990
v 0.00715066 0.00519036 0.02660291
v 0.00739177 -0.00485493 0.02641061
v 0.00629503 -0.00609929 0.00129147
v 0.00588039 0.00648304 0.00039478
v 0.00657222 -0.00796703 0.01243429
v 0.00460668 -0.00857940 -0.00178959
v 0.00582197 0.00797235 0.00218764
v 0.00584831 0.00861104 0.01221330
v 0.00641616 0.00792152 0.01878446
v 0.00075577 0.00908563 0.03051267
v 0.00077754 -0.00890472 0.03052117
v 0.00601440 -0.00777374 0.02612854
v 0.00571287 -0.00838588 0.02034411
v 0.00459064 0.00778146 -0.00131999
v 0.00410498 -0.00792110 -0.00296677
v 0.00502060 0.00786758 0.02776681
v 0.00550841 -0.00775915 0.02731740
v 0.00504194 -0.00900901 0.01163533
v 0.00528935 0.00845603 0.02633518
v 0.00506714 0.00832949 0.02732324
v -0.00012849 0.00906458 0.03092065
v -0.00012620 -0.00900232 0.03092490
v 0.00480827 0.00854023 0.00147421
v 0.00419318 0.00939181 0.01114024
v 0.00458033 0.00909196 0.02013561
v 0.00169158 -0.00951709 0.02909113
v 0.00378885 -0.00944054 0.01092988
v 0.00292520 -0.00858897 -0.00394421
v 0.00368347 0.00669546 -0.00340449
v 0.00249452 0.00823405 -0.00395695
v -0.00957134 0.00737672 0.03350874
v -0.00956905 -0.00732212 0.03350874
v 0.00338165 -0.00925061 0.02791396
v 0.00136514 -0.00973525 0.01221755
v 0.00233474 0.00959562 0.02791396
v 0.00104098 0.00971953 0.02839152
v -0.00164274 0.00931335 0.03070391
v -0.00982562 0.00757000 0.03330475
v -0.01066865 0.00583623 0.03371698
v -0.00962861 -0.00773356 0.03314751
v -0.01061511 -0.00574311 0.03369094
v 0.00287137 0.00712508 -0.00411844
v -0.00881307 0.00823787 0.03270129
v -0.00164045 -0.00931042 0.03070391
v 0.00007998 -0.00972185 0.02639468
v -0.00895052 -0.00914201 -0.00153460
v 0.00124601 -0.00857748 -0.00478140
v 0.00177520 0.00861869 -0.00329825
v 0.00136285 0.00979942 0.01221330
v 0.00174656 -0.00743598 -0.00474528
v -0.00992871 0.00368718 -0.00956236
v -0.01047851 0.00693850 0.03352574
v -0.00659325 0.00906266 0.03049142
v -0.00887263 -0.00821006 0.03257379
v -0.00669633 -0.00902337 0.03039580
v -0.00563568 0.00864740 -0.00736949
v -0.01024027 -0.00319052 -0.00968985
v 0.00007539 0.00978603 0.02640317
v -0.01350930 0.00655002 0.00103649
v -0.01132383 0.00563912 0.03350874
v -0.01182095 0.00825510 0.00103649
v -0.00895052 0.00913921 -0.00153460
v -0.01082787 0.00874499 0.00103649
v -0.01186447 -0.00822154 0.00104074
v -0.01111079 -0.00600935 0.03351299
v -0.01174993 0.00436079 0.03350449
v -0.01182095 -0.00385935 0.03339824
v -0.00550739 -0.00919751 0.02984121
v -0.01049455 -0.00857940 -0.00394846
v -0.01049169 -0.00750775 -0.00694877
v -0.01013260 -0.00592802 -0.00879528
v -0.01028379 -0.00468796 -0.00949649
v -0.01047279 0.00520472 -0.00928188
v -0.01322351 -0.00692312 0.00104074
v -0.01067095 -0.00880712 0.00104074
v -0.01395601 -0.00568403 0.00104074
v -0.01087483 -0.00640835 -0.00820032
v -0.00792995 0.00864357 -0.00715063
v -0.01087941 -0.00319052 -0.00949436
v -0.01105695 0.00368814 -0.00923301
v -0.01405910 0.00540565 0.00103649
v -0.01306487 -0.00704201 -0.00135771
v -0.01181035 -0.00807921 -0.00234152
v -0.01186447 0.00368144 0.03328350
v -0.01202025 -0.00018033 0.03328350
v -0.01434603 -0.00385504 0.00133344
v -0.01085879 0.00624097 -0.00839581
v -0.01434431 0.00380200 0.00136797
v -0.01371719 0.00597832 -0.00172372
v -0.01393139 -0.00563044 -0.00131893
v -0.01195754 -0.00493004 -0.00766645
v -0.01051288 0.00865505 -0.00358298
v -0.01216801 -0.00297523 -0.00776472
v -0.01438239 0.00383406 -0.00060391
v -0.01430651 -0.00350424 -0.00149981
v -0.01210816 -0.00671429 -0.00572963
v -0.01206550 0.00604960 -0.00669379
v -0.01091034 0.00800249 -0.00545924
v -0.01303509 0.00433400 -0.00605208
v -0.01297310 0.00609122 -0.00458114
v -0.01406597 0.00325852 -0.00315375
v -0.01389645 -0.00342973 -0.00391021
v -0.01304197 -0.00428705 -0.00606483
f 1 4 5
f 1 5 2
f 1 3 4
f 1 8 3
f 2 9 1
f 2 7 9
f 3 6 10
f 5 7 2
f 1 9 8
f 3 10 4
f 9 7 11
f 9 11 12
f 9 12 8
f 3 8 13
f 6 3 13
f 5 4 15
f 5 16 7
f 4 10 14
f 15 18 5
f 15 4 14
f 12 19 8
f 8 19 13
f 6 17 10
f 14 10 17
f 5 18 16
f 11 21 22
f 11 22 12
f 6 13 17
f 15 20 18
f 18 20 23
f 14 24 15
f 12 22 26
f 12 26 19
f 13 27 17
f 15 24 20
f 16 29 7
f 11 25 21
f 7 30 11
f 11 30 25
f 13 19 27
f 17 27 28
f 17 28 24
f 17 24 14
f 20 31 23
f 23 32 18
f 18 32 16
f 25 33 21
f 21 33 22
f 22 33 34
f 22 34 35
f 29 30 7
f 27 36 37
f 27 37 28
f 20 38 31
f 25 30 40
f 22 35 26
f 30 29 41
f 31 39 44
f 31 44 32
f 31 32 23
f 20 24 38
f 31 38 39
f 16 32 29
f 25 40 33
f 35 34 45
f 26 46 19
f 19 46 42
f 19 42 27
f 42 36 27
f 36 47 37
f 37 47 48
f 28 37 43
f 43 24 28
f 32 41 29
f 33 49 50
f 40 49 33
f 33 50 34
f 34 50 51
f 34 51 45
f 35 45 26
f 26 45 46
f 24 43 38
f 32 44 53
f 32 54 41
f 32 53 54
f 41 55 30
f 30 55 40
f 37 48 52
f 37 52 43
f 53 60 54
f 55 56 40
f 51 50 61
f 46 36 42
f 36 46 61
f 36 61 62
f 36 63 47
f 47 57 48
f 48 57 58
f 48 58 66
f 58 57 65
f 58 65 67
f 59 43 52
f 43 59 38
f 39 38 44
f 55 68 56
f 40 56 49
f 45 51 46
f 55 54 68
f 62 63 36
f 47 69 57
f 64 65 57
f 58 67 66
f 48 70 52
f 60 52 71
f 60 72 54
f 54 55 41
f 38 59 44
f 49 56 74
f 50 49 74
f 50 74 75
f 50 75 61
f 68 54 76
f 68 76 77
f 46 51 61
f 61 75 62
f 63 69 47
f 65 64 78
f 57 69 64
f 69 63 79
f 66 80 48
f 48 80 70
f 70 80 81
f 52 60 53
f 52 53 59
f 60 71 72
f 72 73 54
f 73 76 54
f 44 59 53
f 68 77 82
f 68 82 56
f 74 56 82
f 74 82 75
f 76 83 77
f 75 84 62
f 63 62 79
f 62 84 79
f 78 64 85
f 64 69 87
f 64 87 85
f 78 86 65
f 79 88 89
f 69 79 89
f 69 89 87
f 67 91 66
f 65 92 67
f 67 92 93
f 70 94 71
f 70 71 52
f 70 81 94
f 72 95 73
f 73 97 98
f 73 98 76
f 76 98 83
f 75 82 88
f 83 99 77
f 84 75 88
f 84 88 79
f 85 86 78
f 65 86 92
f 66 90 80
f 90 66 100
f 80 90 101
f 80 101 81
f 67 93 91
f 91 102 100
f 91 100 66
f 94 72 71
f 81 101 72
f 94 81 72
f 95 72 101
f 73 96 97
f 97 96 103
f 82 77 99
f 82 104 88
f 83 105 106
f 83 106 99
f 85 107 86
f 86 107 92
f 100 108 90
f 90 109 101
f 91 93 102
f 92 110 111
f 92 111 93
f 93 112 102
f 73 95 96
f 103 105 98
f 103 98 97
f 99 113 104
f 99 104 82
f 92 107 114
f 92 114 110
f 110 114 111
f 111 114 112
f 111 112 93
f 102 112 116
f 102 116 100
f 100 116 108
f 98 105 83
f 88 118 89
f 88 104 118
f 105 119 106
f 106 113 99
f 85 87 115
f 85 115 107
f 107 115 120
f 107 120 114
f 87 89 118
f 112 121 116
f 101 109 95
f 103 96 122
f 103 122 117
f 103 117 105
f 104 113 124
f 104 124 118
f 114 120 112
f 112 120 121
f 95 109 96
f 105 117 119
f 125 113 106
f 120 115 127
f 108 109 90
f 121 128 116
f 109 122 96
f 113 123 126
f 124 113 126
f 119 125 106
f 87 124 115
f 115 126 127
f 108 122 109
f 121 120 127
f 116 122 108
f 125 123 113
f 118 124 87
f 115 124 126
f 116 128 129
f 129 122 116
f 122 129 117
f 117 129 119
f 119 129 125
f 125 126 123
f 127 126 125
f 127 128 121
f 125 129 128
f 125 128 127

