# https://github.com/mikedh/trimesh
v 0.41796201 -0.05137500 0.08300000
v 0.41796201 0.05137500 0.08300000
v 0.37742299 -0.05137500 0.08300000
v 0.37742299 0.05137500 0.08300000
v 0.33688501 -0.05137500 0.08300000
v 0.33688501 -0.03425000 0.08300000
v 0.33688501 0.03425000 0.08300000
v 0.33688501 0.05137500 0.08300000
v 0.29634601 -0.05137500 0.08300000
v 0.29634601 -0.03425000 0.08300000
v 0.29634601 -0.01712500 0.08300000
v 0.29634601 0.00000000 0.08300000
v 0.29634601 0.01712500 0.08300000
v 0.29634601 0.03425000 0.08300000
v 0.29634601 0.05137500 0.08300000
v 0.25580800 -0.05137500 0.08300000
v 0.25580800 -0.03425000 0.08300000
v 0.25580800 -0.01712500 0.08300000
v 0.25580800 0.00000000 0.08300000
v 0.25580800 0.01712500 0.08300000
v 0.25580800 0.03425000 0.08300000
v 0.25580800 0.05137500 0.08300000
v 0.21526900 -0.05137500 0.08300000
v 0.21526900 -0.03425000 0.08300000
v 0.21526900 -0.01712500 0.08300000
v 0.21526900 0.00000000 0.08300000
v 0.21526900 0.01712500 0.08300000
v 0.21526900 0.03425000 0.08300000
v 0.21526900 0.05137500 0.08300000
v 0.17473100 -0.05137500 0.08300000
v 0.17473100 -0.03425000 0.08300000
v 0.17473100 -0.01712500 0.08300000
v 0.17473100 0.00000000 0.08300000
v 0.17473100 0.01712500 0.08300000
v 0.17473100 0.03425000 0.08300000
v 0.17473100 0.05137500 0.08300000
v 0.13419200 -0.05137500 0.08300000
v 0.13419200 -0.03425000 0.08300000
v 0.13419200 -0.01712500 0.08300000
v 0.13419200 0.00000000 0.08300000
v 0.13419200 0.01712500 0.08300000
v 0.13419200 0.03425000 0.08300000
v 0.13419200 0.05137500 0.08300000
v 0.09365400 -0.05137500 0.08300000
v 0.09365400 -0.03425000 0.08300000
v 0.09365400 -0.01712500 0.08300000
v 0.09365400 0.00000000 0.08300000
v 0.09365400 0.01712500 0.08300000
v 0.09365400 0.03425000 0.08300000
v 0.09365400 0.05137500 0.08300000
v 0.05311500 -0.05137500 0.08300000
v 0.05311500 0.05137500 0.08300000
v -0.05800000 0.00000000 0.08300000
v -0.05584900 -0.01564800 0.08300000
v -0.04955600 -0.03013600 0.08300000
v -0.03958800 -0.04238800 0.08300000
v -0.02668400 -0.05149700 0.08300000
v -0.01180000 -0.05678700 0.08300000
v 0.00395800 -0.05786500 0.08300000
v 0.01942300 -0.05465100 0.08300000
v 0.03344700 -0.04738400 0.08300000
v 0.04499100 -0.03660300 0.08300000
v 0.05319800 -0.02310700 0.08300000
v 0.05746000 -0.00789800 0.08300000
v 0.05746000 0.00789800 0.08300000
v 0.05319800 0.02310700 0.08300000
v 0.04499100 0.03660300 0.08300000
v 0.03344700 0.04738400 0.08300000
v 0.01942300 0.05465100 0.08300000
v 0.00395800 0.05786500 0.08300000
v -0.01180000 0.05678700 0.08300000
v -0.02668400 0.05149700 0.08300000
v -0.03958800 0.04238800 0.08300000
v -0.04955600 0.03013600 0.08300000
v -0.05584900 0.01564800 0.08300000
v 0.34450001 0.00000000 0.08300000
v 0.34652099 -0.01341100 0.08300000
v 0.35240600 -0.02563100 0.08300000
v 0.36163101 -0.03557300 0.08300000
v 0.37337700 -0.04235500 0.08300000
v 0.38659999 -0.04537300 0.08300000
v 0.40012500 -0.04435900 0.08300000
v 0.41275001 -0.03940400 0.08300000
v 0.42335400 -0.03094800 0.08300000
v 0.43099400 -0.01974200 0.08300000
v 0.43499199 -0.00678100 0.08300000
v 0.43499199 0.00678100 0.08300000
v 0.43099400 0.01974200 0.08300000
v 0.42335400 0.03094800 0.08300000
v 0.41275001 0.03940400 0.08300000
v 0.40012500 0.04435900 0.08300000
v 0.38659999 0.04537300 0.08300000
v 0.37337700 0.04235500 0.08300000
v 0.36163101 0.03557300 0.08300000
v 0.35240600 0.02563100 0.08300000
v 0.34652099 0.01341100 0.08300000
v -0.05924800 0.00051700 0.08300000
v -0.05955700 0.00193000 0.08300000
v -0.06044900 0.00306900 0.08300000
v -0.06174700 0.00370700 0.08300000
v -0.06319300 0.00372000 0.08300000
v -0.06450200 0.00310400 0.08300000
v -0.06541300 0.00198100 0.08300000
v -0.06574700 0.00057400 0.08300000
v -0.06401800 -0.01499400 0.08300000
v -0.05865500 -0.02971000 0.08300000
v -0.04996300 -0.04274100 0.08300000
v -0.03843600 -0.05334600 0.08300000
v -0.02472700 -0.06092300 0.08300000
v -0.00961500 -0.06504300 0.08300000
v 0.00604200 -0.06547200 0.08300000
v 0.02135700 -0.06218500 0.08300000
v 0.03545900 -0.05536900 0.08300000
v 0.04755000 -0.04541000 0.08300000
v 0.05694100 -0.03287500 0.08300000
v 0.05736800 -0.03149300 0.08300000
v 0.05715200 -0.03006300 0.08300000
v 0.05633700 -0.02886800 0.08300000
v 0.05508500 -0.02814400 0.08300000
v 0.05364200 -0.02803600 0.08300000
v 0.05229600 -0.02856500 0.08300000
v 0.05131200 -0.02962500 0.08300000
v 0.04186000 -0.04193300 0.08300000
v 0.02953500 -0.05136400 0.08300000
v 0.01518500 -0.05727100 0.08300000
v -0.00020700 -0.05925000 0.08300000
v -0.01558500 -0.05716400 0.08300000
v -0.02989300 -0.05115600 0.08300000
v -0.04215100 -0.04163900 0.08300000
v -0.05151800 -0.02926600 0.08300000
v -0.05735000 -0.01488500 0.08300000
v 0.07338500 -0.01712500 0.08300000
v 0.09365400 -0.02568700 0.08300000
v 0.07338500 -0.03425000 0.08300000
v 0.07338500 -0.02568700 0.08300000
v 0.06325000 -0.02568700 0.08300000
v 0.07338500 -0.02996900 0.08300000
v 0.06325000 -0.03425000 0.08300000
v 0.06325000 -0.02996900 0.08300000
v 0.05311500 -0.04281200 0.08300000
v 0.09365400 -0.04281200 0.08300000
v 0.07338500 -0.05137500 0.08300000
v 0.07338500 -0.04281200 0.08300000
v 0.06325000 -0.03210900 0.08300000
v 0.07338500 -0.03853100 0.08300000
v 0.06325000 -0.04281200 0.08300000
v 0.06325000 -0.03853100 0.08300000
v 0.05818300 -0.02568700 0.08300000
v 0.06325000 -0.02782800 0.08300000
v 0.05818300 -0.02782800 0.08300000
v 0.06325000 -0.01712500 0.08300000
v 0.07338500 -0.02140600 0.08300000
v 0.06325000 -0.02140600 0.08300000
v 0.07338500 0.00000000 0.08300000
v 0.09365400 -0.00856200 0.08300000
v 0.07338500 -0.00856200 0.08300000
v 0.38999999 -0.04650000 0.08300000
v 0.38848099 -0.04684700 0.08300000
v 0.38726401 -0.04781800 0.08300000
v 0.38658801 -0.04922100 0.08300000
v 0.38658801 -0.05077900 0.08300000
v 0.38726401 -0.05218200 0.08300000
v 0.38848099 -0.05315300 0.08300000
v 0.38999999 -0.05350000 0.08300000
v 0.40384701 -0.05167700 0.08300000
v 0.41675001 -0.04633200 0.08300000
v 0.42783001 -0.03783000 0.08300000
v 0.43633199 -0.02675000 0.08300000
v 0.44167700 -0.01384700 0.08300000
v 0.44350001 0.00000000 0.08300000
v 0.44167700 0.01384700 0.08300000
v 0.43633199 0.02675000 0.08300000
v 0.42783001 0.03783000 0.08300000
v 0.42643699 0.03868400 0.08300000
v 0.42480800 0.03881200 0.08300000
v 0.42329800 0.03818700 0.08300000
v 0.42223701 0.03694400 0.08300000
v 0.42185500 0.03535500 0.08300000
v 0.42212200 0.03401600 0.08300000
v 0.42287999 0.03288000 0.08300000
v 0.43100899 0.02192000 0.08300000
v 0.43560699 0.00907200 0.08300000
v 0.43627599 -0.00455800 0.08300000
v 0.43296000 -0.01779500 0.08300000
v 0.42594501 -0.02949900 0.08300000
v 0.41583401 -0.03866300 0.08300000
v 0.40349799 -0.04449800 0.08300000
v 0.37742299 -0.04709400 0.08300000
v 0.37742299 -0.05993700 0.08300000
v 0.41796201 -0.05993700 0.08300000
v 0.39769199 -0.05993700 0.08300000
v 0.33688501 -0.04281200 0.08300000
v 0.35715401 -0.05137500 0.08300000
v 0.35715401 -0.04281200 0.08300000
v 0.40782699 -0.05137500 0.08300000
v 0.37742299 -0.04923400 0.08300000
v 0.38249001 -0.04709400 0.08300000
v 0.38249001 -0.05137500 0.08300000
v 0.38249001 -0.04923400 0.08300000
v 0.37742299 -0.05565600 0.08300000
v 0.39769199 -0.05565600 0.08300000
v 0.38755801 -0.05993700 0.08300000
v 0.38755801 -0.05565600 0.08300000
v 0.33688501 -0.05993700 0.08300000
v 0.35715401 -0.05993700 0.08300000
v 0.35715401 -0.04709400 0.08300000
v 0.36728799 -0.04281200 0.08300000
v 0.36728799 -0.05137500 0.08300000
v 0.36728799 -0.04709400 0.08300000
v 0.37742299 -0.05351600 0.08300000
v 0.38249001 -0.05565600 0.08300000
v 0.38249001 -0.05351600 0.08300000
v 0.35715401 -0.05565600 0.08300000
v 0.36728799 -0.05993700 0.08300000
v 0.36728799 -0.05565600 0.08300000
v 0.39769199 -0.05351600 0.08300000
v 0.39262500 -0.05565600 0.08300000
v 0.39262500 -0.05351600 0.08300000
v 0.41796201 -0.05565600 0.08300000
v 0.40782699 -0.05993700 0.08300000
v 0.40782699 -0.05565600 0.08300000
v 0.41796201 0.04281300 0.08300000
v 0.43823099 0.04281300 0.08300000
v 0.41796201 0.03853100 0.08300000
v 0.42809600 0.04281300 0.08300000
v 0.43823099 0.03853100 0.08300000
v 0.42809600 0.03853100 0.08300000
v 0.39769199 0.05137500 0.08300000
v 0.41796201 0.04067200 0.08300000
v 0.42302901 0.04281300 0.08300000
v 0.42809600 0.04067200 0.08300000
v 0.42302901 0.04067200 0.08300000
v 0.41796201 0.04709400 0.08300000
v 0.42809600 0.05137500 0.08300000
v 0.42809600 0.04709400 0.08300000
v 0.41796201 0.05993800 0.08300000
v 0.19499999 0.06850000 0.08300000
v 0.20431000 0.06850000 0.08300000
v 0.21362101 0.06850000 0.08300000
v 0.22293200 0.06850000 0.08300000
v 0.23224300 0.06850000 0.08300000
v 0.24155401 0.06850000 0.08300000
v 0.25086501 0.06850000 0.08300000
v 0.26017499 0.06850000 0.08300000
v 0.26948500 0.06850000 0.08300000
v 0.27879500 0.06850000 0.08300000
v 0.28810701 0.06850000 0.08300000
v 0.29741800 0.06850000 0.08300000
v 0.30672899 0.06850000 0.08300000
v 0.31603900 0.06850000 0.08300000
v 0.32534900 0.06850000 0.08300000
v 0.33466101 0.06850000 0.08300000
v 0.34397200 0.06850000 0.08300000
v 0.35328299 0.06850000 0.08300000
v 0.36259300 0.06850000 0.08300000
v 0.37190399 0.06850000 0.08300000
v 0.38086301 0.06850000 0.08300000
v 0.39044499 0.06849900 0.08300000
v 0.40052101 0.06768700 0.08300000
v 0.41001600 0.06551100 0.08300000
v 0.41879901 0.06215200 0.08300000
v 0.42683601 0.05775300 0.08300000
v 0.43372500 0.05272900 0.08300000
v 0.44014099 0.04667000 0.08300000
v 0.44553399 0.04010300 0.08300000
v 0.45035401 0.03239900 0.08300000
v 0.45420900 0.02386200 0.08300000
v 0.45689300 0.01475000 0.08300000
v 0.45830399 0.00517500 0.08300000
v 0.45831001 -0.00509500 0.08300000
v 0.45687899 -0.01481600 0.08300000
v 0.45408201 -0.02420100 0.08300000
v 0.45045701 -0.03220700 0.08300000
v 0.44574100 -0.03981500 0.08300000
v 0.44014201 -0.04666900 0.08300000
v 0.43372500 -0.05272900 0.08300000
v 0.42653099 -0.05794600 0.08300000
v 0.41894400 -0.06208400 0.08300000
v 0.41017500 -0.06546100 0.08300000
v 0.40058401 -0.06767700 0.08300000
v 0.39053401 -0.06849800 0.08300000
v 0.38161799 -0.06850000 0.08300000
v 0.37190500 -0.06850000 0.08300000
v 0.36259201 -0.06850000 0.08300000
v 0.35328200 -0.06850000 0.08300000
v 0.34402999 -0.06850000 0.08300000
v 0.33457500 -0.06850000 0.08300000
v 0.32534999 -0.06850000 0.08300000
v 0.31604001 -0.06850000 0.08300000
v 0.30672801 -0.06850000 0.08300000
v 0.29741800 -0.06850000 0.08300000
v 0.28810701 -0.06850000 0.08300000
v 0.27879700 -0.06850000 0.08300000
v 0.26948601 -0.06850000 0.08300000
v 0.26017499 -0.06850000 0.08300000
v 0.25086400 -0.06850000 0.08300000
v 0.24155299 -0.06850000 0.08300000
v 0.23224300 -0.06850000 0.08300000
v 0.22293200 -0.06850000 0.08300000
v 0.21362101 -0.06850000 0.08300000
v 0.20431100 -0.06850000 0.08300000
v 0.19500101 -0.06850000 0.08300000
v 0.18568900 -0.06850000 0.08300000
v 0.17637800 -0.06850000 0.08300000
v 0.16706800 -0.06850000 0.08300000
v 0.15775800 -0.06850000 0.08300000
v 0.14844701 -0.06850000 0.08300000
v 0.13913600 -0.06850000 0.08300000
v 0.12982500 -0.06850000 0.08300000
v 0.12051400 -0.06850000 0.08300000
v 0.11120300 -0.06850000 0.08300000
v 0.10189300 -0.06850000 0.08300000
v 0.09258300 -0.06850000 0.08300000
v 0.08327200 -0.06850000 0.08300000
v 0.07396200 -0.06850000 0.08300000
v 0.06465100 -0.06850000 0.08300000
v 0.05533900 -0.06850000 0.08300000
v 0.04602800 -0.06850000 0.08300000
v 0.03671700 -0.06850000 0.08300000
v 0.02740700 -0.06850000 0.08300000
v 0.01809600 -0.06850000 0.08300000
v 0.00878500 -0.06850000 0.08300000
v -0.00069400 -0.06849600 0.08300000
v -0.01058500 -0.06767700 0.08300000
v -0.01993500 -0.06553500 0.08300000
v -0.02859400 -0.06224700 0.08300000
v -0.03683600 -0.05775300 0.08300000
v -0.04372500 -0.05273000 0.08300000
v -0.05014100 -0.04667000 0.08300000
v -0.05553400 -0.04010300 0.08300000
v -0.06035400 -0.03239900 0.08300000
v -0.06418100 -0.02393800 0.08300000
v -0.06687900 -0.01481600 0.08300000
v -0.06831000 -0.00509600 0.08300000
v -0.06830400 0.00517400 0.08300000
v -0.06683000 0.01503500 0.08300000
v -0.06421000 0.02386100 0.08300000
v -0.06045600 0.03220700 0.08300000
v -0.05574100 0.03981500 0.08300000
v -0.05014200 0.04666900 0.08300000
v -0.04372500 0.05272900 0.08300000
v -0.03653000 0.05794600 0.08300000
v -0.02859300 0.06224700 0.08300000
v -0.01993300 0.06553600 0.08300000
v -0.01058400 0.06767700 0.08300000
v -0.00094200 0.06849400 0.08300000
v 0.00878500 0.06850000 0.08300000
v 0.01826400 0.06850000 0.08300000
v 0.02740600 0.06850000 0.08300000
v 0.03671800 0.06850000 0.08300000
v 0.04596900 0.06850000 0.08300000
v 0.05542500 0.06850000 0.08300000
v 0.06465000 0.06850000 0.08300000
v 0.07396100 0.06850000 0.08300000
v 0.08327200 0.06850000 0.08300000
v 0.09258200 0.06850000 0.08300000
v 0.10189200 0.06850000 0.08300000
v 0.11120200 0.06850000 0.08300000
v 0.12051300 0.06850000 0.08300000
v 0.12982400 0.06850000 0.08300000
v 0.13913600 0.06850000 0.08300000
v 0.14844701 0.06850000 0.08300000
v 0.15775800 0.06850000 0.08300000
v 0.16706900 0.06850000 0.08300000
v 0.17637900 0.06850000 0.08300000
v 0.18569000 0.06850000 0.08300000
v 0.17473100 0.05993800 0.08300000
v 0.21526900 0.05993800 0.08300000
v 0.19499999 0.05137500 0.08300000
v 0.19499999 0.05993800 0.08300000
v 0.25580800 0.05993800 0.08300000
v 0.23553801 0.05137500 0.08300000
v 0.23553801 0.05993800 0.08300000
v 0.29634601 0.05993800 0.08300000
v 0.27607700 0.05137500 0.08300000
v 0.27607700 0.05993800 0.08300000
v 0.33688501 0.05993800 0.08300000
v 0.31661499 0.05137500 0.08300000
v 0.31661499 0.05993800 0.08300000
v 0.37742299 0.05993800 0.08300000
v 0.35715401 0.05137500 0.08300000
v 0.35715401 0.05993800 0.08300000
v 0.39769199 0.05993800 0.08300000
v 0.29634601 -0.05993700 0.08300000
v 0.31661499 -0.05137500 0.08300000
v 0.31661499 -0.05993700 0.08300000
v 0.25580800 -0.05993700 0.08300000
v 0.27607700 -0.05137500 0.08300000
v 0.27607700 -0.05993700 0.08300000
v 0.21526900 -0.05993700 0.08300000
v 0.23553801 -0.05137500 0.08300000
v 0.23553801 -0.05993700 0.08300000
v 0.17473100 -0.05993700 0.08300000
v 0.19499999 -0.05137500 0.08300000
v 0.19499999 -0.05993700 0.08300000
v 0.13419200 -0.05993700 0.08300000
v 0.15446199 -0.05137500 0.08300000
v 0.15446199 -0.05993700 0.08300000
v 0.09365400 -0.05993700 0.08300000
v 0.11392300 -0.05137500 0.08300000
v 0.11392300 -0.05993700 0.08300000
v 0.05311500 -0.05993700 0.08300000
v 0.07338500 -0.05993700 0.08300000
v 0.05311500 0.05993800 0.08300000
v 0.03284600 0.05993800 0.08300000
v 0.09365400 0.05993800 0.08300000
v 0.07338500 0.05137500 0.08300000
v 0.07338500 0.05993800 0.08300000
v 0.13419200 0.05993800 0.08300000
v 0.11392300 0.05137500 0.08300000
v 0.11392300 0.05993800 0.08300000
v 0.15446199 0.05137500 0.08300000
v 0.15446199 0.05993800 0.08300000
v 0.33688501 0.00000000 0.08300000
v 0.33688501 0.01712500 0.08300000
v 0.33688501 0.00000000 0.08300000
v -0.02796200 -0.05137500 -0.08300000
v -0.02796200 0.05137500 -0.08300000
v 0.05311500 -0.05137500 -0.08300000
v 0.05311500 -0.03425000 -0.08300000
v 0.05311500 0.03425000 -0.08300000
v 0.05311500 0.05137500 -0.08300000
v 0.09365400 -0.05137500 -0.08300000
v 0.09365400 -0.03425000 -0.08300000
v 0.09365400 -0.01712500 -0.08300000
v 0.09365400 0.00000000 -0.08300000
v 0.09365400 0.01712500 -0.08300000
v 0.09365400 0.03425000 -0.08300000
v 0.09365400 0.05137500 -0.08300000
v 0.13419200 -0.05137500 -0.08300000
v 0.13419200 -0.03425000 -0.08300000
v 0.13419200 -0.01712500 -0.08300000
v 0.13419200 0.00000000 -0.08300000
v 0.13419200 0.01712500 -0.08300000
v 0.13419200 0.03425000 -0.08300000
v 0.13419200 0.05137500 -0.08300000
v 0.17473100 -0.05137500 -0.08300000
v 0.17473100 -0.03425000 -0.08300000
v 0.17473100 -0.01712500 -0.08300000
v 0.17473100 0.00000000 -0.08300000
v 0.17473100 0.01712500 -0.08300000
v 0.17473100 0.03425000 -0.08300000
v 0.17473100 0.05137500 -0.08300000
v 0.21526900 -0.05137500 -0.08300000
v 0.21526900 -0.03425000 -0.08300000
v 0.21526900 -0.01712500 -0.08300000
v 0.21526900 0.00000000 -0.08300000
v 0.21526900 0.01712500 -0.08300000
v 0.21526900 0.03425000 -0.08300000
v 0.21526900 0.05137500 -0.08300000
v 0.25580800 -0.05137500 -0.08300000
v 0.25580800 -0.03425000 -0.08300000
v 0.25580800 -0.01712500 -0.08300000
v 0.25580800 0.00000000 -0.08300000
v 0.25580800 0.01712500 -0.08300000
v 0.25580800 0.03425000 -0.08300000
v 0.25580800 0.05137500 -0.08300000
v 0.29634601 -0.05137500 -0.08300000
v 0.29634601 -0.03425000 -0.08300000
v 0.29634601 -0.01712500 -0.08300000
v 0.29634601 0.00000000 -0.08300000
v 0.29634601 0.01712500 -0.08300000
v 0.29634601 0.03425000 -0.08300000
v 0.29634601 0.05137500 -0.08300000
v 0.33688501 -0.05137500 -0.08300000
v 0.33688501 -0.03425000 -0.08300000
v 0.33688501 -0.01712500 -0.08300000
v 0.33688501 0.00000000 -0.08300000
v 0.33688501 0.01712500 -0.08300000
v 0.33688501 0.03425000 -0.08300000
v 0.33688501 0.05137500 -0.08300000
v 0.37742299 -0.05137500 -0.08300000
v 0.37742299 0.05137500 -0.08300000
v 0.41796201 -0.05137500 -0.08300000
v 0.41796201 0.05137500 -0.08300000
v 0.01938500 0.02914200 -0.08300000
v 0.02773800 0.02134500 -0.08300000
v 0.03313500 0.01127300 -0.08300000
v 0.03500000 0.00000000 -0.08300000
v 0.03313500 -0.01127300 -0.08300000
v 0.02773800 -0.02134500 -0.08300000
v 0.01938500 -0.02914200 -0.08300000
v 0.01103000 -0.03321700 -0.08300000
v -0.00081500 -0.03499100 -0.08300000
v -0.01256500 -0.03266700 -0.08300000
v -0.02284300 -0.02651800 -0.08300000
v -0.03044600 -0.01726400 -0.08300000
v -0.03448400 -0.00598800 -0.08300000
v -0.03448400 0.00598800 -0.08300000
v -0.03044600 0.01726400 -0.08300000
v -0.02284300 0.02651800 -0.08300000
v -0.01256500 0.03266700 -0.08300000
v -0.00081500 0.03499000 -0.08300000
v 0.01103000 0.03321700 -0.08300000
v 0.34815001 0.06300000 -0.08300000
v 0.34833899 0.06376700 -0.08300000
v 0.34886301 0.06435800 -0.08300000
v 0.34960100 0.06463800 -0.08300000
v 0.35038501 0.06454300 -0.08300000
v 0.35103500 0.06409400 -0.08300000
v 0.35140201 0.06339500 -0.08300000
v 0.35140201 0.06260500 -0.08300000
v 0.35103500 0.06190600 -0.08300000
v 0.35038501 0.06145700 -0.08300000
v 0.34960100 0.06136200 -0.08300000
v 0.34886301 0.06164200 -0.08300000
v 0.34833899 0.06223300 -0.08300000
v 0.37742299 0.05993700 -0.08300000
v 0.33688501 0.05993700 -0.08300000
v 0.35715401 0.05137500 -0.08300000
v 0.35715401 0.05993700 -0.08300000
v 0.35715401 0.06421900 -0.08300000
v 0.33688501 0.06421900 -0.08300000
v 0.34701899 0.05993700 -0.08300000
v 0.34701899 0.06421900 -0.08300000
v 0.29634601 0.05993700 -0.08300000
v 0.31661499 0.05137500 -0.08300000
v 0.31661499 0.05993700 -0.08300000
v 0.35715401 0.06207800 -0.08300000
v 0.35208699 0.06421900 -0.08300000
v 0.34701899 0.06207800 -0.08300000
v 0.35208699 0.05993700 -0.08300000
v 0.35208699 0.06207800 -0.08300000
v 0.35715401 0.05565600 -0.08300000
v 0.33688501 0.05565600 -0.08300000
v 0.34701899 0.05137500 -0.08300000
v 0.34701899 0.05565600 -0.08300000
v 0.37742299 0.04281200 -0.08300000
v 0.33688501 0.04281200 -0.08300000
v 0.35715401 0.03425000 -0.08300000
v 0.35715401 0.04281200 -0.08300000
v 0.37742299 0.06421900 -0.08300000
v 0.36728799 0.05993700 -0.08300000
v 0.36728799 0.06421900 -0.08300000
v 0.41796201 0.05993700 -0.08300000
v 0.39769199 0.05137500 -0.08300000
v 0.39769199 0.05993700 -0.08300000
v 0.35208699 0.06314800 -0.08300000
v 0.34701899 0.06314800 -0.08300000
v 0.35715401 0.06635900 -0.08300000
v 0.34701899 0.06635900 -0.08300000
v 0.35208699 0.06635900 -0.08300000
v 0.34195200 0.06421900 -0.08300000
v 0.33688501 0.06207800 -0.08300000
v 0.34195200 0.05993700 -0.08300000
v 0.34195200 0.06207800 -0.08300000
v 0.31661499 0.06421900 -0.08300000
v 0.32675001 0.05993700 -0.08300000
v 0.32675001 0.06421900 -0.08300000
v 0.35208699 0.06528900 -0.08300000
v 0.34955299 0.06635900 -0.08300000
v 0.34701899 0.06528900 -0.08300000
v 0.34955299 0.06528900 -0.08300000
v 0.33688501 0.06635900 -0.08300000
v 0.34195200 0.06635900 -0.08300000
v 0.35208699 0.06100800 -0.08300000
v 0.34701899 0.06100800 -0.08300000
v 0.34955299 0.05993700 -0.08300000
v 0.34955299 0.06100800 -0.08300000
v 0.35715401 0.05779700 -0.08300000
v 0.34701899 0.05779700 -0.08300000
v 0.35208699 0.05565600 -0.08300000
v 0.35208699 0.05779700 -0.08300000
v 0.37742299 0.05565600 -0.08300000
v 0.36728799 0.05137500 -0.08300000
v 0.36728799 0.05565600 -0.08300000
v 0.34815001 -0.06300000 -0.08300000
v 0.34833899 -0.06223300 -0.08300000
v 0.34886301 -0.06164200 -0.08300000
v 0.34960100 -0.06136200 -0.08300000
v 0.35038501 -0.06145700 -0.08300000
v 0.35103500 -0.06190600 -0.08300000
v 0.35140201 -0.06260500 -0.08300000
v 0.35140201 -0.06339500 -0.08300000
v 0.35103500 -0.06409400 -0.08300000
v 0.35038501 -0.06454300 -0.08300000
v 0.34960100 -0.06463800 -0.08300000
v 0.34886301 -0.06435800 -0.08300000
v 0.34833899 -0.06376700 -0.08300000
v 0.37742299 -0.05993800 -0.08300000
v 0.35715401 -0.05137500 -0.08300000
v 0.33688501 -0.05993800 -0.08300000
v 0.35715401 -0.05993800 -0.08300000
v 0.35715401 -0.06421900 -0.08300000
v 0.34701899 -0.05993800 -0.08300000
v 0.33688501 -0.06421900 -0.08300000
v 0.34701899 -0.06421900 -0.08300000
v 0.31661499 -0.05137500 -0.08300000
v 0.29634601 -0.05993800 -0.08300000
v 0.31661499 -0.05993800 -0.08300000
v 0.35715401 -0.06207800 -0.08300000
v 0.35208699 -0.05993800 -0.08300000
v 0.34701899 -0.06207800 -0.08300000
v 0.35208699 -0.06421900 -0.08300000
v 0.35208699 -0.06207800 -0.08300000
v 0.37742299 -0.06421900 -0.08300000
v 0.36728799 -0.05993800 -0.08300000
v 0.36728799 -0.06421900 -0.08300000
v 0.39769199 -0.05137500 -0.08300000
v 0.39769199 -0.05993800 -0.08300000
v 0.35715401 -0.05565600 -0.08300000
v 0.34701899 -0.05137500 -0.08300000
v 0.33688501 -0.05565600 -0.08300000
v 0.34701899 -0.05565600 -0.08300000
v 0.37742299 -0.04281300 -0.08300000
v 0.35715401 -0.03425000 -0.08300000
v 0.33688501 -0.04281300 -0.08300000
v 0.35715401 -0.04281300 -0.08300000
v 0.35208699 -0.06314800 -0.08300000
v 0.34701899 -0.06314800 -0.08300000
v 0.34195200 -0.05993800 -0.08300000
v 0.33688501 -0.06207800 -0.08300000
v 0.34195200 -0.06421900 -0.08300000
v 0.34195200 -0.06207800 -0.08300000
v 0.32675001 -0.05993800 -0.08300000
v 0.31661499 -0.06421900 -0.08300000
v 0.32675001 -0.06421900 -0.08300000
v 0.35715401 -0.06635900 -0.08300000
v 0.34701899 -0.06635900 -0.08300000
v 0.35208699 -0.06635900 -0.08300000
v 0.35208699 -0.06100800 -0.08300000
v 0.34955299 -0.05993800 -0.08300000
v 0.34701899 -0.06100800 -0.08300000
v 0.34955299 -0.06100800 -0.08300000
v 0.35715401 -0.05779700 -0.08300000
v 0.35208699 -0.05565600 -0.08300000
v 0.34701899 -0.05779700 -0.08300000
v 0.35208699 -0.05779700 -0.08300000
v 0.37742299 -0.05565600 -0.08300000
v 0.36728799 -0.05137500 -0.08300000
v 0.36728799 -0.05565600 -0.08300000
v 0.35208699 -0.06528900 -0.08300000
v 0.34701899 -0.06528900 -0.08300000
v 0.34955299 -0.06635900 -0.08300000
v 0.34955299 -0.06528900 -0.08300000
v 0.33688501 -0.06635900 -0.08300000
v 0.34195200 -0.06635900 -0.08300000
v 0.03855000 -0.06300000 -0.08300000
v 0.03873900 -0.06223300 -0.08300000
v 0.03926300 -0.06164200 -0.08300000
v 0.04000100 -0.06136200 -0.08300000
v 0.04078500 -0.06145700 -0.08300000
v 0.04143500 -0.06190600 -0.08300000
v 0.04180200 -0.06260500 -0.08300000
v 0.04180200 -0.06339500 -0.08300000
v 0.04143500 -0.06409400 -0.08300000
v 0.04078500 -0.06454300 -0.08300000
v 0.04000100 -0.06463800 -0.08300000
v 0.03926300 -0.06435800 -0.08300000
v 0.03873900 -0.06376700 -0.08300000
v 0.05311500 -0.05993800 -0.08300000
v 0.03284600 -0.05993800 -0.08300000
v 0.05311500 -0.06421900 -0.08300000
v 0.04298100 -0.05993800 -0.08300000
v 0.03284600 -0.06421900 -0.08300000
v 0.04298100 -0.06421900 -0.08300000
v 0.09365400 -0.05993800 -0.08300000
v 0.07338500 -0.05137500 -0.08300000
v 0.07338500 -0.05993800 -0.08300000
v 0.04298100 -0.06207800 -0.08300000
v 0.03791300 -0.05993800 -0.08300000
v 0.03284600 -0.06207800 -0.08300000
v 0.03791300 -0.06421900 -0.08300000
v 0.03791300 -0.06207800 -0.08300000
v 0.05311500 -0.05565600 -0.08300000
v 0.04298100 -0.05137500 -0.08300000
v 0.04298100 -0.05565600 -0.08300000
v 0.05311500 -0.04281300 -0.08300000
v -0.00769200 -0.05137500 -0.08300000
v -0.02796200 -0.05993800 -0.08300000
v -0.00769200 -0.05993800 -0.08300000
v 0.04298100 -0.06314800 -0.08300000
v 0.03791300 -0.06314800 -0.08300000
v 0.04298100 -0.06635900 -0.08300000
v 0.03284600 -0.06635900 -0.08300000
v 0.03791300 -0.06635900 -0.08300000
v 0.05311500 -0.06207800 -0.08300000
v 0.04804800 -0.05993800 -0.08300000
v 0.04804800 -0.06421900 -0.08300000
v 0.04804800 -0.06207800 -0.08300000
v 0.07338500 -0.06421900 -0.08300000
v 0.06325000 -0.05993800 -0.08300000
v 0.06325000 -0.06421900 -0.08300000
v 0.04298100 -0.06100800 -0.08300000
v 0.04044700 -0.05993800 -0.08300000
v 0.03791300 -0.06100800 -0.08300000
v 0.04044700 -0.06100800 -0.08300000
v 0.04298100 -0.05779700 -0.08300000
v 0.03791300 -0.05565600 -0.08300000
v 0.03791300 -0.05779700 -0.08300000
v 0.04298100 -0.06528900 -0.08300000
v 0.03791300 -0.06528900 -0.08300000
v 0.04044700 -0.06635900 -0.08300000
v 0.04044700 -0.06528900 -0.08300000
v 0.05311500 -0.06635900 -0.08300000
v 0.04804800 -0.06635900 -0.08300000
v 0.03855000 0.06300000 -0.08300000
v 0.03873900 0.06376700 -0.08300000
v 0.03926300 0.06435800 -0.08300000
v 0.04000100 0.06463800 -0.08300000
v 0.04078500 0.06454300 -0.08300000
v 0.04143500 0.06409400 -0.08300000
v 0.04180200 0.06339500 -0.08300000
v 0.04180200 0.06260500 -0.08300000
v 0.04143500 0.06190600 -0.08300000
v 0.04078500 0.06145700 -0.08300000
v 0.04000100 0.06136200 -0.08300000
v 0.03926300 0.06164200 -0.08300000
v 0.03873900 0.06223300 -0.08300000
v 0.05311500 0.05993700 -0.08300000
v 0.03284600 0.05993700 -0.08300000
v 0.05311500 0.06421900 -0.08300000
v 0.03284600 0.06421900 -0.08300000
v 0.04298100 0.05993700 -0.08300000
v 0.04298100 0.06421900 -0.08300000
v 0.09365400 0.05993700 -0.08300000
v 0.07338500 0.05137500 -0.08300000
v 0.07338500 0.05993700 -0.08300000
v 0.04298100 0.06207800 -0.08300000
v 0.03791300 0.06421900 -0.08300000
v 0.03284600 0.06207800 -0.08300000
v 0.03791300 0.05993700 -0.08300000
v 0.03791300 0.06207800 -0.08300000
v -0.00769200 0.05137500 -0.08300000
v -0.00769200 0.05993700 -0.08300000
v 0.05311500 0.05565600 -0.08300000
v 0.04298100 0.05137500 -0.08300000
v 0.04298100 0.05565600 -0.08300000
v 0.05311500 0.04281200 -0.08300000
v 0.04298100 0.06314800 -0.08300000
v 0.03791300 0.06314800 -0.08300000
v 0.05311500 0.06207800 -0.08300000
v 0.04804800 0.06421900 -0.08300000
v 0.04804800 0.05993700 -0.08300000
v 0.04804800 0.06207800 -0.08300000
v 0.07338500 0.06421900 -0.08300000
v 0.06325000 0.05993700 -0.08300000
v 0.06325000 0.06421900 -0.08300000
v 0.04298100 0.06635900 -0.08300000
v 0.03284600 0.06635900 -0.08300000
v 0.03791300 0.06635900 -0.08300000
v 0.04298100 0.06528900 -0.08300000
v 0.04044700 0.06635900 -0.08300000
v 0.03791300 0.06528900 -0.08300000
v 0.04044700 0.06528900 -0.08300000
v 0.05311500 0.06635900 -0.08300000
v 0.04804800 0.06635900 -0.08300000
v 0.04298100 0.06100800 -0.08300000
v 0.03791300 0.06100800 -0.08300000
v 0.04044700 0.05993700 -0.08300000
v 0.04044700 0.06100800 -0.08300000
v 0.04298100 0.05779700 -0.08300000
v 0.03284600 0.05779700 -0.08300000
v 0.03791300 0.05565600 -0.08300000
v 0.03791300 0.05779700 -0.08300000
v 0.41475201 0.02474600 -0.08300000
v 0.41737199 0.03234800 -0.08300000
v 0.42335999 0.03771500 -0.08300000
v 0.43120199 0.03949200 -0.08300000
v 0.43891799 0.03723000 -0.08300000
v 0.44455999 0.03150000 -0.08300000
v 0.44670099 0.02374900 -0.08300000
v 0.44480199 0.01593600 -0.08300000
v 0.43934199 0.01003300 -0.08300000
v 0.43169999 0.00753100 -0.08300000
v 0.42380601 0.00906300 -0.08300000
v 0.03650000 0.00000000 -0.08300000
v 0.03833300 0.00743600 -0.08300000
v 0.04341100 0.01316800 -0.08300000
v 0.05057100 0.01588300 -0.08300000
v 0.05817400 0.01496000 -0.08300000
v 0.06447600 0.01061000 -0.08300000
v 0.06803500 0.00382900 -0.08300000
v 0.06803500 -0.00382900 -0.08300000
v 0.06447600 -0.01061000 -0.08300000
v 0.05817400 -0.01496000 -0.08300000
v 0.05057100 -0.01588300 -0.08300000
v 0.04341100 -0.01316800 -0.08300000
v 0.03833300 -0.00743600 -0.08300000
v 0.03284600 0.01712500 -0.08300000
v 0.09365400 0.00856200 -0.08300000
v 0.07338500 0.01712500 -0.08300000
v 0.07338500 0.00000000 -0.08300000
v 0.07338500 0.00856200 -0.08300000
v 0.09365400 -0.00856300 -0.08300000
v 0.07338500 -0.01712500 -0.08300000
v 0.07338500 -0.00856300 -0.08300000
v 0.03284600 -0.01712500 -0.08300000
v 0.42489201 -0.00274200 -0.08300000
v 0.42197600 -0.01423300 -0.08300000
v 0.41539001 -0.02409000 -0.08300000
v 0.40589201 -0.03118400 -0.08300000
v 0.39457101 -0.03470000 -0.08300000
v 0.38272500 -0.03423600 -0.08300000
v 0.37171400 -0.02984300 -0.08300000
v 0.36280000 -0.02202700 -0.08300000
v 0.35700801 -0.01168400 -0.08300000
v 0.35499999 0.00000000 -0.08300000
v 0.35696399 0.01156000 -0.08300000
v 0.36263701 0.02182300 -0.08300000
v 0.37138000 0.02963600 -0.08300000
v 0.38221401 0.03412300 -0.08300000
v 0.39392200 0.03478000 -0.08300000
v 0.40518901 0.03153200 -0.08300000
v 0.00725200 0.03854500 -0.08300000
v 0.00591900 0.04494000 -0.08300000
v 0.00778000 0.05242900 -0.08300000
v 0.01293000 0.05817700 -0.08300000
v 0.02017200 0.06084400 -0.08300000
v 0.02782000 0.05981200 -0.08300000
v 0.03409500 0.05531900 -0.08300000
v 0.03753700 0.04841200 -0.08300000
v 0.03734600 0.04069700 -0.08300000
v 0.03356500 0.03396900 -0.08300000
v 0.02707500 0.02979300 -0.08300000
v -0.02796200 0.04281200 -0.08300000
v -0.00769200 0.04281200 -0.08300000
v 0.05311500 0.02568700 -0.08300000
v 0.03284600 0.02568700 -0.08300000
v 0.02623900 -0.02953400 -0.08300000
v 0.03229800 -0.03276300 -0.08300000
v 0.03644600 -0.03823400 -0.08300000
v 0.03791900 -0.04494000 -0.08300000
v 0.03599400 -0.05254700 -0.08300000
v 0.03068500 -0.05832500 -0.08300000
v 0.02326700 -0.06088300 -0.08300000
v 0.01552400 -0.05960600 -0.08300000
v 0.00932000 -0.05480200 -0.08300000
v 0.00614600 -0.04762600 -0.08300000
v 0.00676500 -0.03980400 -0.08300000
v 0.05311500 -0.02568800 -0.08300000
v 0.03284600 -0.02568800 -0.08300000
v -0.02796200 -0.04281300 -0.08300000
v -0.00769200 -0.04281300 -0.08300000
v 0.38999999 0.06850000 -0.08300000
v 0.36368701 0.06850000 -0.08300000
v 0.33737400 0.06850000 -0.08300000
v 0.31106299 0.06850000 -0.08300000
v 0.28474900 0.06850000 -0.08300000
v 0.25843501 0.06850000 -0.08300000
v 0.23212300 0.06850000 -0.08300000
v 0.20580900 0.06850000 -0.08300000
v 0.17949601 0.06850000 -0.08300000
v 0.15318300 0.06850000 -0.08300000
v 0.12686899 0.06850000 -0.08300000
v 0.10055600 0.06850000 -0.08300000
v 0.07424400 0.06850000 -0.08300000
v 0.04792900 0.06850000 -0.08300000
v 0.02177300 0.06850000 -0.08300000
v -0.00569000 0.06826300 -0.08300000
v -0.02977500 0.06169000 -0.08300000
v -0.05111800 0.04559900 -0.08300000
v -0.06406400 0.02425000 -0.08300000
v -0.06846700 -0.00211600 -0.08300000
v -0.06244500 -0.02815800 -0.08300000
v -0.04736000 -0.04949000 -0.08300000
v -0.02454700 -0.06395100 -0.08300000
v 0.00000000 -0.06850000 -0.08300000
v 0.02631400 -0.06850000 -0.08300000
v 0.05262700 -0.06850000 -0.08300000
v 0.07893900 -0.06850000 -0.08300000
v 0.10525200 -0.06850000 -0.08300000
v 0.13156500 -0.06850000 -0.08300000
v 0.15787800 -0.06850000 -0.08300000
v 0.18419100 -0.06850000 -0.08300000
v 0.21050400 -0.06850000 -0.08300000
v 0.23681700 -0.06850000 -0.08300000
v 0.26313001 -0.06850000 -0.08300000
v 0.28944400 -0.06850000 -0.08300000
v 0.31575701 -0.06850000 -0.08300000
v 0.34206700 -0.06850000 -0.08300000
v 0.36822701 -0.06850000 -0.08300000
v 0.39568999 -0.06826300 -0.08300000
v 0.41977400 -0.06169100 -0.08300000
v 0.44111800 -0.04559900 -0.08300000
v 0.45406401 -0.02425000 -0.08300000
v 0.45844099 0.00284700 -0.08300000
v 0.45259100 0.02783200 -0.08300000
v 0.43759999 0.04925900 -0.08300000
v 0.41454700 0.06395100 -0.08300000
f 234 233 2
f 223 225 235
f 230 222 233
f 235 225 230
f 233 235 230
f 230 229 222
f 225 232 230
f 224 229 232
f 231 225 223
f 226 227 231
f 223 226 231
f 198 210 3
f 203 211 212
f 212 200 210
f 216 217 218
f 217 201 191
f 202 203 217
f 191 202 217
f 211 203 202
f 189 200 211
f 202 189 211
f 1 221 195
f 219 220 221
f 221 191 201
f 197 196 188
f 199 3 196
f 236 228 383
f 383 4 380
f 213 205 204
f 5 193 213
f 204 5 213
f 208 213 193
f 210 200 215
f 208 3 210
f 215 208 210
f 200 214 215
f 215 205 213
f 194 192 6
f 207 206 194
f 196 3 208
f 209 188 196
f 208 209 196
f 209 193 206
f 206 193 5
f 192 194 206
f 5 192 206
f 380 381 382
f 382 8 377
f 385 384 9
f 5 386 385
f 192 5 385
f 385 9 10
f 10 6 192
f 192 385 10
f 6 10 11
f 13 14 7
f 378 8 7
f 14 15 378
f 7 14 378
f 377 378 379
f 379 15 374
f 388 387 16
f 9 389 388
f 388 16 17
f 10 9 388
f 17 10 388
f 11 17 18
f 12 18 19
f 13 19 20
f 14 20 21
f 375 15 14
f 21 22 375
f 14 21 375
f 374 375 376
f 376 22 371
f 391 390 23
f 16 392 391
f 391 23 24
f 17 16 391
f 24 17 391
f 18 24 25
f 19 25 26
f 20 26 27
f 21 27 28
f 372 22 21
f 28 29 372
f 21 28 372
f 371 372 373
f 373 29 368
f 394 393 30
f 23 395 394
f 394 30 31
f 24 23 394
f 31 24 394
f 25 31 32
f 26 32 33
f 27 33 34
f 28 34 35
f 369 29 28
f 35 36 369
f 28 35 369
f 368 369 370
f 370 36 367
f 397 396 37
f 30 398 397
f 397 37 38
f 31 30 397
f 38 31 397
f 32 38 39
f 33 39 40
f 34 40 41
f 35 41 42
f 412 36 35
f 42 43 412
f 35 42 412
f 367 412 413
f 413 43 409
f 400 399 44
f 37 401 400
f 400 44 141
f 141 45 38
f 38 37 400
f 400 141 38
f 133 46 39
f 38 45 133
f 39 38 133
f 155 47 40
f 39 46 155
f 40 39 155
f 41 47 48
f 42 48 49
f 410 43 42
f 49 50 410
f 42 49 410
f 409 410 411
f 411 50 406
f 142 402 51
f 44 403 142
f 134 147 138
f 145 146 147
f 145 134 45
f 141 143 145
f 45 141 145
f 141 142 143
f 146 143 142
f 51 140 146
f 142 51 146
f 132 153 151
f 152 136 153
f 152 132 46
f 133 135 152
f 46 133 152
f 137 135 133
f 45 134 137
f 133 45 137
f 136 150 148
f 150 149 139
f 149 136 135
f 137 139 149
f 135 137 149
f 144 139 137
f 134 138 144
f 137 134 144
f 47 156 154
f 155 132 156
f 52 407 49
f 407 50 49
f 406 407 408
f 408 52 404
f 405 404 52
f 190 277 278
f 190 278 220
f 279 220 278
f 219 277 190
f 1 276 219
f 277 219 276
f 221 216 165
f 165 195 221
f 166 276 1
f 191 220 279
f 281 191 280
f 281 202 191
f 282 202 281
f 221 201 216
f 164 218 217
f 216 218 165
f 163 164 203
f 217 203 164
f 212 163 203
f 191 279 280
f 164 165 218
f 167 273 274
f 273 167 168
f 166 167 275
f 85 184 185
f 275 167 274
f 272 273 168
f 169 271 272
f 272 168 169
f 86 183 184
f 270 271 169
f 165 166 195
f 276 166 275
f 82 187 157
f 197 158 159
f 82 157 81
f 185 186 84
f 83 84 186
f 82 83 187
f 186 187 83
f 84 85 185
f 166 1 195
f 81 157 158
f 283 189 282
f 205 284 285
f 205 285 286
f 214 283 284
f 205 286 204
f 284 205 214
f 288 204 287
f 287 204 286
f 386 288 289
f 384 290 291
f 386 289 290
f 292 293 389
f 384 291 292
f 293 294 389
f 295 387 294
f 296 387 295
f 297 387 296
f 204 288 386
f 198 161 162
f 162 212 198
f 161 198 199
f 162 163 212
f 160 161 199
f 81 158 197
f 159 160 199
f 159 199 197
f 188 81 197
f 80 188 209
f 207 80 209
f 81 188 80
f 294 387 389
f 297 392 387
f 389 384 292
f 6 78 79
f 207 194 79
f 194 6 79
f 78 6 77
f 414 6 11
f 77 6 414
f 207 79 80
f 392 297 298
f 282 189 202
f 86 184 85
f 13 416 12
f 170 269 270
f 169 170 270
f 87 182 183
f 269 170 171
f 171 267 268
f 266 267 172
f 171 172 267
f 171 268 269
f 181 182 88
f 183 86 87
f 89 181 88
f 179 89 90
f 89 180 181
f 172 226 266
f 90 178 179
f 224 177 178
f 179 180 89
f 224 176 177
f 88 182 87
f 226 172 173
f 223 265 226
f 266 226 265
f 227 226 173
f 264 265 223
f 234 263 264
f 262 234 2
f 263 234 262
f 264 235 234
f 235 264 223
f 174 231 227
f 231 175 232
f 176 232 175
f 178 90 224
f 90 229 224
f 174 227 173
f 90 222 229
f 236 262 2
f 233 228 2
f 262 236 261
f 91 233 222
f 260 261 236
f 222 90 91
f 174 175 231
f 224 232 176
f 92 228 91
f 381 93 94
f 4 228 92
f 93 4 92
f 382 256 380
f 381 4 93
f 258 383 380
f 381 94 8
f 260 236 383
f 416 415 96
f 414 76 77
f 416 96 76
f 95 96 415
f 94 7 8
f 7 95 415
f 377 251 252
f 7 415 13
f 7 94 95
f 382 253 254
f 259 260 383
f 383 258 259
f 258 380 257
f 380 256 257
f 382 254 255
f 379 250 251
f 252 253 377
f 374 248 249
f 247 248 374
f 376 247 374
f 249 250 379
f 371 245 376
f 376 245 246
f 371 243 244
f 371 242 243
f 249 379 374
f 242 371 373
f 91 228 233
f 414 11 12
f 392 299 390
f 390 300 301
f 395 390 301
f 390 299 300
f 302 303 395
f 395 301 302
f 304 393 303
f 305 393 304
f 305 306 398
f 307 398 306
f 309 396 308
f 310 396 309
f 308 396 307
f 312 401 311
f 313 399 312
f 315 403 314
f 316 403 315
f 314 399 313
f 311 401 310
f 317 402 316
f 303 393 395
f 307 396 398
f 310 401 396
f 398 393 305
f 314 403 399
f 147 140 115
f 115 138 147
f 399 401 312
f 116 139 144
f 115 116 144
f 138 115 144
f 146 140 147
f 117 139 116
f 150 139 117
f 148 150 119
f 150 118 119
f 150 117 118
f 148 119 120
f 402 403 316
f 402 317 318
f 402 319 113
f 112 320 321
f 111 321 322
f 112 319 320
f 319 112 113
f 124 125 60
f 59 60 125
f 111 112 321
f 111 322 323
f 402 113 51
f 324 110 323
f 109 110 325
f 324 325 110
f 326 109 325
f 58 59 126
f 59 125 126
f 108 109 327
f 58 126 127
f 326 327 109
f 57 58 127
f 110 111 323
f 51 113 114
f 128 57 127
f 60 61 124
f 123 124 61
f 121 122 63
f 140 114 115
f 61 62 123
f 62 122 123
f 114 140 51
f 57 128 56
f 108 328 329
f 330 107 329
f 108 329 107
f 328 108 327
f 56 128 129
f 55 129 130
f 63 122 62
f 56 129 55
f 332 106 331
f 331 106 330
f 106 107 330
f 105 106 332
f 63 120 121
f 319 402 318
f 54 55 130
f 373 240 241
f 154 48 47
f 66 49 48
f 367 366 370
f 409 362 413
f 409 359 360
f 413 364 367
f 368 238 239
f 151 153 63
f 148 63 153
f 63 148 120
f 64 151 63
f 156 132 151
f 154 156 64
f 151 64 156
f 65 154 64
f 49 67 52
f 49 66 67
f 66 48 65
f 65 48 154
f 136 148 153
f 237 238 370
f 240 368 239
f 364 365 367
f 362 363 413
f 237 370 366
f 357 358 411
f 411 358 359
f 406 355 356
f 360 361 409
f 406 356 357
f 408 353 354
f 353 404 352
f 354 355 408
f 408 404 353
f 411 406 357
f 242 373 241
f 53 54 131
f 131 54 130
f 98 53 97
f 131 97 53
f 75 53 98
f 337 338 74
f 337 74 75
f 100 335 75
f 99 100 75
f 75 98 99
f 339 74 338
f 333 105 332
f 104 105 334
f 333 334 105
f 335 104 334
f 337 75 336
f 102 335 101
f 335 100 101
f 335 336 75
f 104 335 103
f 103 335 102
f 52 68 405
f 67 68 52
f 69 405 68
f 70 405 69
f 350 351 405
f 404 405 351
f 349 350 405
f 405 348 349
f 70 348 405
f 348 70 347
f 347 70 346
f 352 404 351
f 341 72 73
f 341 73 340
f 339 340 73
f 342 72 341
f 346 70 345
f 71 345 70
f 344 345 71
f 344 71 343
f 342 343 71
f 342 71 72
f 73 74 339
f 417 671 669
f 833 669 834
f 418 817 724
f 418 724 725
f 666 665 419
f 689 688 667
f 652 661 690
f 685 654 688
f 690 661 685
f 688 690 685
f 688 654 678
f 678 651 665
f 665 667 688
f 688 678 665
f 678 677 651
f 684 660 680
f 678 654 684
f 680 678 684
f 672 656 679
f 680 660 672
f 679 680 672
f 680 653 677
f 685 684 654
f 661 687 685
f 686 661 652
f 662 664 686
f 652 662 686
f 673 664 662
f 655 663 673
f 662 655 673
f 692 693 694
f 694 674 691
f 692 663 655
f 675 676 692
f 655 675 692
f 679 695 653
f 691 674 696
f 679 656 691
f 696 679 691
f 788 832 831
f 818 819 780
f 742 715 733
f 747 739 742
f 733 747 742
f 747 712 746
f 744 741 740
f 713 720 744
f 740 713 744
f 743 742 739
f 741 745 743
f 731 720 713
f 721 723 731
f 713 721 731
f 749 723 721
f 711 722 749
f 721 711 749
f 749 750 751
f 751 714 748
f 733 732 712
f 730 719 735
f 733 715 730
f 735 733 730
f 748 714 734
f 735 719 748
f 734 735 748
f 735 710 732
f 734 714 752
f 752 728 726
f 726 710 734
f 734 752 726
f 750 722 755
f 752 714 750
f 755 752 750
f 711 755 722
f 755 728 752
f 728 422 726
f 658 657 423
f 665 651 682
f 682 659 658
f 658 419 665
f 665 682 658
f 682 681 659
f 677 653 683
f 682 651 677
f 683 682 677
f 668 419 658
f 658 423 424
f 424 420 668
f 668 658 424
f 783 785 426
f 787 425 785
f 782 781 427
f 784 426 781
f 717 422 729
f 729 421 428
f 428 429 717
f 717 729 428
f 732 710 737
f 738 712 732
f 737 738 732
f 738 718 736
f 737 710 726
f 726 422 717
f 717 718 737
f 737 726 717
f 718 429 716
f 424 430 431
f 425 431 432
f 785 425 432
f 433 426 785
f 432 433 785
f 781 426 433
f 434 427 781
f 433 434 781
f 428 434 435
f 429 435 436
f 431 437 438
f 432 438 439
f 433 439 440
f 434 440 441
f 435 441 442
f 436 442 443
f 438 444 445
f 439 445 446
f 440 446 447
f 441 447 448
f 442 448 449
f 443 449 450
f 445 451 452
f 446 452 453
f 447 453 454
f 448 454 455
f 449 455 456
f 450 456 457
f 452 458 459
f 453 459 460
f 454 460 461
f 455 461 462
f 456 462 463
f 457 463 464
f 615 582 603
f 603 465 588
f 588 590 615
f 615 603 588
f 458 590 588
f 612 582 615
f 617 586 612
f 615 617 612
f 590 617 615
f 588 465 607
f 607 466 459
f 459 458 588
f 588 607 459
f 460 466 467
f 461 467 468
f 462 468 469
f 463 469 470
f 529 471 517
f 517 464 463
f 463 470 529
f 529 517 463
f 547 548 549
f 544 513 549
f 548 509 544
f 549 548 544
f 516 517 518
f 525 509 548
f 548 518 517
f 517 471 525
f 525 548 517
f 630 629 472
f 581 631 630
f 625 583 597
f 631 601 625
f 597 631 625
f 631 580 629
f 626 601 581
f 602 604 626
f 581 602 626
f 465 604 602
f 611 585 627
f 627 604 603
f 603 582 611
f 611 627 603
f 626 625 601
f 604 628 626
f 622 592 628
f 627 585 622
f 628 627 622
f 628 583 625
f 621 595 591
f 583 592 621
f 591 583 621
f 622 621 592
f 585 624 622
f 609 594 584
f 591 595 609
f 584 591 609
f 623 585 611
f 614 593 623
f 611 614 623
f 582 614 611
f 612 613 614
f 610 593 614
f 613 587 610
f 614 613 610
f 633 587 613
f 637 619 633
f 613 637 633
f 586 637 613
f 632 620 618
f 584 594 632
f 618 584 632
f 633 634 635
f 635 620 632
f 597 596 580
f 591 584 598
f 597 583 591
f 598 597 591
f 606 608 605
f 466 608 606
f 602 581 608
f 607 465 602
f 608 607 602
f 630 472 605
f 608 581 630
f 605 608 630
f 565 510 531
f 528 473 565
f 531 528 565
f 526 471 529
f 531 510 526
f 529 531 526
f 529 530 531
f 528 531 530
f 519 511 533
f 534 512 519
f 533 534 519
f 534 508 532
f 551 550 542
f 541 553 551
f 550 520 512
f 540 542 550
f 512 540 550
f 554 543 555
f 552 541 555
f 543 515 552
f 555 543 552
f 539 515 543
f 546 521 539
f 543 546 539
f 513 546 543
f 544 545 546
f 557 521 546
f 545 514 557
f 546 545 557
f 538 523 519
f 512 520 538
f 519 512 538
f 557 558 559
f 559 522 556
f 556 522 511
f 519 523 556
f 511 519 556
f 522 560 511
f 558 514 561
f 563 522 558
f 561 563 558
f 561 562 563
f 563 524 560
f 561 514 545
f 545 509 525
f 525 527 561
f 561 545 525
f 525 526 527
f 562 527 526
f 510 524 562
f 526 510 562
f 533 564 508
f 560 524 566
f 533 511 560
f 566 533 560
f 524 565 566
f 566 473 564
f 474 599 600
f 629 580 600
f 599 472 629
f 600 599 629
f 564 473 536
f 537 508 564
f 536 537 564
f 537 475 535
f 858 671 857
f 859 655 826
f 827 858 859
f 676 675 859
f 652 825 826
f 859 826 827
f 857 671 670
f 856 670 417
f 671 827 828
f 827 671 858
f 671 828 669
f 675 655 859
f 856 857 670
f 649 663 692
f 650 673 663
f 824 825 689
f 652 690 825
f 826 662 652
f 640 686 664
f 664 673 638
f 826 655 662
f 676 859 693
f 855 856 833
f 833 856 417
f 484 834 830
f 669 829 834
f 485 833 834
f 484 485 834
f 487 488 854
f 855 487 854
f 854 488 489
f 855 486 487
f 833 486 855
f 486 833 485
f 834 829 830
f 831 832 821
f 484 830 483
f 832 481 482
f 820 832 482
f 778 480 788
f 481 788 480
f 481 832 788
f 832 820 821
f 821 822 420
f 829 669 828
f 690 689 825
f 648 649 692
f 646 647 656
f 647 694 691
f 648 694 647
f 694 648 692
f 649 650 663
f 673 650 638
f 639 640 664
f 646 656 645
f 672 644 645
f 695 696 860
f 674 860 696
f 683 695 860
f 860 674 693
f 645 656 672
f 644 672 660
f 695 683 653
f 683 861 681
f 861 683 860
f 647 691 656
f 860 693 859
f 660 643 644
f 686 641 687
f 642 684 687
f 641 642 687
f 643 684 642
f 779 480 778
f 666 823 824
f 823 668 822
f 667 824 689
f 667 666 824
f 666 668 823
f 643 660 684
f 686 640 641
f 420 822 668
f 831 821 420
f 786 831 424
f 831 420 424
f 776 831 786
f 777 788 831
f 777 778 788
f 831 776 777
f 774 775 787
f 786 775 776
f 783 774 787
f 775 786 787
f 419 668 666
f 779 479 480
f 659 681 657
f 638 639 664
f 490 853 489
f 854 489 853
f 816 853 491
f 853 490 491
f 492 816 491
f 852 816 418
f 816 852 853
f 817 816 492
f 817 805 806
f 493 494 805
f 493 805 817
f 492 493 817
f 817 806 724
f 819 477 780
f 478 780 477
f 479 768 478
f 779 767 479
f 769 780 478
f 819 815 476
f 813 814 421
f 814 819 818
f 815 819 814
f 819 476 477
f 729 812 813
f 753 810 811
f 725 724 807
f 724 806 807
f 807 808 725
f 850 851 725
f 418 725 851
f 850 725 808
f 713 849 809
f 809 850 808
f 809 810 721
f 850 809 849
f 711 810 753
f 852 418 851
f 811 755 753
f 811 754 755
f 811 812 727
f 811 727 754
f 809 721 713
f 849 713 740
f 708 723 749
f 697 731 723
f 810 711 721
f 848 740 741
f 768 479 767
f 707 749 751
f 728 754 727
f 769 770 780
f 707 708 749
f 706 707 751
f 719 705 748
f 706 748 705
f 704 705 719
f 706 751 748
f 421 729 813
f 709 723 708
f 772 782 771
f 784 773 783
f 772 773 784
f 784 782 772
f 818 421 814
f 818 770 771
f 818 428 421
f 729 422 812
f 422 727 812
f 818 771 782
f 770 818 780
f 720 731 698
f 698 731 697
f 720 698 699
f 723 709 697
f 744 720 699
f 699 700 744
f 700 745 744
f 700 701 745
f 701 742 745
f 848 741 743
f 730 703 704
f 715 702 703
f 719 730 704
f 703 730 715
f 701 715 742
f 848 739 747
f 743 739 848
f 847 848 746
f 848 747 746
f 746 712 738
f 738 847 746
f 715 701 702
f 818 782 428
f 478 768 769
f 773 774 783
f 862 657 861
f 864 430 863
f 865 437 864
f 863 657 862
f 867 444 866
f 868 451 867
f 616 869 870
f 617 616 870
f 589 868 869
f 865 444 437
f 869 616 589
f 871 637 636
f 619 871 634
f 620 634 871
f 637 871 619
f 636 617 870
f 617 636 586
f 587 633 578
f 633 577 578
f 579 587 578
f 871 636 870
f 430 423 657
f 437 430 864
f 657 863 430
f 590 589 616
f 451 868 589
f 424 425 786
f 451 444 867
f 589 458 451
f 567 593 610
f 610 579 567
f 593 567 568
f 569 593 568
f 466 796 467
f 467 797 468
f 624 623 569
f 593 569 623
f 624 569 570
f 579 610 587
f 635 577 633
f 576 577 635
f 632 576 635
f 576 632 594
f 594 575 576
f 624 571 621
f 574 609 573
f 595 572 573
f 574 575 594
f 621 571 572
f 609 574 594
f 598 584 618
f 872 596 598
f 618 872 598
f 873 596 872
f 618 620 871
f 573 609 595
f 572 595 621
f 580 596 600
f 596 873 600
f 874 600 873
f 618 871 872
f 599 793 605
f 605 472 599
f 794 606 605
f 793 794 605
f 798 468 797
f 468 798 799
f 606 795 796
f 606 794 795
f 797 467 796
f 466 606 796
f 791 792 876
f 474 792 793
f 599 474 793
f 792 875 876
f 874 474 600
f 474 875 792
f 790 791 876
f 877 789 790
f 765 766 789
f 764 765 877
f 789 877 765
f 763 764 877
f 877 790 876
f 474 874 875
f 570 571 624
f 799 469 468
f 716 429 436
f 845 716 436
f 443 842 843
f 443 844 436
f 716 736 718
f 516 457 464
f 457 841 450
f 516 840 457
f 428 782 427
f 506 557 559
f 800 470 469
f 539 521 495
f 507 495 521
f 496 539 495
f 521 506 507
f 506 521 557
f 547 516 518
f 496 515 539
f 738 736 847
f 846 847 736
f 716 846 736
f 845 846 716
f 436 844 845
f 450 841 842
f 516 839 840
f 516 838 839
f 838 549 837
f 496 497 515
f 554 549 513
f 552 515 497
f 837 554 555
f 541 837 555
f 549 554 837
f 552 498 553
f 551 837 541
f 497 498 552
f 516 547 838
f 559 505 506
f 801 530 800
f 470 800 530
f 530 801 802
f 528 530 802
f 536 473 528
f 803 758 536
f 803 536 528
f 803 528 802
f 532 508 537
f 804 758 803
f 762 763 878
f 877 878 763
f 761 762 878
f 760 761 878
f 536 758 475
f 759 475 758
f 758 804 757
f 879 759 760
f 878 879 760
f 475 759 879
f 756 757 804
f 800 469 799
f 879 535 475
f 504 505 559
f 523 503 556
f 504 556 503
f 502 503 523
f 559 556 504
f 553 498 499
f 499 550 553
f 502 538 501
f 520 500 501
f 500 520 499
f 538 502 523
f 501 538 520
f 879 880 535
f 537 880 835
f 540 512 534
f 836 542 540
f 836 532 835
f 534 836 540
f 835 532 537
f 551 542 836
f 499 520 550
f 537 535 880
f 837 551 836
f 861 657 681
f 234 235 233
f 230 232 229
f 225 231 232
f 198 212 210
f 212 211 200
f 216 201 217
f 1 219 221
f 219 190 220
f 221 220 191
f 197 199 196
f 199 198 3
f 236 2 228
f 383 228 4
f 208 215 213
f 200 189 214
f 215 214 205
f 207 209 206
f 209 208 193
f 380 4 381
f 382 381 8
f 385 386 384
f 5 204 386
f 377 8 378
f 379 378 15
f 388 389 387
f 9 384 389
f 11 10 17
f 12 11 18
f 13 12 19
f 14 13 20
f 374 15 375
f 376 375 22
f 391 392 390
f 16 387 392
f 18 17 24
f 19 18 25
f 20 19 26
f 21 20 27
f 371 22 372
f 373 372 29
f 394 395 393
f 23 390 395
f 25 24 31
f 26 25 32
f 27 26 33
f 28 27 34
f 368 29 369
f 370 369 36
f 397 398 396
f 30 393 398
f 32 31 38
f 33 32 39
f 34 33 40
f 35 34 41
f 367 36 412
f 413 412 43
f 400 401 399
f 37 396 401
f 41 40 47
f 42 41 48
f 409 43 410
f 411 410 50
f 142 403 402
f 44 399 403
f 134 145 147
f 145 143 146
f 141 44 142
f 132 152 153
f 152 135 136
f 136 149 150
f 47 155 156
f 155 46 132
f 406 50 407
f 408 407 52
f 283 214 189
f 384 386 290
f 13 415 416
f 382 255 256
f 377 379 251
f 382 377 253
f 376 246 247
f 371 244 245
f 392 298 299
f 373 368 240
f 367 365 366
f 409 361 362
f 409 411 359
f 413 363 364
f 368 370 238
f 406 408 355
f 417 670 671
f 833 417 669
f 418 816 817
f 666 667 665
f 689 690 688
f 678 680 677
f 680 679 653
f 685 687 684
f 661 686 687
f 692 676 693
f 694 693 674
f 679 696 695
f 747 733 712
f 743 745 742
f 741 744 745
f 749 722 750
f 751 750 714
f 733 735 732
f 735 734 710
f 711 753 755
f 755 754 728
f 728 727 422
f 658 659 657
f 682 683 681
f 783 787 785
f 787 786 425
f 782 784 781
f 784 783 426
f 738 737 718
f 718 717 429
f 424 423 430
f 425 424 431
f 428 427 434
f 429 428 435
f 431 430 437
f 432 431 438
f 433 432 439
f 434 433 440
f 435 434 441
f 436 435 442
f 438 437 444
f 439 438 445
f 440 439 446
f 441 440 447
f 442 441 448
f 443 442 449
f 445 444 451
f 446 445 452
f 447 446 453
f 448 447 454
f 449 448 455
f 450 449 456
f 452 451 458
f 453 452 459
f 454 453 460
f 455 454 461
f 456 455 462
f 457 456 463
f 458 589 590
f 590 616 617
f 460 459 466
f 461 460 467
f 462 461 468
f 463 462 469
f 547 518 548
f 516 464 517
f 630 631 629
f 581 601 631
f 631 597 580
f 465 603 604
f 626 628 625
f 604 627 628
f 628 592 583
f 622 624 621
f 585 623 624
f 582 612 614
f 612 586 613
f 586 636 637
f 633 619 634
f 635 634 620
f 597 598 596
f 466 607 608
f 529 470 530
f 534 533 508
f 551 553 550
f 541 552 553
f 554 513 543
f 513 544 546
f 544 509 545
f 557 514 558
f 559 558 522
f 522 563 560
f 561 527 562
f 563 562 524
f 525 471 526
f 533 566 564
f 524 510 565
f 566 565 473
f 537 536 475
f 848 849 740
f 865 866 444
f 443 450 842
f 443 843 844
f 457 840 841
f 838 547 549
f 836 534 532

