# https://github.com/mikedh/trimesh
v -0.00649600 -0.00000000 -0.00011800
v -0.00674400 0.00108500 -0.00001800
v -0.00743700 0.00195500 -0.00001800
v -0.00844000 0.00243700 -0.00001800
v -0.00955200 0.00243700 -0.00001800
v -0.01055500 0.00195500 -0.00001800
v -0.01124800 0.00108500 -0.00001800
v -0.01149600 -0.00000000 -0.00011800
v -0.01124800 -0.00108500 -0.00011800
v -0.01055500 -0.00195500 -0.00011800
v -0.00955200 -0.00243700 -0.00011800
v -0.00844000 -0.00243700 -0.00011800
v -0.00743700 -0.00195500 -0.00011800
v -0.00674400 -0.00108500 -0.00011800
v 0.01150400 0.00000000 -0.00001800
v 0.01125600 0.00108500 -0.00001800
v 0.01056300 0.00195500 -0.00001800
v 0.00956000 0.00243700 -0.00001800
v 0.00844800 0.00243700 -0.00001800
v 0.00744500 0.00195500 -0.00001800
v 0.00675200 0.00108500 -0.00001800
v 0.00650400 0.00000000 -0.00001800
v 0.00675200 -0.00108500 -0.00011800
v 0.00744500 -0.00195500 -0.00011800
v 0.00844800 -0.00243700 -0.00011800
v 0.00956000 -0.00243700 -0.00011800
v 0.01056300 -0.00195500 -0.00011800
v 0.01125600 -0.00108500 -0.00011800
v 0.01300400 0.01983000 -0.00001800
v -0.01299600 0.01983000 -0.00001800
v -0.01982600 0.01300000 -0.00001800
v -0.01977000 0.01454800 -0.00001800
v -0.01761600 0.01856000 -0.00001800
v -0.01810400 0.01812700 -0.00001800
v -0.01815600 0.01807500 -0.00001800
v 0.01983400 0.01300000 -0.00001800
v 0.01983400 -0.01300000 -0.00011800
v -0.01584500 0.01950700 -0.00001800
v -0.01647800 0.01926000 -0.00001800
v -0.01707800 0.01893800 -0.00001800
v -0.01859200 0.01757400 -0.00001800
v -0.01896900 0.01702500 -0.00001800
v -0.01927400 0.01644300 -0.00001800
v 0.01856400 0.01762000 -0.00001800
v 0.01813100 0.01810800 -0.00001800
v 0.01807900 0.01816000 -0.00001800
v 0.01757800 0.01859600 -0.00001800
v -0.01299600 -0.01983000 -0.00011800
v 0.01300400 -0.01983000 -0.00011800
v -0.01982600 -0.01300000 -0.00011800
v -0.01951000 0.01582600 -0.00001800
v 0.01951100 0.01584900 -0.00001800
v 0.01926400 0.01648200 -0.00001800
v 0.01894200 0.01708200 -0.00001800
v -0.01459700 0.01976800 -0.00001800
v 0.01702900 0.01897300 -0.00001800
v 0.01644700 0.01927800 -0.00001800
v 0.01583000 0.01951400 -0.00001800
v 0.01762400 -0.01856000 -0.00011800
v 0.01811200 -0.01812700 -0.00011800
v 0.01816400 -0.01807500 -0.00011800
v 0.01977200 0.01460100 -0.00001800
v 0.01455200 0.01977400 -0.00001800
v -0.01855600 -0.01762000 -0.00011800
v -0.01812300 -0.01810800 -0.00011800
v -0.01807100 -0.01816000 -0.00011800
v -0.01757000 -0.01859600 -0.00011800
v 0.01585300 -0.01950700 -0.00011800
v 0.01648600 -0.01926000 -0.00011800
v 0.01708600 -0.01893800 -0.00011800
v -0.01950300 -0.01584900 -0.00011800
v -0.01925600 -0.01648200 -0.00011800
v -0.01893400 -0.01708200 -0.00011800
v 0.01860000 -0.01757400 -0.00011800
v 0.01897700 -0.01702500 -0.00011800
v 0.01928200 -0.01644300 -0.00011800
v 0.01460500 -0.01976800 -0.00011800
v -0.01702100 -0.01897300 -0.00011800
v -0.01643900 -0.01927800 -0.00011800
v -0.01582200 -0.01951400 -0.00011800
v -0.01976400 -0.01460100 -0.00011800
v -0.01454400 -0.01977400 -0.00011800
v 0.01977800 -0.01454800 -0.00011800
v 0.01951800 -0.01582600 -0.00011800
f 29 30 20
f 31 6 32
f 32 6 5
f 33 34 21
f 21 34 35
f 21 4 22
f 22 4 3
f 17 16 36
f 36 16 15
f 36 15 37
f 38 39 21
f 21 39 40
f 21 40 33
f 35 41 21
f 21 41 42
f 21 42 43
f 44 45 18
f 18 45 46
f 18 46 47
f 13 24 23
f 48 49 13
f 10 9 50
f 50 9 8
f 50 8 31
f 31 8 7
f 31 7 6
f 5 4 32
f 32 4 21
f 32 21 51
f 51 21 43
f 52 53 18
f 18 53 54
f 18 54 44
f 20 30 21
f 21 30 55
f 21 55 38
f 47 56 18
f 18 56 57
f 18 57 58
f 59 60 26
f 26 60 61
f 17 36 18
f 18 36 62
f 18 62 52
f 20 19 29
f 29 19 18
f 29 18 63
f 63 18 58
f 3 2 22
f 22 2 1
f 22 1 23
f 23 1 14
f 23 14 13
f 64 65 11
f 11 65 66
f 11 66 67
f 68 69 26
f 26 69 70
f 26 70 59
f 71 72 11
f 11 72 73
f 11 73 64
f 61 74 26
f 26 74 75
f 26 75 76
f 24 13 25
f 25 13 49
f 25 49 26
f 26 49 77
f 26 77 68
f 67 78 11
f 11 78 79
f 11 79 80
f 10 50 11
f 11 50 81
f 11 81 71
f 13 12 48
f 48 12 11
f 48 11 82
f 82 11 80
f 15 28 37
f 37 28 27
f 37 27 83
f 83 27 26
f 83 26 84
f 84 26 76

