# https://github.com/mikedh/trimesh
v -0.00112383 0.04296633 0.00130445
v -0.00447847 0.04261487 0.00000013
v 0.00000000 0.03749452 0.06500000
v 0.00392708 0.04277482 0.00130445
v 0.00560019 0.04255594 0.00000013
v -0.00727330 0.04233707 0.00130445
v -0.00536658 0.03707151 0.06500000
v 0.00390603 0.03729248 0.06500000
v 0.00682713 0.03685053 0.06500000
v 0.00894009 0.04205717 0.00130445
v -0.01220634 0.04120693 0.00130445
v -0.01110146 0.03577090 0.06500000
v 0.01110146 0.03577090 0.06500000
v 0.01220634 0.04120693 0.00130445
v 0.01432562 0.04045771 0.00000013
v -0.01432562 0.04045771 0.00000013
v -0.01644489 0.03970850 0.00130445
v 0.01644489 0.03970850 0.00130445
v -0.01656274 0.03359481 0.06500000
v 0.01656274 0.03359481 0.06500000
v -0.02050666 0.03777232 0.00130445
v 0.02050666 0.03777232 0.00130445
v 0.02242600 0.03659588 0.00000013
v -0.02242600 0.03659588 0.00000013
v -0.02123062 0.03088626 0.06500000
v -0.02434534 0.03541944 0.00130445
v 0.02123062 0.03088626 0.06500000
v 0.02434534 0.03541944 0.00130445
v -0.02791044 0.03267933 0.00130445
v -0.02433272 0.02849550 0.06500000
v 0.02433272 0.02849550 0.06500000
v 0.02791044 0.03267933 0.00130445
v -0.03194695 0.02876488 0.00130445
v -0.02750215 0.02542076 0.06500000
v 0.02750215 0.02542076 0.06500000
v 0.03194695 0.02876488 0.00130445
v 0.03263303 0.02787045 0.00000013
v -0.03263303 0.02787045 0.00000013
v -0.03088626 0.02123062 0.06500000
v -0.03541944 0.02434534 0.00130445
v 0.03088626 0.02123062 0.06500000
v 0.03541944 0.02434534 0.00130445
v 0.03879513 0.01849892 0.00000013
v -0.03879513 0.01849892 0.00000013
v -0.03359481 0.01656274 0.06500000
v -0.03777232 0.02050666 0.00130445
v 0.03359481 0.01656274 0.06500000
v 0.03777232 0.02050666 0.00130445
v -0.03970850 0.01644489 0.00130445
v 0.03970850 0.01644489 0.00130445
v -0.03577090 0.01110146 0.06500000
v 0.03577090 0.01110146 0.06500000
v -0.04120693 0.01220634 0.00130445
v 0.04120693 0.01220634 0.00130445
v 0.04226341 0.00783311 0.00000013
v -0.04226341 0.00783311 0.00000013
v -0.04205717 0.00894009 0.00130445
v -0.03707151 0.00536658 0.06500000
v 0.03707151 0.00536658 0.06500000
v 0.04205717 0.00894009 0.00130445
v -0.04277482 0.00392708 0.00130445
v 0.04277482 0.00392708 0.00130445
v -0.03749452 0.00000000 0.06500000
v 0.03749452 0.00000000 0.06500000
v 0.04290740 -0.00112172 0.00000013
v -0.04290740 -0.00112172 0.00000013
v -0.04296633 -0.00112383 0.00130445
v 0.04296633 -0.00112383 0.00130445
v -0.03729248 -0.00390603 0.06500000
v 0.03729248 -0.00390603 0.06500000
v -0.04233707 -0.00727330 0.00130445
v 0.04233707 -0.00727330 0.00130445
v -0.03685053 -0.00682713 0.06500000
v 0.03685053 -0.00682713 0.06500000
v -0.04120693 -0.01220634 0.00130445
v -0.03577090 -0.01110146 0.06500000
v 0.03577090 -0.01110146 0.06500000
v 0.04120693 -0.01220634 0.00130445
v 0.04045771 -0.01432562 0.00000013
v -0.04045771 -0.01432562 0.00000013
v -0.03970850 -0.01644489 0.00130445
v 0.03970850 -0.01644489 0.00130445
v -0.03359481 -0.01656274 0.06500000
v 0.03359481 -0.01656274 0.06500000
v -0.03777232 -0.02050666 0.00130445
v 0.03777232 -0.02050666 0.00130445
v 0.03659588 -0.02242600 0.00000013
v -0.03659588 -0.02242600 0.00000013
v -0.03541944 -0.02434534 0.00130445
v -0.03088626 -0.02123062 0.06500000
v 0.03088626 -0.02123062 0.06500000
v 0.03541944 -0.02434534 0.00130445
v -0.03267933 -0.02791044 0.00130445
v -0.02849550 -0.02433272 0.06500000
v 0.02849550 -0.02433272 0.06500000
v 0.03267933 -0.02791044 0.00130445
v -0.02876488 -0.03194695 0.00130445
v -0.02542076 -0.02750215 0.06500000
v 0.02542076 -0.02750215 0.06500000
v 0.02876488 -0.03194695 0.00130445
v 0.02787045 -0.03263303 0.00000013
v -0.02787045 -0.03263303 0.00000013
v -0.02434534 -0.03541944 0.00130445
v -0.02123062 -0.03088626 0.06500000
v 0.02123062 -0.03088626 0.06500000
v 0.02434534 -0.03541944 0.00130445
v 0.01849892 -0.03879513 0.00000013
v -0.01849892 -0.03879513 0.00000013
v -0.02050666 -0.03777232 0.00130445
v -0.01656274 -0.03359481 0.06500000
v 0.02050666 -0.03777232 0.00130445
v 0.01656274 -0.03359481 0.06500000
v -0.01644489 -0.03970850 0.00130445
v 0.01644489 -0.03970850 0.00130445
v -0.01110146 -0.03577090 0.06500000
v 0.01110146 -0.03577090 0.06500000
v -0.01220634 -0.04120693 0.00130445
v 0.01220634 -0.04120693 0.00130445
v 0.01001972 -0.04173517 0.00000013
v -0.00615999 -0.04251385 0.00000013
v -0.00894009 -0.04205717 0.00130445
v -0.00682713 -0.03685053 0.06500000
v 0.00536658 -0.03707151 0.06500000
v 0.00727330 -0.04233707 0.00130445
v -0.00392708 -0.04277482 0.00130445
v -0.00390603 -0.03729248 0.06500000
v 0.00224344 -0.04288215 0.00000013
v 0.00000000 -0.03749452 0.06500000
v 0.00112383 -0.04296633 0.00130445
f 1 3 4
f 1 4 5
f 1 5 2
f 2 5 15
f 2 15 23
f 2 23 37
f 2 37 43
f 2 43 55
f 2 55 65
f 2 65 79
f 2 79 87
f 2 87 101
f 2 101 107
f 2 107 119
f 2 119 127
f 2 127 120
f 2 120 108
f 2 108 102
f 2 102 88
f 2 88 80
f 2 80 66
f 2 66 56
f 2 56 44
f 2 44 38
f 2 38 24
f 2 24 16
f 1 2 6
f 1 6 7
f 1 7 3
f 3 8 4
f 3 7 12
f 3 12 19
f 3 19 25
f 3 25 30
f 3 30 34
f 3 34 39
f 3 39 45
f 3 45 51
f 3 51 58
f 3 58 63
f 3 63 69
f 3 69 73
f 3 73 76
f 3 76 83
f 3 83 90
f 3 90 94
f 3 94 98
f 3 98 104
f 3 104 110
f 3 110 115
f 3 115 122
f 3 122 126
f 3 126 128
f 3 128 123
f 3 123 116
f 3 116 112
f 3 112 105
f 3 105 99
f 3 99 95
f 3 95 91
f 3 91 84
f 3 84 77
f 3 77 74
f 3 74 70
f 3 70 64
f 3 64 59
f 3 59 52
f 3 52 47
f 3 47 41
f 3 41 35
f 3 35 31
f 3 31 27
f 3 27 20
f 3 20 13
f 3 13 9
f 3 9 8
f 8 9 4
f 9 10 4
f 4 10 5
f 6 2 16
f 6 16 11
f 6 11 12
f 6 12 7
f 9 13 10
f 10 13 14
f 10 14 15
f 10 15 5
f 11 16 17
f 11 17 12
f 14 13 18
f 14 18 15
f 12 17 19
f 13 20 18
f 19 17 21
f 17 16 24
f 17 24 21
f 20 22 18
f 18 22 23
f 18 23 15
f 21 25 19
f 21 24 26
f 21 26 25
f 20 27 22
f 22 27 28
f 22 28 23
f 26 24 29
f 26 29 25
f 25 29 30
f 27 31 32
f 27 32 28
f 28 32 23
f 29 24 38
f 29 38 33
f 29 33 34
f 29 34 30
f 31 35 32
f 32 36 37
f 32 37 23
f 32 35 36
f 34 33 39
f 33 38 40
f 33 40 39
f 35 41 36
f 36 42 37
f 36 41 42
f 40 38 44
f 42 43 37
f 39 40 46
f 39 46 45
f 40 44 46
f 41 47 48
f 41 48 42
f 42 48 43
f 46 44 49
f 46 49 45
f 48 50 43
f 48 47 50
f 45 49 51
f 47 52 50
f 51 49 53
f 49 44 56
f 49 56 53
f 52 54 50
f 50 54 55
f 50 55 43
f 51 53 57
f 51 57 58
f 53 56 57
f 52 59 60
f 52 60 54
f 54 60 55
f 57 56 61
f 57 61 58
f 60 62 55
f 60 59 62
f 61 56 66
f 58 61 63
f 59 64 62
f 62 65 55
f 61 66 67
f 61 67 63
f 62 64 68
f 62 68 65
f 63 67 69
f 64 70 68
f 67 71 69
f 67 66 71
f 68 70 72
f 68 72 65
f 69 71 73
f 70 74 72
f 71 75 76
f 71 76 73
f 71 66 80
f 71 80 75
f 74 77 72
f 72 77 78
f 72 78 79
f 72 79 65
f 75 81 76
f 75 80 81
f 78 77 82
f 78 82 79
f 81 83 76
f 77 84 82
f 81 80 88
f 81 88 85
f 81 85 83
f 84 86 82
f 82 86 87
f 82 87 79
f 85 89 90
f 85 90 83
f 85 88 89
f 84 91 86
f 86 91 92
f 86 92 87
f 89 88 93
f 89 93 90
f 90 93 94
f 91 95 96
f 91 96 92
f 92 96 87
f 93 88 102
f 93 102 97
f 93 97 98
f 93 98 94
f 96 95 99
f 96 99 100
f 96 100 101
f 96 101 87
f 97 102 103
f 97 103 104
f 97 104 98
f 99 105 100
f 100 105 106
f 100 106 101
f 103 102 108
f 106 107 101
f 103 109 104
f 103 108 109
f 104 109 110
f 105 111 106
f 105 112 111
f 106 111 107
f 109 108 113
f 109 113 110
f 111 112 114
f 111 114 107
f 110 113 115
f 112 116 114
f 113 117 115
f 113 108 120
f 113 120 117
f 116 118 114
f 114 118 119
f 114 119 107
f 117 120 121
f 117 121 115
f 115 121 122
f 116 123 124
f 116 124 118
f 118 124 119
f 121 125 122
f 121 120 125
f 125 126 122
f 124 127 119
f 123 128 129
f 123 129 124
f 124 129 127
f 125 129 128
f 125 128 126
f 125 120 127
f 125 127 129

