# https://github.com/mikedh/trimesh
v -0.06674584 -0.05014301 -0.00728907
v -0.06593058 -0.03875842 0.00895780
v -0.06335309 -0.08148797 0.00233920
v -0.06510883 -0.05874673 0.01551399
v -0.06251200 -0.06887591 -0.02112888
v -0.05966048 -0.08092615 0.02121041
v -0.06171792 -0.01658623 -0.01327691
v -0.05999266 -0.03712251 -0.02798715
v -0.06058651 -0.03738170 0.02721180
v -0.05720796 -0.01807775 0.02729758
v -0.05801502 -0.05901778 -0.03344271
v -0.05400810 0.01022925 0.01610113
v -0.05098841 0.01099598 -0.02360293
v -0.05756535 -0.09350352 -0.01269903
v -0.05489827 -0.07151977 0.03525665
v -0.03781299 0.01461397 -0.04190732
v -0.05357630 -0.01978192 -0.03485672
v -0.04475320 0.01269915 0.03497437
v -0.02206438 0.01851948 0.04862139
v -0.02208004 0.01851948 -0.04862158
v -0.03142112 -0.02810710 -0.05703336
v -0.04357430 -0.02277196 -0.04775476
v -0.05177124 -0.10466237 0.00616055
v -0.05293074 -0.04672051 0.04098338
v -0.00746332 0.02168223 -0.05016741
v 0.01269929 -0.02409376 -0.06953005
v -0.00273599 -0.03858271 -0.06940092
v -0.04750656 -0.09471650 -0.03388561
v -0.04692030 -0.08922063 0.03785881
v -0.04449078 -0.02260823 0.04669271
v 0.04677561 0.02131285 -0.05575119
v 0.03660715 0.01858138 -0.05770786
v -0.04871862 -0.05194490 -0.04571129
v -0.04728356 -0.07983547 -0.04222143
v -0.04829789 -0.10677131 -0.01476191
v -0.02638829 -0.03056702 0.05978895
v 0.00566901 -0.02873805 0.06948291
v 0.03569752 0.02680972 -0.04122470
v -0.04090808 -0.10258519 0.03420958
v 0.03162818 0.01959770 0.05713070
v 0.00090252 0.02323166 0.04853471
v -0.03254873 -0.05304270 -0.05814736
v 0.00039875 -0.04739058 0.07077998
v 0.02157429 -0.02183751 0.06961294
v 0.05161847 0.02581737 0.04077666
v 0.05289137 0.02570755 -0.04063237
v 0.01307529 -0.05360077 -0.07309485
v -0.04374174 -0.11140280 0.01700045
v -0.04012587 -0.06549302 0.05253394
v -0.04230949 -0.04538778 0.05183202
v 0.00176417 -0.07617129 -0.07115895
v -0.03150287 -0.11750317 -0.02535508
v 0.05940123 0.01655974 0.05739706
v 0.03847365 -0.03522803 -0.07099901
v -0.03545716 -0.08816539 0.05016001
v 0.06742975 0.00926685 -0.05840041
v -0.02990503 -0.07384716 -0.05802208
v -0.02918670 -0.10051638 -0.04697608
v 0.04130119 -0.02685917 0.06958403
v 0.07421329 0.01731349 0.00363334
v -0.03006867 -0.11152136 -0.03656305
v 0.07070011 0.01767090 -0.02842192
v -0.02610575 -0.11750636 0.03226713
v -0.01496733 -0.06688441 0.06573346
v 0.02802492 -0.06571665 -0.07370162
v -0.03619544 -0.12064146 -0.00780871
v -0.03166933 -0.12168979 0.01383633
v -0.00593977 -0.09851520 0.06222960
v 0.03123677 -0.05940164 0.07327232
v 0.07220898 0.01477870 0.03226194
v -0.02457589 -0.10635643 0.04638504
v 0.07093902 0.00799296 0.05585936
v 0.08108299 0.00141189 0.01533543
v 0.05636538 -0.04697178 -0.06955171
v 0.02085266 -0.08509248 -0.07198243
v -0.01251989 -0.09532649 -0.06024263
v 0.05587972 -0.04517476 0.06953709
v 0.08053125 0.00304668 -0.01249226
v 0.00713773 -0.08212940 0.07124545
v 0.02160954 -0.08519332 0.07208744
v 0.07774600 0.00147092 0.03983720
v 0.07857637 -0.02202120 -0.05821441
v 0.07613634 -0.00399713 -0.05615209
v 0.04797824 -0.07378776 -0.07101087
v 0.01418760 -0.10790261 -0.06480947
v -0.00382897 -0.11541215 0.05003969
v -0.00451021 -0.12468275 -0.03707840
v -0.01182641 -0.12924668 -0.02116341
v -0.01241781 -0.13040125 0.01619503
v 0.07929703 -0.03571247 0.05894922
v 0.02277277 -0.10960379 0.06491765
v 0.08728883 -0.03441862 -0.03882288
v 0.07829928 -0.05774689 -0.06014580
v 0.03356102 -0.10876319 -0.06486546
v 0.00134118 -0.11243109 -0.05643742
v 0.04403203 -0.07985718 0.07146034
v 0.08670722 -0.03628552 0.04391166
v 0.08607665 -0.04995882 -0.05011684
v -0.00731951 -0.13298117 -0.00384791
v 0.09005199 -0.03516338 0.00104009
v 0.06073238 -0.09636178 -0.06302527
v 0.04571421 -0.10494353 0.06472080
v 0.00009570 -0.13200659 0.02180048
v 0.07454228 -0.07868712 0.06066300
v 0.08573493 -0.05470194 0.05065481
v 0.01227924 -0.11716374 0.05447696
v 0.09150113 -0.05519812 0.01743025
v 0.08988749 -0.07532470 -0.02257358
v 0.08631556 -0.06732199 -0.04566355
v 0.02425300 -0.12039313 -0.04968253
v 0.06229902 -0.09466858 0.06301064
v 0.07533344 -0.08347118 -0.05578369
v 0.07862338 -0.11428402 -0.02108553
v 0.00775851 -0.13249578 -0.02228825
v 0.07534910 -0.11744677 -0.02099885
v 0.09062088 -0.07579792 0.00940131
v 0.08386377 -0.11067401 -0.01107374
v 0.08658189 -0.07189041 0.04187463
v 0.04006844 -0.11594526 0.05197310
v 0.08474501 -0.10603771 0.01089297
v 0.04805046 -0.12801722 -0.02111804
v 0.07534910 -0.11744677 0.02101312
v 0.07618725 -0.12069737 0.00562703
v 0.07862338 -0.11428402 0.02108535
v 0.01862216 -0.13591810 0.00261843
v 0.02115913 -0.13266949 0.02179326
v 0.05400649 -0.12886544 -0.00751514
v 0.04145100 -0.12963253 0.02113050
v 0.05094959 -0.12971503 0.00881192
f 1 3 4
f 1 4 2
f 1 5 3
f 1 7 8
f 4 3 6
f 2 4 9
f 1 2 7
f 1 8 5
f 2 9 10
f 2 12 7
f 6 15 4
f 4 15 9
f 10 12 2
f 5 8 11
f 5 14 3
f 7 12 13
f 13 17 7
f 12 10 18
f 7 17 8
f 16 17 13
f 18 16 12
f 12 16 13
f 18 19 16
f 16 21 22
f 16 22 17
f 15 24 9
f 16 25 20
f 20 25 26
f 20 26 27
f 20 21 16
f 3 23 6
f 18 10 30
f 16 19 25
f 25 31 32
f 20 27 21
f 11 8 33
f 5 28 14
f 14 23 3
f 6 29 15
f 9 24 10
f 19 18 30
f 19 30 36
f 19 36 37
f 25 38 31
f 26 25 32
f 5 34 28
f 11 34 5
f 10 24 30
f 19 40 41
f 38 25 41
f 11 33 34
f 39 6 23
f 39 29 6
f 37 36 43
f 37 44 40
f 37 40 19
f 19 41 25
f 41 45 38
f 38 45 46
f 38 46 31
f 27 26 47
f 14 28 35
f 15 49 24
f 8 17 33
f 21 27 42
f 27 51 42
f 21 42 33
f 21 33 22
f 22 33 17
f 48 39 23
f 15 29 49
f 35 23 14
f 41 40 53
f 47 26 54
f 27 47 51
f 49 29 55
f 24 50 30
f 30 50 36
f 37 43 44
f 28 52 35
f 29 39 55
f 40 44 53
f 46 45 60
f 32 31 56
f 32 56 26
f 34 58 28
f 28 58 61
f 24 49 50
f 41 53 45
f 44 59 53
f 46 60 62
f 56 54 26
f 34 33 57
f 28 61 52
f 36 64 43
f 47 54 65
f 33 42 57
f 57 58 34
f 48 67 63
f 48 63 39
f 43 69 44
f 46 62 31
f 45 53 70
f 45 70 60
f 35 66 23
f 39 71 55
f 36 50 49
f 51 57 42
f 35 52 66
f 23 66 67
f 23 67 48
f 63 71 39
f 71 68 55
f 69 59 44
f 62 56 31
f 65 54 74
f 51 47 75
f 57 76 58
f 68 64 55
f 64 49 55
f 36 49 64
f 60 78 62
f 53 72 70
f 60 70 73
f 65 75 47
f 64 79 43
f 43 80 69
f 60 73 78
f 56 74 54
f 59 69 77
f 43 79 80
f 62 78 83
f 65 74 84
f 51 76 57
f 62 83 56
f 70 81 73
f 83 82 56
f 56 82 74
f 51 85 76
f 75 85 51
f 63 86 71
f 64 68 79
f 59 77 53
f 53 90 72
f 61 87 52
f 52 88 66
f 63 67 89
f 68 71 86
f 53 77 90
f 83 92 82
f 74 82 93
f 65 84 75
f 75 94 85
f 85 95 76
f 58 76 95
f 58 87 61
f 72 90 81
f 81 90 97
f 79 68 91
f 79 91 80
f 93 84 74
f 69 96 77
f 81 70 72
f 69 80 96
f 81 97 73
f 82 92 98
f 84 94 75
f 66 88 99
f 58 95 87
f 68 86 91
f 91 102 80
f 100 92 78
f 97 100 73
f 93 82 98
f 84 101 94
f 88 52 87
f 89 103 63
f 63 103 86
f 96 104 77
f 97 90 105
f 91 86 106
f 73 100 78
f 78 92 83
f 97 107 100
f 84 93 101
f 89 67 99
f 77 104 90
f 96 80 102
f 107 108 92
f 98 109 93
f 94 110 85
f 95 85 87
f 66 99 67
f 107 97 105
f 98 92 108
f 92 100 107
f 98 108 109
f 101 93 112
f 102 111 96
f 109 112 93
f 101 112 113
f 101 115 94
f 85 110 87
f 99 88 114
f 111 104 96
f 90 104 105
f 113 115 101
f 87 114 88
f 99 103 89
f 107 105 116
f 102 91 119
f 107 116 108
f 108 117 109
f 117 108 116
f 117 116 120
f 109 117 113
f 109 113 112
f 117 115 113
f 94 115 121
f 94 121 110
f 103 106 86
f 104 118 105
f 105 118 116
f 111 102 122
f 91 106 119
f 115 117 123
f 116 118 120
f 120 123 117
f 114 125 99
f 99 126 103
f 111 122 124
f 104 111 124
f 120 118 124
f 118 104 124
f 102 119 122
f 120 124 123
f 99 125 126
f 103 126 106
f 123 127 115
f 110 114 87
f 110 121 114
f 126 128 119
f 127 121 115
f 114 121 127
f 122 123 124
f 119 128 122
f 119 106 126
f 114 127 125
f 122 128 129
f 122 129 123
f 126 129 128
f 123 129 127
f 126 125 129
f 125 127 129

